<?xml version="1.0" standalone="no"?>
 <!DOCTYPE svg PUBLIC "-//W3C//DTD SVG 1.1//EN" 
 "http://www.w3.org/Graphics/SVG/1.1/DTD/svg11.dtd"> 
<svg
  xmlns:svg="http://www.w3.org/2000/svg"
  xmlns="http://www.w3.org/2000/svg"
  xmlns:xlink="http://www.w3.org/1999/xlink"
  version="1.1"
  width="100.4316mm" height="109.1692mm" viewBox="0.0000 0.0000 100.4316 109.1692">
<title>SVG Image created as board_stm32_rev2-F_Paste.svg date 2025/01/17 22:37:56 </title>
  <desc>Image generated by PCBNEW </desc>
<g style="fill:#000000; fill-opacity:1.0000;stroke:#000000; stroke-opacity:1.0000;
stroke-linecap:round; stroke-linejoin:round;"
 transform="translate(0 0) scale(1 1)">
<path style="fill:#000000; fill-opacity:1.0000; stroke:none;fill-rule:evenodd;"
d="M 80.5930,29.7544
80.4973,29.7354
80.4162,29.6812
80.3620,29.6001
80.3430,29.5044
80.3430,28.8294
80.3620,28.7337
80.4162,28.6526
80.4973,28.5984
80.5930,28.5794
81.5430,28.5794
81.6387,28.5984
81.7198,28.6526
81.7740,28.7337
81.7930,28.8294
81.7930,29.5044
81.7740,29.6001
81.7198,29.6812
81.6387,29.7354
81.5430,29.7544
Z" /> 
<path style="fill:#000000; fill-opacity:1.0000; stroke:none;fill-rule:evenodd;"
d="M 80.5930,27.6794
80.4973,27.6604
80.4162,27.6062
80.3620,27.5251
80.3430,27.4294
80.3430,26.7544
80.3620,26.6587
80.4162,26.5776
80.4973,26.5234
80.5930,26.5044
81.5430,26.5044
81.6387,26.5234
81.7198,26.5776
81.7740,26.6587
81.7930,26.7544
81.7930,27.4294
81.7740,27.5251
81.7198,27.6062
81.6387,27.6604
81.5430,27.6794
Z" /> 
<path style="fill:#000000; fill-opacity:1.0000; stroke:none;fill-rule:evenodd;"
d="M 64.9250,104.2082
64.8293,104.1892
64.7482,104.1350
64.6940,104.0539
64.6750,103.9582
64.6750,103.2832
64.6940,103.1875
64.7482,103.1064
64.8293,103.0522
64.9250,103.0332
65.8750,103.0332
65.9707,103.0522
66.0518,103.1064
66.1060,103.1875
66.1250,103.2832
66.1250,103.9582
66.1060,104.0539
66.0518,104.1350
65.9707,104.1892
65.8750,104.2082
Z" /> 
<path style="fill:#000000; fill-opacity:1.0000; stroke:none;fill-rule:evenodd;"
d="M 64.9250,102.1332
64.8293,102.1142
64.7482,102.0600
64.6940,101.9789
64.6750,101.8832
64.6750,101.2082
64.6940,101.1125
64.7482,101.0314
64.8293,100.9772
64.9250,100.9582
65.8750,100.9582
65.9707,100.9772
66.0518,101.0314
66.1060,101.1125
66.1250,101.2082
66.1250,101.8832
66.1060,101.9789
66.0518,102.0600
65.9707,102.1142
65.8750,102.1332
Z" /> 
<path style="fill:#000000; fill-opacity:1.0000; stroke:none;fill-rule:evenodd;"
d="M 46.0750,41.2082
45.9793,41.1892
45.8982,41.1350
45.8440,41.0539
45.8250,40.9582
45.8250,40.2832
45.8440,40.1875
45.8982,40.1064
45.9793,40.0522
46.0750,40.0332
47.0250,40.0332
47.1207,40.0522
47.2018,40.1064
47.2560,40.1875
47.2750,40.2832
47.2750,40.9582
47.2560,41.0539
47.2018,41.1350
47.1207,41.1892
47.0250,41.2082
Z" /> 
<path style="fill:#000000; fill-opacity:1.0000; stroke:none;fill-rule:evenodd;"
d="M 46.0750,39.1332
45.9793,39.1142
45.8982,39.0600
45.8440,38.9789
45.8250,38.8832
45.8250,38.2082
45.8440,38.1125
45.8982,38.0314
45.9793,37.9772
46.0750,37.9582
47.0250,37.9582
47.1207,37.9772
47.2018,38.0314
47.2560,38.1125
47.2750,38.2082
47.2750,38.8832
47.2560,38.9789
47.2018,39.0600
47.1207,39.1142
47.0250,39.1332
Z" /> 
<path style="fill:#000000; fill-opacity:1.0000; stroke:none;fill-rule:evenodd;"
d="M 50.6250,97.8582
50.7207,97.8772
50.8018,97.9314
50.8560,98.0125
50.8750,98.1082
50.8750,98.7832
50.8560,98.8789
50.8018,98.9600
50.7207,99.0142
50.6250,99.0332
49.6750,99.0332
49.5793,99.0142
49.4982,98.9600
49.4440,98.8789
49.4250,98.7832
49.4250,98.1082
49.4440,98.0125
49.4982,97.9314
49.5793,97.8772
49.6750,97.8582
Z" /> 
<path style="fill:#000000; fill-opacity:1.0000; stroke:none;fill-rule:evenodd;"
d="M 50.6250,99.9332
50.7207,99.9522
50.8018,100.0064
50.8560,100.0875
50.8750,100.1832
50.8750,100.8582
50.8560,100.9539
50.8018,101.0350
50.7207,101.0892
50.6250,101.1082
49.6750,101.1082
49.5793,101.0892
49.4982,101.0350
49.4440,100.9539
49.4250,100.8582
49.4250,100.1832
49.4440,100.0875
49.4982,100.0064
49.5793,99.9522
49.6750,99.9332
Z" /> 
<path style="fill:#000000; fill-opacity:1.0000; stroke:none;fill-rule:evenodd;"
d="M 41.9250,39.6582
41.8293,39.6392
41.7482,39.5850
41.6940,39.5039
41.6750,39.4082
41.6750,38.7332
41.6940,38.6375
41.7482,38.5564
41.8293,38.5022
41.9250,38.4832
42.8750,38.4832
42.9707,38.5022
43.0518,38.5564
43.1060,38.6375
43.1250,38.7332
43.1250,39.4082
43.1060,39.5039
43.0518,39.5850
42.9707,39.6392
42.8750,39.6582
Z" /> 
<path style="fill:#000000; fill-opacity:1.0000; stroke:none;fill-rule:evenodd;"
d="M 41.9250,37.5832
41.8293,37.5642
41.7482,37.5100
41.6940,37.4289
41.6750,37.3332
41.6750,36.6582
41.6940,36.5625
41.7482,36.4814
41.8293,36.4272
41.9250,36.4082
42.8750,36.4082
42.9707,36.4272
43.0518,36.4814
43.1060,36.5625
43.1250,36.6582
43.1250,37.3332
43.1060,37.4289
43.0518,37.5100
42.9707,37.5642
42.8750,37.5832
Z" /> 
<path style="fill:#000000; fill-opacity:1.0000; stroke:none;fill-rule:evenodd;"
d="M 46.3500,32.5932
46.3500,33.2432
44.5500,33.2432
44.5500,32.5932
Z" /> 
<path style="fill:#000000; fill-opacity:1.0000; stroke:none;fill-rule:evenodd;"
d="M 43.6500,31.3232
43.6500,31.9732
41.8500,31.9732
41.8500,31.3232
Z" /> 
<path style="fill:#000000; fill-opacity:1.0000; stroke:none;fill-rule:evenodd;"
d="M 43.7500,44.8582
43.7557,44.8295
43.7720,44.8052
43.7963,44.7889
43.8250,44.7832
45.2250,44.7832
45.2537,44.7889
45.2780,44.8052
45.2943,44.8295
45.3000,44.8582
45.3000,45.0082
45.2943,45.0369
45.2780,45.0612
45.2537,45.0775
45.2250,45.0832
43.8250,45.0832
43.7963,45.0775
43.7720,45.0612
43.7557,45.0369
43.7500,45.0082
Z" /> 
<path style="fill:#000000; fill-opacity:1.0000; stroke:none;fill-rule:evenodd;"
d="M 43.7500,45.3582
43.7557,45.3295
43.7720,45.3052
43.7963,45.2889
43.8250,45.2832
45.2250,45.2832
45.2537,45.2889
45.2780,45.3052
45.2943,45.3295
45.3000,45.3582
45.3000,45.5082
45.2943,45.5369
45.2780,45.5612
45.2537,45.5775
45.2250,45.5832
43.8250,45.5832
43.7963,45.5775
43.7720,45.5612
43.7557,45.5369
43.7500,45.5082
Z" /> 
<path style="fill:#000000; fill-opacity:1.0000; stroke:none;fill-rule:evenodd;"
d="M 43.7500,45.8582
43.7557,45.8295
43.7720,45.8052
43.7963,45.7889
43.8250,45.7832
45.2250,45.7832
45.2537,45.7889
45.2780,45.8052
45.2943,45.8295
45.3000,45.8582
45.3000,46.0082
45.2943,46.0369
45.2780,46.0612
45.2537,46.0775
45.2250,46.0832
43.8250,46.0832
43.7963,46.0775
43.7720,46.0612
43.7557,46.0369
43.7500,46.0082
Z" /> 
<path style="fill:#000000; fill-opacity:1.0000; stroke:none;fill-rule:evenodd;"
d="M 43.7500,46.3582
43.7557,46.3295
43.7720,46.3052
43.7963,46.2889
43.8250,46.2832
45.2250,46.2832
45.2537,46.2889
45.2780,46.3052
45.2943,46.3295
45.3000,46.3582
45.3000,46.5082
45.2943,46.5369
45.2780,46.5612
45.2537,46.5775
45.2250,46.5832
43.8250,46.5832
43.7963,46.5775
43.7720,46.5612
43.7557,46.5369
43.7500,46.5082
Z" /> 
<path style="fill:#000000; fill-opacity:1.0000; stroke:none;fill-rule:evenodd;"
d="M 43.7500,46.8582
43.7557,46.8295
43.7720,46.8052
43.7963,46.7889
43.8250,46.7832
45.2250,46.7832
45.2537,46.7889
45.2780,46.8052
45.2943,46.8295
45.3000,46.8582
45.3000,47.0082
45.2943,47.0369
45.2780,47.0612
45.2537,47.0775
45.2250,47.0832
43.8250,47.0832
43.7963,47.0775
43.7720,47.0612
43.7557,47.0369
43.7500,47.0082
Z" /> 
<path style="fill:#000000; fill-opacity:1.0000; stroke:none;fill-rule:evenodd;"
d="M 43.7500,47.3582
43.7557,47.3295
43.7720,47.3052
43.7963,47.2889
43.8250,47.2832
45.2250,47.2832
45.2537,47.2889
45.2780,47.3052
45.2943,47.3295
45.3000,47.3582
45.3000,47.5082
45.2943,47.5369
45.2780,47.5612
45.2537,47.5775
45.2250,47.5832
43.8250,47.5832
43.7963,47.5775
43.7720,47.5612
43.7557,47.5369
43.7500,47.5082
Z" /> 
<path style="fill:#000000; fill-opacity:1.0000; stroke:none;fill-rule:evenodd;"
d="M 43.7500,47.8582
43.7557,47.8295
43.7720,47.8052
43.7963,47.7889
43.8250,47.7832
45.2250,47.7832
45.2537,47.7889
45.2780,47.8052
45.2943,47.8295
45.3000,47.8582
45.3000,48.0082
45.2943,48.0369
45.2780,48.0612
45.2537,48.0775
45.2250,48.0832
43.8250,48.0832
43.7963,48.0775
43.7720,48.0612
43.7557,48.0369
43.7500,48.0082
Z" /> 
<path style="fill:#000000; fill-opacity:1.0000; stroke:none;fill-rule:evenodd;"
d="M 43.7500,48.3582
43.7557,48.3295
43.7720,48.3052
43.7963,48.2889
43.8250,48.2832
45.2250,48.2832
45.2537,48.2889
45.2780,48.3052
45.2943,48.3295
45.3000,48.3582
45.3000,48.5082
45.2943,48.5369
45.2780,48.5612
45.2537,48.5775
45.2250,48.5832
43.8250,48.5832
43.7963,48.5775
43.7720,48.5612
43.7557,48.5369
43.7500,48.5082
Z" /> 
<path style="fill:#000000; fill-opacity:1.0000; stroke:none;fill-rule:evenodd;"
d="M 43.7500,48.8582
43.7557,48.8295
43.7720,48.8052
43.7963,48.7889
43.8250,48.7832
45.2250,48.7832
45.2537,48.7889
45.2780,48.8052
45.2943,48.8295
45.3000,48.8582
45.3000,49.0082
45.2943,49.0369
45.2780,49.0612
45.2537,49.0775
45.2250,49.0832
43.8250,49.0832
43.7963,49.0775
43.7720,49.0612
43.7557,49.0369
43.7500,49.0082
Z" /> 
<path style="fill:#000000; fill-opacity:1.0000; stroke:none;fill-rule:evenodd;"
d="M 43.7500,49.3582
43.7557,49.3295
43.7720,49.3052
43.7963,49.2889
43.8250,49.2832
45.2250,49.2832
45.2537,49.2889
45.2780,49.3052
45.2943,49.3295
45.3000,49.3582
45.3000,49.5082
45.2943,49.5369
45.2780,49.5612
45.2537,49.5775
45.2250,49.5832
43.8250,49.5832
43.7963,49.5775
43.7720,49.5612
43.7557,49.5369
43.7500,49.5082
Z" /> 
<path style="fill:#000000; fill-opacity:1.0000; stroke:none;fill-rule:evenodd;"
d="M 43.7500,49.8582
43.7557,49.8295
43.7720,49.8052
43.7963,49.7889
43.8250,49.7832
45.2250,49.7832
45.2537,49.7889
45.2780,49.8052
45.2943,49.8295
45.3000,49.8582
45.3000,50.0082
45.2943,50.0369
45.2780,50.0612
45.2537,50.0775
45.2250,50.0832
43.8250,50.0832
43.7963,50.0775
43.7720,50.0612
43.7557,50.0369
43.7500,50.0082
Z" /> 
<path style="fill:#000000; fill-opacity:1.0000; stroke:none;fill-rule:evenodd;"
d="M 43.7500,50.3582
43.7557,50.3295
43.7720,50.3052
43.7963,50.2889
43.8250,50.2832
45.2250,50.2832
45.2537,50.2889
45.2780,50.3052
45.2943,50.3295
45.3000,50.3582
45.3000,50.5082
45.2943,50.5369
45.2780,50.5612
45.2537,50.5775
45.2250,50.5832
43.8250,50.5832
43.7963,50.5775
43.7720,50.5612
43.7557,50.5369
43.7500,50.5082
Z" /> 
<path style="fill:#000000; fill-opacity:1.0000; stroke:none;fill-rule:evenodd;"
d="M 43.7500,50.8582
43.7557,50.8295
43.7720,50.8052
43.7963,50.7889
43.8250,50.7832
45.2250,50.7832
45.2537,50.7889
45.2780,50.8052
45.2943,50.8295
45.3000,50.8582
45.3000,51.0082
45.2943,51.0369
45.2780,51.0612
45.2537,51.0775
45.2250,51.0832
43.8250,51.0832
43.7963,51.0775
43.7720,51.0612
43.7557,51.0369
43.7500,51.0082
Z" /> 
<path style="fill:#000000; fill-opacity:1.0000; stroke:none;fill-rule:evenodd;"
d="M 43.7500,51.3582
43.7557,51.3295
43.7720,51.3052
43.7963,51.2889
43.8250,51.2832
45.2250,51.2832
45.2537,51.2889
45.2780,51.3052
45.2943,51.3295
45.3000,51.3582
45.3000,51.5082
45.2943,51.5369
45.2780,51.5612
45.2537,51.5775
45.2250,51.5832
43.8250,51.5832
43.7963,51.5775
43.7720,51.5612
43.7557,51.5369
43.7500,51.5082
Z" /> 
<path style="fill:#000000; fill-opacity:1.0000; stroke:none;fill-rule:evenodd;"
d="M 43.7500,51.8582
43.7557,51.8295
43.7720,51.8052
43.7963,51.7889
43.8250,51.7832
45.2250,51.7832
45.2537,51.7889
45.2780,51.8052
45.2943,51.8295
45.3000,51.8582
45.3000,52.0082
45.2943,52.0369
45.2780,52.0612
45.2537,52.0775
45.2250,52.0832
43.8250,52.0832
43.7963,52.0775
43.7720,52.0612
43.7557,52.0369
43.7500,52.0082
Z" /> 
<path style="fill:#000000; fill-opacity:1.0000; stroke:none;fill-rule:evenodd;"
d="M 43.7500,52.3582
43.7557,52.3295
43.7720,52.3052
43.7963,52.2889
43.8250,52.2832
45.2250,52.2832
45.2537,52.2889
45.2780,52.3052
45.2943,52.3295
45.3000,52.3582
45.3000,52.5082
45.2943,52.5369
45.2780,52.5612
45.2537,52.5775
45.2250,52.5832
43.8250,52.5832
43.7963,52.5775
43.7720,52.5612
43.7557,52.5369
43.7500,52.5082
Z" /> 
<path style="fill:#000000; fill-opacity:1.0000; stroke:none;fill-rule:evenodd;"
d="M 46.3000,53.6582
46.3057,53.6295
46.3220,53.6052
46.3463,53.5889
46.3750,53.5832
46.5250,53.5832
46.5537,53.5889
46.5780,53.6052
46.5943,53.6295
46.6000,53.6582
46.6000,55.0582
46.5943,55.0869
46.5780,55.1112
46.5537,55.1275
46.5250,55.1332
46.3750,55.1332
46.3463,55.1275
46.3220,55.1112
46.3057,55.0869
46.3000,55.0582
Z" /> 
<path style="fill:#000000; fill-opacity:1.0000; stroke:none;fill-rule:evenodd;"
d="M 46.8000,53.6582
46.8057,53.6295
46.8220,53.6052
46.8463,53.5889
46.8750,53.5832
47.0250,53.5832
47.0537,53.5889
47.0780,53.6052
47.0943,53.6295
47.1000,53.6582
47.1000,55.0582
47.0943,55.0869
47.0780,55.1112
47.0537,55.1275
47.0250,55.1332
46.8750,55.1332
46.8463,55.1275
46.8220,55.1112
46.8057,55.0869
46.8000,55.0582
Z" /> 
<path style="fill:#000000; fill-opacity:1.0000; stroke:none;fill-rule:evenodd;"
d="M 47.3000,53.6582
47.3057,53.6295
47.3220,53.6052
47.3463,53.5889
47.3750,53.5832
47.5250,53.5832
47.5537,53.5889
47.5780,53.6052
47.5943,53.6295
47.6000,53.6582
47.6000,55.0582
47.5943,55.0869
47.5780,55.1112
47.5537,55.1275
47.5250,55.1332
47.3750,55.1332
47.3463,55.1275
47.3220,55.1112
47.3057,55.0869
47.3000,55.0582
Z" /> 
<path style="fill:#000000; fill-opacity:1.0000; stroke:none;fill-rule:evenodd;"
d="M 47.8000,53.6582
47.8057,53.6295
47.8220,53.6052
47.8463,53.5889
47.8750,53.5832
48.0250,53.5832
48.0537,53.5889
48.0780,53.6052
48.0943,53.6295
48.1000,53.6582
48.1000,55.0582
48.0943,55.0869
48.0780,55.1112
48.0537,55.1275
48.0250,55.1332
47.8750,55.1332
47.8463,55.1275
47.8220,55.1112
47.8057,55.0869
47.8000,55.0582
Z" /> 
<path style="fill:#000000; fill-opacity:1.0000; stroke:none;fill-rule:evenodd;"
d="M 48.3000,53.6582
48.3057,53.6295
48.3220,53.6052
48.3463,53.5889
48.3750,53.5832
48.5250,53.5832
48.5537,53.5889
48.5780,53.6052
48.5943,53.6295
48.6000,53.6582
48.6000,55.0582
48.5943,55.0869
48.5780,55.1112
48.5537,55.1275
48.5250,55.1332
48.3750,55.1332
48.3463,55.1275
48.3220,55.1112
48.3057,55.0869
48.3000,55.0582
Z" /> 
<path style="fill:#000000; fill-opacity:1.0000; stroke:none;fill-rule:evenodd;"
d="M 48.8000,53.6582
48.8057,53.6295
48.8220,53.6052
48.8463,53.5889
48.8750,53.5832
49.0250,53.5832
49.0537,53.5889
49.0780,53.6052
49.0943,53.6295
49.1000,53.6582
49.1000,55.0582
49.0943,55.0869
49.0780,55.1112
49.0537,55.1275
49.0250,55.1332
48.8750,55.1332
48.8463,55.1275
48.8220,55.1112
48.8057,55.0869
48.8000,55.0582
Z" /> 
<path style="fill:#000000; fill-opacity:1.0000; stroke:none;fill-rule:evenodd;"
d="M 49.3000,53.6582
49.3057,53.6295
49.3220,53.6052
49.3463,53.5889
49.3750,53.5832
49.5250,53.5832
49.5537,53.5889
49.5780,53.6052
49.5943,53.6295
49.6000,53.6582
49.6000,55.0582
49.5943,55.0869
49.5780,55.1112
49.5537,55.1275
49.5250,55.1332
49.3750,55.1332
49.3463,55.1275
49.3220,55.1112
49.3057,55.0869
49.3000,55.0582
Z" /> 
<path style="fill:#000000; fill-opacity:1.0000; stroke:none;fill-rule:evenodd;"
d="M 49.8000,53.6582
49.8057,53.6295
49.8220,53.6052
49.8463,53.5889
49.8750,53.5832
50.0250,53.5832
50.0537,53.5889
50.0780,53.6052
50.0943,53.6295
50.1000,53.6582
50.1000,55.0582
50.0943,55.0869
50.0780,55.1112
50.0537,55.1275
50.0250,55.1332
49.8750,55.1332
49.8463,55.1275
49.8220,55.1112
49.8057,55.0869
49.8000,55.0582
Z" /> 
<path style="fill:#000000; fill-opacity:1.0000; stroke:none;fill-rule:evenodd;"
d="M 50.3000,53.6582
50.3057,53.6295
50.3220,53.6052
50.3463,53.5889
50.3750,53.5832
50.5250,53.5832
50.5537,53.5889
50.5780,53.6052
50.5943,53.6295
50.6000,53.6582
50.6000,55.0582
50.5943,55.0869
50.5780,55.1112
50.5537,55.1275
50.5250,55.1332
50.3750,55.1332
50.3463,55.1275
50.3220,55.1112
50.3057,55.0869
50.3000,55.0582
Z" /> 
<path style="fill:#000000; fill-opacity:1.0000; stroke:none;fill-rule:evenodd;"
d="M 50.8000,53.6582
50.8057,53.6295
50.8220,53.6052
50.8463,53.5889
50.8750,53.5832
51.0250,53.5832
51.0537,53.5889
51.0780,53.6052
51.0943,53.6295
51.1000,53.6582
51.1000,55.0582
51.0943,55.0869
51.0780,55.1112
51.0537,55.1275
51.0250,55.1332
50.8750,55.1332
50.8463,55.1275
50.8220,55.1112
50.8057,55.0869
50.8000,55.0582
Z" /> 
<path style="fill:#000000; fill-opacity:1.0000; stroke:none;fill-rule:evenodd;"
d="M 51.3000,53.6582
51.3057,53.6295
51.3220,53.6052
51.3463,53.5889
51.3750,53.5832
51.5250,53.5832
51.5537,53.5889
51.5780,53.6052
51.5943,53.6295
51.6000,53.6582
51.6000,55.0582
51.5943,55.0869
51.5780,55.1112
51.5537,55.1275
51.5250,55.1332
51.3750,55.1332
51.3463,55.1275
51.3220,55.1112
51.3057,55.0869
51.3000,55.0582
Z" /> 
<path style="fill:#000000; fill-opacity:1.0000; stroke:none;fill-rule:evenodd;"
d="M 51.8000,53.6582
51.8057,53.6295
51.8220,53.6052
51.8463,53.5889
51.8750,53.5832
52.0250,53.5832
52.0537,53.5889
52.0780,53.6052
52.0943,53.6295
52.1000,53.6582
52.1000,55.0582
52.0943,55.0869
52.0780,55.1112
52.0537,55.1275
52.0250,55.1332
51.8750,55.1332
51.8463,55.1275
51.8220,55.1112
51.8057,55.0869
51.8000,55.0582
Z" /> 
<path style="fill:#000000; fill-opacity:1.0000; stroke:none;fill-rule:evenodd;"
d="M 52.3000,53.6582
52.3057,53.6295
52.3220,53.6052
52.3463,53.5889
52.3750,53.5832
52.5250,53.5832
52.5537,53.5889
52.5780,53.6052
52.5943,53.6295
52.6000,53.6582
52.6000,55.0582
52.5943,55.0869
52.5780,55.1112
52.5537,55.1275
52.5250,55.1332
52.3750,55.1332
52.3463,55.1275
52.3220,55.1112
52.3057,55.0869
52.3000,55.0582
Z" /> 
<path style="fill:#000000; fill-opacity:1.0000; stroke:none;fill-rule:evenodd;"
d="M 52.8000,53.6582
52.8057,53.6295
52.8220,53.6052
52.8463,53.5889
52.8750,53.5832
53.0250,53.5832
53.0537,53.5889
53.0780,53.6052
53.0943,53.6295
53.1000,53.6582
53.1000,55.0582
53.0943,55.0869
53.0780,55.1112
53.0537,55.1275
53.0250,55.1332
52.8750,55.1332
52.8463,55.1275
52.8220,55.1112
52.8057,55.0869
52.8000,55.0582
Z" /> 
<path style="fill:#000000; fill-opacity:1.0000; stroke:none;fill-rule:evenodd;"
d="M 53.3000,53.6582
53.3057,53.6295
53.3220,53.6052
53.3463,53.5889
53.3750,53.5832
53.5250,53.5832
53.5537,53.5889
53.5780,53.6052
53.5943,53.6295
53.6000,53.6582
53.6000,55.0582
53.5943,55.0869
53.5780,55.1112
53.5537,55.1275
53.5250,55.1332
53.3750,55.1332
53.3463,55.1275
53.3220,55.1112
53.3057,55.0869
53.3000,55.0582
Z" /> 
<path style="fill:#000000; fill-opacity:1.0000; stroke:none;fill-rule:evenodd;"
d="M 53.8000,53.6582
53.8057,53.6295
53.8220,53.6052
53.8463,53.5889
53.8750,53.5832
54.0250,53.5832
54.0537,53.5889
54.0780,53.6052
54.0943,53.6295
54.1000,53.6582
54.1000,55.0582
54.0943,55.0869
54.0780,55.1112
54.0537,55.1275
54.0250,55.1332
53.8750,55.1332
53.8463,55.1275
53.8220,55.1112
53.8057,55.0869
53.8000,55.0582
Z" /> 
<path style="fill:#000000; fill-opacity:1.0000; stroke:none;fill-rule:evenodd;"
d="M 55.1000,52.3582
55.1057,52.3295
55.1220,52.3052
55.1463,52.2889
55.1750,52.2832
56.5750,52.2832
56.6037,52.2889
56.6280,52.3052
56.6443,52.3295
56.6500,52.3582
56.6500,52.5082
56.6443,52.5369
56.6280,52.5612
56.6037,52.5775
56.5750,52.5832
55.1750,52.5832
55.1463,52.5775
55.1220,52.5612
55.1057,52.5369
55.1000,52.5082
Z" /> 
<path style="fill:#000000; fill-opacity:1.0000; stroke:none;fill-rule:evenodd;"
d="M 55.1000,51.8582
55.1057,51.8295
55.1220,51.8052
55.1463,51.7889
55.1750,51.7832
56.5750,51.7832
56.6037,51.7889
56.6280,51.8052
56.6443,51.8295
56.6500,51.8582
56.6500,52.0082
56.6443,52.0369
56.6280,52.0612
56.6037,52.0775
56.5750,52.0832
55.1750,52.0832
55.1463,52.0775
55.1220,52.0612
55.1057,52.0369
55.1000,52.0082
Z" /> 
<path style="fill:#000000; fill-opacity:1.0000; stroke:none;fill-rule:evenodd;"
d="M 55.1000,51.3582
55.1057,51.3295
55.1220,51.3052
55.1463,51.2889
55.1750,51.2832
56.5750,51.2832
56.6037,51.2889
56.6280,51.3052
56.6443,51.3295
56.6500,51.3582
56.6500,51.5082
56.6443,51.5369
56.6280,51.5612
56.6037,51.5775
56.5750,51.5832
55.1750,51.5832
55.1463,51.5775
55.1220,51.5612
55.1057,51.5369
55.1000,51.5082
Z" /> 
<path style="fill:#000000; fill-opacity:1.0000; stroke:none;fill-rule:evenodd;"
d="M 55.1000,50.8582
55.1057,50.8295
55.1220,50.8052
55.1463,50.7889
55.1750,50.7832
56.5750,50.7832
56.6037,50.7889
56.6280,50.8052
56.6443,50.8295
56.6500,50.8582
56.6500,51.0082
56.6443,51.0369
56.6280,51.0612
56.6037,51.0775
56.5750,51.0832
55.1750,51.0832
55.1463,51.0775
55.1220,51.0612
55.1057,51.0369
55.1000,51.0082
Z" /> 
<path style="fill:#000000; fill-opacity:1.0000; stroke:none;fill-rule:evenodd;"
d="M 55.1000,50.3582
55.1057,50.3295
55.1220,50.3052
55.1463,50.2889
55.1750,50.2832
56.5750,50.2832
56.6037,50.2889
56.6280,50.3052
56.6443,50.3295
56.6500,50.3582
56.6500,50.5082
56.6443,50.5369
56.6280,50.5612
56.6037,50.5775
56.5750,50.5832
55.1750,50.5832
55.1463,50.5775
55.1220,50.5612
55.1057,50.5369
55.1000,50.5082
Z" /> 
<path style="fill:#000000; fill-opacity:1.0000; stroke:none;fill-rule:evenodd;"
d="M 55.1000,49.8582
55.1057,49.8295
55.1220,49.8052
55.1463,49.7889
55.1750,49.7832
56.5750,49.7832
56.6037,49.7889
56.6280,49.8052
56.6443,49.8295
56.6500,49.8582
56.6500,50.0082
56.6443,50.0369
56.6280,50.0612
56.6037,50.0775
56.5750,50.0832
55.1750,50.0832
55.1463,50.0775
55.1220,50.0612
55.1057,50.0369
55.1000,50.0082
Z" /> 
<path style="fill:#000000; fill-opacity:1.0000; stroke:none;fill-rule:evenodd;"
d="M 55.1000,49.3582
55.1057,49.3295
55.1220,49.3052
55.1463,49.2889
55.1750,49.2832
56.5750,49.2832
56.6037,49.2889
56.6280,49.3052
56.6443,49.3295
56.6500,49.3582
56.6500,49.5082
56.6443,49.5369
56.6280,49.5612
56.6037,49.5775
56.5750,49.5832
55.1750,49.5832
55.1463,49.5775
55.1220,49.5612
55.1057,49.5369
55.1000,49.5082
Z" /> 
<path style="fill:#000000; fill-opacity:1.0000; stroke:none;fill-rule:evenodd;"
d="M 55.1000,48.8582
55.1057,48.8295
55.1220,48.8052
55.1463,48.7889
55.1750,48.7832
56.5750,48.7832
56.6037,48.7889
56.6280,48.8052
56.6443,48.8295
56.6500,48.8582
56.6500,49.0082
56.6443,49.0369
56.6280,49.0612
56.6037,49.0775
56.5750,49.0832
55.1750,49.0832
55.1463,49.0775
55.1220,49.0612
55.1057,49.0369
55.1000,49.0082
Z" /> 
<path style="fill:#000000; fill-opacity:1.0000; stroke:none;fill-rule:evenodd;"
d="M 55.1000,48.3582
55.1057,48.3295
55.1220,48.3052
55.1463,48.2889
55.1750,48.2832
56.5750,48.2832
56.6037,48.2889
56.6280,48.3052
56.6443,48.3295
56.6500,48.3582
56.6500,48.5082
56.6443,48.5369
56.6280,48.5612
56.6037,48.5775
56.5750,48.5832
55.1750,48.5832
55.1463,48.5775
55.1220,48.5612
55.1057,48.5369
55.1000,48.5082
Z" /> 
<path style="fill:#000000; fill-opacity:1.0000; stroke:none;fill-rule:evenodd;"
d="M 55.1000,47.8582
55.1057,47.8295
55.1220,47.8052
55.1463,47.7889
55.1750,47.7832
56.5750,47.7832
56.6037,47.7889
56.6280,47.8052
56.6443,47.8295
56.6500,47.8582
56.6500,48.0082
56.6443,48.0369
56.6280,48.0612
56.6037,48.0775
56.5750,48.0832
55.1750,48.0832
55.1463,48.0775
55.1220,48.0612
55.1057,48.0369
55.1000,48.0082
Z" /> 
<path style="fill:#000000; fill-opacity:1.0000; stroke:none;fill-rule:evenodd;"
d="M 55.1000,47.3582
55.1057,47.3295
55.1220,47.3052
55.1463,47.2889
55.1750,47.2832
56.5750,47.2832
56.6037,47.2889
56.6280,47.3052
56.6443,47.3295
56.6500,47.3582
56.6500,47.5082
56.6443,47.5369
56.6280,47.5612
56.6037,47.5775
56.5750,47.5832
55.1750,47.5832
55.1463,47.5775
55.1220,47.5612
55.1057,47.5369
55.1000,47.5082
Z" /> 
<path style="fill:#000000; fill-opacity:1.0000; stroke:none;fill-rule:evenodd;"
d="M 55.1000,46.8582
55.1057,46.8295
55.1220,46.8052
55.1463,46.7889
55.1750,46.7832
56.5750,46.7832
56.6037,46.7889
56.6280,46.8052
56.6443,46.8295
56.6500,46.8582
56.6500,47.0082
56.6443,47.0369
56.6280,47.0612
56.6037,47.0775
56.5750,47.0832
55.1750,47.0832
55.1463,47.0775
55.1220,47.0612
55.1057,47.0369
55.1000,47.0082
Z" /> 
<path style="fill:#000000; fill-opacity:1.0000; stroke:none;fill-rule:evenodd;"
d="M 55.1000,46.3582
55.1057,46.3295
55.1220,46.3052
55.1463,46.2889
55.1750,46.2832
56.5750,46.2832
56.6037,46.2889
56.6280,46.3052
56.6443,46.3295
56.6500,46.3582
56.6500,46.5082
56.6443,46.5369
56.6280,46.5612
56.6037,46.5775
56.5750,46.5832
55.1750,46.5832
55.1463,46.5775
55.1220,46.5612
55.1057,46.5369
55.1000,46.5082
Z" /> 
<path style="fill:#000000; fill-opacity:1.0000; stroke:none;fill-rule:evenodd;"
d="M 55.1000,45.8582
55.1057,45.8295
55.1220,45.8052
55.1463,45.7889
55.1750,45.7832
56.5750,45.7832
56.6037,45.7889
56.6280,45.8052
56.6443,45.8295
56.6500,45.8582
56.6500,46.0082
56.6443,46.0369
56.6280,46.0612
56.6037,46.0775
56.5750,46.0832
55.1750,46.0832
55.1463,46.0775
55.1220,46.0612
55.1057,46.0369
55.1000,46.0082
Z" /> 
<path style="fill:#000000; fill-opacity:1.0000; stroke:none;fill-rule:evenodd;"
d="M 55.1000,45.3582
55.1057,45.3295
55.1220,45.3052
55.1463,45.2889
55.1750,45.2832
56.5750,45.2832
56.6037,45.2889
56.6280,45.3052
56.6443,45.3295
56.6500,45.3582
56.6500,45.5082
56.6443,45.5369
56.6280,45.5612
56.6037,45.5775
56.5750,45.5832
55.1750,45.5832
55.1463,45.5775
55.1220,45.5612
55.1057,45.5369
55.1000,45.5082
Z" /> 
<path style="fill:#000000; fill-opacity:1.0000; stroke:none;fill-rule:evenodd;"
d="M 55.1000,44.8582
55.1057,44.8295
55.1220,44.8052
55.1463,44.7889
55.1750,44.7832
56.5750,44.7832
56.6037,44.7889
56.6280,44.8052
56.6443,44.8295
56.6500,44.8582
56.6500,45.0082
56.6443,45.0369
56.6280,45.0612
56.6037,45.0775
56.5750,45.0832
55.1750,45.0832
55.1463,45.0775
55.1220,45.0612
55.1057,45.0369
55.1000,45.0082
Z" /> 
<path style="fill:#000000; fill-opacity:1.0000; stroke:none;fill-rule:evenodd;"
d="M 53.8000,42.3082
53.8057,42.2795
53.8220,42.2552
53.8463,42.2389
53.8750,42.2332
54.0250,42.2332
54.0537,42.2389
54.0780,42.2552
54.0943,42.2795
54.1000,42.3082
54.1000,43.7082
54.0943,43.7369
54.0780,43.7612
54.0537,43.7775
54.0250,43.7832
53.8750,43.7832
53.8463,43.7775
53.8220,43.7612
53.8057,43.7369
53.8000,43.7082
Z" /> 
<path style="fill:#000000; fill-opacity:1.0000; stroke:none;fill-rule:evenodd;"
d="M 53.3000,42.3082
53.3057,42.2795
53.3220,42.2552
53.3463,42.2389
53.3750,42.2332
53.5250,42.2332
53.5537,42.2389
53.5780,42.2552
53.5943,42.2795
53.6000,42.3082
53.6000,43.7082
53.5943,43.7369
53.5780,43.7612
53.5537,43.7775
53.5250,43.7832
53.3750,43.7832
53.3463,43.7775
53.3220,43.7612
53.3057,43.7369
53.3000,43.7082
Z" /> 
<path style="fill:#000000; fill-opacity:1.0000; stroke:none;fill-rule:evenodd;"
d="M 52.8000,42.3082
52.8057,42.2795
52.8220,42.2552
52.8463,42.2389
52.8750,42.2332
53.0250,42.2332
53.0537,42.2389
53.0780,42.2552
53.0943,42.2795
53.1000,42.3082
53.1000,43.7082
53.0943,43.7369
53.0780,43.7612
53.0537,43.7775
53.0250,43.7832
52.8750,43.7832
52.8463,43.7775
52.8220,43.7612
52.8057,43.7369
52.8000,43.7082
Z" /> 
<path style="fill:#000000; fill-opacity:1.0000; stroke:none;fill-rule:evenodd;"
d="M 52.3000,42.3082
52.3057,42.2795
52.3220,42.2552
52.3463,42.2389
52.3750,42.2332
52.5250,42.2332
52.5537,42.2389
52.5780,42.2552
52.5943,42.2795
52.6000,42.3082
52.6000,43.7082
52.5943,43.7369
52.5780,43.7612
52.5537,43.7775
52.5250,43.7832
52.3750,43.7832
52.3463,43.7775
52.3220,43.7612
52.3057,43.7369
52.3000,43.7082
Z" /> 
<path style="fill:#000000; fill-opacity:1.0000; stroke:none;fill-rule:evenodd;"
d="M 51.8000,42.3082
51.8057,42.2795
51.8220,42.2552
51.8463,42.2389
51.8750,42.2332
52.0250,42.2332
52.0537,42.2389
52.0780,42.2552
52.0943,42.2795
52.1000,42.3082
52.1000,43.7082
52.0943,43.7369
52.0780,43.7612
52.0537,43.7775
52.0250,43.7832
51.8750,43.7832
51.8463,43.7775
51.8220,43.7612
51.8057,43.7369
51.8000,43.7082
Z" /> 
<path style="fill:#000000; fill-opacity:1.0000; stroke:none;fill-rule:evenodd;"
d="M 51.3000,42.3082
51.3057,42.2795
51.3220,42.2552
51.3463,42.2389
51.3750,42.2332
51.5250,42.2332
51.5537,42.2389
51.5780,42.2552
51.5943,42.2795
51.6000,42.3082
51.6000,43.7082
51.5943,43.7369
51.5780,43.7612
51.5537,43.7775
51.5250,43.7832
51.3750,43.7832
51.3463,43.7775
51.3220,43.7612
51.3057,43.7369
51.3000,43.7082
Z" /> 
<path style="fill:#000000; fill-opacity:1.0000; stroke:none;fill-rule:evenodd;"
d="M 50.8000,42.3082
50.8057,42.2795
50.8220,42.2552
50.8463,42.2389
50.8750,42.2332
51.0250,42.2332
51.0537,42.2389
51.0780,42.2552
51.0943,42.2795
51.1000,42.3082
51.1000,43.7082
51.0943,43.7369
51.0780,43.7612
51.0537,43.7775
51.0250,43.7832
50.8750,43.7832
50.8463,43.7775
50.8220,43.7612
50.8057,43.7369
50.8000,43.7082
Z" /> 
<path style="fill:#000000; fill-opacity:1.0000; stroke:none;fill-rule:evenodd;"
d="M 50.3000,42.3082
50.3057,42.2795
50.3220,42.2552
50.3463,42.2389
50.3750,42.2332
50.5250,42.2332
50.5537,42.2389
50.5780,42.2552
50.5943,42.2795
50.6000,42.3082
50.6000,43.7082
50.5943,43.7369
50.5780,43.7612
50.5537,43.7775
50.5250,43.7832
50.3750,43.7832
50.3463,43.7775
50.3220,43.7612
50.3057,43.7369
50.3000,43.7082
Z" /> 
<path style="fill:#000000; fill-opacity:1.0000; stroke:none;fill-rule:evenodd;"
d="M 49.8000,42.3082
49.8057,42.2795
49.8220,42.2552
49.8463,42.2389
49.8750,42.2332
50.0250,42.2332
50.0537,42.2389
50.0780,42.2552
50.0943,42.2795
50.1000,42.3082
50.1000,43.7082
50.0943,43.7369
50.0780,43.7612
50.0537,43.7775
50.0250,43.7832
49.8750,43.7832
49.8463,43.7775
49.8220,43.7612
49.8057,43.7369
49.8000,43.7082
Z" /> 
<path style="fill:#000000; fill-opacity:1.0000; stroke:none;fill-rule:evenodd;"
d="M 49.3000,42.3082
49.3057,42.2795
49.3220,42.2552
49.3463,42.2389
49.3750,42.2332
49.5250,42.2332
49.5537,42.2389
49.5780,42.2552
49.5943,42.2795
49.6000,42.3082
49.6000,43.7082
49.5943,43.7369
49.5780,43.7612
49.5537,43.7775
49.5250,43.7832
49.3750,43.7832
49.3463,43.7775
49.3220,43.7612
49.3057,43.7369
49.3000,43.7082
Z" /> 
<path style="fill:#000000; fill-opacity:1.0000; stroke:none;fill-rule:evenodd;"
d="M 48.8000,42.3082
48.8057,42.2795
48.8220,42.2552
48.8463,42.2389
48.8750,42.2332
49.0250,42.2332
49.0537,42.2389
49.0780,42.2552
49.0943,42.2795
49.1000,42.3082
49.1000,43.7082
49.0943,43.7369
49.0780,43.7612
49.0537,43.7775
49.0250,43.7832
48.8750,43.7832
48.8463,43.7775
48.8220,43.7612
48.8057,43.7369
48.8000,43.7082
Z" /> 
<path style="fill:#000000; fill-opacity:1.0000; stroke:none;fill-rule:evenodd;"
d="M 48.3000,42.3082
48.3057,42.2795
48.3220,42.2552
48.3463,42.2389
48.3750,42.2332
48.5250,42.2332
48.5537,42.2389
48.5780,42.2552
48.5943,42.2795
48.6000,42.3082
48.6000,43.7082
48.5943,43.7369
48.5780,43.7612
48.5537,43.7775
48.5250,43.7832
48.3750,43.7832
48.3463,43.7775
48.3220,43.7612
48.3057,43.7369
48.3000,43.7082
Z" /> 
<path style="fill:#000000; fill-opacity:1.0000; stroke:none;fill-rule:evenodd;"
d="M 47.8000,42.3082
47.8057,42.2795
47.8220,42.2552
47.8463,42.2389
47.8750,42.2332
48.0250,42.2332
48.0537,42.2389
48.0780,42.2552
48.0943,42.2795
48.1000,42.3082
48.1000,43.7082
48.0943,43.7369
48.0780,43.7612
48.0537,43.7775
48.0250,43.7832
47.8750,43.7832
47.8463,43.7775
47.8220,43.7612
47.8057,43.7369
47.8000,43.7082
Z" /> 
<path style="fill:#000000; fill-opacity:1.0000; stroke:none;fill-rule:evenodd;"
d="M 47.3000,42.3082
47.3057,42.2795
47.3220,42.2552
47.3463,42.2389
47.3750,42.2332
47.5250,42.2332
47.5537,42.2389
47.5780,42.2552
47.5943,42.2795
47.6000,42.3082
47.6000,43.7082
47.5943,43.7369
47.5780,43.7612
47.5537,43.7775
47.5250,43.7832
47.3750,43.7832
47.3463,43.7775
47.3220,43.7612
47.3057,43.7369
47.3000,43.7082
Z" /> 
<path style="fill:#000000; fill-opacity:1.0000; stroke:none;fill-rule:evenodd;"
d="M 46.8000,42.3082
46.8057,42.2795
46.8220,42.2552
46.8463,42.2389
46.8750,42.2332
47.0250,42.2332
47.0537,42.2389
47.0780,42.2552
47.0943,42.2795
47.1000,42.3082
47.1000,43.7082
47.0943,43.7369
47.0780,43.7612
47.0537,43.7775
47.0250,43.7832
46.8750,43.7832
46.8463,43.7775
46.8220,43.7612
46.8057,43.7369
46.8000,43.7082
Z" /> 
<path style="fill:#000000; fill-opacity:1.0000; stroke:none;fill-rule:evenodd;"
d="M 46.3000,42.3082
46.3057,42.2795
46.3220,42.2552
46.3463,42.2389
46.3750,42.2332
46.5250,42.2332
46.5537,42.2389
46.5780,42.2552
46.5943,42.2795
46.6000,42.3082
46.6000,43.7082
46.5943,43.7369
46.5780,43.7612
46.5537,43.7775
46.5250,43.7832
46.3750,43.7832
46.3463,43.7775
46.3220,43.7612
46.3057,43.7369
46.3000,43.7082
Z" /> 
<path style="fill:#000000; fill-opacity:1.0000; stroke:none;fill-rule:evenodd;"
d="M 42.2750,47.5582
42.3707,47.5772
42.4518,47.6314
42.5060,47.7125
42.5250,47.8082
42.5250,48.4832
42.5060,48.5789
42.4518,48.6600
42.3707,48.7142
42.2750,48.7332
41.3250,48.7332
41.2293,48.7142
41.1482,48.6600
41.0940,48.5789
41.0750,48.4832
41.0750,47.8082
41.0940,47.7125
41.1482,47.6314
41.2293,47.5772
41.3250,47.5582
Z" /> 
<path style="fill:#000000; fill-opacity:1.0000; stroke:none;fill-rule:evenodd;"
d="M 42.2750,49.6332
42.3707,49.6522
42.4518,49.7064
42.5060,49.7875
42.5250,49.8832
42.5250,50.5582
42.5060,50.6539
42.4518,50.7350
42.3707,50.7892
42.2750,50.8082
41.3250,50.8082
41.2293,50.7892
41.1482,50.7350
41.0940,50.6539
41.0750,50.5582
41.0750,49.8832
41.0940,49.7875
41.1482,49.7064
41.2293,49.6522
41.3250,49.6332
Z" /> 
<path style="fill:#000000; fill-opacity:1.0000; stroke:none;fill-rule:evenodd;"
d="M 32.2750,51.5582
32.3707,51.5772
32.4518,51.6314
32.5060,51.7125
32.5250,51.8082
32.5250,52.4832
32.5060,52.5789
32.4518,52.6600
32.3707,52.7142
32.2750,52.7332
31.3250,52.7332
31.2293,52.7142
31.1482,52.6600
31.0940,52.5789
31.0750,52.4832
31.0750,51.8082
31.0940,51.7125
31.1482,51.6314
31.2293,51.5772
31.3250,51.5582
Z" /> 
<path style="fill:#000000; fill-opacity:1.0000; stroke:none;fill-rule:evenodd;"
d="M 32.2750,53.6332
32.3707,53.6522
32.4518,53.7064
32.5060,53.7875
32.5250,53.8832
32.5250,54.5582
32.5060,54.6539
32.4518,54.7350
32.3707,54.7892
32.2750,54.8082
31.3250,54.8082
31.2293,54.7892
31.1482,54.7350
31.0940,54.6539
31.0750,54.5582
31.0750,53.8832
31.0940,53.7875
31.1482,53.7064
31.2293,53.6522
31.3250,53.6332
Z" /> 
<path style="fill:#000000; fill-opacity:1.0000; stroke:none;fill-rule:evenodd;"
d="M 41.5250,45.0082
41.4293,44.9892
41.3482,44.9350
41.2940,44.8539
41.2750,44.7582
41.2750,44.0832
41.2940,43.9875
41.3482,43.9064
41.4293,43.8522
41.5250,43.8332
42.4750,43.8332
42.5707,43.8522
42.6518,43.9064
42.7060,43.9875
42.7250,44.0832
42.7250,44.7582
42.7060,44.8539
42.6518,44.9350
42.5707,44.9892
42.4750,45.0082
Z" /> 
<path style="fill:#000000; fill-opacity:1.0000; stroke:none;fill-rule:evenodd;"
d="M 41.5250,42.9332
41.4293,42.9142
41.3482,42.8600
41.2940,42.7789
41.2750,42.6832
41.2750,42.0082
41.2940,41.9125
41.3482,41.8314
41.4293,41.7772
41.5250,41.7582
42.4750,41.7582
42.5707,41.7772
42.6518,41.8314
42.7060,41.9125
42.7250,42.0082
42.7250,42.6832
42.7060,42.7789
42.6518,42.8600
42.5707,42.9142
42.4750,42.9332
Z" /> 
<path style="fill:#000000; fill-opacity:1.0000; stroke:none;fill-rule:evenodd;"
d="M 39.1750,40.5082
39.1560,40.6039
39.1018,40.6850
39.0207,40.7392
38.9250,40.7582
38.2500,40.7582
38.1543,40.7392
38.0732,40.6850
38.0190,40.6039
38.0000,40.5082
38.0000,39.5582
38.0190,39.4625
38.0732,39.3814
38.1543,39.3272
38.2500,39.3082
38.9250,39.3082
39.0207,39.3272
39.1018,39.3814
39.1560,39.4625
39.1750,39.5582
Z" /> 
<path style="fill:#000000; fill-opacity:1.0000; stroke:none;fill-rule:evenodd;"
d="M 37.1000,40.5082
37.0810,40.6039
37.0268,40.6850
36.9457,40.7392
36.8500,40.7582
36.1750,40.7582
36.0793,40.7392
35.9982,40.6850
35.9440,40.6039
35.9250,40.5082
35.9250,39.5582
35.9440,39.4625
35.9982,39.3814
36.0793,39.3272
36.1750,39.3082
36.8500,39.3082
36.9457,39.3272
37.0268,39.3814
37.0810,39.4625
37.1000,39.5582
Z" /> 
<path style="fill:#000000; fill-opacity:1.0000; stroke:none;fill-rule:evenodd;"
d="M 67.5250,65.4082
67.5060,65.5039
67.4518,65.5850
67.3707,65.6392
67.2750,65.6582
66.6000,65.6582
66.5043,65.6392
66.4232,65.5850
66.3690,65.5039
66.3500,65.4082
66.3500,64.4582
66.3690,64.3625
66.4232,64.2814
66.5043,64.2272
66.6000,64.2082
67.2750,64.2082
67.3707,64.2272
67.4518,64.2814
67.5060,64.3625
67.5250,64.4582
Z" /> 
<path style="fill:#000000; fill-opacity:1.0000; stroke:none;fill-rule:evenodd;"
d="M 65.4500,65.4082
65.4310,65.5039
65.3768,65.5850
65.2957,65.6392
65.2000,65.6582
64.5250,65.6582
64.4293,65.6392
64.3482,65.5850
64.2940,65.5039
64.2750,65.4082
64.2750,64.4582
64.2940,64.3625
64.3482,64.2814
64.4293,64.2272
64.5250,64.2082
65.2000,64.2082
65.2957,64.2272
65.3768,64.2814
65.4310,64.3625
65.4500,64.4582
Z" /> 
<path style="fill:#000000; fill-opacity:1.0000; stroke:none;fill-rule:evenodd;"
d="M 66.2750,80.1082
66.2940,80.0125
66.3482,79.9314
66.4293,79.8772
66.5250,79.8582
67.2000,79.8582
67.2957,79.8772
67.3768,79.9314
67.4310,80.0125
67.4500,80.1082
67.4500,81.0582
67.4310,81.1539
67.3768,81.2350
67.2957,81.2892
67.2000,81.3082
66.5250,81.3082
66.4293,81.2892
66.3482,81.2350
66.2940,81.1539
66.2750,81.0582
Z" /> 
<path style="fill:#000000; fill-opacity:1.0000; stroke:none;fill-rule:evenodd;"
d="M 68.3500,80.1082
68.3690,80.0125
68.4232,79.9314
68.5043,79.8772
68.6000,79.8582
69.2750,79.8582
69.3707,79.8772
69.4518,79.9314
69.5060,80.0125
69.5250,80.1082
69.5250,81.0582
69.5060,81.1539
69.4518,81.2350
69.3707,81.2892
69.2750,81.3082
68.6000,81.3082
68.5043,81.2892
68.4232,81.2350
68.3690,81.1539
68.3500,81.0582
Z" /> 
<path style="fill:#000000; fill-opacity:1.0000; stroke:none;fill-rule:evenodd;"
d="M 79.4170,60.5576
79.3980,60.6533
79.3438,60.7344
79.2627,60.7886
79.1670,60.8076
78.4920,60.8076
78.3963,60.7886
78.3152,60.7344
78.2610,60.6533
78.2420,60.5576
78.2420,59.6076
78.2610,59.5119
78.3152,59.4308
78.3963,59.3766
78.4920,59.3576
79.1670,59.3576
79.2627,59.3766
79.3438,59.4308
79.3980,59.5119
79.4170,59.6076
Z" /> 
<path style="fill:#000000; fill-opacity:1.0000; stroke:none;fill-rule:evenodd;"
d="M 77.3420,60.5576
77.3230,60.6533
77.2688,60.7344
77.1877,60.7886
77.0920,60.8076
76.4170,60.8076
76.3213,60.7886
76.2402,60.7344
76.1860,60.6533
76.1670,60.5576
76.1670,59.6076
76.1860,59.5119
76.2402,59.4308
76.3213,59.3766
76.4170,59.3576
77.0920,59.3576
77.1877,59.3766
77.2688,59.4308
77.3230,59.5119
77.3420,59.6076
Z" /> 
<path style="fill:#000000; fill-opacity:1.0000; stroke:none;fill-rule:evenodd;"
d="M 69.7730,65.8732
69.6773,65.8542
69.5962,65.8000
69.5420,65.7189
69.5230,65.6232
69.5230,64.9482
69.5420,64.8525
69.5962,64.7714
69.6773,64.7172
69.7730,64.6982
70.7230,64.6982
70.8187,64.7172
70.8998,64.7714
70.9540,64.8525
70.9730,64.9482
70.9730,65.6232
70.9540,65.7189
70.8998,65.8000
70.8187,65.8542
70.7230,65.8732
Z" /> 
<path style="fill:#000000; fill-opacity:1.0000; stroke:none;fill-rule:evenodd;"
d="M 69.7730,63.7982
69.6773,63.7792
69.5962,63.7250
69.5420,63.6439
69.5230,63.5482
69.5230,62.8732
69.5420,62.7775
69.5962,62.6964
69.6773,62.6422
69.7730,62.6232
70.7230,62.6232
70.8187,62.6422
70.8998,62.6964
70.9540,62.7775
70.9730,62.8732
70.9730,63.5482
70.9540,63.6439
70.8998,63.7250
70.8187,63.7792
70.7230,63.7982
Z" /> 
<path style="fill:#000000; fill-opacity:1.0000; stroke:none;fill-rule:evenodd;"
d="M 72.7670,62.2440
72.7784,62.1866
72.8109,62.1379
72.8596,62.1054
72.9170,62.0940
74.5670,62.0940
74.6244,62.1054
74.6731,62.1379
74.7056,62.1866
74.7170,62.2440
74.7170,62.5440
74.7056,62.6014
74.6731,62.6501
74.6244,62.6826
74.5670,62.6940
72.9170,62.6940
72.8596,62.6826
72.8109,62.6501
72.7784,62.6014
72.7670,62.5440
Z" /> 
<path style="fill:#000000; fill-opacity:1.0000; stroke:none;fill-rule:evenodd;"
d="M 72.7670,63.5140
72.7784,63.4566
72.8109,63.4079
72.8596,63.3754
72.9170,63.3640
74.5670,63.3640
74.6244,63.3754
74.6731,63.4079
74.7056,63.4566
74.7170,63.5140
74.7170,63.8140
74.7056,63.8714
74.6731,63.9201
74.6244,63.9526
74.5670,63.9640
72.9170,63.9640
72.8596,63.9526
72.8109,63.9201
72.7784,63.8714
72.7670,63.8140
Z" /> 
<path style="fill:#000000; fill-opacity:1.0000; stroke:none;fill-rule:evenodd;"
d="M 72.7670,64.7840
72.7784,64.7266
72.8109,64.6779
72.8596,64.6454
72.9170,64.6340
74.5670,64.6340
74.6244,64.6454
74.6731,64.6779
74.7056,64.7266
74.7170,64.7840
74.7170,65.0840
74.7056,65.1414
74.6731,65.1901
74.6244,65.2226
74.5670,65.2340
72.9170,65.2340
72.8596,65.2226
72.8109,65.1901
72.7784,65.1414
72.7670,65.0840
Z" /> 
<path style="fill:#000000; fill-opacity:1.0000; stroke:none;fill-rule:evenodd;"
d="M 72.7670,66.0540
72.7784,65.9966
72.8109,65.9479
72.8596,65.9154
72.9170,65.9040
74.5670,65.9040
74.6244,65.9154
74.6731,65.9479
74.7056,65.9966
74.7170,66.0540
74.7170,66.3540
74.7056,66.4114
74.6731,66.4601
74.6244,66.4926
74.5670,66.5040
72.9170,66.5040
72.8596,66.4926
72.8109,66.4601
72.7784,66.4114
72.7670,66.3540
Z" /> 
<path style="fill:#000000; fill-opacity:1.0000; stroke:none;fill-rule:evenodd;"
d="M 72.7670,67.3240
72.7784,67.2666
72.8109,67.2179
72.8596,67.1854
72.9170,67.1740
74.5670,67.1740
74.6244,67.1854
74.6731,67.2179
74.7056,67.2666
74.7170,67.3240
74.7170,67.6240
74.7056,67.6814
74.6731,67.7301
74.6244,67.7626
74.5670,67.7740
72.9170,67.7740
72.8596,67.7626
72.8109,67.7301
72.7784,67.6814
72.7670,67.6240
Z" /> 
<path style="fill:#000000; fill-opacity:1.0000; stroke:none;fill-rule:evenodd;"
d="M 72.7670,68.5940
72.7784,68.5366
72.8109,68.4879
72.8596,68.4554
72.9170,68.4440
74.5670,68.4440
74.6244,68.4554
74.6731,68.4879
74.7056,68.5366
74.7170,68.5940
74.7170,68.8940
74.7056,68.9514
74.6731,69.0001
74.6244,69.0326
74.5670,69.0440
72.9170,69.0440
72.8596,69.0326
72.8109,69.0001
72.7784,68.9514
72.7670,68.8940
Z" /> 
<path style="fill:#000000; fill-opacity:1.0000; stroke:none;fill-rule:evenodd;"
d="M 72.7670,69.8640
72.7784,69.8066
72.8109,69.7579
72.8596,69.7254
72.9170,69.7140
74.5670,69.7140
74.6244,69.7254
74.6731,69.7579
74.7056,69.8066
74.7170,69.8640
74.7170,70.1640
74.7056,70.2214
74.6731,70.2701
74.6244,70.3026
74.5670,70.3140
72.9170,70.3140
72.8596,70.3026
72.8109,70.2701
72.7784,70.2214
72.7670,70.1640
Z" /> 
<path style="fill:#000000; fill-opacity:1.0000; stroke:none;fill-rule:evenodd;"
d="M 72.7670,71.1340
72.7784,71.0766
72.8109,71.0279
72.8596,70.9954
72.9170,70.9840
74.5670,70.9840
74.6244,70.9954
74.6731,71.0279
74.7056,71.0766
74.7170,71.1340
74.7170,71.4340
74.7056,71.4914
74.6731,71.5401
74.6244,71.5726
74.5670,71.5840
72.9170,71.5840
72.8596,71.5726
72.8109,71.5401
72.7784,71.4914
72.7670,71.4340
Z" /> 
<path style="fill:#000000; fill-opacity:1.0000; stroke:none;fill-rule:evenodd;"
d="M 77.7170,71.1340
77.7284,71.0766
77.7609,71.0279
77.8096,70.9954
77.8670,70.9840
79.5170,70.9840
79.5744,70.9954
79.6231,71.0279
79.6556,71.0766
79.6670,71.1340
79.6670,71.4340
79.6556,71.4914
79.6231,71.5401
79.5744,71.5726
79.5170,71.5840
77.8670,71.5840
77.8096,71.5726
77.7609,71.5401
77.7284,71.4914
77.7170,71.4340
Z" /> 
<path style="fill:#000000; fill-opacity:1.0000; stroke:none;fill-rule:evenodd;"
d="M 77.7170,69.8640
77.7284,69.8066
77.7609,69.7579
77.8096,69.7254
77.8670,69.7140
79.5170,69.7140
79.5744,69.7254
79.6231,69.7579
79.6556,69.8066
79.6670,69.8640
79.6670,70.1640
79.6556,70.2214
79.6231,70.2701
79.5744,70.3026
79.5170,70.3140
77.8670,70.3140
77.8096,70.3026
77.7609,70.2701
77.7284,70.2214
77.7170,70.1640
Z" /> 
<path style="fill:#000000; fill-opacity:1.0000; stroke:none;fill-rule:evenodd;"
d="M 77.7170,68.5940
77.7284,68.5366
77.7609,68.4879
77.8096,68.4554
77.8670,68.4440
79.5170,68.4440
79.5744,68.4554
79.6231,68.4879
79.6556,68.5366
79.6670,68.5940
79.6670,68.8940
79.6556,68.9514
79.6231,69.0001
79.5744,69.0326
79.5170,69.0440
77.8670,69.0440
77.8096,69.0326
77.7609,69.0001
77.7284,68.9514
77.7170,68.8940
Z" /> 
<path style="fill:#000000; fill-opacity:1.0000; stroke:none;fill-rule:evenodd;"
d="M 77.7170,67.3240
77.7284,67.2666
77.7609,67.2179
77.8096,67.1854
77.8670,67.1740
79.5170,67.1740
79.5744,67.1854
79.6231,67.2179
79.6556,67.2666
79.6670,67.3240
79.6670,67.6240
79.6556,67.6814
79.6231,67.7301
79.5744,67.7626
79.5170,67.7740
77.8670,67.7740
77.8096,67.7626
77.7609,67.7301
77.7284,67.6814
77.7170,67.6240
Z" /> 
<path style="fill:#000000; fill-opacity:1.0000; stroke:none;fill-rule:evenodd;"
d="M 77.7170,66.0540
77.7284,65.9966
77.7609,65.9479
77.8096,65.9154
77.8670,65.9040
79.5170,65.9040
79.5744,65.9154
79.6231,65.9479
79.6556,65.9966
79.6670,66.0540
79.6670,66.3540
79.6556,66.4114
79.6231,66.4601
79.5744,66.4926
79.5170,66.5040
77.8670,66.5040
77.8096,66.4926
77.7609,66.4601
77.7284,66.4114
77.7170,66.3540
Z" /> 
<path style="fill:#000000; fill-opacity:1.0000; stroke:none;fill-rule:evenodd;"
d="M 77.7170,64.7840
77.7284,64.7266
77.7609,64.6779
77.8096,64.6454
77.8670,64.6340
79.5170,64.6340
79.5744,64.6454
79.6231,64.6779
79.6556,64.7266
79.6670,64.7840
79.6670,65.0840
79.6556,65.1414
79.6231,65.1901
79.5744,65.2226
79.5170,65.2340
77.8670,65.2340
77.8096,65.2226
77.7609,65.1901
77.7284,65.1414
77.7170,65.0840
Z" /> 
<path style="fill:#000000; fill-opacity:1.0000; stroke:none;fill-rule:evenodd;"
d="M 77.7170,63.5140
77.7284,63.4566
77.7609,63.4079
77.8096,63.3754
77.8670,63.3640
79.5170,63.3640
79.5744,63.3754
79.6231,63.4079
79.6556,63.4566
79.6670,63.5140
79.6670,63.8140
79.6556,63.8714
79.6231,63.9201
79.5744,63.9526
79.5170,63.9640
77.8670,63.9640
77.8096,63.9526
77.7609,63.9201
77.7284,63.8714
77.7170,63.8140
Z" /> 
<path style="fill:#000000; fill-opacity:1.0000; stroke:none;fill-rule:evenodd;"
d="M 77.7170,62.2440
77.7284,62.1866
77.7609,62.1379
77.8096,62.1054
77.8670,62.0940
79.5170,62.0940
79.5744,62.1054
79.6231,62.1379
79.6556,62.1866
79.6670,62.2440
79.6670,62.5440
79.6556,62.6014
79.6231,62.6501
79.5744,62.6826
79.5170,62.6940
77.8670,62.6940
77.8096,62.6826
77.7609,62.6501
77.7284,62.6014
77.7170,62.5440
Z" /> 
<path style="fill:#000000; fill-opacity:1.0000; stroke:none;fill-rule:evenodd;"
d="M 69.4750,20.7082
69.3793,20.6892
69.2982,20.6350
69.2440,20.5539
69.2250,20.4582
69.2250,19.7832
69.2440,19.6875
69.2982,19.6064
69.3793,19.5522
69.4750,19.5332
70.4250,19.5332
70.5207,19.5522
70.6018,19.6064
70.6560,19.6875
70.6750,19.7832
70.6750,20.4582
70.6560,20.5539
70.6018,20.6350
70.5207,20.6892
70.4250,20.7082
Z" /> 
<path style="fill:#000000; fill-opacity:1.0000; stroke:none;fill-rule:evenodd;"
d="M 69.4750,18.6332
69.3793,18.6142
69.2982,18.5600
69.2440,18.4789
69.2250,18.3832
69.2250,17.7082
69.2440,17.6125
69.2982,17.5314
69.3793,17.4772
69.4750,17.4582
70.4250,17.4582
70.5207,17.4772
70.6018,17.5314
70.6560,17.6125
70.6750,17.7082
70.6750,18.3832
70.6560,18.4789
70.6018,18.5600
70.5207,18.6142
70.4250,18.6332
Z" /> 
<path style="fill:#000000; fill-opacity:1.0000; stroke:none;fill-rule:evenodd;"
d="M 31.4500,23.2582
31.4690,23.1625
31.5232,23.0814
31.6043,23.0272
31.7000,23.0082
32.6000,23.0082
32.6957,23.0272
32.7768,23.0814
32.8310,23.1625
32.8500,23.2582
32.8500,26.1082
32.8310,26.2039
32.7768,26.2850
32.6957,26.3392
32.6000,26.3582
31.7000,26.3582
31.6043,26.3392
31.5232,26.2850
31.4690,26.2039
31.4500,26.1082
Z" /> 
<path style="fill:#000000; fill-opacity:1.0000; stroke:none;fill-rule:evenodd;"
d="M 37.5500,23.2582
37.5690,23.1625
37.6232,23.0814
37.7043,23.0272
37.8000,23.0082
38.7000,23.0082
38.7957,23.0272
38.8768,23.0814
38.9310,23.1625
38.9500,23.2582
38.9500,26.1082
38.9310,26.2039
38.8768,26.2850
38.7957,26.3392
38.7000,26.3582
37.8000,26.3582
37.7043,26.3392
37.6232,26.2850
37.5690,26.2039
37.5500,26.1082
Z" /> 
<path style="fill:#000000; fill-opacity:1.0000; stroke:none;fill-rule:evenodd;"
d="M 76.8250,28.4582
78.5750,28.4582
78.5750,29.4082
76.8250,29.4082
Z" /> 
<path style="fill:#000000; fill-opacity:1.0000; stroke:none;fill-rule:evenodd;"
d="M 76.8250,26.1582
78.5750,26.1582
78.5750,27.1082
76.8250,27.1082
Z" /> 
<path style="fill:#000000; fill-opacity:1.0000; stroke:none;fill-rule:evenodd;"
d="M 76.8250,23.8582
78.5750,23.8582
78.5750,24.8082
76.8250,24.8082
Z" /> 
<path style="fill:#000000; fill-opacity:1.0000; stroke:none;fill-rule:evenodd;"
d="M 72.2750,25.0332
72.2750,28.2332
70.5250,28.2332
70.5250,25.0332
Z" /> 
</g>
<g style="fill:none; 
stroke:#000000; stroke-width:0.0500; stroke-opacity:1; 
stroke-linecap:round; stroke-linejoin:round;">
<path d="M0.2000 8.6832
L100.2000 8.6832
" />
<path d="M100.2000 8.6832
L100.2000 108.6832
" />
<path d="M0.2000 108.6832
L0.2000 8.6832
" />
<path d="M100.2000 108.6832
L0.2000 108.6832
" />
</g> 
</svg>
