M48
; DRILL file {KiCad 8.0.6} date 2024-12-29T11:18:35-0500
; FORMAT={-:-/ absolute / inch / decimal}
; #@! TF.CreationDate,2024-12-29T11:18:35-05:00
; #@! TF.GenerationSoftware,Kicad,Pcbnew,8.0.6
; #@! TF.FileFunction,Plated,1,2,PTH
FMAT,2
INCH
; #@! TA.AperFunction,Plated,PTH,ComponentDrill
T1C0.0315
; #@! TA.AperFunction,Plated,PTH,ComponentDrill
T2C0.0394
; #@! TA.AperFunction,Plated,PTH,ComponentDrill
T3C0.0400
; #@! TA.AperFunction,Plated,PTH,ComponentDrill
T4C0.1300
%
G90
G05
T1
X3.9626Y-1.6811
X3.9626Y-1.7598
X3.9626Y-1.8386
X3.9626Y-1.9173
T2
X3.4839Y-1.7606
X3.4839Y-1.8606
X3.4839Y-1.9606
X3.4839Y-2.0606
X3.4839Y-2.1606
X3.4839Y-2.2606
X3.4839Y-2.3606
X3.4839Y-2.4606
X3.4839Y-2.5606
X3.4839Y-2.6606
X3.4839Y-2.7606
X3.5839Y-1.7606
X3.5839Y-1.8606
X3.5839Y-1.9606
X3.5839Y-2.0606
X3.5839Y-2.1606
X3.5839Y-2.2606
X3.5839Y-2.3606
X3.5839Y-2.4606
X3.5839Y-2.5606
X3.5839Y-2.6606
X3.5839Y-2.7606
X4.624Y-2.3543
X4.624Y-2.4543
T3
X4.8772Y-2.2958
X4.8772Y-2.4038
X4.8772Y-2.5118
X4.8772Y-2.6198
X4.8772Y-2.7278
X4.9772Y-2.3498
X4.9772Y-2.4578
X4.9772Y-2.5658
X4.9772Y-2.6738
T4
X4.9272Y-2.0188
X4.9272Y-3.0048
M30
