G04 #@! TF.GenerationSoftware,KiCad,Pcbnew,8.0.6*
G04 #@! TF.CreationDate,2024-12-29T11:18:31-05:00*
G04 #@! TF.ProjectId,Beagley-ai-1CAN,42656167-6c65-4792-9d61-692d3143414e,rev?*
G04 #@! TF.SameCoordinates,Original*
G04 #@! TF.FileFunction,Legend,Top*
G04 #@! TF.FilePolarity,Positive*
%FSLAX46Y46*%
G04 Gerber Fmt 4.6, Leading zero omitted, Abs format (unit mm)*
G04 Created by KiCad (PCBNEW 8.0.6) date 2024-12-29 11:18:31*
%MOMM*%
%LPD*%
G01*
G04 APERTURE LIST*
%ADD10C,0.150000*%
%ADD11C,0.127000*%
%ADD12C,0.120000*%
%ADD13C,0.152400*%
%ADD14C,0.000000*%
G04 APERTURE END LIST*
D10*
X99783333Y-61859580D02*
X99735714Y-61907200D01*
X99735714Y-61907200D02*
X99592857Y-61954819D01*
X99592857Y-61954819D02*
X99497619Y-61954819D01*
X99497619Y-61954819D02*
X99354762Y-61907200D01*
X99354762Y-61907200D02*
X99259524Y-61811961D01*
X99259524Y-61811961D02*
X99211905Y-61716723D01*
X99211905Y-61716723D02*
X99164286Y-61526247D01*
X99164286Y-61526247D02*
X99164286Y-61383390D01*
X99164286Y-61383390D02*
X99211905Y-61192914D01*
X99211905Y-61192914D02*
X99259524Y-61097676D01*
X99259524Y-61097676D02*
X99354762Y-61002438D01*
X99354762Y-61002438D02*
X99497619Y-60954819D01*
X99497619Y-60954819D02*
X99592857Y-60954819D01*
X99592857Y-60954819D02*
X99735714Y-61002438D01*
X99735714Y-61002438D02*
X99783333Y-61050057D01*
X100735714Y-61954819D02*
X100164286Y-61954819D01*
X100450000Y-61954819D02*
X100450000Y-60954819D01*
X100450000Y-60954819D02*
X100354762Y-61097676D01*
X100354762Y-61097676D02*
X100259524Y-61192914D01*
X100259524Y-61192914D02*
X100164286Y-61240533D01*
X113513095Y-60009819D02*
X113513095Y-60819342D01*
X113513095Y-60819342D02*
X113560714Y-60914580D01*
X113560714Y-60914580D02*
X113608333Y-60962200D01*
X113608333Y-60962200D02*
X113703571Y-61009819D01*
X113703571Y-61009819D02*
X113894047Y-61009819D01*
X113894047Y-61009819D02*
X113989285Y-60962200D01*
X113989285Y-60962200D02*
X114036904Y-60914580D01*
X114036904Y-60914580D02*
X114084523Y-60819342D01*
X114084523Y-60819342D02*
X114084523Y-60009819D01*
X115084523Y-61009819D02*
X114513095Y-61009819D01*
X114798809Y-61009819D02*
X114798809Y-60009819D01*
X114798809Y-60009819D02*
X114703571Y-60152676D01*
X114703571Y-60152676D02*
X114608333Y-60247914D01*
X114608333Y-60247914D02*
X114513095Y-60295533D01*
X120333333Y-68154819D02*
X120000000Y-67678628D01*
X119761905Y-68154819D02*
X119761905Y-67154819D01*
X119761905Y-67154819D02*
X120142857Y-67154819D01*
X120142857Y-67154819D02*
X120238095Y-67202438D01*
X120238095Y-67202438D02*
X120285714Y-67250057D01*
X120285714Y-67250057D02*
X120333333Y-67345295D01*
X120333333Y-67345295D02*
X120333333Y-67488152D01*
X120333333Y-67488152D02*
X120285714Y-67583390D01*
X120285714Y-67583390D02*
X120238095Y-67631009D01*
X120238095Y-67631009D02*
X120142857Y-67678628D01*
X120142857Y-67678628D02*
X119761905Y-67678628D01*
X121285714Y-68154819D02*
X120714286Y-68154819D01*
X121000000Y-68154819D02*
X121000000Y-67154819D01*
X121000000Y-67154819D02*
X120904762Y-67297676D01*
X120904762Y-67297676D02*
X120809524Y-67392914D01*
X120809524Y-67392914D02*
X120714286Y-67440533D01*
D11*
X124424243Y-56608266D02*
X124424243Y-56838076D01*
X124424243Y-56838076D02*
X124481695Y-56952980D01*
X124481695Y-56952980D02*
X124539148Y-57010433D01*
X124539148Y-57010433D02*
X124711505Y-57125338D01*
X124711505Y-57125338D02*
X124941314Y-57182790D01*
X124941314Y-57182790D02*
X125400933Y-57182790D01*
X125400933Y-57182790D02*
X125515838Y-57125338D01*
X125515838Y-57125338D02*
X125573291Y-57067885D01*
X125573291Y-57067885D02*
X125630743Y-56952980D01*
X125630743Y-56952980D02*
X125630743Y-56723171D01*
X125630743Y-56723171D02*
X125573291Y-56608266D01*
X125573291Y-56608266D02*
X125515838Y-56550814D01*
X125515838Y-56550814D02*
X125400933Y-56493361D01*
X125400933Y-56493361D02*
X125113671Y-56493361D01*
X125113671Y-56493361D02*
X124998767Y-56550814D01*
X124998767Y-56550814D02*
X124941314Y-56608266D01*
X124941314Y-56608266D02*
X124883862Y-56723171D01*
X124883862Y-56723171D02*
X124883862Y-56952980D01*
X124883862Y-56952980D02*
X124941314Y-57067885D01*
X124941314Y-57067885D02*
X124998767Y-57125338D01*
X124998767Y-57125338D02*
X125113671Y-57182790D01*
X122389243Y-71220814D02*
X122389243Y-71795338D01*
X122389243Y-71795338D02*
X122963767Y-71852790D01*
X122963767Y-71852790D02*
X122906314Y-71795338D01*
X122906314Y-71795338D02*
X122848862Y-71680433D01*
X122848862Y-71680433D02*
X122848862Y-71393171D01*
X122848862Y-71393171D02*
X122906314Y-71278266D01*
X122906314Y-71278266D02*
X122963767Y-71220814D01*
X122963767Y-71220814D02*
X123078671Y-71163361D01*
X123078671Y-71163361D02*
X123365933Y-71163361D01*
X123365933Y-71163361D02*
X123480838Y-71220814D01*
X123480838Y-71220814D02*
X123538291Y-71278266D01*
X123538291Y-71278266D02*
X123595743Y-71393171D01*
X123595743Y-71393171D02*
X123595743Y-71680433D01*
X123595743Y-71680433D02*
X123538291Y-71795338D01*
X123538291Y-71795338D02*
X123480838Y-71852790D01*
X122945743Y-56413361D02*
X122945743Y-57102790D01*
X122945743Y-56758076D02*
X121739243Y-56758076D01*
X121739243Y-56758076D02*
X121911600Y-56872980D01*
X121911600Y-56872980D02*
X122026505Y-56987885D01*
X122026505Y-56987885D02*
X122083957Y-57102790D01*
X125630743Y-71672885D02*
X125630743Y-71443076D01*
X125630743Y-71443076D02*
X125573291Y-71328171D01*
X125573291Y-71328171D02*
X125515838Y-71270719D01*
X125515838Y-71270719D02*
X125343481Y-71155814D01*
X125343481Y-71155814D02*
X125113671Y-71098361D01*
X125113671Y-71098361D02*
X124654052Y-71098361D01*
X124654052Y-71098361D02*
X124539148Y-71155814D01*
X124539148Y-71155814D02*
X124481695Y-71213266D01*
X124481695Y-71213266D02*
X124424243Y-71328171D01*
X124424243Y-71328171D02*
X124424243Y-71557980D01*
X124424243Y-71557980D02*
X124481695Y-71672885D01*
X124481695Y-71672885D02*
X124539148Y-71730338D01*
X124539148Y-71730338D02*
X124654052Y-71787790D01*
X124654052Y-71787790D02*
X124941314Y-71787790D01*
X124941314Y-71787790D02*
X125056219Y-71730338D01*
X125056219Y-71730338D02*
X125113671Y-71672885D01*
X125113671Y-71672885D02*
X125171124Y-71557980D01*
X125171124Y-71557980D02*
X125171124Y-71328171D01*
X125171124Y-71328171D02*
X125113671Y-71213266D01*
X125113671Y-71213266D02*
X125056219Y-71155814D01*
X125056219Y-71155814D02*
X124941314Y-71098361D01*
D10*
X116516666Y-56504819D02*
X116516666Y-57219104D01*
X116516666Y-57219104D02*
X116469047Y-57361961D01*
X116469047Y-57361961D02*
X116373809Y-57457200D01*
X116373809Y-57457200D02*
X116230952Y-57504819D01*
X116230952Y-57504819D02*
X116135714Y-57504819D01*
X116992857Y-57504819D02*
X116992857Y-56504819D01*
X116992857Y-56504819D02*
X117373809Y-56504819D01*
X117373809Y-56504819D02*
X117469047Y-56552438D01*
X117469047Y-56552438D02*
X117516666Y-56600057D01*
X117516666Y-56600057D02*
X117564285Y-56695295D01*
X117564285Y-56695295D02*
X117564285Y-56838152D01*
X117564285Y-56838152D02*
X117516666Y-56933390D01*
X117516666Y-56933390D02*
X117469047Y-56981009D01*
X117469047Y-56981009D02*
X117373809Y-57028628D01*
X117373809Y-57028628D02*
X116992857Y-57028628D01*
X118516666Y-57504819D02*
X117945238Y-57504819D01*
X118230952Y-57504819D02*
X118230952Y-56504819D01*
X118230952Y-56504819D02*
X118135714Y-56647676D01*
X118135714Y-56647676D02*
X118040476Y-56742914D01*
X118040476Y-56742914D02*
X117945238Y-56790533D01*
D12*
X102685000Y-62238748D02*
X102685000Y-62761252D01*
X101215000Y-62238748D02*
X101215000Y-62761252D01*
X87160000Y-43390000D02*
X92360000Y-43390000D01*
X87160000Y-68850000D02*
X87160000Y-43390000D01*
X87160000Y-68850000D02*
X89760000Y-68850000D01*
X87160000Y-70120000D02*
X87160000Y-71450000D01*
X87160000Y-71450000D02*
X88490000Y-71450000D01*
X89760000Y-68850000D02*
X89760000Y-71450000D01*
X89760000Y-71450000D02*
X92360000Y-71450000D01*
X92360000Y-71450000D02*
X92360000Y-43390000D01*
X109150000Y-58240000D02*
X107200000Y-58240000D01*
X109150000Y-58240000D02*
X111100000Y-58240000D01*
X109150000Y-63360000D02*
X107200000Y-63360000D01*
X109150000Y-63360000D02*
X111100000Y-63360000D01*
X106450000Y-58335000D02*
X106210000Y-58005000D01*
X106690000Y-58005000D01*
X106450000Y-58335000D01*
G36*
X106450000Y-58335000D02*
G01*
X106210000Y-58005000D01*
X106690000Y-58005000D01*
X106450000Y-58335000D01*
G37*
X117377064Y-66090000D02*
X113022936Y-66090000D01*
X117377064Y-69510000D02*
X113022936Y-69510000D01*
X99590000Y-47700000D02*
X99590000Y-41640000D01*
X101710000Y-41640000D02*
X99590000Y-41640000D01*
X101710000Y-47700000D02*
X99590000Y-47700000D01*
X101710000Y-47700000D02*
X101710000Y-41640000D01*
X101710000Y-48700000D02*
X101710000Y-49760000D01*
X101710000Y-49760000D02*
X100650000Y-49760000D01*
D13*
X121975000Y-48941000D02*
X122610000Y-48306000D01*
X121975000Y-53767000D02*
X121975000Y-48941000D01*
X121975000Y-53767000D02*
X122483000Y-54275000D01*
X121975000Y-73833000D02*
X121975000Y-78786000D01*
X121975000Y-78786000D02*
X122483000Y-79294000D01*
X122483000Y-54275000D02*
X132770000Y-54275000D01*
X122483000Y-73325000D02*
X121975000Y-73833000D01*
X122483000Y-73325000D02*
X132770000Y-73325000D01*
X122483000Y-79294000D02*
X132643000Y-79294000D01*
X122610000Y-48306000D02*
X132643000Y-48306000D01*
X132008000Y-54529000D02*
X132008000Y-73071000D01*
X132770000Y-48306000D02*
X132643000Y-48306000D01*
X132770000Y-48306000D02*
X132770000Y-53386000D01*
X132770000Y-48306000D02*
X135818000Y-48306000D01*
X132770000Y-53386000D02*
X132770000Y-54275000D01*
X132770000Y-54275000D02*
X132770000Y-54529000D01*
X132770000Y-54529000D02*
X132008000Y-54529000D01*
X132770000Y-54529000D02*
X132770000Y-73071000D01*
X132770000Y-73071000D02*
X132008000Y-73071000D01*
X132770000Y-73071000D02*
X132770000Y-73325000D01*
X132770000Y-73325000D02*
X132770000Y-74214000D01*
X132770000Y-74214000D02*
X132770000Y-79294000D01*
X132770000Y-79294000D02*
X132643000Y-79294000D01*
X133405000Y-53513000D02*
X135818000Y-53513000D01*
X133405000Y-74087000D02*
X135818000Y-74087000D01*
X135818000Y-48306000D02*
X136326000Y-48306000D01*
X135818000Y-53386000D02*
X135818000Y-53513000D01*
X135818000Y-53386000D02*
X136326000Y-53386000D01*
X135818000Y-74087000D02*
X135818000Y-74214000D01*
X135818000Y-74214000D02*
X136326000Y-74214000D01*
X135818000Y-79294000D02*
X132770000Y-79294000D01*
X136326000Y-48306000D02*
X136326000Y-50846000D01*
X136326000Y-48306000D02*
X136834000Y-48306000D01*
X136326000Y-50846000D02*
X136326000Y-53386000D01*
X136326000Y-53386000D02*
X136326000Y-74214000D01*
X136326000Y-74214000D02*
X136326000Y-76754000D01*
X136326000Y-76754000D02*
X136326000Y-79294000D01*
X136326000Y-79294000D02*
X135818000Y-79294000D01*
X136834000Y-48306000D02*
X136834000Y-56053000D01*
X136834000Y-56053000D02*
X136834000Y-71547000D01*
X136834000Y-71547000D02*
X136834000Y-79294000D01*
X136834000Y-79294000D02*
X136326000Y-79294000D01*
X137469000Y-55672000D02*
X142549000Y-55672000D01*
X137469000Y-71928000D02*
X142549000Y-71928000D01*
X143057000Y-56180000D02*
X143057000Y-56434000D01*
X143057000Y-56434000D02*
X143057000Y-71166000D01*
X143057000Y-71166000D02*
X143057000Y-71420000D01*
X132770000Y-54148000D02*
G75*
G02*
X133405000Y-53513000I634999J1D01*
G01*
X133405000Y-74087000D02*
G75*
G02*
X132770000Y-73452000I0J635000D01*
G01*
X136834000Y-72563000D02*
G75*
G02*
X137469000Y-71928000I635000J0D01*
G01*
X137469000Y-55672000D02*
G75*
G02*
X136834000Y-55037000I-1J634999D01*
G01*
X142549000Y-55672000D02*
G75*
G02*
X143057000Y-56180000I-1J-508001D01*
G01*
X143057000Y-71420000D02*
G75*
G02*
X142549000Y-71928000I-508000J0D01*
G01*
X126801000Y-51277800D02*
G75*
G02*
X123499000Y-51277800I-1651000J0D01*
G01*
X123499000Y-51277800D02*
G75*
G02*
X126801000Y-51277800I1651000J0D01*
G01*
X126801000Y-76322200D02*
G75*
G02*
X123499000Y-76322200I-1651000J0D01*
G01*
X123499000Y-76322200D02*
G75*
G02*
X126801000Y-76322200I1651000J0D01*
G01*
D14*
G36*
X132008000Y-58720000D02*
G01*
X124769000Y-58720000D01*
X124769000Y-57907200D01*
X132008000Y-57907200D01*
X132008000Y-58720000D01*
G37*
G36*
X132008000Y-61463200D02*
G01*
X124769000Y-61463200D01*
X124769000Y-60650400D01*
X132008000Y-60650400D01*
X132008000Y-61463200D01*
G37*
G36*
X132008000Y-64181000D02*
G01*
X124769000Y-64181000D01*
X124769000Y-63368200D01*
X132008000Y-63368200D01*
X132008000Y-64181000D01*
G37*
G36*
X132008000Y-66949600D02*
G01*
X124769000Y-66949600D01*
X124769000Y-66136800D01*
X132008000Y-66136800D01*
X132008000Y-66949600D01*
G37*
G36*
X132008000Y-69692800D02*
G01*
X124769000Y-69692800D01*
X124769000Y-68880000D01*
X132008000Y-68880000D01*
X132008000Y-69692800D01*
G37*
G36*
X132008000Y-60091600D02*
G01*
X127309000Y-60091600D01*
X127309000Y-59278800D01*
X132008000Y-59278800D01*
X132008000Y-60091600D01*
G37*
G36*
X132008000Y-62834800D02*
G01*
X127309000Y-62834800D01*
X127309000Y-62022000D01*
X132008000Y-62022000D01*
X132008000Y-62834800D01*
G37*
G36*
X132008000Y-65552600D02*
G01*
X127309000Y-65552600D01*
X127309000Y-64739800D01*
X132008000Y-64739800D01*
X132008000Y-65552600D01*
G37*
G36*
X132008000Y-68321200D02*
G01*
X127309000Y-68321200D01*
X127309000Y-67508400D01*
X132008000Y-67508400D01*
X132008000Y-68321200D01*
G37*
G36*
X132770000Y-73071000D02*
G01*
X132008000Y-73071000D01*
X132008000Y-54529000D01*
X132770000Y-54529000D01*
X132770000Y-73071000D01*
G37*
G36*
X136834000Y-79294000D02*
G01*
X136326000Y-79294000D01*
X136326000Y-48306000D01*
X136834000Y-48306000D01*
X136834000Y-79294000D01*
G37*
D12*
X116120000Y-58470000D02*
X117450000Y-58470000D01*
X116120000Y-59800000D02*
X116120000Y-58470000D01*
X116120000Y-61070000D02*
X116120000Y-63670000D01*
X116120000Y-61070000D02*
X118780000Y-61070000D01*
X116120000Y-63670000D02*
X118780000Y-63670000D01*
X118780000Y-61070000D02*
X118780000Y-63670000D01*
M02*
