G04 #@! TF.GenerationSoftware,KiCad,Pcbnew,8.0.6*
G04 #@! TF.CreationDate,2025-01-13T18:54:34-05:00*
G04 #@! TF.ProjectId,usb2J1708_rev4,75736232-4a31-4373-9038-5f726576342e,rev?*
G04 #@! TF.SameCoordinates,Original*
G04 #@! TF.FileFunction,Paste,Top*
G04 #@! TF.FilePolarity,Positive*
%FSLAX46Y46*%
G04 Gerber Fmt 4.6, Leading zero omitted, Abs format (unit mm)*
G04 Created by KiCad (PCBNEW 8.0.6) date 2025-01-13 18:54:34*
%MOMM*%
%LPD*%
G01*
G04 APERTURE LIST*
G04 Aperture macros list*
%AMRoundRect*
0 Rectangle with rounded corners*
0 $1 Rounding radius*
0 $2 $3 $4 $5 $6 $7 $8 $9 X,Y pos of 4 corners*
0 Add a 4 corners polygon primitive as box body*
4,1,4,$2,$3,$4,$5,$6,$7,$8,$9,$2,$3,0*
0 Add four circle primitives for the rounded corners*
1,1,$1+$1,$2,$3*
1,1,$1+$1,$4,$5*
1,1,$1+$1,$6,$7*
1,1,$1+$1,$8,$9*
0 Add four rect primitives between the rounded corners*
20,1,$1+$1,$2,$3,$4,$5,0*
20,1,$1+$1,$4,$5,$6,$7,0*
20,1,$1+$1,$6,$7,$8,$9,0*
20,1,$1+$1,$8,$9,$2,$3,0*%
G04 Aperture macros list end*
%ADD10RoundRect,0.249999X0.450001X1.425001X-0.450001X1.425001X-0.450001X-1.425001X0.450001X-1.425001X0*%
%ADD11RoundRect,0.250000X0.350000X0.450000X-0.350000X0.450000X-0.350000X-0.450000X0.350000X-0.450000X0*%
%ADD12RoundRect,0.250000X0.475000X-0.337500X0.475000X0.337500X-0.475000X0.337500X-0.475000X-0.337500X0*%
%ADD13RoundRect,0.150000X-0.825000X-0.150000X0.825000X-0.150000X0.825000X0.150000X-0.825000X0.150000X0*%
%ADD14RoundRect,0.250000X-0.450000X0.350000X-0.450000X-0.350000X0.450000X-0.350000X0.450000X0.350000X0*%
%ADD15RoundRect,0.250000X-0.400000X-0.625000X0.400000X-0.625000X0.400000X0.625000X-0.400000X0.625000X0*%
%ADD16RoundRect,0.250000X0.337500X0.475000X-0.337500X0.475000X-0.337500X-0.475000X0.337500X-0.475000X0*%
%ADD17RoundRect,0.250000X0.400000X0.625000X-0.400000X0.625000X-0.400000X-0.625000X0.400000X-0.625000X0*%
%ADD18RoundRect,0.250000X-0.337500X-0.475000X0.337500X-0.475000X0.337500X0.475000X-0.337500X0.475000X0*%
%ADD19RoundRect,0.250000X-0.475000X0.337500X-0.475000X-0.337500X0.475000X-0.337500X0.475000X0.337500X0*%
G04 APERTURE END LIST*
D10*
X182518000Y-109426000D03*
X176418000Y-109426000D03*
D11*
X165279800Y-96218200D03*
X163279800Y-96218200D03*
D12*
X143570000Y-98055000D03*
X143570000Y-95980000D03*
D13*
X166808600Y-99266200D03*
X166808600Y-100536200D03*
X166808600Y-101806200D03*
X166808600Y-103076200D03*
X171758600Y-103076200D03*
X171758600Y-101806200D03*
X171758600Y-100536200D03*
X171758600Y-99266200D03*
D14*
X163238400Y-100704600D03*
X163238400Y-102704600D03*
D15*
X168317800Y-110518400D03*
X171417800Y-110518400D03*
D12*
X139820000Y-98755000D03*
X139820000Y-96680000D03*
D16*
X152895000Y-94520000D03*
X150820000Y-94520000D03*
D17*
X170884000Y-114506000D03*
X167784000Y-114506000D03*
D18*
X174951700Y-99164600D03*
X177026700Y-99164600D03*
D16*
X135585000Y-109070000D03*
X133510000Y-109070000D03*
D19*
X176649600Y-101581500D03*
X176649600Y-103656500D03*
D13*
X147985000Y-97905000D03*
X147985000Y-99175000D03*
X147985000Y-100445000D03*
X147985000Y-101715000D03*
X147985000Y-102985000D03*
X147985000Y-104255000D03*
X147985000Y-105525000D03*
X147985000Y-106795000D03*
X152935000Y-106795000D03*
X152935000Y-105525000D03*
X152935000Y-104255000D03*
X152935000Y-102985000D03*
X152935000Y-101715000D03*
X152935000Y-100445000D03*
X152935000Y-99175000D03*
X152935000Y-97905000D03*
D10*
X181502000Y-114506000D03*
X175402000Y-114506000D03*
M02*
