G04 #@! TF.GenerationSoftware,KiCad,Pcbnew,8.0.6*
G04 #@! TF.CreationDate,2025-01-13T18:54:34-05:00*
G04 #@! TF.ProjectId,usb2J1708_rev4,75736232-4a31-4373-9038-5f726576342e,rev?*
G04 #@! TF.SameCoordinates,Original*
G04 #@! TF.FileFunction,Legend,Top*
G04 #@! TF.FilePolarity,Positive*
%FSLAX46Y46*%
G04 Gerber Fmt 4.6, Leading zero omitted, Abs format (unit mm)*
G04 Created by KiCad (PCBNEW 8.0.6) date 2025-01-13 18:54:34*
%MOMM*%
%LPD*%
G01*
G04 APERTURE LIST*
%ADD10C,0.150000*%
%ADD11C,0.120000*%
G04 APERTURE END LIST*
D10*
X173891133Y-111049219D02*
X173557800Y-110573028D01*
X173319705Y-111049219D02*
X173319705Y-110049219D01*
X173319705Y-110049219D02*
X173700657Y-110049219D01*
X173700657Y-110049219D02*
X173795895Y-110096838D01*
X173795895Y-110096838D02*
X173843514Y-110144457D01*
X173843514Y-110144457D02*
X173891133Y-110239695D01*
X173891133Y-110239695D02*
X173891133Y-110382552D01*
X173891133Y-110382552D02*
X173843514Y-110477790D01*
X173843514Y-110477790D02*
X173795895Y-110525409D01*
X173795895Y-110525409D02*
X173700657Y-110573028D01*
X173700657Y-110573028D02*
X173319705Y-110573028D01*
X174748276Y-110049219D02*
X174557800Y-110049219D01*
X174557800Y-110049219D02*
X174462562Y-110096838D01*
X174462562Y-110096838D02*
X174414943Y-110144457D01*
X174414943Y-110144457D02*
X174319705Y-110287314D01*
X174319705Y-110287314D02*
X174272086Y-110477790D01*
X174272086Y-110477790D02*
X174272086Y-110858742D01*
X174272086Y-110858742D02*
X174319705Y-110953980D01*
X174319705Y-110953980D02*
X174367324Y-111001600D01*
X174367324Y-111001600D02*
X174462562Y-111049219D01*
X174462562Y-111049219D02*
X174653038Y-111049219D01*
X174653038Y-111049219D02*
X174748276Y-111001600D01*
X174748276Y-111001600D02*
X174795895Y-110953980D01*
X174795895Y-110953980D02*
X174843514Y-110858742D01*
X174843514Y-110858742D02*
X174843514Y-110620647D01*
X174843514Y-110620647D02*
X174795895Y-110525409D01*
X174795895Y-110525409D02*
X174748276Y-110477790D01*
X174748276Y-110477790D02*
X174653038Y-110430171D01*
X174653038Y-110430171D02*
X174462562Y-110430171D01*
X174462562Y-110430171D02*
X174367324Y-110477790D01*
X174367324Y-110477790D02*
X174319705Y-110525409D01*
X174319705Y-110525409D02*
X174272086Y-110620647D01*
X164595733Y-98349419D02*
X164262400Y-97873228D01*
X164024305Y-98349419D02*
X164024305Y-97349419D01*
X164024305Y-97349419D02*
X164405257Y-97349419D01*
X164405257Y-97349419D02*
X164500495Y-97397038D01*
X164500495Y-97397038D02*
X164548114Y-97444657D01*
X164548114Y-97444657D02*
X164595733Y-97539895D01*
X164595733Y-97539895D02*
X164595733Y-97682752D01*
X164595733Y-97682752D02*
X164548114Y-97777990D01*
X164548114Y-97777990D02*
X164500495Y-97825609D01*
X164500495Y-97825609D02*
X164405257Y-97873228D01*
X164405257Y-97873228D02*
X164024305Y-97873228D01*
X165548114Y-98349419D02*
X164976686Y-98349419D01*
X165262400Y-98349419D02*
X165262400Y-97349419D01*
X165262400Y-97349419D02*
X165167162Y-97492276D01*
X165167162Y-97492276D02*
X165071924Y-97587514D01*
X165071924Y-97587514D02*
X164976686Y-97635133D01*
X143403333Y-100039580D02*
X143355714Y-100087200D01*
X143355714Y-100087200D02*
X143212857Y-100134819D01*
X143212857Y-100134819D02*
X143117619Y-100134819D01*
X143117619Y-100134819D02*
X142974762Y-100087200D01*
X142974762Y-100087200D02*
X142879524Y-99991961D01*
X142879524Y-99991961D02*
X142831905Y-99896723D01*
X142831905Y-99896723D02*
X142784286Y-99706247D01*
X142784286Y-99706247D02*
X142784286Y-99563390D01*
X142784286Y-99563390D02*
X142831905Y-99372914D01*
X142831905Y-99372914D02*
X142879524Y-99277676D01*
X142879524Y-99277676D02*
X142974762Y-99182438D01*
X142974762Y-99182438D02*
X143117619Y-99134819D01*
X143117619Y-99134819D02*
X143212857Y-99134819D01*
X143212857Y-99134819D02*
X143355714Y-99182438D01*
X143355714Y-99182438D02*
X143403333Y-99230057D01*
X144260476Y-99468152D02*
X144260476Y-100134819D01*
X144022381Y-99087200D02*
X143784286Y-99801485D01*
X143784286Y-99801485D02*
X144403333Y-99801485D01*
X168521695Y-97226019D02*
X168521695Y-98035542D01*
X168521695Y-98035542D02*
X168569314Y-98130780D01*
X168569314Y-98130780D02*
X168616933Y-98178400D01*
X168616933Y-98178400D02*
X168712171Y-98226019D01*
X168712171Y-98226019D02*
X168902647Y-98226019D01*
X168902647Y-98226019D02*
X168997885Y-98178400D01*
X168997885Y-98178400D02*
X169045504Y-98130780D01*
X169045504Y-98130780D02*
X169093123Y-98035542D01*
X169093123Y-98035542D02*
X169093123Y-97226019D01*
X169521695Y-97321257D02*
X169569314Y-97273638D01*
X169569314Y-97273638D02*
X169664552Y-97226019D01*
X169664552Y-97226019D02*
X169902647Y-97226019D01*
X169902647Y-97226019D02*
X169997885Y-97273638D01*
X169997885Y-97273638D02*
X170045504Y-97321257D01*
X170045504Y-97321257D02*
X170093123Y-97416495D01*
X170093123Y-97416495D02*
X170093123Y-97511733D01*
X170093123Y-97511733D02*
X170045504Y-97654590D01*
X170045504Y-97654590D02*
X169474076Y-98226019D01*
X169474076Y-98226019D02*
X170093123Y-98226019D01*
X163071733Y-99543219D02*
X162738400Y-99067028D01*
X162500305Y-99543219D02*
X162500305Y-98543219D01*
X162500305Y-98543219D02*
X162881257Y-98543219D01*
X162881257Y-98543219D02*
X162976495Y-98590838D01*
X162976495Y-98590838D02*
X163024114Y-98638457D01*
X163024114Y-98638457D02*
X163071733Y-98733695D01*
X163071733Y-98733695D02*
X163071733Y-98876552D01*
X163071733Y-98876552D02*
X163024114Y-98971790D01*
X163024114Y-98971790D02*
X162976495Y-99019409D01*
X162976495Y-99019409D02*
X162881257Y-99067028D01*
X162881257Y-99067028D02*
X162500305Y-99067028D01*
X163452686Y-98638457D02*
X163500305Y-98590838D01*
X163500305Y-98590838D02*
X163595543Y-98543219D01*
X163595543Y-98543219D02*
X163833638Y-98543219D01*
X163833638Y-98543219D02*
X163928876Y-98590838D01*
X163928876Y-98590838D02*
X163976495Y-98638457D01*
X163976495Y-98638457D02*
X164024114Y-98733695D01*
X164024114Y-98733695D02*
X164024114Y-98828933D01*
X164024114Y-98828933D02*
X163976495Y-98971790D01*
X163976495Y-98971790D02*
X163405067Y-99543219D01*
X163405067Y-99543219D02*
X164024114Y-99543219D01*
X169701133Y-109153219D02*
X169367800Y-108677028D01*
X169129705Y-109153219D02*
X169129705Y-108153219D01*
X169129705Y-108153219D02*
X169510657Y-108153219D01*
X169510657Y-108153219D02*
X169605895Y-108200838D01*
X169605895Y-108200838D02*
X169653514Y-108248457D01*
X169653514Y-108248457D02*
X169701133Y-108343695D01*
X169701133Y-108343695D02*
X169701133Y-108486552D01*
X169701133Y-108486552D02*
X169653514Y-108581790D01*
X169653514Y-108581790D02*
X169605895Y-108629409D01*
X169605895Y-108629409D02*
X169510657Y-108677028D01*
X169510657Y-108677028D02*
X169129705Y-108677028D01*
X170558276Y-108486552D02*
X170558276Y-109153219D01*
X170320181Y-108105600D02*
X170082086Y-108819885D01*
X170082086Y-108819885D02*
X170701133Y-108819885D01*
X186084905Y-115123819D02*
X186084905Y-114123819D01*
X186084905Y-114123819D02*
X186465857Y-114123819D01*
X186465857Y-114123819D02*
X186561095Y-114171438D01*
X186561095Y-114171438D02*
X186608714Y-114219057D01*
X186608714Y-114219057D02*
X186656333Y-114314295D01*
X186656333Y-114314295D02*
X186656333Y-114457152D01*
X186656333Y-114457152D02*
X186608714Y-114552390D01*
X186608714Y-114552390D02*
X186561095Y-114600009D01*
X186561095Y-114600009D02*
X186465857Y-114647628D01*
X186465857Y-114647628D02*
X186084905Y-114647628D01*
X187037286Y-114219057D02*
X187084905Y-114171438D01*
X187084905Y-114171438D02*
X187180143Y-114123819D01*
X187180143Y-114123819D02*
X187418238Y-114123819D01*
X187418238Y-114123819D02*
X187513476Y-114171438D01*
X187513476Y-114171438D02*
X187561095Y-114219057D01*
X187561095Y-114219057D02*
X187608714Y-114314295D01*
X187608714Y-114314295D02*
X187608714Y-114409533D01*
X187608714Y-114409533D02*
X187561095Y-114552390D01*
X187561095Y-114552390D02*
X186989667Y-115123819D01*
X186989667Y-115123819D02*
X187608714Y-115123819D01*
X137593333Y-99279580D02*
X137545714Y-99327200D01*
X137545714Y-99327200D02*
X137402857Y-99374819D01*
X137402857Y-99374819D02*
X137307619Y-99374819D01*
X137307619Y-99374819D02*
X137164762Y-99327200D01*
X137164762Y-99327200D02*
X137069524Y-99231961D01*
X137069524Y-99231961D02*
X137021905Y-99136723D01*
X137021905Y-99136723D02*
X136974286Y-98946247D01*
X136974286Y-98946247D02*
X136974286Y-98803390D01*
X136974286Y-98803390D02*
X137021905Y-98612914D01*
X137021905Y-98612914D02*
X137069524Y-98517676D01*
X137069524Y-98517676D02*
X137164762Y-98422438D01*
X137164762Y-98422438D02*
X137307619Y-98374819D01*
X137307619Y-98374819D02*
X137402857Y-98374819D01*
X137402857Y-98374819D02*
X137545714Y-98422438D01*
X137545714Y-98422438D02*
X137593333Y-98470057D01*
X137974286Y-98470057D02*
X138021905Y-98422438D01*
X138021905Y-98422438D02*
X138117143Y-98374819D01*
X138117143Y-98374819D02*
X138355238Y-98374819D01*
X138355238Y-98374819D02*
X138450476Y-98422438D01*
X138450476Y-98422438D02*
X138498095Y-98470057D01*
X138498095Y-98470057D02*
X138545714Y-98565295D01*
X138545714Y-98565295D02*
X138545714Y-98660533D01*
X138545714Y-98660533D02*
X138498095Y-98803390D01*
X138498095Y-98803390D02*
X137926667Y-99374819D01*
X137926667Y-99374819D02*
X138545714Y-99374819D01*
X154583333Y-94779580D02*
X154535714Y-94827200D01*
X154535714Y-94827200D02*
X154392857Y-94874819D01*
X154392857Y-94874819D02*
X154297619Y-94874819D01*
X154297619Y-94874819D02*
X154154762Y-94827200D01*
X154154762Y-94827200D02*
X154059524Y-94731961D01*
X154059524Y-94731961D02*
X154011905Y-94636723D01*
X154011905Y-94636723D02*
X153964286Y-94446247D01*
X153964286Y-94446247D02*
X153964286Y-94303390D01*
X153964286Y-94303390D02*
X154011905Y-94112914D01*
X154011905Y-94112914D02*
X154059524Y-94017676D01*
X154059524Y-94017676D02*
X154154762Y-93922438D01*
X154154762Y-93922438D02*
X154297619Y-93874819D01*
X154297619Y-93874819D02*
X154392857Y-93874819D01*
X154392857Y-93874819D02*
X154535714Y-93922438D01*
X154535714Y-93922438D02*
X154583333Y-93970057D01*
X154916667Y-93874819D02*
X155535714Y-93874819D01*
X155535714Y-93874819D02*
X155202381Y-94255771D01*
X155202381Y-94255771D02*
X155345238Y-94255771D01*
X155345238Y-94255771D02*
X155440476Y-94303390D01*
X155440476Y-94303390D02*
X155488095Y-94351009D01*
X155488095Y-94351009D02*
X155535714Y-94446247D01*
X155535714Y-94446247D02*
X155535714Y-94684342D01*
X155535714Y-94684342D02*
X155488095Y-94779580D01*
X155488095Y-94779580D02*
X155440476Y-94827200D01*
X155440476Y-94827200D02*
X155345238Y-94874819D01*
X155345238Y-94874819D02*
X155059524Y-94874819D01*
X155059524Y-94874819D02*
X154964286Y-94827200D01*
X154964286Y-94827200D02*
X154916667Y-94779580D01*
X169243533Y-116967419D02*
X168910200Y-116491228D01*
X168672105Y-116967419D02*
X168672105Y-115967419D01*
X168672105Y-115967419D02*
X169053057Y-115967419D01*
X169053057Y-115967419D02*
X169148295Y-116015038D01*
X169148295Y-116015038D02*
X169195914Y-116062657D01*
X169195914Y-116062657D02*
X169243533Y-116157895D01*
X169243533Y-116157895D02*
X169243533Y-116300752D01*
X169243533Y-116300752D02*
X169195914Y-116395990D01*
X169195914Y-116395990D02*
X169148295Y-116443609D01*
X169148295Y-116443609D02*
X169053057Y-116491228D01*
X169053057Y-116491228D02*
X168672105Y-116491228D01*
X169576867Y-115967419D02*
X170195914Y-115967419D01*
X170195914Y-115967419D02*
X169862581Y-116348371D01*
X169862581Y-116348371D02*
X170005438Y-116348371D01*
X170005438Y-116348371D02*
X170100676Y-116395990D01*
X170100676Y-116395990D02*
X170148295Y-116443609D01*
X170148295Y-116443609D02*
X170195914Y-116538847D01*
X170195914Y-116538847D02*
X170195914Y-116776942D01*
X170195914Y-116776942D02*
X170148295Y-116872180D01*
X170148295Y-116872180D02*
X170100676Y-116919800D01*
X170100676Y-116919800D02*
X170005438Y-116967419D01*
X170005438Y-116967419D02*
X169719724Y-116967419D01*
X169719724Y-116967419D02*
X169624486Y-116919800D01*
X169624486Y-116919800D02*
X169576867Y-116872180D01*
X178895933Y-99778180D02*
X178848314Y-99825800D01*
X178848314Y-99825800D02*
X178705457Y-99873419D01*
X178705457Y-99873419D02*
X178610219Y-99873419D01*
X178610219Y-99873419D02*
X178467362Y-99825800D01*
X178467362Y-99825800D02*
X178372124Y-99730561D01*
X178372124Y-99730561D02*
X178324505Y-99635323D01*
X178324505Y-99635323D02*
X178276886Y-99444847D01*
X178276886Y-99444847D02*
X178276886Y-99301990D01*
X178276886Y-99301990D02*
X178324505Y-99111514D01*
X178324505Y-99111514D02*
X178372124Y-99016276D01*
X178372124Y-99016276D02*
X178467362Y-98921038D01*
X178467362Y-98921038D02*
X178610219Y-98873419D01*
X178610219Y-98873419D02*
X178705457Y-98873419D01*
X178705457Y-98873419D02*
X178848314Y-98921038D01*
X178848314Y-98921038D02*
X178895933Y-98968657D01*
X179800695Y-98873419D02*
X179324505Y-98873419D01*
X179324505Y-98873419D02*
X179276886Y-99349609D01*
X179276886Y-99349609D02*
X179324505Y-99301990D01*
X179324505Y-99301990D02*
X179419743Y-99254371D01*
X179419743Y-99254371D02*
X179657838Y-99254371D01*
X179657838Y-99254371D02*
X179753076Y-99301990D01*
X179753076Y-99301990D02*
X179800695Y-99349609D01*
X179800695Y-99349609D02*
X179848314Y-99444847D01*
X179848314Y-99444847D02*
X179848314Y-99682942D01*
X179848314Y-99682942D02*
X179800695Y-99778180D01*
X179800695Y-99778180D02*
X179753076Y-99825800D01*
X179753076Y-99825800D02*
X179657838Y-99873419D01*
X179657838Y-99873419D02*
X179419743Y-99873419D01*
X179419743Y-99873419D02*
X179324505Y-99825800D01*
X179324505Y-99825800D02*
X179276886Y-99778180D01*
X134380833Y-111109580D02*
X134333214Y-111157200D01*
X134333214Y-111157200D02*
X134190357Y-111204819D01*
X134190357Y-111204819D02*
X134095119Y-111204819D01*
X134095119Y-111204819D02*
X133952262Y-111157200D01*
X133952262Y-111157200D02*
X133857024Y-111061961D01*
X133857024Y-111061961D02*
X133809405Y-110966723D01*
X133809405Y-110966723D02*
X133761786Y-110776247D01*
X133761786Y-110776247D02*
X133761786Y-110633390D01*
X133761786Y-110633390D02*
X133809405Y-110442914D01*
X133809405Y-110442914D02*
X133857024Y-110347676D01*
X133857024Y-110347676D02*
X133952262Y-110252438D01*
X133952262Y-110252438D02*
X134095119Y-110204819D01*
X134095119Y-110204819D02*
X134190357Y-110204819D01*
X134190357Y-110204819D02*
X134333214Y-110252438D01*
X134333214Y-110252438D02*
X134380833Y-110300057D01*
X135333214Y-111204819D02*
X134761786Y-111204819D01*
X135047500Y-111204819D02*
X135047500Y-110204819D01*
X135047500Y-110204819D02*
X134952262Y-110347676D01*
X134952262Y-110347676D02*
X134857024Y-110442914D01*
X134857024Y-110442914D02*
X134761786Y-110490533D01*
X178667333Y-103207180D02*
X178619714Y-103254800D01*
X178619714Y-103254800D02*
X178476857Y-103302419D01*
X178476857Y-103302419D02*
X178381619Y-103302419D01*
X178381619Y-103302419D02*
X178238762Y-103254800D01*
X178238762Y-103254800D02*
X178143524Y-103159561D01*
X178143524Y-103159561D02*
X178095905Y-103064323D01*
X178095905Y-103064323D02*
X178048286Y-102873847D01*
X178048286Y-102873847D02*
X178048286Y-102730990D01*
X178048286Y-102730990D02*
X178095905Y-102540514D01*
X178095905Y-102540514D02*
X178143524Y-102445276D01*
X178143524Y-102445276D02*
X178238762Y-102350038D01*
X178238762Y-102350038D02*
X178381619Y-102302419D01*
X178381619Y-102302419D02*
X178476857Y-102302419D01*
X178476857Y-102302419D02*
X178619714Y-102350038D01*
X178619714Y-102350038D02*
X178667333Y-102397657D01*
X179524476Y-102302419D02*
X179334000Y-102302419D01*
X179334000Y-102302419D02*
X179238762Y-102350038D01*
X179238762Y-102350038D02*
X179191143Y-102397657D01*
X179191143Y-102397657D02*
X179095905Y-102540514D01*
X179095905Y-102540514D02*
X179048286Y-102730990D01*
X179048286Y-102730990D02*
X179048286Y-103111942D01*
X179048286Y-103111942D02*
X179095905Y-103207180D01*
X179095905Y-103207180D02*
X179143524Y-103254800D01*
X179143524Y-103254800D02*
X179238762Y-103302419D01*
X179238762Y-103302419D02*
X179429238Y-103302419D01*
X179429238Y-103302419D02*
X179524476Y-103254800D01*
X179524476Y-103254800D02*
X179572095Y-103207180D01*
X179572095Y-103207180D02*
X179619714Y-103111942D01*
X179619714Y-103111942D02*
X179619714Y-102873847D01*
X179619714Y-102873847D02*
X179572095Y-102778609D01*
X179572095Y-102778609D02*
X179524476Y-102730990D01*
X179524476Y-102730990D02*
X179429238Y-102683371D01*
X179429238Y-102683371D02*
X179238762Y-102683371D01*
X179238762Y-102683371D02*
X179143524Y-102730990D01*
X179143524Y-102730990D02*
X179095905Y-102778609D01*
X179095905Y-102778609D02*
X179048286Y-102873847D01*
X149698095Y-95904819D02*
X149698095Y-96714342D01*
X149698095Y-96714342D02*
X149745714Y-96809580D01*
X149745714Y-96809580D02*
X149793333Y-96857200D01*
X149793333Y-96857200D02*
X149888571Y-96904819D01*
X149888571Y-96904819D02*
X150079047Y-96904819D01*
X150079047Y-96904819D02*
X150174285Y-96857200D01*
X150174285Y-96857200D02*
X150221904Y-96809580D01*
X150221904Y-96809580D02*
X150269523Y-96714342D01*
X150269523Y-96714342D02*
X150269523Y-95904819D01*
X151269523Y-96904819D02*
X150698095Y-96904819D01*
X150983809Y-96904819D02*
X150983809Y-95904819D01*
X150983809Y-95904819D02*
X150888571Y-96047676D01*
X150888571Y-96047676D02*
X150793333Y-96142914D01*
X150793333Y-96142914D02*
X150698095Y-96190533D01*
X172925933Y-115722819D02*
X172592600Y-115246628D01*
X172354505Y-115722819D02*
X172354505Y-114722819D01*
X172354505Y-114722819D02*
X172735457Y-114722819D01*
X172735457Y-114722819D02*
X172830695Y-114770438D01*
X172830695Y-114770438D02*
X172878314Y-114818057D01*
X172878314Y-114818057D02*
X172925933Y-114913295D01*
X172925933Y-114913295D02*
X172925933Y-115056152D01*
X172925933Y-115056152D02*
X172878314Y-115151390D01*
X172878314Y-115151390D02*
X172830695Y-115199009D01*
X172830695Y-115199009D02*
X172735457Y-115246628D01*
X172735457Y-115246628D02*
X172354505Y-115246628D01*
X173830695Y-114722819D02*
X173354505Y-114722819D01*
X173354505Y-114722819D02*
X173306886Y-115199009D01*
X173306886Y-115199009D02*
X173354505Y-115151390D01*
X173354505Y-115151390D02*
X173449743Y-115103771D01*
X173449743Y-115103771D02*
X173687838Y-115103771D01*
X173687838Y-115103771D02*
X173783076Y-115151390D01*
X173783076Y-115151390D02*
X173830695Y-115199009D01*
X173830695Y-115199009D02*
X173878314Y-115294247D01*
X173878314Y-115294247D02*
X173878314Y-115532342D01*
X173878314Y-115532342D02*
X173830695Y-115627580D01*
X173830695Y-115627580D02*
X173783076Y-115675200D01*
X173783076Y-115675200D02*
X173687838Y-115722819D01*
X173687838Y-115722819D02*
X173449743Y-115722819D01*
X173449743Y-115722819D02*
X173354505Y-115675200D01*
X173354505Y-115675200D02*
X173306886Y-115627580D01*
D11*
X181645064Y-111136000D02*
X177290936Y-111136000D01*
X181645064Y-107716000D02*
X177290936Y-107716000D01*
X164506864Y-96953200D02*
X164052736Y-96953200D01*
X164506864Y-95483200D02*
X164052736Y-95483200D01*
X142835000Y-97278752D02*
X142835000Y-96756248D01*
X144305000Y-97278752D02*
X144305000Y-96756248D01*
X169283600Y-98611200D02*
X165833600Y-98611200D01*
X169283600Y-98611200D02*
X171233600Y-98611200D01*
X169283600Y-103731200D02*
X167333600Y-103731200D01*
X169283600Y-103731200D02*
X171233600Y-103731200D01*
X163973400Y-101477536D02*
X163973400Y-101931664D01*
X162503400Y-101477536D02*
X162503400Y-101931664D01*
X138165000Y-109770000D02*
X138165000Y-103370000D01*
X143215000Y-109770000D02*
X143215000Y-103370000D01*
X143215000Y-109770000D02*
G75*
G02*
X138165000Y-109770000I-2525000J0D01*
G01*
X138165000Y-103370000D02*
G75*
G02*
X143215000Y-103370000I2525000J0D01*
G01*
X169140736Y-109608400D02*
X170594864Y-109608400D01*
X169140736Y-111428400D02*
X170594864Y-111428400D01*
X188083000Y-113319000D02*
X186753000Y-113319000D01*
X188083000Y-111989000D02*
X188083000Y-113319000D01*
X188083000Y-110719000D02*
X188083000Y-108119000D01*
X188083000Y-110719000D02*
X185423000Y-110719000D01*
X188083000Y-108119000D02*
X185423000Y-108119000D01*
X185423000Y-110719000D02*
X185423000Y-108119000D01*
X139085000Y-97978752D02*
X139085000Y-97456248D01*
X140555000Y-97978752D02*
X140555000Y-97456248D01*
X152118752Y-95255000D02*
X151596248Y-95255000D01*
X152118752Y-93785000D02*
X151596248Y-93785000D01*
X170061064Y-115416000D02*
X168606936Y-115416000D01*
X170061064Y-113596000D02*
X168606936Y-113596000D01*
X175727948Y-98429600D02*
X176250452Y-98429600D01*
X175727948Y-99899600D02*
X176250452Y-99899600D01*
X134808752Y-109805000D02*
X134286248Y-109805000D01*
X134808752Y-108335000D02*
X134286248Y-108335000D01*
X177384600Y-102357748D02*
X177384600Y-102880252D01*
X175914600Y-102357748D02*
X175914600Y-102880252D01*
X150460000Y-97290000D02*
X147010000Y-97290000D01*
X150460000Y-97290000D02*
X152410000Y-97290000D01*
X150460000Y-107410000D02*
X148510000Y-107410000D01*
X150460000Y-107410000D02*
X152410000Y-107410000D01*
X180629064Y-116216000D02*
X176274936Y-116216000D01*
X180629064Y-112796000D02*
X176274936Y-112796000D01*
X134950000Y-126900000D02*
X134950000Y-125900000D01*
X134950000Y-125900000D02*
X134450000Y-126400000D01*
X134450000Y-126400000D02*
X134950000Y-126900000D01*
X134250000Y-131260000D02*
X130500000Y-131260000D01*
X134250000Y-119040000D02*
X134250000Y-131260000D01*
X134250000Y-119040000D02*
X130500000Y-119040000D01*
X117630000Y-131260000D02*
X125600000Y-131260000D01*
X117630000Y-119040000D02*
X125600000Y-119040000D01*
X117630000Y-119040000D02*
X117630000Y-131260000D01*
M02*
