G04 #@! TF.GenerationSoftware,KiCad,Pcbnew,8.0.6*
G04 #@! TF.CreationDate,2025-01-13T18:54:34-05:00*
G04 #@! TF.ProjectId,usb2J1708_rev4,75736232-4a31-4373-9038-5f726576342e,rev?*
G04 #@! TF.SameCoordinates,Original*
G04 #@! TF.FileFunction,Copper,L2,Bot*
G04 #@! TF.FilePolarity,Positive*
%FSLAX46Y46*%
G04 Gerber Fmt 4.6, Leading zero omitted, Abs format (unit mm)*
G04 Created by KiCad (PCBNEW 8.0.6) date 2025-01-13 18:54:34*
%MOMM*%
%LPD*%
G01*
G04 APERTURE LIST*
%ADD10C,0.300000*%
G04 #@! TA.AperFunction,NonConductor*
%ADD11C,0.300000*%
G04 #@! TD*
G04 #@! TA.AperFunction,ComponentPad*
%ADD12C,1.500000*%
G04 #@! TD*
G04 #@! TA.AperFunction,ComponentPad*
%ADD13R,1.700000X1.700000*%
G04 #@! TD*
G04 #@! TA.AperFunction,ComponentPad*
%ADD14O,1.700000X1.700000*%
G04 #@! TD*
G04 #@! TA.AperFunction,ComponentPad*
%ADD15R,1.600000X1.600000*%
G04 #@! TD*
G04 #@! TA.AperFunction,ComponentPad*
%ADD16C,1.600000*%
G04 #@! TD*
G04 #@! TA.AperFunction,ComponentPad*
%ADD17C,4.000000*%
G04 #@! TD*
G04 #@! TA.AperFunction,ViaPad*
%ADD18C,0.800000*%
G04 #@! TD*
G04 #@! TA.AperFunction,Conductor*
%ADD19C,0.250000*%
G04 #@! TD*
G04 APERTURE END LIST*
D10*
D11*
X172219999Y-89378328D02*
X172219999Y-87878328D01*
X172219999Y-87878328D02*
X171719999Y-88949757D01*
X171719999Y-88949757D02*
X171219999Y-87878328D01*
X171219999Y-87878328D02*
X171219999Y-89378328D01*
X170505713Y-89378328D02*
X170505713Y-88378328D01*
X170505713Y-87878328D02*
X170577141Y-87949757D01*
X170577141Y-87949757D02*
X170505713Y-88021185D01*
X170505713Y-88021185D02*
X170434284Y-87949757D01*
X170434284Y-87949757D02*
X170505713Y-87878328D01*
X170505713Y-87878328D02*
X170505713Y-88021185D01*
X169148570Y-89306900D02*
X169291427Y-89378328D01*
X169291427Y-89378328D02*
X169577141Y-89378328D01*
X169577141Y-89378328D02*
X169719998Y-89306900D01*
X169719998Y-89306900D02*
X169791427Y-89235471D01*
X169791427Y-89235471D02*
X169862855Y-89092614D01*
X169862855Y-89092614D02*
X169862855Y-88664042D01*
X169862855Y-88664042D02*
X169791427Y-88521185D01*
X169791427Y-88521185D02*
X169719998Y-88449757D01*
X169719998Y-88449757D02*
X169577141Y-88378328D01*
X169577141Y-88378328D02*
X169291427Y-88378328D01*
X169291427Y-88378328D02*
X169148570Y-88449757D01*
X168505713Y-89378328D02*
X168505713Y-87878328D01*
X167862856Y-89378328D02*
X167862856Y-88592614D01*
X167862856Y-88592614D02*
X167934284Y-88449757D01*
X167934284Y-88449757D02*
X168077141Y-88378328D01*
X168077141Y-88378328D02*
X168291427Y-88378328D01*
X168291427Y-88378328D02*
X168434284Y-88449757D01*
X168434284Y-88449757D02*
X168505713Y-88521185D01*
X166577141Y-89306900D02*
X166719998Y-89378328D01*
X166719998Y-89378328D02*
X167005713Y-89378328D01*
X167005713Y-89378328D02*
X167148570Y-89306900D01*
X167148570Y-89306900D02*
X167219998Y-89164042D01*
X167219998Y-89164042D02*
X167219998Y-88592614D01*
X167219998Y-88592614D02*
X167148570Y-88449757D01*
X167148570Y-88449757D02*
X167005713Y-88378328D01*
X167005713Y-88378328D02*
X166719998Y-88378328D01*
X166719998Y-88378328D02*
X166577141Y-88449757D01*
X166577141Y-88449757D02*
X166505713Y-88592614D01*
X166505713Y-88592614D02*
X166505713Y-88735471D01*
X166505713Y-88735471D02*
X167219998Y-88878328D01*
X165648570Y-89378328D02*
X165791427Y-89306900D01*
X165791427Y-89306900D02*
X165862856Y-89164042D01*
X165862856Y-89164042D02*
X165862856Y-87878328D01*
X163077142Y-89235471D02*
X163148570Y-89306900D01*
X163148570Y-89306900D02*
X163362856Y-89378328D01*
X163362856Y-89378328D02*
X163505713Y-89378328D01*
X163505713Y-89378328D02*
X163719999Y-89306900D01*
X163719999Y-89306900D02*
X163862856Y-89164042D01*
X163862856Y-89164042D02*
X163934285Y-89021185D01*
X163934285Y-89021185D02*
X164005713Y-88735471D01*
X164005713Y-88735471D02*
X164005713Y-88521185D01*
X164005713Y-88521185D02*
X163934285Y-88235471D01*
X163934285Y-88235471D02*
X163862856Y-88092614D01*
X163862856Y-88092614D02*
X163719999Y-87949757D01*
X163719999Y-87949757D02*
X163505713Y-87878328D01*
X163505713Y-87878328D02*
X163362856Y-87878328D01*
X163362856Y-87878328D02*
X163148570Y-87949757D01*
X163148570Y-87949757D02*
X163077142Y-88021185D01*
X161791428Y-89378328D02*
X161791428Y-88592614D01*
X161791428Y-88592614D02*
X161862856Y-88449757D01*
X161862856Y-88449757D02*
X162005713Y-88378328D01*
X162005713Y-88378328D02*
X162291428Y-88378328D01*
X162291428Y-88378328D02*
X162434285Y-88449757D01*
X161791428Y-89306900D02*
X161934285Y-89378328D01*
X161934285Y-89378328D02*
X162291428Y-89378328D01*
X162291428Y-89378328D02*
X162434285Y-89306900D01*
X162434285Y-89306900D02*
X162505713Y-89164042D01*
X162505713Y-89164042D02*
X162505713Y-89021185D01*
X162505713Y-89021185D02*
X162434285Y-88878328D01*
X162434285Y-88878328D02*
X162291428Y-88806900D01*
X162291428Y-88806900D02*
X161934285Y-88806900D01*
X161934285Y-88806900D02*
X161791428Y-88735471D01*
X161291427Y-88378328D02*
X160719999Y-88378328D01*
X161077142Y-87878328D02*
X161077142Y-89164042D01*
X161077142Y-89164042D02*
X161005713Y-89306900D01*
X161005713Y-89306900D02*
X160862856Y-89378328D01*
X160862856Y-89378328D02*
X160719999Y-89378328D01*
X159577142Y-88378328D02*
X159577142Y-89378328D01*
X160219999Y-88378328D02*
X160219999Y-89164042D01*
X160219999Y-89164042D02*
X160148570Y-89306900D01*
X160148570Y-89306900D02*
X160005713Y-89378328D01*
X160005713Y-89378328D02*
X159791427Y-89378328D01*
X159791427Y-89378328D02*
X159648570Y-89306900D01*
X159648570Y-89306900D02*
X159577142Y-89235471D01*
X158219999Y-89378328D02*
X158219999Y-87878328D01*
X158219999Y-89306900D02*
X158362856Y-89378328D01*
X158362856Y-89378328D02*
X158648570Y-89378328D01*
X158648570Y-89378328D02*
X158791427Y-89306900D01*
X158791427Y-89306900D02*
X158862856Y-89235471D01*
X158862856Y-89235471D02*
X158934284Y-89092614D01*
X158934284Y-89092614D02*
X158934284Y-88664042D01*
X158934284Y-88664042D02*
X158862856Y-88521185D01*
X158862856Y-88521185D02*
X158791427Y-88449757D01*
X158791427Y-88449757D02*
X158648570Y-88378328D01*
X158648570Y-88378328D02*
X158362856Y-88378328D01*
X158362856Y-88378328D02*
X158219999Y-88449757D01*
X156862856Y-89378328D02*
X156862856Y-88592614D01*
X156862856Y-88592614D02*
X156934284Y-88449757D01*
X156934284Y-88449757D02*
X157077141Y-88378328D01*
X157077141Y-88378328D02*
X157362856Y-88378328D01*
X157362856Y-88378328D02*
X157505713Y-88449757D01*
X156862856Y-89306900D02*
X157005713Y-89378328D01*
X157005713Y-89378328D02*
X157362856Y-89378328D01*
X157362856Y-89378328D02*
X157505713Y-89306900D01*
X157505713Y-89306900D02*
X157577141Y-89164042D01*
X157577141Y-89164042D02*
X157577141Y-89021185D01*
X157577141Y-89021185D02*
X157505713Y-88878328D01*
X157505713Y-88878328D02*
X157362856Y-88806900D01*
X157362856Y-88806900D02*
X157005713Y-88806900D01*
X157005713Y-88806900D02*
X156862856Y-88735471D01*
X155934284Y-89378328D02*
X156077141Y-89306900D01*
X156077141Y-89306900D02*
X156148570Y-89164042D01*
X156148570Y-89164042D02*
X156148570Y-87878328D01*
X154291427Y-88021185D02*
X154219999Y-87949757D01*
X154219999Y-87949757D02*
X154077142Y-87878328D01*
X154077142Y-87878328D02*
X153719999Y-87878328D01*
X153719999Y-87878328D02*
X153577142Y-87949757D01*
X153577142Y-87949757D02*
X153505713Y-88021185D01*
X153505713Y-88021185D02*
X153434284Y-88164042D01*
X153434284Y-88164042D02*
X153434284Y-88306900D01*
X153434284Y-88306900D02*
X153505713Y-88521185D01*
X153505713Y-88521185D02*
X154362856Y-89378328D01*
X154362856Y-89378328D02*
X153434284Y-89378328D01*
X152505713Y-87878328D02*
X152362856Y-87878328D01*
X152362856Y-87878328D02*
X152219999Y-87949757D01*
X152219999Y-87949757D02*
X152148571Y-88021185D01*
X152148571Y-88021185D02*
X152077142Y-88164042D01*
X152077142Y-88164042D02*
X152005713Y-88449757D01*
X152005713Y-88449757D02*
X152005713Y-88806900D01*
X152005713Y-88806900D02*
X152077142Y-89092614D01*
X152077142Y-89092614D02*
X152148571Y-89235471D01*
X152148571Y-89235471D02*
X152219999Y-89306900D01*
X152219999Y-89306900D02*
X152362856Y-89378328D01*
X152362856Y-89378328D02*
X152505713Y-89378328D01*
X152505713Y-89378328D02*
X152648571Y-89306900D01*
X152648571Y-89306900D02*
X152719999Y-89235471D01*
X152719999Y-89235471D02*
X152791428Y-89092614D01*
X152791428Y-89092614D02*
X152862856Y-88806900D01*
X152862856Y-88806900D02*
X152862856Y-88449757D01*
X152862856Y-88449757D02*
X152791428Y-88164042D01*
X152791428Y-88164042D02*
X152719999Y-88021185D01*
X152719999Y-88021185D02*
X152648571Y-87949757D01*
X152648571Y-87949757D02*
X152505713Y-87878328D01*
X151434285Y-88021185D02*
X151362857Y-87949757D01*
X151362857Y-87949757D02*
X151220000Y-87878328D01*
X151220000Y-87878328D02*
X150862857Y-87878328D01*
X150862857Y-87878328D02*
X150720000Y-87949757D01*
X150720000Y-87949757D02*
X150648571Y-88021185D01*
X150648571Y-88021185D02*
X150577142Y-88164042D01*
X150577142Y-88164042D02*
X150577142Y-88306900D01*
X150577142Y-88306900D02*
X150648571Y-88521185D01*
X150648571Y-88521185D02*
X151505714Y-89378328D01*
X151505714Y-89378328D02*
X150577142Y-89378328D01*
X149291429Y-88378328D02*
X149291429Y-89378328D01*
X149648571Y-87806900D02*
X150005714Y-88878328D01*
X150005714Y-88878328D02*
X149077143Y-88878328D01*
D12*
X140690000Y-109010000D03*
X140690000Y-104130000D03*
D13*
X186753000Y-111989000D03*
D14*
X186753000Y-109449000D03*
D15*
X132900000Y-126400000D03*
D16*
X132900000Y-123900000D03*
X130900000Y-123900000D03*
X130900000Y-126400000D03*
D17*
X128040000Y-131150000D03*
X128040000Y-119150000D03*
D18*
X171870000Y-106230000D03*
X176790000Y-106240000D03*
X166610000Y-106170000D03*
X146633000Y-108012200D03*
X159640000Y-103719200D03*
X168361100Y-100006800D03*
D19*
X176720000Y-106240000D02*
X176790000Y-106240000D01*
X171870000Y-106230000D02*
X176710000Y-106230000D01*
X171870000Y-106230000D02*
X171870000Y-106270000D01*
X171830000Y-106230000D02*
X171870000Y-106230000D01*
X171770000Y-106170000D02*
X171830000Y-106230000D01*
X166610000Y-106170000D02*
X171770000Y-106170000D01*
X176790000Y-106310000D02*
X176720000Y-106240000D01*
X171870000Y-106270000D02*
X171810000Y-106210000D01*
X176710000Y-106230000D02*
X176720000Y-106240000D01*
X176790000Y-106240000D02*
X176790000Y-106310000D01*
X145635200Y-109010000D02*
X146633000Y-108012200D01*
X140690000Y-109010000D02*
X145635200Y-109010000D01*
X159640000Y-103719200D02*
X163664200Y-103719200D01*
X167376600Y-100006800D02*
X168361100Y-100006800D01*
X163664200Y-103719200D02*
X167376600Y-100006800D01*
G04 #@! TA.AperFunction,Conductor*
G36*
X200396621Y-85955502D02*
G01*
X200443114Y-86009158D01*
X200454500Y-86061500D01*
X200454500Y-121880881D01*
X200454498Y-121881393D01*
X200398549Y-135659014D01*
X200378271Y-135727051D01*
X200324427Y-135773325D01*
X200272551Y-135784500D01*
X120731500Y-135784500D01*
X120663379Y-135764498D01*
X120616886Y-135710842D01*
X120605500Y-135658500D01*
X120605500Y-131149993D01*
X125527041Y-131149993D01*
X125527041Y-131150006D01*
X125546854Y-131464944D01*
X125546856Y-131464961D01*
X125605989Y-131774942D01*
X125605992Y-131774955D01*
X125703509Y-132075079D01*
X125703513Y-132075088D01*
X125837875Y-132360622D01*
X125837882Y-132360636D01*
X126006969Y-132627075D01*
X126006971Y-132627078D01*
X126096042Y-132734746D01*
X127065532Y-131765256D01*
X127162829Y-131899175D01*
X127290825Y-132027171D01*
X127424741Y-132124466D01*
X126452522Y-133096686D01*
X126452522Y-133096688D01*
X126693482Y-133271756D01*
X126970034Y-133423792D01*
X127263460Y-133539968D01*
X127263466Y-133539970D01*
X127569103Y-133618444D01*
X127569130Y-133618449D01*
X127882195Y-133657998D01*
X127882214Y-133658000D01*
X128197786Y-133658000D01*
X128197804Y-133657998D01*
X128510869Y-133618449D01*
X128510896Y-133618444D01*
X128816533Y-133539970D01*
X128816539Y-133539968D01*
X129109965Y-133423792D01*
X129386512Y-133271759D01*
X129627476Y-133096688D01*
X129627476Y-133096686D01*
X128655257Y-132124466D01*
X128789175Y-132027171D01*
X128917171Y-131899175D01*
X129014467Y-131765257D01*
X129983956Y-132734746D01*
X130073030Y-132627075D01*
X130073033Y-132627071D01*
X130242117Y-132360636D01*
X130242124Y-132360622D01*
X130376486Y-132075088D01*
X130376490Y-132075079D01*
X130474007Y-131774955D01*
X130474010Y-131774942D01*
X130533143Y-131464961D01*
X130533145Y-131464944D01*
X130552959Y-131150006D01*
X130552959Y-131149993D01*
X130533145Y-130835055D01*
X130533143Y-130835038D01*
X130474010Y-130525057D01*
X130474007Y-130525044D01*
X130376490Y-130224920D01*
X130376486Y-130224911D01*
X130242124Y-129939377D01*
X130242117Y-129939363D01*
X130073030Y-129672924D01*
X130073028Y-129672921D01*
X129983956Y-129565252D01*
X129014466Y-130534741D01*
X128917171Y-130400825D01*
X128789175Y-130272829D01*
X128655256Y-130175532D01*
X129627476Y-129203312D01*
X129627476Y-129203310D01*
X129386513Y-129028240D01*
X129109965Y-128876207D01*
X128816539Y-128760031D01*
X128816533Y-128760029D01*
X128510896Y-128681555D01*
X128510869Y-128681550D01*
X128197804Y-128642001D01*
X128197786Y-128642000D01*
X127882214Y-128642000D01*
X127882195Y-128642001D01*
X127569130Y-128681550D01*
X127569103Y-128681555D01*
X127263466Y-128760029D01*
X127263460Y-128760031D01*
X126970034Y-128876207D01*
X126693486Y-129028240D01*
X126452522Y-129203310D01*
X126452522Y-129203312D01*
X127424742Y-130175532D01*
X127290825Y-130272829D01*
X127162829Y-130400825D01*
X127065532Y-130534742D01*
X126096042Y-129565252D01*
X126006972Y-129672921D01*
X126006969Y-129672924D01*
X125837882Y-129939363D01*
X125837875Y-129939377D01*
X125703513Y-130224911D01*
X125703509Y-130224920D01*
X125605992Y-130525044D01*
X125605989Y-130525057D01*
X125546856Y-130835038D01*
X125546854Y-130835055D01*
X125527041Y-131149993D01*
X120605500Y-131149993D01*
X120605500Y-123900000D01*
X129586502Y-123900000D01*
X129606457Y-124128087D01*
X129665716Y-124349243D01*
X129762477Y-124556749D01*
X129893802Y-124744300D01*
X130055700Y-124906198D01*
X130055703Y-124906200D01*
X130243253Y-125037525D01*
X130248015Y-125040274D01*
X130246971Y-125042082D01*
X130293439Y-125082990D01*
X130312905Y-125151265D01*
X130292369Y-125219227D01*
X130247223Y-125258354D01*
X130248267Y-125260161D01*
X130243501Y-125262912D01*
X130172109Y-125312899D01*
X130795464Y-125936253D01*
X130716657Y-125957370D01*
X130608343Y-126019905D01*
X130519905Y-126108343D01*
X130457370Y-126216657D01*
X130436254Y-126295463D01*
X129812900Y-125672109D01*
X129762913Y-125743500D01*
X129666188Y-125950926D01*
X129666186Y-125950931D01*
X129606951Y-126171997D01*
X129587004Y-126400000D01*
X129606951Y-126628002D01*
X129666186Y-126849068D01*
X129666188Y-126849073D01*
X129762913Y-127056501D01*
X129812899Y-127127888D01*
X130436253Y-126504534D01*
X130457370Y-126583343D01*
X130519905Y-126691657D01*
X130608343Y-126780095D01*
X130716657Y-126842630D01*
X130795462Y-126863745D01*
X130172110Y-127487097D01*
X130172110Y-127487100D01*
X130243498Y-127537086D01*
X130450926Y-127633811D01*
X130450931Y-127633813D01*
X130671999Y-127693048D01*
X130671995Y-127693048D01*
X130900000Y-127712995D01*
X131128002Y-127693048D01*
X131349068Y-127633813D01*
X131349073Y-127633811D01*
X131556495Y-127537089D01*
X131561902Y-127533303D01*
X131629174Y-127510610D01*
X131698036Y-127527891D01*
X131735050Y-127561005D01*
X131736738Y-127563261D01*
X131853792Y-127650887D01*
X131853794Y-127650888D01*
X131853796Y-127650889D01*
X131912875Y-127672924D01*
X131990795Y-127701988D01*
X131990803Y-127701990D01*
X132051350Y-127708499D01*
X132051355Y-127708499D01*
X132051362Y-127708500D01*
X132051368Y-127708500D01*
X133748632Y-127708500D01*
X133748638Y-127708500D01*
X133748645Y-127708499D01*
X133748649Y-127708499D01*
X133809196Y-127701990D01*
X133809199Y-127701989D01*
X133809201Y-127701989D01*
X133946204Y-127650889D01*
X133969018Y-127633811D01*
X134063261Y-127563261D01*
X134150887Y-127446207D01*
X134150887Y-127446206D01*
X134150889Y-127446204D01*
X134201989Y-127309201D01*
X134208500Y-127248638D01*
X134208500Y-125551362D01*
X134208499Y-125551350D01*
X134201990Y-125490803D01*
X134201988Y-125490795D01*
X134150889Y-125353797D01*
X134150887Y-125353792D01*
X134063261Y-125236738D01*
X133946207Y-125149112D01*
X133946202Y-125149110D01*
X133805922Y-125096787D01*
X133749086Y-125054240D01*
X133724276Y-124987720D01*
X133739368Y-124918346D01*
X133760854Y-124889643D01*
X133906198Y-124744300D01*
X134037523Y-124556749D01*
X134134284Y-124349243D01*
X134193543Y-124128087D01*
X134213498Y-123900000D01*
X134193543Y-123671913D01*
X134134284Y-123450757D01*
X134037523Y-123243251D01*
X133906198Y-123055700D01*
X133744300Y-122893802D01*
X133556749Y-122762477D01*
X133349246Y-122665717D01*
X133349240Y-122665715D01*
X133255771Y-122640670D01*
X133128087Y-122606457D01*
X132900000Y-122586502D01*
X132671913Y-122606457D01*
X132450759Y-122665715D01*
X132450753Y-122665717D01*
X132243250Y-122762477D01*
X132055703Y-122893799D01*
X132055697Y-122893804D01*
X131989095Y-122960407D01*
X131926783Y-122994433D01*
X131855968Y-122989368D01*
X131810905Y-122960407D01*
X131744302Y-122893804D01*
X131744296Y-122893799D01*
X131556749Y-122762477D01*
X131349246Y-122665717D01*
X131349240Y-122665715D01*
X131255771Y-122640670D01*
X131128087Y-122606457D01*
X130900000Y-122586502D01*
X130671913Y-122606457D01*
X130450759Y-122665715D01*
X130450753Y-122665717D01*
X130243250Y-122762477D01*
X130055703Y-122893799D01*
X130055697Y-122893804D01*
X129893804Y-123055697D01*
X129893799Y-123055703D01*
X129762477Y-123243250D01*
X129665717Y-123450753D01*
X129665716Y-123450757D01*
X129606457Y-123671913D01*
X129586502Y-123900000D01*
X120605500Y-123900000D01*
X120605500Y-119149993D01*
X125527041Y-119149993D01*
X125527041Y-119150006D01*
X125546854Y-119464944D01*
X125546856Y-119464961D01*
X125605989Y-119774942D01*
X125605992Y-119774955D01*
X125703509Y-120075079D01*
X125703513Y-120075088D01*
X125837875Y-120360622D01*
X125837882Y-120360636D01*
X126006969Y-120627075D01*
X126006971Y-120627078D01*
X126096042Y-120734746D01*
X127065532Y-119765256D01*
X127162829Y-119899175D01*
X127290825Y-120027171D01*
X127424741Y-120124466D01*
X126452522Y-121096686D01*
X126452522Y-121096688D01*
X126693482Y-121271756D01*
X126970034Y-121423792D01*
X127263460Y-121539968D01*
X127263466Y-121539970D01*
X127569103Y-121618444D01*
X127569130Y-121618449D01*
X127882195Y-121657998D01*
X127882214Y-121658000D01*
X128197786Y-121658000D01*
X128197804Y-121657998D01*
X128510869Y-121618449D01*
X128510896Y-121618444D01*
X128816533Y-121539970D01*
X128816539Y-121539968D01*
X129109965Y-121423792D01*
X129386512Y-121271759D01*
X129627476Y-121096688D01*
X129627476Y-121096686D01*
X128655257Y-120124466D01*
X128789175Y-120027171D01*
X128917171Y-119899175D01*
X129014467Y-119765257D01*
X129983956Y-120734746D01*
X130073030Y-120627075D01*
X130073033Y-120627071D01*
X130242117Y-120360636D01*
X130242124Y-120360622D01*
X130376486Y-120075088D01*
X130376490Y-120075079D01*
X130474007Y-119774955D01*
X130474010Y-119774942D01*
X130533143Y-119464961D01*
X130533145Y-119464944D01*
X130552959Y-119150006D01*
X130552959Y-119149993D01*
X130533145Y-118835055D01*
X130533143Y-118835038D01*
X130474010Y-118525057D01*
X130474007Y-118525044D01*
X130376490Y-118224920D01*
X130376486Y-118224911D01*
X130242124Y-117939377D01*
X130242117Y-117939363D01*
X130073030Y-117672924D01*
X130073028Y-117672921D01*
X129983956Y-117565252D01*
X129014466Y-118534741D01*
X128917171Y-118400825D01*
X128789175Y-118272829D01*
X128655256Y-118175532D01*
X129627476Y-117203312D01*
X129627476Y-117203310D01*
X129386513Y-117028240D01*
X129109965Y-116876207D01*
X128816539Y-116760031D01*
X128816533Y-116760029D01*
X128510896Y-116681555D01*
X128510869Y-116681550D01*
X128197804Y-116642001D01*
X128197786Y-116642000D01*
X127882214Y-116642000D01*
X127882195Y-116642001D01*
X127569130Y-116681550D01*
X127569103Y-116681555D01*
X127263466Y-116760029D01*
X127263460Y-116760031D01*
X126970034Y-116876207D01*
X126693486Y-117028240D01*
X126452522Y-117203310D01*
X126452522Y-117203312D01*
X127424742Y-118175532D01*
X127290825Y-118272829D01*
X127162829Y-118400825D01*
X127065532Y-118534742D01*
X126096042Y-117565252D01*
X126006972Y-117672921D01*
X126006969Y-117672924D01*
X125837882Y-117939363D01*
X125837875Y-117939377D01*
X125703513Y-118224911D01*
X125703509Y-118224920D01*
X125605992Y-118525044D01*
X125605989Y-118525057D01*
X125546856Y-118835038D01*
X125546854Y-118835055D01*
X125527041Y-119149993D01*
X120605500Y-119149993D01*
X120605500Y-109010000D01*
X139426693Y-109010000D01*
X139445885Y-109229370D01*
X139502879Y-109442073D01*
X139502881Y-109442079D01*
X139595942Y-109641650D01*
X139595944Y-109641654D01*
X139722245Y-109822029D01*
X139722251Y-109822038D01*
X139722254Y-109822042D01*
X139877957Y-109977745D01*
X139877961Y-109977748D01*
X139877962Y-109977749D01*
X140058346Y-110104056D01*
X140257924Y-110197120D01*
X140470629Y-110254115D01*
X140690000Y-110273307D01*
X140909371Y-110254115D01*
X141122076Y-110197120D01*
X141321654Y-110104056D01*
X141502038Y-109977749D01*
X141657749Y-109822038D01*
X141745141Y-109697230D01*
X141800598Y-109652901D01*
X141848354Y-109643500D01*
X145697593Y-109643500D01*
X145697594Y-109643500D01*
X145819985Y-109619155D01*
X145935275Y-109571400D01*
X146039033Y-109502071D01*
X146092104Y-109449000D01*
X185389844Y-109449000D01*
X185399986Y-109571398D01*
X185408437Y-109673375D01*
X185463702Y-109891612D01*
X185463703Y-109891613D01*
X185463704Y-109891616D01*
X185501485Y-109977748D01*
X185554141Y-110097793D01*
X185677275Y-110286265D01*
X185677280Y-110286270D01*
X185820475Y-110441820D01*
X185851896Y-110505485D01*
X185843909Y-110576031D01*
X185799051Y-110631060D01*
X185771807Y-110645213D01*
X185656797Y-110688110D01*
X185656792Y-110688112D01*
X185539738Y-110775738D01*
X185452112Y-110892792D01*
X185452110Y-110892797D01*
X185401011Y-111029795D01*
X185401009Y-111029803D01*
X185394500Y-111090350D01*
X185394500Y-112887649D01*
X185401009Y-112948196D01*
X185401011Y-112948204D01*
X185452110Y-113085202D01*
X185452112Y-113085207D01*
X185539738Y-113202261D01*
X185656792Y-113289887D01*
X185656794Y-113289888D01*
X185656796Y-113289889D01*
X185715875Y-113311924D01*
X185793795Y-113340988D01*
X185793803Y-113340990D01*
X185854350Y-113347499D01*
X185854355Y-113347499D01*
X185854362Y-113347500D01*
X185854368Y-113347500D01*
X187651632Y-113347500D01*
X187651638Y-113347500D01*
X187651645Y-113347499D01*
X187651649Y-113347499D01*
X187712196Y-113340990D01*
X187712199Y-113340989D01*
X187712201Y-113340989D01*
X187849204Y-113289889D01*
X187966261Y-113202261D01*
X188053889Y-113085204D01*
X188104989Y-112948201D01*
X188111500Y-112887638D01*
X188111500Y-111090362D01*
X188111499Y-111090350D01*
X188104990Y-111029803D01*
X188104988Y-111029795D01*
X188053889Y-110892797D01*
X188053887Y-110892792D01*
X187966261Y-110775738D01*
X187849207Y-110688112D01*
X187849203Y-110688110D01*
X187734192Y-110645213D01*
X187677356Y-110602667D01*
X187652546Y-110536146D01*
X187667638Y-110466772D01*
X187685525Y-110441820D01*
X187828714Y-110286277D01*
X187828724Y-110286265D01*
X187837190Y-110273306D01*
X187951860Y-110097791D01*
X188042296Y-109891616D01*
X188097564Y-109673368D01*
X188116156Y-109449000D01*
X188097564Y-109224632D01*
X188042296Y-109006384D01*
X187951860Y-108800209D01*
X187945140Y-108789924D01*
X187828724Y-108611734D01*
X187828720Y-108611729D01*
X187676237Y-108446091D01*
X187561128Y-108356498D01*
X187498576Y-108307811D01*
X187300574Y-108200658D01*
X187300572Y-108200657D01*
X187300571Y-108200656D01*
X187087639Y-108127557D01*
X187087630Y-108127555D01*
X187043476Y-108120187D01*
X186865569Y-108090500D01*
X186640431Y-108090500D01*
X186492211Y-108115233D01*
X186418369Y-108127555D01*
X186418360Y-108127557D01*
X186205428Y-108200656D01*
X186205426Y-108200658D01*
X186007426Y-108307810D01*
X186007424Y-108307811D01*
X185829762Y-108446091D01*
X185677279Y-108611729D01*
X185677275Y-108611734D01*
X185554141Y-108800206D01*
X185463703Y-109006386D01*
X185463702Y-109006387D01*
X185408437Y-109224624D01*
X185408436Y-109224630D01*
X185408436Y-109224632D01*
X185389844Y-109449000D01*
X146092104Y-109449000D01*
X146583499Y-108957605D01*
X146645811Y-108923579D01*
X146672594Y-108920700D01*
X146728487Y-108920700D01*
X146915288Y-108880994D01*
X147089752Y-108803318D01*
X147244253Y-108691066D01*
X147315686Y-108611732D01*
X147372034Y-108549151D01*
X147372035Y-108549149D01*
X147372040Y-108549144D01*
X147467527Y-108383756D01*
X147526542Y-108202128D01*
X147546504Y-108012200D01*
X147526542Y-107822272D01*
X147467527Y-107640644D01*
X147372040Y-107475256D01*
X147372038Y-107475254D01*
X147372034Y-107475248D01*
X147244255Y-107333335D01*
X147089752Y-107221082D01*
X146915288Y-107143406D01*
X146728487Y-107103700D01*
X146537513Y-107103700D01*
X146350711Y-107143406D01*
X146176247Y-107221082D01*
X146021744Y-107333335D01*
X145893965Y-107475248D01*
X145893958Y-107475258D01*
X145798476Y-107640638D01*
X145798473Y-107640645D01*
X145739457Y-107822272D01*
X145722092Y-107987492D01*
X145695079Y-108053149D01*
X145685878Y-108063416D01*
X145409701Y-108339595D01*
X145347389Y-108373620D01*
X145320605Y-108376500D01*
X141848354Y-108376500D01*
X141780233Y-108356498D01*
X141745141Y-108322770D01*
X141657755Y-108197970D01*
X141657751Y-108197965D01*
X141657749Y-108197962D01*
X141502038Y-108042251D01*
X141321654Y-107915944D01*
X141321650Y-107915942D01*
X141122079Y-107822881D01*
X141122073Y-107822879D01*
X141032178Y-107798791D01*
X140909371Y-107765885D01*
X140690000Y-107746693D01*
X140470629Y-107765885D01*
X140257926Y-107822879D01*
X140257920Y-107822881D01*
X140058346Y-107915944D01*
X139877965Y-108042248D01*
X139877959Y-108042253D01*
X139722253Y-108197959D01*
X139722248Y-108197965D01*
X139595944Y-108378346D01*
X139502881Y-108577920D01*
X139502879Y-108577926D01*
X139445885Y-108790629D01*
X139426693Y-109010000D01*
X120605500Y-109010000D01*
X120605500Y-104130000D01*
X139426693Y-104130000D01*
X139445885Y-104349371D01*
X139458933Y-104398066D01*
X139502879Y-104562073D01*
X139502881Y-104562079D01*
X139595942Y-104761650D01*
X139595944Y-104761654D01*
X139722251Y-104942038D01*
X139722254Y-104942042D01*
X139877957Y-105097745D01*
X139877961Y-105097748D01*
X139877962Y-105097749D01*
X140058346Y-105224056D01*
X140257924Y-105317120D01*
X140470629Y-105374115D01*
X140690000Y-105393307D01*
X140909371Y-105374115D01*
X141122076Y-105317120D01*
X141321654Y-105224056D01*
X141502038Y-105097749D01*
X141657749Y-104942038D01*
X141784056Y-104761654D01*
X141877120Y-104562076D01*
X141934115Y-104349371D01*
X141953307Y-104130000D01*
X141934115Y-103910629D01*
X141882821Y-103719200D01*
X158726496Y-103719200D01*
X158746457Y-103909127D01*
X158776526Y-104001670D01*
X158805473Y-104090756D01*
X158805476Y-104090761D01*
X158900958Y-104256141D01*
X158900965Y-104256151D01*
X159028744Y-104398064D01*
X159028747Y-104398066D01*
X159183248Y-104510318D01*
X159357712Y-104587994D01*
X159544513Y-104627700D01*
X159735487Y-104627700D01*
X159922288Y-104587994D01*
X160096752Y-104510318D01*
X160251253Y-104398066D01*
X160254563Y-104394390D01*
X160315009Y-104357150D01*
X160348200Y-104352700D01*
X163726593Y-104352700D01*
X163726594Y-104352700D01*
X163848985Y-104328355D01*
X163964275Y-104280600D01*
X164068033Y-104211271D01*
X167583279Y-100696024D01*
X167645589Y-100662000D01*
X167716404Y-100667065D01*
X167746433Y-100683185D01*
X167749845Y-100685664D01*
X167749847Y-100685666D01*
X167904348Y-100797918D01*
X168078812Y-100875594D01*
X168265613Y-100915300D01*
X168456587Y-100915300D01*
X168643388Y-100875594D01*
X168817852Y-100797918D01*
X168972353Y-100685666D01*
X168974587Y-100683185D01*
X169100134Y-100543751D01*
X169100135Y-100543749D01*
X169100140Y-100543744D01*
X169195627Y-100378356D01*
X169254642Y-100196728D01*
X169274604Y-100006800D01*
X169254642Y-99816872D01*
X169195627Y-99635244D01*
X169100140Y-99469856D01*
X169100138Y-99469854D01*
X169100134Y-99469848D01*
X168972355Y-99327935D01*
X168817852Y-99215682D01*
X168643388Y-99138006D01*
X168456587Y-99098300D01*
X168265613Y-99098300D01*
X168078811Y-99138006D01*
X167904347Y-99215682D01*
X167749847Y-99327933D01*
X167746537Y-99331610D01*
X167686091Y-99368850D01*
X167652900Y-99373300D01*
X167314203Y-99373300D01*
X167241168Y-99387828D01*
X167191815Y-99397645D01*
X167191813Y-99397645D01*
X167191812Y-99397646D01*
X167076523Y-99445401D01*
X166972771Y-99514726D01*
X166972764Y-99514731D01*
X163438701Y-103048795D01*
X163376389Y-103082821D01*
X163349606Y-103085700D01*
X160348200Y-103085700D01*
X160280079Y-103065698D01*
X160254563Y-103044010D01*
X160251252Y-103040333D01*
X160096752Y-102928082D01*
X159922288Y-102850406D01*
X159735487Y-102810700D01*
X159544513Y-102810700D01*
X159357711Y-102850406D01*
X159183247Y-102928082D01*
X159028744Y-103040335D01*
X158900965Y-103182248D01*
X158900958Y-103182258D01*
X158805476Y-103347638D01*
X158805473Y-103347645D01*
X158746457Y-103529272D01*
X158726496Y-103719200D01*
X141882821Y-103719200D01*
X141877120Y-103697924D01*
X141784056Y-103498347D01*
X141657749Y-103317962D01*
X141502038Y-103162251D01*
X141321654Y-103035944D01*
X141321650Y-103035942D01*
X141122079Y-102942881D01*
X141122073Y-102942879D01*
X141032178Y-102918791D01*
X140909371Y-102885885D01*
X140690000Y-102866693D01*
X140470629Y-102885885D01*
X140257926Y-102942879D01*
X140257920Y-102942881D01*
X140058346Y-103035944D01*
X139877965Y-103162248D01*
X139877959Y-103162253D01*
X139722253Y-103317959D01*
X139722248Y-103317965D01*
X139595944Y-103498346D01*
X139502881Y-103697920D01*
X139502880Y-103697924D01*
X139445885Y-103910629D01*
X139426693Y-104130000D01*
X120605500Y-104130000D01*
X120605500Y-90043553D01*
X148413643Y-90043553D01*
X172884660Y-90043553D01*
X172884660Y-87141675D01*
X148413643Y-87141675D01*
X148413643Y-90043553D01*
X120605500Y-90043553D01*
X120605500Y-86061500D01*
X120625502Y-85993379D01*
X120679158Y-85946886D01*
X120731500Y-85935500D01*
X200328500Y-85935500D01*
X200396621Y-85955502D01*
G37*
G04 #@! TD.AperFunction*
M02*
