%TF.GenerationSoftware,KiCad,Pcbnew,8.0.6*%
%TF.CreationDate,2025-01-13T18:54:40-05:00*%
%TF.ProjectId,usb2J1708_rev4,75736232-4a31-4373-9038-5f726576342e,rev?*%
%TF.SameCoordinates,Original*%
%TF.FileFunction,Drillmap*%
%TF.FilePolarity,Positive*%
%FSLAX45Y45*%
G04 Gerber Fmt 4.5, Leading zero omitted, Abs format (unit mm)*
G04 Created by KiCad (PCBNEW 8.0.6) date 2025-01-13 18:54:40*
%MOMM*%
%LPD*%
G01*
G04 APERTURE LIST*
%ADD10C,0.150000*%
%ADD11C,0.200000*%
%ADD12C,0.100000*%
%ADD13C,0.230000*%
G04 APERTURE END LIST*
D10*
X12053000Y-13586000D02*
X12053000Y-8586000D01*
X12053000Y-8586000D02*
X20053000Y-8586000D01*
X20053000Y-8586000D02*
X20053000Y-13586000D01*
X20053000Y-13586000D02*
X12053000Y-13586000D01*
D11*
D12*
X14643300Y-10781220D02*
X14683300Y-10821220D01*
X14683300Y-10781220D02*
X14643300Y-10821220D01*
X15944000Y-10351920D02*
X15984000Y-10391920D01*
X15984000Y-10351920D02*
X15944000Y-10391920D01*
X16641000Y-10597000D02*
X16681000Y-10637000D01*
X16681000Y-10597000D02*
X16641000Y-10637000D01*
X16816110Y-9980680D02*
X16856110Y-10020680D01*
X16856110Y-9980680D02*
X16816110Y-10020680D01*
X17167000Y-10603000D02*
X17207000Y-10643000D01*
X17207000Y-10603000D02*
X17167000Y-10643000D01*
X17659000Y-10604000D02*
X17699000Y-10644000D01*
X17699000Y-10604000D02*
X17659000Y-10644000D01*
X14109000Y-10413000D02*
G75*
G02*
X14029000Y-10413000I-40000J0D01*
G01*
X14029000Y-10413000D02*
G75*
G02*
X14109000Y-10413000I40000J0D01*
G01*
X14109000Y-10901000D02*
G75*
G02*
X14029000Y-10901000I-40000J0D01*
G01*
X14029000Y-10901000D02*
G75*
G02*
X14109000Y-10901000I40000J0D01*
G01*
X13090000Y-12342500D02*
X13090000Y-12437500D01*
X13042500Y-12390000D02*
X13137500Y-12390000D01*
X13090000Y-12592500D02*
X13090000Y-12687500D01*
X13042500Y-12640000D02*
X13137500Y-12640000D01*
X13290000Y-12342500D02*
X13290000Y-12437500D01*
X13242500Y-12390000D02*
X13337500Y-12390000D01*
X13290000Y-12592500D02*
X13290000Y-12687500D01*
X13242500Y-12640000D02*
X13337500Y-12640000D01*
X18710656Y-10980256D02*
X18710656Y-10909544D01*
X18639944Y-10909544D01*
X18639944Y-10980256D01*
X18710656Y-10980256D01*
X18710656Y-11234256D02*
X18710656Y-11163544D01*
X18639944Y-11163544D01*
X18639944Y-11234256D01*
X18710656Y-11234256D01*
D13*
X12804000Y-12030000D02*
X12919000Y-11915000D01*
X12804000Y-11800000D01*
X12689000Y-11915000D01*
X12804000Y-12030000D01*
X12804000Y-13230000D02*
X12919000Y-13115000D01*
X12804000Y-13000000D01*
X12689000Y-13115000D01*
X12804000Y-13230000D01*
D11*
X12306277Y-13904984D02*
X12306277Y-13704984D01*
X12306277Y-13704984D02*
X12353896Y-13704984D01*
X12353896Y-13704984D02*
X12382467Y-13714508D01*
X12382467Y-13714508D02*
X12401515Y-13733555D01*
X12401515Y-13733555D02*
X12411039Y-13752603D01*
X12411039Y-13752603D02*
X12420562Y-13790698D01*
X12420562Y-13790698D02*
X12420562Y-13819269D01*
X12420562Y-13819269D02*
X12411039Y-13857365D01*
X12411039Y-13857365D02*
X12401515Y-13876412D01*
X12401515Y-13876412D02*
X12382467Y-13895460D01*
X12382467Y-13895460D02*
X12353896Y-13904984D01*
X12353896Y-13904984D02*
X12306277Y-13904984D01*
X12506277Y-13904984D02*
X12506277Y-13771650D01*
X12506277Y-13809746D02*
X12515801Y-13790698D01*
X12515801Y-13790698D02*
X12525324Y-13781174D01*
X12525324Y-13781174D02*
X12544372Y-13771650D01*
X12544372Y-13771650D02*
X12563420Y-13771650D01*
X12630086Y-13904984D02*
X12630086Y-13771650D01*
X12630086Y-13704984D02*
X12620562Y-13714508D01*
X12620562Y-13714508D02*
X12630086Y-13724031D01*
X12630086Y-13724031D02*
X12639610Y-13714508D01*
X12639610Y-13714508D02*
X12630086Y-13704984D01*
X12630086Y-13704984D02*
X12630086Y-13724031D01*
X12753896Y-13904984D02*
X12734848Y-13895460D01*
X12734848Y-13895460D02*
X12725324Y-13876412D01*
X12725324Y-13876412D02*
X12725324Y-13704984D01*
X12858658Y-13904984D02*
X12839610Y-13895460D01*
X12839610Y-13895460D02*
X12830086Y-13876412D01*
X12830086Y-13876412D02*
X12830086Y-13704984D01*
X13087229Y-13904984D02*
X13087229Y-13704984D01*
X13087229Y-13704984D02*
X13153896Y-13847841D01*
X13153896Y-13847841D02*
X13220562Y-13704984D01*
X13220562Y-13704984D02*
X13220562Y-13904984D01*
X13401515Y-13904984D02*
X13401515Y-13800222D01*
X13401515Y-13800222D02*
X13391991Y-13781174D01*
X13391991Y-13781174D02*
X13372943Y-13771650D01*
X13372943Y-13771650D02*
X13334848Y-13771650D01*
X13334848Y-13771650D02*
X13315801Y-13781174D01*
X13401515Y-13895460D02*
X13382467Y-13904984D01*
X13382467Y-13904984D02*
X13334848Y-13904984D01*
X13334848Y-13904984D02*
X13315801Y-13895460D01*
X13315801Y-13895460D02*
X13306277Y-13876412D01*
X13306277Y-13876412D02*
X13306277Y-13857365D01*
X13306277Y-13857365D02*
X13315801Y-13838317D01*
X13315801Y-13838317D02*
X13334848Y-13828793D01*
X13334848Y-13828793D02*
X13382467Y-13828793D01*
X13382467Y-13828793D02*
X13401515Y-13819269D01*
X13496753Y-13771650D02*
X13496753Y-13971650D01*
X13496753Y-13781174D02*
X13515801Y-13771650D01*
X13515801Y-13771650D02*
X13553896Y-13771650D01*
X13553896Y-13771650D02*
X13572943Y-13781174D01*
X13572943Y-13781174D02*
X13582467Y-13790698D01*
X13582467Y-13790698D02*
X13591991Y-13809746D01*
X13591991Y-13809746D02*
X13591991Y-13866888D01*
X13591991Y-13866888D02*
X13582467Y-13885936D01*
X13582467Y-13885936D02*
X13572943Y-13895460D01*
X13572943Y-13895460D02*
X13553896Y-13904984D01*
X13553896Y-13904984D02*
X13515801Y-13904984D01*
X13515801Y-13904984D02*
X13496753Y-13895460D01*
X13677705Y-13885936D02*
X13687229Y-13895460D01*
X13687229Y-13895460D02*
X13677705Y-13904984D01*
X13677705Y-13904984D02*
X13668182Y-13895460D01*
X13668182Y-13895460D02*
X13677705Y-13885936D01*
X13677705Y-13885936D02*
X13677705Y-13904984D01*
X13677705Y-13781174D02*
X13687229Y-13790698D01*
X13687229Y-13790698D02*
X13677705Y-13800222D01*
X13677705Y-13800222D02*
X13668182Y-13790698D01*
X13668182Y-13790698D02*
X13677705Y-13781174D01*
X13677705Y-13781174D02*
X13677705Y-13800222D01*
D12*
X12005500Y-14213500D02*
X12045500Y-14253500D01*
X12045500Y-14213500D02*
X12005500Y-14253500D01*
D11*
X12344372Y-14124984D02*
X12363420Y-14124984D01*
X12363420Y-14124984D02*
X12382467Y-14134508D01*
X12382467Y-14134508D02*
X12391991Y-14144031D01*
X12391991Y-14144031D02*
X12401515Y-14163079D01*
X12401515Y-14163079D02*
X12411039Y-14201174D01*
X12411039Y-14201174D02*
X12411039Y-14248793D01*
X12411039Y-14248793D02*
X12401515Y-14286888D01*
X12401515Y-14286888D02*
X12391991Y-14305936D01*
X12391991Y-14305936D02*
X12382467Y-14315460D01*
X12382467Y-14315460D02*
X12363420Y-14324984D01*
X12363420Y-14324984D02*
X12344372Y-14324984D01*
X12344372Y-14324984D02*
X12325324Y-14315460D01*
X12325324Y-14315460D02*
X12315801Y-14305936D01*
X12315801Y-14305936D02*
X12306277Y-14286888D01*
X12306277Y-14286888D02*
X12296753Y-14248793D01*
X12296753Y-14248793D02*
X12296753Y-14201174D01*
X12296753Y-14201174D02*
X12306277Y-14163079D01*
X12306277Y-14163079D02*
X12315801Y-14144031D01*
X12315801Y-14144031D02*
X12325324Y-14134508D01*
X12325324Y-14134508D02*
X12344372Y-14124984D01*
X12496753Y-14305936D02*
X12506277Y-14315460D01*
X12506277Y-14315460D02*
X12496753Y-14324984D01*
X12496753Y-14324984D02*
X12487229Y-14315460D01*
X12487229Y-14315460D02*
X12496753Y-14305936D01*
X12496753Y-14305936D02*
X12496753Y-14324984D01*
X12677705Y-14191650D02*
X12677705Y-14324984D01*
X12630086Y-14115460D02*
X12582467Y-14258317D01*
X12582467Y-14258317D02*
X12706277Y-14258317D01*
X12820562Y-14124984D02*
X12839610Y-14124984D01*
X12839610Y-14124984D02*
X12858658Y-14134508D01*
X12858658Y-14134508D02*
X12868182Y-14144031D01*
X12868182Y-14144031D02*
X12877705Y-14163079D01*
X12877705Y-14163079D02*
X12887229Y-14201174D01*
X12887229Y-14201174D02*
X12887229Y-14248793D01*
X12887229Y-14248793D02*
X12877705Y-14286888D01*
X12877705Y-14286888D02*
X12868182Y-14305936D01*
X12868182Y-14305936D02*
X12858658Y-14315460D01*
X12858658Y-14315460D02*
X12839610Y-14324984D01*
X12839610Y-14324984D02*
X12820562Y-14324984D01*
X12820562Y-14324984D02*
X12801515Y-14315460D01*
X12801515Y-14315460D02*
X12791991Y-14305936D01*
X12791991Y-14305936D02*
X12782467Y-14286888D01*
X12782467Y-14286888D02*
X12772943Y-14248793D01*
X12772943Y-14248793D02*
X12772943Y-14201174D01*
X12772943Y-14201174D02*
X12782467Y-14163079D01*
X12782467Y-14163079D02*
X12791991Y-14144031D01*
X12791991Y-14144031D02*
X12801515Y-14134508D01*
X12801515Y-14134508D02*
X12820562Y-14124984D01*
X13011039Y-14124984D02*
X13030086Y-14124984D01*
X13030086Y-14124984D02*
X13049134Y-14134508D01*
X13049134Y-14134508D02*
X13058658Y-14144031D01*
X13058658Y-14144031D02*
X13068182Y-14163079D01*
X13068182Y-14163079D02*
X13077705Y-14201174D01*
X13077705Y-14201174D02*
X13077705Y-14248793D01*
X13077705Y-14248793D02*
X13068182Y-14286888D01*
X13068182Y-14286888D02*
X13058658Y-14305936D01*
X13058658Y-14305936D02*
X13049134Y-14315460D01*
X13049134Y-14315460D02*
X13030086Y-14324984D01*
X13030086Y-14324984D02*
X13011039Y-14324984D01*
X13011039Y-14324984D02*
X12991991Y-14315460D01*
X12991991Y-14315460D02*
X12982467Y-14305936D01*
X12982467Y-14305936D02*
X12972943Y-14286888D01*
X12972943Y-14286888D02*
X12963420Y-14248793D01*
X12963420Y-14248793D02*
X12963420Y-14201174D01*
X12963420Y-14201174D02*
X12972943Y-14163079D01*
X12972943Y-14163079D02*
X12982467Y-14144031D01*
X12982467Y-14144031D02*
X12991991Y-14134508D01*
X12991991Y-14134508D02*
X13011039Y-14124984D01*
X13163420Y-14324984D02*
X13163420Y-14191650D01*
X13163420Y-14210698D02*
X13172943Y-14201174D01*
X13172943Y-14201174D02*
X13191991Y-14191650D01*
X13191991Y-14191650D02*
X13220563Y-14191650D01*
X13220563Y-14191650D02*
X13239610Y-14201174D01*
X13239610Y-14201174D02*
X13249134Y-14220222D01*
X13249134Y-14220222D02*
X13249134Y-14324984D01*
X13249134Y-14220222D02*
X13258658Y-14201174D01*
X13258658Y-14201174D02*
X13277705Y-14191650D01*
X13277705Y-14191650D02*
X13306277Y-14191650D01*
X13306277Y-14191650D02*
X13325324Y-14201174D01*
X13325324Y-14201174D02*
X13334848Y-14220222D01*
X13334848Y-14220222D02*
X13334848Y-14324984D01*
X13430086Y-14324984D02*
X13430086Y-14191650D01*
X13430086Y-14210698D02*
X13439610Y-14201174D01*
X13439610Y-14201174D02*
X13458658Y-14191650D01*
X13458658Y-14191650D02*
X13487229Y-14191650D01*
X13487229Y-14191650D02*
X13506277Y-14201174D01*
X13506277Y-14201174D02*
X13515801Y-14220222D01*
X13515801Y-14220222D02*
X13515801Y-14324984D01*
X13515801Y-14220222D02*
X13525324Y-14201174D01*
X13525324Y-14201174D02*
X13544372Y-14191650D01*
X13544372Y-14191650D02*
X13572943Y-14191650D01*
X13572943Y-14191650D02*
X13591991Y-14201174D01*
X13591991Y-14201174D02*
X13601515Y-14220222D01*
X13601515Y-14220222D02*
X13601515Y-14324984D01*
X13991991Y-14115460D02*
X13820563Y-14372603D01*
X14249134Y-14124984D02*
X14268182Y-14124984D01*
X14268182Y-14124984D02*
X14287229Y-14134508D01*
X14287229Y-14134508D02*
X14296753Y-14144031D01*
X14296753Y-14144031D02*
X14306277Y-14163079D01*
X14306277Y-14163079D02*
X14315801Y-14201174D01*
X14315801Y-14201174D02*
X14315801Y-14248793D01*
X14315801Y-14248793D02*
X14306277Y-14286888D01*
X14306277Y-14286888D02*
X14296753Y-14305936D01*
X14296753Y-14305936D02*
X14287229Y-14315460D01*
X14287229Y-14315460D02*
X14268182Y-14324984D01*
X14268182Y-14324984D02*
X14249134Y-14324984D01*
X14249134Y-14324984D02*
X14230086Y-14315460D01*
X14230086Y-14315460D02*
X14220563Y-14305936D01*
X14220563Y-14305936D02*
X14211039Y-14286888D01*
X14211039Y-14286888D02*
X14201515Y-14248793D01*
X14201515Y-14248793D02*
X14201515Y-14201174D01*
X14201515Y-14201174D02*
X14211039Y-14163079D01*
X14211039Y-14163079D02*
X14220563Y-14144031D01*
X14220563Y-14144031D02*
X14230086Y-14134508D01*
X14230086Y-14134508D02*
X14249134Y-14124984D01*
X14401515Y-14305936D02*
X14411039Y-14315460D01*
X14411039Y-14315460D02*
X14401515Y-14324984D01*
X14401515Y-14324984D02*
X14391991Y-14315460D01*
X14391991Y-14315460D02*
X14401515Y-14305936D01*
X14401515Y-14305936D02*
X14401515Y-14324984D01*
X14534848Y-14124984D02*
X14553896Y-14124984D01*
X14553896Y-14124984D02*
X14572944Y-14134508D01*
X14572944Y-14134508D02*
X14582467Y-14144031D01*
X14582467Y-14144031D02*
X14591991Y-14163079D01*
X14591991Y-14163079D02*
X14601515Y-14201174D01*
X14601515Y-14201174D02*
X14601515Y-14248793D01*
X14601515Y-14248793D02*
X14591991Y-14286888D01*
X14591991Y-14286888D02*
X14582467Y-14305936D01*
X14582467Y-14305936D02*
X14572944Y-14315460D01*
X14572944Y-14315460D02*
X14553896Y-14324984D01*
X14553896Y-14324984D02*
X14534848Y-14324984D01*
X14534848Y-14324984D02*
X14515801Y-14315460D01*
X14515801Y-14315460D02*
X14506277Y-14305936D01*
X14506277Y-14305936D02*
X14496753Y-14286888D01*
X14496753Y-14286888D02*
X14487229Y-14248793D01*
X14487229Y-14248793D02*
X14487229Y-14201174D01*
X14487229Y-14201174D02*
X14496753Y-14163079D01*
X14496753Y-14163079D02*
X14506277Y-14144031D01*
X14506277Y-14144031D02*
X14515801Y-14134508D01*
X14515801Y-14134508D02*
X14534848Y-14124984D01*
X14791991Y-14324984D02*
X14677706Y-14324984D01*
X14734848Y-14324984D02*
X14734848Y-14124984D01*
X14734848Y-14124984D02*
X14715801Y-14153555D01*
X14715801Y-14153555D02*
X14696753Y-14172603D01*
X14696753Y-14172603D02*
X14677706Y-14182127D01*
X14972944Y-14124984D02*
X14877706Y-14124984D01*
X14877706Y-14124984D02*
X14868182Y-14220222D01*
X14868182Y-14220222D02*
X14877706Y-14210698D01*
X14877706Y-14210698D02*
X14896753Y-14201174D01*
X14896753Y-14201174D02*
X14944372Y-14201174D01*
X14944372Y-14201174D02*
X14963420Y-14210698D01*
X14963420Y-14210698D02*
X14972944Y-14220222D01*
X14972944Y-14220222D02*
X14982467Y-14239269D01*
X14982467Y-14239269D02*
X14982467Y-14286888D01*
X14982467Y-14286888D02*
X14972944Y-14305936D01*
X14972944Y-14305936D02*
X14963420Y-14315460D01*
X14963420Y-14315460D02*
X14944372Y-14324984D01*
X14944372Y-14324984D02*
X14896753Y-14324984D01*
X14896753Y-14324984D02*
X14877706Y-14315460D01*
X14877706Y-14315460D02*
X14868182Y-14305936D01*
X15049134Y-14124984D02*
X15182467Y-14124984D01*
X15182467Y-14124984D02*
X15096753Y-14324984D01*
X15249134Y-14124984D02*
X15249134Y-14163079D01*
X15325325Y-14124984D02*
X15325325Y-14163079D01*
X15620563Y-14401174D02*
X15611039Y-14391650D01*
X15611039Y-14391650D02*
X15591991Y-14363079D01*
X15591991Y-14363079D02*
X15582468Y-14344031D01*
X15582468Y-14344031D02*
X15572944Y-14315460D01*
X15572944Y-14315460D02*
X15563420Y-14267841D01*
X15563420Y-14267841D02*
X15563420Y-14229746D01*
X15563420Y-14229746D02*
X15572944Y-14182127D01*
X15572944Y-14182127D02*
X15582468Y-14153555D01*
X15582468Y-14153555D02*
X15591991Y-14134508D01*
X15591991Y-14134508D02*
X15611039Y-14105936D01*
X15611039Y-14105936D02*
X15620563Y-14096412D01*
X15782468Y-14124984D02*
X15744372Y-14124984D01*
X15744372Y-14124984D02*
X15725325Y-14134508D01*
X15725325Y-14134508D02*
X15715801Y-14144031D01*
X15715801Y-14144031D02*
X15696753Y-14172603D01*
X15696753Y-14172603D02*
X15687229Y-14210698D01*
X15687229Y-14210698D02*
X15687229Y-14286888D01*
X15687229Y-14286888D02*
X15696753Y-14305936D01*
X15696753Y-14305936D02*
X15706277Y-14315460D01*
X15706277Y-14315460D02*
X15725325Y-14324984D01*
X15725325Y-14324984D02*
X15763420Y-14324984D01*
X15763420Y-14324984D02*
X15782468Y-14315460D01*
X15782468Y-14315460D02*
X15791991Y-14305936D01*
X15791991Y-14305936D02*
X15801515Y-14286888D01*
X15801515Y-14286888D02*
X15801515Y-14239269D01*
X15801515Y-14239269D02*
X15791991Y-14220222D01*
X15791991Y-14220222D02*
X15782468Y-14210698D01*
X15782468Y-14210698D02*
X15763420Y-14201174D01*
X15763420Y-14201174D02*
X15725325Y-14201174D01*
X15725325Y-14201174D02*
X15706277Y-14210698D01*
X15706277Y-14210698D02*
X15696753Y-14220222D01*
X15696753Y-14220222D02*
X15687229Y-14239269D01*
X16039610Y-14324984D02*
X16039610Y-14124984D01*
X16125325Y-14324984D02*
X16125325Y-14220222D01*
X16125325Y-14220222D02*
X16115801Y-14201174D01*
X16115801Y-14201174D02*
X16096753Y-14191650D01*
X16096753Y-14191650D02*
X16068182Y-14191650D01*
X16068182Y-14191650D02*
X16049134Y-14201174D01*
X16049134Y-14201174D02*
X16039610Y-14210698D01*
X16249134Y-14324984D02*
X16230087Y-14315460D01*
X16230087Y-14315460D02*
X16220563Y-14305936D01*
X16220563Y-14305936D02*
X16211039Y-14286888D01*
X16211039Y-14286888D02*
X16211039Y-14229746D01*
X16211039Y-14229746D02*
X16220563Y-14210698D01*
X16220563Y-14210698D02*
X16230087Y-14201174D01*
X16230087Y-14201174D02*
X16249134Y-14191650D01*
X16249134Y-14191650D02*
X16277706Y-14191650D01*
X16277706Y-14191650D02*
X16296753Y-14201174D01*
X16296753Y-14201174D02*
X16306277Y-14210698D01*
X16306277Y-14210698D02*
X16315801Y-14229746D01*
X16315801Y-14229746D02*
X16315801Y-14286888D01*
X16315801Y-14286888D02*
X16306277Y-14305936D01*
X16306277Y-14305936D02*
X16296753Y-14315460D01*
X16296753Y-14315460D02*
X16277706Y-14324984D01*
X16277706Y-14324984D02*
X16249134Y-14324984D01*
X16430087Y-14324984D02*
X16411039Y-14315460D01*
X16411039Y-14315460D02*
X16401515Y-14296412D01*
X16401515Y-14296412D02*
X16401515Y-14124984D01*
X16582468Y-14315460D02*
X16563420Y-14324984D01*
X16563420Y-14324984D02*
X16525325Y-14324984D01*
X16525325Y-14324984D02*
X16506277Y-14315460D01*
X16506277Y-14315460D02*
X16496753Y-14296412D01*
X16496753Y-14296412D02*
X16496753Y-14220222D01*
X16496753Y-14220222D02*
X16506277Y-14201174D01*
X16506277Y-14201174D02*
X16525325Y-14191650D01*
X16525325Y-14191650D02*
X16563420Y-14191650D01*
X16563420Y-14191650D02*
X16582468Y-14201174D01*
X16582468Y-14201174D02*
X16591991Y-14220222D01*
X16591991Y-14220222D02*
X16591991Y-14239269D01*
X16591991Y-14239269D02*
X16496753Y-14258317D01*
X16668182Y-14315460D02*
X16687230Y-14324984D01*
X16687230Y-14324984D02*
X16725325Y-14324984D01*
X16725325Y-14324984D02*
X16744372Y-14315460D01*
X16744372Y-14315460D02*
X16753896Y-14296412D01*
X16753896Y-14296412D02*
X16753896Y-14286888D01*
X16753896Y-14286888D02*
X16744372Y-14267841D01*
X16744372Y-14267841D02*
X16725325Y-14258317D01*
X16725325Y-14258317D02*
X16696753Y-14258317D01*
X16696753Y-14258317D02*
X16677706Y-14248793D01*
X16677706Y-14248793D02*
X16668182Y-14229746D01*
X16668182Y-14229746D02*
X16668182Y-14220222D01*
X16668182Y-14220222D02*
X16677706Y-14201174D01*
X16677706Y-14201174D02*
X16696753Y-14191650D01*
X16696753Y-14191650D02*
X16725325Y-14191650D01*
X16725325Y-14191650D02*
X16744372Y-14201174D01*
X16820563Y-14401174D02*
X16830087Y-14391650D01*
X16830087Y-14391650D02*
X16849134Y-14363079D01*
X16849134Y-14363079D02*
X16858658Y-14344031D01*
X16858658Y-14344031D02*
X16868182Y-14315460D01*
X16868182Y-14315460D02*
X16877706Y-14267841D01*
X16877706Y-14267841D02*
X16877706Y-14229746D01*
X16877706Y-14229746D02*
X16868182Y-14182127D01*
X16868182Y-14182127D02*
X16858658Y-14153555D01*
X16858658Y-14153555D02*
X16849134Y-14134508D01*
X16849134Y-14134508D02*
X16830087Y-14105936D01*
X16830087Y-14105936D02*
X16820563Y-14096412D01*
D12*
X12045500Y-14497500D02*
G75*
G02*
X11965500Y-14497500I-40000J0D01*
G01*
X11965500Y-14497500D02*
G75*
G02*
X12045500Y-14497500I40000J0D01*
G01*
D11*
X12344372Y-14388984D02*
X12363420Y-14388984D01*
X12363420Y-14388984D02*
X12382467Y-14398508D01*
X12382467Y-14398508D02*
X12391991Y-14408031D01*
X12391991Y-14408031D02*
X12401515Y-14427079D01*
X12401515Y-14427079D02*
X12411039Y-14465174D01*
X12411039Y-14465174D02*
X12411039Y-14512793D01*
X12411039Y-14512793D02*
X12401515Y-14550888D01*
X12401515Y-14550888D02*
X12391991Y-14569936D01*
X12391991Y-14569936D02*
X12382467Y-14579460D01*
X12382467Y-14579460D02*
X12363420Y-14588984D01*
X12363420Y-14588984D02*
X12344372Y-14588984D01*
X12344372Y-14588984D02*
X12325324Y-14579460D01*
X12325324Y-14579460D02*
X12315801Y-14569936D01*
X12315801Y-14569936D02*
X12306277Y-14550888D01*
X12306277Y-14550888D02*
X12296753Y-14512793D01*
X12296753Y-14512793D02*
X12296753Y-14465174D01*
X12296753Y-14465174D02*
X12306277Y-14427079D01*
X12306277Y-14427079D02*
X12315801Y-14408031D01*
X12315801Y-14408031D02*
X12325324Y-14398508D01*
X12325324Y-14398508D02*
X12344372Y-14388984D01*
X12496753Y-14569936D02*
X12506277Y-14579460D01*
X12506277Y-14579460D02*
X12496753Y-14588984D01*
X12496753Y-14588984D02*
X12487229Y-14579460D01*
X12487229Y-14579460D02*
X12496753Y-14569936D01*
X12496753Y-14569936D02*
X12496753Y-14588984D01*
X12620562Y-14474698D02*
X12601515Y-14465174D01*
X12601515Y-14465174D02*
X12591991Y-14455650D01*
X12591991Y-14455650D02*
X12582467Y-14436603D01*
X12582467Y-14436603D02*
X12582467Y-14427079D01*
X12582467Y-14427079D02*
X12591991Y-14408031D01*
X12591991Y-14408031D02*
X12601515Y-14398508D01*
X12601515Y-14398508D02*
X12620562Y-14388984D01*
X12620562Y-14388984D02*
X12658658Y-14388984D01*
X12658658Y-14388984D02*
X12677705Y-14398508D01*
X12677705Y-14398508D02*
X12687229Y-14408031D01*
X12687229Y-14408031D02*
X12696753Y-14427079D01*
X12696753Y-14427079D02*
X12696753Y-14436603D01*
X12696753Y-14436603D02*
X12687229Y-14455650D01*
X12687229Y-14455650D02*
X12677705Y-14465174D01*
X12677705Y-14465174D02*
X12658658Y-14474698D01*
X12658658Y-14474698D02*
X12620562Y-14474698D01*
X12620562Y-14474698D02*
X12601515Y-14484222D01*
X12601515Y-14484222D02*
X12591991Y-14493746D01*
X12591991Y-14493746D02*
X12582467Y-14512793D01*
X12582467Y-14512793D02*
X12582467Y-14550888D01*
X12582467Y-14550888D02*
X12591991Y-14569936D01*
X12591991Y-14569936D02*
X12601515Y-14579460D01*
X12601515Y-14579460D02*
X12620562Y-14588984D01*
X12620562Y-14588984D02*
X12658658Y-14588984D01*
X12658658Y-14588984D02*
X12677705Y-14579460D01*
X12677705Y-14579460D02*
X12687229Y-14569936D01*
X12687229Y-14569936D02*
X12696753Y-14550888D01*
X12696753Y-14550888D02*
X12696753Y-14512793D01*
X12696753Y-14512793D02*
X12687229Y-14493746D01*
X12687229Y-14493746D02*
X12677705Y-14484222D01*
X12677705Y-14484222D02*
X12658658Y-14474698D01*
X12820562Y-14388984D02*
X12839610Y-14388984D01*
X12839610Y-14388984D02*
X12858658Y-14398508D01*
X12858658Y-14398508D02*
X12868182Y-14408031D01*
X12868182Y-14408031D02*
X12877705Y-14427079D01*
X12877705Y-14427079D02*
X12887229Y-14465174D01*
X12887229Y-14465174D02*
X12887229Y-14512793D01*
X12887229Y-14512793D02*
X12877705Y-14550888D01*
X12877705Y-14550888D02*
X12868182Y-14569936D01*
X12868182Y-14569936D02*
X12858658Y-14579460D01*
X12858658Y-14579460D02*
X12839610Y-14588984D01*
X12839610Y-14588984D02*
X12820562Y-14588984D01*
X12820562Y-14588984D02*
X12801515Y-14579460D01*
X12801515Y-14579460D02*
X12791991Y-14569936D01*
X12791991Y-14569936D02*
X12782467Y-14550888D01*
X12782467Y-14550888D02*
X12772943Y-14512793D01*
X12772943Y-14512793D02*
X12772943Y-14465174D01*
X12772943Y-14465174D02*
X12782467Y-14427079D01*
X12782467Y-14427079D02*
X12791991Y-14408031D01*
X12791991Y-14408031D02*
X12801515Y-14398508D01*
X12801515Y-14398508D02*
X12820562Y-14388984D01*
X13011039Y-14388984D02*
X13030086Y-14388984D01*
X13030086Y-14388984D02*
X13049134Y-14398508D01*
X13049134Y-14398508D02*
X13058658Y-14408031D01*
X13058658Y-14408031D02*
X13068182Y-14427079D01*
X13068182Y-14427079D02*
X13077705Y-14465174D01*
X13077705Y-14465174D02*
X13077705Y-14512793D01*
X13077705Y-14512793D02*
X13068182Y-14550888D01*
X13068182Y-14550888D02*
X13058658Y-14569936D01*
X13058658Y-14569936D02*
X13049134Y-14579460D01*
X13049134Y-14579460D02*
X13030086Y-14588984D01*
X13030086Y-14588984D02*
X13011039Y-14588984D01*
X13011039Y-14588984D02*
X12991991Y-14579460D01*
X12991991Y-14579460D02*
X12982467Y-14569936D01*
X12982467Y-14569936D02*
X12972943Y-14550888D01*
X12972943Y-14550888D02*
X12963420Y-14512793D01*
X12963420Y-14512793D02*
X12963420Y-14465174D01*
X12963420Y-14465174D02*
X12972943Y-14427079D01*
X12972943Y-14427079D02*
X12982467Y-14408031D01*
X12982467Y-14408031D02*
X12991991Y-14398508D01*
X12991991Y-14398508D02*
X13011039Y-14388984D01*
X13163420Y-14588984D02*
X13163420Y-14455650D01*
X13163420Y-14474698D02*
X13172943Y-14465174D01*
X13172943Y-14465174D02*
X13191991Y-14455650D01*
X13191991Y-14455650D02*
X13220563Y-14455650D01*
X13220563Y-14455650D02*
X13239610Y-14465174D01*
X13239610Y-14465174D02*
X13249134Y-14484222D01*
X13249134Y-14484222D02*
X13249134Y-14588984D01*
X13249134Y-14484222D02*
X13258658Y-14465174D01*
X13258658Y-14465174D02*
X13277705Y-14455650D01*
X13277705Y-14455650D02*
X13306277Y-14455650D01*
X13306277Y-14455650D02*
X13325324Y-14465174D01*
X13325324Y-14465174D02*
X13334848Y-14484222D01*
X13334848Y-14484222D02*
X13334848Y-14588984D01*
X13430086Y-14588984D02*
X13430086Y-14455650D01*
X13430086Y-14474698D02*
X13439610Y-14465174D01*
X13439610Y-14465174D02*
X13458658Y-14455650D01*
X13458658Y-14455650D02*
X13487229Y-14455650D01*
X13487229Y-14455650D02*
X13506277Y-14465174D01*
X13506277Y-14465174D02*
X13515801Y-14484222D01*
X13515801Y-14484222D02*
X13515801Y-14588984D01*
X13515801Y-14484222D02*
X13525324Y-14465174D01*
X13525324Y-14465174D02*
X13544372Y-14455650D01*
X13544372Y-14455650D02*
X13572943Y-14455650D01*
X13572943Y-14455650D02*
X13591991Y-14465174D01*
X13591991Y-14465174D02*
X13601515Y-14484222D01*
X13601515Y-14484222D02*
X13601515Y-14588984D01*
X13991991Y-14379460D02*
X13820563Y-14636603D01*
X14249134Y-14388984D02*
X14268182Y-14388984D01*
X14268182Y-14388984D02*
X14287229Y-14398508D01*
X14287229Y-14398508D02*
X14296753Y-14408031D01*
X14296753Y-14408031D02*
X14306277Y-14427079D01*
X14306277Y-14427079D02*
X14315801Y-14465174D01*
X14315801Y-14465174D02*
X14315801Y-14512793D01*
X14315801Y-14512793D02*
X14306277Y-14550888D01*
X14306277Y-14550888D02*
X14296753Y-14569936D01*
X14296753Y-14569936D02*
X14287229Y-14579460D01*
X14287229Y-14579460D02*
X14268182Y-14588984D01*
X14268182Y-14588984D02*
X14249134Y-14588984D01*
X14249134Y-14588984D02*
X14230086Y-14579460D01*
X14230086Y-14579460D02*
X14220563Y-14569936D01*
X14220563Y-14569936D02*
X14211039Y-14550888D01*
X14211039Y-14550888D02*
X14201515Y-14512793D01*
X14201515Y-14512793D02*
X14201515Y-14465174D01*
X14201515Y-14465174D02*
X14211039Y-14427079D01*
X14211039Y-14427079D02*
X14220563Y-14408031D01*
X14220563Y-14408031D02*
X14230086Y-14398508D01*
X14230086Y-14398508D02*
X14249134Y-14388984D01*
X14401515Y-14569936D02*
X14411039Y-14579460D01*
X14411039Y-14579460D02*
X14401515Y-14588984D01*
X14401515Y-14588984D02*
X14391991Y-14579460D01*
X14391991Y-14579460D02*
X14401515Y-14569936D01*
X14401515Y-14569936D02*
X14401515Y-14588984D01*
X14534848Y-14388984D02*
X14553896Y-14388984D01*
X14553896Y-14388984D02*
X14572944Y-14398508D01*
X14572944Y-14398508D02*
X14582467Y-14408031D01*
X14582467Y-14408031D02*
X14591991Y-14427079D01*
X14591991Y-14427079D02*
X14601515Y-14465174D01*
X14601515Y-14465174D02*
X14601515Y-14512793D01*
X14601515Y-14512793D02*
X14591991Y-14550888D01*
X14591991Y-14550888D02*
X14582467Y-14569936D01*
X14582467Y-14569936D02*
X14572944Y-14579460D01*
X14572944Y-14579460D02*
X14553896Y-14588984D01*
X14553896Y-14588984D02*
X14534848Y-14588984D01*
X14534848Y-14588984D02*
X14515801Y-14579460D01*
X14515801Y-14579460D02*
X14506277Y-14569936D01*
X14506277Y-14569936D02*
X14496753Y-14550888D01*
X14496753Y-14550888D02*
X14487229Y-14512793D01*
X14487229Y-14512793D02*
X14487229Y-14465174D01*
X14487229Y-14465174D02*
X14496753Y-14427079D01*
X14496753Y-14427079D02*
X14506277Y-14408031D01*
X14506277Y-14408031D02*
X14515801Y-14398508D01*
X14515801Y-14398508D02*
X14534848Y-14388984D01*
X14668182Y-14388984D02*
X14791991Y-14388984D01*
X14791991Y-14388984D02*
X14725325Y-14465174D01*
X14725325Y-14465174D02*
X14753896Y-14465174D01*
X14753896Y-14465174D02*
X14772944Y-14474698D01*
X14772944Y-14474698D02*
X14782467Y-14484222D01*
X14782467Y-14484222D02*
X14791991Y-14503269D01*
X14791991Y-14503269D02*
X14791991Y-14550888D01*
X14791991Y-14550888D02*
X14782467Y-14569936D01*
X14782467Y-14569936D02*
X14772944Y-14579460D01*
X14772944Y-14579460D02*
X14753896Y-14588984D01*
X14753896Y-14588984D02*
X14696753Y-14588984D01*
X14696753Y-14588984D02*
X14677706Y-14579460D01*
X14677706Y-14579460D02*
X14668182Y-14569936D01*
X14982467Y-14588984D02*
X14868182Y-14588984D01*
X14925325Y-14588984D02*
X14925325Y-14388984D01*
X14925325Y-14388984D02*
X14906277Y-14417555D01*
X14906277Y-14417555D02*
X14887229Y-14436603D01*
X14887229Y-14436603D02*
X14868182Y-14446127D01*
X15163420Y-14388984D02*
X15068182Y-14388984D01*
X15068182Y-14388984D02*
X15058658Y-14484222D01*
X15058658Y-14484222D02*
X15068182Y-14474698D01*
X15068182Y-14474698D02*
X15087229Y-14465174D01*
X15087229Y-14465174D02*
X15134848Y-14465174D01*
X15134848Y-14465174D02*
X15153896Y-14474698D01*
X15153896Y-14474698D02*
X15163420Y-14484222D01*
X15163420Y-14484222D02*
X15172944Y-14503269D01*
X15172944Y-14503269D02*
X15172944Y-14550888D01*
X15172944Y-14550888D02*
X15163420Y-14569936D01*
X15163420Y-14569936D02*
X15153896Y-14579460D01*
X15153896Y-14579460D02*
X15134848Y-14588984D01*
X15134848Y-14588984D02*
X15087229Y-14588984D01*
X15087229Y-14588984D02*
X15068182Y-14579460D01*
X15068182Y-14579460D02*
X15058658Y-14569936D01*
X15249134Y-14388984D02*
X15249134Y-14427079D01*
X15325325Y-14388984D02*
X15325325Y-14427079D01*
X15620563Y-14665174D02*
X15611039Y-14655650D01*
X15611039Y-14655650D02*
X15591991Y-14627079D01*
X15591991Y-14627079D02*
X15582468Y-14608031D01*
X15582468Y-14608031D02*
X15572944Y-14579460D01*
X15572944Y-14579460D02*
X15563420Y-14531841D01*
X15563420Y-14531841D02*
X15563420Y-14493746D01*
X15563420Y-14493746D02*
X15572944Y-14446127D01*
X15572944Y-14446127D02*
X15582468Y-14417555D01*
X15582468Y-14417555D02*
X15591991Y-14398508D01*
X15591991Y-14398508D02*
X15611039Y-14369936D01*
X15611039Y-14369936D02*
X15620563Y-14360412D01*
X15687229Y-14408031D02*
X15696753Y-14398508D01*
X15696753Y-14398508D02*
X15715801Y-14388984D01*
X15715801Y-14388984D02*
X15763420Y-14388984D01*
X15763420Y-14388984D02*
X15782468Y-14398508D01*
X15782468Y-14398508D02*
X15791991Y-14408031D01*
X15791991Y-14408031D02*
X15801515Y-14427079D01*
X15801515Y-14427079D02*
X15801515Y-14446127D01*
X15801515Y-14446127D02*
X15791991Y-14474698D01*
X15791991Y-14474698D02*
X15677706Y-14588984D01*
X15677706Y-14588984D02*
X15801515Y-14588984D01*
X16039610Y-14588984D02*
X16039610Y-14388984D01*
X16125325Y-14588984D02*
X16125325Y-14484222D01*
X16125325Y-14484222D02*
X16115801Y-14465174D01*
X16115801Y-14465174D02*
X16096753Y-14455650D01*
X16096753Y-14455650D02*
X16068182Y-14455650D01*
X16068182Y-14455650D02*
X16049134Y-14465174D01*
X16049134Y-14465174D02*
X16039610Y-14474698D01*
X16249134Y-14588984D02*
X16230087Y-14579460D01*
X16230087Y-14579460D02*
X16220563Y-14569936D01*
X16220563Y-14569936D02*
X16211039Y-14550888D01*
X16211039Y-14550888D02*
X16211039Y-14493746D01*
X16211039Y-14493746D02*
X16220563Y-14474698D01*
X16220563Y-14474698D02*
X16230087Y-14465174D01*
X16230087Y-14465174D02*
X16249134Y-14455650D01*
X16249134Y-14455650D02*
X16277706Y-14455650D01*
X16277706Y-14455650D02*
X16296753Y-14465174D01*
X16296753Y-14465174D02*
X16306277Y-14474698D01*
X16306277Y-14474698D02*
X16315801Y-14493746D01*
X16315801Y-14493746D02*
X16315801Y-14550888D01*
X16315801Y-14550888D02*
X16306277Y-14569936D01*
X16306277Y-14569936D02*
X16296753Y-14579460D01*
X16296753Y-14579460D02*
X16277706Y-14588984D01*
X16277706Y-14588984D02*
X16249134Y-14588984D01*
X16430087Y-14588984D02*
X16411039Y-14579460D01*
X16411039Y-14579460D02*
X16401515Y-14560412D01*
X16401515Y-14560412D02*
X16401515Y-14388984D01*
X16582468Y-14579460D02*
X16563420Y-14588984D01*
X16563420Y-14588984D02*
X16525325Y-14588984D01*
X16525325Y-14588984D02*
X16506277Y-14579460D01*
X16506277Y-14579460D02*
X16496753Y-14560412D01*
X16496753Y-14560412D02*
X16496753Y-14484222D01*
X16496753Y-14484222D02*
X16506277Y-14465174D01*
X16506277Y-14465174D02*
X16525325Y-14455650D01*
X16525325Y-14455650D02*
X16563420Y-14455650D01*
X16563420Y-14455650D02*
X16582468Y-14465174D01*
X16582468Y-14465174D02*
X16591991Y-14484222D01*
X16591991Y-14484222D02*
X16591991Y-14503269D01*
X16591991Y-14503269D02*
X16496753Y-14522317D01*
X16668182Y-14579460D02*
X16687230Y-14588984D01*
X16687230Y-14588984D02*
X16725325Y-14588984D01*
X16725325Y-14588984D02*
X16744372Y-14579460D01*
X16744372Y-14579460D02*
X16753896Y-14560412D01*
X16753896Y-14560412D02*
X16753896Y-14550888D01*
X16753896Y-14550888D02*
X16744372Y-14531841D01*
X16744372Y-14531841D02*
X16725325Y-14522317D01*
X16725325Y-14522317D02*
X16696753Y-14522317D01*
X16696753Y-14522317D02*
X16677706Y-14512793D01*
X16677706Y-14512793D02*
X16668182Y-14493746D01*
X16668182Y-14493746D02*
X16668182Y-14484222D01*
X16668182Y-14484222D02*
X16677706Y-14465174D01*
X16677706Y-14465174D02*
X16696753Y-14455650D01*
X16696753Y-14455650D02*
X16725325Y-14455650D01*
X16725325Y-14455650D02*
X16744372Y-14465174D01*
X16820563Y-14665174D02*
X16830087Y-14655650D01*
X16830087Y-14655650D02*
X16849134Y-14627079D01*
X16849134Y-14627079D02*
X16858658Y-14608031D01*
X16858658Y-14608031D02*
X16868182Y-14579460D01*
X16868182Y-14579460D02*
X16877706Y-14531841D01*
X16877706Y-14531841D02*
X16877706Y-14493746D01*
X16877706Y-14493746D02*
X16868182Y-14446127D01*
X16868182Y-14446127D02*
X16858658Y-14417555D01*
X16858658Y-14417555D02*
X16849134Y-14398508D01*
X16849134Y-14398508D02*
X16830087Y-14369936D01*
X16830087Y-14369936D02*
X16820563Y-14360412D01*
D12*
X11998000Y-14714000D02*
X11998000Y-14809000D01*
X11950500Y-14761500D02*
X12045500Y-14761500D01*
D11*
X12344372Y-14652984D02*
X12363420Y-14652984D01*
X12363420Y-14652984D02*
X12382467Y-14662508D01*
X12382467Y-14662508D02*
X12391991Y-14672031D01*
X12391991Y-14672031D02*
X12401515Y-14691079D01*
X12401515Y-14691079D02*
X12411039Y-14729174D01*
X12411039Y-14729174D02*
X12411039Y-14776793D01*
X12411039Y-14776793D02*
X12401515Y-14814888D01*
X12401515Y-14814888D02*
X12391991Y-14833936D01*
X12391991Y-14833936D02*
X12382467Y-14843460D01*
X12382467Y-14843460D02*
X12363420Y-14852984D01*
X12363420Y-14852984D02*
X12344372Y-14852984D01*
X12344372Y-14852984D02*
X12325324Y-14843460D01*
X12325324Y-14843460D02*
X12315801Y-14833936D01*
X12315801Y-14833936D02*
X12306277Y-14814888D01*
X12306277Y-14814888D02*
X12296753Y-14776793D01*
X12296753Y-14776793D02*
X12296753Y-14729174D01*
X12296753Y-14729174D02*
X12306277Y-14691079D01*
X12306277Y-14691079D02*
X12315801Y-14672031D01*
X12315801Y-14672031D02*
X12325324Y-14662508D01*
X12325324Y-14662508D02*
X12344372Y-14652984D01*
X12496753Y-14833936D02*
X12506277Y-14843460D01*
X12506277Y-14843460D02*
X12496753Y-14852984D01*
X12496753Y-14852984D02*
X12487229Y-14843460D01*
X12487229Y-14843460D02*
X12496753Y-14833936D01*
X12496753Y-14833936D02*
X12496753Y-14852984D01*
X12601515Y-14852984D02*
X12639610Y-14852984D01*
X12639610Y-14852984D02*
X12658658Y-14843460D01*
X12658658Y-14843460D02*
X12668182Y-14833936D01*
X12668182Y-14833936D02*
X12687229Y-14805365D01*
X12687229Y-14805365D02*
X12696753Y-14767269D01*
X12696753Y-14767269D02*
X12696753Y-14691079D01*
X12696753Y-14691079D02*
X12687229Y-14672031D01*
X12687229Y-14672031D02*
X12677705Y-14662508D01*
X12677705Y-14662508D02*
X12658658Y-14652984D01*
X12658658Y-14652984D02*
X12620562Y-14652984D01*
X12620562Y-14652984D02*
X12601515Y-14662508D01*
X12601515Y-14662508D02*
X12591991Y-14672031D01*
X12591991Y-14672031D02*
X12582467Y-14691079D01*
X12582467Y-14691079D02*
X12582467Y-14738698D01*
X12582467Y-14738698D02*
X12591991Y-14757746D01*
X12591991Y-14757746D02*
X12601515Y-14767269D01*
X12601515Y-14767269D02*
X12620562Y-14776793D01*
X12620562Y-14776793D02*
X12658658Y-14776793D01*
X12658658Y-14776793D02*
X12677705Y-14767269D01*
X12677705Y-14767269D02*
X12687229Y-14757746D01*
X12687229Y-14757746D02*
X12696753Y-14738698D01*
X12877705Y-14652984D02*
X12782467Y-14652984D01*
X12782467Y-14652984D02*
X12772943Y-14748222D01*
X12772943Y-14748222D02*
X12782467Y-14738698D01*
X12782467Y-14738698D02*
X12801515Y-14729174D01*
X12801515Y-14729174D02*
X12849134Y-14729174D01*
X12849134Y-14729174D02*
X12868182Y-14738698D01*
X12868182Y-14738698D02*
X12877705Y-14748222D01*
X12877705Y-14748222D02*
X12887229Y-14767269D01*
X12887229Y-14767269D02*
X12887229Y-14814888D01*
X12887229Y-14814888D02*
X12877705Y-14833936D01*
X12877705Y-14833936D02*
X12868182Y-14843460D01*
X12868182Y-14843460D02*
X12849134Y-14852984D01*
X12849134Y-14852984D02*
X12801515Y-14852984D01*
X12801515Y-14852984D02*
X12782467Y-14843460D01*
X12782467Y-14843460D02*
X12772943Y-14833936D01*
X13011039Y-14652984D02*
X13030086Y-14652984D01*
X13030086Y-14652984D02*
X13049134Y-14662508D01*
X13049134Y-14662508D02*
X13058658Y-14672031D01*
X13058658Y-14672031D02*
X13068182Y-14691079D01*
X13068182Y-14691079D02*
X13077705Y-14729174D01*
X13077705Y-14729174D02*
X13077705Y-14776793D01*
X13077705Y-14776793D02*
X13068182Y-14814888D01*
X13068182Y-14814888D02*
X13058658Y-14833936D01*
X13058658Y-14833936D02*
X13049134Y-14843460D01*
X13049134Y-14843460D02*
X13030086Y-14852984D01*
X13030086Y-14852984D02*
X13011039Y-14852984D01*
X13011039Y-14852984D02*
X12991991Y-14843460D01*
X12991991Y-14843460D02*
X12982467Y-14833936D01*
X12982467Y-14833936D02*
X12972943Y-14814888D01*
X12972943Y-14814888D02*
X12963420Y-14776793D01*
X12963420Y-14776793D02*
X12963420Y-14729174D01*
X12963420Y-14729174D02*
X12972943Y-14691079D01*
X12972943Y-14691079D02*
X12982467Y-14672031D01*
X12982467Y-14672031D02*
X12991991Y-14662508D01*
X12991991Y-14662508D02*
X13011039Y-14652984D01*
X13163420Y-14852984D02*
X13163420Y-14719650D01*
X13163420Y-14738698D02*
X13172943Y-14729174D01*
X13172943Y-14729174D02*
X13191991Y-14719650D01*
X13191991Y-14719650D02*
X13220563Y-14719650D01*
X13220563Y-14719650D02*
X13239610Y-14729174D01*
X13239610Y-14729174D02*
X13249134Y-14748222D01*
X13249134Y-14748222D02*
X13249134Y-14852984D01*
X13249134Y-14748222D02*
X13258658Y-14729174D01*
X13258658Y-14729174D02*
X13277705Y-14719650D01*
X13277705Y-14719650D02*
X13306277Y-14719650D01*
X13306277Y-14719650D02*
X13325324Y-14729174D01*
X13325324Y-14729174D02*
X13334848Y-14748222D01*
X13334848Y-14748222D02*
X13334848Y-14852984D01*
X13430086Y-14852984D02*
X13430086Y-14719650D01*
X13430086Y-14738698D02*
X13439610Y-14729174D01*
X13439610Y-14729174D02*
X13458658Y-14719650D01*
X13458658Y-14719650D02*
X13487229Y-14719650D01*
X13487229Y-14719650D02*
X13506277Y-14729174D01*
X13506277Y-14729174D02*
X13515801Y-14748222D01*
X13515801Y-14748222D02*
X13515801Y-14852984D01*
X13515801Y-14748222D02*
X13525324Y-14729174D01*
X13525324Y-14729174D02*
X13544372Y-14719650D01*
X13544372Y-14719650D02*
X13572943Y-14719650D01*
X13572943Y-14719650D02*
X13591991Y-14729174D01*
X13591991Y-14729174D02*
X13601515Y-14748222D01*
X13601515Y-14748222D02*
X13601515Y-14852984D01*
X13991991Y-14643460D02*
X13820563Y-14900603D01*
X14249134Y-14652984D02*
X14268182Y-14652984D01*
X14268182Y-14652984D02*
X14287229Y-14662508D01*
X14287229Y-14662508D02*
X14296753Y-14672031D01*
X14296753Y-14672031D02*
X14306277Y-14691079D01*
X14306277Y-14691079D02*
X14315801Y-14729174D01*
X14315801Y-14729174D02*
X14315801Y-14776793D01*
X14315801Y-14776793D02*
X14306277Y-14814888D01*
X14306277Y-14814888D02*
X14296753Y-14833936D01*
X14296753Y-14833936D02*
X14287229Y-14843460D01*
X14287229Y-14843460D02*
X14268182Y-14852984D01*
X14268182Y-14852984D02*
X14249134Y-14852984D01*
X14249134Y-14852984D02*
X14230086Y-14843460D01*
X14230086Y-14843460D02*
X14220563Y-14833936D01*
X14220563Y-14833936D02*
X14211039Y-14814888D01*
X14211039Y-14814888D02*
X14201515Y-14776793D01*
X14201515Y-14776793D02*
X14201515Y-14729174D01*
X14201515Y-14729174D02*
X14211039Y-14691079D01*
X14211039Y-14691079D02*
X14220563Y-14672031D01*
X14220563Y-14672031D02*
X14230086Y-14662508D01*
X14230086Y-14662508D02*
X14249134Y-14652984D01*
X14401515Y-14833936D02*
X14411039Y-14843460D01*
X14411039Y-14843460D02*
X14401515Y-14852984D01*
X14401515Y-14852984D02*
X14391991Y-14843460D01*
X14391991Y-14843460D02*
X14401515Y-14833936D01*
X14401515Y-14833936D02*
X14401515Y-14852984D01*
X14534848Y-14652984D02*
X14553896Y-14652984D01*
X14553896Y-14652984D02*
X14572944Y-14662508D01*
X14572944Y-14662508D02*
X14582467Y-14672031D01*
X14582467Y-14672031D02*
X14591991Y-14691079D01*
X14591991Y-14691079D02*
X14601515Y-14729174D01*
X14601515Y-14729174D02*
X14601515Y-14776793D01*
X14601515Y-14776793D02*
X14591991Y-14814888D01*
X14591991Y-14814888D02*
X14582467Y-14833936D01*
X14582467Y-14833936D02*
X14572944Y-14843460D01*
X14572944Y-14843460D02*
X14553896Y-14852984D01*
X14553896Y-14852984D02*
X14534848Y-14852984D01*
X14534848Y-14852984D02*
X14515801Y-14843460D01*
X14515801Y-14843460D02*
X14506277Y-14833936D01*
X14506277Y-14833936D02*
X14496753Y-14814888D01*
X14496753Y-14814888D02*
X14487229Y-14776793D01*
X14487229Y-14776793D02*
X14487229Y-14729174D01*
X14487229Y-14729174D02*
X14496753Y-14691079D01*
X14496753Y-14691079D02*
X14506277Y-14672031D01*
X14506277Y-14672031D02*
X14515801Y-14662508D01*
X14515801Y-14662508D02*
X14534848Y-14652984D01*
X14668182Y-14652984D02*
X14791991Y-14652984D01*
X14791991Y-14652984D02*
X14725325Y-14729174D01*
X14725325Y-14729174D02*
X14753896Y-14729174D01*
X14753896Y-14729174D02*
X14772944Y-14738698D01*
X14772944Y-14738698D02*
X14782467Y-14748222D01*
X14782467Y-14748222D02*
X14791991Y-14767269D01*
X14791991Y-14767269D02*
X14791991Y-14814888D01*
X14791991Y-14814888D02*
X14782467Y-14833936D01*
X14782467Y-14833936D02*
X14772944Y-14843460D01*
X14772944Y-14843460D02*
X14753896Y-14852984D01*
X14753896Y-14852984D02*
X14696753Y-14852984D01*
X14696753Y-14852984D02*
X14677706Y-14843460D01*
X14677706Y-14843460D02*
X14668182Y-14833936D01*
X14858658Y-14652984D02*
X14991991Y-14652984D01*
X14991991Y-14652984D02*
X14906277Y-14852984D01*
X15153896Y-14719650D02*
X15153896Y-14852984D01*
X15106277Y-14643460D02*
X15058658Y-14786317D01*
X15058658Y-14786317D02*
X15182467Y-14786317D01*
X15249134Y-14652984D02*
X15249134Y-14691079D01*
X15325325Y-14652984D02*
X15325325Y-14691079D01*
X15620563Y-14929174D02*
X15611039Y-14919650D01*
X15611039Y-14919650D02*
X15591991Y-14891079D01*
X15591991Y-14891079D02*
X15582468Y-14872031D01*
X15582468Y-14872031D02*
X15572944Y-14843460D01*
X15572944Y-14843460D02*
X15563420Y-14795841D01*
X15563420Y-14795841D02*
X15563420Y-14757746D01*
X15563420Y-14757746D02*
X15572944Y-14710127D01*
X15572944Y-14710127D02*
X15582468Y-14681555D01*
X15582468Y-14681555D02*
X15591991Y-14662508D01*
X15591991Y-14662508D02*
X15611039Y-14633936D01*
X15611039Y-14633936D02*
X15620563Y-14624412D01*
X15782468Y-14719650D02*
X15782468Y-14852984D01*
X15734848Y-14643460D02*
X15687229Y-14786317D01*
X15687229Y-14786317D02*
X15811039Y-14786317D01*
X16039610Y-14852984D02*
X16039610Y-14652984D01*
X16125325Y-14852984D02*
X16125325Y-14748222D01*
X16125325Y-14748222D02*
X16115801Y-14729174D01*
X16115801Y-14729174D02*
X16096753Y-14719650D01*
X16096753Y-14719650D02*
X16068182Y-14719650D01*
X16068182Y-14719650D02*
X16049134Y-14729174D01*
X16049134Y-14729174D02*
X16039610Y-14738698D01*
X16249134Y-14852984D02*
X16230087Y-14843460D01*
X16230087Y-14843460D02*
X16220563Y-14833936D01*
X16220563Y-14833936D02*
X16211039Y-14814888D01*
X16211039Y-14814888D02*
X16211039Y-14757746D01*
X16211039Y-14757746D02*
X16220563Y-14738698D01*
X16220563Y-14738698D02*
X16230087Y-14729174D01*
X16230087Y-14729174D02*
X16249134Y-14719650D01*
X16249134Y-14719650D02*
X16277706Y-14719650D01*
X16277706Y-14719650D02*
X16296753Y-14729174D01*
X16296753Y-14729174D02*
X16306277Y-14738698D01*
X16306277Y-14738698D02*
X16315801Y-14757746D01*
X16315801Y-14757746D02*
X16315801Y-14814888D01*
X16315801Y-14814888D02*
X16306277Y-14833936D01*
X16306277Y-14833936D02*
X16296753Y-14843460D01*
X16296753Y-14843460D02*
X16277706Y-14852984D01*
X16277706Y-14852984D02*
X16249134Y-14852984D01*
X16430087Y-14852984D02*
X16411039Y-14843460D01*
X16411039Y-14843460D02*
X16401515Y-14824412D01*
X16401515Y-14824412D02*
X16401515Y-14652984D01*
X16582468Y-14843460D02*
X16563420Y-14852984D01*
X16563420Y-14852984D02*
X16525325Y-14852984D01*
X16525325Y-14852984D02*
X16506277Y-14843460D01*
X16506277Y-14843460D02*
X16496753Y-14824412D01*
X16496753Y-14824412D02*
X16496753Y-14748222D01*
X16496753Y-14748222D02*
X16506277Y-14729174D01*
X16506277Y-14729174D02*
X16525325Y-14719650D01*
X16525325Y-14719650D02*
X16563420Y-14719650D01*
X16563420Y-14719650D02*
X16582468Y-14729174D01*
X16582468Y-14729174D02*
X16591991Y-14748222D01*
X16591991Y-14748222D02*
X16591991Y-14767269D01*
X16591991Y-14767269D02*
X16496753Y-14786317D01*
X16668182Y-14843460D02*
X16687230Y-14852984D01*
X16687230Y-14852984D02*
X16725325Y-14852984D01*
X16725325Y-14852984D02*
X16744372Y-14843460D01*
X16744372Y-14843460D02*
X16753896Y-14824412D01*
X16753896Y-14824412D02*
X16753896Y-14814888D01*
X16753896Y-14814888D02*
X16744372Y-14795841D01*
X16744372Y-14795841D02*
X16725325Y-14786317D01*
X16725325Y-14786317D02*
X16696753Y-14786317D01*
X16696753Y-14786317D02*
X16677706Y-14776793D01*
X16677706Y-14776793D02*
X16668182Y-14757746D01*
X16668182Y-14757746D02*
X16668182Y-14748222D01*
X16668182Y-14748222D02*
X16677706Y-14729174D01*
X16677706Y-14729174D02*
X16696753Y-14719650D01*
X16696753Y-14719650D02*
X16725325Y-14719650D01*
X16725325Y-14719650D02*
X16744372Y-14729174D01*
X16820563Y-14929174D02*
X16830087Y-14919650D01*
X16830087Y-14919650D02*
X16849134Y-14891079D01*
X16849134Y-14891079D02*
X16858658Y-14872031D01*
X16858658Y-14872031D02*
X16868182Y-14843460D01*
X16868182Y-14843460D02*
X16877706Y-14795841D01*
X16877706Y-14795841D02*
X16877706Y-14757746D01*
X16877706Y-14757746D02*
X16868182Y-14710127D01*
X16868182Y-14710127D02*
X16858658Y-14681555D01*
X16858658Y-14681555D02*
X16849134Y-14662508D01*
X16849134Y-14662508D02*
X16830087Y-14633936D01*
X16830087Y-14633936D02*
X16820563Y-14624412D01*
D12*
X12030856Y-15060856D02*
X12030856Y-14990144D01*
X11960144Y-14990144D01*
X11960144Y-15060856D01*
X12030856Y-15060856D01*
D11*
X12411039Y-15116984D02*
X12296753Y-15116984D01*
X12353896Y-15116984D02*
X12353896Y-14916984D01*
X12353896Y-14916984D02*
X12334848Y-14945555D01*
X12334848Y-14945555D02*
X12315801Y-14964603D01*
X12315801Y-14964603D02*
X12296753Y-14974127D01*
X12496753Y-15097936D02*
X12506277Y-15107460D01*
X12506277Y-15107460D02*
X12496753Y-15116984D01*
X12496753Y-15116984D02*
X12487229Y-15107460D01*
X12487229Y-15107460D02*
X12496753Y-15097936D01*
X12496753Y-15097936D02*
X12496753Y-15116984D01*
X12630086Y-14916984D02*
X12649134Y-14916984D01*
X12649134Y-14916984D02*
X12668182Y-14926508D01*
X12668182Y-14926508D02*
X12677705Y-14936031D01*
X12677705Y-14936031D02*
X12687229Y-14955079D01*
X12687229Y-14955079D02*
X12696753Y-14993174D01*
X12696753Y-14993174D02*
X12696753Y-15040793D01*
X12696753Y-15040793D02*
X12687229Y-15078888D01*
X12687229Y-15078888D02*
X12677705Y-15097936D01*
X12677705Y-15097936D02*
X12668182Y-15107460D01*
X12668182Y-15107460D02*
X12649134Y-15116984D01*
X12649134Y-15116984D02*
X12630086Y-15116984D01*
X12630086Y-15116984D02*
X12611039Y-15107460D01*
X12611039Y-15107460D02*
X12601515Y-15097936D01*
X12601515Y-15097936D02*
X12591991Y-15078888D01*
X12591991Y-15078888D02*
X12582467Y-15040793D01*
X12582467Y-15040793D02*
X12582467Y-14993174D01*
X12582467Y-14993174D02*
X12591991Y-14955079D01*
X12591991Y-14955079D02*
X12601515Y-14936031D01*
X12601515Y-14936031D02*
X12611039Y-14926508D01*
X12611039Y-14926508D02*
X12630086Y-14916984D01*
X12820562Y-14916984D02*
X12839610Y-14916984D01*
X12839610Y-14916984D02*
X12858658Y-14926508D01*
X12858658Y-14926508D02*
X12868182Y-14936031D01*
X12868182Y-14936031D02*
X12877705Y-14955079D01*
X12877705Y-14955079D02*
X12887229Y-14993174D01*
X12887229Y-14993174D02*
X12887229Y-15040793D01*
X12887229Y-15040793D02*
X12877705Y-15078888D01*
X12877705Y-15078888D02*
X12868182Y-15097936D01*
X12868182Y-15097936D02*
X12858658Y-15107460D01*
X12858658Y-15107460D02*
X12839610Y-15116984D01*
X12839610Y-15116984D02*
X12820562Y-15116984D01*
X12820562Y-15116984D02*
X12801515Y-15107460D01*
X12801515Y-15107460D02*
X12791991Y-15097936D01*
X12791991Y-15097936D02*
X12782467Y-15078888D01*
X12782467Y-15078888D02*
X12772943Y-15040793D01*
X12772943Y-15040793D02*
X12772943Y-14993174D01*
X12772943Y-14993174D02*
X12782467Y-14955079D01*
X12782467Y-14955079D02*
X12791991Y-14936031D01*
X12791991Y-14936031D02*
X12801515Y-14926508D01*
X12801515Y-14926508D02*
X12820562Y-14916984D01*
X13011039Y-14916984D02*
X13030086Y-14916984D01*
X13030086Y-14916984D02*
X13049134Y-14926508D01*
X13049134Y-14926508D02*
X13058658Y-14936031D01*
X13058658Y-14936031D02*
X13068182Y-14955079D01*
X13068182Y-14955079D02*
X13077705Y-14993174D01*
X13077705Y-14993174D02*
X13077705Y-15040793D01*
X13077705Y-15040793D02*
X13068182Y-15078888D01*
X13068182Y-15078888D02*
X13058658Y-15097936D01*
X13058658Y-15097936D02*
X13049134Y-15107460D01*
X13049134Y-15107460D02*
X13030086Y-15116984D01*
X13030086Y-15116984D02*
X13011039Y-15116984D01*
X13011039Y-15116984D02*
X12991991Y-15107460D01*
X12991991Y-15107460D02*
X12982467Y-15097936D01*
X12982467Y-15097936D02*
X12972943Y-15078888D01*
X12972943Y-15078888D02*
X12963420Y-15040793D01*
X12963420Y-15040793D02*
X12963420Y-14993174D01*
X12963420Y-14993174D02*
X12972943Y-14955079D01*
X12972943Y-14955079D02*
X12982467Y-14936031D01*
X12982467Y-14936031D02*
X12991991Y-14926508D01*
X12991991Y-14926508D02*
X13011039Y-14916984D01*
X13163420Y-15116984D02*
X13163420Y-14983650D01*
X13163420Y-15002698D02*
X13172943Y-14993174D01*
X13172943Y-14993174D02*
X13191991Y-14983650D01*
X13191991Y-14983650D02*
X13220563Y-14983650D01*
X13220563Y-14983650D02*
X13239610Y-14993174D01*
X13239610Y-14993174D02*
X13249134Y-15012222D01*
X13249134Y-15012222D02*
X13249134Y-15116984D01*
X13249134Y-15012222D02*
X13258658Y-14993174D01*
X13258658Y-14993174D02*
X13277705Y-14983650D01*
X13277705Y-14983650D02*
X13306277Y-14983650D01*
X13306277Y-14983650D02*
X13325324Y-14993174D01*
X13325324Y-14993174D02*
X13334848Y-15012222D01*
X13334848Y-15012222D02*
X13334848Y-15116984D01*
X13430086Y-15116984D02*
X13430086Y-14983650D01*
X13430086Y-15002698D02*
X13439610Y-14993174D01*
X13439610Y-14993174D02*
X13458658Y-14983650D01*
X13458658Y-14983650D02*
X13487229Y-14983650D01*
X13487229Y-14983650D02*
X13506277Y-14993174D01*
X13506277Y-14993174D02*
X13515801Y-15012222D01*
X13515801Y-15012222D02*
X13515801Y-15116984D01*
X13515801Y-15012222D02*
X13525324Y-14993174D01*
X13525324Y-14993174D02*
X13544372Y-14983650D01*
X13544372Y-14983650D02*
X13572943Y-14983650D01*
X13572943Y-14983650D02*
X13591991Y-14993174D01*
X13591991Y-14993174D02*
X13601515Y-15012222D01*
X13601515Y-15012222D02*
X13601515Y-15116984D01*
X13991991Y-14907460D02*
X13820563Y-15164603D01*
X14249134Y-14916984D02*
X14268182Y-14916984D01*
X14268182Y-14916984D02*
X14287229Y-14926508D01*
X14287229Y-14926508D02*
X14296753Y-14936031D01*
X14296753Y-14936031D02*
X14306277Y-14955079D01*
X14306277Y-14955079D02*
X14315801Y-14993174D01*
X14315801Y-14993174D02*
X14315801Y-15040793D01*
X14315801Y-15040793D02*
X14306277Y-15078888D01*
X14306277Y-15078888D02*
X14296753Y-15097936D01*
X14296753Y-15097936D02*
X14287229Y-15107460D01*
X14287229Y-15107460D02*
X14268182Y-15116984D01*
X14268182Y-15116984D02*
X14249134Y-15116984D01*
X14249134Y-15116984D02*
X14230086Y-15107460D01*
X14230086Y-15107460D02*
X14220563Y-15097936D01*
X14220563Y-15097936D02*
X14211039Y-15078888D01*
X14211039Y-15078888D02*
X14201515Y-15040793D01*
X14201515Y-15040793D02*
X14201515Y-14993174D01*
X14201515Y-14993174D02*
X14211039Y-14955079D01*
X14211039Y-14955079D02*
X14220563Y-14936031D01*
X14220563Y-14936031D02*
X14230086Y-14926508D01*
X14230086Y-14926508D02*
X14249134Y-14916984D01*
X14401515Y-15097936D02*
X14411039Y-15107460D01*
X14411039Y-15107460D02*
X14401515Y-15116984D01*
X14401515Y-15116984D02*
X14391991Y-15107460D01*
X14391991Y-15107460D02*
X14401515Y-15097936D01*
X14401515Y-15097936D02*
X14401515Y-15116984D01*
X14534848Y-14916984D02*
X14553896Y-14916984D01*
X14553896Y-14916984D02*
X14572944Y-14926508D01*
X14572944Y-14926508D02*
X14582467Y-14936031D01*
X14582467Y-14936031D02*
X14591991Y-14955079D01*
X14591991Y-14955079D02*
X14601515Y-14993174D01*
X14601515Y-14993174D02*
X14601515Y-15040793D01*
X14601515Y-15040793D02*
X14591991Y-15078888D01*
X14591991Y-15078888D02*
X14582467Y-15097936D01*
X14582467Y-15097936D02*
X14572944Y-15107460D01*
X14572944Y-15107460D02*
X14553896Y-15116984D01*
X14553896Y-15116984D02*
X14534848Y-15116984D01*
X14534848Y-15116984D02*
X14515801Y-15107460D01*
X14515801Y-15107460D02*
X14506277Y-15097936D01*
X14506277Y-15097936D02*
X14496753Y-15078888D01*
X14496753Y-15078888D02*
X14487229Y-15040793D01*
X14487229Y-15040793D02*
X14487229Y-14993174D01*
X14487229Y-14993174D02*
X14496753Y-14955079D01*
X14496753Y-14955079D02*
X14506277Y-14936031D01*
X14506277Y-14936031D02*
X14515801Y-14926508D01*
X14515801Y-14926508D02*
X14534848Y-14916984D01*
X14668182Y-14916984D02*
X14791991Y-14916984D01*
X14791991Y-14916984D02*
X14725325Y-14993174D01*
X14725325Y-14993174D02*
X14753896Y-14993174D01*
X14753896Y-14993174D02*
X14772944Y-15002698D01*
X14772944Y-15002698D02*
X14782467Y-15012222D01*
X14782467Y-15012222D02*
X14791991Y-15031269D01*
X14791991Y-15031269D02*
X14791991Y-15078888D01*
X14791991Y-15078888D02*
X14782467Y-15097936D01*
X14782467Y-15097936D02*
X14772944Y-15107460D01*
X14772944Y-15107460D02*
X14753896Y-15116984D01*
X14753896Y-15116984D02*
X14696753Y-15116984D01*
X14696753Y-15116984D02*
X14677706Y-15107460D01*
X14677706Y-15107460D02*
X14668182Y-15097936D01*
X14887229Y-15116984D02*
X14925325Y-15116984D01*
X14925325Y-15116984D02*
X14944372Y-15107460D01*
X14944372Y-15107460D02*
X14953896Y-15097936D01*
X14953896Y-15097936D02*
X14972944Y-15069365D01*
X14972944Y-15069365D02*
X14982467Y-15031269D01*
X14982467Y-15031269D02*
X14982467Y-14955079D01*
X14982467Y-14955079D02*
X14972944Y-14936031D01*
X14972944Y-14936031D02*
X14963420Y-14926508D01*
X14963420Y-14926508D02*
X14944372Y-14916984D01*
X14944372Y-14916984D02*
X14906277Y-14916984D01*
X14906277Y-14916984D02*
X14887229Y-14926508D01*
X14887229Y-14926508D02*
X14877706Y-14936031D01*
X14877706Y-14936031D02*
X14868182Y-14955079D01*
X14868182Y-14955079D02*
X14868182Y-15002698D01*
X14868182Y-15002698D02*
X14877706Y-15021746D01*
X14877706Y-15021746D02*
X14887229Y-15031269D01*
X14887229Y-15031269D02*
X14906277Y-15040793D01*
X14906277Y-15040793D02*
X14944372Y-15040793D01*
X14944372Y-15040793D02*
X14963420Y-15031269D01*
X14963420Y-15031269D02*
X14972944Y-15021746D01*
X14972944Y-15021746D02*
X14982467Y-15002698D01*
X15153896Y-14983650D02*
X15153896Y-15116984D01*
X15106277Y-14907460D02*
X15058658Y-15050317D01*
X15058658Y-15050317D02*
X15182467Y-15050317D01*
X15249134Y-14916984D02*
X15249134Y-14955079D01*
X15325325Y-14916984D02*
X15325325Y-14955079D01*
X15620563Y-15193174D02*
X15611039Y-15183650D01*
X15611039Y-15183650D02*
X15591991Y-15155079D01*
X15591991Y-15155079D02*
X15582468Y-15136031D01*
X15582468Y-15136031D02*
X15572944Y-15107460D01*
X15572944Y-15107460D02*
X15563420Y-15059841D01*
X15563420Y-15059841D02*
X15563420Y-15021746D01*
X15563420Y-15021746D02*
X15572944Y-14974127D01*
X15572944Y-14974127D02*
X15582468Y-14945555D01*
X15582468Y-14945555D02*
X15591991Y-14926508D01*
X15591991Y-14926508D02*
X15611039Y-14897936D01*
X15611039Y-14897936D02*
X15620563Y-14888412D01*
X15687229Y-14936031D02*
X15696753Y-14926508D01*
X15696753Y-14926508D02*
X15715801Y-14916984D01*
X15715801Y-14916984D02*
X15763420Y-14916984D01*
X15763420Y-14916984D02*
X15782468Y-14926508D01*
X15782468Y-14926508D02*
X15791991Y-14936031D01*
X15791991Y-14936031D02*
X15801515Y-14955079D01*
X15801515Y-14955079D02*
X15801515Y-14974127D01*
X15801515Y-14974127D02*
X15791991Y-15002698D01*
X15791991Y-15002698D02*
X15677706Y-15116984D01*
X15677706Y-15116984D02*
X15801515Y-15116984D01*
X16039610Y-15116984D02*
X16039610Y-14916984D01*
X16125325Y-15116984D02*
X16125325Y-15012222D01*
X16125325Y-15012222D02*
X16115801Y-14993174D01*
X16115801Y-14993174D02*
X16096753Y-14983650D01*
X16096753Y-14983650D02*
X16068182Y-14983650D01*
X16068182Y-14983650D02*
X16049134Y-14993174D01*
X16049134Y-14993174D02*
X16039610Y-15002698D01*
X16249134Y-15116984D02*
X16230087Y-15107460D01*
X16230087Y-15107460D02*
X16220563Y-15097936D01*
X16220563Y-15097936D02*
X16211039Y-15078888D01*
X16211039Y-15078888D02*
X16211039Y-15021746D01*
X16211039Y-15021746D02*
X16220563Y-15002698D01*
X16220563Y-15002698D02*
X16230087Y-14993174D01*
X16230087Y-14993174D02*
X16249134Y-14983650D01*
X16249134Y-14983650D02*
X16277706Y-14983650D01*
X16277706Y-14983650D02*
X16296753Y-14993174D01*
X16296753Y-14993174D02*
X16306277Y-15002698D01*
X16306277Y-15002698D02*
X16315801Y-15021746D01*
X16315801Y-15021746D02*
X16315801Y-15078888D01*
X16315801Y-15078888D02*
X16306277Y-15097936D01*
X16306277Y-15097936D02*
X16296753Y-15107460D01*
X16296753Y-15107460D02*
X16277706Y-15116984D01*
X16277706Y-15116984D02*
X16249134Y-15116984D01*
X16430087Y-15116984D02*
X16411039Y-15107460D01*
X16411039Y-15107460D02*
X16401515Y-15088412D01*
X16401515Y-15088412D02*
X16401515Y-14916984D01*
X16582468Y-15107460D02*
X16563420Y-15116984D01*
X16563420Y-15116984D02*
X16525325Y-15116984D01*
X16525325Y-15116984D02*
X16506277Y-15107460D01*
X16506277Y-15107460D02*
X16496753Y-15088412D01*
X16496753Y-15088412D02*
X16496753Y-15012222D01*
X16496753Y-15012222D02*
X16506277Y-14993174D01*
X16506277Y-14993174D02*
X16525325Y-14983650D01*
X16525325Y-14983650D02*
X16563420Y-14983650D01*
X16563420Y-14983650D02*
X16582468Y-14993174D01*
X16582468Y-14993174D02*
X16591991Y-15012222D01*
X16591991Y-15012222D02*
X16591991Y-15031269D01*
X16591991Y-15031269D02*
X16496753Y-15050317D01*
X16668182Y-15107460D02*
X16687230Y-15116984D01*
X16687230Y-15116984D02*
X16725325Y-15116984D01*
X16725325Y-15116984D02*
X16744372Y-15107460D01*
X16744372Y-15107460D02*
X16753896Y-15088412D01*
X16753896Y-15088412D02*
X16753896Y-15078888D01*
X16753896Y-15078888D02*
X16744372Y-15059841D01*
X16744372Y-15059841D02*
X16725325Y-15050317D01*
X16725325Y-15050317D02*
X16696753Y-15050317D01*
X16696753Y-15050317D02*
X16677706Y-15040793D01*
X16677706Y-15040793D02*
X16668182Y-15021746D01*
X16668182Y-15021746D02*
X16668182Y-15012222D01*
X16668182Y-15012222D02*
X16677706Y-14993174D01*
X16677706Y-14993174D02*
X16696753Y-14983650D01*
X16696753Y-14983650D02*
X16725325Y-14983650D01*
X16725325Y-14983650D02*
X16744372Y-14993174D01*
X16820563Y-15193174D02*
X16830087Y-15183650D01*
X16830087Y-15183650D02*
X16849134Y-15155079D01*
X16849134Y-15155079D02*
X16858658Y-15136031D01*
X16858658Y-15136031D02*
X16868182Y-15107460D01*
X16868182Y-15107460D02*
X16877706Y-15059841D01*
X16877706Y-15059841D02*
X16877706Y-15021746D01*
X16877706Y-15021746D02*
X16868182Y-14974127D01*
X16868182Y-14974127D02*
X16858658Y-14945555D01*
X16858658Y-14945555D02*
X16849134Y-14926508D01*
X16849134Y-14926508D02*
X16830087Y-14897936D01*
X16830087Y-14897936D02*
X16820563Y-14888412D01*
X11945500Y-15389500D02*
X12045500Y-15289500D01*
X11945500Y-15189500D01*
X11845500Y-15289500D01*
X11945500Y-15389500D01*
X12296753Y-15200031D02*
X12306277Y-15190508D01*
X12306277Y-15190508D02*
X12325324Y-15180984D01*
X12325324Y-15180984D02*
X12372943Y-15180984D01*
X12372943Y-15180984D02*
X12391991Y-15190508D01*
X12391991Y-15190508D02*
X12401515Y-15200031D01*
X12401515Y-15200031D02*
X12411039Y-15219079D01*
X12411039Y-15219079D02*
X12411039Y-15238127D01*
X12411039Y-15238127D02*
X12401515Y-15266698D01*
X12401515Y-15266698D02*
X12287229Y-15380984D01*
X12287229Y-15380984D02*
X12411039Y-15380984D01*
X12496753Y-15361936D02*
X12506277Y-15371460D01*
X12506277Y-15371460D02*
X12496753Y-15380984D01*
X12496753Y-15380984D02*
X12487229Y-15371460D01*
X12487229Y-15371460D02*
X12496753Y-15361936D01*
X12496753Y-15361936D02*
X12496753Y-15380984D01*
X12572943Y-15180984D02*
X12696753Y-15180984D01*
X12696753Y-15180984D02*
X12630086Y-15257174D01*
X12630086Y-15257174D02*
X12658658Y-15257174D01*
X12658658Y-15257174D02*
X12677705Y-15266698D01*
X12677705Y-15266698D02*
X12687229Y-15276222D01*
X12687229Y-15276222D02*
X12696753Y-15295269D01*
X12696753Y-15295269D02*
X12696753Y-15342888D01*
X12696753Y-15342888D02*
X12687229Y-15361936D01*
X12687229Y-15361936D02*
X12677705Y-15371460D01*
X12677705Y-15371460D02*
X12658658Y-15380984D01*
X12658658Y-15380984D02*
X12601515Y-15380984D01*
X12601515Y-15380984D02*
X12582467Y-15371460D01*
X12582467Y-15371460D02*
X12572943Y-15361936D01*
X12820562Y-15180984D02*
X12839610Y-15180984D01*
X12839610Y-15180984D02*
X12858658Y-15190508D01*
X12858658Y-15190508D02*
X12868182Y-15200031D01*
X12868182Y-15200031D02*
X12877705Y-15219079D01*
X12877705Y-15219079D02*
X12887229Y-15257174D01*
X12887229Y-15257174D02*
X12887229Y-15304793D01*
X12887229Y-15304793D02*
X12877705Y-15342888D01*
X12877705Y-15342888D02*
X12868182Y-15361936D01*
X12868182Y-15361936D02*
X12858658Y-15371460D01*
X12858658Y-15371460D02*
X12839610Y-15380984D01*
X12839610Y-15380984D02*
X12820562Y-15380984D01*
X12820562Y-15380984D02*
X12801515Y-15371460D01*
X12801515Y-15371460D02*
X12791991Y-15361936D01*
X12791991Y-15361936D02*
X12782467Y-15342888D01*
X12782467Y-15342888D02*
X12772943Y-15304793D01*
X12772943Y-15304793D02*
X12772943Y-15257174D01*
X12772943Y-15257174D02*
X12782467Y-15219079D01*
X12782467Y-15219079D02*
X12791991Y-15200031D01*
X12791991Y-15200031D02*
X12801515Y-15190508D01*
X12801515Y-15190508D02*
X12820562Y-15180984D01*
X13011039Y-15180984D02*
X13030086Y-15180984D01*
X13030086Y-15180984D02*
X13049134Y-15190508D01*
X13049134Y-15190508D02*
X13058658Y-15200031D01*
X13058658Y-15200031D02*
X13068182Y-15219079D01*
X13068182Y-15219079D02*
X13077705Y-15257174D01*
X13077705Y-15257174D02*
X13077705Y-15304793D01*
X13077705Y-15304793D02*
X13068182Y-15342888D01*
X13068182Y-15342888D02*
X13058658Y-15361936D01*
X13058658Y-15361936D02*
X13049134Y-15371460D01*
X13049134Y-15371460D02*
X13030086Y-15380984D01*
X13030086Y-15380984D02*
X13011039Y-15380984D01*
X13011039Y-15380984D02*
X12991991Y-15371460D01*
X12991991Y-15371460D02*
X12982467Y-15361936D01*
X12982467Y-15361936D02*
X12972943Y-15342888D01*
X12972943Y-15342888D02*
X12963420Y-15304793D01*
X12963420Y-15304793D02*
X12963420Y-15257174D01*
X12963420Y-15257174D02*
X12972943Y-15219079D01*
X12972943Y-15219079D02*
X12982467Y-15200031D01*
X12982467Y-15200031D02*
X12991991Y-15190508D01*
X12991991Y-15190508D02*
X13011039Y-15180984D01*
X13163420Y-15380984D02*
X13163420Y-15247650D01*
X13163420Y-15266698D02*
X13172943Y-15257174D01*
X13172943Y-15257174D02*
X13191991Y-15247650D01*
X13191991Y-15247650D02*
X13220563Y-15247650D01*
X13220563Y-15247650D02*
X13239610Y-15257174D01*
X13239610Y-15257174D02*
X13249134Y-15276222D01*
X13249134Y-15276222D02*
X13249134Y-15380984D01*
X13249134Y-15276222D02*
X13258658Y-15257174D01*
X13258658Y-15257174D02*
X13277705Y-15247650D01*
X13277705Y-15247650D02*
X13306277Y-15247650D01*
X13306277Y-15247650D02*
X13325324Y-15257174D01*
X13325324Y-15257174D02*
X13334848Y-15276222D01*
X13334848Y-15276222D02*
X13334848Y-15380984D01*
X13430086Y-15380984D02*
X13430086Y-15247650D01*
X13430086Y-15266698D02*
X13439610Y-15257174D01*
X13439610Y-15257174D02*
X13458658Y-15247650D01*
X13458658Y-15247650D02*
X13487229Y-15247650D01*
X13487229Y-15247650D02*
X13506277Y-15257174D01*
X13506277Y-15257174D02*
X13515801Y-15276222D01*
X13515801Y-15276222D02*
X13515801Y-15380984D01*
X13515801Y-15276222D02*
X13525324Y-15257174D01*
X13525324Y-15257174D02*
X13544372Y-15247650D01*
X13544372Y-15247650D02*
X13572943Y-15247650D01*
X13572943Y-15247650D02*
X13591991Y-15257174D01*
X13591991Y-15257174D02*
X13601515Y-15276222D01*
X13601515Y-15276222D02*
X13601515Y-15380984D01*
X13991991Y-15171460D02*
X13820563Y-15428603D01*
X14249134Y-15180984D02*
X14268182Y-15180984D01*
X14268182Y-15180984D02*
X14287229Y-15190508D01*
X14287229Y-15190508D02*
X14296753Y-15200031D01*
X14296753Y-15200031D02*
X14306277Y-15219079D01*
X14306277Y-15219079D02*
X14315801Y-15257174D01*
X14315801Y-15257174D02*
X14315801Y-15304793D01*
X14315801Y-15304793D02*
X14306277Y-15342888D01*
X14306277Y-15342888D02*
X14296753Y-15361936D01*
X14296753Y-15361936D02*
X14287229Y-15371460D01*
X14287229Y-15371460D02*
X14268182Y-15380984D01*
X14268182Y-15380984D02*
X14249134Y-15380984D01*
X14249134Y-15380984D02*
X14230086Y-15371460D01*
X14230086Y-15371460D02*
X14220563Y-15361936D01*
X14220563Y-15361936D02*
X14211039Y-15342888D01*
X14211039Y-15342888D02*
X14201515Y-15304793D01*
X14201515Y-15304793D02*
X14201515Y-15257174D01*
X14201515Y-15257174D02*
X14211039Y-15219079D01*
X14211039Y-15219079D02*
X14220563Y-15200031D01*
X14220563Y-15200031D02*
X14230086Y-15190508D01*
X14230086Y-15190508D02*
X14249134Y-15180984D01*
X14401515Y-15361936D02*
X14411039Y-15371460D01*
X14411039Y-15371460D02*
X14401515Y-15380984D01*
X14401515Y-15380984D02*
X14391991Y-15371460D01*
X14391991Y-15371460D02*
X14401515Y-15361936D01*
X14401515Y-15361936D02*
X14401515Y-15380984D01*
X14534848Y-15180984D02*
X14553896Y-15180984D01*
X14553896Y-15180984D02*
X14572944Y-15190508D01*
X14572944Y-15190508D02*
X14582467Y-15200031D01*
X14582467Y-15200031D02*
X14591991Y-15219079D01*
X14591991Y-15219079D02*
X14601515Y-15257174D01*
X14601515Y-15257174D02*
X14601515Y-15304793D01*
X14601515Y-15304793D02*
X14591991Y-15342888D01*
X14591991Y-15342888D02*
X14582467Y-15361936D01*
X14582467Y-15361936D02*
X14572944Y-15371460D01*
X14572944Y-15371460D02*
X14553896Y-15380984D01*
X14553896Y-15380984D02*
X14534848Y-15380984D01*
X14534848Y-15380984D02*
X14515801Y-15371460D01*
X14515801Y-15371460D02*
X14506277Y-15361936D01*
X14506277Y-15361936D02*
X14496753Y-15342888D01*
X14496753Y-15342888D02*
X14487229Y-15304793D01*
X14487229Y-15304793D02*
X14487229Y-15257174D01*
X14487229Y-15257174D02*
X14496753Y-15219079D01*
X14496753Y-15219079D02*
X14506277Y-15200031D01*
X14506277Y-15200031D02*
X14515801Y-15190508D01*
X14515801Y-15190508D02*
X14534848Y-15180984D01*
X14696753Y-15380984D02*
X14734848Y-15380984D01*
X14734848Y-15380984D02*
X14753896Y-15371460D01*
X14753896Y-15371460D02*
X14763420Y-15361936D01*
X14763420Y-15361936D02*
X14782467Y-15333365D01*
X14782467Y-15333365D02*
X14791991Y-15295269D01*
X14791991Y-15295269D02*
X14791991Y-15219079D01*
X14791991Y-15219079D02*
X14782467Y-15200031D01*
X14782467Y-15200031D02*
X14772944Y-15190508D01*
X14772944Y-15190508D02*
X14753896Y-15180984D01*
X14753896Y-15180984D02*
X14715801Y-15180984D01*
X14715801Y-15180984D02*
X14696753Y-15190508D01*
X14696753Y-15190508D02*
X14687229Y-15200031D01*
X14687229Y-15200031D02*
X14677706Y-15219079D01*
X14677706Y-15219079D02*
X14677706Y-15266698D01*
X14677706Y-15266698D02*
X14687229Y-15285746D01*
X14687229Y-15285746D02*
X14696753Y-15295269D01*
X14696753Y-15295269D02*
X14715801Y-15304793D01*
X14715801Y-15304793D02*
X14753896Y-15304793D01*
X14753896Y-15304793D02*
X14772944Y-15295269D01*
X14772944Y-15295269D02*
X14782467Y-15285746D01*
X14782467Y-15285746D02*
X14791991Y-15266698D01*
X14915801Y-15180984D02*
X14934848Y-15180984D01*
X14934848Y-15180984D02*
X14953896Y-15190508D01*
X14953896Y-15190508D02*
X14963420Y-15200031D01*
X14963420Y-15200031D02*
X14972944Y-15219079D01*
X14972944Y-15219079D02*
X14982467Y-15257174D01*
X14982467Y-15257174D02*
X14982467Y-15304793D01*
X14982467Y-15304793D02*
X14972944Y-15342888D01*
X14972944Y-15342888D02*
X14963420Y-15361936D01*
X14963420Y-15361936D02*
X14953896Y-15371460D01*
X14953896Y-15371460D02*
X14934848Y-15380984D01*
X14934848Y-15380984D02*
X14915801Y-15380984D01*
X14915801Y-15380984D02*
X14896753Y-15371460D01*
X14896753Y-15371460D02*
X14887229Y-15361936D01*
X14887229Y-15361936D02*
X14877706Y-15342888D01*
X14877706Y-15342888D02*
X14868182Y-15304793D01*
X14868182Y-15304793D02*
X14868182Y-15257174D01*
X14868182Y-15257174D02*
X14877706Y-15219079D01*
X14877706Y-15219079D02*
X14887229Y-15200031D01*
X14887229Y-15200031D02*
X14896753Y-15190508D01*
X14896753Y-15190508D02*
X14915801Y-15180984D01*
X15153896Y-15180984D02*
X15115801Y-15180984D01*
X15115801Y-15180984D02*
X15096753Y-15190508D01*
X15096753Y-15190508D02*
X15087229Y-15200031D01*
X15087229Y-15200031D02*
X15068182Y-15228603D01*
X15068182Y-15228603D02*
X15058658Y-15266698D01*
X15058658Y-15266698D02*
X15058658Y-15342888D01*
X15058658Y-15342888D02*
X15068182Y-15361936D01*
X15068182Y-15361936D02*
X15077706Y-15371460D01*
X15077706Y-15371460D02*
X15096753Y-15380984D01*
X15096753Y-15380984D02*
X15134848Y-15380984D01*
X15134848Y-15380984D02*
X15153896Y-15371460D01*
X15153896Y-15371460D02*
X15163420Y-15361936D01*
X15163420Y-15361936D02*
X15172944Y-15342888D01*
X15172944Y-15342888D02*
X15172944Y-15295269D01*
X15172944Y-15295269D02*
X15163420Y-15276222D01*
X15163420Y-15276222D02*
X15153896Y-15266698D01*
X15153896Y-15266698D02*
X15134848Y-15257174D01*
X15134848Y-15257174D02*
X15096753Y-15257174D01*
X15096753Y-15257174D02*
X15077706Y-15266698D01*
X15077706Y-15266698D02*
X15068182Y-15276222D01*
X15068182Y-15276222D02*
X15058658Y-15295269D01*
X15249134Y-15180984D02*
X15249134Y-15219079D01*
X15325325Y-15180984D02*
X15325325Y-15219079D01*
X15620563Y-15457174D02*
X15611039Y-15447650D01*
X15611039Y-15447650D02*
X15591991Y-15419079D01*
X15591991Y-15419079D02*
X15582468Y-15400031D01*
X15582468Y-15400031D02*
X15572944Y-15371460D01*
X15572944Y-15371460D02*
X15563420Y-15323841D01*
X15563420Y-15323841D02*
X15563420Y-15285746D01*
X15563420Y-15285746D02*
X15572944Y-15238127D01*
X15572944Y-15238127D02*
X15582468Y-15209555D01*
X15582468Y-15209555D02*
X15591991Y-15190508D01*
X15591991Y-15190508D02*
X15611039Y-15161936D01*
X15611039Y-15161936D02*
X15620563Y-15152412D01*
X15687229Y-15200031D02*
X15696753Y-15190508D01*
X15696753Y-15190508D02*
X15715801Y-15180984D01*
X15715801Y-15180984D02*
X15763420Y-15180984D01*
X15763420Y-15180984D02*
X15782468Y-15190508D01*
X15782468Y-15190508D02*
X15791991Y-15200031D01*
X15791991Y-15200031D02*
X15801515Y-15219079D01*
X15801515Y-15219079D02*
X15801515Y-15238127D01*
X15801515Y-15238127D02*
X15791991Y-15266698D01*
X15791991Y-15266698D02*
X15677706Y-15380984D01*
X15677706Y-15380984D02*
X15801515Y-15380984D01*
X16039610Y-15380984D02*
X16039610Y-15180984D01*
X16125325Y-15380984D02*
X16125325Y-15276222D01*
X16125325Y-15276222D02*
X16115801Y-15257174D01*
X16115801Y-15257174D02*
X16096753Y-15247650D01*
X16096753Y-15247650D02*
X16068182Y-15247650D01*
X16068182Y-15247650D02*
X16049134Y-15257174D01*
X16049134Y-15257174D02*
X16039610Y-15266698D01*
X16249134Y-15380984D02*
X16230087Y-15371460D01*
X16230087Y-15371460D02*
X16220563Y-15361936D01*
X16220563Y-15361936D02*
X16211039Y-15342888D01*
X16211039Y-15342888D02*
X16211039Y-15285746D01*
X16211039Y-15285746D02*
X16220563Y-15266698D01*
X16220563Y-15266698D02*
X16230087Y-15257174D01*
X16230087Y-15257174D02*
X16249134Y-15247650D01*
X16249134Y-15247650D02*
X16277706Y-15247650D01*
X16277706Y-15247650D02*
X16296753Y-15257174D01*
X16296753Y-15257174D02*
X16306277Y-15266698D01*
X16306277Y-15266698D02*
X16315801Y-15285746D01*
X16315801Y-15285746D02*
X16315801Y-15342888D01*
X16315801Y-15342888D02*
X16306277Y-15361936D01*
X16306277Y-15361936D02*
X16296753Y-15371460D01*
X16296753Y-15371460D02*
X16277706Y-15380984D01*
X16277706Y-15380984D02*
X16249134Y-15380984D01*
X16430087Y-15380984D02*
X16411039Y-15371460D01*
X16411039Y-15371460D02*
X16401515Y-15352412D01*
X16401515Y-15352412D02*
X16401515Y-15180984D01*
X16582468Y-15371460D02*
X16563420Y-15380984D01*
X16563420Y-15380984D02*
X16525325Y-15380984D01*
X16525325Y-15380984D02*
X16506277Y-15371460D01*
X16506277Y-15371460D02*
X16496753Y-15352412D01*
X16496753Y-15352412D02*
X16496753Y-15276222D01*
X16496753Y-15276222D02*
X16506277Y-15257174D01*
X16506277Y-15257174D02*
X16525325Y-15247650D01*
X16525325Y-15247650D02*
X16563420Y-15247650D01*
X16563420Y-15247650D02*
X16582468Y-15257174D01*
X16582468Y-15257174D02*
X16591991Y-15276222D01*
X16591991Y-15276222D02*
X16591991Y-15295269D01*
X16591991Y-15295269D02*
X16496753Y-15314317D01*
X16668182Y-15371460D02*
X16687230Y-15380984D01*
X16687230Y-15380984D02*
X16725325Y-15380984D01*
X16725325Y-15380984D02*
X16744372Y-15371460D01*
X16744372Y-15371460D02*
X16753896Y-15352412D01*
X16753896Y-15352412D02*
X16753896Y-15342888D01*
X16753896Y-15342888D02*
X16744372Y-15323841D01*
X16744372Y-15323841D02*
X16725325Y-15314317D01*
X16725325Y-15314317D02*
X16696753Y-15314317D01*
X16696753Y-15314317D02*
X16677706Y-15304793D01*
X16677706Y-15304793D02*
X16668182Y-15285746D01*
X16668182Y-15285746D02*
X16668182Y-15276222D01*
X16668182Y-15276222D02*
X16677706Y-15257174D01*
X16677706Y-15257174D02*
X16696753Y-15247650D01*
X16696753Y-15247650D02*
X16725325Y-15247650D01*
X16725325Y-15247650D02*
X16744372Y-15257174D01*
X16820563Y-15457174D02*
X16830087Y-15447650D01*
X16830087Y-15447650D02*
X16849134Y-15419079D01*
X16849134Y-15419079D02*
X16858658Y-15400031D01*
X16858658Y-15400031D02*
X16868182Y-15371460D01*
X16868182Y-15371460D02*
X16877706Y-15323841D01*
X16877706Y-15323841D02*
X16877706Y-15285746D01*
X16877706Y-15285746D02*
X16868182Y-15238127D01*
X16868182Y-15238127D02*
X16858658Y-15209555D01*
X16858658Y-15209555D02*
X16849134Y-15190508D01*
X16849134Y-15190508D02*
X16830087Y-15161936D01*
X16830087Y-15161936D02*
X16820563Y-15152412D01*
M02*
