G04 #@! TF.GenerationSoftware,KiCad,Pcbnew,8.0.6*
G04 #@! TF.CreationDate,2025-01-13T18:54:34-05:00*
G04 #@! TF.ProjectId,usb2J1708_rev4,75736232-4a31-4373-9038-5f726576342e,rev?*
G04 #@! TF.SameCoordinates,Original*
G04 #@! TF.FileFunction,Copper,L1,Top*
G04 #@! TF.FilePolarity,Positive*
%FSLAX46Y46*%
G04 Gerber Fmt 4.6, Leading zero omitted, Abs format (unit mm)*
G04 Created by KiCad (PCBNEW 8.0.6) date 2025-01-13 18:54:34*
%MOMM*%
%LPD*%
G01*
G04 APERTURE LIST*
G04 Aperture macros list*
%AMRoundRect*
0 Rectangle with rounded corners*
0 $1 Rounding radius*
0 $2 $3 $4 $5 $6 $7 $8 $9 X,Y pos of 4 corners*
0 Add a 4 corners polygon primitive as box body*
4,1,4,$2,$3,$4,$5,$6,$7,$8,$9,$2,$3,0*
0 Add four circle primitives for the rounded corners*
1,1,$1+$1,$2,$3*
1,1,$1+$1,$4,$5*
1,1,$1+$1,$6,$7*
1,1,$1+$1,$8,$9*
0 Add four rect primitives between the rounded corners*
20,1,$1+$1,$2,$3,$4,$5,0*
20,1,$1+$1,$4,$5,$6,$7,0*
20,1,$1+$1,$6,$7,$8,$9,0*
20,1,$1+$1,$8,$9,$2,$3,0*%
G04 Aperture macros list end*
%ADD10C,0.300000*%
G04 #@! TA.AperFunction,NonConductor*
%ADD11C,0.300000*%
G04 #@! TD*
G04 #@! TA.AperFunction,SMDPad,CuDef*
%ADD12RoundRect,0.249999X0.450001X1.425001X-0.450001X1.425001X-0.450001X-1.425001X0.450001X-1.425001X0*%
G04 #@! TD*
G04 #@! TA.AperFunction,SMDPad,CuDef*
%ADD13RoundRect,0.250000X0.350000X0.450000X-0.350000X0.450000X-0.350000X-0.450000X0.350000X-0.450000X0*%
G04 #@! TD*
G04 #@! TA.AperFunction,SMDPad,CuDef*
%ADD14RoundRect,0.250000X0.475000X-0.337500X0.475000X0.337500X-0.475000X0.337500X-0.475000X-0.337500X0*%
G04 #@! TD*
G04 #@! TA.AperFunction,SMDPad,CuDef*
%ADD15RoundRect,0.150000X-0.825000X-0.150000X0.825000X-0.150000X0.825000X0.150000X-0.825000X0.150000X0*%
G04 #@! TD*
G04 #@! TA.AperFunction,SMDPad,CuDef*
%ADD16RoundRect,0.250000X-0.450000X0.350000X-0.450000X-0.350000X0.450000X-0.350000X0.450000X0.350000X0*%
G04 #@! TD*
G04 #@! TA.AperFunction,ComponentPad*
%ADD17C,1.500000*%
G04 #@! TD*
G04 #@! TA.AperFunction,SMDPad,CuDef*
%ADD18RoundRect,0.250000X-0.400000X-0.625000X0.400000X-0.625000X0.400000X0.625000X-0.400000X0.625000X0*%
G04 #@! TD*
G04 #@! TA.AperFunction,ComponentPad*
%ADD19R,1.700000X1.700000*%
G04 #@! TD*
G04 #@! TA.AperFunction,ComponentPad*
%ADD20O,1.700000X1.700000*%
G04 #@! TD*
G04 #@! TA.AperFunction,SMDPad,CuDef*
%ADD21RoundRect,0.250000X0.337500X0.475000X-0.337500X0.475000X-0.337500X-0.475000X0.337500X-0.475000X0*%
G04 #@! TD*
G04 #@! TA.AperFunction,SMDPad,CuDef*
%ADD22RoundRect,0.250000X0.400000X0.625000X-0.400000X0.625000X-0.400000X-0.625000X0.400000X-0.625000X0*%
G04 #@! TD*
G04 #@! TA.AperFunction,SMDPad,CuDef*
%ADD23RoundRect,0.250000X-0.337500X-0.475000X0.337500X-0.475000X0.337500X0.475000X-0.337500X0.475000X0*%
G04 #@! TD*
G04 #@! TA.AperFunction,SMDPad,CuDef*
%ADD24RoundRect,0.250000X-0.475000X0.337500X-0.475000X-0.337500X0.475000X-0.337500X0.475000X0.337500X0*%
G04 #@! TD*
G04 #@! TA.AperFunction,ComponentPad*
%ADD25R,1.600000X1.600000*%
G04 #@! TD*
G04 #@! TA.AperFunction,ComponentPad*
%ADD26C,1.600000*%
G04 #@! TD*
G04 #@! TA.AperFunction,ComponentPad*
%ADD27C,4.000000*%
G04 #@! TD*
G04 #@! TA.AperFunction,ViaPad*
%ADD28C,0.800000*%
G04 #@! TD*
G04 #@! TA.AperFunction,Conductor*
%ADD29C,0.250000*%
G04 #@! TD*
G04 #@! TA.AperFunction,Conductor*
%ADD30C,0.200000*%
G04 #@! TD*
G04 APERTURE END LIST*
D10*
D11*
X149350000Y-89508328D02*
X149350000Y-88008328D01*
X149350000Y-88008328D02*
X149850000Y-89079757D01*
X149850000Y-89079757D02*
X150350000Y-88008328D01*
X150350000Y-88008328D02*
X150350000Y-89508328D01*
X151064286Y-89508328D02*
X151064286Y-88508328D01*
X151064286Y-88008328D02*
X150992858Y-88079757D01*
X150992858Y-88079757D02*
X151064286Y-88151185D01*
X151064286Y-88151185D02*
X151135715Y-88079757D01*
X151135715Y-88079757D02*
X151064286Y-88008328D01*
X151064286Y-88008328D02*
X151064286Y-88151185D01*
X152421430Y-89436900D02*
X152278572Y-89508328D01*
X152278572Y-89508328D02*
X151992858Y-89508328D01*
X151992858Y-89508328D02*
X151850001Y-89436900D01*
X151850001Y-89436900D02*
X151778572Y-89365471D01*
X151778572Y-89365471D02*
X151707144Y-89222614D01*
X151707144Y-89222614D02*
X151707144Y-88794042D01*
X151707144Y-88794042D02*
X151778572Y-88651185D01*
X151778572Y-88651185D02*
X151850001Y-88579757D01*
X151850001Y-88579757D02*
X151992858Y-88508328D01*
X151992858Y-88508328D02*
X152278572Y-88508328D01*
X152278572Y-88508328D02*
X152421430Y-88579757D01*
X153064286Y-89508328D02*
X153064286Y-88008328D01*
X153707144Y-89508328D02*
X153707144Y-88722614D01*
X153707144Y-88722614D02*
X153635715Y-88579757D01*
X153635715Y-88579757D02*
X153492858Y-88508328D01*
X153492858Y-88508328D02*
X153278572Y-88508328D01*
X153278572Y-88508328D02*
X153135715Y-88579757D01*
X153135715Y-88579757D02*
X153064286Y-88651185D01*
X154992858Y-89436900D02*
X154850001Y-89508328D01*
X154850001Y-89508328D02*
X154564287Y-89508328D01*
X154564287Y-89508328D02*
X154421429Y-89436900D01*
X154421429Y-89436900D02*
X154350001Y-89294042D01*
X154350001Y-89294042D02*
X154350001Y-88722614D01*
X154350001Y-88722614D02*
X154421429Y-88579757D01*
X154421429Y-88579757D02*
X154564287Y-88508328D01*
X154564287Y-88508328D02*
X154850001Y-88508328D01*
X154850001Y-88508328D02*
X154992858Y-88579757D01*
X154992858Y-88579757D02*
X155064287Y-88722614D01*
X155064287Y-88722614D02*
X155064287Y-88865471D01*
X155064287Y-88865471D02*
X154350001Y-89008328D01*
X155921429Y-89508328D02*
X155778572Y-89436900D01*
X155778572Y-89436900D02*
X155707143Y-89294042D01*
X155707143Y-89294042D02*
X155707143Y-88008328D01*
X158492857Y-89365471D02*
X158421429Y-89436900D01*
X158421429Y-89436900D02*
X158207143Y-89508328D01*
X158207143Y-89508328D02*
X158064286Y-89508328D01*
X158064286Y-89508328D02*
X157850000Y-89436900D01*
X157850000Y-89436900D02*
X157707143Y-89294042D01*
X157707143Y-89294042D02*
X157635714Y-89151185D01*
X157635714Y-89151185D02*
X157564286Y-88865471D01*
X157564286Y-88865471D02*
X157564286Y-88651185D01*
X157564286Y-88651185D02*
X157635714Y-88365471D01*
X157635714Y-88365471D02*
X157707143Y-88222614D01*
X157707143Y-88222614D02*
X157850000Y-88079757D01*
X157850000Y-88079757D02*
X158064286Y-88008328D01*
X158064286Y-88008328D02*
X158207143Y-88008328D01*
X158207143Y-88008328D02*
X158421429Y-88079757D01*
X158421429Y-88079757D02*
X158492857Y-88151185D01*
X159778572Y-89508328D02*
X159778572Y-88722614D01*
X159778572Y-88722614D02*
X159707143Y-88579757D01*
X159707143Y-88579757D02*
X159564286Y-88508328D01*
X159564286Y-88508328D02*
X159278572Y-88508328D01*
X159278572Y-88508328D02*
X159135714Y-88579757D01*
X159778572Y-89436900D02*
X159635714Y-89508328D01*
X159635714Y-89508328D02*
X159278572Y-89508328D01*
X159278572Y-89508328D02*
X159135714Y-89436900D01*
X159135714Y-89436900D02*
X159064286Y-89294042D01*
X159064286Y-89294042D02*
X159064286Y-89151185D01*
X159064286Y-89151185D02*
X159135714Y-89008328D01*
X159135714Y-89008328D02*
X159278572Y-88936900D01*
X159278572Y-88936900D02*
X159635714Y-88936900D01*
X159635714Y-88936900D02*
X159778572Y-88865471D01*
X160278572Y-88508328D02*
X160850000Y-88508328D01*
X160492857Y-88008328D02*
X160492857Y-89294042D01*
X160492857Y-89294042D02*
X160564286Y-89436900D01*
X160564286Y-89436900D02*
X160707143Y-89508328D01*
X160707143Y-89508328D02*
X160850000Y-89508328D01*
X161992858Y-88508328D02*
X161992858Y-89508328D01*
X161350000Y-88508328D02*
X161350000Y-89294042D01*
X161350000Y-89294042D02*
X161421429Y-89436900D01*
X161421429Y-89436900D02*
X161564286Y-89508328D01*
X161564286Y-89508328D02*
X161778572Y-89508328D01*
X161778572Y-89508328D02*
X161921429Y-89436900D01*
X161921429Y-89436900D02*
X161992858Y-89365471D01*
X163350001Y-89508328D02*
X163350001Y-88008328D01*
X163350001Y-89436900D02*
X163207143Y-89508328D01*
X163207143Y-89508328D02*
X162921429Y-89508328D01*
X162921429Y-89508328D02*
X162778572Y-89436900D01*
X162778572Y-89436900D02*
X162707143Y-89365471D01*
X162707143Y-89365471D02*
X162635715Y-89222614D01*
X162635715Y-89222614D02*
X162635715Y-88794042D01*
X162635715Y-88794042D02*
X162707143Y-88651185D01*
X162707143Y-88651185D02*
X162778572Y-88579757D01*
X162778572Y-88579757D02*
X162921429Y-88508328D01*
X162921429Y-88508328D02*
X163207143Y-88508328D01*
X163207143Y-88508328D02*
X163350001Y-88579757D01*
X164707144Y-89508328D02*
X164707144Y-88722614D01*
X164707144Y-88722614D02*
X164635715Y-88579757D01*
X164635715Y-88579757D02*
X164492858Y-88508328D01*
X164492858Y-88508328D02*
X164207144Y-88508328D01*
X164207144Y-88508328D02*
X164064286Y-88579757D01*
X164707144Y-89436900D02*
X164564286Y-89508328D01*
X164564286Y-89508328D02*
X164207144Y-89508328D01*
X164207144Y-89508328D02*
X164064286Y-89436900D01*
X164064286Y-89436900D02*
X163992858Y-89294042D01*
X163992858Y-89294042D02*
X163992858Y-89151185D01*
X163992858Y-89151185D02*
X164064286Y-89008328D01*
X164064286Y-89008328D02*
X164207144Y-88936900D01*
X164207144Y-88936900D02*
X164564286Y-88936900D01*
X164564286Y-88936900D02*
X164707144Y-88865471D01*
X165635715Y-89508328D02*
X165492858Y-89436900D01*
X165492858Y-89436900D02*
X165421429Y-89294042D01*
X165421429Y-89294042D02*
X165421429Y-88008328D01*
X167278572Y-88151185D02*
X167350000Y-88079757D01*
X167350000Y-88079757D02*
X167492858Y-88008328D01*
X167492858Y-88008328D02*
X167850000Y-88008328D01*
X167850000Y-88008328D02*
X167992858Y-88079757D01*
X167992858Y-88079757D02*
X168064286Y-88151185D01*
X168064286Y-88151185D02*
X168135715Y-88294042D01*
X168135715Y-88294042D02*
X168135715Y-88436900D01*
X168135715Y-88436900D02*
X168064286Y-88651185D01*
X168064286Y-88651185D02*
X167207143Y-89508328D01*
X167207143Y-89508328D02*
X168135715Y-89508328D01*
X169064286Y-88008328D02*
X169207143Y-88008328D01*
X169207143Y-88008328D02*
X169350000Y-88079757D01*
X169350000Y-88079757D02*
X169421429Y-88151185D01*
X169421429Y-88151185D02*
X169492857Y-88294042D01*
X169492857Y-88294042D02*
X169564286Y-88579757D01*
X169564286Y-88579757D02*
X169564286Y-88936900D01*
X169564286Y-88936900D02*
X169492857Y-89222614D01*
X169492857Y-89222614D02*
X169421429Y-89365471D01*
X169421429Y-89365471D02*
X169350000Y-89436900D01*
X169350000Y-89436900D02*
X169207143Y-89508328D01*
X169207143Y-89508328D02*
X169064286Y-89508328D01*
X169064286Y-89508328D02*
X168921429Y-89436900D01*
X168921429Y-89436900D02*
X168850000Y-89365471D01*
X168850000Y-89365471D02*
X168778571Y-89222614D01*
X168778571Y-89222614D02*
X168707143Y-88936900D01*
X168707143Y-88936900D02*
X168707143Y-88579757D01*
X168707143Y-88579757D02*
X168778571Y-88294042D01*
X168778571Y-88294042D02*
X168850000Y-88151185D01*
X168850000Y-88151185D02*
X168921429Y-88079757D01*
X168921429Y-88079757D02*
X169064286Y-88008328D01*
X170135714Y-88151185D02*
X170207142Y-88079757D01*
X170207142Y-88079757D02*
X170350000Y-88008328D01*
X170350000Y-88008328D02*
X170707142Y-88008328D01*
X170707142Y-88008328D02*
X170850000Y-88079757D01*
X170850000Y-88079757D02*
X170921428Y-88151185D01*
X170921428Y-88151185D02*
X170992857Y-88294042D01*
X170992857Y-88294042D02*
X170992857Y-88436900D01*
X170992857Y-88436900D02*
X170921428Y-88651185D01*
X170921428Y-88651185D02*
X170064285Y-89508328D01*
X170064285Y-89508328D02*
X170992857Y-89508328D01*
X172278571Y-88508328D02*
X172278571Y-89508328D01*
X171921428Y-87936900D02*
X171564285Y-89008328D01*
X171564285Y-89008328D02*
X172492856Y-89008328D01*
D12*
X182518000Y-109426000D03*
X176418000Y-109426000D03*
D13*
X165279800Y-96218200D03*
X163279800Y-96218200D03*
D14*
X143570000Y-98055000D03*
X143570000Y-95980000D03*
D15*
X166808600Y-99266200D03*
X166808600Y-100536200D03*
X166808600Y-101806200D03*
X166808600Y-103076200D03*
X171758600Y-103076200D03*
X171758600Y-101806200D03*
X171758600Y-100536200D03*
X171758600Y-99266200D03*
D16*
X163238400Y-100704600D03*
X163238400Y-102704600D03*
D17*
X140690000Y-109010000D03*
X140690000Y-104130000D03*
D18*
X168317800Y-110518400D03*
X171417800Y-110518400D03*
D19*
X186753000Y-111989000D03*
D20*
X186753000Y-109449000D03*
D14*
X139820000Y-98755000D03*
X139820000Y-96680000D03*
D21*
X152895000Y-94520000D03*
X150820000Y-94520000D03*
D22*
X170884000Y-114506000D03*
X167784000Y-114506000D03*
D23*
X174951700Y-99164600D03*
X177026700Y-99164600D03*
D21*
X135585000Y-109070000D03*
X133510000Y-109070000D03*
D24*
X176649600Y-101581500D03*
X176649600Y-103656500D03*
D15*
X147985000Y-97905000D03*
X147985000Y-99175000D03*
X147985000Y-100445000D03*
X147985000Y-101715000D03*
X147985000Y-102985000D03*
X147985000Y-104255000D03*
X147985000Y-105525000D03*
X147985000Y-106795000D03*
X152935000Y-106795000D03*
X152935000Y-105525000D03*
X152935000Y-104255000D03*
X152935000Y-102985000D03*
X152935000Y-101715000D03*
X152935000Y-100445000D03*
X152935000Y-99175000D03*
X152935000Y-97905000D03*
D12*
X181502000Y-114506000D03*
X175402000Y-114506000D03*
D25*
X132900000Y-126400000D03*
D26*
X132900000Y-123900000D03*
X130900000Y-123900000D03*
X130900000Y-126400000D03*
D27*
X128040000Y-131150000D03*
X128040000Y-119150000D03*
D28*
X171870000Y-106230000D03*
X176790000Y-106240000D03*
X166610000Y-106170000D03*
X146633000Y-108012200D03*
X159640000Y-103719200D03*
X168361100Y-100006800D03*
D29*
X165190000Y-104710000D02*
X166610000Y-106130000D01*
X176790000Y-106240000D02*
X176649600Y-106099600D01*
X165190000Y-103150000D02*
X165190000Y-104710000D01*
X165190000Y-103150000D02*
X165263800Y-103076200D01*
X171758600Y-106118600D02*
X171758600Y-103076200D01*
X164744600Y-102704600D02*
X165190000Y-103150000D01*
X176649600Y-106099600D02*
X176649600Y-103656500D01*
X171870000Y-106230000D02*
X171758600Y-106118600D01*
X166610000Y-106130000D02*
X166610000Y-106170000D01*
X163238400Y-102704600D02*
X164744600Y-102704600D01*
X166650000Y-106170000D02*
X166640000Y-106160000D01*
X166610000Y-106170000D02*
X166650000Y-106170000D01*
X165263800Y-103076200D02*
X166808600Y-103076200D01*
X140630000Y-109070000D02*
X140690000Y-109010000D01*
X146767800Y-108012200D02*
X147985000Y-106795000D01*
X146633000Y-108012200D02*
X146767800Y-108012200D01*
X135585000Y-109070000D02*
X140630000Y-109070000D01*
X149315900Y-102604100D02*
X149315900Y-104655900D01*
X149061800Y-102350000D02*
X149315900Y-102604100D01*
X142470000Y-102350000D02*
X149061800Y-102350000D01*
X149315900Y-104655900D02*
X148446800Y-105525000D01*
X139820000Y-99700000D02*
X142470000Y-102350000D01*
X148446800Y-105525000D02*
X147985000Y-105525000D01*
X140690000Y-104130000D02*
X142470000Y-102350000D01*
X139820000Y-98755000D02*
X139820000Y-99700000D01*
X171252000Y-99266200D02*
X171758600Y-99266200D01*
X165615300Y-96218200D02*
X165279800Y-96218200D01*
X164218400Y-95156800D02*
X165279800Y-96218200D01*
X153183800Y-94520000D02*
X153820600Y-95156800D01*
X153820600Y-95156800D02*
X164218400Y-95156800D01*
X169957700Y-100560500D02*
X171252000Y-99266200D01*
X152895000Y-94520000D02*
X153183800Y-94520000D01*
X168317800Y-102200400D02*
X169957700Y-100560500D01*
X153820600Y-97019400D02*
X152935000Y-97905000D01*
X168317800Y-110518400D02*
X153836000Y-110518400D01*
X168317800Y-110518400D02*
X168317800Y-102200400D01*
X153820600Y-95156800D02*
X153820600Y-97019400D01*
X137954400Y-126400000D02*
X132900000Y-126400000D01*
X169957700Y-100560500D02*
X165615300Y-96218200D01*
X153836000Y-110518400D02*
X137954400Y-126400000D01*
X143570000Y-98055000D02*
X147230000Y-101715000D01*
X147230000Y-101715000D02*
X147985000Y-101715000D01*
X169867800Y-101931000D02*
X171262600Y-100536200D01*
X174951700Y-99164600D02*
X173580100Y-100536200D01*
X170884000Y-114506000D02*
X175402000Y-114506000D01*
X170884000Y-114506000D02*
X170884000Y-113288000D01*
X170884000Y-113288000D02*
X169867800Y-112271800D01*
X169867800Y-112271800D02*
X169867800Y-101931000D01*
X171262600Y-100536200D02*
X171758600Y-100536200D01*
X173580100Y-100536200D02*
X171758600Y-100536200D01*
X173104800Y-101806200D02*
X173104800Y-108831400D01*
X173104800Y-108831400D02*
X171417800Y-110518400D01*
X173699400Y-109426000D02*
X176418000Y-109426000D01*
X173329500Y-101581500D02*
X173104800Y-101806200D01*
X173104800Y-108831400D02*
X173699400Y-109426000D01*
X173104800Y-101806200D02*
X171758600Y-101806200D01*
X176649600Y-101581500D02*
X173329500Y-101581500D01*
X145906100Y-114821400D02*
X136827500Y-123900000D01*
X147516400Y-104255000D02*
X145906100Y-105865300D01*
X147985000Y-104255000D02*
X147516400Y-104255000D01*
X136827500Y-123900000D02*
X132900000Y-123900000D01*
X145906100Y-105865300D02*
X145906100Y-114821400D01*
X147985000Y-102985000D02*
X147572700Y-102985000D01*
X136153000Y-121549000D02*
X131563000Y-121549000D01*
X145076800Y-112625200D02*
X136153000Y-121549000D01*
X130933000Y-122219000D02*
X130900000Y-122252000D01*
X145142300Y-112625200D02*
X145076800Y-112625200D01*
X147572700Y-102985000D02*
X145142300Y-105415400D01*
X145142300Y-105415400D02*
X145142300Y-112625200D01*
X130933000Y-122179000D02*
X130933000Y-122219000D01*
X131563000Y-121549000D02*
X130933000Y-122179000D01*
X130900000Y-122252000D02*
X130900000Y-123900000D01*
X166808600Y-101806200D02*
X166707000Y-101704600D01*
X162174000Y-101312800D02*
X162174000Y-99810000D01*
X162174000Y-99810000D02*
X148620000Y-99810000D01*
X166707000Y-101704600D02*
X162565800Y-101704600D01*
X162174000Y-97324000D02*
X163279800Y-96218200D01*
X162174000Y-99810000D02*
X162174000Y-97324000D01*
X148620000Y-99810000D02*
X147985000Y-99175000D01*
X162565800Y-101704600D02*
X162174000Y-101312800D01*
D30*
X181502000Y-114506000D02*
X181502000Y-113920105D01*
X186753000Y-111989000D02*
X184019000Y-111989000D01*
X184019000Y-111989000D02*
X181502000Y-114506000D01*
X186753000Y-109449000D02*
X182541000Y-109449000D01*
X182541000Y-109449000D02*
X182518000Y-109426000D01*
D29*
X166808600Y-100536200D02*
X163406800Y-100536200D01*
X163406800Y-100536200D02*
X163238400Y-100704600D01*
X154264600Y-103719200D02*
X154165400Y-103620000D01*
X152935000Y-106795000D02*
X153350600Y-106795000D01*
X166808600Y-99266200D02*
X167620500Y-99266200D01*
X148618100Y-100445000D02*
X147985000Y-100445000D01*
X167620500Y-99266200D02*
X168361100Y-100006800D01*
X154165400Y-103620000D02*
X151793100Y-103620000D01*
X154264600Y-105881000D02*
X154264600Y-103719200D01*
X153350600Y-106795000D02*
X154264600Y-105881000D01*
X151793100Y-103620000D02*
X148618100Y-100445000D01*
X159640000Y-103719200D02*
X154264600Y-103719200D01*
G04 #@! TA.AperFunction,Conductor*
G36*
X161482621Y-100463502D02*
G01*
X161529114Y-100517158D01*
X161540500Y-100569500D01*
X161540500Y-101250406D01*
X161540500Y-101375194D01*
X161564845Y-101497585D01*
X161612600Y-101612875D01*
X161681929Y-101716633D01*
X161681931Y-101716635D01*
X162017054Y-102051758D01*
X162051080Y-102114070D01*
X162047565Y-102180482D01*
X162041005Y-102200278D01*
X162030400Y-102304083D01*
X162030400Y-102450600D01*
X164446401Y-102450600D01*
X164452011Y-102444989D01*
X164466402Y-102395979D01*
X164520058Y-102349486D01*
X164572400Y-102338100D01*
X165346042Y-102338100D01*
X165414163Y-102358102D01*
X165460656Y-102411758D01*
X165470760Y-102482032D01*
X165454496Y-102528238D01*
X165374919Y-102662796D01*
X165328607Y-102822200D01*
X166936600Y-102822200D01*
X167004721Y-102842202D01*
X167051214Y-102895858D01*
X167062600Y-102948200D01*
X167062600Y-103884199D01*
X167558300Y-103884199D01*
X167626421Y-103904201D01*
X167672914Y-103957857D01*
X167684300Y-104010199D01*
X167684300Y-109080729D01*
X167664298Y-109148850D01*
X167610642Y-109195343D01*
X167597937Y-109200332D01*
X167595064Y-109201283D01*
X167444147Y-109294370D01*
X167444141Y-109294375D01*
X167318775Y-109419741D01*
X167318770Y-109419747D01*
X167304996Y-109442079D01*
X167225685Y-109570662D01*
X167169913Y-109738974D01*
X167166568Y-109771709D01*
X167139748Y-109837441D01*
X167081645Y-109878240D01*
X167041222Y-109884900D01*
X153773603Y-109884900D01*
X153700568Y-109899428D01*
X153651215Y-109909245D01*
X153651213Y-109909245D01*
X153651212Y-109909246D01*
X153535923Y-109957001D01*
X153432171Y-110026326D01*
X153432164Y-110026331D01*
X137728901Y-125729595D01*
X137666589Y-125763621D01*
X137639806Y-125766500D01*
X134334500Y-125766500D01*
X134266379Y-125746498D01*
X134219886Y-125692842D01*
X134208500Y-125640500D01*
X134208500Y-125551367D01*
X134208499Y-125551350D01*
X134201990Y-125490803D01*
X134201988Y-125490795D01*
X134150889Y-125353797D01*
X134150887Y-125353792D01*
X134063261Y-125236738D01*
X133946207Y-125149112D01*
X133946202Y-125149110D01*
X133805922Y-125096787D01*
X133749086Y-125054240D01*
X133724276Y-124987720D01*
X133739368Y-124918346D01*
X133760854Y-124889643D01*
X133906198Y-124744300D01*
X134016181Y-124587229D01*
X134071638Y-124542901D01*
X134119394Y-124533500D01*
X136889893Y-124533500D01*
X136889894Y-124533500D01*
X137012285Y-124509155D01*
X137127575Y-124461400D01*
X137231333Y-124392071D01*
X146398171Y-115225233D01*
X146467500Y-115121475D01*
X146515255Y-115006185D01*
X146539600Y-114883794D01*
X146539600Y-114759006D01*
X146539600Y-109046700D01*
X146559602Y-108978579D01*
X146613258Y-108932086D01*
X146665600Y-108920700D01*
X146728487Y-108920700D01*
X146915288Y-108880994D01*
X147089752Y-108803318D01*
X147244253Y-108691066D01*
X147244255Y-108691064D01*
X147372034Y-108549151D01*
X147372035Y-108549149D01*
X147372040Y-108549144D01*
X147467527Y-108383756D01*
X147526542Y-108202128D01*
X147528075Y-108187542D01*
X147555086Y-108121884D01*
X147564280Y-108111623D01*
X148035501Y-107640404D01*
X148097813Y-107606379D01*
X148124596Y-107603500D01*
X148876511Y-107603500D01*
X148876511Y-107603499D01*
X148913831Y-107600562D01*
X149073601Y-107554145D01*
X149073603Y-107554143D01*
X149073605Y-107554143D01*
X149145204Y-107511799D01*
X149216807Y-107469453D01*
X149334453Y-107351807D01*
X149419145Y-107208601D01*
X149465562Y-107048831D01*
X149468499Y-107011511D01*
X149468500Y-107011511D01*
X149468500Y-106578489D01*
X149468499Y-106578488D01*
X149465562Y-106541171D01*
X149465562Y-106541170D01*
X149465562Y-106541169D01*
X149419145Y-106381399D01*
X149419143Y-106381397D01*
X149419143Y-106381394D01*
X149334456Y-106238198D01*
X149334455Y-106238197D01*
X149334453Y-106238193D01*
X149334449Y-106238189D01*
X149333708Y-106237233D01*
X149333356Y-106236337D01*
X149330418Y-106231369D01*
X149331219Y-106230895D01*
X149307756Y-106171150D01*
X149321652Y-106101526D01*
X149333708Y-106082767D01*
X149334445Y-106081814D01*
X149334453Y-106081807D01*
X149385268Y-105995883D01*
X149419143Y-105938605D01*
X149419143Y-105938603D01*
X149419145Y-105938601D01*
X149465562Y-105778831D01*
X149468499Y-105741511D01*
X149468500Y-105741511D01*
X149468500Y-105451394D01*
X149488502Y-105383273D01*
X149505405Y-105362299D01*
X149643648Y-105224056D01*
X149807971Y-105059733D01*
X149877300Y-104955975D01*
X149925055Y-104840685D01*
X149949400Y-104718294D01*
X149949400Y-104593506D01*
X149949400Y-102976394D01*
X149969402Y-102908273D01*
X150023058Y-102861780D01*
X150093332Y-102851676D01*
X150157912Y-102881170D01*
X150164495Y-102887299D01*
X151389262Y-104112067D01*
X151389271Y-104112074D01*
X151395498Y-104116235D01*
X151441028Y-104170710D01*
X151451500Y-104221002D01*
X151451500Y-104471511D01*
X151454437Y-104508828D01*
X151454437Y-104508829D01*
X151500856Y-104668605D01*
X151585543Y-104811802D01*
X151586298Y-104812775D01*
X151586652Y-104813676D01*
X151589582Y-104818631D01*
X151588782Y-104819103D01*
X151612244Y-104878861D01*
X151598342Y-104948483D01*
X151586298Y-104967225D01*
X151585543Y-104968197D01*
X151500856Y-105111394D01*
X151454437Y-105271170D01*
X151454437Y-105271171D01*
X151451500Y-105308488D01*
X151451500Y-105741511D01*
X151454437Y-105778828D01*
X151454437Y-105778829D01*
X151500856Y-105938605D01*
X151585543Y-106081802D01*
X151586298Y-106082775D01*
X151586652Y-106083676D01*
X151589582Y-106088631D01*
X151588782Y-106089103D01*
X151612244Y-106148861D01*
X151598342Y-106218483D01*
X151586298Y-106237225D01*
X151585543Y-106238197D01*
X151500856Y-106381394D01*
X151454437Y-106541170D01*
X151454437Y-106541171D01*
X151451500Y-106578488D01*
X151451500Y-107011511D01*
X151454437Y-107048828D01*
X151454437Y-107048829D01*
X151500856Y-107208605D01*
X151585544Y-107351803D01*
X151585549Y-107351810D01*
X151703189Y-107469450D01*
X151703196Y-107469455D01*
X151846394Y-107554143D01*
X151846397Y-107554143D01*
X151846399Y-107554145D01*
X152006169Y-107600562D01*
X152043488Y-107603499D01*
X152043489Y-107603500D01*
X152043498Y-107603500D01*
X153826511Y-107603500D01*
X153826511Y-107603499D01*
X153863831Y-107600562D01*
X154023601Y-107554145D01*
X154023603Y-107554143D01*
X154023605Y-107554143D01*
X154095204Y-107511799D01*
X154166807Y-107469453D01*
X154284453Y-107351807D01*
X154369145Y-107208601D01*
X154415562Y-107048831D01*
X154418499Y-107011511D01*
X154418500Y-107011511D01*
X154418500Y-106675194D01*
X154438502Y-106607073D01*
X154455405Y-106586099D01*
X154500335Y-106541169D01*
X154756671Y-106284833D01*
X154826000Y-106181075D01*
X154873755Y-106065785D01*
X154898100Y-105943394D01*
X154898100Y-105818606D01*
X154898100Y-104478700D01*
X154918102Y-104410579D01*
X154971758Y-104364086D01*
X155024100Y-104352700D01*
X158931800Y-104352700D01*
X158999921Y-104372702D01*
X159025437Y-104394390D01*
X159028747Y-104398066D01*
X159183248Y-104510318D01*
X159357712Y-104587994D01*
X159544513Y-104627700D01*
X159735487Y-104627700D01*
X159922288Y-104587994D01*
X160096752Y-104510318D01*
X160251253Y-104398066D01*
X160379040Y-104256144D01*
X160474527Y-104090756D01*
X160533542Y-103909128D01*
X160553504Y-103719200D01*
X160533542Y-103529272D01*
X160474527Y-103347644D01*
X160379040Y-103182256D01*
X160379038Y-103182254D01*
X160379034Y-103182248D01*
X160309584Y-103105116D01*
X162030400Y-103105116D01*
X162041005Y-103208918D01*
X162041006Y-103208921D01*
X162096742Y-103377125D01*
X162189765Y-103527939D01*
X162189770Y-103527945D01*
X162315054Y-103653229D01*
X162315060Y-103653234D01*
X162465874Y-103746257D01*
X162634078Y-103801993D01*
X162634081Y-103801994D01*
X162737883Y-103812599D01*
X162737883Y-103812600D01*
X162984400Y-103812600D01*
X163492400Y-103812600D01*
X163738917Y-103812600D01*
X163738916Y-103812599D01*
X163842718Y-103801994D01*
X163842721Y-103801993D01*
X164010925Y-103746257D01*
X164161739Y-103653234D01*
X164161745Y-103653229D01*
X164287029Y-103527945D01*
X164287034Y-103527939D01*
X164380057Y-103377125D01*
X164395606Y-103330200D01*
X165328607Y-103330200D01*
X165374918Y-103489601D01*
X165459548Y-103632701D01*
X165459549Y-103632703D01*
X165577096Y-103750250D01*
X165577098Y-103750251D01*
X165720198Y-103834881D01*
X165879851Y-103881265D01*
X165879849Y-103881265D01*
X165917143Y-103884199D01*
X166554600Y-103884199D01*
X166554600Y-103330200D01*
X165328607Y-103330200D01*
X164395606Y-103330200D01*
X164435793Y-103208921D01*
X164435794Y-103208918D01*
X164446399Y-103105116D01*
X164446400Y-103105116D01*
X164446400Y-102958600D01*
X163492400Y-102958600D01*
X163492400Y-103812600D01*
X162984400Y-103812600D01*
X162984400Y-102958600D01*
X162030400Y-102958600D01*
X162030400Y-103105116D01*
X160309584Y-103105116D01*
X160251255Y-103040335D01*
X160096752Y-102928082D01*
X159922288Y-102850406D01*
X159735487Y-102810700D01*
X159544513Y-102810700D01*
X159357711Y-102850406D01*
X159183247Y-102928082D01*
X159028747Y-103040333D01*
X159025437Y-103044010D01*
X158964991Y-103081250D01*
X158931800Y-103085700D01*
X154544500Y-103085700D01*
X154476379Y-103065698D01*
X154429886Y-103012042D01*
X154418500Y-102959700D01*
X154418500Y-102768489D01*
X154418499Y-102768488D01*
X154415562Y-102731171D01*
X154415562Y-102731170D01*
X154415562Y-102731169D01*
X154369145Y-102571399D01*
X154369143Y-102571397D01*
X154369143Y-102571394D01*
X154284456Y-102428198D01*
X154284455Y-102428197D01*
X154284453Y-102428193D01*
X154284449Y-102428189D01*
X154283708Y-102427233D01*
X154283356Y-102426337D01*
X154280418Y-102421369D01*
X154281219Y-102420895D01*
X154257756Y-102361150D01*
X154271652Y-102291526D01*
X154283708Y-102272767D01*
X154284445Y-102271814D01*
X154284453Y-102271807D01*
X154369145Y-102128601D01*
X154415562Y-101968831D01*
X154418499Y-101931511D01*
X154418500Y-101931511D01*
X154418500Y-101498489D01*
X154418499Y-101498488D01*
X154415562Y-101461171D01*
X154415562Y-101461170D01*
X154393258Y-101384399D01*
X154369145Y-101301399D01*
X154369143Y-101301397D01*
X154369143Y-101301394D01*
X154284456Y-101158198D01*
X154284455Y-101158197D01*
X154284453Y-101158193D01*
X154284449Y-101158189D01*
X154283708Y-101157233D01*
X154283356Y-101156337D01*
X154280418Y-101151369D01*
X154281219Y-101150895D01*
X154257756Y-101091150D01*
X154271652Y-101021526D01*
X154283708Y-101002767D01*
X154284445Y-101001814D01*
X154284453Y-101001807D01*
X154351672Y-100888147D01*
X154369143Y-100858605D01*
X154369143Y-100858603D01*
X154369145Y-100858601D01*
X154415562Y-100698831D01*
X154418499Y-100661511D01*
X154418500Y-100661511D01*
X154418500Y-100569500D01*
X154438502Y-100501379D01*
X154492158Y-100454886D01*
X154544500Y-100443500D01*
X161414500Y-100443500D01*
X161482621Y-100463502D01*
G37*
G04 #@! TD.AperFunction*
G04 #@! TA.AperFunction,Conductor*
G36*
X171954721Y-102842202D02*
G01*
X172001214Y-102895858D01*
X172012600Y-102948200D01*
X172012600Y-103884199D01*
X172345300Y-103884199D01*
X172413421Y-103904201D01*
X172459914Y-103957857D01*
X172471300Y-104010199D01*
X172471300Y-108516804D01*
X172451298Y-108584925D01*
X172434395Y-108605899D01*
X171942299Y-109097995D01*
X171879987Y-109132021D01*
X171853204Y-109134900D01*
X170967255Y-109134900D01*
X170863374Y-109145512D01*
X170695058Y-109201286D01*
X170693440Y-109202285D01*
X170692176Y-109202630D01*
X170688412Y-109204386D01*
X170688111Y-109203742D01*
X170624959Y-109221018D01*
X170557222Y-109199754D01*
X170511734Y-109145244D01*
X170501300Y-109095040D01*
X170501300Y-103953609D01*
X170521302Y-103885488D01*
X170574958Y-103838995D01*
X170645232Y-103828891D01*
X170662284Y-103833714D01*
X170662588Y-103832670D01*
X170829851Y-103881265D01*
X170829849Y-103881265D01*
X170867143Y-103884199D01*
X171504600Y-103884199D01*
X171504600Y-102948200D01*
X171524602Y-102880079D01*
X171578258Y-102833586D01*
X171630600Y-102822200D01*
X171886600Y-102822200D01*
X171954721Y-102842202D01*
G37*
G04 #@! TD.AperFunction*
G04 #@! TA.AperFunction,Conductor*
G36*
X200396621Y-85955502D02*
G01*
X200443114Y-86009158D01*
X200454500Y-86061500D01*
X200454500Y-113462708D01*
X200398193Y-135658822D01*
X200378019Y-135726889D01*
X200324245Y-135773246D01*
X200272194Y-135784500D01*
X120731500Y-135784500D01*
X120663379Y-135764498D01*
X120616886Y-135710842D01*
X120605500Y-135658500D01*
X120605500Y-131149993D01*
X125527041Y-131149993D01*
X125527041Y-131150006D01*
X125546854Y-131464944D01*
X125546856Y-131464961D01*
X125605989Y-131774942D01*
X125605992Y-131774955D01*
X125703509Y-132075079D01*
X125703513Y-132075088D01*
X125837875Y-132360622D01*
X125837882Y-132360636D01*
X126006969Y-132627075D01*
X126006971Y-132627078D01*
X126096042Y-132734746D01*
X127065532Y-131765256D01*
X127162829Y-131899175D01*
X127290825Y-132027171D01*
X127424741Y-132124466D01*
X126452522Y-133096686D01*
X126452522Y-133096688D01*
X126693482Y-133271756D01*
X126970034Y-133423792D01*
X127263460Y-133539968D01*
X127263466Y-133539970D01*
X127569103Y-133618444D01*
X127569130Y-133618449D01*
X127882195Y-133657998D01*
X127882214Y-133658000D01*
X128197786Y-133658000D01*
X128197804Y-133657998D01*
X128510869Y-133618449D01*
X128510896Y-133618444D01*
X128816533Y-133539970D01*
X128816539Y-133539968D01*
X129109965Y-133423792D01*
X129386512Y-133271759D01*
X129627476Y-133096688D01*
X129627476Y-133096686D01*
X128655257Y-132124466D01*
X128789175Y-132027171D01*
X128917171Y-131899175D01*
X129014467Y-131765257D01*
X129983956Y-132734746D01*
X130073030Y-132627075D01*
X130073033Y-132627071D01*
X130242117Y-132360636D01*
X130242124Y-132360622D01*
X130376486Y-132075088D01*
X130376490Y-132075079D01*
X130474007Y-131774955D01*
X130474010Y-131774942D01*
X130533143Y-131464961D01*
X130533145Y-131464944D01*
X130552959Y-131150006D01*
X130552959Y-131149993D01*
X130533145Y-130835055D01*
X130533143Y-130835038D01*
X130474010Y-130525057D01*
X130474007Y-130525044D01*
X130376490Y-130224920D01*
X130376486Y-130224911D01*
X130242124Y-129939377D01*
X130242117Y-129939363D01*
X130073030Y-129672924D01*
X130073028Y-129672921D01*
X129983956Y-129565252D01*
X129014466Y-130534741D01*
X128917171Y-130400825D01*
X128789175Y-130272829D01*
X128655256Y-130175532D01*
X129627476Y-129203312D01*
X129627476Y-129203310D01*
X129386513Y-129028240D01*
X129109965Y-128876207D01*
X128816539Y-128760031D01*
X128816533Y-128760029D01*
X128510896Y-128681555D01*
X128510869Y-128681550D01*
X128197804Y-128642001D01*
X128197786Y-128642000D01*
X127882214Y-128642000D01*
X127882195Y-128642001D01*
X127569130Y-128681550D01*
X127569103Y-128681555D01*
X127263466Y-128760029D01*
X127263460Y-128760031D01*
X126970034Y-128876207D01*
X126693486Y-129028240D01*
X126452522Y-129203310D01*
X126452522Y-129203312D01*
X127424742Y-130175532D01*
X127290825Y-130272829D01*
X127162829Y-130400825D01*
X127065532Y-130534742D01*
X126096042Y-129565252D01*
X126006972Y-129672921D01*
X126006969Y-129672924D01*
X125837882Y-129939363D01*
X125837875Y-129939377D01*
X125703513Y-130224911D01*
X125703509Y-130224920D01*
X125605992Y-130525044D01*
X125605989Y-130525057D01*
X125546856Y-130835038D01*
X125546854Y-130835055D01*
X125527041Y-131149993D01*
X120605500Y-131149993D01*
X120605500Y-123900000D01*
X129586502Y-123900000D01*
X129606457Y-124128087D01*
X129665716Y-124349243D01*
X129762477Y-124556749D01*
X129893802Y-124744300D01*
X130055700Y-124906198D01*
X130055703Y-124906200D01*
X130243253Y-125037525D01*
X130248015Y-125040274D01*
X130246971Y-125042082D01*
X130293439Y-125082990D01*
X130312905Y-125151265D01*
X130292369Y-125219227D01*
X130247223Y-125258354D01*
X130248267Y-125260161D01*
X130243501Y-125262912D01*
X130172109Y-125312899D01*
X130795464Y-125936253D01*
X130716657Y-125957370D01*
X130608343Y-126019905D01*
X130519905Y-126108343D01*
X130457370Y-126216657D01*
X130436254Y-126295463D01*
X129812900Y-125672109D01*
X129762913Y-125743500D01*
X129666188Y-125950926D01*
X129666186Y-125950931D01*
X129606951Y-126171997D01*
X129587004Y-126400000D01*
X129606951Y-126628002D01*
X129666186Y-126849068D01*
X129666188Y-126849073D01*
X129762913Y-127056501D01*
X129812899Y-127127888D01*
X130436253Y-126504534D01*
X130457370Y-126583343D01*
X130519905Y-126691657D01*
X130608343Y-126780095D01*
X130716657Y-126842630D01*
X130795462Y-126863745D01*
X130172110Y-127487097D01*
X130172110Y-127487100D01*
X130243498Y-127537086D01*
X130450926Y-127633811D01*
X130450931Y-127633813D01*
X130671999Y-127693048D01*
X130671995Y-127693048D01*
X130900000Y-127712995D01*
X131128002Y-127693048D01*
X131349068Y-127633813D01*
X131349073Y-127633811D01*
X131556495Y-127537089D01*
X131561902Y-127533303D01*
X131629174Y-127510610D01*
X131698036Y-127527891D01*
X131735050Y-127561005D01*
X131736738Y-127563261D01*
X131853792Y-127650887D01*
X131853794Y-127650888D01*
X131853796Y-127650889D01*
X131912875Y-127672924D01*
X131990795Y-127701988D01*
X131990803Y-127701990D01*
X132051350Y-127708499D01*
X132051355Y-127708499D01*
X132051362Y-127708500D01*
X132051368Y-127708500D01*
X133748632Y-127708500D01*
X133748638Y-127708500D01*
X133748645Y-127708499D01*
X133748649Y-127708499D01*
X133809196Y-127701990D01*
X133809199Y-127701989D01*
X133809201Y-127701989D01*
X133946204Y-127650889D01*
X133969018Y-127633811D01*
X134063261Y-127563261D01*
X134150887Y-127446207D01*
X134150887Y-127446206D01*
X134150889Y-127446204D01*
X134201989Y-127309201D01*
X134208500Y-127248638D01*
X134208500Y-127159500D01*
X134228502Y-127091379D01*
X134282158Y-127044886D01*
X134334500Y-127033500D01*
X138016793Y-127033500D01*
X138016794Y-127033500D01*
X138139185Y-127009155D01*
X138254475Y-126961400D01*
X138358233Y-126892071D01*
X150068788Y-115181516D01*
X166626000Y-115181516D01*
X166636605Y-115285318D01*
X166636606Y-115285321D01*
X166692342Y-115453525D01*
X166785365Y-115604339D01*
X166785370Y-115604345D01*
X166910654Y-115729629D01*
X166910660Y-115729634D01*
X167061474Y-115822657D01*
X167229678Y-115878393D01*
X167229681Y-115878394D01*
X167333483Y-115888999D01*
X167333483Y-115889000D01*
X167530000Y-115889000D01*
X168038000Y-115889000D01*
X168234517Y-115889000D01*
X168234516Y-115888999D01*
X168338318Y-115878394D01*
X168338321Y-115878393D01*
X168506525Y-115822657D01*
X168657339Y-115729634D01*
X168657345Y-115729629D01*
X168782629Y-115604345D01*
X168782634Y-115604339D01*
X168875657Y-115453525D01*
X168931393Y-115285321D01*
X168931394Y-115285318D01*
X168941999Y-115181516D01*
X168942000Y-115181516D01*
X168942000Y-114760000D01*
X168038000Y-114760000D01*
X168038000Y-115889000D01*
X167530000Y-115889000D01*
X167530000Y-114760000D01*
X166626000Y-114760000D01*
X166626000Y-115181516D01*
X150068788Y-115181516D01*
X151419821Y-113830483D01*
X166626000Y-113830483D01*
X166626000Y-114252000D01*
X167530000Y-114252000D01*
X168038000Y-114252000D01*
X168942000Y-114252000D01*
X168942000Y-113830483D01*
X168931394Y-113726681D01*
X168931393Y-113726678D01*
X168875657Y-113558474D01*
X168782634Y-113407660D01*
X168782629Y-113407654D01*
X168657345Y-113282370D01*
X168657339Y-113282365D01*
X168506525Y-113189342D01*
X168338321Y-113133606D01*
X168338318Y-113133605D01*
X168234516Y-113123000D01*
X168038000Y-113123000D01*
X168038000Y-114252000D01*
X167530000Y-114252000D01*
X167530000Y-113123000D01*
X167333483Y-113123000D01*
X167229681Y-113133605D01*
X167229678Y-113133606D01*
X167061474Y-113189342D01*
X166910660Y-113282365D01*
X166910654Y-113282370D01*
X166785370Y-113407654D01*
X166785365Y-113407660D01*
X166692342Y-113558474D01*
X166636606Y-113726678D01*
X166636605Y-113726681D01*
X166626000Y-113830483D01*
X151419821Y-113830483D01*
X154061499Y-111188805D01*
X154123811Y-111154779D01*
X154150594Y-111151900D01*
X167041221Y-111151900D01*
X167109342Y-111171902D01*
X167155835Y-111225558D01*
X167166569Y-111265094D01*
X167169912Y-111297825D01*
X167225685Y-111466138D01*
X167318770Y-111617052D01*
X167318775Y-111617058D01*
X167444141Y-111742424D01*
X167444147Y-111742429D01*
X167444148Y-111742430D01*
X167595062Y-111835515D01*
X167763374Y-111891287D01*
X167867255Y-111901900D01*
X168768344Y-111901899D01*
X168872226Y-111891287D01*
X169040538Y-111835515D01*
X169042152Y-111834519D01*
X169043412Y-111834174D01*
X169047188Y-111832414D01*
X169047488Y-111833059D01*
X169110629Y-111815781D01*
X169178369Y-111837038D01*
X169223862Y-111891544D01*
X169234300Y-111941759D01*
X169234300Y-112209406D01*
X169234300Y-112334194D01*
X169258645Y-112456585D01*
X169306400Y-112571875D01*
X169375729Y-112675633D01*
X169375731Y-112675635D01*
X169907111Y-113207015D01*
X169941137Y-113269327D01*
X169936072Y-113340142D01*
X169907113Y-113385204D01*
X169884970Y-113407347D01*
X169791885Y-113558262D01*
X169736113Y-113726572D01*
X169736112Y-113726579D01*
X169725500Y-113830446D01*
X169725500Y-115181544D01*
X169736112Y-115285425D01*
X169791885Y-115453738D01*
X169884970Y-115604652D01*
X169884975Y-115604658D01*
X170010341Y-115730024D01*
X170010347Y-115730029D01*
X170010348Y-115730030D01*
X170161262Y-115823115D01*
X170329574Y-115878887D01*
X170433455Y-115889500D01*
X171334544Y-115889499D01*
X171438426Y-115878887D01*
X171606738Y-115823115D01*
X171757652Y-115730030D01*
X171883030Y-115604652D01*
X171976115Y-115453738D01*
X172031887Y-115285426D01*
X172035231Y-115252690D01*
X172062052Y-115186959D01*
X172120155Y-115146160D01*
X172160578Y-115139500D01*
X174067500Y-115139500D01*
X174135621Y-115159502D01*
X174182114Y-115213158D01*
X174193500Y-115265500D01*
X174193500Y-115981554D01*
X174193499Y-115981554D01*
X174204112Y-116085421D01*
X174204113Y-116085427D01*
X174259885Y-116253739D01*
X174352970Y-116404652D01*
X174352975Y-116404658D01*
X174478341Y-116530024D01*
X174478347Y-116530029D01*
X174478348Y-116530030D01*
X174629261Y-116623115D01*
X174797573Y-116678887D01*
X174837527Y-116682968D01*
X174901446Y-116689500D01*
X174901454Y-116689500D01*
X175902554Y-116689500D01*
X175961906Y-116683435D01*
X176006427Y-116678887D01*
X176174739Y-116623115D01*
X176325652Y-116530030D01*
X176451030Y-116404652D01*
X176544115Y-116253739D01*
X176599887Y-116085427D01*
X176604435Y-116040906D01*
X176610500Y-115981554D01*
X180293499Y-115981554D01*
X180304112Y-116085421D01*
X180304113Y-116085427D01*
X180359885Y-116253739D01*
X180452970Y-116404652D01*
X180452975Y-116404658D01*
X180578341Y-116530024D01*
X180578347Y-116530029D01*
X180578348Y-116530030D01*
X180729261Y-116623115D01*
X180897573Y-116678887D01*
X180937527Y-116682968D01*
X181001446Y-116689500D01*
X181001454Y-116689500D01*
X182002554Y-116689500D01*
X182061906Y-116683435D01*
X182106427Y-116678887D01*
X182274739Y-116623115D01*
X182425652Y-116530030D01*
X182551030Y-116404652D01*
X182644115Y-116253739D01*
X182699887Y-116085427D01*
X182704435Y-116040906D01*
X182710500Y-115981554D01*
X182710500Y-114210239D01*
X182730502Y-114142118D01*
X182747405Y-114121144D01*
X184234144Y-112634405D01*
X184296456Y-112600379D01*
X184323239Y-112597500D01*
X185268500Y-112597500D01*
X185336621Y-112617502D01*
X185383114Y-112671158D01*
X185394500Y-112723500D01*
X185394500Y-112887649D01*
X185401009Y-112948196D01*
X185401011Y-112948204D01*
X185452110Y-113085202D01*
X185452112Y-113085207D01*
X185539738Y-113202261D01*
X185656792Y-113289887D01*
X185656794Y-113289888D01*
X185656796Y-113289889D01*
X185673478Y-113296111D01*
X185793795Y-113340988D01*
X185793803Y-113340990D01*
X185854350Y-113347499D01*
X185854355Y-113347499D01*
X185854362Y-113347500D01*
X185854368Y-113347500D01*
X187651632Y-113347500D01*
X187651638Y-113347500D01*
X187651645Y-113347499D01*
X187651649Y-113347499D01*
X187712196Y-113340990D01*
X187712199Y-113340989D01*
X187712201Y-113340989D01*
X187849204Y-113289889D01*
X187966261Y-113202261D01*
X188017656Y-113133606D01*
X188053887Y-113085207D01*
X188053887Y-113085206D01*
X188053889Y-113085204D01*
X188104989Y-112948201D01*
X188107315Y-112926573D01*
X188111499Y-112887649D01*
X188111500Y-112887632D01*
X188111500Y-111090367D01*
X188111499Y-111090350D01*
X188104990Y-111029803D01*
X188104988Y-111029795D01*
X188075924Y-110951875D01*
X188053889Y-110892796D01*
X188053888Y-110892794D01*
X188053887Y-110892792D01*
X187966261Y-110775738D01*
X187849207Y-110688112D01*
X187849203Y-110688110D01*
X187734192Y-110645213D01*
X187677356Y-110602667D01*
X187652546Y-110536146D01*
X187667638Y-110466772D01*
X187685525Y-110441820D01*
X187828714Y-110286277D01*
X187828724Y-110286265D01*
X187848625Y-110255804D01*
X187951860Y-110097791D01*
X188042296Y-109891616D01*
X188097564Y-109673368D01*
X188116156Y-109449000D01*
X188097564Y-109224632D01*
X188092437Y-109204386D01*
X188042297Y-109006387D01*
X188042296Y-109006386D01*
X188042296Y-109006384D01*
X187951860Y-108800209D01*
X187895864Y-108714500D01*
X187828724Y-108611734D01*
X187828720Y-108611729D01*
X187676237Y-108446091D01*
X187569279Y-108362842D01*
X187498576Y-108307811D01*
X187300574Y-108200658D01*
X187300572Y-108200657D01*
X187300571Y-108200656D01*
X187087639Y-108127557D01*
X187087630Y-108127555D01*
X187043476Y-108120187D01*
X186865569Y-108090500D01*
X186640431Y-108090500D01*
X186513907Y-108111613D01*
X186418369Y-108127555D01*
X186418360Y-108127557D01*
X186205428Y-108200656D01*
X186205426Y-108200658D01*
X186007426Y-108307810D01*
X186007424Y-108307811D01*
X185829762Y-108446091D01*
X185677279Y-108611729D01*
X185677275Y-108611734D01*
X185565112Y-108783415D01*
X185511109Y-108829504D01*
X185459629Y-108840500D01*
X183852500Y-108840500D01*
X183784379Y-108820498D01*
X183737886Y-108766842D01*
X183726500Y-108714500D01*
X183726500Y-107950445D01*
X183719677Y-107883673D01*
X183715887Y-107846573D01*
X183660115Y-107678261D01*
X183567030Y-107527348D01*
X183567029Y-107527347D01*
X183567024Y-107527341D01*
X183441658Y-107401975D01*
X183441652Y-107401970D01*
X183290739Y-107308885D01*
X183206583Y-107280999D01*
X183122428Y-107253113D01*
X183122421Y-107253112D01*
X183018554Y-107242500D01*
X183018546Y-107242500D01*
X182017454Y-107242500D01*
X182017446Y-107242500D01*
X181913578Y-107253112D01*
X181913571Y-107253113D01*
X181745261Y-107308885D01*
X181594347Y-107401970D01*
X181594341Y-107401975D01*
X181468975Y-107527341D01*
X181468970Y-107527347D01*
X181375885Y-107678261D01*
X181320113Y-107846571D01*
X181320112Y-107846578D01*
X181309500Y-107950445D01*
X181309500Y-110901554D01*
X181309499Y-110901554D01*
X181320112Y-111005421D01*
X181320113Y-111005428D01*
X181328189Y-111029799D01*
X181375885Y-111173739D01*
X181452424Y-111297827D01*
X181468970Y-111324652D01*
X181468975Y-111324658D01*
X181594341Y-111450024D01*
X181594347Y-111450029D01*
X181594348Y-111450030D01*
X181745261Y-111543115D01*
X181913573Y-111598887D01*
X181953527Y-111602968D01*
X182017446Y-111609500D01*
X182017454Y-111609500D01*
X183018554Y-111609500D01*
X183077906Y-111603435D01*
X183122427Y-111598887D01*
X183255101Y-111554923D01*
X183326052Y-111552484D01*
X183387062Y-111588792D01*
X183418757Y-111652321D01*
X183411075Y-111722901D01*
X183383825Y-111763624D01*
X182634661Y-112512788D01*
X182572349Y-112546814D01*
X182501534Y-112541749D01*
X182456471Y-112512788D01*
X182425658Y-112481975D01*
X182425652Y-112481970D01*
X182384497Y-112456585D01*
X182274739Y-112388885D01*
X182190583Y-112360999D01*
X182106428Y-112333113D01*
X182106421Y-112333112D01*
X182002554Y-112322500D01*
X182002546Y-112322500D01*
X181001454Y-112322500D01*
X181001446Y-112322500D01*
X180897578Y-112333112D01*
X180897571Y-112333113D01*
X180729261Y-112388885D01*
X180578347Y-112481970D01*
X180578341Y-112481975D01*
X180452975Y-112607341D01*
X180452970Y-112607347D01*
X180359885Y-112758261D01*
X180304113Y-112926571D01*
X180304112Y-112926578D01*
X180293500Y-113030445D01*
X180293500Y-115981554D01*
X180293499Y-115981554D01*
X176610500Y-115981554D01*
X176610500Y-113030445D01*
X176602097Y-112948204D01*
X176599887Y-112926573D01*
X176544115Y-112758261D01*
X176451030Y-112607348D01*
X176451029Y-112607347D01*
X176451024Y-112607341D01*
X176325658Y-112481975D01*
X176325652Y-112481970D01*
X176284497Y-112456585D01*
X176174739Y-112388885D01*
X176090583Y-112360999D01*
X176006428Y-112333113D01*
X176006421Y-112333112D01*
X175902554Y-112322500D01*
X175902546Y-112322500D01*
X174901454Y-112322500D01*
X174901446Y-112322500D01*
X174797578Y-112333112D01*
X174797571Y-112333113D01*
X174629261Y-112388885D01*
X174478347Y-112481970D01*
X174478341Y-112481975D01*
X174352975Y-112607341D01*
X174352970Y-112607347D01*
X174259885Y-112758261D01*
X174204113Y-112926571D01*
X174204112Y-112926578D01*
X174193500Y-113030445D01*
X174193500Y-113746500D01*
X174173498Y-113814621D01*
X174119842Y-113861114D01*
X174067500Y-113872500D01*
X172160579Y-113872500D01*
X172092458Y-113852498D01*
X172045965Y-113798842D01*
X172035231Y-113759306D01*
X172031887Y-113726574D01*
X171999718Y-113629494D01*
X171976115Y-113558262D01*
X171883030Y-113407348D01*
X171883029Y-113407347D01*
X171883024Y-113407341D01*
X171757658Y-113281975D01*
X171757652Y-113281970D01*
X171606738Y-113188885D01*
X171606734Y-113188883D01*
X171606735Y-113188883D01*
X171570933Y-113177020D01*
X171512561Y-113136606D01*
X171494157Y-113105634D01*
X171485696Y-113085207D01*
X171445400Y-112987925D01*
X171376071Y-112884167D01*
X171287833Y-112795929D01*
X170538205Y-112046301D01*
X170504179Y-111983989D01*
X170501300Y-111957206D01*
X170501300Y-111941759D01*
X170521302Y-111873638D01*
X170574958Y-111827145D01*
X170645232Y-111817041D01*
X170688300Y-111832653D01*
X170688412Y-111832414D01*
X170691106Y-111833670D01*
X170693447Y-111834518D01*
X170695062Y-111835515D01*
X170863374Y-111891287D01*
X170967255Y-111901900D01*
X171868344Y-111901899D01*
X171972226Y-111891287D01*
X172140538Y-111835515D01*
X172291452Y-111742430D01*
X172416830Y-111617052D01*
X172509915Y-111466138D01*
X172565687Y-111297826D01*
X172576300Y-111193945D01*
X172576299Y-110307994D01*
X172596301Y-110239874D01*
X172613204Y-110218900D01*
X173015705Y-109816399D01*
X173078017Y-109782373D01*
X173148832Y-109787438D01*
X173193895Y-109816399D01*
X173295567Y-109918071D01*
X173399325Y-109987400D01*
X173514615Y-110035155D01*
X173637006Y-110059500D01*
X173761793Y-110059500D01*
X175083500Y-110059500D01*
X175151621Y-110079502D01*
X175198114Y-110133158D01*
X175209500Y-110185500D01*
X175209500Y-110901554D01*
X175209499Y-110901554D01*
X175220112Y-111005421D01*
X175220113Y-111005428D01*
X175228189Y-111029799D01*
X175275885Y-111173739D01*
X175352424Y-111297827D01*
X175368970Y-111324652D01*
X175368975Y-111324658D01*
X175494341Y-111450024D01*
X175494347Y-111450029D01*
X175494348Y-111450030D01*
X175645261Y-111543115D01*
X175813573Y-111598887D01*
X175853527Y-111602968D01*
X175917446Y-111609500D01*
X175917454Y-111609500D01*
X176918554Y-111609500D01*
X176977906Y-111603435D01*
X177022427Y-111598887D01*
X177190739Y-111543115D01*
X177341652Y-111450030D01*
X177467030Y-111324652D01*
X177560115Y-111173739D01*
X177615887Y-111005427D01*
X177620435Y-110960906D01*
X177626500Y-110901554D01*
X177626500Y-107950445D01*
X177619677Y-107883673D01*
X177615887Y-107846573D01*
X177560115Y-107678261D01*
X177467030Y-107527348D01*
X177467029Y-107527347D01*
X177467024Y-107527341D01*
X177341658Y-107401975D01*
X177341652Y-107401970D01*
X177190739Y-107308885D01*
X177106583Y-107280999D01*
X177022428Y-107253113D01*
X177022421Y-107253112D01*
X176918554Y-107242500D01*
X176918546Y-107242500D01*
X175917454Y-107242500D01*
X175917446Y-107242500D01*
X175813578Y-107253112D01*
X175813571Y-107253113D01*
X175645261Y-107308885D01*
X175494347Y-107401970D01*
X175494341Y-107401975D01*
X175368975Y-107527341D01*
X175368970Y-107527347D01*
X175275885Y-107678261D01*
X175220113Y-107846571D01*
X175220112Y-107846578D01*
X175209500Y-107950445D01*
X175209500Y-108666500D01*
X175189498Y-108734621D01*
X175135842Y-108781114D01*
X175083500Y-108792500D01*
X174013994Y-108792500D01*
X173945873Y-108772498D01*
X173924899Y-108755595D01*
X173775205Y-108605901D01*
X173741179Y-108543589D01*
X173738300Y-108516806D01*
X173738300Y-104044516D01*
X175416600Y-104044516D01*
X175427205Y-104148318D01*
X175427206Y-104148321D01*
X175482942Y-104316525D01*
X175575965Y-104467339D01*
X175575970Y-104467345D01*
X175701254Y-104592629D01*
X175701260Y-104592634D01*
X175852074Y-104685657D01*
X176020278Y-104741393D01*
X176020281Y-104741394D01*
X176124083Y-104751999D01*
X176124083Y-104752000D01*
X176395600Y-104752000D01*
X176903600Y-104752000D01*
X177175117Y-104752000D01*
X177175116Y-104751999D01*
X177278918Y-104741394D01*
X177278921Y-104741393D01*
X177447125Y-104685657D01*
X177597939Y-104592634D01*
X177597945Y-104592629D01*
X177723229Y-104467345D01*
X177723234Y-104467339D01*
X177816257Y-104316525D01*
X177871993Y-104148321D01*
X177871994Y-104148318D01*
X177882599Y-104044516D01*
X177882600Y-104044516D01*
X177882600Y-103910500D01*
X176903600Y-103910500D01*
X176903600Y-104752000D01*
X176395600Y-104752000D01*
X176395600Y-103910500D01*
X175416600Y-103910500D01*
X175416600Y-104044516D01*
X173738300Y-104044516D01*
X173738300Y-102341000D01*
X173758302Y-102272879D01*
X173811958Y-102226386D01*
X173864300Y-102215000D01*
X175395670Y-102215000D01*
X175463791Y-102235002D01*
X175502909Y-102274851D01*
X175556139Y-102361150D01*
X175575570Y-102392652D01*
X175575575Y-102392658D01*
X175700945Y-102518028D01*
X175704050Y-102520483D01*
X175705627Y-102522710D01*
X175706137Y-102523220D01*
X175706049Y-102523307D01*
X175745081Y-102578422D01*
X175748273Y-102649347D01*
X175712614Y-102710739D01*
X175704054Y-102718157D01*
X175701254Y-102720370D01*
X175575970Y-102845654D01*
X175575965Y-102845660D01*
X175482942Y-102996474D01*
X175427206Y-103164678D01*
X175427205Y-103164681D01*
X175416600Y-103268483D01*
X175416600Y-103402500D01*
X177882600Y-103402500D01*
X177882600Y-103268483D01*
X177871994Y-103164681D01*
X177871993Y-103164678D01*
X177816257Y-102996474D01*
X177723234Y-102845660D01*
X177723229Y-102845654D01*
X177597944Y-102720369D01*
X177595151Y-102718161D01*
X177593731Y-102716156D01*
X177592750Y-102715175D01*
X177592917Y-102715007D01*
X177554119Y-102660222D01*
X177550925Y-102589298D01*
X177586583Y-102527905D01*
X177595154Y-102520478D01*
X177598239Y-102518037D01*
X177598252Y-102518030D01*
X177723630Y-102392652D01*
X177816715Y-102241738D01*
X177872487Y-102073426D01*
X177883100Y-101969545D01*
X177883099Y-101193456D01*
X177880825Y-101171200D01*
X177872487Y-101089574D01*
X177869315Y-101080000D01*
X177816715Y-100921262D01*
X177723630Y-100770348D01*
X177723629Y-100770347D01*
X177723624Y-100770341D01*
X177598258Y-100644975D01*
X177598252Y-100644970D01*
X177528287Y-100601815D01*
X177480811Y-100549031D01*
X177469408Y-100478956D01*
X177497700Y-100413841D01*
X177554804Y-100374971D01*
X177686724Y-100331257D01*
X177837539Y-100238234D01*
X177837545Y-100238229D01*
X177962829Y-100112945D01*
X177962834Y-100112939D01*
X178055857Y-99962125D01*
X178111593Y-99793921D01*
X178111594Y-99793918D01*
X178122199Y-99690116D01*
X178122200Y-99690116D01*
X178122200Y-99418600D01*
X176898700Y-99418600D01*
X176830579Y-99398598D01*
X176784086Y-99344942D01*
X176772700Y-99292600D01*
X176772700Y-98910600D01*
X177280700Y-98910600D01*
X178122200Y-98910600D01*
X178122200Y-98639083D01*
X178111594Y-98535281D01*
X178111593Y-98535278D01*
X178055857Y-98367074D01*
X177962834Y-98216260D01*
X177962829Y-98216254D01*
X177837545Y-98090970D01*
X177837539Y-98090965D01*
X177686725Y-97997942D01*
X177518521Y-97942206D01*
X177518518Y-97942205D01*
X177414716Y-97931600D01*
X177280700Y-97931600D01*
X177280700Y-98910600D01*
X176772700Y-98910600D01*
X176772700Y-97931600D01*
X176638683Y-97931600D01*
X176534881Y-97942205D01*
X176534878Y-97942206D01*
X176366674Y-97997942D01*
X176215860Y-98090965D01*
X176215854Y-98090970D01*
X176090570Y-98216254D01*
X176088357Y-98219054D01*
X176086349Y-98220475D01*
X176085375Y-98221450D01*
X176085208Y-98221283D01*
X176030416Y-98260082D01*
X175959491Y-98263272D01*
X175898100Y-98227611D01*
X175890683Y-98219050D01*
X175888228Y-98215945D01*
X175762858Y-98090575D01*
X175762852Y-98090570D01*
X175611938Y-97997485D01*
X175527782Y-97969599D01*
X175443627Y-97941713D01*
X175443620Y-97941712D01*
X175339753Y-97931100D01*
X174563655Y-97931100D01*
X174459774Y-97941712D01*
X174291461Y-97997485D01*
X174140547Y-98090570D01*
X174140541Y-98090575D01*
X174015175Y-98215941D01*
X174015170Y-98215947D01*
X173922085Y-98366862D01*
X173866313Y-98535172D01*
X173866312Y-98535179D01*
X173855700Y-98639046D01*
X173855700Y-99312504D01*
X173835698Y-99380625D01*
X173818795Y-99401599D01*
X173394440Y-99825954D01*
X173332128Y-99859980D01*
X173261313Y-99854915D01*
X173204477Y-99812368D01*
X173179666Y-99745848D01*
X173189708Y-99686819D01*
X173192740Y-99679808D01*
X173192745Y-99679801D01*
X173239162Y-99520031D01*
X173242099Y-99482711D01*
X173242100Y-99482711D01*
X173242100Y-99049689D01*
X173242099Y-99049688D01*
X173239162Y-99012371D01*
X173239162Y-99012370D01*
X173239162Y-99012369D01*
X173192745Y-98852599D01*
X173192743Y-98852597D01*
X173192743Y-98852594D01*
X173108055Y-98709396D01*
X173108050Y-98709389D01*
X172990410Y-98591749D01*
X172990403Y-98591744D01*
X172847205Y-98507056D01*
X172687429Y-98460637D01*
X172650111Y-98457700D01*
X172650102Y-98457700D01*
X170867098Y-98457700D01*
X170867089Y-98457700D01*
X170829771Y-98460637D01*
X170829770Y-98460637D01*
X170669994Y-98507056D01*
X170526796Y-98591744D01*
X170526789Y-98591749D01*
X170409149Y-98709389D01*
X170409144Y-98709396D01*
X170324456Y-98852594D01*
X170278037Y-99012370D01*
X170278037Y-99012371D01*
X170275100Y-99049688D01*
X170275100Y-99295005D01*
X170255098Y-99363126D01*
X170238199Y-99384095D01*
X170139593Y-99482702D01*
X170046788Y-99575507D01*
X169984476Y-99609532D01*
X169913660Y-99604467D01*
X169868601Y-99575508D01*
X166425205Y-96132192D01*
X166391179Y-96069881D01*
X166388299Y-96043096D01*
X166388299Y-95717655D01*
X166377687Y-95613774D01*
X166336069Y-95488178D01*
X166321915Y-95445462D01*
X166228830Y-95294548D01*
X166228829Y-95294547D01*
X166228824Y-95294541D01*
X166103458Y-95169175D01*
X166103452Y-95169170D01*
X166071267Y-95149318D01*
X165952538Y-95076085D01*
X165855303Y-95043865D01*
X165784227Y-95020313D01*
X165784220Y-95020312D01*
X165680353Y-95009700D01*
X165680345Y-95009700D01*
X165019394Y-95009700D01*
X164951273Y-94989698D01*
X164930299Y-94972795D01*
X164622235Y-94664731D01*
X164622233Y-94664729D01*
X164518475Y-94595400D01*
X164403185Y-94547645D01*
X164329486Y-94532985D01*
X164280796Y-94523300D01*
X164280794Y-94523300D01*
X154135194Y-94523300D01*
X154067073Y-94503298D01*
X154046099Y-94486395D01*
X154027904Y-94468200D01*
X153993878Y-94405888D01*
X153990999Y-94379105D01*
X153990999Y-93994455D01*
X153980387Y-93890574D01*
X153924685Y-93722474D01*
X153924615Y-93722262D01*
X153831530Y-93571348D01*
X153831527Y-93571345D01*
X153831524Y-93571341D01*
X153706158Y-93445975D01*
X153706152Y-93445970D01*
X153555238Y-93352885D01*
X153471082Y-93324999D01*
X153386927Y-93297113D01*
X153386920Y-93297112D01*
X153283053Y-93286500D01*
X152506955Y-93286500D01*
X152403074Y-93297112D01*
X152234761Y-93352885D01*
X152083847Y-93445970D01*
X152083841Y-93445975D01*
X151958471Y-93571345D01*
X151956011Y-93574457D01*
X151953781Y-93576035D01*
X151953280Y-93576537D01*
X151953194Y-93576451D01*
X151898068Y-93615483D01*
X151827143Y-93618671D01*
X151765754Y-93583008D01*
X151758337Y-93574446D01*
X151756132Y-93571657D01*
X151630845Y-93446370D01*
X151630839Y-93446365D01*
X151480025Y-93353342D01*
X151311821Y-93297606D01*
X151311818Y-93297605D01*
X151208016Y-93287000D01*
X151074000Y-93287000D01*
X151074000Y-95753000D01*
X151208017Y-95753000D01*
X151208016Y-95752999D01*
X151311818Y-95742394D01*
X151311821Y-95742393D01*
X151480025Y-95686657D01*
X151630839Y-95593634D01*
X151630845Y-95593629D01*
X151756124Y-95468350D01*
X151758332Y-95465558D01*
X151760337Y-95464137D01*
X151761325Y-95463150D01*
X151761493Y-95463318D01*
X151816268Y-95424522D01*
X151887193Y-95421323D01*
X151948588Y-95456976D01*
X151956015Y-95465547D01*
X151958474Y-95468657D01*
X152083841Y-95594024D01*
X152083847Y-95594029D01*
X152083848Y-95594030D01*
X152234762Y-95687115D01*
X152403074Y-95742887D01*
X152506955Y-95753500D01*
X153061100Y-95753499D01*
X153129221Y-95773501D01*
X153175714Y-95827157D01*
X153187100Y-95879499D01*
X153187100Y-96704804D01*
X153167098Y-96772925D01*
X153150196Y-96793899D01*
X152884501Y-97059595D01*
X152822188Y-97093620D01*
X152795405Y-97096500D01*
X152043489Y-97096500D01*
X152006171Y-97099437D01*
X152006170Y-97099437D01*
X151846394Y-97145856D01*
X151703196Y-97230544D01*
X151703189Y-97230549D01*
X151585549Y-97348189D01*
X151585544Y-97348196D01*
X151500856Y-97491394D01*
X151454437Y-97651170D01*
X151454437Y-97651171D01*
X151451500Y-97688488D01*
X151451500Y-98121511D01*
X151454437Y-98158828D01*
X151454437Y-98158829D01*
X151500856Y-98318605D01*
X151585543Y-98461802D01*
X151586298Y-98462775D01*
X151586652Y-98463676D01*
X151589582Y-98468631D01*
X151588782Y-98469103D01*
X151612244Y-98528861D01*
X151598342Y-98598483D01*
X151586298Y-98617225D01*
X151585543Y-98618197D01*
X151500856Y-98761394D01*
X151454437Y-98921170D01*
X151454437Y-98921171D01*
X151451500Y-98958488D01*
X151451500Y-99050500D01*
X151431498Y-99118621D01*
X151377842Y-99165114D01*
X151325500Y-99176500D01*
X149594500Y-99176500D01*
X149526379Y-99156498D01*
X149479886Y-99102842D01*
X149468500Y-99050500D01*
X149468500Y-98958489D01*
X149468499Y-98958488D01*
X149465562Y-98921171D01*
X149465562Y-98921170D01*
X149449578Y-98866152D01*
X149419145Y-98761399D01*
X149419143Y-98761397D01*
X149419143Y-98761394D01*
X149334455Y-98618196D01*
X149333385Y-98616816D01*
X149332882Y-98615536D01*
X149330418Y-98611369D01*
X149331090Y-98610971D01*
X149307437Y-98550732D01*
X149321336Y-98481109D01*
X149333390Y-98462353D01*
X149334056Y-98461493D01*
X149418681Y-98318401D01*
X149464993Y-98159000D01*
X146505007Y-98159000D01*
X146551318Y-98318401D01*
X146635946Y-98461498D01*
X146636616Y-98462362D01*
X146636930Y-98463162D01*
X146639981Y-98468321D01*
X146639148Y-98468813D01*
X146662563Y-98528448D01*
X146648662Y-98598070D01*
X146636625Y-98616802D01*
X146635551Y-98618186D01*
X146550856Y-98761396D01*
X146504437Y-98921170D01*
X146504437Y-98921171D01*
X146501500Y-98958488D01*
X146501500Y-99391511D01*
X146504437Y-99428828D01*
X146504437Y-99428829D01*
X146550856Y-99588605D01*
X146635543Y-99731802D01*
X146636298Y-99732775D01*
X146636652Y-99733676D01*
X146639582Y-99738631D01*
X146638782Y-99739103D01*
X146662244Y-99798861D01*
X146648342Y-99868483D01*
X146636298Y-99887225D01*
X146635545Y-99888195D01*
X146593201Y-99959794D01*
X146541307Y-100008246D01*
X146471457Y-100020951D01*
X146405826Y-99993875D01*
X146395653Y-99984749D01*
X144840404Y-98429500D01*
X144806378Y-98367188D01*
X144803499Y-98340405D01*
X144803499Y-97666955D01*
X144801869Y-97651000D01*
X146505007Y-97651000D01*
X147731000Y-97651000D01*
X148239000Y-97651000D01*
X149464992Y-97651000D01*
X149418681Y-97491598D01*
X149334051Y-97348498D01*
X149334050Y-97348496D01*
X149216503Y-97230949D01*
X149216501Y-97230948D01*
X149073401Y-97146318D01*
X148913748Y-97099934D01*
X148913750Y-97099934D01*
X148876456Y-97097000D01*
X148239000Y-97097000D01*
X148239000Y-97651000D01*
X147731000Y-97651000D01*
X147731000Y-97097000D01*
X147093544Y-97097000D01*
X147056249Y-97099934D01*
X146896599Y-97146318D01*
X146753498Y-97230948D01*
X146753496Y-97230949D01*
X146635949Y-97348496D01*
X146635948Y-97348498D01*
X146551318Y-97491598D01*
X146505007Y-97651000D01*
X144801869Y-97651000D01*
X144792887Y-97563074D01*
X144788389Y-97549499D01*
X144737115Y-97394762D01*
X144644030Y-97243848D01*
X144644029Y-97243847D01*
X144644024Y-97243841D01*
X144518657Y-97118474D01*
X144515547Y-97116015D01*
X144513967Y-97113784D01*
X144513463Y-97113280D01*
X144513549Y-97113193D01*
X144474518Y-97058075D01*
X144471326Y-96987150D01*
X144506986Y-96925759D01*
X144515558Y-96918332D01*
X144518350Y-96916124D01*
X144643629Y-96790845D01*
X144643634Y-96790839D01*
X144736657Y-96640025D01*
X144792393Y-96471821D01*
X144792394Y-96471818D01*
X144802999Y-96368016D01*
X144803000Y-96368016D01*
X144803000Y-96234000D01*
X142337000Y-96234000D01*
X142337000Y-96368016D01*
X142347605Y-96471818D01*
X142347606Y-96471821D01*
X142403342Y-96640025D01*
X142496365Y-96790839D01*
X142496370Y-96790845D01*
X142621657Y-96916132D01*
X142624446Y-96918337D01*
X142625863Y-96920338D01*
X142626850Y-96921325D01*
X142626681Y-96921493D01*
X142665479Y-96976275D01*
X142668674Y-97047200D01*
X142633017Y-97108593D01*
X142624457Y-97116011D01*
X142621345Y-97118471D01*
X142495975Y-97243841D01*
X142495970Y-97243847D01*
X142402885Y-97394762D01*
X142347113Y-97563072D01*
X142347112Y-97563079D01*
X142336500Y-97666946D01*
X142336500Y-98443044D01*
X142347112Y-98546925D01*
X142402885Y-98715238D01*
X142495970Y-98866152D01*
X142495975Y-98866158D01*
X142621341Y-98991524D01*
X142621347Y-98991529D01*
X142621348Y-98991530D01*
X142772262Y-99084615D01*
X142940574Y-99140387D01*
X143044455Y-99151000D01*
X143717905Y-99150999D01*
X143786026Y-99171001D01*
X143807000Y-99187904D01*
X146120500Y-101501405D01*
X146154526Y-101563717D01*
X146149461Y-101634533D01*
X146106914Y-101691368D01*
X146040394Y-101716179D01*
X146031405Y-101716500D01*
X142784594Y-101716500D01*
X142716473Y-101696498D01*
X142695499Y-101679595D01*
X140827138Y-99811234D01*
X140793112Y-99748922D01*
X140798177Y-99678107D01*
X140827136Y-99633045D01*
X140894030Y-99566152D01*
X140987115Y-99415238D01*
X141042887Y-99246926D01*
X141053500Y-99143045D01*
X141053499Y-98366956D01*
X141053452Y-98366500D01*
X141042887Y-98263074D01*
X141028299Y-98219050D01*
X140987115Y-98094762D01*
X140894030Y-97943848D01*
X140894029Y-97943847D01*
X140894024Y-97943841D01*
X140768657Y-97818474D01*
X140765547Y-97816015D01*
X140763967Y-97813784D01*
X140763463Y-97813280D01*
X140763549Y-97813193D01*
X140724518Y-97758075D01*
X140721326Y-97687150D01*
X140756986Y-97625759D01*
X140765558Y-97618332D01*
X140768350Y-97616124D01*
X140893629Y-97490845D01*
X140893634Y-97490839D01*
X140986657Y-97340025D01*
X141042393Y-97171821D01*
X141042394Y-97171818D01*
X141052999Y-97068016D01*
X141053000Y-97068016D01*
X141053000Y-96934000D01*
X138587000Y-96934000D01*
X138587000Y-97068016D01*
X138597605Y-97171818D01*
X138597606Y-97171821D01*
X138653342Y-97340025D01*
X138746365Y-97490839D01*
X138746370Y-97490845D01*
X138871657Y-97616132D01*
X138874446Y-97618337D01*
X138875863Y-97620338D01*
X138876850Y-97621325D01*
X138876681Y-97621493D01*
X138915479Y-97676275D01*
X138918674Y-97747200D01*
X138883017Y-97808593D01*
X138874457Y-97816011D01*
X138871345Y-97818471D01*
X138745975Y-97943841D01*
X138745970Y-97943847D01*
X138652885Y-98094762D01*
X138597113Y-98263072D01*
X138597112Y-98263079D01*
X138586500Y-98366946D01*
X138586500Y-99143044D01*
X138597112Y-99246925D01*
X138652885Y-99415238D01*
X138745970Y-99566152D01*
X138745975Y-99566158D01*
X138871341Y-99691524D01*
X138871347Y-99691529D01*
X138871348Y-99691530D01*
X139022262Y-99784615D01*
X139138036Y-99822978D01*
X139196407Y-99863391D01*
X139214811Y-99894363D01*
X139258597Y-100000069D01*
X139258599Y-100000074D01*
X139272549Y-100020951D01*
X139327929Y-100103833D01*
X139327931Y-100103835D01*
X141485000Y-102260904D01*
X141519026Y-102323216D01*
X141513961Y-102394031D01*
X141485000Y-102439095D01*
X141062421Y-102861673D01*
X141000109Y-102895698D01*
X140940716Y-102894284D01*
X140909371Y-102885885D01*
X140690000Y-102866693D01*
X140470629Y-102885885D01*
X140257926Y-102942879D01*
X140257920Y-102942881D01*
X140058346Y-103035944D01*
X139877965Y-103162248D01*
X139877959Y-103162253D01*
X139722253Y-103317959D01*
X139722248Y-103317965D01*
X139595944Y-103498346D01*
X139502881Y-103697920D01*
X139502879Y-103697926D01*
X139454283Y-103879287D01*
X139445885Y-103910629D01*
X139426693Y-104130000D01*
X139445885Y-104349371D01*
X139458933Y-104398066D01*
X139502879Y-104562073D01*
X139502881Y-104562079D01*
X139552553Y-104668601D01*
X139595944Y-104761654D01*
X139709151Y-104923329D01*
X139722251Y-104942038D01*
X139722254Y-104942042D01*
X139877957Y-105097745D01*
X139877961Y-105097748D01*
X139877962Y-105097749D01*
X140058346Y-105224056D01*
X140257924Y-105317120D01*
X140470629Y-105374115D01*
X140690000Y-105393307D01*
X140909371Y-105374115D01*
X141122076Y-105317120D01*
X141321654Y-105224056D01*
X141502038Y-105097749D01*
X141657749Y-104942038D01*
X141784056Y-104761654D01*
X141877120Y-104562076D01*
X141934115Y-104349371D01*
X141953307Y-104130000D01*
X141934115Y-103910629D01*
X141925715Y-103879281D01*
X141927403Y-103808311D01*
X141958324Y-103757578D01*
X142695500Y-103020404D01*
X142757812Y-102986379D01*
X142784595Y-102983500D01*
X146374105Y-102983500D01*
X146442226Y-103003502D01*
X146488719Y-103057158D01*
X146498823Y-103127432D01*
X146469329Y-103192012D01*
X146463200Y-103198595D01*
X144738467Y-104923329D01*
X144650231Y-105011564D01*
X144650226Y-105011571D01*
X144580901Y-105115323D01*
X144533146Y-105230612D01*
X144508800Y-105353003D01*
X144508800Y-112245106D01*
X144488798Y-112313227D01*
X144471895Y-112334201D01*
X135927501Y-120878595D01*
X135865189Y-120912621D01*
X135838406Y-120915500D01*
X131500600Y-120915500D01*
X131378217Y-120939844D01*
X131378209Y-120939846D01*
X131344447Y-120953830D01*
X131344447Y-120953831D01*
X131262925Y-120987599D01*
X131159167Y-121056927D01*
X130529167Y-121686929D01*
X130440927Y-121775169D01*
X130440926Y-121775171D01*
X130371599Y-121878926D01*
X130371598Y-121878927D01*
X130350616Y-121929584D01*
X130338980Y-121951356D01*
X130338600Y-121951923D01*
X130338597Y-121951929D01*
X130290846Y-122067209D01*
X130266500Y-122189603D01*
X130266500Y-122680606D01*
X130246498Y-122748727D01*
X130212771Y-122783819D01*
X130055703Y-122893799D01*
X130055697Y-122893804D01*
X129893804Y-123055697D01*
X129893799Y-123055703D01*
X129762477Y-123243250D01*
X129665717Y-123450753D01*
X129665716Y-123450757D01*
X129606457Y-123671913D01*
X129586502Y-123900000D01*
X120605500Y-123900000D01*
X120605500Y-119149993D01*
X125527041Y-119149993D01*
X125527041Y-119150006D01*
X125546854Y-119464944D01*
X125546856Y-119464961D01*
X125605989Y-119774942D01*
X125605992Y-119774955D01*
X125703509Y-120075079D01*
X125703513Y-120075088D01*
X125837875Y-120360622D01*
X125837882Y-120360636D01*
X126006969Y-120627075D01*
X126006971Y-120627078D01*
X126096042Y-120734746D01*
X127065532Y-119765256D01*
X127162829Y-119899175D01*
X127290825Y-120027171D01*
X127424741Y-120124466D01*
X126452522Y-121096686D01*
X126452522Y-121096688D01*
X126693482Y-121271756D01*
X126970034Y-121423792D01*
X127263460Y-121539968D01*
X127263466Y-121539970D01*
X127569103Y-121618444D01*
X127569130Y-121618449D01*
X127882195Y-121657998D01*
X127882214Y-121658000D01*
X128197786Y-121658000D01*
X128197804Y-121657998D01*
X128510869Y-121618449D01*
X128510896Y-121618444D01*
X128816533Y-121539970D01*
X128816539Y-121539968D01*
X129109965Y-121423792D01*
X129386512Y-121271759D01*
X129627476Y-121096688D01*
X129627476Y-121096686D01*
X128655257Y-120124466D01*
X128789175Y-120027171D01*
X128917171Y-119899175D01*
X129014467Y-119765257D01*
X129983956Y-120734746D01*
X130073030Y-120627075D01*
X130073033Y-120627071D01*
X130242117Y-120360636D01*
X130242124Y-120360622D01*
X130376486Y-120075088D01*
X130376490Y-120075079D01*
X130474007Y-119774955D01*
X130474010Y-119774942D01*
X130533143Y-119464961D01*
X130533145Y-119464944D01*
X130552959Y-119150006D01*
X130552959Y-119149993D01*
X130533145Y-118835055D01*
X130533143Y-118835038D01*
X130474010Y-118525057D01*
X130474007Y-118525044D01*
X130376490Y-118224920D01*
X130376486Y-118224911D01*
X130242124Y-117939377D01*
X130242117Y-117939363D01*
X130073030Y-117672924D01*
X130073028Y-117672921D01*
X129983956Y-117565252D01*
X129014466Y-118534741D01*
X128917171Y-118400825D01*
X128789175Y-118272829D01*
X128655256Y-118175532D01*
X129627476Y-117203312D01*
X129627476Y-117203310D01*
X129386513Y-117028240D01*
X129109965Y-116876207D01*
X128816539Y-116760031D01*
X128816533Y-116760029D01*
X128510896Y-116681555D01*
X128510869Y-116681550D01*
X128197804Y-116642001D01*
X128197786Y-116642000D01*
X127882214Y-116642000D01*
X127882195Y-116642001D01*
X127569130Y-116681550D01*
X127569103Y-116681555D01*
X127263466Y-116760029D01*
X127263460Y-116760031D01*
X126970034Y-116876207D01*
X126693486Y-117028240D01*
X126452522Y-117203310D01*
X126452522Y-117203312D01*
X127424742Y-118175532D01*
X127290825Y-118272829D01*
X127162829Y-118400825D01*
X127065532Y-118534742D01*
X126096042Y-117565252D01*
X126006972Y-117672921D01*
X126006969Y-117672924D01*
X125837882Y-117939363D01*
X125837875Y-117939377D01*
X125703513Y-118224911D01*
X125703509Y-118224920D01*
X125605992Y-118525044D01*
X125605989Y-118525057D01*
X125546856Y-118835038D01*
X125546854Y-118835055D01*
X125527041Y-119149993D01*
X120605500Y-119149993D01*
X120605500Y-110560781D01*
X120605504Y-110559822D01*
X120606213Y-110466772D01*
X120612847Y-109595516D01*
X132414500Y-109595516D01*
X132425105Y-109699318D01*
X132425106Y-109699321D01*
X132480842Y-109867525D01*
X132573865Y-110018339D01*
X132573870Y-110018345D01*
X132699154Y-110143629D01*
X132699160Y-110143634D01*
X132849974Y-110236657D01*
X133018178Y-110292393D01*
X133018181Y-110292394D01*
X133121983Y-110302999D01*
X133121983Y-110303000D01*
X133256000Y-110303000D01*
X133256000Y-109324000D01*
X132414500Y-109324000D01*
X132414500Y-109595516D01*
X120612847Y-109595516D01*
X120620850Y-108544483D01*
X132414500Y-108544483D01*
X132414500Y-108816000D01*
X133256000Y-108816000D01*
X133256000Y-107837000D01*
X133764000Y-107837000D01*
X133764000Y-110303000D01*
X133898017Y-110303000D01*
X133898016Y-110302999D01*
X134001818Y-110292394D01*
X134001821Y-110292393D01*
X134170025Y-110236657D01*
X134320839Y-110143634D01*
X134320845Y-110143629D01*
X134446124Y-110018350D01*
X134448332Y-110015558D01*
X134450337Y-110014137D01*
X134451325Y-110013150D01*
X134451493Y-110013318D01*
X134506268Y-109974522D01*
X134577193Y-109971323D01*
X134638588Y-110006976D01*
X134646015Y-110015547D01*
X134648474Y-110018657D01*
X134773841Y-110144024D01*
X134773847Y-110144029D01*
X134773848Y-110144030D01*
X134924762Y-110237115D01*
X135093074Y-110292887D01*
X135196955Y-110303500D01*
X135973044Y-110303499D01*
X136076926Y-110292887D01*
X136245238Y-110237115D01*
X136396152Y-110144030D01*
X136521530Y-110018652D01*
X136614615Y-109867738D01*
X136640418Y-109789865D01*
X136680832Y-109731496D01*
X136746389Y-109704240D01*
X136760023Y-109703500D01*
X139573658Y-109703500D01*
X139641779Y-109723502D01*
X139676870Y-109757228D01*
X139722251Y-109822038D01*
X139722255Y-109822042D01*
X139722258Y-109822046D01*
X139877957Y-109977745D01*
X139877961Y-109977748D01*
X139877962Y-109977749D01*
X140058346Y-110104056D01*
X140257924Y-110197120D01*
X140470629Y-110254115D01*
X140690000Y-110273307D01*
X140909371Y-110254115D01*
X141122076Y-110197120D01*
X141321654Y-110104056D01*
X141502038Y-109977749D01*
X141657749Y-109822038D01*
X141784056Y-109641654D01*
X141877120Y-109442076D01*
X141934115Y-109229371D01*
X141953307Y-109010000D01*
X141934115Y-108790629D01*
X141877120Y-108577924D01*
X141784056Y-108378347D01*
X141657749Y-108197962D01*
X141502038Y-108042251D01*
X141321654Y-107915944D01*
X141175102Y-107847606D01*
X141122079Y-107822881D01*
X141122073Y-107822879D01*
X141032178Y-107798791D01*
X140909371Y-107765885D01*
X140690000Y-107746693D01*
X140470629Y-107765885D01*
X140257926Y-107822879D01*
X140257920Y-107822881D01*
X140058346Y-107915944D01*
X139877965Y-108042248D01*
X139877959Y-108042253D01*
X139722253Y-108197959D01*
X139722248Y-108197965D01*
X139592846Y-108382771D01*
X139537389Y-108427099D01*
X139489633Y-108436500D01*
X136760023Y-108436500D01*
X136691902Y-108416498D01*
X136645409Y-108362842D01*
X136640418Y-108350133D01*
X136614615Y-108272262D01*
X136521530Y-108121348D01*
X136521527Y-108121345D01*
X136521524Y-108121341D01*
X136396158Y-107995975D01*
X136396152Y-107995970D01*
X136322359Y-107950454D01*
X136245238Y-107902885D01*
X136161082Y-107874999D01*
X136076927Y-107847113D01*
X136076920Y-107847112D01*
X135973053Y-107836500D01*
X135196955Y-107836500D01*
X135093074Y-107847112D01*
X134924761Y-107902885D01*
X134773847Y-107995970D01*
X134773841Y-107995975D01*
X134648471Y-108121345D01*
X134646011Y-108124457D01*
X134643781Y-108126035D01*
X134643280Y-108126537D01*
X134643194Y-108126451D01*
X134588068Y-108165483D01*
X134517143Y-108168671D01*
X134455754Y-108133008D01*
X134448337Y-108124446D01*
X134446132Y-108121657D01*
X134320845Y-107996370D01*
X134320839Y-107996365D01*
X134170025Y-107903342D01*
X134001821Y-107847606D01*
X134001818Y-107847605D01*
X133898016Y-107837000D01*
X133764000Y-107837000D01*
X133256000Y-107837000D01*
X133121983Y-107837000D01*
X133018181Y-107847605D01*
X133018178Y-107847606D01*
X132849974Y-107903342D01*
X132699160Y-107996365D01*
X132699154Y-107996370D01*
X132573870Y-108121654D01*
X132573865Y-108121660D01*
X132480842Y-108272474D01*
X132425106Y-108440678D01*
X132425105Y-108440681D01*
X132414500Y-108544483D01*
X120620850Y-108544483D01*
X120714143Y-96291983D01*
X138587000Y-96291983D01*
X138587000Y-96426000D01*
X139566000Y-96426000D01*
X140074000Y-96426000D01*
X141053000Y-96426000D01*
X141053000Y-96291983D01*
X141042394Y-96188181D01*
X141042393Y-96188178D01*
X140986657Y-96019974D01*
X140893634Y-95869160D01*
X140893629Y-95869154D01*
X140768345Y-95743870D01*
X140768339Y-95743865D01*
X140617525Y-95650842D01*
X140449321Y-95595106D01*
X140449318Y-95595105D01*
X140418760Y-95591983D01*
X142337000Y-95591983D01*
X142337000Y-95726000D01*
X143316000Y-95726000D01*
X143824000Y-95726000D01*
X144803000Y-95726000D01*
X144803000Y-95591983D01*
X144792394Y-95488181D01*
X144792393Y-95488178D01*
X144736657Y-95319974D01*
X144643634Y-95169160D01*
X144643629Y-95169154D01*
X144519991Y-95045516D01*
X149724500Y-95045516D01*
X149735105Y-95149318D01*
X149735106Y-95149321D01*
X149790842Y-95317525D01*
X149883865Y-95468339D01*
X149883870Y-95468345D01*
X150009154Y-95593629D01*
X150009160Y-95593634D01*
X150159974Y-95686657D01*
X150328178Y-95742393D01*
X150328181Y-95742394D01*
X150431983Y-95752999D01*
X150431983Y-95753000D01*
X150566000Y-95753000D01*
X150566000Y-94774000D01*
X149724500Y-94774000D01*
X149724500Y-95045516D01*
X144519991Y-95045516D01*
X144518345Y-95043870D01*
X144518339Y-95043865D01*
X144367525Y-94950842D01*
X144199321Y-94895106D01*
X144199318Y-94895105D01*
X144095516Y-94884500D01*
X143824000Y-94884500D01*
X143824000Y-95726000D01*
X143316000Y-95726000D01*
X143316000Y-94884500D01*
X143044483Y-94884500D01*
X142940681Y-94895105D01*
X142940678Y-94895106D01*
X142772474Y-94950842D01*
X142621660Y-95043865D01*
X142621654Y-95043870D01*
X142496370Y-95169154D01*
X142496365Y-95169160D01*
X142403342Y-95319974D01*
X142347606Y-95488178D01*
X142347605Y-95488181D01*
X142337000Y-95591983D01*
X140418760Y-95591983D01*
X140345516Y-95584500D01*
X140074000Y-95584500D01*
X140074000Y-96426000D01*
X139566000Y-96426000D01*
X139566000Y-95584500D01*
X139294483Y-95584500D01*
X139190681Y-95595105D01*
X139190678Y-95595106D01*
X139022474Y-95650842D01*
X138871660Y-95743865D01*
X138871654Y-95743870D01*
X138746370Y-95869154D01*
X138746365Y-95869160D01*
X138653342Y-96019974D01*
X138597606Y-96188178D01*
X138597605Y-96188181D01*
X138587000Y-96291983D01*
X120714143Y-96291983D01*
X120731637Y-93994483D01*
X149724500Y-93994483D01*
X149724500Y-94266000D01*
X150566000Y-94266000D01*
X150566000Y-93287000D01*
X150431983Y-93287000D01*
X150328181Y-93297605D01*
X150328178Y-93297606D01*
X150159974Y-93353342D01*
X150009160Y-93446365D01*
X150009154Y-93446370D01*
X149883870Y-93571654D01*
X149883865Y-93571660D01*
X149790842Y-93722474D01*
X149735106Y-93890678D01*
X149735105Y-93890681D01*
X149724500Y-93994483D01*
X120731637Y-93994483D01*
X120760730Y-90173553D01*
X148685339Y-90173553D01*
X173156356Y-90173553D01*
X173156356Y-87271676D01*
X148685339Y-87271676D01*
X148685339Y-90173553D01*
X120760730Y-90173553D01*
X120792047Y-86060540D01*
X120812567Y-85992574D01*
X120866575Y-85946491D01*
X120918043Y-85935500D01*
X200328500Y-85935500D01*
X200396621Y-85955502D01*
G37*
G04 #@! TD.AperFunction*
M02*
