<?xml version="1.0" standalone="no"?>
 <!DOCTYPE svg PUBLIC "-//W3C//DTD SVG 1.1//EN" 
 "http://www.w3.org/Graphics/SVG/1.1/DTD/svg11.dtd"> 
<svg
  xmlns:svg="http://www.w3.org/2000/svg"
  xmlns="http://www.w3.org/2000/svg"
  xmlns:xlink="http://www.w3.org/1999/xlink"
  version="1.1"
  width="63.7794mm" height="47.1678mm" viewBox="0.0000 0.0000 63.7794 47.1678">
<title>SVG Image created as Beagley-ai-2CAN-F_Paste.svg date 2024/12/29 09:58:22 </title>
  <desc>Image generated by PCBNEW </desc>
<g style="fill:#000000; fill-opacity:1.0000;stroke:#000000; stroke-opacity:1.0000;
stroke-linecap:round; stroke-linejoin:round;"
 transform="translate(0 0) scale(1 1)">
<path style="fill:#000000; fill-opacity:1.0000; stroke:none;fill-rule:evenodd;"
d="M 22.6250,12.7000
22.5293,12.6810
22.4482,12.6268
22.3940,12.5457
22.3750,12.4500
22.3750,11.7750
22.3940,11.6793
22.4482,11.5982
22.5293,11.5440
22.6250,11.5250
23.5750,11.5250
23.6707,11.5440
23.7518,11.5982
23.8060,11.6793
23.8250,11.7750
23.8250,12.4500
23.8060,12.5457
23.7518,12.6268
23.6707,12.6810
23.5750,12.7000
Z" /> 
<path style="fill:#000000; fill-opacity:1.0000; stroke:none;fill-rule:evenodd;"
d="M 22.6250,10.6250
22.5293,10.6060
22.4482,10.5518
22.3940,10.4707
22.3750,10.3750
22.3750,9.7000
22.3940,9.6043
22.4482,9.5232
22.5293,9.4690
22.6250,9.4500
23.5750,9.4500
23.6707,9.4690
23.7518,9.5232
23.8060,9.6043
23.8250,9.7000
23.8250,10.3750
23.8060,10.4707
23.7518,10.5518
23.6707,10.6060
23.5750,10.6250
Z" /> 
<path style="fill:#000000; fill-opacity:1.0000; stroke:none;fill-rule:evenodd;"
d="M 39.6000,19.5000
39.5810,19.5957
39.5268,19.6768
39.4457,19.7310
39.3500,19.7500
38.4500,19.7500
38.3543,19.7310
38.2732,19.6768
38.2190,19.5957
38.2000,19.5000
38.2000,16.6500
38.2190,16.5543
38.2732,16.4732
38.3543,16.4190
38.4500,16.4000
39.3500,16.4000
39.4457,16.4190
39.5268,16.4732
39.5810,16.5543
39.6000,16.6500
Z" /> 
<path style="fill:#000000; fill-opacity:1.0000; stroke:none;fill-rule:evenodd;"
d="M 33.5000,19.5000
33.4810,19.5957
33.4268,19.6768
33.3457,19.7310
33.2500,19.7500
32.3500,19.7500
32.2543,19.7310
32.1732,19.6768
32.1190,19.5957
32.1000,19.5000
32.1000,16.6500
32.1190,16.5543
32.1732,16.4732
32.2543,16.4190
32.3500,16.4000
33.2500,16.4000
33.3457,16.4190
33.4268,16.4732
33.4810,16.5543
33.5000,16.6500
Z" /> 
<path style="fill:#000000; fill-opacity:1.0000; stroke:none;fill-rule:evenodd;"
d="M 25.6500,25.6700
25.6614,25.6126
25.6939,25.5639
25.7426,25.5314
25.8000,25.5200
27.4500,25.5200
27.5074,25.5314
27.5561,25.5639
27.5886,25.6126
27.6000,25.6700
27.6000,25.9700
27.5886,26.0274
27.5561,26.0761
27.5074,26.1086
27.4500,26.1200
25.8000,26.1200
25.7426,26.1086
25.6939,26.0761
25.6614,26.0274
25.6500,25.9700
Z" /> 
<path style="fill:#000000; fill-opacity:1.0000; stroke:none;fill-rule:evenodd;"
d="M 25.6500,26.9400
25.6614,26.8826
25.6939,26.8339
25.7426,26.8014
25.8000,26.7900
27.4500,26.7900
27.5074,26.8014
27.5561,26.8339
27.5886,26.8826
27.6000,26.9400
27.6000,27.2400
27.5886,27.2974
27.5561,27.3461
27.5074,27.3786
27.4500,27.3900
25.8000,27.3900
25.7426,27.3786
25.6939,27.3461
25.6614,27.2974
25.6500,27.2400
Z" /> 
<path style="fill:#000000; fill-opacity:1.0000; stroke:none;fill-rule:evenodd;"
d="M 25.6500,28.2100
25.6614,28.1526
25.6939,28.1039
25.7426,28.0714
25.8000,28.0600
27.4500,28.0600
27.5074,28.0714
27.5561,28.1039
27.5886,28.1526
27.6000,28.2100
27.6000,28.5100
27.5886,28.5674
27.5561,28.6161
27.5074,28.6486
27.4500,28.6600
25.8000,28.6600
25.7426,28.6486
25.6939,28.6161
25.6614,28.5674
25.6500,28.5100
Z" /> 
<path style="fill:#000000; fill-opacity:1.0000; stroke:none;fill-rule:evenodd;"
d="M 25.6500,29.4800
25.6614,29.4226
25.6939,29.3739
25.7426,29.3414
25.8000,29.3300
27.4500,29.3300
27.5074,29.3414
27.5561,29.3739
27.5886,29.4226
27.6000,29.4800
27.6000,29.7800
27.5886,29.8374
27.5561,29.8861
27.5074,29.9186
27.4500,29.9300
25.8000,29.9300
25.7426,29.9186
25.6939,29.8861
25.6614,29.8374
25.6500,29.7800
Z" /> 
<path style="fill:#000000; fill-opacity:1.0000; stroke:none;fill-rule:evenodd;"
d="M 30.6000,29.4800
30.6114,29.4226
30.6439,29.3739
30.6926,29.3414
30.7500,29.3300
32.4000,29.3300
32.4574,29.3414
32.5061,29.3739
32.5386,29.4226
32.5500,29.4800
32.5500,29.7800
32.5386,29.8374
32.5061,29.8861
32.4574,29.9186
32.4000,29.9300
30.7500,29.9300
30.6926,29.9186
30.6439,29.8861
30.6114,29.8374
30.6000,29.7800
Z" /> 
<path style="fill:#000000; fill-opacity:1.0000; stroke:none;fill-rule:evenodd;"
d="M 30.6000,28.2100
30.6114,28.1526
30.6439,28.1039
30.6926,28.0714
30.7500,28.0600
32.4000,28.0600
32.4574,28.0714
32.5061,28.1039
32.5386,28.1526
32.5500,28.2100
32.5500,28.5100
32.5386,28.5674
32.5061,28.6161
32.4574,28.6486
32.4000,28.6600
30.7500,28.6600
30.6926,28.6486
30.6439,28.6161
30.6114,28.5674
30.6000,28.5100
Z" /> 
<path style="fill:#000000; fill-opacity:1.0000; stroke:none;fill-rule:evenodd;"
d="M 30.6000,26.9400
30.6114,26.8826
30.6439,26.8339
30.6926,26.8014
30.7500,26.7900
32.4000,26.7900
32.4574,26.8014
32.5061,26.8339
32.5386,26.8826
32.5500,26.9400
32.5500,27.2400
32.5386,27.2974
32.5061,27.3461
32.4574,27.3786
32.4000,27.3900
30.7500,27.3900
30.6926,27.3786
30.6439,27.3461
30.6114,27.2974
30.6000,27.2400
Z" /> 
<path style="fill:#000000; fill-opacity:1.0000; stroke:none;fill-rule:evenodd;"
d="M 30.6000,25.6700
30.6114,25.6126
30.6439,25.5639
30.6926,25.5314
30.7500,25.5200
32.4000,25.5200
32.4574,25.5314
32.5061,25.5639
32.5386,25.6126
32.5500,25.6700
32.5500,25.9700
32.5386,26.0274
32.5061,26.0761
32.4574,26.1086
32.4000,26.1200
30.7500,26.1200
30.6926,26.1086
30.6439,26.0761
30.6114,26.0274
30.6000,25.9700
Z" /> 
<path style="fill:#000000; fill-opacity:1.0000; stroke:none;fill-rule:evenodd;"
d="M 39.6000,36.5000
39.5810,36.5957
39.5268,36.6768
39.4457,36.7310
39.3500,36.7500
38.4500,36.7500
38.3543,36.7310
38.2732,36.6768
38.2190,36.5957
38.2000,36.5000
38.2000,33.6500
38.2190,33.5543
38.2732,33.4732
38.3543,33.4190
38.4500,33.4000
39.3500,33.4000
39.4457,33.4190
39.5268,33.4732
39.5810,33.5543
39.6000,33.6500
Z" /> 
<path style="fill:#000000; fill-opacity:1.0000; stroke:none;fill-rule:evenodd;"
d="M 33.5000,36.5000
33.4810,36.5957
33.4268,36.6768
33.3457,36.7310
33.2500,36.7500
32.3500,36.7500
32.2543,36.7310
32.1732,36.6768
32.1190,36.5957
32.1000,36.5000
32.1000,33.6500
32.1190,33.5543
32.1732,33.4732
32.2543,33.4190
32.3500,33.4000
33.2500,33.4000
33.3457,33.4190
33.4268,33.4732
33.4810,33.5543
33.5000,33.6500
Z" /> 
<path style="fill:#000000; fill-opacity:1.0000; stroke:none;fill-rule:evenodd;"
d="M 25.6500,9.0200
25.6614,8.9626
25.6939,8.9139
25.7426,8.8814
25.8000,8.8700
27.4500,8.8700
27.5074,8.8814
27.5561,8.9139
27.5886,8.9626
27.6000,9.0200
27.6000,9.3200
27.5886,9.3774
27.5561,9.4261
27.5074,9.4586
27.4500,9.4700
25.8000,9.4700
25.7426,9.4586
25.6939,9.4261
25.6614,9.3774
25.6500,9.3200
Z" /> 
<path style="fill:#000000; fill-opacity:1.0000; stroke:none;fill-rule:evenodd;"
d="M 25.6500,10.2900
25.6614,10.2326
25.6939,10.1839
25.7426,10.1514
25.8000,10.1400
27.4500,10.1400
27.5074,10.1514
27.5561,10.1839
27.5886,10.2326
27.6000,10.2900
27.6000,10.5900
27.5886,10.6474
27.5561,10.6961
27.5074,10.7286
27.4500,10.7400
25.8000,10.7400
25.7426,10.7286
25.6939,10.6961
25.6614,10.6474
25.6500,10.5900
Z" /> 
<path style="fill:#000000; fill-opacity:1.0000; stroke:none;fill-rule:evenodd;"
d="M 25.6500,11.5600
25.6614,11.5026
25.6939,11.4539
25.7426,11.4214
25.8000,11.4100
27.4500,11.4100
27.5074,11.4214
27.5561,11.4539
27.5886,11.5026
27.6000,11.5600
27.6000,11.8600
27.5886,11.9174
27.5561,11.9661
27.5074,11.9986
27.4500,12.0100
25.8000,12.0100
25.7426,11.9986
25.6939,11.9661
25.6614,11.9174
25.6500,11.8600
Z" /> 
<path style="fill:#000000; fill-opacity:1.0000; stroke:none;fill-rule:evenodd;"
d="M 25.6500,12.8300
25.6614,12.7726
25.6939,12.7239
25.7426,12.6914
25.8000,12.6800
27.4500,12.6800
27.5074,12.6914
27.5561,12.7239
27.5886,12.7726
27.6000,12.8300
27.6000,13.1300
27.5886,13.1874
27.5561,13.2361
27.5074,13.2686
27.4500,13.2800
25.8000,13.2800
25.7426,13.2686
25.6939,13.2361
25.6614,13.1874
25.6500,13.1300
Z" /> 
<path style="fill:#000000; fill-opacity:1.0000; stroke:none;fill-rule:evenodd;"
d="M 30.6000,12.8300
30.6114,12.7726
30.6439,12.7239
30.6926,12.6914
30.7500,12.6800
32.4000,12.6800
32.4574,12.6914
32.5061,12.7239
32.5386,12.7726
32.5500,12.8300
32.5500,13.1300
32.5386,13.1874
32.5061,13.2361
32.4574,13.2686
32.4000,13.2800
30.7500,13.2800
30.6926,13.2686
30.6439,13.2361
30.6114,13.1874
30.6000,13.1300
Z" /> 
<path style="fill:#000000; fill-opacity:1.0000; stroke:none;fill-rule:evenodd;"
d="M 30.6000,11.5600
30.6114,11.5026
30.6439,11.4539
30.6926,11.4214
30.7500,11.4100
32.4000,11.4100
32.4574,11.4214
32.5061,11.4539
32.5386,11.5026
32.5500,11.5600
32.5500,11.8600
32.5386,11.9174
32.5061,11.9661
32.4574,11.9986
32.4000,12.0100
30.7500,12.0100
30.6926,11.9986
30.6439,11.9661
30.6114,11.9174
30.6000,11.8600
Z" /> 
<path style="fill:#000000; fill-opacity:1.0000; stroke:none;fill-rule:evenodd;"
d="M 30.6000,10.2900
30.6114,10.2326
30.6439,10.1839
30.6926,10.1514
30.7500,10.1400
32.4000,10.1400
32.4574,10.1514
32.5061,10.1839
32.5386,10.2326
32.5500,10.2900
32.5500,10.5900
32.5386,10.6474
32.5061,10.6961
32.4574,10.7286
32.4000,10.7400
30.7500,10.7400
30.6926,10.7286
30.6439,10.6961
30.6114,10.6474
30.6000,10.5900
Z" /> 
<path style="fill:#000000; fill-opacity:1.0000; stroke:none;fill-rule:evenodd;"
d="M 30.6000,9.0200
30.6114,8.9626
30.6439,8.9139
30.6926,8.8814
30.7500,8.8700
32.4000,8.8700
32.4574,8.8814
32.5061,8.9139
32.5386,8.9626
32.5500,9.0200
32.5500,9.3200
32.5386,9.3774
32.5061,9.4261
32.4574,9.4586
32.4000,9.4700
30.7500,9.4700
30.6926,9.4586
30.6439,9.4261
30.6114,9.3774
30.6000,9.3200
Z" /> 
<path style="fill:#000000; fill-opacity:1.0000; stroke:none;fill-rule:evenodd;"
d="M 22.6250,29.7000
22.5293,29.6810
22.4482,29.6268
22.3940,29.5457
22.3750,29.4500
22.3750,28.7750
22.3940,28.6793
22.4482,28.5982
22.5293,28.5440
22.6250,28.5250
23.5750,28.5250
23.6707,28.5440
23.7518,28.5982
23.8060,28.6793
23.8250,28.7750
23.8250,29.4500
23.8060,29.5457
23.7518,29.6268
23.6707,29.6810
23.5750,29.7000
Z" /> 
<path style="fill:#000000; fill-opacity:1.0000; stroke:none;fill-rule:evenodd;"
d="M 22.6250,27.6250
22.5293,27.6060
22.4482,27.5518
22.3940,27.4707
22.3750,27.3750
22.3750,26.7000
22.3940,26.6043
22.4482,26.5232
22.5293,26.4690
22.6250,26.4500
23.5750,26.4500
23.6707,26.4690
23.7518,26.5232
23.8060,26.6043
23.8250,26.7000
23.8250,27.3750
23.8060,27.4707
23.7518,27.5518
23.6707,27.6060
23.5750,27.6250
Z" /> 
</g>
<g style="fill:none; 
stroke:#000000; stroke-width:0.1500; stroke-opacity:1; 
stroke-linecap:round; stroke-linejoin:round;">
<path d="M0.1000 47.0750
L0.1000 0.0750
" />
<path d="M55.1000 47.0750
L0.1000 47.0750
" />
<path d="M55.1000 0.0750
L0.1000 0.0750
" />
<path d="M55.1000 0.0750
L55.1000 47.0750
" />
</g> 
</svg>
