M48
; DRILL file {KiCad 8.0.6} date 2025-01-14T22:13:34-0500
; FORMAT={-:-/ absolute / inch / decimal}
; #@! TF.CreationDate,2025-01-14T22:13:34-05:00
; #@! TF.GenerationSoftware,Kicad,Pcbnew,8.0.6
; #@! TF.FileFunction,Plated,1,2,PTH
FMAT,2
INCH
; #@! TA.AperFunction,Plated,PTH,ViaDrill
T1C0.0157
; #@! TA.AperFunction,Plated,PTH,ComponentDrill
T2C0.0299
; #@! TA.AperFunction,Plated,PTH,ComponentDrill
T3C0.0315
; #@! TA.AperFunction,Plated,PTH,ComponentDrill
T4C0.0394
; #@! TA.AperFunction,Plated,PTH,ComponentDrill
T5C0.0472
%
G90
G05
T1
X4.2707Y-3.9913
X4.6924Y-3.6256
X5.0705Y-3.0545
X5.4592Y-3.9385
X5.5161Y-4.0702
X5.5485Y-3.47
X5.5894Y-3.717
X5.6698Y-4.6665
X5.6715Y-3.6863
X5.6825Y-4.0989
X5.7207Y-2.9126
X5.7575Y-3.7879
X5.7625Y-3.9473
X5.7656Y-2.9099
X5.7869Y-3.5495
X5.8435Y-3.0316
X5.877Y-4.9122
X5.8859Y-3.0902
X6.0025Y-3.2659
X6.0447Y-3.1921
X6.3805Y-2.7758
X6.3881Y-4.7997
T2
X6.9311Y-3.6024
X6.9311Y-3.7024
X6.9311Y-3.8024
X7.0311Y-3.5524
X7.0311Y-3.6524
X7.0311Y-3.7524
T3
X4.3701Y-2.7559
X4.3701Y-2.8559
X4.3701Y-2.9559
X4.3701Y-3.0559
X4.3701Y-3.1559
X4.3701Y-3.2559
X4.3701Y-3.3559
X4.3701Y-3.4559
X4.3701Y-3.5559
X4.3701Y-3.6559
X4.3701Y-3.7559
X4.3701Y-3.8559
X4.3701Y-3.9559
X4.3701Y-4.0559
X4.3701Y-4.1559
X4.3701Y-4.2559
X4.3701Y-4.3559
X4.3701Y-4.4559
X4.3701Y-4.5559
X4.3701Y-4.6559
X5.3701Y-2.7559
X5.3701Y-2.8559
X5.3701Y-2.9559
X5.3701Y-3.0559
X5.3701Y-3.1559
X5.3701Y-3.2559
X5.3701Y-3.3559
X5.3701Y-3.4559
X5.3701Y-3.5559
X5.3701Y-3.6559
X5.3701Y-3.7559
X5.3701Y-3.8559
X5.3701Y-3.9559
X5.3701Y-4.0559
X5.3701Y-4.1559
X5.3701Y-4.2559
X5.3701Y-4.3559
X5.3701Y-4.4559
X5.3701Y-4.5559
X5.3701Y-4.6559
X5.8417Y-2.5197
X5.8417Y-2.6197
X5.8417Y-2.7197
X5.8417Y-2.8197
X5.8417Y-2.9197
X5.8417Y-3.622
X5.8417Y-3.722
X5.8417Y-3.822
X5.8417Y-3.922
X5.9024Y-4.8638
X5.9024Y-4.9638
X5.9024Y-5.0638
X5.9417Y-2.4197
X5.9417Y-2.5197
X5.9417Y-2.6197
X5.9417Y-2.7197
X5.9417Y-2.8197
X5.9417Y-2.9197
X5.9417Y-3.0197
X5.9417Y-3.522
X5.9417Y-3.622
X5.9417Y-3.722
X5.9417Y-3.822
X5.9417Y-3.922
X5.9417Y-4.022
X6.0024Y-4.7638
X6.0024Y-4.8638
X6.0024Y-4.9638
X6.0024Y-5.0638
X6.0024Y-5.1638
X6.0417Y-2.4197
X6.0417Y-2.5197
X6.0417Y-2.9197
X6.0417Y-3.0197
X6.0417Y-3.522
X6.0417Y-3.622
X6.0417Y-3.922
X6.0417Y-4.022
X6.1024Y-4.7638
X6.1024Y-4.8638
X6.1024Y-5.0638
X6.1024Y-5.1638
X6.1417Y-2.4197
X6.1417Y-2.5197
X6.1417Y-2.9197
X6.1417Y-3.0197
X6.1417Y-3.522
X6.1417Y-3.622
X6.1417Y-3.922
X6.1417Y-4.022
X6.2024Y-4.7638
X6.2024Y-4.8638
X6.2024Y-4.9638
X6.2024Y-5.0638
X6.2024Y-5.1638
X6.2417Y-2.4197
X6.2417Y-2.5197
X6.2417Y-2.6197
X6.2417Y-2.7197
X6.2417Y-2.8197
X6.2417Y-2.9197
X6.2417Y-3.0197
X6.2417Y-3.522
X6.2417Y-3.622
X6.2417Y-3.722
X6.2417Y-3.822
X6.2417Y-3.922
X6.2417Y-4.022
X6.3024Y-4.8638
X6.3024Y-4.9638
X6.3024Y-5.0638
X6.3417Y-2.5197
X6.3417Y-2.6197
X6.3417Y-2.7197
X6.3417Y-2.8197
X6.3417Y-2.9197
X6.3417Y-3.622
X6.3417Y-3.722
X6.3417Y-3.822
X6.3417Y-3.922
T4
X4.4Y-5.5906
X4.4Y-5.6906
X4.5Y-5.5906
X4.5Y-5.6906
X4.6Y-5.5906
X4.6Y-5.6906
X4.7Y-5.5906
X4.7Y-5.6906
X4.8Y-5.5906
X4.8Y-5.6906
X4.9Y-5.5906
X4.9Y-5.6906
X5.0Y-5.5906
X5.0Y-5.6906
X5.748Y-5.8268
X5.848Y-5.8268
X5.948Y-5.8268
X6.048Y-5.8268
X6.148Y-5.8268
X7.0244Y-2.3264
X7.0244Y-2.4264
X7.0244Y-2.5264
X7.0244Y-2.6264
X7.0244Y-2.7264
X7.0244Y-2.8264
X7.0244Y-2.9264
X7.0244Y-3.0264
X7.0358Y-4.4866
X7.0358Y-4.5866
X7.0358Y-4.6866
X7.0358Y-4.7866
X7.0358Y-4.8866
X7.0358Y-4.9866
X7.1244Y-2.3264
X7.1244Y-2.4264
X7.1244Y-2.5264
X7.1244Y-2.6264
X7.1244Y-2.7264
X7.1244Y-2.8264
X7.1244Y-2.9264
X7.1244Y-3.0264
T5
X4.2913Y-5.0394
X4.2913Y-5.2756
X4.8913Y-5.0394
X4.8913Y-5.2756
X5.4331Y-4.9906
X5.4331Y-5.5906
M30
