G04 #@! TF.GenerationSoftware,KiCad,Pcbnew,8.0.6*
G04 #@! TF.CreationDate,2025-01-14T22:13:32-05:00*
G04 #@! TF.ProjectId,ConnAdapter,436f6e6e-4164-4617-9074-65722e6b6963,rev?*
G04 #@! TF.SameCoordinates,Original*
G04 #@! TF.FileFunction,Legend,Top*
G04 #@! TF.FilePolarity,Positive*
%FSLAX46Y46*%
G04 Gerber Fmt 4.6, Leading zero omitted, Abs format (unit mm)*
G04 Created by KiCad (PCBNEW 8.0.6) date 2025-01-14 22:13:32*
%MOMM*%
%LPD*%
G01*
G04 APERTURE LIST*
%ADD10C,0.150000*%
%ADD11C,0.120000*%
%ADD12C,0.100000*%
G04 APERTURE END LIST*
D10*
X127963333Y-128464819D02*
X127630000Y-127988628D01*
X127391905Y-128464819D02*
X127391905Y-127464819D01*
X127391905Y-127464819D02*
X127772857Y-127464819D01*
X127772857Y-127464819D02*
X127868095Y-127512438D01*
X127868095Y-127512438D02*
X127915714Y-127560057D01*
X127915714Y-127560057D02*
X127963333Y-127655295D01*
X127963333Y-127655295D02*
X127963333Y-127798152D01*
X127963333Y-127798152D02*
X127915714Y-127893390D01*
X127915714Y-127893390D02*
X127868095Y-127941009D01*
X127868095Y-127941009D02*
X127772857Y-127988628D01*
X127772857Y-127988628D02*
X127391905Y-127988628D01*
X128915714Y-128464819D02*
X128344286Y-128464819D01*
X128630000Y-128464819D02*
X128630000Y-127464819D01*
X128630000Y-127464819D02*
X128534762Y-127607676D01*
X128534762Y-127607676D02*
X128439524Y-127702914D01*
X128439524Y-127702914D02*
X128344286Y-127750533D01*
X127463333Y-134524819D02*
X127130000Y-134048628D01*
X126891905Y-134524819D02*
X126891905Y-133524819D01*
X126891905Y-133524819D02*
X127272857Y-133524819D01*
X127272857Y-133524819D02*
X127368095Y-133572438D01*
X127368095Y-133572438D02*
X127415714Y-133620057D01*
X127415714Y-133620057D02*
X127463333Y-133715295D01*
X127463333Y-133715295D02*
X127463333Y-133858152D01*
X127463333Y-133858152D02*
X127415714Y-133953390D01*
X127415714Y-133953390D02*
X127368095Y-134001009D01*
X127368095Y-134001009D02*
X127272857Y-134048628D01*
X127272857Y-134048628D02*
X126891905Y-134048628D01*
X127844286Y-133620057D02*
X127891905Y-133572438D01*
X127891905Y-133572438D02*
X127987143Y-133524819D01*
X127987143Y-133524819D02*
X128225238Y-133524819D01*
X128225238Y-133524819D02*
X128320476Y-133572438D01*
X128320476Y-133572438D02*
X128368095Y-133620057D01*
X128368095Y-133620057D02*
X128415714Y-133715295D01*
X128415714Y-133715295D02*
X128415714Y-133810533D01*
X128415714Y-133810533D02*
X128368095Y-133953390D01*
X128368095Y-133953390D02*
X127796667Y-134524819D01*
X127796667Y-134524819D02*
X128415714Y-134524819D01*
X153991905Y-86239819D02*
X153991905Y-85239819D01*
X153991905Y-85239819D02*
X154372857Y-85239819D01*
X154372857Y-85239819D02*
X154468095Y-85287438D01*
X154468095Y-85287438D02*
X154515714Y-85335057D01*
X154515714Y-85335057D02*
X154563333Y-85430295D01*
X154563333Y-85430295D02*
X154563333Y-85573152D01*
X154563333Y-85573152D02*
X154515714Y-85668390D01*
X154515714Y-85668390D02*
X154468095Y-85716009D01*
X154468095Y-85716009D02*
X154372857Y-85763628D01*
X154372857Y-85763628D02*
X153991905Y-85763628D01*
X155420476Y-85573152D02*
X155420476Y-86239819D01*
X155182381Y-85192200D02*
X154944286Y-85906485D01*
X154944286Y-85906485D02*
X155563333Y-85906485D01*
X137953333Y-124634819D02*
X137620000Y-124158628D01*
X137381905Y-124634819D02*
X137381905Y-123634819D01*
X137381905Y-123634819D02*
X137762857Y-123634819D01*
X137762857Y-123634819D02*
X137858095Y-123682438D01*
X137858095Y-123682438D02*
X137905714Y-123730057D01*
X137905714Y-123730057D02*
X137953333Y-123825295D01*
X137953333Y-123825295D02*
X137953333Y-123968152D01*
X137953333Y-123968152D02*
X137905714Y-124063390D01*
X137905714Y-124063390D02*
X137858095Y-124111009D01*
X137858095Y-124111009D02*
X137762857Y-124158628D01*
X137762857Y-124158628D02*
X137381905Y-124158628D01*
X138286667Y-123634819D02*
X138905714Y-123634819D01*
X138905714Y-123634819D02*
X138572381Y-124015771D01*
X138572381Y-124015771D02*
X138715238Y-124015771D01*
X138715238Y-124015771D02*
X138810476Y-124063390D01*
X138810476Y-124063390D02*
X138858095Y-124111009D01*
X138858095Y-124111009D02*
X138905714Y-124206247D01*
X138905714Y-124206247D02*
X138905714Y-124444342D01*
X138905714Y-124444342D02*
X138858095Y-124539580D01*
X138858095Y-124539580D02*
X138810476Y-124587200D01*
X138810476Y-124587200D02*
X138715238Y-124634819D01*
X138715238Y-124634819D02*
X138429524Y-124634819D01*
X138429524Y-124634819D02*
X138334286Y-124587200D01*
X138334286Y-124587200D02*
X138286667Y-124539580D01*
D11*
X122800000Y-128000000D02*
X122690000Y-128000000D01*
X122690000Y-130370000D02*
X122690000Y-125630000D01*
X122690000Y-125630000D02*
X110550000Y-125630000D01*
X110550000Y-130370000D02*
X122690000Y-130370000D01*
X110550000Y-125630000D02*
X110550000Y-130370000D01*
X110440000Y-128000000D02*
X110550000Y-128000000D01*
X180040000Y-115230000D02*
X180040000Y-127990000D01*
X180040000Y-112630000D02*
X180040000Y-113960000D01*
X178710000Y-112630000D02*
X180040000Y-112630000D01*
X177380000Y-127990000D02*
X180040000Y-127990000D01*
X177380000Y-115230000D02*
X180040000Y-115230000D01*
X177380000Y-115230000D02*
X177380000Y-127990000D01*
X157490000Y-149330000D02*
X157490000Y-146670000D01*
X147270000Y-149330000D02*
X157490000Y-149330000D01*
X147270000Y-149330000D02*
X147270000Y-146670000D01*
X147270000Y-146670000D02*
X157490000Y-146670000D01*
X146000000Y-149330000D02*
X144670000Y-149330000D01*
X144670000Y-149330000D02*
X144670000Y-148000000D01*
X185590000Y-77370000D02*
X185590000Y-76370000D01*
X185590000Y-76370000D02*
X184590000Y-76870000D01*
X184590000Y-76870000D02*
X185590000Y-77370000D01*
X182890000Y-78340000D02*
X182890000Y-57640000D01*
X182890000Y-78340000D02*
X176490000Y-78340000D01*
X182890000Y-65930000D02*
X182890000Y-65930000D01*
D12*
X176490000Y-70040000D02*
X177390000Y-70040000D01*
X176490000Y-65990000D02*
X177390000Y-65990000D01*
D11*
X176490000Y-57640000D02*
X182890000Y-57640000D01*
X162850000Y-133930000D02*
X162850000Y-118230000D01*
X162850000Y-118230000D02*
X156000000Y-118230000D01*
X154000000Y-118230000D02*
X148150000Y-118230000D01*
X148150000Y-118230000D02*
X147150000Y-119230000D01*
X147150000Y-133930000D02*
X162850000Y-133930000D01*
X147150000Y-119230000D02*
X147150000Y-133930000D01*
X122800000Y-134000000D02*
X122690000Y-134000000D01*
X122690000Y-136370000D02*
X122690000Y-131630000D01*
X122690000Y-131630000D02*
X110550000Y-131630000D01*
X110550000Y-136370000D02*
X122690000Y-136370000D01*
X110550000Y-131630000D02*
X110550000Y-136370000D01*
X110440000Y-134000000D02*
X110550000Y-134000000D01*
X163855000Y-79480000D02*
X163855000Y-58680000D01*
X163855000Y-58680000D02*
X155730000Y-58680000D01*
X153730000Y-58680000D02*
X146605000Y-58680000D01*
X146605000Y-58680000D02*
X145605000Y-59680000D01*
X145605000Y-79480000D02*
X163855000Y-79480000D01*
X145605000Y-59680000D02*
X145605000Y-79480000D01*
X186500000Y-100110000D02*
X186040000Y-100110000D01*
X186500000Y-86690000D02*
X186040000Y-86690000D01*
X183840000Y-100110000D02*
X174710000Y-100110000D01*
X176820000Y-100420000D02*
X175290000Y-100420000D01*
X174710000Y-100110000D02*
X174710000Y-86690000D01*
X174710000Y-86690000D02*
X183840000Y-86690000D01*
X132210000Y-147830000D02*
X106550000Y-147830000D01*
X132210000Y-138710000D02*
X132210000Y-147830000D01*
X130910000Y-146520000D02*
X107850000Y-146520000D01*
X130910000Y-140020000D02*
X130910000Y-146520000D01*
X127500000Y-137320000D02*
X126500000Y-137320000D01*
X127000000Y-138320000D02*
X127500000Y-137320000D01*
X126500000Y-137320000D02*
X127000000Y-138320000D01*
X121430000Y-140020000D02*
X130910000Y-140020000D01*
X121430000Y-138710000D02*
X121430000Y-140020000D01*
X117330000Y-140020000D02*
X117330000Y-140020000D01*
X117330000Y-140020000D02*
X117330000Y-138710000D01*
X107850000Y-146520000D02*
X107850000Y-140020000D01*
X107850000Y-140020000D02*
X117330000Y-140020000D01*
X106550000Y-147830000D02*
X106550000Y-138710000D01*
X106550000Y-138710000D02*
X132210000Y-138710000D01*
X163855000Y-104935000D02*
X163855000Y-86685000D01*
X163855000Y-86685000D02*
X155730000Y-86685000D01*
X153730000Y-86685000D02*
X146605000Y-86685000D01*
X146605000Y-86685000D02*
X145605000Y-87685000D01*
X145605000Y-104935000D02*
X163855000Y-104935000D01*
X145605000Y-87685000D02*
X145605000Y-104935000D01*
X124700000Y-68670000D02*
G75*
G02*
X122700000Y-68670000I-1000000J0D01*
G01*
X134840000Y-119590000D02*
X134840000Y-68670000D01*
X134840000Y-68670000D02*
X124700000Y-68670000D01*
X122700000Y-68670000D02*
X112560000Y-68670000D01*
X112560000Y-119590000D02*
X134840000Y-119590000D01*
X112560000Y-68670000D02*
X112560000Y-119590000D01*
X140370000Y-140450000D02*
X140370000Y-128310000D01*
X140370000Y-128310000D02*
X135630000Y-128310000D01*
X138000000Y-140560000D02*
X138000000Y-140450000D01*
X138000000Y-128200000D02*
X138000000Y-128310000D01*
X135630000Y-140450000D02*
X140370000Y-140450000D01*
X135630000Y-128310000D02*
X135630000Y-140450000D01*
M02*
