G04 #@! TF.GenerationSoftware,KiCad,Pcbnew,8.0.6*
G04 #@! TF.CreationDate,2025-01-14T22:13:31-05:00*
G04 #@! TF.ProjectId,ConnAdapter,436f6e6e-4164-4617-9074-65722e6b6963,rev?*
G04 #@! TF.SameCoordinates,Original*
G04 #@! TF.FileFunction,Copper,L1,Top*
G04 #@! TF.FilePolarity,Positive*
%FSLAX46Y46*%
G04 Gerber Fmt 4.6, Leading zero omitted, Abs format (unit mm)*
G04 Created by KiCad (PCBNEW 8.0.6) date 2025-01-14 22:13:31*
%MOMM*%
%LPD*%
G01*
G04 APERTURE LIST*
G04 Aperture macros list*
%AMRoundRect*
0 Rectangle with rounded corners*
0 $1 Rounding radius*
0 $2 $3 $4 $5 $6 $7 $8 $9 X,Y pos of 4 corners*
0 Add a 4 corners polygon primitive as box body*
4,1,4,$2,$3,$4,$5,$6,$7,$8,$9,$2,$3,0*
0 Add four circle primitives for the rounded corners*
1,1,$1+$1,$2,$3*
1,1,$1+$1,$4,$5*
1,1,$1+$1,$6,$7*
1,1,$1+$1,$8,$9*
0 Add four rect primitives between the rounded corners*
20,1,$1+$1,$2,$3,$4,$5,0*
20,1,$1+$1,$4,$5,$6,$7,0*
20,1,$1+$1,$6,$7,$8,$9,0*
20,1,$1+$1,$8,$9,$2,$3,0*%
G04 Aperture macros list end*
%ADD10C,0.300000*%
G04 #@! TA.AperFunction,NonConductor*
%ADD11C,0.300000*%
G04 #@! TD*
G04 #@! TA.AperFunction,ComponentPad*
%ADD12O,2.400000X2.400000*%
G04 #@! TD*
G04 #@! TA.AperFunction,ComponentPad*
%ADD13C,2.400000*%
G04 #@! TD*
G04 #@! TA.AperFunction,ComponentPad*
%ADD14O,1.700000X1.700000*%
G04 #@! TD*
G04 #@! TA.AperFunction,ComponentPad*
%ADD15R,1.700000X1.700000*%
G04 #@! TD*
G04 #@! TA.AperFunction,ComponentPad*
%ADD16C,1.700000*%
G04 #@! TD*
G04 #@! TA.AperFunction,ComponentPad*
%ADD17RoundRect,0.250000X0.600000X0.600000X-0.600000X0.600000X-0.600000X-0.600000X0.600000X-0.600000X0*%
G04 #@! TD*
G04 #@! TA.AperFunction,ComponentPad*
%ADD18C,1.422400*%
G04 #@! TD*
G04 #@! TA.AperFunction,ComponentPad*
%ADD19R,1.422400X1.422400*%
G04 #@! TD*
G04 #@! TA.AperFunction,ComponentPad*
%ADD20C,1.520000*%
G04 #@! TD*
G04 #@! TA.AperFunction,ComponentPad*
%ADD21RoundRect,0.250000X0.510000X-0.510000X0.510000X0.510000X-0.510000X0.510000X-0.510000X-0.510000X0*%
G04 #@! TD*
G04 #@! TA.AperFunction,ComponentPad*
%ADD22RoundRect,0.250000X-0.600000X0.600000X-0.600000X-0.600000X0.600000X-0.600000X0.600000X0.600000X0*%
G04 #@! TD*
G04 #@! TA.AperFunction,ComponentPad*
%ADD23O,2.400000X1.600000*%
G04 #@! TD*
G04 #@! TA.AperFunction,ComponentPad*
%ADD24R,2.400000X1.600000*%
G04 #@! TD*
G04 #@! TA.AperFunction,ViaPad*
%ADD25C,0.800000*%
G04 #@! TD*
G04 #@! TA.AperFunction,Conductor*
%ADD26C,0.250000*%
G04 #@! TD*
G04 APERTURE END LIST*
D10*
D11*
X161304510Y-143000828D02*
X161304510Y-141500828D01*
X161304510Y-141500828D02*
X161804510Y-142572257D01*
X161804510Y-142572257D02*
X162304510Y-141500828D01*
X162304510Y-141500828D02*
X162304510Y-143000828D01*
X163018796Y-143000828D02*
X163018796Y-142000828D01*
X163018796Y-141500828D02*
X162947368Y-141572257D01*
X162947368Y-141572257D02*
X163018796Y-141643685D01*
X163018796Y-141643685D02*
X163090225Y-141572257D01*
X163090225Y-141572257D02*
X163018796Y-141500828D01*
X163018796Y-141500828D02*
X163018796Y-141643685D01*
X164375940Y-142929400D02*
X164233082Y-143000828D01*
X164233082Y-143000828D02*
X163947368Y-143000828D01*
X163947368Y-143000828D02*
X163804511Y-142929400D01*
X163804511Y-142929400D02*
X163733082Y-142857971D01*
X163733082Y-142857971D02*
X163661654Y-142715114D01*
X163661654Y-142715114D02*
X163661654Y-142286542D01*
X163661654Y-142286542D02*
X163733082Y-142143685D01*
X163733082Y-142143685D02*
X163804511Y-142072257D01*
X163804511Y-142072257D02*
X163947368Y-142000828D01*
X163947368Y-142000828D02*
X164233082Y-142000828D01*
X164233082Y-142000828D02*
X164375940Y-142072257D01*
X165018796Y-143000828D02*
X165018796Y-141500828D01*
X165661654Y-143000828D02*
X165661654Y-142215114D01*
X165661654Y-142215114D02*
X165590225Y-142072257D01*
X165590225Y-142072257D02*
X165447368Y-142000828D01*
X165447368Y-142000828D02*
X165233082Y-142000828D01*
X165233082Y-142000828D02*
X165090225Y-142072257D01*
X165090225Y-142072257D02*
X165018796Y-142143685D01*
X166947368Y-142929400D02*
X166804511Y-143000828D01*
X166804511Y-143000828D02*
X166518797Y-143000828D01*
X166518797Y-143000828D02*
X166375939Y-142929400D01*
X166375939Y-142929400D02*
X166304511Y-142786542D01*
X166304511Y-142786542D02*
X166304511Y-142215114D01*
X166304511Y-142215114D02*
X166375939Y-142072257D01*
X166375939Y-142072257D02*
X166518797Y-142000828D01*
X166518797Y-142000828D02*
X166804511Y-142000828D01*
X166804511Y-142000828D02*
X166947368Y-142072257D01*
X166947368Y-142072257D02*
X167018797Y-142215114D01*
X167018797Y-142215114D02*
X167018797Y-142357971D01*
X167018797Y-142357971D02*
X166304511Y-142500828D01*
X167875939Y-143000828D02*
X167733082Y-142929400D01*
X167733082Y-142929400D02*
X167661653Y-142786542D01*
X167661653Y-142786542D02*
X167661653Y-141500828D01*
X170447367Y-142857971D02*
X170375939Y-142929400D01*
X170375939Y-142929400D02*
X170161653Y-143000828D01*
X170161653Y-143000828D02*
X170018796Y-143000828D01*
X170018796Y-143000828D02*
X169804510Y-142929400D01*
X169804510Y-142929400D02*
X169661653Y-142786542D01*
X169661653Y-142786542D02*
X169590224Y-142643685D01*
X169590224Y-142643685D02*
X169518796Y-142357971D01*
X169518796Y-142357971D02*
X169518796Y-142143685D01*
X169518796Y-142143685D02*
X169590224Y-141857971D01*
X169590224Y-141857971D02*
X169661653Y-141715114D01*
X169661653Y-141715114D02*
X169804510Y-141572257D01*
X169804510Y-141572257D02*
X170018796Y-141500828D01*
X170018796Y-141500828D02*
X170161653Y-141500828D01*
X170161653Y-141500828D02*
X170375939Y-141572257D01*
X170375939Y-141572257D02*
X170447367Y-141643685D01*
X171733082Y-143000828D02*
X171733082Y-142215114D01*
X171733082Y-142215114D02*
X171661653Y-142072257D01*
X171661653Y-142072257D02*
X171518796Y-142000828D01*
X171518796Y-142000828D02*
X171233082Y-142000828D01*
X171233082Y-142000828D02*
X171090224Y-142072257D01*
X171733082Y-142929400D02*
X171590224Y-143000828D01*
X171590224Y-143000828D02*
X171233082Y-143000828D01*
X171233082Y-143000828D02*
X171090224Y-142929400D01*
X171090224Y-142929400D02*
X171018796Y-142786542D01*
X171018796Y-142786542D02*
X171018796Y-142643685D01*
X171018796Y-142643685D02*
X171090224Y-142500828D01*
X171090224Y-142500828D02*
X171233082Y-142429400D01*
X171233082Y-142429400D02*
X171590224Y-142429400D01*
X171590224Y-142429400D02*
X171733082Y-142357971D01*
X172233082Y-142000828D02*
X172804510Y-142000828D01*
X172447367Y-141500828D02*
X172447367Y-142786542D01*
X172447367Y-142786542D02*
X172518796Y-142929400D01*
X172518796Y-142929400D02*
X172661653Y-143000828D01*
X172661653Y-143000828D02*
X172804510Y-143000828D01*
X173947368Y-142000828D02*
X173947368Y-143000828D01*
X173304510Y-142000828D02*
X173304510Y-142786542D01*
X173304510Y-142786542D02*
X173375939Y-142929400D01*
X173375939Y-142929400D02*
X173518796Y-143000828D01*
X173518796Y-143000828D02*
X173733082Y-143000828D01*
X173733082Y-143000828D02*
X173875939Y-142929400D01*
X173875939Y-142929400D02*
X173947368Y-142857971D01*
X175304511Y-143000828D02*
X175304511Y-141500828D01*
X175304511Y-142929400D02*
X175161653Y-143000828D01*
X175161653Y-143000828D02*
X174875939Y-143000828D01*
X174875939Y-143000828D02*
X174733082Y-142929400D01*
X174733082Y-142929400D02*
X174661653Y-142857971D01*
X174661653Y-142857971D02*
X174590225Y-142715114D01*
X174590225Y-142715114D02*
X174590225Y-142286542D01*
X174590225Y-142286542D02*
X174661653Y-142143685D01*
X174661653Y-142143685D02*
X174733082Y-142072257D01*
X174733082Y-142072257D02*
X174875939Y-142000828D01*
X174875939Y-142000828D02*
X175161653Y-142000828D01*
X175161653Y-142000828D02*
X175304511Y-142072257D01*
X176661654Y-143000828D02*
X176661654Y-142215114D01*
X176661654Y-142215114D02*
X176590225Y-142072257D01*
X176590225Y-142072257D02*
X176447368Y-142000828D01*
X176447368Y-142000828D02*
X176161654Y-142000828D01*
X176161654Y-142000828D02*
X176018796Y-142072257D01*
X176661654Y-142929400D02*
X176518796Y-143000828D01*
X176518796Y-143000828D02*
X176161654Y-143000828D01*
X176161654Y-143000828D02*
X176018796Y-142929400D01*
X176018796Y-142929400D02*
X175947368Y-142786542D01*
X175947368Y-142786542D02*
X175947368Y-142643685D01*
X175947368Y-142643685D02*
X176018796Y-142500828D01*
X176018796Y-142500828D02*
X176161654Y-142429400D01*
X176161654Y-142429400D02*
X176518796Y-142429400D01*
X176518796Y-142429400D02*
X176661654Y-142357971D01*
X177590225Y-143000828D02*
X177447368Y-142929400D01*
X177447368Y-142929400D02*
X177375939Y-142786542D01*
X177375939Y-142786542D02*
X177375939Y-141500828D01*
X179233082Y-141643685D02*
X179304510Y-141572257D01*
X179304510Y-141572257D02*
X179447368Y-141500828D01*
X179447368Y-141500828D02*
X179804510Y-141500828D01*
X179804510Y-141500828D02*
X179947368Y-141572257D01*
X179947368Y-141572257D02*
X180018796Y-141643685D01*
X180018796Y-141643685D02*
X180090225Y-141786542D01*
X180090225Y-141786542D02*
X180090225Y-141929400D01*
X180090225Y-141929400D02*
X180018796Y-142143685D01*
X180018796Y-142143685D02*
X179161653Y-143000828D01*
X179161653Y-143000828D02*
X180090225Y-143000828D01*
X181018796Y-141500828D02*
X181161653Y-141500828D01*
X181161653Y-141500828D02*
X181304510Y-141572257D01*
X181304510Y-141572257D02*
X181375939Y-141643685D01*
X181375939Y-141643685D02*
X181447367Y-141786542D01*
X181447367Y-141786542D02*
X181518796Y-142072257D01*
X181518796Y-142072257D02*
X181518796Y-142429400D01*
X181518796Y-142429400D02*
X181447367Y-142715114D01*
X181447367Y-142715114D02*
X181375939Y-142857971D01*
X181375939Y-142857971D02*
X181304510Y-142929400D01*
X181304510Y-142929400D02*
X181161653Y-143000828D01*
X181161653Y-143000828D02*
X181018796Y-143000828D01*
X181018796Y-143000828D02*
X180875939Y-142929400D01*
X180875939Y-142929400D02*
X180804510Y-142857971D01*
X180804510Y-142857971D02*
X180733081Y-142715114D01*
X180733081Y-142715114D02*
X180661653Y-142429400D01*
X180661653Y-142429400D02*
X180661653Y-142072257D01*
X180661653Y-142072257D02*
X180733081Y-141786542D01*
X180733081Y-141786542D02*
X180804510Y-141643685D01*
X180804510Y-141643685D02*
X180875939Y-141572257D01*
X180875939Y-141572257D02*
X181018796Y-141500828D01*
X182090224Y-141643685D02*
X182161652Y-141572257D01*
X182161652Y-141572257D02*
X182304510Y-141500828D01*
X182304510Y-141500828D02*
X182661652Y-141500828D01*
X182661652Y-141500828D02*
X182804510Y-141572257D01*
X182804510Y-141572257D02*
X182875938Y-141643685D01*
X182875938Y-141643685D02*
X182947367Y-141786542D01*
X182947367Y-141786542D02*
X182947367Y-141929400D01*
X182947367Y-141929400D02*
X182875938Y-142143685D01*
X182875938Y-142143685D02*
X182018795Y-143000828D01*
X182018795Y-143000828D02*
X182947367Y-143000828D01*
X184304509Y-141500828D02*
X183590223Y-141500828D01*
X183590223Y-141500828D02*
X183518795Y-142215114D01*
X183518795Y-142215114D02*
X183590223Y-142143685D01*
X183590223Y-142143685D02*
X183733081Y-142072257D01*
X183733081Y-142072257D02*
X184090223Y-142072257D01*
X184090223Y-142072257D02*
X184233081Y-142143685D01*
X184233081Y-142143685D02*
X184304509Y-142215114D01*
X184304509Y-142215114D02*
X184375938Y-142357971D01*
X184375938Y-142357971D02*
X184375938Y-142715114D01*
X184375938Y-142715114D02*
X184304509Y-142857971D01*
X184304509Y-142857971D02*
X184233081Y-142929400D01*
X184233081Y-142929400D02*
X184090223Y-143000828D01*
X184090223Y-143000828D02*
X183733081Y-143000828D01*
X183733081Y-143000828D02*
X183590223Y-142929400D01*
X183590223Y-142929400D02*
X183518795Y-142857971D01*
D10*
D11*
X154120828Y-144098346D02*
X153406542Y-144598346D01*
X154120828Y-144955489D02*
X152620828Y-144955489D01*
X152620828Y-144955489D02*
X152620828Y-144384060D01*
X152620828Y-144384060D02*
X152692257Y-144241203D01*
X152692257Y-144241203D02*
X152763685Y-144169774D01*
X152763685Y-144169774D02*
X152906542Y-144098346D01*
X152906542Y-144098346D02*
X153120828Y-144098346D01*
X153120828Y-144098346D02*
X153263685Y-144169774D01*
X153263685Y-144169774D02*
X153335114Y-144241203D01*
X153335114Y-144241203D02*
X153406542Y-144384060D01*
X153406542Y-144384060D02*
X153406542Y-144955489D01*
X154049400Y-142884060D02*
X154120828Y-143026917D01*
X154120828Y-143026917D02*
X154120828Y-143312632D01*
X154120828Y-143312632D02*
X154049400Y-143455489D01*
X154049400Y-143455489D02*
X153906542Y-143526917D01*
X153906542Y-143526917D02*
X153335114Y-143526917D01*
X153335114Y-143526917D02*
X153192257Y-143455489D01*
X153192257Y-143455489D02*
X153120828Y-143312632D01*
X153120828Y-143312632D02*
X153120828Y-143026917D01*
X153120828Y-143026917D02*
X153192257Y-142884060D01*
X153192257Y-142884060D02*
X153335114Y-142812632D01*
X153335114Y-142812632D02*
X153477971Y-142812632D01*
X153477971Y-142812632D02*
X153620828Y-143526917D01*
X154049400Y-142241203D02*
X154120828Y-142098346D01*
X154120828Y-142098346D02*
X154120828Y-141812632D01*
X154120828Y-141812632D02*
X154049400Y-141669775D01*
X154049400Y-141669775D02*
X153906542Y-141598346D01*
X153906542Y-141598346D02*
X153835114Y-141598346D01*
X153835114Y-141598346D02*
X153692257Y-141669775D01*
X153692257Y-141669775D02*
X153620828Y-141812632D01*
X153620828Y-141812632D02*
X153620828Y-142026918D01*
X153620828Y-142026918D02*
X153549400Y-142169775D01*
X153549400Y-142169775D02*
X153406542Y-142241203D01*
X153406542Y-142241203D02*
X153335114Y-142241203D01*
X153335114Y-142241203D02*
X153192257Y-142169775D01*
X153192257Y-142169775D02*
X153120828Y-142026918D01*
X153120828Y-142026918D02*
X153120828Y-141812632D01*
X153120828Y-141812632D02*
X153192257Y-141669775D01*
X154049400Y-140384060D02*
X154120828Y-140526917D01*
X154120828Y-140526917D02*
X154120828Y-140812632D01*
X154120828Y-140812632D02*
X154049400Y-140955489D01*
X154049400Y-140955489D02*
X153906542Y-141026917D01*
X153906542Y-141026917D02*
X153335114Y-141026917D01*
X153335114Y-141026917D02*
X153192257Y-140955489D01*
X153192257Y-140955489D02*
X153120828Y-140812632D01*
X153120828Y-140812632D02*
X153120828Y-140526917D01*
X153120828Y-140526917D02*
X153192257Y-140384060D01*
X153192257Y-140384060D02*
X153335114Y-140312632D01*
X153335114Y-140312632D02*
X153477971Y-140312632D01*
X153477971Y-140312632D02*
X153620828Y-141026917D01*
X153120828Y-139884060D02*
X153120828Y-139312632D01*
X152620828Y-139669775D02*
X153906542Y-139669775D01*
X153906542Y-139669775D02*
X154049400Y-139598346D01*
X154049400Y-139598346D02*
X154120828Y-139455489D01*
X154120828Y-139455489D02*
X154120828Y-139312632D01*
D10*
D11*
X155482257Y-144099774D02*
X155410828Y-144242632D01*
X155410828Y-144242632D02*
X155410828Y-144456917D01*
X155410828Y-144456917D02*
X155482257Y-144671203D01*
X155482257Y-144671203D02*
X155625114Y-144814060D01*
X155625114Y-144814060D02*
X155767971Y-144885489D01*
X155767971Y-144885489D02*
X156053685Y-144956917D01*
X156053685Y-144956917D02*
X156267971Y-144956917D01*
X156267971Y-144956917D02*
X156553685Y-144885489D01*
X156553685Y-144885489D02*
X156696542Y-144814060D01*
X156696542Y-144814060D02*
X156839400Y-144671203D01*
X156839400Y-144671203D02*
X156910828Y-144456917D01*
X156910828Y-144456917D02*
X156910828Y-144314060D01*
X156910828Y-144314060D02*
X156839400Y-144099774D01*
X156839400Y-144099774D02*
X156767971Y-144028346D01*
X156767971Y-144028346D02*
X156267971Y-144028346D01*
X156267971Y-144028346D02*
X156267971Y-144314060D01*
X156910828Y-143385489D02*
X155410828Y-143385489D01*
X155410828Y-143385489D02*
X156910828Y-142528346D01*
X156910828Y-142528346D02*
X155410828Y-142528346D01*
X156910828Y-141814060D02*
X155410828Y-141814060D01*
X155410828Y-141814060D02*
X155410828Y-141456917D01*
X155410828Y-141456917D02*
X155482257Y-141242631D01*
X155482257Y-141242631D02*
X155625114Y-141099774D01*
X155625114Y-141099774D02*
X155767971Y-141028345D01*
X155767971Y-141028345D02*
X156053685Y-140956917D01*
X156053685Y-140956917D02*
X156267971Y-140956917D01*
X156267971Y-140956917D02*
X156553685Y-141028345D01*
X156553685Y-141028345D02*
X156696542Y-141099774D01*
X156696542Y-141099774D02*
X156839400Y-141242631D01*
X156839400Y-141242631D02*
X156910828Y-141456917D01*
X156910828Y-141456917D02*
X156910828Y-141814060D01*
D10*
D11*
X147570828Y-145099774D02*
X147570828Y-144242632D01*
X149070828Y-144671203D02*
X147570828Y-144671203D01*
X149070828Y-143528346D02*
X148999400Y-143671203D01*
X148999400Y-143671203D02*
X148927971Y-143742632D01*
X148927971Y-143742632D02*
X148785114Y-143814060D01*
X148785114Y-143814060D02*
X148356542Y-143814060D01*
X148356542Y-143814060D02*
X148213685Y-143742632D01*
X148213685Y-143742632D02*
X148142257Y-143671203D01*
X148142257Y-143671203D02*
X148070828Y-143528346D01*
X148070828Y-143528346D02*
X148070828Y-143314060D01*
X148070828Y-143314060D02*
X148142257Y-143171203D01*
X148142257Y-143171203D02*
X148213685Y-143099775D01*
X148213685Y-143099775D02*
X148356542Y-143028346D01*
X148356542Y-143028346D02*
X148785114Y-143028346D01*
X148785114Y-143028346D02*
X148927971Y-143099775D01*
X148927971Y-143099775D02*
X148999400Y-143171203D01*
X148999400Y-143171203D02*
X149070828Y-143314060D01*
X149070828Y-143314060D02*
X149070828Y-143528346D01*
X149070828Y-142171203D02*
X148999400Y-142314060D01*
X148999400Y-142314060D02*
X148927971Y-142385489D01*
X148927971Y-142385489D02*
X148785114Y-142456917D01*
X148785114Y-142456917D02*
X148356542Y-142456917D01*
X148356542Y-142456917D02*
X148213685Y-142385489D01*
X148213685Y-142385489D02*
X148142257Y-142314060D01*
X148142257Y-142314060D02*
X148070828Y-142171203D01*
X148070828Y-142171203D02*
X148070828Y-141956917D01*
X148070828Y-141956917D02*
X148142257Y-141814060D01*
X148142257Y-141814060D02*
X148213685Y-141742632D01*
X148213685Y-141742632D02*
X148356542Y-141671203D01*
X148356542Y-141671203D02*
X148785114Y-141671203D01*
X148785114Y-141671203D02*
X148927971Y-141742632D01*
X148927971Y-141742632D02*
X148999400Y-141814060D01*
X148999400Y-141814060D02*
X149070828Y-141956917D01*
X149070828Y-141956917D02*
X149070828Y-142171203D01*
X149070828Y-140814060D02*
X148999400Y-140956917D01*
X148999400Y-140956917D02*
X148856542Y-141028346D01*
X148856542Y-141028346D02*
X147570828Y-141028346D01*
X147570828Y-139956917D02*
X147570828Y-139814060D01*
X147570828Y-139814060D02*
X147642257Y-139671203D01*
X147642257Y-139671203D02*
X147713685Y-139599775D01*
X147713685Y-139599775D02*
X147856542Y-139528346D01*
X147856542Y-139528346D02*
X148142257Y-139456917D01*
X148142257Y-139456917D02*
X148499400Y-139456917D01*
X148499400Y-139456917D02*
X148785114Y-139528346D01*
X148785114Y-139528346D02*
X148927971Y-139599775D01*
X148927971Y-139599775D02*
X148999400Y-139671203D01*
X148999400Y-139671203D02*
X149070828Y-139814060D01*
X149070828Y-139814060D02*
X149070828Y-139956917D01*
X149070828Y-139956917D02*
X148999400Y-140099775D01*
X148999400Y-140099775D02*
X148927971Y-140171203D01*
X148927971Y-140171203D02*
X148785114Y-140242632D01*
X148785114Y-140242632D02*
X148499400Y-140314060D01*
X148499400Y-140314060D02*
X148142257Y-140314060D01*
X148142257Y-140314060D02*
X147856542Y-140242632D01*
X147856542Y-140242632D02*
X147713685Y-140171203D01*
X147713685Y-140171203D02*
X147642257Y-140099775D01*
X147642257Y-140099775D02*
X147570828Y-139956917D01*
D10*
D11*
X151630828Y-144098346D02*
X150916542Y-144598346D01*
X151630828Y-144955489D02*
X150130828Y-144955489D01*
X150130828Y-144955489D02*
X150130828Y-144384060D01*
X150130828Y-144384060D02*
X150202257Y-144241203D01*
X150202257Y-144241203D02*
X150273685Y-144169774D01*
X150273685Y-144169774D02*
X150416542Y-144098346D01*
X150416542Y-144098346D02*
X150630828Y-144098346D01*
X150630828Y-144098346D02*
X150773685Y-144169774D01*
X150773685Y-144169774D02*
X150845114Y-144241203D01*
X150845114Y-144241203D02*
X150916542Y-144384060D01*
X150916542Y-144384060D02*
X150916542Y-144955489D01*
X151559400Y-142884060D02*
X151630828Y-143026917D01*
X151630828Y-143026917D02*
X151630828Y-143312632D01*
X151630828Y-143312632D02*
X151559400Y-143455489D01*
X151559400Y-143455489D02*
X151416542Y-143526917D01*
X151416542Y-143526917D02*
X150845114Y-143526917D01*
X150845114Y-143526917D02*
X150702257Y-143455489D01*
X150702257Y-143455489D02*
X150630828Y-143312632D01*
X150630828Y-143312632D02*
X150630828Y-143026917D01*
X150630828Y-143026917D02*
X150702257Y-142884060D01*
X150702257Y-142884060D02*
X150845114Y-142812632D01*
X150845114Y-142812632D02*
X150987971Y-142812632D01*
X150987971Y-142812632D02*
X151130828Y-143526917D01*
X151559400Y-142241203D02*
X151630828Y-142098346D01*
X151630828Y-142098346D02*
X151630828Y-141812632D01*
X151630828Y-141812632D02*
X151559400Y-141669775D01*
X151559400Y-141669775D02*
X151416542Y-141598346D01*
X151416542Y-141598346D02*
X151345114Y-141598346D01*
X151345114Y-141598346D02*
X151202257Y-141669775D01*
X151202257Y-141669775D02*
X151130828Y-141812632D01*
X151130828Y-141812632D02*
X151130828Y-142026918D01*
X151130828Y-142026918D02*
X151059400Y-142169775D01*
X151059400Y-142169775D02*
X150916542Y-142241203D01*
X150916542Y-142241203D02*
X150845114Y-142241203D01*
X150845114Y-142241203D02*
X150702257Y-142169775D01*
X150702257Y-142169775D02*
X150630828Y-142026918D01*
X150630828Y-142026918D02*
X150630828Y-141812632D01*
X150630828Y-141812632D02*
X150702257Y-141669775D01*
X151559400Y-140384060D02*
X151630828Y-140526917D01*
X151630828Y-140526917D02*
X151630828Y-140812632D01*
X151630828Y-140812632D02*
X151559400Y-140955489D01*
X151559400Y-140955489D02*
X151416542Y-141026917D01*
X151416542Y-141026917D02*
X150845114Y-141026917D01*
X150845114Y-141026917D02*
X150702257Y-140955489D01*
X150702257Y-140955489D02*
X150630828Y-140812632D01*
X150630828Y-140812632D02*
X150630828Y-140526917D01*
X150630828Y-140526917D02*
X150702257Y-140384060D01*
X150702257Y-140384060D02*
X150845114Y-140312632D01*
X150845114Y-140312632D02*
X150987971Y-140312632D01*
X150987971Y-140312632D02*
X151130828Y-141026917D01*
X150630828Y-139884060D02*
X150630828Y-139312632D01*
X150130828Y-139669775D02*
X151416542Y-139669775D01*
X151416542Y-139669775D02*
X151559400Y-139598346D01*
X151559400Y-139598346D02*
X151630828Y-139455489D01*
X151630828Y-139455489D02*
X151630828Y-139312632D01*
X151630828Y-137669775D02*
X150130828Y-137669775D01*
X151630828Y-136955489D02*
X150130828Y-136955489D01*
X150130828Y-136955489D02*
X151630828Y-136098346D01*
X151630828Y-136098346D02*
X150130828Y-136098346D01*
D10*
D11*
X144550828Y-144799774D02*
X146050828Y-144299774D01*
X146050828Y-144299774D02*
X144550828Y-143799774D01*
X146050828Y-143299775D02*
X144550828Y-143299775D01*
X144550828Y-143299775D02*
X144550828Y-142942632D01*
X144550828Y-142942632D02*
X144622257Y-142728346D01*
X144622257Y-142728346D02*
X144765114Y-142585489D01*
X144765114Y-142585489D02*
X144907971Y-142514060D01*
X144907971Y-142514060D02*
X145193685Y-142442632D01*
X145193685Y-142442632D02*
X145407971Y-142442632D01*
X145407971Y-142442632D02*
X145693685Y-142514060D01*
X145693685Y-142514060D02*
X145836542Y-142585489D01*
X145836542Y-142585489D02*
X145979400Y-142728346D01*
X145979400Y-142728346D02*
X146050828Y-142942632D01*
X146050828Y-142942632D02*
X146050828Y-143299775D01*
X146050828Y-141799775D02*
X144550828Y-141799775D01*
X144550828Y-141799775D02*
X144550828Y-141442632D01*
X144550828Y-141442632D02*
X144622257Y-141228346D01*
X144622257Y-141228346D02*
X144765114Y-141085489D01*
X144765114Y-141085489D02*
X144907971Y-141014060D01*
X144907971Y-141014060D02*
X145193685Y-140942632D01*
X145193685Y-140942632D02*
X145407971Y-140942632D01*
X145407971Y-140942632D02*
X145693685Y-141014060D01*
X145693685Y-141014060D02*
X145836542Y-141085489D01*
X145836542Y-141085489D02*
X145979400Y-141228346D01*
X145979400Y-141228346D02*
X146050828Y-141442632D01*
X146050828Y-141442632D02*
X146050828Y-141799775D01*
D12*
X124240000Y-128000000D03*
D13*
X109000000Y-128000000D03*
D14*
X178710000Y-126660000D03*
X178710000Y-124120000D03*
X178710000Y-121580000D03*
X178710000Y-119040000D03*
X178710000Y-116500000D03*
D15*
X178710000Y-113960000D03*
D14*
X156160000Y-148000000D03*
X153620000Y-148000000D03*
X151080000Y-148000000D03*
X148540000Y-148000000D03*
D15*
X146000000Y-148000000D03*
D16*
X178420000Y-59090000D03*
X180960000Y-59090000D03*
X178420000Y-61630000D03*
X180960000Y-61630000D03*
X178420000Y-64170000D03*
X180960000Y-64170000D03*
X178420000Y-66710000D03*
X180960000Y-66710000D03*
X178420000Y-69250000D03*
X180960000Y-69250000D03*
X178420000Y-71790000D03*
X180960000Y-71790000D03*
X178420000Y-74330000D03*
X180960000Y-74330000D03*
X178420000Y-76870000D03*
D17*
X180960000Y-76870000D03*
D18*
X157540000Y-123540000D03*
X157540000Y-121000000D03*
X160080000Y-123540000D03*
X157540000Y-126080000D03*
X160080000Y-126080000D03*
X157540000Y-128620000D03*
X160080000Y-128620000D03*
X157540000Y-131160000D03*
X155000000Y-128620000D03*
X155000000Y-131160000D03*
X152460000Y-128620000D03*
X152460000Y-131160000D03*
X149920000Y-128620000D03*
X152460000Y-126080000D03*
X149920000Y-126080000D03*
X152460000Y-123540000D03*
X149920000Y-123540000D03*
X152460000Y-121000000D03*
X155000000Y-123540000D03*
D19*
X155000000Y-121000000D03*
D12*
X124240000Y-134000000D03*
D13*
X109000000Y-134000000D03*
D18*
X156000000Y-61460000D03*
X158540000Y-64000000D03*
X158540000Y-61460000D03*
X161080000Y-64000000D03*
X158540000Y-66540000D03*
X161080000Y-66540000D03*
X158540000Y-69080000D03*
X161080000Y-69080000D03*
X158540000Y-71620000D03*
X161080000Y-71620000D03*
X158540000Y-74160000D03*
X161080000Y-74160000D03*
X158540000Y-76700000D03*
X156000000Y-74160000D03*
X156000000Y-76700000D03*
X153460000Y-74160000D03*
X153460000Y-76700000D03*
X150920000Y-74160000D03*
X150920000Y-76700000D03*
X148380000Y-74160000D03*
X150920000Y-71620000D03*
X148380000Y-71620000D03*
X150920000Y-69080000D03*
X148380000Y-69080000D03*
X150920000Y-66540000D03*
X148380000Y-66540000D03*
X150920000Y-64000000D03*
X148380000Y-64000000D03*
X150920000Y-61460000D03*
X153460000Y-64000000D03*
X153460000Y-61460000D03*
D19*
X156000000Y-64000000D03*
D20*
X178590000Y-90230000D03*
X176050000Y-91500000D03*
X178590000Y-92770000D03*
X176050000Y-94040000D03*
X178590000Y-95310000D03*
D21*
X176050000Y-96580000D03*
D16*
X111760000Y-144540000D03*
X111760000Y-142000000D03*
X114300000Y-144540000D03*
X114300000Y-142000000D03*
X116840000Y-144540000D03*
X116840000Y-142000000D03*
X119380000Y-144540000D03*
X119380000Y-142000000D03*
X121920000Y-144540000D03*
X121920000Y-142000000D03*
X124460000Y-144540000D03*
X124460000Y-142000000D03*
X127000000Y-144540000D03*
D22*
X127000000Y-142000000D03*
D18*
X156000000Y-89460000D03*
X158540000Y-92000000D03*
X158540000Y-89460000D03*
X161080000Y-92000000D03*
X158540000Y-94540000D03*
X161080000Y-94540000D03*
X158540000Y-97080000D03*
X161080000Y-97080000D03*
X158540000Y-99620000D03*
X161080000Y-99620000D03*
X158540000Y-102160000D03*
X156000000Y-99620000D03*
X156000000Y-102160000D03*
X153460000Y-99620000D03*
X153460000Y-102160000D03*
X150920000Y-99620000D03*
X150920000Y-102160000D03*
X148380000Y-99620000D03*
X150920000Y-97080000D03*
X148380000Y-97080000D03*
X150920000Y-94540000D03*
X148380000Y-94540000D03*
X150920000Y-92000000D03*
X148380000Y-92000000D03*
X150920000Y-89460000D03*
X153460000Y-92000000D03*
X153460000Y-89460000D03*
D19*
X156000000Y-92000000D03*
D23*
X136400000Y-70000000D03*
X136400000Y-72540000D03*
X136400000Y-75080000D03*
X136400000Y-77620000D03*
X136400000Y-80160000D03*
X136400000Y-82700000D03*
X136400000Y-85240000D03*
X136400000Y-87780000D03*
X136400000Y-90320000D03*
X136400000Y-92860000D03*
X136400000Y-95400000D03*
X136400000Y-97940000D03*
X136400000Y-100480000D03*
X136400000Y-103020000D03*
X136400000Y-105560000D03*
X136400000Y-108100000D03*
X136400000Y-110640000D03*
X136400000Y-113180000D03*
X136400000Y-115720000D03*
X136400000Y-118260000D03*
X111000000Y-118260000D03*
X111000000Y-115720000D03*
X111000000Y-113180000D03*
X111000000Y-110640000D03*
X111000000Y-108100000D03*
X111000000Y-105560000D03*
X111000000Y-103020000D03*
X111000000Y-100480000D03*
X111000000Y-97940000D03*
X111000000Y-95400000D03*
X111000000Y-92860000D03*
X111000000Y-90320000D03*
X111000000Y-87780000D03*
X111000000Y-85240000D03*
X111000000Y-82700000D03*
X111000000Y-80160000D03*
X111000000Y-77620000D03*
X111000000Y-75080000D03*
X111000000Y-72540000D03*
D24*
X111000000Y-70000000D03*
D12*
X138000000Y-126760000D03*
D13*
X138000000Y-142000000D03*
D25*
X144014000Y-118530000D03*
X128790000Y-77584300D03*
X108476000Y-101378000D03*
X149276000Y-124771000D03*
X146986000Y-90156400D03*
X140932000Y-88139100D03*
X146240000Y-96212500D03*
X146368000Y-100262000D03*
X119187000Y-92091300D03*
X146447000Y-73910200D03*
X144056000Y-93631100D03*
X152464000Y-82954600D03*
X153536000Y-81080300D03*
X138663000Y-100039000D03*
X140109000Y-103383000D03*
X141972000Y-94411500D03*
X144336000Y-104112000D03*
X149502000Y-78491300D03*
X148426000Y-77001700D03*
X162257000Y-121913000D03*
X145307000Y-73979900D03*
X162064000Y-70506200D03*
D26*
X156000000Y-62961900D02*
X156000000Y-64000000D01*
X111000000Y-70000000D02*
X112527000Y-70000000D01*
X154962000Y-61923800D02*
X156000000Y-62961900D01*
X112527000Y-70000000D02*
X122152000Y-60374800D01*
X122152000Y-60374800D02*
X153850000Y-60374800D01*
X154962000Y-61486500D02*
X154962000Y-61923800D01*
X153850000Y-60374800D02*
X154962000Y-61486500D01*
X110257000Y-101750000D02*
X113034000Y-101750000D01*
X108491000Y-75396700D02*
X108491000Y-99983900D01*
X151785000Y-122037000D02*
X151860000Y-122111000D01*
X153571000Y-122111000D02*
X155000000Y-123540000D01*
X111347000Y-72540000D02*
X108491000Y-75396700D01*
X133320000Y-122037000D02*
X151785000Y-122037000D01*
X122565000Y-62502300D02*
X152418000Y-62502300D01*
X111000000Y-72540000D02*
X111347000Y-72540000D01*
X152418000Y-62502300D02*
X153460000Y-61460000D01*
X151860000Y-122111000D02*
X153571000Y-122111000D01*
X108491000Y-99983900D02*
X110257000Y-101750000D01*
X113034000Y-101750000D02*
X133320000Y-122037000D01*
X111347000Y-72540000D02*
X112527000Y-72540000D01*
X112527000Y-72540000D02*
X122565000Y-62502300D01*
X149990000Y-118530000D02*
X152460000Y-121000000D01*
X152418000Y-62958200D02*
X153460000Y-64000000D01*
X112741000Y-99210000D02*
X110230000Y-99210000D01*
X111000000Y-75080000D02*
X112527000Y-75080000D01*
X108985000Y-75567700D02*
X109473000Y-75080000D01*
X127978000Y-114447000D02*
X112741000Y-99210000D01*
X144014000Y-118530000D02*
X139931000Y-114447000D01*
X108985000Y-97965500D02*
X108985000Y-75567700D01*
X110230000Y-99210000D02*
X108985000Y-97965500D01*
X109473000Y-75080000D02*
X111000000Y-75080000D01*
X112527000Y-75080000D02*
X124649000Y-62958200D01*
X124649000Y-62958200D02*
X152418000Y-62958200D01*
X144014000Y-118530000D02*
X149990000Y-118530000D01*
X139931000Y-114447000D02*
X127978000Y-114447000D01*
X139053000Y-83890200D02*
X147163000Y-92000000D01*
X135096000Y-83890200D02*
X139053000Y-83890200D01*
X128790000Y-77584300D02*
X135096000Y-83890200D01*
X147163000Y-92000000D02*
X148380000Y-92000000D01*
X108476000Y-102510000D02*
X108476000Y-101378000D01*
X152460000Y-123540000D02*
X151416000Y-122496000D01*
X151416000Y-122496000D02*
X130505000Y-122496000D01*
X130505000Y-122496000D02*
X112300000Y-104290000D01*
X111000000Y-80160000D02*
X112527000Y-80160000D01*
X112527000Y-80160000D02*
X128687000Y-64000000D01*
X110256000Y-104290000D02*
X108476000Y-102510000D01*
X112300000Y-104290000D02*
X110256000Y-104290000D01*
X128687000Y-64000000D02*
X148380000Y-64000000D01*
X129957000Y-65270000D02*
X149650000Y-65270000D01*
X140264000Y-86423900D02*
X148380000Y-94540000D01*
X111000000Y-82700000D02*
X112527000Y-82700000D01*
X109473000Y-82700000D02*
X109473000Y-85724000D01*
X110173000Y-86423900D02*
X140264000Y-86423900D01*
X149650000Y-65270000D02*
X150920000Y-64000000D01*
X111000000Y-82700000D02*
X109473000Y-82700000D01*
X112527000Y-82700000D02*
X129957000Y-65270000D01*
X109473000Y-85724000D02*
X110173000Y-86423900D01*
X129292000Y-75050800D02*
X135547000Y-81306000D01*
X129292000Y-75050800D02*
X137802000Y-66540000D01*
X135547000Y-81306000D02*
X138136000Y-81306000D01*
X122716000Y-75050800D02*
X129292000Y-75050800D01*
X112527000Y-85240000D02*
X122716000Y-75050800D01*
X111000000Y-85240000D02*
X112527000Y-85240000D01*
X151151000Y-124771000D02*
X152460000Y-126080000D01*
X138136000Y-81306000D02*
X146986000Y-90156400D01*
X137802000Y-66540000D02*
X148380000Y-66540000D01*
X149276000Y-124771000D02*
X151151000Y-124771000D01*
X140410000Y-88956400D02*
X140410000Y-88661500D01*
X112527000Y-87780000D02*
X111000000Y-87780000D01*
X140410000Y-88956400D02*
X113703000Y-88956400D01*
X149868000Y-96028400D02*
X150920000Y-97080000D01*
X146240000Y-96028400D02*
X146240000Y-94786900D01*
X113703000Y-88956400D02*
X112527000Y-87780000D01*
X146240000Y-96028400D02*
X146240000Y-96212500D01*
X140410000Y-88661500D02*
X140932000Y-88139100D01*
X146240000Y-96028400D02*
X149868000Y-96028400D01*
X146240000Y-94786900D02*
X140410000Y-88956400D01*
X146368000Y-99620000D02*
X146368000Y-100262000D01*
X146368000Y-99620000D02*
X148380000Y-99620000D01*
X146368000Y-99620000D02*
X143328000Y-96579900D01*
X123676000Y-96579900D02*
X119187000Y-92091300D01*
X143328000Y-96579900D02*
X123676000Y-96579900D01*
X150201000Y-101441000D02*
X150920000Y-102160000D01*
X118738000Y-99070800D02*
X141281000Y-99070800D01*
X111000000Y-92860000D02*
X112527000Y-92860000D01*
X141281000Y-99070800D02*
X143651000Y-101441000D01*
X112527000Y-92860000D02*
X118738000Y-99070800D01*
X143651000Y-101441000D02*
X150201000Y-101441000D01*
X139574000Y-94130000D02*
X134502000Y-94130000D01*
X109473000Y-95400000D02*
X111000000Y-95400000D01*
X134502000Y-94130000D02*
X131697000Y-91325700D01*
X144056000Y-95138800D02*
X140582000Y-95138800D01*
X131697000Y-91325700D02*
X118894000Y-91325700D01*
X118630000Y-91590000D02*
X110238000Y-91590000D01*
X144056000Y-93631100D02*
X144056000Y-95138800D01*
X118894000Y-91325700D02*
X118630000Y-91590000D01*
X109473000Y-92354600D02*
X109473000Y-95400000D01*
X146447000Y-73910200D02*
X146447000Y-76939500D01*
X147268000Y-98350000D02*
X149650000Y-98350000D01*
X140582000Y-95138800D02*
X139574000Y-94130000D01*
X146447000Y-76939500D02*
X152464000Y-82956200D01*
X110238000Y-91590000D02*
X109473000Y-92354600D01*
X149650000Y-98350000D02*
X150920000Y-99620000D01*
X152464000Y-82956200D02*
X152464000Y-82954600D01*
X144056000Y-95138800D02*
X147268000Y-98350000D01*
X152399000Y-103221000D02*
X153460000Y-102160000D01*
X149163000Y-101893000D02*
X150492000Y-103221000D01*
X150492000Y-103221000D02*
X152399000Y-103221000D01*
X112527000Y-97940000D02*
X116480000Y-101893000D01*
X111000000Y-97940000D02*
X112527000Y-97940000D01*
X116480000Y-101893000D02*
X149163000Y-101893000D01*
X152412000Y-79956400D02*
X153536000Y-81080300D01*
X152412000Y-75208200D02*
X152412000Y-79956400D01*
X153460000Y-74160000D02*
X152412000Y-75208200D01*
X138222000Y-100480000D02*
X138663000Y-100039000D01*
X136400000Y-100480000D02*
X138222000Y-100480000D01*
X142976000Y-97940000D02*
X136400000Y-97940000D01*
X154829000Y-100989000D02*
X146025000Y-100989000D01*
X156000000Y-102160000D02*
X154829000Y-100989000D01*
X146025000Y-100989000D02*
X142976000Y-97940000D01*
X157054000Y-102682000D02*
X156043000Y-103693000D01*
X148182000Y-103693000D02*
X147873000Y-103383000D01*
X156043000Y-103693000D02*
X148182000Y-103693000D01*
X157054000Y-100674000D02*
X157054000Y-102682000D01*
X156000000Y-99620000D02*
X157054000Y-100674000D01*
X147873000Y-103383000D02*
X140109000Y-103383000D01*
X144336000Y-104112000D02*
X144398000Y-104174000D01*
X163130000Y-99070400D02*
X160040000Y-102160000D01*
X163130000Y-73670100D02*
X163130000Y-99070400D01*
X140420000Y-92860000D02*
X141972000Y-94411500D01*
X160040000Y-102160000D02*
X158540000Y-102160000D01*
X156526000Y-104174000D02*
X158540000Y-102160000D01*
X136400000Y-92860000D02*
X140420000Y-92860000D01*
X144398000Y-104174000D02*
X156095000Y-104174000D01*
X156095000Y-130065000D02*
X156095000Y-104174000D01*
X161080000Y-71620000D02*
X163130000Y-73670100D01*
X156095000Y-104174000D02*
X156526000Y-104174000D01*
X155000000Y-131160000D02*
X156095000Y-130065000D01*
X159810000Y-72890000D02*
X159810000Y-78507200D01*
X162641000Y-98058600D02*
X161080000Y-99620000D01*
X158540000Y-71620000D02*
X159810000Y-72890000D01*
X162641000Y-81338600D02*
X162641000Y-98058600D01*
X159810000Y-78507200D02*
X162641000Y-81338600D01*
X162157000Y-91143400D02*
X153329000Y-82315400D01*
X158540000Y-99620000D02*
X159810000Y-98350000D01*
X159810000Y-70350000D02*
X161080000Y-69080000D01*
X153329000Y-82315400D02*
X157484000Y-78160200D01*
X157484000Y-78160200D02*
X157484000Y-71162500D01*
X157484000Y-71162500D02*
X158296000Y-70350000D01*
X159810000Y-98350000D02*
X161280000Y-98350000D01*
X158296000Y-70350000D02*
X159810000Y-70350000D01*
X162157000Y-97473800D02*
X162157000Y-91143400D01*
X149502000Y-78491300D02*
X153326000Y-82315400D01*
X161280000Y-98350000D02*
X162157000Y-97473800D01*
X153326000Y-82315400D02*
X153329000Y-82315400D01*
X148814000Y-93495100D02*
X149650000Y-94330900D01*
X149650000Y-94330900D02*
X149650000Y-94738000D01*
X157072000Y-69080000D02*
X152190000Y-73962000D01*
X139764000Y-85240000D02*
X148019000Y-93495100D01*
X152190000Y-74369100D02*
X150897000Y-75661900D01*
X150897000Y-75661900D02*
X149766000Y-75661900D01*
X150950000Y-96037600D02*
X160038000Y-96037600D01*
X160038000Y-96037600D02*
X161080000Y-97080000D01*
X152190000Y-73962000D02*
X152190000Y-74369100D01*
X148019000Y-93495100D02*
X148814000Y-93495100D01*
X149650000Y-94738000D02*
X150950000Y-96037600D01*
X149766000Y-75661900D02*
X148426000Y-77001700D01*
X136400000Y-85240000D02*
X139764000Y-85240000D01*
X158540000Y-69080000D02*
X157072000Y-69080000D01*
X138502000Y-82700000D02*
X146689000Y-90887100D01*
X156468000Y-95581700D02*
X160038000Y-95581700D01*
X158810000Y-127350000D02*
X157540000Y-128620000D01*
X159874000Y-124810000D02*
X158810000Y-125874000D01*
X149650000Y-91779600D02*
X149650000Y-92252300D01*
X162257000Y-121913000D02*
X162257000Y-122938000D01*
X162257000Y-122938000D02*
X160385000Y-124810000D01*
X146689000Y-90887100D02*
X148758000Y-90887100D01*
X149650000Y-92252300D02*
X150668000Y-93270000D01*
X154156000Y-93270000D02*
X156468000Y-95581700D01*
X148758000Y-90887100D02*
X149650000Y-91779600D01*
X160385000Y-124810000D02*
X159874000Y-124810000D01*
X150668000Y-93270000D02*
X154156000Y-93270000D01*
X158810000Y-125874000D02*
X158810000Y-127350000D01*
X136400000Y-82700000D02*
X138502000Y-82700000D01*
X160038000Y-95581700D02*
X161080000Y-94540000D01*
X153697000Y-90730000D02*
X154889000Y-91922500D01*
X154889000Y-91922500D02*
X154889000Y-92785800D01*
X159142000Y-67810000D02*
X161299000Y-67810000D01*
X146397000Y-72890000D02*
X152453000Y-72890000D01*
X164110000Y-70620900D02*
X164110000Y-122050000D01*
X152453000Y-72890000D02*
X158134000Y-67208300D01*
X136400000Y-80160000D02*
X143167000Y-80160000D01*
X158134000Y-67208300D02*
X158540000Y-67208300D01*
X143167000Y-80160000D02*
X152190000Y-89183200D01*
X161299000Y-67810000D02*
X164110000Y-70620900D01*
X153210000Y-90730000D02*
X153697000Y-90730000D01*
X152190000Y-89710300D02*
X153210000Y-90730000D01*
X164110000Y-122050000D02*
X160080000Y-126080000D01*
X145307000Y-73979900D02*
X146397000Y-72890000D01*
X152190000Y-89183200D02*
X152190000Y-89710300D01*
X158540000Y-67208300D02*
X158540000Y-66540000D01*
X156644000Y-94540000D02*
X158540000Y-94540000D01*
X158540000Y-67208300D02*
X159142000Y-67810000D01*
X154889000Y-92785800D02*
X156644000Y-94540000D01*
X151781000Y-84135000D02*
X152229000Y-84135000D01*
X152229000Y-84135000D02*
X157270000Y-89176100D01*
X159810000Y-90729700D02*
X161080000Y-92000000D01*
X157270000Y-89176100D02*
X157270000Y-89710300D01*
X158289000Y-90729700D02*
X159810000Y-90729700D01*
X157270000Y-89710300D02*
X158289000Y-90729700D01*
X162064000Y-70506200D02*
X163619000Y-72061500D01*
X158969000Y-107885000D02*
X158969000Y-124651000D01*
X163619000Y-72061500D02*
X163619000Y-103235000D01*
X136400000Y-77620000D02*
X145266000Y-77620000D01*
X163619000Y-103235000D02*
X158969000Y-107885000D01*
X145266000Y-77620000D02*
X151781000Y-84135000D01*
X158969000Y-124651000D02*
X157540000Y-126080000D01*
X152762000Y-83681600D02*
X158540000Y-89460000D01*
X147877000Y-70350000D02*
X152936000Y-70350000D01*
X152153000Y-83681600D02*
X152762000Y-83681600D01*
X159579000Y-62499200D02*
X158540000Y-61460000D01*
X137927000Y-75080000D02*
X138129000Y-74877500D01*
X138129000Y-74877500D02*
X143349000Y-74877500D01*
X143349000Y-74877500D02*
X152153000Y-83681600D01*
X159579000Y-64429300D02*
X159579000Y-62499200D01*
X136400000Y-75080000D02*
X137927000Y-75080000D01*
X143349000Y-74877500D02*
X147877000Y-70350000D01*
X158887000Y-65121800D02*
X159579000Y-64429300D01*
X158164000Y-65121800D02*
X158887000Y-65121800D01*
X152936000Y-70350000D02*
X158164000Y-65121800D01*
X136834000Y-72540000D02*
X134860000Y-74513600D01*
X158540000Y-64000000D02*
X154908000Y-67631500D01*
X154908000Y-67631500D02*
X142835000Y-67631500D01*
X157038000Y-90498100D02*
X158540000Y-92000000D01*
X154730000Y-89169300D02*
X154730000Y-89667000D01*
X136400000Y-72540000D02*
X136834000Y-72540000D01*
X154730000Y-89667000D02*
X155561000Y-90498100D01*
X134860000Y-74513600D02*
X134860000Y-78075400D01*
X134860000Y-78075400D02*
X135631000Y-78846400D01*
X142835000Y-67631500D02*
X137927000Y-72540000D01*
X137927000Y-72540000D02*
X136834000Y-72540000D01*
X144407000Y-78846400D02*
X154730000Y-89169300D01*
X155561000Y-90498100D02*
X157038000Y-90498100D01*
X135631000Y-78846400D02*
X144407000Y-78846400D01*
X178710000Y-112783000D02*
X178710000Y-113960000D01*
X176050000Y-96580000D02*
X176255000Y-96580000D01*
X176255000Y-96580000D02*
X176255000Y-110328000D01*
X176255000Y-110328000D02*
X178710000Y-112783000D01*
X177177000Y-95657800D02*
X176255000Y-96580000D01*
X177177000Y-80652800D02*
X177177000Y-95657800D01*
X180960000Y-76870000D02*
X177177000Y-80652800D01*
X178590000Y-95310000D02*
X179887000Y-96606900D01*
X179542000Y-115323000D02*
X178710000Y-115323000D01*
X178710000Y-115323000D02*
X178710000Y-116500000D01*
X179887000Y-96606900D02*
X179887000Y-114978000D01*
X179887000Y-114978000D02*
X179542000Y-115323000D01*
X182152000Y-72981600D02*
X182152000Y-89208400D01*
X182152000Y-89208400D02*
X178590000Y-92770000D01*
X180960000Y-71790000D02*
X182152000Y-72981600D01*
X178710000Y-122943000D02*
X178344000Y-122943000D01*
X178344000Y-122943000D02*
X174917000Y-119516000D01*
X178710000Y-124120000D02*
X178710000Y-122943000D01*
X174917000Y-119516000D02*
X174917000Y-92632600D01*
X174917000Y-92632600D02*
X176050000Y-91500000D01*
X123242000Y-143218000D02*
X123242000Y-136525000D01*
X124570000Y-146336000D02*
X149416000Y-146336000D01*
X121920000Y-144540000D02*
X122347000Y-144113000D01*
X149416000Y-146336000D02*
X151080000Y-148000000D01*
X123242000Y-136525000D02*
X124240000Y-135527000D01*
X122347000Y-144113000D02*
X124570000Y-146336000D01*
X122347000Y-144113000D02*
X123242000Y-143218000D01*
X124240000Y-135527000D02*
X124240000Y-134000000D01*
X116840000Y-142000000D02*
X116840000Y-135840000D01*
X116840000Y-135840000D02*
X109000000Y-128000000D01*
X111760000Y-136760000D02*
X109000000Y-134000000D01*
X153620000Y-148000000D02*
X153620000Y-148680000D01*
X111760000Y-142000000D02*
X111760000Y-136760000D01*
X121920000Y-131847000D02*
X121920000Y-142000000D01*
X124240000Y-128000000D02*
X124240000Y-129527000D01*
X124240000Y-129527000D02*
X121920000Y-131847000D01*
G04 #@! TA.AperFunction,Conductor*
G36*
X126534075Y-144732993D02*
G01*
X126599901Y-144847007D01*
X126692993Y-144940099D01*
X126807007Y-145005925D01*
X126875051Y-145024157D01*
X126233614Y-145665595D01*
X126171302Y-145699621D01*
X126144519Y-145702500D01*
X125523575Y-145702500D01*
X125455454Y-145682498D01*
X125408961Y-145628842D01*
X125398857Y-145558568D01*
X125428351Y-145493988D01*
X125430874Y-145491162D01*
X125535720Y-145377270D01*
X125535724Y-145377265D01*
X125583678Y-145303866D01*
X125624816Y-145240898D01*
X125678819Y-145194810D01*
X125749167Y-145185235D01*
X125813524Y-145215212D01*
X125835782Y-145240899D01*
X125876920Y-145303866D01*
X125876921Y-145303866D01*
X126515841Y-144664946D01*
X126534075Y-144732993D01*
G37*
G04 #@! TD.AperFunction*
G04 #@! TA.AperFunction,Conductor*
G36*
X113113225Y-142675669D02*
G01*
X113135480Y-142701353D01*
X113162926Y-142743362D01*
X113224275Y-142837265D01*
X113224279Y-142837270D01*
X113376762Y-143002908D01*
X113431331Y-143045381D01*
X113554424Y-143141189D01*
X113588205Y-143159470D01*
X113638596Y-143209482D01*
X113653949Y-143278799D01*
X113629389Y-143345412D01*
X113588208Y-143381097D01*
X113554700Y-143399230D01*
X113554693Y-143399235D01*
X113534311Y-143415099D01*
X113534310Y-143415100D01*
X114175052Y-144055842D01*
X114107007Y-144074075D01*
X113992993Y-144139901D01*
X113899901Y-144232993D01*
X113834075Y-144347007D01*
X113815842Y-144415052D01*
X113176921Y-143776131D01*
X113176920Y-143776132D01*
X113135482Y-143839558D01*
X113081479Y-143885647D01*
X113011131Y-143895222D01*
X112946773Y-143865245D01*
X112924516Y-143839558D01*
X112883078Y-143776132D01*
X112244157Y-144415051D01*
X112225925Y-144347007D01*
X112160099Y-144232993D01*
X112067007Y-144139901D01*
X111952993Y-144074075D01*
X111884947Y-144055841D01*
X112525688Y-143415100D01*
X112525687Y-143415099D01*
X112505308Y-143399237D01*
X112505298Y-143399231D01*
X112471791Y-143381097D01*
X112421401Y-143331083D01*
X112406050Y-143261766D01*
X112430612Y-143195153D01*
X112471790Y-143159472D01*
X112505576Y-143141189D01*
X112683240Y-143002906D01*
X112835722Y-142837268D01*
X112924518Y-142701354D01*
X112978520Y-142655268D01*
X113048868Y-142645692D01*
X113113225Y-142675669D01*
G37*
G04 #@! TD.AperFunction*
G04 #@! TA.AperFunction,Conductor*
G36*
X125628333Y-142845421D02*
G01*
X125686878Y-142885583D01*
X125703857Y-142916517D01*
X125704783Y-142916086D01*
X125707883Y-142922733D01*
X125707885Y-142922738D01*
X125757335Y-143002908D01*
X125800970Y-143073652D01*
X125800975Y-143073658D01*
X125926341Y-143199024D01*
X125926347Y-143199029D01*
X125926348Y-143199030D01*
X126077262Y-143292115D01*
X126146487Y-143315053D01*
X126204857Y-143355466D01*
X126226335Y-143407125D01*
X126875052Y-144055842D01*
X126807007Y-144074075D01*
X126692993Y-144139901D01*
X126599901Y-144232993D01*
X126534075Y-144347007D01*
X126515842Y-144415052D01*
X125876921Y-143776131D01*
X125876919Y-143776132D01*
X125835781Y-143839100D01*
X125781777Y-143885189D01*
X125711430Y-143894764D01*
X125647072Y-143864787D01*
X125624816Y-143839101D01*
X125583676Y-143776131D01*
X125535724Y-143702734D01*
X125535720Y-143702729D01*
X125383237Y-143537091D01*
X125301382Y-143473381D01*
X125205576Y-143398811D01*
X125172319Y-143380813D01*
X125121929Y-143330802D01*
X125106576Y-143261485D01*
X125131136Y-143194872D01*
X125172320Y-143159186D01*
X125205576Y-143141189D01*
X125383240Y-143002906D01*
X125496516Y-142879856D01*
X125557368Y-142843286D01*
X125628333Y-142845421D01*
G37*
G04 #@! TD.AperFunction*
G04 #@! TA.AperFunction,Conductor*
G36*
X115653225Y-142675669D02*
G01*
X115675480Y-142701353D01*
X115702926Y-142743362D01*
X115764275Y-142837265D01*
X115764279Y-142837270D01*
X115916762Y-143002908D01*
X115971331Y-143045381D01*
X116094424Y-143141189D01*
X116127680Y-143159186D01*
X116178071Y-143209200D01*
X116193423Y-143278516D01*
X116168862Y-143345129D01*
X116127680Y-143380813D01*
X116094426Y-143398810D01*
X116094424Y-143398811D01*
X115916762Y-143537091D01*
X115764279Y-143702729D01*
X115675183Y-143839101D01*
X115621179Y-143885189D01*
X115550831Y-143894764D01*
X115486474Y-143864786D01*
X115464217Y-143839100D01*
X115423078Y-143776132D01*
X114784157Y-144415051D01*
X114765925Y-144347007D01*
X114700099Y-144232993D01*
X114607007Y-144139901D01*
X114492993Y-144074075D01*
X114424947Y-144055841D01*
X115065688Y-143415100D01*
X115065687Y-143415099D01*
X115045308Y-143399237D01*
X115045298Y-143399231D01*
X115011791Y-143381097D01*
X114961401Y-143331083D01*
X114946050Y-143261766D01*
X114970612Y-143195153D01*
X115011790Y-143159472D01*
X115045576Y-143141189D01*
X115223240Y-143002906D01*
X115375722Y-142837268D01*
X115464518Y-142701354D01*
X115518520Y-142655268D01*
X115588868Y-142645692D01*
X115653225Y-142675669D01*
G37*
G04 #@! TD.AperFunction*
G04 #@! TA.AperFunction,Conductor*
G36*
X189916621Y-55045502D02*
G01*
X189963114Y-55099158D01*
X189974500Y-55151500D01*
X189974500Y-154848500D01*
X189954498Y-154916621D01*
X189900842Y-154963114D01*
X189848500Y-154974500D01*
X100151500Y-154974500D01*
X100083379Y-154954498D01*
X100036886Y-154900842D01*
X100025500Y-154848500D01*
X100025500Y-128000000D01*
X107286709Y-128000000D01*
X107305845Y-128255356D01*
X107362826Y-128505002D01*
X107362827Y-128505005D01*
X107456374Y-128743362D01*
X107456376Y-128743366D01*
X107584410Y-128965127D01*
X107584412Y-128965130D01*
X107584413Y-128965131D01*
X107744069Y-129165334D01*
X107931781Y-129339505D01*
X107931787Y-129339509D01*
X108143345Y-129483748D01*
X108143352Y-129483752D01*
X108143355Y-129483754D01*
X108276360Y-129547806D01*
X108374060Y-129594856D01*
X108374073Y-129594861D01*
X108618746Y-129670332D01*
X108618748Y-129670332D01*
X108618757Y-129670335D01*
X108871966Y-129708500D01*
X108871970Y-129708500D01*
X109128030Y-129708500D01*
X109128034Y-129708500D01*
X109381243Y-129670335D01*
X109609193Y-129600021D01*
X109680181Y-129599056D01*
X109735425Y-129631329D01*
X116169595Y-136065499D01*
X116203621Y-136127811D01*
X116206500Y-136154594D01*
X116206500Y-140723078D01*
X116186498Y-140791199D01*
X116140471Y-140833891D01*
X116094426Y-140858810D01*
X116094424Y-140858811D01*
X115916762Y-140997091D01*
X115764279Y-141162729D01*
X115675483Y-141298643D01*
X115621479Y-141344731D01*
X115551131Y-141354306D01*
X115486774Y-141324329D01*
X115464517Y-141298643D01*
X115375720Y-141162729D01*
X115223237Y-140997091D01*
X115141382Y-140933381D01*
X115045576Y-140858811D01*
X114847574Y-140751658D01*
X114847572Y-140751657D01*
X114847571Y-140751656D01*
X114634639Y-140678557D01*
X114634630Y-140678555D01*
X114590476Y-140671187D01*
X114412569Y-140641500D01*
X114187431Y-140641500D01*
X114039211Y-140666233D01*
X113965369Y-140678555D01*
X113965360Y-140678557D01*
X113752428Y-140751656D01*
X113752426Y-140751658D01*
X113554426Y-140858810D01*
X113554424Y-140858811D01*
X113376762Y-140997091D01*
X113224279Y-141162729D01*
X113135483Y-141298643D01*
X113081479Y-141344731D01*
X113011131Y-141354306D01*
X112946774Y-141324329D01*
X112924517Y-141298643D01*
X112835720Y-141162729D01*
X112683237Y-140997091D01*
X112601382Y-140933381D01*
X112505576Y-140858811D01*
X112477620Y-140843681D01*
X112459529Y-140833891D01*
X112409139Y-140783877D01*
X112393500Y-140723078D01*
X112393500Y-136697607D01*
X112393499Y-136697603D01*
X112369155Y-136575215D01*
X112321400Y-136459925D01*
X112252071Y-136356167D01*
X112163833Y-136267929D01*
X110628915Y-134733011D01*
X110594889Y-134670699D01*
X110599954Y-134599884D01*
X110600720Y-134597883D01*
X110637174Y-134505001D01*
X110694155Y-134255353D01*
X110713291Y-134000000D01*
X110694155Y-133744647D01*
X110637174Y-133494999D01*
X110632013Y-133481849D01*
X110543625Y-133256637D01*
X110543623Y-133256633D01*
X110415589Y-133034872D01*
X110414786Y-133033865D01*
X110255931Y-132834666D01*
X110068219Y-132660495D01*
X109856646Y-132516246D01*
X109856643Y-132516245D01*
X109856641Y-132516243D01*
X109856640Y-132516242D01*
X109625936Y-132405142D01*
X109625929Y-132405139D01*
X109381253Y-132329667D01*
X109381245Y-132329665D01*
X109381243Y-132329665D01*
X109128034Y-132291500D01*
X108871966Y-132291500D01*
X108618757Y-132329665D01*
X108618755Y-132329665D01*
X108618746Y-132329667D01*
X108374073Y-132405138D01*
X108374060Y-132405143D01*
X108143352Y-132516247D01*
X108143345Y-132516251D01*
X107931787Y-132660490D01*
X107931782Y-132660494D01*
X107744070Y-132834665D01*
X107584410Y-133034872D01*
X107456376Y-133256633D01*
X107456374Y-133256637D01*
X107362827Y-133494994D01*
X107362826Y-133494997D01*
X107305845Y-133744643D01*
X107286709Y-134000000D01*
X107305845Y-134255356D01*
X107362826Y-134505002D01*
X107362827Y-134505005D01*
X107456374Y-134743362D01*
X107456376Y-134743366D01*
X107584410Y-134965127D01*
X107584412Y-134965130D01*
X107584413Y-134965131D01*
X107744069Y-135165334D01*
X107931781Y-135339505D01*
X107931787Y-135339509D01*
X108143345Y-135483748D01*
X108143352Y-135483752D01*
X108143355Y-135483754D01*
X108276360Y-135547806D01*
X108374060Y-135594856D01*
X108374073Y-135594861D01*
X108618746Y-135670332D01*
X108618748Y-135670332D01*
X108618757Y-135670335D01*
X108871966Y-135708500D01*
X108871970Y-135708500D01*
X109128030Y-135708500D01*
X109128034Y-135708500D01*
X109381243Y-135670335D01*
X109609193Y-135600021D01*
X109680181Y-135599056D01*
X109735425Y-135631329D01*
X111089595Y-136985499D01*
X111123621Y-137047811D01*
X111126500Y-137074594D01*
X111126500Y-140723078D01*
X111106498Y-140791199D01*
X111060471Y-140833891D01*
X111014426Y-140858810D01*
X111014424Y-140858811D01*
X110836762Y-140997091D01*
X110684279Y-141162729D01*
X110684275Y-141162734D01*
X110561141Y-141351206D01*
X110470703Y-141557386D01*
X110470702Y-141557387D01*
X110415437Y-141775624D01*
X110396844Y-142000000D01*
X110415437Y-142224375D01*
X110470702Y-142442612D01*
X110470703Y-142442613D01*
X110470704Y-142442616D01*
X110498069Y-142505002D01*
X110561141Y-142648793D01*
X110684275Y-142837265D01*
X110684279Y-142837270D01*
X110836762Y-143002908D01*
X110891331Y-143045381D01*
X111014424Y-143141189D01*
X111048205Y-143159470D01*
X111098596Y-143209482D01*
X111113949Y-143278799D01*
X111089389Y-143345412D01*
X111048208Y-143381097D01*
X111014700Y-143399230D01*
X111014693Y-143399235D01*
X110994311Y-143415099D01*
X110994310Y-143415100D01*
X111635052Y-144055842D01*
X111567007Y-144074075D01*
X111452993Y-144139901D01*
X111359901Y-144232993D01*
X111294075Y-144347007D01*
X111275842Y-144415052D01*
X110636921Y-143776131D01*
X110636920Y-143776132D01*
X110561586Y-143891439D01*
X110561579Y-143891453D01*
X110471179Y-144097543D01*
X110471176Y-144097550D01*
X110415932Y-144315707D01*
X110397346Y-144540000D01*
X110415932Y-144764292D01*
X110471176Y-144982449D01*
X110471179Y-144982456D01*
X110561580Y-145188548D01*
X110636921Y-145303866D01*
X111275841Y-144664946D01*
X111294075Y-144732993D01*
X111359901Y-144847007D01*
X111452993Y-144940099D01*
X111567007Y-145005925D01*
X111635051Y-145024157D01*
X110994310Y-145664898D01*
X111014697Y-145680766D01*
X111014701Y-145680768D01*
X111212628Y-145787882D01*
X111212630Y-145787883D01*
X111425483Y-145860955D01*
X111425490Y-145860957D01*
X111647477Y-145898000D01*
X111872523Y-145898000D01*
X112094509Y-145860957D01*
X112094516Y-145860955D01*
X112307369Y-145787883D01*
X112307371Y-145787881D01*
X112505298Y-145680769D01*
X112525688Y-145664898D01*
X111884947Y-145024157D01*
X111952993Y-145005925D01*
X112067007Y-144940099D01*
X112160099Y-144847007D01*
X112225925Y-144732993D01*
X112244158Y-144664947D01*
X112883077Y-145303866D01*
X112883078Y-145303866D01*
X112924516Y-145240441D01*
X112978519Y-145194352D01*
X113048867Y-145184777D01*
X113113225Y-145214754D01*
X113135482Y-145240440D01*
X113176921Y-145303866D01*
X113815841Y-144664946D01*
X113834075Y-144732993D01*
X113899901Y-144847007D01*
X113992993Y-144940099D01*
X114107007Y-145005925D01*
X114175051Y-145024157D01*
X113534310Y-145664898D01*
X113554697Y-145680766D01*
X113554701Y-145680768D01*
X113752628Y-145787882D01*
X113752630Y-145787883D01*
X113965483Y-145860955D01*
X113965490Y-145860957D01*
X114187477Y-145898000D01*
X114412523Y-145898000D01*
X114634509Y-145860957D01*
X114634516Y-145860955D01*
X114847369Y-145787883D01*
X114847371Y-145787881D01*
X115045298Y-145680769D01*
X115065688Y-145664898D01*
X114424947Y-145024157D01*
X114492993Y-145005925D01*
X114607007Y-144940099D01*
X114700099Y-144847007D01*
X114765925Y-144732993D01*
X114784158Y-144664947D01*
X115423077Y-145303866D01*
X115423078Y-145303866D01*
X115464217Y-145240899D01*
X115518221Y-145194810D01*
X115588568Y-145185235D01*
X115652926Y-145215212D01*
X115675183Y-145240898D01*
X115764279Y-145377270D01*
X115916762Y-145542908D01*
X115936882Y-145558568D01*
X116094424Y-145681189D01*
X116292426Y-145788342D01*
X116292427Y-145788342D01*
X116292428Y-145788343D01*
X116404227Y-145826723D01*
X116505365Y-145861444D01*
X116727431Y-145898500D01*
X116727435Y-145898500D01*
X116952565Y-145898500D01*
X116952569Y-145898500D01*
X117174635Y-145861444D01*
X117387574Y-145788342D01*
X117585576Y-145681189D01*
X117763240Y-145542906D01*
X117915722Y-145377268D01*
X118004518Y-145241354D01*
X118058520Y-145195268D01*
X118128868Y-145185692D01*
X118193225Y-145215669D01*
X118215480Y-145241353D01*
X118248607Y-145292058D01*
X118304275Y-145377265D01*
X118304279Y-145377270D01*
X118456762Y-145542908D01*
X118476882Y-145558568D01*
X118634424Y-145681189D01*
X118832426Y-145788342D01*
X118832427Y-145788342D01*
X118832428Y-145788343D01*
X118944227Y-145826723D01*
X119045365Y-145861444D01*
X119267431Y-145898500D01*
X119267435Y-145898500D01*
X119492565Y-145898500D01*
X119492569Y-145898500D01*
X119714635Y-145861444D01*
X119927574Y-145788342D01*
X120125576Y-145681189D01*
X120303240Y-145542906D01*
X120455722Y-145377268D01*
X120544518Y-145241354D01*
X120598520Y-145195268D01*
X120668868Y-145185692D01*
X120733225Y-145215669D01*
X120755480Y-145241353D01*
X120788607Y-145292058D01*
X120844275Y-145377265D01*
X120844279Y-145377270D01*
X120996762Y-145542908D01*
X121016882Y-145558568D01*
X121174424Y-145681189D01*
X121372426Y-145788342D01*
X121372427Y-145788342D01*
X121372428Y-145788343D01*
X121484227Y-145826723D01*
X121585365Y-145861444D01*
X121807431Y-145898500D01*
X121807435Y-145898500D01*
X122032565Y-145898500D01*
X122032569Y-145898500D01*
X122254635Y-145861444D01*
X122467574Y-145788342D01*
X122665576Y-145681189D01*
X122776669Y-145594720D01*
X122842708Y-145568665D01*
X122912354Y-145582450D01*
X122943153Y-145605058D01*
X124166167Y-146828072D01*
X124269925Y-146897401D01*
X124385215Y-146945155D01*
X124507606Y-146969500D01*
X124632394Y-146969500D01*
X144515633Y-146969500D01*
X144583754Y-146989502D01*
X144630247Y-147043158D01*
X144640649Y-147097988D01*
X144641500Y-147097988D01*
X144641500Y-148898649D01*
X144648009Y-148959196D01*
X144648011Y-148959204D01*
X144699110Y-149096202D01*
X144699112Y-149096207D01*
X144786738Y-149213261D01*
X144903792Y-149300887D01*
X144903794Y-149300888D01*
X144903796Y-149300889D01*
X144957600Y-149320957D01*
X145040795Y-149351988D01*
X145040803Y-149351990D01*
X145101350Y-149358499D01*
X145101355Y-149358499D01*
X145101362Y-149358500D01*
X145101368Y-149358500D01*
X146898632Y-149358500D01*
X146898638Y-149358500D01*
X146898645Y-149358499D01*
X146898649Y-149358499D01*
X146959196Y-149351990D01*
X146959199Y-149351989D01*
X146959201Y-149351989D01*
X147096204Y-149300889D01*
X147166399Y-149248342D01*
X147213261Y-149213261D01*
X147300886Y-149096208D01*
X147300885Y-149096208D01*
X147300889Y-149096204D01*
X147344999Y-148977939D01*
X147387545Y-148921107D01*
X147454066Y-148896296D01*
X147523440Y-148911388D01*
X147555753Y-148936635D01*
X147576529Y-148959204D01*
X147616762Y-149002908D01*
X147671331Y-149045381D01*
X147794424Y-149141189D01*
X147992426Y-149248342D01*
X147992427Y-149248342D01*
X147992428Y-149248343D01*
X148104227Y-149286723D01*
X148205365Y-149321444D01*
X148427431Y-149358500D01*
X148427435Y-149358500D01*
X148652565Y-149358500D01*
X148652569Y-149358500D01*
X148874635Y-149321444D01*
X149087574Y-149248342D01*
X149285576Y-149141189D01*
X149463240Y-149002906D01*
X149615722Y-148837268D01*
X149704518Y-148701354D01*
X149758520Y-148655268D01*
X149828868Y-148645692D01*
X149893225Y-148675669D01*
X149915480Y-148701353D01*
X149948607Y-148752058D01*
X150004275Y-148837265D01*
X150004279Y-148837270D01*
X150156762Y-149002908D01*
X150211331Y-149045381D01*
X150334424Y-149141189D01*
X150532426Y-149248342D01*
X150532427Y-149248342D01*
X150532428Y-149248343D01*
X150644227Y-149286723D01*
X150745365Y-149321444D01*
X150967431Y-149358500D01*
X150967435Y-149358500D01*
X151192565Y-149358500D01*
X151192569Y-149358500D01*
X151414635Y-149321444D01*
X151627574Y-149248342D01*
X151825576Y-149141189D01*
X152003240Y-149002906D01*
X152155722Y-148837268D01*
X152244518Y-148701354D01*
X152298520Y-148655268D01*
X152368868Y-148645692D01*
X152433225Y-148675669D01*
X152455480Y-148701353D01*
X152488607Y-148752058D01*
X152544275Y-148837265D01*
X152544279Y-148837270D01*
X152696762Y-149002908D01*
X152751331Y-149045381D01*
X152874424Y-149141189D01*
X153072426Y-149248342D01*
X153072427Y-149248342D01*
X153072428Y-149248343D01*
X153184227Y-149286723D01*
X153285365Y-149321444D01*
X153507431Y-149358500D01*
X153507435Y-149358500D01*
X153732565Y-149358500D01*
X153732569Y-149358500D01*
X153954635Y-149321444D01*
X154167574Y-149248342D01*
X154365576Y-149141189D01*
X154543240Y-149002906D01*
X154695722Y-148837268D01*
X154784816Y-148700898D01*
X154838819Y-148654810D01*
X154909167Y-148645235D01*
X154973524Y-148675212D01*
X154995782Y-148700898D01*
X155084674Y-148836958D01*
X155237097Y-149002534D01*
X155414698Y-149140767D01*
X155414699Y-149140768D01*
X155612628Y-149247882D01*
X155612630Y-149247883D01*
X155825483Y-149320955D01*
X155825492Y-149320957D01*
X155906000Y-149334391D01*
X155906000Y-148430702D01*
X155967007Y-148465925D01*
X156094174Y-148500000D01*
X156225826Y-148500000D01*
X156352993Y-148465925D01*
X156414000Y-148430702D01*
X156414000Y-149334390D01*
X156494507Y-149320957D01*
X156494516Y-149320955D01*
X156707369Y-149247883D01*
X156707371Y-149247882D01*
X156905300Y-149140768D01*
X156905301Y-149140767D01*
X157082902Y-149002534D01*
X157235325Y-148836958D01*
X157358419Y-148648548D01*
X157448820Y-148442456D01*
X157448823Y-148442449D01*
X157496544Y-148254000D01*
X156590703Y-148254000D01*
X156625925Y-148192993D01*
X156660000Y-148065826D01*
X156660000Y-147934174D01*
X156625925Y-147807007D01*
X156590703Y-147746000D01*
X157496544Y-147746000D01*
X157496544Y-147745999D01*
X157448823Y-147557550D01*
X157448820Y-147557543D01*
X157358419Y-147351451D01*
X157235325Y-147163041D01*
X157082902Y-146997465D01*
X156905301Y-146859232D01*
X156905300Y-146859231D01*
X156707371Y-146752117D01*
X156707369Y-146752116D01*
X156494512Y-146679043D01*
X156494501Y-146679040D01*
X156414000Y-146665606D01*
X156414000Y-147569297D01*
X156352993Y-147534075D01*
X156225826Y-147500000D01*
X156094174Y-147500000D01*
X155967007Y-147534075D01*
X155906000Y-147569297D01*
X155906000Y-146665607D01*
X155905999Y-146665606D01*
X155825498Y-146679040D01*
X155825487Y-146679043D01*
X155612630Y-146752116D01*
X155612628Y-146752117D01*
X155414699Y-146859231D01*
X155414698Y-146859232D01*
X155237097Y-146997465D01*
X155084670Y-147163045D01*
X154995780Y-147299101D01*
X154941776Y-147345189D01*
X154871428Y-147354764D01*
X154807071Y-147324786D01*
X154784816Y-147299101D01*
X154745884Y-147239511D01*
X154695724Y-147162734D01*
X154695720Y-147162729D01*
X154579570Y-147036559D01*
X154543240Y-146997094D01*
X154543239Y-146997093D01*
X154543237Y-146997091D01*
X154461382Y-146933381D01*
X154365576Y-146858811D01*
X154167574Y-146751658D01*
X154167572Y-146751657D01*
X154167571Y-146751656D01*
X153954639Y-146678557D01*
X153954630Y-146678555D01*
X153877029Y-146665606D01*
X153732569Y-146641500D01*
X153507431Y-146641500D01*
X153362971Y-146665606D01*
X153285369Y-146678555D01*
X153285360Y-146678557D01*
X153072428Y-146751656D01*
X153072426Y-146751658D01*
X152931231Y-146828069D01*
X152874426Y-146858810D01*
X152874424Y-146858811D01*
X152696762Y-146997091D01*
X152544279Y-147162729D01*
X152455483Y-147298643D01*
X152401479Y-147344731D01*
X152331131Y-147354306D01*
X152266774Y-147324329D01*
X152244517Y-147298643D01*
X152155720Y-147162729D01*
X152039570Y-147036559D01*
X152003240Y-146997094D01*
X152003239Y-146997093D01*
X152003237Y-146997091D01*
X151921382Y-146933381D01*
X151825576Y-146858811D01*
X151627574Y-146751658D01*
X151627572Y-146751657D01*
X151627571Y-146751656D01*
X151414639Y-146678557D01*
X151414630Y-146678555D01*
X151337029Y-146665606D01*
X151192569Y-146641500D01*
X150967431Y-146641500D01*
X150840664Y-146662653D01*
X150745356Y-146678557D01*
X150742227Y-146679350D01*
X150740905Y-146679300D01*
X150740224Y-146679414D01*
X150740200Y-146679273D01*
X150671281Y-146676681D01*
X150622204Y-146646300D01*
X149819835Y-145843931D01*
X149817950Y-145842384D01*
X149817228Y-145841324D01*
X149815456Y-145839552D01*
X149815792Y-145839215D01*
X149777984Y-145783704D01*
X149776088Y-145712733D01*
X149812862Y-145652003D01*
X149876632Y-145620795D01*
X149897889Y-145618989D01*
X151955603Y-145618989D01*
X154688480Y-145618989D01*
X154702552Y-145623121D01*
X154744803Y-145623121D01*
X157576853Y-145623121D01*
X157576853Y-143666053D01*
X160639849Y-143666053D01*
X185041163Y-143666053D01*
X185041163Y-140835129D01*
X160639849Y-140835129D01*
X160639849Y-143666053D01*
X157576853Y-143666053D01*
X157576853Y-140290713D01*
X154913155Y-140290713D01*
X154845034Y-140270711D01*
X154798541Y-140217055D01*
X154787155Y-140164713D01*
X154787155Y-138649132D01*
X152423155Y-138649132D01*
X152355034Y-138629130D01*
X152308541Y-138575474D01*
X152297155Y-138523132D01*
X152297155Y-135432321D01*
X149464803Y-135432321D01*
X149464803Y-138664713D01*
X149444801Y-138732834D01*
X149391145Y-138779327D01*
X149338803Y-138790713D01*
X146905603Y-138790713D01*
X146905603Y-140161787D01*
X146885601Y-140229908D01*
X146831945Y-140276401D01*
X146761671Y-140286505D01*
X146739606Y-140276428D01*
X146716053Y-140276428D01*
X143885603Y-140276428D01*
X143885603Y-145465000D01*
X143908008Y-145487405D01*
X143942034Y-145549717D01*
X143936969Y-145620532D01*
X143894422Y-145677368D01*
X143827902Y-145702179D01*
X143818913Y-145702500D01*
X127855480Y-145702500D01*
X127787359Y-145682498D01*
X127766384Y-145665595D01*
X127124947Y-145024158D01*
X127192993Y-145005925D01*
X127307007Y-144940099D01*
X127400099Y-144847007D01*
X127465925Y-144732993D01*
X127484158Y-144664947D01*
X128123077Y-145303866D01*
X128198419Y-145188548D01*
X128288820Y-144982456D01*
X128288823Y-144982449D01*
X128344067Y-144764292D01*
X128362653Y-144540000D01*
X128344067Y-144315707D01*
X128288823Y-144097550D01*
X128288820Y-144097543D01*
X128198419Y-143891451D01*
X128123077Y-143776132D01*
X127484157Y-144415051D01*
X127465925Y-144347007D01*
X127400099Y-144232993D01*
X127307007Y-144139901D01*
X127192993Y-144074075D01*
X127124946Y-144055841D01*
X127775939Y-143404848D01*
X127783127Y-143373238D01*
X127833798Y-143323509D01*
X127853503Y-143315056D01*
X127922738Y-143292115D01*
X128073652Y-143199030D01*
X128199030Y-143073652D01*
X128292115Y-142922738D01*
X128347887Y-142754426D01*
X128358500Y-142650545D01*
X128358499Y-142000000D01*
X136286709Y-142000000D01*
X136305845Y-142255356D01*
X136362826Y-142505002D01*
X136362827Y-142505005D01*
X136456374Y-142743362D01*
X136456376Y-142743366D01*
X136584410Y-142965127D01*
X136584412Y-142965130D01*
X136584413Y-142965131D01*
X136744069Y-143165334D01*
X136931781Y-143339505D01*
X136931787Y-143339509D01*
X137143345Y-143483748D01*
X137143352Y-143483752D01*
X137143355Y-143483754D01*
X137254111Y-143537091D01*
X137374060Y-143594856D01*
X137374073Y-143594861D01*
X137618746Y-143670332D01*
X137618748Y-143670332D01*
X137618757Y-143670335D01*
X137871966Y-143708500D01*
X137871970Y-143708500D01*
X138128030Y-143708500D01*
X138128034Y-143708500D01*
X138381243Y-143670335D01*
X138395125Y-143666053D01*
X138625929Y-143594860D01*
X138625930Y-143594859D01*
X138625935Y-143594858D01*
X138856646Y-143483754D01*
X139068219Y-143339505D01*
X139255931Y-143165334D01*
X139415587Y-142965131D01*
X139543622Y-142743369D01*
X139637174Y-142505001D01*
X139694155Y-142255353D01*
X139713291Y-142000000D01*
X139694155Y-141744647D01*
X139637174Y-141494999D01*
X139632013Y-141481849D01*
X139543625Y-141256637D01*
X139543623Y-141256633D01*
X139415589Y-141034872D01*
X139415587Y-141034869D01*
X139255931Y-140834666D01*
X139068219Y-140660495D01*
X139055923Y-140652112D01*
X138856647Y-140516247D01*
X138856646Y-140516246D01*
X138856643Y-140516245D01*
X138856641Y-140516243D01*
X138856640Y-140516242D01*
X138625936Y-140405142D01*
X138625929Y-140405139D01*
X138381253Y-140329667D01*
X138381245Y-140329665D01*
X138381243Y-140329665D01*
X138128034Y-140291500D01*
X137871966Y-140291500D01*
X137618757Y-140329665D01*
X137618755Y-140329665D01*
X137618746Y-140329667D01*
X137374073Y-140405138D01*
X137374060Y-140405143D01*
X137143352Y-140516247D01*
X137143345Y-140516251D01*
X136931787Y-140660490D01*
X136931782Y-140660494D01*
X136744070Y-140834665D01*
X136584410Y-141034872D01*
X136456376Y-141256633D01*
X136456374Y-141256637D01*
X136362827Y-141494994D01*
X136362826Y-141494997D01*
X136305845Y-141744643D01*
X136286709Y-142000000D01*
X128358499Y-142000000D01*
X128358499Y-141349456D01*
X128356306Y-141327993D01*
X128347887Y-141245574D01*
X128319553Y-141160067D01*
X128292115Y-141077262D01*
X128199030Y-140926348D01*
X128199029Y-140926347D01*
X128199024Y-140926341D01*
X128073658Y-140800975D01*
X128073652Y-140800970D01*
X128026102Y-140771641D01*
X127922738Y-140707885D01*
X127779707Y-140660490D01*
X127754427Y-140652113D01*
X127754420Y-140652112D01*
X127650553Y-140641500D01*
X126349455Y-140641500D01*
X126245574Y-140652112D01*
X126077261Y-140707885D01*
X125926347Y-140800970D01*
X125926341Y-140800975D01*
X125800975Y-140926341D01*
X125800970Y-140926347D01*
X125757335Y-140997091D01*
X125734034Y-141034869D01*
X125707883Y-141077266D01*
X125704783Y-141083914D01*
X125702878Y-141083025D01*
X125668389Y-141132822D01*
X125602828Y-141160067D01*
X125532945Y-141147541D01*
X125496515Y-141120142D01*
X125383237Y-140997091D01*
X125301382Y-140933381D01*
X125205576Y-140858811D01*
X125007574Y-140751658D01*
X125007572Y-140751657D01*
X125007571Y-140751656D01*
X124794639Y-140678557D01*
X124794630Y-140678555D01*
X124750476Y-140671187D01*
X124572569Y-140641500D01*
X124347431Y-140641500D01*
X124199211Y-140666233D01*
X124125369Y-140678555D01*
X124125356Y-140678558D01*
X124042411Y-140707033D01*
X123971487Y-140710233D01*
X123910091Y-140674580D01*
X123877717Y-140611394D01*
X123875500Y-140587860D01*
X123875500Y-136839594D01*
X123895502Y-136771473D01*
X123912405Y-136750499D01*
X124306740Y-136356164D01*
X124732071Y-135930833D01*
X124801400Y-135827075D01*
X124849155Y-135711785D01*
X124860834Y-135653067D01*
X124893739Y-135590160D01*
X124929737Y-135564131D01*
X125096646Y-135483754D01*
X125308219Y-135339505D01*
X125495931Y-135165334D01*
X125655587Y-134965131D01*
X125783622Y-134743369D01*
X125810582Y-134674677D01*
X125877172Y-134505005D01*
X125877174Y-134505001D01*
X125934155Y-134255353D01*
X125953291Y-134000000D01*
X125934155Y-133744647D01*
X125877174Y-133494999D01*
X125872013Y-133481849D01*
X125783625Y-133256637D01*
X125783623Y-133256633D01*
X125655589Y-133034872D01*
X125654786Y-133033865D01*
X125495931Y-132834666D01*
X125308219Y-132660495D01*
X125096646Y-132516246D01*
X125096643Y-132516245D01*
X125096641Y-132516243D01*
X125096640Y-132516242D01*
X124865936Y-132405142D01*
X124865929Y-132405139D01*
X124621253Y-132329667D01*
X124621245Y-132329665D01*
X124621243Y-132329665D01*
X124368034Y-132291500D01*
X124111966Y-132291500D01*
X123858757Y-132329665D01*
X123858755Y-132329665D01*
X123858746Y-132329667D01*
X123614073Y-132405138D01*
X123614060Y-132405143D01*
X123383352Y-132516247D01*
X123383345Y-132516251D01*
X123171787Y-132660490D01*
X123171782Y-132660494D01*
X122984070Y-132834665D01*
X122824410Y-133034872D01*
X122788619Y-133096865D01*
X122737236Y-133145858D01*
X122667523Y-133159294D01*
X122601612Y-133132907D01*
X122560430Y-133075075D01*
X122553500Y-133033865D01*
X122553500Y-132161594D01*
X122573502Y-132093473D01*
X122590405Y-132072499D01*
X123502904Y-131160000D01*
X124732071Y-129930833D01*
X124801400Y-129827075D01*
X124801946Y-129825758D01*
X124849155Y-129711785D01*
X124860834Y-129653067D01*
X124893739Y-129590160D01*
X124929737Y-129564131D01*
X125096646Y-129483754D01*
X125308219Y-129339505D01*
X125495931Y-129165334D01*
X125655587Y-128965131D01*
X125783622Y-128743369D01*
X125810582Y-128674677D01*
X125877172Y-128505005D01*
X125877174Y-128505001D01*
X125934155Y-128255353D01*
X125953291Y-128000000D01*
X125934155Y-127744647D01*
X125877174Y-127494999D01*
X125850215Y-127426308D01*
X125783625Y-127256637D01*
X125783623Y-127256633D01*
X125769646Y-127232425D01*
X125655587Y-127034869D01*
X125495931Y-126834666D01*
X125415460Y-126760000D01*
X136286709Y-126760000D01*
X136305845Y-127015356D01*
X136362826Y-127265002D01*
X136362827Y-127265005D01*
X136456374Y-127503362D01*
X136456376Y-127503366D01*
X136584410Y-127725127D01*
X136584412Y-127725130D01*
X136584413Y-127725131D01*
X136744069Y-127925334D01*
X136931781Y-128099505D01*
X136931787Y-128099509D01*
X137143345Y-128243748D01*
X137143352Y-128243752D01*
X137143355Y-128243754D01*
X137276360Y-128307806D01*
X137374060Y-128354856D01*
X137374073Y-128354861D01*
X137618746Y-128430332D01*
X137618748Y-128430332D01*
X137618757Y-128430335D01*
X137871966Y-128468500D01*
X137871970Y-128468500D01*
X138128030Y-128468500D01*
X138128034Y-128468500D01*
X138381243Y-128430335D01*
X138455623Y-128407392D01*
X138625929Y-128354860D01*
X138625930Y-128354859D01*
X138625935Y-128354858D01*
X138856646Y-128243754D01*
X139068219Y-128099505D01*
X139255931Y-127925334D01*
X139415587Y-127725131D01*
X139543622Y-127503369D01*
X139546017Y-127497268D01*
X139607732Y-127340018D01*
X139637174Y-127265001D01*
X139694155Y-127015353D01*
X139713291Y-126760000D01*
X139694155Y-126504647D01*
X139637174Y-126254999D01*
X139632013Y-126241849D01*
X139543625Y-126016637D01*
X139543623Y-126016633D01*
X139540491Y-126011209D01*
X139457459Y-125867393D01*
X139415589Y-125794872D01*
X139371236Y-125739255D01*
X139255931Y-125594666D01*
X139068219Y-125420495D01*
X139023491Y-125390000D01*
X138934315Y-125329200D01*
X138856646Y-125276246D01*
X138856643Y-125276245D01*
X138856641Y-125276243D01*
X138856640Y-125276242D01*
X138625936Y-125165142D01*
X138625929Y-125165139D01*
X138381253Y-125089667D01*
X138381245Y-125089665D01*
X138381243Y-125089665D01*
X138128034Y-125051500D01*
X137871966Y-125051500D01*
X137618757Y-125089665D01*
X137618755Y-125089665D01*
X137618746Y-125089667D01*
X137374073Y-125165138D01*
X137374060Y-125165143D01*
X137143352Y-125276247D01*
X137143345Y-125276251D01*
X136931787Y-125420490D01*
X136931782Y-125420494D01*
X136744070Y-125594665D01*
X136584410Y-125794872D01*
X136456376Y-126016633D01*
X136456374Y-126016637D01*
X136362827Y-126254994D01*
X136362826Y-126254997D01*
X136305845Y-126504643D01*
X136286709Y-126760000D01*
X125415460Y-126760000D01*
X125308219Y-126660495D01*
X125096646Y-126516246D01*
X125096643Y-126516245D01*
X125096641Y-126516243D01*
X125096640Y-126516242D01*
X124865936Y-126405142D01*
X124865929Y-126405139D01*
X124621253Y-126329667D01*
X124621245Y-126329665D01*
X124621243Y-126329665D01*
X124368034Y-126291500D01*
X124111966Y-126291500D01*
X123858757Y-126329665D01*
X123858755Y-126329665D01*
X123858746Y-126329667D01*
X123614073Y-126405138D01*
X123614060Y-126405143D01*
X123383352Y-126516247D01*
X123383345Y-126516251D01*
X123171787Y-126660490D01*
X123171782Y-126660494D01*
X122984070Y-126834665D01*
X122824410Y-127034872D01*
X122696376Y-127256633D01*
X122696374Y-127256637D01*
X122602827Y-127494994D01*
X122602826Y-127494997D01*
X122545845Y-127744643D01*
X122526709Y-128000000D01*
X122545845Y-128255356D01*
X122602826Y-128505002D01*
X122602827Y-128505005D01*
X122696374Y-128743362D01*
X122696376Y-128743366D01*
X122824410Y-128965127D01*
X122824412Y-128965130D01*
X122824413Y-128965131D01*
X122984069Y-129165334D01*
X123171781Y-129339505D01*
X123171787Y-129339509D01*
X123260074Y-129399702D01*
X123305091Y-129454602D01*
X123313280Y-129525125D01*
X123282041Y-129588879D01*
X123278192Y-129592903D01*
X121516167Y-131354929D01*
X121427931Y-131443164D01*
X121427926Y-131443171D01*
X121384726Y-131507825D01*
X121358600Y-131546925D01*
X121345414Y-131578758D01*
X121310846Y-131662212D01*
X121286500Y-131784603D01*
X121286500Y-140723078D01*
X121266498Y-140791199D01*
X121220471Y-140833891D01*
X121174426Y-140858810D01*
X121174424Y-140858811D01*
X120996762Y-140997091D01*
X120844279Y-141162729D01*
X120755483Y-141298643D01*
X120701479Y-141344731D01*
X120631131Y-141354306D01*
X120566774Y-141324329D01*
X120544517Y-141298643D01*
X120455720Y-141162729D01*
X120303237Y-140997091D01*
X120221382Y-140933381D01*
X120125576Y-140858811D01*
X119927574Y-140751658D01*
X119927572Y-140751657D01*
X119927571Y-140751656D01*
X119714639Y-140678557D01*
X119714630Y-140678555D01*
X119670476Y-140671187D01*
X119492569Y-140641500D01*
X119267431Y-140641500D01*
X119119211Y-140666233D01*
X119045369Y-140678555D01*
X119045360Y-140678557D01*
X118832428Y-140751656D01*
X118832426Y-140751658D01*
X118634426Y-140858810D01*
X118634424Y-140858811D01*
X118456762Y-140997091D01*
X118304279Y-141162729D01*
X118215483Y-141298643D01*
X118161479Y-141344731D01*
X118091131Y-141354306D01*
X118026774Y-141324329D01*
X118004517Y-141298643D01*
X117915720Y-141162729D01*
X117763237Y-140997091D01*
X117681382Y-140933381D01*
X117585576Y-140858811D01*
X117557620Y-140843681D01*
X117539529Y-140833891D01*
X117489139Y-140783877D01*
X117473500Y-140723078D01*
X117473500Y-135777607D01*
X117473499Y-135777603D01*
X117449155Y-135655215D01*
X117401400Y-135539925D01*
X117332071Y-135436167D01*
X117243833Y-135347929D01*
X110628915Y-128733011D01*
X110594889Y-128670699D01*
X110599954Y-128599884D01*
X110600720Y-128597883D01*
X110637174Y-128505001D01*
X110694155Y-128255353D01*
X110713291Y-128000000D01*
X110694155Y-127744647D01*
X110637174Y-127494999D01*
X110610215Y-127426308D01*
X110543625Y-127256637D01*
X110543623Y-127256633D01*
X110529646Y-127232425D01*
X110415587Y-127034869D01*
X110255931Y-126834666D01*
X110068219Y-126660495D01*
X109856646Y-126516246D01*
X109856643Y-126516245D01*
X109856641Y-126516243D01*
X109856640Y-126516242D01*
X109625936Y-126405142D01*
X109625929Y-126405139D01*
X109381253Y-126329667D01*
X109381245Y-126329665D01*
X109381243Y-126329665D01*
X109128034Y-126291500D01*
X108871966Y-126291500D01*
X108618757Y-126329665D01*
X108618755Y-126329665D01*
X108618746Y-126329667D01*
X108374073Y-126405138D01*
X108374060Y-126405143D01*
X108143352Y-126516247D01*
X108143345Y-126516251D01*
X107931787Y-126660490D01*
X107931782Y-126660494D01*
X107744070Y-126834665D01*
X107584410Y-127034872D01*
X107456376Y-127256633D01*
X107456374Y-127256637D01*
X107362827Y-127494994D01*
X107362826Y-127494997D01*
X107305845Y-127744643D01*
X107286709Y-128000000D01*
X100025500Y-128000000D01*
X100025500Y-101378000D01*
X107562496Y-101378000D01*
X107582457Y-101567927D01*
X107612526Y-101660470D01*
X107641473Y-101749556D01*
X107736960Y-101914944D01*
X107810137Y-101996215D01*
X107840853Y-102060220D01*
X107842500Y-102080524D01*
X107842500Y-102572396D01*
X107850347Y-102611845D01*
X107866845Y-102694785D01*
X107914600Y-102810075D01*
X107983929Y-102913833D01*
X107983931Y-102913835D01*
X109600703Y-104530607D01*
X109634729Y-104592919D01*
X109629664Y-104663734D01*
X109604355Y-104703124D01*
X109605149Y-104703803D01*
X109601934Y-104707567D01*
X109480873Y-104874193D01*
X109387367Y-105057708D01*
X109387364Y-105057714D01*
X109323721Y-105253587D01*
X109323720Y-105253590D01*
X109323720Y-105253592D01*
X109291500Y-105457019D01*
X109291500Y-105662981D01*
X109323720Y-105866408D01*
X109387366Y-106062290D01*
X109480871Y-106245803D01*
X109601932Y-106412430D01*
X109601934Y-106412432D01*
X109601936Y-106412435D01*
X109747564Y-106558063D01*
X109747567Y-106558065D01*
X109747570Y-106558068D01*
X109914197Y-106679129D01*
X109989962Y-106717733D01*
X110041577Y-106766482D01*
X110058643Y-106835397D01*
X110035742Y-106902598D01*
X109989963Y-106942266D01*
X109921033Y-106977387D01*
X109914193Y-106980873D01*
X109747567Y-107101934D01*
X109747564Y-107101936D01*
X109601936Y-107247564D01*
X109601934Y-107247567D01*
X109480873Y-107414193D01*
X109387367Y-107597708D01*
X109387364Y-107597714D01*
X109323721Y-107793587D01*
X109323720Y-107793590D01*
X109323720Y-107793592D01*
X109291500Y-107997019D01*
X109291500Y-108202981D01*
X109323720Y-108406408D01*
X109387366Y-108602290D01*
X109480871Y-108785803D01*
X109601932Y-108952430D01*
X109601934Y-108952432D01*
X109601936Y-108952435D01*
X109747564Y-109098063D01*
X109747567Y-109098065D01*
X109747570Y-109098068D01*
X109914197Y-109219129D01*
X109989962Y-109257733D01*
X110041577Y-109306482D01*
X110058643Y-109375397D01*
X110035742Y-109442598D01*
X109989963Y-109482266D01*
X109921033Y-109517387D01*
X109914193Y-109520873D01*
X109747567Y-109641934D01*
X109747564Y-109641936D01*
X109601936Y-109787564D01*
X109601934Y-109787567D01*
X109480873Y-109954193D01*
X109387367Y-110137708D01*
X109387364Y-110137714D01*
X109323721Y-110333587D01*
X109323720Y-110333590D01*
X109323720Y-110333592D01*
X109291500Y-110537019D01*
X109291500Y-110742981D01*
X109323720Y-110946408D01*
X109387366Y-111142290D01*
X109480871Y-111325803D01*
X109601932Y-111492430D01*
X109601934Y-111492432D01*
X109601936Y-111492435D01*
X109747564Y-111638063D01*
X109747567Y-111638065D01*
X109747570Y-111638068D01*
X109914197Y-111759129D01*
X109989962Y-111797733D01*
X110041577Y-111846482D01*
X110058643Y-111915397D01*
X110035742Y-111982598D01*
X109989963Y-112022266D01*
X109921033Y-112057387D01*
X109914193Y-112060873D01*
X109747567Y-112181934D01*
X109747564Y-112181936D01*
X109601936Y-112327564D01*
X109601934Y-112327567D01*
X109480873Y-112494193D01*
X109387367Y-112677708D01*
X109387364Y-112677714D01*
X109323721Y-112873587D01*
X109323720Y-112873590D01*
X109323720Y-112873592D01*
X109291500Y-113077019D01*
X109291500Y-113282981D01*
X109323720Y-113486408D01*
X109387366Y-113682290D01*
X109480871Y-113865803D01*
X109601932Y-114032430D01*
X109601934Y-114032432D01*
X109601936Y-114032435D01*
X109747564Y-114178063D01*
X109747567Y-114178065D01*
X109747570Y-114178068D01*
X109914197Y-114299129D01*
X109989962Y-114337733D01*
X110041577Y-114386482D01*
X110058643Y-114455397D01*
X110035742Y-114522598D01*
X109989963Y-114562266D01*
X109921033Y-114597387D01*
X109914193Y-114600873D01*
X109747567Y-114721934D01*
X109747564Y-114721936D01*
X109601936Y-114867564D01*
X109601934Y-114867567D01*
X109480873Y-115034193D01*
X109387367Y-115217708D01*
X109387364Y-115217714D01*
X109323721Y-115413587D01*
X109323720Y-115413590D01*
X109323720Y-115413592D01*
X109291500Y-115617019D01*
X109291500Y-115822981D01*
X109323720Y-116026408D01*
X109323721Y-116026412D01*
X109333785Y-116057387D01*
X109387366Y-116222290D01*
X109480871Y-116405803D01*
X109601932Y-116572430D01*
X109601934Y-116572432D01*
X109601936Y-116572435D01*
X109747564Y-116718063D01*
X109747567Y-116718065D01*
X109747570Y-116718068D01*
X109914197Y-116839129D01*
X109989962Y-116877733D01*
X110041577Y-116926482D01*
X110058643Y-116995397D01*
X110035742Y-117062598D01*
X109989963Y-117102266D01*
X109921033Y-117137387D01*
X109914193Y-117140873D01*
X109747567Y-117261934D01*
X109747564Y-117261936D01*
X109601936Y-117407564D01*
X109601934Y-117407567D01*
X109480873Y-117574193D01*
X109387367Y-117757708D01*
X109387364Y-117757714D01*
X109323721Y-117953587D01*
X109323720Y-117953590D01*
X109323720Y-117953592D01*
X109291500Y-118157019D01*
X109291500Y-118362981D01*
X109323720Y-118566408D01*
X109323721Y-118566412D01*
X109373601Y-118719928D01*
X109387366Y-118762290D01*
X109480871Y-118945803D01*
X109601932Y-119112430D01*
X109601934Y-119112432D01*
X109601936Y-119112435D01*
X109747564Y-119258063D01*
X109747567Y-119258065D01*
X109747570Y-119258068D01*
X109914197Y-119379129D01*
X110097710Y-119472634D01*
X110293592Y-119536280D01*
X110497019Y-119568500D01*
X110497022Y-119568500D01*
X111502978Y-119568500D01*
X111502981Y-119568500D01*
X111706408Y-119536280D01*
X111902290Y-119472634D01*
X112085803Y-119379129D01*
X112252430Y-119258068D01*
X112398068Y-119112430D01*
X112519129Y-118945803D01*
X112612634Y-118762290D01*
X112676280Y-118566408D01*
X112708500Y-118362981D01*
X112708500Y-118157019D01*
X112676280Y-117953592D01*
X112612634Y-117757710D01*
X112519129Y-117574197D01*
X112398068Y-117407570D01*
X112398065Y-117407567D01*
X112398063Y-117407564D01*
X112252435Y-117261936D01*
X112252432Y-117261934D01*
X112252430Y-117261932D01*
X112085803Y-117140871D01*
X112010034Y-117102265D01*
X111958422Y-117053519D01*
X111941356Y-116984604D01*
X111964257Y-116917402D01*
X112010034Y-116877735D01*
X112085803Y-116839129D01*
X112252430Y-116718068D01*
X112398068Y-116572430D01*
X112519129Y-116405803D01*
X112612634Y-116222290D01*
X112676280Y-116026408D01*
X112708500Y-115822981D01*
X112708500Y-115617019D01*
X112676280Y-115413592D01*
X112612634Y-115217710D01*
X112519129Y-115034197D01*
X112398068Y-114867570D01*
X112398065Y-114867567D01*
X112398063Y-114867564D01*
X112252435Y-114721936D01*
X112252432Y-114721934D01*
X112252430Y-114721932D01*
X112085803Y-114600871D01*
X112010034Y-114562265D01*
X111958422Y-114513519D01*
X111941356Y-114444604D01*
X111964257Y-114377402D01*
X112010034Y-114337735D01*
X112085803Y-114299129D01*
X112252430Y-114178068D01*
X112398068Y-114032430D01*
X112519129Y-113865803D01*
X112612634Y-113682290D01*
X112676280Y-113486408D01*
X112708500Y-113282981D01*
X112708500Y-113077019D01*
X112676280Y-112873592D01*
X112612634Y-112677710D01*
X112519129Y-112494197D01*
X112398068Y-112327570D01*
X112398065Y-112327567D01*
X112398063Y-112327564D01*
X112252435Y-112181936D01*
X112252432Y-112181934D01*
X112252430Y-112181932D01*
X112085803Y-112060871D01*
X112010034Y-112022265D01*
X111958422Y-111973519D01*
X111941356Y-111904604D01*
X111964257Y-111837402D01*
X112010034Y-111797735D01*
X112085803Y-111759129D01*
X112252430Y-111638068D01*
X112398068Y-111492430D01*
X112519129Y-111325803D01*
X112612634Y-111142290D01*
X112676280Y-110946408D01*
X112708500Y-110742981D01*
X112708500Y-110537019D01*
X112676280Y-110333592D01*
X112612634Y-110137710D01*
X112519129Y-109954197D01*
X112398068Y-109787570D01*
X112398065Y-109787567D01*
X112398063Y-109787564D01*
X112252435Y-109641936D01*
X112252432Y-109641934D01*
X112252430Y-109641932D01*
X112085803Y-109520871D01*
X112010034Y-109482265D01*
X111958422Y-109433519D01*
X111941356Y-109364604D01*
X111964257Y-109297402D01*
X112010034Y-109257735D01*
X112085803Y-109219129D01*
X112252430Y-109098068D01*
X112398068Y-108952430D01*
X112519129Y-108785803D01*
X112612634Y-108602290D01*
X112676280Y-108406408D01*
X112708500Y-108202981D01*
X112708500Y-107997019D01*
X112676280Y-107793592D01*
X112612634Y-107597710D01*
X112519129Y-107414197D01*
X112398068Y-107247570D01*
X112398065Y-107247567D01*
X112398063Y-107247564D01*
X112252435Y-107101936D01*
X112252432Y-107101934D01*
X112252430Y-107101932D01*
X112085803Y-106980871D01*
X112010034Y-106942265D01*
X111958422Y-106893519D01*
X111941356Y-106824604D01*
X111964257Y-106757402D01*
X112010034Y-106717735D01*
X112085803Y-106679129D01*
X112252430Y-106558068D01*
X112398068Y-106412430D01*
X112519129Y-106245803D01*
X112612634Y-106062290D01*
X112676280Y-105866408D01*
X112679183Y-105848074D01*
X112709593Y-105783922D01*
X112769860Y-105746393D01*
X112840850Y-105747405D01*
X112892729Y-105778689D01*
X117822749Y-110708980D01*
X130008516Y-122895417D01*
X130008547Y-122895451D01*
X130012928Y-122899832D01*
X130012929Y-122899833D01*
X130064747Y-122951651D01*
X130064748Y-122951653D01*
X130064749Y-122951653D01*
X130101154Y-122988060D01*
X130101156Y-122988061D01*
X130101165Y-122988069D01*
X130101167Y-122988071D01*
X130138063Y-123012725D01*
X130156513Y-123025053D01*
X130156512Y-123025053D01*
X130204916Y-123057396D01*
X130204923Y-123057399D01*
X130204925Y-123057400D01*
X130265243Y-123082385D01*
X130265242Y-123082385D01*
X130282789Y-123089653D01*
X130318839Y-123104586D01*
X130320430Y-123105270D01*
X130320548Y-123105305D01*
X130323510Y-123105810D01*
X130389727Y-123118980D01*
X130389731Y-123118983D01*
X130389732Y-123118982D01*
X130442599Y-123129500D01*
X130525780Y-123129500D01*
X130567376Y-123129501D01*
X130567381Y-123129500D01*
X148603061Y-123129500D01*
X148671182Y-123149502D01*
X148717675Y-123203158D01*
X148727779Y-123273432D01*
X148724770Y-123288100D01*
X148714242Y-123327392D01*
X148714242Y-123327393D01*
X148695641Y-123540000D01*
X148714242Y-123752607D01*
X148759914Y-123923060D01*
X148758224Y-123994036D01*
X148718429Y-124052832D01*
X148712271Y-124057604D01*
X148664743Y-124092136D01*
X148536965Y-124234048D01*
X148536958Y-124234058D01*
X148441476Y-124399438D01*
X148441473Y-124399445D01*
X148382457Y-124581072D01*
X148362496Y-124771000D01*
X148382457Y-124960927D01*
X148401546Y-125019674D01*
X148441473Y-125142556D01*
X148441476Y-125142561D01*
X148536958Y-125307941D01*
X148536965Y-125307951D01*
X148664744Y-125449864D01*
X148732570Y-125499142D01*
X148775924Y-125555364D01*
X148782000Y-125626100D01*
X148772707Y-125654321D01*
X148769479Y-125661243D01*
X148733674Y-125794872D01*
X148714242Y-125867392D01*
X148695641Y-126080000D01*
X148714242Y-126292608D01*
X148724172Y-126329667D01*
X148769478Y-126498753D01*
X148769480Y-126498758D01*
X148859673Y-126692178D01*
X148859674Y-126692180D01*
X148982083Y-126866998D01*
X148982090Y-126867007D01*
X149132992Y-127017909D01*
X149133001Y-127017916D01*
X149157217Y-127034872D01*
X149307820Y-127140326D01*
X149457876Y-127210298D01*
X149501249Y-127230523D01*
X149504208Y-127231600D01*
X149505328Y-127232425D01*
X149506231Y-127232846D01*
X149506146Y-127233027D01*
X149561378Y-127273696D01*
X149586714Y-127340018D01*
X149572171Y-127409510D01*
X149522367Y-127460107D01*
X149504208Y-127468400D01*
X149501249Y-127469476D01*
X149307820Y-127559674D01*
X149133000Y-127682084D01*
X149132994Y-127682089D01*
X148982089Y-127832994D01*
X148982084Y-127833000D01*
X148859674Y-128007820D01*
X148769480Y-128201241D01*
X148769478Y-128201246D01*
X148734793Y-128330696D01*
X148714242Y-128407392D01*
X148695641Y-128620000D01*
X148714242Y-128832608D01*
X148743842Y-128943080D01*
X148769478Y-129038753D01*
X148769480Y-129038758D01*
X148859673Y-129232178D01*
X148859674Y-129232180D01*
X148982083Y-129406998D01*
X148982090Y-129407007D01*
X149132992Y-129557909D01*
X149132996Y-129557912D01*
X149132997Y-129557913D01*
X149307820Y-129680326D01*
X149501245Y-129770521D01*
X149707392Y-129825758D01*
X149920000Y-129844359D01*
X150132608Y-129825758D01*
X150338755Y-129770521D01*
X150532180Y-129680326D01*
X150707003Y-129557913D01*
X150857913Y-129407003D01*
X150980326Y-129232180D01*
X151070521Y-129038755D01*
X151070523Y-129038745D01*
X151071598Y-129035795D01*
X151072425Y-129034671D01*
X151072846Y-129033769D01*
X151073027Y-129033853D01*
X151113692Y-128978624D01*
X151180013Y-128953285D01*
X151249505Y-128967825D01*
X151300105Y-129017627D01*
X151308402Y-129035795D01*
X151309480Y-129038758D01*
X151399673Y-129232178D01*
X151399674Y-129232180D01*
X151522083Y-129406998D01*
X151522090Y-129407007D01*
X151672992Y-129557909D01*
X151672996Y-129557912D01*
X151672997Y-129557913D01*
X151847820Y-129680326D01*
X151915287Y-129711786D01*
X152041249Y-129770523D01*
X152044208Y-129771600D01*
X152045328Y-129772425D01*
X152046231Y-129772846D01*
X152046146Y-129773027D01*
X152101378Y-129813696D01*
X152126714Y-129880018D01*
X152112171Y-129949510D01*
X152062367Y-130000107D01*
X152044208Y-130008400D01*
X152041249Y-130009476D01*
X151847820Y-130099674D01*
X151673000Y-130222084D01*
X151672994Y-130222089D01*
X151522089Y-130372994D01*
X151522084Y-130373000D01*
X151399674Y-130547820D01*
X151309480Y-130741241D01*
X151309478Y-130741246D01*
X151274793Y-130870696D01*
X151254242Y-130947392D01*
X151235641Y-131160000D01*
X151254242Y-131372608D01*
X151283842Y-131483080D01*
X151309478Y-131578753D01*
X151309480Y-131578758D01*
X151399673Y-131772178D01*
X151399674Y-131772180D01*
X151522083Y-131946998D01*
X151522090Y-131947007D01*
X151672992Y-132097909D01*
X151672996Y-132097912D01*
X151672997Y-132097913D01*
X151847820Y-132220326D01*
X152041245Y-132310521D01*
X152247392Y-132365758D01*
X152460000Y-132384359D01*
X152672608Y-132365758D01*
X152878755Y-132310521D01*
X153072180Y-132220326D01*
X153247003Y-132097913D01*
X153397913Y-131947003D01*
X153520326Y-131772180D01*
X153610521Y-131578755D01*
X153610523Y-131578745D01*
X153611598Y-131575795D01*
X153612425Y-131574671D01*
X153612846Y-131573769D01*
X153613027Y-131573853D01*
X153653692Y-131518624D01*
X153720013Y-131493285D01*
X153789505Y-131507825D01*
X153840105Y-131557627D01*
X153848402Y-131575795D01*
X153849480Y-131578758D01*
X153939673Y-131772178D01*
X153939674Y-131772180D01*
X154062083Y-131946998D01*
X154062090Y-131947007D01*
X154212992Y-132097909D01*
X154212996Y-132097912D01*
X154212997Y-132097913D01*
X154387820Y-132220326D01*
X154581245Y-132310521D01*
X154787392Y-132365758D01*
X155000000Y-132384359D01*
X155212608Y-132365758D01*
X155418755Y-132310521D01*
X155612180Y-132220326D01*
X155787003Y-132097913D01*
X155937913Y-131947003D01*
X156060326Y-131772180D01*
X156150521Y-131578755D01*
X156150523Y-131578745D01*
X156151598Y-131575795D01*
X156152425Y-131574671D01*
X156152846Y-131573769D01*
X156153027Y-131573853D01*
X156193692Y-131518624D01*
X156260013Y-131493285D01*
X156329505Y-131507825D01*
X156380105Y-131557627D01*
X156388402Y-131575795D01*
X156389480Y-131578758D01*
X156479673Y-131772178D01*
X156479674Y-131772180D01*
X156602083Y-131946998D01*
X156602090Y-131947007D01*
X156752992Y-132097909D01*
X156752996Y-132097912D01*
X156752997Y-132097913D01*
X156927820Y-132220326D01*
X157121245Y-132310521D01*
X157327392Y-132365758D01*
X157540000Y-132384359D01*
X157752608Y-132365758D01*
X157958755Y-132310521D01*
X158152180Y-132220326D01*
X158327003Y-132097913D01*
X158477913Y-131947003D01*
X158600326Y-131772180D01*
X158690521Y-131578755D01*
X158745758Y-131372608D01*
X158764359Y-131160000D01*
X158745758Y-130947392D01*
X158690521Y-130741245D01*
X158600326Y-130547821D01*
X158477913Y-130372997D01*
X158327003Y-130222087D01*
X158327002Y-130222086D01*
X158327001Y-130222085D01*
X158326998Y-130222083D01*
X158152180Y-130099674D01*
X158152178Y-130099673D01*
X157958758Y-130009480D01*
X157955795Y-130008402D01*
X157954671Y-130007574D01*
X157953769Y-130007154D01*
X157953853Y-130006972D01*
X157898624Y-129966308D01*
X157873285Y-129899987D01*
X157887825Y-129830495D01*
X157937627Y-129779895D01*
X157955795Y-129771598D01*
X157958745Y-129770523D01*
X157958755Y-129770521D01*
X158152180Y-129680326D01*
X158327003Y-129557913D01*
X158477913Y-129407003D01*
X158600326Y-129232180D01*
X158690521Y-129038755D01*
X158690523Y-129038745D01*
X158691598Y-129035795D01*
X158692425Y-129034671D01*
X158692846Y-129033769D01*
X158693027Y-129033853D01*
X158733692Y-128978624D01*
X158800013Y-128953285D01*
X158869505Y-128967825D01*
X158920105Y-129017627D01*
X158928402Y-129035795D01*
X158929480Y-129038758D01*
X159019673Y-129232178D01*
X159019674Y-129232180D01*
X159142083Y-129406998D01*
X159142090Y-129407007D01*
X159292992Y-129557909D01*
X159292996Y-129557912D01*
X159292997Y-129557913D01*
X159467820Y-129680326D01*
X159661245Y-129770521D01*
X159867392Y-129825758D01*
X160080000Y-129844359D01*
X160292608Y-129825758D01*
X160498755Y-129770521D01*
X160692180Y-129680326D01*
X160867003Y-129557913D01*
X161017913Y-129407003D01*
X161140326Y-129232180D01*
X161230521Y-129038755D01*
X161285758Y-128832608D01*
X161304359Y-128620000D01*
X161285758Y-128407392D01*
X161230521Y-128201245D01*
X161140326Y-128007821D01*
X161017913Y-127832997D01*
X160867003Y-127682087D01*
X160867002Y-127682086D01*
X160867001Y-127682085D01*
X160866998Y-127682083D01*
X160692180Y-127559674D01*
X160692178Y-127559673D01*
X160498758Y-127469480D01*
X160495795Y-127468402D01*
X160494671Y-127467574D01*
X160493769Y-127467154D01*
X160493853Y-127466972D01*
X160438624Y-127426308D01*
X160413285Y-127359987D01*
X160427825Y-127290495D01*
X160477627Y-127239895D01*
X160495795Y-127231598D01*
X160498745Y-127230523D01*
X160498755Y-127230521D01*
X160692180Y-127140326D01*
X160867003Y-127017913D01*
X161017913Y-126867003D01*
X161140326Y-126692180D01*
X161230521Y-126498755D01*
X161285758Y-126292608D01*
X161304359Y-126080000D01*
X161285758Y-125867392D01*
X161284036Y-125860965D01*
X161285722Y-125789990D01*
X161316642Y-125739260D01*
X164602072Y-122453833D01*
X164671401Y-122350075D01*
X164719155Y-122234784D01*
X164721229Y-122224359D01*
X164722158Y-122219693D01*
X164743499Y-122112399D01*
X164743500Y-122112392D01*
X164743500Y-92700966D01*
X174283488Y-92700966D01*
X174283500Y-92701209D01*
X174283500Y-119453606D01*
X174283500Y-119578394D01*
X174307845Y-119700785D01*
X174355600Y-119816075D01*
X174424929Y-119919833D01*
X174424931Y-119919835D01*
X177622803Y-123117707D01*
X177656829Y-123180019D01*
X177651764Y-123250834D01*
X177636591Y-123278018D01*
X177637128Y-123278369D01*
X177511141Y-123471206D01*
X177420703Y-123677386D01*
X177420702Y-123677387D01*
X177365437Y-123895624D01*
X177365436Y-123895630D01*
X177365436Y-123895632D01*
X177346844Y-124120000D01*
X177363997Y-124327007D01*
X177365437Y-124344375D01*
X177420702Y-124562612D01*
X177420703Y-124562613D01*
X177420704Y-124562616D01*
X177501037Y-124745758D01*
X177511141Y-124768793D01*
X177634275Y-124957265D01*
X177634279Y-124957270D01*
X177786762Y-125122908D01*
X177811398Y-125142083D01*
X177964424Y-125261189D01*
X177997680Y-125279186D01*
X178048071Y-125329200D01*
X178063423Y-125398516D01*
X178038862Y-125465129D01*
X177997680Y-125500813D01*
X177964426Y-125518810D01*
X177964424Y-125518811D01*
X177786762Y-125657091D01*
X177634279Y-125822729D01*
X177634275Y-125822734D01*
X177511141Y-126011206D01*
X177420703Y-126217386D01*
X177420702Y-126217387D01*
X177365437Y-126435624D01*
X177365436Y-126435630D01*
X177365436Y-126435632D01*
X177346844Y-126660000D01*
X177363997Y-126867007D01*
X177365437Y-126884375D01*
X177420702Y-127102612D01*
X177420703Y-127102613D01*
X177420704Y-127102616D01*
X177503115Y-127290495D01*
X177511141Y-127308793D01*
X177634275Y-127497265D01*
X177634279Y-127497270D01*
X177786762Y-127662908D01*
X177811401Y-127682085D01*
X177964424Y-127801189D01*
X178162426Y-127908342D01*
X178162427Y-127908342D01*
X178162428Y-127908343D01*
X178211922Y-127925334D01*
X178375365Y-127981444D01*
X178597431Y-128018500D01*
X178597435Y-128018500D01*
X178822565Y-128018500D01*
X178822569Y-128018500D01*
X179044635Y-127981444D01*
X179257574Y-127908342D01*
X179455576Y-127801189D01*
X179633240Y-127662906D01*
X179785722Y-127497268D01*
X179908860Y-127308791D01*
X179999296Y-127102616D01*
X180054564Y-126884368D01*
X180073156Y-126660000D01*
X180054564Y-126435632D01*
X180027730Y-126329667D01*
X179999297Y-126217387D01*
X179999296Y-126217386D01*
X179999296Y-126217384D01*
X179908860Y-126011209D01*
X179902140Y-126000924D01*
X179785724Y-125822734D01*
X179785720Y-125822729D01*
X179637059Y-125661243D01*
X179633240Y-125657094D01*
X179633239Y-125657093D01*
X179633237Y-125657091D01*
X179508743Y-125560193D01*
X179455576Y-125518811D01*
X179422319Y-125500813D01*
X179371929Y-125450802D01*
X179356576Y-125381485D01*
X179381136Y-125314872D01*
X179422320Y-125279186D01*
X179455576Y-125261189D01*
X179633240Y-125122906D01*
X179785722Y-124957268D01*
X179908860Y-124768791D01*
X179999296Y-124562616D01*
X180054564Y-124344368D01*
X180073156Y-124120000D01*
X180054564Y-123895632D01*
X180048905Y-123873285D01*
X179999297Y-123677387D01*
X179999296Y-123677386D01*
X179999296Y-123677384D01*
X179908860Y-123471209D01*
X179902140Y-123460924D01*
X179785724Y-123282734D01*
X179785720Y-123282729D01*
X179663074Y-123149502D01*
X179633240Y-123117094D01*
X179633239Y-123117093D01*
X179633237Y-123117091D01*
X179514987Y-123025053D01*
X179455576Y-122978811D01*
X179455569Y-122978807D01*
X179422317Y-122960811D01*
X179371928Y-122910797D01*
X179356577Y-122841480D01*
X179381139Y-122774867D01*
X179422322Y-122739184D01*
X179455576Y-122721189D01*
X179633240Y-122582906D01*
X179785722Y-122417268D01*
X179908860Y-122228791D01*
X179999296Y-122022616D01*
X180054564Y-121804368D01*
X180073156Y-121580000D01*
X180054564Y-121355632D01*
X180023797Y-121234135D01*
X179999297Y-121137387D01*
X179999296Y-121137386D01*
X179999296Y-121137384D01*
X179908860Y-120931209D01*
X179814896Y-120787386D01*
X179785724Y-120742734D01*
X179785720Y-120742729D01*
X179633237Y-120577091D01*
X179523400Y-120491601D01*
X179455576Y-120438811D01*
X179422319Y-120420813D01*
X179371929Y-120370802D01*
X179356576Y-120301485D01*
X179381136Y-120234872D01*
X179422320Y-120199186D01*
X179455576Y-120181189D01*
X179633240Y-120042906D01*
X179785722Y-119877268D01*
X179908860Y-119688791D01*
X179999296Y-119482616D01*
X180054564Y-119264368D01*
X180073156Y-119040000D01*
X180054564Y-118815632D01*
X180041055Y-118762285D01*
X179999297Y-118597387D01*
X179999296Y-118597386D01*
X179999296Y-118597384D01*
X179908860Y-118391209D01*
X179890415Y-118362977D01*
X179785724Y-118202734D01*
X179785720Y-118202729D01*
X179669570Y-118076559D01*
X179633240Y-118037094D01*
X179633239Y-118037093D01*
X179633237Y-118037091D01*
X179483886Y-117920846D01*
X179455576Y-117898811D01*
X179422319Y-117880813D01*
X179371929Y-117830802D01*
X179356576Y-117761485D01*
X179381136Y-117694872D01*
X179422320Y-117659186D01*
X179455576Y-117641189D01*
X179633240Y-117502906D01*
X179785722Y-117337268D01*
X179908860Y-117148791D01*
X179999296Y-116942616D01*
X180054564Y-116724368D01*
X180073156Y-116500000D01*
X180054564Y-116275632D01*
X179999296Y-116057384D01*
X179943694Y-115930625D01*
X179934648Y-115860208D01*
X179965108Y-115796078D01*
X179969968Y-115790935D01*
X180379072Y-115381833D01*
X180448401Y-115278075D01*
X180489622Y-115178556D01*
X180496155Y-115162785D01*
X180520500Y-115040394D01*
X180520500Y-98357070D01*
X183064500Y-98357070D01*
X183064500Y-98602929D01*
X183096589Y-98846669D01*
X183096590Y-98846675D01*
X183096591Y-98846677D01*
X183160222Y-99084153D01*
X183254306Y-99311292D01*
X183254307Y-99311293D01*
X183254312Y-99311304D01*
X183377230Y-99524204D01*
X183377233Y-99524208D01*
X183526894Y-99719250D01*
X183526913Y-99719271D01*
X183700728Y-99893086D01*
X183700738Y-99893095D01*
X183700744Y-99893101D01*
X183700747Y-99893103D01*
X183700749Y-99893105D01*
X183895789Y-100042765D01*
X183895795Y-100042769D01*
X184108695Y-100165687D01*
X184108699Y-100165688D01*
X184108708Y-100165694D01*
X184335847Y-100259778D01*
X184573323Y-100323409D01*
X184573329Y-100323409D01*
X184573330Y-100323410D01*
X184573353Y-100323413D01*
X184817073Y-100355500D01*
X184817080Y-100355500D01*
X185062920Y-100355500D01*
X185062927Y-100355500D01*
X185306677Y-100323409D01*
X185544153Y-100259778D01*
X185771292Y-100165694D01*
X185984208Y-100042767D01*
X186179256Y-99893101D01*
X186353101Y-99719256D01*
X186502767Y-99524208D01*
X186625694Y-99311292D01*
X186719778Y-99084153D01*
X186783409Y-98846677D01*
X186815500Y-98602927D01*
X186815500Y-98357073D01*
X186783409Y-98113323D01*
X186719778Y-97875847D01*
X186625694Y-97648708D01*
X186625688Y-97648699D01*
X186625687Y-97648695D01*
X186502769Y-97435795D01*
X186502765Y-97435789D01*
X186353105Y-97240749D01*
X186353103Y-97240747D01*
X186353101Y-97240744D01*
X186353095Y-97240738D01*
X186353086Y-97240728D01*
X186179271Y-97066913D01*
X186179250Y-97066894D01*
X185984210Y-96917234D01*
X185984204Y-96917230D01*
X185771304Y-96794312D01*
X185771296Y-96794308D01*
X185771292Y-96794306D01*
X185544153Y-96700222D01*
X185306677Y-96636591D01*
X185306675Y-96636590D01*
X185306669Y-96636589D01*
X185062929Y-96604500D01*
X185062927Y-96604500D01*
X184817073Y-96604500D01*
X184817070Y-96604500D01*
X184573330Y-96636589D01*
X184335847Y-96700222D01*
X184108706Y-96794307D01*
X184108695Y-96794312D01*
X183895795Y-96917230D01*
X183895789Y-96917234D01*
X183700749Y-97066894D01*
X183700728Y-97066913D01*
X183526913Y-97240728D01*
X183526894Y-97240749D01*
X183377234Y-97435789D01*
X183377230Y-97435795D01*
X183254312Y-97648695D01*
X183254307Y-97648706D01*
X183254306Y-97648708D01*
X183176305Y-97837019D01*
X183160222Y-97875847D01*
X183096589Y-98113330D01*
X183064500Y-98357070D01*
X180520500Y-98357070D01*
X180520500Y-96675509D01*
X180520501Y-96675468D01*
X180520500Y-96669274D01*
X180520502Y-96669269D01*
X180520500Y-96612634D01*
X180520500Y-96544506D01*
X180520500Y-96544498D01*
X180520499Y-96544496D01*
X180520497Y-96544485D01*
X180520497Y-96544482D01*
X180510153Y-96492490D01*
X180496808Y-96425402D01*
X180496315Y-96422511D01*
X180496265Y-96422341D01*
X180495709Y-96421034D01*
X180474787Y-96370529D01*
X180474785Y-96370525D01*
X180448395Y-96306813D01*
X180448390Y-96306805D01*
X180448389Y-96306803D01*
X180405666Y-96242869D01*
X180379071Y-96203067D01*
X180379069Y-96203065D01*
X180379065Y-96203059D01*
X180379060Y-96203052D01*
X180325875Y-96149871D01*
X180325875Y-96149870D01*
X180325872Y-96149868D01*
X180290833Y-96114829D01*
X180290832Y-96114828D01*
X180286453Y-96110449D01*
X180286417Y-96110416D01*
X179866508Y-95690539D01*
X179832481Y-95628228D01*
X179833893Y-95568830D01*
X179844000Y-95531114D01*
X179863345Y-95310000D01*
X179844000Y-95088886D01*
X179786553Y-94874490D01*
X179692749Y-94673328D01*
X179565439Y-94491510D01*
X179408490Y-94334561D01*
X179408486Y-94334558D01*
X179408481Y-94334554D01*
X179226673Y-94207251D01*
X179226671Y-94207250D01*
X179171188Y-94181378D01*
X179112893Y-94154194D01*
X179059609Y-94107278D01*
X179040148Y-94039000D01*
X179060690Y-93971041D01*
X179112894Y-93925805D01*
X179117833Y-93923502D01*
X179226673Y-93872749D01*
X179408490Y-93745439D01*
X179565439Y-93588490D01*
X179692749Y-93406673D01*
X179786553Y-93205510D01*
X179844000Y-92991114D01*
X179863345Y-92770000D01*
X179844000Y-92548886D01*
X179833899Y-92511189D01*
X179835587Y-92440217D01*
X179866513Y-92389482D01*
X182550344Y-89705952D01*
X182550398Y-89705905D01*
X182555830Y-89700472D01*
X182555833Y-89700471D01*
X182599533Y-89656770D01*
X182642233Y-89614075D01*
X182644004Y-89612380D01*
X182644019Y-89612362D01*
X182645034Y-89610790D01*
X182675695Y-89564901D01*
X182675700Y-89564897D01*
X182675699Y-89564897D01*
X182707173Y-89517800D01*
X182711548Y-89511252D01*
X182713358Y-89508697D01*
X182713375Y-89508667D01*
X182714297Y-89506308D01*
X182734217Y-89458217D01*
X182760147Y-89395625D01*
X182761188Y-89393262D01*
X182761189Y-89393261D01*
X182761619Y-89390850D01*
X182766920Y-89364204D01*
X182775328Y-89321932D01*
X182785496Y-89270829D01*
X182785496Y-89270823D01*
X182785497Y-89270818D01*
X182785500Y-89270794D01*
X182785500Y-89195001D01*
X182785500Y-89194998D01*
X182785503Y-89146042D01*
X182785501Y-89146035D01*
X182785502Y-89140238D01*
X182785500Y-89140172D01*
X182785500Y-88197070D01*
X183064500Y-88197070D01*
X183064500Y-88442929D01*
X183096589Y-88686669D01*
X183096590Y-88686675D01*
X183096591Y-88686677D01*
X183160222Y-88924153D01*
X183254306Y-89151292D01*
X183254307Y-89151293D01*
X183254312Y-89151304D01*
X183377230Y-89364204D01*
X183377234Y-89364210D01*
X183526894Y-89559250D01*
X183526913Y-89559271D01*
X183700728Y-89733086D01*
X183700738Y-89733095D01*
X183700744Y-89733101D01*
X183700747Y-89733103D01*
X183700749Y-89733105D01*
X183895789Y-89882765D01*
X183895795Y-89882769D01*
X184108695Y-90005687D01*
X184108699Y-90005688D01*
X184108708Y-90005694D01*
X184335847Y-90099778D01*
X184573323Y-90163409D01*
X184573329Y-90163409D01*
X184573330Y-90163410D01*
X184601294Y-90167091D01*
X184817073Y-90195500D01*
X184817080Y-90195500D01*
X185062920Y-90195500D01*
X185062927Y-90195500D01*
X185306677Y-90163409D01*
X185544153Y-90099778D01*
X185771292Y-90005694D01*
X185984208Y-89882767D01*
X186179256Y-89733101D01*
X186353101Y-89559256D01*
X186502767Y-89364208D01*
X186625694Y-89151292D01*
X186719778Y-88924153D01*
X186783409Y-88686677D01*
X186815500Y-88442927D01*
X186815500Y-88197073D01*
X186783409Y-87953323D01*
X186719778Y-87715847D01*
X186625694Y-87488708D01*
X186625688Y-87488699D01*
X186625687Y-87488695D01*
X186502769Y-87275795D01*
X186502765Y-87275789D01*
X186353105Y-87080749D01*
X186353103Y-87080747D01*
X186353101Y-87080744D01*
X186353095Y-87080738D01*
X186353086Y-87080728D01*
X186179271Y-86906913D01*
X186179250Y-86906894D01*
X185984210Y-86757234D01*
X185984204Y-86757230D01*
X185771304Y-86634312D01*
X185771296Y-86634308D01*
X185771292Y-86634306D01*
X185544153Y-86540222D01*
X185306677Y-86476591D01*
X185306675Y-86476590D01*
X185306669Y-86476589D01*
X185062929Y-86444500D01*
X185062927Y-86444500D01*
X184817073Y-86444500D01*
X184817070Y-86444500D01*
X184573330Y-86476589D01*
X184335847Y-86540222D01*
X184108706Y-86634307D01*
X184108695Y-86634312D01*
X183895795Y-86757230D01*
X183895789Y-86757234D01*
X183700749Y-86906894D01*
X183700728Y-86906913D01*
X183526913Y-87080728D01*
X183526894Y-87080749D01*
X183377234Y-87275789D01*
X183377230Y-87275795D01*
X183254312Y-87488695D01*
X183254307Y-87488706D01*
X183254306Y-87488708D01*
X183176305Y-87677019D01*
X183160222Y-87715847D01*
X183096589Y-87953330D01*
X183064500Y-88197070D01*
X182785500Y-88197070D01*
X182785500Y-73050206D01*
X182785510Y-73049983D01*
X182785509Y-73043892D01*
X182785510Y-73043888D01*
X182785500Y-72984465D01*
X182785500Y-72919206D01*
X182785500Y-72919204D01*
X182785491Y-72919112D01*
X182773673Y-72859748D01*
X182773669Y-72859729D01*
X182770612Y-72844359D01*
X182761155Y-72796815D01*
X182761153Y-72796810D01*
X182761151Y-72796800D01*
X182761127Y-72796721D01*
X182737037Y-72738588D01*
X182737029Y-72738570D01*
X182713387Y-72681494D01*
X182713368Y-72681459D01*
X182713351Y-72681433D01*
X182713350Y-72681431D01*
X182677845Y-72628314D01*
X182644071Y-72577767D01*
X182644070Y-72577766D01*
X182644005Y-72577686D01*
X182644004Y-72577685D01*
X182599343Y-72533039D01*
X182555833Y-72489529D01*
X182555832Y-72489528D01*
X182551530Y-72485226D01*
X182551360Y-72485072D01*
X182309939Y-72243732D01*
X182275906Y-72181429D01*
X182276877Y-72123696D01*
X182304564Y-72014368D01*
X182323156Y-71790000D01*
X182304564Y-71565632D01*
X182267906Y-71420873D01*
X182249297Y-71347387D01*
X182249296Y-71347386D01*
X182249296Y-71347384D01*
X182158860Y-71141209D01*
X182144434Y-71119129D01*
X182035724Y-70952734D01*
X182035720Y-70952729D01*
X181883237Y-70787091D01*
X181764541Y-70694706D01*
X181705576Y-70648811D01*
X181672319Y-70630813D01*
X181621929Y-70580802D01*
X181606576Y-70511485D01*
X181631136Y-70444872D01*
X181672320Y-70409186D01*
X181705576Y-70391189D01*
X181883240Y-70252906D01*
X182035722Y-70087268D01*
X182158860Y-69898791D01*
X182249296Y-69692616D01*
X182304564Y-69474368D01*
X182323156Y-69250000D01*
X182304564Y-69025632D01*
X182267906Y-68880873D01*
X182249297Y-68807387D01*
X182249296Y-68807386D01*
X182249296Y-68807384D01*
X182158860Y-68601209D01*
X182152140Y-68590924D01*
X182035724Y-68412734D01*
X182035720Y-68412729D01*
X181883237Y-68247091D01*
X181801382Y-68183381D01*
X181705576Y-68108811D01*
X181672319Y-68090813D01*
X181621929Y-68040802D01*
X181606576Y-67971485D01*
X181631136Y-67904872D01*
X181672320Y-67869186D01*
X181705576Y-67851189D01*
X181883240Y-67712906D01*
X182035722Y-67547268D01*
X182158860Y-67358791D01*
X182249296Y-67152616D01*
X182304564Y-66934368D01*
X182323156Y-66710000D01*
X182304564Y-66485632D01*
X182304562Y-66485624D01*
X182249297Y-66267387D01*
X182249296Y-66267386D01*
X182249296Y-66267384D01*
X182158860Y-66061209D01*
X182149859Y-66047432D01*
X182035724Y-65872734D01*
X182035720Y-65872729D01*
X181883237Y-65707091D01*
X181801382Y-65643381D01*
X181705576Y-65568811D01*
X181672319Y-65550813D01*
X181621929Y-65500802D01*
X181606576Y-65431485D01*
X181631136Y-65364872D01*
X181672320Y-65329186D01*
X181705576Y-65311189D01*
X181883240Y-65172906D01*
X182035722Y-65007268D01*
X182158860Y-64818791D01*
X182249296Y-64612616D01*
X182304564Y-64394368D01*
X182323156Y-64170000D01*
X182304564Y-63945632D01*
X182267739Y-63800212D01*
X182249297Y-63727387D01*
X182249296Y-63727386D01*
X182249296Y-63727384D01*
X182158860Y-63521209D01*
X182146117Y-63501705D01*
X182035724Y-63332734D01*
X182035720Y-63332729D01*
X181883237Y-63167091D01*
X181748331Y-63062089D01*
X181705576Y-63028811D01*
X181672319Y-63010813D01*
X181621929Y-62960802D01*
X181606576Y-62891485D01*
X181631136Y-62824872D01*
X181672320Y-62789186D01*
X181705576Y-62771189D01*
X181883240Y-62632906D01*
X182035722Y-62467268D01*
X182158860Y-62278791D01*
X182249296Y-62072616D01*
X182304564Y-61854368D01*
X182323156Y-61630000D01*
X182304564Y-61405632D01*
X182304562Y-61405624D01*
X182249297Y-61187387D01*
X182249296Y-61187386D01*
X182249296Y-61187384D01*
X182158860Y-60981209D01*
X182152140Y-60970924D01*
X182035724Y-60792734D01*
X182035720Y-60792729D01*
X181883237Y-60627091D01*
X181748331Y-60522089D01*
X181705576Y-60488811D01*
X181672319Y-60470813D01*
X181621929Y-60420802D01*
X181606576Y-60351485D01*
X181631136Y-60284872D01*
X181672320Y-60249186D01*
X181705576Y-60231189D01*
X181883240Y-60092906D01*
X182035722Y-59927268D01*
X182035721Y-59927268D01*
X182035724Y-59927266D01*
X182035724Y-59927265D01*
X182088725Y-59846141D01*
X182158860Y-59738791D01*
X182249296Y-59532616D01*
X182304564Y-59314368D01*
X182323156Y-59090000D01*
X182304564Y-58865632D01*
X182249296Y-58647384D01*
X182158860Y-58441209D01*
X182152140Y-58430924D01*
X182035724Y-58252734D01*
X182035720Y-58252729D01*
X181883237Y-58087091D01*
X181801382Y-58023381D01*
X181705576Y-57948811D01*
X181507574Y-57841658D01*
X181507572Y-57841657D01*
X181507571Y-57841656D01*
X181294639Y-57768557D01*
X181294630Y-57768555D01*
X181250476Y-57761187D01*
X181072569Y-57731500D01*
X180847431Y-57731500D01*
X180699211Y-57756233D01*
X180625369Y-57768555D01*
X180625360Y-57768557D01*
X180412428Y-57841656D01*
X180412426Y-57841658D01*
X180214426Y-57948810D01*
X180214424Y-57948811D01*
X180036762Y-58087091D01*
X179884279Y-58252729D01*
X179795483Y-58388643D01*
X179741479Y-58434731D01*
X179671131Y-58444306D01*
X179606774Y-58414329D01*
X179584517Y-58388643D01*
X179495720Y-58252729D01*
X179343237Y-58087091D01*
X179261382Y-58023381D01*
X179165576Y-57948811D01*
X178967574Y-57841658D01*
X178967572Y-57841657D01*
X178967571Y-57841656D01*
X178754639Y-57768557D01*
X178754630Y-57768555D01*
X178710476Y-57761187D01*
X178532569Y-57731500D01*
X178307431Y-57731500D01*
X178159211Y-57756233D01*
X178085369Y-57768555D01*
X178085360Y-57768557D01*
X177872428Y-57841656D01*
X177872426Y-57841658D01*
X177674426Y-57948810D01*
X177674424Y-57948811D01*
X177496762Y-58087091D01*
X177344279Y-58252729D01*
X177344275Y-58252734D01*
X177221141Y-58441206D01*
X177130703Y-58647386D01*
X177130702Y-58647387D01*
X177075437Y-58865624D01*
X177056844Y-59090000D01*
X177075437Y-59314375D01*
X177130702Y-59532612D01*
X177130703Y-59532613D01*
X177221141Y-59738793D01*
X177344275Y-59927265D01*
X177344276Y-59927266D01*
X177496762Y-60092908D01*
X177551331Y-60135381D01*
X177674424Y-60231189D01*
X177707680Y-60249186D01*
X177758071Y-60299200D01*
X177773423Y-60368516D01*
X177748862Y-60435129D01*
X177707680Y-60470813D01*
X177674426Y-60488810D01*
X177674424Y-60488811D01*
X177496762Y-60627091D01*
X177344279Y-60792729D01*
X177344275Y-60792734D01*
X177221141Y-60981206D01*
X177130703Y-61187386D01*
X177130702Y-61187387D01*
X177075437Y-61405624D01*
X177075436Y-61405630D01*
X177075436Y-61405632D01*
X177056844Y-61630000D01*
X177074242Y-61839962D01*
X177075437Y-61854375D01*
X177130702Y-62072612D01*
X177130703Y-62072613D01*
X177130704Y-62072616D01*
X177219781Y-62275692D01*
X177221141Y-62278793D01*
X177344275Y-62467265D01*
X177344279Y-62467270D01*
X177496762Y-62632908D01*
X177533915Y-62661825D01*
X177674424Y-62771189D01*
X177707680Y-62789186D01*
X177758071Y-62839200D01*
X177773423Y-62908516D01*
X177748862Y-62975129D01*
X177707680Y-63010813D01*
X177674426Y-63028810D01*
X177674424Y-63028811D01*
X177496762Y-63167091D01*
X177344279Y-63332729D01*
X177344275Y-63332734D01*
X177221141Y-63521206D01*
X177130703Y-63727386D01*
X177130702Y-63727387D01*
X177075437Y-63945624D01*
X177075436Y-63945630D01*
X177075436Y-63945632D01*
X177056844Y-64170000D01*
X177071579Y-64347825D01*
X177075437Y-64394375D01*
X177130702Y-64612612D01*
X177130703Y-64612613D01*
X177130704Y-64612616D01*
X177219781Y-64815692D01*
X177221141Y-64818793D01*
X177344275Y-65007265D01*
X177344279Y-65007270D01*
X177496762Y-65172908D01*
X177538966Y-65205757D01*
X177674424Y-65311189D01*
X177707680Y-65329186D01*
X177758071Y-65379200D01*
X177773423Y-65448516D01*
X177748862Y-65515129D01*
X177707680Y-65550813D01*
X177674426Y-65568810D01*
X177674424Y-65568811D01*
X177496762Y-65707091D01*
X177344279Y-65872729D01*
X177344275Y-65872734D01*
X177221141Y-66061206D01*
X177130703Y-66267386D01*
X177130702Y-66267387D01*
X177075437Y-66485624D01*
X177075436Y-66485630D01*
X177075436Y-66485632D01*
X177056844Y-66710000D01*
X177074605Y-66924342D01*
X177075437Y-66934375D01*
X177130702Y-67152612D01*
X177130703Y-67152613D01*
X177130704Y-67152616D01*
X177207196Y-67327001D01*
X177221141Y-67358793D01*
X177344275Y-67547265D01*
X177344279Y-67547270D01*
X177496762Y-67712908D01*
X177551331Y-67755381D01*
X177674424Y-67851189D01*
X177707680Y-67869186D01*
X177758071Y-67919200D01*
X177773423Y-67988516D01*
X177748862Y-68055129D01*
X177707680Y-68090813D01*
X177674426Y-68108810D01*
X177674424Y-68108811D01*
X177496762Y-68247091D01*
X177344279Y-68412729D01*
X177344275Y-68412734D01*
X177221141Y-68601206D01*
X177130703Y-68807386D01*
X177130702Y-68807387D01*
X177075437Y-69025624D01*
X177075436Y-69025630D01*
X177075436Y-69025632D01*
X177056844Y-69250000D01*
X177060374Y-69292606D01*
X177075437Y-69474375D01*
X177130702Y-69692612D01*
X177130703Y-69692613D01*
X177130704Y-69692616D01*
X177212023Y-69878006D01*
X177221141Y-69898793D01*
X177344275Y-70087265D01*
X177344279Y-70087270D01*
X177496762Y-70252908D01*
X177512297Y-70264999D01*
X177674424Y-70391189D01*
X177707680Y-70409186D01*
X177758071Y-70459200D01*
X177773423Y-70528516D01*
X177748862Y-70595129D01*
X177707680Y-70630813D01*
X177674426Y-70648810D01*
X177674424Y-70648811D01*
X177496762Y-70787091D01*
X177344279Y-70952729D01*
X177344275Y-70952734D01*
X177221141Y-71141206D01*
X177130703Y-71347386D01*
X177130702Y-71347387D01*
X177075437Y-71565624D01*
X177075436Y-71565630D01*
X177075436Y-71565632D01*
X177056844Y-71790000D01*
X177060374Y-71832606D01*
X177075437Y-72014375D01*
X177130702Y-72232612D01*
X177130703Y-72232613D01*
X177130704Y-72232616D01*
X177150000Y-72276606D01*
X177221141Y-72438793D01*
X177344275Y-72627265D01*
X177344279Y-72627270D01*
X177496762Y-72792908D01*
X177501782Y-72796815D01*
X177674424Y-72931189D01*
X177707680Y-72949186D01*
X177758071Y-72999200D01*
X177773423Y-73068516D01*
X177748862Y-73135129D01*
X177707680Y-73170813D01*
X177674426Y-73188810D01*
X177674424Y-73188811D01*
X177496762Y-73327091D01*
X177344279Y-73492729D01*
X177344275Y-73492734D01*
X177221141Y-73681206D01*
X177130703Y-73887386D01*
X177130702Y-73887387D01*
X177075437Y-74105624D01*
X177075436Y-74105630D01*
X177075436Y-74105632D01*
X177056844Y-74330000D01*
X177075433Y-74554335D01*
X177075437Y-74554375D01*
X177130702Y-74772612D01*
X177130703Y-74772613D01*
X177130704Y-74772616D01*
X177209420Y-74952072D01*
X177221141Y-74978793D01*
X177344275Y-75167265D01*
X177344279Y-75167270D01*
X177496762Y-75332908D01*
X177538966Y-75365757D01*
X177674424Y-75471189D01*
X177707680Y-75489186D01*
X177758071Y-75539200D01*
X177773423Y-75608516D01*
X177748862Y-75675129D01*
X177707680Y-75710813D01*
X177674426Y-75728810D01*
X177674424Y-75728811D01*
X177496762Y-75867091D01*
X177344279Y-76032729D01*
X177344275Y-76032734D01*
X177221141Y-76221206D01*
X177130703Y-76427386D01*
X177130702Y-76427387D01*
X177075437Y-76645624D01*
X177075436Y-76645630D01*
X177075436Y-76645632D01*
X177056844Y-76870000D01*
X177071579Y-77047825D01*
X177075437Y-77094375D01*
X177130702Y-77312612D01*
X177130703Y-77312613D01*
X177130704Y-77312616D01*
X177215942Y-77506940D01*
X177221141Y-77518793D01*
X177344275Y-77707265D01*
X177344279Y-77707270D01*
X177496762Y-77872908D01*
X177551331Y-77915381D01*
X177674424Y-78011189D01*
X177872426Y-78118342D01*
X177872427Y-78118342D01*
X177872428Y-78118343D01*
X177984227Y-78156723D01*
X178085365Y-78191444D01*
X178307431Y-78228500D01*
X178307435Y-78228500D01*
X178401296Y-78228500D01*
X178469417Y-78248502D01*
X178515910Y-78302158D01*
X178526014Y-78372432D01*
X178496520Y-78437012D01*
X178490389Y-78443598D01*
X176775641Y-80158255D01*
X176775640Y-80158254D01*
X176775633Y-80158262D01*
X176775632Y-80158264D01*
X176741591Y-80192304D01*
X176684938Y-80248954D01*
X176684933Y-80248961D01*
X176684921Y-80248977D01*
X176658058Y-80289181D01*
X176658057Y-80289183D01*
X176615616Y-80352695D01*
X176615615Y-80352698D01*
X176615599Y-80352726D01*
X176595424Y-80401433D01*
X176567846Y-80468008D01*
X176553099Y-80542145D01*
X176543528Y-80590260D01*
X176543501Y-80590389D01*
X176543500Y-80590410D01*
X176543500Y-80662292D01*
X176543499Y-80721387D01*
X176543500Y-80721408D01*
X176543500Y-90154778D01*
X176523498Y-90222899D01*
X176469842Y-90269392D01*
X176399568Y-90279496D01*
X176384890Y-90276485D01*
X176271119Y-90246001D01*
X176271117Y-90246000D01*
X176271114Y-90246000D01*
X176050000Y-90226655D01*
X175828882Y-90246000D01*
X175614492Y-90303446D01*
X175614487Y-90303448D01*
X175413327Y-90397251D01*
X175231513Y-90524558D01*
X175231507Y-90524563D01*
X175074563Y-90681507D01*
X175074558Y-90681513D01*
X174947251Y-90863327D01*
X174853448Y-91064487D01*
X174853446Y-91064492D01*
X174796000Y-91278882D01*
X174781851Y-91440606D01*
X174776655Y-91500000D01*
X174796000Y-91721114D01*
X174796001Y-91721119D01*
X174796000Y-91721119D01*
X174806057Y-91758650D01*
X174804367Y-91829626D01*
X174773430Y-91880371D01*
X174517305Y-92136406D01*
X174517128Y-92136567D01*
X174470335Y-92183360D01*
X174424963Y-92228716D01*
X174424929Y-92228767D01*
X174390701Y-92279991D01*
X174370266Y-92310564D01*
X174355619Y-92332477D01*
X174331212Y-92391401D01*
X174331207Y-92391413D01*
X174311654Y-92438597D01*
X174307856Y-92447761D01*
X174295466Y-92510047D01*
X174295462Y-92510066D01*
X174283500Y-92570150D01*
X174283500Y-92570206D01*
X174283500Y-92632488D01*
X174283494Y-92669511D01*
X174283488Y-92700966D01*
X164743500Y-92700966D01*
X164743500Y-70683288D01*
X164743501Y-70683283D01*
X164743500Y-70601100D01*
X164743500Y-70558506D01*
X164743500Y-70558502D01*
X164743168Y-70556835D01*
X164731533Y-70498342D01*
X164725791Y-70469477D01*
X164725790Y-70469475D01*
X164719155Y-70436115D01*
X164719154Y-70436114D01*
X164719154Y-70436110D01*
X164716762Y-70430336D01*
X164691878Y-70370265D01*
X164673093Y-70324913D01*
X164671721Y-70321237D01*
X164671571Y-70320904D01*
X164669507Y-70317990D01*
X164654722Y-70295864D01*
X164634099Y-70265000D01*
X164634099Y-70264999D01*
X164618085Y-70241033D01*
X164602071Y-70217067D01*
X164602066Y-70217062D01*
X164602064Y-70217059D01*
X164559529Y-70174525D01*
X164513833Y-70128829D01*
X164513832Y-70128828D01*
X164510167Y-70125163D01*
X164510140Y-70125138D01*
X162793873Y-68408932D01*
X161954009Y-67569098D01*
X161919984Y-67506787D01*
X161925048Y-67435972D01*
X161954007Y-67390908D01*
X162017913Y-67327003D01*
X162140326Y-67152180D01*
X162230521Y-66958755D01*
X162285758Y-66752608D01*
X162304359Y-66540000D01*
X162285758Y-66327392D01*
X162230521Y-66121245D01*
X162140326Y-65927821D01*
X162017913Y-65752997D01*
X161867003Y-65602087D01*
X161867002Y-65602086D01*
X161867001Y-65602085D01*
X161866998Y-65602083D01*
X161692180Y-65479674D01*
X161692178Y-65479673D01*
X161498758Y-65389480D01*
X161495795Y-65388402D01*
X161494671Y-65387574D01*
X161493769Y-65387154D01*
X161493853Y-65386972D01*
X161438624Y-65346308D01*
X161413285Y-65279987D01*
X161427825Y-65210495D01*
X161477627Y-65159895D01*
X161495795Y-65151598D01*
X161498745Y-65150523D01*
X161498755Y-65150521D01*
X161692180Y-65060326D01*
X161867003Y-64937913D01*
X162017913Y-64787003D01*
X162140326Y-64612180D01*
X162230521Y-64418755D01*
X162285758Y-64212608D01*
X162304359Y-64000000D01*
X162285758Y-63787392D01*
X162230521Y-63581245D01*
X162140326Y-63387821D01*
X162017913Y-63212997D01*
X161867003Y-63062087D01*
X161867002Y-63062086D01*
X161867001Y-63062085D01*
X161866998Y-63062083D01*
X161692180Y-62939674D01*
X161692178Y-62939673D01*
X161498758Y-62849480D01*
X161498753Y-62849478D01*
X161369413Y-62814822D01*
X161292608Y-62794242D01*
X161080000Y-62775641D01*
X160867392Y-62794242D01*
X160822361Y-62806308D01*
X160661246Y-62849478D01*
X160661241Y-62849480D01*
X160467821Y-62939673D01*
X160410770Y-62979621D01*
X160343496Y-63002308D01*
X160274636Y-62985023D01*
X160226052Y-62933252D01*
X160212500Y-62876407D01*
X160212500Y-62499259D01*
X160212506Y-62436877D01*
X160212505Y-62436876D01*
X160212506Y-62436867D01*
X160212503Y-62436856D01*
X160212500Y-62436817D01*
X160212500Y-62436806D01*
X160198913Y-62368500D01*
X160188369Y-62315469D01*
X160188177Y-62314445D01*
X160188171Y-62314426D01*
X160187778Y-62313504D01*
X160162932Y-62253521D01*
X160162928Y-62253510D01*
X160140429Y-62199179D01*
X160140403Y-62199131D01*
X160140401Y-62199128D01*
X160140400Y-62199125D01*
X160106982Y-62149112D01*
X160071110Y-62095414D01*
X160071070Y-62095365D01*
X160029562Y-62053858D01*
X160029555Y-62053846D01*
X160029553Y-62053849D01*
X159776604Y-61800852D01*
X159742586Y-61738538D01*
X159744004Y-61679150D01*
X159745758Y-61672608D01*
X159764359Y-61460000D01*
X159745758Y-61247392D01*
X159690521Y-61041245D01*
X159600326Y-60847821D01*
X159477913Y-60672997D01*
X159327003Y-60522087D01*
X159327002Y-60522086D01*
X159327001Y-60522085D01*
X159326998Y-60522083D01*
X159152180Y-60399674D01*
X159152178Y-60399673D01*
X158958758Y-60309480D01*
X158958753Y-60309478D01*
X158863080Y-60283842D01*
X158752608Y-60254242D01*
X158540000Y-60235641D01*
X158327392Y-60254242D01*
X158272156Y-60269042D01*
X158121246Y-60309478D01*
X158121241Y-60309480D01*
X157927820Y-60399674D01*
X157753000Y-60522084D01*
X157752994Y-60522089D01*
X157602089Y-60672994D01*
X157602084Y-60673000D01*
X157479674Y-60847820D01*
X157389476Y-61041249D01*
X157388400Y-61044208D01*
X157387574Y-61045328D01*
X157387154Y-61046231D01*
X157386972Y-61046146D01*
X157346304Y-61101378D01*
X157279982Y-61126714D01*
X157210490Y-61112171D01*
X157159893Y-61062367D01*
X157151600Y-61044208D01*
X157150523Y-61041249D01*
X157098014Y-60928643D01*
X157060326Y-60847821D01*
X156937913Y-60672997D01*
X156787003Y-60522087D01*
X156787002Y-60522086D01*
X156787001Y-60522085D01*
X156786998Y-60522083D01*
X156612180Y-60399674D01*
X156612178Y-60399673D01*
X156418758Y-60309480D01*
X156418753Y-60309478D01*
X156323080Y-60283842D01*
X156212608Y-60254242D01*
X156000000Y-60235641D01*
X155787392Y-60254242D01*
X155732156Y-60269042D01*
X155581246Y-60309478D01*
X155581241Y-60309480D01*
X155387820Y-60399674D01*
X155213000Y-60522084D01*
X155142279Y-60592805D01*
X155079966Y-60626830D01*
X155009151Y-60621764D01*
X154964101Y-60592816D01*
X154294516Y-59923412D01*
X154294503Y-59923399D01*
X154253835Y-59882730D01*
X154253768Y-59882675D01*
X154249416Y-59879768D01*
X154212847Y-59855340D01*
X154199076Y-59846141D01*
X154199062Y-59846132D01*
X154150075Y-59813400D01*
X154150072Y-59813398D01*
X154150068Y-59813396D01*
X154149994Y-59813356D01*
X154091924Y-59789312D01*
X154091908Y-59789306D01*
X154034780Y-59765643D01*
X154034710Y-59765622D01*
X154034703Y-59765620D01*
X154034702Y-59765620D01*
X153975647Y-59753881D01*
X153975647Y-59753879D01*
X153975632Y-59753878D01*
X153956118Y-59749996D01*
X153912386Y-59741298D01*
X153912321Y-59741291D01*
X153853585Y-59741300D01*
X122067129Y-59741300D01*
X122054306Y-59748301D01*
X122052111Y-59748758D01*
X121967210Y-59765646D01*
X121967207Y-59765646D01*
X121965188Y-59766393D01*
X121963081Y-59767355D01*
X121911259Y-59788820D01*
X121911260Y-59788821D01*
X121856057Y-59811688D01*
X121853387Y-59812684D01*
X121851922Y-59813400D01*
X121851861Y-59813442D01*
X121851860Y-59813441D01*
X121789155Y-59855338D01*
X121789156Y-59855339D01*
X121754741Y-59878335D01*
X121752274Y-59879768D01*
X121748161Y-59882733D01*
X121703630Y-59927266D01*
X121659929Y-59970967D01*
X121659926Y-59970968D01*
X121659927Y-59970969D01*
X112765011Y-68866068D01*
X112702699Y-68900093D01*
X112631884Y-68895029D01*
X112575048Y-68852484D01*
X112563260Y-68836738D01*
X112446207Y-68749112D01*
X112446202Y-68749110D01*
X112309204Y-68698011D01*
X112309196Y-68698009D01*
X112248649Y-68691500D01*
X112248638Y-68691500D01*
X109751362Y-68691500D01*
X109751350Y-68691500D01*
X109690803Y-68698009D01*
X109690795Y-68698011D01*
X109553797Y-68749110D01*
X109553792Y-68749112D01*
X109436738Y-68836738D01*
X109349112Y-68953792D01*
X109349110Y-68953797D01*
X109298011Y-69090795D01*
X109298009Y-69090803D01*
X109291500Y-69151350D01*
X109291500Y-70848649D01*
X109298009Y-70909196D01*
X109298011Y-70909204D01*
X109349110Y-71046202D01*
X109349112Y-71046207D01*
X109436738Y-71163261D01*
X109553792Y-71250887D01*
X109553794Y-71250888D01*
X109553796Y-71250889D01*
X109590567Y-71264604D01*
X109690795Y-71301988D01*
X109690798Y-71301988D01*
X109690799Y-71301989D01*
X109690804Y-71301990D01*
X109702728Y-71303272D01*
X109768321Y-71330440D01*
X109808813Y-71388757D01*
X109811349Y-71459708D01*
X109775122Y-71520767D01*
X109763326Y-71530484D01*
X109747567Y-71541933D01*
X109601936Y-71687564D01*
X109601934Y-71687567D01*
X109480873Y-71854193D01*
X109387367Y-72037708D01*
X109387364Y-72037714D01*
X109323721Y-72233587D01*
X109323720Y-72233590D01*
X109323720Y-72233592D01*
X109291500Y-72437019D01*
X109291500Y-72642981D01*
X109323720Y-72846408D01*
X109323721Y-72846412D01*
X109385472Y-73036463D01*
X109387366Y-73042290D01*
X109480871Y-73225803D01*
X109480873Y-73225806D01*
X109537444Y-73303670D01*
X109561303Y-73370538D01*
X109545222Y-73439690D01*
X109524614Y-73466816D01*
X108039723Y-74952072D01*
X108039714Y-74952080D01*
X107998899Y-74992896D01*
X107962761Y-75046995D01*
X107962753Y-75047007D01*
X107929579Y-75096654D01*
X107927987Y-75100500D01*
X107906576Y-75152208D01*
X107906576Y-75152209D01*
X107881830Y-75211949D01*
X107871294Y-75264956D01*
X107871291Y-75264972D01*
X107857499Y-75334304D01*
X107857492Y-75334377D01*
X107857500Y-75392616D01*
X107857500Y-99976609D01*
X107857498Y-100046281D01*
X107857499Y-100046292D01*
X107864099Y-100079472D01*
X107868460Y-100101394D01*
X107881247Y-100165687D01*
X107881842Y-100168677D01*
X107881844Y-100168683D01*
X107881845Y-100168685D01*
X107883878Y-100173592D01*
X107904668Y-100223786D01*
X107904669Y-100223788D01*
X107929593Y-100283966D01*
X107955949Y-100323410D01*
X107955951Y-100323412D01*
X107977391Y-100355500D01*
X107998920Y-100387723D01*
X107998926Y-100387729D01*
X107998929Y-100387733D01*
X108018507Y-100407311D01*
X108052532Y-100469620D01*
X108047469Y-100540436D01*
X108004923Y-100597273D01*
X108003474Y-100598342D01*
X107864742Y-100699137D01*
X107736965Y-100841048D01*
X107736958Y-100841058D01*
X107641476Y-101006438D01*
X107641473Y-101006444D01*
X107629138Y-101044408D01*
X107582457Y-101188072D01*
X107562496Y-101378000D01*
X100025500Y-101378000D01*
X100025500Y-55151500D01*
X100045502Y-55083379D01*
X100099158Y-55036886D01*
X100151500Y-55025500D01*
X189848500Y-55025500D01*
X189916621Y-55045502D01*
G37*
G04 #@! TD.AperFunction*
M02*
