%TF.GenerationSoftware,KiCad,Pcbnew,8.0.6*%
%TF.CreationDate,2025-01-14T22:13:36-05:00*%
%TF.ProjectId,ConnAdapter,436f6e6e-4164-4617-9074-65722e6b6963,rev?*%
%TF.SameCoordinates,Original*%
%TF.FileFunction,Drillmap*%
%TF.FilePolarity,Positive*%
%FSLAX45Y45*%
G04 Gerber Fmt 4.5, Leading zero omitted, Abs format (unit mm)*
G04 Created by KiCad (PCBNEW 8.0.6) date 2025-01-14 22:13:36*
%MOMM*%
%LPD*%
G01*
G04 APERTURE LIST*
%ADD10C,0.150000*%
%ADD11C,0.200000*%
%ADD12C,0.325000*%
G04 APERTURE END LIST*
D10*
X10000000Y-5500000D02*
X19000000Y-5500000D01*
X19000000Y-15500000D02*
X10000000Y-15500000D01*
X19000000Y-5500000D02*
X19000000Y-15500000D01*
X10000000Y-15500000D02*
X10000000Y-5500000D01*
D11*
D12*
X18331500Y-8669500D02*
X18656500Y-8994500D01*
X18656500Y-8669500D02*
X18331500Y-8994500D01*
X18331500Y-9685500D02*
X18656500Y-10010500D01*
X18656500Y-9685500D02*
X18331500Y-10010500D01*
D11*
X10253277Y-15818984D02*
X10253277Y-15618984D01*
X10253277Y-15618984D02*
X10300896Y-15618984D01*
X10300896Y-15618984D02*
X10329467Y-15628508D01*
X10329467Y-15628508D02*
X10348515Y-15647555D01*
X10348515Y-15647555D02*
X10358039Y-15666603D01*
X10358039Y-15666603D02*
X10367563Y-15704698D01*
X10367563Y-15704698D02*
X10367563Y-15733269D01*
X10367563Y-15733269D02*
X10358039Y-15771365D01*
X10358039Y-15771365D02*
X10348515Y-15790412D01*
X10348515Y-15790412D02*
X10329467Y-15809460D01*
X10329467Y-15809460D02*
X10300896Y-15818984D01*
X10300896Y-15818984D02*
X10253277Y-15818984D01*
X10453277Y-15818984D02*
X10453277Y-15685650D01*
X10453277Y-15723746D02*
X10462801Y-15704698D01*
X10462801Y-15704698D02*
X10472324Y-15695174D01*
X10472324Y-15695174D02*
X10491372Y-15685650D01*
X10491372Y-15685650D02*
X10510420Y-15685650D01*
X10577086Y-15818984D02*
X10577086Y-15685650D01*
X10577086Y-15618984D02*
X10567563Y-15628508D01*
X10567563Y-15628508D02*
X10577086Y-15638031D01*
X10577086Y-15638031D02*
X10586610Y-15628508D01*
X10586610Y-15628508D02*
X10577086Y-15618984D01*
X10577086Y-15618984D02*
X10577086Y-15638031D01*
X10700896Y-15818984D02*
X10681848Y-15809460D01*
X10681848Y-15809460D02*
X10672324Y-15790412D01*
X10672324Y-15790412D02*
X10672324Y-15618984D01*
X10805658Y-15818984D02*
X10786610Y-15809460D01*
X10786610Y-15809460D02*
X10777086Y-15790412D01*
X10777086Y-15790412D02*
X10777086Y-15618984D01*
X11034229Y-15818984D02*
X11034229Y-15618984D01*
X11034229Y-15618984D02*
X11100896Y-15761841D01*
X11100896Y-15761841D02*
X11167563Y-15618984D01*
X11167563Y-15618984D02*
X11167563Y-15818984D01*
X11348515Y-15818984D02*
X11348515Y-15714222D01*
X11348515Y-15714222D02*
X11338991Y-15695174D01*
X11338991Y-15695174D02*
X11319943Y-15685650D01*
X11319943Y-15685650D02*
X11281848Y-15685650D01*
X11281848Y-15685650D02*
X11262801Y-15695174D01*
X11348515Y-15809460D02*
X11329467Y-15818984D01*
X11329467Y-15818984D02*
X11281848Y-15818984D01*
X11281848Y-15818984D02*
X11262801Y-15809460D01*
X11262801Y-15809460D02*
X11253277Y-15790412D01*
X11253277Y-15790412D02*
X11253277Y-15771365D01*
X11253277Y-15771365D02*
X11262801Y-15752317D01*
X11262801Y-15752317D02*
X11281848Y-15742793D01*
X11281848Y-15742793D02*
X11329467Y-15742793D01*
X11329467Y-15742793D02*
X11348515Y-15733269D01*
X11443753Y-15685650D02*
X11443753Y-15885650D01*
X11443753Y-15695174D02*
X11462801Y-15685650D01*
X11462801Y-15685650D02*
X11500896Y-15685650D01*
X11500896Y-15685650D02*
X11519943Y-15695174D01*
X11519943Y-15695174D02*
X11529467Y-15704698D01*
X11529467Y-15704698D02*
X11538991Y-15723746D01*
X11538991Y-15723746D02*
X11538991Y-15780888D01*
X11538991Y-15780888D02*
X11529467Y-15799936D01*
X11529467Y-15799936D02*
X11519943Y-15809460D01*
X11519943Y-15809460D02*
X11500896Y-15818984D01*
X11500896Y-15818984D02*
X11462801Y-15818984D01*
X11462801Y-15818984D02*
X11443753Y-15809460D01*
X11624705Y-15799936D02*
X11634229Y-15809460D01*
X11634229Y-15809460D02*
X11624705Y-15818984D01*
X11624705Y-15818984D02*
X11615182Y-15809460D01*
X11615182Y-15809460D02*
X11624705Y-15799936D01*
X11624705Y-15799936D02*
X11624705Y-15818984D01*
X11624705Y-15695174D02*
X11634229Y-15704698D01*
X11634229Y-15704698D02*
X11624705Y-15714222D01*
X11624705Y-15714222D02*
X11615182Y-15704698D01*
X11615182Y-15704698D02*
X11624705Y-15695174D01*
X11624705Y-15695174D02*
X11624705Y-15714222D01*
X9792500Y-16047500D02*
X9992500Y-16247500D01*
X9992500Y-16047500D02*
X9792500Y-16247500D01*
X10234229Y-16038984D02*
X10358039Y-16038984D01*
X10358039Y-16038984D02*
X10291372Y-16115174D01*
X10291372Y-16115174D02*
X10319944Y-16115174D01*
X10319944Y-16115174D02*
X10338991Y-16124698D01*
X10338991Y-16124698D02*
X10348515Y-16134222D01*
X10348515Y-16134222D02*
X10358039Y-16153269D01*
X10358039Y-16153269D02*
X10358039Y-16200888D01*
X10358039Y-16200888D02*
X10348515Y-16219936D01*
X10348515Y-16219936D02*
X10338991Y-16229460D01*
X10338991Y-16229460D02*
X10319944Y-16238984D01*
X10319944Y-16238984D02*
X10262801Y-16238984D01*
X10262801Y-16238984D02*
X10243753Y-16229460D01*
X10243753Y-16229460D02*
X10234229Y-16219936D01*
X10443753Y-16219936D02*
X10453277Y-16229460D01*
X10453277Y-16229460D02*
X10443753Y-16238984D01*
X10443753Y-16238984D02*
X10434229Y-16229460D01*
X10434229Y-16229460D02*
X10443753Y-16219936D01*
X10443753Y-16219936D02*
X10443753Y-16238984D01*
X10529467Y-16058031D02*
X10538991Y-16048508D01*
X10538991Y-16048508D02*
X10558039Y-16038984D01*
X10558039Y-16038984D02*
X10605658Y-16038984D01*
X10605658Y-16038984D02*
X10624705Y-16048508D01*
X10624705Y-16048508D02*
X10634229Y-16058031D01*
X10634229Y-16058031D02*
X10643753Y-16077079D01*
X10643753Y-16077079D02*
X10643753Y-16096127D01*
X10643753Y-16096127D02*
X10634229Y-16124698D01*
X10634229Y-16124698D02*
X10519944Y-16238984D01*
X10519944Y-16238984D02*
X10643753Y-16238984D01*
X10824705Y-16038984D02*
X10729467Y-16038984D01*
X10729467Y-16038984D02*
X10719944Y-16134222D01*
X10719944Y-16134222D02*
X10729467Y-16124698D01*
X10729467Y-16124698D02*
X10748515Y-16115174D01*
X10748515Y-16115174D02*
X10796134Y-16115174D01*
X10796134Y-16115174D02*
X10815182Y-16124698D01*
X10815182Y-16124698D02*
X10824705Y-16134222D01*
X10824705Y-16134222D02*
X10834229Y-16153269D01*
X10834229Y-16153269D02*
X10834229Y-16200888D01*
X10834229Y-16200888D02*
X10824705Y-16219936D01*
X10824705Y-16219936D02*
X10815182Y-16229460D01*
X10815182Y-16229460D02*
X10796134Y-16238984D01*
X10796134Y-16238984D02*
X10748515Y-16238984D01*
X10748515Y-16238984D02*
X10729467Y-16229460D01*
X10729467Y-16229460D02*
X10719944Y-16219936D01*
X10958039Y-16038984D02*
X10977086Y-16038984D01*
X10977086Y-16038984D02*
X10996134Y-16048508D01*
X10996134Y-16048508D02*
X11005658Y-16058031D01*
X11005658Y-16058031D02*
X11015182Y-16077079D01*
X11015182Y-16077079D02*
X11024705Y-16115174D01*
X11024705Y-16115174D02*
X11024705Y-16162793D01*
X11024705Y-16162793D02*
X11015182Y-16200888D01*
X11015182Y-16200888D02*
X11005658Y-16219936D01*
X11005658Y-16219936D02*
X10996134Y-16229460D01*
X10996134Y-16229460D02*
X10977086Y-16238984D01*
X10977086Y-16238984D02*
X10958039Y-16238984D01*
X10958039Y-16238984D02*
X10938991Y-16229460D01*
X10938991Y-16229460D02*
X10929467Y-16219936D01*
X10929467Y-16219936D02*
X10919944Y-16200888D01*
X10919944Y-16200888D02*
X10910420Y-16162793D01*
X10910420Y-16162793D02*
X10910420Y-16115174D01*
X10910420Y-16115174D02*
X10919944Y-16077079D01*
X10919944Y-16077079D02*
X10929467Y-16058031D01*
X10929467Y-16058031D02*
X10938991Y-16048508D01*
X10938991Y-16048508D02*
X10958039Y-16038984D01*
X11110420Y-16238984D02*
X11110420Y-16105650D01*
X11110420Y-16124698D02*
X11119944Y-16115174D01*
X11119944Y-16115174D02*
X11138991Y-16105650D01*
X11138991Y-16105650D02*
X11167563Y-16105650D01*
X11167563Y-16105650D02*
X11186610Y-16115174D01*
X11186610Y-16115174D02*
X11196134Y-16134222D01*
X11196134Y-16134222D02*
X11196134Y-16238984D01*
X11196134Y-16134222D02*
X11205658Y-16115174D01*
X11205658Y-16115174D02*
X11224705Y-16105650D01*
X11224705Y-16105650D02*
X11253277Y-16105650D01*
X11253277Y-16105650D02*
X11272324Y-16115174D01*
X11272324Y-16115174D02*
X11281848Y-16134222D01*
X11281848Y-16134222D02*
X11281848Y-16238984D01*
X11377086Y-16238984D02*
X11377086Y-16105650D01*
X11377086Y-16124698D02*
X11386610Y-16115174D01*
X11386610Y-16115174D02*
X11405658Y-16105650D01*
X11405658Y-16105650D02*
X11434229Y-16105650D01*
X11434229Y-16105650D02*
X11453277Y-16115174D01*
X11453277Y-16115174D02*
X11462801Y-16134222D01*
X11462801Y-16134222D02*
X11462801Y-16238984D01*
X11462801Y-16134222D02*
X11472324Y-16115174D01*
X11472324Y-16115174D02*
X11491372Y-16105650D01*
X11491372Y-16105650D02*
X11519943Y-16105650D01*
X11519943Y-16105650D02*
X11538991Y-16115174D01*
X11538991Y-16115174D02*
X11548515Y-16134222D01*
X11548515Y-16134222D02*
X11548515Y-16238984D01*
X11938991Y-16029460D02*
X11767563Y-16286603D01*
X12196134Y-16038984D02*
X12215182Y-16038984D01*
X12215182Y-16038984D02*
X12234229Y-16048508D01*
X12234229Y-16048508D02*
X12243753Y-16058031D01*
X12243753Y-16058031D02*
X12253277Y-16077079D01*
X12253277Y-16077079D02*
X12262801Y-16115174D01*
X12262801Y-16115174D02*
X12262801Y-16162793D01*
X12262801Y-16162793D02*
X12253277Y-16200888D01*
X12253277Y-16200888D02*
X12243753Y-16219936D01*
X12243753Y-16219936D02*
X12234229Y-16229460D01*
X12234229Y-16229460D02*
X12215182Y-16238984D01*
X12215182Y-16238984D02*
X12196134Y-16238984D01*
X12196134Y-16238984D02*
X12177086Y-16229460D01*
X12177086Y-16229460D02*
X12167563Y-16219936D01*
X12167563Y-16219936D02*
X12158039Y-16200888D01*
X12158039Y-16200888D02*
X12148515Y-16162793D01*
X12148515Y-16162793D02*
X12148515Y-16115174D01*
X12148515Y-16115174D02*
X12158039Y-16077079D01*
X12158039Y-16077079D02*
X12167563Y-16058031D01*
X12167563Y-16058031D02*
X12177086Y-16048508D01*
X12177086Y-16048508D02*
X12196134Y-16038984D01*
X12348515Y-16219936D02*
X12358039Y-16229460D01*
X12358039Y-16229460D02*
X12348515Y-16238984D01*
X12348515Y-16238984D02*
X12338991Y-16229460D01*
X12338991Y-16229460D02*
X12348515Y-16219936D01*
X12348515Y-16219936D02*
X12348515Y-16238984D01*
X12548515Y-16238984D02*
X12434229Y-16238984D01*
X12491372Y-16238984D02*
X12491372Y-16038984D01*
X12491372Y-16038984D02*
X12472325Y-16067555D01*
X12472325Y-16067555D02*
X12453277Y-16086603D01*
X12453277Y-16086603D02*
X12434229Y-16096127D01*
X12624706Y-16058031D02*
X12634229Y-16048508D01*
X12634229Y-16048508D02*
X12653277Y-16038984D01*
X12653277Y-16038984D02*
X12700896Y-16038984D01*
X12700896Y-16038984D02*
X12719944Y-16048508D01*
X12719944Y-16048508D02*
X12729467Y-16058031D01*
X12729467Y-16058031D02*
X12738991Y-16077079D01*
X12738991Y-16077079D02*
X12738991Y-16096127D01*
X12738991Y-16096127D02*
X12729467Y-16124698D01*
X12729467Y-16124698D02*
X12615182Y-16238984D01*
X12615182Y-16238984D02*
X12738991Y-16238984D01*
X12853277Y-16124698D02*
X12834229Y-16115174D01*
X12834229Y-16115174D02*
X12824706Y-16105650D01*
X12824706Y-16105650D02*
X12815182Y-16086603D01*
X12815182Y-16086603D02*
X12815182Y-16077079D01*
X12815182Y-16077079D02*
X12824706Y-16058031D01*
X12824706Y-16058031D02*
X12834229Y-16048508D01*
X12834229Y-16048508D02*
X12853277Y-16038984D01*
X12853277Y-16038984D02*
X12891372Y-16038984D01*
X12891372Y-16038984D02*
X12910420Y-16048508D01*
X12910420Y-16048508D02*
X12919944Y-16058031D01*
X12919944Y-16058031D02*
X12929467Y-16077079D01*
X12929467Y-16077079D02*
X12929467Y-16086603D01*
X12929467Y-16086603D02*
X12919944Y-16105650D01*
X12919944Y-16105650D02*
X12910420Y-16115174D01*
X12910420Y-16115174D02*
X12891372Y-16124698D01*
X12891372Y-16124698D02*
X12853277Y-16124698D01*
X12853277Y-16124698D02*
X12834229Y-16134222D01*
X12834229Y-16134222D02*
X12824706Y-16143746D01*
X12824706Y-16143746D02*
X12815182Y-16162793D01*
X12815182Y-16162793D02*
X12815182Y-16200888D01*
X12815182Y-16200888D02*
X12824706Y-16219936D01*
X12824706Y-16219936D02*
X12834229Y-16229460D01*
X12834229Y-16229460D02*
X12853277Y-16238984D01*
X12853277Y-16238984D02*
X12891372Y-16238984D01*
X12891372Y-16238984D02*
X12910420Y-16229460D01*
X12910420Y-16229460D02*
X12919944Y-16219936D01*
X12919944Y-16219936D02*
X12929467Y-16200888D01*
X12929467Y-16200888D02*
X12929467Y-16162793D01*
X12929467Y-16162793D02*
X12919944Y-16143746D01*
X12919944Y-16143746D02*
X12910420Y-16134222D01*
X12910420Y-16134222D02*
X12891372Y-16124698D01*
X13053277Y-16038984D02*
X13072325Y-16038984D01*
X13072325Y-16038984D02*
X13091372Y-16048508D01*
X13091372Y-16048508D02*
X13100896Y-16058031D01*
X13100896Y-16058031D02*
X13110420Y-16077079D01*
X13110420Y-16077079D02*
X13119944Y-16115174D01*
X13119944Y-16115174D02*
X13119944Y-16162793D01*
X13119944Y-16162793D02*
X13110420Y-16200888D01*
X13110420Y-16200888D02*
X13100896Y-16219936D01*
X13100896Y-16219936D02*
X13091372Y-16229460D01*
X13091372Y-16229460D02*
X13072325Y-16238984D01*
X13072325Y-16238984D02*
X13053277Y-16238984D01*
X13053277Y-16238984D02*
X13034229Y-16229460D01*
X13034229Y-16229460D02*
X13024706Y-16219936D01*
X13024706Y-16219936D02*
X13015182Y-16200888D01*
X13015182Y-16200888D02*
X13005658Y-16162793D01*
X13005658Y-16162793D02*
X13005658Y-16115174D01*
X13005658Y-16115174D02*
X13015182Y-16077079D01*
X13015182Y-16077079D02*
X13024706Y-16058031D01*
X13024706Y-16058031D02*
X13034229Y-16048508D01*
X13034229Y-16048508D02*
X13053277Y-16038984D01*
X13196134Y-16038984D02*
X13196134Y-16077079D01*
X13272325Y-16038984D02*
X13272325Y-16077079D01*
X13567563Y-16315174D02*
X13558039Y-16305650D01*
X13558039Y-16305650D02*
X13538991Y-16277079D01*
X13538991Y-16277079D02*
X13529468Y-16258031D01*
X13529468Y-16258031D02*
X13519944Y-16229460D01*
X13519944Y-16229460D02*
X13510420Y-16181841D01*
X13510420Y-16181841D02*
X13510420Y-16143746D01*
X13510420Y-16143746D02*
X13519944Y-16096127D01*
X13519944Y-16096127D02*
X13529468Y-16067555D01*
X13529468Y-16067555D02*
X13538991Y-16048508D01*
X13538991Y-16048508D02*
X13558039Y-16019936D01*
X13558039Y-16019936D02*
X13567563Y-16010412D01*
X13634229Y-16058031D02*
X13643753Y-16048508D01*
X13643753Y-16048508D02*
X13662801Y-16038984D01*
X13662801Y-16038984D02*
X13710420Y-16038984D01*
X13710420Y-16038984D02*
X13729468Y-16048508D01*
X13729468Y-16048508D02*
X13738991Y-16058031D01*
X13738991Y-16058031D02*
X13748515Y-16077079D01*
X13748515Y-16077079D02*
X13748515Y-16096127D01*
X13748515Y-16096127D02*
X13738991Y-16124698D01*
X13738991Y-16124698D02*
X13624706Y-16238984D01*
X13624706Y-16238984D02*
X13748515Y-16238984D01*
X13986610Y-16238984D02*
X13986610Y-16038984D01*
X14072325Y-16238984D02*
X14072325Y-16134222D01*
X14072325Y-16134222D02*
X14062801Y-16115174D01*
X14062801Y-16115174D02*
X14043753Y-16105650D01*
X14043753Y-16105650D02*
X14015182Y-16105650D01*
X14015182Y-16105650D02*
X13996134Y-16115174D01*
X13996134Y-16115174D02*
X13986610Y-16124698D01*
X14196134Y-16238984D02*
X14177087Y-16229460D01*
X14177087Y-16229460D02*
X14167563Y-16219936D01*
X14167563Y-16219936D02*
X14158039Y-16200888D01*
X14158039Y-16200888D02*
X14158039Y-16143746D01*
X14158039Y-16143746D02*
X14167563Y-16124698D01*
X14167563Y-16124698D02*
X14177087Y-16115174D01*
X14177087Y-16115174D02*
X14196134Y-16105650D01*
X14196134Y-16105650D02*
X14224706Y-16105650D01*
X14224706Y-16105650D02*
X14243753Y-16115174D01*
X14243753Y-16115174D02*
X14253277Y-16124698D01*
X14253277Y-16124698D02*
X14262801Y-16143746D01*
X14262801Y-16143746D02*
X14262801Y-16200888D01*
X14262801Y-16200888D02*
X14253277Y-16219936D01*
X14253277Y-16219936D02*
X14243753Y-16229460D01*
X14243753Y-16229460D02*
X14224706Y-16238984D01*
X14224706Y-16238984D02*
X14196134Y-16238984D01*
X14377087Y-16238984D02*
X14358039Y-16229460D01*
X14358039Y-16229460D02*
X14348515Y-16210412D01*
X14348515Y-16210412D02*
X14348515Y-16038984D01*
X14529468Y-16229460D02*
X14510420Y-16238984D01*
X14510420Y-16238984D02*
X14472325Y-16238984D01*
X14472325Y-16238984D02*
X14453277Y-16229460D01*
X14453277Y-16229460D02*
X14443753Y-16210412D01*
X14443753Y-16210412D02*
X14443753Y-16134222D01*
X14443753Y-16134222D02*
X14453277Y-16115174D01*
X14453277Y-16115174D02*
X14472325Y-16105650D01*
X14472325Y-16105650D02*
X14510420Y-16105650D01*
X14510420Y-16105650D02*
X14529468Y-16115174D01*
X14529468Y-16115174D02*
X14538991Y-16134222D01*
X14538991Y-16134222D02*
X14538991Y-16153269D01*
X14538991Y-16153269D02*
X14443753Y-16172317D01*
X14615182Y-16229460D02*
X14634230Y-16238984D01*
X14634230Y-16238984D02*
X14672325Y-16238984D01*
X14672325Y-16238984D02*
X14691372Y-16229460D01*
X14691372Y-16229460D02*
X14700896Y-16210412D01*
X14700896Y-16210412D02*
X14700896Y-16200888D01*
X14700896Y-16200888D02*
X14691372Y-16181841D01*
X14691372Y-16181841D02*
X14672325Y-16172317D01*
X14672325Y-16172317D02*
X14643753Y-16172317D01*
X14643753Y-16172317D02*
X14624706Y-16162793D01*
X14624706Y-16162793D02*
X14615182Y-16143746D01*
X14615182Y-16143746D02*
X14615182Y-16134222D01*
X14615182Y-16134222D02*
X14624706Y-16115174D01*
X14624706Y-16115174D02*
X14643753Y-16105650D01*
X14643753Y-16105650D02*
X14672325Y-16105650D01*
X14672325Y-16105650D02*
X14691372Y-16115174D01*
X14767563Y-16315174D02*
X14777087Y-16305650D01*
X14777087Y-16305650D02*
X14796134Y-16277079D01*
X14796134Y-16277079D02*
X14805658Y-16258031D01*
X14805658Y-16258031D02*
X14815182Y-16229460D01*
X14815182Y-16229460D02*
X14824706Y-16181841D01*
X14824706Y-16181841D02*
X14824706Y-16143746D01*
X14824706Y-16143746D02*
X14815182Y-16096127D01*
X14815182Y-16096127D02*
X14805658Y-16067555D01*
X14805658Y-16067555D02*
X14796134Y-16048508D01*
X14796134Y-16048508D02*
X14777087Y-16019936D01*
X14777087Y-16019936D02*
X14767563Y-16010412D01*
X15129468Y-16315174D02*
X15119944Y-16305650D01*
X15119944Y-16305650D02*
X15100896Y-16277079D01*
X15100896Y-16277079D02*
X15091372Y-16258031D01*
X15091372Y-16258031D02*
X15081849Y-16229460D01*
X15081849Y-16229460D02*
X15072325Y-16181841D01*
X15072325Y-16181841D02*
X15072325Y-16143746D01*
X15072325Y-16143746D02*
X15081849Y-16096127D01*
X15081849Y-16096127D02*
X15091372Y-16067555D01*
X15091372Y-16067555D02*
X15100896Y-16048508D01*
X15100896Y-16048508D02*
X15119944Y-16019936D01*
X15119944Y-16019936D02*
X15129468Y-16010412D01*
X15205658Y-16105650D02*
X15205658Y-16238984D01*
X15205658Y-16124698D02*
X15215182Y-16115174D01*
X15215182Y-16115174D02*
X15234230Y-16105650D01*
X15234230Y-16105650D02*
X15262801Y-16105650D01*
X15262801Y-16105650D02*
X15281849Y-16115174D01*
X15281849Y-16115174D02*
X15291372Y-16134222D01*
X15291372Y-16134222D02*
X15291372Y-16238984D01*
X15415182Y-16238984D02*
X15396134Y-16229460D01*
X15396134Y-16229460D02*
X15386611Y-16219936D01*
X15386611Y-16219936D02*
X15377087Y-16200888D01*
X15377087Y-16200888D02*
X15377087Y-16143746D01*
X15377087Y-16143746D02*
X15386611Y-16124698D01*
X15386611Y-16124698D02*
X15396134Y-16115174D01*
X15396134Y-16115174D02*
X15415182Y-16105650D01*
X15415182Y-16105650D02*
X15443753Y-16105650D01*
X15443753Y-16105650D02*
X15462801Y-16115174D01*
X15462801Y-16115174D02*
X15472325Y-16124698D01*
X15472325Y-16124698D02*
X15481849Y-16143746D01*
X15481849Y-16143746D02*
X15481849Y-16200888D01*
X15481849Y-16200888D02*
X15472325Y-16219936D01*
X15472325Y-16219936D02*
X15462801Y-16229460D01*
X15462801Y-16229460D02*
X15443753Y-16238984D01*
X15443753Y-16238984D02*
X15415182Y-16238984D01*
X15538992Y-16105650D02*
X15615182Y-16105650D01*
X15567563Y-16038984D02*
X15567563Y-16210412D01*
X15567563Y-16210412D02*
X15577087Y-16229460D01*
X15577087Y-16229460D02*
X15596134Y-16238984D01*
X15596134Y-16238984D02*
X15615182Y-16238984D01*
X15834230Y-16105650D02*
X15834230Y-16305650D01*
X15834230Y-16115174D02*
X15853277Y-16105650D01*
X15853277Y-16105650D02*
X15891373Y-16105650D01*
X15891373Y-16105650D02*
X15910420Y-16115174D01*
X15910420Y-16115174D02*
X15919944Y-16124698D01*
X15919944Y-16124698D02*
X15929468Y-16143746D01*
X15929468Y-16143746D02*
X15929468Y-16200888D01*
X15929468Y-16200888D02*
X15919944Y-16219936D01*
X15919944Y-16219936D02*
X15910420Y-16229460D01*
X15910420Y-16229460D02*
X15891373Y-16238984D01*
X15891373Y-16238984D02*
X15853277Y-16238984D01*
X15853277Y-16238984D02*
X15834230Y-16229460D01*
X16043753Y-16238984D02*
X16024706Y-16229460D01*
X16024706Y-16229460D02*
X16015182Y-16210412D01*
X16015182Y-16210412D02*
X16015182Y-16038984D01*
X16205658Y-16238984D02*
X16205658Y-16134222D01*
X16205658Y-16134222D02*
X16196134Y-16115174D01*
X16196134Y-16115174D02*
X16177087Y-16105650D01*
X16177087Y-16105650D02*
X16138992Y-16105650D01*
X16138992Y-16105650D02*
X16119944Y-16115174D01*
X16205658Y-16229460D02*
X16186611Y-16238984D01*
X16186611Y-16238984D02*
X16138992Y-16238984D01*
X16138992Y-16238984D02*
X16119944Y-16229460D01*
X16119944Y-16229460D02*
X16110420Y-16210412D01*
X16110420Y-16210412D02*
X16110420Y-16191365D01*
X16110420Y-16191365D02*
X16119944Y-16172317D01*
X16119944Y-16172317D02*
X16138992Y-16162793D01*
X16138992Y-16162793D02*
X16186611Y-16162793D01*
X16186611Y-16162793D02*
X16205658Y-16153269D01*
X16272325Y-16105650D02*
X16348515Y-16105650D01*
X16300896Y-16038984D02*
X16300896Y-16210412D01*
X16300896Y-16210412D02*
X16310420Y-16229460D01*
X16310420Y-16229460D02*
X16329468Y-16238984D01*
X16329468Y-16238984D02*
X16348515Y-16238984D01*
X16491373Y-16229460D02*
X16472325Y-16238984D01*
X16472325Y-16238984D02*
X16434230Y-16238984D01*
X16434230Y-16238984D02*
X16415182Y-16229460D01*
X16415182Y-16229460D02*
X16405658Y-16210412D01*
X16405658Y-16210412D02*
X16405658Y-16134222D01*
X16405658Y-16134222D02*
X16415182Y-16115174D01*
X16415182Y-16115174D02*
X16434230Y-16105650D01*
X16434230Y-16105650D02*
X16472325Y-16105650D01*
X16472325Y-16105650D02*
X16491373Y-16115174D01*
X16491373Y-16115174D02*
X16500896Y-16134222D01*
X16500896Y-16134222D02*
X16500896Y-16153269D01*
X16500896Y-16153269D02*
X16405658Y-16172317D01*
X16672325Y-16238984D02*
X16672325Y-16038984D01*
X16672325Y-16229460D02*
X16653277Y-16238984D01*
X16653277Y-16238984D02*
X16615182Y-16238984D01*
X16615182Y-16238984D02*
X16596134Y-16229460D01*
X16596134Y-16229460D02*
X16586611Y-16219936D01*
X16586611Y-16219936D02*
X16577087Y-16200888D01*
X16577087Y-16200888D02*
X16577087Y-16143746D01*
X16577087Y-16143746D02*
X16586611Y-16124698D01*
X16586611Y-16124698D02*
X16596134Y-16115174D01*
X16596134Y-16115174D02*
X16615182Y-16105650D01*
X16615182Y-16105650D02*
X16653277Y-16105650D01*
X16653277Y-16105650D02*
X16672325Y-16115174D01*
X16748515Y-16315174D02*
X16758039Y-16305650D01*
X16758039Y-16305650D02*
X16777087Y-16277079D01*
X16777087Y-16277079D02*
X16786611Y-16258031D01*
X16786611Y-16258031D02*
X16796135Y-16229460D01*
X16796135Y-16229460D02*
X16805658Y-16181841D01*
X16805658Y-16181841D02*
X16805658Y-16143746D01*
X16805658Y-16143746D02*
X16796135Y-16096127D01*
X16796135Y-16096127D02*
X16786611Y-16067555D01*
X16786611Y-16067555D02*
X16777087Y-16048508D01*
X16777087Y-16048508D02*
X16758039Y-16019936D01*
X16758039Y-16019936D02*
X16748515Y-16010412D01*
M02*
