<?xml version="1.0" standalone="no"?>
 <!DOCTYPE svg PUBLIC "-//W3C//DTD SVG 1.1//EN" 
 "http://www.w3.org/Graphics/SVG/1.1/DTD/svg11.dtd"> 
<svg
  xmlns:svg="http://www.w3.org/2000/svg"
  xmlns="http://www.w3.org/2000/svg"
  xmlns:xlink="http://www.w3.org/1999/xlink"
  version="1.1"
  width="58.1660mm" height="54.7370mm" viewBox="0.0000 0.0000 58.1660 54.7370">
<title>SVG Image created as yy_CAN_board-F_Paste.svg date 2025/01/13 19:21:06 </title>
  <desc>Image generated by PCBNEW </desc>
<g style="fill:#000000; fill-opacity:1.0000;stroke:#000000; stroke-opacity:1.0000;
stroke-linecap:round; stroke-linejoin:round;"
 transform="translate(0 0) scale(1 1)">
<path style="fill:#000000; fill-opacity:1.0000; stroke:none;fill-rule:evenodd;"
d="M 49.2046,38.4686
49.1089,38.4496
49.0278,38.3954
48.9736,38.3143
48.9546,38.2186
48.9546,37.7186
48.9736,37.6229
49.0278,37.5418
49.1089,37.4876
49.2046,37.4686
54.2046,37.4686
54.3003,37.4876
54.3814,37.5418
54.4356,37.6229
54.4546,37.7186
54.4546,38.2186
54.4356,38.3143
54.3814,38.3954
54.3003,38.4496
54.2046,38.4686
Z" /> 
<path style="fill:#000000; fill-opacity:1.0000; stroke:none;fill-rule:evenodd;"
d="M 49.2046,36.4686
49.1089,36.4496
49.0278,36.3954
48.9736,36.3143
48.9546,36.2186
48.9546,35.7186
48.9736,35.6229
49.0278,35.5418
49.1089,35.4876
49.2046,35.4686
54.2046,35.4686
54.3003,35.4876
54.3814,35.5418
54.4356,35.6229
54.4546,35.7186
54.4546,36.2186
54.4356,36.3143
54.3814,36.3954
54.3003,36.4496
54.2046,36.4686
Z" /> 
<path style="fill:#000000; fill-opacity:1.0000; stroke:none;fill-rule:evenodd;"
d="M 49.2046,34.4686
49.1089,34.4496
49.0278,34.3954
48.9736,34.3143
48.9546,34.2186
48.9546,33.7186
48.9736,33.6229
49.0278,33.5418
49.1089,33.4876
49.2046,33.4686
54.2046,33.4686
54.3003,33.4876
54.3814,33.5418
54.4356,33.6229
54.4546,33.7186
54.4546,34.2186
54.4356,34.3143
54.3814,34.3954
54.3003,34.4496
54.2046,34.4686
Z" /> 
<path style="fill:#000000; fill-opacity:1.0000; stroke:none;fill-rule:evenodd;"
d="M 49.2046,32.4686
49.1089,32.4496
49.0278,32.3954
48.9736,32.3143
48.9546,32.2186
48.9546,31.7186
48.9736,31.6229
49.0278,31.5418
49.1089,31.4876
49.2046,31.4686
54.2046,31.4686
54.3003,31.4876
54.3814,31.5418
54.4356,31.6229
54.4546,31.7186
54.4546,32.2186
54.4356,32.3143
54.3814,32.3954
54.3003,32.4496
54.2046,32.4686
Z" /> 
<path style="fill:#000000; fill-opacity:1.0000; stroke:none;fill-rule:evenodd;"
d="M 49.2046,30.4686
49.1089,30.4496
49.0278,30.3954
48.9736,30.3143
48.9546,30.2186
48.9546,29.7186
48.9736,29.6229
49.0278,29.5418
49.1089,29.4876
49.2046,29.4686
54.2046,29.4686
54.3003,29.4876
54.3814,29.5418
54.4356,29.6229
54.4546,29.7186
54.4546,30.2186
54.4356,30.3143
54.3814,30.3954
54.3003,30.4496
54.2046,30.4686
Z" /> 
<path style="fill:#000000; fill-opacity:1.0000; stroke:none;fill-rule:evenodd;"
d="M 49.2046,28.4686
49.1089,28.4496
49.0278,28.3954
48.9736,28.3143
48.9546,28.2186
48.9546,27.7186
48.9736,27.6229
49.0278,27.5418
49.1089,27.4876
49.2046,27.4686
54.2046,27.4686
54.3003,27.4876
54.3814,27.5418
54.4356,27.6229
54.4546,27.7186
54.4546,28.2186
54.4356,28.3143
54.3814,28.3954
54.3003,28.4496
54.2046,28.4686
Z" /> 
<path style="fill:#000000; fill-opacity:1.0000; stroke:none;fill-rule:evenodd;"
d="M 48.2046,41.1686
48.1089,41.1496
48.0278,41.0954
47.9736,41.0143
47.9546,40.9186
47.9546,39.8186
47.9736,39.7229
48.0278,39.6418
48.1089,39.5876
48.2046,39.5686
50.7046,39.5686
50.8003,39.5876
50.8814,39.6418
50.9356,39.7229
50.9546,39.8186
50.9546,40.9186
50.9356,41.0143
50.8814,41.0954
50.8003,41.1496
50.7046,41.1686
Z" /> 
<path style="fill:#000000; fill-opacity:1.0000; stroke:none;fill-rule:evenodd;"
d="M 48.2046,26.3686
48.1089,26.3496
48.0278,26.2954
47.9736,26.2143
47.9546,26.1186
47.9546,25.0186
47.9736,24.9229
48.0278,24.8418
48.1089,24.7876
48.2046,24.7686
50.7046,24.7686
50.8003,24.7876
50.8814,24.8418
50.9356,24.9229
50.9546,25.0186
50.9546,26.1186
50.9356,26.2143
50.8814,26.2954
50.8003,26.3496
50.7046,26.3686
Z" /> 
<path style="fill:#000000; fill-opacity:1.0000; stroke:none;fill-rule:evenodd;"
d="M 40.8250,48.5832
40.8060,48.6789
40.7518,48.7600
40.6707,48.8142
40.5750,48.8332
40.0750,48.8332
39.9793,48.8142
39.8982,48.7600
39.8440,48.6789
39.8250,48.5832
39.8250,43.5832
39.8440,43.4875
39.8982,43.4064
39.9793,43.3522
40.0750,43.3332
40.5750,43.3332
40.6707,43.3522
40.7518,43.4064
40.8060,43.4875
40.8250,43.5832
Z" /> 
<path style="fill:#000000; fill-opacity:1.0000; stroke:none;fill-rule:evenodd;"
d="M 38.8250,48.5832
38.8060,48.6789
38.7518,48.7600
38.6707,48.8142
38.5750,48.8332
38.0750,48.8332
37.9793,48.8142
37.8982,48.7600
37.8440,48.6789
37.8250,48.5832
37.8250,43.5832
37.8440,43.4875
37.8982,43.4064
37.9793,43.3522
38.0750,43.3332
38.5750,43.3332
38.6707,43.3522
38.7518,43.4064
38.8060,43.4875
38.8250,43.5832
Z" /> 
<path style="fill:#000000; fill-opacity:1.0000; stroke:none;fill-rule:evenodd;"
d="M 36.8250,48.5832
36.8060,48.6789
36.7518,48.7600
36.6707,48.8142
36.5750,48.8332
36.0750,48.8332
35.9793,48.8142
35.8982,48.7600
35.8440,48.6789
35.8250,48.5832
35.8250,43.5832
35.8440,43.4875
35.8982,43.4064
35.9793,43.3522
36.0750,43.3332
36.5750,43.3332
36.6707,43.3522
36.7518,43.4064
36.8060,43.4875
36.8250,43.5832
Z" /> 
<path style="fill:#000000; fill-opacity:1.0000; stroke:none;fill-rule:evenodd;"
d="M 43.5250,49.5832
43.5060,49.6789
43.4518,49.7600
43.3707,49.8142
43.2750,49.8332
42.1750,49.8332
42.0793,49.8142
41.9982,49.7600
41.9440,49.6789
41.9250,49.5832
41.9250,47.0832
41.9440,46.9875
41.9982,46.9064
42.0793,46.8522
42.1750,46.8332
43.2750,46.8332
43.3707,46.8522
43.4518,46.9064
43.5060,46.9875
43.5250,47.0832
Z" /> 
<path style="fill:#000000; fill-opacity:1.0000; stroke:none;fill-rule:evenodd;"
d="M 34.7250,49.5832
34.7060,49.6789
34.6518,49.7600
34.5707,49.8142
34.4750,49.8332
33.3750,49.8332
33.2793,49.8142
33.1982,49.7600
33.1440,49.6789
33.1250,49.5832
33.1250,47.0832
33.1440,46.9875
33.1982,46.9064
33.2793,46.8522
33.3750,46.8332
34.4750,46.8332
34.5707,46.8522
34.6518,46.9064
34.7060,46.9875
34.7250,47.0832
Z" /> 
<path style="fill:#000000; fill-opacity:1.0000; stroke:none;fill-rule:evenodd;"
d="M 27.0750,48.5832
27.0560,48.6789
27.0018,48.7600
26.9207,48.8142
26.8250,48.8332
26.3250,48.8332
26.2293,48.8142
26.1482,48.7600
26.0940,48.6789
26.0750,48.5832
26.0750,43.5832
26.0940,43.4875
26.1482,43.4064
26.2293,43.3522
26.3250,43.3332
26.8250,43.3332
26.9207,43.3522
27.0018,43.4064
27.0560,43.4875
27.0750,43.5832
Z" /> 
<path style="fill:#000000; fill-opacity:1.0000; stroke:none;fill-rule:evenodd;"
d="M 25.0750,48.5832
25.0560,48.6789
25.0018,48.7600
24.9207,48.8142
24.8250,48.8332
24.3250,48.8332
24.2293,48.8142
24.1482,48.7600
24.0940,48.6789
24.0750,48.5832
24.0750,43.5832
24.0940,43.4875
24.1482,43.4064
24.2293,43.3522
24.3250,43.3332
24.8250,43.3332
24.9207,43.3522
25.0018,43.4064
25.0560,43.4875
25.0750,43.5832
Z" /> 
<path style="fill:#000000; fill-opacity:1.0000; stroke:none;fill-rule:evenodd;"
d="M 23.0750,48.5832
23.0560,48.6789
23.0018,48.7600
22.9207,48.8142
22.8250,48.8332
22.3250,48.8332
22.2293,48.8142
22.1482,48.7600
22.0940,48.6789
22.0750,48.5832
22.0750,43.5832
22.0940,43.4875
22.1482,43.4064
22.2293,43.3522
22.3250,43.3332
22.8250,43.3332
22.9207,43.3522
23.0018,43.4064
23.0560,43.4875
23.0750,43.5832
Z" /> 
<path style="fill:#000000; fill-opacity:1.0000; stroke:none;fill-rule:evenodd;"
d="M 21.0750,48.5832
21.0560,48.6789
21.0018,48.7600
20.9207,48.8142
20.8250,48.8332
20.3250,48.8332
20.2293,48.8142
20.1482,48.7600
20.0940,48.6789
20.0750,48.5832
20.0750,43.5832
20.0940,43.4875
20.1482,43.4064
20.2293,43.3522
20.3250,43.3332
20.8250,43.3332
20.9207,43.3522
21.0018,43.4064
21.0560,43.4875
21.0750,43.5832
Z" /> 
<path style="fill:#000000; fill-opacity:1.0000; stroke:none;fill-rule:evenodd;"
d="M 19.0750,48.5832
19.0560,48.6789
19.0018,48.7600
18.9207,48.8142
18.8250,48.8332
18.3250,48.8332
18.2293,48.8142
18.1482,48.7600
18.0940,48.6789
18.0750,48.5832
18.0750,43.5832
18.0940,43.4875
18.1482,43.4064
18.2293,43.3522
18.3250,43.3332
18.8250,43.3332
18.9207,43.3522
19.0018,43.4064
19.0560,43.4875
19.0750,43.5832
Z" /> 
<path style="fill:#000000; fill-opacity:1.0000; stroke:none;fill-rule:evenodd;"
d="M 17.0750,48.5832
17.0560,48.6789
17.0018,48.7600
16.9207,48.8142
16.8250,48.8332
16.3250,48.8332
16.2293,48.8142
16.1482,48.7600
16.0940,48.6789
16.0750,48.5832
16.0750,43.5832
16.0940,43.4875
16.1482,43.4064
16.2293,43.3522
16.3250,43.3332
16.8250,43.3332
16.9207,43.3522
17.0018,43.4064
17.0560,43.4875
17.0750,43.5832
Z" /> 
<path style="fill:#000000; fill-opacity:1.0000; stroke:none;fill-rule:evenodd;"
d="M 29.7750,49.5832
29.7560,49.6789
29.7018,49.7600
29.6207,49.8142
29.5250,49.8332
28.4250,49.8332
28.3293,49.8142
28.2482,49.7600
28.1940,49.6789
28.1750,49.5832
28.1750,47.0832
28.1940,46.9875
28.2482,46.9064
28.3293,46.8522
28.4250,46.8332
29.5250,46.8332
29.6207,46.8522
29.7018,46.9064
29.7560,46.9875
29.7750,47.0832
Z" /> 
<path style="fill:#000000; fill-opacity:1.0000; stroke:none;fill-rule:evenodd;"
d="M 14.9750,49.5832
14.9560,49.6789
14.9018,49.7600
14.8207,49.8142
14.7250,49.8332
13.6250,49.8332
13.5293,49.8142
13.4482,49.7600
13.3940,49.6789
13.3750,49.5832
13.3750,47.0832
13.3940,46.9875
13.4482,46.9064
13.5293,46.8522
13.6250,46.8332
14.7250,46.8332
14.8207,46.8522
14.9018,46.9064
14.9560,46.9875
14.9750,47.0832
Z" /> 
<path style="fill:#000000; fill-opacity:1.0000; stroke:none;fill-rule:evenodd;"
d="M 32.8596,36.0936
32.8406,36.1893
32.7864,36.2704
32.7053,36.3246
32.6096,36.3436
31.9346,36.3436
31.8389,36.3246
31.7578,36.2704
31.7036,36.1893
31.6846,36.0936
31.6846,35.1436
31.7036,35.0479
31.7578,34.9668
31.8389,34.9126
31.9346,34.8936
32.6096,34.8936
32.7053,34.9126
32.7864,34.9668
32.8406,35.0479
32.8596,35.1436
Z" /> 
<path style="fill:#000000; fill-opacity:1.0000; stroke:none;fill-rule:evenodd;"
d="M 30.7846,36.0936
30.7656,36.1893
30.7114,36.2704
30.6303,36.3246
30.5346,36.3436
29.8596,36.3436
29.7639,36.3246
29.6828,36.2704
29.6286,36.1893
29.6096,36.0936
29.6096,35.1436
29.6286,35.0479
29.6828,34.9668
29.7639,34.9126
29.8596,34.8936
30.5346,34.8936
30.6303,34.9126
30.7114,34.9668
30.7656,35.0479
30.7846,35.1436
Z" /> 
<path style="fill:#000000; fill-opacity:1.0000; stroke:none;fill-rule:evenodd;"
d="M 29.4946,27.3856
29.4978,27.3695
29.5069,27.3559
29.5205,27.3468
29.5366,27.3436
31.4226,27.3436
31.4387,27.3468
31.4523,27.3559
31.4614,27.3695
31.4646,27.3856
31.4646,27.9016
31.4614,27.9177
31.4523,27.9313
31.4387,27.9404
31.4226,27.9436
29.5366,27.9436
29.5205,27.9404
29.5069,27.9313
29.4978,27.9177
29.4946,27.9016
Z" /> 
<path style="fill:#000000; fill-opacity:1.0000; stroke:none;fill-rule:evenodd;"
d="M 29.4946,28.6556
29.4978,28.6395
29.5069,28.6259
29.5205,28.6168
29.5366,28.6136
31.4226,28.6136
31.4387,28.6168
31.4523,28.6259
31.4614,28.6395
31.4646,28.6556
31.4646,29.1716
31.4614,29.1877
31.4523,29.2013
31.4387,29.2104
31.4226,29.2136
29.5366,29.2136
29.5205,29.2104
29.5069,29.2013
29.4978,29.1877
29.4946,29.1716
Z" /> 
<path style="fill:#000000; fill-opacity:1.0000; stroke:none;fill-rule:evenodd;"
d="M 29.4946,29.9256
29.4978,29.9095
29.5069,29.8959
29.5205,29.8868
29.5366,29.8836
31.4226,29.8836
31.4387,29.8868
31.4523,29.8959
31.4614,29.9095
31.4646,29.9256
31.4646,30.4416
31.4614,30.4577
31.4523,30.4713
31.4387,30.4804
31.4226,30.4836
29.5366,30.4836
29.5205,30.4804
29.5069,30.4713
29.4978,30.4577
29.4946,30.4416
Z" /> 
<path style="fill:#000000; fill-opacity:1.0000; stroke:none;fill-rule:evenodd;"
d="M 29.4946,31.1956
29.4978,31.1795
29.5069,31.1659
29.5205,31.1568
29.5366,31.1536
31.4226,31.1536
31.4387,31.1568
31.4523,31.1659
31.4614,31.1795
31.4646,31.1956
31.4646,31.7116
31.4614,31.7277
31.4523,31.7413
31.4387,31.7504
31.4226,31.7536
29.5366,31.7536
29.5205,31.7504
29.5069,31.7413
29.4978,31.7277
29.4946,31.7116
Z" /> 
<path style="fill:#000000; fill-opacity:1.0000; stroke:none;fill-rule:evenodd;"
d="M 34.4346,31.1956
34.4378,31.1795
34.4469,31.1659
34.4605,31.1568
34.4766,31.1536
36.3626,31.1536
36.3787,31.1568
36.3923,31.1659
36.4014,31.1795
36.4046,31.1956
36.4046,31.7116
36.4014,31.7277
36.3923,31.7413
36.3787,31.7504
36.3626,31.7536
34.4766,31.7536
34.4605,31.7504
34.4469,31.7413
34.4378,31.7277
34.4346,31.7116
Z" /> 
<path style="fill:#000000; fill-opacity:1.0000; stroke:none;fill-rule:evenodd;"
d="M 34.4346,29.9256
34.4378,29.9095
34.4469,29.8959
34.4605,29.8868
34.4766,29.8836
36.3626,29.8836
36.3787,29.8868
36.3923,29.8959
36.4014,29.9095
36.4046,29.9256
36.4046,30.4416
36.4014,30.4577
36.3923,30.4713
36.3787,30.4804
36.3626,30.4836
34.4766,30.4836
34.4605,30.4804
34.4469,30.4713
34.4378,30.4577
34.4346,30.4416
Z" /> 
<path style="fill:#000000; fill-opacity:1.0000; stroke:none;fill-rule:evenodd;"
d="M 34.4346,28.6556
34.4378,28.6395
34.4469,28.6259
34.4605,28.6168
34.4766,28.6136
36.3626,28.6136
36.3787,28.6168
36.3923,28.6259
36.4014,28.6395
36.4046,28.6556
36.4046,29.1716
36.4014,29.1877
36.3923,29.2013
36.3787,29.2104
36.3626,29.2136
34.4766,29.2136
34.4605,29.2104
34.4469,29.2013
34.4378,29.1877
34.4346,29.1716
Z" /> 
<path style="fill:#000000; fill-opacity:1.0000; stroke:none;fill-rule:evenodd;"
d="M 34.4346,27.3856
34.4378,27.3695
34.4469,27.3559
34.4605,27.3468
34.4766,27.3436
36.3626,27.3436
36.3787,27.3468
36.3923,27.3559
36.4014,27.3695
36.4046,27.3856
36.4046,27.9016
36.4014,27.9177
36.3923,27.9313
36.3787,27.9404
36.3626,27.9436
34.4766,27.9436
34.4605,27.9404
34.4469,27.9313
34.4378,27.9177
34.4346,27.9016
Z" /> 
<path style="fill:#000000; fill-opacity:1.0000; stroke:none;fill-rule:evenodd;"
d="M 24.9106,31.6891
24.8149,31.6701
24.7338,31.6159
24.6796,31.5348
24.6606,31.4391
24.6606,30.7641
24.6796,30.6684
24.7338,30.5873
24.8149,30.5331
24.9106,30.5141
25.8606,30.5141
25.9563,30.5331
26.0374,30.5873
26.0916,30.6684
26.1106,30.7641
26.1106,31.4391
26.0916,31.5348
26.0374,31.6159
25.9563,31.6701
25.8606,31.6891
Z" /> 
<path style="fill:#000000; fill-opacity:1.0000; stroke:none;fill-rule:evenodd;"
d="M 24.9106,29.6141
24.8149,29.5951
24.7338,29.5409
24.6796,29.4598
24.6606,29.3641
24.6606,28.6891
24.6796,28.5934
24.7338,28.5123
24.8149,28.4581
24.9106,28.4391
25.8606,28.4391
25.9563,28.4581
26.0374,28.5123
26.0916,28.5934
26.1106,28.6891
26.1106,29.3641
26.0916,29.4598
26.0374,29.5409
25.9563,29.5951
25.8606,29.6141
Z" /> 
<path style="fill:#000000; fill-opacity:1.0000; stroke:none;fill-rule:evenodd;"
d="M 10.8066,23.7256
10.8256,23.6299
10.8798,23.5488
10.9609,23.4946
11.0566,23.4756
11.7316,23.4756
11.8273,23.4946
11.9084,23.5488
11.9626,23.6299
11.9816,23.7256
11.9816,24.6756
11.9626,24.7713
11.9084,24.8524
11.8273,24.9066
11.7316,24.9256
11.0566,24.9256
10.9609,24.9066
10.8798,24.8524
10.8256,24.7713
10.8066,24.6756
Z" /> 
<path style="fill:#000000; fill-opacity:1.0000; stroke:none;fill-rule:evenodd;"
d="M 12.8816,23.7256
12.9006,23.6299
12.9548,23.5488
13.0359,23.4946
13.1316,23.4756
13.8066,23.4756
13.9023,23.4946
13.9834,23.5488
14.0376,23.6299
14.0566,23.7256
14.0566,24.6756
14.0376,24.7713
13.9834,24.8524
13.9023,24.9066
13.8066,24.9256
13.1316,24.9256
13.0359,24.9066
12.9548,24.8524
12.9006,24.7713
12.8816,24.6756
Z" /> 
<path style="fill:#000000; fill-opacity:1.0000; stroke:none;fill-rule:evenodd;"
d="M 16.0511,27.7820
16.0511,27.2232
17.4481,27.2232
17.4481,27.7820
Z" /> 
<path style="fill:#000000; fill-opacity:1.0000; stroke:none;fill-rule:evenodd;"
d="M 16.0511,29.0520
16.0511,28.4932
17.4481,28.4932
17.4481,29.0520
Z" /> 
<path style="fill:#000000; fill-opacity:1.0000; stroke:none;fill-rule:evenodd;"
d="M 16.0511,30.3220
16.0511,29.7632
17.4481,29.7632
17.4481,30.3220
Z" /> 
<path style="fill:#000000; fill-opacity:1.0000; stroke:none;fill-rule:evenodd;"
d="M 16.0511,31.5920
16.0511,31.0332
17.4481,31.0332
17.4481,31.5920
Z" /> 
<path style="fill:#000000; fill-opacity:1.0000; stroke:none;fill-rule:evenodd;"
d="M 16.0511,32.8620
16.0511,32.3032
17.4481,32.3032
17.4481,32.8620
Z" /> 
<path style="fill:#000000; fill-opacity:1.0000; stroke:none;fill-rule:evenodd;"
d="M 16.0511,34.1320
16.0511,33.5732
17.4481,33.5732
17.4481,34.1320
Z" /> 
<path style="fill:#000000; fill-opacity:1.0000; stroke:none;fill-rule:evenodd;"
d="M 16.0511,35.4020
16.0511,34.8432
17.4481,34.8432
17.4481,35.4020
Z" /> 
<path style="fill:#000000; fill-opacity:1.0000; stroke:none;fill-rule:evenodd;"
d="M 21.3597,35.4020
21.3597,34.8432
22.7567,34.8432
22.7567,35.4020
Z" /> 
<path style="fill:#000000; fill-opacity:1.0000; stroke:none;fill-rule:evenodd;"
d="M 21.3597,34.1320
21.3597,33.5732
22.7567,33.5732
22.7567,34.1320
Z" /> 
<path style="fill:#000000; fill-opacity:1.0000; stroke:none;fill-rule:evenodd;"
d="M 21.3597,32.8620
21.3597,32.3032
22.7567,32.3032
22.7567,32.8620
Z" /> 
<path style="fill:#000000; fill-opacity:1.0000; stroke:none;fill-rule:evenodd;"
d="M 21.3597,31.5920
21.3597,31.0332
22.7567,31.0332
22.7567,31.5920
Z" /> 
<path style="fill:#000000; fill-opacity:1.0000; stroke:none;fill-rule:evenodd;"
d="M 21.3597,30.3220
21.3597,29.7632
22.7567,29.7632
22.7567,30.3220
Z" /> 
<path style="fill:#000000; fill-opacity:1.0000; stroke:none;fill-rule:evenodd;"
d="M 21.3597,29.0520
21.3597,28.4932
22.7567,28.4932
22.7567,29.0520
Z" /> 
<path style="fill:#000000; fill-opacity:1.0000; stroke:none;fill-rule:evenodd;"
d="M 21.3597,27.7820
21.3597,27.2232
22.7567,27.2232
22.7567,27.7820
Z" /> 
<path style="fill:#000000; fill-opacity:1.0000; stroke:none;fill-rule:evenodd;"
d="M 19.6446,39.4076
19.6256,39.5033
19.5714,39.5844
19.4903,39.6386
19.3946,39.6576
18.7196,39.6576
18.6239,39.6386
18.5428,39.5844
18.4886,39.5033
18.4696,39.4076
18.4696,38.4576
18.4886,38.3619
18.5428,38.2808
18.6239,38.2266
18.7196,38.2076
19.3946,38.2076
19.4903,38.2266
19.5714,38.2808
19.6256,38.3619
19.6446,38.4576
Z" /> 
<path style="fill:#000000; fill-opacity:1.0000; stroke:none;fill-rule:evenodd;"
d="M 17.5696,39.4076
17.5506,39.5033
17.4964,39.5844
17.4153,39.6386
17.3196,39.6576
16.6446,39.6576
16.5489,39.6386
16.4678,39.5844
16.4136,39.5033
16.3946,39.4076
16.3946,38.4576
16.4136,38.3619
16.4678,38.2808
16.5489,38.2266
16.6446,38.2076
17.3196,38.2076
17.4153,38.2266
17.4964,38.2808
17.5506,38.3619
17.5696,38.4576
Z" /> 
</g>
<g style="fill:none; 
stroke:#000000; stroke-width:0.1500; stroke-opacity:1; 
stroke-linecap:round; stroke-linejoin:round;">
<path d="M0.0750 54.6832
L58.0750 54.6832
" />
<path d="M0.0750 54.6832
L0.0750 8.6832
" />
<path d="M58.0750 54.6832
L58.0750 8.6832
" />
<path d="M0.0750 8.6832
L58.0750 8.6832
" />
</g> 
</svg>
