<?xml version="1.0" standalone="no"?>
 <!DOCTYPE svg PUBLIC "-//W3C//DTD SVG 1.1//EN" 
 "http://www.w3.org/Graphics/SVG/1.1/DTD/svg11.dtd"> 
<svg
  xmlns:svg="http://www.w3.org/2000/svg"
  xmlns="http://www.w3.org/2000/svg"
  xmlns:xlink="http://www.w3.org/1999/xlink"
  version="1.1"
  width="108.8898mm" height="100.4570mm" viewBox="0.0000 0.0000 108.8898 100.4570">
<title>SVG Image created as RL78_G24_Rev3-F_Paste.svg date 2025/01/18 13:33:09 </title>
  <desc>Image generated by PCBNEW </desc>
<g style="fill:#000000; fill-opacity:1.0000;stroke:#000000; stroke-opacity:1.0000;
stroke-linecap:round; stroke-linejoin:round;"
 transform="translate(0 0) scale(1 1)">
<path style="fill:#000000; fill-opacity:1.0000; stroke:none;fill-rule:evenodd;"
d="M 59.8500,18.2750
59.8310,18.3707
59.7768,18.4518
59.6957,18.5060
59.6000,18.5250
58.9250,18.5250
58.8293,18.5060
58.7482,18.4518
58.6940,18.3707
58.6750,18.2750
58.6750,17.3250
58.6940,17.2293
58.7482,17.1482
58.8293,17.0940
58.9250,17.0750
59.6000,17.0750
59.6957,17.0940
59.7768,17.1482
59.8310,17.2293
59.8500,17.3250
Z" /> 
<path style="fill:#000000; fill-opacity:1.0000; stroke:none;fill-rule:evenodd;"
d="M 57.7750,18.2750
57.7560,18.3707
57.7018,18.4518
57.6207,18.5060
57.5250,18.5250
56.8500,18.5250
56.7543,18.5060
56.6732,18.4518
56.6190,18.3707
56.6000,18.2750
56.6000,17.3250
56.6190,17.2293
56.6732,17.1482
56.7543,17.0940
56.8500,17.0750
57.5250,17.0750
57.6207,17.0940
57.7018,17.1482
57.7560,17.2293
57.7750,17.3250
Z" /> 
<path style="fill:#000000; fill-opacity:1.0000; stroke:none;fill-rule:evenodd;"
d="M 73.1250,37.5250
73.1440,37.4293
73.1982,37.3482
73.2793,37.2940
73.3750,37.2750
74.2750,37.2750
74.3707,37.2940
74.4518,37.3482
74.5060,37.4293
74.5250,37.5250
74.5250,40.3750
74.5060,40.4707
74.4518,40.5518
74.3707,40.6060
74.2750,40.6250
73.3750,40.6250
73.2793,40.6060
73.1982,40.5518
73.1440,40.4707
73.1250,40.3750
Z" /> 
<path style="fill:#000000; fill-opacity:1.0000; stroke:none;fill-rule:evenodd;"
d="M 79.2250,37.5250
79.2440,37.4293
79.2982,37.3482
79.3793,37.2940
79.4750,37.2750
80.3750,37.2750
80.4707,37.2940
80.5518,37.3482
80.6060,37.4293
80.6250,37.5250
80.6250,40.3750
80.6060,40.4707
80.5518,40.5518
80.4707,40.6060
80.3750,40.6250
79.4750,40.6250
79.3793,40.6060
79.2982,40.5518
79.2440,40.4707
79.2250,40.3750
Z" /> 
<path style="fill:#000000; fill-opacity:1.0000; stroke:none;fill-rule:evenodd;"
d="M 76.7500,16.5750
76.7690,16.4793
76.8232,16.3982
76.9043,16.3440
77.0000,16.3250
77.6750,16.3250
77.7707,16.3440
77.8518,16.3982
77.9060,16.4793
77.9250,16.5750
77.9250,17.5250
77.9060,17.6207
77.8518,17.7018
77.7707,17.7560
77.6750,17.7750
77.0000,17.7750
76.9043,17.7560
76.8232,17.7018
76.7690,17.6207
76.7500,17.5250
Z" /> 
<path style="fill:#000000; fill-opacity:1.0000; stroke:none;fill-rule:evenodd;"
d="M 78.8250,16.5750
78.8440,16.4793
78.8982,16.3982
78.9793,16.3440
79.0750,16.3250
79.7500,16.3250
79.8457,16.3440
79.9268,16.3982
79.9810,16.4793
80.0000,16.5750
80.0000,17.5250
79.9810,17.6207
79.9268,17.7018
79.8457,17.7560
79.7500,17.7750
79.0750,17.7750
78.9793,17.7560
78.8982,17.7018
78.8440,17.6207
78.8250,17.5250
Z" /> 
<path style="fill:#000000; fill-opacity:1.0000; stroke:none;fill-rule:evenodd;"
d="M 90.0500,74.3600
90.0690,74.2643
90.1232,74.1832
90.2043,74.1290
90.3000,74.1100
90.8250,74.1100
90.9207,74.1290
91.0018,74.1832
91.0560,74.2643
91.0750,74.3600
91.0750,75.2600
91.0560,75.3557
91.0018,75.4368
90.9207,75.4910
90.8250,75.5100
90.3000,75.5100
90.2043,75.4910
90.1232,75.4368
90.0690,75.3557
90.0500,75.2600
Z" /> 
<path style="fill:#000000; fill-opacity:1.0000; stroke:none;fill-rule:evenodd;"
d="M 91.8750,74.3600
91.8940,74.2643
91.9482,74.1832
92.0293,74.1290
92.1250,74.1100
92.6500,74.1100
92.7457,74.1290
92.8268,74.1832
92.8810,74.2643
92.9000,74.3600
92.9000,75.2600
92.8810,75.3557
92.8268,75.4368
92.7457,75.4910
92.6500,75.5100
92.1250,75.5100
92.0293,75.4910
91.9482,75.4368
91.8940,75.3557
91.8750,75.2600
Z" /> 
<path style="fill:#000000; fill-opacity:1.0000; stroke:none;fill-rule:evenodd;"
d="M 74.6250,77.1500
74.6060,77.2457
74.5518,77.3268
74.4707,77.3810
74.3750,77.4000
73.6750,77.4000
73.5793,77.3810
73.4982,77.3268
73.4440,77.2457
73.4250,77.1500
73.4250,76.2500
73.4440,76.1543
73.4982,76.0732
73.5793,76.0190
73.6750,76.0000
74.3750,76.0000
74.4707,76.0190
74.5518,76.0732
74.6060,76.1543
74.6250,76.2500
Z" /> 
<path style="fill:#000000; fill-opacity:1.0000; stroke:none;fill-rule:evenodd;"
d="M 72.6250,77.1500
72.6060,77.2457
72.5518,77.3268
72.4707,77.3810
72.3750,77.4000
71.6750,77.4000
71.5793,77.3810
71.4982,77.3268
71.4440,77.2457
71.4250,77.1500
71.4250,76.2500
71.4440,76.1543
71.4982,76.0732
71.5793,76.0190
71.6750,76.0000
72.3750,76.0000
72.4707,76.0190
72.5518,76.0732
72.6060,76.1543
72.6250,76.2500
Z" /> 
<path style="fill:#000000; fill-opacity:1.0000; stroke:none;fill-rule:evenodd;"
d="M 88.8618,19.5632
88.7661,19.5442
88.6850,19.4900
88.6308,19.4089
88.6118,19.3132
88.6118,18.7882
88.6308,18.6925
88.6850,18.6114
88.7661,18.5572
88.8618,18.5382
89.7618,18.5382
89.8575,18.5572
89.9386,18.6114
89.9928,18.6925
90.0118,18.7882
90.0118,19.3132
89.9928,19.4089
89.9386,19.4900
89.8575,19.5442
89.7618,19.5632
Z" /> 
<path style="fill:#000000; fill-opacity:1.0000; stroke:none;fill-rule:evenodd;"
d="M 88.8618,17.7382
88.7661,17.7192
88.6850,17.6650
88.6308,17.5839
88.6118,17.4882
88.6118,16.9632
88.6308,16.8675
88.6850,16.7864
88.7661,16.7322
88.8618,16.7132
89.7618,16.7132
89.8575,16.7322
89.9386,16.7864
89.9928,16.8675
90.0118,16.9632
90.0118,17.4882
89.9928,17.5839
89.9386,17.6650
89.8575,17.7192
89.7618,17.7382
Z" /> 
<path style="fill:#000000; fill-opacity:1.0000; stroke:none;fill-rule:evenodd;"
d="M 74.6250,74.7000
74.6060,74.7957
74.5518,74.8768
74.4707,74.9310
74.3750,74.9500
73.6750,74.9500
73.5793,74.9310
73.4982,74.8768
73.4440,74.7957
73.4250,74.7000
73.4250,73.8000
73.4440,73.7043
73.4982,73.6232
73.5793,73.5690
73.6750,73.5500
74.3750,73.5500
74.4707,73.5690
74.5518,73.6232
74.6060,73.7043
74.6250,73.8000
Z" /> 
<path style="fill:#000000; fill-opacity:1.0000; stroke:none;fill-rule:evenodd;"
d="M 72.6250,74.7000
72.6060,74.7957
72.5518,74.8768
72.4707,74.9310
72.3750,74.9500
71.6750,74.9500
71.5793,74.9310
71.4982,74.8768
71.4440,74.7957
71.4250,74.7000
71.4250,73.8000
71.4440,73.7043
71.4982,73.6232
71.5793,73.5690
71.6750,73.5500
72.3750,73.5500
72.4707,73.5690
72.5518,73.6232
72.6060,73.7043
72.6250,73.8000
Z" /> 
<path style="fill:#000000; fill-opacity:1.0000; stroke:none;fill-rule:evenodd;"
d="M 88.9126,26.5482
88.8169,26.5292
88.7358,26.4750
88.6816,26.3939
88.6626,26.2982
88.6626,25.7732
88.6816,25.6775
88.7358,25.5964
88.8169,25.5422
88.9126,25.5232
89.8126,25.5232
89.9083,25.5422
89.9894,25.5964
90.0436,25.6775
90.0626,25.7732
90.0626,26.2982
90.0436,26.3939
89.9894,26.4750
89.9083,26.5292
89.8126,26.5482
Z" /> 
<path style="fill:#000000; fill-opacity:1.0000; stroke:none;fill-rule:evenodd;"
d="M 88.9126,24.7232
88.8169,24.7042
88.7358,24.6500
88.6816,24.5689
88.6626,24.4732
88.6626,23.9482
88.6816,23.8525
88.7358,23.7714
88.8169,23.7172
88.9126,23.6982
89.8126,23.6982
89.9083,23.7172
89.9894,23.7714
90.0436,23.8525
90.0626,23.9482
90.0626,24.4732
90.0436,24.5689
89.9894,24.6500
89.9083,24.7042
89.8126,24.7232
Z" /> 
<path style="fill:#000000; fill-opacity:1.0000; stroke:none;fill-rule:evenodd;"
d="M 45.5000,54.5750
45.5190,54.4793
45.5732,54.3982
45.6543,54.3440
45.7500,54.3250
46.4250,54.3250
46.5207,54.3440
46.6018,54.3982
46.6560,54.4793
46.6750,54.5750
46.6750,55.5250
46.6560,55.6207
46.6018,55.7018
46.5207,55.7560
46.4250,55.7750
45.7500,55.7750
45.6543,55.7560
45.5732,55.7018
45.5190,55.6207
45.5000,55.5250
Z" /> 
<path style="fill:#000000; fill-opacity:1.0000; stroke:none;fill-rule:evenodd;"
d="M 47.5750,54.5750
47.5940,54.4793
47.6482,54.3982
47.7293,54.3440
47.8250,54.3250
48.5000,54.3250
48.5957,54.3440
48.6768,54.3982
48.7310,54.4793
48.7500,54.5750
48.7500,55.5250
48.7310,55.6207
48.6768,55.7018
48.5957,55.7560
48.5000,55.7750
47.8250,55.7750
47.7293,55.7560
47.6482,55.7018
47.5940,55.6207
47.5750,55.5250
Z" /> 
<path style="fill:#000000; fill-opacity:1.0000; stroke:none;fill-rule:evenodd;"
d="M 40.5000,57.2350
40.5190,57.1393
40.5732,57.0582
40.6543,57.0040
40.7500,56.9850
41.4250,56.9850
41.5207,57.0040
41.6018,57.0582
41.6560,57.1393
41.6750,57.2350
41.6750,58.1850
41.6560,58.2807
41.6018,58.3618
41.5207,58.4160
41.4250,58.4350
40.7500,58.4350
40.6543,58.4160
40.5732,58.3618
40.5190,58.2807
40.5000,58.1850
Z" /> 
<path style="fill:#000000; fill-opacity:1.0000; stroke:none;fill-rule:evenodd;"
d="M 42.5750,57.2350
42.5940,57.1393
42.6482,57.0582
42.7293,57.0040
42.8250,56.9850
43.5000,56.9850
43.5957,57.0040
43.6768,57.0582
43.7310,57.1393
43.7500,57.2350
43.7500,58.1850
43.7310,58.2807
43.6768,58.3618
43.5957,58.4160
43.5000,58.4350
42.8250,58.4350
42.7293,58.4160
42.6482,58.3618
42.5940,58.2807
42.5750,58.1850
Z" /> 
<path style="fill:#000000; fill-opacity:1.0000; stroke:none;fill-rule:evenodd;"
d="M 63.9250,8.3250
63.9406,8.2180
63.9948,8.1071
64.0821,8.0198
64.1930,7.9656
64.3000,7.9500
65.5500,7.9500
65.6570,7.9656
65.7679,8.0198
65.8552,8.1071
65.9094,8.2180
65.9250,8.3250
65.9250,9.0750
65.9094,9.1820
65.8552,9.2929
65.7679,9.3802
65.6570,9.4344
65.5500,9.4500
64.3000,9.4500
64.1930,9.4344
64.0821,9.3802
63.9948,9.2929
63.9406,9.1820
63.9250,9.0750
Z" /> 
<path style="fill:#000000; fill-opacity:1.0000; stroke:none;fill-rule:evenodd;"
d="M 63.9250,10.6250
63.9406,10.5180
63.9948,10.4071
64.0821,10.3198
64.1930,10.2656
64.3000,10.2500
65.5500,10.2500
65.6570,10.2656
65.7679,10.3198
65.8552,10.4071
65.9094,10.5180
65.9250,10.6250
65.9250,11.3750
65.9094,11.4820
65.8552,11.5929
65.7679,11.6802
65.6570,11.7344
65.5500,11.7500
64.3000,11.7500
64.1930,11.7344
64.0821,11.6802
63.9948,11.5929
63.9406,11.4820
63.9250,11.3750
Z" /> 
<path style="fill:#000000; fill-opacity:1.0000; stroke:none;fill-rule:evenodd;"
d="M 70.2250,9.6000
70.2364,9.4937
70.2862,9.3604
70.3714,9.2464
70.4854,9.1612
70.6187,9.1114
70.7250,9.1000
71.7250,9.1000
71.8313,9.1114
71.9646,9.1612
72.0786,9.2464
72.1638,9.3604
72.2136,9.4937
72.2250,9.6000
72.2250,12.4000
72.2136,12.5063
72.1638,12.6396
72.0786,12.7536
71.9646,12.8388
71.8313,12.8886
71.7250,12.9000
70.7250,12.9000
70.6187,12.8886
70.4854,12.8388
70.3714,12.7536
70.2862,12.6396
70.2364,12.5063
70.2250,12.4000
Z" /> 
<path style="fill:#000000; fill-opacity:1.0000; stroke:none;fill-rule:evenodd;"
d="M 63.9250,12.9250
63.9406,12.8180
63.9948,12.7071
64.0821,12.6198
64.1930,12.5656
64.3000,12.5500
65.5500,12.5500
65.6570,12.5656
65.7679,12.6198
65.8552,12.7071
65.9094,12.8180
65.9250,12.9250
65.9250,13.6750
65.9094,13.7820
65.8552,13.8929
65.7679,13.9802
65.6570,14.0344
65.5500,14.0500
64.3000,14.0500
64.1930,14.0344
64.0821,13.9802
63.9948,13.8929
63.9406,13.7820
63.9250,13.6750
Z" /> 
<path style="fill:#000000; fill-opacity:1.0000; stroke:none;fill-rule:evenodd;"
d="M 40.4250,28.7500
40.4060,28.8457
40.3518,28.9268
40.2707,28.9810
40.1750,29.0000
39.5000,29.0000
39.4043,28.9810
39.3232,28.9268
39.2690,28.8457
39.2500,28.7500
39.2500,27.8000
39.2690,27.7043
39.3232,27.6232
39.4043,27.5690
39.5000,27.5500
40.1750,27.5500
40.2707,27.5690
40.3518,27.6232
40.4060,27.7043
40.4250,27.8000
Z" /> 
<path style="fill:#000000; fill-opacity:1.0000; stroke:none;fill-rule:evenodd;"
d="M 38.3500,28.7500
38.3310,28.8457
38.2768,28.9268
38.1957,28.9810
38.1000,29.0000
37.4250,29.0000
37.3293,28.9810
37.2482,28.9268
37.1940,28.8457
37.1750,28.7500
37.1750,27.8000
37.1940,27.7043
37.2482,27.6232
37.3293,27.5690
37.4250,27.5500
38.1000,27.5500
38.1957,27.5690
38.2768,27.6232
38.3310,27.7043
38.3500,27.8000
Z" /> 
<path style="fill:#000000; fill-opacity:1.0000; stroke:none;fill-rule:evenodd;"
d="M 44.2625,37.7500
44.2815,37.6543
44.3357,37.5732
44.4168,37.5190
44.5125,37.5000
45.1875,37.5000
45.2832,37.5190
45.3643,37.5732
45.4185,37.6543
45.4375,37.7500
45.4375,38.7000
45.4185,38.7957
45.3643,38.8768
45.2832,38.9310
45.1875,38.9500
44.5125,38.9500
44.4168,38.9310
44.3357,38.8768
44.2815,38.7957
44.2625,38.7000
Z" /> 
<path style="fill:#000000; fill-opacity:1.0000; stroke:none;fill-rule:evenodd;"
d="M 46.3375,37.7500
46.3565,37.6543
46.4107,37.5732
46.4918,37.5190
46.5875,37.5000
47.2625,37.5000
47.3582,37.5190
47.4393,37.5732
47.4935,37.6543
47.5125,37.7500
47.5125,38.7000
47.4935,38.7957
47.4393,38.8768
47.3582,38.9310
47.2625,38.9500
46.5875,38.9500
46.4918,38.9310
46.4107,38.8768
46.3565,38.7957
46.3375,38.7000
Z" /> 
<path style="fill:#000000; fill-opacity:1.0000; stroke:none;fill-rule:evenodd;"
d="M 59.0750,27.1000
58.9793,27.0810
58.8982,27.0268
58.8440,26.9457
58.8250,26.8500
58.8250,26.1750
58.8440,26.0793
58.8982,25.9982
58.9793,25.9440
59.0750,25.9250
60.0250,25.9250
60.1207,25.9440
60.2018,25.9982
60.2560,26.0793
60.2750,26.1750
60.2750,26.8500
60.2560,26.9457
60.2018,27.0268
60.1207,27.0810
60.0250,27.1000
Z" /> 
<path style="fill:#000000; fill-opacity:1.0000; stroke:none;fill-rule:evenodd;"
d="M 59.0750,25.0250
58.9793,25.0060
58.8982,24.9518
58.8440,24.8707
58.8250,24.7750
58.8250,24.1000
58.8440,24.0043
58.8982,23.9232
58.9793,23.8690
59.0750,23.8500
60.0250,23.8500
60.1207,23.8690
60.2018,23.9232
60.2560,24.0043
60.2750,24.1000
60.2750,24.7750
60.2560,24.8707
60.2018,24.9518
60.1207,25.0060
60.0250,25.0250
Z" /> 
<path style="fill:#000000; fill-opacity:1.0000; stroke:none;fill-rule:evenodd;"
d="M 49.9250,54.5000
49.9440,54.4043
49.9982,54.3232
50.0793,54.2690
50.1750,54.2500
50.8750,54.2500
50.9707,54.2690
51.0518,54.3232
51.1060,54.4043
51.1250,54.5000
51.1250,55.4000
51.1060,55.4957
51.0518,55.5768
50.9707,55.6310
50.8750,55.6500
50.1750,55.6500
50.0793,55.6310
49.9982,55.5768
49.9440,55.4957
49.9250,55.4000
Z" /> 
<path style="fill:#000000; fill-opacity:1.0000; stroke:none;fill-rule:evenodd;"
d="M 51.9250,54.5000
51.9440,54.4043
51.9982,54.3232
52.0793,54.2690
52.1750,54.2500
52.8750,54.2500
52.9707,54.2690
53.0518,54.3232
53.1060,54.4043
53.1250,54.5000
53.1250,55.4000
53.1060,55.4957
53.0518,55.5768
52.9707,55.6310
52.8750,55.6500
52.1750,55.6500
52.0793,55.6310
51.9982,55.5768
51.9440,55.4957
51.9250,55.4000
Z" /> 
<path style="fill:#000000; fill-opacity:1.0000; stroke:none;fill-rule:evenodd;"
d="M 66.5000,69.5750
66.4043,69.5560
66.3232,69.5018
66.2690,69.4207
66.2500,69.3250
66.2500,68.6500
66.2690,68.5543
66.3232,68.4732
66.4043,68.4190
66.5000,68.4000
67.4500,68.4000
67.5457,68.4190
67.6268,68.4732
67.6810,68.5543
67.7000,68.6500
67.7000,69.3250
67.6810,69.4207
67.6268,69.5018
67.5457,69.5560
67.4500,69.5750
Z" /> 
<path style="fill:#000000; fill-opacity:1.0000; stroke:none;fill-rule:evenodd;"
d="M 66.5000,67.5000
66.4043,67.4810
66.3232,67.4268
66.2690,67.3457
66.2500,67.2500
66.2500,66.5750
66.2690,66.4793
66.3232,66.3982
66.4043,66.3440
66.5000,66.3250
67.4500,66.3250
67.5457,66.3440
67.6268,66.3982
67.6810,66.4793
67.7000,66.5750
67.7000,67.2500
67.6810,67.3457
67.6268,67.4268
67.5457,67.4810
67.4500,67.5000
Z" /> 
<path style="fill:#000000; fill-opacity:1.0000; stroke:none;fill-rule:evenodd;"
d="M 50.6972,26.8944
50.6972,26.3356
52.0942,26.3356
52.0942,26.8944
Z" /> 
<path style="fill:#000000; fill-opacity:1.0000; stroke:none;fill-rule:evenodd;"
d="M 50.6972,28.1644
50.6972,27.6056
52.0942,27.6056
52.0942,28.1644
Z" /> 
<path style="fill:#000000; fill-opacity:1.0000; stroke:none;fill-rule:evenodd;"
d="M 50.6972,29.4344
50.6972,28.8756
52.0942,28.8756
52.0942,29.4344
Z" /> 
<path style="fill:#000000; fill-opacity:1.0000; stroke:none;fill-rule:evenodd;"
d="M 50.6972,30.7044
50.6972,30.1456
52.0942,30.1456
52.0942,30.7044
Z" /> 
<path style="fill:#000000; fill-opacity:1.0000; stroke:none;fill-rule:evenodd;"
d="M 50.6972,31.9744
50.6972,31.4156
52.0942,31.4156
52.0942,31.9744
Z" /> 
<path style="fill:#000000; fill-opacity:1.0000; stroke:none;fill-rule:evenodd;"
d="M 50.6972,33.2444
50.6972,32.6856
52.0942,32.6856
52.0942,33.2444
Z" /> 
<path style="fill:#000000; fill-opacity:1.0000; stroke:none;fill-rule:evenodd;"
d="M 50.6972,34.5144
50.6972,33.9556
52.0942,33.9556
52.0942,34.5144
Z" /> 
<path style="fill:#000000; fill-opacity:1.0000; stroke:none;fill-rule:evenodd;"
d="M 56.0058,34.5144
56.0058,33.9556
57.4028,33.9556
57.4028,34.5144
Z" /> 
<path style="fill:#000000; fill-opacity:1.0000; stroke:none;fill-rule:evenodd;"
d="M 56.0058,33.2444
56.0058,32.6856
57.4028,32.6856
57.4028,33.2444
Z" /> 
<path style="fill:#000000; fill-opacity:1.0000; stroke:none;fill-rule:evenodd;"
d="M 56.0058,31.9744
56.0058,31.4156
57.4028,31.4156
57.4028,31.9744
Z" /> 
<path style="fill:#000000; fill-opacity:1.0000; stroke:none;fill-rule:evenodd;"
d="M 56.0058,30.7044
56.0058,30.1456
57.4028,30.1456
57.4028,30.7044
Z" /> 
<path style="fill:#000000; fill-opacity:1.0000; stroke:none;fill-rule:evenodd;"
d="M 56.0058,29.4344
56.0058,28.8756
57.4028,28.8756
57.4028,29.4344
Z" /> 
<path style="fill:#000000; fill-opacity:1.0000; stroke:none;fill-rule:evenodd;"
d="M 56.0058,28.1644
56.0058,27.6056
57.4028,27.6056
57.4028,28.1644
Z" /> 
<path style="fill:#000000; fill-opacity:1.0000; stroke:none;fill-rule:evenodd;"
d="M 56.0058,26.8944
56.0058,26.3356
57.4028,26.3356
57.4028,26.8944
Z" /> 
<path style="fill:#000000; fill-opacity:1.0000; stroke:none;fill-rule:evenodd;"
d="M 90.0500,69.2800
90.0690,69.1843
90.1232,69.1032
90.2043,69.0490
90.3000,69.0300
90.8250,69.0300
90.9207,69.0490
91.0018,69.1032
91.0560,69.1843
91.0750,69.2800
91.0750,70.1800
91.0560,70.2757
91.0018,70.3568
90.9207,70.4110
90.8250,70.4300
90.3000,70.4300
90.2043,70.4110
90.1232,70.3568
90.0690,70.2757
90.0500,70.1800
Z" /> 
<path style="fill:#000000; fill-opacity:1.0000; stroke:none;fill-rule:evenodd;"
d="M 91.8750,69.2800
91.8940,69.1843
91.9482,69.1032
92.0293,69.0490
92.1250,69.0300
92.6500,69.0300
92.7457,69.0490
92.8268,69.1032
92.8810,69.1843
92.9000,69.2800
92.9000,70.1800
92.8810,70.2757
92.8268,70.3568
92.7457,70.4110
92.6500,70.4300
92.1250,70.4300
92.0293,70.4110
91.9482,70.3568
91.8940,70.2757
91.8750,70.1800
Z" /> 
<path style="fill:#000000; fill-opacity:1.0000; stroke:none;fill-rule:evenodd;"
d="M 90.0500,71.8200
90.0690,71.7243
90.1232,71.6432
90.2043,71.5890
90.3000,71.5700
90.8250,71.5700
90.9207,71.5890
91.0018,71.6432
91.0560,71.7243
91.0750,71.8200
91.0750,72.7200
91.0560,72.8157
91.0018,72.8968
90.9207,72.9510
90.8250,72.9700
90.3000,72.9700
90.2043,72.9510
90.1232,72.8968
90.0690,72.8157
90.0500,72.7200
Z" /> 
<path style="fill:#000000; fill-opacity:1.0000; stroke:none;fill-rule:evenodd;"
d="M 91.8750,71.8200
91.8940,71.7243
91.9482,71.6432
92.0293,71.5890
92.1250,71.5700
92.6500,71.5700
92.7457,71.5890
92.8268,71.6432
92.8810,71.7243
92.9000,71.8200
92.9000,72.7200
92.8810,72.8157
92.8268,72.8968
92.7457,72.9510
92.6500,72.9700
92.1250,72.9700
92.0293,72.9510
91.9482,72.8968
91.8940,72.8157
91.8750,72.7200
Z" /> 
<path style="fill:#000000; fill-opacity:1.0000; stroke:none;fill-rule:evenodd;"
d="M 36.6150,55.8500
36.6150,54.6500
37.1150,54.6500
37.1150,55.8500
Z" /> 
<path style="fill:#000000; fill-opacity:1.0000; stroke:none;fill-rule:evenodd;"
d="M 37.4150,55.8500
37.4150,54.6500
37.9150,54.6500
37.9150,55.8500
Z" /> 
<path style="fill:#000000; fill-opacity:1.0000; stroke:none;fill-rule:evenodd;"
d="M 38.2150,55.8500
38.2150,54.6500
38.7150,54.6500
38.7150,55.8500
Z" /> 
<path style="fill:#000000; fill-opacity:1.0000; stroke:none;fill-rule:evenodd;"
d="M 39.0150,55.8500
39.0150,54.6500
39.5150,54.6500
39.5150,55.8500
Z" /> 
<path style="fill:#000000; fill-opacity:1.0000; stroke:none;fill-rule:evenodd;"
d="M 39.8150,55.8500
39.8150,54.6500
40.3150,54.6500
40.3150,55.8500
Z" /> 
<path style="fill:#000000; fill-opacity:1.0000; stroke:none;fill-rule:evenodd;"
d="M 40.6150,55.8500
40.6150,54.6500
41.1150,54.6500
41.1150,55.8500
Z" /> 
<path style="fill:#000000; fill-opacity:1.0000; stroke:none;fill-rule:evenodd;"
d="M 41.4150,55.8500
41.4150,54.6500
41.9150,54.6500
41.9150,55.8500
Z" /> 
<path style="fill:#000000; fill-opacity:1.0000; stroke:none;fill-rule:evenodd;"
d="M 42.2150,55.8500
42.2150,54.6500
42.7150,54.6500
42.7150,55.8500
Z" /> 
<path style="fill:#000000; fill-opacity:1.0000; stroke:none;fill-rule:evenodd;"
d="M 43.3150,54.0500
43.3150,53.5500
44.5150,53.5500
44.5150,54.0500
Z" /> 
<path style="fill:#000000; fill-opacity:1.0000; stroke:none;fill-rule:evenodd;"
d="M 43.3150,53.2500
43.3150,52.7500
44.5150,52.7500
44.5150,53.2500
Z" /> 
<path style="fill:#000000; fill-opacity:1.0000; stroke:none;fill-rule:evenodd;"
d="M 43.3150,52.4500
43.3150,51.9500
44.5150,51.9500
44.5150,52.4500
Z" /> 
<path style="fill:#000000; fill-opacity:1.0000; stroke:none;fill-rule:evenodd;"
d="M 43.3150,51.6500
43.3150,51.1500
44.5150,51.1500
44.5150,51.6500
Z" /> 
<path style="fill:#000000; fill-opacity:1.0000; stroke:none;fill-rule:evenodd;"
d="M 43.3150,50.8500
43.3150,50.3500
44.5150,50.3500
44.5150,50.8500
Z" /> 
<path style="fill:#000000; fill-opacity:1.0000; stroke:none;fill-rule:evenodd;"
d="M 43.3150,50.0500
43.3150,49.5500
44.5150,49.5500
44.5150,50.0500
Z" /> 
<path style="fill:#000000; fill-opacity:1.0000; stroke:none;fill-rule:evenodd;"
d="M 43.3150,49.2500
43.3150,48.7500
44.5150,48.7500
44.5150,49.2500
Z" /> 
<path style="fill:#000000; fill-opacity:1.0000; stroke:none;fill-rule:evenodd;"
d="M 43.3150,48.4500
43.3150,47.9500
44.5150,47.9500
44.5150,48.4500
Z" /> 
<path style="fill:#000000; fill-opacity:1.0000; stroke:none;fill-rule:evenodd;"
d="M 42.2150,47.3500
42.2150,46.1500
42.7150,46.1500
42.7150,47.3500
Z" /> 
<path style="fill:#000000; fill-opacity:1.0000; stroke:none;fill-rule:evenodd;"
d="M 41.4150,47.3500
41.4150,46.1500
41.9150,46.1500
41.9150,47.3500
Z" /> 
<path style="fill:#000000; fill-opacity:1.0000; stroke:none;fill-rule:evenodd;"
d="M 40.6150,47.3500
40.6150,46.1500
41.1150,46.1500
41.1150,47.3500
Z" /> 
<path style="fill:#000000; fill-opacity:1.0000; stroke:none;fill-rule:evenodd;"
d="M 39.8150,47.3500
39.8150,46.1500
40.3150,46.1500
40.3150,47.3500
Z" /> 
<path style="fill:#000000; fill-opacity:1.0000; stroke:none;fill-rule:evenodd;"
d="M 39.0150,47.3500
39.0150,46.1500
39.5150,46.1500
39.5150,47.3500
Z" /> 
<path style="fill:#000000; fill-opacity:1.0000; stroke:none;fill-rule:evenodd;"
d="M 38.2150,47.3500
38.2150,46.1500
38.7150,46.1500
38.7150,47.3500
Z" /> 
<path style="fill:#000000; fill-opacity:1.0000; stroke:none;fill-rule:evenodd;"
d="M 37.4150,47.3500
37.4150,46.1500
37.9150,46.1500
37.9150,47.3500
Z" /> 
<path style="fill:#000000; fill-opacity:1.0000; stroke:none;fill-rule:evenodd;"
d="M 36.6150,47.3500
36.6150,46.1500
37.1150,46.1500
37.1150,47.3500
Z" /> 
<path style="fill:#000000; fill-opacity:1.0000; stroke:none;fill-rule:evenodd;"
d="M 34.8150,48.4500
34.8150,47.9500
36.0150,47.9500
36.0150,48.4500
Z" /> 
<path style="fill:#000000; fill-opacity:1.0000; stroke:none;fill-rule:evenodd;"
d="M 34.8150,49.2500
34.8150,48.7500
36.0150,48.7500
36.0150,49.2500
Z" /> 
<path style="fill:#000000; fill-opacity:1.0000; stroke:none;fill-rule:evenodd;"
d="M 34.8150,50.0500
34.8150,49.5500
36.0150,49.5500
36.0150,50.0500
Z" /> 
<path style="fill:#000000; fill-opacity:1.0000; stroke:none;fill-rule:evenodd;"
d="M 34.8150,50.8500
34.8150,50.3500
36.0150,50.3500
36.0150,50.8500
Z" /> 
<path style="fill:#000000; fill-opacity:1.0000; stroke:none;fill-rule:evenodd;"
d="M 34.8150,51.6500
34.8150,51.1500
36.0150,51.1500
36.0150,51.6500
Z" /> 
<path style="fill:#000000; fill-opacity:1.0000; stroke:none;fill-rule:evenodd;"
d="M 34.8150,52.4500
34.8150,51.9500
36.0150,51.9500
36.0150,52.4500
Z" /> 
<path style="fill:#000000; fill-opacity:1.0000; stroke:none;fill-rule:evenodd;"
d="M 34.8150,53.2500
34.8150,52.7500
36.0150,52.7500
36.0150,53.2500
Z" /> 
<path style="fill:#000000; fill-opacity:1.0000; stroke:none;fill-rule:evenodd;"
d="M 34.8150,54.0500
34.8150,53.5500
36.0150,53.5500
36.0150,54.0500
Z" /> 
<path style="fill:#000000; fill-opacity:1.0000; stroke:none;fill-rule:evenodd;"
d="M 74.0750,34.6250
73.9793,34.6060
73.8982,34.5518
73.8440,34.4707
73.8250,34.3750
73.8250,33.7000
73.8440,33.6043
73.8982,33.5232
73.9793,33.4690
74.0750,33.4500
75.0250,33.4500
75.1207,33.4690
75.2018,33.5232
75.2560,33.6043
75.2750,33.7000
75.2750,34.3750
75.2560,34.4707
75.2018,34.5518
75.1207,34.6060
75.0250,34.6250
Z" /> 
<path style="fill:#000000; fill-opacity:1.0000; stroke:none;fill-rule:evenodd;"
d="M 74.0750,32.5500
73.9793,32.5310
73.8982,32.4768
73.8440,32.3957
73.8250,32.3000
73.8250,31.6250
73.8440,31.5293
73.8982,31.4482
73.9793,31.3940
74.0750,31.3750
75.0250,31.3750
75.1207,31.3940
75.2018,31.4482
75.2560,31.5293
75.2750,31.6250
75.2750,32.3000
75.2560,32.3957
75.2018,32.4768
75.1207,32.5310
75.0250,32.5500
Z" /> 
<path style="fill:#000000; fill-opacity:1.0000; stroke:none;fill-rule:evenodd;"
d="M 30.9250,6.8500
31.0207,6.8690
31.1018,6.9232
31.1560,7.0043
31.1750,7.1000
31.1750,7.8000
31.1560,7.8957
31.1018,7.9768
31.0207,8.0310
30.9250,8.0500
30.0250,8.0500
29.9293,8.0310
29.8482,7.9768
29.7940,7.8957
29.7750,7.8000
29.7750,7.1000
29.7940,7.0043
29.8482,6.9232
29.9293,6.8690
30.0250,6.8500
Z" /> 
<path style="fill:#000000; fill-opacity:1.0000; stroke:none;fill-rule:evenodd;"
d="M 30.9250,8.8500
31.0207,8.8690
31.1018,8.9232
31.1560,9.0043
31.1750,9.1000
31.1750,9.8000
31.1560,9.8957
31.1018,9.9768
31.0207,10.0310
30.9250,10.0500
30.0250,10.0500
29.9293,10.0310
29.8482,9.9768
29.7940,9.8957
29.7750,9.8000
29.7750,9.1000
29.7940,9.0043
29.8482,8.9232
29.9293,8.8690
30.0250,8.8500
Z" /> 
<path style="fill:#000000; fill-opacity:1.0000; stroke:none;fill-rule:evenodd;"
d="M 90.0500,66.7400
90.0690,66.6443
90.1232,66.5632
90.2043,66.5090
90.3000,66.4900
90.8250,66.4900
90.9207,66.5090
91.0018,66.5632
91.0560,66.6443
91.0750,66.7400
91.0750,67.6400
91.0560,67.7357
91.0018,67.8168
90.9207,67.8710
90.8250,67.8900
90.3000,67.8900
90.2043,67.8710
90.1232,67.8168
90.0690,67.7357
90.0500,67.6400
Z" /> 
<path style="fill:#000000; fill-opacity:1.0000; stroke:none;fill-rule:evenodd;"
d="M 91.8750,66.7400
91.8940,66.6443
91.9482,66.5632
92.0293,66.5090
92.1250,66.4900
92.6500,66.4900
92.7457,66.5090
92.8268,66.5632
92.8810,66.6443
92.9000,66.7400
92.9000,67.6400
92.8810,67.7357
92.8268,67.8168
92.7457,67.8710
92.6500,67.8900
92.1250,67.8900
92.0293,67.8710
91.9482,67.8168
91.8940,67.7357
91.8750,67.6400
Z" /> 
</g>
<g style="fill:none; 
stroke:#000000; stroke-width:0.0500; stroke-opacity:1; 
stroke-linecap:round; stroke-linejoin:round;">
<path d="M0.2250 0.4500
L0.2250 100.4500
" />
<path d="M100.2250 0.4500
L100.2250 100.4500
" />
<path d="M0.2250 0.4500
L100.2250 0.4500
" />
<path d="M100.2250 100.4500
L0.2250 100.4500
" />
</g> 
</svg>
