<?xml version="1.0" standalone="no"?>
 <!DOCTYPE svg PUBLIC "-//W3C//DTD SVG 1.1//EN" 
 "http://www.w3.org/Graphics/SVG/1.1/DTD/svg11.dtd"> 
<svg
  xmlns:svg="http://www.w3.org/2000/svg"
  xmlns="http://www.w3.org/2000/svg"
  xmlns:xlink="http://www.w3.org/1999/xlink"
  version="1.1"
  width="86.9696mm" height="55.0164mm" viewBox="0.0000 0.0000 86.9696 55.0164">
<title>SVG Image created as Beagle-AI-64-CAN-Part2-F_Paste.svg date 2025/01/06 12:09:31 </title>
  <desc>Image generated by PCBNEW </desc>
<g style="fill:#000000; fill-opacity:1.0000;stroke:#000000; stroke-opacity:1.0000;
stroke-linecap:round; stroke-linejoin:round;"
 transform="translate(0 0) scale(1 1)">
<path style="fill:#000000; fill-opacity:1.0000; stroke:none;fill-rule:evenodd;"
d="M 63.4940,17.4700
63.5054,17.4126
63.5379,17.3639
63.5866,17.3314
63.6440,17.3200
65.2940,17.3200
65.3514,17.3314
65.4001,17.3639
65.4326,17.4126
65.4440,17.4700
65.4440,17.7700
65.4326,17.8274
65.4001,17.8761
65.3514,17.9086
65.2940,17.9200
63.6440,17.9200
63.5866,17.9086
63.5379,17.8761
63.5054,17.8274
63.4940,17.7700
Z" /> 
<path style="fill:#000000; fill-opacity:1.0000; stroke:none;fill-rule:evenodd;"
d="M 63.4940,18.7400
63.5054,18.6826
63.5379,18.6339
63.5866,18.6014
63.6440,18.5900
65.2940,18.5900
65.3514,18.6014
65.4001,18.6339
65.4326,18.6826
65.4440,18.7400
65.4440,19.0400
65.4326,19.0974
65.4001,19.1461
65.3514,19.1786
65.2940,19.1900
63.6440,19.1900
63.5866,19.1786
63.5379,19.1461
63.5054,19.0974
63.4940,19.0400
Z" /> 
<path style="fill:#000000; fill-opacity:1.0000; stroke:none;fill-rule:evenodd;"
d="M 63.4940,20.0100
63.5054,19.9526
63.5379,19.9039
63.5866,19.8714
63.6440,19.8600
65.2940,19.8600
65.3514,19.8714
65.4001,19.9039
65.4326,19.9526
65.4440,20.0100
65.4440,20.3100
65.4326,20.3674
65.4001,20.4161
65.3514,20.4486
65.2940,20.4600
63.6440,20.4600
63.5866,20.4486
63.5379,20.4161
63.5054,20.3674
63.4940,20.3100
Z" /> 
<path style="fill:#000000; fill-opacity:1.0000; stroke:none;fill-rule:evenodd;"
d="M 63.4940,21.2800
63.5054,21.2226
63.5379,21.1739
63.5866,21.1414
63.6440,21.1300
65.2940,21.1300
65.3514,21.1414
65.4001,21.1739
65.4326,21.2226
65.4440,21.2800
65.4440,21.5800
65.4326,21.6374
65.4001,21.6861
65.3514,21.7186
65.2940,21.7300
63.6440,21.7300
63.5866,21.7186
63.5379,21.6861
63.5054,21.6374
63.4940,21.5800
Z" /> 
<path style="fill:#000000; fill-opacity:1.0000; stroke:none;fill-rule:evenodd;"
d="M 68.4440,21.2800
68.4554,21.2226
68.4879,21.1739
68.5366,21.1414
68.5940,21.1300
70.2440,21.1300
70.3014,21.1414
70.3501,21.1739
70.3826,21.2226
70.3940,21.2800
70.3940,21.5800
70.3826,21.6374
70.3501,21.6861
70.3014,21.7186
70.2440,21.7300
68.5940,21.7300
68.5366,21.7186
68.4879,21.6861
68.4554,21.6374
68.4440,21.5800
Z" /> 
<path style="fill:#000000; fill-opacity:1.0000; stroke:none;fill-rule:evenodd;"
d="M 68.4440,20.0100
68.4554,19.9526
68.4879,19.9039
68.5366,19.8714
68.5940,19.8600
70.2440,19.8600
70.3014,19.8714
70.3501,19.9039
70.3826,19.9526
70.3940,20.0100
70.3940,20.3100
70.3826,20.3674
70.3501,20.4161
70.3014,20.4486
70.2440,20.4600
68.5940,20.4600
68.5366,20.4486
68.4879,20.4161
68.4554,20.3674
68.4440,20.3100
Z" /> 
<path style="fill:#000000; fill-opacity:1.0000; stroke:none;fill-rule:evenodd;"
d="M 68.4440,18.7400
68.4554,18.6826
68.4879,18.6339
68.5366,18.6014
68.5940,18.5900
70.2440,18.5900
70.3014,18.6014
70.3501,18.6339
70.3826,18.6826
70.3940,18.7400
70.3940,19.0400
70.3826,19.0974
70.3501,19.1461
70.3014,19.1786
70.2440,19.1900
68.5940,19.1900
68.5366,19.1786
68.4879,19.1461
68.4554,19.0974
68.4440,19.0400
Z" /> 
<path style="fill:#000000; fill-opacity:1.0000; stroke:none;fill-rule:evenodd;"
d="M 68.4440,17.4700
68.4554,17.4126
68.4879,17.3639
68.5366,17.3314
68.5940,17.3200
70.2440,17.3200
70.3014,17.3314
70.3501,17.3639
70.3826,17.4126
70.3940,17.4700
70.3940,17.7700
70.3826,17.8274
70.3501,17.8761
70.3014,17.9086
70.2440,17.9200
68.5940,17.9200
68.5366,17.9086
68.4879,17.8761
68.4554,17.8274
68.4440,17.7700
Z" /> 
<path style="fill:#000000; fill-opacity:1.0000; stroke:none;fill-rule:evenodd;"
d="M 11.8190,44.1500
11.7233,44.1310
11.6422,44.0768
11.5880,43.9957
11.5690,43.9000
11.5690,43.2250
11.5880,43.1293
11.6422,43.0482
11.7233,42.9940
11.8190,42.9750
12.7690,42.9750
12.8647,42.9940
12.9458,43.0482
13.0000,43.1293
13.0190,43.2250
13.0190,43.9000
13.0000,43.9957
12.9458,44.0768
12.8647,44.1310
12.7690,44.1500
Z" /> 
<path style="fill:#000000; fill-opacity:1.0000; stroke:none;fill-rule:evenodd;"
d="M 11.8190,42.0750
11.7233,42.0560
11.6422,42.0018
11.5880,41.9207
11.5690,41.8250
11.5690,41.1500
11.5880,41.0543
11.6422,40.9732
11.7233,40.9190
11.8190,40.9000
12.7690,40.9000
12.8647,40.9190
12.9458,40.9732
13.0000,41.0543
13.0190,41.1500
13.0190,41.8250
13.0000,41.9207
12.9458,42.0018
12.8647,42.0560
12.7690,42.0750
Z" /> 
<path style="fill:#000000; fill-opacity:1.0000; stroke:none;fill-rule:evenodd;"
d="M 14.3440,40.4700
14.3554,40.4126
14.3879,40.3639
14.4366,40.3314
14.4940,40.3200
16.1440,40.3200
16.2014,40.3314
16.2501,40.3639
16.2826,40.4126
16.2940,40.4700
16.2940,40.7700
16.2826,40.8274
16.2501,40.8761
16.2014,40.9086
16.1440,40.9200
14.4940,40.9200
14.4366,40.9086
14.3879,40.8761
14.3554,40.8274
14.3440,40.7700
Z" /> 
<path style="fill:#000000; fill-opacity:1.0000; stroke:none;fill-rule:evenodd;"
d="M 14.3440,41.7400
14.3554,41.6826
14.3879,41.6339
14.4366,41.6014
14.4940,41.5900
16.1440,41.5900
16.2014,41.6014
16.2501,41.6339
16.2826,41.6826
16.2940,41.7400
16.2940,42.0400
16.2826,42.0974
16.2501,42.1461
16.2014,42.1786
16.1440,42.1900
14.4940,42.1900
14.4366,42.1786
14.3879,42.1461
14.3554,42.0974
14.3440,42.0400
Z" /> 
<path style="fill:#000000; fill-opacity:1.0000; stroke:none;fill-rule:evenodd;"
d="M 14.3440,43.0100
14.3554,42.9526
14.3879,42.9039
14.4366,42.8714
14.4940,42.8600
16.1440,42.8600
16.2014,42.8714
16.2501,42.9039
16.2826,42.9526
16.2940,43.0100
16.2940,43.3100
16.2826,43.3674
16.2501,43.4161
16.2014,43.4486
16.1440,43.4600
14.4940,43.4600
14.4366,43.4486
14.3879,43.4161
14.3554,43.3674
14.3440,43.3100
Z" /> 
<path style="fill:#000000; fill-opacity:1.0000; stroke:none;fill-rule:evenodd;"
d="M 14.3440,44.2800
14.3554,44.2226
14.3879,44.1739
14.4366,44.1414
14.4940,44.1300
16.1440,44.1300
16.2014,44.1414
16.2501,44.1739
16.2826,44.2226
16.2940,44.2800
16.2940,44.5800
16.2826,44.6374
16.2501,44.6861
16.2014,44.7186
16.1440,44.7300
14.4940,44.7300
14.4366,44.7186
14.3879,44.6861
14.3554,44.6374
14.3440,44.5800
Z" /> 
<path style="fill:#000000; fill-opacity:1.0000; stroke:none;fill-rule:evenodd;"
d="M 19.2940,44.2800
19.3054,44.2226
19.3379,44.1739
19.3866,44.1414
19.4440,44.1300
21.0940,44.1300
21.1514,44.1414
21.2001,44.1739
21.2326,44.2226
21.2440,44.2800
21.2440,44.5800
21.2326,44.6374
21.2001,44.6861
21.1514,44.7186
21.0940,44.7300
19.4440,44.7300
19.3866,44.7186
19.3379,44.6861
19.3054,44.6374
19.2940,44.5800
Z" /> 
<path style="fill:#000000; fill-opacity:1.0000; stroke:none;fill-rule:evenodd;"
d="M 19.2940,43.0100
19.3054,42.9526
19.3379,42.9039
19.3866,42.8714
19.4440,42.8600
21.0940,42.8600
21.1514,42.8714
21.2001,42.9039
21.2326,42.9526
21.2440,43.0100
21.2440,43.3100
21.2326,43.3674
21.2001,43.4161
21.1514,43.4486
21.0940,43.4600
19.4440,43.4600
19.3866,43.4486
19.3379,43.4161
19.3054,43.3674
19.2940,43.3100
Z" /> 
<path style="fill:#000000; fill-opacity:1.0000; stroke:none;fill-rule:evenodd;"
d="M 19.2940,41.7400
19.3054,41.6826
19.3379,41.6339
19.3866,41.6014
19.4440,41.5900
21.0940,41.5900
21.1514,41.6014
21.2001,41.6339
21.2326,41.6826
21.2440,41.7400
21.2440,42.0400
21.2326,42.0974
21.2001,42.1461
21.1514,42.1786
21.0940,42.1900
19.4440,42.1900
19.3866,42.1786
19.3379,42.1461
19.3054,42.0974
19.2940,42.0400
Z" /> 
<path style="fill:#000000; fill-opacity:1.0000; stroke:none;fill-rule:evenodd;"
d="M 19.2940,40.4700
19.3054,40.4126
19.3379,40.3639
19.3866,40.3314
19.4440,40.3200
21.0940,40.3200
21.1514,40.3314
21.2001,40.3639
21.2326,40.4126
21.2440,40.4700
21.2440,40.7700
21.2326,40.8274
21.2001,40.8761
21.1514,40.9086
21.0940,40.9200
19.4440,40.9200
19.3866,40.9086
19.3379,40.8761
19.3054,40.8274
19.2940,40.7700
Z" /> 
<path style="fill:#000000; fill-opacity:1.0000; stroke:none;fill-rule:evenodd;"
d="M 56.5190,40.9000
56.6147,40.9190
56.6958,40.9732
56.7500,41.0543
56.7690,41.1500
56.7690,41.8250
56.7500,41.9207
56.6958,42.0018
56.6147,42.0560
56.5190,42.0750
55.5690,42.0750
55.4733,42.0560
55.3922,42.0018
55.3380,41.9207
55.3190,41.8250
55.3190,41.1500
55.3380,41.0543
55.3922,40.9732
55.4733,40.9190
55.5690,40.9000
Z" /> 
<path style="fill:#000000; fill-opacity:1.0000; stroke:none;fill-rule:evenodd;"
d="M 56.5190,42.9750
56.6147,42.9940
56.6958,43.0482
56.7500,43.1293
56.7690,43.2250
56.7690,43.9000
56.7500,43.9957
56.6958,44.0768
56.6147,44.1310
56.5190,44.1500
55.5690,44.1500
55.4733,44.1310
55.3922,44.0768
55.3380,43.9957
55.3190,43.9000
55.3190,43.2250
55.3380,43.1293
55.3922,43.0482
55.4733,42.9940
55.5690,42.9750
Z" /> 
<path style="fill:#000000; fill-opacity:1.0000; stroke:none;fill-rule:evenodd;"
d="M 72.9190,8.9000
73.0147,8.9190
73.0958,8.9732
73.1500,9.0543
73.1690,9.1500
73.1690,9.8250
73.1500,9.9207
73.0958,10.0018
73.0147,10.0560
72.9190,10.0750
71.9690,10.0750
71.8733,10.0560
71.7922,10.0018
71.7380,9.9207
71.7190,9.8250
71.7190,9.1500
71.7380,9.0543
71.7922,8.9732
71.8733,8.9190
71.9690,8.9000
Z" /> 
<path style="fill:#000000; fill-opacity:1.0000; stroke:none;fill-rule:evenodd;"
d="M 72.9190,10.9750
73.0147,10.9940
73.0958,11.0482
73.1500,11.1293
73.1690,11.2250
73.1690,11.9000
73.1500,11.9957
73.0958,12.0768
73.0147,12.1310
72.9190,12.1500
71.9690,12.1500
71.8733,12.1310
71.7922,12.0768
71.7380,11.9957
71.7190,11.9000
71.7190,11.2250
71.7380,11.1293
71.7922,11.0482
71.8733,10.9940
71.9690,10.9750
Z" /> 
<path style="fill:#000000; fill-opacity:1.0000; stroke:none;fill-rule:evenodd;"
d="M 40.1190,40.9000
40.2147,40.9190
40.2958,40.9732
40.3500,41.0543
40.3690,41.1500
40.3690,41.8250
40.3500,41.9207
40.2958,42.0018
40.2147,42.0560
40.1190,42.0750
39.1690,42.0750
39.0733,42.0560
38.9922,42.0018
38.9380,41.9207
38.9190,41.8250
38.9190,41.1500
38.9380,41.0543
38.9922,40.9732
39.0733,40.9190
39.1690,40.9000
Z" /> 
<path style="fill:#000000; fill-opacity:1.0000; stroke:none;fill-rule:evenodd;"
d="M 40.1190,42.9750
40.2147,42.9940
40.2958,43.0482
40.3500,43.1293
40.3690,43.2250
40.3690,43.9000
40.3500,43.9957
40.2958,44.0768
40.2147,44.1310
40.1190,44.1500
39.1690,44.1500
39.0733,44.1310
38.9922,44.0768
38.9380,43.9957
38.9190,43.9000
38.9190,43.2250
38.9380,43.1293
38.9922,43.0482
39.0733,42.9940
39.1690,42.9750
Z" /> 
<path style="fill:#000000; fill-opacity:1.0000; stroke:none;fill-rule:evenodd;"
d="M 28.1190,44.1500
28.0233,44.1310
27.9422,44.0768
27.8880,43.9957
27.8690,43.9000
27.8690,43.2250
27.8880,43.1293
27.9422,43.0482
28.0233,42.9940
28.1190,42.9750
29.0690,42.9750
29.1647,42.9940
29.2458,43.0482
29.3000,43.1293
29.3190,43.2250
29.3190,43.9000
29.3000,43.9957
29.2458,44.0768
29.1647,44.1310
29.0690,44.1500
Z" /> 
<path style="fill:#000000; fill-opacity:1.0000; stroke:none;fill-rule:evenodd;"
d="M 28.1190,42.0750
28.0233,42.0560
27.9422,42.0018
27.8880,41.9207
27.8690,41.8250
27.8690,41.1500
27.8880,41.0543
27.9422,40.9732
28.0233,40.9190
28.1190,40.9000
29.0690,40.9000
29.1647,40.9190
29.2458,40.9732
29.3000,41.0543
29.3190,41.1500
29.3190,41.8250
29.3000,41.9207
29.2458,42.0018
29.1647,42.0560
29.0690,42.0750
Z" /> 
<path style="fill:#000000; fill-opacity:1.0000; stroke:none;fill-rule:evenodd;"
d="M 60.9190,12.1500
60.8233,12.1310
60.7422,12.0768
60.6880,11.9957
60.6690,11.9000
60.6690,11.2250
60.6880,11.1293
60.7422,11.0482
60.8233,10.9940
60.9190,10.9750
61.8690,10.9750
61.9647,10.9940
62.0458,11.0482
62.1000,11.1293
62.1190,11.2250
62.1190,11.9000
62.1000,11.9957
62.0458,12.0768
61.9647,12.1310
61.8690,12.1500
Z" /> 
<path style="fill:#000000; fill-opacity:1.0000; stroke:none;fill-rule:evenodd;"
d="M 60.9190,10.0750
60.8233,10.0560
60.7422,10.0018
60.6880,9.9207
60.6690,9.8250
60.6690,9.1500
60.6880,9.0543
60.7422,8.9732
60.8233,8.9190
60.9190,8.9000
61.8690,8.9000
61.9647,8.9190
62.0458,8.9732
62.1000,9.0543
62.1190,9.1500
62.1190,9.8250
62.1000,9.9207
62.0458,10.0018
61.9647,10.0560
61.8690,10.0750
Z" /> 
<path style="fill:#000000; fill-opacity:1.0000; stroke:none;fill-rule:evenodd;"
d="M 23.8190,40.9000
23.9147,40.9190
23.9958,40.9732
24.0500,41.0543
24.0690,41.1500
24.0690,41.8250
24.0500,41.9207
23.9958,42.0018
23.9147,42.0560
23.8190,42.0750
22.8690,42.0750
22.7733,42.0560
22.6922,42.0018
22.6380,41.9207
22.6190,41.8250
22.6190,41.1500
22.6380,41.0543
22.6922,40.9732
22.7733,40.9190
22.8690,40.9000
Z" /> 
<path style="fill:#000000; fill-opacity:1.0000; stroke:none;fill-rule:evenodd;"
d="M 23.8190,42.9750
23.9147,42.9940
23.9958,43.0482
24.0500,43.1293
24.0690,43.2250
24.0690,43.9000
24.0500,43.9957
23.9958,44.0768
23.9147,44.1310
23.8190,44.1500
22.8690,44.1500
22.7733,44.1310
22.6922,44.0768
22.6380,43.9957
22.6190,43.9000
22.6190,43.2250
22.6380,43.1293
22.6922,43.0482
22.7733,42.9940
22.8690,42.9750
Z" /> 
<path style="fill:#000000; fill-opacity:1.0000; stroke:none;fill-rule:evenodd;"
d="M 60.9190,21.1500
60.8233,21.1310
60.7422,21.0768
60.6880,20.9957
60.6690,20.9000
60.6690,20.2250
60.6880,20.1293
60.7422,20.0482
60.8233,19.9940
60.9190,19.9750
61.8690,19.9750
61.9647,19.9940
62.0458,20.0482
62.1000,20.1293
62.1190,20.2250
62.1190,20.9000
62.1000,20.9957
62.0458,21.0768
61.9647,21.1310
61.8690,21.1500
Z" /> 
<path style="fill:#000000; fill-opacity:1.0000; stroke:none;fill-rule:evenodd;"
d="M 60.9190,19.0750
60.8233,19.0560
60.7422,19.0018
60.6880,18.9207
60.6690,18.8250
60.6690,18.1500
60.6880,18.0543
60.7422,17.9732
60.8233,17.9190
60.9190,17.9000
61.8690,17.9000
61.9647,17.9190
62.0458,17.9732
62.1000,18.0543
62.1190,18.1500
62.1190,18.8250
62.1000,18.9207
62.0458,19.0018
61.9647,19.0560
61.8690,19.0750
Z" /> 
<path style="fill:#000000; fill-opacity:1.0000; stroke:none;fill-rule:evenodd;"
d="M 47.0440,40.4700
47.0554,40.4126
47.0879,40.3639
47.1366,40.3314
47.1940,40.3200
48.8440,40.3200
48.9014,40.3314
48.9501,40.3639
48.9826,40.4126
48.9940,40.4700
48.9940,40.7700
48.9826,40.8274
48.9501,40.8761
48.9014,40.9086
48.8440,40.9200
47.1940,40.9200
47.1366,40.9086
47.0879,40.8761
47.0554,40.8274
47.0440,40.7700
Z" /> 
<path style="fill:#000000; fill-opacity:1.0000; stroke:none;fill-rule:evenodd;"
d="M 47.0440,41.7400
47.0554,41.6826
47.0879,41.6339
47.1366,41.6014
47.1940,41.5900
48.8440,41.5900
48.9014,41.6014
48.9501,41.6339
48.9826,41.6826
48.9940,41.7400
48.9940,42.0400
48.9826,42.0974
48.9501,42.1461
48.9014,42.1786
48.8440,42.1900
47.1940,42.1900
47.1366,42.1786
47.0879,42.1461
47.0554,42.0974
47.0440,42.0400
Z" /> 
<path style="fill:#000000; fill-opacity:1.0000; stroke:none;fill-rule:evenodd;"
d="M 47.0440,43.0100
47.0554,42.9526
47.0879,42.9039
47.1366,42.8714
47.1940,42.8600
48.8440,42.8600
48.9014,42.8714
48.9501,42.9039
48.9826,42.9526
48.9940,43.0100
48.9940,43.3100
48.9826,43.3674
48.9501,43.4161
48.9014,43.4486
48.8440,43.4600
47.1940,43.4600
47.1366,43.4486
47.0879,43.4161
47.0554,43.3674
47.0440,43.3100
Z" /> 
<path style="fill:#000000; fill-opacity:1.0000; stroke:none;fill-rule:evenodd;"
d="M 47.0440,44.2800
47.0554,44.2226
47.0879,44.1739
47.1366,44.1414
47.1940,44.1300
48.8440,44.1300
48.9014,44.1414
48.9501,44.1739
48.9826,44.2226
48.9940,44.2800
48.9940,44.5800
48.9826,44.6374
48.9501,44.6861
48.9014,44.7186
48.8440,44.7300
47.1940,44.7300
47.1366,44.7186
47.0879,44.6861
47.0554,44.6374
47.0440,44.5800
Z" /> 
<path style="fill:#000000; fill-opacity:1.0000; stroke:none;fill-rule:evenodd;"
d="M 51.9940,44.2800
52.0054,44.2226
52.0379,44.1739
52.0866,44.1414
52.1440,44.1300
53.7940,44.1300
53.8514,44.1414
53.9001,44.1739
53.9326,44.2226
53.9440,44.2800
53.9440,44.5800
53.9326,44.6374
53.9001,44.6861
53.8514,44.7186
53.7940,44.7300
52.1440,44.7300
52.0866,44.7186
52.0379,44.6861
52.0054,44.6374
51.9940,44.5800
Z" /> 
<path style="fill:#000000; fill-opacity:1.0000; stroke:none;fill-rule:evenodd;"
d="M 51.9940,43.0100
52.0054,42.9526
52.0379,42.9039
52.0866,42.8714
52.1440,42.8600
53.7940,42.8600
53.8514,42.8714
53.9001,42.9039
53.9326,42.9526
53.9440,43.0100
53.9440,43.3100
53.9326,43.3674
53.9001,43.4161
53.8514,43.4486
53.7940,43.4600
52.1440,43.4600
52.0866,43.4486
52.0379,43.4161
52.0054,43.3674
51.9940,43.3100
Z" /> 
<path style="fill:#000000; fill-opacity:1.0000; stroke:none;fill-rule:evenodd;"
d="M 51.9940,41.7400
52.0054,41.6826
52.0379,41.6339
52.0866,41.6014
52.1440,41.5900
53.7940,41.5900
53.8514,41.6014
53.9001,41.6339
53.9326,41.6826
53.9440,41.7400
53.9440,42.0400
53.9326,42.0974
53.9001,42.1461
53.8514,42.1786
53.7940,42.1900
52.1440,42.1900
52.0866,42.1786
52.0379,42.1461
52.0054,42.0974
51.9940,42.0400
Z" /> 
<path style="fill:#000000; fill-opacity:1.0000; stroke:none;fill-rule:evenodd;"
d="M 51.9940,40.4700
52.0054,40.4126
52.0379,40.3639
52.0866,40.3314
52.1440,40.3200
53.7940,40.3200
53.8514,40.3314
53.9001,40.3639
53.9326,40.4126
53.9440,40.4700
53.9440,40.7700
53.9326,40.8274
53.9001,40.8761
53.8514,40.9086
53.7940,40.9200
52.1440,40.9200
52.0866,40.9086
52.0379,40.8761
52.0054,40.8274
51.9940,40.7700
Z" /> 
<path style="fill:#000000; fill-opacity:1.0000; stroke:none;fill-rule:evenodd;"
d="M 36.2540,15.3000
36.1583,15.2810
36.0772,15.2268
36.0230,15.1457
36.0040,15.0500
36.0040,14.5250
36.0230,14.4293
36.0772,14.3482
36.1583,14.2940
36.2540,14.2750
37.1540,14.2750
37.2497,14.2940
37.3308,14.3482
37.3850,14.4293
37.4040,14.5250
37.4040,15.0500
37.3850,15.1457
37.3308,15.2268
37.2497,15.2810
37.1540,15.3000
Z" /> 
<path style="fill:#000000; fill-opacity:1.0000; stroke:none;fill-rule:evenodd;"
d="M 36.2540,13.4750
36.1583,13.4560
36.0772,13.4018
36.0230,13.3207
36.0040,13.2250
36.0040,12.7000
36.0230,12.6043
36.0772,12.5232
36.1583,12.4690
36.2540,12.4500
37.1540,12.4500
37.2497,12.4690
37.3308,12.5232
37.3850,12.6043
37.4040,12.7000
37.4040,13.2250
37.3850,13.3207
37.3308,13.4018
37.2497,13.4560
37.1540,13.4750
Z" /> 
<path style="fill:#000000; fill-opacity:1.0000; stroke:none;fill-rule:evenodd;"
d="M 38.7940,15.3000
38.6983,15.2810
38.6172,15.2268
38.5630,15.1457
38.5440,15.0500
38.5440,14.5250
38.5630,14.4293
38.6172,14.3482
38.6983,14.2940
38.7940,14.2750
39.6940,14.2750
39.7897,14.2940
39.8708,14.3482
39.9250,14.4293
39.9440,14.5250
39.9440,15.0500
39.9250,15.1457
39.8708,15.2268
39.7897,15.2810
39.6940,15.3000
Z" /> 
<path style="fill:#000000; fill-opacity:1.0000; stroke:none;fill-rule:evenodd;"
d="M 38.7940,13.4750
38.6983,13.4560
38.6172,13.4018
38.5630,13.3207
38.5440,13.2250
38.5440,12.7000
38.5630,12.6043
38.6172,12.5232
38.6983,12.4690
38.7940,12.4500
39.6940,12.4500
39.7897,12.4690
39.8708,12.5232
39.9250,12.6043
39.9440,12.7000
39.9440,13.2250
39.9250,13.3207
39.8708,13.4018
39.7897,13.4560
39.6940,13.4750
Z" /> 
<path style="fill:#000000; fill-opacity:1.0000; stroke:none;fill-rule:evenodd;"
d="M 44.5190,44.1500
44.4233,44.1310
44.3422,44.0768
44.2880,43.9957
44.2690,43.9000
44.2690,43.2250
44.2880,43.1293
44.3422,43.0482
44.4233,42.9940
44.5190,42.9750
45.4690,42.9750
45.5647,42.9940
45.6458,43.0482
45.7000,43.1293
45.7190,43.2250
45.7190,43.9000
45.7000,43.9957
45.6458,44.0768
45.5647,44.1310
45.4690,44.1500
Z" /> 
<path style="fill:#000000; fill-opacity:1.0000; stroke:none;fill-rule:evenodd;"
d="M 44.5190,42.0750
44.4233,42.0560
44.3422,42.0018
44.2880,41.9207
44.2690,41.8250
44.2690,41.1500
44.2880,41.0543
44.3422,40.9732
44.4233,40.9190
44.5190,40.9000
45.4690,40.9000
45.5647,40.9190
45.6458,40.9732
45.7000,41.0543
45.7190,41.1500
45.7190,41.8250
45.7000,41.9207
45.6458,42.0018
45.5647,42.0560
45.4690,42.0750
Z" /> 
<path style="fill:#000000; fill-opacity:1.0000; stroke:none;fill-rule:evenodd;"
d="M 33.7140,15.3000
33.6183,15.2810
33.5372,15.2268
33.4830,15.1457
33.4640,15.0500
33.4640,14.5250
33.4830,14.4293
33.5372,14.3482
33.6183,14.2940
33.7140,14.2750
34.6140,14.2750
34.7097,14.2940
34.7908,14.3482
34.8450,14.4293
34.8640,14.5250
34.8640,15.0500
34.8450,15.1457
34.7908,15.2268
34.7097,15.2810
34.6140,15.3000
Z" /> 
<path style="fill:#000000; fill-opacity:1.0000; stroke:none;fill-rule:evenodd;"
d="M 33.7140,13.4750
33.6183,13.4560
33.5372,13.4018
33.4830,13.3207
33.4640,13.2250
33.4640,12.7000
33.4830,12.6043
33.5372,12.5232
33.6183,12.4690
33.7140,12.4500
34.6140,12.4500
34.7097,12.4690
34.7908,12.5232
34.8450,12.6043
34.8640,12.7000
34.8640,13.2250
34.8450,13.3207
34.7908,13.4018
34.7097,13.4560
34.6140,13.4750
Z" /> 
<path style="fill:#000000; fill-opacity:1.0000; stroke:none;fill-rule:evenodd;"
d="M 63.4940,8.4700
63.5054,8.4126
63.5379,8.3639
63.5866,8.3314
63.6440,8.3200
65.2940,8.3200
65.3514,8.3314
65.4001,8.3639
65.4326,8.4126
65.4440,8.4700
65.4440,8.7700
65.4326,8.8274
65.4001,8.8761
65.3514,8.9086
65.2940,8.9200
63.6440,8.9200
63.5866,8.9086
63.5379,8.8761
63.5054,8.8274
63.4940,8.7700
Z" /> 
<path style="fill:#000000; fill-opacity:1.0000; stroke:none;fill-rule:evenodd;"
d="M 63.4940,9.7400
63.5054,9.6826
63.5379,9.6339
63.5866,9.6014
63.6440,9.5900
65.2940,9.5900
65.3514,9.6014
65.4001,9.6339
65.4326,9.6826
65.4440,9.7400
65.4440,10.0400
65.4326,10.0974
65.4001,10.1461
65.3514,10.1786
65.2940,10.1900
63.6440,10.1900
63.5866,10.1786
63.5379,10.1461
63.5054,10.0974
63.4940,10.0400
Z" /> 
<path style="fill:#000000; fill-opacity:1.0000; stroke:none;fill-rule:evenodd;"
d="M 63.4940,11.0100
63.5054,10.9526
63.5379,10.9039
63.5866,10.8714
63.6440,10.8600
65.2940,10.8600
65.3514,10.8714
65.4001,10.9039
65.4326,10.9526
65.4440,11.0100
65.4440,11.3100
65.4326,11.3674
65.4001,11.4161
65.3514,11.4486
65.2940,11.4600
63.6440,11.4600
63.5866,11.4486
63.5379,11.4161
63.5054,11.3674
63.4940,11.3100
Z" /> 
<path style="fill:#000000; fill-opacity:1.0000; stroke:none;fill-rule:evenodd;"
d="M 63.4940,12.2800
63.5054,12.2226
63.5379,12.1739
63.5866,12.1414
63.6440,12.1300
65.2940,12.1300
65.3514,12.1414
65.4001,12.1739
65.4326,12.2226
65.4440,12.2800
65.4440,12.5800
65.4326,12.6374
65.4001,12.6861
65.3514,12.7186
65.2940,12.7300
63.6440,12.7300
63.5866,12.7186
63.5379,12.6861
63.5054,12.6374
63.4940,12.5800
Z" /> 
<path style="fill:#000000; fill-opacity:1.0000; stroke:none;fill-rule:evenodd;"
d="M 68.4440,12.2800
68.4554,12.2226
68.4879,12.1739
68.5366,12.1414
68.5940,12.1300
70.2440,12.1300
70.3014,12.1414
70.3501,12.1739
70.3826,12.2226
70.3940,12.2800
70.3940,12.5800
70.3826,12.6374
70.3501,12.6861
70.3014,12.7186
70.2440,12.7300
68.5940,12.7300
68.5366,12.7186
68.4879,12.6861
68.4554,12.6374
68.4440,12.5800
Z" /> 
<path style="fill:#000000; fill-opacity:1.0000; stroke:none;fill-rule:evenodd;"
d="M 68.4440,11.0100
68.4554,10.9526
68.4879,10.9039
68.5366,10.8714
68.5940,10.8600
70.2440,10.8600
70.3014,10.8714
70.3501,10.9039
70.3826,10.9526
70.3940,11.0100
70.3940,11.3100
70.3826,11.3674
70.3501,11.4161
70.3014,11.4486
70.2440,11.4600
68.5940,11.4600
68.5366,11.4486
68.4879,11.4161
68.4554,11.3674
68.4440,11.3100
Z" /> 
<path style="fill:#000000; fill-opacity:1.0000; stroke:none;fill-rule:evenodd;"
d="M 68.4440,9.7400
68.4554,9.6826
68.4879,9.6339
68.5366,9.6014
68.5940,9.5900
70.2440,9.5900
70.3014,9.6014
70.3501,9.6339
70.3826,9.6826
70.3940,9.7400
70.3940,10.0400
70.3826,10.0974
70.3501,10.1461
70.3014,10.1786
70.2440,10.1900
68.5940,10.1900
68.5366,10.1786
68.4879,10.1461
68.4554,10.0974
68.4440,10.0400
Z" /> 
<path style="fill:#000000; fill-opacity:1.0000; stroke:none;fill-rule:evenodd;"
d="M 68.4440,8.4700
68.4554,8.4126
68.4879,8.3639
68.5366,8.3314
68.5940,8.3200
70.2440,8.3200
70.3014,8.3314
70.3501,8.3639
70.3826,8.4126
70.3940,8.4700
70.3940,8.7700
70.3826,8.8274
70.3501,8.8761
70.3014,8.9086
70.2440,8.9200
68.5940,8.9200
68.5366,8.9086
68.4879,8.8761
68.4554,8.8274
68.4440,8.7700
Z" /> 
<path style="fill:#000000; fill-opacity:1.0000; stroke:none;fill-rule:evenodd;"
d="M 63.4940,40.4700
63.5054,40.4126
63.5379,40.3639
63.5866,40.3314
63.6440,40.3200
65.2940,40.3200
65.3514,40.3314
65.4001,40.3639
65.4326,40.4126
65.4440,40.4700
65.4440,40.7700
65.4326,40.8274
65.4001,40.8761
65.3514,40.9086
65.2940,40.9200
63.6440,40.9200
63.5866,40.9086
63.5379,40.8761
63.5054,40.8274
63.4940,40.7700
Z" /> 
<path style="fill:#000000; fill-opacity:1.0000; stroke:none;fill-rule:evenodd;"
d="M 63.4940,41.7400
63.5054,41.6826
63.5379,41.6339
63.5866,41.6014
63.6440,41.5900
65.2940,41.5900
65.3514,41.6014
65.4001,41.6339
65.4326,41.6826
65.4440,41.7400
65.4440,42.0400
65.4326,42.0974
65.4001,42.1461
65.3514,42.1786
65.2940,42.1900
63.6440,42.1900
63.5866,42.1786
63.5379,42.1461
63.5054,42.0974
63.4940,42.0400
Z" /> 
<path style="fill:#000000; fill-opacity:1.0000; stroke:none;fill-rule:evenodd;"
d="M 63.4940,43.0100
63.5054,42.9526
63.5379,42.9039
63.5866,42.8714
63.6440,42.8600
65.2940,42.8600
65.3514,42.8714
65.4001,42.9039
65.4326,42.9526
65.4440,43.0100
65.4440,43.3100
65.4326,43.3674
65.4001,43.4161
65.3514,43.4486
65.2940,43.4600
63.6440,43.4600
63.5866,43.4486
63.5379,43.4161
63.5054,43.3674
63.4940,43.3100
Z" /> 
<path style="fill:#000000; fill-opacity:1.0000; stroke:none;fill-rule:evenodd;"
d="M 63.4940,44.2800
63.5054,44.2226
63.5379,44.1739
63.5866,44.1414
63.6440,44.1300
65.2940,44.1300
65.3514,44.1414
65.4001,44.1739
65.4326,44.2226
65.4440,44.2800
65.4440,44.5800
65.4326,44.6374
65.4001,44.6861
65.3514,44.7186
65.2940,44.7300
63.6440,44.7300
63.5866,44.7186
63.5379,44.6861
63.5054,44.6374
63.4940,44.5800
Z" /> 
<path style="fill:#000000; fill-opacity:1.0000; stroke:none;fill-rule:evenodd;"
d="M 68.4440,44.2800
68.4554,44.2226
68.4879,44.1739
68.5366,44.1414
68.5940,44.1300
70.2440,44.1300
70.3014,44.1414
70.3501,44.1739
70.3826,44.2226
70.3940,44.2800
70.3940,44.5800
70.3826,44.6374
70.3501,44.6861
70.3014,44.7186
70.2440,44.7300
68.5940,44.7300
68.5366,44.7186
68.4879,44.6861
68.4554,44.6374
68.4440,44.5800
Z" /> 
<path style="fill:#000000; fill-opacity:1.0000; stroke:none;fill-rule:evenodd;"
d="M 68.4440,43.0100
68.4554,42.9526
68.4879,42.9039
68.5366,42.8714
68.5940,42.8600
70.2440,42.8600
70.3014,42.8714
70.3501,42.9039
70.3826,42.9526
70.3940,43.0100
70.3940,43.3100
70.3826,43.3674
70.3501,43.4161
70.3014,43.4486
70.2440,43.4600
68.5940,43.4600
68.5366,43.4486
68.4879,43.4161
68.4554,43.3674
68.4440,43.3100
Z" /> 
<path style="fill:#000000; fill-opacity:1.0000; stroke:none;fill-rule:evenodd;"
d="M 68.4440,41.7400
68.4554,41.6826
68.4879,41.6339
68.5366,41.6014
68.5940,41.5900
70.2440,41.5900
70.3014,41.6014
70.3501,41.6339
70.3826,41.6826
70.3940,41.7400
70.3940,42.0400
70.3826,42.0974
70.3501,42.1461
70.3014,42.1786
70.2440,42.1900
68.5940,42.1900
68.5366,42.1786
68.4879,42.1461
68.4554,42.0974
68.4440,42.0400
Z" /> 
<path style="fill:#000000; fill-opacity:1.0000; stroke:none;fill-rule:evenodd;"
d="M 68.4440,40.4700
68.4554,40.4126
68.4879,40.3639
68.5366,40.3314
68.5940,40.3200
70.2440,40.3200
70.3014,40.3314
70.3501,40.3639
70.3826,40.4126
70.3940,40.4700
70.3940,40.7700
70.3826,40.8274
70.3501,40.8761
70.3014,40.9086
70.2440,40.9200
68.5940,40.9200
68.5366,40.9086
68.4879,40.8761
68.4554,40.8274
68.4440,40.7700
Z" /> 
<path style="fill:#000000; fill-opacity:1.0000; stroke:none;fill-rule:evenodd;"
d="M 72.9190,17.9000
73.0147,17.9190
73.0958,17.9732
73.1500,18.0543
73.1690,18.1500
73.1690,18.8250
73.1500,18.9207
73.0958,19.0018
73.0147,19.0560
72.9190,19.0750
71.9690,19.0750
71.8733,19.0560
71.7922,19.0018
71.7380,18.9207
71.7190,18.8250
71.7190,18.1500
71.7380,18.0543
71.7922,17.9732
71.8733,17.9190
71.9690,17.9000
Z" /> 
<path style="fill:#000000; fill-opacity:1.0000; stroke:none;fill-rule:evenodd;"
d="M 72.9190,19.9750
73.0147,19.9940
73.0958,20.0482
73.1500,20.1293
73.1690,20.2250
73.1690,20.9000
73.1500,20.9957
73.0958,21.0768
73.0147,21.1310
72.9190,21.1500
71.9690,21.1500
71.8733,21.1310
71.7922,21.0768
71.7380,20.9957
71.7190,20.9000
71.7190,20.2250
71.7380,20.1293
71.7922,20.0482
71.8733,19.9940
71.9690,19.9750
Z" /> 
<path style="fill:#000000; fill-opacity:1.0000; stroke:none;fill-rule:evenodd;"
d="M 30.6440,40.4700
30.6554,40.4126
30.6879,40.3639
30.7366,40.3314
30.7940,40.3200
32.4440,40.3200
32.5014,40.3314
32.5501,40.3639
32.5826,40.4126
32.5940,40.4700
32.5940,40.7700
32.5826,40.8274
32.5501,40.8761
32.5014,40.9086
32.4440,40.9200
30.7940,40.9200
30.7366,40.9086
30.6879,40.8761
30.6554,40.8274
30.6440,40.7700
Z" /> 
<path style="fill:#000000; fill-opacity:1.0000; stroke:none;fill-rule:evenodd;"
d="M 30.6440,41.7400
30.6554,41.6826
30.6879,41.6339
30.7366,41.6014
30.7940,41.5900
32.4440,41.5900
32.5014,41.6014
32.5501,41.6339
32.5826,41.6826
32.5940,41.7400
32.5940,42.0400
32.5826,42.0974
32.5501,42.1461
32.5014,42.1786
32.4440,42.1900
30.7940,42.1900
30.7366,42.1786
30.6879,42.1461
30.6554,42.0974
30.6440,42.0400
Z" /> 
<path style="fill:#000000; fill-opacity:1.0000; stroke:none;fill-rule:evenodd;"
d="M 30.6440,43.0100
30.6554,42.9526
30.6879,42.9039
30.7366,42.8714
30.7940,42.8600
32.4440,42.8600
32.5014,42.8714
32.5501,42.9039
32.5826,42.9526
32.5940,43.0100
32.5940,43.3100
32.5826,43.3674
32.5501,43.4161
32.5014,43.4486
32.4440,43.4600
30.7940,43.4600
30.7366,43.4486
30.6879,43.4161
30.6554,43.3674
30.6440,43.3100
Z" /> 
<path style="fill:#000000; fill-opacity:1.0000; stroke:none;fill-rule:evenodd;"
d="M 30.6440,44.2800
30.6554,44.2226
30.6879,44.1739
30.7366,44.1414
30.7940,44.1300
32.4440,44.1300
32.5014,44.1414
32.5501,44.1739
32.5826,44.2226
32.5940,44.2800
32.5940,44.5800
32.5826,44.6374
32.5501,44.6861
32.5014,44.7186
32.4440,44.7300
30.7940,44.7300
30.7366,44.7186
30.6879,44.6861
30.6554,44.6374
30.6440,44.5800
Z" /> 
<path style="fill:#000000; fill-opacity:1.0000; stroke:none;fill-rule:evenodd;"
d="M 35.5940,44.2800
35.6054,44.2226
35.6379,44.1739
35.6866,44.1414
35.7440,44.1300
37.3940,44.1300
37.4514,44.1414
37.5001,44.1739
37.5326,44.2226
37.5440,44.2800
37.5440,44.5800
37.5326,44.6374
37.5001,44.6861
37.4514,44.7186
37.3940,44.7300
35.7440,44.7300
35.6866,44.7186
35.6379,44.6861
35.6054,44.6374
35.5940,44.5800
Z" /> 
<path style="fill:#000000; fill-opacity:1.0000; stroke:none;fill-rule:evenodd;"
d="M 35.5940,43.0100
35.6054,42.9526
35.6379,42.9039
35.6866,42.8714
35.7440,42.8600
37.3940,42.8600
37.4514,42.8714
37.5001,42.9039
37.5326,42.9526
37.5440,43.0100
37.5440,43.3100
37.5326,43.3674
37.5001,43.4161
37.4514,43.4486
37.3940,43.4600
35.7440,43.4600
35.6866,43.4486
35.6379,43.4161
35.6054,43.3674
35.5940,43.3100
Z" /> 
<path style="fill:#000000; fill-opacity:1.0000; stroke:none;fill-rule:evenodd;"
d="M 35.5940,41.7400
35.6054,41.6826
35.6379,41.6339
35.6866,41.6014
35.7440,41.5900
37.3940,41.5900
37.4514,41.6014
37.5001,41.6339
37.5326,41.6826
37.5440,41.7400
37.5440,42.0400
37.5326,42.0974
37.5001,42.1461
37.4514,42.1786
37.3940,42.1900
35.7440,42.1900
35.6866,42.1786
35.6379,42.1461
35.6054,42.0974
35.5940,42.0400
Z" /> 
<path style="fill:#000000; fill-opacity:1.0000; stroke:none;fill-rule:evenodd;"
d="M 35.5940,40.4700
35.6054,40.4126
35.6379,40.3639
35.6866,40.3314
35.7440,40.3200
37.3940,40.3200
37.4514,40.3314
37.5001,40.3639
37.5326,40.4126
37.5440,40.4700
37.5440,40.7700
37.5326,40.8274
37.5001,40.8761
37.4514,40.9086
37.3940,40.9200
35.7440,40.9200
35.6866,40.9086
35.6379,40.8761
35.6054,40.8274
35.5940,40.7700
Z" /> 
<path style="fill:#000000; fill-opacity:1.0000; stroke:none;fill-rule:evenodd;"
d="M 31.1740,15.3000
31.0783,15.2810
30.9972,15.2268
30.9430,15.1457
30.9240,15.0500
30.9240,14.5250
30.9430,14.4293
30.9972,14.3482
31.0783,14.2940
31.1740,14.2750
32.0740,14.2750
32.1697,14.2940
32.2508,14.3482
32.3050,14.4293
32.3240,14.5250
32.3240,15.0500
32.3050,15.1457
32.2508,15.2268
32.1697,15.2810
32.0740,15.3000
Z" /> 
<path style="fill:#000000; fill-opacity:1.0000; stroke:none;fill-rule:evenodd;"
d="M 31.1740,13.4750
31.0783,13.4560
30.9972,13.4018
30.9430,13.3207
30.9240,13.2250
30.9240,12.7000
30.9430,12.6043
30.9972,12.5232
31.0783,12.4690
31.1740,12.4500
32.0740,12.4500
32.1697,12.4690
32.2508,12.5232
32.3050,12.6043
32.3240,12.7000
32.3240,13.2250
32.3050,13.3207
32.2508,13.4018
32.1697,13.4560
32.0740,13.4750
Z" /> 
<path style="fill:#000000; fill-opacity:1.0000; stroke:none;fill-rule:evenodd;"
d="M 60.9190,44.1500
60.8233,44.1310
60.7422,44.0768
60.6880,43.9957
60.6690,43.9000
60.6690,43.2250
60.6880,43.1293
60.7422,43.0482
60.8233,42.9940
60.9190,42.9750
61.8690,42.9750
61.9647,42.9940
62.0458,43.0482
62.1000,43.1293
62.1190,43.2250
62.1190,43.9000
62.1000,43.9957
62.0458,44.0768
61.9647,44.1310
61.8690,44.1500
Z" /> 
<path style="fill:#000000; fill-opacity:1.0000; stroke:none;fill-rule:evenodd;"
d="M 60.9190,42.0750
60.8233,42.0560
60.7422,42.0018
60.6880,41.9207
60.6690,41.8250
60.6690,41.1500
60.6880,41.0543
60.7422,40.9732
60.8233,40.9190
60.9190,40.9000
61.8690,40.9000
61.9647,40.9190
62.0458,40.9732
62.1000,41.0543
62.1190,41.1500
62.1190,41.8250
62.1000,41.9207
62.0458,42.0018
61.9647,42.0560
61.8690,42.0750
Z" /> 
<path style="fill:#000000; fill-opacity:1.0000; stroke:none;fill-rule:evenodd;"
d="M 72.9190,40.9000
73.0147,40.9190
73.0958,40.9732
73.1500,41.0543
73.1690,41.1500
73.1690,41.8250
73.1500,41.9207
73.0958,42.0018
73.0147,42.0560
72.9190,42.0750
71.9690,42.0750
71.8733,42.0560
71.7922,42.0018
71.7380,41.9207
71.7190,41.8250
71.7190,41.1500
71.7380,41.0543
71.7922,40.9732
71.8733,40.9190
71.9690,40.9000
Z" /> 
<path style="fill:#000000; fill-opacity:1.0000; stroke:none;fill-rule:evenodd;"
d="M 72.9190,42.9750
73.0147,42.9940
73.0958,43.0482
73.1500,43.1293
73.1690,43.2250
73.1690,43.9000
73.1500,43.9957
73.0958,44.0768
73.0147,44.1310
72.9190,44.1500
71.9690,44.1500
71.8733,44.1310
71.7922,44.0768
71.7380,43.9957
71.7190,43.9000
71.7190,43.2250
71.7380,43.1293
71.7922,43.0482
71.8733,42.9940
71.9690,42.9750
Z" /> 
</g>
<g style="fill:none; 
stroke:#000000; stroke-width:0.0500; stroke-opacity:1; 
stroke-linecap:round; stroke-linejoin:round;">
<path d="M0.4151 48.4836
L0.4151 33.8786
" />
<path d="M5.8440 16.0986
L5.8440 0.0250
" />
<path d="M20.7351 16.0986
L5.8440 16.0986
" />
<path d="M74.0751 54.8336
L6.7651 54.8336
" />
<path d="M0.4151 48.4836 A6.3500 6.3500 0.0 0 0 6.7651 54.8336" />
<path d="M86.7751 12.9236
L86.7751 42.1336
" />
<path d="M74.0751 0.0250
L5.8440 0.0250
" />
<path d="M0.4151 33.8786
L20.7351 33.8786
" />
<path d="M20.7351 33.8786
L20.7351 16.0986
" />
<path d="M74.0751 54.8336 A12.7000 12.7000 0.0 0 0 86.7751 42.1336" />
<path d="M86.7751 12.9236 A12.7997 12.7997 0.0 0 0 74.0751 0.0250" />
</g> 
</svg>
