G04 #@! TF.GenerationSoftware,KiCad,Pcbnew,8.0.6*
G04 #@! TF.CreationDate,2025-01-05T20:35:50-05:00*
G04 #@! TF.ProjectId,Beagle-AI-64-CAN-Part2,42656167-6c65-42d4-9149-2d36342d4341,rev?*
G04 #@! TF.SameCoordinates,Original*
G04 #@! TF.FileFunction,Paste,Top*
G04 #@! TF.FilePolarity,Positive*
%FSLAX46Y46*%
G04 Gerber Fmt 4.6, Leading zero omitted, Abs format (unit mm)*
G04 Created by KiCad (PCBNEW 8.0.6) date 2025-01-05 20:35:50*
%MOMM*%
%LPD*%
G01*
G04 APERTURE LIST*
G04 Aperture macros list*
%AMRoundRect*
0 Rectangle with rounded corners*
0 $1 Rounding radius*
0 $2 $3 $4 $5 $6 $7 $8 $9 X,Y pos of 4 corners*
0 Add a 4 corners polygon primitive as box body*
4,1,4,$2,$3,$4,$5,$6,$7,$8,$9,$2,$3,0*
0 Add four circle primitives for the rounded corners*
1,1,$1+$1,$2,$3*
1,1,$1+$1,$4,$5*
1,1,$1+$1,$6,$7*
1,1,$1+$1,$8,$9*
0 Add four rect primitives between the rounded corners*
20,1,$1+$1,$2,$3,$4,$5,0*
20,1,$1+$1,$4,$5,$6,$7,0*
20,1,$1+$1,$6,$7,$8,$9,0*
20,1,$1+$1,$8,$9,$2,$3,0*%
G04 Aperture macros list end*
%ADD10RoundRect,0.150000X-0.825000X-0.150000X0.825000X-0.150000X0.825000X0.150000X-0.825000X0.150000X0*%
%ADD11RoundRect,0.250000X0.475000X-0.337500X0.475000X0.337500X-0.475000X0.337500X-0.475000X-0.337500X0*%
%ADD12RoundRect,0.250000X-0.475000X0.337500X-0.475000X-0.337500X0.475000X-0.337500X0.475000X0.337500X0*%
%ADD13RoundRect,0.250000X0.450000X-0.262500X0.450000X0.262500X-0.450000X0.262500X-0.450000X-0.262500X0*%
G04 APERTURE END LIST*
D10*
X169375000Y-95095000D03*
X169375000Y-96365000D03*
X169375000Y-97635000D03*
X169375000Y-98905000D03*
X174325000Y-98905000D03*
X174325000Y-97635000D03*
X174325000Y-96365000D03*
X174325000Y-95095000D03*
D11*
X117200000Y-121037500D03*
X117200000Y-118962500D03*
D10*
X120225000Y-118095000D03*
X120225000Y-119365000D03*
X120225000Y-120635000D03*
X120225000Y-121905000D03*
X125175000Y-121905000D03*
X125175000Y-120635000D03*
X125175000Y-119365000D03*
X125175000Y-118095000D03*
D12*
X160950000Y-118962500D03*
X160950000Y-121037500D03*
X177350000Y-86962500D03*
X177350000Y-89037500D03*
X144550000Y-118962500D03*
X144550000Y-121037500D03*
D11*
X133500000Y-121037500D03*
X133500000Y-118962500D03*
X166300000Y-89037500D03*
X166300000Y-86962500D03*
D12*
X128250000Y-118962500D03*
X128250000Y-121037500D03*
D11*
X166300000Y-98037500D03*
X166300000Y-95962500D03*
D10*
X152925000Y-118095000D03*
X152925000Y-119365000D03*
X152925000Y-120635000D03*
X152925000Y-121905000D03*
X157875000Y-121905000D03*
X157875000Y-120635000D03*
X157875000Y-119365000D03*
X157875000Y-118095000D03*
D13*
X141610000Y-92262500D03*
X141610000Y-90437500D03*
X144150000Y-92262500D03*
X144150000Y-90437500D03*
D11*
X149900000Y-121037500D03*
X149900000Y-118962500D03*
D13*
X139070000Y-92262500D03*
X139070000Y-90437500D03*
D10*
X169375000Y-86095000D03*
X169375000Y-87365000D03*
X169375000Y-88635000D03*
X169375000Y-89905000D03*
X174325000Y-89905000D03*
X174325000Y-88635000D03*
X174325000Y-87365000D03*
X174325000Y-86095000D03*
X169375000Y-118095000D03*
X169375000Y-119365000D03*
X169375000Y-120635000D03*
X169375000Y-121905000D03*
X174325000Y-121905000D03*
X174325000Y-120635000D03*
X174325000Y-119365000D03*
X174325000Y-118095000D03*
D12*
X177350000Y-95962500D03*
X177350000Y-98037500D03*
D10*
X136525000Y-118095000D03*
X136525000Y-119365000D03*
X136525000Y-120635000D03*
X136525000Y-121905000D03*
X141475000Y-121905000D03*
X141475000Y-120635000D03*
X141475000Y-119365000D03*
X141475000Y-118095000D03*
D13*
X136530000Y-92262500D03*
X136530000Y-90437500D03*
D11*
X166300000Y-121037500D03*
X166300000Y-118962500D03*
D12*
X177350000Y-118962500D03*
X177350000Y-121037500D03*
M02*
