M48
; DRILL file {KiCad 8.0.6} date 2025-01-05T20:35:47-0500
; FORMAT={-:-/ absolute / inch / decimal}
; #@! TF.CreationDate,2025-01-05T20:35:47-05:00
; #@! TF.GenerationSoftware,Kicad,Pcbnew,8.0.6
; #@! TF.FileFunction,Plated,1,2,PTH
FMAT,2
INCH
; #@! TA.AperFunction,Plated,PTH,ViaDrill
T1C0.0118
; #@! TA.AperFunction,Plated,PTH,ComponentDrill
T2C0.0315
; #@! TA.AperFunction,Plated,PTH,ComponentDrill
T3C0.0394
; #@! TA.AperFunction,Plated,PTH,ComponentDrill
T4C0.0400
%
G90
G05
T1
X4.9859Y-3.9088
X4.9926Y-4.5843
X4.9982Y-4.6979
X5.0246Y-3.9122
X5.0553Y-4.6109
X5.0601Y-4.8241
X5.5001Y-4.3519
X5.6105Y-4.929
X5.6374Y-4.6871
X5.6977Y-4.606
X5.705Y-4.865
X5.7671Y-4.6264
X5.9152Y-4.6284
X6.1076Y-4.7054
X6.2746Y-4.7247
X6.2774Y-4.6831
X6.2971Y-3.3499
X6.3815Y-3.6668
X6.54Y-4.9057
X6.5962Y-4.4944
X6.6474Y-4.6123
X6.7167Y-3.6766
X6.7475Y-3.8425
X6.76Y-3.7202
X6.7714Y-3.7986
X6.7872Y-4.7171
X6.8012Y-4.6812
X6.8051Y-3.5886
X6.9229Y-3.5194
X6.9276Y-4.7034
X6.9286Y-4.3634
T2
X5.7752Y-3.572
X5.7752Y-3.872
X5.8752Y-3.572
X5.8752Y-3.872
X5.9752Y-3.572
X5.9752Y-3.872
X6.0752Y-3.572
X6.0752Y-3.872
X6.1752Y-3.572
X6.1752Y-3.872
T3
X4.8031Y-3.4449
X4.9031Y-3.4449
X5.0031Y-3.4449
X5.1031Y-3.4449
X5.1437Y-3.7114
X5.1437Y-3.8114
X5.1437Y-3.9114
X5.1437Y-4.0114
X5.1437Y-4.1114
X5.1437Y-4.2114
X5.1437Y-4.3114
X5.1437Y-4.4114
X5.374Y-3.4449
X5.474Y-3.4449
X5.574Y-3.4449
X5.674Y-3.4449
X5.774Y-3.4449
X5.874Y-3.4449
X5.974Y-3.4449
X6.074Y-3.4449
X6.15Y-4.4173
X6.174Y-3.4449
X6.25Y-4.4173
X6.35Y-4.4173
X6.45Y-4.4173
X6.5433Y-4.1831
X6.55Y-4.4173
X6.6433Y-4.1831
X6.65Y-4.4173
X6.7433Y-4.1831
X6.75Y-4.4173
X6.8433Y-4.1831
X6.85Y-4.4173
T4
X4.94Y-3.13
X4.94Y-3.23
X4.94Y-5.03
X4.94Y-5.13
X5.04Y-3.13
X5.04Y-3.23
X5.04Y-5.03
X5.04Y-5.13
X5.14Y-3.13
X5.14Y-3.23
X5.14Y-5.03
X5.14Y-5.13
X5.24Y-3.13
X5.24Y-3.23
X5.24Y-5.03
X5.24Y-5.13
X5.34Y-3.13
X5.34Y-3.23
X5.34Y-5.03
X5.34Y-5.13
X5.44Y-3.13
X5.44Y-3.23
X5.44Y-5.03
X5.44Y-5.13
X5.54Y-3.13
X5.54Y-3.23
X5.54Y-5.03
X5.54Y-5.13
X5.64Y-3.13
X5.64Y-3.23
X5.64Y-5.03
X5.64Y-5.13
X5.74Y-3.13
X5.74Y-3.23
X5.74Y-5.03
X5.74Y-5.13
X5.84Y-3.13
X5.84Y-3.23
X5.84Y-5.03
X5.84Y-5.13
X5.94Y-3.13
X5.94Y-3.23
X5.94Y-5.03
X5.94Y-5.13
X6.04Y-3.13
X6.04Y-3.23
X6.04Y-5.03
X6.04Y-5.13
X6.14Y-3.13
X6.14Y-3.23
X6.14Y-5.03
X6.14Y-5.13
X6.24Y-3.13
X6.24Y-3.23
X6.24Y-5.03
X6.24Y-5.13
X6.34Y-3.13
X6.34Y-3.23
X6.34Y-5.03
X6.34Y-5.13
X6.44Y-3.13
X6.44Y-3.23
X6.44Y-5.03
X6.44Y-5.13
X6.54Y-3.13
X6.54Y-3.23
X6.54Y-5.03
X6.54Y-5.13
X6.64Y-3.13
X6.64Y-3.23
X6.64Y-5.03
X6.64Y-5.13
X6.74Y-3.13
X6.74Y-3.23
X6.74Y-5.03
X6.74Y-5.13
X6.84Y-3.13
X6.84Y-3.23
X6.84Y-5.03
X6.84Y-5.13
X6.94Y-3.13
X6.94Y-3.23
X6.94Y-5.03
X6.94Y-5.13
X7.04Y-3.13
X7.04Y-3.23
X7.04Y-5.03
X7.04Y-5.13
X7.14Y-3.13
X7.14Y-3.23
X7.14Y-5.03
X7.14Y-5.13
M30
