G04 #@! TF.GenerationSoftware,KiCad,Pcbnew,8.0.6*
G04 #@! TF.CreationDate,2025-01-05T20:35:50-05:00*
G04 #@! TF.ProjectId,Beagle-AI-64-CAN-Part2,42656167-6c65-42d4-9149-2d36342d4341,rev?*
G04 #@! TF.SameCoordinates,Original*
G04 #@! TF.FileFunction,Soldermask,Top*
G04 #@! TF.FilePolarity,Negative*
%FSLAX46Y46*%
G04 Gerber Fmt 4.6, Leading zero omitted, Abs format (unit mm)*
G04 Created by KiCad (PCBNEW 8.0.6) date 2025-01-05 20:35:50*
%MOMM*%
%LPD*%
G01*
G04 APERTURE LIST*
G04 Aperture macros list*
%AMRoundRect*
0 Rectangle with rounded corners*
0 $1 Rounding radius*
0 $2 $3 $4 $5 $6 $7 $8 $9 X,Y pos of 4 corners*
0 Add a 4 corners polygon primitive as box body*
4,1,4,$2,$3,$4,$5,$6,$7,$8,$9,$2,$3,0*
0 Add four circle primitives for the rounded corners*
1,1,$1+$1,$2,$3*
1,1,$1+$1,$4,$5*
1,1,$1+$1,$6,$7*
1,1,$1+$1,$8,$9*
0 Add four rect primitives between the rounded corners*
20,1,$1+$1,$2,$3,$4,$5,0*
20,1,$1+$1,$4,$5,$6,$7,0*
20,1,$1+$1,$6,$7,$8,$9,0*
20,1,$1+$1,$8,$9,$2,$3,0*%
G04 Aperture macros list end*
%ADD10R,1.600000X1.600000*%
%ADD11O,1.600000X1.600000*%
%ADD12R,1.700000X1.700000*%
%ADD13O,1.700000X1.700000*%
%ADD14RoundRect,0.150000X-0.825000X-0.150000X0.825000X-0.150000X0.825000X0.150000X-0.825000X0.150000X0*%
%ADD15RoundRect,0.250000X0.475000X-0.337500X0.475000X0.337500X-0.475000X0.337500X-0.475000X-0.337500X0*%
%ADD16RoundRect,0.250000X-0.475000X0.337500X-0.475000X-0.337500X0.475000X-0.337500X0.475000X0.337500X0*%
%ADD17RoundRect,0.250000X0.450000X-0.262500X0.450000X0.262500X-0.450000X0.262500X-0.450000X-0.262500X0*%
%ADD18C,3.175000*%
%ADD19RoundRect,0.101600X-0.939800X-0.939800X0.939800X-0.939800X0.939800X0.939800X-0.939800X0.939800X0*%
%ADD20C,2.082800*%
G04 APERTURE END LIST*
D10*
X156850000Y-98350000D03*
D11*
X156850000Y-90730000D03*
D10*
X154310000Y-98350000D03*
D11*
X154310000Y-90730000D03*
D10*
X151770000Y-98350000D03*
D11*
X151770000Y-90730000D03*
D10*
X149230000Y-98350000D03*
D11*
X149230000Y-90730000D03*
D10*
X146690000Y-98350000D03*
D11*
X146690000Y-90730000D03*
D12*
X173820000Y-106250000D03*
D13*
X171280000Y-106250000D03*
X168740000Y-106250000D03*
X166200000Y-106250000D03*
D14*
X169375000Y-95095000D03*
X169375000Y-96365000D03*
X169375000Y-97635000D03*
X169375000Y-98905000D03*
X174325000Y-98905000D03*
X174325000Y-97635000D03*
X174325000Y-96365000D03*
X174325000Y-95095000D03*
D15*
X117200000Y-121037500D03*
X117200000Y-118962500D03*
D14*
X120225000Y-118095000D03*
X120225000Y-119365000D03*
X120225000Y-120635000D03*
X120225000Y-121905000D03*
X125175000Y-121905000D03*
X125175000Y-120635000D03*
X125175000Y-119365000D03*
X125175000Y-118095000D03*
D12*
X130650000Y-94270000D03*
D13*
X130650000Y-96810000D03*
X130650000Y-99350000D03*
X130650000Y-101890000D03*
X130650000Y-104430000D03*
X130650000Y-106970000D03*
X130650000Y-109510000D03*
X130650000Y-112050000D03*
D12*
X122000000Y-87500000D03*
D13*
X124540000Y-87500000D03*
X127080000Y-87500000D03*
X129620000Y-87500000D03*
D16*
X160950000Y-118962500D03*
X160950000Y-121037500D03*
X177350000Y-86962500D03*
X177350000Y-89037500D03*
X144550000Y-118962500D03*
X144550000Y-121037500D03*
D15*
X133500000Y-121037500D03*
X133500000Y-118962500D03*
X166300000Y-89037500D03*
X166300000Y-86962500D03*
D16*
X128250000Y-118962500D03*
X128250000Y-121037500D03*
D15*
X166300000Y-98037500D03*
X166300000Y-95962500D03*
D14*
X152925000Y-118095000D03*
X152925000Y-119365000D03*
X152925000Y-120635000D03*
X152925000Y-121905000D03*
X157875000Y-121905000D03*
X157875000Y-120635000D03*
X157875000Y-119365000D03*
X157875000Y-118095000D03*
D17*
X141610000Y-92262500D03*
X141610000Y-90437500D03*
X144150000Y-92262500D03*
X144150000Y-90437500D03*
D15*
X149900000Y-121037500D03*
X149900000Y-118962500D03*
D12*
X173990000Y-112200000D03*
D13*
X171450000Y-112200000D03*
X168910000Y-112200000D03*
X166370000Y-112200000D03*
X163830000Y-112200000D03*
X161290000Y-112200000D03*
X158750000Y-112200000D03*
X156210000Y-112200000D03*
D17*
X139070000Y-92262500D03*
X139070000Y-90437500D03*
D14*
X169375000Y-86095000D03*
X169375000Y-87365000D03*
X169375000Y-88635000D03*
X169375000Y-89905000D03*
X174325000Y-89905000D03*
X174325000Y-88635000D03*
X174325000Y-87365000D03*
X174325000Y-86095000D03*
X169375000Y-118095000D03*
X169375000Y-119365000D03*
X169375000Y-120635000D03*
X169375000Y-121905000D03*
X174325000Y-121905000D03*
X174325000Y-120635000D03*
X174325000Y-119365000D03*
X174325000Y-118095000D03*
D12*
X136500000Y-87500000D03*
D13*
X139040000Y-87500000D03*
X141580000Y-87500000D03*
X144120000Y-87500000D03*
X146660000Y-87500000D03*
X149200000Y-87500000D03*
X151740000Y-87500000D03*
X154280000Y-87500000D03*
X156820000Y-87500000D03*
D16*
X177350000Y-95962500D03*
X177350000Y-98037500D03*
D14*
X136525000Y-118095000D03*
X136525000Y-119365000D03*
X136525000Y-120635000D03*
X136525000Y-121905000D03*
X141475000Y-121905000D03*
X141475000Y-120635000D03*
X141475000Y-119365000D03*
X141475000Y-118095000D03*
D17*
X136530000Y-92262500D03*
X136530000Y-90437500D03*
D15*
X166300000Y-121037500D03*
X166300000Y-118962500D03*
D16*
X177350000Y-118962500D03*
X177350000Y-121037500D03*
D18*
X119761000Y-80772000D03*
X119761000Y-129032000D03*
X185801000Y-83947000D03*
X185801000Y-125857000D03*
D19*
X125476000Y-82042000D03*
D20*
X125476000Y-79502000D03*
X128016000Y-82042000D03*
X128016000Y-79502000D03*
X130556000Y-82042000D03*
X130556000Y-79502000D03*
X133096000Y-82042000D03*
X133096000Y-79502000D03*
X135636000Y-82042000D03*
X135636000Y-79502000D03*
X138176000Y-82042000D03*
X138176000Y-79502000D03*
X140716000Y-82042000D03*
X140716000Y-79502000D03*
X143256000Y-82042000D03*
X143256000Y-79502000D03*
X145796000Y-82042000D03*
X145796000Y-79502000D03*
X148336000Y-82042000D03*
X148336000Y-79502000D03*
X150876000Y-82042000D03*
X150876000Y-79502000D03*
X153416000Y-82042000D03*
X153416000Y-79502000D03*
X155956000Y-82042000D03*
X155956000Y-79502000D03*
X158496000Y-82042000D03*
X158496000Y-79502000D03*
X161036000Y-82042000D03*
X161036000Y-79502000D03*
X163576000Y-82042000D03*
X163576000Y-79502000D03*
X166116000Y-82042000D03*
X166116000Y-79502000D03*
X168656000Y-82042000D03*
X168656000Y-79502000D03*
X171196000Y-82042000D03*
X171196000Y-79502000D03*
X173736000Y-82042000D03*
X173736000Y-79502000D03*
X176276000Y-82042000D03*
X176276000Y-79502000D03*
X178816000Y-82042000D03*
X178816000Y-79502000D03*
X181356000Y-82042000D03*
X181356000Y-79502000D03*
D19*
X125476000Y-130302000D03*
D20*
X125476000Y-127762000D03*
X128016000Y-130302000D03*
X128016000Y-127762000D03*
X130556000Y-130302000D03*
X130556000Y-127762000D03*
X133096000Y-130302000D03*
X133096000Y-127762000D03*
X135636000Y-130302000D03*
X135636000Y-127762000D03*
X138176000Y-130302000D03*
X138176000Y-127762000D03*
X140716000Y-130302000D03*
X140716000Y-127762000D03*
X143256000Y-130302000D03*
X143256000Y-127762000D03*
X145796000Y-130302000D03*
X145796000Y-127762000D03*
X148336000Y-130302000D03*
X148336000Y-127762000D03*
X150876000Y-130302000D03*
X150876000Y-127762000D03*
X153416000Y-130302000D03*
X153416000Y-127762000D03*
X155956000Y-130302000D03*
X155956000Y-127762000D03*
X158496000Y-130302000D03*
X158496000Y-127762000D03*
X161036000Y-130302000D03*
X161036000Y-127762000D03*
X163576000Y-130302000D03*
X163576000Y-127762000D03*
X166116000Y-130302000D03*
X166116000Y-127762000D03*
X168656000Y-130302000D03*
X168656000Y-127762000D03*
X171196000Y-130302000D03*
X171196000Y-127762000D03*
X173736000Y-130302000D03*
X173736000Y-127762000D03*
X176276000Y-130302000D03*
X176276000Y-127762000D03*
X178816000Y-130302000D03*
X178816000Y-127762000D03*
X181356000Y-130302000D03*
X181356000Y-127762000D03*
M02*
