G04 #@! TF.GenerationSoftware,KiCad,Pcbnew,8.0.6*
G04 #@! TF.CreationDate,2025-01-05T20:35:50-05:00*
G04 #@! TF.ProjectId,Beagle-AI-64-CAN-Part2,42656167-6c65-42d4-9149-2d36342d4341,rev?*
G04 #@! TF.SameCoordinates,Original*
G04 #@! TF.FileFunction,Legend,Top*
G04 #@! TF.FilePolarity,Positive*
%FSLAX46Y46*%
G04 Gerber Fmt 4.6, Leading zero omitted, Abs format (unit mm)*
G04 Created by KiCad (PCBNEW 8.0.6) date 2025-01-05 20:35:50*
%MOMM*%
%LPD*%
G01*
G04 APERTURE LIST*
%ADD10C,0.150000*%
%ADD11C,0.152400*%
%ADD12C,0.190500*%
%ADD13C,0.120000*%
G04 APERTURE END LIST*
D10*
X156588095Y-100634819D02*
X156588095Y-99634819D01*
X157159523Y-100634819D02*
X156730952Y-100063390D01*
X157159523Y-99634819D02*
X156588095Y-100206247D01*
X154148095Y-100584819D02*
X154148095Y-99584819D01*
X154719523Y-100584819D02*
X154290952Y-100013390D01*
X154719523Y-99584819D02*
X154148095Y-100156247D01*
X151658095Y-100634819D02*
X151658095Y-99634819D01*
X152229523Y-100634819D02*
X151800952Y-100063390D01*
X152229523Y-99634819D02*
X151658095Y-100206247D01*
X148968095Y-100534819D02*
X148968095Y-99534819D01*
X149539523Y-100534819D02*
X149110952Y-99963390D01*
X149539523Y-99534819D02*
X148968095Y-100106247D01*
X146678095Y-100584819D02*
X146678095Y-99584819D01*
X147249523Y-100584819D02*
X146820952Y-100013390D01*
X147249523Y-99584819D02*
X146678095Y-100156247D01*
X171088095Y-93054819D02*
X171088095Y-93864342D01*
X171088095Y-93864342D02*
X171135714Y-93959580D01*
X171135714Y-93959580D02*
X171183333Y-94007200D01*
X171183333Y-94007200D02*
X171278571Y-94054819D01*
X171278571Y-94054819D02*
X171469047Y-94054819D01*
X171469047Y-94054819D02*
X171564285Y-94007200D01*
X171564285Y-94007200D02*
X171611904Y-93959580D01*
X171611904Y-93959580D02*
X171659523Y-93864342D01*
X171659523Y-93864342D02*
X171659523Y-93054819D01*
X172564285Y-93054819D02*
X172373809Y-93054819D01*
X172373809Y-93054819D02*
X172278571Y-93102438D01*
X172278571Y-93102438D02*
X172230952Y-93150057D01*
X172230952Y-93150057D02*
X172135714Y-93292914D01*
X172135714Y-93292914D02*
X172088095Y-93483390D01*
X172088095Y-93483390D02*
X172088095Y-93864342D01*
X172088095Y-93864342D02*
X172135714Y-93959580D01*
X172135714Y-93959580D02*
X172183333Y-94007200D01*
X172183333Y-94007200D02*
X172278571Y-94054819D01*
X172278571Y-94054819D02*
X172469047Y-94054819D01*
X172469047Y-94054819D02*
X172564285Y-94007200D01*
X172564285Y-94007200D02*
X172611904Y-93959580D01*
X172611904Y-93959580D02*
X172659523Y-93864342D01*
X172659523Y-93864342D02*
X172659523Y-93626247D01*
X172659523Y-93626247D02*
X172611904Y-93531009D01*
X172611904Y-93531009D02*
X172564285Y-93483390D01*
X172564285Y-93483390D02*
X172469047Y-93435771D01*
X172469047Y-93435771D02*
X172278571Y-93435771D01*
X172278571Y-93435771D02*
X172183333Y-93483390D01*
X172183333Y-93483390D02*
X172135714Y-93531009D01*
X172135714Y-93531009D02*
X172088095Y-93626247D01*
X116983333Y-123159580D02*
X116935714Y-123207200D01*
X116935714Y-123207200D02*
X116792857Y-123254819D01*
X116792857Y-123254819D02*
X116697619Y-123254819D01*
X116697619Y-123254819D02*
X116554762Y-123207200D01*
X116554762Y-123207200D02*
X116459524Y-123111961D01*
X116459524Y-123111961D02*
X116411905Y-123016723D01*
X116411905Y-123016723D02*
X116364286Y-122826247D01*
X116364286Y-122826247D02*
X116364286Y-122683390D01*
X116364286Y-122683390D02*
X116411905Y-122492914D01*
X116411905Y-122492914D02*
X116459524Y-122397676D01*
X116459524Y-122397676D02*
X116554762Y-122302438D01*
X116554762Y-122302438D02*
X116697619Y-122254819D01*
X116697619Y-122254819D02*
X116792857Y-122254819D01*
X116792857Y-122254819D02*
X116935714Y-122302438D01*
X116935714Y-122302438D02*
X116983333Y-122350057D01*
X117459524Y-123254819D02*
X117650000Y-123254819D01*
X117650000Y-123254819D02*
X117745238Y-123207200D01*
X117745238Y-123207200D02*
X117792857Y-123159580D01*
X117792857Y-123159580D02*
X117888095Y-123016723D01*
X117888095Y-123016723D02*
X117935714Y-122826247D01*
X117935714Y-122826247D02*
X117935714Y-122445295D01*
X117935714Y-122445295D02*
X117888095Y-122350057D01*
X117888095Y-122350057D02*
X117840476Y-122302438D01*
X117840476Y-122302438D02*
X117745238Y-122254819D01*
X117745238Y-122254819D02*
X117554762Y-122254819D01*
X117554762Y-122254819D02*
X117459524Y-122302438D01*
X117459524Y-122302438D02*
X117411905Y-122350057D01*
X117411905Y-122350057D02*
X117364286Y-122445295D01*
X117364286Y-122445295D02*
X117364286Y-122683390D01*
X117364286Y-122683390D02*
X117411905Y-122778628D01*
X117411905Y-122778628D02*
X117459524Y-122826247D01*
X117459524Y-122826247D02*
X117554762Y-122873866D01*
X117554762Y-122873866D02*
X117745238Y-122873866D01*
X117745238Y-122873866D02*
X117840476Y-122826247D01*
X117840476Y-122826247D02*
X117888095Y-122778628D01*
X117888095Y-122778628D02*
X117935714Y-122683390D01*
X121938095Y-116054819D02*
X121938095Y-116864342D01*
X121938095Y-116864342D02*
X121985714Y-116959580D01*
X121985714Y-116959580D02*
X122033333Y-117007200D01*
X122033333Y-117007200D02*
X122128571Y-117054819D01*
X122128571Y-117054819D02*
X122319047Y-117054819D01*
X122319047Y-117054819D02*
X122414285Y-117007200D01*
X122414285Y-117007200D02*
X122461904Y-116959580D01*
X122461904Y-116959580D02*
X122509523Y-116864342D01*
X122509523Y-116864342D02*
X122509523Y-116054819D01*
X123461904Y-116054819D02*
X122985714Y-116054819D01*
X122985714Y-116054819D02*
X122938095Y-116531009D01*
X122938095Y-116531009D02*
X122985714Y-116483390D01*
X122985714Y-116483390D02*
X123080952Y-116435771D01*
X123080952Y-116435771D02*
X123319047Y-116435771D01*
X123319047Y-116435771D02*
X123414285Y-116483390D01*
X123414285Y-116483390D02*
X123461904Y-116531009D01*
X123461904Y-116531009D02*
X123509523Y-116626247D01*
X123509523Y-116626247D02*
X123509523Y-116864342D01*
X123509523Y-116864342D02*
X123461904Y-116959580D01*
X123461904Y-116959580D02*
X123414285Y-117007200D01*
X123414285Y-117007200D02*
X123319047Y-117054819D01*
X123319047Y-117054819D02*
X123080952Y-117054819D01*
X123080952Y-117054819D02*
X122985714Y-117007200D01*
X122985714Y-117007200D02*
X122938095Y-116959580D01*
X129911905Y-92394819D02*
X129911905Y-91394819D01*
X129911905Y-91394819D02*
X130292857Y-91394819D01*
X130292857Y-91394819D02*
X130388095Y-91442438D01*
X130388095Y-91442438D02*
X130435714Y-91490057D01*
X130435714Y-91490057D02*
X130483333Y-91585295D01*
X130483333Y-91585295D02*
X130483333Y-91728152D01*
X130483333Y-91728152D02*
X130435714Y-91823390D01*
X130435714Y-91823390D02*
X130388095Y-91871009D01*
X130388095Y-91871009D02*
X130292857Y-91918628D01*
X130292857Y-91918628D02*
X129911905Y-91918628D01*
X131340476Y-91728152D02*
X131340476Y-92394819D01*
X131102381Y-91347200D02*
X130864286Y-92061485D01*
X130864286Y-92061485D02*
X131483333Y-92061485D01*
X160783333Y-123309580D02*
X160735714Y-123357200D01*
X160735714Y-123357200D02*
X160592857Y-123404819D01*
X160592857Y-123404819D02*
X160497619Y-123404819D01*
X160497619Y-123404819D02*
X160354762Y-123357200D01*
X160354762Y-123357200D02*
X160259524Y-123261961D01*
X160259524Y-123261961D02*
X160211905Y-123166723D01*
X160211905Y-123166723D02*
X160164286Y-122976247D01*
X160164286Y-122976247D02*
X160164286Y-122833390D01*
X160164286Y-122833390D02*
X160211905Y-122642914D01*
X160211905Y-122642914D02*
X160259524Y-122547676D01*
X160259524Y-122547676D02*
X160354762Y-122452438D01*
X160354762Y-122452438D02*
X160497619Y-122404819D01*
X160497619Y-122404819D02*
X160592857Y-122404819D01*
X160592857Y-122404819D02*
X160735714Y-122452438D01*
X160735714Y-122452438D02*
X160783333Y-122500057D01*
X161640476Y-122404819D02*
X161450000Y-122404819D01*
X161450000Y-122404819D02*
X161354762Y-122452438D01*
X161354762Y-122452438D02*
X161307143Y-122500057D01*
X161307143Y-122500057D02*
X161211905Y-122642914D01*
X161211905Y-122642914D02*
X161164286Y-122833390D01*
X161164286Y-122833390D02*
X161164286Y-123214342D01*
X161164286Y-123214342D02*
X161211905Y-123309580D01*
X161211905Y-123309580D02*
X161259524Y-123357200D01*
X161259524Y-123357200D02*
X161354762Y-123404819D01*
X161354762Y-123404819D02*
X161545238Y-123404819D01*
X161545238Y-123404819D02*
X161640476Y-123357200D01*
X161640476Y-123357200D02*
X161688095Y-123309580D01*
X161688095Y-123309580D02*
X161735714Y-123214342D01*
X161735714Y-123214342D02*
X161735714Y-122976247D01*
X161735714Y-122976247D02*
X161688095Y-122881009D01*
X161688095Y-122881009D02*
X161640476Y-122833390D01*
X161640476Y-122833390D02*
X161545238Y-122785771D01*
X161545238Y-122785771D02*
X161354762Y-122785771D01*
X161354762Y-122785771D02*
X161259524Y-122833390D01*
X161259524Y-122833390D02*
X161211905Y-122881009D01*
X161211905Y-122881009D02*
X161164286Y-122976247D01*
X177083333Y-91509580D02*
X177035714Y-91557200D01*
X177035714Y-91557200D02*
X176892857Y-91604819D01*
X176892857Y-91604819D02*
X176797619Y-91604819D01*
X176797619Y-91604819D02*
X176654762Y-91557200D01*
X176654762Y-91557200D02*
X176559524Y-91461961D01*
X176559524Y-91461961D02*
X176511905Y-91366723D01*
X176511905Y-91366723D02*
X176464286Y-91176247D01*
X176464286Y-91176247D02*
X176464286Y-91033390D01*
X176464286Y-91033390D02*
X176511905Y-90842914D01*
X176511905Y-90842914D02*
X176559524Y-90747676D01*
X176559524Y-90747676D02*
X176654762Y-90652438D01*
X176654762Y-90652438D02*
X176797619Y-90604819D01*
X176797619Y-90604819D02*
X176892857Y-90604819D01*
X176892857Y-90604819D02*
X177035714Y-90652438D01*
X177035714Y-90652438D02*
X177083333Y-90700057D01*
X177464286Y-90700057D02*
X177511905Y-90652438D01*
X177511905Y-90652438D02*
X177607143Y-90604819D01*
X177607143Y-90604819D02*
X177845238Y-90604819D01*
X177845238Y-90604819D02*
X177940476Y-90652438D01*
X177940476Y-90652438D02*
X177988095Y-90700057D01*
X177988095Y-90700057D02*
X178035714Y-90795295D01*
X178035714Y-90795295D02*
X178035714Y-90890533D01*
X178035714Y-90890533D02*
X177988095Y-91033390D01*
X177988095Y-91033390D02*
X177416667Y-91604819D01*
X177416667Y-91604819D02*
X178035714Y-91604819D01*
X144283333Y-123059580D02*
X144235714Y-123107200D01*
X144235714Y-123107200D02*
X144092857Y-123154819D01*
X144092857Y-123154819D02*
X143997619Y-123154819D01*
X143997619Y-123154819D02*
X143854762Y-123107200D01*
X143854762Y-123107200D02*
X143759524Y-123011961D01*
X143759524Y-123011961D02*
X143711905Y-122916723D01*
X143711905Y-122916723D02*
X143664286Y-122726247D01*
X143664286Y-122726247D02*
X143664286Y-122583390D01*
X143664286Y-122583390D02*
X143711905Y-122392914D01*
X143711905Y-122392914D02*
X143759524Y-122297676D01*
X143759524Y-122297676D02*
X143854762Y-122202438D01*
X143854762Y-122202438D02*
X143997619Y-122154819D01*
X143997619Y-122154819D02*
X144092857Y-122154819D01*
X144092857Y-122154819D02*
X144235714Y-122202438D01*
X144235714Y-122202438D02*
X144283333Y-122250057D01*
X144854762Y-122583390D02*
X144759524Y-122535771D01*
X144759524Y-122535771D02*
X144711905Y-122488152D01*
X144711905Y-122488152D02*
X144664286Y-122392914D01*
X144664286Y-122392914D02*
X144664286Y-122345295D01*
X144664286Y-122345295D02*
X144711905Y-122250057D01*
X144711905Y-122250057D02*
X144759524Y-122202438D01*
X144759524Y-122202438D02*
X144854762Y-122154819D01*
X144854762Y-122154819D02*
X145045238Y-122154819D01*
X145045238Y-122154819D02*
X145140476Y-122202438D01*
X145140476Y-122202438D02*
X145188095Y-122250057D01*
X145188095Y-122250057D02*
X145235714Y-122345295D01*
X145235714Y-122345295D02*
X145235714Y-122392914D01*
X145235714Y-122392914D02*
X145188095Y-122488152D01*
X145188095Y-122488152D02*
X145140476Y-122535771D01*
X145140476Y-122535771D02*
X145045238Y-122583390D01*
X145045238Y-122583390D02*
X144854762Y-122583390D01*
X144854762Y-122583390D02*
X144759524Y-122631009D01*
X144759524Y-122631009D02*
X144711905Y-122678628D01*
X144711905Y-122678628D02*
X144664286Y-122773866D01*
X144664286Y-122773866D02*
X144664286Y-122964342D01*
X144664286Y-122964342D02*
X144711905Y-123059580D01*
X144711905Y-123059580D02*
X144759524Y-123107200D01*
X144759524Y-123107200D02*
X144854762Y-123154819D01*
X144854762Y-123154819D02*
X145045238Y-123154819D01*
X145045238Y-123154819D02*
X145140476Y-123107200D01*
X145140476Y-123107200D02*
X145188095Y-123059580D01*
X145188095Y-123059580D02*
X145235714Y-122964342D01*
X145235714Y-122964342D02*
X145235714Y-122773866D01*
X145235714Y-122773866D02*
X145188095Y-122678628D01*
X145188095Y-122678628D02*
X145140476Y-122631009D01*
X145140476Y-122631009D02*
X145045238Y-122583390D01*
X133483333Y-123059580D02*
X133435714Y-123107200D01*
X133435714Y-123107200D02*
X133292857Y-123154819D01*
X133292857Y-123154819D02*
X133197619Y-123154819D01*
X133197619Y-123154819D02*
X133054762Y-123107200D01*
X133054762Y-123107200D02*
X132959524Y-123011961D01*
X132959524Y-123011961D02*
X132911905Y-122916723D01*
X132911905Y-122916723D02*
X132864286Y-122726247D01*
X132864286Y-122726247D02*
X132864286Y-122583390D01*
X132864286Y-122583390D02*
X132911905Y-122392914D01*
X132911905Y-122392914D02*
X132959524Y-122297676D01*
X132959524Y-122297676D02*
X133054762Y-122202438D01*
X133054762Y-122202438D02*
X133197619Y-122154819D01*
X133197619Y-122154819D02*
X133292857Y-122154819D01*
X133292857Y-122154819D02*
X133435714Y-122202438D01*
X133435714Y-122202438D02*
X133483333Y-122250057D01*
X133816667Y-122154819D02*
X134483333Y-122154819D01*
X134483333Y-122154819D02*
X134054762Y-123154819D01*
X165883333Y-90997080D02*
X165835714Y-91044700D01*
X165835714Y-91044700D02*
X165692857Y-91092319D01*
X165692857Y-91092319D02*
X165597619Y-91092319D01*
X165597619Y-91092319D02*
X165454762Y-91044700D01*
X165454762Y-91044700D02*
X165359524Y-90949461D01*
X165359524Y-90949461D02*
X165311905Y-90854223D01*
X165311905Y-90854223D02*
X165264286Y-90663747D01*
X165264286Y-90663747D02*
X165264286Y-90520890D01*
X165264286Y-90520890D02*
X165311905Y-90330414D01*
X165311905Y-90330414D02*
X165359524Y-90235176D01*
X165359524Y-90235176D02*
X165454762Y-90139938D01*
X165454762Y-90139938D02*
X165597619Y-90092319D01*
X165597619Y-90092319D02*
X165692857Y-90092319D01*
X165692857Y-90092319D02*
X165835714Y-90139938D01*
X165835714Y-90139938D02*
X165883333Y-90187557D01*
X166835714Y-91092319D02*
X166264286Y-91092319D01*
X166550000Y-91092319D02*
X166550000Y-90092319D01*
X166550000Y-90092319D02*
X166454762Y-90235176D01*
X166454762Y-90235176D02*
X166359524Y-90330414D01*
X166359524Y-90330414D02*
X166264286Y-90378033D01*
X127957142Y-122959580D02*
X127909523Y-123007200D01*
X127909523Y-123007200D02*
X127766666Y-123054819D01*
X127766666Y-123054819D02*
X127671428Y-123054819D01*
X127671428Y-123054819D02*
X127528571Y-123007200D01*
X127528571Y-123007200D02*
X127433333Y-122911961D01*
X127433333Y-122911961D02*
X127385714Y-122816723D01*
X127385714Y-122816723D02*
X127338095Y-122626247D01*
X127338095Y-122626247D02*
X127338095Y-122483390D01*
X127338095Y-122483390D02*
X127385714Y-122292914D01*
X127385714Y-122292914D02*
X127433333Y-122197676D01*
X127433333Y-122197676D02*
X127528571Y-122102438D01*
X127528571Y-122102438D02*
X127671428Y-122054819D01*
X127671428Y-122054819D02*
X127766666Y-122054819D01*
X127766666Y-122054819D02*
X127909523Y-122102438D01*
X127909523Y-122102438D02*
X127957142Y-122150057D01*
X128909523Y-123054819D02*
X128338095Y-123054819D01*
X128623809Y-123054819D02*
X128623809Y-122054819D01*
X128623809Y-122054819D02*
X128528571Y-122197676D01*
X128528571Y-122197676D02*
X128433333Y-122292914D01*
X128433333Y-122292914D02*
X128338095Y-122340533D01*
X129528571Y-122054819D02*
X129623809Y-122054819D01*
X129623809Y-122054819D02*
X129719047Y-122102438D01*
X129719047Y-122102438D02*
X129766666Y-122150057D01*
X129766666Y-122150057D02*
X129814285Y-122245295D01*
X129814285Y-122245295D02*
X129861904Y-122435771D01*
X129861904Y-122435771D02*
X129861904Y-122673866D01*
X129861904Y-122673866D02*
X129814285Y-122864342D01*
X129814285Y-122864342D02*
X129766666Y-122959580D01*
X129766666Y-122959580D02*
X129719047Y-123007200D01*
X129719047Y-123007200D02*
X129623809Y-123054819D01*
X129623809Y-123054819D02*
X129528571Y-123054819D01*
X129528571Y-123054819D02*
X129433333Y-123007200D01*
X129433333Y-123007200D02*
X129385714Y-122959580D01*
X129385714Y-122959580D02*
X129338095Y-122864342D01*
X129338095Y-122864342D02*
X129290476Y-122673866D01*
X129290476Y-122673866D02*
X129290476Y-122435771D01*
X129290476Y-122435771D02*
X129338095Y-122245295D01*
X129338095Y-122245295D02*
X129385714Y-122150057D01*
X129385714Y-122150057D02*
X129433333Y-122102438D01*
X129433333Y-122102438D02*
X129528571Y-122054819D01*
X165657142Y-99959580D02*
X165609523Y-100007200D01*
X165609523Y-100007200D02*
X165466666Y-100054819D01*
X165466666Y-100054819D02*
X165371428Y-100054819D01*
X165371428Y-100054819D02*
X165228571Y-100007200D01*
X165228571Y-100007200D02*
X165133333Y-99911961D01*
X165133333Y-99911961D02*
X165085714Y-99816723D01*
X165085714Y-99816723D02*
X165038095Y-99626247D01*
X165038095Y-99626247D02*
X165038095Y-99483390D01*
X165038095Y-99483390D02*
X165085714Y-99292914D01*
X165085714Y-99292914D02*
X165133333Y-99197676D01*
X165133333Y-99197676D02*
X165228571Y-99102438D01*
X165228571Y-99102438D02*
X165371428Y-99054819D01*
X165371428Y-99054819D02*
X165466666Y-99054819D01*
X165466666Y-99054819D02*
X165609523Y-99102438D01*
X165609523Y-99102438D02*
X165657142Y-99150057D01*
X166609523Y-100054819D02*
X166038095Y-100054819D01*
X166323809Y-100054819D02*
X166323809Y-99054819D01*
X166323809Y-99054819D02*
X166228571Y-99197676D01*
X166228571Y-99197676D02*
X166133333Y-99292914D01*
X166133333Y-99292914D02*
X166038095Y-99340533D01*
X167561904Y-100054819D02*
X166990476Y-100054819D01*
X167276190Y-100054819D02*
X167276190Y-99054819D01*
X167276190Y-99054819D02*
X167180952Y-99197676D01*
X167180952Y-99197676D02*
X167085714Y-99292914D01*
X167085714Y-99292914D02*
X166990476Y-99340533D01*
X154638095Y-116054819D02*
X154638095Y-116864342D01*
X154638095Y-116864342D02*
X154685714Y-116959580D01*
X154685714Y-116959580D02*
X154733333Y-117007200D01*
X154733333Y-117007200D02*
X154828571Y-117054819D01*
X154828571Y-117054819D02*
X155019047Y-117054819D01*
X155019047Y-117054819D02*
X155114285Y-117007200D01*
X155114285Y-117007200D02*
X155161904Y-116959580D01*
X155161904Y-116959580D02*
X155209523Y-116864342D01*
X155209523Y-116864342D02*
X155209523Y-116054819D01*
X155590476Y-116054819D02*
X156209523Y-116054819D01*
X156209523Y-116054819D02*
X155876190Y-116435771D01*
X155876190Y-116435771D02*
X156019047Y-116435771D01*
X156019047Y-116435771D02*
X156114285Y-116483390D01*
X156114285Y-116483390D02*
X156161904Y-116531009D01*
X156161904Y-116531009D02*
X156209523Y-116626247D01*
X156209523Y-116626247D02*
X156209523Y-116864342D01*
X156209523Y-116864342D02*
X156161904Y-116959580D01*
X156161904Y-116959580D02*
X156114285Y-117007200D01*
X156114285Y-117007200D02*
X156019047Y-117054819D01*
X156019047Y-117054819D02*
X155733333Y-117054819D01*
X155733333Y-117054819D02*
X155638095Y-117007200D01*
X155638095Y-117007200D02*
X155590476Y-116959580D01*
X149633333Y-123359580D02*
X149585714Y-123407200D01*
X149585714Y-123407200D02*
X149442857Y-123454819D01*
X149442857Y-123454819D02*
X149347619Y-123454819D01*
X149347619Y-123454819D02*
X149204762Y-123407200D01*
X149204762Y-123407200D02*
X149109524Y-123311961D01*
X149109524Y-123311961D02*
X149061905Y-123216723D01*
X149061905Y-123216723D02*
X149014286Y-123026247D01*
X149014286Y-123026247D02*
X149014286Y-122883390D01*
X149014286Y-122883390D02*
X149061905Y-122692914D01*
X149061905Y-122692914D02*
X149109524Y-122597676D01*
X149109524Y-122597676D02*
X149204762Y-122502438D01*
X149204762Y-122502438D02*
X149347619Y-122454819D01*
X149347619Y-122454819D02*
X149442857Y-122454819D01*
X149442857Y-122454819D02*
X149585714Y-122502438D01*
X149585714Y-122502438D02*
X149633333Y-122550057D01*
X150538095Y-122454819D02*
X150061905Y-122454819D01*
X150061905Y-122454819D02*
X150014286Y-122931009D01*
X150014286Y-122931009D02*
X150061905Y-122883390D01*
X150061905Y-122883390D02*
X150157143Y-122835771D01*
X150157143Y-122835771D02*
X150395238Y-122835771D01*
X150395238Y-122835771D02*
X150490476Y-122883390D01*
X150490476Y-122883390D02*
X150538095Y-122931009D01*
X150538095Y-122931009D02*
X150585714Y-123026247D01*
X150585714Y-123026247D02*
X150585714Y-123264342D01*
X150585714Y-123264342D02*
X150538095Y-123359580D01*
X150538095Y-123359580D02*
X150490476Y-123407200D01*
X150490476Y-123407200D02*
X150395238Y-123454819D01*
X150395238Y-123454819D02*
X150157143Y-123454819D01*
X150157143Y-123454819D02*
X150061905Y-123407200D01*
X150061905Y-123407200D02*
X150014286Y-123359580D01*
X171088095Y-84054819D02*
X171088095Y-84864342D01*
X171088095Y-84864342D02*
X171135714Y-84959580D01*
X171135714Y-84959580D02*
X171183333Y-85007200D01*
X171183333Y-85007200D02*
X171278571Y-85054819D01*
X171278571Y-85054819D02*
X171469047Y-85054819D01*
X171469047Y-85054819D02*
X171564285Y-85007200D01*
X171564285Y-85007200D02*
X171611904Y-84959580D01*
X171611904Y-84959580D02*
X171659523Y-84864342D01*
X171659523Y-84864342D02*
X171659523Y-84054819D01*
X172659523Y-85054819D02*
X172088095Y-85054819D01*
X172373809Y-85054819D02*
X172373809Y-84054819D01*
X172373809Y-84054819D02*
X172278571Y-84197676D01*
X172278571Y-84197676D02*
X172183333Y-84292914D01*
X172183333Y-84292914D02*
X172088095Y-84340533D01*
X171088095Y-116054819D02*
X171088095Y-116864342D01*
X171088095Y-116864342D02*
X171135714Y-116959580D01*
X171135714Y-116959580D02*
X171183333Y-117007200D01*
X171183333Y-117007200D02*
X171278571Y-117054819D01*
X171278571Y-117054819D02*
X171469047Y-117054819D01*
X171469047Y-117054819D02*
X171564285Y-117007200D01*
X171564285Y-117007200D02*
X171611904Y-116959580D01*
X171611904Y-116959580D02*
X171659523Y-116864342D01*
X171659523Y-116864342D02*
X171659523Y-116054819D01*
X172088095Y-116150057D02*
X172135714Y-116102438D01*
X172135714Y-116102438D02*
X172230952Y-116054819D01*
X172230952Y-116054819D02*
X172469047Y-116054819D01*
X172469047Y-116054819D02*
X172564285Y-116102438D01*
X172564285Y-116102438D02*
X172611904Y-116150057D01*
X172611904Y-116150057D02*
X172659523Y-116245295D01*
X172659523Y-116245295D02*
X172659523Y-116340533D01*
X172659523Y-116340533D02*
X172611904Y-116483390D01*
X172611904Y-116483390D02*
X172040476Y-117054819D01*
X172040476Y-117054819D02*
X172659523Y-117054819D01*
X176807142Y-100309580D02*
X176759523Y-100357200D01*
X176759523Y-100357200D02*
X176616666Y-100404819D01*
X176616666Y-100404819D02*
X176521428Y-100404819D01*
X176521428Y-100404819D02*
X176378571Y-100357200D01*
X176378571Y-100357200D02*
X176283333Y-100261961D01*
X176283333Y-100261961D02*
X176235714Y-100166723D01*
X176235714Y-100166723D02*
X176188095Y-99976247D01*
X176188095Y-99976247D02*
X176188095Y-99833390D01*
X176188095Y-99833390D02*
X176235714Y-99642914D01*
X176235714Y-99642914D02*
X176283333Y-99547676D01*
X176283333Y-99547676D02*
X176378571Y-99452438D01*
X176378571Y-99452438D02*
X176521428Y-99404819D01*
X176521428Y-99404819D02*
X176616666Y-99404819D01*
X176616666Y-99404819D02*
X176759523Y-99452438D01*
X176759523Y-99452438D02*
X176807142Y-99500057D01*
X177759523Y-100404819D02*
X177188095Y-100404819D01*
X177473809Y-100404819D02*
X177473809Y-99404819D01*
X177473809Y-99404819D02*
X177378571Y-99547676D01*
X177378571Y-99547676D02*
X177283333Y-99642914D01*
X177283333Y-99642914D02*
X177188095Y-99690533D01*
X178140476Y-99500057D02*
X178188095Y-99452438D01*
X178188095Y-99452438D02*
X178283333Y-99404819D01*
X178283333Y-99404819D02*
X178521428Y-99404819D01*
X178521428Y-99404819D02*
X178616666Y-99452438D01*
X178616666Y-99452438D02*
X178664285Y-99500057D01*
X178664285Y-99500057D02*
X178711904Y-99595295D01*
X178711904Y-99595295D02*
X178711904Y-99690533D01*
X178711904Y-99690533D02*
X178664285Y-99833390D01*
X178664285Y-99833390D02*
X178092857Y-100404819D01*
X178092857Y-100404819D02*
X178711904Y-100404819D01*
X138238095Y-116054819D02*
X138238095Y-116864342D01*
X138238095Y-116864342D02*
X138285714Y-116959580D01*
X138285714Y-116959580D02*
X138333333Y-117007200D01*
X138333333Y-117007200D02*
X138428571Y-117054819D01*
X138428571Y-117054819D02*
X138619047Y-117054819D01*
X138619047Y-117054819D02*
X138714285Y-117007200D01*
X138714285Y-117007200D02*
X138761904Y-116959580D01*
X138761904Y-116959580D02*
X138809523Y-116864342D01*
X138809523Y-116864342D02*
X138809523Y-116054819D01*
X139714285Y-116388152D02*
X139714285Y-117054819D01*
X139476190Y-116007200D02*
X139238095Y-116721485D01*
X139238095Y-116721485D02*
X139857142Y-116721485D01*
X166183333Y-123009580D02*
X166135714Y-123057200D01*
X166135714Y-123057200D02*
X165992857Y-123104819D01*
X165992857Y-123104819D02*
X165897619Y-123104819D01*
X165897619Y-123104819D02*
X165754762Y-123057200D01*
X165754762Y-123057200D02*
X165659524Y-122961961D01*
X165659524Y-122961961D02*
X165611905Y-122866723D01*
X165611905Y-122866723D02*
X165564286Y-122676247D01*
X165564286Y-122676247D02*
X165564286Y-122533390D01*
X165564286Y-122533390D02*
X165611905Y-122342914D01*
X165611905Y-122342914D02*
X165659524Y-122247676D01*
X165659524Y-122247676D02*
X165754762Y-122152438D01*
X165754762Y-122152438D02*
X165897619Y-122104819D01*
X165897619Y-122104819D02*
X165992857Y-122104819D01*
X165992857Y-122104819D02*
X166135714Y-122152438D01*
X166135714Y-122152438D02*
X166183333Y-122200057D01*
X166516667Y-122104819D02*
X167135714Y-122104819D01*
X167135714Y-122104819D02*
X166802381Y-122485771D01*
X166802381Y-122485771D02*
X166945238Y-122485771D01*
X166945238Y-122485771D02*
X167040476Y-122533390D01*
X167040476Y-122533390D02*
X167088095Y-122581009D01*
X167088095Y-122581009D02*
X167135714Y-122676247D01*
X167135714Y-122676247D02*
X167135714Y-122914342D01*
X167135714Y-122914342D02*
X167088095Y-123009580D01*
X167088095Y-123009580D02*
X167040476Y-123057200D01*
X167040476Y-123057200D02*
X166945238Y-123104819D01*
X166945238Y-123104819D02*
X166659524Y-123104819D01*
X166659524Y-123104819D02*
X166564286Y-123057200D01*
X166564286Y-123057200D02*
X166516667Y-123009580D01*
X177283333Y-122909580D02*
X177235714Y-122957200D01*
X177235714Y-122957200D02*
X177092857Y-123004819D01*
X177092857Y-123004819D02*
X176997619Y-123004819D01*
X176997619Y-123004819D02*
X176854762Y-122957200D01*
X176854762Y-122957200D02*
X176759524Y-122861961D01*
X176759524Y-122861961D02*
X176711905Y-122766723D01*
X176711905Y-122766723D02*
X176664286Y-122576247D01*
X176664286Y-122576247D02*
X176664286Y-122433390D01*
X176664286Y-122433390D02*
X176711905Y-122242914D01*
X176711905Y-122242914D02*
X176759524Y-122147676D01*
X176759524Y-122147676D02*
X176854762Y-122052438D01*
X176854762Y-122052438D02*
X176997619Y-122004819D01*
X176997619Y-122004819D02*
X177092857Y-122004819D01*
X177092857Y-122004819D02*
X177235714Y-122052438D01*
X177235714Y-122052438D02*
X177283333Y-122100057D01*
X178140476Y-122338152D02*
X178140476Y-123004819D01*
X177902381Y-121957200D02*
X177664286Y-122671485D01*
X177664286Y-122671485D02*
X178283333Y-122671485D01*
D11*
X183206654Y-130548742D02*
X183782387Y-130548742D01*
X182877664Y-130754361D02*
X183494521Y-130959980D01*
X183494521Y-130959980D02*
X183494521Y-130425371D01*
X182918787Y-129685142D02*
X182918787Y-130096380D01*
X182918787Y-130096380D02*
X183330025Y-130137504D01*
X183330025Y-130137504D02*
X183288902Y-130096380D01*
X183288902Y-130096380D02*
X183247778Y-130014133D01*
X183247778Y-130014133D02*
X183247778Y-129808514D01*
X183247778Y-129808514D02*
X183288902Y-129726266D01*
X183288902Y-129726266D02*
X183330025Y-129685142D01*
X183330025Y-129685142D02*
X183412273Y-129644019D01*
X183412273Y-129644019D02*
X183617892Y-129644019D01*
X183617892Y-129644019D02*
X183700140Y-129685142D01*
X183700140Y-129685142D02*
X183741264Y-129726266D01*
X183741264Y-129726266D02*
X183782387Y-129808514D01*
X183782387Y-129808514D02*
X183782387Y-130014133D01*
X183782387Y-130014133D02*
X183741264Y-130096380D01*
X183741264Y-130096380D02*
X183700140Y-130137504D01*
D12*
X122793983Y-81568773D02*
X121714483Y-81568773D01*
X121714483Y-81568773D02*
X121714483Y-81157535D01*
X121714483Y-81157535D02*
X121765888Y-81054725D01*
X121765888Y-81054725D02*
X121817293Y-81003320D01*
X121817293Y-81003320D02*
X121920102Y-80951916D01*
X121920102Y-80951916D02*
X122074317Y-80951916D01*
X122074317Y-80951916D02*
X122177126Y-81003320D01*
X122177126Y-81003320D02*
X122228531Y-81054725D01*
X122228531Y-81054725D02*
X122279936Y-81157535D01*
X122279936Y-81157535D02*
X122279936Y-81568773D01*
X122177126Y-80335058D02*
X122125721Y-80437868D01*
X122125721Y-80437868D02*
X122074317Y-80489273D01*
X122074317Y-80489273D02*
X121971507Y-80540677D01*
X121971507Y-80540677D02*
X121920102Y-80540677D01*
X121920102Y-80540677D02*
X121817293Y-80489273D01*
X121817293Y-80489273D02*
X121765888Y-80437868D01*
X121765888Y-80437868D02*
X121714483Y-80335058D01*
X121714483Y-80335058D02*
X121714483Y-80129439D01*
X121714483Y-80129439D02*
X121765888Y-80026630D01*
X121765888Y-80026630D02*
X121817293Y-79975225D01*
X121817293Y-79975225D02*
X121920102Y-79923820D01*
X121920102Y-79923820D02*
X121971507Y-79923820D01*
X121971507Y-79923820D02*
X122074317Y-79975225D01*
X122074317Y-79975225D02*
X122125721Y-80026630D01*
X122125721Y-80026630D02*
X122177126Y-80129439D01*
X122177126Y-80129439D02*
X122177126Y-80335058D01*
X122177126Y-80335058D02*
X122228531Y-80437868D01*
X122228531Y-80437868D02*
X122279936Y-80489273D01*
X122279936Y-80489273D02*
X122382745Y-80540677D01*
X122382745Y-80540677D02*
X122588364Y-80540677D01*
X122588364Y-80540677D02*
X122691174Y-80489273D01*
X122691174Y-80489273D02*
X122742579Y-80437868D01*
X122742579Y-80437868D02*
X122793983Y-80335058D01*
X122793983Y-80335058D02*
X122793983Y-80129439D01*
X122793983Y-80129439D02*
X122742579Y-80026630D01*
X122742579Y-80026630D02*
X122691174Y-79975225D01*
X122691174Y-79975225D02*
X122588364Y-79923820D01*
X122588364Y-79923820D02*
X122382745Y-79923820D01*
X122382745Y-79923820D02*
X122279936Y-79975225D01*
X122279936Y-79975225D02*
X122228531Y-80026630D01*
X122228531Y-80026630D02*
X122177126Y-80129439D01*
D11*
X183206654Y-79748742D02*
X183782387Y-79748742D01*
X182877664Y-79954361D02*
X183494521Y-80159980D01*
X183494521Y-80159980D02*
X183494521Y-79625371D01*
X182918787Y-78926266D02*
X182918787Y-79090761D01*
X182918787Y-79090761D02*
X182959911Y-79173009D01*
X182959911Y-79173009D02*
X183001035Y-79214133D01*
X183001035Y-79214133D02*
X183124406Y-79296380D01*
X183124406Y-79296380D02*
X183288902Y-79337504D01*
X183288902Y-79337504D02*
X183617892Y-79337504D01*
X183617892Y-79337504D02*
X183700140Y-79296380D01*
X183700140Y-79296380D02*
X183741264Y-79255257D01*
X183741264Y-79255257D02*
X183782387Y-79173009D01*
X183782387Y-79173009D02*
X183782387Y-79008514D01*
X183782387Y-79008514D02*
X183741264Y-78926266D01*
X183741264Y-78926266D02*
X183700140Y-78885142D01*
X183700140Y-78885142D02*
X183617892Y-78844019D01*
X183617892Y-78844019D02*
X183412273Y-78844019D01*
X183412273Y-78844019D02*
X183330025Y-78885142D01*
X183330025Y-78885142D02*
X183288902Y-78926266D01*
X183288902Y-78926266D02*
X183247778Y-79008514D01*
X183247778Y-79008514D02*
X183247778Y-79173009D01*
X183247778Y-79173009D02*
X183288902Y-79255257D01*
X183288902Y-79255257D02*
X183330025Y-79296380D01*
X183330025Y-79296380D02*
X183412273Y-79337504D01*
D12*
X122793983Y-129828773D02*
X121714483Y-129828773D01*
X121714483Y-129828773D02*
X121714483Y-129417535D01*
X121714483Y-129417535D02*
X121765888Y-129314725D01*
X121765888Y-129314725D02*
X121817293Y-129263320D01*
X121817293Y-129263320D02*
X121920102Y-129211916D01*
X121920102Y-129211916D02*
X122074317Y-129211916D01*
X122074317Y-129211916D02*
X122177126Y-129263320D01*
X122177126Y-129263320D02*
X122228531Y-129314725D01*
X122228531Y-129314725D02*
X122279936Y-129417535D01*
X122279936Y-129417535D02*
X122279936Y-129828773D01*
X122793983Y-128697868D02*
X122793983Y-128492249D01*
X122793983Y-128492249D02*
X122742579Y-128389439D01*
X122742579Y-128389439D02*
X122691174Y-128338035D01*
X122691174Y-128338035D02*
X122536959Y-128235225D01*
X122536959Y-128235225D02*
X122331340Y-128183820D01*
X122331340Y-128183820D02*
X121920102Y-128183820D01*
X121920102Y-128183820D02*
X121817293Y-128235225D01*
X121817293Y-128235225D02*
X121765888Y-128286630D01*
X121765888Y-128286630D02*
X121714483Y-128389439D01*
X121714483Y-128389439D02*
X121714483Y-128595058D01*
X121714483Y-128595058D02*
X121765888Y-128697868D01*
X121765888Y-128697868D02*
X121817293Y-128749273D01*
X121817293Y-128749273D02*
X121920102Y-128800677D01*
X121920102Y-128800677D02*
X122177126Y-128800677D01*
X122177126Y-128800677D02*
X122279936Y-128749273D01*
X122279936Y-128749273D02*
X122331340Y-128697868D01*
X122331340Y-128697868D02*
X122382745Y-128595058D01*
X122382745Y-128595058D02*
X122382745Y-128389439D01*
X122382745Y-128389439D02*
X122331340Y-128286630D01*
X122331340Y-128286630D02*
X122279936Y-128235225D01*
X122279936Y-128235225D02*
X122177126Y-128183820D01*
D11*
X124092387Y-130055257D02*
X124092387Y-130548742D01*
X124092387Y-130301999D02*
X123228787Y-130301999D01*
X123228787Y-130301999D02*
X123352159Y-130384247D01*
X123352159Y-130384247D02*
X123434406Y-130466495D01*
X123434406Y-130466495D02*
X123475530Y-130548742D01*
D12*
X124063983Y-81733570D02*
X124063983Y-82350427D01*
X124063983Y-82041999D02*
X122984483Y-82041999D01*
X122984483Y-82041999D02*
X123138698Y-82144808D01*
X123138698Y-82144808D02*
X123241507Y-82247618D01*
X123241507Y-82247618D02*
X123292912Y-82350427D01*
D11*
X183206654Y-128008742D02*
X183782387Y-128008742D01*
X182877664Y-128214361D02*
X183494521Y-128419980D01*
X183494521Y-128419980D02*
X183494521Y-127885371D01*
X182918787Y-127186266D02*
X182918787Y-127350761D01*
X182918787Y-127350761D02*
X182959911Y-127433009D01*
X182959911Y-127433009D02*
X183001035Y-127474133D01*
X183001035Y-127474133D02*
X183124406Y-127556380D01*
X183124406Y-127556380D02*
X183288902Y-127597504D01*
X183288902Y-127597504D02*
X183617892Y-127597504D01*
X183617892Y-127597504D02*
X183700140Y-127556380D01*
X183700140Y-127556380D02*
X183741264Y-127515257D01*
X183741264Y-127515257D02*
X183782387Y-127433009D01*
X183782387Y-127433009D02*
X183782387Y-127268514D01*
X183782387Y-127268514D02*
X183741264Y-127186266D01*
X183741264Y-127186266D02*
X183700140Y-127145142D01*
X183700140Y-127145142D02*
X183617892Y-127104019D01*
X183617892Y-127104019D02*
X183412273Y-127104019D01*
X183412273Y-127104019D02*
X183330025Y-127145142D01*
X183330025Y-127145142D02*
X183288902Y-127186266D01*
X183288902Y-127186266D02*
X183247778Y-127268514D01*
X183247778Y-127268514D02*
X183247778Y-127433009D01*
X183247778Y-127433009D02*
X183288902Y-127515257D01*
X183288902Y-127515257D02*
X183330025Y-127556380D01*
X183330025Y-127556380D02*
X183412273Y-127597504D01*
X123311035Y-128008742D02*
X123269911Y-127967618D01*
X123269911Y-127967618D02*
X123228787Y-127885371D01*
X123228787Y-127885371D02*
X123228787Y-127679752D01*
X123228787Y-127679752D02*
X123269911Y-127597504D01*
X123269911Y-127597504D02*
X123311035Y-127556380D01*
X123311035Y-127556380D02*
X123393283Y-127515257D01*
X123393283Y-127515257D02*
X123475530Y-127515257D01*
X123475530Y-127515257D02*
X123598902Y-127556380D01*
X123598902Y-127556380D02*
X124092387Y-128049866D01*
X124092387Y-128049866D02*
X124092387Y-127515257D01*
X123311035Y-79748742D02*
X123269911Y-79707618D01*
X123269911Y-79707618D02*
X123228787Y-79625371D01*
X123228787Y-79625371D02*
X123228787Y-79419752D01*
X123228787Y-79419752D02*
X123269911Y-79337504D01*
X123269911Y-79337504D02*
X123311035Y-79296380D01*
X123311035Y-79296380D02*
X123393283Y-79255257D01*
X123393283Y-79255257D02*
X123475530Y-79255257D01*
X123475530Y-79255257D02*
X123598902Y-79296380D01*
X123598902Y-79296380D02*
X124092387Y-79789866D01*
X124092387Y-79789866D02*
X124092387Y-79255257D01*
X183206654Y-82288742D02*
X183782387Y-82288742D01*
X182877664Y-82494361D02*
X183494521Y-82699980D01*
X183494521Y-82699980D02*
X183494521Y-82165371D01*
X182918787Y-81425142D02*
X182918787Y-81836380D01*
X182918787Y-81836380D02*
X183330025Y-81877504D01*
X183330025Y-81877504D02*
X183288902Y-81836380D01*
X183288902Y-81836380D02*
X183247778Y-81754133D01*
X183247778Y-81754133D02*
X183247778Y-81548514D01*
X183247778Y-81548514D02*
X183288902Y-81466266D01*
X183288902Y-81466266D02*
X183330025Y-81425142D01*
X183330025Y-81425142D02*
X183412273Y-81384019D01*
X183412273Y-81384019D02*
X183617892Y-81384019D01*
X183617892Y-81384019D02*
X183700140Y-81425142D01*
X183700140Y-81425142D02*
X183741264Y-81466266D01*
X183741264Y-81466266D02*
X183782387Y-81548514D01*
X183782387Y-81548514D02*
X183782387Y-81754133D01*
X183782387Y-81754133D02*
X183741264Y-81836380D01*
X183741264Y-81836380D02*
X183700140Y-81877504D01*
D13*
X156850000Y-97310000D02*
X156850000Y-96660000D01*
X155730000Y-96660000D02*
X157970000Y-96660000D01*
X157970000Y-96660000D02*
X157970000Y-92420000D01*
X155730000Y-96060000D02*
X157970000Y-96060000D01*
X155730000Y-95940000D02*
X157970000Y-95940000D01*
X155730000Y-95820000D02*
X157970000Y-95820000D01*
X155730000Y-92420000D02*
X155730000Y-96660000D01*
X157970000Y-92420000D02*
X155730000Y-92420000D01*
X156850000Y-91770000D02*
X156850000Y-92420000D01*
X154310000Y-97310000D02*
X154310000Y-96660000D01*
X153190000Y-96660000D02*
X155430000Y-96660000D01*
X155430000Y-96660000D02*
X155430000Y-92420000D01*
X153190000Y-96060000D02*
X155430000Y-96060000D01*
X153190000Y-95940000D02*
X155430000Y-95940000D01*
X153190000Y-95820000D02*
X155430000Y-95820000D01*
X153190000Y-92420000D02*
X153190000Y-96660000D01*
X155430000Y-92420000D02*
X153190000Y-92420000D01*
X154310000Y-91770000D02*
X154310000Y-92420000D01*
X151770000Y-97310000D02*
X151770000Y-96660000D01*
X150650000Y-96660000D02*
X152890000Y-96660000D01*
X152890000Y-96660000D02*
X152890000Y-92420000D01*
X150650000Y-96060000D02*
X152890000Y-96060000D01*
X150650000Y-95940000D02*
X152890000Y-95940000D01*
X150650000Y-95820000D02*
X152890000Y-95820000D01*
X150650000Y-92420000D02*
X150650000Y-96660000D01*
X152890000Y-92420000D02*
X150650000Y-92420000D01*
X151770000Y-91770000D02*
X151770000Y-92420000D01*
X149230000Y-97310000D02*
X149230000Y-96660000D01*
X148110000Y-96660000D02*
X150350000Y-96660000D01*
X150350000Y-96660000D02*
X150350000Y-92420000D01*
X148110000Y-96060000D02*
X150350000Y-96060000D01*
X148110000Y-95940000D02*
X150350000Y-95940000D01*
X148110000Y-95820000D02*
X150350000Y-95820000D01*
X148110000Y-92420000D02*
X148110000Y-96660000D01*
X150350000Y-92420000D02*
X148110000Y-92420000D01*
X149230000Y-91770000D02*
X149230000Y-92420000D01*
X146690000Y-97310000D02*
X146690000Y-96660000D01*
X145570000Y-96660000D02*
X147810000Y-96660000D01*
X147810000Y-96660000D02*
X147810000Y-92420000D01*
X145570000Y-96060000D02*
X147810000Y-96060000D01*
X145570000Y-95940000D02*
X147810000Y-95940000D01*
X145570000Y-95820000D02*
X147810000Y-95820000D01*
X145570000Y-92420000D02*
X145570000Y-96660000D01*
X147810000Y-92420000D02*
X145570000Y-92420000D01*
X146690000Y-91770000D02*
X146690000Y-92420000D01*
X175150000Y-104920000D02*
X175150000Y-106250000D01*
X173820000Y-104920000D02*
X175150000Y-104920000D01*
X172550000Y-104920000D02*
X164870000Y-104920000D01*
X172550000Y-104920000D02*
X172550000Y-107580000D01*
X164870000Y-104920000D02*
X164870000Y-107580000D01*
X172550000Y-107580000D02*
X164870000Y-107580000D01*
X171850000Y-94440000D02*
X169900000Y-94440000D01*
X171850000Y-94440000D02*
X173800000Y-94440000D01*
X171850000Y-99560000D02*
X169900000Y-99560000D01*
X171850000Y-99560000D02*
X173800000Y-99560000D01*
X169150000Y-94535000D02*
X168910000Y-94205000D01*
X169390000Y-94205000D01*
X169150000Y-94535000D01*
G36*
X169150000Y-94535000D02*
G01*
X168910000Y-94205000D01*
X169390000Y-94205000D01*
X169150000Y-94535000D01*
G37*
X116465000Y-120261252D02*
X116465000Y-119738748D01*
X117935000Y-120261252D02*
X117935000Y-119738748D01*
X122700000Y-117440000D02*
X120750000Y-117440000D01*
X122700000Y-117440000D02*
X124650000Y-117440000D01*
X122700000Y-122560000D02*
X120750000Y-122560000D01*
X122700000Y-122560000D02*
X124650000Y-122560000D01*
X120000000Y-117535000D02*
X119760000Y-117205000D01*
X120240000Y-117205000D01*
X120000000Y-117535000D01*
G36*
X120000000Y-117535000D02*
G01*
X119760000Y-117205000D01*
X120240000Y-117205000D01*
X120000000Y-117535000D01*
G37*
X129320000Y-92940000D02*
X130650000Y-92940000D01*
X129320000Y-94270000D02*
X129320000Y-92940000D01*
X129320000Y-95540000D02*
X129320000Y-113380000D01*
X129320000Y-95540000D02*
X131980000Y-95540000D01*
X129320000Y-113380000D02*
X131980000Y-113380000D01*
X131980000Y-95540000D02*
X131980000Y-113380000D01*
X120670000Y-88830000D02*
X120670000Y-87500000D01*
X122000000Y-88830000D02*
X120670000Y-88830000D01*
X123270000Y-88830000D02*
X130950000Y-88830000D01*
X123270000Y-88830000D02*
X123270000Y-86170000D01*
X130950000Y-88830000D02*
X130950000Y-86170000D01*
X123270000Y-86170000D02*
X130950000Y-86170000D01*
X161685000Y-119738748D02*
X161685000Y-120261252D01*
X160215000Y-119738748D02*
X160215000Y-120261252D01*
X176615000Y-87738748D02*
X176615000Y-88261252D01*
X178085000Y-87738748D02*
X178085000Y-88261252D01*
X145285000Y-119738748D02*
X145285000Y-120261252D01*
X143815000Y-119738748D02*
X143815000Y-120261252D01*
X132765000Y-120261252D02*
X132765000Y-119738748D01*
X134235000Y-120261252D02*
X134235000Y-119738748D01*
X165565000Y-88261252D02*
X165565000Y-87738748D01*
X167035000Y-88261252D02*
X167035000Y-87738748D01*
X128985000Y-119738748D02*
X128985000Y-120261252D01*
X127515000Y-119738748D02*
X127515000Y-120261252D01*
X165565000Y-97261252D02*
X165565000Y-96738748D01*
X167035000Y-97261252D02*
X167035000Y-96738748D01*
X155400000Y-117440000D02*
X153450000Y-117440000D01*
X155400000Y-117440000D02*
X157350000Y-117440000D01*
X155400000Y-122560000D02*
X153450000Y-122560000D01*
X155400000Y-122560000D02*
X157350000Y-122560000D01*
X152700000Y-117535000D02*
X152460000Y-117205000D01*
X152940000Y-117205000D01*
X152700000Y-117535000D01*
G36*
X152700000Y-117535000D02*
G01*
X152460000Y-117205000D01*
X152940000Y-117205000D01*
X152700000Y-117535000D01*
G37*
X140875000Y-91577064D02*
X140875000Y-91122936D01*
X142345000Y-91577064D02*
X142345000Y-91122936D01*
X143415000Y-91577064D02*
X143415000Y-91122936D01*
X144885000Y-91577064D02*
X144885000Y-91122936D01*
X149165000Y-120261252D02*
X149165000Y-119738748D01*
X150635000Y-120261252D02*
X150635000Y-119738748D01*
X175320000Y-110870000D02*
X175320000Y-112200000D01*
X173990000Y-110870000D02*
X175320000Y-110870000D01*
X172720000Y-110870000D02*
X154880000Y-110870000D01*
X172720000Y-110870000D02*
X172720000Y-113530000D01*
X154880000Y-110870000D02*
X154880000Y-113530000D01*
X172720000Y-113530000D02*
X154880000Y-113530000D01*
X138335000Y-91577064D02*
X138335000Y-91122936D01*
X139805000Y-91577064D02*
X139805000Y-91122936D01*
X171850000Y-85440000D02*
X169900000Y-85440000D01*
X171850000Y-85440000D02*
X173800000Y-85440000D01*
X171850000Y-90560000D02*
X169900000Y-90560000D01*
X171850000Y-90560000D02*
X173800000Y-90560000D01*
X169150000Y-85535000D02*
X168910000Y-85205000D01*
X169390000Y-85205000D01*
X169150000Y-85535000D01*
G36*
X169150000Y-85535000D02*
G01*
X168910000Y-85205000D01*
X169390000Y-85205000D01*
X169150000Y-85535000D01*
G37*
X171850000Y-117440000D02*
X169900000Y-117440000D01*
X171850000Y-117440000D02*
X173800000Y-117440000D01*
X171850000Y-122560000D02*
X169900000Y-122560000D01*
X171850000Y-122560000D02*
X173800000Y-122560000D01*
X169150000Y-117535000D02*
X168910000Y-117205000D01*
X169390000Y-117205000D01*
X169150000Y-117535000D01*
G36*
X169150000Y-117535000D02*
G01*
X168910000Y-117205000D01*
X169390000Y-117205000D01*
X169150000Y-117535000D01*
G37*
X135170000Y-88830000D02*
X135170000Y-87500000D01*
X136500000Y-88830000D02*
X135170000Y-88830000D01*
X137770000Y-88830000D02*
X158150000Y-88830000D01*
X137770000Y-88830000D02*
X137770000Y-86170000D01*
X158150000Y-88830000D02*
X158150000Y-86170000D01*
X137770000Y-86170000D02*
X158150000Y-86170000D01*
X178085000Y-96738748D02*
X178085000Y-97261252D01*
X176615000Y-96738748D02*
X176615000Y-97261252D01*
X139000000Y-117440000D02*
X137050000Y-117440000D01*
X139000000Y-117440000D02*
X140950000Y-117440000D01*
X139000000Y-122560000D02*
X137050000Y-122560000D01*
X139000000Y-122560000D02*
X140950000Y-122560000D01*
X136300000Y-117535000D02*
X136060000Y-117205000D01*
X136540000Y-117205000D01*
X136300000Y-117535000D01*
G36*
X136300000Y-117535000D02*
G01*
X136060000Y-117205000D01*
X136540000Y-117205000D01*
X136300000Y-117535000D01*
G37*
X135795000Y-91577064D02*
X135795000Y-91122936D01*
X137265000Y-91577064D02*
X137265000Y-91122936D01*
X165565000Y-120261252D02*
X165565000Y-119738748D01*
X167035000Y-120261252D02*
X167035000Y-119738748D01*
X178085000Y-119738748D02*
X178085000Y-120261252D01*
X176615000Y-119738748D02*
X176615000Y-120261252D01*
M02*
