%TF.GenerationSoftware,KiCad,Pcbnew,8.0.6*%
%TF.CreationDate,2025-01-14T12:11:02-05:00*%
%TF.ProjectId,usb_lin,7573625f-6c69-46e2-9e6b-696361645f70,rev?*%
%TF.SameCoordinates,Original*%
%TF.FileFunction,Drillmap*%
%TF.FilePolarity,Positive*%
%FSLAX45Y45*%
G04 Gerber Fmt 4.5, Leading zero omitted, Abs format (unit mm)*
G04 Created by KiCad (PCBNEW 8.0.6) date 2025-01-14 12:11:02*
%MOMM*%
%LPD*%
G01*
G04 APERTURE LIST*
%ADD10C,0.150000*%
%ADD11C,0.200000*%
%ADD12C,0.100000*%
%ADD13C,0.233000*%
%ADD14C,0.270000*%
G04 APERTURE END LIST*
D10*
X19000000Y-8000000D02*
X13000000Y-8000000D01*
X13000000Y-8000000D02*
X13000000Y-13000000D01*
X13000000Y-13000000D02*
X19000000Y-13000000D01*
X19000000Y-13000000D02*
X19000000Y-8000000D01*
D11*
D12*
X15560000Y-9647500D02*
X15600000Y-9687500D01*
X15600000Y-9647500D02*
X15560000Y-9687500D01*
X15715000Y-10095500D02*
X15755000Y-10135500D01*
X15755000Y-10095500D02*
X15715000Y-10135500D01*
X16230000Y-10000000D02*
X16270000Y-10040000D01*
X16270000Y-10000000D02*
X16230000Y-10040000D01*
X16290000Y-11340000D02*
X16330000Y-11380000D01*
X16330000Y-11340000D02*
X16290000Y-11380000D01*
X16950000Y-10480000D02*
X16990000Y-10520000D01*
X16990000Y-10480000D02*
X16950000Y-10520000D01*
X17015000Y-10240000D02*
X17055000Y-10280000D01*
X17055000Y-10240000D02*
X17015000Y-10280000D01*
X17490000Y-10850000D02*
X17530000Y-10890000D01*
X17530000Y-10850000D02*
X17490000Y-10890000D01*
X17500000Y-10345000D02*
X17540000Y-10385000D01*
X17540000Y-10345000D02*
X17500000Y-10385000D01*
X15350000Y-10512000D02*
G75*
G02*
X15270000Y-10512000I-40000J0D01*
G01*
X15270000Y-10512000D02*
G75*
G02*
X15350000Y-10512000I40000J0D01*
G01*
X15350000Y-11000000D02*
G75*
G02*
X15270000Y-11000000I-40000J0D01*
G01*
X15270000Y-11000000D02*
G75*
G02*
X15350000Y-11000000I40000J0D01*
G01*
X17507000Y-9420000D02*
X17507000Y-9510000D01*
X17462000Y-9465000D02*
X17552000Y-9465000D01*
X18523000Y-9420000D02*
X18523000Y-9510000D01*
X18478000Y-9465000D02*
X18568000Y-9465000D01*
X14382527Y-10372527D02*
X14382527Y-10307473D01*
X14317473Y-10307473D01*
X14317473Y-10372527D01*
X14382527Y-10372527D01*
X14382527Y-10622527D02*
X14382527Y-10557473D01*
X14317473Y-10557473D01*
X14317473Y-10622527D01*
X14382527Y-10622527D01*
X14582527Y-10372527D02*
X14582527Y-10307473D01*
X14517473Y-10307473D01*
X14517473Y-10372527D01*
X14582527Y-10372527D01*
X14582527Y-10622527D02*
X14582527Y-10557473D01*
X14517473Y-10557473D01*
X14517473Y-10622527D01*
X14582527Y-10622527D01*
X18500000Y-10305000D02*
X18550000Y-10255000D01*
X18500000Y-10205000D01*
X18450000Y-10255000D01*
X18500000Y-10305000D01*
X18500000Y-10559000D02*
X18550000Y-10509000D01*
X18500000Y-10459000D01*
X18450000Y-10509000D01*
X18500000Y-10559000D01*
X18500000Y-10813000D02*
X18550000Y-10763000D01*
X18500000Y-10713000D01*
X18450000Y-10763000D01*
X18500000Y-10813000D01*
D13*
X13962500Y-9746500D02*
X14195500Y-9979500D01*
X14195500Y-9746500D02*
X13962500Y-9979500D01*
X14195500Y-9863000D02*
G75*
G02*
X13962500Y-9863000I-116500J0D01*
G01*
X13962500Y-9863000D02*
G75*
G02*
X14195500Y-9863000I116500J0D01*
G01*
X13962500Y-10950500D02*
X14195500Y-11183500D01*
X14195500Y-10950500D02*
X13962500Y-11183500D01*
X14195500Y-11067000D02*
G75*
G02*
X13962500Y-11067000I-116500J0D01*
G01*
X13962500Y-11067000D02*
G75*
G02*
X14195500Y-11067000I116500J0D01*
G01*
D14*
X13365000Y-8365000D02*
X13635000Y-8635000D01*
X13635000Y-8365000D02*
X13365000Y-8635000D01*
X13500000Y-8365000D02*
X13500000Y-8635000D01*
X13365000Y-8500000D02*
X13635000Y-8500000D01*
X13365000Y-12365000D02*
X13635000Y-12635000D01*
X13635000Y-12365000D02*
X13365000Y-12635000D01*
X13500000Y-12365000D02*
X13500000Y-12635000D01*
X13365000Y-12500000D02*
X13635000Y-12500000D01*
X18365000Y-8365000D02*
X18635000Y-8635000D01*
X18635000Y-8365000D02*
X18365000Y-8635000D01*
X18500000Y-8365000D02*
X18500000Y-8635000D01*
X18365000Y-8500000D02*
X18635000Y-8500000D01*
X18365000Y-12365000D02*
X18635000Y-12635000D01*
X18635000Y-12365000D02*
X18365000Y-12635000D01*
X18500000Y-12365000D02*
X18500000Y-12635000D01*
X18365000Y-12500000D02*
X18635000Y-12500000D01*
D11*
X13253277Y-13318984D02*
X13253277Y-13118984D01*
X13253277Y-13118984D02*
X13300896Y-13118984D01*
X13300896Y-13118984D02*
X13329467Y-13128508D01*
X13329467Y-13128508D02*
X13348515Y-13147555D01*
X13348515Y-13147555D02*
X13358039Y-13166603D01*
X13358039Y-13166603D02*
X13367562Y-13204698D01*
X13367562Y-13204698D02*
X13367562Y-13233269D01*
X13367562Y-13233269D02*
X13358039Y-13271365D01*
X13358039Y-13271365D02*
X13348515Y-13290412D01*
X13348515Y-13290412D02*
X13329467Y-13309460D01*
X13329467Y-13309460D02*
X13300896Y-13318984D01*
X13300896Y-13318984D02*
X13253277Y-13318984D01*
X13453277Y-13318984D02*
X13453277Y-13185650D01*
X13453277Y-13223746D02*
X13462801Y-13204698D01*
X13462801Y-13204698D02*
X13472324Y-13195174D01*
X13472324Y-13195174D02*
X13491372Y-13185650D01*
X13491372Y-13185650D02*
X13510420Y-13185650D01*
X13577086Y-13318984D02*
X13577086Y-13185650D01*
X13577086Y-13118984D02*
X13567562Y-13128508D01*
X13567562Y-13128508D02*
X13577086Y-13138031D01*
X13577086Y-13138031D02*
X13586610Y-13128508D01*
X13586610Y-13128508D02*
X13577086Y-13118984D01*
X13577086Y-13118984D02*
X13577086Y-13138031D01*
X13700896Y-13318984D02*
X13681848Y-13309460D01*
X13681848Y-13309460D02*
X13672324Y-13290412D01*
X13672324Y-13290412D02*
X13672324Y-13118984D01*
X13805658Y-13318984D02*
X13786610Y-13309460D01*
X13786610Y-13309460D02*
X13777086Y-13290412D01*
X13777086Y-13290412D02*
X13777086Y-13118984D01*
X14034229Y-13318984D02*
X14034229Y-13118984D01*
X14034229Y-13118984D02*
X14100896Y-13261841D01*
X14100896Y-13261841D02*
X14167562Y-13118984D01*
X14167562Y-13118984D02*
X14167562Y-13318984D01*
X14348515Y-13318984D02*
X14348515Y-13214222D01*
X14348515Y-13214222D02*
X14338991Y-13195174D01*
X14338991Y-13195174D02*
X14319943Y-13185650D01*
X14319943Y-13185650D02*
X14281848Y-13185650D01*
X14281848Y-13185650D02*
X14262801Y-13195174D01*
X14348515Y-13309460D02*
X14329467Y-13318984D01*
X14329467Y-13318984D02*
X14281848Y-13318984D01*
X14281848Y-13318984D02*
X14262801Y-13309460D01*
X14262801Y-13309460D02*
X14253277Y-13290412D01*
X14253277Y-13290412D02*
X14253277Y-13271365D01*
X14253277Y-13271365D02*
X14262801Y-13252317D01*
X14262801Y-13252317D02*
X14281848Y-13242793D01*
X14281848Y-13242793D02*
X14329467Y-13242793D01*
X14329467Y-13242793D02*
X14348515Y-13233269D01*
X14443753Y-13185650D02*
X14443753Y-13385650D01*
X14443753Y-13195174D02*
X14462801Y-13185650D01*
X14462801Y-13185650D02*
X14500896Y-13185650D01*
X14500896Y-13185650D02*
X14519943Y-13195174D01*
X14519943Y-13195174D02*
X14529467Y-13204698D01*
X14529467Y-13204698D02*
X14538991Y-13223746D01*
X14538991Y-13223746D02*
X14538991Y-13280888D01*
X14538991Y-13280888D02*
X14529467Y-13299936D01*
X14529467Y-13299936D02*
X14519943Y-13309460D01*
X14519943Y-13309460D02*
X14500896Y-13318984D01*
X14500896Y-13318984D02*
X14462801Y-13318984D01*
X14462801Y-13318984D02*
X14443753Y-13309460D01*
X14624705Y-13299936D02*
X14634229Y-13309460D01*
X14634229Y-13309460D02*
X14624705Y-13318984D01*
X14624705Y-13318984D02*
X14615182Y-13309460D01*
X14615182Y-13309460D02*
X14624705Y-13299936D01*
X14624705Y-13299936D02*
X14624705Y-13318984D01*
X14624705Y-13195174D02*
X14634229Y-13204698D01*
X14634229Y-13204698D02*
X14624705Y-13214222D01*
X14624705Y-13214222D02*
X14615182Y-13204698D01*
X14615182Y-13204698D02*
X14624705Y-13195174D01*
X14624705Y-13195174D02*
X14624705Y-13214222D01*
D12*
X12952500Y-13627500D02*
X12992500Y-13667500D01*
X12992500Y-13627500D02*
X12952500Y-13667500D01*
D11*
X13291372Y-13538984D02*
X13310420Y-13538984D01*
X13310420Y-13538984D02*
X13329467Y-13548508D01*
X13329467Y-13548508D02*
X13338991Y-13558031D01*
X13338991Y-13558031D02*
X13348515Y-13577079D01*
X13348515Y-13577079D02*
X13358039Y-13615174D01*
X13358039Y-13615174D02*
X13358039Y-13662793D01*
X13358039Y-13662793D02*
X13348515Y-13700888D01*
X13348515Y-13700888D02*
X13338991Y-13719936D01*
X13338991Y-13719936D02*
X13329467Y-13729460D01*
X13329467Y-13729460D02*
X13310420Y-13738984D01*
X13310420Y-13738984D02*
X13291372Y-13738984D01*
X13291372Y-13738984D02*
X13272324Y-13729460D01*
X13272324Y-13729460D02*
X13262801Y-13719936D01*
X13262801Y-13719936D02*
X13253277Y-13700888D01*
X13253277Y-13700888D02*
X13243753Y-13662793D01*
X13243753Y-13662793D02*
X13243753Y-13615174D01*
X13243753Y-13615174D02*
X13253277Y-13577079D01*
X13253277Y-13577079D02*
X13262801Y-13558031D01*
X13262801Y-13558031D02*
X13272324Y-13548508D01*
X13272324Y-13548508D02*
X13291372Y-13538984D01*
X13443753Y-13719936D02*
X13453277Y-13729460D01*
X13453277Y-13729460D02*
X13443753Y-13738984D01*
X13443753Y-13738984D02*
X13434229Y-13729460D01*
X13434229Y-13729460D02*
X13443753Y-13719936D01*
X13443753Y-13719936D02*
X13443753Y-13738984D01*
X13624705Y-13605650D02*
X13624705Y-13738984D01*
X13577086Y-13529460D02*
X13529467Y-13672317D01*
X13529467Y-13672317D02*
X13653277Y-13672317D01*
X13767562Y-13538984D02*
X13786610Y-13538984D01*
X13786610Y-13538984D02*
X13805658Y-13548508D01*
X13805658Y-13548508D02*
X13815182Y-13558031D01*
X13815182Y-13558031D02*
X13824705Y-13577079D01*
X13824705Y-13577079D02*
X13834229Y-13615174D01*
X13834229Y-13615174D02*
X13834229Y-13662793D01*
X13834229Y-13662793D02*
X13824705Y-13700888D01*
X13824705Y-13700888D02*
X13815182Y-13719936D01*
X13815182Y-13719936D02*
X13805658Y-13729460D01*
X13805658Y-13729460D02*
X13786610Y-13738984D01*
X13786610Y-13738984D02*
X13767562Y-13738984D01*
X13767562Y-13738984D02*
X13748515Y-13729460D01*
X13748515Y-13729460D02*
X13738991Y-13719936D01*
X13738991Y-13719936D02*
X13729467Y-13700888D01*
X13729467Y-13700888D02*
X13719943Y-13662793D01*
X13719943Y-13662793D02*
X13719943Y-13615174D01*
X13719943Y-13615174D02*
X13729467Y-13577079D01*
X13729467Y-13577079D02*
X13738991Y-13558031D01*
X13738991Y-13558031D02*
X13748515Y-13548508D01*
X13748515Y-13548508D02*
X13767562Y-13538984D01*
X13958039Y-13538984D02*
X13977086Y-13538984D01*
X13977086Y-13538984D02*
X13996134Y-13548508D01*
X13996134Y-13548508D02*
X14005658Y-13558031D01*
X14005658Y-13558031D02*
X14015182Y-13577079D01*
X14015182Y-13577079D02*
X14024705Y-13615174D01*
X14024705Y-13615174D02*
X14024705Y-13662793D01*
X14024705Y-13662793D02*
X14015182Y-13700888D01*
X14015182Y-13700888D02*
X14005658Y-13719936D01*
X14005658Y-13719936D02*
X13996134Y-13729460D01*
X13996134Y-13729460D02*
X13977086Y-13738984D01*
X13977086Y-13738984D02*
X13958039Y-13738984D01*
X13958039Y-13738984D02*
X13938991Y-13729460D01*
X13938991Y-13729460D02*
X13929467Y-13719936D01*
X13929467Y-13719936D02*
X13919943Y-13700888D01*
X13919943Y-13700888D02*
X13910420Y-13662793D01*
X13910420Y-13662793D02*
X13910420Y-13615174D01*
X13910420Y-13615174D02*
X13919943Y-13577079D01*
X13919943Y-13577079D02*
X13929467Y-13558031D01*
X13929467Y-13558031D02*
X13938991Y-13548508D01*
X13938991Y-13548508D02*
X13958039Y-13538984D01*
X14110420Y-13738984D02*
X14110420Y-13605650D01*
X14110420Y-13624698D02*
X14119943Y-13615174D01*
X14119943Y-13615174D02*
X14138991Y-13605650D01*
X14138991Y-13605650D02*
X14167563Y-13605650D01*
X14167563Y-13605650D02*
X14186610Y-13615174D01*
X14186610Y-13615174D02*
X14196134Y-13634222D01*
X14196134Y-13634222D02*
X14196134Y-13738984D01*
X14196134Y-13634222D02*
X14205658Y-13615174D01*
X14205658Y-13615174D02*
X14224705Y-13605650D01*
X14224705Y-13605650D02*
X14253277Y-13605650D01*
X14253277Y-13605650D02*
X14272324Y-13615174D01*
X14272324Y-13615174D02*
X14281848Y-13634222D01*
X14281848Y-13634222D02*
X14281848Y-13738984D01*
X14377086Y-13738984D02*
X14377086Y-13605650D01*
X14377086Y-13624698D02*
X14386610Y-13615174D01*
X14386610Y-13615174D02*
X14405658Y-13605650D01*
X14405658Y-13605650D02*
X14434229Y-13605650D01*
X14434229Y-13605650D02*
X14453277Y-13615174D01*
X14453277Y-13615174D02*
X14462801Y-13634222D01*
X14462801Y-13634222D02*
X14462801Y-13738984D01*
X14462801Y-13634222D02*
X14472324Y-13615174D01*
X14472324Y-13615174D02*
X14491372Y-13605650D01*
X14491372Y-13605650D02*
X14519943Y-13605650D01*
X14519943Y-13605650D02*
X14538991Y-13615174D01*
X14538991Y-13615174D02*
X14548515Y-13634222D01*
X14548515Y-13634222D02*
X14548515Y-13738984D01*
X14938991Y-13529460D02*
X14767563Y-13786603D01*
X15196134Y-13538984D02*
X15215182Y-13538984D01*
X15215182Y-13538984D02*
X15234229Y-13548508D01*
X15234229Y-13548508D02*
X15243753Y-13558031D01*
X15243753Y-13558031D02*
X15253277Y-13577079D01*
X15253277Y-13577079D02*
X15262801Y-13615174D01*
X15262801Y-13615174D02*
X15262801Y-13662793D01*
X15262801Y-13662793D02*
X15253277Y-13700888D01*
X15253277Y-13700888D02*
X15243753Y-13719936D01*
X15243753Y-13719936D02*
X15234229Y-13729460D01*
X15234229Y-13729460D02*
X15215182Y-13738984D01*
X15215182Y-13738984D02*
X15196134Y-13738984D01*
X15196134Y-13738984D02*
X15177086Y-13729460D01*
X15177086Y-13729460D02*
X15167563Y-13719936D01*
X15167563Y-13719936D02*
X15158039Y-13700888D01*
X15158039Y-13700888D02*
X15148515Y-13662793D01*
X15148515Y-13662793D02*
X15148515Y-13615174D01*
X15148515Y-13615174D02*
X15158039Y-13577079D01*
X15158039Y-13577079D02*
X15167563Y-13558031D01*
X15167563Y-13558031D02*
X15177086Y-13548508D01*
X15177086Y-13548508D02*
X15196134Y-13538984D01*
X15348515Y-13719936D02*
X15358039Y-13729460D01*
X15358039Y-13729460D02*
X15348515Y-13738984D01*
X15348515Y-13738984D02*
X15338991Y-13729460D01*
X15338991Y-13729460D02*
X15348515Y-13719936D01*
X15348515Y-13719936D02*
X15348515Y-13738984D01*
X15481848Y-13538984D02*
X15500896Y-13538984D01*
X15500896Y-13538984D02*
X15519944Y-13548508D01*
X15519944Y-13548508D02*
X15529467Y-13558031D01*
X15529467Y-13558031D02*
X15538991Y-13577079D01*
X15538991Y-13577079D02*
X15548515Y-13615174D01*
X15548515Y-13615174D02*
X15548515Y-13662793D01*
X15548515Y-13662793D02*
X15538991Y-13700888D01*
X15538991Y-13700888D02*
X15529467Y-13719936D01*
X15529467Y-13719936D02*
X15519944Y-13729460D01*
X15519944Y-13729460D02*
X15500896Y-13738984D01*
X15500896Y-13738984D02*
X15481848Y-13738984D01*
X15481848Y-13738984D02*
X15462801Y-13729460D01*
X15462801Y-13729460D02*
X15453277Y-13719936D01*
X15453277Y-13719936D02*
X15443753Y-13700888D01*
X15443753Y-13700888D02*
X15434229Y-13662793D01*
X15434229Y-13662793D02*
X15434229Y-13615174D01*
X15434229Y-13615174D02*
X15443753Y-13577079D01*
X15443753Y-13577079D02*
X15453277Y-13558031D01*
X15453277Y-13558031D02*
X15462801Y-13548508D01*
X15462801Y-13548508D02*
X15481848Y-13538984D01*
X15738991Y-13738984D02*
X15624706Y-13738984D01*
X15681848Y-13738984D02*
X15681848Y-13538984D01*
X15681848Y-13538984D02*
X15662801Y-13567555D01*
X15662801Y-13567555D02*
X15643753Y-13586603D01*
X15643753Y-13586603D02*
X15624706Y-13596127D01*
X15919944Y-13538984D02*
X15824706Y-13538984D01*
X15824706Y-13538984D02*
X15815182Y-13634222D01*
X15815182Y-13634222D02*
X15824706Y-13624698D01*
X15824706Y-13624698D02*
X15843753Y-13615174D01*
X15843753Y-13615174D02*
X15891372Y-13615174D01*
X15891372Y-13615174D02*
X15910420Y-13624698D01*
X15910420Y-13624698D02*
X15919944Y-13634222D01*
X15919944Y-13634222D02*
X15929467Y-13653269D01*
X15929467Y-13653269D02*
X15929467Y-13700888D01*
X15929467Y-13700888D02*
X15919944Y-13719936D01*
X15919944Y-13719936D02*
X15910420Y-13729460D01*
X15910420Y-13729460D02*
X15891372Y-13738984D01*
X15891372Y-13738984D02*
X15843753Y-13738984D01*
X15843753Y-13738984D02*
X15824706Y-13729460D01*
X15824706Y-13729460D02*
X15815182Y-13719936D01*
X15996134Y-13538984D02*
X16129467Y-13538984D01*
X16129467Y-13538984D02*
X16043753Y-13738984D01*
X16196134Y-13538984D02*
X16196134Y-13577079D01*
X16272325Y-13538984D02*
X16272325Y-13577079D01*
X16567563Y-13815174D02*
X16558039Y-13805650D01*
X16558039Y-13805650D02*
X16538991Y-13777079D01*
X16538991Y-13777079D02*
X16529468Y-13758031D01*
X16529468Y-13758031D02*
X16519944Y-13729460D01*
X16519944Y-13729460D02*
X16510420Y-13681841D01*
X16510420Y-13681841D02*
X16510420Y-13643746D01*
X16510420Y-13643746D02*
X16519944Y-13596127D01*
X16519944Y-13596127D02*
X16529468Y-13567555D01*
X16529468Y-13567555D02*
X16538991Y-13548508D01*
X16538991Y-13548508D02*
X16558039Y-13519936D01*
X16558039Y-13519936D02*
X16567563Y-13510412D01*
X16672325Y-13624698D02*
X16653277Y-13615174D01*
X16653277Y-13615174D02*
X16643753Y-13605650D01*
X16643753Y-13605650D02*
X16634229Y-13586603D01*
X16634229Y-13586603D02*
X16634229Y-13577079D01*
X16634229Y-13577079D02*
X16643753Y-13558031D01*
X16643753Y-13558031D02*
X16653277Y-13548508D01*
X16653277Y-13548508D02*
X16672325Y-13538984D01*
X16672325Y-13538984D02*
X16710420Y-13538984D01*
X16710420Y-13538984D02*
X16729468Y-13548508D01*
X16729468Y-13548508D02*
X16738991Y-13558031D01*
X16738991Y-13558031D02*
X16748515Y-13577079D01*
X16748515Y-13577079D02*
X16748515Y-13586603D01*
X16748515Y-13586603D02*
X16738991Y-13605650D01*
X16738991Y-13605650D02*
X16729468Y-13615174D01*
X16729468Y-13615174D02*
X16710420Y-13624698D01*
X16710420Y-13624698D02*
X16672325Y-13624698D01*
X16672325Y-13624698D02*
X16653277Y-13634222D01*
X16653277Y-13634222D02*
X16643753Y-13643746D01*
X16643753Y-13643746D02*
X16634229Y-13662793D01*
X16634229Y-13662793D02*
X16634229Y-13700888D01*
X16634229Y-13700888D02*
X16643753Y-13719936D01*
X16643753Y-13719936D02*
X16653277Y-13729460D01*
X16653277Y-13729460D02*
X16672325Y-13738984D01*
X16672325Y-13738984D02*
X16710420Y-13738984D01*
X16710420Y-13738984D02*
X16729468Y-13729460D01*
X16729468Y-13729460D02*
X16738991Y-13719936D01*
X16738991Y-13719936D02*
X16748515Y-13700888D01*
X16748515Y-13700888D02*
X16748515Y-13662793D01*
X16748515Y-13662793D02*
X16738991Y-13643746D01*
X16738991Y-13643746D02*
X16729468Y-13634222D01*
X16729468Y-13634222D02*
X16710420Y-13624698D01*
X16986611Y-13738984D02*
X16986611Y-13538984D01*
X17072325Y-13738984D02*
X17072325Y-13634222D01*
X17072325Y-13634222D02*
X17062801Y-13615174D01*
X17062801Y-13615174D02*
X17043753Y-13605650D01*
X17043753Y-13605650D02*
X17015182Y-13605650D01*
X17015182Y-13605650D02*
X16996134Y-13615174D01*
X16996134Y-13615174D02*
X16986611Y-13624698D01*
X17196134Y-13738984D02*
X17177087Y-13729460D01*
X17177087Y-13729460D02*
X17167563Y-13719936D01*
X17167563Y-13719936D02*
X17158039Y-13700888D01*
X17158039Y-13700888D02*
X17158039Y-13643746D01*
X17158039Y-13643746D02*
X17167563Y-13624698D01*
X17167563Y-13624698D02*
X17177087Y-13615174D01*
X17177087Y-13615174D02*
X17196134Y-13605650D01*
X17196134Y-13605650D02*
X17224706Y-13605650D01*
X17224706Y-13605650D02*
X17243753Y-13615174D01*
X17243753Y-13615174D02*
X17253277Y-13624698D01*
X17253277Y-13624698D02*
X17262801Y-13643746D01*
X17262801Y-13643746D02*
X17262801Y-13700888D01*
X17262801Y-13700888D02*
X17253277Y-13719936D01*
X17253277Y-13719936D02*
X17243753Y-13729460D01*
X17243753Y-13729460D02*
X17224706Y-13738984D01*
X17224706Y-13738984D02*
X17196134Y-13738984D01*
X17377087Y-13738984D02*
X17358039Y-13729460D01*
X17358039Y-13729460D02*
X17348515Y-13710412D01*
X17348515Y-13710412D02*
X17348515Y-13538984D01*
X17529468Y-13729460D02*
X17510420Y-13738984D01*
X17510420Y-13738984D02*
X17472325Y-13738984D01*
X17472325Y-13738984D02*
X17453277Y-13729460D01*
X17453277Y-13729460D02*
X17443753Y-13710412D01*
X17443753Y-13710412D02*
X17443753Y-13634222D01*
X17443753Y-13634222D02*
X17453277Y-13615174D01*
X17453277Y-13615174D02*
X17472325Y-13605650D01*
X17472325Y-13605650D02*
X17510420Y-13605650D01*
X17510420Y-13605650D02*
X17529468Y-13615174D01*
X17529468Y-13615174D02*
X17538992Y-13634222D01*
X17538992Y-13634222D02*
X17538992Y-13653269D01*
X17538992Y-13653269D02*
X17443753Y-13672317D01*
X17615182Y-13729460D02*
X17634230Y-13738984D01*
X17634230Y-13738984D02*
X17672325Y-13738984D01*
X17672325Y-13738984D02*
X17691373Y-13729460D01*
X17691373Y-13729460D02*
X17700896Y-13710412D01*
X17700896Y-13710412D02*
X17700896Y-13700888D01*
X17700896Y-13700888D02*
X17691373Y-13681841D01*
X17691373Y-13681841D02*
X17672325Y-13672317D01*
X17672325Y-13672317D02*
X17643753Y-13672317D01*
X17643753Y-13672317D02*
X17624706Y-13662793D01*
X17624706Y-13662793D02*
X17615182Y-13643746D01*
X17615182Y-13643746D02*
X17615182Y-13634222D01*
X17615182Y-13634222D02*
X17624706Y-13615174D01*
X17624706Y-13615174D02*
X17643753Y-13605650D01*
X17643753Y-13605650D02*
X17672325Y-13605650D01*
X17672325Y-13605650D02*
X17691373Y-13615174D01*
X17767563Y-13815174D02*
X17777087Y-13805650D01*
X17777087Y-13805650D02*
X17796134Y-13777079D01*
X17796134Y-13777079D02*
X17805658Y-13758031D01*
X17805658Y-13758031D02*
X17815182Y-13729460D01*
X17815182Y-13729460D02*
X17824706Y-13681841D01*
X17824706Y-13681841D02*
X17824706Y-13643746D01*
X17824706Y-13643746D02*
X17815182Y-13596127D01*
X17815182Y-13596127D02*
X17805658Y-13567555D01*
X17805658Y-13567555D02*
X17796134Y-13548508D01*
X17796134Y-13548508D02*
X17777087Y-13519936D01*
X17777087Y-13519936D02*
X17767563Y-13510412D01*
D12*
X12992500Y-13911500D02*
G75*
G02*
X12912500Y-13911500I-40000J0D01*
G01*
X12912500Y-13911500D02*
G75*
G02*
X12992500Y-13911500I40000J0D01*
G01*
D11*
X13291372Y-13802984D02*
X13310420Y-13802984D01*
X13310420Y-13802984D02*
X13329467Y-13812508D01*
X13329467Y-13812508D02*
X13338991Y-13822031D01*
X13338991Y-13822031D02*
X13348515Y-13841079D01*
X13348515Y-13841079D02*
X13358039Y-13879174D01*
X13358039Y-13879174D02*
X13358039Y-13926793D01*
X13358039Y-13926793D02*
X13348515Y-13964888D01*
X13348515Y-13964888D02*
X13338991Y-13983936D01*
X13338991Y-13983936D02*
X13329467Y-13993460D01*
X13329467Y-13993460D02*
X13310420Y-14002984D01*
X13310420Y-14002984D02*
X13291372Y-14002984D01*
X13291372Y-14002984D02*
X13272324Y-13993460D01*
X13272324Y-13993460D02*
X13262801Y-13983936D01*
X13262801Y-13983936D02*
X13253277Y-13964888D01*
X13253277Y-13964888D02*
X13243753Y-13926793D01*
X13243753Y-13926793D02*
X13243753Y-13879174D01*
X13243753Y-13879174D02*
X13253277Y-13841079D01*
X13253277Y-13841079D02*
X13262801Y-13822031D01*
X13262801Y-13822031D02*
X13272324Y-13812508D01*
X13272324Y-13812508D02*
X13291372Y-13802984D01*
X13443753Y-13983936D02*
X13453277Y-13993460D01*
X13453277Y-13993460D02*
X13443753Y-14002984D01*
X13443753Y-14002984D02*
X13434229Y-13993460D01*
X13434229Y-13993460D02*
X13443753Y-13983936D01*
X13443753Y-13983936D02*
X13443753Y-14002984D01*
X13567562Y-13888698D02*
X13548515Y-13879174D01*
X13548515Y-13879174D02*
X13538991Y-13869650D01*
X13538991Y-13869650D02*
X13529467Y-13850603D01*
X13529467Y-13850603D02*
X13529467Y-13841079D01*
X13529467Y-13841079D02*
X13538991Y-13822031D01*
X13538991Y-13822031D02*
X13548515Y-13812508D01*
X13548515Y-13812508D02*
X13567562Y-13802984D01*
X13567562Y-13802984D02*
X13605658Y-13802984D01*
X13605658Y-13802984D02*
X13624705Y-13812508D01*
X13624705Y-13812508D02*
X13634229Y-13822031D01*
X13634229Y-13822031D02*
X13643753Y-13841079D01*
X13643753Y-13841079D02*
X13643753Y-13850603D01*
X13643753Y-13850603D02*
X13634229Y-13869650D01*
X13634229Y-13869650D02*
X13624705Y-13879174D01*
X13624705Y-13879174D02*
X13605658Y-13888698D01*
X13605658Y-13888698D02*
X13567562Y-13888698D01*
X13567562Y-13888698D02*
X13548515Y-13898222D01*
X13548515Y-13898222D02*
X13538991Y-13907746D01*
X13538991Y-13907746D02*
X13529467Y-13926793D01*
X13529467Y-13926793D02*
X13529467Y-13964888D01*
X13529467Y-13964888D02*
X13538991Y-13983936D01*
X13538991Y-13983936D02*
X13548515Y-13993460D01*
X13548515Y-13993460D02*
X13567562Y-14002984D01*
X13567562Y-14002984D02*
X13605658Y-14002984D01*
X13605658Y-14002984D02*
X13624705Y-13993460D01*
X13624705Y-13993460D02*
X13634229Y-13983936D01*
X13634229Y-13983936D02*
X13643753Y-13964888D01*
X13643753Y-13964888D02*
X13643753Y-13926793D01*
X13643753Y-13926793D02*
X13634229Y-13907746D01*
X13634229Y-13907746D02*
X13624705Y-13898222D01*
X13624705Y-13898222D02*
X13605658Y-13888698D01*
X13767562Y-13802984D02*
X13786610Y-13802984D01*
X13786610Y-13802984D02*
X13805658Y-13812508D01*
X13805658Y-13812508D02*
X13815182Y-13822031D01*
X13815182Y-13822031D02*
X13824705Y-13841079D01*
X13824705Y-13841079D02*
X13834229Y-13879174D01*
X13834229Y-13879174D02*
X13834229Y-13926793D01*
X13834229Y-13926793D02*
X13824705Y-13964888D01*
X13824705Y-13964888D02*
X13815182Y-13983936D01*
X13815182Y-13983936D02*
X13805658Y-13993460D01*
X13805658Y-13993460D02*
X13786610Y-14002984D01*
X13786610Y-14002984D02*
X13767562Y-14002984D01*
X13767562Y-14002984D02*
X13748515Y-13993460D01*
X13748515Y-13993460D02*
X13738991Y-13983936D01*
X13738991Y-13983936D02*
X13729467Y-13964888D01*
X13729467Y-13964888D02*
X13719943Y-13926793D01*
X13719943Y-13926793D02*
X13719943Y-13879174D01*
X13719943Y-13879174D02*
X13729467Y-13841079D01*
X13729467Y-13841079D02*
X13738991Y-13822031D01*
X13738991Y-13822031D02*
X13748515Y-13812508D01*
X13748515Y-13812508D02*
X13767562Y-13802984D01*
X13958039Y-13802984D02*
X13977086Y-13802984D01*
X13977086Y-13802984D02*
X13996134Y-13812508D01*
X13996134Y-13812508D02*
X14005658Y-13822031D01*
X14005658Y-13822031D02*
X14015182Y-13841079D01*
X14015182Y-13841079D02*
X14024705Y-13879174D01*
X14024705Y-13879174D02*
X14024705Y-13926793D01*
X14024705Y-13926793D02*
X14015182Y-13964888D01*
X14015182Y-13964888D02*
X14005658Y-13983936D01*
X14005658Y-13983936D02*
X13996134Y-13993460D01*
X13996134Y-13993460D02*
X13977086Y-14002984D01*
X13977086Y-14002984D02*
X13958039Y-14002984D01*
X13958039Y-14002984D02*
X13938991Y-13993460D01*
X13938991Y-13993460D02*
X13929467Y-13983936D01*
X13929467Y-13983936D02*
X13919943Y-13964888D01*
X13919943Y-13964888D02*
X13910420Y-13926793D01*
X13910420Y-13926793D02*
X13910420Y-13879174D01*
X13910420Y-13879174D02*
X13919943Y-13841079D01*
X13919943Y-13841079D02*
X13929467Y-13822031D01*
X13929467Y-13822031D02*
X13938991Y-13812508D01*
X13938991Y-13812508D02*
X13958039Y-13802984D01*
X14110420Y-14002984D02*
X14110420Y-13869650D01*
X14110420Y-13888698D02*
X14119943Y-13879174D01*
X14119943Y-13879174D02*
X14138991Y-13869650D01*
X14138991Y-13869650D02*
X14167563Y-13869650D01*
X14167563Y-13869650D02*
X14186610Y-13879174D01*
X14186610Y-13879174D02*
X14196134Y-13898222D01*
X14196134Y-13898222D02*
X14196134Y-14002984D01*
X14196134Y-13898222D02*
X14205658Y-13879174D01*
X14205658Y-13879174D02*
X14224705Y-13869650D01*
X14224705Y-13869650D02*
X14253277Y-13869650D01*
X14253277Y-13869650D02*
X14272324Y-13879174D01*
X14272324Y-13879174D02*
X14281848Y-13898222D01*
X14281848Y-13898222D02*
X14281848Y-14002984D01*
X14377086Y-14002984D02*
X14377086Y-13869650D01*
X14377086Y-13888698D02*
X14386610Y-13879174D01*
X14386610Y-13879174D02*
X14405658Y-13869650D01*
X14405658Y-13869650D02*
X14434229Y-13869650D01*
X14434229Y-13869650D02*
X14453277Y-13879174D01*
X14453277Y-13879174D02*
X14462801Y-13898222D01*
X14462801Y-13898222D02*
X14462801Y-14002984D01*
X14462801Y-13898222D02*
X14472324Y-13879174D01*
X14472324Y-13879174D02*
X14491372Y-13869650D01*
X14491372Y-13869650D02*
X14519943Y-13869650D01*
X14519943Y-13869650D02*
X14538991Y-13879174D01*
X14538991Y-13879174D02*
X14548515Y-13898222D01*
X14548515Y-13898222D02*
X14548515Y-14002984D01*
X14938991Y-13793460D02*
X14767563Y-14050603D01*
X15196134Y-13802984D02*
X15215182Y-13802984D01*
X15215182Y-13802984D02*
X15234229Y-13812508D01*
X15234229Y-13812508D02*
X15243753Y-13822031D01*
X15243753Y-13822031D02*
X15253277Y-13841079D01*
X15253277Y-13841079D02*
X15262801Y-13879174D01*
X15262801Y-13879174D02*
X15262801Y-13926793D01*
X15262801Y-13926793D02*
X15253277Y-13964888D01*
X15253277Y-13964888D02*
X15243753Y-13983936D01*
X15243753Y-13983936D02*
X15234229Y-13993460D01*
X15234229Y-13993460D02*
X15215182Y-14002984D01*
X15215182Y-14002984D02*
X15196134Y-14002984D01*
X15196134Y-14002984D02*
X15177086Y-13993460D01*
X15177086Y-13993460D02*
X15167563Y-13983936D01*
X15167563Y-13983936D02*
X15158039Y-13964888D01*
X15158039Y-13964888D02*
X15148515Y-13926793D01*
X15148515Y-13926793D02*
X15148515Y-13879174D01*
X15148515Y-13879174D02*
X15158039Y-13841079D01*
X15158039Y-13841079D02*
X15167563Y-13822031D01*
X15167563Y-13822031D02*
X15177086Y-13812508D01*
X15177086Y-13812508D02*
X15196134Y-13802984D01*
X15348515Y-13983936D02*
X15358039Y-13993460D01*
X15358039Y-13993460D02*
X15348515Y-14002984D01*
X15348515Y-14002984D02*
X15338991Y-13993460D01*
X15338991Y-13993460D02*
X15348515Y-13983936D01*
X15348515Y-13983936D02*
X15348515Y-14002984D01*
X15481848Y-13802984D02*
X15500896Y-13802984D01*
X15500896Y-13802984D02*
X15519944Y-13812508D01*
X15519944Y-13812508D02*
X15529467Y-13822031D01*
X15529467Y-13822031D02*
X15538991Y-13841079D01*
X15538991Y-13841079D02*
X15548515Y-13879174D01*
X15548515Y-13879174D02*
X15548515Y-13926793D01*
X15548515Y-13926793D02*
X15538991Y-13964888D01*
X15538991Y-13964888D02*
X15529467Y-13983936D01*
X15529467Y-13983936D02*
X15519944Y-13993460D01*
X15519944Y-13993460D02*
X15500896Y-14002984D01*
X15500896Y-14002984D02*
X15481848Y-14002984D01*
X15481848Y-14002984D02*
X15462801Y-13993460D01*
X15462801Y-13993460D02*
X15453277Y-13983936D01*
X15453277Y-13983936D02*
X15443753Y-13964888D01*
X15443753Y-13964888D02*
X15434229Y-13926793D01*
X15434229Y-13926793D02*
X15434229Y-13879174D01*
X15434229Y-13879174D02*
X15443753Y-13841079D01*
X15443753Y-13841079D02*
X15453277Y-13822031D01*
X15453277Y-13822031D02*
X15462801Y-13812508D01*
X15462801Y-13812508D02*
X15481848Y-13802984D01*
X15615182Y-13802984D02*
X15738991Y-13802984D01*
X15738991Y-13802984D02*
X15672325Y-13879174D01*
X15672325Y-13879174D02*
X15700896Y-13879174D01*
X15700896Y-13879174D02*
X15719944Y-13888698D01*
X15719944Y-13888698D02*
X15729467Y-13898222D01*
X15729467Y-13898222D02*
X15738991Y-13917269D01*
X15738991Y-13917269D02*
X15738991Y-13964888D01*
X15738991Y-13964888D02*
X15729467Y-13983936D01*
X15729467Y-13983936D02*
X15719944Y-13993460D01*
X15719944Y-13993460D02*
X15700896Y-14002984D01*
X15700896Y-14002984D02*
X15643753Y-14002984D01*
X15643753Y-14002984D02*
X15624706Y-13993460D01*
X15624706Y-13993460D02*
X15615182Y-13983936D01*
X15929467Y-14002984D02*
X15815182Y-14002984D01*
X15872325Y-14002984D02*
X15872325Y-13802984D01*
X15872325Y-13802984D02*
X15853277Y-13831555D01*
X15853277Y-13831555D02*
X15834229Y-13850603D01*
X15834229Y-13850603D02*
X15815182Y-13860127D01*
X16110420Y-13802984D02*
X16015182Y-13802984D01*
X16015182Y-13802984D02*
X16005658Y-13898222D01*
X16005658Y-13898222D02*
X16015182Y-13888698D01*
X16015182Y-13888698D02*
X16034229Y-13879174D01*
X16034229Y-13879174D02*
X16081848Y-13879174D01*
X16081848Y-13879174D02*
X16100896Y-13888698D01*
X16100896Y-13888698D02*
X16110420Y-13898222D01*
X16110420Y-13898222D02*
X16119944Y-13917269D01*
X16119944Y-13917269D02*
X16119944Y-13964888D01*
X16119944Y-13964888D02*
X16110420Y-13983936D01*
X16110420Y-13983936D02*
X16100896Y-13993460D01*
X16100896Y-13993460D02*
X16081848Y-14002984D01*
X16081848Y-14002984D02*
X16034229Y-14002984D01*
X16034229Y-14002984D02*
X16015182Y-13993460D01*
X16015182Y-13993460D02*
X16005658Y-13983936D01*
X16196134Y-13802984D02*
X16196134Y-13841079D01*
X16272325Y-13802984D02*
X16272325Y-13841079D01*
X16567563Y-14079174D02*
X16558039Y-14069650D01*
X16558039Y-14069650D02*
X16538991Y-14041079D01*
X16538991Y-14041079D02*
X16529468Y-14022031D01*
X16529468Y-14022031D02*
X16519944Y-13993460D01*
X16519944Y-13993460D02*
X16510420Y-13945841D01*
X16510420Y-13945841D02*
X16510420Y-13907746D01*
X16510420Y-13907746D02*
X16519944Y-13860127D01*
X16519944Y-13860127D02*
X16529468Y-13831555D01*
X16529468Y-13831555D02*
X16538991Y-13812508D01*
X16538991Y-13812508D02*
X16558039Y-13783936D01*
X16558039Y-13783936D02*
X16567563Y-13774412D01*
X16634229Y-13822031D02*
X16643753Y-13812508D01*
X16643753Y-13812508D02*
X16662801Y-13802984D01*
X16662801Y-13802984D02*
X16710420Y-13802984D01*
X16710420Y-13802984D02*
X16729468Y-13812508D01*
X16729468Y-13812508D02*
X16738991Y-13822031D01*
X16738991Y-13822031D02*
X16748515Y-13841079D01*
X16748515Y-13841079D02*
X16748515Y-13860127D01*
X16748515Y-13860127D02*
X16738991Y-13888698D01*
X16738991Y-13888698D02*
X16624706Y-14002984D01*
X16624706Y-14002984D02*
X16748515Y-14002984D01*
X16986611Y-14002984D02*
X16986611Y-13802984D01*
X17072325Y-14002984D02*
X17072325Y-13898222D01*
X17072325Y-13898222D02*
X17062801Y-13879174D01*
X17062801Y-13879174D02*
X17043753Y-13869650D01*
X17043753Y-13869650D02*
X17015182Y-13869650D01*
X17015182Y-13869650D02*
X16996134Y-13879174D01*
X16996134Y-13879174D02*
X16986611Y-13888698D01*
X17196134Y-14002984D02*
X17177087Y-13993460D01*
X17177087Y-13993460D02*
X17167563Y-13983936D01*
X17167563Y-13983936D02*
X17158039Y-13964888D01*
X17158039Y-13964888D02*
X17158039Y-13907746D01*
X17158039Y-13907746D02*
X17167563Y-13888698D01*
X17167563Y-13888698D02*
X17177087Y-13879174D01*
X17177087Y-13879174D02*
X17196134Y-13869650D01*
X17196134Y-13869650D02*
X17224706Y-13869650D01*
X17224706Y-13869650D02*
X17243753Y-13879174D01*
X17243753Y-13879174D02*
X17253277Y-13888698D01*
X17253277Y-13888698D02*
X17262801Y-13907746D01*
X17262801Y-13907746D02*
X17262801Y-13964888D01*
X17262801Y-13964888D02*
X17253277Y-13983936D01*
X17253277Y-13983936D02*
X17243753Y-13993460D01*
X17243753Y-13993460D02*
X17224706Y-14002984D01*
X17224706Y-14002984D02*
X17196134Y-14002984D01*
X17377087Y-14002984D02*
X17358039Y-13993460D01*
X17358039Y-13993460D02*
X17348515Y-13974412D01*
X17348515Y-13974412D02*
X17348515Y-13802984D01*
X17529468Y-13993460D02*
X17510420Y-14002984D01*
X17510420Y-14002984D02*
X17472325Y-14002984D01*
X17472325Y-14002984D02*
X17453277Y-13993460D01*
X17453277Y-13993460D02*
X17443753Y-13974412D01*
X17443753Y-13974412D02*
X17443753Y-13898222D01*
X17443753Y-13898222D02*
X17453277Y-13879174D01*
X17453277Y-13879174D02*
X17472325Y-13869650D01*
X17472325Y-13869650D02*
X17510420Y-13869650D01*
X17510420Y-13869650D02*
X17529468Y-13879174D01*
X17529468Y-13879174D02*
X17538992Y-13898222D01*
X17538992Y-13898222D02*
X17538992Y-13917269D01*
X17538992Y-13917269D02*
X17443753Y-13936317D01*
X17615182Y-13993460D02*
X17634230Y-14002984D01*
X17634230Y-14002984D02*
X17672325Y-14002984D01*
X17672325Y-14002984D02*
X17691373Y-13993460D01*
X17691373Y-13993460D02*
X17700896Y-13974412D01*
X17700896Y-13974412D02*
X17700896Y-13964888D01*
X17700896Y-13964888D02*
X17691373Y-13945841D01*
X17691373Y-13945841D02*
X17672325Y-13936317D01*
X17672325Y-13936317D02*
X17643753Y-13936317D01*
X17643753Y-13936317D02*
X17624706Y-13926793D01*
X17624706Y-13926793D02*
X17615182Y-13907746D01*
X17615182Y-13907746D02*
X17615182Y-13898222D01*
X17615182Y-13898222D02*
X17624706Y-13879174D01*
X17624706Y-13879174D02*
X17643753Y-13869650D01*
X17643753Y-13869650D02*
X17672325Y-13869650D01*
X17672325Y-13869650D02*
X17691373Y-13879174D01*
X17767563Y-14079174D02*
X17777087Y-14069650D01*
X17777087Y-14069650D02*
X17796134Y-14041079D01*
X17796134Y-14041079D02*
X17805658Y-14022031D01*
X17805658Y-14022031D02*
X17815182Y-13993460D01*
X17815182Y-13993460D02*
X17824706Y-13945841D01*
X17824706Y-13945841D02*
X17824706Y-13907746D01*
X17824706Y-13907746D02*
X17815182Y-13860127D01*
X17815182Y-13860127D02*
X17805658Y-13831555D01*
X17805658Y-13831555D02*
X17796134Y-13812508D01*
X17796134Y-13812508D02*
X17777087Y-13783936D01*
X17777087Y-13783936D02*
X17767563Y-13774412D01*
D12*
X12947500Y-14130500D02*
X12947500Y-14220500D01*
X12902500Y-14175500D02*
X12992500Y-14175500D01*
D11*
X13291372Y-14066984D02*
X13310420Y-14066984D01*
X13310420Y-14066984D02*
X13329467Y-14076508D01*
X13329467Y-14076508D02*
X13338991Y-14086031D01*
X13338991Y-14086031D02*
X13348515Y-14105079D01*
X13348515Y-14105079D02*
X13358039Y-14143174D01*
X13358039Y-14143174D02*
X13358039Y-14190793D01*
X13358039Y-14190793D02*
X13348515Y-14228888D01*
X13348515Y-14228888D02*
X13338991Y-14247936D01*
X13338991Y-14247936D02*
X13329467Y-14257460D01*
X13329467Y-14257460D02*
X13310420Y-14266984D01*
X13310420Y-14266984D02*
X13291372Y-14266984D01*
X13291372Y-14266984D02*
X13272324Y-14257460D01*
X13272324Y-14257460D02*
X13262801Y-14247936D01*
X13262801Y-14247936D02*
X13253277Y-14228888D01*
X13253277Y-14228888D02*
X13243753Y-14190793D01*
X13243753Y-14190793D02*
X13243753Y-14143174D01*
X13243753Y-14143174D02*
X13253277Y-14105079D01*
X13253277Y-14105079D02*
X13262801Y-14086031D01*
X13262801Y-14086031D02*
X13272324Y-14076508D01*
X13272324Y-14076508D02*
X13291372Y-14066984D01*
X13443753Y-14247936D02*
X13453277Y-14257460D01*
X13453277Y-14257460D02*
X13443753Y-14266984D01*
X13443753Y-14266984D02*
X13434229Y-14257460D01*
X13434229Y-14257460D02*
X13443753Y-14247936D01*
X13443753Y-14247936D02*
X13443753Y-14266984D01*
X13548515Y-14266984D02*
X13586610Y-14266984D01*
X13586610Y-14266984D02*
X13605658Y-14257460D01*
X13605658Y-14257460D02*
X13615182Y-14247936D01*
X13615182Y-14247936D02*
X13634229Y-14219365D01*
X13634229Y-14219365D02*
X13643753Y-14181269D01*
X13643753Y-14181269D02*
X13643753Y-14105079D01*
X13643753Y-14105079D02*
X13634229Y-14086031D01*
X13634229Y-14086031D02*
X13624705Y-14076508D01*
X13624705Y-14076508D02*
X13605658Y-14066984D01*
X13605658Y-14066984D02*
X13567562Y-14066984D01*
X13567562Y-14066984D02*
X13548515Y-14076508D01*
X13548515Y-14076508D02*
X13538991Y-14086031D01*
X13538991Y-14086031D02*
X13529467Y-14105079D01*
X13529467Y-14105079D02*
X13529467Y-14152698D01*
X13529467Y-14152698D02*
X13538991Y-14171746D01*
X13538991Y-14171746D02*
X13548515Y-14181269D01*
X13548515Y-14181269D02*
X13567562Y-14190793D01*
X13567562Y-14190793D02*
X13605658Y-14190793D01*
X13605658Y-14190793D02*
X13624705Y-14181269D01*
X13624705Y-14181269D02*
X13634229Y-14171746D01*
X13634229Y-14171746D02*
X13643753Y-14152698D01*
X13767562Y-14066984D02*
X13786610Y-14066984D01*
X13786610Y-14066984D02*
X13805658Y-14076508D01*
X13805658Y-14076508D02*
X13815182Y-14086031D01*
X13815182Y-14086031D02*
X13824705Y-14105079D01*
X13824705Y-14105079D02*
X13834229Y-14143174D01*
X13834229Y-14143174D02*
X13834229Y-14190793D01*
X13834229Y-14190793D02*
X13824705Y-14228888D01*
X13824705Y-14228888D02*
X13815182Y-14247936D01*
X13815182Y-14247936D02*
X13805658Y-14257460D01*
X13805658Y-14257460D02*
X13786610Y-14266984D01*
X13786610Y-14266984D02*
X13767562Y-14266984D01*
X13767562Y-14266984D02*
X13748515Y-14257460D01*
X13748515Y-14257460D02*
X13738991Y-14247936D01*
X13738991Y-14247936D02*
X13729467Y-14228888D01*
X13729467Y-14228888D02*
X13719943Y-14190793D01*
X13719943Y-14190793D02*
X13719943Y-14143174D01*
X13719943Y-14143174D02*
X13729467Y-14105079D01*
X13729467Y-14105079D02*
X13738991Y-14086031D01*
X13738991Y-14086031D02*
X13748515Y-14076508D01*
X13748515Y-14076508D02*
X13767562Y-14066984D01*
X13958039Y-14066984D02*
X13977086Y-14066984D01*
X13977086Y-14066984D02*
X13996134Y-14076508D01*
X13996134Y-14076508D02*
X14005658Y-14086031D01*
X14005658Y-14086031D02*
X14015182Y-14105079D01*
X14015182Y-14105079D02*
X14024705Y-14143174D01*
X14024705Y-14143174D02*
X14024705Y-14190793D01*
X14024705Y-14190793D02*
X14015182Y-14228888D01*
X14015182Y-14228888D02*
X14005658Y-14247936D01*
X14005658Y-14247936D02*
X13996134Y-14257460D01*
X13996134Y-14257460D02*
X13977086Y-14266984D01*
X13977086Y-14266984D02*
X13958039Y-14266984D01*
X13958039Y-14266984D02*
X13938991Y-14257460D01*
X13938991Y-14257460D02*
X13929467Y-14247936D01*
X13929467Y-14247936D02*
X13919943Y-14228888D01*
X13919943Y-14228888D02*
X13910420Y-14190793D01*
X13910420Y-14190793D02*
X13910420Y-14143174D01*
X13910420Y-14143174D02*
X13919943Y-14105079D01*
X13919943Y-14105079D02*
X13929467Y-14086031D01*
X13929467Y-14086031D02*
X13938991Y-14076508D01*
X13938991Y-14076508D02*
X13958039Y-14066984D01*
X14110420Y-14266984D02*
X14110420Y-14133650D01*
X14110420Y-14152698D02*
X14119943Y-14143174D01*
X14119943Y-14143174D02*
X14138991Y-14133650D01*
X14138991Y-14133650D02*
X14167563Y-14133650D01*
X14167563Y-14133650D02*
X14186610Y-14143174D01*
X14186610Y-14143174D02*
X14196134Y-14162222D01*
X14196134Y-14162222D02*
X14196134Y-14266984D01*
X14196134Y-14162222D02*
X14205658Y-14143174D01*
X14205658Y-14143174D02*
X14224705Y-14133650D01*
X14224705Y-14133650D02*
X14253277Y-14133650D01*
X14253277Y-14133650D02*
X14272324Y-14143174D01*
X14272324Y-14143174D02*
X14281848Y-14162222D01*
X14281848Y-14162222D02*
X14281848Y-14266984D01*
X14377086Y-14266984D02*
X14377086Y-14133650D01*
X14377086Y-14152698D02*
X14386610Y-14143174D01*
X14386610Y-14143174D02*
X14405658Y-14133650D01*
X14405658Y-14133650D02*
X14434229Y-14133650D01*
X14434229Y-14133650D02*
X14453277Y-14143174D01*
X14453277Y-14143174D02*
X14462801Y-14162222D01*
X14462801Y-14162222D02*
X14462801Y-14266984D01*
X14462801Y-14162222D02*
X14472324Y-14143174D01*
X14472324Y-14143174D02*
X14491372Y-14133650D01*
X14491372Y-14133650D02*
X14519943Y-14133650D01*
X14519943Y-14133650D02*
X14538991Y-14143174D01*
X14538991Y-14143174D02*
X14548515Y-14162222D01*
X14548515Y-14162222D02*
X14548515Y-14266984D01*
X14938991Y-14057460D02*
X14767563Y-14314603D01*
X15196134Y-14066984D02*
X15215182Y-14066984D01*
X15215182Y-14066984D02*
X15234229Y-14076508D01*
X15234229Y-14076508D02*
X15243753Y-14086031D01*
X15243753Y-14086031D02*
X15253277Y-14105079D01*
X15253277Y-14105079D02*
X15262801Y-14143174D01*
X15262801Y-14143174D02*
X15262801Y-14190793D01*
X15262801Y-14190793D02*
X15253277Y-14228888D01*
X15253277Y-14228888D02*
X15243753Y-14247936D01*
X15243753Y-14247936D02*
X15234229Y-14257460D01*
X15234229Y-14257460D02*
X15215182Y-14266984D01*
X15215182Y-14266984D02*
X15196134Y-14266984D01*
X15196134Y-14266984D02*
X15177086Y-14257460D01*
X15177086Y-14257460D02*
X15167563Y-14247936D01*
X15167563Y-14247936D02*
X15158039Y-14228888D01*
X15158039Y-14228888D02*
X15148515Y-14190793D01*
X15148515Y-14190793D02*
X15148515Y-14143174D01*
X15148515Y-14143174D02*
X15158039Y-14105079D01*
X15158039Y-14105079D02*
X15167563Y-14086031D01*
X15167563Y-14086031D02*
X15177086Y-14076508D01*
X15177086Y-14076508D02*
X15196134Y-14066984D01*
X15348515Y-14247936D02*
X15358039Y-14257460D01*
X15358039Y-14257460D02*
X15348515Y-14266984D01*
X15348515Y-14266984D02*
X15338991Y-14257460D01*
X15338991Y-14257460D02*
X15348515Y-14247936D01*
X15348515Y-14247936D02*
X15348515Y-14266984D01*
X15481848Y-14066984D02*
X15500896Y-14066984D01*
X15500896Y-14066984D02*
X15519944Y-14076508D01*
X15519944Y-14076508D02*
X15529467Y-14086031D01*
X15529467Y-14086031D02*
X15538991Y-14105079D01*
X15538991Y-14105079D02*
X15548515Y-14143174D01*
X15548515Y-14143174D02*
X15548515Y-14190793D01*
X15548515Y-14190793D02*
X15538991Y-14228888D01*
X15538991Y-14228888D02*
X15529467Y-14247936D01*
X15529467Y-14247936D02*
X15519944Y-14257460D01*
X15519944Y-14257460D02*
X15500896Y-14266984D01*
X15500896Y-14266984D02*
X15481848Y-14266984D01*
X15481848Y-14266984D02*
X15462801Y-14257460D01*
X15462801Y-14257460D02*
X15453277Y-14247936D01*
X15453277Y-14247936D02*
X15443753Y-14228888D01*
X15443753Y-14228888D02*
X15434229Y-14190793D01*
X15434229Y-14190793D02*
X15434229Y-14143174D01*
X15434229Y-14143174D02*
X15443753Y-14105079D01*
X15443753Y-14105079D02*
X15453277Y-14086031D01*
X15453277Y-14086031D02*
X15462801Y-14076508D01*
X15462801Y-14076508D02*
X15481848Y-14066984D01*
X15615182Y-14066984D02*
X15738991Y-14066984D01*
X15738991Y-14066984D02*
X15672325Y-14143174D01*
X15672325Y-14143174D02*
X15700896Y-14143174D01*
X15700896Y-14143174D02*
X15719944Y-14152698D01*
X15719944Y-14152698D02*
X15729467Y-14162222D01*
X15729467Y-14162222D02*
X15738991Y-14181269D01*
X15738991Y-14181269D02*
X15738991Y-14228888D01*
X15738991Y-14228888D02*
X15729467Y-14247936D01*
X15729467Y-14247936D02*
X15719944Y-14257460D01*
X15719944Y-14257460D02*
X15700896Y-14266984D01*
X15700896Y-14266984D02*
X15643753Y-14266984D01*
X15643753Y-14266984D02*
X15624706Y-14257460D01*
X15624706Y-14257460D02*
X15615182Y-14247936D01*
X15919944Y-14066984D02*
X15824706Y-14066984D01*
X15824706Y-14066984D02*
X15815182Y-14162222D01*
X15815182Y-14162222D02*
X15824706Y-14152698D01*
X15824706Y-14152698D02*
X15843753Y-14143174D01*
X15843753Y-14143174D02*
X15891372Y-14143174D01*
X15891372Y-14143174D02*
X15910420Y-14152698D01*
X15910420Y-14152698D02*
X15919944Y-14162222D01*
X15919944Y-14162222D02*
X15929467Y-14181269D01*
X15929467Y-14181269D02*
X15929467Y-14228888D01*
X15929467Y-14228888D02*
X15919944Y-14247936D01*
X15919944Y-14247936D02*
X15910420Y-14257460D01*
X15910420Y-14257460D02*
X15891372Y-14266984D01*
X15891372Y-14266984D02*
X15843753Y-14266984D01*
X15843753Y-14266984D02*
X15824706Y-14257460D01*
X15824706Y-14257460D02*
X15815182Y-14247936D01*
X16100896Y-14133650D02*
X16100896Y-14266984D01*
X16053277Y-14057460D02*
X16005658Y-14200317D01*
X16005658Y-14200317D02*
X16129467Y-14200317D01*
X16196134Y-14066984D02*
X16196134Y-14105079D01*
X16272325Y-14066984D02*
X16272325Y-14105079D01*
X16567563Y-14343174D02*
X16558039Y-14333650D01*
X16558039Y-14333650D02*
X16538991Y-14305079D01*
X16538991Y-14305079D02*
X16529468Y-14286031D01*
X16529468Y-14286031D02*
X16519944Y-14257460D01*
X16519944Y-14257460D02*
X16510420Y-14209841D01*
X16510420Y-14209841D02*
X16510420Y-14171746D01*
X16510420Y-14171746D02*
X16519944Y-14124127D01*
X16519944Y-14124127D02*
X16529468Y-14095555D01*
X16529468Y-14095555D02*
X16538991Y-14076508D01*
X16538991Y-14076508D02*
X16558039Y-14047936D01*
X16558039Y-14047936D02*
X16567563Y-14038412D01*
X16634229Y-14086031D02*
X16643753Y-14076508D01*
X16643753Y-14076508D02*
X16662801Y-14066984D01*
X16662801Y-14066984D02*
X16710420Y-14066984D01*
X16710420Y-14066984D02*
X16729468Y-14076508D01*
X16729468Y-14076508D02*
X16738991Y-14086031D01*
X16738991Y-14086031D02*
X16748515Y-14105079D01*
X16748515Y-14105079D02*
X16748515Y-14124127D01*
X16748515Y-14124127D02*
X16738991Y-14152698D01*
X16738991Y-14152698D02*
X16624706Y-14266984D01*
X16624706Y-14266984D02*
X16748515Y-14266984D01*
X16986611Y-14266984D02*
X16986611Y-14066984D01*
X17072325Y-14266984D02*
X17072325Y-14162222D01*
X17072325Y-14162222D02*
X17062801Y-14143174D01*
X17062801Y-14143174D02*
X17043753Y-14133650D01*
X17043753Y-14133650D02*
X17015182Y-14133650D01*
X17015182Y-14133650D02*
X16996134Y-14143174D01*
X16996134Y-14143174D02*
X16986611Y-14152698D01*
X17196134Y-14266984D02*
X17177087Y-14257460D01*
X17177087Y-14257460D02*
X17167563Y-14247936D01*
X17167563Y-14247936D02*
X17158039Y-14228888D01*
X17158039Y-14228888D02*
X17158039Y-14171746D01*
X17158039Y-14171746D02*
X17167563Y-14152698D01*
X17167563Y-14152698D02*
X17177087Y-14143174D01*
X17177087Y-14143174D02*
X17196134Y-14133650D01*
X17196134Y-14133650D02*
X17224706Y-14133650D01*
X17224706Y-14133650D02*
X17243753Y-14143174D01*
X17243753Y-14143174D02*
X17253277Y-14152698D01*
X17253277Y-14152698D02*
X17262801Y-14171746D01*
X17262801Y-14171746D02*
X17262801Y-14228888D01*
X17262801Y-14228888D02*
X17253277Y-14247936D01*
X17253277Y-14247936D02*
X17243753Y-14257460D01*
X17243753Y-14257460D02*
X17224706Y-14266984D01*
X17224706Y-14266984D02*
X17196134Y-14266984D01*
X17377087Y-14266984D02*
X17358039Y-14257460D01*
X17358039Y-14257460D02*
X17348515Y-14238412D01*
X17348515Y-14238412D02*
X17348515Y-14066984D01*
X17529468Y-14257460D02*
X17510420Y-14266984D01*
X17510420Y-14266984D02*
X17472325Y-14266984D01*
X17472325Y-14266984D02*
X17453277Y-14257460D01*
X17453277Y-14257460D02*
X17443753Y-14238412D01*
X17443753Y-14238412D02*
X17443753Y-14162222D01*
X17443753Y-14162222D02*
X17453277Y-14143174D01*
X17453277Y-14143174D02*
X17472325Y-14133650D01*
X17472325Y-14133650D02*
X17510420Y-14133650D01*
X17510420Y-14133650D02*
X17529468Y-14143174D01*
X17529468Y-14143174D02*
X17538992Y-14162222D01*
X17538992Y-14162222D02*
X17538992Y-14181269D01*
X17538992Y-14181269D02*
X17443753Y-14200317D01*
X17615182Y-14257460D02*
X17634230Y-14266984D01*
X17634230Y-14266984D02*
X17672325Y-14266984D01*
X17672325Y-14266984D02*
X17691373Y-14257460D01*
X17691373Y-14257460D02*
X17700896Y-14238412D01*
X17700896Y-14238412D02*
X17700896Y-14228888D01*
X17700896Y-14228888D02*
X17691373Y-14209841D01*
X17691373Y-14209841D02*
X17672325Y-14200317D01*
X17672325Y-14200317D02*
X17643753Y-14200317D01*
X17643753Y-14200317D02*
X17624706Y-14190793D01*
X17624706Y-14190793D02*
X17615182Y-14171746D01*
X17615182Y-14171746D02*
X17615182Y-14162222D01*
X17615182Y-14162222D02*
X17624706Y-14143174D01*
X17624706Y-14143174D02*
X17643753Y-14133650D01*
X17643753Y-14133650D02*
X17672325Y-14133650D01*
X17672325Y-14133650D02*
X17691373Y-14143174D01*
X17767563Y-14343174D02*
X17777087Y-14333650D01*
X17777087Y-14333650D02*
X17796134Y-14305079D01*
X17796134Y-14305079D02*
X17805658Y-14286031D01*
X17805658Y-14286031D02*
X17815182Y-14257460D01*
X17815182Y-14257460D02*
X17824706Y-14209841D01*
X17824706Y-14209841D02*
X17824706Y-14171746D01*
X17824706Y-14171746D02*
X17815182Y-14124127D01*
X17815182Y-14124127D02*
X17805658Y-14095555D01*
X17805658Y-14095555D02*
X17796134Y-14076508D01*
X17796134Y-14076508D02*
X17777087Y-14047936D01*
X17777087Y-14047936D02*
X17767563Y-14038412D01*
D12*
X12979027Y-14472027D02*
X12979027Y-14406973D01*
X12913973Y-14406973D01*
X12913973Y-14472027D01*
X12979027Y-14472027D01*
D11*
X13291372Y-14330984D02*
X13310420Y-14330984D01*
X13310420Y-14330984D02*
X13329467Y-14340508D01*
X13329467Y-14340508D02*
X13338991Y-14350031D01*
X13338991Y-14350031D02*
X13348515Y-14369079D01*
X13348515Y-14369079D02*
X13358039Y-14407174D01*
X13358039Y-14407174D02*
X13358039Y-14454793D01*
X13358039Y-14454793D02*
X13348515Y-14492888D01*
X13348515Y-14492888D02*
X13338991Y-14511936D01*
X13338991Y-14511936D02*
X13329467Y-14521460D01*
X13329467Y-14521460D02*
X13310420Y-14530984D01*
X13310420Y-14530984D02*
X13291372Y-14530984D01*
X13291372Y-14530984D02*
X13272324Y-14521460D01*
X13272324Y-14521460D02*
X13262801Y-14511936D01*
X13262801Y-14511936D02*
X13253277Y-14492888D01*
X13253277Y-14492888D02*
X13243753Y-14454793D01*
X13243753Y-14454793D02*
X13243753Y-14407174D01*
X13243753Y-14407174D02*
X13253277Y-14369079D01*
X13253277Y-14369079D02*
X13262801Y-14350031D01*
X13262801Y-14350031D02*
X13272324Y-14340508D01*
X13272324Y-14340508D02*
X13291372Y-14330984D01*
X13443753Y-14511936D02*
X13453277Y-14521460D01*
X13453277Y-14521460D02*
X13443753Y-14530984D01*
X13443753Y-14530984D02*
X13434229Y-14521460D01*
X13434229Y-14521460D02*
X13443753Y-14511936D01*
X13443753Y-14511936D02*
X13443753Y-14530984D01*
X13548515Y-14530984D02*
X13586610Y-14530984D01*
X13586610Y-14530984D02*
X13605658Y-14521460D01*
X13605658Y-14521460D02*
X13615182Y-14511936D01*
X13615182Y-14511936D02*
X13634229Y-14483365D01*
X13634229Y-14483365D02*
X13643753Y-14445269D01*
X13643753Y-14445269D02*
X13643753Y-14369079D01*
X13643753Y-14369079D02*
X13634229Y-14350031D01*
X13634229Y-14350031D02*
X13624705Y-14340508D01*
X13624705Y-14340508D02*
X13605658Y-14330984D01*
X13605658Y-14330984D02*
X13567562Y-14330984D01*
X13567562Y-14330984D02*
X13548515Y-14340508D01*
X13548515Y-14340508D02*
X13538991Y-14350031D01*
X13538991Y-14350031D02*
X13529467Y-14369079D01*
X13529467Y-14369079D02*
X13529467Y-14416698D01*
X13529467Y-14416698D02*
X13538991Y-14435746D01*
X13538991Y-14435746D02*
X13548515Y-14445269D01*
X13548515Y-14445269D02*
X13567562Y-14454793D01*
X13567562Y-14454793D02*
X13605658Y-14454793D01*
X13605658Y-14454793D02*
X13624705Y-14445269D01*
X13624705Y-14445269D02*
X13634229Y-14435746D01*
X13634229Y-14435746D02*
X13643753Y-14416698D01*
X13719943Y-14350031D02*
X13729467Y-14340508D01*
X13729467Y-14340508D02*
X13748515Y-14330984D01*
X13748515Y-14330984D02*
X13796134Y-14330984D01*
X13796134Y-14330984D02*
X13815182Y-14340508D01*
X13815182Y-14340508D02*
X13824705Y-14350031D01*
X13824705Y-14350031D02*
X13834229Y-14369079D01*
X13834229Y-14369079D02*
X13834229Y-14388127D01*
X13834229Y-14388127D02*
X13824705Y-14416698D01*
X13824705Y-14416698D02*
X13710420Y-14530984D01*
X13710420Y-14530984D02*
X13834229Y-14530984D01*
X13958039Y-14330984D02*
X13977086Y-14330984D01*
X13977086Y-14330984D02*
X13996134Y-14340508D01*
X13996134Y-14340508D02*
X14005658Y-14350031D01*
X14005658Y-14350031D02*
X14015182Y-14369079D01*
X14015182Y-14369079D02*
X14024705Y-14407174D01*
X14024705Y-14407174D02*
X14024705Y-14454793D01*
X14024705Y-14454793D02*
X14015182Y-14492888D01*
X14015182Y-14492888D02*
X14005658Y-14511936D01*
X14005658Y-14511936D02*
X13996134Y-14521460D01*
X13996134Y-14521460D02*
X13977086Y-14530984D01*
X13977086Y-14530984D02*
X13958039Y-14530984D01*
X13958039Y-14530984D02*
X13938991Y-14521460D01*
X13938991Y-14521460D02*
X13929467Y-14511936D01*
X13929467Y-14511936D02*
X13919943Y-14492888D01*
X13919943Y-14492888D02*
X13910420Y-14454793D01*
X13910420Y-14454793D02*
X13910420Y-14407174D01*
X13910420Y-14407174D02*
X13919943Y-14369079D01*
X13919943Y-14369079D02*
X13929467Y-14350031D01*
X13929467Y-14350031D02*
X13938991Y-14340508D01*
X13938991Y-14340508D02*
X13958039Y-14330984D01*
X14110420Y-14530984D02*
X14110420Y-14397650D01*
X14110420Y-14416698D02*
X14119943Y-14407174D01*
X14119943Y-14407174D02*
X14138991Y-14397650D01*
X14138991Y-14397650D02*
X14167563Y-14397650D01*
X14167563Y-14397650D02*
X14186610Y-14407174D01*
X14186610Y-14407174D02*
X14196134Y-14426222D01*
X14196134Y-14426222D02*
X14196134Y-14530984D01*
X14196134Y-14426222D02*
X14205658Y-14407174D01*
X14205658Y-14407174D02*
X14224705Y-14397650D01*
X14224705Y-14397650D02*
X14253277Y-14397650D01*
X14253277Y-14397650D02*
X14272324Y-14407174D01*
X14272324Y-14407174D02*
X14281848Y-14426222D01*
X14281848Y-14426222D02*
X14281848Y-14530984D01*
X14377086Y-14530984D02*
X14377086Y-14397650D01*
X14377086Y-14416698D02*
X14386610Y-14407174D01*
X14386610Y-14407174D02*
X14405658Y-14397650D01*
X14405658Y-14397650D02*
X14434229Y-14397650D01*
X14434229Y-14397650D02*
X14453277Y-14407174D01*
X14453277Y-14407174D02*
X14462801Y-14426222D01*
X14462801Y-14426222D02*
X14462801Y-14530984D01*
X14462801Y-14426222D02*
X14472324Y-14407174D01*
X14472324Y-14407174D02*
X14491372Y-14397650D01*
X14491372Y-14397650D02*
X14519943Y-14397650D01*
X14519943Y-14397650D02*
X14538991Y-14407174D01*
X14538991Y-14407174D02*
X14548515Y-14426222D01*
X14548515Y-14426222D02*
X14548515Y-14530984D01*
X14938991Y-14321460D02*
X14767563Y-14578603D01*
X15196134Y-14330984D02*
X15215182Y-14330984D01*
X15215182Y-14330984D02*
X15234229Y-14340508D01*
X15234229Y-14340508D02*
X15243753Y-14350031D01*
X15243753Y-14350031D02*
X15253277Y-14369079D01*
X15253277Y-14369079D02*
X15262801Y-14407174D01*
X15262801Y-14407174D02*
X15262801Y-14454793D01*
X15262801Y-14454793D02*
X15253277Y-14492888D01*
X15253277Y-14492888D02*
X15243753Y-14511936D01*
X15243753Y-14511936D02*
X15234229Y-14521460D01*
X15234229Y-14521460D02*
X15215182Y-14530984D01*
X15215182Y-14530984D02*
X15196134Y-14530984D01*
X15196134Y-14530984D02*
X15177086Y-14521460D01*
X15177086Y-14521460D02*
X15167563Y-14511936D01*
X15167563Y-14511936D02*
X15158039Y-14492888D01*
X15158039Y-14492888D02*
X15148515Y-14454793D01*
X15148515Y-14454793D02*
X15148515Y-14407174D01*
X15148515Y-14407174D02*
X15158039Y-14369079D01*
X15158039Y-14369079D02*
X15167563Y-14350031D01*
X15167563Y-14350031D02*
X15177086Y-14340508D01*
X15177086Y-14340508D02*
X15196134Y-14330984D01*
X15348515Y-14511936D02*
X15358039Y-14521460D01*
X15358039Y-14521460D02*
X15348515Y-14530984D01*
X15348515Y-14530984D02*
X15338991Y-14521460D01*
X15338991Y-14521460D02*
X15348515Y-14511936D01*
X15348515Y-14511936D02*
X15348515Y-14530984D01*
X15481848Y-14330984D02*
X15500896Y-14330984D01*
X15500896Y-14330984D02*
X15519944Y-14340508D01*
X15519944Y-14340508D02*
X15529467Y-14350031D01*
X15529467Y-14350031D02*
X15538991Y-14369079D01*
X15538991Y-14369079D02*
X15548515Y-14407174D01*
X15548515Y-14407174D02*
X15548515Y-14454793D01*
X15548515Y-14454793D02*
X15538991Y-14492888D01*
X15538991Y-14492888D02*
X15529467Y-14511936D01*
X15529467Y-14511936D02*
X15519944Y-14521460D01*
X15519944Y-14521460D02*
X15500896Y-14530984D01*
X15500896Y-14530984D02*
X15481848Y-14530984D01*
X15481848Y-14530984D02*
X15462801Y-14521460D01*
X15462801Y-14521460D02*
X15453277Y-14511936D01*
X15453277Y-14511936D02*
X15443753Y-14492888D01*
X15443753Y-14492888D02*
X15434229Y-14454793D01*
X15434229Y-14454793D02*
X15434229Y-14407174D01*
X15434229Y-14407174D02*
X15443753Y-14369079D01*
X15443753Y-14369079D02*
X15453277Y-14350031D01*
X15453277Y-14350031D02*
X15462801Y-14340508D01*
X15462801Y-14340508D02*
X15481848Y-14330984D01*
X15615182Y-14330984D02*
X15738991Y-14330984D01*
X15738991Y-14330984D02*
X15672325Y-14407174D01*
X15672325Y-14407174D02*
X15700896Y-14407174D01*
X15700896Y-14407174D02*
X15719944Y-14416698D01*
X15719944Y-14416698D02*
X15729467Y-14426222D01*
X15729467Y-14426222D02*
X15738991Y-14445269D01*
X15738991Y-14445269D02*
X15738991Y-14492888D01*
X15738991Y-14492888D02*
X15729467Y-14511936D01*
X15729467Y-14511936D02*
X15719944Y-14521460D01*
X15719944Y-14521460D02*
X15700896Y-14530984D01*
X15700896Y-14530984D02*
X15643753Y-14530984D01*
X15643753Y-14530984D02*
X15624706Y-14521460D01*
X15624706Y-14521460D02*
X15615182Y-14511936D01*
X15910420Y-14330984D02*
X15872325Y-14330984D01*
X15872325Y-14330984D02*
X15853277Y-14340508D01*
X15853277Y-14340508D02*
X15843753Y-14350031D01*
X15843753Y-14350031D02*
X15824706Y-14378603D01*
X15824706Y-14378603D02*
X15815182Y-14416698D01*
X15815182Y-14416698D02*
X15815182Y-14492888D01*
X15815182Y-14492888D02*
X15824706Y-14511936D01*
X15824706Y-14511936D02*
X15834229Y-14521460D01*
X15834229Y-14521460D02*
X15853277Y-14530984D01*
X15853277Y-14530984D02*
X15891372Y-14530984D01*
X15891372Y-14530984D02*
X15910420Y-14521460D01*
X15910420Y-14521460D02*
X15919944Y-14511936D01*
X15919944Y-14511936D02*
X15929467Y-14492888D01*
X15929467Y-14492888D02*
X15929467Y-14445269D01*
X15929467Y-14445269D02*
X15919944Y-14426222D01*
X15919944Y-14426222D02*
X15910420Y-14416698D01*
X15910420Y-14416698D02*
X15891372Y-14407174D01*
X15891372Y-14407174D02*
X15853277Y-14407174D01*
X15853277Y-14407174D02*
X15834229Y-14416698D01*
X15834229Y-14416698D02*
X15824706Y-14426222D01*
X15824706Y-14426222D02*
X15815182Y-14445269D01*
X16005658Y-14350031D02*
X16015182Y-14340508D01*
X16015182Y-14340508D02*
X16034229Y-14330984D01*
X16034229Y-14330984D02*
X16081848Y-14330984D01*
X16081848Y-14330984D02*
X16100896Y-14340508D01*
X16100896Y-14340508D02*
X16110420Y-14350031D01*
X16110420Y-14350031D02*
X16119944Y-14369079D01*
X16119944Y-14369079D02*
X16119944Y-14388127D01*
X16119944Y-14388127D02*
X16110420Y-14416698D01*
X16110420Y-14416698D02*
X15996134Y-14530984D01*
X15996134Y-14530984D02*
X16119944Y-14530984D01*
X16196134Y-14330984D02*
X16196134Y-14369079D01*
X16272325Y-14330984D02*
X16272325Y-14369079D01*
X16567563Y-14607174D02*
X16558039Y-14597650D01*
X16558039Y-14597650D02*
X16538991Y-14569079D01*
X16538991Y-14569079D02*
X16529468Y-14550031D01*
X16529468Y-14550031D02*
X16519944Y-14521460D01*
X16519944Y-14521460D02*
X16510420Y-14473841D01*
X16510420Y-14473841D02*
X16510420Y-14435746D01*
X16510420Y-14435746D02*
X16519944Y-14388127D01*
X16519944Y-14388127D02*
X16529468Y-14359555D01*
X16529468Y-14359555D02*
X16538991Y-14340508D01*
X16538991Y-14340508D02*
X16558039Y-14311936D01*
X16558039Y-14311936D02*
X16567563Y-14302412D01*
X16729468Y-14397650D02*
X16729468Y-14530984D01*
X16681848Y-14321460D02*
X16634229Y-14464317D01*
X16634229Y-14464317D02*
X16758039Y-14464317D01*
X16986611Y-14530984D02*
X16986611Y-14330984D01*
X17072325Y-14530984D02*
X17072325Y-14426222D01*
X17072325Y-14426222D02*
X17062801Y-14407174D01*
X17062801Y-14407174D02*
X17043753Y-14397650D01*
X17043753Y-14397650D02*
X17015182Y-14397650D01*
X17015182Y-14397650D02*
X16996134Y-14407174D01*
X16996134Y-14407174D02*
X16986611Y-14416698D01*
X17196134Y-14530984D02*
X17177087Y-14521460D01*
X17177087Y-14521460D02*
X17167563Y-14511936D01*
X17167563Y-14511936D02*
X17158039Y-14492888D01*
X17158039Y-14492888D02*
X17158039Y-14435746D01*
X17158039Y-14435746D02*
X17167563Y-14416698D01*
X17167563Y-14416698D02*
X17177087Y-14407174D01*
X17177087Y-14407174D02*
X17196134Y-14397650D01*
X17196134Y-14397650D02*
X17224706Y-14397650D01*
X17224706Y-14397650D02*
X17243753Y-14407174D01*
X17243753Y-14407174D02*
X17253277Y-14416698D01*
X17253277Y-14416698D02*
X17262801Y-14435746D01*
X17262801Y-14435746D02*
X17262801Y-14492888D01*
X17262801Y-14492888D02*
X17253277Y-14511936D01*
X17253277Y-14511936D02*
X17243753Y-14521460D01*
X17243753Y-14521460D02*
X17224706Y-14530984D01*
X17224706Y-14530984D02*
X17196134Y-14530984D01*
X17377087Y-14530984D02*
X17358039Y-14521460D01*
X17358039Y-14521460D02*
X17348515Y-14502412D01*
X17348515Y-14502412D02*
X17348515Y-14330984D01*
X17529468Y-14521460D02*
X17510420Y-14530984D01*
X17510420Y-14530984D02*
X17472325Y-14530984D01*
X17472325Y-14530984D02*
X17453277Y-14521460D01*
X17453277Y-14521460D02*
X17443753Y-14502412D01*
X17443753Y-14502412D02*
X17443753Y-14426222D01*
X17443753Y-14426222D02*
X17453277Y-14407174D01*
X17453277Y-14407174D02*
X17472325Y-14397650D01*
X17472325Y-14397650D02*
X17510420Y-14397650D01*
X17510420Y-14397650D02*
X17529468Y-14407174D01*
X17529468Y-14407174D02*
X17538992Y-14426222D01*
X17538992Y-14426222D02*
X17538992Y-14445269D01*
X17538992Y-14445269D02*
X17443753Y-14464317D01*
X17615182Y-14521460D02*
X17634230Y-14530984D01*
X17634230Y-14530984D02*
X17672325Y-14530984D01*
X17672325Y-14530984D02*
X17691373Y-14521460D01*
X17691373Y-14521460D02*
X17700896Y-14502412D01*
X17700896Y-14502412D02*
X17700896Y-14492888D01*
X17700896Y-14492888D02*
X17691373Y-14473841D01*
X17691373Y-14473841D02*
X17672325Y-14464317D01*
X17672325Y-14464317D02*
X17643753Y-14464317D01*
X17643753Y-14464317D02*
X17624706Y-14454793D01*
X17624706Y-14454793D02*
X17615182Y-14435746D01*
X17615182Y-14435746D02*
X17615182Y-14426222D01*
X17615182Y-14426222D02*
X17624706Y-14407174D01*
X17624706Y-14407174D02*
X17643753Y-14397650D01*
X17643753Y-14397650D02*
X17672325Y-14397650D01*
X17672325Y-14397650D02*
X17691373Y-14407174D01*
X17767563Y-14607174D02*
X17777087Y-14597650D01*
X17777087Y-14597650D02*
X17796134Y-14569079D01*
X17796134Y-14569079D02*
X17805658Y-14550031D01*
X17805658Y-14550031D02*
X17815182Y-14521460D01*
X17815182Y-14521460D02*
X17824706Y-14473841D01*
X17824706Y-14473841D02*
X17824706Y-14435746D01*
X17824706Y-14435746D02*
X17815182Y-14388127D01*
X17815182Y-14388127D02*
X17805658Y-14359555D01*
X17805658Y-14359555D02*
X17796134Y-14340508D01*
X17796134Y-14340508D02*
X17777087Y-14311936D01*
X17777087Y-14311936D02*
X17767563Y-14302412D01*
D12*
X12942500Y-14753500D02*
X12992500Y-14703500D01*
X12942500Y-14653500D01*
X12892500Y-14703500D01*
X12942500Y-14753500D01*
D11*
X13358039Y-14794984D02*
X13243753Y-14794984D01*
X13300896Y-14794984D02*
X13300896Y-14594984D01*
X13300896Y-14594984D02*
X13281848Y-14623555D01*
X13281848Y-14623555D02*
X13262801Y-14642603D01*
X13262801Y-14642603D02*
X13243753Y-14652127D01*
X13443753Y-14775936D02*
X13453277Y-14785460D01*
X13453277Y-14785460D02*
X13443753Y-14794984D01*
X13443753Y-14794984D02*
X13434229Y-14785460D01*
X13434229Y-14785460D02*
X13443753Y-14775936D01*
X13443753Y-14775936D02*
X13443753Y-14794984D01*
X13577086Y-14594984D02*
X13596134Y-14594984D01*
X13596134Y-14594984D02*
X13615182Y-14604508D01*
X13615182Y-14604508D02*
X13624705Y-14614031D01*
X13624705Y-14614031D02*
X13634229Y-14633079D01*
X13634229Y-14633079D02*
X13643753Y-14671174D01*
X13643753Y-14671174D02*
X13643753Y-14718793D01*
X13643753Y-14718793D02*
X13634229Y-14756888D01*
X13634229Y-14756888D02*
X13624705Y-14775936D01*
X13624705Y-14775936D02*
X13615182Y-14785460D01*
X13615182Y-14785460D02*
X13596134Y-14794984D01*
X13596134Y-14794984D02*
X13577086Y-14794984D01*
X13577086Y-14794984D02*
X13558039Y-14785460D01*
X13558039Y-14785460D02*
X13548515Y-14775936D01*
X13548515Y-14775936D02*
X13538991Y-14756888D01*
X13538991Y-14756888D02*
X13529467Y-14718793D01*
X13529467Y-14718793D02*
X13529467Y-14671174D01*
X13529467Y-14671174D02*
X13538991Y-14633079D01*
X13538991Y-14633079D02*
X13548515Y-14614031D01*
X13548515Y-14614031D02*
X13558039Y-14604508D01*
X13558039Y-14604508D02*
X13577086Y-14594984D01*
X13767562Y-14594984D02*
X13786610Y-14594984D01*
X13786610Y-14594984D02*
X13805658Y-14604508D01*
X13805658Y-14604508D02*
X13815182Y-14614031D01*
X13815182Y-14614031D02*
X13824705Y-14633079D01*
X13824705Y-14633079D02*
X13834229Y-14671174D01*
X13834229Y-14671174D02*
X13834229Y-14718793D01*
X13834229Y-14718793D02*
X13824705Y-14756888D01*
X13824705Y-14756888D02*
X13815182Y-14775936D01*
X13815182Y-14775936D02*
X13805658Y-14785460D01*
X13805658Y-14785460D02*
X13786610Y-14794984D01*
X13786610Y-14794984D02*
X13767562Y-14794984D01*
X13767562Y-14794984D02*
X13748515Y-14785460D01*
X13748515Y-14785460D02*
X13738991Y-14775936D01*
X13738991Y-14775936D02*
X13729467Y-14756888D01*
X13729467Y-14756888D02*
X13719943Y-14718793D01*
X13719943Y-14718793D02*
X13719943Y-14671174D01*
X13719943Y-14671174D02*
X13729467Y-14633079D01*
X13729467Y-14633079D02*
X13738991Y-14614031D01*
X13738991Y-14614031D02*
X13748515Y-14604508D01*
X13748515Y-14604508D02*
X13767562Y-14594984D01*
X13958039Y-14594984D02*
X13977086Y-14594984D01*
X13977086Y-14594984D02*
X13996134Y-14604508D01*
X13996134Y-14604508D02*
X14005658Y-14614031D01*
X14005658Y-14614031D02*
X14015182Y-14633079D01*
X14015182Y-14633079D02*
X14024705Y-14671174D01*
X14024705Y-14671174D02*
X14024705Y-14718793D01*
X14024705Y-14718793D02*
X14015182Y-14756888D01*
X14015182Y-14756888D02*
X14005658Y-14775936D01*
X14005658Y-14775936D02*
X13996134Y-14785460D01*
X13996134Y-14785460D02*
X13977086Y-14794984D01*
X13977086Y-14794984D02*
X13958039Y-14794984D01*
X13958039Y-14794984D02*
X13938991Y-14785460D01*
X13938991Y-14785460D02*
X13929467Y-14775936D01*
X13929467Y-14775936D02*
X13919943Y-14756888D01*
X13919943Y-14756888D02*
X13910420Y-14718793D01*
X13910420Y-14718793D02*
X13910420Y-14671174D01*
X13910420Y-14671174D02*
X13919943Y-14633079D01*
X13919943Y-14633079D02*
X13929467Y-14614031D01*
X13929467Y-14614031D02*
X13938991Y-14604508D01*
X13938991Y-14604508D02*
X13958039Y-14594984D01*
X14110420Y-14794984D02*
X14110420Y-14661650D01*
X14110420Y-14680698D02*
X14119943Y-14671174D01*
X14119943Y-14671174D02*
X14138991Y-14661650D01*
X14138991Y-14661650D02*
X14167563Y-14661650D01*
X14167563Y-14661650D02*
X14186610Y-14671174D01*
X14186610Y-14671174D02*
X14196134Y-14690222D01*
X14196134Y-14690222D02*
X14196134Y-14794984D01*
X14196134Y-14690222D02*
X14205658Y-14671174D01*
X14205658Y-14671174D02*
X14224705Y-14661650D01*
X14224705Y-14661650D02*
X14253277Y-14661650D01*
X14253277Y-14661650D02*
X14272324Y-14671174D01*
X14272324Y-14671174D02*
X14281848Y-14690222D01*
X14281848Y-14690222D02*
X14281848Y-14794984D01*
X14377086Y-14794984D02*
X14377086Y-14661650D01*
X14377086Y-14680698D02*
X14386610Y-14671174D01*
X14386610Y-14671174D02*
X14405658Y-14661650D01*
X14405658Y-14661650D02*
X14434229Y-14661650D01*
X14434229Y-14661650D02*
X14453277Y-14671174D01*
X14453277Y-14671174D02*
X14462801Y-14690222D01*
X14462801Y-14690222D02*
X14462801Y-14794984D01*
X14462801Y-14690222D02*
X14472324Y-14671174D01*
X14472324Y-14671174D02*
X14491372Y-14661650D01*
X14491372Y-14661650D02*
X14519943Y-14661650D01*
X14519943Y-14661650D02*
X14538991Y-14671174D01*
X14538991Y-14671174D02*
X14548515Y-14690222D01*
X14548515Y-14690222D02*
X14548515Y-14794984D01*
X14938991Y-14585460D02*
X14767563Y-14842603D01*
X15196134Y-14594984D02*
X15215182Y-14594984D01*
X15215182Y-14594984D02*
X15234229Y-14604508D01*
X15234229Y-14604508D02*
X15243753Y-14614031D01*
X15243753Y-14614031D02*
X15253277Y-14633079D01*
X15253277Y-14633079D02*
X15262801Y-14671174D01*
X15262801Y-14671174D02*
X15262801Y-14718793D01*
X15262801Y-14718793D02*
X15253277Y-14756888D01*
X15253277Y-14756888D02*
X15243753Y-14775936D01*
X15243753Y-14775936D02*
X15234229Y-14785460D01*
X15234229Y-14785460D02*
X15215182Y-14794984D01*
X15215182Y-14794984D02*
X15196134Y-14794984D01*
X15196134Y-14794984D02*
X15177086Y-14785460D01*
X15177086Y-14785460D02*
X15167563Y-14775936D01*
X15167563Y-14775936D02*
X15158039Y-14756888D01*
X15158039Y-14756888D02*
X15148515Y-14718793D01*
X15148515Y-14718793D02*
X15148515Y-14671174D01*
X15148515Y-14671174D02*
X15158039Y-14633079D01*
X15158039Y-14633079D02*
X15167563Y-14614031D01*
X15167563Y-14614031D02*
X15177086Y-14604508D01*
X15177086Y-14604508D02*
X15196134Y-14594984D01*
X15348515Y-14775936D02*
X15358039Y-14785460D01*
X15358039Y-14785460D02*
X15348515Y-14794984D01*
X15348515Y-14794984D02*
X15338991Y-14785460D01*
X15338991Y-14785460D02*
X15348515Y-14775936D01*
X15348515Y-14775936D02*
X15348515Y-14794984D01*
X15481848Y-14594984D02*
X15500896Y-14594984D01*
X15500896Y-14594984D02*
X15519944Y-14604508D01*
X15519944Y-14604508D02*
X15529467Y-14614031D01*
X15529467Y-14614031D02*
X15538991Y-14633079D01*
X15538991Y-14633079D02*
X15548515Y-14671174D01*
X15548515Y-14671174D02*
X15548515Y-14718793D01*
X15548515Y-14718793D02*
X15538991Y-14756888D01*
X15538991Y-14756888D02*
X15529467Y-14775936D01*
X15529467Y-14775936D02*
X15519944Y-14785460D01*
X15519944Y-14785460D02*
X15500896Y-14794984D01*
X15500896Y-14794984D02*
X15481848Y-14794984D01*
X15481848Y-14794984D02*
X15462801Y-14785460D01*
X15462801Y-14785460D02*
X15453277Y-14775936D01*
X15453277Y-14775936D02*
X15443753Y-14756888D01*
X15443753Y-14756888D02*
X15434229Y-14718793D01*
X15434229Y-14718793D02*
X15434229Y-14671174D01*
X15434229Y-14671174D02*
X15443753Y-14633079D01*
X15443753Y-14633079D02*
X15453277Y-14614031D01*
X15453277Y-14614031D02*
X15462801Y-14604508D01*
X15462801Y-14604508D02*
X15481848Y-14594984D01*
X15615182Y-14594984D02*
X15738991Y-14594984D01*
X15738991Y-14594984D02*
X15672325Y-14671174D01*
X15672325Y-14671174D02*
X15700896Y-14671174D01*
X15700896Y-14671174D02*
X15719944Y-14680698D01*
X15719944Y-14680698D02*
X15729467Y-14690222D01*
X15729467Y-14690222D02*
X15738991Y-14709269D01*
X15738991Y-14709269D02*
X15738991Y-14756888D01*
X15738991Y-14756888D02*
X15729467Y-14775936D01*
X15729467Y-14775936D02*
X15719944Y-14785460D01*
X15719944Y-14785460D02*
X15700896Y-14794984D01*
X15700896Y-14794984D02*
X15643753Y-14794984D01*
X15643753Y-14794984D02*
X15624706Y-14785460D01*
X15624706Y-14785460D02*
X15615182Y-14775936D01*
X15834229Y-14794984D02*
X15872325Y-14794984D01*
X15872325Y-14794984D02*
X15891372Y-14785460D01*
X15891372Y-14785460D02*
X15900896Y-14775936D01*
X15900896Y-14775936D02*
X15919944Y-14747365D01*
X15919944Y-14747365D02*
X15929467Y-14709269D01*
X15929467Y-14709269D02*
X15929467Y-14633079D01*
X15929467Y-14633079D02*
X15919944Y-14614031D01*
X15919944Y-14614031D02*
X15910420Y-14604508D01*
X15910420Y-14604508D02*
X15891372Y-14594984D01*
X15891372Y-14594984D02*
X15853277Y-14594984D01*
X15853277Y-14594984D02*
X15834229Y-14604508D01*
X15834229Y-14604508D02*
X15824706Y-14614031D01*
X15824706Y-14614031D02*
X15815182Y-14633079D01*
X15815182Y-14633079D02*
X15815182Y-14680698D01*
X15815182Y-14680698D02*
X15824706Y-14699746D01*
X15824706Y-14699746D02*
X15834229Y-14709269D01*
X15834229Y-14709269D02*
X15853277Y-14718793D01*
X15853277Y-14718793D02*
X15891372Y-14718793D01*
X15891372Y-14718793D02*
X15910420Y-14709269D01*
X15910420Y-14709269D02*
X15919944Y-14699746D01*
X15919944Y-14699746D02*
X15929467Y-14680698D01*
X16100896Y-14661650D02*
X16100896Y-14794984D01*
X16053277Y-14585460D02*
X16005658Y-14728317D01*
X16005658Y-14728317D02*
X16129467Y-14728317D01*
X16196134Y-14594984D02*
X16196134Y-14633079D01*
X16272325Y-14594984D02*
X16272325Y-14633079D01*
X16567563Y-14871174D02*
X16558039Y-14861650D01*
X16558039Y-14861650D02*
X16538991Y-14833079D01*
X16538991Y-14833079D02*
X16529468Y-14814031D01*
X16529468Y-14814031D02*
X16519944Y-14785460D01*
X16519944Y-14785460D02*
X16510420Y-14737841D01*
X16510420Y-14737841D02*
X16510420Y-14699746D01*
X16510420Y-14699746D02*
X16519944Y-14652127D01*
X16519944Y-14652127D02*
X16529468Y-14623555D01*
X16529468Y-14623555D02*
X16538991Y-14604508D01*
X16538991Y-14604508D02*
X16558039Y-14575936D01*
X16558039Y-14575936D02*
X16567563Y-14566412D01*
X16624706Y-14594984D02*
X16748515Y-14594984D01*
X16748515Y-14594984D02*
X16681848Y-14671174D01*
X16681848Y-14671174D02*
X16710420Y-14671174D01*
X16710420Y-14671174D02*
X16729468Y-14680698D01*
X16729468Y-14680698D02*
X16738991Y-14690222D01*
X16738991Y-14690222D02*
X16748515Y-14709269D01*
X16748515Y-14709269D02*
X16748515Y-14756888D01*
X16748515Y-14756888D02*
X16738991Y-14775936D01*
X16738991Y-14775936D02*
X16729468Y-14785460D01*
X16729468Y-14785460D02*
X16710420Y-14794984D01*
X16710420Y-14794984D02*
X16653277Y-14794984D01*
X16653277Y-14794984D02*
X16634229Y-14785460D01*
X16634229Y-14785460D02*
X16624706Y-14775936D01*
X16986611Y-14794984D02*
X16986611Y-14594984D01*
X17072325Y-14794984D02*
X17072325Y-14690222D01*
X17072325Y-14690222D02*
X17062801Y-14671174D01*
X17062801Y-14671174D02*
X17043753Y-14661650D01*
X17043753Y-14661650D02*
X17015182Y-14661650D01*
X17015182Y-14661650D02*
X16996134Y-14671174D01*
X16996134Y-14671174D02*
X16986611Y-14680698D01*
X17196134Y-14794984D02*
X17177087Y-14785460D01*
X17177087Y-14785460D02*
X17167563Y-14775936D01*
X17167563Y-14775936D02*
X17158039Y-14756888D01*
X17158039Y-14756888D02*
X17158039Y-14699746D01*
X17158039Y-14699746D02*
X17167563Y-14680698D01*
X17167563Y-14680698D02*
X17177087Y-14671174D01*
X17177087Y-14671174D02*
X17196134Y-14661650D01*
X17196134Y-14661650D02*
X17224706Y-14661650D01*
X17224706Y-14661650D02*
X17243753Y-14671174D01*
X17243753Y-14671174D02*
X17253277Y-14680698D01*
X17253277Y-14680698D02*
X17262801Y-14699746D01*
X17262801Y-14699746D02*
X17262801Y-14756888D01*
X17262801Y-14756888D02*
X17253277Y-14775936D01*
X17253277Y-14775936D02*
X17243753Y-14785460D01*
X17243753Y-14785460D02*
X17224706Y-14794984D01*
X17224706Y-14794984D02*
X17196134Y-14794984D01*
X17377087Y-14794984D02*
X17358039Y-14785460D01*
X17358039Y-14785460D02*
X17348515Y-14766412D01*
X17348515Y-14766412D02*
X17348515Y-14594984D01*
X17529468Y-14785460D02*
X17510420Y-14794984D01*
X17510420Y-14794984D02*
X17472325Y-14794984D01*
X17472325Y-14794984D02*
X17453277Y-14785460D01*
X17453277Y-14785460D02*
X17443753Y-14766412D01*
X17443753Y-14766412D02*
X17443753Y-14690222D01*
X17443753Y-14690222D02*
X17453277Y-14671174D01*
X17453277Y-14671174D02*
X17472325Y-14661650D01*
X17472325Y-14661650D02*
X17510420Y-14661650D01*
X17510420Y-14661650D02*
X17529468Y-14671174D01*
X17529468Y-14671174D02*
X17538992Y-14690222D01*
X17538992Y-14690222D02*
X17538992Y-14709269D01*
X17538992Y-14709269D02*
X17443753Y-14728317D01*
X17615182Y-14785460D02*
X17634230Y-14794984D01*
X17634230Y-14794984D02*
X17672325Y-14794984D01*
X17672325Y-14794984D02*
X17691373Y-14785460D01*
X17691373Y-14785460D02*
X17700896Y-14766412D01*
X17700896Y-14766412D02*
X17700896Y-14756888D01*
X17700896Y-14756888D02*
X17691373Y-14737841D01*
X17691373Y-14737841D02*
X17672325Y-14728317D01*
X17672325Y-14728317D02*
X17643753Y-14728317D01*
X17643753Y-14728317D02*
X17624706Y-14718793D01*
X17624706Y-14718793D02*
X17615182Y-14699746D01*
X17615182Y-14699746D02*
X17615182Y-14690222D01*
X17615182Y-14690222D02*
X17624706Y-14671174D01*
X17624706Y-14671174D02*
X17643753Y-14661650D01*
X17643753Y-14661650D02*
X17672325Y-14661650D01*
X17672325Y-14661650D02*
X17691373Y-14671174D01*
X17767563Y-14871174D02*
X17777087Y-14861650D01*
X17777087Y-14861650D02*
X17796134Y-14833079D01*
X17796134Y-14833079D02*
X17805658Y-14814031D01*
X17805658Y-14814031D02*
X17815182Y-14785460D01*
X17815182Y-14785460D02*
X17824706Y-14737841D01*
X17824706Y-14737841D02*
X17824706Y-14699746D01*
X17824706Y-14699746D02*
X17815182Y-14652127D01*
X17815182Y-14652127D02*
X17805658Y-14623555D01*
X17805658Y-14623555D02*
X17796134Y-14604508D01*
X17796134Y-14604508D02*
X17777087Y-14575936D01*
X17777087Y-14575936D02*
X17767563Y-14566412D01*
X12792500Y-14867500D02*
X12992500Y-15067500D01*
X12992500Y-14867500D02*
X12792500Y-15067500D01*
X12992500Y-14967500D02*
G75*
G02*
X12792500Y-14967500I-100000J0D01*
G01*
X12792500Y-14967500D02*
G75*
G02*
X12992500Y-14967500I100000J0D01*
G01*
X13243753Y-14878031D02*
X13253277Y-14868508D01*
X13253277Y-14868508D02*
X13272324Y-14858984D01*
X13272324Y-14858984D02*
X13319943Y-14858984D01*
X13319943Y-14858984D02*
X13338991Y-14868508D01*
X13338991Y-14868508D02*
X13348515Y-14878031D01*
X13348515Y-14878031D02*
X13358039Y-14897079D01*
X13358039Y-14897079D02*
X13358039Y-14916127D01*
X13358039Y-14916127D02*
X13348515Y-14944698D01*
X13348515Y-14944698D02*
X13234229Y-15058984D01*
X13234229Y-15058984D02*
X13358039Y-15058984D01*
X13443753Y-15039936D02*
X13453277Y-15049460D01*
X13453277Y-15049460D02*
X13443753Y-15058984D01*
X13443753Y-15058984D02*
X13434229Y-15049460D01*
X13434229Y-15049460D02*
X13443753Y-15039936D01*
X13443753Y-15039936D02*
X13443753Y-15058984D01*
X13519943Y-14858984D02*
X13643753Y-14858984D01*
X13643753Y-14858984D02*
X13577086Y-14935174D01*
X13577086Y-14935174D02*
X13605658Y-14935174D01*
X13605658Y-14935174D02*
X13624705Y-14944698D01*
X13624705Y-14944698D02*
X13634229Y-14954222D01*
X13634229Y-14954222D02*
X13643753Y-14973269D01*
X13643753Y-14973269D02*
X13643753Y-15020888D01*
X13643753Y-15020888D02*
X13634229Y-15039936D01*
X13634229Y-15039936D02*
X13624705Y-15049460D01*
X13624705Y-15049460D02*
X13605658Y-15058984D01*
X13605658Y-15058984D02*
X13548515Y-15058984D01*
X13548515Y-15058984D02*
X13529467Y-15049460D01*
X13529467Y-15049460D02*
X13519943Y-15039936D01*
X13710420Y-14858984D02*
X13834229Y-14858984D01*
X13834229Y-14858984D02*
X13767562Y-14935174D01*
X13767562Y-14935174D02*
X13796134Y-14935174D01*
X13796134Y-14935174D02*
X13815182Y-14944698D01*
X13815182Y-14944698D02*
X13824705Y-14954222D01*
X13824705Y-14954222D02*
X13834229Y-14973269D01*
X13834229Y-14973269D02*
X13834229Y-15020888D01*
X13834229Y-15020888D02*
X13824705Y-15039936D01*
X13824705Y-15039936D02*
X13815182Y-15049460D01*
X13815182Y-15049460D02*
X13796134Y-15058984D01*
X13796134Y-15058984D02*
X13738991Y-15058984D01*
X13738991Y-15058984D02*
X13719943Y-15049460D01*
X13719943Y-15049460D02*
X13710420Y-15039936D01*
X13958039Y-14858984D02*
X13977086Y-14858984D01*
X13977086Y-14858984D02*
X13996134Y-14868508D01*
X13996134Y-14868508D02*
X14005658Y-14878031D01*
X14005658Y-14878031D02*
X14015182Y-14897079D01*
X14015182Y-14897079D02*
X14024705Y-14935174D01*
X14024705Y-14935174D02*
X14024705Y-14982793D01*
X14024705Y-14982793D02*
X14015182Y-15020888D01*
X14015182Y-15020888D02*
X14005658Y-15039936D01*
X14005658Y-15039936D02*
X13996134Y-15049460D01*
X13996134Y-15049460D02*
X13977086Y-15058984D01*
X13977086Y-15058984D02*
X13958039Y-15058984D01*
X13958039Y-15058984D02*
X13938991Y-15049460D01*
X13938991Y-15049460D02*
X13929467Y-15039936D01*
X13929467Y-15039936D02*
X13919943Y-15020888D01*
X13919943Y-15020888D02*
X13910420Y-14982793D01*
X13910420Y-14982793D02*
X13910420Y-14935174D01*
X13910420Y-14935174D02*
X13919943Y-14897079D01*
X13919943Y-14897079D02*
X13929467Y-14878031D01*
X13929467Y-14878031D02*
X13938991Y-14868508D01*
X13938991Y-14868508D02*
X13958039Y-14858984D01*
X14110420Y-15058984D02*
X14110420Y-14925650D01*
X14110420Y-14944698D02*
X14119943Y-14935174D01*
X14119943Y-14935174D02*
X14138991Y-14925650D01*
X14138991Y-14925650D02*
X14167563Y-14925650D01*
X14167563Y-14925650D02*
X14186610Y-14935174D01*
X14186610Y-14935174D02*
X14196134Y-14954222D01*
X14196134Y-14954222D02*
X14196134Y-15058984D01*
X14196134Y-14954222D02*
X14205658Y-14935174D01*
X14205658Y-14935174D02*
X14224705Y-14925650D01*
X14224705Y-14925650D02*
X14253277Y-14925650D01*
X14253277Y-14925650D02*
X14272324Y-14935174D01*
X14272324Y-14935174D02*
X14281848Y-14954222D01*
X14281848Y-14954222D02*
X14281848Y-15058984D01*
X14377086Y-15058984D02*
X14377086Y-14925650D01*
X14377086Y-14944698D02*
X14386610Y-14935174D01*
X14386610Y-14935174D02*
X14405658Y-14925650D01*
X14405658Y-14925650D02*
X14434229Y-14925650D01*
X14434229Y-14925650D02*
X14453277Y-14935174D01*
X14453277Y-14935174D02*
X14462801Y-14954222D01*
X14462801Y-14954222D02*
X14462801Y-15058984D01*
X14462801Y-14954222D02*
X14472324Y-14935174D01*
X14472324Y-14935174D02*
X14491372Y-14925650D01*
X14491372Y-14925650D02*
X14519943Y-14925650D01*
X14519943Y-14925650D02*
X14538991Y-14935174D01*
X14538991Y-14935174D02*
X14548515Y-14954222D01*
X14548515Y-14954222D02*
X14548515Y-15058984D01*
X14938991Y-14849460D02*
X14767563Y-15106603D01*
X15196134Y-14858984D02*
X15215182Y-14858984D01*
X15215182Y-14858984D02*
X15234229Y-14868508D01*
X15234229Y-14868508D02*
X15243753Y-14878031D01*
X15243753Y-14878031D02*
X15253277Y-14897079D01*
X15253277Y-14897079D02*
X15262801Y-14935174D01*
X15262801Y-14935174D02*
X15262801Y-14982793D01*
X15262801Y-14982793D02*
X15253277Y-15020888D01*
X15253277Y-15020888D02*
X15243753Y-15039936D01*
X15243753Y-15039936D02*
X15234229Y-15049460D01*
X15234229Y-15049460D02*
X15215182Y-15058984D01*
X15215182Y-15058984D02*
X15196134Y-15058984D01*
X15196134Y-15058984D02*
X15177086Y-15049460D01*
X15177086Y-15049460D02*
X15167563Y-15039936D01*
X15167563Y-15039936D02*
X15158039Y-15020888D01*
X15158039Y-15020888D02*
X15148515Y-14982793D01*
X15148515Y-14982793D02*
X15148515Y-14935174D01*
X15148515Y-14935174D02*
X15158039Y-14897079D01*
X15158039Y-14897079D02*
X15167563Y-14878031D01*
X15167563Y-14878031D02*
X15177086Y-14868508D01*
X15177086Y-14868508D02*
X15196134Y-14858984D01*
X15348515Y-15039936D02*
X15358039Y-15049460D01*
X15358039Y-15049460D02*
X15348515Y-15058984D01*
X15348515Y-15058984D02*
X15338991Y-15049460D01*
X15338991Y-15049460D02*
X15348515Y-15039936D01*
X15348515Y-15039936D02*
X15348515Y-15058984D01*
X15481848Y-14858984D02*
X15500896Y-14858984D01*
X15500896Y-14858984D02*
X15519944Y-14868508D01*
X15519944Y-14868508D02*
X15529467Y-14878031D01*
X15529467Y-14878031D02*
X15538991Y-14897079D01*
X15538991Y-14897079D02*
X15548515Y-14935174D01*
X15548515Y-14935174D02*
X15548515Y-14982793D01*
X15548515Y-14982793D02*
X15538991Y-15020888D01*
X15538991Y-15020888D02*
X15529467Y-15039936D01*
X15529467Y-15039936D02*
X15519944Y-15049460D01*
X15519944Y-15049460D02*
X15500896Y-15058984D01*
X15500896Y-15058984D02*
X15481848Y-15058984D01*
X15481848Y-15058984D02*
X15462801Y-15049460D01*
X15462801Y-15049460D02*
X15453277Y-15039936D01*
X15453277Y-15039936D02*
X15443753Y-15020888D01*
X15443753Y-15020888D02*
X15434229Y-14982793D01*
X15434229Y-14982793D02*
X15434229Y-14935174D01*
X15434229Y-14935174D02*
X15443753Y-14897079D01*
X15443753Y-14897079D02*
X15453277Y-14878031D01*
X15453277Y-14878031D02*
X15462801Y-14868508D01*
X15462801Y-14868508D02*
X15481848Y-14858984D01*
X15643753Y-15058984D02*
X15681848Y-15058984D01*
X15681848Y-15058984D02*
X15700896Y-15049460D01*
X15700896Y-15049460D02*
X15710420Y-15039936D01*
X15710420Y-15039936D02*
X15729467Y-15011365D01*
X15729467Y-15011365D02*
X15738991Y-14973269D01*
X15738991Y-14973269D02*
X15738991Y-14897079D01*
X15738991Y-14897079D02*
X15729467Y-14878031D01*
X15729467Y-14878031D02*
X15719944Y-14868508D01*
X15719944Y-14868508D02*
X15700896Y-14858984D01*
X15700896Y-14858984D02*
X15662801Y-14858984D01*
X15662801Y-14858984D02*
X15643753Y-14868508D01*
X15643753Y-14868508D02*
X15634229Y-14878031D01*
X15634229Y-14878031D02*
X15624706Y-14897079D01*
X15624706Y-14897079D02*
X15624706Y-14944698D01*
X15624706Y-14944698D02*
X15634229Y-14963746D01*
X15634229Y-14963746D02*
X15643753Y-14973269D01*
X15643753Y-14973269D02*
X15662801Y-14982793D01*
X15662801Y-14982793D02*
X15700896Y-14982793D01*
X15700896Y-14982793D02*
X15719944Y-14973269D01*
X15719944Y-14973269D02*
X15729467Y-14963746D01*
X15729467Y-14963746D02*
X15738991Y-14944698D01*
X15929467Y-15058984D02*
X15815182Y-15058984D01*
X15872325Y-15058984D02*
X15872325Y-14858984D01*
X15872325Y-14858984D02*
X15853277Y-14887555D01*
X15853277Y-14887555D02*
X15834229Y-14906603D01*
X15834229Y-14906603D02*
X15815182Y-14916127D01*
X15996134Y-14858984D02*
X16129467Y-14858984D01*
X16129467Y-14858984D02*
X16043753Y-15058984D01*
X16196134Y-14858984D02*
X16196134Y-14897079D01*
X16272325Y-14858984D02*
X16272325Y-14897079D01*
X16567563Y-15135174D02*
X16558039Y-15125650D01*
X16558039Y-15125650D02*
X16538991Y-15097079D01*
X16538991Y-15097079D02*
X16529468Y-15078031D01*
X16529468Y-15078031D02*
X16519944Y-15049460D01*
X16519944Y-15049460D02*
X16510420Y-15001841D01*
X16510420Y-15001841D02*
X16510420Y-14963746D01*
X16510420Y-14963746D02*
X16519944Y-14916127D01*
X16519944Y-14916127D02*
X16529468Y-14887555D01*
X16529468Y-14887555D02*
X16538991Y-14868508D01*
X16538991Y-14868508D02*
X16558039Y-14839936D01*
X16558039Y-14839936D02*
X16567563Y-14830412D01*
X16634229Y-14878031D02*
X16643753Y-14868508D01*
X16643753Y-14868508D02*
X16662801Y-14858984D01*
X16662801Y-14858984D02*
X16710420Y-14858984D01*
X16710420Y-14858984D02*
X16729468Y-14868508D01*
X16729468Y-14868508D02*
X16738991Y-14878031D01*
X16738991Y-14878031D02*
X16748515Y-14897079D01*
X16748515Y-14897079D02*
X16748515Y-14916127D01*
X16748515Y-14916127D02*
X16738991Y-14944698D01*
X16738991Y-14944698D02*
X16624706Y-15058984D01*
X16624706Y-15058984D02*
X16748515Y-15058984D01*
X16986611Y-15058984D02*
X16986611Y-14858984D01*
X17072325Y-15058984D02*
X17072325Y-14954222D01*
X17072325Y-14954222D02*
X17062801Y-14935174D01*
X17062801Y-14935174D02*
X17043753Y-14925650D01*
X17043753Y-14925650D02*
X17015182Y-14925650D01*
X17015182Y-14925650D02*
X16996134Y-14935174D01*
X16996134Y-14935174D02*
X16986611Y-14944698D01*
X17196134Y-15058984D02*
X17177087Y-15049460D01*
X17177087Y-15049460D02*
X17167563Y-15039936D01*
X17167563Y-15039936D02*
X17158039Y-15020888D01*
X17158039Y-15020888D02*
X17158039Y-14963746D01*
X17158039Y-14963746D02*
X17167563Y-14944698D01*
X17167563Y-14944698D02*
X17177087Y-14935174D01*
X17177087Y-14935174D02*
X17196134Y-14925650D01*
X17196134Y-14925650D02*
X17224706Y-14925650D01*
X17224706Y-14925650D02*
X17243753Y-14935174D01*
X17243753Y-14935174D02*
X17253277Y-14944698D01*
X17253277Y-14944698D02*
X17262801Y-14963746D01*
X17262801Y-14963746D02*
X17262801Y-15020888D01*
X17262801Y-15020888D02*
X17253277Y-15039936D01*
X17253277Y-15039936D02*
X17243753Y-15049460D01*
X17243753Y-15049460D02*
X17224706Y-15058984D01*
X17224706Y-15058984D02*
X17196134Y-15058984D01*
X17377087Y-15058984D02*
X17358039Y-15049460D01*
X17358039Y-15049460D02*
X17348515Y-15030412D01*
X17348515Y-15030412D02*
X17348515Y-14858984D01*
X17529468Y-15049460D02*
X17510420Y-15058984D01*
X17510420Y-15058984D02*
X17472325Y-15058984D01*
X17472325Y-15058984D02*
X17453277Y-15049460D01*
X17453277Y-15049460D02*
X17443753Y-15030412D01*
X17443753Y-15030412D02*
X17443753Y-14954222D01*
X17443753Y-14954222D02*
X17453277Y-14935174D01*
X17453277Y-14935174D02*
X17472325Y-14925650D01*
X17472325Y-14925650D02*
X17510420Y-14925650D01*
X17510420Y-14925650D02*
X17529468Y-14935174D01*
X17529468Y-14935174D02*
X17538992Y-14954222D01*
X17538992Y-14954222D02*
X17538992Y-14973269D01*
X17538992Y-14973269D02*
X17443753Y-14992317D01*
X17615182Y-15049460D02*
X17634230Y-15058984D01*
X17634230Y-15058984D02*
X17672325Y-15058984D01*
X17672325Y-15058984D02*
X17691373Y-15049460D01*
X17691373Y-15049460D02*
X17700896Y-15030412D01*
X17700896Y-15030412D02*
X17700896Y-15020888D01*
X17700896Y-15020888D02*
X17691373Y-15001841D01*
X17691373Y-15001841D02*
X17672325Y-14992317D01*
X17672325Y-14992317D02*
X17643753Y-14992317D01*
X17643753Y-14992317D02*
X17624706Y-14982793D01*
X17624706Y-14982793D02*
X17615182Y-14963746D01*
X17615182Y-14963746D02*
X17615182Y-14954222D01*
X17615182Y-14954222D02*
X17624706Y-14935174D01*
X17624706Y-14935174D02*
X17643753Y-14925650D01*
X17643753Y-14925650D02*
X17672325Y-14925650D01*
X17672325Y-14925650D02*
X17691373Y-14935174D01*
X17767563Y-15135174D02*
X17777087Y-15125650D01*
X17777087Y-15125650D02*
X17796134Y-15097079D01*
X17796134Y-15097079D02*
X17805658Y-15078031D01*
X17805658Y-15078031D02*
X17815182Y-15049460D01*
X17815182Y-15049460D02*
X17824706Y-15001841D01*
X17824706Y-15001841D02*
X17824706Y-14963746D01*
X17824706Y-14963746D02*
X17815182Y-14916127D01*
X17815182Y-14916127D02*
X17805658Y-14887555D01*
X17805658Y-14887555D02*
X17796134Y-14868508D01*
X17796134Y-14868508D02*
X17777087Y-14839936D01*
X17777087Y-14839936D02*
X17767563Y-14830412D01*
X12792500Y-15187500D02*
X12992500Y-15387500D01*
X12992500Y-15187500D02*
X12792500Y-15387500D01*
X12892500Y-15187500D02*
X12892500Y-15387500D01*
X12792500Y-15287500D02*
X12992500Y-15287500D01*
X13243753Y-15198031D02*
X13253277Y-15188508D01*
X13253277Y-15188508D02*
X13272324Y-15178984D01*
X13272324Y-15178984D02*
X13319943Y-15178984D01*
X13319943Y-15178984D02*
X13338991Y-15188508D01*
X13338991Y-15188508D02*
X13348515Y-15198031D01*
X13348515Y-15198031D02*
X13358039Y-15217079D01*
X13358039Y-15217079D02*
X13358039Y-15236127D01*
X13358039Y-15236127D02*
X13348515Y-15264698D01*
X13348515Y-15264698D02*
X13234229Y-15378984D01*
X13234229Y-15378984D02*
X13358039Y-15378984D01*
X13443753Y-15359936D02*
X13453277Y-15369460D01*
X13453277Y-15369460D02*
X13443753Y-15378984D01*
X13443753Y-15378984D02*
X13434229Y-15369460D01*
X13434229Y-15369460D02*
X13443753Y-15359936D01*
X13443753Y-15359936D02*
X13443753Y-15378984D01*
X13519943Y-15178984D02*
X13653277Y-15178984D01*
X13653277Y-15178984D02*
X13567562Y-15378984D01*
X13767562Y-15178984D02*
X13786610Y-15178984D01*
X13786610Y-15178984D02*
X13805658Y-15188508D01*
X13805658Y-15188508D02*
X13815182Y-15198031D01*
X13815182Y-15198031D02*
X13824705Y-15217079D01*
X13824705Y-15217079D02*
X13834229Y-15255174D01*
X13834229Y-15255174D02*
X13834229Y-15302793D01*
X13834229Y-15302793D02*
X13824705Y-15340888D01*
X13824705Y-15340888D02*
X13815182Y-15359936D01*
X13815182Y-15359936D02*
X13805658Y-15369460D01*
X13805658Y-15369460D02*
X13786610Y-15378984D01*
X13786610Y-15378984D02*
X13767562Y-15378984D01*
X13767562Y-15378984D02*
X13748515Y-15369460D01*
X13748515Y-15369460D02*
X13738991Y-15359936D01*
X13738991Y-15359936D02*
X13729467Y-15340888D01*
X13729467Y-15340888D02*
X13719943Y-15302793D01*
X13719943Y-15302793D02*
X13719943Y-15255174D01*
X13719943Y-15255174D02*
X13729467Y-15217079D01*
X13729467Y-15217079D02*
X13738991Y-15198031D01*
X13738991Y-15198031D02*
X13748515Y-15188508D01*
X13748515Y-15188508D02*
X13767562Y-15178984D01*
X13958039Y-15178984D02*
X13977086Y-15178984D01*
X13977086Y-15178984D02*
X13996134Y-15188508D01*
X13996134Y-15188508D02*
X14005658Y-15198031D01*
X14005658Y-15198031D02*
X14015182Y-15217079D01*
X14015182Y-15217079D02*
X14024705Y-15255174D01*
X14024705Y-15255174D02*
X14024705Y-15302793D01*
X14024705Y-15302793D02*
X14015182Y-15340888D01*
X14015182Y-15340888D02*
X14005658Y-15359936D01*
X14005658Y-15359936D02*
X13996134Y-15369460D01*
X13996134Y-15369460D02*
X13977086Y-15378984D01*
X13977086Y-15378984D02*
X13958039Y-15378984D01*
X13958039Y-15378984D02*
X13938991Y-15369460D01*
X13938991Y-15369460D02*
X13929467Y-15359936D01*
X13929467Y-15359936D02*
X13919943Y-15340888D01*
X13919943Y-15340888D02*
X13910420Y-15302793D01*
X13910420Y-15302793D02*
X13910420Y-15255174D01*
X13910420Y-15255174D02*
X13919943Y-15217079D01*
X13919943Y-15217079D02*
X13929467Y-15198031D01*
X13929467Y-15198031D02*
X13938991Y-15188508D01*
X13938991Y-15188508D02*
X13958039Y-15178984D01*
X14110420Y-15378984D02*
X14110420Y-15245650D01*
X14110420Y-15264698D02*
X14119943Y-15255174D01*
X14119943Y-15255174D02*
X14138991Y-15245650D01*
X14138991Y-15245650D02*
X14167563Y-15245650D01*
X14167563Y-15245650D02*
X14186610Y-15255174D01*
X14186610Y-15255174D02*
X14196134Y-15274222D01*
X14196134Y-15274222D02*
X14196134Y-15378984D01*
X14196134Y-15274222D02*
X14205658Y-15255174D01*
X14205658Y-15255174D02*
X14224705Y-15245650D01*
X14224705Y-15245650D02*
X14253277Y-15245650D01*
X14253277Y-15245650D02*
X14272324Y-15255174D01*
X14272324Y-15255174D02*
X14281848Y-15274222D01*
X14281848Y-15274222D02*
X14281848Y-15378984D01*
X14377086Y-15378984D02*
X14377086Y-15245650D01*
X14377086Y-15264698D02*
X14386610Y-15255174D01*
X14386610Y-15255174D02*
X14405658Y-15245650D01*
X14405658Y-15245650D02*
X14434229Y-15245650D01*
X14434229Y-15245650D02*
X14453277Y-15255174D01*
X14453277Y-15255174D02*
X14462801Y-15274222D01*
X14462801Y-15274222D02*
X14462801Y-15378984D01*
X14462801Y-15274222D02*
X14472324Y-15255174D01*
X14472324Y-15255174D02*
X14491372Y-15245650D01*
X14491372Y-15245650D02*
X14519943Y-15245650D01*
X14519943Y-15245650D02*
X14538991Y-15255174D01*
X14538991Y-15255174D02*
X14548515Y-15274222D01*
X14548515Y-15274222D02*
X14548515Y-15378984D01*
X14938991Y-15169460D02*
X14767563Y-15426603D01*
X15196134Y-15178984D02*
X15215182Y-15178984D01*
X15215182Y-15178984D02*
X15234229Y-15188508D01*
X15234229Y-15188508D02*
X15243753Y-15198031D01*
X15243753Y-15198031D02*
X15253277Y-15217079D01*
X15253277Y-15217079D02*
X15262801Y-15255174D01*
X15262801Y-15255174D02*
X15262801Y-15302793D01*
X15262801Y-15302793D02*
X15253277Y-15340888D01*
X15253277Y-15340888D02*
X15243753Y-15359936D01*
X15243753Y-15359936D02*
X15234229Y-15369460D01*
X15234229Y-15369460D02*
X15215182Y-15378984D01*
X15215182Y-15378984D02*
X15196134Y-15378984D01*
X15196134Y-15378984D02*
X15177086Y-15369460D01*
X15177086Y-15369460D02*
X15167563Y-15359936D01*
X15167563Y-15359936D02*
X15158039Y-15340888D01*
X15158039Y-15340888D02*
X15148515Y-15302793D01*
X15148515Y-15302793D02*
X15148515Y-15255174D01*
X15148515Y-15255174D02*
X15158039Y-15217079D01*
X15158039Y-15217079D02*
X15167563Y-15198031D01*
X15167563Y-15198031D02*
X15177086Y-15188508D01*
X15177086Y-15188508D02*
X15196134Y-15178984D01*
X15348515Y-15359936D02*
X15358039Y-15369460D01*
X15358039Y-15369460D02*
X15348515Y-15378984D01*
X15348515Y-15378984D02*
X15338991Y-15369460D01*
X15338991Y-15369460D02*
X15348515Y-15359936D01*
X15348515Y-15359936D02*
X15348515Y-15378984D01*
X15548515Y-15378984D02*
X15434229Y-15378984D01*
X15491372Y-15378984D02*
X15491372Y-15178984D01*
X15491372Y-15178984D02*
X15472325Y-15207555D01*
X15472325Y-15207555D02*
X15453277Y-15226603D01*
X15453277Y-15226603D02*
X15434229Y-15236127D01*
X15672325Y-15178984D02*
X15691372Y-15178984D01*
X15691372Y-15178984D02*
X15710420Y-15188508D01*
X15710420Y-15188508D02*
X15719944Y-15198031D01*
X15719944Y-15198031D02*
X15729467Y-15217079D01*
X15729467Y-15217079D02*
X15738991Y-15255174D01*
X15738991Y-15255174D02*
X15738991Y-15302793D01*
X15738991Y-15302793D02*
X15729467Y-15340888D01*
X15729467Y-15340888D02*
X15719944Y-15359936D01*
X15719944Y-15359936D02*
X15710420Y-15369460D01*
X15710420Y-15369460D02*
X15691372Y-15378984D01*
X15691372Y-15378984D02*
X15672325Y-15378984D01*
X15672325Y-15378984D02*
X15653277Y-15369460D01*
X15653277Y-15369460D02*
X15643753Y-15359936D01*
X15643753Y-15359936D02*
X15634229Y-15340888D01*
X15634229Y-15340888D02*
X15624706Y-15302793D01*
X15624706Y-15302793D02*
X15624706Y-15255174D01*
X15624706Y-15255174D02*
X15634229Y-15217079D01*
X15634229Y-15217079D02*
X15643753Y-15198031D01*
X15643753Y-15198031D02*
X15653277Y-15188508D01*
X15653277Y-15188508D02*
X15672325Y-15178984D01*
X15910420Y-15178984D02*
X15872325Y-15178984D01*
X15872325Y-15178984D02*
X15853277Y-15188508D01*
X15853277Y-15188508D02*
X15843753Y-15198031D01*
X15843753Y-15198031D02*
X15824706Y-15226603D01*
X15824706Y-15226603D02*
X15815182Y-15264698D01*
X15815182Y-15264698D02*
X15815182Y-15340888D01*
X15815182Y-15340888D02*
X15824706Y-15359936D01*
X15824706Y-15359936D02*
X15834229Y-15369460D01*
X15834229Y-15369460D02*
X15853277Y-15378984D01*
X15853277Y-15378984D02*
X15891372Y-15378984D01*
X15891372Y-15378984D02*
X15910420Y-15369460D01*
X15910420Y-15369460D02*
X15919944Y-15359936D01*
X15919944Y-15359936D02*
X15929467Y-15340888D01*
X15929467Y-15340888D02*
X15929467Y-15293269D01*
X15929467Y-15293269D02*
X15919944Y-15274222D01*
X15919944Y-15274222D02*
X15910420Y-15264698D01*
X15910420Y-15264698D02*
X15891372Y-15255174D01*
X15891372Y-15255174D02*
X15853277Y-15255174D01*
X15853277Y-15255174D02*
X15834229Y-15264698D01*
X15834229Y-15264698D02*
X15824706Y-15274222D01*
X15824706Y-15274222D02*
X15815182Y-15293269D01*
X15996134Y-15178984D02*
X16119944Y-15178984D01*
X16119944Y-15178984D02*
X16053277Y-15255174D01*
X16053277Y-15255174D02*
X16081848Y-15255174D01*
X16081848Y-15255174D02*
X16100896Y-15264698D01*
X16100896Y-15264698D02*
X16110420Y-15274222D01*
X16110420Y-15274222D02*
X16119944Y-15293269D01*
X16119944Y-15293269D02*
X16119944Y-15340888D01*
X16119944Y-15340888D02*
X16110420Y-15359936D01*
X16110420Y-15359936D02*
X16100896Y-15369460D01*
X16100896Y-15369460D02*
X16081848Y-15378984D01*
X16081848Y-15378984D02*
X16024706Y-15378984D01*
X16024706Y-15378984D02*
X16005658Y-15369460D01*
X16005658Y-15369460D02*
X15996134Y-15359936D01*
X16196134Y-15178984D02*
X16196134Y-15217079D01*
X16272325Y-15178984D02*
X16272325Y-15217079D01*
X16567563Y-15455174D02*
X16558039Y-15445650D01*
X16558039Y-15445650D02*
X16538991Y-15417079D01*
X16538991Y-15417079D02*
X16529468Y-15398031D01*
X16529468Y-15398031D02*
X16519944Y-15369460D01*
X16519944Y-15369460D02*
X16510420Y-15321841D01*
X16510420Y-15321841D02*
X16510420Y-15283746D01*
X16510420Y-15283746D02*
X16519944Y-15236127D01*
X16519944Y-15236127D02*
X16529468Y-15207555D01*
X16529468Y-15207555D02*
X16538991Y-15188508D01*
X16538991Y-15188508D02*
X16558039Y-15159936D01*
X16558039Y-15159936D02*
X16567563Y-15150412D01*
X16729468Y-15245650D02*
X16729468Y-15378984D01*
X16681848Y-15169460D02*
X16634229Y-15312317D01*
X16634229Y-15312317D02*
X16758039Y-15312317D01*
X16986611Y-15378984D02*
X16986611Y-15178984D01*
X17072325Y-15378984D02*
X17072325Y-15274222D01*
X17072325Y-15274222D02*
X17062801Y-15255174D01*
X17062801Y-15255174D02*
X17043753Y-15245650D01*
X17043753Y-15245650D02*
X17015182Y-15245650D01*
X17015182Y-15245650D02*
X16996134Y-15255174D01*
X16996134Y-15255174D02*
X16986611Y-15264698D01*
X17196134Y-15378984D02*
X17177087Y-15369460D01*
X17177087Y-15369460D02*
X17167563Y-15359936D01*
X17167563Y-15359936D02*
X17158039Y-15340888D01*
X17158039Y-15340888D02*
X17158039Y-15283746D01*
X17158039Y-15283746D02*
X17167563Y-15264698D01*
X17167563Y-15264698D02*
X17177087Y-15255174D01*
X17177087Y-15255174D02*
X17196134Y-15245650D01*
X17196134Y-15245650D02*
X17224706Y-15245650D01*
X17224706Y-15245650D02*
X17243753Y-15255174D01*
X17243753Y-15255174D02*
X17253277Y-15264698D01*
X17253277Y-15264698D02*
X17262801Y-15283746D01*
X17262801Y-15283746D02*
X17262801Y-15340888D01*
X17262801Y-15340888D02*
X17253277Y-15359936D01*
X17253277Y-15359936D02*
X17243753Y-15369460D01*
X17243753Y-15369460D02*
X17224706Y-15378984D01*
X17224706Y-15378984D02*
X17196134Y-15378984D01*
X17377087Y-15378984D02*
X17358039Y-15369460D01*
X17358039Y-15369460D02*
X17348515Y-15350412D01*
X17348515Y-15350412D02*
X17348515Y-15178984D01*
X17529468Y-15369460D02*
X17510420Y-15378984D01*
X17510420Y-15378984D02*
X17472325Y-15378984D01*
X17472325Y-15378984D02*
X17453277Y-15369460D01*
X17453277Y-15369460D02*
X17443753Y-15350412D01*
X17443753Y-15350412D02*
X17443753Y-15274222D01*
X17443753Y-15274222D02*
X17453277Y-15255174D01*
X17453277Y-15255174D02*
X17472325Y-15245650D01*
X17472325Y-15245650D02*
X17510420Y-15245650D01*
X17510420Y-15245650D02*
X17529468Y-15255174D01*
X17529468Y-15255174D02*
X17538992Y-15274222D01*
X17538992Y-15274222D02*
X17538992Y-15293269D01*
X17538992Y-15293269D02*
X17443753Y-15312317D01*
X17615182Y-15369460D02*
X17634230Y-15378984D01*
X17634230Y-15378984D02*
X17672325Y-15378984D01*
X17672325Y-15378984D02*
X17691373Y-15369460D01*
X17691373Y-15369460D02*
X17700896Y-15350412D01*
X17700896Y-15350412D02*
X17700896Y-15340888D01*
X17700896Y-15340888D02*
X17691373Y-15321841D01*
X17691373Y-15321841D02*
X17672325Y-15312317D01*
X17672325Y-15312317D02*
X17643753Y-15312317D01*
X17643753Y-15312317D02*
X17624706Y-15302793D01*
X17624706Y-15302793D02*
X17615182Y-15283746D01*
X17615182Y-15283746D02*
X17615182Y-15274222D01*
X17615182Y-15274222D02*
X17624706Y-15255174D01*
X17624706Y-15255174D02*
X17643753Y-15245650D01*
X17643753Y-15245650D02*
X17672325Y-15245650D01*
X17672325Y-15245650D02*
X17691373Y-15255174D01*
X17767563Y-15455174D02*
X17777087Y-15445650D01*
X17777087Y-15445650D02*
X17796134Y-15417079D01*
X17796134Y-15417079D02*
X17805658Y-15398031D01*
X17805658Y-15398031D02*
X17815182Y-15369460D01*
X17815182Y-15369460D02*
X17824706Y-15321841D01*
X17824706Y-15321841D02*
X17824706Y-15283746D01*
X17824706Y-15283746D02*
X17815182Y-15236127D01*
X17815182Y-15236127D02*
X17805658Y-15207555D01*
X17805658Y-15207555D02*
X17796134Y-15188508D01*
X17796134Y-15188508D02*
X17777087Y-15159936D01*
X17777087Y-15159936D02*
X17767563Y-15150412D01*
M02*
