M48
; DRILL file {KiCad 5.1.5+dfsg1-2build2} date Fri 21 Jan 2022 07:49:20 EST
; FORMAT={3:3/ absolute / metric / suppress leading zeros}
; #@! TF.CreationDate,2022-01-21T07:49:20-05:00
; #@! TF.GenerationSoftware,Kicad,Pcbnew,5.1.5+dfsg1-2build2
FMAT,2
METRIC,TZ
T1C0.400
T2C0.800
T3C0.920
T4C1.000
T5C2.330
T6C3.300
%
G90
G05
T1
X163056Y-112723
X165965Y-107815
X169000Y-97700
X171200Y-102900
T2
X153100Y-105120
X153100Y-110000
T3
X143500Y-103400
X143500Y-105900
X145500Y-103400
X145500Y-105900
T4
X154500Y-121560
X154500Y-124100
X157040Y-121560
X157040Y-124100
X159580Y-121560
X159580Y-124100
X162120Y-121560
X162120Y-124100
X144600Y-89700
X144600Y-92240
X169700Y-124500
X172240Y-124500
X174780Y-124500
T5
X140790Y-98630
X140790Y-110670
T6
X136000Y-124000
X184000Y-86000
X184000Y-124000
X136000Y-86000
T0
M30
