G04 #@! TF.GenerationSoftware,KiCad,Pcbnew,8.0.6*
G04 #@! TF.CreationDate,2025-01-14T12:10:58-05:00*
G04 #@! TF.ProjectId,usb_lin,7573625f-6c69-46e2-9e6b-696361645f70,rev?*
G04 #@! TF.SameCoordinates,Original*
G04 #@! TF.FileFunction,Legend,Top*
G04 #@! TF.FilePolarity,Positive*
%FSLAX46Y46*%
G04 Gerber Fmt 4.6, Leading zero omitted, Abs format (unit mm)*
G04 Created by KiCad (PCBNEW 8.0.6) date 2025-01-14 12:10:58*
%MOMM*%
%LPD*%
G01*
G04 APERTURE LIST*
%ADD10C,0.150000*%
%ADD11C,0.120000*%
%ADD12C,0.152400*%
G04 APERTURE END LIST*
D10*
X153333333Y-97279580D02*
X153285714Y-97327200D01*
X153285714Y-97327200D02*
X153142857Y-97374819D01*
X153142857Y-97374819D02*
X153047619Y-97374819D01*
X153047619Y-97374819D02*
X152904762Y-97327200D01*
X152904762Y-97327200D02*
X152809524Y-97231961D01*
X152809524Y-97231961D02*
X152761905Y-97136723D01*
X152761905Y-97136723D02*
X152714286Y-96946247D01*
X152714286Y-96946247D02*
X152714286Y-96803390D01*
X152714286Y-96803390D02*
X152761905Y-96612914D01*
X152761905Y-96612914D02*
X152809524Y-96517676D01*
X152809524Y-96517676D02*
X152904762Y-96422438D01*
X152904762Y-96422438D02*
X153047619Y-96374819D01*
X153047619Y-96374819D02*
X153142857Y-96374819D01*
X153142857Y-96374819D02*
X153285714Y-96422438D01*
X153285714Y-96422438D02*
X153333333Y-96470057D01*
X154285714Y-97374819D02*
X153714286Y-97374819D01*
X154000000Y-97374819D02*
X154000000Y-96374819D01*
X154000000Y-96374819D02*
X153904762Y-96517676D01*
X153904762Y-96517676D02*
X153809524Y-96612914D01*
X153809524Y-96612914D02*
X153714286Y-96660533D01*
X156783333Y-113959580D02*
X156735714Y-114007200D01*
X156735714Y-114007200D02*
X156592857Y-114054819D01*
X156592857Y-114054819D02*
X156497619Y-114054819D01*
X156497619Y-114054819D02*
X156354762Y-114007200D01*
X156354762Y-114007200D02*
X156259524Y-113911961D01*
X156259524Y-113911961D02*
X156211905Y-113816723D01*
X156211905Y-113816723D02*
X156164286Y-113626247D01*
X156164286Y-113626247D02*
X156164286Y-113483390D01*
X156164286Y-113483390D02*
X156211905Y-113292914D01*
X156211905Y-113292914D02*
X156259524Y-113197676D01*
X156259524Y-113197676D02*
X156354762Y-113102438D01*
X156354762Y-113102438D02*
X156497619Y-113054819D01*
X156497619Y-113054819D02*
X156592857Y-113054819D01*
X156592857Y-113054819D02*
X156735714Y-113102438D01*
X156735714Y-113102438D02*
X156783333Y-113150057D01*
X157164286Y-113150057D02*
X157211905Y-113102438D01*
X157211905Y-113102438D02*
X157307143Y-113054819D01*
X157307143Y-113054819D02*
X157545238Y-113054819D01*
X157545238Y-113054819D02*
X157640476Y-113102438D01*
X157640476Y-113102438D02*
X157688095Y-113150057D01*
X157688095Y-113150057D02*
X157735714Y-113245295D01*
X157735714Y-113245295D02*
X157735714Y-113340533D01*
X157735714Y-113340533D02*
X157688095Y-113483390D01*
X157688095Y-113483390D02*
X157116667Y-114054819D01*
X157116667Y-114054819D02*
X157735714Y-114054819D01*
X161308333Y-97229580D02*
X161260714Y-97277200D01*
X161260714Y-97277200D02*
X161117857Y-97324819D01*
X161117857Y-97324819D02*
X161022619Y-97324819D01*
X161022619Y-97324819D02*
X160879762Y-97277200D01*
X160879762Y-97277200D02*
X160784524Y-97181961D01*
X160784524Y-97181961D02*
X160736905Y-97086723D01*
X160736905Y-97086723D02*
X160689286Y-96896247D01*
X160689286Y-96896247D02*
X160689286Y-96753390D01*
X160689286Y-96753390D02*
X160736905Y-96562914D01*
X160736905Y-96562914D02*
X160784524Y-96467676D01*
X160784524Y-96467676D02*
X160879762Y-96372438D01*
X160879762Y-96372438D02*
X161022619Y-96324819D01*
X161022619Y-96324819D02*
X161117857Y-96324819D01*
X161117857Y-96324819D02*
X161260714Y-96372438D01*
X161260714Y-96372438D02*
X161308333Y-96420057D01*
X161641667Y-96324819D02*
X162260714Y-96324819D01*
X162260714Y-96324819D02*
X161927381Y-96705771D01*
X161927381Y-96705771D02*
X162070238Y-96705771D01*
X162070238Y-96705771D02*
X162165476Y-96753390D01*
X162165476Y-96753390D02*
X162213095Y-96801009D01*
X162213095Y-96801009D02*
X162260714Y-96896247D01*
X162260714Y-96896247D02*
X162260714Y-97134342D01*
X162260714Y-97134342D02*
X162213095Y-97229580D01*
X162213095Y-97229580D02*
X162165476Y-97277200D01*
X162165476Y-97277200D02*
X162070238Y-97324819D01*
X162070238Y-97324819D02*
X161784524Y-97324819D01*
X161784524Y-97324819D02*
X161689286Y-97277200D01*
X161689286Y-97277200D02*
X161641667Y-97229580D01*
X159233333Y-96559580D02*
X159185714Y-96607200D01*
X159185714Y-96607200D02*
X159042857Y-96654819D01*
X159042857Y-96654819D02*
X158947619Y-96654819D01*
X158947619Y-96654819D02*
X158804762Y-96607200D01*
X158804762Y-96607200D02*
X158709524Y-96511961D01*
X158709524Y-96511961D02*
X158661905Y-96416723D01*
X158661905Y-96416723D02*
X158614286Y-96226247D01*
X158614286Y-96226247D02*
X158614286Y-96083390D01*
X158614286Y-96083390D02*
X158661905Y-95892914D01*
X158661905Y-95892914D02*
X158709524Y-95797676D01*
X158709524Y-95797676D02*
X158804762Y-95702438D01*
X158804762Y-95702438D02*
X158947619Y-95654819D01*
X158947619Y-95654819D02*
X159042857Y-95654819D01*
X159042857Y-95654819D02*
X159185714Y-95702438D01*
X159185714Y-95702438D02*
X159233333Y-95750057D01*
X160090476Y-95988152D02*
X160090476Y-96654819D01*
X159852381Y-95607200D02*
X159614286Y-96321485D01*
X159614286Y-96321485D02*
X160233333Y-96321485D01*
X165838095Y-100704819D02*
X165838095Y-101514342D01*
X165838095Y-101514342D02*
X165885714Y-101609580D01*
X165885714Y-101609580D02*
X165933333Y-101657200D01*
X165933333Y-101657200D02*
X166028571Y-101704819D01*
X166028571Y-101704819D02*
X166219047Y-101704819D01*
X166219047Y-101704819D02*
X166314285Y-101657200D01*
X166314285Y-101657200D02*
X166361904Y-101609580D01*
X166361904Y-101609580D02*
X166409523Y-101514342D01*
X166409523Y-101514342D02*
X166409523Y-100704819D01*
X167409523Y-101704819D02*
X166838095Y-101704819D01*
X167123809Y-101704819D02*
X167123809Y-100704819D01*
X167123809Y-100704819D02*
X167028571Y-100847676D01*
X167028571Y-100847676D02*
X166933333Y-100942914D01*
X166933333Y-100942914D02*
X166838095Y-100990533D01*
X148823809Y-103178628D02*
X148823809Y-103654819D01*
X148490476Y-102654819D02*
X148823809Y-103178628D01*
X148823809Y-103178628D02*
X149157142Y-102654819D01*
X150014285Y-103654819D02*
X149442857Y-103654819D01*
X149728571Y-103654819D02*
X149728571Y-102654819D01*
X149728571Y-102654819D02*
X149633333Y-102797676D01*
X149633333Y-102797676D02*
X149538095Y-102892914D01*
X149538095Y-102892914D02*
X149442857Y-102940533D01*
X181183333Y-100804819D02*
X180850000Y-100328628D01*
X180611905Y-100804819D02*
X180611905Y-99804819D01*
X180611905Y-99804819D02*
X180992857Y-99804819D01*
X180992857Y-99804819D02*
X181088095Y-99852438D01*
X181088095Y-99852438D02*
X181135714Y-99900057D01*
X181135714Y-99900057D02*
X181183333Y-99995295D01*
X181183333Y-99995295D02*
X181183333Y-100138152D01*
X181183333Y-100138152D02*
X181135714Y-100233390D01*
X181135714Y-100233390D02*
X181088095Y-100281009D01*
X181088095Y-100281009D02*
X180992857Y-100328628D01*
X180992857Y-100328628D02*
X180611905Y-100328628D01*
X181564286Y-99900057D02*
X181611905Y-99852438D01*
X181611905Y-99852438D02*
X181707143Y-99804819D01*
X181707143Y-99804819D02*
X181945238Y-99804819D01*
X181945238Y-99804819D02*
X182040476Y-99852438D01*
X182040476Y-99852438D02*
X182088095Y-99900057D01*
X182088095Y-99900057D02*
X182135714Y-99995295D01*
X182135714Y-99995295D02*
X182135714Y-100090533D01*
X182135714Y-100090533D02*
X182088095Y-100233390D01*
X182088095Y-100233390D02*
X181516667Y-100804819D01*
X181516667Y-100804819D02*
X182135714Y-100804819D01*
X179411905Y-92634819D02*
X179411905Y-91634819D01*
X179411905Y-91634819D02*
X179650000Y-91634819D01*
X179650000Y-91634819D02*
X179792857Y-91682438D01*
X179792857Y-91682438D02*
X179888095Y-91777676D01*
X179888095Y-91777676D02*
X179935714Y-91872914D01*
X179935714Y-91872914D02*
X179983333Y-92063390D01*
X179983333Y-92063390D02*
X179983333Y-92206247D01*
X179983333Y-92206247D02*
X179935714Y-92396723D01*
X179935714Y-92396723D02*
X179888095Y-92491961D01*
X179888095Y-92491961D02*
X179792857Y-92587200D01*
X179792857Y-92587200D02*
X179650000Y-92634819D01*
X179650000Y-92634819D02*
X179411905Y-92634819D01*
X180935714Y-92634819D02*
X180364286Y-92634819D01*
X180650000Y-92634819D02*
X180650000Y-91634819D01*
X180650000Y-91634819D02*
X180554762Y-91777676D01*
X180554762Y-91777676D02*
X180459524Y-91872914D01*
X180459524Y-91872914D02*
X180364286Y-91920533D01*
X174808095Y-93204819D02*
X174808095Y-92204819D01*
X175379523Y-93204819D02*
X174950952Y-92633390D01*
X175379523Y-92204819D02*
X174808095Y-92776247D01*
X182983333Y-99709580D02*
X182935714Y-99757200D01*
X182935714Y-99757200D02*
X182792857Y-99804819D01*
X182792857Y-99804819D02*
X182697619Y-99804819D01*
X182697619Y-99804819D02*
X182554762Y-99757200D01*
X182554762Y-99757200D02*
X182459524Y-99661961D01*
X182459524Y-99661961D02*
X182411905Y-99566723D01*
X182411905Y-99566723D02*
X182364286Y-99376247D01*
X182364286Y-99376247D02*
X182364286Y-99233390D01*
X182364286Y-99233390D02*
X182411905Y-99042914D01*
X182411905Y-99042914D02*
X182459524Y-98947676D01*
X182459524Y-98947676D02*
X182554762Y-98852438D01*
X182554762Y-98852438D02*
X182697619Y-98804819D01*
X182697619Y-98804819D02*
X182792857Y-98804819D01*
X182792857Y-98804819D02*
X182935714Y-98852438D01*
X182935714Y-98852438D02*
X182983333Y-98900057D01*
X183888095Y-98804819D02*
X183411905Y-98804819D01*
X183411905Y-98804819D02*
X183364286Y-99281009D01*
X183364286Y-99281009D02*
X183411905Y-99233390D01*
X183411905Y-99233390D02*
X183507143Y-99185771D01*
X183507143Y-99185771D02*
X183745238Y-99185771D01*
X183745238Y-99185771D02*
X183840476Y-99233390D01*
X183840476Y-99233390D02*
X183888095Y-99281009D01*
X183888095Y-99281009D02*
X183935714Y-99376247D01*
X183935714Y-99376247D02*
X183935714Y-99614342D01*
X183935714Y-99614342D02*
X183888095Y-99709580D01*
X183888095Y-99709580D02*
X183840476Y-99757200D01*
X183840476Y-99757200D02*
X183745238Y-99804819D01*
X183745238Y-99804819D02*
X183507143Y-99804819D01*
X183507143Y-99804819D02*
X183411905Y-99757200D01*
X183411905Y-99757200D02*
X183364286Y-99709580D01*
X178933333Y-101004819D02*
X178600000Y-100528628D01*
X178361905Y-101004819D02*
X178361905Y-100004819D01*
X178361905Y-100004819D02*
X178742857Y-100004819D01*
X178742857Y-100004819D02*
X178838095Y-100052438D01*
X178838095Y-100052438D02*
X178885714Y-100100057D01*
X178885714Y-100100057D02*
X178933333Y-100195295D01*
X178933333Y-100195295D02*
X178933333Y-100338152D01*
X178933333Y-100338152D02*
X178885714Y-100433390D01*
X178885714Y-100433390D02*
X178838095Y-100481009D01*
X178838095Y-100481009D02*
X178742857Y-100528628D01*
X178742857Y-100528628D02*
X178361905Y-100528628D01*
X179885714Y-101004819D02*
X179314286Y-101004819D01*
X179600000Y-101004819D02*
X179600000Y-100004819D01*
X179600000Y-100004819D02*
X179504762Y-100147676D01*
X179504762Y-100147676D02*
X179409524Y-100242914D01*
X179409524Y-100242914D02*
X179314286Y-100290533D01*
D11*
X153238748Y-97865000D02*
X153761252Y-97865000D01*
X153238748Y-99335000D02*
X153761252Y-99335000D01*
X159538748Y-112915000D02*
X160061252Y-112915000D01*
X159538748Y-114385000D02*
X160061252Y-114385000D01*
X161213748Y-97815000D02*
X161736252Y-97815000D01*
X161213748Y-99285000D02*
X161736252Y-99285000D01*
X156865000Y-97961252D02*
X156865000Y-97438748D01*
X158335000Y-97961252D02*
X158335000Y-97438748D01*
X130380000Y-98490000D02*
X138740000Y-98490000D01*
X130380000Y-110810000D02*
X130380000Y-98490000D01*
X138740000Y-110810000D02*
X130380000Y-110810000D01*
X142840000Y-110810000D02*
X147100000Y-110810000D01*
X147100000Y-98490000D02*
X142840000Y-98490000D01*
X147100000Y-110810000D02*
X147100000Y-98490000D01*
X147320000Y-105900000D02*
X147820000Y-106400000D01*
X147820000Y-105400000D02*
X147320000Y-105900000D01*
X147820000Y-106400000D02*
X147820000Y-105400000D01*
X161500000Y-100540000D02*
X159550000Y-100540000D01*
X161500000Y-100540000D02*
X163450000Y-100540000D01*
X161500000Y-110660000D02*
X159550000Y-110660000D01*
X161500000Y-110660000D02*
X163450000Y-110660000D01*
X158800000Y-100595000D02*
X158560000Y-100265000D01*
X159040000Y-100265000D01*
X158800000Y-100595000D01*
G36*
X158800000Y-100595000D02*
G01*
X158560000Y-100265000D01*
X159040000Y-100265000D01*
X158800000Y-100595000D01*
G37*
X150575000Y-110760000D02*
X150575000Y-104360000D01*
X155625000Y-110760000D02*
X155625000Y-104360000D01*
X150575000Y-104360000D02*
G75*
G02*
X155625000Y-104360000I2525000J0D01*
G01*
X155625000Y-110760000D02*
G75*
G02*
X150575000Y-110760000I-2525000J0D01*
G01*
X180390000Y-102822936D02*
X180390000Y-104277064D01*
X182210000Y-102822936D02*
X182210000Y-104277064D01*
D12*
X172681000Y-107263100D02*
X176846600Y-107263100D01*
X176846600Y-102106900D02*
X172681000Y-102106900D01*
D11*
X183670000Y-101220000D02*
X185000000Y-101220000D01*
X183670000Y-102550000D02*
X183670000Y-101220000D01*
X183670000Y-103820000D02*
X183670000Y-108960000D01*
X183670000Y-103820000D02*
X186330000Y-103820000D01*
X183670000Y-108960000D02*
X186330000Y-108960000D01*
X186330000Y-103820000D02*
X186330000Y-108960000D01*
X176210000Y-94650000D02*
X177430000Y-94650000D01*
X177430000Y-93180000D02*
X177430000Y-96120000D01*
X177430000Y-96120000D02*
X182870000Y-96120000D01*
X178210000Y-93180000D02*
X178210000Y-96120000D01*
X178330000Y-93180000D02*
X178330000Y-96120000D01*
X178450000Y-93180000D02*
X178450000Y-96120000D01*
X182870000Y-93180000D02*
X177430000Y-93180000D01*
X182870000Y-96120000D02*
X182870000Y-93180000D01*
X184090000Y-94650000D02*
X182870000Y-94650000D01*
X185838748Y-98615000D02*
X186361252Y-98615000D01*
X185838748Y-100085000D02*
X186361252Y-100085000D01*
X176427064Y-99765000D02*
X175972936Y-99765000D01*
X176427064Y-101235000D02*
X175972936Y-101235000D01*
M02*
