M48
; DRILL file {KiCad 8.0.6} date 2025-01-14T12:11:01-0500
; FORMAT={-:-/ absolute / inch / decimal}
; #@! TF.CreationDate,2025-01-14T12:11:01-05:00
; #@! TF.GenerationSoftware,Kicad,Pcbnew,8.0.6
; #@! TF.FileFunction,Plated,1,2,PTH
FMAT,2
INCH
; #@! TA.AperFunction,Plated,PTH,ViaDrill
T1C0.0157
; #@! TA.AperFunction,Plated,PTH,ComponentDrill
T2C0.0315
; #@! TA.AperFunction,Plated,PTH,ComponentDrill
T3C0.0354
; #@! TA.AperFunction,Plated,PTH,ComponentDrill
T4C0.0362
; #@! TA.AperFunction,Plated,PTH,ComponentDrill
T5C0.0394
; #@! TA.AperFunction,Plated,PTH,ComponentDrill
T6C0.0917
; #@! TA.AperFunction,Plated,PTH,ComponentDrill
T7C0.1063
%
G90
G05
T1
X6.1339Y-3.8061
X6.1949Y-3.9825
X6.3976Y-3.9449
X6.4213Y-4.4724
X6.6811Y-4.1339
X6.7067Y-4.0394
X6.8937Y-4.2795
X6.8976Y-4.0807
T2
X6.0276Y-4.1386
X6.0276Y-4.3307
T3
X6.8925Y-3.7264
X7.2925Y-3.7264
T4
X5.6496Y-4.0709
X5.6496Y-4.1693
X5.7283Y-4.0709
X5.7283Y-4.1693
T5
X7.2835Y-4.0374
X7.2835Y-4.1374
X7.2835Y-4.2374
T6
X5.5429Y-3.8831
X5.5429Y-4.3571
T7
X5.315Y-3.3465
X5.315Y-4.9213
X7.2835Y-3.3465
X7.2835Y-4.9213
M30
