M48
; DRILL file {KiCad 8.0.6} date 2025-01-16T09:59:51-0500
; FORMAT={-:-/ absolute / inch / decimal}
; #@! TF.CreationDate,2025-01-16T09:59:51-05:00
; #@! TF.GenerationSoftware,Kicad,Pcbnew,8.0.6
; #@! TF.FileFunction,Plated,1,2,PTH
FMAT,2
INCH
; #@! TA.AperFunction,Plated,PTH,ViaDrill
T1C0.0157
; #@! TA.AperFunction,Plated,PTH,ComponentDrill
T2C0.0315
; #@! TA.AperFunction,Plated,PTH,ComponentDrill
T3C0.0354
; #@! TA.AperFunction,Plated,PTH,ComponentDrill
T4C0.0394
; #@! TA.AperFunction,Plated,PTH,ComponentDrill
T5C0.0400
; #@! TA.AperFunction,Plated,PTH,ComponentDrill
T6C0.1063
; #@! TA.AperFunction,Plated,PTH,ComponentDrill
T7C0.1180
; #@! TA.AperFunction,Plated,PTH,ComponentDrill
T8C0.1300
%
G90
G05
T1
X3.0304Y-5.4113
X3.173Y-5.2262
X3.185Y-5.372
X3.9587Y-4.2559
X3.9665Y-3.6598
X3.9705Y-3.5263
X4.0728Y-5.1713
X4.4685Y-4.3532
X4.4818Y-3.9941
X4.5305Y-4.2995
X4.5925Y-3.6105
X4.6181Y-3.5413
X4.6486Y-3.6236
X4.6486Y-4.1724
X4.8003Y-3.5396
X4.9062Y-4.367
X4.952Y-4.3185
X4.9567Y-3.313
X5.1154Y-3.2406
X5.1575Y-4.0217
X5.1673Y-3.2126
X5.2283Y-5.1634
X5.3611Y-3.5542
X5.3789Y-4.2667
X5.3856Y-3.7427
X5.3937Y-3.9055
X5.3942Y-3.8656
X5.4038Y-3.4218
X5.4094Y-3.0719
X5.4263Y-3.9402
X5.4449Y-4.498
X5.5527Y-4.0061
X5.5574Y-4.3143
X5.565Y-3.924
X5.5709Y-4.1713
X5.5957Y-4.8024
X5.5965Y-3.313
X5.6043Y-3.9016
X5.6142Y-3.8583
X5.6285Y-3.7958
X5.6978Y-3.9653
X5.7288Y-4.5487
X5.7574Y-4.7815
X5.7608Y-4.2317
X5.7712Y-3.6446
X5.8061Y-4.6593
X5.8154Y-4.6034
X5.8254Y-4.1966
X5.8474Y-3.7073
X5.8911Y-4.0148
X5.9311Y-3.7106
X5.9428Y-4.0492
X5.9754Y-3.8485
X5.9937Y-3.9987
X6.0118Y-4.4429
X6.0519Y-3.9013
X6.0758Y-3.9685
X6.0837Y-4.1801
X6.1437Y-4.5886
T2
X3.0276Y-3.1496
X3.0276Y-3.9496
X3.1276Y-3.1496
X3.1276Y-3.9496
X3.2276Y-3.1496
X3.2276Y-3.9496
X3.3276Y-3.1496
X3.3276Y-3.9496
X3.4276Y-3.1496
X3.4276Y-3.9496
X3.5276Y-3.1496
X3.5276Y-3.9496
X4.2669Y-3.7028
X4.2669Y-3.8071
X4.2669Y-3.9071
X4.2669Y-4.0071
X4.2669Y-4.1071
X4.5669Y-3.7028
X4.5669Y-3.8071
X4.5669Y-3.9071
X4.5669Y-4.0071
X4.5669Y-4.1071
X4.9478Y-3.0837
X5.0463Y-3.0837
X5.311Y-3.3595
X5.311Y-3.458
X5.6535Y-4.3819
X5.6535Y-4.4819
X5.6535Y-4.5819
X5.6535Y-4.6819
X5.9535Y-4.3819
X5.9535Y-4.4819
X5.9535Y-4.5819
X5.9535Y-4.6819
T3
X4.8281Y-3.7165
X4.9281Y-3.7165
T4
X2.9134Y-5.0787
X2.9134Y-5.1787
X2.9134Y-5.2787
X2.9134Y-5.3787
X2.9134Y-5.4787
X2.9134Y-5.5787
X2.9134Y-5.6787
X2.9134Y-5.7787
X4.0945Y-3.3071
X4.0945Y-3.4071
X4.0945Y-3.5071
X4.0945Y-3.6071
X4.0945Y-3.7071
X4.0945Y-3.8071
X4.0945Y-3.9071
X4.0945Y-4.0071
X4.0945Y-4.1071
X5.0Y-5.2787
X5.0Y-5.3787
X5.0Y-5.4787
X5.0Y-5.5787
X5.8514Y-5.2894
X5.9514Y-5.2894
X6.4205Y-3.33
X6.4205Y-3.43
X6.4205Y-3.53
X6.4205Y-3.63
X6.4205Y-3.73
T5
X3.6732Y-2.7358
X3.6732Y-2.9138
X3.9292Y-2.7358
X3.9292Y-2.9138
X6.2768Y-4.4297
X6.2768Y-4.5377
X6.2768Y-4.6457
X6.2768Y-4.7537
X6.2768Y-4.8617
X6.3768Y-4.4837
X6.3768Y-4.5917
X6.3768Y-4.6997
X6.3768Y-4.8077
T6
X3.0709Y-2.874
X3.0709Y-6.1811
X6.2991Y-6.167
X6.378Y-2.874
T7
X4.4035Y-2.9823
X4.5886Y-2.8642
X4.5886Y-3.1004
T8
X6.3268Y-4.1527
X6.3268Y-5.1387
M30
