%TF.GenerationSoftware,KiCad,Pcbnew,8.0.6*%
%TF.CreationDate,2025-01-18T11:25:38-05:00*%
%TF.ProjectId,RL78_F14_32p_Rev2,524c3738-5f46-4313-945f-3332705f5265,rev?*%
%TF.SameCoordinates,Original*%
%TF.FileFunction,Drillmap*%
%TF.FilePolarity,Positive*%
%FSLAX45Y45*%
G04 Gerber Fmt 4.5, Leading zero omitted, Abs format (unit mm)*
G04 Created by KiCad (PCBNEW 8.0.6) date 2025-01-18 11:25:38*
%MOMM*%
%LPD*%
G01*
G04 APERTURE LIST*
%ADD10C,0.050000*%
%ADD11C,0.200000*%
%ADD12C,0.100000*%
%ADD13C,0.101600*%
%ADD14C,0.270000*%
%ADD15C,0.299720*%
%ADD16C,0.330200*%
G04 APERTURE END LIST*
D10*
X7000000Y-6500000D02*
X7000000Y-16500000D01*
X17000000Y-6500000D02*
X17000000Y-16500000D01*
X7000000Y-6500000D02*
X17000000Y-6500000D01*
X17000000Y-16500000D02*
X7000000Y-16500000D01*
D11*
D12*
X7677240Y-13724710D02*
X7717240Y-13764710D01*
X7717240Y-13724710D02*
X7677240Y-13764710D01*
X8039485Y-13254485D02*
X8079485Y-13294485D01*
X8079485Y-13254485D02*
X8039485Y-13294485D01*
X8070000Y-13625000D02*
X8110000Y-13665000D01*
X8110000Y-13625000D02*
X8070000Y-13665000D01*
X10035000Y-10790000D02*
X10075000Y-10830000D01*
X10075000Y-10790000D02*
X10035000Y-10830000D01*
X10055000Y-9275910D02*
X10095000Y-9315910D01*
X10095000Y-9275910D02*
X10055000Y-9315910D01*
X10065000Y-8936770D02*
X10105000Y-8976770D01*
X10105000Y-8936770D02*
X10065000Y-8976770D01*
X10325000Y-13115000D02*
X10365000Y-13155000D01*
X10365000Y-13115000D02*
X10325000Y-13155000D01*
X11329910Y-11037210D02*
X11369910Y-11077210D01*
X11369910Y-11037210D02*
X11329910Y-11077210D01*
X11363670Y-10125120D02*
X11403670Y-10165120D01*
X11403670Y-10125120D02*
X11363670Y-10165120D01*
X11487350Y-10900710D02*
X11527350Y-10940710D01*
X11527350Y-10900710D02*
X11487350Y-10940710D01*
X11644850Y-9150720D02*
X11684850Y-9190720D01*
X11684850Y-9150720D02*
X11644850Y-9190720D01*
X11710000Y-8975000D02*
X11750000Y-9015000D01*
X11750000Y-8975000D02*
X11710000Y-9015000D01*
X11787380Y-9183830D02*
X11827380Y-9223830D01*
X11827380Y-9183830D02*
X11787380Y-9223830D01*
X11787380Y-10577830D02*
X11827380Y-10617830D01*
X11827380Y-10577830D02*
X11787380Y-10617830D01*
X12172770Y-8970670D02*
X12212770Y-9010670D01*
X12212770Y-8970670D02*
X12172770Y-9010670D01*
X12441810Y-11072120D02*
X12481810Y-11112120D01*
X12481810Y-11072120D02*
X12441810Y-11112120D01*
X12558160Y-10948940D02*
X12598160Y-10988940D01*
X12598160Y-10948940D02*
X12558160Y-10988940D01*
X12570000Y-8395000D02*
X12610000Y-8435000D01*
X12610000Y-8395000D02*
X12570000Y-8435000D01*
X12973120Y-8211030D02*
X13013120Y-8251030D01*
X13013120Y-8211030D02*
X12973120Y-8251030D01*
X13080000Y-10195000D02*
X13120000Y-10235000D01*
X13120000Y-10195000D02*
X13080000Y-10235000D01*
X13105000Y-8140000D02*
X13145000Y-8180000D01*
X13145000Y-8140000D02*
X13105000Y-8180000D01*
X13260000Y-13095000D02*
X13300000Y-13135000D01*
X13300000Y-13095000D02*
X13260000Y-13135000D01*
X13597300Y-9007770D02*
X13637300Y-9047770D01*
X13637300Y-9007770D02*
X13597300Y-9047770D01*
X13642500Y-10817500D02*
X13682500Y-10857500D01*
X13682500Y-10817500D02*
X13642500Y-10857500D01*
X13659360Y-9486490D02*
X13699360Y-9526490D01*
X13699360Y-9486490D02*
X13659360Y-9526490D01*
X13680000Y-9900000D02*
X13720000Y-9940000D01*
X13720000Y-9900000D02*
X13680000Y-9940000D01*
X13681265Y-9798735D02*
X13721265Y-9838735D01*
X13721265Y-9798735D02*
X13681265Y-9838735D01*
X13705620Y-8671450D02*
X13745620Y-8711450D01*
X13745620Y-8671450D02*
X13705620Y-8711450D01*
X13720000Y-7782750D02*
X13760000Y-7822750D01*
X13760000Y-7782750D02*
X13720000Y-7822750D01*
X13762750Y-9988170D02*
X13802750Y-10028170D01*
X13802750Y-9988170D02*
X13762750Y-10028170D01*
X13810000Y-11405000D02*
X13850000Y-11445000D01*
X13850000Y-11405000D02*
X13810000Y-11445000D01*
X14083860Y-10155380D02*
X14123860Y-10195380D01*
X14123860Y-10155380D02*
X14083860Y-10195380D01*
X14095710Y-10938370D02*
X14135710Y-10978370D01*
X14135710Y-10938370D02*
X14095710Y-10978370D01*
X14115000Y-9947040D02*
X14155000Y-9987040D01*
X14155000Y-9947040D02*
X14115000Y-9987040D01*
X14130000Y-10575000D02*
X14170000Y-10615000D01*
X14170000Y-10575000D02*
X14130000Y-10615000D01*
X14193050Y-12178050D02*
X14233050Y-12218050D01*
X14233050Y-12178050D02*
X14193050Y-12218050D01*
X14195000Y-8395000D02*
X14235000Y-8435000D01*
X14235000Y-8395000D02*
X14195000Y-8435000D01*
X14215000Y-9890000D02*
X14255000Y-9930000D01*
X14255000Y-9890000D02*
X14215000Y-9930000D01*
X14240000Y-9780000D02*
X14280000Y-9820000D01*
X14280000Y-9780000D02*
X14240000Y-9820000D01*
X14276340Y-9621320D02*
X14316340Y-9661320D01*
X14316340Y-9621320D02*
X14276340Y-9661320D01*
X14452536Y-10051804D02*
X14492536Y-10091804D01*
X14492536Y-10051804D02*
X14452536Y-10091804D01*
X14531250Y-11533720D02*
X14571250Y-11573720D01*
X14571250Y-11533720D02*
X14531250Y-11573720D01*
X14603770Y-12125000D02*
X14643770Y-12165000D01*
X14643770Y-12125000D02*
X14603770Y-12165000D01*
X14612440Y-10728590D02*
X14652440Y-10768590D01*
X14652440Y-10728590D02*
X14612440Y-10768590D01*
X14638900Y-9237260D02*
X14678900Y-9277260D01*
X14678900Y-9237260D02*
X14638900Y-9277260D01*
X14727390Y-11814520D02*
X14767390Y-11854520D01*
X14767390Y-11814520D02*
X14727390Y-11854520D01*
X14751220Y-11672620D02*
X14791220Y-11712620D01*
X14791220Y-11672620D02*
X14751220Y-11712620D01*
X14776400Y-10639240D02*
X14816400Y-10679240D01*
X14816400Y-10639240D02*
X14776400Y-10679240D01*
X14832310Y-9396610D02*
X14872310Y-9436610D01*
X14872310Y-9396610D02*
X14832310Y-9436610D01*
X14943270Y-10177570D02*
X14983270Y-10217570D01*
X14983270Y-10177570D02*
X14943270Y-10217570D01*
X15045000Y-9405000D02*
X15085000Y-9445000D01*
X15085000Y-9405000D02*
X15045000Y-9445000D01*
X15074660Y-10265050D02*
X15114660Y-10305050D01*
X15114660Y-10265050D02*
X15074660Y-10305050D01*
X15157420Y-9755110D02*
X15197420Y-9795110D01*
X15197420Y-9755110D02*
X15157420Y-9795110D01*
X15204110Y-10136620D02*
X15244110Y-10176620D01*
X15244110Y-10136620D02*
X15204110Y-10176620D01*
X15250000Y-11265000D02*
X15290000Y-11305000D01*
X15290000Y-11265000D02*
X15250000Y-11305000D01*
X15351754Y-9889254D02*
X15391754Y-9929254D01*
X15391754Y-9889254D02*
X15351754Y-9929254D01*
X15412500Y-10060000D02*
X15452500Y-10100000D01*
X15452500Y-10060000D02*
X15412500Y-10100000D01*
X15432500Y-10597500D02*
X15472500Y-10637500D01*
X15472500Y-10597500D02*
X15432500Y-10637500D01*
X15585000Y-11635000D02*
X15625000Y-11675000D01*
X15625000Y-11635000D02*
X15585000Y-11675000D01*
X7730000Y-8000000D02*
G75*
G02*
X7650000Y-8000000I-40000J0D01*
G01*
X7650000Y-8000000D02*
G75*
G02*
X7730000Y-8000000I40000J0D01*
G01*
X7730000Y-10032000D02*
G75*
G02*
X7650000Y-10032000I-40000J0D01*
G01*
X7650000Y-10032000D02*
G75*
G02*
X7730000Y-10032000I40000J0D01*
G01*
X7984000Y-8000000D02*
G75*
G02*
X7904000Y-8000000I-40000J0D01*
G01*
X7904000Y-8000000D02*
G75*
G02*
X7984000Y-8000000I40000J0D01*
G01*
X7984000Y-10032000D02*
G75*
G02*
X7904000Y-10032000I-40000J0D01*
G01*
X7904000Y-10032000D02*
G75*
G02*
X7984000Y-10032000I40000J0D01*
G01*
X8238000Y-8000000D02*
G75*
G02*
X8158000Y-8000000I-40000J0D01*
G01*
X8158000Y-8000000D02*
G75*
G02*
X8238000Y-8000000I40000J0D01*
G01*
X8238000Y-10032000D02*
G75*
G02*
X8158000Y-10032000I-40000J0D01*
G01*
X8158000Y-10032000D02*
G75*
G02*
X8238000Y-10032000I40000J0D01*
G01*
X8492000Y-8000000D02*
G75*
G02*
X8412000Y-8000000I-40000J0D01*
G01*
X8412000Y-8000000D02*
G75*
G02*
X8492000Y-8000000I40000J0D01*
G01*
X8492000Y-10032000D02*
G75*
G02*
X8412000Y-10032000I-40000J0D01*
G01*
X8412000Y-10032000D02*
G75*
G02*
X8492000Y-10032000I40000J0D01*
G01*
X8746000Y-8000000D02*
G75*
G02*
X8666000Y-8000000I-40000J0D01*
G01*
X8666000Y-8000000D02*
G75*
G02*
X8746000Y-8000000I40000J0D01*
G01*
X8746000Y-10032000D02*
G75*
G02*
X8666000Y-10032000I-40000J0D01*
G01*
X8666000Y-10032000D02*
G75*
G02*
X8746000Y-10032000I40000J0D01*
G01*
X9000000Y-8000000D02*
G75*
G02*
X8920000Y-8000000I-40000J0D01*
G01*
X8920000Y-8000000D02*
G75*
G02*
X9000000Y-8000000I40000J0D01*
G01*
X9000000Y-10032000D02*
G75*
G02*
X8920000Y-10032000I-40000J0D01*
G01*
X8920000Y-10032000D02*
G75*
G02*
X9000000Y-10032000I40000J0D01*
G01*
X10878000Y-9405000D02*
G75*
G02*
X10798000Y-9405000I-40000J0D01*
G01*
X10798000Y-9405000D02*
G75*
G02*
X10878000Y-9405000I40000J0D01*
G01*
X10878000Y-9670000D02*
G75*
G02*
X10798000Y-9670000I-40000J0D01*
G01*
X10798000Y-9670000D02*
G75*
G02*
X10878000Y-9670000I40000J0D01*
G01*
X10878000Y-9924000D02*
G75*
G02*
X10798000Y-9924000I-40000J0D01*
G01*
X10798000Y-9924000D02*
G75*
G02*
X10878000Y-9924000I40000J0D01*
G01*
X10878000Y-10178000D02*
G75*
G02*
X10798000Y-10178000I-40000J0D01*
G01*
X10798000Y-10178000D02*
G75*
G02*
X10878000Y-10178000I40000J0D01*
G01*
X10878000Y-10432000D02*
G75*
G02*
X10798000Y-10432000I-40000J0D01*
G01*
X10798000Y-10432000D02*
G75*
G02*
X10878000Y-10432000I40000J0D01*
G01*
X11640000Y-9405000D02*
G75*
G02*
X11560000Y-9405000I-40000J0D01*
G01*
X11560000Y-9405000D02*
G75*
G02*
X11640000Y-9405000I40000J0D01*
G01*
X11640000Y-9670000D02*
G75*
G02*
X11560000Y-9670000I-40000J0D01*
G01*
X11560000Y-9670000D02*
G75*
G02*
X11640000Y-9670000I40000J0D01*
G01*
X11640000Y-9924000D02*
G75*
G02*
X11560000Y-9924000I-40000J0D01*
G01*
X11560000Y-9924000D02*
G75*
G02*
X11640000Y-9924000I40000J0D01*
G01*
X11640000Y-10178000D02*
G75*
G02*
X11560000Y-10178000I-40000J0D01*
G01*
X11560000Y-10178000D02*
G75*
G02*
X11640000Y-10178000I40000J0D01*
G01*
X11640000Y-10432000D02*
G75*
G02*
X11560000Y-10432000I-40000J0D01*
G01*
X11560000Y-10432000D02*
G75*
G02*
X11640000Y-10432000I40000J0D01*
G01*
X12607500Y-7832500D02*
G75*
G02*
X12527500Y-7832500I-40000J0D01*
G01*
X12527500Y-7832500D02*
G75*
G02*
X12607500Y-7832500I40000J0D01*
G01*
X12857500Y-7832500D02*
G75*
G02*
X12777500Y-7832500I-40000J0D01*
G01*
X12777500Y-7832500D02*
G75*
G02*
X12857500Y-7832500I40000J0D01*
G01*
X13530000Y-8533240D02*
G75*
G02*
X13450000Y-8533240I-40000J0D01*
G01*
X13450000Y-8533240D02*
G75*
G02*
X13530000Y-8533240I40000J0D01*
G01*
X13530000Y-8783240D02*
G75*
G02*
X13450000Y-8783240I-40000J0D01*
G01*
X13450000Y-8783240D02*
G75*
G02*
X13530000Y-8783240I40000J0D01*
G01*
X14400000Y-11130000D02*
G75*
G02*
X14320000Y-11130000I-40000J0D01*
G01*
X14320000Y-11130000D02*
G75*
G02*
X14400000Y-11130000I40000J0D01*
G01*
X14400000Y-11384000D02*
G75*
G02*
X14320000Y-11384000I-40000J0D01*
G01*
X14320000Y-11384000D02*
G75*
G02*
X14400000Y-11384000I40000J0D01*
G01*
X14400000Y-11638000D02*
G75*
G02*
X14320000Y-11638000I-40000J0D01*
G01*
X14320000Y-11638000D02*
G75*
G02*
X14400000Y-11638000I40000J0D01*
G01*
X14400000Y-11892000D02*
G75*
G02*
X14320000Y-11892000I-40000J0D01*
G01*
X14320000Y-11892000D02*
G75*
G02*
X14400000Y-11892000I40000J0D01*
G01*
X15162000Y-11130000D02*
G75*
G02*
X15082000Y-11130000I-40000J0D01*
G01*
X15082000Y-11130000D02*
G75*
G02*
X15162000Y-11130000I40000J0D01*
G01*
X15162000Y-11384000D02*
G75*
G02*
X15082000Y-11384000I-40000J0D01*
G01*
X15082000Y-11384000D02*
G75*
G02*
X15162000Y-11384000I40000J0D01*
G01*
X15162000Y-11638000D02*
G75*
G02*
X15082000Y-11638000I-40000J0D01*
G01*
X15082000Y-11638000D02*
G75*
G02*
X15162000Y-11638000I40000J0D01*
G01*
X15162000Y-11892000D02*
G75*
G02*
X15082000Y-11892000I-40000J0D01*
G01*
X15082000Y-11892000D02*
G75*
G02*
X15162000Y-11892000I40000J0D01*
G01*
X12263500Y-9395000D02*
X12263500Y-9485000D01*
X12218500Y-9440000D02*
X12308500Y-9440000D01*
X12517500Y-9395000D02*
X12517500Y-9485000D01*
X12472500Y-9440000D02*
X12562500Y-9440000D01*
X7435356Y-12935356D02*
X7435356Y-12864644D01*
X7364644Y-12864644D01*
X7364644Y-12935356D01*
X7435356Y-12935356D01*
X7435356Y-13189356D02*
X7435356Y-13118644D01*
X7364644Y-13118644D01*
X7364644Y-13189356D01*
X7435356Y-13189356D01*
X7435356Y-13443356D02*
X7435356Y-13372644D01*
X7364644Y-13372644D01*
X7364644Y-13443356D01*
X7435356Y-13443356D01*
X7435356Y-13697356D02*
X7435356Y-13626644D01*
X7364644Y-13626644D01*
X7364644Y-13697356D01*
X7435356Y-13697356D01*
X7435356Y-13951356D02*
X7435356Y-13880644D01*
X7364644Y-13880644D01*
X7364644Y-13951356D01*
X7435356Y-13951356D01*
X7435356Y-14205356D02*
X7435356Y-14134644D01*
X7364644Y-14134644D01*
X7364644Y-14205356D01*
X7435356Y-14205356D01*
X7435356Y-14459356D02*
X7435356Y-14388644D01*
X7364644Y-14388644D01*
X7364644Y-14459356D01*
X7435356Y-14459356D01*
X7435356Y-14713356D02*
X7435356Y-14642644D01*
X7364644Y-14642644D01*
X7364644Y-14713356D01*
X7435356Y-14713356D01*
X10435356Y-8435356D02*
X10435356Y-8364644D01*
X10364644Y-8364644D01*
X10364644Y-8435356D01*
X10435356Y-8435356D01*
X10435356Y-8689356D02*
X10435356Y-8618644D01*
X10364644Y-8618644D01*
X10364644Y-8689356D01*
X10435356Y-8689356D01*
X10435356Y-8943356D02*
X10435356Y-8872644D01*
X10364644Y-8872644D01*
X10364644Y-8943356D01*
X10435356Y-8943356D01*
X10435356Y-9197356D02*
X10435356Y-9126644D01*
X10364644Y-9126644D01*
X10364644Y-9197356D01*
X10435356Y-9197356D01*
X10435356Y-9451356D02*
X10435356Y-9380644D01*
X10364644Y-9380644D01*
X10364644Y-9451356D01*
X10435356Y-9451356D01*
X10435356Y-9705356D02*
X10435356Y-9634644D01*
X10364644Y-9634644D01*
X10364644Y-9705356D01*
X10435356Y-9705356D01*
X10435356Y-9959356D02*
X10435356Y-9888644D01*
X10364644Y-9888644D01*
X10364644Y-9959356D01*
X10435356Y-9959356D01*
X10435356Y-10213356D02*
X10435356Y-10142644D01*
X10364644Y-10142644D01*
X10364644Y-10213356D01*
X10435356Y-10213356D01*
X10435356Y-10467356D02*
X10435356Y-10396644D01*
X10364644Y-10396644D01*
X10364644Y-10467356D01*
X10435356Y-10467356D01*
X12735356Y-13443356D02*
X12735356Y-13372644D01*
X12664644Y-13372644D01*
X12664644Y-13443356D01*
X12735356Y-13443356D01*
X12735356Y-13697356D02*
X12735356Y-13626644D01*
X12664644Y-13626644D01*
X12664644Y-13697356D01*
X12735356Y-13697356D01*
X12735356Y-13951356D02*
X12735356Y-13880644D01*
X12664644Y-13880644D01*
X12664644Y-13951356D01*
X12735356Y-13951356D01*
X12735356Y-14205356D02*
X12735356Y-14134644D01*
X12664644Y-14134644D01*
X12664644Y-14205356D01*
X12735356Y-14205356D01*
X14897856Y-13470356D02*
X14897856Y-13399644D01*
X14827144Y-13399644D01*
X14827144Y-13470356D01*
X14897856Y-13470356D01*
X15151856Y-13470356D02*
X15151856Y-13399644D01*
X15081144Y-13399644D01*
X15081144Y-13470356D01*
X15151856Y-13470356D01*
X16343356Y-8493606D02*
X16343356Y-8422894D01*
X16272644Y-8422894D01*
X16272644Y-8493606D01*
X16343356Y-8493606D01*
X16343356Y-8747606D02*
X16343356Y-8676894D01*
X16272644Y-8676894D01*
X16272644Y-8747606D01*
X16343356Y-8747606D01*
X16343356Y-9001606D02*
X16343356Y-8930894D01*
X16272644Y-8930894D01*
X16272644Y-9001606D01*
X16343356Y-9001606D01*
X16343356Y-9255606D02*
X16343356Y-9184894D01*
X16272644Y-9184894D01*
X16272644Y-9255606D01*
X16343356Y-9255606D01*
X16343356Y-9509606D02*
X16343356Y-9438894D01*
X16272644Y-9438894D01*
X16272644Y-9509606D01*
X16343356Y-9509606D01*
D13*
X9329880Y-6999740D02*
X9380680Y-6948940D01*
X9329880Y-6898140D01*
X9279080Y-6948940D01*
X9329880Y-6999740D01*
X9329880Y-7451860D02*
X9380680Y-7401060D01*
X9329880Y-7350260D01*
X9279080Y-7401060D01*
X9329880Y-7451860D01*
X9980120Y-6999740D02*
X10030920Y-6948940D01*
X9980120Y-6898140D01*
X9929320Y-6948940D01*
X9980120Y-6999740D01*
X9980120Y-7451860D02*
X10030920Y-7401060D01*
X9980120Y-7350260D01*
X9929320Y-7401060D01*
X9980120Y-7451860D01*
X15943000Y-11302160D02*
X15993800Y-11251360D01*
X15943000Y-11200560D01*
X15892200Y-11251360D01*
X15943000Y-11302160D01*
X15943000Y-11576480D02*
X15993800Y-11525680D01*
X15943000Y-11474880D01*
X15892200Y-11525680D01*
X15943000Y-11576480D01*
X15943000Y-11850800D02*
X15993800Y-11800000D01*
X15943000Y-11749200D01*
X15892200Y-11800000D01*
X15943000Y-11850800D01*
X15943000Y-12125120D02*
X15993800Y-12074320D01*
X15943000Y-12023520D01*
X15892200Y-12074320D01*
X15943000Y-12125120D01*
X15943000Y-12399440D02*
X15993800Y-12348640D01*
X15943000Y-12297840D01*
X15892200Y-12348640D01*
X15943000Y-12399440D01*
X16197000Y-11439320D02*
X16247800Y-11388520D01*
X16197000Y-11337720D01*
X16146200Y-11388520D01*
X16197000Y-11439320D01*
X16197000Y-11713640D02*
X16247800Y-11662840D01*
X16197000Y-11612040D01*
X16146200Y-11662840D01*
X16197000Y-11713640D01*
X16197000Y-11987960D02*
X16247800Y-11937160D01*
X16197000Y-11886360D01*
X16146200Y-11937160D01*
X16197000Y-11987960D01*
X16197000Y-12262280D02*
X16247800Y-12211480D01*
X16197000Y-12160680D01*
X16146200Y-12211480D01*
X16197000Y-12262280D01*
D14*
X7665000Y-7165000D02*
X7935000Y-7435000D01*
X7935000Y-7165000D02*
X7665000Y-7435000D01*
X7935000Y-7300000D02*
G75*
G02*
X7665000Y-7300000I-135000J0D01*
G01*
X7665000Y-7300000D02*
G75*
G02*
X7935000Y-7300000I135000J0D01*
G01*
X7665000Y-15565000D02*
X7935000Y-15835000D01*
X7935000Y-15565000D02*
X7665000Y-15835000D01*
X7935000Y-15700000D02*
G75*
G02*
X7665000Y-15700000I-135000J0D01*
G01*
X7665000Y-15700000D02*
G75*
G02*
X7935000Y-15700000I135000J0D01*
G01*
X15864700Y-15529300D02*
X16134700Y-15799300D01*
X16134700Y-15529300D02*
X15864700Y-15799300D01*
X16134700Y-15664300D02*
G75*
G02*
X15864700Y-15664300I-135000J0D01*
G01*
X15864700Y-15664300D02*
G75*
G02*
X16134700Y-15664300I135000J0D01*
G01*
X16065000Y-7165000D02*
X16335000Y-7435000D01*
X16335000Y-7165000D02*
X16065000Y-7435000D01*
X16335000Y-7300000D02*
G75*
G02*
X16065000Y-7300000I-135000J0D01*
G01*
X16065000Y-7300000D02*
G75*
G02*
X16335000Y-7300000I135000J0D01*
G01*
D15*
X11035140Y-7425140D02*
X11334860Y-7724860D01*
X11334860Y-7425140D02*
X11035140Y-7724860D01*
X11185000Y-7425140D02*
X11185000Y-7724860D01*
X11035140Y-7575000D02*
X11334860Y-7575000D01*
X11505140Y-7125140D02*
X11804860Y-7424860D01*
X11804860Y-7125140D02*
X11505140Y-7424860D01*
X11655000Y-7125140D02*
X11655000Y-7424860D01*
X11505140Y-7275000D02*
X11804860Y-7275000D01*
X11505140Y-7725140D02*
X11804860Y-8024860D01*
X11804860Y-7725140D02*
X11505140Y-8024860D01*
X11655000Y-7725140D02*
X11655000Y-8024860D01*
X11505140Y-7875000D02*
X11804860Y-7875000D01*
D16*
X15904900Y-10382680D02*
X16235100Y-10712880D01*
X16235100Y-10382680D02*
X15904900Y-10712880D01*
X16186744Y-10664524D02*
X16186744Y-10431036D01*
X15953256Y-10431036D01*
X15953256Y-10664524D01*
X16186744Y-10664524D01*
X15904900Y-12887120D02*
X16235100Y-13217320D01*
X16235100Y-12887120D02*
X15904900Y-13217320D01*
X16186744Y-13168964D02*
X16186744Y-12935476D01*
X15953256Y-12935476D01*
X15953256Y-13168964D01*
X16186744Y-13168964D01*
D11*
X7258277Y-16813984D02*
X7258277Y-16613984D01*
X7258277Y-16613984D02*
X7305896Y-16613984D01*
X7305896Y-16613984D02*
X7334467Y-16623508D01*
X7334467Y-16623508D02*
X7353515Y-16642555D01*
X7353515Y-16642555D02*
X7363039Y-16661603D01*
X7363039Y-16661603D02*
X7372562Y-16699698D01*
X7372562Y-16699698D02*
X7372562Y-16728269D01*
X7372562Y-16728269D02*
X7363039Y-16766365D01*
X7363039Y-16766365D02*
X7353515Y-16785412D01*
X7353515Y-16785412D02*
X7334467Y-16804460D01*
X7334467Y-16804460D02*
X7305896Y-16813984D01*
X7305896Y-16813984D02*
X7258277Y-16813984D01*
X7458277Y-16813984D02*
X7458277Y-16680650D01*
X7458277Y-16718746D02*
X7467801Y-16699698D01*
X7467801Y-16699698D02*
X7477324Y-16690174D01*
X7477324Y-16690174D02*
X7496372Y-16680650D01*
X7496372Y-16680650D02*
X7515420Y-16680650D01*
X7582086Y-16813984D02*
X7582086Y-16680650D01*
X7582086Y-16613984D02*
X7572562Y-16623508D01*
X7572562Y-16623508D02*
X7582086Y-16633031D01*
X7582086Y-16633031D02*
X7591610Y-16623508D01*
X7591610Y-16623508D02*
X7582086Y-16613984D01*
X7582086Y-16613984D02*
X7582086Y-16633031D01*
X7705896Y-16813984D02*
X7686848Y-16804460D01*
X7686848Y-16804460D02*
X7677324Y-16785412D01*
X7677324Y-16785412D02*
X7677324Y-16613984D01*
X7810658Y-16813984D02*
X7791610Y-16804460D01*
X7791610Y-16804460D02*
X7782086Y-16785412D01*
X7782086Y-16785412D02*
X7782086Y-16613984D01*
X8039229Y-16813984D02*
X8039229Y-16613984D01*
X8039229Y-16613984D02*
X8105896Y-16756841D01*
X8105896Y-16756841D02*
X8172562Y-16613984D01*
X8172562Y-16613984D02*
X8172562Y-16813984D01*
X8353515Y-16813984D02*
X8353515Y-16709222D01*
X8353515Y-16709222D02*
X8343991Y-16690174D01*
X8343991Y-16690174D02*
X8324943Y-16680650D01*
X8324943Y-16680650D02*
X8286848Y-16680650D01*
X8286848Y-16680650D02*
X8267801Y-16690174D01*
X8353515Y-16804460D02*
X8334467Y-16813984D01*
X8334467Y-16813984D02*
X8286848Y-16813984D01*
X8286848Y-16813984D02*
X8267801Y-16804460D01*
X8267801Y-16804460D02*
X8258277Y-16785412D01*
X8258277Y-16785412D02*
X8258277Y-16766365D01*
X8258277Y-16766365D02*
X8267801Y-16747317D01*
X8267801Y-16747317D02*
X8286848Y-16737793D01*
X8286848Y-16737793D02*
X8334467Y-16737793D01*
X8334467Y-16737793D02*
X8353515Y-16728269D01*
X8448753Y-16680650D02*
X8448753Y-16880650D01*
X8448753Y-16690174D02*
X8467801Y-16680650D01*
X8467801Y-16680650D02*
X8505896Y-16680650D01*
X8505896Y-16680650D02*
X8524944Y-16690174D01*
X8524944Y-16690174D02*
X8534467Y-16699698D01*
X8534467Y-16699698D02*
X8543991Y-16718746D01*
X8543991Y-16718746D02*
X8543991Y-16775888D01*
X8543991Y-16775888D02*
X8534467Y-16794936D01*
X8534467Y-16794936D02*
X8524944Y-16804460D01*
X8524944Y-16804460D02*
X8505896Y-16813984D01*
X8505896Y-16813984D02*
X8467801Y-16813984D01*
X8467801Y-16813984D02*
X8448753Y-16804460D01*
X8629705Y-16794936D02*
X8639229Y-16804460D01*
X8639229Y-16804460D02*
X8629705Y-16813984D01*
X8629705Y-16813984D02*
X8620182Y-16804460D01*
X8620182Y-16804460D02*
X8629705Y-16794936D01*
X8629705Y-16794936D02*
X8629705Y-16813984D01*
X8629705Y-16690174D02*
X8639229Y-16699698D01*
X8639229Y-16699698D02*
X8629705Y-16709222D01*
X8629705Y-16709222D02*
X8620182Y-16699698D01*
X8620182Y-16699698D02*
X8629705Y-16690174D01*
X8629705Y-16690174D02*
X8629705Y-16709222D01*
D12*
X6957500Y-17122500D02*
X6997500Y-17162500D01*
X6997500Y-17122500D02*
X6957500Y-17162500D01*
D11*
X7296372Y-17033984D02*
X7315420Y-17033984D01*
X7315420Y-17033984D02*
X7334467Y-17043508D01*
X7334467Y-17043508D02*
X7343991Y-17053031D01*
X7343991Y-17053031D02*
X7353515Y-17072079D01*
X7353515Y-17072079D02*
X7363039Y-17110174D01*
X7363039Y-17110174D02*
X7363039Y-17157793D01*
X7363039Y-17157793D02*
X7353515Y-17195889D01*
X7353515Y-17195889D02*
X7343991Y-17214936D01*
X7343991Y-17214936D02*
X7334467Y-17224460D01*
X7334467Y-17224460D02*
X7315420Y-17233984D01*
X7315420Y-17233984D02*
X7296372Y-17233984D01*
X7296372Y-17233984D02*
X7277324Y-17224460D01*
X7277324Y-17224460D02*
X7267801Y-17214936D01*
X7267801Y-17214936D02*
X7258277Y-17195889D01*
X7258277Y-17195889D02*
X7248753Y-17157793D01*
X7248753Y-17157793D02*
X7248753Y-17110174D01*
X7248753Y-17110174D02*
X7258277Y-17072079D01*
X7258277Y-17072079D02*
X7267801Y-17053031D01*
X7267801Y-17053031D02*
X7277324Y-17043508D01*
X7277324Y-17043508D02*
X7296372Y-17033984D01*
X7448753Y-17214936D02*
X7458277Y-17224460D01*
X7458277Y-17224460D02*
X7448753Y-17233984D01*
X7448753Y-17233984D02*
X7439229Y-17224460D01*
X7439229Y-17224460D02*
X7448753Y-17214936D01*
X7448753Y-17214936D02*
X7448753Y-17233984D01*
X7629705Y-17100650D02*
X7629705Y-17233984D01*
X7582086Y-17024460D02*
X7534467Y-17167317D01*
X7534467Y-17167317D02*
X7658277Y-17167317D01*
X7772562Y-17033984D02*
X7791610Y-17033984D01*
X7791610Y-17033984D02*
X7810658Y-17043508D01*
X7810658Y-17043508D02*
X7820182Y-17053031D01*
X7820182Y-17053031D02*
X7829705Y-17072079D01*
X7829705Y-17072079D02*
X7839229Y-17110174D01*
X7839229Y-17110174D02*
X7839229Y-17157793D01*
X7839229Y-17157793D02*
X7829705Y-17195889D01*
X7829705Y-17195889D02*
X7820182Y-17214936D01*
X7820182Y-17214936D02*
X7810658Y-17224460D01*
X7810658Y-17224460D02*
X7791610Y-17233984D01*
X7791610Y-17233984D02*
X7772562Y-17233984D01*
X7772562Y-17233984D02*
X7753515Y-17224460D01*
X7753515Y-17224460D02*
X7743991Y-17214936D01*
X7743991Y-17214936D02*
X7734467Y-17195889D01*
X7734467Y-17195889D02*
X7724943Y-17157793D01*
X7724943Y-17157793D02*
X7724943Y-17110174D01*
X7724943Y-17110174D02*
X7734467Y-17072079D01*
X7734467Y-17072079D02*
X7743991Y-17053031D01*
X7743991Y-17053031D02*
X7753515Y-17043508D01*
X7753515Y-17043508D02*
X7772562Y-17033984D01*
X7963039Y-17033984D02*
X7982086Y-17033984D01*
X7982086Y-17033984D02*
X8001134Y-17043508D01*
X8001134Y-17043508D02*
X8010658Y-17053031D01*
X8010658Y-17053031D02*
X8020182Y-17072079D01*
X8020182Y-17072079D02*
X8029705Y-17110174D01*
X8029705Y-17110174D02*
X8029705Y-17157793D01*
X8029705Y-17157793D02*
X8020182Y-17195889D01*
X8020182Y-17195889D02*
X8010658Y-17214936D01*
X8010658Y-17214936D02*
X8001134Y-17224460D01*
X8001134Y-17224460D02*
X7982086Y-17233984D01*
X7982086Y-17233984D02*
X7963039Y-17233984D01*
X7963039Y-17233984D02*
X7943991Y-17224460D01*
X7943991Y-17224460D02*
X7934467Y-17214936D01*
X7934467Y-17214936D02*
X7924943Y-17195889D01*
X7924943Y-17195889D02*
X7915420Y-17157793D01*
X7915420Y-17157793D02*
X7915420Y-17110174D01*
X7915420Y-17110174D02*
X7924943Y-17072079D01*
X7924943Y-17072079D02*
X7934467Y-17053031D01*
X7934467Y-17053031D02*
X7943991Y-17043508D01*
X7943991Y-17043508D02*
X7963039Y-17033984D01*
X8115420Y-17233984D02*
X8115420Y-17100650D01*
X8115420Y-17119698D02*
X8124943Y-17110174D01*
X8124943Y-17110174D02*
X8143991Y-17100650D01*
X8143991Y-17100650D02*
X8172563Y-17100650D01*
X8172563Y-17100650D02*
X8191610Y-17110174D01*
X8191610Y-17110174D02*
X8201134Y-17129222D01*
X8201134Y-17129222D02*
X8201134Y-17233984D01*
X8201134Y-17129222D02*
X8210658Y-17110174D01*
X8210658Y-17110174D02*
X8229705Y-17100650D01*
X8229705Y-17100650D02*
X8258277Y-17100650D01*
X8258277Y-17100650D02*
X8277324Y-17110174D01*
X8277324Y-17110174D02*
X8286848Y-17129222D01*
X8286848Y-17129222D02*
X8286848Y-17233984D01*
X8382086Y-17233984D02*
X8382086Y-17100650D01*
X8382086Y-17119698D02*
X8391610Y-17110174D01*
X8391610Y-17110174D02*
X8410658Y-17100650D01*
X8410658Y-17100650D02*
X8439229Y-17100650D01*
X8439229Y-17100650D02*
X8458277Y-17110174D01*
X8458277Y-17110174D02*
X8467801Y-17129222D01*
X8467801Y-17129222D02*
X8467801Y-17233984D01*
X8467801Y-17129222D02*
X8477325Y-17110174D01*
X8477325Y-17110174D02*
X8496372Y-17100650D01*
X8496372Y-17100650D02*
X8524944Y-17100650D01*
X8524944Y-17100650D02*
X8543991Y-17110174D01*
X8543991Y-17110174D02*
X8553515Y-17129222D01*
X8553515Y-17129222D02*
X8553515Y-17233984D01*
X8943991Y-17024460D02*
X8772563Y-17281603D01*
X9201134Y-17033984D02*
X9220182Y-17033984D01*
X9220182Y-17033984D02*
X9239229Y-17043508D01*
X9239229Y-17043508D02*
X9248753Y-17053031D01*
X9248753Y-17053031D02*
X9258277Y-17072079D01*
X9258277Y-17072079D02*
X9267801Y-17110174D01*
X9267801Y-17110174D02*
X9267801Y-17157793D01*
X9267801Y-17157793D02*
X9258277Y-17195889D01*
X9258277Y-17195889D02*
X9248753Y-17214936D01*
X9248753Y-17214936D02*
X9239229Y-17224460D01*
X9239229Y-17224460D02*
X9220182Y-17233984D01*
X9220182Y-17233984D02*
X9201134Y-17233984D01*
X9201134Y-17233984D02*
X9182087Y-17224460D01*
X9182087Y-17224460D02*
X9172563Y-17214936D01*
X9172563Y-17214936D02*
X9163039Y-17195889D01*
X9163039Y-17195889D02*
X9153515Y-17157793D01*
X9153515Y-17157793D02*
X9153515Y-17110174D01*
X9153515Y-17110174D02*
X9163039Y-17072079D01*
X9163039Y-17072079D02*
X9172563Y-17053031D01*
X9172563Y-17053031D02*
X9182087Y-17043508D01*
X9182087Y-17043508D02*
X9201134Y-17033984D01*
X9353515Y-17214936D02*
X9363039Y-17224460D01*
X9363039Y-17224460D02*
X9353515Y-17233984D01*
X9353515Y-17233984D02*
X9343991Y-17224460D01*
X9343991Y-17224460D02*
X9353515Y-17214936D01*
X9353515Y-17214936D02*
X9353515Y-17233984D01*
X9486848Y-17033984D02*
X9505896Y-17033984D01*
X9505896Y-17033984D02*
X9524944Y-17043508D01*
X9524944Y-17043508D02*
X9534468Y-17053031D01*
X9534468Y-17053031D02*
X9543991Y-17072079D01*
X9543991Y-17072079D02*
X9553515Y-17110174D01*
X9553515Y-17110174D02*
X9553515Y-17157793D01*
X9553515Y-17157793D02*
X9543991Y-17195889D01*
X9543991Y-17195889D02*
X9534468Y-17214936D01*
X9534468Y-17214936D02*
X9524944Y-17224460D01*
X9524944Y-17224460D02*
X9505896Y-17233984D01*
X9505896Y-17233984D02*
X9486848Y-17233984D01*
X9486848Y-17233984D02*
X9467801Y-17224460D01*
X9467801Y-17224460D02*
X9458277Y-17214936D01*
X9458277Y-17214936D02*
X9448753Y-17195889D01*
X9448753Y-17195889D02*
X9439229Y-17157793D01*
X9439229Y-17157793D02*
X9439229Y-17110174D01*
X9439229Y-17110174D02*
X9448753Y-17072079D01*
X9448753Y-17072079D02*
X9458277Y-17053031D01*
X9458277Y-17053031D02*
X9467801Y-17043508D01*
X9467801Y-17043508D02*
X9486848Y-17033984D01*
X9743991Y-17233984D02*
X9629706Y-17233984D01*
X9686848Y-17233984D02*
X9686848Y-17033984D01*
X9686848Y-17033984D02*
X9667801Y-17062555D01*
X9667801Y-17062555D02*
X9648753Y-17081603D01*
X9648753Y-17081603D02*
X9629706Y-17091127D01*
X9924944Y-17033984D02*
X9829706Y-17033984D01*
X9829706Y-17033984D02*
X9820182Y-17129222D01*
X9820182Y-17129222D02*
X9829706Y-17119698D01*
X9829706Y-17119698D02*
X9848753Y-17110174D01*
X9848753Y-17110174D02*
X9896372Y-17110174D01*
X9896372Y-17110174D02*
X9915420Y-17119698D01*
X9915420Y-17119698D02*
X9924944Y-17129222D01*
X9924944Y-17129222D02*
X9934468Y-17148270D01*
X9934468Y-17148270D02*
X9934468Y-17195889D01*
X9934468Y-17195889D02*
X9924944Y-17214936D01*
X9924944Y-17214936D02*
X9915420Y-17224460D01*
X9915420Y-17224460D02*
X9896372Y-17233984D01*
X9896372Y-17233984D02*
X9848753Y-17233984D01*
X9848753Y-17233984D02*
X9829706Y-17224460D01*
X9829706Y-17224460D02*
X9820182Y-17214936D01*
X10001134Y-17033984D02*
X10134468Y-17033984D01*
X10134468Y-17033984D02*
X10048753Y-17233984D01*
X10201134Y-17033984D02*
X10201134Y-17072079D01*
X10277325Y-17033984D02*
X10277325Y-17072079D01*
X10572563Y-17310174D02*
X10563039Y-17300650D01*
X10563039Y-17300650D02*
X10543991Y-17272079D01*
X10543991Y-17272079D02*
X10534468Y-17253031D01*
X10534468Y-17253031D02*
X10524944Y-17224460D01*
X10524944Y-17224460D02*
X10515420Y-17176841D01*
X10515420Y-17176841D02*
X10515420Y-17138746D01*
X10515420Y-17138746D02*
X10524944Y-17091127D01*
X10524944Y-17091127D02*
X10534468Y-17062555D01*
X10534468Y-17062555D02*
X10543991Y-17043508D01*
X10543991Y-17043508D02*
X10563039Y-17014936D01*
X10563039Y-17014936D02*
X10572563Y-17005412D01*
X10743991Y-17033984D02*
X10648753Y-17033984D01*
X10648753Y-17033984D02*
X10639230Y-17129222D01*
X10639230Y-17129222D02*
X10648753Y-17119698D01*
X10648753Y-17119698D02*
X10667801Y-17110174D01*
X10667801Y-17110174D02*
X10715420Y-17110174D01*
X10715420Y-17110174D02*
X10734468Y-17119698D01*
X10734468Y-17119698D02*
X10743991Y-17129222D01*
X10743991Y-17129222D02*
X10753515Y-17148270D01*
X10753515Y-17148270D02*
X10753515Y-17195889D01*
X10753515Y-17195889D02*
X10743991Y-17214936D01*
X10743991Y-17214936D02*
X10734468Y-17224460D01*
X10734468Y-17224460D02*
X10715420Y-17233984D01*
X10715420Y-17233984D02*
X10667801Y-17233984D01*
X10667801Y-17233984D02*
X10648753Y-17224460D01*
X10648753Y-17224460D02*
X10639230Y-17214936D01*
X10848753Y-17233984D02*
X10886849Y-17233984D01*
X10886849Y-17233984D02*
X10905896Y-17224460D01*
X10905896Y-17224460D02*
X10915420Y-17214936D01*
X10915420Y-17214936D02*
X10934468Y-17186365D01*
X10934468Y-17186365D02*
X10943991Y-17148270D01*
X10943991Y-17148270D02*
X10943991Y-17072079D01*
X10943991Y-17072079D02*
X10934468Y-17053031D01*
X10934468Y-17053031D02*
X10924944Y-17043508D01*
X10924944Y-17043508D02*
X10905896Y-17033984D01*
X10905896Y-17033984D02*
X10867801Y-17033984D01*
X10867801Y-17033984D02*
X10848753Y-17043508D01*
X10848753Y-17043508D02*
X10839230Y-17053031D01*
X10839230Y-17053031D02*
X10829706Y-17072079D01*
X10829706Y-17072079D02*
X10829706Y-17119698D01*
X10829706Y-17119698D02*
X10839230Y-17138746D01*
X10839230Y-17138746D02*
X10848753Y-17148270D01*
X10848753Y-17148270D02*
X10867801Y-17157793D01*
X10867801Y-17157793D02*
X10905896Y-17157793D01*
X10905896Y-17157793D02*
X10924944Y-17148270D01*
X10924944Y-17148270D02*
X10934468Y-17138746D01*
X10934468Y-17138746D02*
X10943991Y-17119698D01*
X11182087Y-17233984D02*
X11182087Y-17033984D01*
X11267801Y-17233984D02*
X11267801Y-17129222D01*
X11267801Y-17129222D02*
X11258277Y-17110174D01*
X11258277Y-17110174D02*
X11239230Y-17100650D01*
X11239230Y-17100650D02*
X11210658Y-17100650D01*
X11210658Y-17100650D02*
X11191610Y-17110174D01*
X11191610Y-17110174D02*
X11182087Y-17119698D01*
X11391610Y-17233984D02*
X11372563Y-17224460D01*
X11372563Y-17224460D02*
X11363039Y-17214936D01*
X11363039Y-17214936D02*
X11353515Y-17195889D01*
X11353515Y-17195889D02*
X11353515Y-17138746D01*
X11353515Y-17138746D02*
X11363039Y-17119698D01*
X11363039Y-17119698D02*
X11372563Y-17110174D01*
X11372563Y-17110174D02*
X11391610Y-17100650D01*
X11391610Y-17100650D02*
X11420182Y-17100650D01*
X11420182Y-17100650D02*
X11439230Y-17110174D01*
X11439230Y-17110174D02*
X11448753Y-17119698D01*
X11448753Y-17119698D02*
X11458277Y-17138746D01*
X11458277Y-17138746D02*
X11458277Y-17195889D01*
X11458277Y-17195889D02*
X11448753Y-17214936D01*
X11448753Y-17214936D02*
X11439230Y-17224460D01*
X11439230Y-17224460D02*
X11420182Y-17233984D01*
X11420182Y-17233984D02*
X11391610Y-17233984D01*
X11572563Y-17233984D02*
X11553515Y-17224460D01*
X11553515Y-17224460D02*
X11543991Y-17205412D01*
X11543991Y-17205412D02*
X11543991Y-17033984D01*
X11724944Y-17224460D02*
X11705896Y-17233984D01*
X11705896Y-17233984D02*
X11667801Y-17233984D01*
X11667801Y-17233984D02*
X11648753Y-17224460D01*
X11648753Y-17224460D02*
X11639230Y-17205412D01*
X11639230Y-17205412D02*
X11639230Y-17129222D01*
X11639230Y-17129222D02*
X11648753Y-17110174D01*
X11648753Y-17110174D02*
X11667801Y-17100650D01*
X11667801Y-17100650D02*
X11705896Y-17100650D01*
X11705896Y-17100650D02*
X11724944Y-17110174D01*
X11724944Y-17110174D02*
X11734468Y-17129222D01*
X11734468Y-17129222D02*
X11734468Y-17148270D01*
X11734468Y-17148270D02*
X11639230Y-17167317D01*
X11810658Y-17224460D02*
X11829706Y-17233984D01*
X11829706Y-17233984D02*
X11867801Y-17233984D01*
X11867801Y-17233984D02*
X11886849Y-17224460D01*
X11886849Y-17224460D02*
X11896372Y-17205412D01*
X11896372Y-17205412D02*
X11896372Y-17195889D01*
X11896372Y-17195889D02*
X11886849Y-17176841D01*
X11886849Y-17176841D02*
X11867801Y-17167317D01*
X11867801Y-17167317D02*
X11839230Y-17167317D01*
X11839230Y-17167317D02*
X11820182Y-17157793D01*
X11820182Y-17157793D02*
X11810658Y-17138746D01*
X11810658Y-17138746D02*
X11810658Y-17129222D01*
X11810658Y-17129222D02*
X11820182Y-17110174D01*
X11820182Y-17110174D02*
X11839230Y-17100650D01*
X11839230Y-17100650D02*
X11867801Y-17100650D01*
X11867801Y-17100650D02*
X11886849Y-17110174D01*
X11963039Y-17310174D02*
X11972563Y-17300650D01*
X11972563Y-17300650D02*
X11991611Y-17272079D01*
X11991611Y-17272079D02*
X12001134Y-17253031D01*
X12001134Y-17253031D02*
X12010658Y-17224460D01*
X12010658Y-17224460D02*
X12020182Y-17176841D01*
X12020182Y-17176841D02*
X12020182Y-17138746D01*
X12020182Y-17138746D02*
X12010658Y-17091127D01*
X12010658Y-17091127D02*
X12001134Y-17062555D01*
X12001134Y-17062555D02*
X11991611Y-17043508D01*
X11991611Y-17043508D02*
X11972563Y-17014936D01*
X11972563Y-17014936D02*
X11963039Y-17005412D01*
D12*
X6997500Y-17406500D02*
G75*
G02*
X6917500Y-17406500I-40000J0D01*
G01*
X6917500Y-17406500D02*
G75*
G02*
X6997500Y-17406500I40000J0D01*
G01*
D11*
X7296372Y-17297984D02*
X7315420Y-17297984D01*
X7315420Y-17297984D02*
X7334467Y-17307508D01*
X7334467Y-17307508D02*
X7343991Y-17317031D01*
X7343991Y-17317031D02*
X7353515Y-17336079D01*
X7353515Y-17336079D02*
X7363039Y-17374174D01*
X7363039Y-17374174D02*
X7363039Y-17421793D01*
X7363039Y-17421793D02*
X7353515Y-17459889D01*
X7353515Y-17459889D02*
X7343991Y-17478936D01*
X7343991Y-17478936D02*
X7334467Y-17488460D01*
X7334467Y-17488460D02*
X7315420Y-17497984D01*
X7315420Y-17497984D02*
X7296372Y-17497984D01*
X7296372Y-17497984D02*
X7277324Y-17488460D01*
X7277324Y-17488460D02*
X7267801Y-17478936D01*
X7267801Y-17478936D02*
X7258277Y-17459889D01*
X7258277Y-17459889D02*
X7248753Y-17421793D01*
X7248753Y-17421793D02*
X7248753Y-17374174D01*
X7248753Y-17374174D02*
X7258277Y-17336079D01*
X7258277Y-17336079D02*
X7267801Y-17317031D01*
X7267801Y-17317031D02*
X7277324Y-17307508D01*
X7277324Y-17307508D02*
X7296372Y-17297984D01*
X7448753Y-17478936D02*
X7458277Y-17488460D01*
X7458277Y-17488460D02*
X7448753Y-17497984D01*
X7448753Y-17497984D02*
X7439229Y-17488460D01*
X7439229Y-17488460D02*
X7448753Y-17478936D01*
X7448753Y-17478936D02*
X7448753Y-17497984D01*
X7572562Y-17383698D02*
X7553515Y-17374174D01*
X7553515Y-17374174D02*
X7543991Y-17364650D01*
X7543991Y-17364650D02*
X7534467Y-17345603D01*
X7534467Y-17345603D02*
X7534467Y-17336079D01*
X7534467Y-17336079D02*
X7543991Y-17317031D01*
X7543991Y-17317031D02*
X7553515Y-17307508D01*
X7553515Y-17307508D02*
X7572562Y-17297984D01*
X7572562Y-17297984D02*
X7610658Y-17297984D01*
X7610658Y-17297984D02*
X7629705Y-17307508D01*
X7629705Y-17307508D02*
X7639229Y-17317031D01*
X7639229Y-17317031D02*
X7648753Y-17336079D01*
X7648753Y-17336079D02*
X7648753Y-17345603D01*
X7648753Y-17345603D02*
X7639229Y-17364650D01*
X7639229Y-17364650D02*
X7629705Y-17374174D01*
X7629705Y-17374174D02*
X7610658Y-17383698D01*
X7610658Y-17383698D02*
X7572562Y-17383698D01*
X7572562Y-17383698D02*
X7553515Y-17393222D01*
X7553515Y-17393222D02*
X7543991Y-17402746D01*
X7543991Y-17402746D02*
X7534467Y-17421793D01*
X7534467Y-17421793D02*
X7534467Y-17459889D01*
X7534467Y-17459889D02*
X7543991Y-17478936D01*
X7543991Y-17478936D02*
X7553515Y-17488460D01*
X7553515Y-17488460D02*
X7572562Y-17497984D01*
X7572562Y-17497984D02*
X7610658Y-17497984D01*
X7610658Y-17497984D02*
X7629705Y-17488460D01*
X7629705Y-17488460D02*
X7639229Y-17478936D01*
X7639229Y-17478936D02*
X7648753Y-17459889D01*
X7648753Y-17459889D02*
X7648753Y-17421793D01*
X7648753Y-17421793D02*
X7639229Y-17402746D01*
X7639229Y-17402746D02*
X7629705Y-17393222D01*
X7629705Y-17393222D02*
X7610658Y-17383698D01*
X7772562Y-17297984D02*
X7791610Y-17297984D01*
X7791610Y-17297984D02*
X7810658Y-17307508D01*
X7810658Y-17307508D02*
X7820182Y-17317031D01*
X7820182Y-17317031D02*
X7829705Y-17336079D01*
X7829705Y-17336079D02*
X7839229Y-17374174D01*
X7839229Y-17374174D02*
X7839229Y-17421793D01*
X7839229Y-17421793D02*
X7829705Y-17459889D01*
X7829705Y-17459889D02*
X7820182Y-17478936D01*
X7820182Y-17478936D02*
X7810658Y-17488460D01*
X7810658Y-17488460D02*
X7791610Y-17497984D01*
X7791610Y-17497984D02*
X7772562Y-17497984D01*
X7772562Y-17497984D02*
X7753515Y-17488460D01*
X7753515Y-17488460D02*
X7743991Y-17478936D01*
X7743991Y-17478936D02*
X7734467Y-17459889D01*
X7734467Y-17459889D02*
X7724943Y-17421793D01*
X7724943Y-17421793D02*
X7724943Y-17374174D01*
X7724943Y-17374174D02*
X7734467Y-17336079D01*
X7734467Y-17336079D02*
X7743991Y-17317031D01*
X7743991Y-17317031D02*
X7753515Y-17307508D01*
X7753515Y-17307508D02*
X7772562Y-17297984D01*
X7963039Y-17297984D02*
X7982086Y-17297984D01*
X7982086Y-17297984D02*
X8001134Y-17307508D01*
X8001134Y-17307508D02*
X8010658Y-17317031D01*
X8010658Y-17317031D02*
X8020182Y-17336079D01*
X8020182Y-17336079D02*
X8029705Y-17374174D01*
X8029705Y-17374174D02*
X8029705Y-17421793D01*
X8029705Y-17421793D02*
X8020182Y-17459889D01*
X8020182Y-17459889D02*
X8010658Y-17478936D01*
X8010658Y-17478936D02*
X8001134Y-17488460D01*
X8001134Y-17488460D02*
X7982086Y-17497984D01*
X7982086Y-17497984D02*
X7963039Y-17497984D01*
X7963039Y-17497984D02*
X7943991Y-17488460D01*
X7943991Y-17488460D02*
X7934467Y-17478936D01*
X7934467Y-17478936D02*
X7924943Y-17459889D01*
X7924943Y-17459889D02*
X7915420Y-17421793D01*
X7915420Y-17421793D02*
X7915420Y-17374174D01*
X7915420Y-17374174D02*
X7924943Y-17336079D01*
X7924943Y-17336079D02*
X7934467Y-17317031D01*
X7934467Y-17317031D02*
X7943991Y-17307508D01*
X7943991Y-17307508D02*
X7963039Y-17297984D01*
X8115420Y-17497984D02*
X8115420Y-17364650D01*
X8115420Y-17383698D02*
X8124943Y-17374174D01*
X8124943Y-17374174D02*
X8143991Y-17364650D01*
X8143991Y-17364650D02*
X8172563Y-17364650D01*
X8172563Y-17364650D02*
X8191610Y-17374174D01*
X8191610Y-17374174D02*
X8201134Y-17393222D01*
X8201134Y-17393222D02*
X8201134Y-17497984D01*
X8201134Y-17393222D02*
X8210658Y-17374174D01*
X8210658Y-17374174D02*
X8229705Y-17364650D01*
X8229705Y-17364650D02*
X8258277Y-17364650D01*
X8258277Y-17364650D02*
X8277324Y-17374174D01*
X8277324Y-17374174D02*
X8286848Y-17393222D01*
X8286848Y-17393222D02*
X8286848Y-17497984D01*
X8382086Y-17497984D02*
X8382086Y-17364650D01*
X8382086Y-17383698D02*
X8391610Y-17374174D01*
X8391610Y-17374174D02*
X8410658Y-17364650D01*
X8410658Y-17364650D02*
X8439229Y-17364650D01*
X8439229Y-17364650D02*
X8458277Y-17374174D01*
X8458277Y-17374174D02*
X8467801Y-17393222D01*
X8467801Y-17393222D02*
X8467801Y-17497984D01*
X8467801Y-17393222D02*
X8477325Y-17374174D01*
X8477325Y-17374174D02*
X8496372Y-17364650D01*
X8496372Y-17364650D02*
X8524944Y-17364650D01*
X8524944Y-17364650D02*
X8543991Y-17374174D01*
X8543991Y-17374174D02*
X8553515Y-17393222D01*
X8553515Y-17393222D02*
X8553515Y-17497984D01*
X8943991Y-17288460D02*
X8772563Y-17545603D01*
X9201134Y-17297984D02*
X9220182Y-17297984D01*
X9220182Y-17297984D02*
X9239229Y-17307508D01*
X9239229Y-17307508D02*
X9248753Y-17317031D01*
X9248753Y-17317031D02*
X9258277Y-17336079D01*
X9258277Y-17336079D02*
X9267801Y-17374174D01*
X9267801Y-17374174D02*
X9267801Y-17421793D01*
X9267801Y-17421793D02*
X9258277Y-17459889D01*
X9258277Y-17459889D02*
X9248753Y-17478936D01*
X9248753Y-17478936D02*
X9239229Y-17488460D01*
X9239229Y-17488460D02*
X9220182Y-17497984D01*
X9220182Y-17497984D02*
X9201134Y-17497984D01*
X9201134Y-17497984D02*
X9182087Y-17488460D01*
X9182087Y-17488460D02*
X9172563Y-17478936D01*
X9172563Y-17478936D02*
X9163039Y-17459889D01*
X9163039Y-17459889D02*
X9153515Y-17421793D01*
X9153515Y-17421793D02*
X9153515Y-17374174D01*
X9153515Y-17374174D02*
X9163039Y-17336079D01*
X9163039Y-17336079D02*
X9172563Y-17317031D01*
X9172563Y-17317031D02*
X9182087Y-17307508D01*
X9182087Y-17307508D02*
X9201134Y-17297984D01*
X9353515Y-17478936D02*
X9363039Y-17488460D01*
X9363039Y-17488460D02*
X9353515Y-17497984D01*
X9353515Y-17497984D02*
X9343991Y-17488460D01*
X9343991Y-17488460D02*
X9353515Y-17478936D01*
X9353515Y-17478936D02*
X9353515Y-17497984D01*
X9486848Y-17297984D02*
X9505896Y-17297984D01*
X9505896Y-17297984D02*
X9524944Y-17307508D01*
X9524944Y-17307508D02*
X9534468Y-17317031D01*
X9534468Y-17317031D02*
X9543991Y-17336079D01*
X9543991Y-17336079D02*
X9553515Y-17374174D01*
X9553515Y-17374174D02*
X9553515Y-17421793D01*
X9553515Y-17421793D02*
X9543991Y-17459889D01*
X9543991Y-17459889D02*
X9534468Y-17478936D01*
X9534468Y-17478936D02*
X9524944Y-17488460D01*
X9524944Y-17488460D02*
X9505896Y-17497984D01*
X9505896Y-17497984D02*
X9486848Y-17497984D01*
X9486848Y-17497984D02*
X9467801Y-17488460D01*
X9467801Y-17488460D02*
X9458277Y-17478936D01*
X9458277Y-17478936D02*
X9448753Y-17459889D01*
X9448753Y-17459889D02*
X9439229Y-17421793D01*
X9439229Y-17421793D02*
X9439229Y-17374174D01*
X9439229Y-17374174D02*
X9448753Y-17336079D01*
X9448753Y-17336079D02*
X9458277Y-17317031D01*
X9458277Y-17317031D02*
X9467801Y-17307508D01*
X9467801Y-17307508D02*
X9486848Y-17297984D01*
X9620182Y-17297984D02*
X9743991Y-17297984D01*
X9743991Y-17297984D02*
X9677325Y-17374174D01*
X9677325Y-17374174D02*
X9705896Y-17374174D01*
X9705896Y-17374174D02*
X9724944Y-17383698D01*
X9724944Y-17383698D02*
X9734468Y-17393222D01*
X9734468Y-17393222D02*
X9743991Y-17412270D01*
X9743991Y-17412270D02*
X9743991Y-17459889D01*
X9743991Y-17459889D02*
X9734468Y-17478936D01*
X9734468Y-17478936D02*
X9724944Y-17488460D01*
X9724944Y-17488460D02*
X9705896Y-17497984D01*
X9705896Y-17497984D02*
X9648753Y-17497984D01*
X9648753Y-17497984D02*
X9629706Y-17488460D01*
X9629706Y-17488460D02*
X9620182Y-17478936D01*
X9934468Y-17497984D02*
X9820182Y-17497984D01*
X9877325Y-17497984D02*
X9877325Y-17297984D01*
X9877325Y-17297984D02*
X9858277Y-17326555D01*
X9858277Y-17326555D02*
X9839229Y-17345603D01*
X9839229Y-17345603D02*
X9820182Y-17355127D01*
X10115420Y-17297984D02*
X10020182Y-17297984D01*
X10020182Y-17297984D02*
X10010658Y-17393222D01*
X10010658Y-17393222D02*
X10020182Y-17383698D01*
X10020182Y-17383698D02*
X10039229Y-17374174D01*
X10039229Y-17374174D02*
X10086849Y-17374174D01*
X10086849Y-17374174D02*
X10105896Y-17383698D01*
X10105896Y-17383698D02*
X10115420Y-17393222D01*
X10115420Y-17393222D02*
X10124944Y-17412270D01*
X10124944Y-17412270D02*
X10124944Y-17459889D01*
X10124944Y-17459889D02*
X10115420Y-17478936D01*
X10115420Y-17478936D02*
X10105896Y-17488460D01*
X10105896Y-17488460D02*
X10086849Y-17497984D01*
X10086849Y-17497984D02*
X10039229Y-17497984D01*
X10039229Y-17497984D02*
X10020182Y-17488460D01*
X10020182Y-17488460D02*
X10010658Y-17478936D01*
X10201134Y-17297984D02*
X10201134Y-17336079D01*
X10277325Y-17297984D02*
X10277325Y-17336079D01*
X10572563Y-17574174D02*
X10563039Y-17564650D01*
X10563039Y-17564650D02*
X10543991Y-17536079D01*
X10543991Y-17536079D02*
X10534468Y-17517031D01*
X10534468Y-17517031D02*
X10524944Y-17488460D01*
X10524944Y-17488460D02*
X10515420Y-17440841D01*
X10515420Y-17440841D02*
X10515420Y-17402746D01*
X10515420Y-17402746D02*
X10524944Y-17355127D01*
X10524944Y-17355127D02*
X10534468Y-17326555D01*
X10534468Y-17326555D02*
X10543991Y-17307508D01*
X10543991Y-17307508D02*
X10563039Y-17278936D01*
X10563039Y-17278936D02*
X10572563Y-17269412D01*
X10629706Y-17297984D02*
X10753515Y-17297984D01*
X10753515Y-17297984D02*
X10686849Y-17374174D01*
X10686849Y-17374174D02*
X10715420Y-17374174D01*
X10715420Y-17374174D02*
X10734468Y-17383698D01*
X10734468Y-17383698D02*
X10743991Y-17393222D01*
X10743991Y-17393222D02*
X10753515Y-17412270D01*
X10753515Y-17412270D02*
X10753515Y-17459889D01*
X10753515Y-17459889D02*
X10743991Y-17478936D01*
X10743991Y-17478936D02*
X10734468Y-17488460D01*
X10734468Y-17488460D02*
X10715420Y-17497984D01*
X10715420Y-17497984D02*
X10658277Y-17497984D01*
X10658277Y-17497984D02*
X10639230Y-17488460D01*
X10639230Y-17488460D02*
X10629706Y-17478936D01*
X10924944Y-17364650D02*
X10924944Y-17497984D01*
X10877325Y-17288460D02*
X10829706Y-17431317D01*
X10829706Y-17431317D02*
X10953515Y-17431317D01*
X11182087Y-17497984D02*
X11182087Y-17297984D01*
X11267801Y-17497984D02*
X11267801Y-17393222D01*
X11267801Y-17393222D02*
X11258277Y-17374174D01*
X11258277Y-17374174D02*
X11239230Y-17364650D01*
X11239230Y-17364650D02*
X11210658Y-17364650D01*
X11210658Y-17364650D02*
X11191610Y-17374174D01*
X11191610Y-17374174D02*
X11182087Y-17383698D01*
X11391610Y-17497984D02*
X11372563Y-17488460D01*
X11372563Y-17488460D02*
X11363039Y-17478936D01*
X11363039Y-17478936D02*
X11353515Y-17459889D01*
X11353515Y-17459889D02*
X11353515Y-17402746D01*
X11353515Y-17402746D02*
X11363039Y-17383698D01*
X11363039Y-17383698D02*
X11372563Y-17374174D01*
X11372563Y-17374174D02*
X11391610Y-17364650D01*
X11391610Y-17364650D02*
X11420182Y-17364650D01*
X11420182Y-17364650D02*
X11439230Y-17374174D01*
X11439230Y-17374174D02*
X11448753Y-17383698D01*
X11448753Y-17383698D02*
X11458277Y-17402746D01*
X11458277Y-17402746D02*
X11458277Y-17459889D01*
X11458277Y-17459889D02*
X11448753Y-17478936D01*
X11448753Y-17478936D02*
X11439230Y-17488460D01*
X11439230Y-17488460D02*
X11420182Y-17497984D01*
X11420182Y-17497984D02*
X11391610Y-17497984D01*
X11572563Y-17497984D02*
X11553515Y-17488460D01*
X11553515Y-17488460D02*
X11543991Y-17469412D01*
X11543991Y-17469412D02*
X11543991Y-17297984D01*
X11724944Y-17488460D02*
X11705896Y-17497984D01*
X11705896Y-17497984D02*
X11667801Y-17497984D01*
X11667801Y-17497984D02*
X11648753Y-17488460D01*
X11648753Y-17488460D02*
X11639230Y-17469412D01*
X11639230Y-17469412D02*
X11639230Y-17393222D01*
X11639230Y-17393222D02*
X11648753Y-17374174D01*
X11648753Y-17374174D02*
X11667801Y-17364650D01*
X11667801Y-17364650D02*
X11705896Y-17364650D01*
X11705896Y-17364650D02*
X11724944Y-17374174D01*
X11724944Y-17374174D02*
X11734468Y-17393222D01*
X11734468Y-17393222D02*
X11734468Y-17412270D01*
X11734468Y-17412270D02*
X11639230Y-17431317D01*
X11810658Y-17488460D02*
X11829706Y-17497984D01*
X11829706Y-17497984D02*
X11867801Y-17497984D01*
X11867801Y-17497984D02*
X11886849Y-17488460D01*
X11886849Y-17488460D02*
X11896372Y-17469412D01*
X11896372Y-17469412D02*
X11896372Y-17459889D01*
X11896372Y-17459889D02*
X11886849Y-17440841D01*
X11886849Y-17440841D02*
X11867801Y-17431317D01*
X11867801Y-17431317D02*
X11839230Y-17431317D01*
X11839230Y-17431317D02*
X11820182Y-17421793D01*
X11820182Y-17421793D02*
X11810658Y-17402746D01*
X11810658Y-17402746D02*
X11810658Y-17393222D01*
X11810658Y-17393222D02*
X11820182Y-17374174D01*
X11820182Y-17374174D02*
X11839230Y-17364650D01*
X11839230Y-17364650D02*
X11867801Y-17364650D01*
X11867801Y-17364650D02*
X11886849Y-17374174D01*
X11963039Y-17574174D02*
X11972563Y-17564650D01*
X11972563Y-17564650D02*
X11991611Y-17536079D01*
X11991611Y-17536079D02*
X12001134Y-17517031D01*
X12001134Y-17517031D02*
X12010658Y-17488460D01*
X12010658Y-17488460D02*
X12020182Y-17440841D01*
X12020182Y-17440841D02*
X12020182Y-17402746D01*
X12020182Y-17402746D02*
X12010658Y-17355127D01*
X12010658Y-17355127D02*
X12001134Y-17326555D01*
X12001134Y-17326555D02*
X11991611Y-17307508D01*
X11991611Y-17307508D02*
X11972563Y-17278936D01*
X11972563Y-17278936D02*
X11963039Y-17269412D01*
D12*
X6952500Y-17625500D02*
X6952500Y-17715500D01*
X6907500Y-17670500D02*
X6997500Y-17670500D01*
D11*
X7296372Y-17561984D02*
X7315420Y-17561984D01*
X7315420Y-17561984D02*
X7334467Y-17571508D01*
X7334467Y-17571508D02*
X7343991Y-17581031D01*
X7343991Y-17581031D02*
X7353515Y-17600079D01*
X7353515Y-17600079D02*
X7363039Y-17638174D01*
X7363039Y-17638174D02*
X7363039Y-17685793D01*
X7363039Y-17685793D02*
X7353515Y-17723889D01*
X7353515Y-17723889D02*
X7343991Y-17742936D01*
X7343991Y-17742936D02*
X7334467Y-17752460D01*
X7334467Y-17752460D02*
X7315420Y-17761984D01*
X7315420Y-17761984D02*
X7296372Y-17761984D01*
X7296372Y-17761984D02*
X7277324Y-17752460D01*
X7277324Y-17752460D02*
X7267801Y-17742936D01*
X7267801Y-17742936D02*
X7258277Y-17723889D01*
X7258277Y-17723889D02*
X7248753Y-17685793D01*
X7248753Y-17685793D02*
X7248753Y-17638174D01*
X7248753Y-17638174D02*
X7258277Y-17600079D01*
X7258277Y-17600079D02*
X7267801Y-17581031D01*
X7267801Y-17581031D02*
X7277324Y-17571508D01*
X7277324Y-17571508D02*
X7296372Y-17561984D01*
X7448753Y-17742936D02*
X7458277Y-17752460D01*
X7458277Y-17752460D02*
X7448753Y-17761984D01*
X7448753Y-17761984D02*
X7439229Y-17752460D01*
X7439229Y-17752460D02*
X7448753Y-17742936D01*
X7448753Y-17742936D02*
X7448753Y-17761984D01*
X7553515Y-17761984D02*
X7591610Y-17761984D01*
X7591610Y-17761984D02*
X7610658Y-17752460D01*
X7610658Y-17752460D02*
X7620182Y-17742936D01*
X7620182Y-17742936D02*
X7639229Y-17714365D01*
X7639229Y-17714365D02*
X7648753Y-17676270D01*
X7648753Y-17676270D02*
X7648753Y-17600079D01*
X7648753Y-17600079D02*
X7639229Y-17581031D01*
X7639229Y-17581031D02*
X7629705Y-17571508D01*
X7629705Y-17571508D02*
X7610658Y-17561984D01*
X7610658Y-17561984D02*
X7572562Y-17561984D01*
X7572562Y-17561984D02*
X7553515Y-17571508D01*
X7553515Y-17571508D02*
X7543991Y-17581031D01*
X7543991Y-17581031D02*
X7534467Y-17600079D01*
X7534467Y-17600079D02*
X7534467Y-17647698D01*
X7534467Y-17647698D02*
X7543991Y-17666746D01*
X7543991Y-17666746D02*
X7553515Y-17676270D01*
X7553515Y-17676270D02*
X7572562Y-17685793D01*
X7572562Y-17685793D02*
X7610658Y-17685793D01*
X7610658Y-17685793D02*
X7629705Y-17676270D01*
X7629705Y-17676270D02*
X7639229Y-17666746D01*
X7639229Y-17666746D02*
X7648753Y-17647698D01*
X7772562Y-17561984D02*
X7791610Y-17561984D01*
X7791610Y-17561984D02*
X7810658Y-17571508D01*
X7810658Y-17571508D02*
X7820182Y-17581031D01*
X7820182Y-17581031D02*
X7829705Y-17600079D01*
X7829705Y-17600079D02*
X7839229Y-17638174D01*
X7839229Y-17638174D02*
X7839229Y-17685793D01*
X7839229Y-17685793D02*
X7829705Y-17723889D01*
X7829705Y-17723889D02*
X7820182Y-17742936D01*
X7820182Y-17742936D02*
X7810658Y-17752460D01*
X7810658Y-17752460D02*
X7791610Y-17761984D01*
X7791610Y-17761984D02*
X7772562Y-17761984D01*
X7772562Y-17761984D02*
X7753515Y-17752460D01*
X7753515Y-17752460D02*
X7743991Y-17742936D01*
X7743991Y-17742936D02*
X7734467Y-17723889D01*
X7734467Y-17723889D02*
X7724943Y-17685793D01*
X7724943Y-17685793D02*
X7724943Y-17638174D01*
X7724943Y-17638174D02*
X7734467Y-17600079D01*
X7734467Y-17600079D02*
X7743991Y-17581031D01*
X7743991Y-17581031D02*
X7753515Y-17571508D01*
X7753515Y-17571508D02*
X7772562Y-17561984D01*
X7963039Y-17561984D02*
X7982086Y-17561984D01*
X7982086Y-17561984D02*
X8001134Y-17571508D01*
X8001134Y-17571508D02*
X8010658Y-17581031D01*
X8010658Y-17581031D02*
X8020182Y-17600079D01*
X8020182Y-17600079D02*
X8029705Y-17638174D01*
X8029705Y-17638174D02*
X8029705Y-17685793D01*
X8029705Y-17685793D02*
X8020182Y-17723889D01*
X8020182Y-17723889D02*
X8010658Y-17742936D01*
X8010658Y-17742936D02*
X8001134Y-17752460D01*
X8001134Y-17752460D02*
X7982086Y-17761984D01*
X7982086Y-17761984D02*
X7963039Y-17761984D01*
X7963039Y-17761984D02*
X7943991Y-17752460D01*
X7943991Y-17752460D02*
X7934467Y-17742936D01*
X7934467Y-17742936D02*
X7924943Y-17723889D01*
X7924943Y-17723889D02*
X7915420Y-17685793D01*
X7915420Y-17685793D02*
X7915420Y-17638174D01*
X7915420Y-17638174D02*
X7924943Y-17600079D01*
X7924943Y-17600079D02*
X7934467Y-17581031D01*
X7934467Y-17581031D02*
X7943991Y-17571508D01*
X7943991Y-17571508D02*
X7963039Y-17561984D01*
X8115420Y-17761984D02*
X8115420Y-17628650D01*
X8115420Y-17647698D02*
X8124943Y-17638174D01*
X8124943Y-17638174D02*
X8143991Y-17628650D01*
X8143991Y-17628650D02*
X8172563Y-17628650D01*
X8172563Y-17628650D02*
X8191610Y-17638174D01*
X8191610Y-17638174D02*
X8201134Y-17657222D01*
X8201134Y-17657222D02*
X8201134Y-17761984D01*
X8201134Y-17657222D02*
X8210658Y-17638174D01*
X8210658Y-17638174D02*
X8229705Y-17628650D01*
X8229705Y-17628650D02*
X8258277Y-17628650D01*
X8258277Y-17628650D02*
X8277324Y-17638174D01*
X8277324Y-17638174D02*
X8286848Y-17657222D01*
X8286848Y-17657222D02*
X8286848Y-17761984D01*
X8382086Y-17761984D02*
X8382086Y-17628650D01*
X8382086Y-17647698D02*
X8391610Y-17638174D01*
X8391610Y-17638174D02*
X8410658Y-17628650D01*
X8410658Y-17628650D02*
X8439229Y-17628650D01*
X8439229Y-17628650D02*
X8458277Y-17638174D01*
X8458277Y-17638174D02*
X8467801Y-17657222D01*
X8467801Y-17657222D02*
X8467801Y-17761984D01*
X8467801Y-17657222D02*
X8477325Y-17638174D01*
X8477325Y-17638174D02*
X8496372Y-17628650D01*
X8496372Y-17628650D02*
X8524944Y-17628650D01*
X8524944Y-17628650D02*
X8543991Y-17638174D01*
X8543991Y-17638174D02*
X8553515Y-17657222D01*
X8553515Y-17657222D02*
X8553515Y-17761984D01*
X8943991Y-17552460D02*
X8772563Y-17809603D01*
X9201134Y-17561984D02*
X9220182Y-17561984D01*
X9220182Y-17561984D02*
X9239229Y-17571508D01*
X9239229Y-17571508D02*
X9248753Y-17581031D01*
X9248753Y-17581031D02*
X9258277Y-17600079D01*
X9258277Y-17600079D02*
X9267801Y-17638174D01*
X9267801Y-17638174D02*
X9267801Y-17685793D01*
X9267801Y-17685793D02*
X9258277Y-17723889D01*
X9258277Y-17723889D02*
X9248753Y-17742936D01*
X9248753Y-17742936D02*
X9239229Y-17752460D01*
X9239229Y-17752460D02*
X9220182Y-17761984D01*
X9220182Y-17761984D02*
X9201134Y-17761984D01*
X9201134Y-17761984D02*
X9182087Y-17752460D01*
X9182087Y-17752460D02*
X9172563Y-17742936D01*
X9172563Y-17742936D02*
X9163039Y-17723889D01*
X9163039Y-17723889D02*
X9153515Y-17685793D01*
X9153515Y-17685793D02*
X9153515Y-17638174D01*
X9153515Y-17638174D02*
X9163039Y-17600079D01*
X9163039Y-17600079D02*
X9172563Y-17581031D01*
X9172563Y-17581031D02*
X9182087Y-17571508D01*
X9182087Y-17571508D02*
X9201134Y-17561984D01*
X9353515Y-17742936D02*
X9363039Y-17752460D01*
X9363039Y-17752460D02*
X9353515Y-17761984D01*
X9353515Y-17761984D02*
X9343991Y-17752460D01*
X9343991Y-17752460D02*
X9353515Y-17742936D01*
X9353515Y-17742936D02*
X9353515Y-17761984D01*
X9486848Y-17561984D02*
X9505896Y-17561984D01*
X9505896Y-17561984D02*
X9524944Y-17571508D01*
X9524944Y-17571508D02*
X9534468Y-17581031D01*
X9534468Y-17581031D02*
X9543991Y-17600079D01*
X9543991Y-17600079D02*
X9553515Y-17638174D01*
X9553515Y-17638174D02*
X9553515Y-17685793D01*
X9553515Y-17685793D02*
X9543991Y-17723889D01*
X9543991Y-17723889D02*
X9534468Y-17742936D01*
X9534468Y-17742936D02*
X9524944Y-17752460D01*
X9524944Y-17752460D02*
X9505896Y-17761984D01*
X9505896Y-17761984D02*
X9486848Y-17761984D01*
X9486848Y-17761984D02*
X9467801Y-17752460D01*
X9467801Y-17752460D02*
X9458277Y-17742936D01*
X9458277Y-17742936D02*
X9448753Y-17723889D01*
X9448753Y-17723889D02*
X9439229Y-17685793D01*
X9439229Y-17685793D02*
X9439229Y-17638174D01*
X9439229Y-17638174D02*
X9448753Y-17600079D01*
X9448753Y-17600079D02*
X9458277Y-17581031D01*
X9458277Y-17581031D02*
X9467801Y-17571508D01*
X9467801Y-17571508D02*
X9486848Y-17561984D01*
X9620182Y-17561984D02*
X9743991Y-17561984D01*
X9743991Y-17561984D02*
X9677325Y-17638174D01*
X9677325Y-17638174D02*
X9705896Y-17638174D01*
X9705896Y-17638174D02*
X9724944Y-17647698D01*
X9724944Y-17647698D02*
X9734468Y-17657222D01*
X9734468Y-17657222D02*
X9743991Y-17676270D01*
X9743991Y-17676270D02*
X9743991Y-17723889D01*
X9743991Y-17723889D02*
X9734468Y-17742936D01*
X9734468Y-17742936D02*
X9724944Y-17752460D01*
X9724944Y-17752460D02*
X9705896Y-17761984D01*
X9705896Y-17761984D02*
X9648753Y-17761984D01*
X9648753Y-17761984D02*
X9629706Y-17752460D01*
X9629706Y-17752460D02*
X9620182Y-17742936D01*
X9924944Y-17561984D02*
X9829706Y-17561984D01*
X9829706Y-17561984D02*
X9820182Y-17657222D01*
X9820182Y-17657222D02*
X9829706Y-17647698D01*
X9829706Y-17647698D02*
X9848753Y-17638174D01*
X9848753Y-17638174D02*
X9896372Y-17638174D01*
X9896372Y-17638174D02*
X9915420Y-17647698D01*
X9915420Y-17647698D02*
X9924944Y-17657222D01*
X9924944Y-17657222D02*
X9934468Y-17676270D01*
X9934468Y-17676270D02*
X9934468Y-17723889D01*
X9934468Y-17723889D02*
X9924944Y-17742936D01*
X9924944Y-17742936D02*
X9915420Y-17752460D01*
X9915420Y-17752460D02*
X9896372Y-17761984D01*
X9896372Y-17761984D02*
X9848753Y-17761984D01*
X9848753Y-17761984D02*
X9829706Y-17752460D01*
X9829706Y-17752460D02*
X9820182Y-17742936D01*
X10105896Y-17628650D02*
X10105896Y-17761984D01*
X10058277Y-17552460D02*
X10010658Y-17695317D01*
X10010658Y-17695317D02*
X10134468Y-17695317D01*
X10201134Y-17561984D02*
X10201134Y-17600079D01*
X10277325Y-17561984D02*
X10277325Y-17600079D01*
X10572563Y-17838174D02*
X10563039Y-17828650D01*
X10563039Y-17828650D02*
X10543991Y-17800079D01*
X10543991Y-17800079D02*
X10534468Y-17781031D01*
X10534468Y-17781031D02*
X10524944Y-17752460D01*
X10524944Y-17752460D02*
X10515420Y-17704841D01*
X10515420Y-17704841D02*
X10515420Y-17666746D01*
X10515420Y-17666746D02*
X10524944Y-17619127D01*
X10524944Y-17619127D02*
X10534468Y-17590555D01*
X10534468Y-17590555D02*
X10543991Y-17571508D01*
X10543991Y-17571508D02*
X10563039Y-17542936D01*
X10563039Y-17542936D02*
X10572563Y-17533412D01*
X10639230Y-17581031D02*
X10648753Y-17571508D01*
X10648753Y-17571508D02*
X10667801Y-17561984D01*
X10667801Y-17561984D02*
X10715420Y-17561984D01*
X10715420Y-17561984D02*
X10734468Y-17571508D01*
X10734468Y-17571508D02*
X10743991Y-17581031D01*
X10743991Y-17581031D02*
X10753515Y-17600079D01*
X10753515Y-17600079D02*
X10753515Y-17619127D01*
X10753515Y-17619127D02*
X10743991Y-17647698D01*
X10743991Y-17647698D02*
X10629706Y-17761984D01*
X10629706Y-17761984D02*
X10753515Y-17761984D01*
X10991611Y-17761984D02*
X10991611Y-17561984D01*
X11077325Y-17761984D02*
X11077325Y-17657222D01*
X11077325Y-17657222D02*
X11067801Y-17638174D01*
X11067801Y-17638174D02*
X11048753Y-17628650D01*
X11048753Y-17628650D02*
X11020182Y-17628650D01*
X11020182Y-17628650D02*
X11001134Y-17638174D01*
X11001134Y-17638174D02*
X10991611Y-17647698D01*
X11201134Y-17761984D02*
X11182087Y-17752460D01*
X11182087Y-17752460D02*
X11172563Y-17742936D01*
X11172563Y-17742936D02*
X11163039Y-17723889D01*
X11163039Y-17723889D02*
X11163039Y-17666746D01*
X11163039Y-17666746D02*
X11172563Y-17647698D01*
X11172563Y-17647698D02*
X11182087Y-17638174D01*
X11182087Y-17638174D02*
X11201134Y-17628650D01*
X11201134Y-17628650D02*
X11229706Y-17628650D01*
X11229706Y-17628650D02*
X11248753Y-17638174D01*
X11248753Y-17638174D02*
X11258277Y-17647698D01*
X11258277Y-17647698D02*
X11267801Y-17666746D01*
X11267801Y-17666746D02*
X11267801Y-17723889D01*
X11267801Y-17723889D02*
X11258277Y-17742936D01*
X11258277Y-17742936D02*
X11248753Y-17752460D01*
X11248753Y-17752460D02*
X11229706Y-17761984D01*
X11229706Y-17761984D02*
X11201134Y-17761984D01*
X11382087Y-17761984D02*
X11363039Y-17752460D01*
X11363039Y-17752460D02*
X11353515Y-17733412D01*
X11353515Y-17733412D02*
X11353515Y-17561984D01*
X11534468Y-17752460D02*
X11515420Y-17761984D01*
X11515420Y-17761984D02*
X11477325Y-17761984D01*
X11477325Y-17761984D02*
X11458277Y-17752460D01*
X11458277Y-17752460D02*
X11448753Y-17733412D01*
X11448753Y-17733412D02*
X11448753Y-17657222D01*
X11448753Y-17657222D02*
X11458277Y-17638174D01*
X11458277Y-17638174D02*
X11477325Y-17628650D01*
X11477325Y-17628650D02*
X11515420Y-17628650D01*
X11515420Y-17628650D02*
X11534468Y-17638174D01*
X11534468Y-17638174D02*
X11543991Y-17657222D01*
X11543991Y-17657222D02*
X11543991Y-17676270D01*
X11543991Y-17676270D02*
X11448753Y-17695317D01*
X11620182Y-17752460D02*
X11639230Y-17761984D01*
X11639230Y-17761984D02*
X11677325Y-17761984D01*
X11677325Y-17761984D02*
X11696372Y-17752460D01*
X11696372Y-17752460D02*
X11705896Y-17733412D01*
X11705896Y-17733412D02*
X11705896Y-17723889D01*
X11705896Y-17723889D02*
X11696372Y-17704841D01*
X11696372Y-17704841D02*
X11677325Y-17695317D01*
X11677325Y-17695317D02*
X11648753Y-17695317D01*
X11648753Y-17695317D02*
X11629706Y-17685793D01*
X11629706Y-17685793D02*
X11620182Y-17666746D01*
X11620182Y-17666746D02*
X11620182Y-17657222D01*
X11620182Y-17657222D02*
X11629706Y-17638174D01*
X11629706Y-17638174D02*
X11648753Y-17628650D01*
X11648753Y-17628650D02*
X11677325Y-17628650D01*
X11677325Y-17628650D02*
X11696372Y-17638174D01*
X11772563Y-17838174D02*
X11782087Y-17828650D01*
X11782087Y-17828650D02*
X11801134Y-17800079D01*
X11801134Y-17800079D02*
X11810658Y-17781031D01*
X11810658Y-17781031D02*
X11820182Y-17752460D01*
X11820182Y-17752460D02*
X11829706Y-17704841D01*
X11829706Y-17704841D02*
X11829706Y-17666746D01*
X11829706Y-17666746D02*
X11820182Y-17619127D01*
X11820182Y-17619127D02*
X11810658Y-17590555D01*
X11810658Y-17590555D02*
X11801134Y-17571508D01*
X11801134Y-17571508D02*
X11782087Y-17542936D01*
X11782087Y-17542936D02*
X11772563Y-17533412D01*
D12*
X6982856Y-17969856D02*
X6982856Y-17899144D01*
X6912144Y-17899144D01*
X6912144Y-17969856D01*
X6982856Y-17969856D01*
D11*
X7363039Y-18025984D02*
X7248753Y-18025984D01*
X7305896Y-18025984D02*
X7305896Y-17825984D01*
X7305896Y-17825984D02*
X7286848Y-17854555D01*
X7286848Y-17854555D02*
X7267801Y-17873603D01*
X7267801Y-17873603D02*
X7248753Y-17883127D01*
X7448753Y-18006936D02*
X7458277Y-18016460D01*
X7458277Y-18016460D02*
X7448753Y-18025984D01*
X7448753Y-18025984D02*
X7439229Y-18016460D01*
X7439229Y-18016460D02*
X7448753Y-18006936D01*
X7448753Y-18006936D02*
X7448753Y-18025984D01*
X7582086Y-17825984D02*
X7601134Y-17825984D01*
X7601134Y-17825984D02*
X7620182Y-17835508D01*
X7620182Y-17835508D02*
X7629705Y-17845031D01*
X7629705Y-17845031D02*
X7639229Y-17864079D01*
X7639229Y-17864079D02*
X7648753Y-17902174D01*
X7648753Y-17902174D02*
X7648753Y-17949793D01*
X7648753Y-17949793D02*
X7639229Y-17987889D01*
X7639229Y-17987889D02*
X7629705Y-18006936D01*
X7629705Y-18006936D02*
X7620182Y-18016460D01*
X7620182Y-18016460D02*
X7601134Y-18025984D01*
X7601134Y-18025984D02*
X7582086Y-18025984D01*
X7582086Y-18025984D02*
X7563039Y-18016460D01*
X7563039Y-18016460D02*
X7553515Y-18006936D01*
X7553515Y-18006936D02*
X7543991Y-17987889D01*
X7543991Y-17987889D02*
X7534467Y-17949793D01*
X7534467Y-17949793D02*
X7534467Y-17902174D01*
X7534467Y-17902174D02*
X7543991Y-17864079D01*
X7543991Y-17864079D02*
X7553515Y-17845031D01*
X7553515Y-17845031D02*
X7563039Y-17835508D01*
X7563039Y-17835508D02*
X7582086Y-17825984D01*
X7772562Y-17825984D02*
X7791610Y-17825984D01*
X7791610Y-17825984D02*
X7810658Y-17835508D01*
X7810658Y-17835508D02*
X7820182Y-17845031D01*
X7820182Y-17845031D02*
X7829705Y-17864079D01*
X7829705Y-17864079D02*
X7839229Y-17902174D01*
X7839229Y-17902174D02*
X7839229Y-17949793D01*
X7839229Y-17949793D02*
X7829705Y-17987889D01*
X7829705Y-17987889D02*
X7820182Y-18006936D01*
X7820182Y-18006936D02*
X7810658Y-18016460D01*
X7810658Y-18016460D02*
X7791610Y-18025984D01*
X7791610Y-18025984D02*
X7772562Y-18025984D01*
X7772562Y-18025984D02*
X7753515Y-18016460D01*
X7753515Y-18016460D02*
X7743991Y-18006936D01*
X7743991Y-18006936D02*
X7734467Y-17987889D01*
X7734467Y-17987889D02*
X7724943Y-17949793D01*
X7724943Y-17949793D02*
X7724943Y-17902174D01*
X7724943Y-17902174D02*
X7734467Y-17864079D01*
X7734467Y-17864079D02*
X7743991Y-17845031D01*
X7743991Y-17845031D02*
X7753515Y-17835508D01*
X7753515Y-17835508D02*
X7772562Y-17825984D01*
X7963039Y-17825984D02*
X7982086Y-17825984D01*
X7982086Y-17825984D02*
X8001134Y-17835508D01*
X8001134Y-17835508D02*
X8010658Y-17845031D01*
X8010658Y-17845031D02*
X8020182Y-17864079D01*
X8020182Y-17864079D02*
X8029705Y-17902174D01*
X8029705Y-17902174D02*
X8029705Y-17949793D01*
X8029705Y-17949793D02*
X8020182Y-17987889D01*
X8020182Y-17987889D02*
X8010658Y-18006936D01*
X8010658Y-18006936D02*
X8001134Y-18016460D01*
X8001134Y-18016460D02*
X7982086Y-18025984D01*
X7982086Y-18025984D02*
X7963039Y-18025984D01*
X7963039Y-18025984D02*
X7943991Y-18016460D01*
X7943991Y-18016460D02*
X7934467Y-18006936D01*
X7934467Y-18006936D02*
X7924943Y-17987889D01*
X7924943Y-17987889D02*
X7915420Y-17949793D01*
X7915420Y-17949793D02*
X7915420Y-17902174D01*
X7915420Y-17902174D02*
X7924943Y-17864079D01*
X7924943Y-17864079D02*
X7934467Y-17845031D01*
X7934467Y-17845031D02*
X7943991Y-17835508D01*
X7943991Y-17835508D02*
X7963039Y-17825984D01*
X8115420Y-18025984D02*
X8115420Y-17892650D01*
X8115420Y-17911698D02*
X8124943Y-17902174D01*
X8124943Y-17902174D02*
X8143991Y-17892650D01*
X8143991Y-17892650D02*
X8172563Y-17892650D01*
X8172563Y-17892650D02*
X8191610Y-17902174D01*
X8191610Y-17902174D02*
X8201134Y-17921222D01*
X8201134Y-17921222D02*
X8201134Y-18025984D01*
X8201134Y-17921222D02*
X8210658Y-17902174D01*
X8210658Y-17902174D02*
X8229705Y-17892650D01*
X8229705Y-17892650D02*
X8258277Y-17892650D01*
X8258277Y-17892650D02*
X8277324Y-17902174D01*
X8277324Y-17902174D02*
X8286848Y-17921222D01*
X8286848Y-17921222D02*
X8286848Y-18025984D01*
X8382086Y-18025984D02*
X8382086Y-17892650D01*
X8382086Y-17911698D02*
X8391610Y-17902174D01*
X8391610Y-17902174D02*
X8410658Y-17892650D01*
X8410658Y-17892650D02*
X8439229Y-17892650D01*
X8439229Y-17892650D02*
X8458277Y-17902174D01*
X8458277Y-17902174D02*
X8467801Y-17921222D01*
X8467801Y-17921222D02*
X8467801Y-18025984D01*
X8467801Y-17921222D02*
X8477325Y-17902174D01*
X8477325Y-17902174D02*
X8496372Y-17892650D01*
X8496372Y-17892650D02*
X8524944Y-17892650D01*
X8524944Y-17892650D02*
X8543991Y-17902174D01*
X8543991Y-17902174D02*
X8553515Y-17921222D01*
X8553515Y-17921222D02*
X8553515Y-18025984D01*
X8943991Y-17816460D02*
X8772563Y-18073603D01*
X9201134Y-17825984D02*
X9220182Y-17825984D01*
X9220182Y-17825984D02*
X9239229Y-17835508D01*
X9239229Y-17835508D02*
X9248753Y-17845031D01*
X9248753Y-17845031D02*
X9258277Y-17864079D01*
X9258277Y-17864079D02*
X9267801Y-17902174D01*
X9267801Y-17902174D02*
X9267801Y-17949793D01*
X9267801Y-17949793D02*
X9258277Y-17987889D01*
X9258277Y-17987889D02*
X9248753Y-18006936D01*
X9248753Y-18006936D02*
X9239229Y-18016460D01*
X9239229Y-18016460D02*
X9220182Y-18025984D01*
X9220182Y-18025984D02*
X9201134Y-18025984D01*
X9201134Y-18025984D02*
X9182087Y-18016460D01*
X9182087Y-18016460D02*
X9172563Y-18006936D01*
X9172563Y-18006936D02*
X9163039Y-17987889D01*
X9163039Y-17987889D02*
X9153515Y-17949793D01*
X9153515Y-17949793D02*
X9153515Y-17902174D01*
X9153515Y-17902174D02*
X9163039Y-17864079D01*
X9163039Y-17864079D02*
X9172563Y-17845031D01*
X9172563Y-17845031D02*
X9182087Y-17835508D01*
X9182087Y-17835508D02*
X9201134Y-17825984D01*
X9353515Y-18006936D02*
X9363039Y-18016460D01*
X9363039Y-18016460D02*
X9353515Y-18025984D01*
X9353515Y-18025984D02*
X9343991Y-18016460D01*
X9343991Y-18016460D02*
X9353515Y-18006936D01*
X9353515Y-18006936D02*
X9353515Y-18025984D01*
X9486848Y-17825984D02*
X9505896Y-17825984D01*
X9505896Y-17825984D02*
X9524944Y-17835508D01*
X9524944Y-17835508D02*
X9534468Y-17845031D01*
X9534468Y-17845031D02*
X9543991Y-17864079D01*
X9543991Y-17864079D02*
X9553515Y-17902174D01*
X9553515Y-17902174D02*
X9553515Y-17949793D01*
X9553515Y-17949793D02*
X9543991Y-17987889D01*
X9543991Y-17987889D02*
X9534468Y-18006936D01*
X9534468Y-18006936D02*
X9524944Y-18016460D01*
X9524944Y-18016460D02*
X9505896Y-18025984D01*
X9505896Y-18025984D02*
X9486848Y-18025984D01*
X9486848Y-18025984D02*
X9467801Y-18016460D01*
X9467801Y-18016460D02*
X9458277Y-18006936D01*
X9458277Y-18006936D02*
X9448753Y-17987889D01*
X9448753Y-17987889D02*
X9439229Y-17949793D01*
X9439229Y-17949793D02*
X9439229Y-17902174D01*
X9439229Y-17902174D02*
X9448753Y-17864079D01*
X9448753Y-17864079D02*
X9458277Y-17845031D01*
X9458277Y-17845031D02*
X9467801Y-17835508D01*
X9467801Y-17835508D02*
X9486848Y-17825984D01*
X9620182Y-17825984D02*
X9743991Y-17825984D01*
X9743991Y-17825984D02*
X9677325Y-17902174D01*
X9677325Y-17902174D02*
X9705896Y-17902174D01*
X9705896Y-17902174D02*
X9724944Y-17911698D01*
X9724944Y-17911698D02*
X9734468Y-17921222D01*
X9734468Y-17921222D02*
X9743991Y-17940270D01*
X9743991Y-17940270D02*
X9743991Y-17987889D01*
X9743991Y-17987889D02*
X9734468Y-18006936D01*
X9734468Y-18006936D02*
X9724944Y-18016460D01*
X9724944Y-18016460D02*
X9705896Y-18025984D01*
X9705896Y-18025984D02*
X9648753Y-18025984D01*
X9648753Y-18025984D02*
X9629706Y-18016460D01*
X9629706Y-18016460D02*
X9620182Y-18006936D01*
X9839229Y-18025984D02*
X9877325Y-18025984D01*
X9877325Y-18025984D02*
X9896372Y-18016460D01*
X9896372Y-18016460D02*
X9905896Y-18006936D01*
X9905896Y-18006936D02*
X9924944Y-17978365D01*
X9924944Y-17978365D02*
X9934468Y-17940270D01*
X9934468Y-17940270D02*
X9934468Y-17864079D01*
X9934468Y-17864079D02*
X9924944Y-17845031D01*
X9924944Y-17845031D02*
X9915420Y-17835508D01*
X9915420Y-17835508D02*
X9896372Y-17825984D01*
X9896372Y-17825984D02*
X9858277Y-17825984D01*
X9858277Y-17825984D02*
X9839229Y-17835508D01*
X9839229Y-17835508D02*
X9829706Y-17845031D01*
X9829706Y-17845031D02*
X9820182Y-17864079D01*
X9820182Y-17864079D02*
X9820182Y-17911698D01*
X9820182Y-17911698D02*
X9829706Y-17930746D01*
X9829706Y-17930746D02*
X9839229Y-17940270D01*
X9839229Y-17940270D02*
X9858277Y-17949793D01*
X9858277Y-17949793D02*
X9896372Y-17949793D01*
X9896372Y-17949793D02*
X9915420Y-17940270D01*
X9915420Y-17940270D02*
X9924944Y-17930746D01*
X9924944Y-17930746D02*
X9934468Y-17911698D01*
X10105896Y-17892650D02*
X10105896Y-18025984D01*
X10058277Y-17816460D02*
X10010658Y-17959317D01*
X10010658Y-17959317D02*
X10134468Y-17959317D01*
X10201134Y-17825984D02*
X10201134Y-17864079D01*
X10277325Y-17825984D02*
X10277325Y-17864079D01*
X10572563Y-18102174D02*
X10563039Y-18092650D01*
X10563039Y-18092650D02*
X10543991Y-18064079D01*
X10543991Y-18064079D02*
X10534468Y-18045031D01*
X10534468Y-18045031D02*
X10524944Y-18016460D01*
X10524944Y-18016460D02*
X10515420Y-17968841D01*
X10515420Y-17968841D02*
X10515420Y-17930746D01*
X10515420Y-17930746D02*
X10524944Y-17883127D01*
X10524944Y-17883127D02*
X10534468Y-17854555D01*
X10534468Y-17854555D02*
X10543991Y-17835508D01*
X10543991Y-17835508D02*
X10563039Y-17806936D01*
X10563039Y-17806936D02*
X10572563Y-17797412D01*
X10639230Y-17845031D02*
X10648753Y-17835508D01*
X10648753Y-17835508D02*
X10667801Y-17825984D01*
X10667801Y-17825984D02*
X10715420Y-17825984D01*
X10715420Y-17825984D02*
X10734468Y-17835508D01*
X10734468Y-17835508D02*
X10743991Y-17845031D01*
X10743991Y-17845031D02*
X10753515Y-17864079D01*
X10753515Y-17864079D02*
X10753515Y-17883127D01*
X10753515Y-17883127D02*
X10743991Y-17911698D01*
X10743991Y-17911698D02*
X10629706Y-18025984D01*
X10629706Y-18025984D02*
X10753515Y-18025984D01*
X10867801Y-17911698D02*
X10848753Y-17902174D01*
X10848753Y-17902174D02*
X10839230Y-17892650D01*
X10839230Y-17892650D02*
X10829706Y-17873603D01*
X10829706Y-17873603D02*
X10829706Y-17864079D01*
X10829706Y-17864079D02*
X10839230Y-17845031D01*
X10839230Y-17845031D02*
X10848753Y-17835508D01*
X10848753Y-17835508D02*
X10867801Y-17825984D01*
X10867801Y-17825984D02*
X10905896Y-17825984D01*
X10905896Y-17825984D02*
X10924944Y-17835508D01*
X10924944Y-17835508D02*
X10934468Y-17845031D01*
X10934468Y-17845031D02*
X10943991Y-17864079D01*
X10943991Y-17864079D02*
X10943991Y-17873603D01*
X10943991Y-17873603D02*
X10934468Y-17892650D01*
X10934468Y-17892650D02*
X10924944Y-17902174D01*
X10924944Y-17902174D02*
X10905896Y-17911698D01*
X10905896Y-17911698D02*
X10867801Y-17911698D01*
X10867801Y-17911698D02*
X10848753Y-17921222D01*
X10848753Y-17921222D02*
X10839230Y-17930746D01*
X10839230Y-17930746D02*
X10829706Y-17949793D01*
X10829706Y-17949793D02*
X10829706Y-17987889D01*
X10829706Y-17987889D02*
X10839230Y-18006936D01*
X10839230Y-18006936D02*
X10848753Y-18016460D01*
X10848753Y-18016460D02*
X10867801Y-18025984D01*
X10867801Y-18025984D02*
X10905896Y-18025984D01*
X10905896Y-18025984D02*
X10924944Y-18016460D01*
X10924944Y-18016460D02*
X10934468Y-18006936D01*
X10934468Y-18006936D02*
X10943991Y-17987889D01*
X10943991Y-17987889D02*
X10943991Y-17949793D01*
X10943991Y-17949793D02*
X10934468Y-17930746D01*
X10934468Y-17930746D02*
X10924944Y-17921222D01*
X10924944Y-17921222D02*
X10905896Y-17911698D01*
X11182087Y-18025984D02*
X11182087Y-17825984D01*
X11267801Y-18025984D02*
X11267801Y-17921222D01*
X11267801Y-17921222D02*
X11258277Y-17902174D01*
X11258277Y-17902174D02*
X11239230Y-17892650D01*
X11239230Y-17892650D02*
X11210658Y-17892650D01*
X11210658Y-17892650D02*
X11191610Y-17902174D01*
X11191610Y-17902174D02*
X11182087Y-17911698D01*
X11391610Y-18025984D02*
X11372563Y-18016460D01*
X11372563Y-18016460D02*
X11363039Y-18006936D01*
X11363039Y-18006936D02*
X11353515Y-17987889D01*
X11353515Y-17987889D02*
X11353515Y-17930746D01*
X11353515Y-17930746D02*
X11363039Y-17911698D01*
X11363039Y-17911698D02*
X11372563Y-17902174D01*
X11372563Y-17902174D02*
X11391610Y-17892650D01*
X11391610Y-17892650D02*
X11420182Y-17892650D01*
X11420182Y-17892650D02*
X11439230Y-17902174D01*
X11439230Y-17902174D02*
X11448753Y-17911698D01*
X11448753Y-17911698D02*
X11458277Y-17930746D01*
X11458277Y-17930746D02*
X11458277Y-17987889D01*
X11458277Y-17987889D02*
X11448753Y-18006936D01*
X11448753Y-18006936D02*
X11439230Y-18016460D01*
X11439230Y-18016460D02*
X11420182Y-18025984D01*
X11420182Y-18025984D02*
X11391610Y-18025984D01*
X11572563Y-18025984D02*
X11553515Y-18016460D01*
X11553515Y-18016460D02*
X11543991Y-17997412D01*
X11543991Y-17997412D02*
X11543991Y-17825984D01*
X11724944Y-18016460D02*
X11705896Y-18025984D01*
X11705896Y-18025984D02*
X11667801Y-18025984D01*
X11667801Y-18025984D02*
X11648753Y-18016460D01*
X11648753Y-18016460D02*
X11639230Y-17997412D01*
X11639230Y-17997412D02*
X11639230Y-17921222D01*
X11639230Y-17921222D02*
X11648753Y-17902174D01*
X11648753Y-17902174D02*
X11667801Y-17892650D01*
X11667801Y-17892650D02*
X11705896Y-17892650D01*
X11705896Y-17892650D02*
X11724944Y-17902174D01*
X11724944Y-17902174D02*
X11734468Y-17921222D01*
X11734468Y-17921222D02*
X11734468Y-17940270D01*
X11734468Y-17940270D02*
X11639230Y-17959317D01*
X11810658Y-18016460D02*
X11829706Y-18025984D01*
X11829706Y-18025984D02*
X11867801Y-18025984D01*
X11867801Y-18025984D02*
X11886849Y-18016460D01*
X11886849Y-18016460D02*
X11896372Y-17997412D01*
X11896372Y-17997412D02*
X11896372Y-17987889D01*
X11896372Y-17987889D02*
X11886849Y-17968841D01*
X11886849Y-17968841D02*
X11867801Y-17959317D01*
X11867801Y-17959317D02*
X11839230Y-17959317D01*
X11839230Y-17959317D02*
X11820182Y-17949793D01*
X11820182Y-17949793D02*
X11810658Y-17930746D01*
X11810658Y-17930746D02*
X11810658Y-17921222D01*
X11810658Y-17921222D02*
X11820182Y-17902174D01*
X11820182Y-17902174D02*
X11839230Y-17892650D01*
X11839230Y-17892650D02*
X11867801Y-17892650D01*
X11867801Y-17892650D02*
X11886849Y-17902174D01*
X11963039Y-18102174D02*
X11972563Y-18092650D01*
X11972563Y-18092650D02*
X11991611Y-18064079D01*
X11991611Y-18064079D02*
X12001134Y-18045031D01*
X12001134Y-18045031D02*
X12010658Y-18016460D01*
X12010658Y-18016460D02*
X12020182Y-17968841D01*
X12020182Y-17968841D02*
X12020182Y-17930746D01*
X12020182Y-17930746D02*
X12010658Y-17883127D01*
X12010658Y-17883127D02*
X12001134Y-17854555D01*
X12001134Y-17854555D02*
X11991611Y-17835508D01*
X11991611Y-17835508D02*
X11972563Y-17806936D01*
X11972563Y-17806936D02*
X11963039Y-17797412D01*
D13*
X6946700Y-18249300D02*
X6997500Y-18198500D01*
X6946700Y-18147700D01*
X6895900Y-18198500D01*
X6946700Y-18249300D01*
D11*
X7363039Y-18289984D02*
X7248753Y-18289984D01*
X7305896Y-18289984D02*
X7305896Y-18089984D01*
X7305896Y-18089984D02*
X7286848Y-18118555D01*
X7286848Y-18118555D02*
X7267801Y-18137603D01*
X7267801Y-18137603D02*
X7248753Y-18147127D01*
X7448753Y-18270936D02*
X7458277Y-18280460D01*
X7458277Y-18280460D02*
X7448753Y-18289984D01*
X7448753Y-18289984D02*
X7439229Y-18280460D01*
X7439229Y-18280460D02*
X7448753Y-18270936D01*
X7448753Y-18270936D02*
X7448753Y-18289984D01*
X7582086Y-18089984D02*
X7601134Y-18089984D01*
X7601134Y-18089984D02*
X7620182Y-18099508D01*
X7620182Y-18099508D02*
X7629705Y-18109031D01*
X7629705Y-18109031D02*
X7639229Y-18128079D01*
X7639229Y-18128079D02*
X7648753Y-18166174D01*
X7648753Y-18166174D02*
X7648753Y-18213793D01*
X7648753Y-18213793D02*
X7639229Y-18251889D01*
X7639229Y-18251889D02*
X7629705Y-18270936D01*
X7629705Y-18270936D02*
X7620182Y-18280460D01*
X7620182Y-18280460D02*
X7601134Y-18289984D01*
X7601134Y-18289984D02*
X7582086Y-18289984D01*
X7582086Y-18289984D02*
X7563039Y-18280460D01*
X7563039Y-18280460D02*
X7553515Y-18270936D01*
X7553515Y-18270936D02*
X7543991Y-18251889D01*
X7543991Y-18251889D02*
X7534467Y-18213793D01*
X7534467Y-18213793D02*
X7534467Y-18166174D01*
X7534467Y-18166174D02*
X7543991Y-18128079D01*
X7543991Y-18128079D02*
X7553515Y-18109031D01*
X7553515Y-18109031D02*
X7563039Y-18099508D01*
X7563039Y-18099508D02*
X7582086Y-18089984D01*
X7839229Y-18289984D02*
X7724943Y-18289984D01*
X7782086Y-18289984D02*
X7782086Y-18089984D01*
X7782086Y-18089984D02*
X7763039Y-18118555D01*
X7763039Y-18118555D02*
X7743991Y-18137603D01*
X7743991Y-18137603D02*
X7724943Y-18147127D01*
X8010658Y-18089984D02*
X7972562Y-18089984D01*
X7972562Y-18089984D02*
X7953515Y-18099508D01*
X7953515Y-18099508D02*
X7943991Y-18109031D01*
X7943991Y-18109031D02*
X7924943Y-18137603D01*
X7924943Y-18137603D02*
X7915420Y-18175698D01*
X7915420Y-18175698D02*
X7915420Y-18251889D01*
X7915420Y-18251889D02*
X7924943Y-18270936D01*
X7924943Y-18270936D02*
X7934467Y-18280460D01*
X7934467Y-18280460D02*
X7953515Y-18289984D01*
X7953515Y-18289984D02*
X7991610Y-18289984D01*
X7991610Y-18289984D02*
X8010658Y-18280460D01*
X8010658Y-18280460D02*
X8020182Y-18270936D01*
X8020182Y-18270936D02*
X8029705Y-18251889D01*
X8029705Y-18251889D02*
X8029705Y-18204270D01*
X8029705Y-18204270D02*
X8020182Y-18185222D01*
X8020182Y-18185222D02*
X8010658Y-18175698D01*
X8010658Y-18175698D02*
X7991610Y-18166174D01*
X7991610Y-18166174D02*
X7953515Y-18166174D01*
X7953515Y-18166174D02*
X7934467Y-18175698D01*
X7934467Y-18175698D02*
X7924943Y-18185222D01*
X7924943Y-18185222D02*
X7915420Y-18204270D01*
X8115420Y-18289984D02*
X8115420Y-18156650D01*
X8115420Y-18175698D02*
X8124943Y-18166174D01*
X8124943Y-18166174D02*
X8143991Y-18156650D01*
X8143991Y-18156650D02*
X8172563Y-18156650D01*
X8172563Y-18156650D02*
X8191610Y-18166174D01*
X8191610Y-18166174D02*
X8201134Y-18185222D01*
X8201134Y-18185222D02*
X8201134Y-18289984D01*
X8201134Y-18185222D02*
X8210658Y-18166174D01*
X8210658Y-18166174D02*
X8229705Y-18156650D01*
X8229705Y-18156650D02*
X8258277Y-18156650D01*
X8258277Y-18156650D02*
X8277324Y-18166174D01*
X8277324Y-18166174D02*
X8286848Y-18185222D01*
X8286848Y-18185222D02*
X8286848Y-18289984D01*
X8382086Y-18289984D02*
X8382086Y-18156650D01*
X8382086Y-18175698D02*
X8391610Y-18166174D01*
X8391610Y-18166174D02*
X8410658Y-18156650D01*
X8410658Y-18156650D02*
X8439229Y-18156650D01*
X8439229Y-18156650D02*
X8458277Y-18166174D01*
X8458277Y-18166174D02*
X8467801Y-18185222D01*
X8467801Y-18185222D02*
X8467801Y-18289984D01*
X8467801Y-18185222D02*
X8477325Y-18166174D01*
X8477325Y-18166174D02*
X8496372Y-18156650D01*
X8496372Y-18156650D02*
X8524944Y-18156650D01*
X8524944Y-18156650D02*
X8543991Y-18166174D01*
X8543991Y-18166174D02*
X8553515Y-18185222D01*
X8553515Y-18185222D02*
X8553515Y-18289984D01*
X8943991Y-18080460D02*
X8772563Y-18337603D01*
X9201134Y-18089984D02*
X9220182Y-18089984D01*
X9220182Y-18089984D02*
X9239229Y-18099508D01*
X9239229Y-18099508D02*
X9248753Y-18109031D01*
X9248753Y-18109031D02*
X9258277Y-18128079D01*
X9258277Y-18128079D02*
X9267801Y-18166174D01*
X9267801Y-18166174D02*
X9267801Y-18213793D01*
X9267801Y-18213793D02*
X9258277Y-18251889D01*
X9258277Y-18251889D02*
X9248753Y-18270936D01*
X9248753Y-18270936D02*
X9239229Y-18280460D01*
X9239229Y-18280460D02*
X9220182Y-18289984D01*
X9220182Y-18289984D02*
X9201134Y-18289984D01*
X9201134Y-18289984D02*
X9182087Y-18280460D01*
X9182087Y-18280460D02*
X9172563Y-18270936D01*
X9172563Y-18270936D02*
X9163039Y-18251889D01*
X9163039Y-18251889D02*
X9153515Y-18213793D01*
X9153515Y-18213793D02*
X9153515Y-18166174D01*
X9153515Y-18166174D02*
X9163039Y-18128079D01*
X9163039Y-18128079D02*
X9172563Y-18109031D01*
X9172563Y-18109031D02*
X9182087Y-18099508D01*
X9182087Y-18099508D02*
X9201134Y-18089984D01*
X9353515Y-18270936D02*
X9363039Y-18280460D01*
X9363039Y-18280460D02*
X9353515Y-18289984D01*
X9353515Y-18289984D02*
X9343991Y-18280460D01*
X9343991Y-18280460D02*
X9353515Y-18270936D01*
X9353515Y-18270936D02*
X9353515Y-18289984D01*
X9486848Y-18089984D02*
X9505896Y-18089984D01*
X9505896Y-18089984D02*
X9524944Y-18099508D01*
X9524944Y-18099508D02*
X9534468Y-18109031D01*
X9534468Y-18109031D02*
X9543991Y-18128079D01*
X9543991Y-18128079D02*
X9553515Y-18166174D01*
X9553515Y-18166174D02*
X9553515Y-18213793D01*
X9553515Y-18213793D02*
X9543991Y-18251889D01*
X9543991Y-18251889D02*
X9534468Y-18270936D01*
X9534468Y-18270936D02*
X9524944Y-18280460D01*
X9524944Y-18280460D02*
X9505896Y-18289984D01*
X9505896Y-18289984D02*
X9486848Y-18289984D01*
X9486848Y-18289984D02*
X9467801Y-18280460D01*
X9467801Y-18280460D02*
X9458277Y-18270936D01*
X9458277Y-18270936D02*
X9448753Y-18251889D01*
X9448753Y-18251889D02*
X9439229Y-18213793D01*
X9439229Y-18213793D02*
X9439229Y-18166174D01*
X9439229Y-18166174D02*
X9448753Y-18128079D01*
X9448753Y-18128079D02*
X9458277Y-18109031D01*
X9458277Y-18109031D02*
X9467801Y-18099508D01*
X9467801Y-18099508D02*
X9486848Y-18089984D01*
X9724944Y-18156650D02*
X9724944Y-18289984D01*
X9677325Y-18080460D02*
X9629706Y-18223317D01*
X9629706Y-18223317D02*
X9753515Y-18223317D01*
X9867801Y-18089984D02*
X9886849Y-18089984D01*
X9886849Y-18089984D02*
X9905896Y-18099508D01*
X9905896Y-18099508D02*
X9915420Y-18109031D01*
X9915420Y-18109031D02*
X9924944Y-18128079D01*
X9924944Y-18128079D02*
X9934468Y-18166174D01*
X9934468Y-18166174D02*
X9934468Y-18213793D01*
X9934468Y-18213793D02*
X9924944Y-18251889D01*
X9924944Y-18251889D02*
X9915420Y-18270936D01*
X9915420Y-18270936D02*
X9905896Y-18280460D01*
X9905896Y-18280460D02*
X9886849Y-18289984D01*
X9886849Y-18289984D02*
X9867801Y-18289984D01*
X9867801Y-18289984D02*
X9848753Y-18280460D01*
X9848753Y-18280460D02*
X9839229Y-18270936D01*
X9839229Y-18270936D02*
X9829706Y-18251889D01*
X9829706Y-18251889D02*
X9820182Y-18213793D01*
X9820182Y-18213793D02*
X9820182Y-18166174D01*
X9820182Y-18166174D02*
X9829706Y-18128079D01*
X9829706Y-18128079D02*
X9839229Y-18109031D01*
X9839229Y-18109031D02*
X9848753Y-18099508D01*
X9848753Y-18099508D02*
X9867801Y-18089984D01*
X10058277Y-18089984D02*
X10077325Y-18089984D01*
X10077325Y-18089984D02*
X10096372Y-18099508D01*
X10096372Y-18099508D02*
X10105896Y-18109031D01*
X10105896Y-18109031D02*
X10115420Y-18128079D01*
X10115420Y-18128079D02*
X10124944Y-18166174D01*
X10124944Y-18166174D02*
X10124944Y-18213793D01*
X10124944Y-18213793D02*
X10115420Y-18251889D01*
X10115420Y-18251889D02*
X10105896Y-18270936D01*
X10105896Y-18270936D02*
X10096372Y-18280460D01*
X10096372Y-18280460D02*
X10077325Y-18289984D01*
X10077325Y-18289984D02*
X10058277Y-18289984D01*
X10058277Y-18289984D02*
X10039229Y-18280460D01*
X10039229Y-18280460D02*
X10029706Y-18270936D01*
X10029706Y-18270936D02*
X10020182Y-18251889D01*
X10020182Y-18251889D02*
X10010658Y-18213793D01*
X10010658Y-18213793D02*
X10010658Y-18166174D01*
X10010658Y-18166174D02*
X10020182Y-18128079D01*
X10020182Y-18128079D02*
X10029706Y-18109031D01*
X10029706Y-18109031D02*
X10039229Y-18099508D01*
X10039229Y-18099508D02*
X10058277Y-18089984D01*
X10201134Y-18089984D02*
X10201134Y-18128079D01*
X10277325Y-18089984D02*
X10277325Y-18128079D01*
X10572563Y-18366174D02*
X10563039Y-18356650D01*
X10563039Y-18356650D02*
X10543991Y-18328079D01*
X10543991Y-18328079D02*
X10534468Y-18309031D01*
X10534468Y-18309031D02*
X10524944Y-18280460D01*
X10524944Y-18280460D02*
X10515420Y-18232841D01*
X10515420Y-18232841D02*
X10515420Y-18194746D01*
X10515420Y-18194746D02*
X10524944Y-18147127D01*
X10524944Y-18147127D02*
X10534468Y-18118555D01*
X10534468Y-18118555D02*
X10543991Y-18099508D01*
X10543991Y-18099508D02*
X10563039Y-18070936D01*
X10563039Y-18070936D02*
X10572563Y-18061412D01*
X10753515Y-18289984D02*
X10639230Y-18289984D01*
X10696372Y-18289984D02*
X10696372Y-18089984D01*
X10696372Y-18089984D02*
X10677325Y-18118555D01*
X10677325Y-18118555D02*
X10658277Y-18137603D01*
X10658277Y-18137603D02*
X10639230Y-18147127D01*
X10820182Y-18089984D02*
X10943991Y-18089984D01*
X10943991Y-18089984D02*
X10877325Y-18166174D01*
X10877325Y-18166174D02*
X10905896Y-18166174D01*
X10905896Y-18166174D02*
X10924944Y-18175698D01*
X10924944Y-18175698D02*
X10934468Y-18185222D01*
X10934468Y-18185222D02*
X10943991Y-18204270D01*
X10943991Y-18204270D02*
X10943991Y-18251889D01*
X10943991Y-18251889D02*
X10934468Y-18270936D01*
X10934468Y-18270936D02*
X10924944Y-18280460D01*
X10924944Y-18280460D02*
X10905896Y-18289984D01*
X10905896Y-18289984D02*
X10848753Y-18289984D01*
X10848753Y-18289984D02*
X10829706Y-18280460D01*
X10829706Y-18280460D02*
X10820182Y-18270936D01*
X11182087Y-18289984D02*
X11182087Y-18089984D01*
X11267801Y-18289984D02*
X11267801Y-18185222D01*
X11267801Y-18185222D02*
X11258277Y-18166174D01*
X11258277Y-18166174D02*
X11239230Y-18156650D01*
X11239230Y-18156650D02*
X11210658Y-18156650D01*
X11210658Y-18156650D02*
X11191610Y-18166174D01*
X11191610Y-18166174D02*
X11182087Y-18175698D01*
X11391610Y-18289984D02*
X11372563Y-18280460D01*
X11372563Y-18280460D02*
X11363039Y-18270936D01*
X11363039Y-18270936D02*
X11353515Y-18251889D01*
X11353515Y-18251889D02*
X11353515Y-18194746D01*
X11353515Y-18194746D02*
X11363039Y-18175698D01*
X11363039Y-18175698D02*
X11372563Y-18166174D01*
X11372563Y-18166174D02*
X11391610Y-18156650D01*
X11391610Y-18156650D02*
X11420182Y-18156650D01*
X11420182Y-18156650D02*
X11439230Y-18166174D01*
X11439230Y-18166174D02*
X11448753Y-18175698D01*
X11448753Y-18175698D02*
X11458277Y-18194746D01*
X11458277Y-18194746D02*
X11458277Y-18251889D01*
X11458277Y-18251889D02*
X11448753Y-18270936D01*
X11448753Y-18270936D02*
X11439230Y-18280460D01*
X11439230Y-18280460D02*
X11420182Y-18289984D01*
X11420182Y-18289984D02*
X11391610Y-18289984D01*
X11572563Y-18289984D02*
X11553515Y-18280460D01*
X11553515Y-18280460D02*
X11543991Y-18261412D01*
X11543991Y-18261412D02*
X11543991Y-18089984D01*
X11724944Y-18280460D02*
X11705896Y-18289984D01*
X11705896Y-18289984D02*
X11667801Y-18289984D01*
X11667801Y-18289984D02*
X11648753Y-18280460D01*
X11648753Y-18280460D02*
X11639230Y-18261412D01*
X11639230Y-18261412D02*
X11639230Y-18185222D01*
X11639230Y-18185222D02*
X11648753Y-18166174D01*
X11648753Y-18166174D02*
X11667801Y-18156650D01*
X11667801Y-18156650D02*
X11705896Y-18156650D01*
X11705896Y-18156650D02*
X11724944Y-18166174D01*
X11724944Y-18166174D02*
X11734468Y-18185222D01*
X11734468Y-18185222D02*
X11734468Y-18204270D01*
X11734468Y-18204270D02*
X11639230Y-18223317D01*
X11810658Y-18280460D02*
X11829706Y-18289984D01*
X11829706Y-18289984D02*
X11867801Y-18289984D01*
X11867801Y-18289984D02*
X11886849Y-18280460D01*
X11886849Y-18280460D02*
X11896372Y-18261412D01*
X11896372Y-18261412D02*
X11896372Y-18251889D01*
X11896372Y-18251889D02*
X11886849Y-18232841D01*
X11886849Y-18232841D02*
X11867801Y-18223317D01*
X11867801Y-18223317D02*
X11839230Y-18223317D01*
X11839230Y-18223317D02*
X11820182Y-18213793D01*
X11820182Y-18213793D02*
X11810658Y-18194746D01*
X11810658Y-18194746D02*
X11810658Y-18185222D01*
X11810658Y-18185222D02*
X11820182Y-18166174D01*
X11820182Y-18166174D02*
X11839230Y-18156650D01*
X11839230Y-18156650D02*
X11867801Y-18156650D01*
X11867801Y-18156650D02*
X11886849Y-18166174D01*
X11963039Y-18366174D02*
X11972563Y-18356650D01*
X11972563Y-18356650D02*
X11991611Y-18328079D01*
X11991611Y-18328079D02*
X12001134Y-18309031D01*
X12001134Y-18309031D02*
X12010658Y-18280460D01*
X12010658Y-18280460D02*
X12020182Y-18232841D01*
X12020182Y-18232841D02*
X12020182Y-18194746D01*
X12020182Y-18194746D02*
X12010658Y-18147127D01*
X12010658Y-18147127D02*
X12001134Y-18118555D01*
X12001134Y-18118555D02*
X11991611Y-18099508D01*
X11991611Y-18099508D02*
X11972563Y-18070936D01*
X11972563Y-18070936D02*
X11963039Y-18061412D01*
X6797500Y-18362500D02*
X6997500Y-18562500D01*
X6997500Y-18362500D02*
X6797500Y-18562500D01*
X6997500Y-18462500D02*
G75*
G02*
X6797500Y-18462500I-100000J0D01*
G01*
X6797500Y-18462500D02*
G75*
G02*
X6997500Y-18462500I100000J0D01*
G01*
X7248753Y-18373031D02*
X7258277Y-18363508D01*
X7258277Y-18363508D02*
X7277324Y-18353984D01*
X7277324Y-18353984D02*
X7324943Y-18353984D01*
X7324943Y-18353984D02*
X7343991Y-18363508D01*
X7343991Y-18363508D02*
X7353515Y-18373031D01*
X7353515Y-18373031D02*
X7363039Y-18392079D01*
X7363039Y-18392079D02*
X7363039Y-18411127D01*
X7363039Y-18411127D02*
X7353515Y-18439698D01*
X7353515Y-18439698D02*
X7239229Y-18553984D01*
X7239229Y-18553984D02*
X7363039Y-18553984D01*
X7448753Y-18534936D02*
X7458277Y-18544460D01*
X7458277Y-18544460D02*
X7448753Y-18553984D01*
X7448753Y-18553984D02*
X7439229Y-18544460D01*
X7439229Y-18544460D02*
X7448753Y-18534936D01*
X7448753Y-18534936D02*
X7448753Y-18553984D01*
X7524943Y-18353984D02*
X7658277Y-18353984D01*
X7658277Y-18353984D02*
X7572562Y-18553984D01*
X7772562Y-18353984D02*
X7791610Y-18353984D01*
X7791610Y-18353984D02*
X7810658Y-18363508D01*
X7810658Y-18363508D02*
X7820182Y-18373031D01*
X7820182Y-18373031D02*
X7829705Y-18392079D01*
X7829705Y-18392079D02*
X7839229Y-18430174D01*
X7839229Y-18430174D02*
X7839229Y-18477793D01*
X7839229Y-18477793D02*
X7829705Y-18515889D01*
X7829705Y-18515889D02*
X7820182Y-18534936D01*
X7820182Y-18534936D02*
X7810658Y-18544460D01*
X7810658Y-18544460D02*
X7791610Y-18553984D01*
X7791610Y-18553984D02*
X7772562Y-18553984D01*
X7772562Y-18553984D02*
X7753515Y-18544460D01*
X7753515Y-18544460D02*
X7743991Y-18534936D01*
X7743991Y-18534936D02*
X7734467Y-18515889D01*
X7734467Y-18515889D02*
X7724943Y-18477793D01*
X7724943Y-18477793D02*
X7724943Y-18430174D01*
X7724943Y-18430174D02*
X7734467Y-18392079D01*
X7734467Y-18392079D02*
X7743991Y-18373031D01*
X7743991Y-18373031D02*
X7753515Y-18363508D01*
X7753515Y-18363508D02*
X7772562Y-18353984D01*
X7963039Y-18353984D02*
X7982086Y-18353984D01*
X7982086Y-18353984D02*
X8001134Y-18363508D01*
X8001134Y-18363508D02*
X8010658Y-18373031D01*
X8010658Y-18373031D02*
X8020182Y-18392079D01*
X8020182Y-18392079D02*
X8029705Y-18430174D01*
X8029705Y-18430174D02*
X8029705Y-18477793D01*
X8029705Y-18477793D02*
X8020182Y-18515889D01*
X8020182Y-18515889D02*
X8010658Y-18534936D01*
X8010658Y-18534936D02*
X8001134Y-18544460D01*
X8001134Y-18544460D02*
X7982086Y-18553984D01*
X7982086Y-18553984D02*
X7963039Y-18553984D01*
X7963039Y-18553984D02*
X7943991Y-18544460D01*
X7943991Y-18544460D02*
X7934467Y-18534936D01*
X7934467Y-18534936D02*
X7924943Y-18515889D01*
X7924943Y-18515889D02*
X7915420Y-18477793D01*
X7915420Y-18477793D02*
X7915420Y-18430174D01*
X7915420Y-18430174D02*
X7924943Y-18392079D01*
X7924943Y-18392079D02*
X7934467Y-18373031D01*
X7934467Y-18373031D02*
X7943991Y-18363508D01*
X7943991Y-18363508D02*
X7963039Y-18353984D01*
X8115420Y-18553984D02*
X8115420Y-18420650D01*
X8115420Y-18439698D02*
X8124943Y-18430174D01*
X8124943Y-18430174D02*
X8143991Y-18420650D01*
X8143991Y-18420650D02*
X8172563Y-18420650D01*
X8172563Y-18420650D02*
X8191610Y-18430174D01*
X8191610Y-18430174D02*
X8201134Y-18449222D01*
X8201134Y-18449222D02*
X8201134Y-18553984D01*
X8201134Y-18449222D02*
X8210658Y-18430174D01*
X8210658Y-18430174D02*
X8229705Y-18420650D01*
X8229705Y-18420650D02*
X8258277Y-18420650D01*
X8258277Y-18420650D02*
X8277324Y-18430174D01*
X8277324Y-18430174D02*
X8286848Y-18449222D01*
X8286848Y-18449222D02*
X8286848Y-18553984D01*
X8382086Y-18553984D02*
X8382086Y-18420650D01*
X8382086Y-18439698D02*
X8391610Y-18430174D01*
X8391610Y-18430174D02*
X8410658Y-18420650D01*
X8410658Y-18420650D02*
X8439229Y-18420650D01*
X8439229Y-18420650D02*
X8458277Y-18430174D01*
X8458277Y-18430174D02*
X8467801Y-18449222D01*
X8467801Y-18449222D02*
X8467801Y-18553984D01*
X8467801Y-18449222D02*
X8477325Y-18430174D01*
X8477325Y-18430174D02*
X8496372Y-18420650D01*
X8496372Y-18420650D02*
X8524944Y-18420650D01*
X8524944Y-18420650D02*
X8543991Y-18430174D01*
X8543991Y-18430174D02*
X8553515Y-18449222D01*
X8553515Y-18449222D02*
X8553515Y-18553984D01*
X8943991Y-18344460D02*
X8772563Y-18601603D01*
X9201134Y-18353984D02*
X9220182Y-18353984D01*
X9220182Y-18353984D02*
X9239229Y-18363508D01*
X9239229Y-18363508D02*
X9248753Y-18373031D01*
X9248753Y-18373031D02*
X9258277Y-18392079D01*
X9258277Y-18392079D02*
X9267801Y-18430174D01*
X9267801Y-18430174D02*
X9267801Y-18477793D01*
X9267801Y-18477793D02*
X9258277Y-18515889D01*
X9258277Y-18515889D02*
X9248753Y-18534936D01*
X9248753Y-18534936D02*
X9239229Y-18544460D01*
X9239229Y-18544460D02*
X9220182Y-18553984D01*
X9220182Y-18553984D02*
X9201134Y-18553984D01*
X9201134Y-18553984D02*
X9182087Y-18544460D01*
X9182087Y-18544460D02*
X9172563Y-18534936D01*
X9172563Y-18534936D02*
X9163039Y-18515889D01*
X9163039Y-18515889D02*
X9153515Y-18477793D01*
X9153515Y-18477793D02*
X9153515Y-18430174D01*
X9153515Y-18430174D02*
X9163039Y-18392079D01*
X9163039Y-18392079D02*
X9172563Y-18373031D01*
X9172563Y-18373031D02*
X9182087Y-18363508D01*
X9182087Y-18363508D02*
X9201134Y-18353984D01*
X9353515Y-18534936D02*
X9363039Y-18544460D01*
X9363039Y-18544460D02*
X9353515Y-18553984D01*
X9353515Y-18553984D02*
X9343991Y-18544460D01*
X9343991Y-18544460D02*
X9353515Y-18534936D01*
X9353515Y-18534936D02*
X9353515Y-18553984D01*
X9553515Y-18553984D02*
X9439229Y-18553984D01*
X9496372Y-18553984D02*
X9496372Y-18353984D01*
X9496372Y-18353984D02*
X9477325Y-18382555D01*
X9477325Y-18382555D02*
X9458277Y-18401603D01*
X9458277Y-18401603D02*
X9439229Y-18411127D01*
X9677325Y-18353984D02*
X9696372Y-18353984D01*
X9696372Y-18353984D02*
X9715420Y-18363508D01*
X9715420Y-18363508D02*
X9724944Y-18373031D01*
X9724944Y-18373031D02*
X9734468Y-18392079D01*
X9734468Y-18392079D02*
X9743991Y-18430174D01*
X9743991Y-18430174D02*
X9743991Y-18477793D01*
X9743991Y-18477793D02*
X9734468Y-18515889D01*
X9734468Y-18515889D02*
X9724944Y-18534936D01*
X9724944Y-18534936D02*
X9715420Y-18544460D01*
X9715420Y-18544460D02*
X9696372Y-18553984D01*
X9696372Y-18553984D02*
X9677325Y-18553984D01*
X9677325Y-18553984D02*
X9658277Y-18544460D01*
X9658277Y-18544460D02*
X9648753Y-18534936D01*
X9648753Y-18534936D02*
X9639229Y-18515889D01*
X9639229Y-18515889D02*
X9629706Y-18477793D01*
X9629706Y-18477793D02*
X9629706Y-18430174D01*
X9629706Y-18430174D02*
X9639229Y-18392079D01*
X9639229Y-18392079D02*
X9648753Y-18373031D01*
X9648753Y-18373031D02*
X9658277Y-18363508D01*
X9658277Y-18363508D02*
X9677325Y-18353984D01*
X9915420Y-18353984D02*
X9877325Y-18353984D01*
X9877325Y-18353984D02*
X9858277Y-18363508D01*
X9858277Y-18363508D02*
X9848753Y-18373031D01*
X9848753Y-18373031D02*
X9829706Y-18401603D01*
X9829706Y-18401603D02*
X9820182Y-18439698D01*
X9820182Y-18439698D02*
X9820182Y-18515889D01*
X9820182Y-18515889D02*
X9829706Y-18534936D01*
X9829706Y-18534936D02*
X9839229Y-18544460D01*
X9839229Y-18544460D02*
X9858277Y-18553984D01*
X9858277Y-18553984D02*
X9896372Y-18553984D01*
X9896372Y-18553984D02*
X9915420Y-18544460D01*
X9915420Y-18544460D02*
X9924944Y-18534936D01*
X9924944Y-18534936D02*
X9934468Y-18515889D01*
X9934468Y-18515889D02*
X9934468Y-18468270D01*
X9934468Y-18468270D02*
X9924944Y-18449222D01*
X9924944Y-18449222D02*
X9915420Y-18439698D01*
X9915420Y-18439698D02*
X9896372Y-18430174D01*
X9896372Y-18430174D02*
X9858277Y-18430174D01*
X9858277Y-18430174D02*
X9839229Y-18439698D01*
X9839229Y-18439698D02*
X9829706Y-18449222D01*
X9829706Y-18449222D02*
X9820182Y-18468270D01*
X10001134Y-18353984D02*
X10124944Y-18353984D01*
X10124944Y-18353984D02*
X10058277Y-18430174D01*
X10058277Y-18430174D02*
X10086849Y-18430174D01*
X10086849Y-18430174D02*
X10105896Y-18439698D01*
X10105896Y-18439698D02*
X10115420Y-18449222D01*
X10115420Y-18449222D02*
X10124944Y-18468270D01*
X10124944Y-18468270D02*
X10124944Y-18515889D01*
X10124944Y-18515889D02*
X10115420Y-18534936D01*
X10115420Y-18534936D02*
X10105896Y-18544460D01*
X10105896Y-18544460D02*
X10086849Y-18553984D01*
X10086849Y-18553984D02*
X10029706Y-18553984D01*
X10029706Y-18553984D02*
X10010658Y-18544460D01*
X10010658Y-18544460D02*
X10001134Y-18534936D01*
X10201134Y-18353984D02*
X10201134Y-18392079D01*
X10277325Y-18353984D02*
X10277325Y-18392079D01*
X10572563Y-18630174D02*
X10563039Y-18620650D01*
X10563039Y-18620650D02*
X10543991Y-18592079D01*
X10543991Y-18592079D02*
X10534468Y-18573031D01*
X10534468Y-18573031D02*
X10524944Y-18544460D01*
X10524944Y-18544460D02*
X10515420Y-18496841D01*
X10515420Y-18496841D02*
X10515420Y-18458746D01*
X10515420Y-18458746D02*
X10524944Y-18411127D01*
X10524944Y-18411127D02*
X10534468Y-18382555D01*
X10534468Y-18382555D02*
X10543991Y-18363508D01*
X10543991Y-18363508D02*
X10563039Y-18334936D01*
X10563039Y-18334936D02*
X10572563Y-18325412D01*
X10734468Y-18420650D02*
X10734468Y-18553984D01*
X10686849Y-18344460D02*
X10639230Y-18487317D01*
X10639230Y-18487317D02*
X10763039Y-18487317D01*
X10991611Y-18553984D02*
X10991611Y-18353984D01*
X11077325Y-18553984D02*
X11077325Y-18449222D01*
X11077325Y-18449222D02*
X11067801Y-18430174D01*
X11067801Y-18430174D02*
X11048753Y-18420650D01*
X11048753Y-18420650D02*
X11020182Y-18420650D01*
X11020182Y-18420650D02*
X11001134Y-18430174D01*
X11001134Y-18430174D02*
X10991611Y-18439698D01*
X11201134Y-18553984D02*
X11182087Y-18544460D01*
X11182087Y-18544460D02*
X11172563Y-18534936D01*
X11172563Y-18534936D02*
X11163039Y-18515889D01*
X11163039Y-18515889D02*
X11163039Y-18458746D01*
X11163039Y-18458746D02*
X11172563Y-18439698D01*
X11172563Y-18439698D02*
X11182087Y-18430174D01*
X11182087Y-18430174D02*
X11201134Y-18420650D01*
X11201134Y-18420650D02*
X11229706Y-18420650D01*
X11229706Y-18420650D02*
X11248753Y-18430174D01*
X11248753Y-18430174D02*
X11258277Y-18439698D01*
X11258277Y-18439698D02*
X11267801Y-18458746D01*
X11267801Y-18458746D02*
X11267801Y-18515889D01*
X11267801Y-18515889D02*
X11258277Y-18534936D01*
X11258277Y-18534936D02*
X11248753Y-18544460D01*
X11248753Y-18544460D02*
X11229706Y-18553984D01*
X11229706Y-18553984D02*
X11201134Y-18553984D01*
X11382087Y-18553984D02*
X11363039Y-18544460D01*
X11363039Y-18544460D02*
X11353515Y-18525412D01*
X11353515Y-18525412D02*
X11353515Y-18353984D01*
X11534468Y-18544460D02*
X11515420Y-18553984D01*
X11515420Y-18553984D02*
X11477325Y-18553984D01*
X11477325Y-18553984D02*
X11458277Y-18544460D01*
X11458277Y-18544460D02*
X11448753Y-18525412D01*
X11448753Y-18525412D02*
X11448753Y-18449222D01*
X11448753Y-18449222D02*
X11458277Y-18430174D01*
X11458277Y-18430174D02*
X11477325Y-18420650D01*
X11477325Y-18420650D02*
X11515420Y-18420650D01*
X11515420Y-18420650D02*
X11534468Y-18430174D01*
X11534468Y-18430174D02*
X11543991Y-18449222D01*
X11543991Y-18449222D02*
X11543991Y-18468270D01*
X11543991Y-18468270D02*
X11448753Y-18487317D01*
X11620182Y-18544460D02*
X11639230Y-18553984D01*
X11639230Y-18553984D02*
X11677325Y-18553984D01*
X11677325Y-18553984D02*
X11696372Y-18544460D01*
X11696372Y-18544460D02*
X11705896Y-18525412D01*
X11705896Y-18525412D02*
X11705896Y-18515889D01*
X11705896Y-18515889D02*
X11696372Y-18496841D01*
X11696372Y-18496841D02*
X11677325Y-18487317D01*
X11677325Y-18487317D02*
X11648753Y-18487317D01*
X11648753Y-18487317D02*
X11629706Y-18477793D01*
X11629706Y-18477793D02*
X11620182Y-18458746D01*
X11620182Y-18458746D02*
X11620182Y-18449222D01*
X11620182Y-18449222D02*
X11629706Y-18430174D01*
X11629706Y-18430174D02*
X11648753Y-18420650D01*
X11648753Y-18420650D02*
X11677325Y-18420650D01*
X11677325Y-18420650D02*
X11696372Y-18430174D01*
X11772563Y-18630174D02*
X11782087Y-18620650D01*
X11782087Y-18620650D02*
X11801134Y-18592079D01*
X11801134Y-18592079D02*
X11810658Y-18573031D01*
X11810658Y-18573031D02*
X11820182Y-18544460D01*
X11820182Y-18544460D02*
X11829706Y-18496841D01*
X11829706Y-18496841D02*
X11829706Y-18458746D01*
X11829706Y-18458746D02*
X11820182Y-18411127D01*
X11820182Y-18411127D02*
X11810658Y-18382555D01*
X11810658Y-18382555D02*
X11801134Y-18363508D01*
X11801134Y-18363508D02*
X11782087Y-18334936D01*
X11782087Y-18334936D02*
X11772563Y-18325412D01*
X6797500Y-18682500D02*
X6997500Y-18882500D01*
X6997500Y-18682500D02*
X6797500Y-18882500D01*
X6897500Y-18682500D02*
X6897500Y-18882500D01*
X6797500Y-18782500D02*
X6997500Y-18782500D01*
X7248753Y-18693031D02*
X7258277Y-18683508D01*
X7258277Y-18683508D02*
X7277324Y-18673984D01*
X7277324Y-18673984D02*
X7324943Y-18673984D01*
X7324943Y-18673984D02*
X7343991Y-18683508D01*
X7343991Y-18683508D02*
X7353515Y-18693031D01*
X7353515Y-18693031D02*
X7363039Y-18712079D01*
X7363039Y-18712079D02*
X7363039Y-18731127D01*
X7363039Y-18731127D02*
X7353515Y-18759698D01*
X7353515Y-18759698D02*
X7239229Y-18873984D01*
X7239229Y-18873984D02*
X7363039Y-18873984D01*
X7448753Y-18854936D02*
X7458277Y-18864460D01*
X7458277Y-18864460D02*
X7448753Y-18873984D01*
X7448753Y-18873984D02*
X7439229Y-18864460D01*
X7439229Y-18864460D02*
X7448753Y-18854936D01*
X7448753Y-18854936D02*
X7448753Y-18873984D01*
X7553515Y-18873984D02*
X7591610Y-18873984D01*
X7591610Y-18873984D02*
X7610658Y-18864460D01*
X7610658Y-18864460D02*
X7620182Y-18854936D01*
X7620182Y-18854936D02*
X7639229Y-18826365D01*
X7639229Y-18826365D02*
X7648753Y-18788270D01*
X7648753Y-18788270D02*
X7648753Y-18712079D01*
X7648753Y-18712079D02*
X7639229Y-18693031D01*
X7639229Y-18693031D02*
X7629705Y-18683508D01*
X7629705Y-18683508D02*
X7610658Y-18673984D01*
X7610658Y-18673984D02*
X7572562Y-18673984D01*
X7572562Y-18673984D02*
X7553515Y-18683508D01*
X7553515Y-18683508D02*
X7543991Y-18693031D01*
X7543991Y-18693031D02*
X7534467Y-18712079D01*
X7534467Y-18712079D02*
X7534467Y-18759698D01*
X7534467Y-18759698D02*
X7543991Y-18778746D01*
X7543991Y-18778746D02*
X7553515Y-18788270D01*
X7553515Y-18788270D02*
X7572562Y-18797793D01*
X7572562Y-18797793D02*
X7610658Y-18797793D01*
X7610658Y-18797793D02*
X7629705Y-18788270D01*
X7629705Y-18788270D02*
X7639229Y-18778746D01*
X7639229Y-18778746D02*
X7648753Y-18759698D01*
X7743991Y-18873984D02*
X7782086Y-18873984D01*
X7782086Y-18873984D02*
X7801134Y-18864460D01*
X7801134Y-18864460D02*
X7810658Y-18854936D01*
X7810658Y-18854936D02*
X7829705Y-18826365D01*
X7829705Y-18826365D02*
X7839229Y-18788270D01*
X7839229Y-18788270D02*
X7839229Y-18712079D01*
X7839229Y-18712079D02*
X7829705Y-18693031D01*
X7829705Y-18693031D02*
X7820182Y-18683508D01*
X7820182Y-18683508D02*
X7801134Y-18673984D01*
X7801134Y-18673984D02*
X7763039Y-18673984D01*
X7763039Y-18673984D02*
X7743991Y-18683508D01*
X7743991Y-18683508D02*
X7734467Y-18693031D01*
X7734467Y-18693031D02*
X7724943Y-18712079D01*
X7724943Y-18712079D02*
X7724943Y-18759698D01*
X7724943Y-18759698D02*
X7734467Y-18778746D01*
X7734467Y-18778746D02*
X7743991Y-18788270D01*
X7743991Y-18788270D02*
X7763039Y-18797793D01*
X7763039Y-18797793D02*
X7801134Y-18797793D01*
X7801134Y-18797793D02*
X7820182Y-18788270D01*
X7820182Y-18788270D02*
X7829705Y-18778746D01*
X7829705Y-18778746D02*
X7839229Y-18759698D01*
X7905896Y-18673984D02*
X8039229Y-18673984D01*
X8039229Y-18673984D02*
X7953515Y-18873984D01*
X8115420Y-18873984D02*
X8115420Y-18740650D01*
X8115420Y-18759698D02*
X8124943Y-18750174D01*
X8124943Y-18750174D02*
X8143991Y-18740650D01*
X8143991Y-18740650D02*
X8172563Y-18740650D01*
X8172563Y-18740650D02*
X8191610Y-18750174D01*
X8191610Y-18750174D02*
X8201134Y-18769222D01*
X8201134Y-18769222D02*
X8201134Y-18873984D01*
X8201134Y-18769222D02*
X8210658Y-18750174D01*
X8210658Y-18750174D02*
X8229705Y-18740650D01*
X8229705Y-18740650D02*
X8258277Y-18740650D01*
X8258277Y-18740650D02*
X8277324Y-18750174D01*
X8277324Y-18750174D02*
X8286848Y-18769222D01*
X8286848Y-18769222D02*
X8286848Y-18873984D01*
X8382086Y-18873984D02*
X8382086Y-18740650D01*
X8382086Y-18759698D02*
X8391610Y-18750174D01*
X8391610Y-18750174D02*
X8410658Y-18740650D01*
X8410658Y-18740650D02*
X8439229Y-18740650D01*
X8439229Y-18740650D02*
X8458277Y-18750174D01*
X8458277Y-18750174D02*
X8467801Y-18769222D01*
X8467801Y-18769222D02*
X8467801Y-18873984D01*
X8467801Y-18769222D02*
X8477325Y-18750174D01*
X8477325Y-18750174D02*
X8496372Y-18740650D01*
X8496372Y-18740650D02*
X8524944Y-18740650D01*
X8524944Y-18740650D02*
X8543991Y-18750174D01*
X8543991Y-18750174D02*
X8553515Y-18769222D01*
X8553515Y-18769222D02*
X8553515Y-18873984D01*
X8943991Y-18664460D02*
X8772563Y-18921603D01*
X9201134Y-18673984D02*
X9220182Y-18673984D01*
X9220182Y-18673984D02*
X9239229Y-18683508D01*
X9239229Y-18683508D02*
X9248753Y-18693031D01*
X9248753Y-18693031D02*
X9258277Y-18712079D01*
X9258277Y-18712079D02*
X9267801Y-18750174D01*
X9267801Y-18750174D02*
X9267801Y-18797793D01*
X9267801Y-18797793D02*
X9258277Y-18835889D01*
X9258277Y-18835889D02*
X9248753Y-18854936D01*
X9248753Y-18854936D02*
X9239229Y-18864460D01*
X9239229Y-18864460D02*
X9220182Y-18873984D01*
X9220182Y-18873984D02*
X9201134Y-18873984D01*
X9201134Y-18873984D02*
X9182087Y-18864460D01*
X9182087Y-18864460D02*
X9172563Y-18854936D01*
X9172563Y-18854936D02*
X9163039Y-18835889D01*
X9163039Y-18835889D02*
X9153515Y-18797793D01*
X9153515Y-18797793D02*
X9153515Y-18750174D01*
X9153515Y-18750174D02*
X9163039Y-18712079D01*
X9163039Y-18712079D02*
X9172563Y-18693031D01*
X9172563Y-18693031D02*
X9182087Y-18683508D01*
X9182087Y-18683508D02*
X9201134Y-18673984D01*
X9353515Y-18854936D02*
X9363039Y-18864460D01*
X9363039Y-18864460D02*
X9353515Y-18873984D01*
X9353515Y-18873984D02*
X9343991Y-18864460D01*
X9343991Y-18864460D02*
X9353515Y-18854936D01*
X9353515Y-18854936D02*
X9353515Y-18873984D01*
X9553515Y-18873984D02*
X9439229Y-18873984D01*
X9496372Y-18873984D02*
X9496372Y-18673984D01*
X9496372Y-18673984D02*
X9477325Y-18702555D01*
X9477325Y-18702555D02*
X9458277Y-18721603D01*
X9458277Y-18721603D02*
X9439229Y-18731127D01*
X9743991Y-18873984D02*
X9629706Y-18873984D01*
X9686848Y-18873984D02*
X9686848Y-18673984D01*
X9686848Y-18673984D02*
X9667801Y-18702555D01*
X9667801Y-18702555D02*
X9648753Y-18721603D01*
X9648753Y-18721603D02*
X9629706Y-18731127D01*
X9858277Y-18759698D02*
X9839229Y-18750174D01*
X9839229Y-18750174D02*
X9829706Y-18740650D01*
X9829706Y-18740650D02*
X9820182Y-18721603D01*
X9820182Y-18721603D02*
X9820182Y-18712079D01*
X9820182Y-18712079D02*
X9829706Y-18693031D01*
X9829706Y-18693031D02*
X9839229Y-18683508D01*
X9839229Y-18683508D02*
X9858277Y-18673984D01*
X9858277Y-18673984D02*
X9896372Y-18673984D01*
X9896372Y-18673984D02*
X9915420Y-18683508D01*
X9915420Y-18683508D02*
X9924944Y-18693031D01*
X9924944Y-18693031D02*
X9934468Y-18712079D01*
X9934468Y-18712079D02*
X9934468Y-18721603D01*
X9934468Y-18721603D02*
X9924944Y-18740650D01*
X9924944Y-18740650D02*
X9915420Y-18750174D01*
X9915420Y-18750174D02*
X9896372Y-18759698D01*
X9896372Y-18759698D02*
X9858277Y-18759698D01*
X9858277Y-18759698D02*
X9839229Y-18769222D01*
X9839229Y-18769222D02*
X9829706Y-18778746D01*
X9829706Y-18778746D02*
X9820182Y-18797793D01*
X9820182Y-18797793D02*
X9820182Y-18835889D01*
X9820182Y-18835889D02*
X9829706Y-18854936D01*
X9829706Y-18854936D02*
X9839229Y-18864460D01*
X9839229Y-18864460D02*
X9858277Y-18873984D01*
X9858277Y-18873984D02*
X9896372Y-18873984D01*
X9896372Y-18873984D02*
X9915420Y-18864460D01*
X9915420Y-18864460D02*
X9924944Y-18854936D01*
X9924944Y-18854936D02*
X9934468Y-18835889D01*
X9934468Y-18835889D02*
X9934468Y-18797793D01*
X9934468Y-18797793D02*
X9924944Y-18778746D01*
X9924944Y-18778746D02*
X9915420Y-18769222D01*
X9915420Y-18769222D02*
X9896372Y-18759698D01*
X10058277Y-18673984D02*
X10077325Y-18673984D01*
X10077325Y-18673984D02*
X10096372Y-18683508D01*
X10096372Y-18683508D02*
X10105896Y-18693031D01*
X10105896Y-18693031D02*
X10115420Y-18712079D01*
X10115420Y-18712079D02*
X10124944Y-18750174D01*
X10124944Y-18750174D02*
X10124944Y-18797793D01*
X10124944Y-18797793D02*
X10115420Y-18835889D01*
X10115420Y-18835889D02*
X10105896Y-18854936D01*
X10105896Y-18854936D02*
X10096372Y-18864460D01*
X10096372Y-18864460D02*
X10077325Y-18873984D01*
X10077325Y-18873984D02*
X10058277Y-18873984D01*
X10058277Y-18873984D02*
X10039229Y-18864460D01*
X10039229Y-18864460D02*
X10029706Y-18854936D01*
X10029706Y-18854936D02*
X10020182Y-18835889D01*
X10020182Y-18835889D02*
X10010658Y-18797793D01*
X10010658Y-18797793D02*
X10010658Y-18750174D01*
X10010658Y-18750174D02*
X10020182Y-18712079D01*
X10020182Y-18712079D02*
X10029706Y-18693031D01*
X10029706Y-18693031D02*
X10039229Y-18683508D01*
X10039229Y-18683508D02*
X10058277Y-18673984D01*
X10201134Y-18673984D02*
X10201134Y-18712079D01*
X10277325Y-18673984D02*
X10277325Y-18712079D01*
X10572563Y-18950174D02*
X10563039Y-18940650D01*
X10563039Y-18940650D02*
X10543991Y-18912079D01*
X10543991Y-18912079D02*
X10534468Y-18893031D01*
X10534468Y-18893031D02*
X10524944Y-18864460D01*
X10524944Y-18864460D02*
X10515420Y-18816841D01*
X10515420Y-18816841D02*
X10515420Y-18778746D01*
X10515420Y-18778746D02*
X10524944Y-18731127D01*
X10524944Y-18731127D02*
X10534468Y-18702555D01*
X10534468Y-18702555D02*
X10543991Y-18683508D01*
X10543991Y-18683508D02*
X10563039Y-18654936D01*
X10563039Y-18654936D02*
X10572563Y-18645412D01*
X10629706Y-18673984D02*
X10753515Y-18673984D01*
X10753515Y-18673984D02*
X10686849Y-18750174D01*
X10686849Y-18750174D02*
X10715420Y-18750174D01*
X10715420Y-18750174D02*
X10734468Y-18759698D01*
X10734468Y-18759698D02*
X10743991Y-18769222D01*
X10743991Y-18769222D02*
X10753515Y-18788270D01*
X10753515Y-18788270D02*
X10753515Y-18835889D01*
X10753515Y-18835889D02*
X10743991Y-18854936D01*
X10743991Y-18854936D02*
X10734468Y-18864460D01*
X10734468Y-18864460D02*
X10715420Y-18873984D01*
X10715420Y-18873984D02*
X10658277Y-18873984D01*
X10658277Y-18873984D02*
X10639230Y-18864460D01*
X10639230Y-18864460D02*
X10629706Y-18854936D01*
X10991611Y-18873984D02*
X10991611Y-18673984D01*
X11077325Y-18873984D02*
X11077325Y-18769222D01*
X11077325Y-18769222D02*
X11067801Y-18750174D01*
X11067801Y-18750174D02*
X11048753Y-18740650D01*
X11048753Y-18740650D02*
X11020182Y-18740650D01*
X11020182Y-18740650D02*
X11001134Y-18750174D01*
X11001134Y-18750174D02*
X10991611Y-18759698D01*
X11201134Y-18873984D02*
X11182087Y-18864460D01*
X11182087Y-18864460D02*
X11172563Y-18854936D01*
X11172563Y-18854936D02*
X11163039Y-18835889D01*
X11163039Y-18835889D02*
X11163039Y-18778746D01*
X11163039Y-18778746D02*
X11172563Y-18759698D01*
X11172563Y-18759698D02*
X11182087Y-18750174D01*
X11182087Y-18750174D02*
X11201134Y-18740650D01*
X11201134Y-18740650D02*
X11229706Y-18740650D01*
X11229706Y-18740650D02*
X11248753Y-18750174D01*
X11248753Y-18750174D02*
X11258277Y-18759698D01*
X11258277Y-18759698D02*
X11267801Y-18778746D01*
X11267801Y-18778746D02*
X11267801Y-18835889D01*
X11267801Y-18835889D02*
X11258277Y-18854936D01*
X11258277Y-18854936D02*
X11248753Y-18864460D01*
X11248753Y-18864460D02*
X11229706Y-18873984D01*
X11229706Y-18873984D02*
X11201134Y-18873984D01*
X11382087Y-18873984D02*
X11363039Y-18864460D01*
X11363039Y-18864460D02*
X11353515Y-18845412D01*
X11353515Y-18845412D02*
X11353515Y-18673984D01*
X11534468Y-18864460D02*
X11515420Y-18873984D01*
X11515420Y-18873984D02*
X11477325Y-18873984D01*
X11477325Y-18873984D02*
X11458277Y-18864460D01*
X11458277Y-18864460D02*
X11448753Y-18845412D01*
X11448753Y-18845412D02*
X11448753Y-18769222D01*
X11448753Y-18769222D02*
X11458277Y-18750174D01*
X11458277Y-18750174D02*
X11477325Y-18740650D01*
X11477325Y-18740650D02*
X11515420Y-18740650D01*
X11515420Y-18740650D02*
X11534468Y-18750174D01*
X11534468Y-18750174D02*
X11543991Y-18769222D01*
X11543991Y-18769222D02*
X11543991Y-18788270D01*
X11543991Y-18788270D02*
X11448753Y-18807317D01*
X11620182Y-18864460D02*
X11639230Y-18873984D01*
X11639230Y-18873984D02*
X11677325Y-18873984D01*
X11677325Y-18873984D02*
X11696372Y-18864460D01*
X11696372Y-18864460D02*
X11705896Y-18845412D01*
X11705896Y-18845412D02*
X11705896Y-18835889D01*
X11705896Y-18835889D02*
X11696372Y-18816841D01*
X11696372Y-18816841D02*
X11677325Y-18807317D01*
X11677325Y-18807317D02*
X11648753Y-18807317D01*
X11648753Y-18807317D02*
X11629706Y-18797793D01*
X11629706Y-18797793D02*
X11620182Y-18778746D01*
X11620182Y-18778746D02*
X11620182Y-18769222D01*
X11620182Y-18769222D02*
X11629706Y-18750174D01*
X11629706Y-18750174D02*
X11648753Y-18740650D01*
X11648753Y-18740650D02*
X11677325Y-18740650D01*
X11677325Y-18740650D02*
X11696372Y-18750174D01*
X11772563Y-18950174D02*
X11782087Y-18940650D01*
X11782087Y-18940650D02*
X11801134Y-18912079D01*
X11801134Y-18912079D02*
X11810658Y-18893031D01*
X11810658Y-18893031D02*
X11820182Y-18864460D01*
X11820182Y-18864460D02*
X11829706Y-18816841D01*
X11829706Y-18816841D02*
X11829706Y-18778746D01*
X11829706Y-18778746D02*
X11820182Y-18731127D01*
X11820182Y-18731127D02*
X11810658Y-18702555D01*
X11810658Y-18702555D02*
X11801134Y-18683508D01*
X11801134Y-18683508D02*
X11782087Y-18654936D01*
X11782087Y-18654936D02*
X11772563Y-18645412D01*
X6797500Y-19002500D02*
X6997500Y-19202500D01*
X6997500Y-19002500D02*
X6797500Y-19202500D01*
X6968211Y-19173211D02*
X6968211Y-19031789D01*
X6826789Y-19031789D01*
X6826789Y-19173211D01*
X6968211Y-19173211D01*
X7239229Y-18993984D02*
X7363039Y-18993984D01*
X7363039Y-18993984D02*
X7296372Y-19070174D01*
X7296372Y-19070174D02*
X7324943Y-19070174D01*
X7324943Y-19070174D02*
X7343991Y-19079698D01*
X7343991Y-19079698D02*
X7353515Y-19089222D01*
X7353515Y-19089222D02*
X7363039Y-19108270D01*
X7363039Y-19108270D02*
X7363039Y-19155889D01*
X7363039Y-19155889D02*
X7353515Y-19174936D01*
X7353515Y-19174936D02*
X7343991Y-19184460D01*
X7343991Y-19184460D02*
X7324943Y-19193984D01*
X7324943Y-19193984D02*
X7267801Y-19193984D01*
X7267801Y-19193984D02*
X7248753Y-19184460D01*
X7248753Y-19184460D02*
X7239229Y-19174936D01*
X7448753Y-19174936D02*
X7458277Y-19184460D01*
X7458277Y-19184460D02*
X7448753Y-19193984D01*
X7448753Y-19193984D02*
X7439229Y-19184460D01*
X7439229Y-19184460D02*
X7448753Y-19174936D01*
X7448753Y-19174936D02*
X7448753Y-19193984D01*
X7524943Y-18993984D02*
X7648753Y-18993984D01*
X7648753Y-18993984D02*
X7582086Y-19070174D01*
X7582086Y-19070174D02*
X7610658Y-19070174D01*
X7610658Y-19070174D02*
X7629705Y-19079698D01*
X7629705Y-19079698D02*
X7639229Y-19089222D01*
X7639229Y-19089222D02*
X7648753Y-19108270D01*
X7648753Y-19108270D02*
X7648753Y-19155889D01*
X7648753Y-19155889D02*
X7639229Y-19174936D01*
X7639229Y-19174936D02*
X7629705Y-19184460D01*
X7629705Y-19184460D02*
X7610658Y-19193984D01*
X7610658Y-19193984D02*
X7553515Y-19193984D01*
X7553515Y-19193984D02*
X7534467Y-19184460D01*
X7534467Y-19184460D02*
X7524943Y-19174936D01*
X7772562Y-18993984D02*
X7791610Y-18993984D01*
X7791610Y-18993984D02*
X7810658Y-19003508D01*
X7810658Y-19003508D02*
X7820182Y-19013031D01*
X7820182Y-19013031D02*
X7829705Y-19032079D01*
X7829705Y-19032079D02*
X7839229Y-19070174D01*
X7839229Y-19070174D02*
X7839229Y-19117793D01*
X7839229Y-19117793D02*
X7829705Y-19155889D01*
X7829705Y-19155889D02*
X7820182Y-19174936D01*
X7820182Y-19174936D02*
X7810658Y-19184460D01*
X7810658Y-19184460D02*
X7791610Y-19193984D01*
X7791610Y-19193984D02*
X7772562Y-19193984D01*
X7772562Y-19193984D02*
X7753515Y-19184460D01*
X7753515Y-19184460D02*
X7743991Y-19174936D01*
X7743991Y-19174936D02*
X7734467Y-19155889D01*
X7734467Y-19155889D02*
X7724943Y-19117793D01*
X7724943Y-19117793D02*
X7724943Y-19070174D01*
X7724943Y-19070174D02*
X7734467Y-19032079D01*
X7734467Y-19032079D02*
X7743991Y-19013031D01*
X7743991Y-19013031D02*
X7753515Y-19003508D01*
X7753515Y-19003508D02*
X7772562Y-18993984D01*
X7915420Y-19013031D02*
X7924943Y-19003508D01*
X7924943Y-19003508D02*
X7943991Y-18993984D01*
X7943991Y-18993984D02*
X7991610Y-18993984D01*
X7991610Y-18993984D02*
X8010658Y-19003508D01*
X8010658Y-19003508D02*
X8020182Y-19013031D01*
X8020182Y-19013031D02*
X8029705Y-19032079D01*
X8029705Y-19032079D02*
X8029705Y-19051127D01*
X8029705Y-19051127D02*
X8020182Y-19079698D01*
X8020182Y-19079698D02*
X7905896Y-19193984D01*
X7905896Y-19193984D02*
X8029705Y-19193984D01*
X8115420Y-19193984D02*
X8115420Y-19060650D01*
X8115420Y-19079698D02*
X8124943Y-19070174D01*
X8124943Y-19070174D02*
X8143991Y-19060650D01*
X8143991Y-19060650D02*
X8172563Y-19060650D01*
X8172563Y-19060650D02*
X8191610Y-19070174D01*
X8191610Y-19070174D02*
X8201134Y-19089222D01*
X8201134Y-19089222D02*
X8201134Y-19193984D01*
X8201134Y-19089222D02*
X8210658Y-19070174D01*
X8210658Y-19070174D02*
X8229705Y-19060650D01*
X8229705Y-19060650D02*
X8258277Y-19060650D01*
X8258277Y-19060650D02*
X8277324Y-19070174D01*
X8277324Y-19070174D02*
X8286848Y-19089222D01*
X8286848Y-19089222D02*
X8286848Y-19193984D01*
X8382086Y-19193984D02*
X8382086Y-19060650D01*
X8382086Y-19079698D02*
X8391610Y-19070174D01*
X8391610Y-19070174D02*
X8410658Y-19060650D01*
X8410658Y-19060650D02*
X8439229Y-19060650D01*
X8439229Y-19060650D02*
X8458277Y-19070174D01*
X8458277Y-19070174D02*
X8467801Y-19089222D01*
X8467801Y-19089222D02*
X8467801Y-19193984D01*
X8467801Y-19089222D02*
X8477325Y-19070174D01*
X8477325Y-19070174D02*
X8496372Y-19060650D01*
X8496372Y-19060650D02*
X8524944Y-19060650D01*
X8524944Y-19060650D02*
X8543991Y-19070174D01*
X8543991Y-19070174D02*
X8553515Y-19089222D01*
X8553515Y-19089222D02*
X8553515Y-19193984D01*
X8943991Y-18984460D02*
X8772563Y-19241603D01*
X9201134Y-18993984D02*
X9220182Y-18993984D01*
X9220182Y-18993984D02*
X9239229Y-19003508D01*
X9239229Y-19003508D02*
X9248753Y-19013031D01*
X9248753Y-19013031D02*
X9258277Y-19032079D01*
X9258277Y-19032079D02*
X9267801Y-19070174D01*
X9267801Y-19070174D02*
X9267801Y-19117793D01*
X9267801Y-19117793D02*
X9258277Y-19155889D01*
X9258277Y-19155889D02*
X9248753Y-19174936D01*
X9248753Y-19174936D02*
X9239229Y-19184460D01*
X9239229Y-19184460D02*
X9220182Y-19193984D01*
X9220182Y-19193984D02*
X9201134Y-19193984D01*
X9201134Y-19193984D02*
X9182087Y-19184460D01*
X9182087Y-19184460D02*
X9172563Y-19174936D01*
X9172563Y-19174936D02*
X9163039Y-19155889D01*
X9163039Y-19155889D02*
X9153515Y-19117793D01*
X9153515Y-19117793D02*
X9153515Y-19070174D01*
X9153515Y-19070174D02*
X9163039Y-19032079D01*
X9163039Y-19032079D02*
X9172563Y-19013031D01*
X9172563Y-19013031D02*
X9182087Y-19003508D01*
X9182087Y-19003508D02*
X9201134Y-18993984D01*
X9353515Y-19174936D02*
X9363039Y-19184460D01*
X9363039Y-19184460D02*
X9353515Y-19193984D01*
X9353515Y-19193984D02*
X9343991Y-19184460D01*
X9343991Y-19184460D02*
X9353515Y-19174936D01*
X9353515Y-19174936D02*
X9353515Y-19193984D01*
X9553515Y-19193984D02*
X9439229Y-19193984D01*
X9496372Y-19193984D02*
X9496372Y-18993984D01*
X9496372Y-18993984D02*
X9477325Y-19022555D01*
X9477325Y-19022555D02*
X9458277Y-19041603D01*
X9458277Y-19041603D02*
X9439229Y-19051127D01*
X9620182Y-18993984D02*
X9743991Y-18993984D01*
X9743991Y-18993984D02*
X9677325Y-19070174D01*
X9677325Y-19070174D02*
X9705896Y-19070174D01*
X9705896Y-19070174D02*
X9724944Y-19079698D01*
X9724944Y-19079698D02*
X9734468Y-19089222D01*
X9734468Y-19089222D02*
X9743991Y-19108270D01*
X9743991Y-19108270D02*
X9743991Y-19155889D01*
X9743991Y-19155889D02*
X9734468Y-19174936D01*
X9734468Y-19174936D02*
X9724944Y-19184460D01*
X9724944Y-19184460D02*
X9705896Y-19193984D01*
X9705896Y-19193984D02*
X9648753Y-19193984D01*
X9648753Y-19193984D02*
X9629706Y-19184460D01*
X9629706Y-19184460D02*
X9620182Y-19174936D01*
X9867801Y-18993984D02*
X9886849Y-18993984D01*
X9886849Y-18993984D02*
X9905896Y-19003508D01*
X9905896Y-19003508D02*
X9915420Y-19013031D01*
X9915420Y-19013031D02*
X9924944Y-19032079D01*
X9924944Y-19032079D02*
X9934468Y-19070174D01*
X9934468Y-19070174D02*
X9934468Y-19117793D01*
X9934468Y-19117793D02*
X9924944Y-19155889D01*
X9924944Y-19155889D02*
X9915420Y-19174936D01*
X9915420Y-19174936D02*
X9905896Y-19184460D01*
X9905896Y-19184460D02*
X9886849Y-19193984D01*
X9886849Y-19193984D02*
X9867801Y-19193984D01*
X9867801Y-19193984D02*
X9848753Y-19184460D01*
X9848753Y-19184460D02*
X9839229Y-19174936D01*
X9839229Y-19174936D02*
X9829706Y-19155889D01*
X9829706Y-19155889D02*
X9820182Y-19117793D01*
X9820182Y-19117793D02*
X9820182Y-19070174D01*
X9820182Y-19070174D02*
X9829706Y-19032079D01*
X9829706Y-19032079D02*
X9839229Y-19013031D01*
X9839229Y-19013031D02*
X9848753Y-19003508D01*
X9848753Y-19003508D02*
X9867801Y-18993984D01*
X10058277Y-18993984D02*
X10077325Y-18993984D01*
X10077325Y-18993984D02*
X10096372Y-19003508D01*
X10096372Y-19003508D02*
X10105896Y-19013031D01*
X10105896Y-19013031D02*
X10115420Y-19032079D01*
X10115420Y-19032079D02*
X10124944Y-19070174D01*
X10124944Y-19070174D02*
X10124944Y-19117793D01*
X10124944Y-19117793D02*
X10115420Y-19155889D01*
X10115420Y-19155889D02*
X10105896Y-19174936D01*
X10105896Y-19174936D02*
X10096372Y-19184460D01*
X10096372Y-19184460D02*
X10077325Y-19193984D01*
X10077325Y-19193984D02*
X10058277Y-19193984D01*
X10058277Y-19193984D02*
X10039229Y-19184460D01*
X10039229Y-19184460D02*
X10029706Y-19174936D01*
X10029706Y-19174936D02*
X10020182Y-19155889D01*
X10020182Y-19155889D02*
X10010658Y-19117793D01*
X10010658Y-19117793D02*
X10010658Y-19070174D01*
X10010658Y-19070174D02*
X10020182Y-19032079D01*
X10020182Y-19032079D02*
X10029706Y-19013031D01*
X10029706Y-19013031D02*
X10039229Y-19003508D01*
X10039229Y-19003508D02*
X10058277Y-18993984D01*
X10201134Y-18993984D02*
X10201134Y-19032079D01*
X10277325Y-18993984D02*
X10277325Y-19032079D01*
X10572563Y-19270174D02*
X10563039Y-19260650D01*
X10563039Y-19260650D02*
X10543991Y-19232079D01*
X10543991Y-19232079D02*
X10534468Y-19213031D01*
X10534468Y-19213031D02*
X10524944Y-19184460D01*
X10524944Y-19184460D02*
X10515420Y-19136841D01*
X10515420Y-19136841D02*
X10515420Y-19098746D01*
X10515420Y-19098746D02*
X10524944Y-19051127D01*
X10524944Y-19051127D02*
X10534468Y-19022555D01*
X10534468Y-19022555D02*
X10543991Y-19003508D01*
X10543991Y-19003508D02*
X10563039Y-18974936D01*
X10563039Y-18974936D02*
X10572563Y-18965412D01*
X10639230Y-19013031D02*
X10648753Y-19003508D01*
X10648753Y-19003508D02*
X10667801Y-18993984D01*
X10667801Y-18993984D02*
X10715420Y-18993984D01*
X10715420Y-18993984D02*
X10734468Y-19003508D01*
X10734468Y-19003508D02*
X10743991Y-19013031D01*
X10743991Y-19013031D02*
X10753515Y-19032079D01*
X10753515Y-19032079D02*
X10753515Y-19051127D01*
X10753515Y-19051127D02*
X10743991Y-19079698D01*
X10743991Y-19079698D02*
X10629706Y-19193984D01*
X10629706Y-19193984D02*
X10753515Y-19193984D01*
X10991611Y-19193984D02*
X10991611Y-18993984D01*
X11077325Y-19193984D02*
X11077325Y-19089222D01*
X11077325Y-19089222D02*
X11067801Y-19070174D01*
X11067801Y-19070174D02*
X11048753Y-19060650D01*
X11048753Y-19060650D02*
X11020182Y-19060650D01*
X11020182Y-19060650D02*
X11001134Y-19070174D01*
X11001134Y-19070174D02*
X10991611Y-19079698D01*
X11201134Y-19193984D02*
X11182087Y-19184460D01*
X11182087Y-19184460D02*
X11172563Y-19174936D01*
X11172563Y-19174936D02*
X11163039Y-19155889D01*
X11163039Y-19155889D02*
X11163039Y-19098746D01*
X11163039Y-19098746D02*
X11172563Y-19079698D01*
X11172563Y-19079698D02*
X11182087Y-19070174D01*
X11182087Y-19070174D02*
X11201134Y-19060650D01*
X11201134Y-19060650D02*
X11229706Y-19060650D01*
X11229706Y-19060650D02*
X11248753Y-19070174D01*
X11248753Y-19070174D02*
X11258277Y-19079698D01*
X11258277Y-19079698D02*
X11267801Y-19098746D01*
X11267801Y-19098746D02*
X11267801Y-19155889D01*
X11267801Y-19155889D02*
X11258277Y-19174936D01*
X11258277Y-19174936D02*
X11248753Y-19184460D01*
X11248753Y-19184460D02*
X11229706Y-19193984D01*
X11229706Y-19193984D02*
X11201134Y-19193984D01*
X11382087Y-19193984D02*
X11363039Y-19184460D01*
X11363039Y-19184460D02*
X11353515Y-19165412D01*
X11353515Y-19165412D02*
X11353515Y-18993984D01*
X11534468Y-19184460D02*
X11515420Y-19193984D01*
X11515420Y-19193984D02*
X11477325Y-19193984D01*
X11477325Y-19193984D02*
X11458277Y-19184460D01*
X11458277Y-19184460D02*
X11448753Y-19165412D01*
X11448753Y-19165412D02*
X11448753Y-19089222D01*
X11448753Y-19089222D02*
X11458277Y-19070174D01*
X11458277Y-19070174D02*
X11477325Y-19060650D01*
X11477325Y-19060650D02*
X11515420Y-19060650D01*
X11515420Y-19060650D02*
X11534468Y-19070174D01*
X11534468Y-19070174D02*
X11543991Y-19089222D01*
X11543991Y-19089222D02*
X11543991Y-19108270D01*
X11543991Y-19108270D02*
X11448753Y-19127317D01*
X11620182Y-19184460D02*
X11639230Y-19193984D01*
X11639230Y-19193984D02*
X11677325Y-19193984D01*
X11677325Y-19193984D02*
X11696372Y-19184460D01*
X11696372Y-19184460D02*
X11705896Y-19165412D01*
X11705896Y-19165412D02*
X11705896Y-19155889D01*
X11705896Y-19155889D02*
X11696372Y-19136841D01*
X11696372Y-19136841D02*
X11677325Y-19127317D01*
X11677325Y-19127317D02*
X11648753Y-19127317D01*
X11648753Y-19127317D02*
X11629706Y-19117793D01*
X11629706Y-19117793D02*
X11620182Y-19098746D01*
X11620182Y-19098746D02*
X11620182Y-19089222D01*
X11620182Y-19089222D02*
X11629706Y-19070174D01*
X11629706Y-19070174D02*
X11648753Y-19060650D01*
X11648753Y-19060650D02*
X11677325Y-19060650D01*
X11677325Y-19060650D02*
X11696372Y-19070174D01*
X11772563Y-19270174D02*
X11782087Y-19260650D01*
X11782087Y-19260650D02*
X11801134Y-19232079D01*
X11801134Y-19232079D02*
X11810658Y-19213031D01*
X11810658Y-19213031D02*
X11820182Y-19184460D01*
X11820182Y-19184460D02*
X11829706Y-19136841D01*
X11829706Y-19136841D02*
X11829706Y-19098746D01*
X11829706Y-19098746D02*
X11820182Y-19051127D01*
X11820182Y-19051127D02*
X11810658Y-19022555D01*
X11810658Y-19022555D02*
X11801134Y-19003508D01*
X11801134Y-19003508D02*
X11782087Y-18974936D01*
X11782087Y-18974936D02*
X11772563Y-18965412D01*
M02*
