G04 #@! TF.GenerationSoftware,KiCad,Pcbnew,8.0.6*
G04 #@! TF.CreationDate,2025-01-17T22:38:05-05:00*
G04 #@! TF.ProjectId,board_stm32_rev2,626f6172-645f-4737-946d-33325f726576,rev?*
G04 #@! TF.SameCoordinates,Original*
G04 #@! TF.FileFunction,Soldermask,Top*
G04 #@! TF.FilePolarity,Negative*
%FSLAX46Y46*%
G04 Gerber Fmt 4.6, Leading zero omitted, Abs format (unit mm)*
G04 Created by KiCad (PCBNEW 8.0.6) date 2025-01-17 22:38:05*
%MOMM*%
%LPD*%
G01*
G04 APERTURE LIST*
G04 Aperture macros list*
%AMRoundRect*
0 Rectangle with rounded corners*
0 $1 Rounding radius*
0 $2 $3 $4 $5 $6 $7 $8 $9 X,Y pos of 4 corners*
0 Add a 4 corners polygon primitive as box body*
4,1,4,$2,$3,$4,$5,$6,$7,$8,$9,$2,$3,0*
0 Add four circle primitives for the rounded corners*
1,1,$1+$1,$2,$3*
1,1,$1+$1,$4,$5*
1,1,$1+$1,$6,$7*
1,1,$1+$1,$8,$9*
0 Add four rect primitives between the rounded corners*
20,1,$1+$1,$2,$3,$4,$5,0*
20,1,$1+$1,$4,$5,$6,$7,0*
20,1,$1+$1,$6,$7,$8,$9,0*
20,1,$1+$1,$8,$9,$2,$3,0*%
G04 Aperture macros list end*
%ADD10C,4.700000*%
%ADD11RoundRect,0.250000X0.475000X-0.337500X0.475000X0.337500X-0.475000X0.337500X-0.475000X-0.337500X0*%
%ADD12R,1.700000X1.700000*%
%ADD13C,1.700000*%
%ADD14C,3.500000*%
%ADD15C,4.419600*%
%ADD16RoundRect,0.250000X-0.475000X0.337500X-0.475000X-0.337500X0.475000X-0.337500X0.475000X0.337500X0*%
%ADD17R,1.800000X0.650000*%
%ADD18RoundRect,0.075000X-0.700000X-0.075000X0.700000X-0.075000X0.700000X0.075000X-0.700000X0.075000X0*%
%ADD19RoundRect,0.075000X-0.075000X-0.700000X0.075000X-0.700000X0.075000X0.700000X-0.075000X0.700000X0*%
%ADD20RoundRect,0.250000X0.337500X0.475000X-0.337500X0.475000X-0.337500X-0.475000X0.337500X-0.475000X0*%
%ADD21RoundRect,0.250000X-0.337500X-0.475000X0.337500X-0.475000X0.337500X0.475000X-0.337500X0.475000X0*%
%ADD22RoundRect,0.250000X-0.600000X-0.600000X0.600000X-0.600000X0.600000X0.600000X-0.600000X0.600000X0*%
%ADD23R,1.676400X1.676400*%
%ADD24C,1.524000*%
%ADD25R,1.524000X1.524000*%
%ADD26R,1.600000X1.600000*%
%ADD27O,1.600000X1.600000*%
%ADD28RoundRect,0.150000X-0.825000X-0.150000X0.825000X-0.150000X0.825000X0.150000X-0.825000X0.150000X0*%
%ADD29C,1.500000*%
%ADD30C,1.000000*%
%ADD31O,1.700000X1.700000*%
%ADD32C,1.600000*%
%ADD33RoundRect,0.249999X-0.450001X-1.425001X0.450001X-1.425001X0.450001X1.425001X-0.450001X1.425001X0*%
%ADD34R,1.750000X0.950000*%
%ADD35R,1.750000X3.200000*%
%ADD36C,1.625600*%
%ADD37C,5.181600*%
G04 APERTURE END LIST*
D10*
X88000000Y-58000000D03*
X172000000Y-58000000D03*
X88000000Y-142000000D03*
X172000000Y-142000000D03*
D11*
X160868000Y-70483700D03*
X160868000Y-68408700D03*
D12*
X164000000Y-87000000D03*
D13*
X164000000Y-89500000D03*
X166000000Y-89500000D03*
X166000000Y-87000000D03*
D14*
X168710000Y-82230000D03*
X168710000Y-94270000D03*
D15*
X172300000Y-70000000D03*
X169300000Y-65300000D03*
X166300000Y-70000000D03*
D11*
X145200000Y-144937500D03*
X145200000Y-142862500D03*
X126350000Y-81937500D03*
X126350000Y-79862500D03*
D16*
X129950000Y-139762500D03*
X129950000Y-141837500D03*
D11*
X122200000Y-80387500D03*
X122200000Y-78312500D03*
D17*
X125250000Y-74235000D03*
X122550000Y-72965000D03*
D18*
X124325000Y-86250000D03*
X124325000Y-86750000D03*
X124325000Y-87250000D03*
X124325000Y-87750000D03*
X124325000Y-88250000D03*
X124325000Y-88750000D03*
X124325000Y-89250000D03*
X124325000Y-89750000D03*
X124325000Y-90250000D03*
X124325000Y-90750000D03*
X124325000Y-91250000D03*
X124325000Y-91750000D03*
X124325000Y-92250000D03*
X124325000Y-92750000D03*
X124325000Y-93250000D03*
X124325000Y-93750000D03*
D19*
X126250000Y-95675000D03*
X126750000Y-95675000D03*
X127250000Y-95675000D03*
X127750000Y-95675000D03*
X128250000Y-95675000D03*
X128750000Y-95675000D03*
X129250000Y-95675000D03*
X129750000Y-95675000D03*
X130250000Y-95675000D03*
X130750000Y-95675000D03*
X131250000Y-95675000D03*
X131750000Y-95675000D03*
X132250000Y-95675000D03*
X132750000Y-95675000D03*
X133250000Y-95675000D03*
X133750000Y-95675000D03*
D18*
X135675000Y-93750000D03*
X135675000Y-93250000D03*
X135675000Y-92750000D03*
X135675000Y-92250000D03*
X135675000Y-91750000D03*
X135675000Y-91250000D03*
X135675000Y-90750000D03*
X135675000Y-90250000D03*
X135675000Y-89750000D03*
X135675000Y-89250000D03*
X135675000Y-88750000D03*
X135675000Y-88250000D03*
X135675000Y-87750000D03*
X135675000Y-87250000D03*
X135675000Y-86750000D03*
X135675000Y-86250000D03*
D19*
X133750000Y-84325000D03*
X133250000Y-84325000D03*
X132750000Y-84325000D03*
X132250000Y-84325000D03*
X131750000Y-84325000D03*
X131250000Y-84325000D03*
X130750000Y-84325000D03*
X130250000Y-84325000D03*
X129750000Y-84325000D03*
X129250000Y-84325000D03*
X128750000Y-84325000D03*
X128250000Y-84325000D03*
X127750000Y-84325000D03*
X127250000Y-84325000D03*
X126750000Y-84325000D03*
X126250000Y-84325000D03*
D16*
X121600000Y-89462500D03*
X121600000Y-91537500D03*
X111600000Y-93462500D03*
X111600000Y-95537500D03*
D11*
X121800000Y-85737500D03*
X121800000Y-83662500D03*
D20*
X118387500Y-81350000D03*
X116312500Y-81350000D03*
X146737500Y-106250000D03*
X144662500Y-106250000D03*
D21*
X146662500Y-121900000D03*
X148737500Y-121900000D03*
D20*
X158629500Y-101399400D03*
X156554500Y-101399400D03*
D11*
X150048000Y-106602500D03*
X150048000Y-104527500D03*
D22*
X84744600Y-70284400D03*
D13*
X87284600Y-70284400D03*
X84744600Y-72824400D03*
X87284600Y-72824400D03*
X84744600Y-75364400D03*
X87284600Y-75364400D03*
X84744600Y-77904400D03*
X87284600Y-77904400D03*
X84744600Y-80444400D03*
X87284600Y-80444400D03*
X84744600Y-82984400D03*
X87284600Y-82984400D03*
X84744600Y-85524400D03*
X87284600Y-85524400D03*
X84744600Y-88064400D03*
X87284600Y-88064400D03*
X84744600Y-90604400D03*
X87284600Y-90604400D03*
X84744600Y-93144400D03*
X87284600Y-93144400D03*
D23*
X116000000Y-107000000D03*
D24*
X116000000Y-109540000D03*
X116000000Y-112080000D03*
X116000000Y-114620000D03*
X116000000Y-117160000D03*
X116000000Y-119700000D03*
X116000000Y-122240000D03*
X116000000Y-124780000D03*
X138860000Y-124780000D03*
X138860000Y-122240000D03*
X138860000Y-119700000D03*
X138860000Y-117160000D03*
X138860000Y-114620000D03*
X138860000Y-112080000D03*
X138860000Y-109540000D03*
D25*
X138860000Y-107000000D03*
D23*
X86000000Y-107000000D03*
D24*
X86000000Y-109540000D03*
X86000000Y-112080000D03*
X86000000Y-114620000D03*
X86000000Y-117160000D03*
X86000000Y-119700000D03*
X86000000Y-122240000D03*
X86000000Y-124780000D03*
X108860000Y-124780000D03*
X108860000Y-122240000D03*
X108860000Y-119700000D03*
X108860000Y-117160000D03*
X108860000Y-114620000D03*
X108860000Y-112080000D03*
X108860000Y-109540000D03*
D25*
X108860000Y-107000000D03*
D26*
X133970000Y-137315000D03*
D27*
X133970000Y-139855000D03*
X133970000Y-142395000D03*
X133970000Y-144935000D03*
X141590000Y-144935000D03*
X141590000Y-142395000D03*
X141590000Y-139855000D03*
X141590000Y-137315000D03*
D28*
X153542000Y-103710800D03*
X153542000Y-104980800D03*
X153542000Y-106250800D03*
X153542000Y-107520800D03*
X153542000Y-108790800D03*
X153542000Y-110060800D03*
X153542000Y-111330800D03*
X153542000Y-112600800D03*
X158492000Y-112600800D03*
X158492000Y-111330800D03*
X158492000Y-110060800D03*
X158492000Y-108790800D03*
X158492000Y-107520800D03*
X158492000Y-106250800D03*
X158492000Y-104980800D03*
X158492000Y-103710800D03*
D29*
X111650000Y-89350000D03*
X116530000Y-89350000D03*
D30*
X119364800Y-83771800D03*
X119364800Y-85471800D03*
D29*
X146800000Y-116730000D03*
X146800000Y-111850000D03*
D12*
X164000000Y-106000000D03*
D13*
X164000000Y-108500000D03*
X166000000Y-108500000D03*
X166000000Y-106000000D03*
D14*
X168710000Y-101230000D03*
X168710000Y-113270000D03*
D12*
X115425000Y-75500000D03*
D31*
X112885000Y-75500000D03*
D26*
X155850000Y-59850000D03*
D32*
X155850000Y-57350000D03*
D11*
X149750000Y-61437500D03*
X149750000Y-59362500D03*
D33*
X111950000Y-66000000D03*
X118050000Y-66000000D03*
D12*
X126000000Y-66000000D03*
D31*
X128540000Y-66000000D03*
D12*
X155000000Y-75000000D03*
D31*
X155000000Y-77540000D03*
X155000000Y-80080000D03*
X155000000Y-82620000D03*
X155000000Y-85160000D03*
X155000000Y-87700000D03*
X155000000Y-90240000D03*
X155000000Y-92780000D03*
D34*
X157500000Y-70250000D03*
X157500000Y-67950000D03*
X157500000Y-65650000D03*
D35*
X151200000Y-67950000D03*
D36*
X114513600Y-60570000D03*
X117256800Y-60570000D03*
X120000000Y-60570000D03*
X122743200Y-60570000D03*
X125486400Y-60570000D03*
X115885200Y-58030000D03*
X118628400Y-58030000D03*
X121371600Y-58030000D03*
X124114800Y-58030000D03*
D37*
X107477800Y-59300000D03*
X132522200Y-59300000D03*
D12*
X148000000Y-75000000D03*
D31*
X148000000Y-77540000D03*
X148000000Y-80080000D03*
X148000000Y-82620000D03*
X148000000Y-85160000D03*
X148000000Y-87700000D03*
X148000000Y-90240000D03*
X148000000Y-92780000D03*
X148000000Y-95320000D03*
D12*
X97150000Y-55850000D03*
D31*
X97150000Y-58390000D03*
D26*
X163167600Y-59800000D03*
D32*
X165667600Y-59800000D03*
M02*
