G04 #@! TF.GenerationSoftware,KiCad,Pcbnew,8.0.6*
G04 #@! TF.CreationDate,2025-01-17T22:38:05-05:00*
G04 #@! TF.ProjectId,board_stm32_rev2,626f6172-645f-4737-946d-33325f726576,rev?*
G04 #@! TF.SameCoordinates,Original*
G04 #@! TF.FileFunction,Legend,Top*
G04 #@! TF.FilePolarity,Positive*
%FSLAX46Y46*%
G04 Gerber Fmt 4.6, Leading zero omitted, Abs format (unit mm)*
G04 Created by KiCad (PCBNEW 8.0.6) date 2025-01-17 22:38:05*
%MOMM*%
%LPD*%
G01*
G04 APERTURE LIST*
G04 Aperture macros list*
%AMRoundRect*
0 Rectangle with rounded corners*
0 $1 Rounding radius*
0 $2 $3 $4 $5 $6 $7 $8 $9 X,Y pos of 4 corners*
0 Add a 4 corners polygon primitive as box body*
4,1,4,$2,$3,$4,$5,$6,$7,$8,$9,$2,$3,0*
0 Add four circle primitives for the rounded corners*
1,1,$1+$1,$2,$3*
1,1,$1+$1,$4,$5*
1,1,$1+$1,$6,$7*
1,1,$1+$1,$8,$9*
0 Add four rect primitives between the rounded corners*
20,1,$1+$1,$2,$3,$4,$5,0*
20,1,$1+$1,$4,$5,$6,$7,0*
20,1,$1+$1,$6,$7,$8,$9,0*
20,1,$1+$1,$8,$9,$2,$3,0*%
G04 Aperture macros list end*
%ADD10C,0.150000*%
%ADD11C,0.100000*%
%ADD12C,0.254000*%
%ADD13C,0.127000*%
%ADD14C,0.120000*%
%ADD15C,0.203200*%
%ADD16C,0.304800*%
%ADD17C,0.508000*%
%ADD18C,0.200000*%
%ADD19C,0.152400*%
%ADD20C,0.000000*%
%ADD21C,4.700000*%
%ADD22RoundRect,0.250000X0.475000X-0.337500X0.475000X0.337500X-0.475000X0.337500X-0.475000X-0.337500X0*%
%ADD23R,1.700000X1.700000*%
%ADD24C,1.700000*%
%ADD25C,3.500000*%
%ADD26C,4.419600*%
%ADD27RoundRect,0.250000X-0.475000X0.337500X-0.475000X-0.337500X0.475000X-0.337500X0.475000X0.337500X0*%
%ADD28R,1.800000X0.650000*%
%ADD29RoundRect,0.075000X-0.700000X-0.075000X0.700000X-0.075000X0.700000X0.075000X-0.700000X0.075000X0*%
%ADD30RoundRect,0.075000X-0.075000X-0.700000X0.075000X-0.700000X0.075000X0.700000X-0.075000X0.700000X0*%
%ADD31RoundRect,0.250000X0.337500X0.475000X-0.337500X0.475000X-0.337500X-0.475000X0.337500X-0.475000X0*%
%ADD32RoundRect,0.250000X-0.337500X-0.475000X0.337500X-0.475000X0.337500X0.475000X-0.337500X0.475000X0*%
%ADD33RoundRect,0.250000X-0.600000X-0.600000X0.600000X-0.600000X0.600000X0.600000X-0.600000X0.600000X0*%
%ADD34R,1.676400X1.676400*%
%ADD35C,1.524000*%
%ADD36R,1.524000X1.524000*%
%ADD37R,1.600000X1.600000*%
%ADD38O,1.600000X1.600000*%
%ADD39RoundRect,0.150000X-0.825000X-0.150000X0.825000X-0.150000X0.825000X0.150000X-0.825000X0.150000X0*%
%ADD40C,1.500000*%
%ADD41C,1.000000*%
%ADD42O,1.700000X1.700000*%
%ADD43C,1.600000*%
%ADD44RoundRect,0.249999X-0.450001X-1.425001X0.450001X-1.425001X0.450001X1.425001X-0.450001X1.425001X0*%
%ADD45R,1.750000X0.950000*%
%ADD46R,1.750000X3.200000*%
%ADD47C,1.625600*%
%ADD48C,5.181600*%
G04 APERTURE END LIST*
D10*
X160633333Y-67209580D02*
X160585714Y-67257200D01*
X160585714Y-67257200D02*
X160442857Y-67304819D01*
X160442857Y-67304819D02*
X160347619Y-67304819D01*
X160347619Y-67304819D02*
X160204762Y-67257200D01*
X160204762Y-67257200D02*
X160109524Y-67161961D01*
X160109524Y-67161961D02*
X160061905Y-67066723D01*
X160061905Y-67066723D02*
X160014286Y-66876247D01*
X160014286Y-66876247D02*
X160014286Y-66733390D01*
X160014286Y-66733390D02*
X160061905Y-66542914D01*
X160061905Y-66542914D02*
X160109524Y-66447676D01*
X160109524Y-66447676D02*
X160204762Y-66352438D01*
X160204762Y-66352438D02*
X160347619Y-66304819D01*
X160347619Y-66304819D02*
X160442857Y-66304819D01*
X160442857Y-66304819D02*
X160585714Y-66352438D01*
X160585714Y-66352438D02*
X160633333Y-66400057D01*
X161585714Y-67304819D02*
X161014286Y-67304819D01*
X161300000Y-67304819D02*
X161300000Y-66304819D01*
X161300000Y-66304819D02*
X161204762Y-66447676D01*
X161204762Y-66447676D02*
X161109524Y-66542914D01*
X161109524Y-66542914D02*
X161014286Y-66590533D01*
X170021905Y-79684819D02*
X170021905Y-78684819D01*
X170021905Y-78684819D02*
X170402857Y-78684819D01*
X170402857Y-78684819D02*
X170498095Y-78732438D01*
X170498095Y-78732438D02*
X170545714Y-78780057D01*
X170545714Y-78780057D02*
X170593333Y-78875295D01*
X170593333Y-78875295D02*
X170593333Y-79018152D01*
X170593333Y-79018152D02*
X170545714Y-79113390D01*
X170545714Y-79113390D02*
X170498095Y-79161009D01*
X170498095Y-79161009D02*
X170402857Y-79208628D01*
X170402857Y-79208628D02*
X170021905Y-79208628D01*
X171164762Y-79113390D02*
X171069524Y-79065771D01*
X171069524Y-79065771D02*
X171021905Y-79018152D01*
X171021905Y-79018152D02*
X170974286Y-78922914D01*
X170974286Y-78922914D02*
X170974286Y-78875295D01*
X170974286Y-78875295D02*
X171021905Y-78780057D01*
X171021905Y-78780057D02*
X171069524Y-78732438D01*
X171069524Y-78732438D02*
X171164762Y-78684819D01*
X171164762Y-78684819D02*
X171355238Y-78684819D01*
X171355238Y-78684819D02*
X171450476Y-78732438D01*
X171450476Y-78732438D02*
X171498095Y-78780057D01*
X171498095Y-78780057D02*
X171545714Y-78875295D01*
X171545714Y-78875295D02*
X171545714Y-78922914D01*
X171545714Y-78922914D02*
X171498095Y-79018152D01*
X171498095Y-79018152D02*
X171450476Y-79065771D01*
X171450476Y-79065771D02*
X171355238Y-79113390D01*
X171355238Y-79113390D02*
X171164762Y-79113390D01*
X171164762Y-79113390D02*
X171069524Y-79161009D01*
X171069524Y-79161009D02*
X171021905Y-79208628D01*
X171021905Y-79208628D02*
X170974286Y-79303866D01*
X170974286Y-79303866D02*
X170974286Y-79494342D01*
X170974286Y-79494342D02*
X171021905Y-79589580D01*
X171021905Y-79589580D02*
X171069524Y-79637200D01*
X171069524Y-79637200D02*
X171164762Y-79684819D01*
X171164762Y-79684819D02*
X171355238Y-79684819D01*
X171355238Y-79684819D02*
X171450476Y-79637200D01*
X171450476Y-79637200D02*
X171498095Y-79589580D01*
X171498095Y-79589580D02*
X171545714Y-79494342D01*
X171545714Y-79494342D02*
X171545714Y-79303866D01*
X171545714Y-79303866D02*
X171498095Y-79208628D01*
X171498095Y-79208628D02*
X171450476Y-79161009D01*
X171450476Y-79161009D02*
X171355238Y-79113390D01*
X144557142Y-141659580D02*
X144509523Y-141707200D01*
X144509523Y-141707200D02*
X144366666Y-141754819D01*
X144366666Y-141754819D02*
X144271428Y-141754819D01*
X144271428Y-141754819D02*
X144128571Y-141707200D01*
X144128571Y-141707200D02*
X144033333Y-141611961D01*
X144033333Y-141611961D02*
X143985714Y-141516723D01*
X143985714Y-141516723D02*
X143938095Y-141326247D01*
X143938095Y-141326247D02*
X143938095Y-141183390D01*
X143938095Y-141183390D02*
X143985714Y-140992914D01*
X143985714Y-140992914D02*
X144033333Y-140897676D01*
X144033333Y-140897676D02*
X144128571Y-140802438D01*
X144128571Y-140802438D02*
X144271428Y-140754819D01*
X144271428Y-140754819D02*
X144366666Y-140754819D01*
X144366666Y-140754819D02*
X144509523Y-140802438D01*
X144509523Y-140802438D02*
X144557142Y-140850057D01*
X145509523Y-141754819D02*
X144938095Y-141754819D01*
X145223809Y-141754819D02*
X145223809Y-140754819D01*
X145223809Y-140754819D02*
X145128571Y-140897676D01*
X145128571Y-140897676D02*
X145033333Y-140992914D01*
X145033333Y-140992914D02*
X144938095Y-141040533D01*
X145842857Y-140754819D02*
X146461904Y-140754819D01*
X146461904Y-140754819D02*
X146128571Y-141135771D01*
X146128571Y-141135771D02*
X146271428Y-141135771D01*
X146271428Y-141135771D02*
X146366666Y-141183390D01*
X146366666Y-141183390D02*
X146414285Y-141231009D01*
X146414285Y-141231009D02*
X146461904Y-141326247D01*
X146461904Y-141326247D02*
X146461904Y-141564342D01*
X146461904Y-141564342D02*
X146414285Y-141659580D01*
X146414285Y-141659580D02*
X146366666Y-141707200D01*
X146366666Y-141707200D02*
X146271428Y-141754819D01*
X146271428Y-141754819D02*
X145985714Y-141754819D01*
X145985714Y-141754819D02*
X145890476Y-141707200D01*
X145890476Y-141707200D02*
X145842857Y-141659580D01*
X126433333Y-78709580D02*
X126385714Y-78757200D01*
X126385714Y-78757200D02*
X126242857Y-78804819D01*
X126242857Y-78804819D02*
X126147619Y-78804819D01*
X126147619Y-78804819D02*
X126004762Y-78757200D01*
X126004762Y-78757200D02*
X125909524Y-78661961D01*
X125909524Y-78661961D02*
X125861905Y-78566723D01*
X125861905Y-78566723D02*
X125814286Y-78376247D01*
X125814286Y-78376247D02*
X125814286Y-78233390D01*
X125814286Y-78233390D02*
X125861905Y-78042914D01*
X125861905Y-78042914D02*
X125909524Y-77947676D01*
X125909524Y-77947676D02*
X126004762Y-77852438D01*
X126004762Y-77852438D02*
X126147619Y-77804819D01*
X126147619Y-77804819D02*
X126242857Y-77804819D01*
X126242857Y-77804819D02*
X126385714Y-77852438D01*
X126385714Y-77852438D02*
X126433333Y-77900057D01*
X126814286Y-77900057D02*
X126861905Y-77852438D01*
X126861905Y-77852438D02*
X126957143Y-77804819D01*
X126957143Y-77804819D02*
X127195238Y-77804819D01*
X127195238Y-77804819D02*
X127290476Y-77852438D01*
X127290476Y-77852438D02*
X127338095Y-77900057D01*
X127338095Y-77900057D02*
X127385714Y-77995295D01*
X127385714Y-77995295D02*
X127385714Y-78090533D01*
X127385714Y-78090533D02*
X127338095Y-78233390D01*
X127338095Y-78233390D02*
X126766667Y-78804819D01*
X126766667Y-78804819D02*
X127385714Y-78804819D01*
X129407142Y-143859580D02*
X129359523Y-143907200D01*
X129359523Y-143907200D02*
X129216666Y-143954819D01*
X129216666Y-143954819D02*
X129121428Y-143954819D01*
X129121428Y-143954819D02*
X128978571Y-143907200D01*
X128978571Y-143907200D02*
X128883333Y-143811961D01*
X128883333Y-143811961D02*
X128835714Y-143716723D01*
X128835714Y-143716723D02*
X128788095Y-143526247D01*
X128788095Y-143526247D02*
X128788095Y-143383390D01*
X128788095Y-143383390D02*
X128835714Y-143192914D01*
X128835714Y-143192914D02*
X128883333Y-143097676D01*
X128883333Y-143097676D02*
X128978571Y-143002438D01*
X128978571Y-143002438D02*
X129121428Y-142954819D01*
X129121428Y-142954819D02*
X129216666Y-142954819D01*
X129216666Y-142954819D02*
X129359523Y-143002438D01*
X129359523Y-143002438D02*
X129407142Y-143050057D01*
X130359523Y-143954819D02*
X129788095Y-143954819D01*
X130073809Y-143954819D02*
X130073809Y-142954819D01*
X130073809Y-142954819D02*
X129978571Y-143097676D01*
X129978571Y-143097676D02*
X129883333Y-143192914D01*
X129883333Y-143192914D02*
X129788095Y-143240533D01*
X131311904Y-143954819D02*
X130740476Y-143954819D01*
X131026190Y-143954819D02*
X131026190Y-142954819D01*
X131026190Y-142954819D02*
X130930952Y-143097676D01*
X130930952Y-143097676D02*
X130835714Y-143192914D01*
X130835714Y-143192914D02*
X130740476Y-143240533D01*
X119983333Y-78609580D02*
X119935714Y-78657200D01*
X119935714Y-78657200D02*
X119792857Y-78704819D01*
X119792857Y-78704819D02*
X119697619Y-78704819D01*
X119697619Y-78704819D02*
X119554762Y-78657200D01*
X119554762Y-78657200D02*
X119459524Y-78561961D01*
X119459524Y-78561961D02*
X119411905Y-78466723D01*
X119411905Y-78466723D02*
X119364286Y-78276247D01*
X119364286Y-78276247D02*
X119364286Y-78133390D01*
X119364286Y-78133390D02*
X119411905Y-77942914D01*
X119411905Y-77942914D02*
X119459524Y-77847676D01*
X119459524Y-77847676D02*
X119554762Y-77752438D01*
X119554762Y-77752438D02*
X119697619Y-77704819D01*
X119697619Y-77704819D02*
X119792857Y-77704819D01*
X119792857Y-77704819D02*
X119935714Y-77752438D01*
X119935714Y-77752438D02*
X119983333Y-77800057D01*
X120316667Y-77704819D02*
X120935714Y-77704819D01*
X120935714Y-77704819D02*
X120602381Y-78085771D01*
X120602381Y-78085771D02*
X120745238Y-78085771D01*
X120745238Y-78085771D02*
X120840476Y-78133390D01*
X120840476Y-78133390D02*
X120888095Y-78181009D01*
X120888095Y-78181009D02*
X120935714Y-78276247D01*
X120935714Y-78276247D02*
X120935714Y-78514342D01*
X120935714Y-78514342D02*
X120888095Y-78609580D01*
X120888095Y-78609580D02*
X120840476Y-78657200D01*
X120840476Y-78657200D02*
X120745238Y-78704819D01*
X120745238Y-78704819D02*
X120459524Y-78704819D01*
X120459524Y-78704819D02*
X120364286Y-78657200D01*
X120364286Y-78657200D02*
X120316667Y-78609580D01*
X123161905Y-76999819D02*
X123161905Y-75999819D01*
X123161905Y-75999819D02*
X123542857Y-75999819D01*
X123542857Y-75999819D02*
X123638095Y-76047438D01*
X123638095Y-76047438D02*
X123685714Y-76095057D01*
X123685714Y-76095057D02*
X123733333Y-76190295D01*
X123733333Y-76190295D02*
X123733333Y-76333152D01*
X123733333Y-76333152D02*
X123685714Y-76428390D01*
X123685714Y-76428390D02*
X123638095Y-76476009D01*
X123638095Y-76476009D02*
X123542857Y-76523628D01*
X123542857Y-76523628D02*
X123161905Y-76523628D01*
X124590476Y-75999819D02*
X124400000Y-75999819D01*
X124400000Y-75999819D02*
X124304762Y-76047438D01*
X124304762Y-76047438D02*
X124257143Y-76095057D01*
X124257143Y-76095057D02*
X124161905Y-76237914D01*
X124161905Y-76237914D02*
X124114286Y-76428390D01*
X124114286Y-76428390D02*
X124114286Y-76809342D01*
X124114286Y-76809342D02*
X124161905Y-76904580D01*
X124161905Y-76904580D02*
X124209524Y-76952200D01*
X124209524Y-76952200D02*
X124304762Y-76999819D01*
X124304762Y-76999819D02*
X124495238Y-76999819D01*
X124495238Y-76999819D02*
X124590476Y-76952200D01*
X124590476Y-76952200D02*
X124638095Y-76904580D01*
X124638095Y-76904580D02*
X124685714Y-76809342D01*
X124685714Y-76809342D02*
X124685714Y-76571247D01*
X124685714Y-76571247D02*
X124638095Y-76476009D01*
X124638095Y-76476009D02*
X124590476Y-76428390D01*
X124590476Y-76428390D02*
X124495238Y-76380771D01*
X124495238Y-76380771D02*
X124304762Y-76380771D01*
X124304762Y-76380771D02*
X124209524Y-76428390D01*
X124209524Y-76428390D02*
X124161905Y-76476009D01*
X124161905Y-76476009D02*
X124114286Y-76571247D01*
X129238095Y-82054819D02*
X129238095Y-82864342D01*
X129238095Y-82864342D02*
X129285714Y-82959580D01*
X129285714Y-82959580D02*
X129333333Y-83007200D01*
X129333333Y-83007200D02*
X129428571Y-83054819D01*
X129428571Y-83054819D02*
X129619047Y-83054819D01*
X129619047Y-83054819D02*
X129714285Y-83007200D01*
X129714285Y-83007200D02*
X129761904Y-82959580D01*
X129761904Y-82959580D02*
X129809523Y-82864342D01*
X129809523Y-82864342D02*
X129809523Y-82054819D01*
X130238095Y-82150057D02*
X130285714Y-82102438D01*
X130285714Y-82102438D02*
X130380952Y-82054819D01*
X130380952Y-82054819D02*
X130619047Y-82054819D01*
X130619047Y-82054819D02*
X130714285Y-82102438D01*
X130714285Y-82102438D02*
X130761904Y-82150057D01*
X130761904Y-82150057D02*
X130809523Y-82245295D01*
X130809523Y-82245295D02*
X130809523Y-82340533D01*
X130809523Y-82340533D02*
X130761904Y-82483390D01*
X130761904Y-82483390D02*
X130190476Y-83054819D01*
X130190476Y-83054819D02*
X130809523Y-83054819D01*
X121133333Y-93509580D02*
X121085714Y-93557200D01*
X121085714Y-93557200D02*
X120942857Y-93604819D01*
X120942857Y-93604819D02*
X120847619Y-93604819D01*
X120847619Y-93604819D02*
X120704762Y-93557200D01*
X120704762Y-93557200D02*
X120609524Y-93461961D01*
X120609524Y-93461961D02*
X120561905Y-93366723D01*
X120561905Y-93366723D02*
X120514286Y-93176247D01*
X120514286Y-93176247D02*
X120514286Y-93033390D01*
X120514286Y-93033390D02*
X120561905Y-92842914D01*
X120561905Y-92842914D02*
X120609524Y-92747676D01*
X120609524Y-92747676D02*
X120704762Y-92652438D01*
X120704762Y-92652438D02*
X120847619Y-92604819D01*
X120847619Y-92604819D02*
X120942857Y-92604819D01*
X120942857Y-92604819D02*
X121085714Y-92652438D01*
X121085714Y-92652438D02*
X121133333Y-92700057D01*
X122038095Y-92604819D02*
X121561905Y-92604819D01*
X121561905Y-92604819D02*
X121514286Y-93081009D01*
X121514286Y-93081009D02*
X121561905Y-93033390D01*
X121561905Y-93033390D02*
X121657143Y-92985771D01*
X121657143Y-92985771D02*
X121895238Y-92985771D01*
X121895238Y-92985771D02*
X121990476Y-93033390D01*
X121990476Y-93033390D02*
X122038095Y-93081009D01*
X122038095Y-93081009D02*
X122085714Y-93176247D01*
X122085714Y-93176247D02*
X122085714Y-93414342D01*
X122085714Y-93414342D02*
X122038095Y-93509580D01*
X122038095Y-93509580D02*
X121990476Y-93557200D01*
X121990476Y-93557200D02*
X121895238Y-93604819D01*
X121895238Y-93604819D02*
X121657143Y-93604819D01*
X121657143Y-93604819D02*
X121561905Y-93557200D01*
X121561905Y-93557200D02*
X121514286Y-93509580D01*
X108933333Y-93859580D02*
X108885714Y-93907200D01*
X108885714Y-93907200D02*
X108742857Y-93954819D01*
X108742857Y-93954819D02*
X108647619Y-93954819D01*
X108647619Y-93954819D02*
X108504762Y-93907200D01*
X108504762Y-93907200D02*
X108409524Y-93811961D01*
X108409524Y-93811961D02*
X108361905Y-93716723D01*
X108361905Y-93716723D02*
X108314286Y-93526247D01*
X108314286Y-93526247D02*
X108314286Y-93383390D01*
X108314286Y-93383390D02*
X108361905Y-93192914D01*
X108361905Y-93192914D02*
X108409524Y-93097676D01*
X108409524Y-93097676D02*
X108504762Y-93002438D01*
X108504762Y-93002438D02*
X108647619Y-92954819D01*
X108647619Y-92954819D02*
X108742857Y-92954819D01*
X108742857Y-92954819D02*
X108885714Y-93002438D01*
X108885714Y-93002438D02*
X108933333Y-93050057D01*
X109790476Y-92954819D02*
X109600000Y-92954819D01*
X109600000Y-92954819D02*
X109504762Y-93002438D01*
X109504762Y-93002438D02*
X109457143Y-93050057D01*
X109457143Y-93050057D02*
X109361905Y-93192914D01*
X109361905Y-93192914D02*
X109314286Y-93383390D01*
X109314286Y-93383390D02*
X109314286Y-93764342D01*
X109314286Y-93764342D02*
X109361905Y-93859580D01*
X109361905Y-93859580D02*
X109409524Y-93907200D01*
X109409524Y-93907200D02*
X109504762Y-93954819D01*
X109504762Y-93954819D02*
X109695238Y-93954819D01*
X109695238Y-93954819D02*
X109790476Y-93907200D01*
X109790476Y-93907200D02*
X109838095Y-93859580D01*
X109838095Y-93859580D02*
X109885714Y-93764342D01*
X109885714Y-93764342D02*
X109885714Y-93526247D01*
X109885714Y-93526247D02*
X109838095Y-93431009D01*
X109838095Y-93431009D02*
X109790476Y-93383390D01*
X109790476Y-93383390D02*
X109695238Y-93335771D01*
X109695238Y-93335771D02*
X109504762Y-93335771D01*
X109504762Y-93335771D02*
X109409524Y-93383390D01*
X109409524Y-93383390D02*
X109361905Y-93431009D01*
X109361905Y-93431009D02*
X109314286Y-93526247D01*
X121083333Y-82259580D02*
X121035714Y-82307200D01*
X121035714Y-82307200D02*
X120892857Y-82354819D01*
X120892857Y-82354819D02*
X120797619Y-82354819D01*
X120797619Y-82354819D02*
X120654762Y-82307200D01*
X120654762Y-82307200D02*
X120559524Y-82211961D01*
X120559524Y-82211961D02*
X120511905Y-82116723D01*
X120511905Y-82116723D02*
X120464286Y-81926247D01*
X120464286Y-81926247D02*
X120464286Y-81783390D01*
X120464286Y-81783390D02*
X120511905Y-81592914D01*
X120511905Y-81592914D02*
X120559524Y-81497676D01*
X120559524Y-81497676D02*
X120654762Y-81402438D01*
X120654762Y-81402438D02*
X120797619Y-81354819D01*
X120797619Y-81354819D02*
X120892857Y-81354819D01*
X120892857Y-81354819D02*
X121035714Y-81402438D01*
X121035714Y-81402438D02*
X121083333Y-81450057D01*
X121416667Y-81354819D02*
X122083333Y-81354819D01*
X122083333Y-81354819D02*
X121654762Y-82354819D01*
X113883333Y-81359580D02*
X113835714Y-81407200D01*
X113835714Y-81407200D02*
X113692857Y-81454819D01*
X113692857Y-81454819D02*
X113597619Y-81454819D01*
X113597619Y-81454819D02*
X113454762Y-81407200D01*
X113454762Y-81407200D02*
X113359524Y-81311961D01*
X113359524Y-81311961D02*
X113311905Y-81216723D01*
X113311905Y-81216723D02*
X113264286Y-81026247D01*
X113264286Y-81026247D02*
X113264286Y-80883390D01*
X113264286Y-80883390D02*
X113311905Y-80692914D01*
X113311905Y-80692914D02*
X113359524Y-80597676D01*
X113359524Y-80597676D02*
X113454762Y-80502438D01*
X113454762Y-80502438D02*
X113597619Y-80454819D01*
X113597619Y-80454819D02*
X113692857Y-80454819D01*
X113692857Y-80454819D02*
X113835714Y-80502438D01*
X113835714Y-80502438D02*
X113883333Y-80550057D01*
X114359524Y-81454819D02*
X114550000Y-81454819D01*
X114550000Y-81454819D02*
X114645238Y-81407200D01*
X114645238Y-81407200D02*
X114692857Y-81359580D01*
X114692857Y-81359580D02*
X114788095Y-81216723D01*
X114788095Y-81216723D02*
X114835714Y-81026247D01*
X114835714Y-81026247D02*
X114835714Y-80645295D01*
X114835714Y-80645295D02*
X114788095Y-80550057D01*
X114788095Y-80550057D02*
X114740476Y-80502438D01*
X114740476Y-80502438D02*
X114645238Y-80454819D01*
X114645238Y-80454819D02*
X114454762Y-80454819D01*
X114454762Y-80454819D02*
X114359524Y-80502438D01*
X114359524Y-80502438D02*
X114311905Y-80550057D01*
X114311905Y-80550057D02*
X114264286Y-80645295D01*
X114264286Y-80645295D02*
X114264286Y-80883390D01*
X114264286Y-80883390D02*
X114311905Y-80978628D01*
X114311905Y-80978628D02*
X114359524Y-81026247D01*
X114359524Y-81026247D02*
X114454762Y-81073866D01*
X114454762Y-81073866D02*
X114645238Y-81073866D01*
X114645238Y-81073866D02*
X114740476Y-81026247D01*
X114740476Y-81026247D02*
X114788095Y-80978628D01*
X114788095Y-80978628D02*
X114835714Y-80883390D01*
X144257142Y-108259580D02*
X144209523Y-108307200D01*
X144209523Y-108307200D02*
X144066666Y-108354819D01*
X144066666Y-108354819D02*
X143971428Y-108354819D01*
X143971428Y-108354819D02*
X143828571Y-108307200D01*
X143828571Y-108307200D02*
X143733333Y-108211961D01*
X143733333Y-108211961D02*
X143685714Y-108116723D01*
X143685714Y-108116723D02*
X143638095Y-107926247D01*
X143638095Y-107926247D02*
X143638095Y-107783390D01*
X143638095Y-107783390D02*
X143685714Y-107592914D01*
X143685714Y-107592914D02*
X143733333Y-107497676D01*
X143733333Y-107497676D02*
X143828571Y-107402438D01*
X143828571Y-107402438D02*
X143971428Y-107354819D01*
X143971428Y-107354819D02*
X144066666Y-107354819D01*
X144066666Y-107354819D02*
X144209523Y-107402438D01*
X144209523Y-107402438D02*
X144257142Y-107450057D01*
X145209523Y-108354819D02*
X144638095Y-108354819D01*
X144923809Y-108354819D02*
X144923809Y-107354819D01*
X144923809Y-107354819D02*
X144828571Y-107497676D01*
X144828571Y-107497676D02*
X144733333Y-107592914D01*
X144733333Y-107592914D02*
X144638095Y-107640533D01*
X145590476Y-107450057D02*
X145638095Y-107402438D01*
X145638095Y-107402438D02*
X145733333Y-107354819D01*
X145733333Y-107354819D02*
X145971428Y-107354819D01*
X145971428Y-107354819D02*
X146066666Y-107402438D01*
X146066666Y-107402438D02*
X146114285Y-107450057D01*
X146114285Y-107450057D02*
X146161904Y-107545295D01*
X146161904Y-107545295D02*
X146161904Y-107640533D01*
X146161904Y-107640533D02*
X146114285Y-107783390D01*
X146114285Y-107783390D02*
X145542857Y-108354819D01*
X145542857Y-108354819D02*
X146161904Y-108354819D01*
X150457142Y-122409580D02*
X150409523Y-122457200D01*
X150409523Y-122457200D02*
X150266666Y-122504819D01*
X150266666Y-122504819D02*
X150171428Y-122504819D01*
X150171428Y-122504819D02*
X150028571Y-122457200D01*
X150028571Y-122457200D02*
X149933333Y-122361961D01*
X149933333Y-122361961D02*
X149885714Y-122266723D01*
X149885714Y-122266723D02*
X149838095Y-122076247D01*
X149838095Y-122076247D02*
X149838095Y-121933390D01*
X149838095Y-121933390D02*
X149885714Y-121742914D01*
X149885714Y-121742914D02*
X149933333Y-121647676D01*
X149933333Y-121647676D02*
X150028571Y-121552438D01*
X150028571Y-121552438D02*
X150171428Y-121504819D01*
X150171428Y-121504819D02*
X150266666Y-121504819D01*
X150266666Y-121504819D02*
X150409523Y-121552438D01*
X150409523Y-121552438D02*
X150457142Y-121600057D01*
X151409523Y-122504819D02*
X150838095Y-122504819D01*
X151123809Y-122504819D02*
X151123809Y-121504819D01*
X151123809Y-121504819D02*
X151028571Y-121647676D01*
X151028571Y-121647676D02*
X150933333Y-121742914D01*
X150933333Y-121742914D02*
X150838095Y-121790533D01*
X152266666Y-121838152D02*
X152266666Y-122504819D01*
X152028571Y-121457200D02*
X151790476Y-122171485D01*
X151790476Y-122171485D02*
X152409523Y-122171485D01*
X156707142Y-98409580D02*
X156659523Y-98457200D01*
X156659523Y-98457200D02*
X156516666Y-98504819D01*
X156516666Y-98504819D02*
X156421428Y-98504819D01*
X156421428Y-98504819D02*
X156278571Y-98457200D01*
X156278571Y-98457200D02*
X156183333Y-98361961D01*
X156183333Y-98361961D02*
X156135714Y-98266723D01*
X156135714Y-98266723D02*
X156088095Y-98076247D01*
X156088095Y-98076247D02*
X156088095Y-97933390D01*
X156088095Y-97933390D02*
X156135714Y-97742914D01*
X156135714Y-97742914D02*
X156183333Y-97647676D01*
X156183333Y-97647676D02*
X156278571Y-97552438D01*
X156278571Y-97552438D02*
X156421428Y-97504819D01*
X156421428Y-97504819D02*
X156516666Y-97504819D01*
X156516666Y-97504819D02*
X156659523Y-97552438D01*
X156659523Y-97552438D02*
X156707142Y-97600057D01*
X157659523Y-98504819D02*
X157088095Y-98504819D01*
X157373809Y-98504819D02*
X157373809Y-97504819D01*
X157373809Y-97504819D02*
X157278571Y-97647676D01*
X157278571Y-97647676D02*
X157183333Y-97742914D01*
X157183333Y-97742914D02*
X157088095Y-97790533D01*
X158516666Y-97504819D02*
X158326190Y-97504819D01*
X158326190Y-97504819D02*
X158230952Y-97552438D01*
X158230952Y-97552438D02*
X158183333Y-97600057D01*
X158183333Y-97600057D02*
X158088095Y-97742914D01*
X158088095Y-97742914D02*
X158040476Y-97933390D01*
X158040476Y-97933390D02*
X158040476Y-98314342D01*
X158040476Y-98314342D02*
X158088095Y-98409580D01*
X158088095Y-98409580D02*
X158135714Y-98457200D01*
X158135714Y-98457200D02*
X158230952Y-98504819D01*
X158230952Y-98504819D02*
X158421428Y-98504819D01*
X158421428Y-98504819D02*
X158516666Y-98457200D01*
X158516666Y-98457200D02*
X158564285Y-98409580D01*
X158564285Y-98409580D02*
X158611904Y-98314342D01*
X158611904Y-98314342D02*
X158611904Y-98076247D01*
X158611904Y-98076247D02*
X158564285Y-97981009D01*
X158564285Y-97981009D02*
X158516666Y-97933390D01*
X158516666Y-97933390D02*
X158421428Y-97885771D01*
X158421428Y-97885771D02*
X158230952Y-97885771D01*
X158230952Y-97885771D02*
X158135714Y-97933390D01*
X158135714Y-97933390D02*
X158088095Y-97981009D01*
X158088095Y-97981009D02*
X158040476Y-98076247D01*
X150507142Y-108609580D02*
X150459523Y-108657200D01*
X150459523Y-108657200D02*
X150316666Y-108704819D01*
X150316666Y-108704819D02*
X150221428Y-108704819D01*
X150221428Y-108704819D02*
X150078571Y-108657200D01*
X150078571Y-108657200D02*
X149983333Y-108561961D01*
X149983333Y-108561961D02*
X149935714Y-108466723D01*
X149935714Y-108466723D02*
X149888095Y-108276247D01*
X149888095Y-108276247D02*
X149888095Y-108133390D01*
X149888095Y-108133390D02*
X149935714Y-107942914D01*
X149935714Y-107942914D02*
X149983333Y-107847676D01*
X149983333Y-107847676D02*
X150078571Y-107752438D01*
X150078571Y-107752438D02*
X150221428Y-107704819D01*
X150221428Y-107704819D02*
X150316666Y-107704819D01*
X150316666Y-107704819D02*
X150459523Y-107752438D01*
X150459523Y-107752438D02*
X150507142Y-107800057D01*
X151459523Y-108704819D02*
X150888095Y-108704819D01*
X151173809Y-108704819D02*
X151173809Y-107704819D01*
X151173809Y-107704819D02*
X151078571Y-107847676D01*
X151078571Y-107847676D02*
X150983333Y-107942914D01*
X150983333Y-107942914D02*
X150888095Y-107990533D01*
X152364285Y-107704819D02*
X151888095Y-107704819D01*
X151888095Y-107704819D02*
X151840476Y-108181009D01*
X151840476Y-108181009D02*
X151888095Y-108133390D01*
X151888095Y-108133390D02*
X151983333Y-108085771D01*
X151983333Y-108085771D02*
X152221428Y-108085771D01*
X152221428Y-108085771D02*
X152316666Y-108133390D01*
X152316666Y-108133390D02*
X152364285Y-108181009D01*
X152364285Y-108181009D02*
X152411904Y-108276247D01*
X152411904Y-108276247D02*
X152411904Y-108514342D01*
X152411904Y-108514342D02*
X152364285Y-108609580D01*
X152364285Y-108609580D02*
X152316666Y-108657200D01*
X152316666Y-108657200D02*
X152221428Y-108704819D01*
X152221428Y-108704819D02*
X151983333Y-108704819D01*
X151983333Y-108704819D02*
X151888095Y-108657200D01*
X151888095Y-108657200D02*
X151840476Y-108609580D01*
D11*
X135997533Y-112772419D02*
X135664200Y-112296228D01*
X135426105Y-112772419D02*
X135426105Y-111772419D01*
X135426105Y-111772419D02*
X135807057Y-111772419D01*
X135807057Y-111772419D02*
X135902295Y-111820038D01*
X135902295Y-111820038D02*
X135949914Y-111867657D01*
X135949914Y-111867657D02*
X135997533Y-111962895D01*
X135997533Y-111962895D02*
X135997533Y-112105752D01*
X135997533Y-112105752D02*
X135949914Y-112200990D01*
X135949914Y-112200990D02*
X135902295Y-112248609D01*
X135902295Y-112248609D02*
X135807057Y-112296228D01*
X135807057Y-112296228D02*
X135426105Y-112296228D01*
X136330867Y-111772419D02*
X136997533Y-112772419D01*
X136997533Y-111772419D02*
X136330867Y-112772419D01*
X117730476Y-107406704D02*
X118206666Y-107406704D01*
X117635238Y-107692419D02*
X117968571Y-106692419D01*
X117968571Y-106692419D02*
X118301904Y-107692419D01*
X118635238Y-107692419D02*
X118635238Y-106692419D01*
X118635238Y-106692419D02*
X119206666Y-107692419D01*
X119206666Y-107692419D02*
X119206666Y-106692419D01*
X134568962Y-117804800D02*
X134711819Y-117852419D01*
X134711819Y-117852419D02*
X134949914Y-117852419D01*
X134949914Y-117852419D02*
X135045152Y-117804800D01*
X135045152Y-117804800D02*
X135092771Y-117757180D01*
X135092771Y-117757180D02*
X135140390Y-117661942D01*
X135140390Y-117661942D02*
X135140390Y-117566704D01*
X135140390Y-117566704D02*
X135092771Y-117471466D01*
X135092771Y-117471466D02*
X135045152Y-117423847D01*
X135045152Y-117423847D02*
X134949914Y-117376228D01*
X134949914Y-117376228D02*
X134759438Y-117328609D01*
X134759438Y-117328609D02*
X134664200Y-117280990D01*
X134664200Y-117280990D02*
X134616581Y-117233371D01*
X134616581Y-117233371D02*
X134568962Y-117138133D01*
X134568962Y-117138133D02*
X134568962Y-117042895D01*
X134568962Y-117042895D02*
X134616581Y-116947657D01*
X134616581Y-116947657D02*
X134664200Y-116900038D01*
X134664200Y-116900038D02*
X134759438Y-116852419D01*
X134759438Y-116852419D02*
X134997533Y-116852419D01*
X134997533Y-116852419D02*
X135140390Y-116900038D01*
X136140390Y-117757180D02*
X136092771Y-117804800D01*
X136092771Y-117804800D02*
X135949914Y-117852419D01*
X135949914Y-117852419D02*
X135854676Y-117852419D01*
X135854676Y-117852419D02*
X135711819Y-117804800D01*
X135711819Y-117804800D02*
X135616581Y-117709561D01*
X135616581Y-117709561D02*
X135568962Y-117614323D01*
X135568962Y-117614323D02*
X135521343Y-117423847D01*
X135521343Y-117423847D02*
X135521343Y-117280990D01*
X135521343Y-117280990D02*
X135568962Y-117090514D01*
X135568962Y-117090514D02*
X135616581Y-116995276D01*
X135616581Y-116995276D02*
X135711819Y-116900038D01*
X135711819Y-116900038D02*
X135854676Y-116852419D01*
X135854676Y-116852419D02*
X135949914Y-116852419D01*
X135949914Y-116852419D02*
X136092771Y-116900038D01*
X136092771Y-116900038D02*
X136140390Y-116947657D01*
X137045152Y-117852419D02*
X136568962Y-117852419D01*
X136568962Y-117852419D02*
X136568962Y-116852419D01*
X117778096Y-120392419D02*
X117778096Y-119392419D01*
X117778096Y-119392419D02*
X118111429Y-120106704D01*
X118111429Y-120106704D02*
X118444762Y-119392419D01*
X118444762Y-119392419D02*
X118444762Y-120392419D01*
X119111429Y-119392419D02*
X119301905Y-119392419D01*
X119301905Y-119392419D02*
X119397143Y-119440038D01*
X119397143Y-119440038D02*
X119492381Y-119535276D01*
X119492381Y-119535276D02*
X119540000Y-119725752D01*
X119540000Y-119725752D02*
X119540000Y-120059085D01*
X119540000Y-120059085D02*
X119492381Y-120249561D01*
X119492381Y-120249561D02*
X119397143Y-120344800D01*
X119397143Y-120344800D02*
X119301905Y-120392419D01*
X119301905Y-120392419D02*
X119111429Y-120392419D01*
X119111429Y-120392419D02*
X119016191Y-120344800D01*
X119016191Y-120344800D02*
X118920953Y-120249561D01*
X118920953Y-120249561D02*
X118873334Y-120059085D01*
X118873334Y-120059085D02*
X118873334Y-119725752D01*
X118873334Y-119725752D02*
X118920953Y-119535276D01*
X118920953Y-119535276D02*
X119016191Y-119440038D01*
X119016191Y-119440038D02*
X119111429Y-119392419D01*
X119920953Y-120344800D02*
X120063810Y-120392419D01*
X120063810Y-120392419D02*
X120301905Y-120392419D01*
X120301905Y-120392419D02*
X120397143Y-120344800D01*
X120397143Y-120344800D02*
X120444762Y-120297180D01*
X120444762Y-120297180D02*
X120492381Y-120201942D01*
X120492381Y-120201942D02*
X120492381Y-120106704D01*
X120492381Y-120106704D02*
X120444762Y-120011466D01*
X120444762Y-120011466D02*
X120397143Y-119963847D01*
X120397143Y-119963847D02*
X120301905Y-119916228D01*
X120301905Y-119916228D02*
X120111429Y-119868609D01*
X120111429Y-119868609D02*
X120016191Y-119820990D01*
X120016191Y-119820990D02*
X119968572Y-119773371D01*
X119968572Y-119773371D02*
X119920953Y-119678133D01*
X119920953Y-119678133D02*
X119920953Y-119582895D01*
X119920953Y-119582895D02*
X119968572Y-119487657D01*
X119968572Y-119487657D02*
X120016191Y-119440038D01*
X120016191Y-119440038D02*
X120111429Y-119392419D01*
X120111429Y-119392419D02*
X120349524Y-119392419D01*
X120349524Y-119392419D02*
X120492381Y-119440038D01*
X120920953Y-120392419D02*
X120920953Y-119392419D01*
X134092772Y-107819419D02*
X134092772Y-106819419D01*
X134092772Y-106819419D02*
X134473724Y-106819419D01*
X134473724Y-106819419D02*
X134568962Y-106867038D01*
X134568962Y-106867038D02*
X134616581Y-106914657D01*
X134616581Y-106914657D02*
X134664200Y-107009895D01*
X134664200Y-107009895D02*
X134664200Y-107152752D01*
X134664200Y-107152752D02*
X134616581Y-107247990D01*
X134616581Y-107247990D02*
X134568962Y-107295609D01*
X134568962Y-107295609D02*
X134473724Y-107343228D01*
X134473724Y-107343228D02*
X134092772Y-107343228D01*
X134997534Y-106819419D02*
X135235629Y-107819419D01*
X135235629Y-107819419D02*
X135426105Y-107105133D01*
X135426105Y-107105133D02*
X135616581Y-107819419D01*
X135616581Y-107819419D02*
X135854677Y-106819419D01*
X136235629Y-107819419D02*
X136235629Y-106819419D01*
X136235629Y-106819419D02*
X136568962Y-107533704D01*
X136568962Y-107533704D02*
X136902295Y-106819419D01*
X136902295Y-106819419D02*
X136902295Y-107819419D01*
X135521343Y-114312419D02*
X136092771Y-114312419D01*
X135807057Y-115312419D02*
X135807057Y-114312419D01*
X136330867Y-114312419D02*
X136997533Y-115312419D01*
X136997533Y-114312419D02*
X136330867Y-115312419D01*
X118301904Y-124520038D02*
X118206666Y-124472419D01*
X118206666Y-124472419D02*
X118063809Y-124472419D01*
X118063809Y-124472419D02*
X117920952Y-124520038D01*
X117920952Y-124520038D02*
X117825714Y-124615276D01*
X117825714Y-124615276D02*
X117778095Y-124710514D01*
X117778095Y-124710514D02*
X117730476Y-124900990D01*
X117730476Y-124900990D02*
X117730476Y-125043847D01*
X117730476Y-125043847D02*
X117778095Y-125234323D01*
X117778095Y-125234323D02*
X117825714Y-125329561D01*
X117825714Y-125329561D02*
X117920952Y-125424800D01*
X117920952Y-125424800D02*
X118063809Y-125472419D01*
X118063809Y-125472419D02*
X118159047Y-125472419D01*
X118159047Y-125472419D02*
X118301904Y-125424800D01*
X118301904Y-125424800D02*
X118349523Y-125377180D01*
X118349523Y-125377180D02*
X118349523Y-125043847D01*
X118349523Y-125043847D02*
X118159047Y-125043847D01*
X118778095Y-125472419D02*
X118778095Y-124472419D01*
X118778095Y-124472419D02*
X119349523Y-125472419D01*
X119349523Y-125472419D02*
X119349523Y-124472419D01*
X119825714Y-125472419D02*
X119825714Y-124472419D01*
X119825714Y-124472419D02*
X120063809Y-124472419D01*
X120063809Y-124472419D02*
X120206666Y-124520038D01*
X120206666Y-124520038D02*
X120301904Y-124615276D01*
X120301904Y-124615276D02*
X120349523Y-124710514D01*
X120349523Y-124710514D02*
X120397142Y-124900990D01*
X120397142Y-124900990D02*
X120397142Y-125043847D01*
X120397142Y-125043847D02*
X120349523Y-125234323D01*
X120349523Y-125234323D02*
X120301904Y-125329561D01*
X120301904Y-125329561D02*
X120206666Y-125424800D01*
X120206666Y-125424800D02*
X120063809Y-125472419D01*
X120063809Y-125472419D02*
X119825714Y-125472419D01*
X117778095Y-122551466D02*
X118540000Y-122551466D01*
X118159047Y-122932419D02*
X118159047Y-122170514D01*
X118920952Y-121932419D02*
X119539999Y-121932419D01*
X119539999Y-121932419D02*
X119206666Y-122313371D01*
X119206666Y-122313371D02*
X119349523Y-122313371D01*
X119349523Y-122313371D02*
X119444761Y-122360990D01*
X119444761Y-122360990D02*
X119492380Y-122408609D01*
X119492380Y-122408609D02*
X119539999Y-122503847D01*
X119539999Y-122503847D02*
X119539999Y-122741942D01*
X119539999Y-122741942D02*
X119492380Y-122837180D01*
X119492380Y-122837180D02*
X119444761Y-122884800D01*
X119444761Y-122884800D02*
X119349523Y-122932419D01*
X119349523Y-122932419D02*
X119063809Y-122932419D01*
X119063809Y-122932419D02*
X118968571Y-122884800D01*
X118968571Y-122884800D02*
X118920952Y-122837180D01*
X119825714Y-121932419D02*
X120159047Y-122932419D01*
X120159047Y-122932419D02*
X120492380Y-121932419D01*
X120730476Y-121932419D02*
X121349523Y-121932419D01*
X121349523Y-121932419D02*
X121016190Y-122313371D01*
X121016190Y-122313371D02*
X121159047Y-122313371D01*
X121159047Y-122313371D02*
X121254285Y-122360990D01*
X121254285Y-122360990D02*
X121301904Y-122408609D01*
X121301904Y-122408609D02*
X121349523Y-122503847D01*
X121349523Y-122503847D02*
X121349523Y-122741942D01*
X121349523Y-122741942D02*
X121301904Y-122837180D01*
X121301904Y-122837180D02*
X121254285Y-122884800D01*
X121254285Y-122884800D02*
X121159047Y-122932419D01*
X121159047Y-122932419D02*
X120873333Y-122932419D01*
X120873333Y-122932419D02*
X120778095Y-122884800D01*
X120778095Y-122884800D02*
X120730476Y-122837180D01*
X135092772Y-110232419D02*
X135092772Y-109232419D01*
X135568962Y-110232419D02*
X135568962Y-109232419D01*
X135568962Y-109232419D02*
X136140390Y-110232419D01*
X136140390Y-110232419D02*
X136140390Y-109232419D01*
X136473724Y-109232419D02*
X137045152Y-109232419D01*
X136759438Y-110232419D02*
X136759438Y-109232419D01*
X123666667Y-100857419D02*
X123666667Y-100190752D01*
X123666667Y-100285990D02*
X123714286Y-100238371D01*
X123714286Y-100238371D02*
X123809524Y-100190752D01*
X123809524Y-100190752D02*
X123952381Y-100190752D01*
X123952381Y-100190752D02*
X124047619Y-100238371D01*
X124047619Y-100238371D02*
X124095238Y-100333609D01*
X124095238Y-100333609D02*
X124095238Y-100857419D01*
X124095238Y-100333609D02*
X124142857Y-100238371D01*
X124142857Y-100238371D02*
X124238095Y-100190752D01*
X124238095Y-100190752D02*
X124380952Y-100190752D01*
X124380952Y-100190752D02*
X124476191Y-100238371D01*
X124476191Y-100238371D02*
X124523810Y-100333609D01*
X124523810Y-100333609D02*
X124523810Y-100857419D01*
X125000000Y-100857419D02*
X125000000Y-100190752D01*
X125000000Y-99857419D02*
X124952381Y-99905038D01*
X124952381Y-99905038D02*
X125000000Y-99952657D01*
X125000000Y-99952657D02*
X125047619Y-99905038D01*
X125047619Y-99905038D02*
X125000000Y-99857419D01*
X125000000Y-99857419D02*
X125000000Y-99952657D01*
X125476190Y-100857419D02*
X125476190Y-99857419D01*
X125571428Y-100476466D02*
X125857142Y-100857419D01*
X125857142Y-100190752D02*
X125476190Y-100571704D01*
X126285714Y-100857419D02*
X126285714Y-100190752D01*
X126285714Y-100381228D02*
X126333333Y-100285990D01*
X126333333Y-100285990D02*
X126380952Y-100238371D01*
X126380952Y-100238371D02*
X126476190Y-100190752D01*
X126476190Y-100190752D02*
X126571428Y-100190752D01*
X127047619Y-100857419D02*
X126952381Y-100809800D01*
X126952381Y-100809800D02*
X126904762Y-100762180D01*
X126904762Y-100762180D02*
X126857143Y-100666942D01*
X126857143Y-100666942D02*
X126857143Y-100381228D01*
X126857143Y-100381228D02*
X126904762Y-100285990D01*
X126904762Y-100285990D02*
X126952381Y-100238371D01*
X126952381Y-100238371D02*
X127047619Y-100190752D01*
X127047619Y-100190752D02*
X127190476Y-100190752D01*
X127190476Y-100190752D02*
X127285714Y-100238371D01*
X127285714Y-100238371D02*
X127333333Y-100285990D01*
X127333333Y-100285990D02*
X127380952Y-100381228D01*
X127380952Y-100381228D02*
X127380952Y-100666942D01*
X127380952Y-100666942D02*
X127333333Y-100762180D01*
X127333333Y-100762180D02*
X127285714Y-100809800D01*
X127285714Y-100809800D02*
X127190476Y-100857419D01*
X127190476Y-100857419D02*
X127047619Y-100857419D01*
X128142857Y-100333609D02*
X128285714Y-100381228D01*
X128285714Y-100381228D02*
X128333333Y-100428847D01*
X128333333Y-100428847D02*
X128380952Y-100524085D01*
X128380952Y-100524085D02*
X128380952Y-100666942D01*
X128380952Y-100666942D02*
X128333333Y-100762180D01*
X128333333Y-100762180D02*
X128285714Y-100809800D01*
X128285714Y-100809800D02*
X128190476Y-100857419D01*
X128190476Y-100857419D02*
X127809524Y-100857419D01*
X127809524Y-100857419D02*
X127809524Y-99857419D01*
X127809524Y-99857419D02*
X128142857Y-99857419D01*
X128142857Y-99857419D02*
X128238095Y-99905038D01*
X128238095Y-99905038D02*
X128285714Y-99952657D01*
X128285714Y-99952657D02*
X128333333Y-100047895D01*
X128333333Y-100047895D02*
X128333333Y-100143133D01*
X128333333Y-100143133D02*
X128285714Y-100238371D01*
X128285714Y-100238371D02*
X128238095Y-100285990D01*
X128238095Y-100285990D02*
X128142857Y-100333609D01*
X128142857Y-100333609D02*
X127809524Y-100333609D01*
X128809524Y-99857419D02*
X128809524Y-100666942D01*
X128809524Y-100666942D02*
X128857143Y-100762180D01*
X128857143Y-100762180D02*
X128904762Y-100809800D01*
X128904762Y-100809800D02*
X129000000Y-100857419D01*
X129000000Y-100857419D02*
X129190476Y-100857419D01*
X129190476Y-100857419D02*
X129285714Y-100809800D01*
X129285714Y-100809800D02*
X129333333Y-100762180D01*
X129333333Y-100762180D02*
X129380952Y-100666942D01*
X129380952Y-100666942D02*
X129380952Y-99857419D01*
X129809524Y-100809800D02*
X129952381Y-100857419D01*
X129952381Y-100857419D02*
X130190476Y-100857419D01*
X130190476Y-100857419D02*
X130285714Y-100809800D01*
X130285714Y-100809800D02*
X130333333Y-100762180D01*
X130333333Y-100762180D02*
X130380952Y-100666942D01*
X130380952Y-100666942D02*
X130380952Y-100571704D01*
X130380952Y-100571704D02*
X130333333Y-100476466D01*
X130333333Y-100476466D02*
X130285714Y-100428847D01*
X130285714Y-100428847D02*
X130190476Y-100381228D01*
X130190476Y-100381228D02*
X130000000Y-100333609D01*
X130000000Y-100333609D02*
X129904762Y-100285990D01*
X129904762Y-100285990D02*
X129857143Y-100238371D01*
X129857143Y-100238371D02*
X129809524Y-100143133D01*
X129809524Y-100143133D02*
X129809524Y-100047895D01*
X129809524Y-100047895D02*
X129857143Y-99952657D01*
X129857143Y-99952657D02*
X129904762Y-99905038D01*
X129904762Y-99905038D02*
X130000000Y-99857419D01*
X130000000Y-99857419D02*
X130238095Y-99857419D01*
X130238095Y-99857419D02*
X130380952Y-99905038D01*
X127671429Y-99579800D02*
X130471429Y-99579800D01*
X134330867Y-122551466D02*
X135092772Y-122551466D01*
X134711819Y-122932419D02*
X134711819Y-122170514D01*
X136045152Y-121932419D02*
X135568962Y-121932419D01*
X135568962Y-121932419D02*
X135521343Y-122408609D01*
X135521343Y-122408609D02*
X135568962Y-122360990D01*
X135568962Y-122360990D02*
X135664200Y-122313371D01*
X135664200Y-122313371D02*
X135902295Y-122313371D01*
X135902295Y-122313371D02*
X135997533Y-122360990D01*
X135997533Y-122360990D02*
X136045152Y-122408609D01*
X136045152Y-122408609D02*
X136092771Y-122503847D01*
X136092771Y-122503847D02*
X136092771Y-122741942D01*
X136092771Y-122741942D02*
X136045152Y-122837180D01*
X136045152Y-122837180D02*
X135997533Y-122884800D01*
X135997533Y-122884800D02*
X135902295Y-122932419D01*
X135902295Y-122932419D02*
X135664200Y-122932419D01*
X135664200Y-122932419D02*
X135568962Y-122884800D01*
X135568962Y-122884800D02*
X135521343Y-122837180D01*
X136378486Y-121932419D02*
X136711819Y-122932419D01*
X136711819Y-122932419D02*
X137045152Y-121932419D01*
X117778096Y-117852419D02*
X117778096Y-116852419D01*
X117778096Y-116852419D02*
X118111429Y-117566704D01*
X118111429Y-117566704D02*
X118444762Y-116852419D01*
X118444762Y-116852419D02*
X118444762Y-117852419D01*
X118920953Y-117852419D02*
X118920953Y-116852419D01*
X119349524Y-117804800D02*
X119492381Y-117852419D01*
X119492381Y-117852419D02*
X119730476Y-117852419D01*
X119730476Y-117852419D02*
X119825714Y-117804800D01*
X119825714Y-117804800D02*
X119873333Y-117757180D01*
X119873333Y-117757180D02*
X119920952Y-117661942D01*
X119920952Y-117661942D02*
X119920952Y-117566704D01*
X119920952Y-117566704D02*
X119873333Y-117471466D01*
X119873333Y-117471466D02*
X119825714Y-117423847D01*
X119825714Y-117423847D02*
X119730476Y-117376228D01*
X119730476Y-117376228D02*
X119540000Y-117328609D01*
X119540000Y-117328609D02*
X119444762Y-117280990D01*
X119444762Y-117280990D02*
X119397143Y-117233371D01*
X119397143Y-117233371D02*
X119349524Y-117138133D01*
X119349524Y-117138133D02*
X119349524Y-117042895D01*
X119349524Y-117042895D02*
X119397143Y-116947657D01*
X119397143Y-116947657D02*
X119444762Y-116900038D01*
X119444762Y-116900038D02*
X119540000Y-116852419D01*
X119540000Y-116852419D02*
X119778095Y-116852419D01*
X119778095Y-116852419D02*
X119920952Y-116900038D01*
X120540000Y-116852419D02*
X120730476Y-116852419D01*
X120730476Y-116852419D02*
X120825714Y-116900038D01*
X120825714Y-116900038D02*
X120920952Y-116995276D01*
X120920952Y-116995276D02*
X120968571Y-117185752D01*
X120968571Y-117185752D02*
X120968571Y-117519085D01*
X120968571Y-117519085D02*
X120920952Y-117709561D01*
X120920952Y-117709561D02*
X120825714Y-117804800D01*
X120825714Y-117804800D02*
X120730476Y-117852419D01*
X120730476Y-117852419D02*
X120540000Y-117852419D01*
X120540000Y-117852419D02*
X120444762Y-117804800D01*
X120444762Y-117804800D02*
X120349524Y-117709561D01*
X120349524Y-117709561D02*
X120301905Y-117519085D01*
X120301905Y-117519085D02*
X120301905Y-117185752D01*
X120301905Y-117185752D02*
X120349524Y-116995276D01*
X120349524Y-116995276D02*
X120444762Y-116900038D01*
X120444762Y-116900038D02*
X120540000Y-116852419D01*
X134854676Y-124520038D02*
X134759438Y-124472419D01*
X134759438Y-124472419D02*
X134616581Y-124472419D01*
X134616581Y-124472419D02*
X134473724Y-124520038D01*
X134473724Y-124520038D02*
X134378486Y-124615276D01*
X134378486Y-124615276D02*
X134330867Y-124710514D01*
X134330867Y-124710514D02*
X134283248Y-124900990D01*
X134283248Y-124900990D02*
X134283248Y-125043847D01*
X134283248Y-125043847D02*
X134330867Y-125234323D01*
X134330867Y-125234323D02*
X134378486Y-125329561D01*
X134378486Y-125329561D02*
X134473724Y-125424800D01*
X134473724Y-125424800D02*
X134616581Y-125472419D01*
X134616581Y-125472419D02*
X134711819Y-125472419D01*
X134711819Y-125472419D02*
X134854676Y-125424800D01*
X134854676Y-125424800D02*
X134902295Y-125377180D01*
X134902295Y-125377180D02*
X134902295Y-125043847D01*
X134902295Y-125043847D02*
X134711819Y-125043847D01*
X135330867Y-125472419D02*
X135330867Y-124472419D01*
X135330867Y-124472419D02*
X135902295Y-125472419D01*
X135902295Y-125472419D02*
X135902295Y-124472419D01*
X136378486Y-125472419D02*
X136378486Y-124472419D01*
X136378486Y-124472419D02*
X136616581Y-124472419D01*
X136616581Y-124472419D02*
X136759438Y-124520038D01*
X136759438Y-124520038D02*
X136854676Y-124615276D01*
X136854676Y-124615276D02*
X136902295Y-124710514D01*
X136902295Y-124710514D02*
X136949914Y-124900990D01*
X136949914Y-124900990D02*
X136949914Y-125043847D01*
X136949914Y-125043847D02*
X136902295Y-125234323D01*
X136902295Y-125234323D02*
X136854676Y-125329561D01*
X136854676Y-125329561D02*
X136759438Y-125424800D01*
X136759438Y-125424800D02*
X136616581Y-125472419D01*
X136616581Y-125472419D02*
X136378486Y-125472419D01*
X118349523Y-110232419D02*
X118016190Y-109756228D01*
X117778095Y-110232419D02*
X117778095Y-109232419D01*
X117778095Y-109232419D02*
X118159047Y-109232419D01*
X118159047Y-109232419D02*
X118254285Y-109280038D01*
X118254285Y-109280038D02*
X118301904Y-109327657D01*
X118301904Y-109327657D02*
X118349523Y-109422895D01*
X118349523Y-109422895D02*
X118349523Y-109565752D01*
X118349523Y-109565752D02*
X118301904Y-109660990D01*
X118301904Y-109660990D02*
X118254285Y-109708609D01*
X118254285Y-109708609D02*
X118159047Y-109756228D01*
X118159047Y-109756228D02*
X117778095Y-109756228D01*
X118730476Y-110184800D02*
X118873333Y-110232419D01*
X118873333Y-110232419D02*
X119111428Y-110232419D01*
X119111428Y-110232419D02*
X119206666Y-110184800D01*
X119206666Y-110184800D02*
X119254285Y-110137180D01*
X119254285Y-110137180D02*
X119301904Y-110041942D01*
X119301904Y-110041942D02*
X119301904Y-109946704D01*
X119301904Y-109946704D02*
X119254285Y-109851466D01*
X119254285Y-109851466D02*
X119206666Y-109803847D01*
X119206666Y-109803847D02*
X119111428Y-109756228D01*
X119111428Y-109756228D02*
X118920952Y-109708609D01*
X118920952Y-109708609D02*
X118825714Y-109660990D01*
X118825714Y-109660990D02*
X118778095Y-109613371D01*
X118778095Y-109613371D02*
X118730476Y-109518133D01*
X118730476Y-109518133D02*
X118730476Y-109422895D01*
X118730476Y-109422895D02*
X118778095Y-109327657D01*
X118778095Y-109327657D02*
X118825714Y-109280038D01*
X118825714Y-109280038D02*
X118920952Y-109232419D01*
X118920952Y-109232419D02*
X119159047Y-109232419D01*
X119159047Y-109232419D02*
X119301904Y-109280038D01*
X119587619Y-109232419D02*
X120159047Y-109232419D01*
X119873333Y-110232419D02*
X119873333Y-109232419D01*
X117730476Y-115264800D02*
X117873333Y-115312419D01*
X117873333Y-115312419D02*
X118111428Y-115312419D01*
X118111428Y-115312419D02*
X118206666Y-115264800D01*
X118206666Y-115264800D02*
X118254285Y-115217180D01*
X118254285Y-115217180D02*
X118301904Y-115121942D01*
X118301904Y-115121942D02*
X118301904Y-115026704D01*
X118301904Y-115026704D02*
X118254285Y-114931466D01*
X118254285Y-114931466D02*
X118206666Y-114883847D01*
X118206666Y-114883847D02*
X118111428Y-114836228D01*
X118111428Y-114836228D02*
X117920952Y-114788609D01*
X117920952Y-114788609D02*
X117825714Y-114740990D01*
X117825714Y-114740990D02*
X117778095Y-114693371D01*
X117778095Y-114693371D02*
X117730476Y-114598133D01*
X117730476Y-114598133D02*
X117730476Y-114502895D01*
X117730476Y-114502895D02*
X117778095Y-114407657D01*
X117778095Y-114407657D02*
X117825714Y-114360038D01*
X117825714Y-114360038D02*
X117920952Y-114312419D01*
X117920952Y-114312419D02*
X118159047Y-114312419D01*
X118159047Y-114312419D02*
X118301904Y-114360038D01*
X119301904Y-115217180D02*
X119254285Y-115264800D01*
X119254285Y-115264800D02*
X119111428Y-115312419D01*
X119111428Y-115312419D02*
X119016190Y-115312419D01*
X119016190Y-115312419D02*
X118873333Y-115264800D01*
X118873333Y-115264800D02*
X118778095Y-115169561D01*
X118778095Y-115169561D02*
X118730476Y-115074323D01*
X118730476Y-115074323D02*
X118682857Y-114883847D01*
X118682857Y-114883847D02*
X118682857Y-114740990D01*
X118682857Y-114740990D02*
X118730476Y-114550514D01*
X118730476Y-114550514D02*
X118778095Y-114455276D01*
X118778095Y-114455276D02*
X118873333Y-114360038D01*
X118873333Y-114360038D02*
X119016190Y-114312419D01*
X119016190Y-114312419D02*
X119111428Y-114312419D01*
X119111428Y-114312419D02*
X119254285Y-114360038D01*
X119254285Y-114360038D02*
X119301904Y-114407657D01*
X119730476Y-115312419D02*
X119730476Y-114312419D01*
X120301904Y-115312419D02*
X119873333Y-114740990D01*
X120301904Y-114312419D02*
X119730476Y-114883847D01*
X134521343Y-120344800D02*
X134664200Y-120392419D01*
X134664200Y-120392419D02*
X134902295Y-120392419D01*
X134902295Y-120392419D02*
X134997533Y-120344800D01*
X134997533Y-120344800D02*
X135045152Y-120297180D01*
X135045152Y-120297180D02*
X135092771Y-120201942D01*
X135092771Y-120201942D02*
X135092771Y-120106704D01*
X135092771Y-120106704D02*
X135045152Y-120011466D01*
X135045152Y-120011466D02*
X134997533Y-119963847D01*
X134997533Y-119963847D02*
X134902295Y-119916228D01*
X134902295Y-119916228D02*
X134711819Y-119868609D01*
X134711819Y-119868609D02*
X134616581Y-119820990D01*
X134616581Y-119820990D02*
X134568962Y-119773371D01*
X134568962Y-119773371D02*
X134521343Y-119678133D01*
X134521343Y-119678133D02*
X134521343Y-119582895D01*
X134521343Y-119582895D02*
X134568962Y-119487657D01*
X134568962Y-119487657D02*
X134616581Y-119440038D01*
X134616581Y-119440038D02*
X134711819Y-119392419D01*
X134711819Y-119392419D02*
X134949914Y-119392419D01*
X134949914Y-119392419D02*
X135092771Y-119440038D01*
X135521343Y-120392419D02*
X135521343Y-119392419D01*
X135521343Y-119392419D02*
X135759438Y-119392419D01*
X135759438Y-119392419D02*
X135902295Y-119440038D01*
X135902295Y-119440038D02*
X135997533Y-119535276D01*
X135997533Y-119535276D02*
X136045152Y-119630514D01*
X136045152Y-119630514D02*
X136092771Y-119820990D01*
X136092771Y-119820990D02*
X136092771Y-119963847D01*
X136092771Y-119963847D02*
X136045152Y-120154323D01*
X136045152Y-120154323D02*
X135997533Y-120249561D01*
X135997533Y-120249561D02*
X135902295Y-120344800D01*
X135902295Y-120344800D02*
X135759438Y-120392419D01*
X135759438Y-120392419D02*
X135521343Y-120392419D01*
X136473724Y-120106704D02*
X136949914Y-120106704D01*
X136378486Y-120392419D02*
X136711819Y-119392419D01*
X136711819Y-119392419D02*
X137045152Y-120392419D01*
X118349523Y-112677180D02*
X118301904Y-112724800D01*
X118301904Y-112724800D02*
X118159047Y-112772419D01*
X118159047Y-112772419D02*
X118063809Y-112772419D01*
X118063809Y-112772419D02*
X117920952Y-112724800D01*
X117920952Y-112724800D02*
X117825714Y-112629561D01*
X117825714Y-112629561D02*
X117778095Y-112534323D01*
X117778095Y-112534323D02*
X117730476Y-112343847D01*
X117730476Y-112343847D02*
X117730476Y-112200990D01*
X117730476Y-112200990D02*
X117778095Y-112010514D01*
X117778095Y-112010514D02*
X117825714Y-111915276D01*
X117825714Y-111915276D02*
X117920952Y-111820038D01*
X117920952Y-111820038D02*
X118063809Y-111772419D01*
X118063809Y-111772419D02*
X118159047Y-111772419D01*
X118159047Y-111772419D02*
X118301904Y-111820038D01*
X118301904Y-111820038D02*
X118349523Y-111867657D01*
X118730476Y-112724800D02*
X118873333Y-112772419D01*
X118873333Y-112772419D02*
X119111428Y-112772419D01*
X119111428Y-112772419D02*
X119206666Y-112724800D01*
X119206666Y-112724800D02*
X119254285Y-112677180D01*
X119254285Y-112677180D02*
X119301904Y-112581942D01*
X119301904Y-112581942D02*
X119301904Y-112486704D01*
X119301904Y-112486704D02*
X119254285Y-112391466D01*
X119254285Y-112391466D02*
X119206666Y-112343847D01*
X119206666Y-112343847D02*
X119111428Y-112296228D01*
X119111428Y-112296228D02*
X118920952Y-112248609D01*
X118920952Y-112248609D02*
X118825714Y-112200990D01*
X118825714Y-112200990D02*
X118778095Y-112153371D01*
X118778095Y-112153371D02*
X118730476Y-112058133D01*
X118730476Y-112058133D02*
X118730476Y-111962895D01*
X118730476Y-111962895D02*
X118778095Y-111867657D01*
X118778095Y-111867657D02*
X118825714Y-111820038D01*
X118825714Y-111820038D02*
X118920952Y-111772419D01*
X118920952Y-111772419D02*
X119159047Y-111772419D01*
X119159047Y-111772419D02*
X119301904Y-111820038D01*
X105997533Y-112772419D02*
X105664200Y-112296228D01*
X105426105Y-112772419D02*
X105426105Y-111772419D01*
X105426105Y-111772419D02*
X105807057Y-111772419D01*
X105807057Y-111772419D02*
X105902295Y-111820038D01*
X105902295Y-111820038D02*
X105949914Y-111867657D01*
X105949914Y-111867657D02*
X105997533Y-111962895D01*
X105997533Y-111962895D02*
X105997533Y-112105752D01*
X105997533Y-112105752D02*
X105949914Y-112200990D01*
X105949914Y-112200990D02*
X105902295Y-112248609D01*
X105902295Y-112248609D02*
X105807057Y-112296228D01*
X105807057Y-112296228D02*
X105426105Y-112296228D01*
X106330867Y-111772419D02*
X106997533Y-112772419D01*
X106997533Y-111772419D02*
X106330867Y-112772419D01*
X104330867Y-122551466D02*
X105092772Y-122551466D01*
X104711819Y-122932419D02*
X104711819Y-122170514D01*
X106045152Y-121932419D02*
X105568962Y-121932419D01*
X105568962Y-121932419D02*
X105521343Y-122408609D01*
X105521343Y-122408609D02*
X105568962Y-122360990D01*
X105568962Y-122360990D02*
X105664200Y-122313371D01*
X105664200Y-122313371D02*
X105902295Y-122313371D01*
X105902295Y-122313371D02*
X105997533Y-122360990D01*
X105997533Y-122360990D02*
X106045152Y-122408609D01*
X106045152Y-122408609D02*
X106092771Y-122503847D01*
X106092771Y-122503847D02*
X106092771Y-122741942D01*
X106092771Y-122741942D02*
X106045152Y-122837180D01*
X106045152Y-122837180D02*
X105997533Y-122884800D01*
X105997533Y-122884800D02*
X105902295Y-122932419D01*
X105902295Y-122932419D02*
X105664200Y-122932419D01*
X105664200Y-122932419D02*
X105568962Y-122884800D01*
X105568962Y-122884800D02*
X105521343Y-122837180D01*
X106378486Y-121932419D02*
X106711819Y-122932419D01*
X106711819Y-122932419D02*
X107045152Y-121932419D01*
X104092772Y-107819419D02*
X104092772Y-106819419D01*
X104092772Y-106819419D02*
X104473724Y-106819419D01*
X104473724Y-106819419D02*
X104568962Y-106867038D01*
X104568962Y-106867038D02*
X104616581Y-106914657D01*
X104616581Y-106914657D02*
X104664200Y-107009895D01*
X104664200Y-107009895D02*
X104664200Y-107152752D01*
X104664200Y-107152752D02*
X104616581Y-107247990D01*
X104616581Y-107247990D02*
X104568962Y-107295609D01*
X104568962Y-107295609D02*
X104473724Y-107343228D01*
X104473724Y-107343228D02*
X104092772Y-107343228D01*
X104997534Y-106819419D02*
X105235629Y-107819419D01*
X105235629Y-107819419D02*
X105426105Y-107105133D01*
X105426105Y-107105133D02*
X105616581Y-107819419D01*
X105616581Y-107819419D02*
X105854677Y-106819419D01*
X106235629Y-107819419D02*
X106235629Y-106819419D01*
X106235629Y-106819419D02*
X106568962Y-107533704D01*
X106568962Y-107533704D02*
X106902295Y-106819419D01*
X106902295Y-106819419D02*
X106902295Y-107819419D01*
X87778096Y-120392419D02*
X87778096Y-119392419D01*
X87778096Y-119392419D02*
X88111429Y-120106704D01*
X88111429Y-120106704D02*
X88444762Y-119392419D01*
X88444762Y-119392419D02*
X88444762Y-120392419D01*
X89111429Y-119392419D02*
X89301905Y-119392419D01*
X89301905Y-119392419D02*
X89397143Y-119440038D01*
X89397143Y-119440038D02*
X89492381Y-119535276D01*
X89492381Y-119535276D02*
X89540000Y-119725752D01*
X89540000Y-119725752D02*
X89540000Y-120059085D01*
X89540000Y-120059085D02*
X89492381Y-120249561D01*
X89492381Y-120249561D02*
X89397143Y-120344800D01*
X89397143Y-120344800D02*
X89301905Y-120392419D01*
X89301905Y-120392419D02*
X89111429Y-120392419D01*
X89111429Y-120392419D02*
X89016191Y-120344800D01*
X89016191Y-120344800D02*
X88920953Y-120249561D01*
X88920953Y-120249561D02*
X88873334Y-120059085D01*
X88873334Y-120059085D02*
X88873334Y-119725752D01*
X88873334Y-119725752D02*
X88920953Y-119535276D01*
X88920953Y-119535276D02*
X89016191Y-119440038D01*
X89016191Y-119440038D02*
X89111429Y-119392419D01*
X89920953Y-120344800D02*
X90063810Y-120392419D01*
X90063810Y-120392419D02*
X90301905Y-120392419D01*
X90301905Y-120392419D02*
X90397143Y-120344800D01*
X90397143Y-120344800D02*
X90444762Y-120297180D01*
X90444762Y-120297180D02*
X90492381Y-120201942D01*
X90492381Y-120201942D02*
X90492381Y-120106704D01*
X90492381Y-120106704D02*
X90444762Y-120011466D01*
X90444762Y-120011466D02*
X90397143Y-119963847D01*
X90397143Y-119963847D02*
X90301905Y-119916228D01*
X90301905Y-119916228D02*
X90111429Y-119868609D01*
X90111429Y-119868609D02*
X90016191Y-119820990D01*
X90016191Y-119820990D02*
X89968572Y-119773371D01*
X89968572Y-119773371D02*
X89920953Y-119678133D01*
X89920953Y-119678133D02*
X89920953Y-119582895D01*
X89920953Y-119582895D02*
X89968572Y-119487657D01*
X89968572Y-119487657D02*
X90016191Y-119440038D01*
X90016191Y-119440038D02*
X90111429Y-119392419D01*
X90111429Y-119392419D02*
X90349524Y-119392419D01*
X90349524Y-119392419D02*
X90492381Y-119440038D01*
X90920953Y-120392419D02*
X90920953Y-119392419D01*
X87778096Y-117852419D02*
X87778096Y-116852419D01*
X87778096Y-116852419D02*
X88111429Y-117566704D01*
X88111429Y-117566704D02*
X88444762Y-116852419D01*
X88444762Y-116852419D02*
X88444762Y-117852419D01*
X88920953Y-117852419D02*
X88920953Y-116852419D01*
X89349524Y-117804800D02*
X89492381Y-117852419D01*
X89492381Y-117852419D02*
X89730476Y-117852419D01*
X89730476Y-117852419D02*
X89825714Y-117804800D01*
X89825714Y-117804800D02*
X89873333Y-117757180D01*
X89873333Y-117757180D02*
X89920952Y-117661942D01*
X89920952Y-117661942D02*
X89920952Y-117566704D01*
X89920952Y-117566704D02*
X89873333Y-117471466D01*
X89873333Y-117471466D02*
X89825714Y-117423847D01*
X89825714Y-117423847D02*
X89730476Y-117376228D01*
X89730476Y-117376228D02*
X89540000Y-117328609D01*
X89540000Y-117328609D02*
X89444762Y-117280990D01*
X89444762Y-117280990D02*
X89397143Y-117233371D01*
X89397143Y-117233371D02*
X89349524Y-117138133D01*
X89349524Y-117138133D02*
X89349524Y-117042895D01*
X89349524Y-117042895D02*
X89397143Y-116947657D01*
X89397143Y-116947657D02*
X89444762Y-116900038D01*
X89444762Y-116900038D02*
X89540000Y-116852419D01*
X89540000Y-116852419D02*
X89778095Y-116852419D01*
X89778095Y-116852419D02*
X89920952Y-116900038D01*
X90540000Y-116852419D02*
X90730476Y-116852419D01*
X90730476Y-116852419D02*
X90825714Y-116900038D01*
X90825714Y-116900038D02*
X90920952Y-116995276D01*
X90920952Y-116995276D02*
X90968571Y-117185752D01*
X90968571Y-117185752D02*
X90968571Y-117519085D01*
X90968571Y-117519085D02*
X90920952Y-117709561D01*
X90920952Y-117709561D02*
X90825714Y-117804800D01*
X90825714Y-117804800D02*
X90730476Y-117852419D01*
X90730476Y-117852419D02*
X90540000Y-117852419D01*
X90540000Y-117852419D02*
X90444762Y-117804800D01*
X90444762Y-117804800D02*
X90349524Y-117709561D01*
X90349524Y-117709561D02*
X90301905Y-117519085D01*
X90301905Y-117519085D02*
X90301905Y-117185752D01*
X90301905Y-117185752D02*
X90349524Y-116995276D01*
X90349524Y-116995276D02*
X90444762Y-116900038D01*
X90444762Y-116900038D02*
X90540000Y-116852419D01*
X104521343Y-120344800D02*
X104664200Y-120392419D01*
X104664200Y-120392419D02*
X104902295Y-120392419D01*
X104902295Y-120392419D02*
X104997533Y-120344800D01*
X104997533Y-120344800D02*
X105045152Y-120297180D01*
X105045152Y-120297180D02*
X105092771Y-120201942D01*
X105092771Y-120201942D02*
X105092771Y-120106704D01*
X105092771Y-120106704D02*
X105045152Y-120011466D01*
X105045152Y-120011466D02*
X104997533Y-119963847D01*
X104997533Y-119963847D02*
X104902295Y-119916228D01*
X104902295Y-119916228D02*
X104711819Y-119868609D01*
X104711819Y-119868609D02*
X104616581Y-119820990D01*
X104616581Y-119820990D02*
X104568962Y-119773371D01*
X104568962Y-119773371D02*
X104521343Y-119678133D01*
X104521343Y-119678133D02*
X104521343Y-119582895D01*
X104521343Y-119582895D02*
X104568962Y-119487657D01*
X104568962Y-119487657D02*
X104616581Y-119440038D01*
X104616581Y-119440038D02*
X104711819Y-119392419D01*
X104711819Y-119392419D02*
X104949914Y-119392419D01*
X104949914Y-119392419D02*
X105092771Y-119440038D01*
X105521343Y-120392419D02*
X105521343Y-119392419D01*
X105521343Y-119392419D02*
X105759438Y-119392419D01*
X105759438Y-119392419D02*
X105902295Y-119440038D01*
X105902295Y-119440038D02*
X105997533Y-119535276D01*
X105997533Y-119535276D02*
X106045152Y-119630514D01*
X106045152Y-119630514D02*
X106092771Y-119820990D01*
X106092771Y-119820990D02*
X106092771Y-119963847D01*
X106092771Y-119963847D02*
X106045152Y-120154323D01*
X106045152Y-120154323D02*
X105997533Y-120249561D01*
X105997533Y-120249561D02*
X105902295Y-120344800D01*
X105902295Y-120344800D02*
X105759438Y-120392419D01*
X105759438Y-120392419D02*
X105521343Y-120392419D01*
X106473724Y-120106704D02*
X106949914Y-120106704D01*
X106378486Y-120392419D02*
X106711819Y-119392419D01*
X106711819Y-119392419D02*
X107045152Y-120392419D01*
X88349523Y-110232419D02*
X88016190Y-109756228D01*
X87778095Y-110232419D02*
X87778095Y-109232419D01*
X87778095Y-109232419D02*
X88159047Y-109232419D01*
X88159047Y-109232419D02*
X88254285Y-109280038D01*
X88254285Y-109280038D02*
X88301904Y-109327657D01*
X88301904Y-109327657D02*
X88349523Y-109422895D01*
X88349523Y-109422895D02*
X88349523Y-109565752D01*
X88349523Y-109565752D02*
X88301904Y-109660990D01*
X88301904Y-109660990D02*
X88254285Y-109708609D01*
X88254285Y-109708609D02*
X88159047Y-109756228D01*
X88159047Y-109756228D02*
X87778095Y-109756228D01*
X88730476Y-110184800D02*
X88873333Y-110232419D01*
X88873333Y-110232419D02*
X89111428Y-110232419D01*
X89111428Y-110232419D02*
X89206666Y-110184800D01*
X89206666Y-110184800D02*
X89254285Y-110137180D01*
X89254285Y-110137180D02*
X89301904Y-110041942D01*
X89301904Y-110041942D02*
X89301904Y-109946704D01*
X89301904Y-109946704D02*
X89254285Y-109851466D01*
X89254285Y-109851466D02*
X89206666Y-109803847D01*
X89206666Y-109803847D02*
X89111428Y-109756228D01*
X89111428Y-109756228D02*
X88920952Y-109708609D01*
X88920952Y-109708609D02*
X88825714Y-109660990D01*
X88825714Y-109660990D02*
X88778095Y-109613371D01*
X88778095Y-109613371D02*
X88730476Y-109518133D01*
X88730476Y-109518133D02*
X88730476Y-109422895D01*
X88730476Y-109422895D02*
X88778095Y-109327657D01*
X88778095Y-109327657D02*
X88825714Y-109280038D01*
X88825714Y-109280038D02*
X88920952Y-109232419D01*
X88920952Y-109232419D02*
X89159047Y-109232419D01*
X89159047Y-109232419D02*
X89301904Y-109280038D01*
X89587619Y-109232419D02*
X90159047Y-109232419D01*
X89873333Y-110232419D02*
X89873333Y-109232419D01*
X87778095Y-122551466D02*
X88540000Y-122551466D01*
X88159047Y-122932419D02*
X88159047Y-122170514D01*
X88920952Y-121932419D02*
X89539999Y-121932419D01*
X89539999Y-121932419D02*
X89206666Y-122313371D01*
X89206666Y-122313371D02*
X89349523Y-122313371D01*
X89349523Y-122313371D02*
X89444761Y-122360990D01*
X89444761Y-122360990D02*
X89492380Y-122408609D01*
X89492380Y-122408609D02*
X89539999Y-122503847D01*
X89539999Y-122503847D02*
X89539999Y-122741942D01*
X89539999Y-122741942D02*
X89492380Y-122837180D01*
X89492380Y-122837180D02*
X89444761Y-122884800D01*
X89444761Y-122884800D02*
X89349523Y-122932419D01*
X89349523Y-122932419D02*
X89063809Y-122932419D01*
X89063809Y-122932419D02*
X88968571Y-122884800D01*
X88968571Y-122884800D02*
X88920952Y-122837180D01*
X89825714Y-121932419D02*
X90159047Y-122932419D01*
X90159047Y-122932419D02*
X90492380Y-121932419D01*
X90730476Y-121932419D02*
X91349523Y-121932419D01*
X91349523Y-121932419D02*
X91016190Y-122313371D01*
X91016190Y-122313371D02*
X91159047Y-122313371D01*
X91159047Y-122313371D02*
X91254285Y-122360990D01*
X91254285Y-122360990D02*
X91301904Y-122408609D01*
X91301904Y-122408609D02*
X91349523Y-122503847D01*
X91349523Y-122503847D02*
X91349523Y-122741942D01*
X91349523Y-122741942D02*
X91301904Y-122837180D01*
X91301904Y-122837180D02*
X91254285Y-122884800D01*
X91254285Y-122884800D02*
X91159047Y-122932419D01*
X91159047Y-122932419D02*
X90873333Y-122932419D01*
X90873333Y-122932419D02*
X90778095Y-122884800D01*
X90778095Y-122884800D02*
X90730476Y-122837180D01*
X104854676Y-124520038D02*
X104759438Y-124472419D01*
X104759438Y-124472419D02*
X104616581Y-124472419D01*
X104616581Y-124472419D02*
X104473724Y-124520038D01*
X104473724Y-124520038D02*
X104378486Y-124615276D01*
X104378486Y-124615276D02*
X104330867Y-124710514D01*
X104330867Y-124710514D02*
X104283248Y-124900990D01*
X104283248Y-124900990D02*
X104283248Y-125043847D01*
X104283248Y-125043847D02*
X104330867Y-125234323D01*
X104330867Y-125234323D02*
X104378486Y-125329561D01*
X104378486Y-125329561D02*
X104473724Y-125424800D01*
X104473724Y-125424800D02*
X104616581Y-125472419D01*
X104616581Y-125472419D02*
X104711819Y-125472419D01*
X104711819Y-125472419D02*
X104854676Y-125424800D01*
X104854676Y-125424800D02*
X104902295Y-125377180D01*
X104902295Y-125377180D02*
X104902295Y-125043847D01*
X104902295Y-125043847D02*
X104711819Y-125043847D01*
X105330867Y-125472419D02*
X105330867Y-124472419D01*
X105330867Y-124472419D02*
X105902295Y-125472419D01*
X105902295Y-125472419D02*
X105902295Y-124472419D01*
X106378486Y-125472419D02*
X106378486Y-124472419D01*
X106378486Y-124472419D02*
X106616581Y-124472419D01*
X106616581Y-124472419D02*
X106759438Y-124520038D01*
X106759438Y-124520038D02*
X106854676Y-124615276D01*
X106854676Y-124615276D02*
X106902295Y-124710514D01*
X106902295Y-124710514D02*
X106949914Y-124900990D01*
X106949914Y-124900990D02*
X106949914Y-125043847D01*
X106949914Y-125043847D02*
X106902295Y-125234323D01*
X106902295Y-125234323D02*
X106854676Y-125329561D01*
X106854676Y-125329561D02*
X106759438Y-125424800D01*
X106759438Y-125424800D02*
X106616581Y-125472419D01*
X106616581Y-125472419D02*
X106378486Y-125472419D01*
X88349523Y-112677180D02*
X88301904Y-112724800D01*
X88301904Y-112724800D02*
X88159047Y-112772419D01*
X88159047Y-112772419D02*
X88063809Y-112772419D01*
X88063809Y-112772419D02*
X87920952Y-112724800D01*
X87920952Y-112724800D02*
X87825714Y-112629561D01*
X87825714Y-112629561D02*
X87778095Y-112534323D01*
X87778095Y-112534323D02*
X87730476Y-112343847D01*
X87730476Y-112343847D02*
X87730476Y-112200990D01*
X87730476Y-112200990D02*
X87778095Y-112010514D01*
X87778095Y-112010514D02*
X87825714Y-111915276D01*
X87825714Y-111915276D02*
X87920952Y-111820038D01*
X87920952Y-111820038D02*
X88063809Y-111772419D01*
X88063809Y-111772419D02*
X88159047Y-111772419D01*
X88159047Y-111772419D02*
X88301904Y-111820038D01*
X88301904Y-111820038D02*
X88349523Y-111867657D01*
X88730476Y-112724800D02*
X88873333Y-112772419D01*
X88873333Y-112772419D02*
X89111428Y-112772419D01*
X89111428Y-112772419D02*
X89206666Y-112724800D01*
X89206666Y-112724800D02*
X89254285Y-112677180D01*
X89254285Y-112677180D02*
X89301904Y-112581942D01*
X89301904Y-112581942D02*
X89301904Y-112486704D01*
X89301904Y-112486704D02*
X89254285Y-112391466D01*
X89254285Y-112391466D02*
X89206666Y-112343847D01*
X89206666Y-112343847D02*
X89111428Y-112296228D01*
X89111428Y-112296228D02*
X88920952Y-112248609D01*
X88920952Y-112248609D02*
X88825714Y-112200990D01*
X88825714Y-112200990D02*
X88778095Y-112153371D01*
X88778095Y-112153371D02*
X88730476Y-112058133D01*
X88730476Y-112058133D02*
X88730476Y-111962895D01*
X88730476Y-111962895D02*
X88778095Y-111867657D01*
X88778095Y-111867657D02*
X88825714Y-111820038D01*
X88825714Y-111820038D02*
X88920952Y-111772419D01*
X88920952Y-111772419D02*
X89159047Y-111772419D01*
X89159047Y-111772419D02*
X89301904Y-111820038D01*
X105092772Y-110232419D02*
X105092772Y-109232419D01*
X105568962Y-110232419D02*
X105568962Y-109232419D01*
X105568962Y-109232419D02*
X106140390Y-110232419D01*
X106140390Y-110232419D02*
X106140390Y-109232419D01*
X106473724Y-109232419D02*
X107045152Y-109232419D01*
X106759438Y-110232419D02*
X106759438Y-109232419D01*
X87730476Y-115264800D02*
X87873333Y-115312419D01*
X87873333Y-115312419D02*
X88111428Y-115312419D01*
X88111428Y-115312419D02*
X88206666Y-115264800D01*
X88206666Y-115264800D02*
X88254285Y-115217180D01*
X88254285Y-115217180D02*
X88301904Y-115121942D01*
X88301904Y-115121942D02*
X88301904Y-115026704D01*
X88301904Y-115026704D02*
X88254285Y-114931466D01*
X88254285Y-114931466D02*
X88206666Y-114883847D01*
X88206666Y-114883847D02*
X88111428Y-114836228D01*
X88111428Y-114836228D02*
X87920952Y-114788609D01*
X87920952Y-114788609D02*
X87825714Y-114740990D01*
X87825714Y-114740990D02*
X87778095Y-114693371D01*
X87778095Y-114693371D02*
X87730476Y-114598133D01*
X87730476Y-114598133D02*
X87730476Y-114502895D01*
X87730476Y-114502895D02*
X87778095Y-114407657D01*
X87778095Y-114407657D02*
X87825714Y-114360038D01*
X87825714Y-114360038D02*
X87920952Y-114312419D01*
X87920952Y-114312419D02*
X88159047Y-114312419D01*
X88159047Y-114312419D02*
X88301904Y-114360038D01*
X89301904Y-115217180D02*
X89254285Y-115264800D01*
X89254285Y-115264800D02*
X89111428Y-115312419D01*
X89111428Y-115312419D02*
X89016190Y-115312419D01*
X89016190Y-115312419D02*
X88873333Y-115264800D01*
X88873333Y-115264800D02*
X88778095Y-115169561D01*
X88778095Y-115169561D02*
X88730476Y-115074323D01*
X88730476Y-115074323D02*
X88682857Y-114883847D01*
X88682857Y-114883847D02*
X88682857Y-114740990D01*
X88682857Y-114740990D02*
X88730476Y-114550514D01*
X88730476Y-114550514D02*
X88778095Y-114455276D01*
X88778095Y-114455276D02*
X88873333Y-114360038D01*
X88873333Y-114360038D02*
X89016190Y-114312419D01*
X89016190Y-114312419D02*
X89111428Y-114312419D01*
X89111428Y-114312419D02*
X89254285Y-114360038D01*
X89254285Y-114360038D02*
X89301904Y-114407657D01*
X89730476Y-115312419D02*
X89730476Y-114312419D01*
X90301904Y-115312419D02*
X89873333Y-114740990D01*
X90301904Y-114312419D02*
X89730476Y-114883847D01*
X87730476Y-107406704D02*
X88206666Y-107406704D01*
X87635238Y-107692419D02*
X87968571Y-106692419D01*
X87968571Y-106692419D02*
X88301904Y-107692419D01*
X88635238Y-107692419D02*
X88635238Y-106692419D01*
X88635238Y-106692419D02*
X89206666Y-107692419D01*
X89206666Y-107692419D02*
X89206666Y-106692419D01*
X104568962Y-117804800D02*
X104711819Y-117852419D01*
X104711819Y-117852419D02*
X104949914Y-117852419D01*
X104949914Y-117852419D02*
X105045152Y-117804800D01*
X105045152Y-117804800D02*
X105092771Y-117757180D01*
X105092771Y-117757180D02*
X105140390Y-117661942D01*
X105140390Y-117661942D02*
X105140390Y-117566704D01*
X105140390Y-117566704D02*
X105092771Y-117471466D01*
X105092771Y-117471466D02*
X105045152Y-117423847D01*
X105045152Y-117423847D02*
X104949914Y-117376228D01*
X104949914Y-117376228D02*
X104759438Y-117328609D01*
X104759438Y-117328609D02*
X104664200Y-117280990D01*
X104664200Y-117280990D02*
X104616581Y-117233371D01*
X104616581Y-117233371D02*
X104568962Y-117138133D01*
X104568962Y-117138133D02*
X104568962Y-117042895D01*
X104568962Y-117042895D02*
X104616581Y-116947657D01*
X104616581Y-116947657D02*
X104664200Y-116900038D01*
X104664200Y-116900038D02*
X104759438Y-116852419D01*
X104759438Y-116852419D02*
X104997533Y-116852419D01*
X104997533Y-116852419D02*
X105140390Y-116900038D01*
X106140390Y-117757180D02*
X106092771Y-117804800D01*
X106092771Y-117804800D02*
X105949914Y-117852419D01*
X105949914Y-117852419D02*
X105854676Y-117852419D01*
X105854676Y-117852419D02*
X105711819Y-117804800D01*
X105711819Y-117804800D02*
X105616581Y-117709561D01*
X105616581Y-117709561D02*
X105568962Y-117614323D01*
X105568962Y-117614323D02*
X105521343Y-117423847D01*
X105521343Y-117423847D02*
X105521343Y-117280990D01*
X105521343Y-117280990D02*
X105568962Y-117090514D01*
X105568962Y-117090514D02*
X105616581Y-116995276D01*
X105616581Y-116995276D02*
X105711819Y-116900038D01*
X105711819Y-116900038D02*
X105854676Y-116852419D01*
X105854676Y-116852419D02*
X105949914Y-116852419D01*
X105949914Y-116852419D02*
X106092771Y-116900038D01*
X106092771Y-116900038D02*
X106140390Y-116947657D01*
X107045152Y-117852419D02*
X106568962Y-117852419D01*
X106568962Y-117852419D02*
X106568962Y-116852419D01*
X88301904Y-124520038D02*
X88206666Y-124472419D01*
X88206666Y-124472419D02*
X88063809Y-124472419D01*
X88063809Y-124472419D02*
X87920952Y-124520038D01*
X87920952Y-124520038D02*
X87825714Y-124615276D01*
X87825714Y-124615276D02*
X87778095Y-124710514D01*
X87778095Y-124710514D02*
X87730476Y-124900990D01*
X87730476Y-124900990D02*
X87730476Y-125043847D01*
X87730476Y-125043847D02*
X87778095Y-125234323D01*
X87778095Y-125234323D02*
X87825714Y-125329561D01*
X87825714Y-125329561D02*
X87920952Y-125424800D01*
X87920952Y-125424800D02*
X88063809Y-125472419D01*
X88063809Y-125472419D02*
X88159047Y-125472419D01*
X88159047Y-125472419D02*
X88301904Y-125424800D01*
X88301904Y-125424800D02*
X88349523Y-125377180D01*
X88349523Y-125377180D02*
X88349523Y-125043847D01*
X88349523Y-125043847D02*
X88159047Y-125043847D01*
X88778095Y-125472419D02*
X88778095Y-124472419D01*
X88778095Y-124472419D02*
X89349523Y-125472419D01*
X89349523Y-125472419D02*
X89349523Y-124472419D01*
X89825714Y-125472419D02*
X89825714Y-124472419D01*
X89825714Y-124472419D02*
X90063809Y-124472419D01*
X90063809Y-124472419D02*
X90206666Y-124520038D01*
X90206666Y-124520038D02*
X90301904Y-124615276D01*
X90301904Y-124615276D02*
X90349523Y-124710514D01*
X90349523Y-124710514D02*
X90397142Y-124900990D01*
X90397142Y-124900990D02*
X90397142Y-125043847D01*
X90397142Y-125043847D02*
X90349523Y-125234323D01*
X90349523Y-125234323D02*
X90301904Y-125329561D01*
X90301904Y-125329561D02*
X90206666Y-125424800D01*
X90206666Y-125424800D02*
X90063809Y-125472419D01*
X90063809Y-125472419D02*
X89825714Y-125472419D01*
X95866667Y-108257419D02*
X95866667Y-107590752D01*
X95866667Y-107685990D02*
X95914286Y-107638371D01*
X95914286Y-107638371D02*
X96009524Y-107590752D01*
X96009524Y-107590752D02*
X96152381Y-107590752D01*
X96152381Y-107590752D02*
X96247619Y-107638371D01*
X96247619Y-107638371D02*
X96295238Y-107733609D01*
X96295238Y-107733609D02*
X96295238Y-108257419D01*
X96295238Y-107733609D02*
X96342857Y-107638371D01*
X96342857Y-107638371D02*
X96438095Y-107590752D01*
X96438095Y-107590752D02*
X96580952Y-107590752D01*
X96580952Y-107590752D02*
X96676191Y-107638371D01*
X96676191Y-107638371D02*
X96723810Y-107733609D01*
X96723810Y-107733609D02*
X96723810Y-108257419D01*
X97200000Y-108257419D02*
X97200000Y-107590752D01*
X97200000Y-107257419D02*
X97152381Y-107305038D01*
X97152381Y-107305038D02*
X97200000Y-107352657D01*
X97200000Y-107352657D02*
X97247619Y-107305038D01*
X97247619Y-107305038D02*
X97200000Y-107257419D01*
X97200000Y-107257419D02*
X97200000Y-107352657D01*
X97676190Y-108257419D02*
X97676190Y-107257419D01*
X97771428Y-107876466D02*
X98057142Y-108257419D01*
X98057142Y-107590752D02*
X97676190Y-107971704D01*
X98485714Y-108257419D02*
X98485714Y-107590752D01*
X98485714Y-107781228D02*
X98533333Y-107685990D01*
X98533333Y-107685990D02*
X98580952Y-107638371D01*
X98580952Y-107638371D02*
X98676190Y-107590752D01*
X98676190Y-107590752D02*
X98771428Y-107590752D01*
X99247619Y-108257419D02*
X99152381Y-108209800D01*
X99152381Y-108209800D02*
X99104762Y-108162180D01*
X99104762Y-108162180D02*
X99057143Y-108066942D01*
X99057143Y-108066942D02*
X99057143Y-107781228D01*
X99057143Y-107781228D02*
X99104762Y-107685990D01*
X99104762Y-107685990D02*
X99152381Y-107638371D01*
X99152381Y-107638371D02*
X99247619Y-107590752D01*
X99247619Y-107590752D02*
X99390476Y-107590752D01*
X99390476Y-107590752D02*
X99485714Y-107638371D01*
X99485714Y-107638371D02*
X99533333Y-107685990D01*
X99533333Y-107685990D02*
X99580952Y-107781228D01*
X99580952Y-107781228D02*
X99580952Y-108066942D01*
X99580952Y-108066942D02*
X99533333Y-108162180D01*
X99533333Y-108162180D02*
X99485714Y-108209800D01*
X99485714Y-108209800D02*
X99390476Y-108257419D01*
X99390476Y-108257419D02*
X99247619Y-108257419D01*
X100342857Y-107733609D02*
X100485714Y-107781228D01*
X100485714Y-107781228D02*
X100533333Y-107828847D01*
X100533333Y-107828847D02*
X100580952Y-107924085D01*
X100580952Y-107924085D02*
X100580952Y-108066942D01*
X100580952Y-108066942D02*
X100533333Y-108162180D01*
X100533333Y-108162180D02*
X100485714Y-108209800D01*
X100485714Y-108209800D02*
X100390476Y-108257419D01*
X100390476Y-108257419D02*
X100009524Y-108257419D01*
X100009524Y-108257419D02*
X100009524Y-107257419D01*
X100009524Y-107257419D02*
X100342857Y-107257419D01*
X100342857Y-107257419D02*
X100438095Y-107305038D01*
X100438095Y-107305038D02*
X100485714Y-107352657D01*
X100485714Y-107352657D02*
X100533333Y-107447895D01*
X100533333Y-107447895D02*
X100533333Y-107543133D01*
X100533333Y-107543133D02*
X100485714Y-107638371D01*
X100485714Y-107638371D02*
X100438095Y-107685990D01*
X100438095Y-107685990D02*
X100342857Y-107733609D01*
X100342857Y-107733609D02*
X100009524Y-107733609D01*
X101009524Y-107257419D02*
X101009524Y-108066942D01*
X101009524Y-108066942D02*
X101057143Y-108162180D01*
X101057143Y-108162180D02*
X101104762Y-108209800D01*
X101104762Y-108209800D02*
X101200000Y-108257419D01*
X101200000Y-108257419D02*
X101390476Y-108257419D01*
X101390476Y-108257419D02*
X101485714Y-108209800D01*
X101485714Y-108209800D02*
X101533333Y-108162180D01*
X101533333Y-108162180D02*
X101580952Y-108066942D01*
X101580952Y-108066942D02*
X101580952Y-107257419D01*
X102009524Y-108209800D02*
X102152381Y-108257419D01*
X102152381Y-108257419D02*
X102390476Y-108257419D01*
X102390476Y-108257419D02*
X102485714Y-108209800D01*
X102485714Y-108209800D02*
X102533333Y-108162180D01*
X102533333Y-108162180D02*
X102580952Y-108066942D01*
X102580952Y-108066942D02*
X102580952Y-107971704D01*
X102580952Y-107971704D02*
X102533333Y-107876466D01*
X102533333Y-107876466D02*
X102485714Y-107828847D01*
X102485714Y-107828847D02*
X102390476Y-107781228D01*
X102390476Y-107781228D02*
X102200000Y-107733609D01*
X102200000Y-107733609D02*
X102104762Y-107685990D01*
X102104762Y-107685990D02*
X102057143Y-107638371D01*
X102057143Y-107638371D02*
X102009524Y-107543133D01*
X102009524Y-107543133D02*
X102009524Y-107447895D01*
X102009524Y-107447895D02*
X102057143Y-107352657D01*
X102057143Y-107352657D02*
X102104762Y-107305038D01*
X102104762Y-107305038D02*
X102200000Y-107257419D01*
X102200000Y-107257419D02*
X102438095Y-107257419D01*
X102438095Y-107257419D02*
X102580952Y-107305038D01*
X99871429Y-106979800D02*
X102671429Y-106979800D01*
X105521343Y-114312419D02*
X106092771Y-114312419D01*
X105807057Y-115312419D02*
X105807057Y-114312419D01*
X106330867Y-114312419D02*
X106997533Y-115312419D01*
X106997533Y-114312419D02*
X106330867Y-115312419D01*
D10*
X137018095Y-134439819D02*
X137018095Y-135249342D01*
X137018095Y-135249342D02*
X137065714Y-135344580D01*
X137065714Y-135344580D02*
X137113333Y-135392200D01*
X137113333Y-135392200D02*
X137208571Y-135439819D01*
X137208571Y-135439819D02*
X137399047Y-135439819D01*
X137399047Y-135439819D02*
X137494285Y-135392200D01*
X137494285Y-135392200D02*
X137541904Y-135344580D01*
X137541904Y-135344580D02*
X137589523Y-135249342D01*
X137589523Y-135249342D02*
X137589523Y-134439819D01*
X137970476Y-134439819D02*
X138589523Y-134439819D01*
X138589523Y-134439819D02*
X138256190Y-134820771D01*
X138256190Y-134820771D02*
X138399047Y-134820771D01*
X138399047Y-134820771D02*
X138494285Y-134868390D01*
X138494285Y-134868390D02*
X138541904Y-134916009D01*
X138541904Y-134916009D02*
X138589523Y-135011247D01*
X138589523Y-135011247D02*
X138589523Y-135249342D01*
X138589523Y-135249342D02*
X138541904Y-135344580D01*
X138541904Y-135344580D02*
X138494285Y-135392200D01*
X138494285Y-135392200D02*
X138399047Y-135439819D01*
X138399047Y-135439819D02*
X138113333Y-135439819D01*
X138113333Y-135439819D02*
X138018095Y-135392200D01*
X138018095Y-135392200D02*
X137970476Y-135344580D01*
X153388095Y-100804819D02*
X153388095Y-101614342D01*
X153388095Y-101614342D02*
X153435714Y-101709580D01*
X153435714Y-101709580D02*
X153483333Y-101757200D01*
X153483333Y-101757200D02*
X153578571Y-101804819D01*
X153578571Y-101804819D02*
X153769047Y-101804819D01*
X153769047Y-101804819D02*
X153864285Y-101757200D01*
X153864285Y-101757200D02*
X153911904Y-101709580D01*
X153911904Y-101709580D02*
X153959523Y-101614342D01*
X153959523Y-101614342D02*
X153959523Y-100804819D01*
X154864285Y-101138152D02*
X154864285Y-101804819D01*
X154626190Y-100757200D02*
X154388095Y-101471485D01*
X154388095Y-101471485D02*
X155007142Y-101471485D01*
X106773809Y-87428628D02*
X106773809Y-87904819D01*
X106440476Y-86904819D02*
X106773809Y-87428628D01*
X106773809Y-87428628D02*
X107107142Y-86904819D01*
X107964285Y-87904819D02*
X107392857Y-87904819D01*
X107678571Y-87904819D02*
X107678571Y-86904819D01*
X107678571Y-86904819D02*
X107583333Y-87047676D01*
X107583333Y-87047676D02*
X107488095Y-87142914D01*
X107488095Y-87142914D02*
X107392857Y-87190533D01*
X110923809Y-82228628D02*
X110923809Y-82704819D01*
X110590476Y-81704819D02*
X110923809Y-82228628D01*
X110923809Y-82228628D02*
X111257142Y-81704819D01*
X111542857Y-81800057D02*
X111590476Y-81752438D01*
X111590476Y-81752438D02*
X111685714Y-81704819D01*
X111685714Y-81704819D02*
X111923809Y-81704819D01*
X111923809Y-81704819D02*
X112019047Y-81752438D01*
X112019047Y-81752438D02*
X112066666Y-81800057D01*
X112066666Y-81800057D02*
X112114285Y-81895295D01*
X112114285Y-81895295D02*
X112114285Y-81990533D01*
X112114285Y-81990533D02*
X112066666Y-82133390D01*
X112066666Y-82133390D02*
X111495238Y-82704819D01*
X111495238Y-82704819D02*
X112114285Y-82704819D01*
X142673809Y-110728628D02*
X142673809Y-111204819D01*
X142340476Y-110204819D02*
X142673809Y-110728628D01*
X142673809Y-110728628D02*
X143007142Y-110204819D01*
X143245238Y-110204819D02*
X143864285Y-110204819D01*
X143864285Y-110204819D02*
X143530952Y-110585771D01*
X143530952Y-110585771D02*
X143673809Y-110585771D01*
X143673809Y-110585771D02*
X143769047Y-110633390D01*
X143769047Y-110633390D02*
X143816666Y-110681009D01*
X143816666Y-110681009D02*
X143864285Y-110776247D01*
X143864285Y-110776247D02*
X143864285Y-111014342D01*
X143864285Y-111014342D02*
X143816666Y-111109580D01*
X143816666Y-111109580D02*
X143769047Y-111157200D01*
X143769047Y-111157200D02*
X143673809Y-111204819D01*
X143673809Y-111204819D02*
X143388095Y-111204819D01*
X143388095Y-111204819D02*
X143292857Y-111157200D01*
X143292857Y-111157200D02*
X143245238Y-111109580D01*
X169545714Y-98684819D02*
X169545714Y-97684819D01*
X169545714Y-97684819D02*
X169926666Y-97684819D01*
X169926666Y-97684819D02*
X170021904Y-97732438D01*
X170021904Y-97732438D02*
X170069523Y-97780057D01*
X170069523Y-97780057D02*
X170117142Y-97875295D01*
X170117142Y-97875295D02*
X170117142Y-98018152D01*
X170117142Y-98018152D02*
X170069523Y-98113390D01*
X170069523Y-98113390D02*
X170021904Y-98161009D01*
X170021904Y-98161009D02*
X169926666Y-98208628D01*
X169926666Y-98208628D02*
X169545714Y-98208628D01*
X171069523Y-98684819D02*
X170498095Y-98684819D01*
X170783809Y-98684819D02*
X170783809Y-97684819D01*
X170783809Y-97684819D02*
X170688571Y-97827676D01*
X170688571Y-97827676D02*
X170593333Y-97922914D01*
X170593333Y-97922914D02*
X170498095Y-97970533D01*
X171688571Y-97684819D02*
X171783809Y-97684819D01*
X171783809Y-97684819D02*
X171879047Y-97732438D01*
X171879047Y-97732438D02*
X171926666Y-97780057D01*
X171926666Y-97780057D02*
X171974285Y-97875295D01*
X171974285Y-97875295D02*
X172021904Y-98065771D01*
X172021904Y-98065771D02*
X172021904Y-98303866D01*
X172021904Y-98303866D02*
X171974285Y-98494342D01*
X171974285Y-98494342D02*
X171926666Y-98589580D01*
X171926666Y-98589580D02*
X171879047Y-98637200D01*
X171879047Y-98637200D02*
X171783809Y-98684819D01*
X171783809Y-98684819D02*
X171688571Y-98684819D01*
X171688571Y-98684819D02*
X171593333Y-98637200D01*
X171593333Y-98637200D02*
X171545714Y-98589580D01*
X171545714Y-98589580D02*
X171498095Y-98494342D01*
X171498095Y-98494342D02*
X171450476Y-98303866D01*
X171450476Y-98303866D02*
X171450476Y-98065771D01*
X171450476Y-98065771D02*
X171498095Y-97875295D01*
X171498095Y-97875295D02*
X171545714Y-97780057D01*
X171545714Y-97780057D02*
X171593333Y-97732438D01*
X171593333Y-97732438D02*
X171688571Y-97684819D01*
X108916666Y-74754819D02*
X108916666Y-75469104D01*
X108916666Y-75469104D02*
X108869047Y-75611961D01*
X108869047Y-75611961D02*
X108773809Y-75707200D01*
X108773809Y-75707200D02*
X108630952Y-75754819D01*
X108630952Y-75754819D02*
X108535714Y-75754819D01*
X109392857Y-75754819D02*
X109392857Y-74754819D01*
X109392857Y-74754819D02*
X109773809Y-74754819D01*
X109773809Y-74754819D02*
X109869047Y-74802438D01*
X109869047Y-74802438D02*
X109916666Y-74850057D01*
X109916666Y-74850057D02*
X109964285Y-74945295D01*
X109964285Y-74945295D02*
X109964285Y-75088152D01*
X109964285Y-75088152D02*
X109916666Y-75183390D01*
X109916666Y-75183390D02*
X109869047Y-75231009D01*
X109869047Y-75231009D02*
X109773809Y-75278628D01*
X109773809Y-75278628D02*
X109392857Y-75278628D01*
X110916666Y-75754819D02*
X110345238Y-75754819D01*
X110630952Y-75754819D02*
X110630952Y-74754819D01*
X110630952Y-74754819D02*
X110535714Y-74897676D01*
X110535714Y-74897676D02*
X110440476Y-74992914D01*
X110440476Y-74992914D02*
X110345238Y-75040533D01*
X157157142Y-63009580D02*
X157109523Y-63057200D01*
X157109523Y-63057200D02*
X156966666Y-63104819D01*
X156966666Y-63104819D02*
X156871428Y-63104819D01*
X156871428Y-63104819D02*
X156728571Y-63057200D01*
X156728571Y-63057200D02*
X156633333Y-62961961D01*
X156633333Y-62961961D02*
X156585714Y-62866723D01*
X156585714Y-62866723D02*
X156538095Y-62676247D01*
X156538095Y-62676247D02*
X156538095Y-62533390D01*
X156538095Y-62533390D02*
X156585714Y-62342914D01*
X156585714Y-62342914D02*
X156633333Y-62247676D01*
X156633333Y-62247676D02*
X156728571Y-62152438D01*
X156728571Y-62152438D02*
X156871428Y-62104819D01*
X156871428Y-62104819D02*
X156966666Y-62104819D01*
X156966666Y-62104819D02*
X157109523Y-62152438D01*
X157109523Y-62152438D02*
X157157142Y-62200057D01*
X158109523Y-63104819D02*
X157538095Y-63104819D01*
X157823809Y-63104819D02*
X157823809Y-62104819D01*
X157823809Y-62104819D02*
X157728571Y-62247676D01*
X157728571Y-62247676D02*
X157633333Y-62342914D01*
X157633333Y-62342914D02*
X157538095Y-62390533D01*
X158728571Y-62104819D02*
X158823809Y-62104819D01*
X158823809Y-62104819D02*
X158919047Y-62152438D01*
X158919047Y-62152438D02*
X158966666Y-62200057D01*
X158966666Y-62200057D02*
X159014285Y-62295295D01*
X159014285Y-62295295D02*
X159061904Y-62485771D01*
X159061904Y-62485771D02*
X159061904Y-62723866D01*
X159061904Y-62723866D02*
X159014285Y-62914342D01*
X159014285Y-62914342D02*
X158966666Y-63009580D01*
X158966666Y-63009580D02*
X158919047Y-63057200D01*
X158919047Y-63057200D02*
X158823809Y-63104819D01*
X158823809Y-63104819D02*
X158728571Y-63104819D01*
X158728571Y-63104819D02*
X158633333Y-63057200D01*
X158633333Y-63057200D02*
X158585714Y-63009580D01*
X158585714Y-63009580D02*
X158538095Y-62914342D01*
X158538095Y-62914342D02*
X158490476Y-62723866D01*
X158490476Y-62723866D02*
X158490476Y-62485771D01*
X158490476Y-62485771D02*
X158538095Y-62295295D01*
X158538095Y-62295295D02*
X158585714Y-62200057D01*
X158585714Y-62200057D02*
X158633333Y-62152438D01*
X158633333Y-62152438D02*
X158728571Y-62104819D01*
X149283333Y-58059580D02*
X149235714Y-58107200D01*
X149235714Y-58107200D02*
X149092857Y-58154819D01*
X149092857Y-58154819D02*
X148997619Y-58154819D01*
X148997619Y-58154819D02*
X148854762Y-58107200D01*
X148854762Y-58107200D02*
X148759524Y-58011961D01*
X148759524Y-58011961D02*
X148711905Y-57916723D01*
X148711905Y-57916723D02*
X148664286Y-57726247D01*
X148664286Y-57726247D02*
X148664286Y-57583390D01*
X148664286Y-57583390D02*
X148711905Y-57392914D01*
X148711905Y-57392914D02*
X148759524Y-57297676D01*
X148759524Y-57297676D02*
X148854762Y-57202438D01*
X148854762Y-57202438D02*
X148997619Y-57154819D01*
X148997619Y-57154819D02*
X149092857Y-57154819D01*
X149092857Y-57154819D02*
X149235714Y-57202438D01*
X149235714Y-57202438D02*
X149283333Y-57250057D01*
X149854762Y-57583390D02*
X149759524Y-57535771D01*
X149759524Y-57535771D02*
X149711905Y-57488152D01*
X149711905Y-57488152D02*
X149664286Y-57392914D01*
X149664286Y-57392914D02*
X149664286Y-57345295D01*
X149664286Y-57345295D02*
X149711905Y-57250057D01*
X149711905Y-57250057D02*
X149759524Y-57202438D01*
X149759524Y-57202438D02*
X149854762Y-57154819D01*
X149854762Y-57154819D02*
X150045238Y-57154819D01*
X150045238Y-57154819D02*
X150140476Y-57202438D01*
X150140476Y-57202438D02*
X150188095Y-57250057D01*
X150188095Y-57250057D02*
X150235714Y-57345295D01*
X150235714Y-57345295D02*
X150235714Y-57392914D01*
X150235714Y-57392914D02*
X150188095Y-57488152D01*
X150188095Y-57488152D02*
X150140476Y-57535771D01*
X150140476Y-57535771D02*
X150045238Y-57583390D01*
X150045238Y-57583390D02*
X149854762Y-57583390D01*
X149854762Y-57583390D02*
X149759524Y-57631009D01*
X149759524Y-57631009D02*
X149711905Y-57678628D01*
X149711905Y-57678628D02*
X149664286Y-57773866D01*
X149664286Y-57773866D02*
X149664286Y-57964342D01*
X149664286Y-57964342D02*
X149711905Y-58059580D01*
X149711905Y-58059580D02*
X149759524Y-58107200D01*
X149759524Y-58107200D02*
X149854762Y-58154819D01*
X149854762Y-58154819D02*
X150045238Y-58154819D01*
X150045238Y-58154819D02*
X150140476Y-58107200D01*
X150140476Y-58107200D02*
X150188095Y-58059580D01*
X150188095Y-58059580D02*
X150235714Y-57964342D01*
X150235714Y-57964342D02*
X150235714Y-57773866D01*
X150235714Y-57773866D02*
X150188095Y-57678628D01*
X150188095Y-57678628D02*
X150140476Y-57631009D01*
X150140476Y-57631009D02*
X150045238Y-57583390D01*
X114833333Y-63834819D02*
X114500000Y-63358628D01*
X114261905Y-63834819D02*
X114261905Y-62834819D01*
X114261905Y-62834819D02*
X114642857Y-62834819D01*
X114642857Y-62834819D02*
X114738095Y-62882438D01*
X114738095Y-62882438D02*
X114785714Y-62930057D01*
X114785714Y-62930057D02*
X114833333Y-63025295D01*
X114833333Y-63025295D02*
X114833333Y-63168152D01*
X114833333Y-63168152D02*
X114785714Y-63263390D01*
X114785714Y-63263390D02*
X114738095Y-63311009D01*
X114738095Y-63311009D02*
X114642857Y-63358628D01*
X114642857Y-63358628D02*
X114261905Y-63358628D01*
X115785714Y-63834819D02*
X115214286Y-63834819D01*
X115500000Y-63834819D02*
X115500000Y-62834819D01*
X115500000Y-62834819D02*
X115404762Y-62977676D01*
X115404762Y-62977676D02*
X115309524Y-63072914D01*
X115309524Y-63072914D02*
X115214286Y-63120533D01*
X154261905Y-73124819D02*
X154261905Y-72124819D01*
X154261905Y-72124819D02*
X154642857Y-72124819D01*
X154642857Y-72124819D02*
X154738095Y-72172438D01*
X154738095Y-72172438D02*
X154785714Y-72220057D01*
X154785714Y-72220057D02*
X154833333Y-72315295D01*
X154833333Y-72315295D02*
X154833333Y-72458152D01*
X154833333Y-72458152D02*
X154785714Y-72553390D01*
X154785714Y-72553390D02*
X154738095Y-72601009D01*
X154738095Y-72601009D02*
X154642857Y-72648628D01*
X154642857Y-72648628D02*
X154261905Y-72648628D01*
X155738095Y-72124819D02*
X155261905Y-72124819D01*
X155261905Y-72124819D02*
X155214286Y-72601009D01*
X155214286Y-72601009D02*
X155261905Y-72553390D01*
X155261905Y-72553390D02*
X155357143Y-72505771D01*
X155357143Y-72505771D02*
X155595238Y-72505771D01*
X155595238Y-72505771D02*
X155690476Y-72553390D01*
X155690476Y-72553390D02*
X155738095Y-72601009D01*
X155738095Y-72601009D02*
X155785714Y-72696247D01*
X155785714Y-72696247D02*
X155785714Y-72934342D01*
X155785714Y-72934342D02*
X155738095Y-73029580D01*
X155738095Y-73029580D02*
X155690476Y-73077200D01*
X155690476Y-73077200D02*
X155595238Y-73124819D01*
X155595238Y-73124819D02*
X155357143Y-73124819D01*
X155357143Y-73124819D02*
X155261905Y-73077200D01*
X155261905Y-73077200D02*
X155214286Y-73029580D01*
D12*
X147532380Y-65454318D02*
X147532380Y-66482413D01*
X147532380Y-66482413D02*
X147592857Y-66603365D01*
X147592857Y-66603365D02*
X147653333Y-66663842D01*
X147653333Y-66663842D02*
X147774285Y-66724318D01*
X147774285Y-66724318D02*
X148016190Y-66724318D01*
X148016190Y-66724318D02*
X148137142Y-66663842D01*
X148137142Y-66663842D02*
X148197619Y-66603365D01*
X148197619Y-66603365D02*
X148258095Y-66482413D01*
X148258095Y-66482413D02*
X148258095Y-65454318D01*
X149528095Y-66724318D02*
X148802380Y-66724318D01*
X149165237Y-66724318D02*
X149165237Y-65454318D01*
X149165237Y-65454318D02*
X149044285Y-65635746D01*
X149044285Y-65635746D02*
X148923333Y-65756699D01*
X148923333Y-65756699D02*
X148802380Y-65817175D01*
D13*
X127930337Y-59844243D02*
X127355813Y-59844243D01*
X127355813Y-59844243D02*
X127298361Y-60418767D01*
X127298361Y-60418767D02*
X127355813Y-60361314D01*
X127355813Y-60361314D02*
X127470718Y-60303862D01*
X127470718Y-60303862D02*
X127757980Y-60303862D01*
X127757980Y-60303862D02*
X127872885Y-60361314D01*
X127872885Y-60361314D02*
X127930337Y-60418767D01*
X127930337Y-60418767D02*
X127987790Y-60533671D01*
X127987790Y-60533671D02*
X127987790Y-60820933D01*
X127987790Y-60820933D02*
X127930337Y-60935838D01*
X127930337Y-60935838D02*
X127872885Y-60993291D01*
X127872885Y-60993291D02*
X127757980Y-61050743D01*
X127757980Y-61050743D02*
X127470718Y-61050743D01*
X127470718Y-61050743D02*
X127355813Y-60993291D01*
X127355813Y-60993291D02*
X127298361Y-60935838D01*
X133740148Y-56446638D02*
X133682695Y-56389186D01*
X133682695Y-56389186D02*
X133625243Y-56274281D01*
X133625243Y-56274281D02*
X133625243Y-55987019D01*
X133625243Y-55987019D02*
X133682695Y-55872114D01*
X133682695Y-55872114D02*
X133740148Y-55814662D01*
X133740148Y-55814662D02*
X133855052Y-55757209D01*
X133855052Y-55757209D02*
X133969957Y-55757209D01*
X133969957Y-55757209D02*
X134142314Y-55814662D01*
X134142314Y-55814662D02*
X134831743Y-56504090D01*
X134831743Y-56504090D02*
X134831743Y-55757209D01*
X134774291Y-55182685D02*
X134831743Y-55182685D01*
X134831743Y-55182685D02*
X134946648Y-55240138D01*
X134946648Y-55240138D02*
X135004100Y-55297590D01*
X133625243Y-54091090D02*
X133625243Y-54665614D01*
X133625243Y-54665614D02*
X134199767Y-54723066D01*
X134199767Y-54723066D02*
X134142314Y-54665614D01*
X134142314Y-54665614D02*
X134084862Y-54550709D01*
X134084862Y-54550709D02*
X134084862Y-54263447D01*
X134084862Y-54263447D02*
X134142314Y-54148542D01*
X134142314Y-54148542D02*
X134199767Y-54091090D01*
X134199767Y-54091090D02*
X134314671Y-54033637D01*
X134314671Y-54033637D02*
X134601933Y-54033637D01*
X134601933Y-54033637D02*
X134716838Y-54091090D01*
X134716838Y-54091090D02*
X134774291Y-54148542D01*
X134774291Y-54148542D02*
X134831743Y-54263447D01*
X134831743Y-54263447D02*
X134831743Y-54550709D01*
X134831743Y-54550709D02*
X134774291Y-54665614D01*
X134774291Y-54665614D02*
X134716838Y-54723066D01*
X134027410Y-52999494D02*
X134831743Y-52999494D01*
X133567791Y-53286756D02*
X134429576Y-53574018D01*
X134429576Y-53574018D02*
X134429576Y-52827137D01*
X113152980Y-50004767D02*
X112750813Y-50004767D01*
X112750813Y-50636743D02*
X112750813Y-49430243D01*
X112750813Y-49430243D02*
X113325337Y-49430243D01*
X114014766Y-49430243D02*
X114129671Y-49430243D01*
X114129671Y-49430243D02*
X114244575Y-49487695D01*
X114244575Y-49487695D02*
X114302028Y-49545148D01*
X114302028Y-49545148D02*
X114359480Y-49660052D01*
X114359480Y-49660052D02*
X114416933Y-49889862D01*
X114416933Y-49889862D02*
X114416933Y-50177124D01*
X114416933Y-50177124D02*
X114359480Y-50406933D01*
X114359480Y-50406933D02*
X114302028Y-50521838D01*
X114302028Y-50521838D02*
X114244575Y-50579291D01*
X114244575Y-50579291D02*
X114129671Y-50636743D01*
X114129671Y-50636743D02*
X114014766Y-50636743D01*
X114014766Y-50636743D02*
X113899861Y-50579291D01*
X113899861Y-50579291D02*
X113842409Y-50521838D01*
X113842409Y-50521838D02*
X113784956Y-50406933D01*
X113784956Y-50406933D02*
X113727504Y-50177124D01*
X113727504Y-50177124D02*
X113727504Y-49889862D01*
X113727504Y-49889862D02*
X113784956Y-49660052D01*
X113784956Y-49660052D02*
X113842409Y-49545148D01*
X113842409Y-49545148D02*
X113899861Y-49487695D01*
X113899861Y-49487695D02*
X114014766Y-49430243D01*
X114991457Y-50636743D02*
X115221266Y-50636743D01*
X115221266Y-50636743D02*
X115336171Y-50579291D01*
X115336171Y-50579291D02*
X115393623Y-50521838D01*
X115393623Y-50521838D02*
X115508528Y-50349481D01*
X115508528Y-50349481D02*
X115565981Y-50119671D01*
X115565981Y-50119671D02*
X115565981Y-49660052D01*
X115565981Y-49660052D02*
X115508528Y-49545148D01*
X115508528Y-49545148D02*
X115451076Y-49487695D01*
X115451076Y-49487695D02*
X115336171Y-49430243D01*
X115336171Y-49430243D02*
X115106362Y-49430243D01*
X115106362Y-49430243D02*
X114991457Y-49487695D01*
X114991457Y-49487695D02*
X114934004Y-49545148D01*
X114934004Y-49545148D02*
X114876552Y-49660052D01*
X114876552Y-49660052D02*
X114876552Y-49947314D01*
X114876552Y-49947314D02*
X114934004Y-50062219D01*
X114934004Y-50062219D02*
X114991457Y-50119671D01*
X114991457Y-50119671D02*
X115106362Y-50177124D01*
X115106362Y-50177124D02*
X115336171Y-50177124D01*
X115336171Y-50177124D02*
X115451076Y-50119671D01*
X115451076Y-50119671D02*
X115508528Y-50062219D01*
X115508528Y-50062219D02*
X115565981Y-49947314D01*
X113382790Y-61050743D02*
X112693361Y-61050743D01*
X113038075Y-61050743D02*
X113038075Y-59844243D01*
X113038075Y-59844243D02*
X112923171Y-60016600D01*
X112923171Y-60016600D02*
X112808266Y-60131505D01*
X112808266Y-60131505D02*
X112693361Y-60188957D01*
X127413266Y-58510743D02*
X127643075Y-58510743D01*
X127643075Y-58510743D02*
X127757980Y-58453291D01*
X127757980Y-58453291D02*
X127815432Y-58395838D01*
X127815432Y-58395838D02*
X127930337Y-58223481D01*
X127930337Y-58223481D02*
X127987790Y-57993671D01*
X127987790Y-57993671D02*
X127987790Y-57534052D01*
X127987790Y-57534052D02*
X127930337Y-57419148D01*
X127930337Y-57419148D02*
X127872885Y-57361695D01*
X127872885Y-57361695D02*
X127757980Y-57304243D01*
X127757980Y-57304243D02*
X127528171Y-57304243D01*
X127528171Y-57304243D02*
X127413266Y-57361695D01*
X127413266Y-57361695D02*
X127355813Y-57419148D01*
X127355813Y-57419148D02*
X127298361Y-57534052D01*
X127298361Y-57534052D02*
X127298361Y-57821314D01*
X127298361Y-57821314D02*
X127355813Y-57936219D01*
X127355813Y-57936219D02*
X127413266Y-57993671D01*
X127413266Y-57993671D02*
X127528171Y-58051124D01*
X127528171Y-58051124D02*
X127757980Y-58051124D01*
X127757980Y-58051124D02*
X127872885Y-57993671D01*
X127872885Y-57993671D02*
X127930337Y-57936219D01*
X127930337Y-57936219D02*
X127987790Y-57821314D01*
X113267885Y-57304243D02*
X113038075Y-57304243D01*
X113038075Y-57304243D02*
X112923171Y-57361695D01*
X112923171Y-57361695D02*
X112865718Y-57419148D01*
X112865718Y-57419148D02*
X112750813Y-57591505D01*
X112750813Y-57591505D02*
X112693361Y-57821314D01*
X112693361Y-57821314D02*
X112693361Y-58280933D01*
X112693361Y-58280933D02*
X112750813Y-58395838D01*
X112750813Y-58395838D02*
X112808266Y-58453291D01*
X112808266Y-58453291D02*
X112923171Y-58510743D01*
X112923171Y-58510743D02*
X113152980Y-58510743D01*
X113152980Y-58510743D02*
X113267885Y-58453291D01*
X113267885Y-58453291D02*
X113325337Y-58395838D01*
X113325337Y-58395838D02*
X113382790Y-58280933D01*
X113382790Y-58280933D02*
X113382790Y-57993671D01*
X113382790Y-57993671D02*
X113325337Y-57878767D01*
X113325337Y-57878767D02*
X113267885Y-57821314D01*
X113267885Y-57821314D02*
X113152980Y-57763862D01*
X113152980Y-57763862D02*
X112923171Y-57763862D01*
X112923171Y-57763862D02*
X112808266Y-57821314D01*
X112808266Y-57821314D02*
X112750813Y-57878767D01*
X112750813Y-57878767D02*
X112693361Y-57993671D01*
D10*
X147261905Y-73124819D02*
X147261905Y-72124819D01*
X147261905Y-72124819D02*
X147642857Y-72124819D01*
X147642857Y-72124819D02*
X147738095Y-72172438D01*
X147738095Y-72172438D02*
X147785714Y-72220057D01*
X147785714Y-72220057D02*
X147833333Y-72315295D01*
X147833333Y-72315295D02*
X147833333Y-72458152D01*
X147833333Y-72458152D02*
X147785714Y-72553390D01*
X147785714Y-72553390D02*
X147738095Y-72601009D01*
X147738095Y-72601009D02*
X147642857Y-72648628D01*
X147642857Y-72648628D02*
X147261905Y-72648628D01*
X148214286Y-72220057D02*
X148261905Y-72172438D01*
X148261905Y-72172438D02*
X148357143Y-72124819D01*
X148357143Y-72124819D02*
X148595238Y-72124819D01*
X148595238Y-72124819D02*
X148690476Y-72172438D01*
X148690476Y-72172438D02*
X148738095Y-72220057D01*
X148738095Y-72220057D02*
X148785714Y-72315295D01*
X148785714Y-72315295D02*
X148785714Y-72410533D01*
X148785714Y-72410533D02*
X148738095Y-72553390D01*
X148738095Y-72553390D02*
X148166667Y-73124819D01*
X148166667Y-73124819D02*
X148785714Y-73124819D01*
X96411905Y-53974819D02*
X96411905Y-52974819D01*
X96411905Y-52974819D02*
X96792857Y-52974819D01*
X96792857Y-52974819D02*
X96888095Y-53022438D01*
X96888095Y-53022438D02*
X96935714Y-53070057D01*
X96935714Y-53070057D02*
X96983333Y-53165295D01*
X96983333Y-53165295D02*
X96983333Y-53308152D01*
X96983333Y-53308152D02*
X96935714Y-53403390D01*
X96935714Y-53403390D02*
X96888095Y-53451009D01*
X96888095Y-53451009D02*
X96792857Y-53498628D01*
X96792857Y-53498628D02*
X96411905Y-53498628D01*
X97935714Y-53974819D02*
X97364286Y-53974819D01*
X97650000Y-53974819D02*
X97650000Y-52974819D01*
X97650000Y-52974819D02*
X97554762Y-53117676D01*
X97554762Y-53117676D02*
X97459524Y-53212914D01*
X97459524Y-53212914D02*
X97364286Y-53260533D01*
X164250933Y-55759580D02*
X164203314Y-55807200D01*
X164203314Y-55807200D02*
X164060457Y-55854819D01*
X164060457Y-55854819D02*
X163965219Y-55854819D01*
X163965219Y-55854819D02*
X163822362Y-55807200D01*
X163822362Y-55807200D02*
X163727124Y-55711961D01*
X163727124Y-55711961D02*
X163679505Y-55616723D01*
X163679505Y-55616723D02*
X163631886Y-55426247D01*
X163631886Y-55426247D02*
X163631886Y-55283390D01*
X163631886Y-55283390D02*
X163679505Y-55092914D01*
X163679505Y-55092914D02*
X163727124Y-54997676D01*
X163727124Y-54997676D02*
X163822362Y-54902438D01*
X163822362Y-54902438D02*
X163965219Y-54854819D01*
X163965219Y-54854819D02*
X164060457Y-54854819D01*
X164060457Y-54854819D02*
X164203314Y-54902438D01*
X164203314Y-54902438D02*
X164250933Y-54950057D01*
X165108076Y-55188152D02*
X165108076Y-55854819D01*
X164869981Y-54807200D02*
X164631886Y-55521485D01*
X164631886Y-55521485D02*
X165250933Y-55521485D01*
D14*
X160133000Y-69707452D02*
X160133000Y-69184948D01*
X161603000Y-69707452D02*
X161603000Y-69184948D01*
X161680000Y-86500000D02*
X161680000Y-87500000D01*
X161680000Y-87500000D02*
X162180000Y-87000000D01*
X162180000Y-87000000D02*
X161680000Y-86500000D01*
X162400000Y-82090000D02*
X162400000Y-94410000D01*
X162400000Y-94410000D02*
X166660000Y-94410000D01*
X166660000Y-82090000D02*
X162400000Y-82090000D01*
X170760000Y-82090000D02*
X179120000Y-82090000D01*
X179120000Y-82090000D02*
X179120000Y-94410000D01*
X179120000Y-94410000D02*
X170760000Y-94410000D01*
D15*
X166300000Y-65500000D02*
X166300000Y-67600000D01*
X166300000Y-65500000D02*
X167000000Y-65500000D01*
X166300000Y-74500000D02*
X166300000Y-72400000D01*
X177000000Y-65500000D02*
X171700000Y-65500000D01*
X177000000Y-74500000D02*
X166300000Y-74500000D01*
X177000000Y-74500000D02*
X177000000Y-65500000D01*
D14*
X144465000Y-144161252D02*
X144465000Y-143638748D01*
X145935000Y-144161252D02*
X145935000Y-143638748D01*
X125615000Y-81161252D02*
X125615000Y-80638748D01*
X127085000Y-81161252D02*
X127085000Y-80638748D01*
X129215000Y-140538748D02*
X129215000Y-141061252D01*
X130685000Y-140538748D02*
X130685000Y-141061252D01*
X121465000Y-79611252D02*
X121465000Y-79088748D01*
X122935000Y-79611252D02*
X122935000Y-79088748D01*
X122940000Y-72380000D02*
X122940000Y-72095000D01*
X122940000Y-75105000D02*
X122940000Y-73550000D01*
X124860000Y-72095000D02*
X122940000Y-72095000D01*
X124860000Y-73650000D02*
X124860000Y-72095000D01*
X124860000Y-75105000D02*
X122940000Y-75105000D01*
X124860000Y-75105000D02*
X124860000Y-74820000D01*
X126090000Y-74820000D02*
X124860000Y-74820000D01*
X124890000Y-84890000D02*
X124890000Y-85840000D01*
X124890000Y-95110000D02*
X124890000Y-94160000D01*
X125840000Y-84890000D02*
X124890000Y-84890000D01*
X125840000Y-95110000D02*
X124890000Y-95110000D01*
X134160000Y-84890000D02*
X135110000Y-84890000D01*
X134160000Y-95110000D02*
X135110000Y-95110000D01*
X135110000Y-84890000D02*
X135110000Y-85840000D01*
X135110000Y-95110000D02*
X135110000Y-94160000D01*
X124275000Y-85840000D02*
X123935000Y-85370000D01*
X124615000Y-85370000D01*
X124275000Y-85840000D01*
G36*
X124275000Y-85840000D02*
G01*
X123935000Y-85370000D01*
X124615000Y-85370000D01*
X124275000Y-85840000D01*
G37*
X120865000Y-90238748D02*
X120865000Y-90761252D01*
X122335000Y-90238748D02*
X122335000Y-90761252D01*
X110865000Y-94238748D02*
X110865000Y-94761252D01*
X112335000Y-94238748D02*
X112335000Y-94761252D01*
X121065000Y-84961252D02*
X121065000Y-84438748D01*
X122535000Y-84961252D02*
X122535000Y-84438748D01*
X117611252Y-80615000D02*
X117088748Y-80615000D01*
X117611252Y-82085000D02*
X117088748Y-82085000D01*
X145961252Y-105515000D02*
X145438748Y-105515000D01*
X145961252Y-106985000D02*
X145438748Y-106985000D01*
X147438748Y-121165000D02*
X147961252Y-121165000D01*
X147438748Y-122635000D02*
X147961252Y-122635000D01*
X157853252Y-100664400D02*
X157330748Y-100664400D01*
X157853252Y-102134400D02*
X157330748Y-102134400D01*
X149313000Y-105826252D02*
X149313000Y-105303748D01*
X150783000Y-105826252D02*
X150783000Y-105303748D01*
X80064600Y-69784400D02*
X80064600Y-70784400D01*
X80064600Y-70784400D02*
X81064600Y-70284400D01*
X81064600Y-70284400D02*
X80064600Y-69784400D01*
X81454600Y-65074400D02*
X90574600Y-65074400D01*
X81454600Y-79664400D02*
X82764600Y-79664400D01*
X81454600Y-98354400D02*
X81454600Y-65074400D01*
X82764600Y-66374400D02*
X89264600Y-66374400D01*
X82764600Y-79664400D02*
X82764600Y-66374400D01*
X82764600Y-83764400D02*
X81454600Y-83764400D01*
X82764600Y-83764400D02*
X82764600Y-83764400D01*
X82764600Y-97054400D02*
X82764600Y-83764400D01*
X89264600Y-66374400D02*
X89264600Y-97054400D01*
X89264600Y-97054400D02*
X82764600Y-97054400D01*
X90574600Y-65074400D02*
X90574600Y-98354400D01*
X90574600Y-98354400D02*
X81454600Y-98354400D01*
D13*
X113460000Y-103825000D02*
X113460000Y-127320000D01*
X114730000Y-105730000D02*
X114730000Y-108270000D01*
X114730000Y-108270000D02*
X114730000Y-126050000D01*
X114730000Y-108270000D02*
X117270000Y-108270000D01*
X114730000Y-126050000D02*
X117270000Y-126050000D01*
X116000000Y-129860000D02*
X138860000Y-129860000D01*
X117270000Y-105730000D02*
X114730000Y-105730000D01*
X117270000Y-108270000D02*
X117270000Y-105730000D01*
X117270000Y-126050000D02*
X117270000Y-108270000D01*
D16*
X125096000Y-103571000D02*
X125096000Y-105095000D01*
X125096000Y-103571000D02*
X126112000Y-103571000D01*
X126112000Y-103571000D02*
X126112000Y-101920000D01*
X126112000Y-103571000D02*
X127255000Y-103571000D01*
X127255000Y-103571000D02*
X127255000Y-105095000D01*
X127255000Y-103571000D02*
X128398000Y-103571000D01*
X128398000Y-103571000D02*
X128398000Y-101920000D01*
X128398000Y-103571000D02*
X129541000Y-103571000D01*
X129541000Y-103571000D02*
X129541000Y-105095000D01*
D13*
X137590000Y-105730000D02*
X137590000Y-108270000D01*
X137590000Y-105730000D02*
X140130000Y-105730000D01*
X137590000Y-108270000D02*
X137590000Y-126050000D01*
X137590000Y-108270000D02*
X140130000Y-108270000D01*
X137590000Y-126050000D02*
X140130000Y-126050000D01*
X140130000Y-105730000D02*
X140130000Y-126050000D01*
X140130000Y-126050000D02*
X137600000Y-128640000D01*
X141400000Y-103825000D02*
X141400000Y-127320000D01*
X113460000Y-103825000D02*
G75*
G02*
X116000000Y-101285000I2540000J0D01*
G01*
X116000000Y-129860000D02*
G75*
G02*
X113460000Y-127320000I0J2540000D01*
G01*
X138860000Y-101285000D02*
G75*
G02*
X141400000Y-103825000I0J-2540000D01*
G01*
X141400000Y-127320000D02*
G75*
G02*
X138860000Y-129860000I-2540000J0D01*
G01*
X141400000Y-127320000D02*
G75*
G02*
X138860000Y-129860000I-2540000J0D01*
G01*
D17*
X125324600Y-105095000D02*
G75*
G02*
X124867400Y-105095000I-228600J0D01*
G01*
X124867400Y-105095000D02*
G75*
G02*
X125324600Y-105095000I228600J0D01*
G01*
X126340600Y-101920000D02*
G75*
G02*
X125883400Y-101920000I-228600J0D01*
G01*
X125883400Y-101920000D02*
G75*
G02*
X126340600Y-101920000I228600J0D01*
G01*
X127483600Y-105095000D02*
G75*
G02*
X127026400Y-105095000I-228600J0D01*
G01*
X127026400Y-105095000D02*
G75*
G02*
X127483600Y-105095000I228600J0D01*
G01*
X128626600Y-101920000D02*
G75*
G02*
X128169400Y-101920000I-228600J0D01*
G01*
X128169400Y-101920000D02*
G75*
G02*
X128626600Y-101920000I228600J0D01*
G01*
X129769600Y-105095000D02*
G75*
G02*
X129312400Y-105095000I-228600J0D01*
G01*
X129312400Y-105095000D02*
G75*
G02*
X129769600Y-105095000I228600J0D01*
G01*
D13*
X83460000Y-103825000D02*
X83460000Y-127320000D01*
X84730000Y-105730000D02*
X84730000Y-108270000D01*
X84730000Y-108270000D02*
X84730000Y-126050000D01*
X84730000Y-108270000D02*
X87270000Y-108270000D01*
X84730000Y-126050000D02*
X87270000Y-126050000D01*
X86000000Y-129860000D02*
X108860000Y-129860000D01*
X87270000Y-105730000D02*
X84730000Y-105730000D01*
X87270000Y-108270000D02*
X87270000Y-105730000D01*
X87270000Y-126050000D02*
X87270000Y-108270000D01*
D16*
X95096000Y-103571000D02*
X95096000Y-105095000D01*
X95096000Y-103571000D02*
X96112000Y-103571000D01*
X96112000Y-103571000D02*
X96112000Y-101920000D01*
X96112000Y-103571000D02*
X97255000Y-103571000D01*
X97255000Y-103571000D02*
X97255000Y-105095000D01*
X97255000Y-103571000D02*
X98398000Y-103571000D01*
X98398000Y-103571000D02*
X98398000Y-101920000D01*
X98398000Y-103571000D02*
X99541000Y-103571000D01*
X99541000Y-103571000D02*
X99541000Y-105095000D01*
D13*
X107590000Y-105730000D02*
X107590000Y-108270000D01*
X107590000Y-105730000D02*
X110130000Y-105730000D01*
X107590000Y-108270000D02*
X107590000Y-126050000D01*
X107590000Y-108270000D02*
X110130000Y-108270000D01*
X107590000Y-126050000D02*
X110130000Y-126050000D01*
X110130000Y-105730000D02*
X110130000Y-126050000D01*
X110130000Y-126050000D02*
X107600000Y-128640000D01*
X111400000Y-103825000D02*
X111400000Y-127320000D01*
X83460000Y-103825000D02*
G75*
G02*
X86000000Y-101285000I2540000J0D01*
G01*
X86000000Y-129860000D02*
G75*
G02*
X83460000Y-127320000I0J2540000D01*
G01*
X108860000Y-101285000D02*
G75*
G02*
X111400000Y-103825000I0J-2540000D01*
G01*
X111400000Y-127320000D02*
G75*
G02*
X108860000Y-129860000I-2540000J0D01*
G01*
X111400000Y-127320000D02*
G75*
G02*
X108860000Y-129860000I-2540000J0D01*
G01*
D17*
X95324600Y-105095000D02*
G75*
G02*
X94867400Y-105095000I-228600J0D01*
G01*
X94867400Y-105095000D02*
G75*
G02*
X95324600Y-105095000I228600J0D01*
G01*
X96340600Y-101920000D02*
G75*
G02*
X95883400Y-101920000I-228600J0D01*
G01*
X95883400Y-101920000D02*
G75*
G02*
X96340600Y-101920000I228600J0D01*
G01*
X97483600Y-105095000D02*
G75*
G02*
X97026400Y-105095000I-228600J0D01*
G01*
X97026400Y-105095000D02*
G75*
G02*
X97483600Y-105095000I228600J0D01*
G01*
X98626600Y-101920000D02*
G75*
G02*
X98169400Y-101920000I-228600J0D01*
G01*
X98169400Y-101920000D02*
G75*
G02*
X98626600Y-101920000I228600J0D01*
G01*
X99769600Y-105095000D02*
G75*
G02*
X99312400Y-105095000I-228600J0D01*
G01*
X99312400Y-105095000D02*
G75*
G02*
X99769600Y-105095000I228600J0D01*
G01*
D14*
X135130000Y-135985000D02*
X135130000Y-146265000D01*
X135130000Y-146265000D02*
X140430000Y-146265000D01*
X136780000Y-135985000D02*
X135130000Y-135985000D01*
X140430000Y-135985000D02*
X138780000Y-135985000D01*
X140430000Y-146265000D02*
X140430000Y-135985000D01*
X138780000Y-135985000D02*
G75*
G02*
X136780000Y-135985000I-1000000J0D01*
G01*
X156017000Y-103095800D02*
X154067000Y-103095800D01*
X156017000Y-103095800D02*
X157967000Y-103095800D01*
X156017000Y-113215800D02*
X154067000Y-113215800D01*
X156017000Y-113215800D02*
X157967000Y-113215800D01*
X153317000Y-103150800D02*
X153077000Y-102820800D01*
X153557000Y-102820800D01*
X153317000Y-103150800D01*
G36*
X153317000Y-103150800D02*
G01*
X153077000Y-102820800D01*
X153557000Y-102820800D01*
X153317000Y-103150800D01*
G37*
X110890000Y-86825000D02*
X117290000Y-86825000D01*
X110890000Y-91875000D02*
X117290000Y-91875000D01*
X110890000Y-91875000D02*
G75*
G02*
X110890000Y-86825000I0J2525000D01*
G01*
X117290000Y-86825000D02*
G75*
G02*
X117290000Y-91875000I0J-2525000D01*
G01*
X112664800Y-83671800D02*
X112664800Y-85571800D01*
X112664800Y-85571800D02*
X118064800Y-85571800D01*
X118064800Y-83671800D02*
X112664800Y-83671800D01*
X118064800Y-84371800D02*
X118664800Y-83771800D01*
X118064800Y-84871800D02*
X118664800Y-85471800D01*
X118064800Y-85571800D02*
X118064800Y-83671800D01*
X118664800Y-83771800D02*
X118664800Y-83771800D01*
X118664800Y-85471800D02*
X118664800Y-85471800D01*
X144275000Y-117490000D02*
X144275000Y-111090000D01*
X149325000Y-117490000D02*
X149325000Y-111090000D01*
X144275000Y-111090000D02*
G75*
G02*
X149325000Y-111090000I2525000J0D01*
G01*
X149325000Y-117490000D02*
G75*
G02*
X144275000Y-117490000I-2525000J0D01*
G01*
X161680000Y-105500000D02*
X161680000Y-106500000D01*
X161680000Y-106500000D02*
X162180000Y-106000000D01*
X162180000Y-106000000D02*
X161680000Y-105500000D01*
X162400000Y-101090000D02*
X162400000Y-113410000D01*
X162400000Y-113410000D02*
X166660000Y-113410000D01*
X166660000Y-101090000D02*
X162400000Y-101090000D01*
X170760000Y-101090000D02*
X179120000Y-101090000D01*
X179120000Y-101090000D02*
X179120000Y-113410000D01*
X179120000Y-113410000D02*
X170760000Y-113410000D01*
X111555000Y-74170000D02*
X111555000Y-76830000D01*
X114155000Y-74170000D02*
X111555000Y-74170000D01*
X114155000Y-74170000D02*
X114155000Y-76830000D01*
X114155000Y-76830000D02*
X111555000Y-76830000D01*
X115425000Y-74170000D02*
X116755000Y-74170000D01*
X116755000Y-74170000D02*
X116755000Y-75500000D01*
X152620000Y-58520000D02*
X159080000Y-58520000D01*
X152620000Y-58560000D02*
X159080000Y-58560000D01*
X152620000Y-58600000D02*
X159080000Y-58600000D01*
X152622000Y-58480000D02*
X159078000Y-58480000D01*
X152623000Y-58440000D02*
X159077000Y-58440000D01*
X152626000Y-58400000D02*
X159074000Y-58400000D01*
X152628000Y-58360000D02*
X154810000Y-58360000D01*
X152632000Y-58320000D02*
X154810000Y-58320000D01*
X152635000Y-58280000D02*
X154810000Y-58280000D01*
X152639000Y-58240000D02*
X154810000Y-58240000D01*
X152644000Y-58200000D02*
X154810000Y-58200000D01*
X152649000Y-58160000D02*
X154810000Y-58160000D01*
X152655000Y-58120000D02*
X154810000Y-58120000D01*
X152661000Y-58080000D02*
X154810000Y-58080000D01*
X152668000Y-58040000D02*
X154810000Y-58040000D01*
X152675000Y-58000000D02*
X154810000Y-58000000D01*
X152683000Y-57960000D02*
X154810000Y-57960000D01*
X152691000Y-57920000D02*
X154810000Y-57920000D01*
X152700000Y-57879000D02*
X154810000Y-57879000D01*
X152709000Y-57839000D02*
X154810000Y-57839000D01*
X152719000Y-57799000D02*
X154810000Y-57799000D01*
X152729000Y-57759000D02*
X154810000Y-57759000D01*
X152740000Y-57719000D02*
X154810000Y-57719000D01*
X152752000Y-57679000D02*
X154810000Y-57679000D01*
X152764000Y-57639000D02*
X154810000Y-57639000D01*
X152776000Y-57599000D02*
X154810000Y-57599000D01*
X152789000Y-57559000D02*
X154810000Y-57559000D01*
X152803000Y-57519000D02*
X154810000Y-57519000D01*
X152817000Y-57479000D02*
X154810000Y-57479000D01*
X152832000Y-57439000D02*
X154810000Y-57439000D01*
X152848000Y-57399000D02*
X154810000Y-57399000D01*
X152864000Y-57359000D02*
X154810000Y-57359000D01*
X152880000Y-57319000D02*
X154810000Y-57319000D01*
X152898000Y-57279000D02*
X154810000Y-57279000D01*
X152916000Y-57239000D02*
X154810000Y-57239000D01*
X152934000Y-57199000D02*
X154810000Y-57199000D01*
X152954000Y-57159000D02*
X154810000Y-57159000D01*
X152974000Y-57119000D02*
X154810000Y-57119000D01*
X152994000Y-57079000D02*
X154810000Y-57079000D01*
X153016000Y-57039000D02*
X154810000Y-57039000D01*
X153038000Y-56999000D02*
X154810000Y-56999000D01*
X153060000Y-56959000D02*
X154810000Y-56959000D01*
X153084000Y-56919000D02*
X154810000Y-56919000D01*
X153108000Y-56879000D02*
X154810000Y-56879000D01*
X153134000Y-56839000D02*
X154810000Y-56839000D01*
X153160000Y-56799000D02*
X154810000Y-56799000D01*
X153186000Y-56759000D02*
X154810000Y-56759000D01*
X153214000Y-56719000D02*
X154810000Y-56719000D01*
X153243000Y-56679000D02*
X154810000Y-56679000D01*
X153272000Y-56639000D02*
X154810000Y-56639000D01*
X153302000Y-56599000D02*
X154810000Y-56599000D01*
X153334000Y-56559000D02*
X154810000Y-56559000D01*
X153366000Y-56519000D02*
X154810000Y-56519000D01*
X153400000Y-56479000D02*
X154810000Y-56479000D01*
X153434000Y-56439000D02*
X154810000Y-56439000D01*
X153470000Y-56399000D02*
X154810000Y-56399000D01*
X153507000Y-56359000D02*
X154810000Y-56359000D01*
X153545000Y-56319000D02*
X154810000Y-56319000D01*
X153585000Y-56279000D02*
X158115000Y-56279000D01*
X153626000Y-56239000D02*
X158074000Y-56239000D01*
X153668000Y-56199000D02*
X158032000Y-56199000D01*
X153696000Y-61785241D02*
X154326000Y-61785241D01*
X153713000Y-56159000D02*
X157987000Y-56159000D01*
X153758000Y-56119000D02*
X157942000Y-56119000D01*
X153806000Y-56079000D02*
X157894000Y-56079000D01*
X153855000Y-56039000D02*
X157845000Y-56039000D01*
X153906000Y-55999000D02*
X157794000Y-55999000D01*
X153960000Y-55959000D02*
X157740000Y-55959000D01*
X154011000Y-62100241D02*
X154011000Y-61470241D01*
X154016000Y-55919000D02*
X157684000Y-55919000D01*
X154074000Y-55879000D02*
X157626000Y-55879000D01*
X154136000Y-55839000D02*
X157564000Y-55839000D01*
X154200000Y-55799000D02*
X157500000Y-55799000D01*
X154269000Y-55759000D02*
X157431000Y-55759000D01*
X154341000Y-55719000D02*
X157359000Y-55719000D01*
X154418000Y-55679000D02*
X157282000Y-55679000D01*
X154500000Y-55639000D02*
X157200000Y-55639000D01*
X154588000Y-55599000D02*
X157112000Y-55599000D01*
X154685000Y-55559000D02*
X157015000Y-55559000D01*
X154791000Y-55519000D02*
X156909000Y-55519000D01*
X154910000Y-55479000D02*
X156790000Y-55479000D01*
X155048000Y-55439000D02*
X156652000Y-55439000D01*
X155217000Y-55399000D02*
X156483000Y-55399000D01*
X155448000Y-55359000D02*
X156252000Y-55359000D01*
X156890000Y-56319000D02*
X158155000Y-56319000D01*
X156890000Y-56359000D02*
X158193000Y-56359000D01*
X156890000Y-56399000D02*
X158230000Y-56399000D01*
X156890000Y-56439000D02*
X158266000Y-56439000D01*
X156890000Y-56479000D02*
X158300000Y-56479000D01*
X156890000Y-56519000D02*
X158334000Y-56519000D01*
X156890000Y-56559000D02*
X158366000Y-56559000D01*
X156890000Y-56599000D02*
X158398000Y-56599000D01*
X156890000Y-56639000D02*
X158428000Y-56639000D01*
X156890000Y-56679000D02*
X158457000Y-56679000D01*
X156890000Y-56719000D02*
X158486000Y-56719000D01*
X156890000Y-56759000D02*
X158514000Y-56759000D01*
X156890000Y-56799000D02*
X158540000Y-56799000D01*
X156890000Y-56839000D02*
X158566000Y-56839000D01*
X156890000Y-56879000D02*
X158592000Y-56879000D01*
X156890000Y-56919000D02*
X158616000Y-56919000D01*
X156890000Y-56959000D02*
X158640000Y-56959000D01*
X156890000Y-56999000D02*
X158662000Y-56999000D01*
X156890000Y-57039000D02*
X158684000Y-57039000D01*
X156890000Y-57079000D02*
X158706000Y-57079000D01*
X156890000Y-57119000D02*
X158726000Y-57119000D01*
X156890000Y-57159000D02*
X158746000Y-57159000D01*
X156890000Y-57199000D02*
X158766000Y-57199000D01*
X156890000Y-57239000D02*
X158784000Y-57239000D01*
X156890000Y-57279000D02*
X158802000Y-57279000D01*
X156890000Y-57319000D02*
X158820000Y-57319000D01*
X156890000Y-57359000D02*
X158836000Y-57359000D01*
X156890000Y-57399000D02*
X158852000Y-57399000D01*
X156890000Y-57439000D02*
X158868000Y-57439000D01*
X156890000Y-57479000D02*
X158883000Y-57479000D01*
X156890000Y-57519000D02*
X158897000Y-57519000D01*
X156890000Y-57559000D02*
X158911000Y-57559000D01*
X156890000Y-57599000D02*
X158924000Y-57599000D01*
X156890000Y-57639000D02*
X158936000Y-57639000D01*
X156890000Y-57679000D02*
X158948000Y-57679000D01*
X156890000Y-57719000D02*
X158960000Y-57719000D01*
X156890000Y-57759000D02*
X158971000Y-57759000D01*
X156890000Y-57799000D02*
X158981000Y-57799000D01*
X156890000Y-57839000D02*
X158991000Y-57839000D01*
X156890000Y-57879000D02*
X159000000Y-57879000D01*
X156890000Y-57920000D02*
X159009000Y-57920000D01*
X156890000Y-57960000D02*
X159017000Y-57960000D01*
X156890000Y-58000000D02*
X159025000Y-58000000D01*
X156890000Y-58040000D02*
X159032000Y-58040000D01*
X156890000Y-58080000D02*
X159039000Y-58080000D01*
X156890000Y-58120000D02*
X159045000Y-58120000D01*
X156890000Y-58160000D02*
X159051000Y-58160000D01*
X156890000Y-58200000D02*
X159056000Y-58200000D01*
X156890000Y-58240000D02*
X159061000Y-58240000D01*
X156890000Y-58280000D02*
X159065000Y-58280000D01*
X156890000Y-58320000D02*
X159068000Y-58320000D01*
X156890000Y-58360000D02*
X159072000Y-58360000D01*
X159120000Y-58600000D02*
G75*
G02*
X152580000Y-58600000I-3270000J0D01*
G01*
X152580000Y-58600000D02*
G75*
G02*
X159120000Y-58600000I3270000J0D01*
G01*
X149015000Y-60661252D02*
X149015000Y-60138748D01*
X150485000Y-60661252D02*
X150485000Y-60138748D01*
X112822936Y-64290000D02*
X117177064Y-64290000D01*
X112822936Y-67710000D02*
X117177064Y-67710000D01*
X124670000Y-67330000D02*
X124670000Y-66000000D01*
X126000000Y-67330000D02*
X124670000Y-67330000D01*
X127270000Y-64670000D02*
X129870000Y-64670000D01*
X127270000Y-67330000D02*
X127270000Y-64670000D01*
X127270000Y-67330000D02*
X129870000Y-67330000D01*
X129870000Y-67330000D02*
X129870000Y-64670000D01*
X153670000Y-73670000D02*
X155000000Y-73670000D01*
X153670000Y-75000000D02*
X153670000Y-73670000D01*
X153670000Y-76270000D02*
X153670000Y-94110000D01*
X153670000Y-76270000D02*
X156330000Y-76270000D01*
X153670000Y-94110000D02*
X156330000Y-94110000D01*
X156330000Y-76270000D02*
X156330000Y-94110000D01*
D18*
X152600000Y-64700000D02*
X156100000Y-64700000D01*
X152600000Y-71200000D02*
X152600000Y-64700000D01*
X156100000Y-64700000D02*
X156100000Y-71200000D01*
X156100000Y-71200000D02*
X152600000Y-71200000D01*
X158375000Y-71075000D02*
X156625000Y-71075000D01*
D19*
X104506000Y-47616000D02*
X112253000Y-47616000D01*
X104506000Y-48124000D02*
X104506000Y-47616000D01*
X104506000Y-48124000D02*
X107046000Y-48124000D01*
X104506000Y-48632000D02*
X104506000Y-48124000D01*
X104506000Y-51680000D02*
X104506000Y-48632000D01*
X104506000Y-51680000D02*
X104506000Y-51807000D01*
X104506000Y-51680000D02*
X109586000Y-51680000D01*
X104506000Y-61840000D02*
X104506000Y-51807000D01*
X105141000Y-62475000D02*
X104506000Y-61840000D01*
X107046000Y-48124000D02*
X109586000Y-48124000D01*
X109586000Y-48124000D02*
X130414000Y-48124000D01*
X109586000Y-48632000D02*
X109586000Y-48124000D01*
X109586000Y-48632000D02*
X109713000Y-48632000D01*
X109586000Y-51680000D02*
X110475000Y-51680000D01*
X109713000Y-51045000D02*
X109713000Y-48632000D01*
X109967000Y-62475000D02*
X105141000Y-62475000D01*
X109967000Y-62475000D02*
X110475000Y-61967000D01*
X110475000Y-51680000D02*
X110729000Y-51680000D01*
X110475000Y-61967000D02*
X110475000Y-51680000D01*
X110729000Y-51680000D02*
X110729000Y-52442000D01*
X110729000Y-51680000D02*
X129271000Y-51680000D01*
X110729000Y-52442000D02*
X129271000Y-52442000D01*
X111872000Y-46981000D02*
X111872000Y-41901000D01*
X112253000Y-47616000D02*
X127747000Y-47616000D01*
X112380000Y-41393000D02*
X112634000Y-41393000D01*
X112634000Y-41393000D02*
X127366000Y-41393000D01*
X127366000Y-41393000D02*
X127620000Y-41393000D01*
X127747000Y-47616000D02*
X135494000Y-47616000D01*
X128128000Y-46981000D02*
X128128000Y-41901000D01*
X129271000Y-51680000D02*
X129271000Y-52442000D01*
X129271000Y-51680000D02*
X129525000Y-51680000D01*
X129525000Y-51680000D02*
X130414000Y-51680000D01*
X129525000Y-61967000D02*
X129525000Y-51680000D01*
X129525000Y-61967000D02*
X130033000Y-62475000D01*
X130033000Y-62475000D02*
X134986000Y-62475000D01*
X130287000Y-48632000D02*
X130414000Y-48632000D01*
X130287000Y-51045000D02*
X130287000Y-48632000D01*
X130414000Y-48124000D02*
X132954000Y-48124000D01*
X130414000Y-48632000D02*
X130414000Y-48124000D01*
X130414000Y-51680000D02*
X135494000Y-51680000D01*
X132954000Y-48124000D02*
X135494000Y-48124000D01*
X134986000Y-62475000D02*
X135494000Y-61967000D01*
X135494000Y-47616000D02*
X135494000Y-48124000D01*
X135494000Y-48124000D02*
X135494000Y-48632000D01*
X135494000Y-48632000D02*
X135494000Y-51680000D01*
X135494000Y-51680000D02*
X135494000Y-51807000D01*
X135494000Y-61967000D02*
X135494000Y-51807000D01*
X110348000Y-51680000D02*
G75*
G02*
X109713000Y-51045000I-1J634999D01*
G01*
X111872000Y-41901000D02*
G75*
G02*
X112380000Y-41393000I508001J-1D01*
G01*
X111872000Y-46981000D02*
G75*
G02*
X111237000Y-47616000I-634999J-1D01*
G01*
X127620000Y-41393000D02*
G75*
G02*
X128128000Y-41901000I0J-508000D01*
G01*
X128763000Y-47616000D02*
G75*
G02*
X128128000Y-46981000I0J635000D01*
G01*
X130287000Y-51045000D02*
G75*
G02*
X129652000Y-51680000I-635000J0D01*
G01*
X109128800Y-59300000D02*
G75*
G02*
X105826800Y-59300000I-1651000J0D01*
G01*
X105826800Y-59300000D02*
G75*
G02*
X109128800Y-59300000I1651000J0D01*
G01*
X134173200Y-59300000D02*
G75*
G02*
X130871200Y-59300000I-1651000J0D01*
G01*
X130871200Y-59300000D02*
G75*
G02*
X134173200Y-59300000I1651000J0D01*
G01*
D20*
G36*
X135494000Y-48124000D02*
G01*
X104506000Y-48124000D01*
X104506000Y-47616000D01*
X135494000Y-47616000D01*
X135494000Y-48124000D01*
G37*
G36*
X129271000Y-52442000D02*
G01*
X110729000Y-52442000D01*
X110729000Y-51680000D01*
X129271000Y-51680000D01*
X129271000Y-52442000D01*
G37*
G36*
X114920000Y-59681000D02*
G01*
X114107200Y-59681000D01*
X114107200Y-52442000D01*
X114920000Y-52442000D01*
X114920000Y-59681000D01*
G37*
G36*
X116291600Y-57141000D02*
G01*
X115478800Y-57141000D01*
X115478800Y-52442000D01*
X116291600Y-52442000D01*
X116291600Y-57141000D01*
G37*
G36*
X117663200Y-59681000D02*
G01*
X116850400Y-59681000D01*
X116850400Y-52442000D01*
X117663200Y-52442000D01*
X117663200Y-59681000D01*
G37*
G36*
X119034800Y-57141000D02*
G01*
X118222000Y-57141000D01*
X118222000Y-52442000D01*
X119034800Y-52442000D01*
X119034800Y-57141000D01*
G37*
G36*
X120381000Y-59681000D02*
G01*
X119568200Y-59681000D01*
X119568200Y-52442000D01*
X120381000Y-52442000D01*
X120381000Y-59681000D01*
G37*
G36*
X121752600Y-57141000D02*
G01*
X120939800Y-57141000D01*
X120939800Y-52442000D01*
X121752600Y-52442000D01*
X121752600Y-57141000D01*
G37*
G36*
X123149600Y-59681000D02*
G01*
X122336800Y-59681000D01*
X122336800Y-52442000D01*
X123149600Y-52442000D01*
X123149600Y-59681000D01*
G37*
G36*
X124521200Y-57141000D02*
G01*
X123708400Y-57141000D01*
X123708400Y-52442000D01*
X124521200Y-52442000D01*
X124521200Y-57141000D01*
G37*
G36*
X125892800Y-59681000D02*
G01*
X125080000Y-59681000D01*
X125080000Y-52442000D01*
X125892800Y-52442000D01*
X125892800Y-59681000D01*
G37*
D14*
X146670000Y-73670000D02*
X148000000Y-73670000D01*
X146670000Y-75000000D02*
X146670000Y-73670000D01*
X146670000Y-76270000D02*
X146670000Y-96650000D01*
X146670000Y-76270000D02*
X149330000Y-76270000D01*
X146670000Y-96650000D02*
X149330000Y-96650000D01*
X149330000Y-76270000D02*
X149330000Y-96650000D01*
X95820000Y-54520000D02*
X97150000Y-54520000D01*
X95820000Y-55850000D02*
X95820000Y-54520000D01*
X95820000Y-57120000D02*
X95820000Y-59720000D01*
X95820000Y-57120000D02*
X98480000Y-57120000D01*
X95820000Y-59720000D02*
X98480000Y-59720000D01*
X98480000Y-57120000D02*
X98480000Y-59720000D01*
X160917359Y-57961000D02*
X161547359Y-57961000D01*
X161232359Y-57646000D02*
X161232359Y-58276000D01*
X164417600Y-56570000D02*
X164417600Y-63030000D01*
X164457600Y-56570000D02*
X164457600Y-63030000D01*
X164497600Y-56570000D02*
X164497600Y-63030000D01*
X164537600Y-56572000D02*
X164537600Y-63028000D01*
X164577600Y-56573000D02*
X164577600Y-63027000D01*
X164617600Y-56576000D02*
X164617600Y-63024000D01*
X164657600Y-56578000D02*
X164657600Y-58760000D01*
X164657600Y-60840000D02*
X164657600Y-63022000D01*
X164697600Y-56582000D02*
X164697600Y-58760000D01*
X164697600Y-60840000D02*
X164697600Y-63018000D01*
X164737600Y-56585000D02*
X164737600Y-58760000D01*
X164737600Y-60840000D02*
X164737600Y-63015000D01*
X164777600Y-56589000D02*
X164777600Y-58760000D01*
X164777600Y-60840000D02*
X164777600Y-63011000D01*
X164817600Y-56594000D02*
X164817600Y-58760000D01*
X164817600Y-60840000D02*
X164817600Y-63006000D01*
X164857600Y-56599000D02*
X164857600Y-58760000D01*
X164857600Y-60840000D02*
X164857600Y-63001000D01*
X164897600Y-56605000D02*
X164897600Y-58760000D01*
X164897600Y-60840000D02*
X164897600Y-62995000D01*
X164937600Y-56611000D02*
X164937600Y-58760000D01*
X164937600Y-60840000D02*
X164937600Y-62989000D01*
X164977600Y-56618000D02*
X164977600Y-58760000D01*
X164977600Y-60840000D02*
X164977600Y-62982000D01*
X165017600Y-56625000D02*
X165017600Y-58760000D01*
X165017600Y-60840000D02*
X165017600Y-62975000D01*
X165057600Y-56633000D02*
X165057600Y-58760000D01*
X165057600Y-60840000D02*
X165057600Y-62967000D01*
X165097600Y-56641000D02*
X165097600Y-58760000D01*
X165097600Y-60840000D02*
X165097600Y-62959000D01*
X165138600Y-56650000D02*
X165138600Y-58760000D01*
X165138600Y-60840000D02*
X165138600Y-62950000D01*
X165178600Y-56659000D02*
X165178600Y-58760000D01*
X165178600Y-60840000D02*
X165178600Y-62941000D01*
X165218600Y-56669000D02*
X165218600Y-58760000D01*
X165218600Y-60840000D02*
X165218600Y-62931000D01*
X165258600Y-56679000D02*
X165258600Y-58760000D01*
X165258600Y-60840000D02*
X165258600Y-62921000D01*
X165298600Y-56690000D02*
X165298600Y-58760000D01*
X165298600Y-60840000D02*
X165298600Y-62910000D01*
X165338600Y-56702000D02*
X165338600Y-58760000D01*
X165338600Y-60840000D02*
X165338600Y-62898000D01*
X165378600Y-56714000D02*
X165378600Y-58760000D01*
X165378600Y-60840000D02*
X165378600Y-62886000D01*
X165418600Y-56726000D02*
X165418600Y-58760000D01*
X165418600Y-60840000D02*
X165418600Y-62874000D01*
X165458600Y-56739000D02*
X165458600Y-58760000D01*
X165458600Y-60840000D02*
X165458600Y-62861000D01*
X165498600Y-56753000D02*
X165498600Y-58760000D01*
X165498600Y-60840000D02*
X165498600Y-62847000D01*
X165538600Y-56767000D02*
X165538600Y-58760000D01*
X165538600Y-60840000D02*
X165538600Y-62833000D01*
X165578600Y-56782000D02*
X165578600Y-58760000D01*
X165578600Y-60840000D02*
X165578600Y-62818000D01*
X165618600Y-56798000D02*
X165618600Y-58760000D01*
X165618600Y-60840000D02*
X165618600Y-62802000D01*
X165658600Y-56814000D02*
X165658600Y-58760000D01*
X165658600Y-60840000D02*
X165658600Y-62786000D01*
X165698600Y-56830000D02*
X165698600Y-58760000D01*
X165698600Y-60840000D02*
X165698600Y-62770000D01*
X165738600Y-56848000D02*
X165738600Y-58760000D01*
X165738600Y-60840000D02*
X165738600Y-62752000D01*
X165778600Y-56866000D02*
X165778600Y-58760000D01*
X165778600Y-60840000D02*
X165778600Y-62734000D01*
X165818600Y-56884000D02*
X165818600Y-58760000D01*
X165818600Y-60840000D02*
X165818600Y-62716000D01*
X165858600Y-56904000D02*
X165858600Y-58760000D01*
X165858600Y-60840000D02*
X165858600Y-62696000D01*
X165898600Y-56924000D02*
X165898600Y-58760000D01*
X165898600Y-60840000D02*
X165898600Y-62676000D01*
X165938600Y-56944000D02*
X165938600Y-58760000D01*
X165938600Y-60840000D02*
X165938600Y-62656000D01*
X165978600Y-56966000D02*
X165978600Y-58760000D01*
X165978600Y-60840000D02*
X165978600Y-62634000D01*
X166018600Y-56988000D02*
X166018600Y-58760000D01*
X166018600Y-60840000D02*
X166018600Y-62612000D01*
X166058600Y-57010000D02*
X166058600Y-58760000D01*
X166058600Y-60840000D02*
X166058600Y-62590000D01*
X166098600Y-57034000D02*
X166098600Y-58760000D01*
X166098600Y-60840000D02*
X166098600Y-62566000D01*
X166138600Y-57058000D02*
X166138600Y-58760000D01*
X166138600Y-60840000D02*
X166138600Y-62542000D01*
X166178600Y-57084000D02*
X166178600Y-58760000D01*
X166178600Y-60840000D02*
X166178600Y-62516000D01*
X166218600Y-57110000D02*
X166218600Y-58760000D01*
X166218600Y-60840000D02*
X166218600Y-62490000D01*
X166258600Y-57136000D02*
X166258600Y-58760000D01*
X166258600Y-60840000D02*
X166258600Y-62464000D01*
X166298600Y-57164000D02*
X166298600Y-58760000D01*
X166298600Y-60840000D02*
X166298600Y-62436000D01*
X166338600Y-57193000D02*
X166338600Y-58760000D01*
X166338600Y-60840000D02*
X166338600Y-62407000D01*
X166378600Y-57222000D02*
X166378600Y-58760000D01*
X166378600Y-60840000D02*
X166378600Y-62378000D01*
X166418600Y-57252000D02*
X166418600Y-58760000D01*
X166418600Y-60840000D02*
X166418600Y-62348000D01*
X166458600Y-57284000D02*
X166458600Y-58760000D01*
X166458600Y-60840000D02*
X166458600Y-62316000D01*
X166498600Y-57316000D02*
X166498600Y-58760000D01*
X166498600Y-60840000D02*
X166498600Y-62284000D01*
X166538600Y-57350000D02*
X166538600Y-58760000D01*
X166538600Y-60840000D02*
X166538600Y-62250000D01*
X166578600Y-57384000D02*
X166578600Y-58760000D01*
X166578600Y-60840000D02*
X166578600Y-62216000D01*
X166618600Y-57420000D02*
X166618600Y-58760000D01*
X166618600Y-60840000D02*
X166618600Y-62180000D01*
X166658600Y-57457000D02*
X166658600Y-58760000D01*
X166658600Y-60840000D02*
X166658600Y-62143000D01*
X166698600Y-57495000D02*
X166698600Y-58760000D01*
X166698600Y-60840000D02*
X166698600Y-62105000D01*
X166738600Y-57535000D02*
X166738600Y-62065000D01*
X166778600Y-57576000D02*
X166778600Y-62024000D01*
X166818600Y-57618000D02*
X166818600Y-61982000D01*
X166858600Y-57663000D02*
X166858600Y-61937000D01*
X166898600Y-57708000D02*
X166898600Y-61892000D01*
X166938600Y-57756000D02*
X166938600Y-61844000D01*
X166978600Y-57805000D02*
X166978600Y-61795000D01*
X167018600Y-57856000D02*
X167018600Y-61744000D01*
X167058600Y-57910000D02*
X167058600Y-61690000D01*
X167098600Y-57966000D02*
X167098600Y-61634000D01*
X167138600Y-58024000D02*
X167138600Y-61576000D01*
X167178600Y-58086000D02*
X167178600Y-61514000D01*
X167218600Y-58150000D02*
X167218600Y-61450000D01*
X167258600Y-58219000D02*
X167258600Y-61381000D01*
X167298600Y-58291000D02*
X167298600Y-61309000D01*
X167338600Y-58368000D02*
X167338600Y-61232000D01*
X167378600Y-58450000D02*
X167378600Y-61150000D01*
X167418600Y-58538000D02*
X167418600Y-61062000D01*
X167458600Y-58635000D02*
X167458600Y-60965000D01*
X167498600Y-58741000D02*
X167498600Y-60859000D01*
X167538600Y-58860000D02*
X167538600Y-60740000D01*
X167578600Y-58998000D02*
X167578600Y-60602000D01*
X167618600Y-59167000D02*
X167618600Y-60433000D01*
X167658600Y-59398000D02*
X167658600Y-60202000D01*
X167687600Y-59800000D02*
G75*
G02*
X161147600Y-59800000I-3270000J0D01*
G01*
X161147600Y-59800000D02*
G75*
G02*
X167687600Y-59800000I3270000J0D01*
G01*
%LPC*%
D21*
X88000000Y-58000000D03*
X172000000Y-58000000D03*
X88000000Y-142000000D03*
X172000000Y-142000000D03*
D22*
X160868000Y-70483700D03*
X160868000Y-68408700D03*
D23*
X164000000Y-87000000D03*
D24*
X164000000Y-89500000D03*
X166000000Y-89500000D03*
X166000000Y-87000000D03*
D25*
X168710000Y-82230000D03*
X168710000Y-94270000D03*
D26*
X172300000Y-70000000D03*
X169300000Y-65300000D03*
X166300000Y-70000000D03*
D22*
X145200000Y-144937500D03*
X145200000Y-142862500D03*
X126350000Y-81937500D03*
X126350000Y-79862500D03*
D27*
X129950000Y-139762500D03*
X129950000Y-141837500D03*
D22*
X122200000Y-80387500D03*
X122200000Y-78312500D03*
D28*
X125250000Y-74235000D03*
X122550000Y-72965000D03*
D29*
X124325000Y-86250000D03*
X124325000Y-86750000D03*
X124325000Y-87250000D03*
X124325000Y-87750000D03*
X124325000Y-88250000D03*
X124325000Y-88750000D03*
X124325000Y-89250000D03*
X124325000Y-89750000D03*
X124325000Y-90250000D03*
X124325000Y-90750000D03*
X124325000Y-91250000D03*
X124325000Y-91750000D03*
X124325000Y-92250000D03*
X124325000Y-92750000D03*
X124325000Y-93250000D03*
X124325000Y-93750000D03*
D30*
X126250000Y-95675000D03*
X126750000Y-95675000D03*
X127250000Y-95675000D03*
X127750000Y-95675000D03*
X128250000Y-95675000D03*
X128750000Y-95675000D03*
X129250000Y-95675000D03*
X129750000Y-95675000D03*
X130250000Y-95675000D03*
X130750000Y-95675000D03*
X131250000Y-95675000D03*
X131750000Y-95675000D03*
X132250000Y-95675000D03*
X132750000Y-95675000D03*
X133250000Y-95675000D03*
X133750000Y-95675000D03*
D29*
X135675000Y-93750000D03*
X135675000Y-93250000D03*
X135675000Y-92750000D03*
X135675000Y-92250000D03*
X135675000Y-91750000D03*
X135675000Y-91250000D03*
X135675000Y-90750000D03*
X135675000Y-90250000D03*
X135675000Y-89750000D03*
X135675000Y-89250000D03*
X135675000Y-88750000D03*
X135675000Y-88250000D03*
X135675000Y-87750000D03*
X135675000Y-87250000D03*
X135675000Y-86750000D03*
X135675000Y-86250000D03*
D30*
X133750000Y-84325000D03*
X133250000Y-84325000D03*
X132750000Y-84325000D03*
X132250000Y-84325000D03*
X131750000Y-84325000D03*
X131250000Y-84325000D03*
X130750000Y-84325000D03*
X130250000Y-84325000D03*
X129750000Y-84325000D03*
X129250000Y-84325000D03*
X128750000Y-84325000D03*
X128250000Y-84325000D03*
X127750000Y-84325000D03*
X127250000Y-84325000D03*
X126750000Y-84325000D03*
X126250000Y-84325000D03*
D27*
X121600000Y-89462500D03*
X121600000Y-91537500D03*
X111600000Y-93462500D03*
X111600000Y-95537500D03*
D22*
X121800000Y-85737500D03*
X121800000Y-83662500D03*
D31*
X118387500Y-81350000D03*
X116312500Y-81350000D03*
X146737500Y-106250000D03*
X144662500Y-106250000D03*
D32*
X146662500Y-121900000D03*
X148737500Y-121900000D03*
D31*
X158629500Y-101399400D03*
X156554500Y-101399400D03*
D22*
X150048000Y-106602500D03*
X150048000Y-104527500D03*
D33*
X84744600Y-70284400D03*
D24*
X87284600Y-70284400D03*
X84744600Y-72824400D03*
X87284600Y-72824400D03*
X84744600Y-75364400D03*
X87284600Y-75364400D03*
X84744600Y-77904400D03*
X87284600Y-77904400D03*
X84744600Y-80444400D03*
X87284600Y-80444400D03*
X84744600Y-82984400D03*
X87284600Y-82984400D03*
X84744600Y-85524400D03*
X87284600Y-85524400D03*
X84744600Y-88064400D03*
X87284600Y-88064400D03*
X84744600Y-90604400D03*
X87284600Y-90604400D03*
X84744600Y-93144400D03*
X87284600Y-93144400D03*
D34*
X116000000Y-107000000D03*
D35*
X116000000Y-109540000D03*
X116000000Y-112080000D03*
X116000000Y-114620000D03*
X116000000Y-117160000D03*
X116000000Y-119700000D03*
X116000000Y-122240000D03*
X116000000Y-124780000D03*
X138860000Y-124780000D03*
X138860000Y-122240000D03*
X138860000Y-119700000D03*
X138860000Y-117160000D03*
X138860000Y-114620000D03*
X138860000Y-112080000D03*
X138860000Y-109540000D03*
D36*
X138860000Y-107000000D03*
D34*
X86000000Y-107000000D03*
D35*
X86000000Y-109540000D03*
X86000000Y-112080000D03*
X86000000Y-114620000D03*
X86000000Y-117160000D03*
X86000000Y-119700000D03*
X86000000Y-122240000D03*
X86000000Y-124780000D03*
X108860000Y-124780000D03*
X108860000Y-122240000D03*
X108860000Y-119700000D03*
X108860000Y-117160000D03*
X108860000Y-114620000D03*
X108860000Y-112080000D03*
X108860000Y-109540000D03*
D36*
X108860000Y-107000000D03*
D37*
X133970000Y-137315000D03*
D38*
X133970000Y-139855000D03*
X133970000Y-142395000D03*
X133970000Y-144935000D03*
X141590000Y-144935000D03*
X141590000Y-142395000D03*
X141590000Y-139855000D03*
X141590000Y-137315000D03*
D39*
X153542000Y-103710800D03*
X153542000Y-104980800D03*
X153542000Y-106250800D03*
X153542000Y-107520800D03*
X153542000Y-108790800D03*
X153542000Y-110060800D03*
X153542000Y-111330800D03*
X153542000Y-112600800D03*
X158492000Y-112600800D03*
X158492000Y-111330800D03*
X158492000Y-110060800D03*
X158492000Y-108790800D03*
X158492000Y-107520800D03*
X158492000Y-106250800D03*
X158492000Y-104980800D03*
X158492000Y-103710800D03*
D40*
X111650000Y-89350000D03*
X116530000Y-89350000D03*
D41*
X119364800Y-83771800D03*
X119364800Y-85471800D03*
D40*
X146800000Y-116730000D03*
X146800000Y-111850000D03*
D23*
X164000000Y-106000000D03*
D24*
X164000000Y-108500000D03*
X166000000Y-108500000D03*
X166000000Y-106000000D03*
D25*
X168710000Y-101230000D03*
X168710000Y-113270000D03*
D23*
X115425000Y-75500000D03*
D42*
X112885000Y-75500000D03*
D37*
X155850000Y-59850000D03*
D43*
X155850000Y-57350000D03*
D22*
X149750000Y-61437500D03*
X149750000Y-59362500D03*
D44*
X111950000Y-66000000D03*
X118050000Y-66000000D03*
D23*
X126000000Y-66000000D03*
D42*
X128540000Y-66000000D03*
D23*
X155000000Y-75000000D03*
D42*
X155000000Y-77540000D03*
X155000000Y-80080000D03*
X155000000Y-82620000D03*
X155000000Y-85160000D03*
X155000000Y-87700000D03*
X155000000Y-90240000D03*
X155000000Y-92780000D03*
D45*
X157500000Y-70250000D03*
X157500000Y-67950000D03*
X157500000Y-65650000D03*
D46*
X151200000Y-67950000D03*
D47*
X114513600Y-60570000D03*
X117256800Y-60570000D03*
X120000000Y-60570000D03*
X122743200Y-60570000D03*
X125486400Y-60570000D03*
X115885200Y-58030000D03*
X118628400Y-58030000D03*
X121371600Y-58030000D03*
X124114800Y-58030000D03*
D48*
X107477800Y-59300000D03*
X132522200Y-59300000D03*
D23*
X148000000Y-75000000D03*
D42*
X148000000Y-77540000D03*
X148000000Y-80080000D03*
X148000000Y-82620000D03*
X148000000Y-85160000D03*
X148000000Y-87700000D03*
X148000000Y-90240000D03*
X148000000Y-92780000D03*
X148000000Y-95320000D03*
D23*
X97150000Y-55850000D03*
D42*
X97150000Y-58390000D03*
D37*
X163167600Y-59800000D03*
D43*
X165667600Y-59800000D03*
%LPD*%
M02*
