G04 #@! TF.GenerationSoftware,KiCad,Pcbnew,8.0.6*
G04 #@! TF.CreationDate,2025-01-17T22:38:05-05:00*
G04 #@! TF.ProjectId,board_stm32_rev2,626f6172-645f-4737-946d-33325f726576,rev?*
G04 #@! TF.SameCoordinates,Original*
G04 #@! TF.FileFunction,Legend,Bot*
G04 #@! TF.FilePolarity,Positive*
%FSLAX46Y46*%
G04 Gerber Fmt 4.6, Leading zero omitted, Abs format (unit mm)*
G04 Created by KiCad (PCBNEW 8.0.6) date 2025-01-17 22:38:05*
%MOMM*%
%LPD*%
G01*
G04 APERTURE LIST*
G04 Aperture macros list*
%AMRoundRect*
0 Rectangle with rounded corners*
0 $1 Rounding radius*
0 $2 $3 $4 $5 $6 $7 $8 $9 X,Y pos of 4 corners*
0 Add a 4 corners polygon primitive as box body*
4,1,4,$2,$3,$4,$5,$6,$7,$8,$9,$2,$3,0*
0 Add four circle primitives for the rounded corners*
1,1,$1+$1,$2,$3*
1,1,$1+$1,$4,$5*
1,1,$1+$1,$6,$7*
1,1,$1+$1,$8,$9*
0 Add four rect primitives between the rounded corners*
20,1,$1+$1,$2,$3,$4,$5,0*
20,1,$1+$1,$4,$5,$6,$7,0*
20,1,$1+$1,$6,$7,$8,$9,0*
20,1,$1+$1,$8,$9,$2,$3,0*%
G04 Aperture macros list end*
%ADD10C,0.100000*%
%ADD11C,0.127000*%
%ADD12C,0.304800*%
%ADD13C,0.508000*%
%ADD14C,4.700000*%
%ADD15R,1.700000X1.700000*%
%ADD16C,1.700000*%
%ADD17C,3.500000*%
%ADD18C,4.419600*%
%ADD19RoundRect,0.250000X-0.600000X-0.600000X0.600000X-0.600000X0.600000X0.600000X-0.600000X0.600000X0*%
%ADD20R,1.676400X1.676400*%
%ADD21C,1.524000*%
%ADD22R,1.524000X1.524000*%
%ADD23R,1.600000X1.600000*%
%ADD24O,1.600000X1.600000*%
%ADD25C,1.500000*%
%ADD26C,1.000000*%
%ADD27O,1.700000X1.700000*%
%ADD28C,1.600000*%
%ADD29C,1.625600*%
%ADD30C,5.181600*%
G04 APERTURE END LIST*
D10*
X137029561Y-110232419D02*
X137029561Y-109232419D01*
X136553371Y-110232419D02*
X136553371Y-109232419D01*
X136553371Y-109232419D02*
X135981943Y-110232419D01*
X135981943Y-110232419D02*
X135981943Y-109232419D01*
X135648609Y-109232419D02*
X135077181Y-109232419D01*
X135362895Y-110232419D02*
X135362895Y-109232419D01*
X120357713Y-115264800D02*
X120214856Y-115312419D01*
X120214856Y-115312419D02*
X119976761Y-115312419D01*
X119976761Y-115312419D02*
X119881523Y-115264800D01*
X119881523Y-115264800D02*
X119833904Y-115217180D01*
X119833904Y-115217180D02*
X119786285Y-115121942D01*
X119786285Y-115121942D02*
X119786285Y-115026704D01*
X119786285Y-115026704D02*
X119833904Y-114931466D01*
X119833904Y-114931466D02*
X119881523Y-114883847D01*
X119881523Y-114883847D02*
X119976761Y-114836228D01*
X119976761Y-114836228D02*
X120167237Y-114788609D01*
X120167237Y-114788609D02*
X120262475Y-114740990D01*
X120262475Y-114740990D02*
X120310094Y-114693371D01*
X120310094Y-114693371D02*
X120357713Y-114598133D01*
X120357713Y-114598133D02*
X120357713Y-114502895D01*
X120357713Y-114502895D02*
X120310094Y-114407657D01*
X120310094Y-114407657D02*
X120262475Y-114360038D01*
X120262475Y-114360038D02*
X120167237Y-114312419D01*
X120167237Y-114312419D02*
X119929142Y-114312419D01*
X119929142Y-114312419D02*
X119786285Y-114360038D01*
X118786285Y-115217180D02*
X118833904Y-115264800D01*
X118833904Y-115264800D02*
X118976761Y-115312419D01*
X118976761Y-115312419D02*
X119071999Y-115312419D01*
X119071999Y-115312419D02*
X119214856Y-115264800D01*
X119214856Y-115264800D02*
X119310094Y-115169561D01*
X119310094Y-115169561D02*
X119357713Y-115074323D01*
X119357713Y-115074323D02*
X119405332Y-114883847D01*
X119405332Y-114883847D02*
X119405332Y-114740990D01*
X119405332Y-114740990D02*
X119357713Y-114550514D01*
X119357713Y-114550514D02*
X119310094Y-114455276D01*
X119310094Y-114455276D02*
X119214856Y-114360038D01*
X119214856Y-114360038D02*
X119071999Y-114312419D01*
X119071999Y-114312419D02*
X118976761Y-114312419D01*
X118976761Y-114312419D02*
X118833904Y-114360038D01*
X118833904Y-114360038D02*
X118786285Y-114407657D01*
X118357713Y-115312419D02*
X118357713Y-114312419D01*
X117786285Y-115312419D02*
X118214856Y-114740990D01*
X117786285Y-114312419D02*
X118357713Y-114883847D01*
X120976761Y-117827019D02*
X120976761Y-116827019D01*
X120976761Y-116827019D02*
X120643428Y-117541304D01*
X120643428Y-117541304D02*
X120310095Y-116827019D01*
X120310095Y-116827019D02*
X120310095Y-117827019D01*
X119833904Y-117827019D02*
X119833904Y-116827019D01*
X119405333Y-117779400D02*
X119262476Y-117827019D01*
X119262476Y-117827019D02*
X119024381Y-117827019D01*
X119024381Y-117827019D02*
X118929143Y-117779400D01*
X118929143Y-117779400D02*
X118881524Y-117731780D01*
X118881524Y-117731780D02*
X118833905Y-117636542D01*
X118833905Y-117636542D02*
X118833905Y-117541304D01*
X118833905Y-117541304D02*
X118881524Y-117446066D01*
X118881524Y-117446066D02*
X118929143Y-117398447D01*
X118929143Y-117398447D02*
X119024381Y-117350828D01*
X119024381Y-117350828D02*
X119214857Y-117303209D01*
X119214857Y-117303209D02*
X119310095Y-117255590D01*
X119310095Y-117255590D02*
X119357714Y-117207971D01*
X119357714Y-117207971D02*
X119405333Y-117112733D01*
X119405333Y-117112733D02*
X119405333Y-117017495D01*
X119405333Y-117017495D02*
X119357714Y-116922257D01*
X119357714Y-116922257D02*
X119310095Y-116874638D01*
X119310095Y-116874638D02*
X119214857Y-116827019D01*
X119214857Y-116827019D02*
X118976762Y-116827019D01*
X118976762Y-116827019D02*
X118833905Y-116874638D01*
X118214857Y-116827019D02*
X118024381Y-116827019D01*
X118024381Y-116827019D02*
X117929143Y-116874638D01*
X117929143Y-116874638D02*
X117833905Y-116969876D01*
X117833905Y-116969876D02*
X117786286Y-117160352D01*
X117786286Y-117160352D02*
X117786286Y-117493685D01*
X117786286Y-117493685D02*
X117833905Y-117684161D01*
X117833905Y-117684161D02*
X117929143Y-117779400D01*
X117929143Y-117779400D02*
X118024381Y-117827019D01*
X118024381Y-117827019D02*
X118214857Y-117827019D01*
X118214857Y-117827019D02*
X118310095Y-117779400D01*
X118310095Y-117779400D02*
X118405333Y-117684161D01*
X118405333Y-117684161D02*
X118452952Y-117493685D01*
X118452952Y-117493685D02*
X118452952Y-117160352D01*
X118452952Y-117160352D02*
X118405333Y-116969876D01*
X118405333Y-116969876D02*
X118310095Y-116874638D01*
X118310095Y-116874638D02*
X118214857Y-116827019D01*
X121357714Y-122526066D02*
X120595810Y-122526066D01*
X120976762Y-122907019D02*
X120976762Y-122145114D01*
X120214857Y-121907019D02*
X119595810Y-121907019D01*
X119595810Y-121907019D02*
X119929143Y-122287971D01*
X119929143Y-122287971D02*
X119786286Y-122287971D01*
X119786286Y-122287971D02*
X119691048Y-122335590D01*
X119691048Y-122335590D02*
X119643429Y-122383209D01*
X119643429Y-122383209D02*
X119595810Y-122478447D01*
X119595810Y-122478447D02*
X119595810Y-122716542D01*
X119595810Y-122716542D02*
X119643429Y-122811780D01*
X119643429Y-122811780D02*
X119691048Y-122859400D01*
X119691048Y-122859400D02*
X119786286Y-122907019D01*
X119786286Y-122907019D02*
X120072000Y-122907019D01*
X120072000Y-122907019D02*
X120167238Y-122859400D01*
X120167238Y-122859400D02*
X120214857Y-122811780D01*
X119310095Y-121907019D02*
X118976762Y-122907019D01*
X118976762Y-122907019D02*
X118643429Y-121907019D01*
X118405333Y-121907019D02*
X117786286Y-121907019D01*
X117786286Y-121907019D02*
X118119619Y-122287971D01*
X118119619Y-122287971D02*
X117976762Y-122287971D01*
X117976762Y-122287971D02*
X117881524Y-122335590D01*
X117881524Y-122335590D02*
X117833905Y-122383209D01*
X117833905Y-122383209D02*
X117786286Y-122478447D01*
X117786286Y-122478447D02*
X117786286Y-122716542D01*
X117786286Y-122716542D02*
X117833905Y-122811780D01*
X117833905Y-122811780D02*
X117881524Y-122859400D01*
X117881524Y-122859400D02*
X117976762Y-122907019D01*
X117976762Y-122907019D02*
X118262476Y-122907019D01*
X118262476Y-122907019D02*
X118357714Y-122859400D01*
X118357714Y-122859400D02*
X118405333Y-122811780D01*
X136458132Y-112772419D02*
X136791465Y-112296228D01*
X137029560Y-112772419D02*
X137029560Y-111772419D01*
X137029560Y-111772419D02*
X136648608Y-111772419D01*
X136648608Y-111772419D02*
X136553370Y-111820038D01*
X136553370Y-111820038D02*
X136505751Y-111867657D01*
X136505751Y-111867657D02*
X136458132Y-111962895D01*
X136458132Y-111962895D02*
X136458132Y-112105752D01*
X136458132Y-112105752D02*
X136505751Y-112200990D01*
X136505751Y-112200990D02*
X136553370Y-112248609D01*
X136553370Y-112248609D02*
X136648608Y-112296228D01*
X136648608Y-112296228D02*
X137029560Y-112296228D01*
X136124798Y-111772419D02*
X135458132Y-112772419D01*
X135458132Y-111772419D02*
X136124798Y-112772419D01*
X137172418Y-114312419D02*
X136600990Y-114312419D01*
X136886704Y-115312419D02*
X136886704Y-114312419D01*
X136362894Y-114312419D02*
X135696228Y-115312419D01*
X135696228Y-114312419D02*
X136362894Y-115312419D01*
X127799999Y-122845276D02*
X127799999Y-123797657D01*
X128633333Y-123416704D02*
X127799999Y-123797657D01*
X127799999Y-123797657D02*
X126966666Y-123416704D01*
X128299999Y-124559561D02*
X127799999Y-123797657D01*
X127799999Y-123797657D02*
X127299999Y-124559561D01*
X136505751Y-124520038D02*
X136600989Y-124472419D01*
X136600989Y-124472419D02*
X136743846Y-124472419D01*
X136743846Y-124472419D02*
X136886703Y-124520038D01*
X136886703Y-124520038D02*
X136981941Y-124615276D01*
X136981941Y-124615276D02*
X137029560Y-124710514D01*
X137029560Y-124710514D02*
X137077179Y-124900990D01*
X137077179Y-124900990D02*
X137077179Y-125043847D01*
X137077179Y-125043847D02*
X137029560Y-125234323D01*
X137029560Y-125234323D02*
X136981941Y-125329561D01*
X136981941Y-125329561D02*
X136886703Y-125424800D01*
X136886703Y-125424800D02*
X136743846Y-125472419D01*
X136743846Y-125472419D02*
X136648608Y-125472419D01*
X136648608Y-125472419D02*
X136505751Y-125424800D01*
X136505751Y-125424800D02*
X136458132Y-125377180D01*
X136458132Y-125377180D02*
X136458132Y-125043847D01*
X136458132Y-125043847D02*
X136648608Y-125043847D01*
X136029560Y-125472419D02*
X136029560Y-124472419D01*
X136029560Y-124472419D02*
X135458132Y-125472419D01*
X135458132Y-125472419D02*
X135458132Y-124472419D01*
X134981941Y-125472419D02*
X134981941Y-124472419D01*
X134981941Y-124472419D02*
X134743846Y-124472419D01*
X134743846Y-124472419D02*
X134600989Y-124520038D01*
X134600989Y-124520038D02*
X134505751Y-124615276D01*
X134505751Y-124615276D02*
X134458132Y-124710514D01*
X134458132Y-124710514D02*
X134410513Y-124900990D01*
X134410513Y-124900990D02*
X134410513Y-125043847D01*
X134410513Y-125043847D02*
X134458132Y-125234323D01*
X134458132Y-125234323D02*
X134505751Y-125329561D01*
X134505751Y-125329561D02*
X134600989Y-125424800D01*
X134600989Y-125424800D02*
X134743846Y-125472419D01*
X134743846Y-125472419D02*
X134981941Y-125472419D01*
X119500572Y-110232419D02*
X119833905Y-109756228D01*
X120072000Y-110232419D02*
X120072000Y-109232419D01*
X120072000Y-109232419D02*
X119691048Y-109232419D01*
X119691048Y-109232419D02*
X119595810Y-109280038D01*
X119595810Y-109280038D02*
X119548191Y-109327657D01*
X119548191Y-109327657D02*
X119500572Y-109422895D01*
X119500572Y-109422895D02*
X119500572Y-109565752D01*
X119500572Y-109565752D02*
X119548191Y-109660990D01*
X119548191Y-109660990D02*
X119595810Y-109708609D01*
X119595810Y-109708609D02*
X119691048Y-109756228D01*
X119691048Y-109756228D02*
X120072000Y-109756228D01*
X119119619Y-110184800D02*
X118976762Y-110232419D01*
X118976762Y-110232419D02*
X118738667Y-110232419D01*
X118738667Y-110232419D02*
X118643429Y-110184800D01*
X118643429Y-110184800D02*
X118595810Y-110137180D01*
X118595810Y-110137180D02*
X118548191Y-110041942D01*
X118548191Y-110041942D02*
X118548191Y-109946704D01*
X118548191Y-109946704D02*
X118595810Y-109851466D01*
X118595810Y-109851466D02*
X118643429Y-109803847D01*
X118643429Y-109803847D02*
X118738667Y-109756228D01*
X118738667Y-109756228D02*
X118929143Y-109708609D01*
X118929143Y-109708609D02*
X119024381Y-109660990D01*
X119024381Y-109660990D02*
X119072000Y-109613371D01*
X119072000Y-109613371D02*
X119119619Y-109518133D01*
X119119619Y-109518133D02*
X119119619Y-109422895D01*
X119119619Y-109422895D02*
X119072000Y-109327657D01*
X119072000Y-109327657D02*
X119024381Y-109280038D01*
X119024381Y-109280038D02*
X118929143Y-109232419D01*
X118929143Y-109232419D02*
X118691048Y-109232419D01*
X118691048Y-109232419D02*
X118548191Y-109280038D01*
X118262476Y-109232419D02*
X117691048Y-109232419D01*
X117976762Y-110232419D02*
X117976762Y-109232419D01*
X130483332Y-100907419D02*
X130483332Y-100240752D01*
X130483332Y-100335990D02*
X130435713Y-100288371D01*
X130435713Y-100288371D02*
X130340475Y-100240752D01*
X130340475Y-100240752D02*
X130197618Y-100240752D01*
X130197618Y-100240752D02*
X130102380Y-100288371D01*
X130102380Y-100288371D02*
X130054761Y-100383609D01*
X130054761Y-100383609D02*
X130054761Y-100907419D01*
X130054761Y-100383609D02*
X130007142Y-100288371D01*
X130007142Y-100288371D02*
X129911904Y-100240752D01*
X129911904Y-100240752D02*
X129769047Y-100240752D01*
X129769047Y-100240752D02*
X129673808Y-100288371D01*
X129673808Y-100288371D02*
X129626189Y-100383609D01*
X129626189Y-100383609D02*
X129626189Y-100907419D01*
X129149999Y-100907419D02*
X129149999Y-100240752D01*
X129149999Y-99907419D02*
X129197618Y-99955038D01*
X129197618Y-99955038D02*
X129149999Y-100002657D01*
X129149999Y-100002657D02*
X129102380Y-99955038D01*
X129102380Y-99955038D02*
X129149999Y-99907419D01*
X129149999Y-99907419D02*
X129149999Y-100002657D01*
X128673809Y-100907419D02*
X128673809Y-99907419D01*
X128578571Y-100526466D02*
X128292857Y-100907419D01*
X128292857Y-100240752D02*
X128673809Y-100621704D01*
X127864285Y-100907419D02*
X127864285Y-100240752D01*
X127864285Y-100431228D02*
X127816666Y-100335990D01*
X127816666Y-100335990D02*
X127769047Y-100288371D01*
X127769047Y-100288371D02*
X127673809Y-100240752D01*
X127673809Y-100240752D02*
X127578571Y-100240752D01*
X127102380Y-100907419D02*
X127197618Y-100859800D01*
X127197618Y-100859800D02*
X127245237Y-100812180D01*
X127245237Y-100812180D02*
X127292856Y-100716942D01*
X127292856Y-100716942D02*
X127292856Y-100431228D01*
X127292856Y-100431228D02*
X127245237Y-100335990D01*
X127245237Y-100335990D02*
X127197618Y-100288371D01*
X127197618Y-100288371D02*
X127102380Y-100240752D01*
X127102380Y-100240752D02*
X126959523Y-100240752D01*
X126959523Y-100240752D02*
X126864285Y-100288371D01*
X126864285Y-100288371D02*
X126816666Y-100335990D01*
X126816666Y-100335990D02*
X126769047Y-100431228D01*
X126769047Y-100431228D02*
X126769047Y-100716942D01*
X126769047Y-100716942D02*
X126816666Y-100812180D01*
X126816666Y-100812180D02*
X126864285Y-100859800D01*
X126864285Y-100859800D02*
X126959523Y-100907419D01*
X126959523Y-100907419D02*
X127102380Y-100907419D01*
X126007142Y-100383609D02*
X125864285Y-100431228D01*
X125864285Y-100431228D02*
X125816666Y-100478847D01*
X125816666Y-100478847D02*
X125769047Y-100574085D01*
X125769047Y-100574085D02*
X125769047Y-100716942D01*
X125769047Y-100716942D02*
X125816666Y-100812180D01*
X125816666Y-100812180D02*
X125864285Y-100859800D01*
X125864285Y-100859800D02*
X125959523Y-100907419D01*
X125959523Y-100907419D02*
X126340475Y-100907419D01*
X126340475Y-100907419D02*
X126340475Y-99907419D01*
X126340475Y-99907419D02*
X126007142Y-99907419D01*
X126007142Y-99907419D02*
X125911904Y-99955038D01*
X125911904Y-99955038D02*
X125864285Y-100002657D01*
X125864285Y-100002657D02*
X125816666Y-100097895D01*
X125816666Y-100097895D02*
X125816666Y-100193133D01*
X125816666Y-100193133D02*
X125864285Y-100288371D01*
X125864285Y-100288371D02*
X125911904Y-100335990D01*
X125911904Y-100335990D02*
X126007142Y-100383609D01*
X126007142Y-100383609D02*
X126340475Y-100383609D01*
X125340475Y-99907419D02*
X125340475Y-100716942D01*
X125340475Y-100716942D02*
X125292856Y-100812180D01*
X125292856Y-100812180D02*
X125245237Y-100859800D01*
X125245237Y-100859800D02*
X125149999Y-100907419D01*
X125149999Y-100907419D02*
X124959523Y-100907419D01*
X124959523Y-100907419D02*
X124864285Y-100859800D01*
X124864285Y-100859800D02*
X124816666Y-100812180D01*
X124816666Y-100812180D02*
X124769047Y-100716942D01*
X124769047Y-100716942D02*
X124769047Y-99907419D01*
X124340475Y-100859800D02*
X124197618Y-100907419D01*
X124197618Y-100907419D02*
X123959523Y-100907419D01*
X123959523Y-100907419D02*
X123864285Y-100859800D01*
X123864285Y-100859800D02*
X123816666Y-100812180D01*
X123816666Y-100812180D02*
X123769047Y-100716942D01*
X123769047Y-100716942D02*
X123769047Y-100621704D01*
X123769047Y-100621704D02*
X123816666Y-100526466D01*
X123816666Y-100526466D02*
X123864285Y-100478847D01*
X123864285Y-100478847D02*
X123959523Y-100431228D01*
X123959523Y-100431228D02*
X124149999Y-100383609D01*
X124149999Y-100383609D02*
X124245237Y-100335990D01*
X124245237Y-100335990D02*
X124292856Y-100288371D01*
X124292856Y-100288371D02*
X124340475Y-100193133D01*
X124340475Y-100193133D02*
X124340475Y-100097895D01*
X124340475Y-100097895D02*
X124292856Y-100002657D01*
X124292856Y-100002657D02*
X124245237Y-99955038D01*
X124245237Y-99955038D02*
X124149999Y-99907419D01*
X124149999Y-99907419D02*
X123911904Y-99907419D01*
X123911904Y-99907419D02*
X123769047Y-99955038D01*
X126478571Y-99629800D02*
X123678571Y-99629800D01*
X119881523Y-124520038D02*
X119976761Y-124472419D01*
X119976761Y-124472419D02*
X120119618Y-124472419D01*
X120119618Y-124472419D02*
X120262475Y-124520038D01*
X120262475Y-124520038D02*
X120357713Y-124615276D01*
X120357713Y-124615276D02*
X120405332Y-124710514D01*
X120405332Y-124710514D02*
X120452951Y-124900990D01*
X120452951Y-124900990D02*
X120452951Y-125043847D01*
X120452951Y-125043847D02*
X120405332Y-125234323D01*
X120405332Y-125234323D02*
X120357713Y-125329561D01*
X120357713Y-125329561D02*
X120262475Y-125424800D01*
X120262475Y-125424800D02*
X120119618Y-125472419D01*
X120119618Y-125472419D02*
X120024380Y-125472419D01*
X120024380Y-125472419D02*
X119881523Y-125424800D01*
X119881523Y-125424800D02*
X119833904Y-125377180D01*
X119833904Y-125377180D02*
X119833904Y-125043847D01*
X119833904Y-125043847D02*
X120024380Y-125043847D01*
X119405332Y-125472419D02*
X119405332Y-124472419D01*
X119405332Y-124472419D02*
X118833904Y-125472419D01*
X118833904Y-125472419D02*
X118833904Y-124472419D01*
X118357713Y-125472419D02*
X118357713Y-124472419D01*
X118357713Y-124472419D02*
X118119618Y-124472419D01*
X118119618Y-124472419D02*
X117976761Y-124520038D01*
X117976761Y-124520038D02*
X117881523Y-124615276D01*
X117881523Y-124615276D02*
X117833904Y-124710514D01*
X117833904Y-124710514D02*
X117786285Y-124900990D01*
X117786285Y-124900990D02*
X117786285Y-125043847D01*
X117786285Y-125043847D02*
X117833904Y-125234323D01*
X117833904Y-125234323D02*
X117881523Y-125329561D01*
X117881523Y-125329561D02*
X117976761Y-125424800D01*
X117976761Y-125424800D02*
X118119618Y-125472419D01*
X118119618Y-125472419D02*
X118357713Y-125472419D01*
X120976761Y-120392419D02*
X120976761Y-119392419D01*
X120976761Y-119392419D02*
X120643428Y-120106704D01*
X120643428Y-120106704D02*
X120310095Y-119392419D01*
X120310095Y-119392419D02*
X120310095Y-120392419D01*
X119643428Y-119392419D02*
X119452952Y-119392419D01*
X119452952Y-119392419D02*
X119357714Y-119440038D01*
X119357714Y-119440038D02*
X119262476Y-119535276D01*
X119262476Y-119535276D02*
X119214857Y-119725752D01*
X119214857Y-119725752D02*
X119214857Y-120059085D01*
X119214857Y-120059085D02*
X119262476Y-120249561D01*
X119262476Y-120249561D02*
X119357714Y-120344800D01*
X119357714Y-120344800D02*
X119452952Y-120392419D01*
X119452952Y-120392419D02*
X119643428Y-120392419D01*
X119643428Y-120392419D02*
X119738666Y-120344800D01*
X119738666Y-120344800D02*
X119833904Y-120249561D01*
X119833904Y-120249561D02*
X119881523Y-120059085D01*
X119881523Y-120059085D02*
X119881523Y-119725752D01*
X119881523Y-119725752D02*
X119833904Y-119535276D01*
X119833904Y-119535276D02*
X119738666Y-119440038D01*
X119738666Y-119440038D02*
X119643428Y-119392419D01*
X118833904Y-120344800D02*
X118691047Y-120392419D01*
X118691047Y-120392419D02*
X118452952Y-120392419D01*
X118452952Y-120392419D02*
X118357714Y-120344800D01*
X118357714Y-120344800D02*
X118310095Y-120297180D01*
X118310095Y-120297180D02*
X118262476Y-120201942D01*
X118262476Y-120201942D02*
X118262476Y-120106704D01*
X118262476Y-120106704D02*
X118310095Y-120011466D01*
X118310095Y-120011466D02*
X118357714Y-119963847D01*
X118357714Y-119963847D02*
X118452952Y-119916228D01*
X118452952Y-119916228D02*
X118643428Y-119868609D01*
X118643428Y-119868609D02*
X118738666Y-119820990D01*
X118738666Y-119820990D02*
X118786285Y-119773371D01*
X118786285Y-119773371D02*
X118833904Y-119678133D01*
X118833904Y-119678133D02*
X118833904Y-119582895D01*
X118833904Y-119582895D02*
X118786285Y-119487657D01*
X118786285Y-119487657D02*
X118738666Y-119440038D01*
X118738666Y-119440038D02*
X118643428Y-119392419D01*
X118643428Y-119392419D02*
X118405333Y-119392419D01*
X118405333Y-119392419D02*
X118262476Y-119440038D01*
X117833904Y-120392419D02*
X117833904Y-119392419D01*
X118738666Y-112651780D02*
X118786285Y-112699400D01*
X118786285Y-112699400D02*
X118929142Y-112747019D01*
X118929142Y-112747019D02*
X119024380Y-112747019D01*
X119024380Y-112747019D02*
X119167237Y-112699400D01*
X119167237Y-112699400D02*
X119262475Y-112604161D01*
X119262475Y-112604161D02*
X119310094Y-112508923D01*
X119310094Y-112508923D02*
X119357713Y-112318447D01*
X119357713Y-112318447D02*
X119357713Y-112175590D01*
X119357713Y-112175590D02*
X119310094Y-111985114D01*
X119310094Y-111985114D02*
X119262475Y-111889876D01*
X119262475Y-111889876D02*
X119167237Y-111794638D01*
X119167237Y-111794638D02*
X119024380Y-111747019D01*
X119024380Y-111747019D02*
X118929142Y-111747019D01*
X118929142Y-111747019D02*
X118786285Y-111794638D01*
X118786285Y-111794638D02*
X118738666Y-111842257D01*
X118357713Y-112699400D02*
X118214856Y-112747019D01*
X118214856Y-112747019D02*
X117976761Y-112747019D01*
X117976761Y-112747019D02*
X117881523Y-112699400D01*
X117881523Y-112699400D02*
X117833904Y-112651780D01*
X117833904Y-112651780D02*
X117786285Y-112556542D01*
X117786285Y-112556542D02*
X117786285Y-112461304D01*
X117786285Y-112461304D02*
X117833904Y-112366066D01*
X117833904Y-112366066D02*
X117881523Y-112318447D01*
X117881523Y-112318447D02*
X117976761Y-112270828D01*
X117976761Y-112270828D02*
X118167237Y-112223209D01*
X118167237Y-112223209D02*
X118262475Y-112175590D01*
X118262475Y-112175590D02*
X118310094Y-112127971D01*
X118310094Y-112127971D02*
X118357713Y-112032733D01*
X118357713Y-112032733D02*
X118357713Y-111937495D01*
X118357713Y-111937495D02*
X118310094Y-111842257D01*
X118310094Y-111842257D02*
X118262475Y-111794638D01*
X118262475Y-111794638D02*
X118167237Y-111747019D01*
X118167237Y-111747019D02*
X117929142Y-111747019D01*
X117929142Y-111747019D02*
X117786285Y-111794638D01*
X137029560Y-122551466D02*
X136267656Y-122551466D01*
X136648608Y-122932419D02*
X136648608Y-122170514D01*
X135315275Y-121932419D02*
X135791465Y-121932419D01*
X135791465Y-121932419D02*
X135839084Y-122408609D01*
X135839084Y-122408609D02*
X135791465Y-122360990D01*
X135791465Y-122360990D02*
X135696227Y-122313371D01*
X135696227Y-122313371D02*
X135458132Y-122313371D01*
X135458132Y-122313371D02*
X135362894Y-122360990D01*
X135362894Y-122360990D02*
X135315275Y-122408609D01*
X135315275Y-122408609D02*
X135267656Y-122503847D01*
X135267656Y-122503847D02*
X135267656Y-122741942D01*
X135267656Y-122741942D02*
X135315275Y-122837180D01*
X135315275Y-122837180D02*
X135362894Y-122884800D01*
X135362894Y-122884800D02*
X135458132Y-122932419D01*
X135458132Y-122932419D02*
X135696227Y-122932419D01*
X135696227Y-122932419D02*
X135791465Y-122884800D01*
X135791465Y-122884800D02*
X135839084Y-122837180D01*
X134981941Y-121932419D02*
X134648608Y-122932419D01*
X134648608Y-122932419D02*
X134315275Y-121932419D01*
X119310095Y-107406704D02*
X118833905Y-107406704D01*
X119405333Y-107692419D02*
X119072000Y-106692419D01*
X119072000Y-106692419D02*
X118738667Y-107692419D01*
X118405333Y-107692419D02*
X118405333Y-106692419D01*
X118405333Y-106692419D02*
X117833905Y-107692419D01*
X117833905Y-107692419D02*
X117833905Y-106692419D01*
X137077179Y-117804800D02*
X136934322Y-117852419D01*
X136934322Y-117852419D02*
X136696227Y-117852419D01*
X136696227Y-117852419D02*
X136600989Y-117804800D01*
X136600989Y-117804800D02*
X136553370Y-117757180D01*
X136553370Y-117757180D02*
X136505751Y-117661942D01*
X136505751Y-117661942D02*
X136505751Y-117566704D01*
X136505751Y-117566704D02*
X136553370Y-117471466D01*
X136553370Y-117471466D02*
X136600989Y-117423847D01*
X136600989Y-117423847D02*
X136696227Y-117376228D01*
X136696227Y-117376228D02*
X136886703Y-117328609D01*
X136886703Y-117328609D02*
X136981941Y-117280990D01*
X136981941Y-117280990D02*
X137029560Y-117233371D01*
X137029560Y-117233371D02*
X137077179Y-117138133D01*
X137077179Y-117138133D02*
X137077179Y-117042895D01*
X137077179Y-117042895D02*
X137029560Y-116947657D01*
X137029560Y-116947657D02*
X136981941Y-116900038D01*
X136981941Y-116900038D02*
X136886703Y-116852419D01*
X136886703Y-116852419D02*
X136648608Y-116852419D01*
X136648608Y-116852419D02*
X136505751Y-116900038D01*
X135505751Y-117757180D02*
X135553370Y-117804800D01*
X135553370Y-117804800D02*
X135696227Y-117852419D01*
X135696227Y-117852419D02*
X135791465Y-117852419D01*
X135791465Y-117852419D02*
X135934322Y-117804800D01*
X135934322Y-117804800D02*
X136029560Y-117709561D01*
X136029560Y-117709561D02*
X136077179Y-117614323D01*
X136077179Y-117614323D02*
X136124798Y-117423847D01*
X136124798Y-117423847D02*
X136124798Y-117280990D01*
X136124798Y-117280990D02*
X136077179Y-117090514D01*
X136077179Y-117090514D02*
X136029560Y-116995276D01*
X136029560Y-116995276D02*
X135934322Y-116900038D01*
X135934322Y-116900038D02*
X135791465Y-116852419D01*
X135791465Y-116852419D02*
X135696227Y-116852419D01*
X135696227Y-116852419D02*
X135553370Y-116900038D01*
X135553370Y-116900038D02*
X135505751Y-116947657D01*
X134600989Y-117852419D02*
X135077179Y-117852419D01*
X135077179Y-117852419D02*
X135077179Y-116852419D01*
X137029561Y-107819419D02*
X137029561Y-106819419D01*
X137029561Y-106819419D02*
X136648609Y-106819419D01*
X136648609Y-106819419D02*
X136553371Y-106867038D01*
X136553371Y-106867038D02*
X136505752Y-106914657D01*
X136505752Y-106914657D02*
X136458133Y-107009895D01*
X136458133Y-107009895D02*
X136458133Y-107152752D01*
X136458133Y-107152752D02*
X136505752Y-107247990D01*
X136505752Y-107247990D02*
X136553371Y-107295609D01*
X136553371Y-107295609D02*
X136648609Y-107343228D01*
X136648609Y-107343228D02*
X137029561Y-107343228D01*
X136124799Y-106819419D02*
X135886704Y-107819419D01*
X135886704Y-107819419D02*
X135696228Y-107105133D01*
X135696228Y-107105133D02*
X135505752Y-107819419D01*
X135505752Y-107819419D02*
X135267657Y-106819419D01*
X134886704Y-107819419D02*
X134886704Y-106819419D01*
X134886704Y-106819419D02*
X134553371Y-107533704D01*
X134553371Y-107533704D02*
X134220038Y-106819419D01*
X134220038Y-106819419D02*
X134220038Y-107819419D01*
X137077180Y-120344800D02*
X136934323Y-120392419D01*
X136934323Y-120392419D02*
X136696228Y-120392419D01*
X136696228Y-120392419D02*
X136600990Y-120344800D01*
X136600990Y-120344800D02*
X136553371Y-120297180D01*
X136553371Y-120297180D02*
X136505752Y-120201942D01*
X136505752Y-120201942D02*
X136505752Y-120106704D01*
X136505752Y-120106704D02*
X136553371Y-120011466D01*
X136553371Y-120011466D02*
X136600990Y-119963847D01*
X136600990Y-119963847D02*
X136696228Y-119916228D01*
X136696228Y-119916228D02*
X136886704Y-119868609D01*
X136886704Y-119868609D02*
X136981942Y-119820990D01*
X136981942Y-119820990D02*
X137029561Y-119773371D01*
X137029561Y-119773371D02*
X137077180Y-119678133D01*
X137077180Y-119678133D02*
X137077180Y-119582895D01*
X137077180Y-119582895D02*
X137029561Y-119487657D01*
X137029561Y-119487657D02*
X136981942Y-119440038D01*
X136981942Y-119440038D02*
X136886704Y-119392419D01*
X136886704Y-119392419D02*
X136648609Y-119392419D01*
X136648609Y-119392419D02*
X136505752Y-119440038D01*
X136077180Y-120392419D02*
X136077180Y-119392419D01*
X136077180Y-119392419D02*
X135839085Y-119392419D01*
X135839085Y-119392419D02*
X135696228Y-119440038D01*
X135696228Y-119440038D02*
X135600990Y-119535276D01*
X135600990Y-119535276D02*
X135553371Y-119630514D01*
X135553371Y-119630514D02*
X135505752Y-119820990D01*
X135505752Y-119820990D02*
X135505752Y-119963847D01*
X135505752Y-119963847D02*
X135553371Y-120154323D01*
X135553371Y-120154323D02*
X135600990Y-120249561D01*
X135600990Y-120249561D02*
X135696228Y-120344800D01*
X135696228Y-120344800D02*
X135839085Y-120392419D01*
X135839085Y-120392419D02*
X136077180Y-120392419D01*
X135124799Y-120106704D02*
X134648609Y-120106704D01*
X135220037Y-120392419D02*
X134886704Y-119392419D01*
X134886704Y-119392419D02*
X134553371Y-120392419D01*
X89881523Y-124520038D02*
X89976761Y-124472419D01*
X89976761Y-124472419D02*
X90119618Y-124472419D01*
X90119618Y-124472419D02*
X90262475Y-124520038D01*
X90262475Y-124520038D02*
X90357713Y-124615276D01*
X90357713Y-124615276D02*
X90405332Y-124710514D01*
X90405332Y-124710514D02*
X90452951Y-124900990D01*
X90452951Y-124900990D02*
X90452951Y-125043847D01*
X90452951Y-125043847D02*
X90405332Y-125234323D01*
X90405332Y-125234323D02*
X90357713Y-125329561D01*
X90357713Y-125329561D02*
X90262475Y-125424800D01*
X90262475Y-125424800D02*
X90119618Y-125472419D01*
X90119618Y-125472419D02*
X90024380Y-125472419D01*
X90024380Y-125472419D02*
X89881523Y-125424800D01*
X89881523Y-125424800D02*
X89833904Y-125377180D01*
X89833904Y-125377180D02*
X89833904Y-125043847D01*
X89833904Y-125043847D02*
X90024380Y-125043847D01*
X89405332Y-125472419D02*
X89405332Y-124472419D01*
X89405332Y-124472419D02*
X88833904Y-125472419D01*
X88833904Y-125472419D02*
X88833904Y-124472419D01*
X88357713Y-125472419D02*
X88357713Y-124472419D01*
X88357713Y-124472419D02*
X88119618Y-124472419D01*
X88119618Y-124472419D02*
X87976761Y-124520038D01*
X87976761Y-124520038D02*
X87881523Y-124615276D01*
X87881523Y-124615276D02*
X87833904Y-124710514D01*
X87833904Y-124710514D02*
X87786285Y-124900990D01*
X87786285Y-124900990D02*
X87786285Y-125043847D01*
X87786285Y-125043847D02*
X87833904Y-125234323D01*
X87833904Y-125234323D02*
X87881523Y-125329561D01*
X87881523Y-125329561D02*
X87976761Y-125424800D01*
X87976761Y-125424800D02*
X88119618Y-125472419D01*
X88119618Y-125472419D02*
X88357713Y-125472419D01*
X107029561Y-110232419D02*
X107029561Y-109232419D01*
X106553371Y-110232419D02*
X106553371Y-109232419D01*
X106553371Y-109232419D02*
X105981943Y-110232419D01*
X105981943Y-110232419D02*
X105981943Y-109232419D01*
X105648609Y-109232419D02*
X105077181Y-109232419D01*
X105362895Y-110232419D02*
X105362895Y-109232419D01*
X90357713Y-115264800D02*
X90214856Y-115312419D01*
X90214856Y-115312419D02*
X89976761Y-115312419D01*
X89976761Y-115312419D02*
X89881523Y-115264800D01*
X89881523Y-115264800D02*
X89833904Y-115217180D01*
X89833904Y-115217180D02*
X89786285Y-115121942D01*
X89786285Y-115121942D02*
X89786285Y-115026704D01*
X89786285Y-115026704D02*
X89833904Y-114931466D01*
X89833904Y-114931466D02*
X89881523Y-114883847D01*
X89881523Y-114883847D02*
X89976761Y-114836228D01*
X89976761Y-114836228D02*
X90167237Y-114788609D01*
X90167237Y-114788609D02*
X90262475Y-114740990D01*
X90262475Y-114740990D02*
X90310094Y-114693371D01*
X90310094Y-114693371D02*
X90357713Y-114598133D01*
X90357713Y-114598133D02*
X90357713Y-114502895D01*
X90357713Y-114502895D02*
X90310094Y-114407657D01*
X90310094Y-114407657D02*
X90262475Y-114360038D01*
X90262475Y-114360038D02*
X90167237Y-114312419D01*
X90167237Y-114312419D02*
X89929142Y-114312419D01*
X89929142Y-114312419D02*
X89786285Y-114360038D01*
X88786285Y-115217180D02*
X88833904Y-115264800D01*
X88833904Y-115264800D02*
X88976761Y-115312419D01*
X88976761Y-115312419D02*
X89071999Y-115312419D01*
X89071999Y-115312419D02*
X89214856Y-115264800D01*
X89214856Y-115264800D02*
X89310094Y-115169561D01*
X89310094Y-115169561D02*
X89357713Y-115074323D01*
X89357713Y-115074323D02*
X89405332Y-114883847D01*
X89405332Y-114883847D02*
X89405332Y-114740990D01*
X89405332Y-114740990D02*
X89357713Y-114550514D01*
X89357713Y-114550514D02*
X89310094Y-114455276D01*
X89310094Y-114455276D02*
X89214856Y-114360038D01*
X89214856Y-114360038D02*
X89071999Y-114312419D01*
X89071999Y-114312419D02*
X88976761Y-114312419D01*
X88976761Y-114312419D02*
X88833904Y-114360038D01*
X88833904Y-114360038D02*
X88786285Y-114407657D01*
X88357713Y-115312419D02*
X88357713Y-114312419D01*
X87786285Y-115312419D02*
X88214856Y-114740990D01*
X87786285Y-114312419D02*
X88357713Y-114883847D01*
X88738666Y-112651780D02*
X88786285Y-112699400D01*
X88786285Y-112699400D02*
X88929142Y-112747019D01*
X88929142Y-112747019D02*
X89024380Y-112747019D01*
X89024380Y-112747019D02*
X89167237Y-112699400D01*
X89167237Y-112699400D02*
X89262475Y-112604161D01*
X89262475Y-112604161D02*
X89310094Y-112508923D01*
X89310094Y-112508923D02*
X89357713Y-112318447D01*
X89357713Y-112318447D02*
X89357713Y-112175590D01*
X89357713Y-112175590D02*
X89310094Y-111985114D01*
X89310094Y-111985114D02*
X89262475Y-111889876D01*
X89262475Y-111889876D02*
X89167237Y-111794638D01*
X89167237Y-111794638D02*
X89024380Y-111747019D01*
X89024380Y-111747019D02*
X88929142Y-111747019D01*
X88929142Y-111747019D02*
X88786285Y-111794638D01*
X88786285Y-111794638D02*
X88738666Y-111842257D01*
X88357713Y-112699400D02*
X88214856Y-112747019D01*
X88214856Y-112747019D02*
X87976761Y-112747019D01*
X87976761Y-112747019D02*
X87881523Y-112699400D01*
X87881523Y-112699400D02*
X87833904Y-112651780D01*
X87833904Y-112651780D02*
X87786285Y-112556542D01*
X87786285Y-112556542D02*
X87786285Y-112461304D01*
X87786285Y-112461304D02*
X87833904Y-112366066D01*
X87833904Y-112366066D02*
X87881523Y-112318447D01*
X87881523Y-112318447D02*
X87976761Y-112270828D01*
X87976761Y-112270828D02*
X88167237Y-112223209D01*
X88167237Y-112223209D02*
X88262475Y-112175590D01*
X88262475Y-112175590D02*
X88310094Y-112127971D01*
X88310094Y-112127971D02*
X88357713Y-112032733D01*
X88357713Y-112032733D02*
X88357713Y-111937495D01*
X88357713Y-111937495D02*
X88310094Y-111842257D01*
X88310094Y-111842257D02*
X88262475Y-111794638D01*
X88262475Y-111794638D02*
X88167237Y-111747019D01*
X88167237Y-111747019D02*
X87929142Y-111747019D01*
X87929142Y-111747019D02*
X87786285Y-111794638D01*
X106505751Y-124520038D02*
X106600989Y-124472419D01*
X106600989Y-124472419D02*
X106743846Y-124472419D01*
X106743846Y-124472419D02*
X106886703Y-124520038D01*
X106886703Y-124520038D02*
X106981941Y-124615276D01*
X106981941Y-124615276D02*
X107029560Y-124710514D01*
X107029560Y-124710514D02*
X107077179Y-124900990D01*
X107077179Y-124900990D02*
X107077179Y-125043847D01*
X107077179Y-125043847D02*
X107029560Y-125234323D01*
X107029560Y-125234323D02*
X106981941Y-125329561D01*
X106981941Y-125329561D02*
X106886703Y-125424800D01*
X106886703Y-125424800D02*
X106743846Y-125472419D01*
X106743846Y-125472419D02*
X106648608Y-125472419D01*
X106648608Y-125472419D02*
X106505751Y-125424800D01*
X106505751Y-125424800D02*
X106458132Y-125377180D01*
X106458132Y-125377180D02*
X106458132Y-125043847D01*
X106458132Y-125043847D02*
X106648608Y-125043847D01*
X106029560Y-125472419D02*
X106029560Y-124472419D01*
X106029560Y-124472419D02*
X105458132Y-125472419D01*
X105458132Y-125472419D02*
X105458132Y-124472419D01*
X104981941Y-125472419D02*
X104981941Y-124472419D01*
X104981941Y-124472419D02*
X104743846Y-124472419D01*
X104743846Y-124472419D02*
X104600989Y-124520038D01*
X104600989Y-124520038D02*
X104505751Y-124615276D01*
X104505751Y-124615276D02*
X104458132Y-124710514D01*
X104458132Y-124710514D02*
X104410513Y-124900990D01*
X104410513Y-124900990D02*
X104410513Y-125043847D01*
X104410513Y-125043847D02*
X104458132Y-125234323D01*
X104458132Y-125234323D02*
X104505751Y-125329561D01*
X104505751Y-125329561D02*
X104600989Y-125424800D01*
X104600989Y-125424800D02*
X104743846Y-125472419D01*
X104743846Y-125472419D02*
X104981941Y-125472419D01*
X107029560Y-122551466D02*
X106267656Y-122551466D01*
X106648608Y-122932419D02*
X106648608Y-122170514D01*
X105315275Y-121932419D02*
X105791465Y-121932419D01*
X105791465Y-121932419D02*
X105839084Y-122408609D01*
X105839084Y-122408609D02*
X105791465Y-122360990D01*
X105791465Y-122360990D02*
X105696227Y-122313371D01*
X105696227Y-122313371D02*
X105458132Y-122313371D01*
X105458132Y-122313371D02*
X105362894Y-122360990D01*
X105362894Y-122360990D02*
X105315275Y-122408609D01*
X105315275Y-122408609D02*
X105267656Y-122503847D01*
X105267656Y-122503847D02*
X105267656Y-122741942D01*
X105267656Y-122741942D02*
X105315275Y-122837180D01*
X105315275Y-122837180D02*
X105362894Y-122884800D01*
X105362894Y-122884800D02*
X105458132Y-122932419D01*
X105458132Y-122932419D02*
X105696227Y-122932419D01*
X105696227Y-122932419D02*
X105791465Y-122884800D01*
X105791465Y-122884800D02*
X105839084Y-122837180D01*
X104981941Y-121932419D02*
X104648608Y-122932419D01*
X104648608Y-122932419D02*
X104315275Y-121932419D01*
X107029561Y-107819419D02*
X107029561Y-106819419D01*
X107029561Y-106819419D02*
X106648609Y-106819419D01*
X106648609Y-106819419D02*
X106553371Y-106867038D01*
X106553371Y-106867038D02*
X106505752Y-106914657D01*
X106505752Y-106914657D02*
X106458133Y-107009895D01*
X106458133Y-107009895D02*
X106458133Y-107152752D01*
X106458133Y-107152752D02*
X106505752Y-107247990D01*
X106505752Y-107247990D02*
X106553371Y-107295609D01*
X106553371Y-107295609D02*
X106648609Y-107343228D01*
X106648609Y-107343228D02*
X107029561Y-107343228D01*
X106124799Y-106819419D02*
X105886704Y-107819419D01*
X105886704Y-107819419D02*
X105696228Y-107105133D01*
X105696228Y-107105133D02*
X105505752Y-107819419D01*
X105505752Y-107819419D02*
X105267657Y-106819419D01*
X104886704Y-107819419D02*
X104886704Y-106819419D01*
X104886704Y-106819419D02*
X104553371Y-107533704D01*
X104553371Y-107533704D02*
X104220038Y-106819419D01*
X104220038Y-106819419D02*
X104220038Y-107819419D01*
X90976761Y-120392419D02*
X90976761Y-119392419D01*
X90976761Y-119392419D02*
X90643428Y-120106704D01*
X90643428Y-120106704D02*
X90310095Y-119392419D01*
X90310095Y-119392419D02*
X90310095Y-120392419D01*
X89643428Y-119392419D02*
X89452952Y-119392419D01*
X89452952Y-119392419D02*
X89357714Y-119440038D01*
X89357714Y-119440038D02*
X89262476Y-119535276D01*
X89262476Y-119535276D02*
X89214857Y-119725752D01*
X89214857Y-119725752D02*
X89214857Y-120059085D01*
X89214857Y-120059085D02*
X89262476Y-120249561D01*
X89262476Y-120249561D02*
X89357714Y-120344800D01*
X89357714Y-120344800D02*
X89452952Y-120392419D01*
X89452952Y-120392419D02*
X89643428Y-120392419D01*
X89643428Y-120392419D02*
X89738666Y-120344800D01*
X89738666Y-120344800D02*
X89833904Y-120249561D01*
X89833904Y-120249561D02*
X89881523Y-120059085D01*
X89881523Y-120059085D02*
X89881523Y-119725752D01*
X89881523Y-119725752D02*
X89833904Y-119535276D01*
X89833904Y-119535276D02*
X89738666Y-119440038D01*
X89738666Y-119440038D02*
X89643428Y-119392419D01*
X88833904Y-120344800D02*
X88691047Y-120392419D01*
X88691047Y-120392419D02*
X88452952Y-120392419D01*
X88452952Y-120392419D02*
X88357714Y-120344800D01*
X88357714Y-120344800D02*
X88310095Y-120297180D01*
X88310095Y-120297180D02*
X88262476Y-120201942D01*
X88262476Y-120201942D02*
X88262476Y-120106704D01*
X88262476Y-120106704D02*
X88310095Y-120011466D01*
X88310095Y-120011466D02*
X88357714Y-119963847D01*
X88357714Y-119963847D02*
X88452952Y-119916228D01*
X88452952Y-119916228D02*
X88643428Y-119868609D01*
X88643428Y-119868609D02*
X88738666Y-119820990D01*
X88738666Y-119820990D02*
X88786285Y-119773371D01*
X88786285Y-119773371D02*
X88833904Y-119678133D01*
X88833904Y-119678133D02*
X88833904Y-119582895D01*
X88833904Y-119582895D02*
X88786285Y-119487657D01*
X88786285Y-119487657D02*
X88738666Y-119440038D01*
X88738666Y-119440038D02*
X88643428Y-119392419D01*
X88643428Y-119392419D02*
X88405333Y-119392419D01*
X88405333Y-119392419D02*
X88262476Y-119440038D01*
X87833904Y-120392419D02*
X87833904Y-119392419D01*
X107172418Y-114312419D02*
X106600990Y-114312419D01*
X106886704Y-115312419D02*
X106886704Y-114312419D01*
X106362894Y-114312419D02*
X105696228Y-115312419D01*
X105696228Y-114312419D02*
X106362894Y-115312419D01*
X89310095Y-107406704D02*
X88833905Y-107406704D01*
X89405333Y-107692419D02*
X89072000Y-106692419D01*
X89072000Y-106692419D02*
X88738667Y-107692419D01*
X88405333Y-107692419D02*
X88405333Y-106692419D01*
X88405333Y-106692419D02*
X87833905Y-107692419D01*
X87833905Y-107692419D02*
X87833905Y-106692419D01*
X106458132Y-112772419D02*
X106791465Y-112296228D01*
X107029560Y-112772419D02*
X107029560Y-111772419D01*
X107029560Y-111772419D02*
X106648608Y-111772419D01*
X106648608Y-111772419D02*
X106553370Y-111820038D01*
X106553370Y-111820038D02*
X106505751Y-111867657D01*
X106505751Y-111867657D02*
X106458132Y-111962895D01*
X106458132Y-111962895D02*
X106458132Y-112105752D01*
X106458132Y-112105752D02*
X106505751Y-112200990D01*
X106505751Y-112200990D02*
X106553370Y-112248609D01*
X106553370Y-112248609D02*
X106648608Y-112296228D01*
X106648608Y-112296228D02*
X107029560Y-112296228D01*
X106124798Y-111772419D02*
X105458132Y-112772419D01*
X105458132Y-111772419D02*
X106124798Y-112772419D01*
X90976761Y-117827019D02*
X90976761Y-116827019D01*
X90976761Y-116827019D02*
X90643428Y-117541304D01*
X90643428Y-117541304D02*
X90310095Y-116827019D01*
X90310095Y-116827019D02*
X90310095Y-117827019D01*
X89833904Y-117827019D02*
X89833904Y-116827019D01*
X89405333Y-117779400D02*
X89262476Y-117827019D01*
X89262476Y-117827019D02*
X89024381Y-117827019D01*
X89024381Y-117827019D02*
X88929143Y-117779400D01*
X88929143Y-117779400D02*
X88881524Y-117731780D01*
X88881524Y-117731780D02*
X88833905Y-117636542D01*
X88833905Y-117636542D02*
X88833905Y-117541304D01*
X88833905Y-117541304D02*
X88881524Y-117446066D01*
X88881524Y-117446066D02*
X88929143Y-117398447D01*
X88929143Y-117398447D02*
X89024381Y-117350828D01*
X89024381Y-117350828D02*
X89214857Y-117303209D01*
X89214857Y-117303209D02*
X89310095Y-117255590D01*
X89310095Y-117255590D02*
X89357714Y-117207971D01*
X89357714Y-117207971D02*
X89405333Y-117112733D01*
X89405333Y-117112733D02*
X89405333Y-117017495D01*
X89405333Y-117017495D02*
X89357714Y-116922257D01*
X89357714Y-116922257D02*
X89310095Y-116874638D01*
X89310095Y-116874638D02*
X89214857Y-116827019D01*
X89214857Y-116827019D02*
X88976762Y-116827019D01*
X88976762Y-116827019D02*
X88833905Y-116874638D01*
X88214857Y-116827019D02*
X88024381Y-116827019D01*
X88024381Y-116827019D02*
X87929143Y-116874638D01*
X87929143Y-116874638D02*
X87833905Y-116969876D01*
X87833905Y-116969876D02*
X87786286Y-117160352D01*
X87786286Y-117160352D02*
X87786286Y-117493685D01*
X87786286Y-117493685D02*
X87833905Y-117684161D01*
X87833905Y-117684161D02*
X87929143Y-117779400D01*
X87929143Y-117779400D02*
X88024381Y-117827019D01*
X88024381Y-117827019D02*
X88214857Y-117827019D01*
X88214857Y-117827019D02*
X88310095Y-117779400D01*
X88310095Y-117779400D02*
X88405333Y-117684161D01*
X88405333Y-117684161D02*
X88452952Y-117493685D01*
X88452952Y-117493685D02*
X88452952Y-117160352D01*
X88452952Y-117160352D02*
X88405333Y-116969876D01*
X88405333Y-116969876D02*
X88310095Y-116874638D01*
X88310095Y-116874638D02*
X88214857Y-116827019D01*
X107077179Y-117804800D02*
X106934322Y-117852419D01*
X106934322Y-117852419D02*
X106696227Y-117852419D01*
X106696227Y-117852419D02*
X106600989Y-117804800D01*
X106600989Y-117804800D02*
X106553370Y-117757180D01*
X106553370Y-117757180D02*
X106505751Y-117661942D01*
X106505751Y-117661942D02*
X106505751Y-117566704D01*
X106505751Y-117566704D02*
X106553370Y-117471466D01*
X106553370Y-117471466D02*
X106600989Y-117423847D01*
X106600989Y-117423847D02*
X106696227Y-117376228D01*
X106696227Y-117376228D02*
X106886703Y-117328609D01*
X106886703Y-117328609D02*
X106981941Y-117280990D01*
X106981941Y-117280990D02*
X107029560Y-117233371D01*
X107029560Y-117233371D02*
X107077179Y-117138133D01*
X107077179Y-117138133D02*
X107077179Y-117042895D01*
X107077179Y-117042895D02*
X107029560Y-116947657D01*
X107029560Y-116947657D02*
X106981941Y-116900038D01*
X106981941Y-116900038D02*
X106886703Y-116852419D01*
X106886703Y-116852419D02*
X106648608Y-116852419D01*
X106648608Y-116852419D02*
X106505751Y-116900038D01*
X105505751Y-117757180D02*
X105553370Y-117804800D01*
X105553370Y-117804800D02*
X105696227Y-117852419D01*
X105696227Y-117852419D02*
X105791465Y-117852419D01*
X105791465Y-117852419D02*
X105934322Y-117804800D01*
X105934322Y-117804800D02*
X106029560Y-117709561D01*
X106029560Y-117709561D02*
X106077179Y-117614323D01*
X106077179Y-117614323D02*
X106124798Y-117423847D01*
X106124798Y-117423847D02*
X106124798Y-117280990D01*
X106124798Y-117280990D02*
X106077179Y-117090514D01*
X106077179Y-117090514D02*
X106029560Y-116995276D01*
X106029560Y-116995276D02*
X105934322Y-116900038D01*
X105934322Y-116900038D02*
X105791465Y-116852419D01*
X105791465Y-116852419D02*
X105696227Y-116852419D01*
X105696227Y-116852419D02*
X105553370Y-116900038D01*
X105553370Y-116900038D02*
X105505751Y-116947657D01*
X104600989Y-117852419D02*
X105077179Y-117852419D01*
X105077179Y-117852419D02*
X105077179Y-116852419D01*
X97799999Y-122845276D02*
X97799999Y-123797657D01*
X98633333Y-123416704D02*
X97799999Y-123797657D01*
X97799999Y-123797657D02*
X96966666Y-123416704D01*
X98299999Y-124559561D02*
X97799999Y-123797657D01*
X97799999Y-123797657D02*
X97299999Y-124559561D01*
X107077180Y-120344800D02*
X106934323Y-120392419D01*
X106934323Y-120392419D02*
X106696228Y-120392419D01*
X106696228Y-120392419D02*
X106600990Y-120344800D01*
X106600990Y-120344800D02*
X106553371Y-120297180D01*
X106553371Y-120297180D02*
X106505752Y-120201942D01*
X106505752Y-120201942D02*
X106505752Y-120106704D01*
X106505752Y-120106704D02*
X106553371Y-120011466D01*
X106553371Y-120011466D02*
X106600990Y-119963847D01*
X106600990Y-119963847D02*
X106696228Y-119916228D01*
X106696228Y-119916228D02*
X106886704Y-119868609D01*
X106886704Y-119868609D02*
X106981942Y-119820990D01*
X106981942Y-119820990D02*
X107029561Y-119773371D01*
X107029561Y-119773371D02*
X107077180Y-119678133D01*
X107077180Y-119678133D02*
X107077180Y-119582895D01*
X107077180Y-119582895D02*
X107029561Y-119487657D01*
X107029561Y-119487657D02*
X106981942Y-119440038D01*
X106981942Y-119440038D02*
X106886704Y-119392419D01*
X106886704Y-119392419D02*
X106648609Y-119392419D01*
X106648609Y-119392419D02*
X106505752Y-119440038D01*
X106077180Y-120392419D02*
X106077180Y-119392419D01*
X106077180Y-119392419D02*
X105839085Y-119392419D01*
X105839085Y-119392419D02*
X105696228Y-119440038D01*
X105696228Y-119440038D02*
X105600990Y-119535276D01*
X105600990Y-119535276D02*
X105553371Y-119630514D01*
X105553371Y-119630514D02*
X105505752Y-119820990D01*
X105505752Y-119820990D02*
X105505752Y-119963847D01*
X105505752Y-119963847D02*
X105553371Y-120154323D01*
X105553371Y-120154323D02*
X105600990Y-120249561D01*
X105600990Y-120249561D02*
X105696228Y-120344800D01*
X105696228Y-120344800D02*
X105839085Y-120392419D01*
X105839085Y-120392419D02*
X106077180Y-120392419D01*
X105124799Y-120106704D02*
X104648609Y-120106704D01*
X105220037Y-120392419D02*
X104886704Y-119392419D01*
X104886704Y-119392419D02*
X104553371Y-120392419D01*
X91357714Y-122526066D02*
X90595810Y-122526066D01*
X90976762Y-122907019D02*
X90976762Y-122145114D01*
X90214857Y-121907019D02*
X89595810Y-121907019D01*
X89595810Y-121907019D02*
X89929143Y-122287971D01*
X89929143Y-122287971D02*
X89786286Y-122287971D01*
X89786286Y-122287971D02*
X89691048Y-122335590D01*
X89691048Y-122335590D02*
X89643429Y-122383209D01*
X89643429Y-122383209D02*
X89595810Y-122478447D01*
X89595810Y-122478447D02*
X89595810Y-122716542D01*
X89595810Y-122716542D02*
X89643429Y-122811780D01*
X89643429Y-122811780D02*
X89691048Y-122859400D01*
X89691048Y-122859400D02*
X89786286Y-122907019D01*
X89786286Y-122907019D02*
X90072000Y-122907019D01*
X90072000Y-122907019D02*
X90167238Y-122859400D01*
X90167238Y-122859400D02*
X90214857Y-122811780D01*
X89310095Y-121907019D02*
X88976762Y-122907019D01*
X88976762Y-122907019D02*
X88643429Y-121907019D01*
X88405333Y-121907019D02*
X87786286Y-121907019D01*
X87786286Y-121907019D02*
X88119619Y-122287971D01*
X88119619Y-122287971D02*
X87976762Y-122287971D01*
X87976762Y-122287971D02*
X87881524Y-122335590D01*
X87881524Y-122335590D02*
X87833905Y-122383209D01*
X87833905Y-122383209D02*
X87786286Y-122478447D01*
X87786286Y-122478447D02*
X87786286Y-122716542D01*
X87786286Y-122716542D02*
X87833905Y-122811780D01*
X87833905Y-122811780D02*
X87881524Y-122859400D01*
X87881524Y-122859400D02*
X87976762Y-122907019D01*
X87976762Y-122907019D02*
X88262476Y-122907019D01*
X88262476Y-122907019D02*
X88357714Y-122859400D01*
X88357714Y-122859400D02*
X88405333Y-122811780D01*
X102733332Y-108257419D02*
X102733332Y-107590752D01*
X102733332Y-107685990D02*
X102685713Y-107638371D01*
X102685713Y-107638371D02*
X102590475Y-107590752D01*
X102590475Y-107590752D02*
X102447618Y-107590752D01*
X102447618Y-107590752D02*
X102352380Y-107638371D01*
X102352380Y-107638371D02*
X102304761Y-107733609D01*
X102304761Y-107733609D02*
X102304761Y-108257419D01*
X102304761Y-107733609D02*
X102257142Y-107638371D01*
X102257142Y-107638371D02*
X102161904Y-107590752D01*
X102161904Y-107590752D02*
X102019047Y-107590752D01*
X102019047Y-107590752D02*
X101923808Y-107638371D01*
X101923808Y-107638371D02*
X101876189Y-107733609D01*
X101876189Y-107733609D02*
X101876189Y-108257419D01*
X101399999Y-108257419D02*
X101399999Y-107590752D01*
X101399999Y-107257419D02*
X101447618Y-107305038D01*
X101447618Y-107305038D02*
X101399999Y-107352657D01*
X101399999Y-107352657D02*
X101352380Y-107305038D01*
X101352380Y-107305038D02*
X101399999Y-107257419D01*
X101399999Y-107257419D02*
X101399999Y-107352657D01*
X100923809Y-108257419D02*
X100923809Y-107257419D01*
X100828571Y-107876466D02*
X100542857Y-108257419D01*
X100542857Y-107590752D02*
X100923809Y-107971704D01*
X100114285Y-108257419D02*
X100114285Y-107590752D01*
X100114285Y-107781228D02*
X100066666Y-107685990D01*
X100066666Y-107685990D02*
X100019047Y-107638371D01*
X100019047Y-107638371D02*
X99923809Y-107590752D01*
X99923809Y-107590752D02*
X99828571Y-107590752D01*
X99352380Y-108257419D02*
X99447618Y-108209800D01*
X99447618Y-108209800D02*
X99495237Y-108162180D01*
X99495237Y-108162180D02*
X99542856Y-108066942D01*
X99542856Y-108066942D02*
X99542856Y-107781228D01*
X99542856Y-107781228D02*
X99495237Y-107685990D01*
X99495237Y-107685990D02*
X99447618Y-107638371D01*
X99447618Y-107638371D02*
X99352380Y-107590752D01*
X99352380Y-107590752D02*
X99209523Y-107590752D01*
X99209523Y-107590752D02*
X99114285Y-107638371D01*
X99114285Y-107638371D02*
X99066666Y-107685990D01*
X99066666Y-107685990D02*
X99019047Y-107781228D01*
X99019047Y-107781228D02*
X99019047Y-108066942D01*
X99019047Y-108066942D02*
X99066666Y-108162180D01*
X99066666Y-108162180D02*
X99114285Y-108209800D01*
X99114285Y-108209800D02*
X99209523Y-108257419D01*
X99209523Y-108257419D02*
X99352380Y-108257419D01*
X98257142Y-107733609D02*
X98114285Y-107781228D01*
X98114285Y-107781228D02*
X98066666Y-107828847D01*
X98066666Y-107828847D02*
X98019047Y-107924085D01*
X98019047Y-107924085D02*
X98019047Y-108066942D01*
X98019047Y-108066942D02*
X98066666Y-108162180D01*
X98066666Y-108162180D02*
X98114285Y-108209800D01*
X98114285Y-108209800D02*
X98209523Y-108257419D01*
X98209523Y-108257419D02*
X98590475Y-108257419D01*
X98590475Y-108257419D02*
X98590475Y-107257419D01*
X98590475Y-107257419D02*
X98257142Y-107257419D01*
X98257142Y-107257419D02*
X98161904Y-107305038D01*
X98161904Y-107305038D02*
X98114285Y-107352657D01*
X98114285Y-107352657D02*
X98066666Y-107447895D01*
X98066666Y-107447895D02*
X98066666Y-107543133D01*
X98066666Y-107543133D02*
X98114285Y-107638371D01*
X98114285Y-107638371D02*
X98161904Y-107685990D01*
X98161904Y-107685990D02*
X98257142Y-107733609D01*
X98257142Y-107733609D02*
X98590475Y-107733609D01*
X97590475Y-107257419D02*
X97590475Y-108066942D01*
X97590475Y-108066942D02*
X97542856Y-108162180D01*
X97542856Y-108162180D02*
X97495237Y-108209800D01*
X97495237Y-108209800D02*
X97399999Y-108257419D01*
X97399999Y-108257419D02*
X97209523Y-108257419D01*
X97209523Y-108257419D02*
X97114285Y-108209800D01*
X97114285Y-108209800D02*
X97066666Y-108162180D01*
X97066666Y-108162180D02*
X97019047Y-108066942D01*
X97019047Y-108066942D02*
X97019047Y-107257419D01*
X96590475Y-108209800D02*
X96447618Y-108257419D01*
X96447618Y-108257419D02*
X96209523Y-108257419D01*
X96209523Y-108257419D02*
X96114285Y-108209800D01*
X96114285Y-108209800D02*
X96066666Y-108162180D01*
X96066666Y-108162180D02*
X96019047Y-108066942D01*
X96019047Y-108066942D02*
X96019047Y-107971704D01*
X96019047Y-107971704D02*
X96066666Y-107876466D01*
X96066666Y-107876466D02*
X96114285Y-107828847D01*
X96114285Y-107828847D02*
X96209523Y-107781228D01*
X96209523Y-107781228D02*
X96399999Y-107733609D01*
X96399999Y-107733609D02*
X96495237Y-107685990D01*
X96495237Y-107685990D02*
X96542856Y-107638371D01*
X96542856Y-107638371D02*
X96590475Y-107543133D01*
X96590475Y-107543133D02*
X96590475Y-107447895D01*
X96590475Y-107447895D02*
X96542856Y-107352657D01*
X96542856Y-107352657D02*
X96495237Y-107305038D01*
X96495237Y-107305038D02*
X96399999Y-107257419D01*
X96399999Y-107257419D02*
X96161904Y-107257419D01*
X96161904Y-107257419D02*
X96019047Y-107305038D01*
X98728571Y-106979800D02*
X95928571Y-106979800D01*
X89500572Y-110232419D02*
X89833905Y-109756228D01*
X90072000Y-110232419D02*
X90072000Y-109232419D01*
X90072000Y-109232419D02*
X89691048Y-109232419D01*
X89691048Y-109232419D02*
X89595810Y-109280038D01*
X89595810Y-109280038D02*
X89548191Y-109327657D01*
X89548191Y-109327657D02*
X89500572Y-109422895D01*
X89500572Y-109422895D02*
X89500572Y-109565752D01*
X89500572Y-109565752D02*
X89548191Y-109660990D01*
X89548191Y-109660990D02*
X89595810Y-109708609D01*
X89595810Y-109708609D02*
X89691048Y-109756228D01*
X89691048Y-109756228D02*
X90072000Y-109756228D01*
X89119619Y-110184800D02*
X88976762Y-110232419D01*
X88976762Y-110232419D02*
X88738667Y-110232419D01*
X88738667Y-110232419D02*
X88643429Y-110184800D01*
X88643429Y-110184800D02*
X88595810Y-110137180D01*
X88595810Y-110137180D02*
X88548191Y-110041942D01*
X88548191Y-110041942D02*
X88548191Y-109946704D01*
X88548191Y-109946704D02*
X88595810Y-109851466D01*
X88595810Y-109851466D02*
X88643429Y-109803847D01*
X88643429Y-109803847D02*
X88738667Y-109756228D01*
X88738667Y-109756228D02*
X88929143Y-109708609D01*
X88929143Y-109708609D02*
X89024381Y-109660990D01*
X89024381Y-109660990D02*
X89072000Y-109613371D01*
X89072000Y-109613371D02*
X89119619Y-109518133D01*
X89119619Y-109518133D02*
X89119619Y-109422895D01*
X89119619Y-109422895D02*
X89072000Y-109327657D01*
X89072000Y-109327657D02*
X89024381Y-109280038D01*
X89024381Y-109280038D02*
X88929143Y-109232419D01*
X88929143Y-109232419D02*
X88691048Y-109232419D01*
X88691048Y-109232419D02*
X88548191Y-109280038D01*
X88262476Y-109232419D02*
X87691048Y-109232419D01*
X87976762Y-110232419D02*
X87976762Y-109232419D01*
D11*
X114720000Y-126030000D02*
X114720000Y-128650000D01*
X114720000Y-128650000D02*
X137590000Y-128630000D01*
X114730000Y-105730000D02*
X114730000Y-108270000D01*
X114730000Y-108270000D02*
X114730000Y-126050000D01*
X114730000Y-108270000D02*
X117270000Y-108270000D01*
X114730000Y-126050000D02*
X117270000Y-126050000D01*
X117270000Y-105730000D02*
X114730000Y-105730000D01*
X117270000Y-108270000D02*
X117270000Y-105730000D01*
X117270000Y-126050000D02*
X117270000Y-108270000D01*
D12*
X125049000Y-103520200D02*
X125049000Y-105044200D01*
X126192000Y-103520200D02*
X125049000Y-103520200D01*
X126192000Y-103520200D02*
X126192000Y-101869200D01*
X127335000Y-103520200D02*
X126192000Y-103520200D01*
X127335000Y-103520200D02*
X127335000Y-105044200D01*
X128478000Y-103520200D02*
X127335000Y-103520200D01*
X128478000Y-103520200D02*
X128478000Y-101869200D01*
X129494000Y-103520200D02*
X128478000Y-103520200D01*
X129494000Y-103520200D02*
X129494000Y-105044200D01*
D11*
X137590000Y-105730000D02*
X137590000Y-108270000D01*
X137590000Y-105730000D02*
X140130000Y-105730000D01*
X137590000Y-108270000D02*
X137590000Y-126050000D01*
X137590000Y-108270000D02*
X140130000Y-108270000D01*
X137590000Y-126050000D02*
X140130000Y-126050000D01*
X140130000Y-105730000D02*
X140130000Y-126050000D01*
X140130000Y-126050000D02*
X137590000Y-128640000D01*
D13*
X125277600Y-105044200D02*
G75*
G02*
X124820400Y-105044200I-228600J0D01*
G01*
X124820400Y-105044200D02*
G75*
G02*
X125277600Y-105044200I228600J0D01*
G01*
X126420600Y-101869200D02*
G75*
G02*
X125963400Y-101869200I-228600J0D01*
G01*
X125963400Y-101869200D02*
G75*
G02*
X126420600Y-101869200I228600J0D01*
G01*
X127563600Y-105044200D02*
G75*
G02*
X127106400Y-105044200I-228600J0D01*
G01*
X127106400Y-105044200D02*
G75*
G02*
X127563600Y-105044200I228600J0D01*
G01*
X128706600Y-101869200D02*
G75*
G02*
X128249400Y-101869200I-228600J0D01*
G01*
X128249400Y-101869200D02*
G75*
G02*
X128706600Y-101869200I228600J0D01*
G01*
X129722600Y-105044200D02*
G75*
G02*
X129265400Y-105044200I-228600J0D01*
G01*
X129265400Y-105044200D02*
G75*
G02*
X129722600Y-105044200I228600J0D01*
G01*
D11*
X84720000Y-126030000D02*
X84720000Y-128650000D01*
X84720000Y-128650000D02*
X107590000Y-128630000D01*
X84730000Y-105730000D02*
X84730000Y-108270000D01*
X84730000Y-108270000D02*
X84730000Y-126050000D01*
X84730000Y-108270000D02*
X87270000Y-108270000D01*
X84730000Y-126050000D02*
X87270000Y-126050000D01*
X87270000Y-105730000D02*
X84730000Y-105730000D01*
X87270000Y-108270000D02*
X87270000Y-105730000D01*
X87270000Y-126050000D02*
X87270000Y-108270000D01*
D12*
X95049000Y-103520200D02*
X95049000Y-105044200D01*
X96192000Y-103520200D02*
X95049000Y-103520200D01*
X96192000Y-103520200D02*
X96192000Y-101869200D01*
X97335000Y-103520200D02*
X96192000Y-103520200D01*
X97335000Y-103520200D02*
X97335000Y-105044200D01*
X98478000Y-103520200D02*
X97335000Y-103520200D01*
X98478000Y-103520200D02*
X98478000Y-101869200D01*
X99494000Y-103520200D02*
X98478000Y-103520200D01*
X99494000Y-103520200D02*
X99494000Y-105044200D01*
D11*
X107590000Y-105730000D02*
X107590000Y-108270000D01*
X107590000Y-105730000D02*
X110130000Y-105730000D01*
X107590000Y-108270000D02*
X107590000Y-126050000D01*
X107590000Y-108270000D02*
X110130000Y-108270000D01*
X107590000Y-126050000D02*
X110130000Y-126050000D01*
X110130000Y-105730000D02*
X110130000Y-126050000D01*
X110130000Y-126050000D02*
X107590000Y-128640000D01*
D13*
X95277600Y-105044200D02*
G75*
G02*
X94820400Y-105044200I-228600J0D01*
G01*
X94820400Y-105044200D02*
G75*
G02*
X95277600Y-105044200I228600J0D01*
G01*
X96420600Y-101869200D02*
G75*
G02*
X95963400Y-101869200I-228600J0D01*
G01*
X95963400Y-101869200D02*
G75*
G02*
X96420600Y-101869200I228600J0D01*
G01*
X97563600Y-105044200D02*
G75*
G02*
X97106400Y-105044200I-228600J0D01*
G01*
X97106400Y-105044200D02*
G75*
G02*
X97563600Y-105044200I228600J0D01*
G01*
X98706600Y-101869200D02*
G75*
G02*
X98249400Y-101869200I-228600J0D01*
G01*
X98249400Y-101869200D02*
G75*
G02*
X98706600Y-101869200I228600J0D01*
G01*
X99722600Y-105044200D02*
G75*
G02*
X99265400Y-105044200I-228600J0D01*
G01*
X99265400Y-105044200D02*
G75*
G02*
X99722600Y-105044200I228600J0D01*
G01*
%LPC*%
D14*
X88000000Y-58000000D03*
X172000000Y-58000000D03*
X88000000Y-142000000D03*
X172000000Y-142000000D03*
D15*
X164000000Y-87000000D03*
D16*
X164000000Y-89500000D03*
X166000000Y-89500000D03*
X166000000Y-87000000D03*
D17*
X168710000Y-82230000D03*
X168710000Y-94270000D03*
D18*
X172300000Y-70000000D03*
X169300000Y-65300000D03*
X166300000Y-70000000D03*
D19*
X84744600Y-70284400D03*
D16*
X87284600Y-70284400D03*
X84744600Y-72824400D03*
X87284600Y-72824400D03*
X84744600Y-75364400D03*
X87284600Y-75364400D03*
X84744600Y-77904400D03*
X87284600Y-77904400D03*
X84744600Y-80444400D03*
X87284600Y-80444400D03*
X84744600Y-82984400D03*
X87284600Y-82984400D03*
X84744600Y-85524400D03*
X87284600Y-85524400D03*
X84744600Y-88064400D03*
X87284600Y-88064400D03*
X84744600Y-90604400D03*
X87284600Y-90604400D03*
X84744600Y-93144400D03*
X87284600Y-93144400D03*
D20*
X116000000Y-107000000D03*
D21*
X116000000Y-109540000D03*
X116000000Y-112080000D03*
X116000000Y-114620000D03*
X116000000Y-117160000D03*
X116000000Y-119700000D03*
X116000000Y-122240000D03*
X116000000Y-124780000D03*
X138860000Y-124780000D03*
X138860000Y-122240000D03*
X138860000Y-119700000D03*
X138860000Y-117160000D03*
X138860000Y-114620000D03*
X138860000Y-112080000D03*
X138860000Y-109540000D03*
D22*
X138860000Y-107000000D03*
D20*
X86000000Y-107000000D03*
D21*
X86000000Y-109540000D03*
X86000000Y-112080000D03*
X86000000Y-114620000D03*
X86000000Y-117160000D03*
X86000000Y-119700000D03*
X86000000Y-122240000D03*
X86000000Y-124780000D03*
X108860000Y-124780000D03*
X108860000Y-122240000D03*
X108860000Y-119700000D03*
X108860000Y-117160000D03*
X108860000Y-114620000D03*
X108860000Y-112080000D03*
X108860000Y-109540000D03*
D22*
X108860000Y-107000000D03*
D23*
X133970000Y-137315000D03*
D24*
X133970000Y-139855000D03*
X133970000Y-142395000D03*
X133970000Y-144935000D03*
X141590000Y-144935000D03*
X141590000Y-142395000D03*
X141590000Y-139855000D03*
X141590000Y-137315000D03*
D25*
X111650000Y-89350000D03*
X116530000Y-89350000D03*
D26*
X119364800Y-83771800D03*
X119364800Y-85471800D03*
D25*
X146800000Y-116730000D03*
X146800000Y-111850000D03*
D15*
X164000000Y-106000000D03*
D16*
X164000000Y-108500000D03*
X166000000Y-108500000D03*
X166000000Y-106000000D03*
D17*
X168710000Y-101230000D03*
X168710000Y-113270000D03*
D15*
X115425000Y-75500000D03*
D27*
X112885000Y-75500000D03*
D23*
X155850000Y-59850000D03*
D28*
X155850000Y-57350000D03*
D15*
X126000000Y-66000000D03*
D27*
X128540000Y-66000000D03*
D15*
X155000000Y-75000000D03*
D27*
X155000000Y-77540000D03*
X155000000Y-80080000D03*
X155000000Y-82620000D03*
X155000000Y-85160000D03*
X155000000Y-87700000D03*
X155000000Y-90240000D03*
X155000000Y-92780000D03*
D29*
X114513600Y-60570000D03*
X117256800Y-60570000D03*
X120000000Y-60570000D03*
X122743200Y-60570000D03*
X125486400Y-60570000D03*
X115885200Y-58030000D03*
X118628400Y-58030000D03*
X121371600Y-58030000D03*
X124114800Y-58030000D03*
D30*
X107477800Y-59300000D03*
X132522200Y-59300000D03*
D15*
X148000000Y-75000000D03*
D27*
X148000000Y-77540000D03*
X148000000Y-80080000D03*
X148000000Y-82620000D03*
X148000000Y-85160000D03*
X148000000Y-87700000D03*
X148000000Y-90240000D03*
X148000000Y-92780000D03*
X148000000Y-95320000D03*
D15*
X97150000Y-55850000D03*
D27*
X97150000Y-58390000D03*
D23*
X163167600Y-59800000D03*
D28*
X165667600Y-59800000D03*
%LPD*%
M02*
