G04 #@! TF.GenerationSoftware,KiCad,Pcbnew,8.0.6*
G04 #@! TF.CreationDate,2025-01-17T22:38:05-05:00*
G04 #@! TF.ProjectId,board_stm32_rev2,626f6172-645f-4737-946d-33325f726576,rev?*
G04 #@! TF.SameCoordinates,Original*
G04 #@! TF.FileFunction,Soldermask,Bot*
G04 #@! TF.FilePolarity,Negative*
%FSLAX46Y46*%
G04 Gerber Fmt 4.6, Leading zero omitted, Abs format (unit mm)*
G04 Created by KiCad (PCBNEW 8.0.6) date 2025-01-17 22:38:05*
%MOMM*%
%LPD*%
G01*
G04 APERTURE LIST*
G04 Aperture macros list*
%AMRoundRect*
0 Rectangle with rounded corners*
0 $1 Rounding radius*
0 $2 $3 $4 $5 $6 $7 $8 $9 X,Y pos of 4 corners*
0 Add a 4 corners polygon primitive as box body*
4,1,4,$2,$3,$4,$5,$6,$7,$8,$9,$2,$3,0*
0 Add four circle primitives for the rounded corners*
1,1,$1+$1,$2,$3*
1,1,$1+$1,$4,$5*
1,1,$1+$1,$6,$7*
1,1,$1+$1,$8,$9*
0 Add four rect primitives between the rounded corners*
20,1,$1+$1,$2,$3,$4,$5,0*
20,1,$1+$1,$4,$5,$6,$7,0*
20,1,$1+$1,$6,$7,$8,$9,0*
20,1,$1+$1,$8,$9,$2,$3,0*%
G04 Aperture macros list end*
%ADD10C,4.700000*%
%ADD11R,1.700000X1.700000*%
%ADD12C,1.700000*%
%ADD13C,3.500000*%
%ADD14C,4.419600*%
%ADD15RoundRect,0.250000X-0.600000X-0.600000X0.600000X-0.600000X0.600000X0.600000X-0.600000X0.600000X0*%
%ADD16R,1.676400X1.676400*%
%ADD17C,1.524000*%
%ADD18R,1.524000X1.524000*%
%ADD19R,1.600000X1.600000*%
%ADD20O,1.600000X1.600000*%
%ADD21C,1.500000*%
%ADD22C,1.000000*%
%ADD23O,1.700000X1.700000*%
%ADD24C,1.600000*%
%ADD25C,1.625600*%
%ADD26C,5.181600*%
G04 APERTURE END LIST*
D10*
X88000000Y-58000000D03*
X172000000Y-58000000D03*
X88000000Y-142000000D03*
X172000000Y-142000000D03*
D11*
X164000000Y-87000000D03*
D12*
X164000000Y-89500000D03*
X166000000Y-89500000D03*
X166000000Y-87000000D03*
D13*
X168710000Y-82230000D03*
X168710000Y-94270000D03*
D14*
X172300000Y-70000000D03*
X169300000Y-65300000D03*
X166300000Y-70000000D03*
D15*
X84744600Y-70284400D03*
D12*
X87284600Y-70284400D03*
X84744600Y-72824400D03*
X87284600Y-72824400D03*
X84744600Y-75364400D03*
X87284600Y-75364400D03*
X84744600Y-77904400D03*
X87284600Y-77904400D03*
X84744600Y-80444400D03*
X87284600Y-80444400D03*
X84744600Y-82984400D03*
X87284600Y-82984400D03*
X84744600Y-85524400D03*
X87284600Y-85524400D03*
X84744600Y-88064400D03*
X87284600Y-88064400D03*
X84744600Y-90604400D03*
X87284600Y-90604400D03*
X84744600Y-93144400D03*
X87284600Y-93144400D03*
D16*
X116000000Y-107000000D03*
D17*
X116000000Y-109540000D03*
X116000000Y-112080000D03*
X116000000Y-114620000D03*
X116000000Y-117160000D03*
X116000000Y-119700000D03*
X116000000Y-122240000D03*
X116000000Y-124780000D03*
X138860000Y-124780000D03*
X138860000Y-122240000D03*
X138860000Y-119700000D03*
X138860000Y-117160000D03*
X138860000Y-114620000D03*
X138860000Y-112080000D03*
X138860000Y-109540000D03*
D18*
X138860000Y-107000000D03*
D16*
X86000000Y-107000000D03*
D17*
X86000000Y-109540000D03*
X86000000Y-112080000D03*
X86000000Y-114620000D03*
X86000000Y-117160000D03*
X86000000Y-119700000D03*
X86000000Y-122240000D03*
X86000000Y-124780000D03*
X108860000Y-124780000D03*
X108860000Y-122240000D03*
X108860000Y-119700000D03*
X108860000Y-117160000D03*
X108860000Y-114620000D03*
X108860000Y-112080000D03*
X108860000Y-109540000D03*
D18*
X108860000Y-107000000D03*
D19*
X133970000Y-137315000D03*
D20*
X133970000Y-139855000D03*
X133970000Y-142395000D03*
X133970000Y-144935000D03*
X141590000Y-144935000D03*
X141590000Y-142395000D03*
X141590000Y-139855000D03*
X141590000Y-137315000D03*
D21*
X111650000Y-89350000D03*
X116530000Y-89350000D03*
D22*
X119364800Y-83771800D03*
X119364800Y-85471800D03*
D21*
X146800000Y-116730000D03*
X146800000Y-111850000D03*
D11*
X164000000Y-106000000D03*
D12*
X164000000Y-108500000D03*
X166000000Y-108500000D03*
X166000000Y-106000000D03*
D13*
X168710000Y-101230000D03*
X168710000Y-113270000D03*
D11*
X115425000Y-75500000D03*
D23*
X112885000Y-75500000D03*
D19*
X155850000Y-59850000D03*
D24*
X155850000Y-57350000D03*
D11*
X126000000Y-66000000D03*
D23*
X128540000Y-66000000D03*
D11*
X155000000Y-75000000D03*
D23*
X155000000Y-77540000D03*
X155000000Y-80080000D03*
X155000000Y-82620000D03*
X155000000Y-85160000D03*
X155000000Y-87700000D03*
X155000000Y-90240000D03*
X155000000Y-92780000D03*
D25*
X114513600Y-60570000D03*
X117256800Y-60570000D03*
X120000000Y-60570000D03*
X122743200Y-60570000D03*
X125486400Y-60570000D03*
X115885200Y-58030000D03*
X118628400Y-58030000D03*
X121371600Y-58030000D03*
X124114800Y-58030000D03*
D26*
X107477800Y-59300000D03*
X132522200Y-59300000D03*
D11*
X148000000Y-75000000D03*
D23*
X148000000Y-77540000D03*
X148000000Y-80080000D03*
X148000000Y-82620000D03*
X148000000Y-85160000D03*
X148000000Y-87700000D03*
X148000000Y-90240000D03*
X148000000Y-92780000D03*
X148000000Y-95320000D03*
D11*
X97150000Y-55850000D03*
D23*
X97150000Y-58390000D03*
D19*
X163167600Y-59800000D03*
D24*
X165667600Y-59800000D03*
M02*
