<?xml version="1.0" standalone="no"?>
 <!DOCTYPE svg PUBLIC "-//W3C//DTD SVG 1.1//EN" 
 "http://www.w3.org/Graphics/SVG/1.1/DTD/svg11.dtd"> 
<svg
  xmlns:svg="http://www.w3.org/2000/svg"
  xmlns="http://www.w3.org/2000/svg"
  xmlns:xlink="http://www.w3.org/1999/xlink"
  version="1.1"
  width="102.3112mm" height="57.1500mm" viewBox="0.0000 0.0000 102.3112 57.1500">
<title>SVG Image created as RL78_G14_Arduino_32p-F_Paste.svg date 2025/01/18 19:56:48 </title>
  <desc>Image generated by PCBNEW </desc>
<g style="fill:#000000; fill-opacity:1.0000;stroke:#000000; stroke-opacity:1.0000;
stroke-linecap:round; stroke-linejoin:round;"
 transform="translate(0 0) scale(1 1)">
<path style="fill:#000000; fill-opacity:1.0000; stroke:none;fill-rule:evenodd;"
d="M 68.1000,27.7500
68.1000,27.2500
69.3000,27.2500
69.3000,27.7500
Z" /> 
<path style="fill:#000000; fill-opacity:1.0000; stroke:none;fill-rule:evenodd;"
d="M 68.1000,26.9500
68.1000,26.4500
69.3000,26.4500
69.3000,26.9500
Z" /> 
<path style="fill:#000000; fill-opacity:1.0000; stroke:none;fill-rule:evenodd;"
d="M 68.1000,26.1500
68.1000,25.6500
69.3000,25.6500
69.3000,26.1500
Z" /> 
<path style="fill:#000000; fill-opacity:1.0000; stroke:none;fill-rule:evenodd;"
d="M 68.1000,25.3500
68.1000,24.8500
69.3000,24.8500
69.3000,25.3500
Z" /> 
<path style="fill:#000000; fill-opacity:1.0000; stroke:none;fill-rule:evenodd;"
d="M 68.1000,24.5500
68.1000,24.0500
69.3000,24.0500
69.3000,24.5500
Z" /> 
<path style="fill:#000000; fill-opacity:1.0000; stroke:none;fill-rule:evenodd;"
d="M 68.1000,23.7500
68.1000,23.2500
69.3000,23.2500
69.3000,23.7500
Z" /> 
<path style="fill:#000000; fill-opacity:1.0000; stroke:none;fill-rule:evenodd;"
d="M 68.1000,22.9500
68.1000,22.4500
69.3000,22.4500
69.3000,22.9500
Z" /> 
<path style="fill:#000000; fill-opacity:1.0000; stroke:none;fill-rule:evenodd;"
d="M 69.9000,21.0500
69.9000,19.8500
70.4000,19.8500
70.4000,21.0500
Z" /> 
<path style="fill:#000000; fill-opacity:1.0000; stroke:none;fill-rule:evenodd;"
d="M 70.7000,21.0500
70.7000,19.8500
71.2000,19.8500
71.2000,21.0500
Z" /> 
<path style="fill:#000000; fill-opacity:1.0000; stroke:none;fill-rule:evenodd;"
d="M 71.5000,21.0500
71.5000,19.8500
72.0000,19.8500
72.0000,21.0500
Z" /> 
<path style="fill:#000000; fill-opacity:1.0000; stroke:none;fill-rule:evenodd;"
d="M 72.3000,21.0500
72.3000,19.8500
72.8000,19.8500
72.8000,21.0500
Z" /> 
<path style="fill:#000000; fill-opacity:1.0000; stroke:none;fill-rule:evenodd;"
d="M 73.1000,21.0500
73.1000,19.8500
73.6000,19.8500
73.6000,21.0500
Z" /> 
<path style="fill:#000000; fill-opacity:1.0000; stroke:none;fill-rule:evenodd;"
d="M 73.9000,21.0500
73.9000,19.8500
74.4000,19.8500
74.4000,21.0500
Z" /> 
<path style="fill:#000000; fill-opacity:1.0000; stroke:none;fill-rule:evenodd;"
d="M 74.7000,21.0500
74.7000,19.8500
75.2000,19.8500
75.2000,21.0500
Z" /> 
<path style="fill:#000000; fill-opacity:1.0000; stroke:none;fill-rule:evenodd;"
d="M 76.6000,22.1500
76.6000,21.6500
77.8000,21.6500
77.8000,22.1500
Z" /> 
<path style="fill:#000000; fill-opacity:1.0000; stroke:none;fill-rule:evenodd;"
d="M 76.6000,22.9500
76.6000,22.4500
77.8000,22.4500
77.8000,22.9500
Z" /> 
<path style="fill:#000000; fill-opacity:1.0000; stroke:none;fill-rule:evenodd;"
d="M 76.6000,23.7500
76.6000,23.2500
77.8000,23.2500
77.8000,23.7500
Z" /> 
<path style="fill:#000000; fill-opacity:1.0000; stroke:none;fill-rule:evenodd;"
d="M 76.6000,24.5500
76.6000,24.0500
77.8000,24.0500
77.8000,24.5500
Z" /> 
<path style="fill:#000000; fill-opacity:1.0000; stroke:none;fill-rule:evenodd;"
d="M 76.6000,25.3500
76.6000,24.8500
77.8000,24.8500
77.8000,25.3500
Z" /> 
<path style="fill:#000000; fill-opacity:1.0000; stroke:none;fill-rule:evenodd;"
d="M 76.6000,26.1500
76.6000,25.6500
77.8000,25.6500
77.8000,26.1500
Z" /> 
<path style="fill:#000000; fill-opacity:1.0000; stroke:none;fill-rule:evenodd;"
d="M 76.6000,26.9500
76.6000,26.4500
77.8000,26.4500
77.8000,26.9500
Z" /> 
<path style="fill:#000000; fill-opacity:1.0000; stroke:none;fill-rule:evenodd;"
d="M 75.5000,29.5500
75.5000,28.3500
76.0000,28.3500
76.0000,29.5500
Z" /> 
<path style="fill:#000000; fill-opacity:1.0000; stroke:none;fill-rule:evenodd;"
d="M 74.7000,29.5500
74.7000,28.3500
75.2000,28.3500
75.2000,29.5500
Z" /> 
<path style="fill:#000000; fill-opacity:1.0000; stroke:none;fill-rule:evenodd;"
d="M 73.9000,29.5500
73.9000,28.3500
74.4000,28.3500
74.4000,29.5500
Z" /> 
<path style="fill:#000000; fill-opacity:1.0000; stroke:none;fill-rule:evenodd;"
d="M 73.1000,29.5500
73.1000,28.3500
73.6000,28.3500
73.6000,29.5500
Z" /> 
<path style="fill:#000000; fill-opacity:1.0000; stroke:none;fill-rule:evenodd;"
d="M 72.3000,29.5500
72.3000,28.3500
72.8000,28.3500
72.8000,29.5500
Z" /> 
<path style="fill:#000000; fill-opacity:1.0000; stroke:none;fill-rule:evenodd;"
d="M 71.5000,29.5500
71.5000,28.3500
72.0000,28.3500
72.0000,29.5500
Z" /> 
<path style="fill:#000000; fill-opacity:1.0000; stroke:none;fill-rule:evenodd;"
d="M 70.7000,29.5500
70.7000,28.3500
71.2000,28.3500
71.2000,29.5500
Z" /> 
<path style="fill:#000000; fill-opacity:1.0000; stroke:none;fill-rule:evenodd;"
d="M 69.9000,29.5500
69.9000,28.3500
70.4000,28.3500
70.4000,29.5500
Z" /> 
<path style="fill:#000000; fill-opacity:1.0000; stroke:none;fill-rule:evenodd;"
d="M 76.6000,27.7500
76.6000,27.2500
77.8000,27.2500
77.8000,27.7500
Z" /> 
<path style="fill:#000000; fill-opacity:1.0000; stroke:none;fill-rule:evenodd;"
d="M 75.5000,21.0500
75.5000,19.8500
76.0000,19.8500
76.0000,21.0500
Z" /> 
<path style="fill:#000000; fill-opacity:1.0000; stroke:none;fill-rule:evenodd;"
d="M 68.1000,22.1500
68.1000,21.6500
69.3000,21.6500
69.3000,22.1500
Z" /> 
<path style="fill:#000000; fill-opacity:1.0000; stroke:none;fill-rule:evenodd;"
d="M 39.3780,9.3250
39.2823,9.3060
39.2012,9.2518
39.1470,9.1707
39.1280,9.0750
39.1280,8.5500
39.1470,8.4543
39.2012,8.3732
39.2823,8.3190
39.3780,8.3000
40.2780,8.3000
40.3737,8.3190
40.4548,8.3732
40.5090,8.4543
40.5280,8.5500
40.5280,9.0750
40.5090,9.1707
40.4548,9.2518
40.3737,9.3060
40.2780,9.3250
Z" /> 
<path style="fill:#000000; fill-opacity:1.0000; stroke:none;fill-rule:evenodd;"
d="M 39.3780,7.5000
39.2823,7.4810
39.2012,7.4268
39.1470,7.3457
39.1280,7.2500
39.1280,6.7250
39.1470,6.6293
39.2012,6.5482
39.2823,6.4940
39.3780,6.4750
40.2780,6.4750
40.3737,6.4940
40.4548,6.5482
40.5090,6.6293
40.5280,6.7250
40.5280,7.2500
40.5090,7.3457
40.4548,7.4268
40.3737,7.4810
40.2780,7.5000
Z" /> 
<path style="fill:#000000; fill-opacity:1.0000; stroke:none;fill-rule:evenodd;"
d="M 75.2250,33.1250
75.2440,33.0293
75.2982,32.9482
75.3793,32.8940
75.4750,32.8750
76.1500,32.8750
76.2457,32.8940
76.3268,32.9482
76.3810,33.0293
76.4000,33.1250
76.4000,34.0750
76.3810,34.1707
76.3268,34.2518
76.2457,34.3060
76.1500,34.3250
75.4750,34.3250
75.3793,34.3060
75.2982,34.2518
75.2440,34.1707
75.2250,34.0750
Z" /> 
<path style="fill:#000000; fill-opacity:1.0000; stroke:none;fill-rule:evenodd;"
d="M 77.3000,33.1250
77.3190,33.0293
77.3732,32.9482
77.4543,32.8940
77.5500,32.8750
78.2250,32.8750
78.3207,32.8940
78.4018,32.9482
78.4560,33.0293
78.4750,33.1250
78.4750,34.0750
78.4560,34.1707
78.4018,34.2518
78.3207,34.3060
78.2250,34.3250
77.5500,34.3250
77.4543,34.3060
77.3732,34.2518
77.3190,34.1707
77.3000,34.0750
Z" /> 
<path style="fill:#000000; fill-opacity:1.0000; stroke:none;fill-rule:evenodd;"
d="M 11.1000,12.3250
11.1957,12.3440
11.2768,12.3982
11.3310,12.4793
11.3500,12.5750
11.3500,13.1000
11.3310,13.1957
11.2768,13.2768
11.1957,13.3310
11.1000,13.3500
10.2000,13.3500
10.1043,13.3310
10.0232,13.2768
9.9690,13.1957
9.9500,13.1000
9.9500,12.5750
9.9690,12.4793
10.0232,12.3982
10.1043,12.3440
10.2000,12.3250
Z" /> 
<path style="fill:#000000; fill-opacity:1.0000; stroke:none;fill-rule:evenodd;"
d="M 11.1000,14.1500
11.1957,14.1690
11.2768,14.2232
11.3310,14.3043
11.3500,14.4000
11.3500,14.9250
11.3310,15.0207
11.2768,15.1018
11.1957,15.1560
11.1000,15.1750
10.2000,15.1750
10.1043,15.1560
10.0232,15.1018
9.9690,15.0207
9.9500,14.9250
9.9500,14.4000
9.9690,14.3043
10.0232,14.2232
10.1043,14.1690
10.2000,14.1500
Z" /> 
<path style="fill:#000000; fill-opacity:1.0000; stroke:none;fill-rule:evenodd;"
d="M 38.9444,38.8009
38.9444,37.0991
39.6556,37.0991
39.6556,38.8009
Z" /> 
<path style="fill:#000000; fill-opacity:1.0000; stroke:none;fill-rule:evenodd;"
d="M 38.2218,36.0831
38.2218,28.0821
44.9782,28.0821
44.9782,36.0831
Z" /> 
<path style="fill:#000000; fill-opacity:1.0000; stroke:none;fill-rule:evenodd;"
d="M 43.5444,38.8009
43.5444,37.0991
44.2556,37.0991
44.2556,38.8009
Z" /> 
<path style="fill:#000000; fill-opacity:1.0000; stroke:none;fill-rule:evenodd;"
d="M 6.0000,27.2000
6.0190,27.1043
6.0732,27.0232
6.1543,26.9690
6.2500,26.9500
6.9500,26.9500
7.0457,26.9690
7.1268,27.0232
7.1810,27.1043
7.2000,27.2000
7.2000,28.1000
7.1810,28.1957
7.1268,28.2768
7.0457,28.3310
6.9500,28.3500
6.2500,28.3500
6.1543,28.3310
6.0732,28.2768
6.0190,28.1957
6.0000,28.1000
Z" /> 
<path style="fill:#000000; fill-opacity:1.0000; stroke:none;fill-rule:evenodd;"
d="M 8.0000,27.2000
8.0190,27.1043
8.0732,27.0232
8.1543,26.9690
8.2500,26.9500
8.9500,26.9500
9.0457,26.9690
9.1268,27.0232
9.1810,27.1043
9.2000,27.2000
9.2000,28.1000
9.1810,28.1957
9.1268,28.2768
9.0457,28.3310
8.9500,28.3500
8.2500,28.3500
8.1543,28.3310
8.0732,28.2768
8.0190,28.1957
8.0000,28.1000
Z" /> 
<path style="fill:#000000; fill-opacity:1.0000; stroke:none;fill-rule:evenodd;"
d="M 24.1380,9.3250
24.0423,9.3060
23.9612,9.2518
23.9070,9.1707
23.8880,9.0750
23.8880,8.5500
23.9070,8.4543
23.9612,8.3732
24.0423,8.3190
24.1380,8.3000
25.0380,8.3000
25.1337,8.3190
25.2148,8.3732
25.2690,8.4543
25.2880,8.5500
25.2880,9.0750
25.2690,9.1707
25.2148,9.2518
25.1337,9.3060
25.0380,9.3250
Z" /> 
<path style="fill:#000000; fill-opacity:1.0000; stroke:none;fill-rule:evenodd;"
d="M 24.1380,7.5000
24.0423,7.4810
23.9612,7.4268
23.9070,7.3457
23.8880,7.2500
23.8880,6.7250
23.9070,6.6293
23.9612,6.5482
24.0423,6.4940
24.1380,6.4750
25.0380,6.4750
25.1337,6.4940
25.2148,6.5482
25.2690,6.6293
25.2880,6.7250
25.2880,7.2500
25.2690,7.3457
25.2148,7.4268
25.1337,7.4810
25.0380,7.5000
Z" /> 
<path style="fill:#000000; fill-opacity:1.0000; stroke:none;fill-rule:evenodd;"
d="M 21.5980,9.3250
21.5023,9.3060
21.4212,9.2518
21.3670,9.1707
21.3480,9.0750
21.3480,8.5500
21.3670,8.4543
21.4212,8.3732
21.5023,8.3190
21.5980,8.3000
22.4980,8.3000
22.5937,8.3190
22.6748,8.3732
22.7290,8.4543
22.7480,8.5500
22.7480,9.0750
22.7290,9.1707
22.6748,9.2518
22.5937,9.3060
22.4980,9.3250
Z" /> 
<path style="fill:#000000; fill-opacity:1.0000; stroke:none;fill-rule:evenodd;"
d="M 21.5980,7.5000
21.5023,7.4810
21.4212,7.4268
21.3670,7.3457
21.3480,7.2500
21.3480,6.7250
21.3670,6.6293
21.4212,6.5482
21.5023,6.4940
21.5980,6.4750
22.4980,6.4750
22.5937,6.4940
22.6748,6.5482
22.7290,6.6293
22.7480,6.7250
22.7480,7.2500
22.7290,7.3457
22.6748,7.4268
22.5937,7.4810
22.4980,7.5000
Z" /> 
<path style="fill:#000000; fill-opacity:1.0000; stroke:none;fill-rule:evenodd;"
d="M 47.4770,28.6750
47.4960,28.5793
47.5502,28.4982
47.6313,28.4440
47.7270,28.4250
48.4020,28.4250
48.4977,28.4440
48.5788,28.4982
48.6330,28.5793
48.6520,28.6750
48.6520,29.6250
48.6330,29.7207
48.5788,29.8018
48.4977,29.8560
48.4020,29.8750
47.7270,29.8750
47.6313,29.8560
47.5502,29.8018
47.4960,29.7207
47.4770,29.6250
Z" /> 
<path style="fill:#000000; fill-opacity:1.0000; stroke:none;fill-rule:evenodd;"
d="M 49.5520,28.6750
49.5710,28.5793
49.6252,28.4982
49.7063,28.4440
49.8020,28.4250
50.4770,28.4250
50.5727,28.4440
50.6538,28.4982
50.7080,28.5793
50.7270,28.6750
50.7270,29.6250
50.7080,29.7207
50.6538,29.8018
50.5727,29.8560
50.4770,29.8750
49.8020,29.8750
49.7063,29.8560
49.6252,29.8018
49.5710,29.7207
49.5520,29.6250
Z" /> 
<path style="fill:#000000; fill-opacity:1.0000; stroke:none;fill-rule:evenodd;"
d="M 75.2250,30.7250
75.2440,30.6293
75.2982,30.5482
75.3793,30.4940
75.4750,30.4750
76.1500,30.4750
76.2457,30.4940
76.3268,30.5482
76.3810,30.6293
76.4000,30.7250
76.4000,31.6750
76.3810,31.7707
76.3268,31.8518
76.2457,31.9060
76.1500,31.9250
75.4750,31.9250
75.3793,31.9060
75.2982,31.8518
75.2440,31.7707
75.2250,31.6750
Z" /> 
<path style="fill:#000000; fill-opacity:1.0000; stroke:none;fill-rule:evenodd;"
d="M 77.3000,30.7250
77.3190,30.6293
77.3732,30.5482
77.4543,30.4940
77.5500,30.4750
78.2250,30.4750
78.3207,30.4940
78.4018,30.5482
78.4560,30.6293
78.4750,30.7250
78.4750,31.6750
78.4560,31.7707
78.4018,31.8518
78.3207,31.9060
78.2250,31.9250
77.5500,31.9250
77.4543,31.9060
77.3732,31.8518
77.3190,31.7707
77.3000,31.6750
Z" /> 
<path style="fill:#000000; fill-opacity:1.0000; stroke:none;fill-rule:evenodd;"
d="M 11.1500,16.1250
11.2457,16.1440
11.3268,16.1982
11.3810,16.2793
11.4000,16.3750
11.4000,16.9000
11.3810,16.9957
11.3268,17.0768
11.2457,17.1310
11.1500,17.1500
10.2500,17.1500
10.1543,17.1310
10.0732,17.0768
10.0190,16.9957
10.0000,16.9000
10.0000,16.3750
10.0190,16.2793
10.0732,16.1982
10.1543,16.1440
10.2500,16.1250
Z" /> 
<path style="fill:#000000; fill-opacity:1.0000; stroke:none;fill-rule:evenodd;"
d="M 11.1500,17.9500
11.2457,17.9690
11.3268,18.0232
11.3810,18.1043
11.4000,18.2000
11.4000,18.7250
11.3810,18.8207
11.3268,18.9018
11.2457,18.9560
11.1500,18.9750
10.2500,18.9750
10.1543,18.9560
10.0732,18.9018
10.0190,18.8207
10.0000,18.7250
10.0000,18.2000
10.0190,18.1043
10.0732,18.0232
10.1543,17.9690
10.2500,17.9500
Z" /> 
<path style="fill:#000000; fill-opacity:1.0000; stroke:none;fill-rule:evenodd;"
d="M 34.7770,37.6375
34.6813,37.6185
34.6002,37.5643
34.5460,37.4832
34.5270,37.3875
34.5270,36.7125
34.5460,36.6168
34.6002,36.5357
34.6813,36.4815
34.7770,36.4625
35.7270,36.4625
35.8227,36.4815
35.9038,36.5357
35.9580,36.6168
35.9770,36.7125
35.9770,37.3875
35.9580,37.4832
35.9038,37.5643
35.8227,37.6185
35.7270,37.6375
Z" /> 
<path style="fill:#000000; fill-opacity:1.0000; stroke:none;fill-rule:evenodd;"
d="M 34.7770,35.5625
34.6813,35.5435
34.6002,35.4893
34.5460,35.4082
34.5270,35.3125
34.5270,34.6375
34.5460,34.5418
34.6002,34.4607
34.6813,34.4065
34.7770,34.3875
35.7270,34.3875
35.8227,34.4065
35.9038,34.4607
35.9580,34.5418
35.9770,34.6375
35.9770,35.3125
35.9580,35.4082
35.9038,35.4893
35.8227,35.5435
35.7270,35.5625
Z" /> 
<path style="fill:#000000; fill-opacity:1.0000; stroke:none;fill-rule:evenodd;"
d="M 56.5770,36.6750
56.5960,36.5793
56.6502,36.4982
56.7313,36.4440
56.8270,36.4250
57.5020,36.4250
57.5977,36.4440
57.6788,36.4982
57.7330,36.5793
57.7520,36.6750
57.7520,37.6250
57.7330,37.7207
57.6788,37.8018
57.5977,37.8560
57.5020,37.8750
56.8270,37.8750
56.7313,37.8560
56.6502,37.8018
56.5960,37.7207
56.5770,37.6250
Z" /> 
<path style="fill:#000000; fill-opacity:1.0000; stroke:none;fill-rule:evenodd;"
d="M 58.6520,36.6750
58.6710,36.5793
58.7252,36.4982
58.8063,36.4440
58.9020,36.4250
59.5770,36.4250
59.6727,36.4440
59.7538,36.4982
59.8080,36.5793
59.8270,36.6750
59.8270,37.6250
59.8080,37.7207
59.7538,37.8018
59.6727,37.8560
59.5770,37.8750
58.9020,37.8750
58.8063,37.8560
58.7252,37.8018
58.6710,37.7207
58.6520,37.6250
Z" /> 
<path style="fill:#000000; fill-opacity:1.0000; stroke:none;fill-rule:evenodd;"
d="M 48.9270,32.7250
47.1770,32.7250
47.1770,31.7750
48.9270,31.7750
Z" /> 
<path style="fill:#000000; fill-opacity:1.0000; stroke:none;fill-rule:evenodd;"
d="M 48.9270,35.0250
47.1770,35.0250
47.1770,34.0750
48.9270,34.0750
Z" /> 
<path style="fill:#000000; fill-opacity:1.0000; stroke:none;fill-rule:evenodd;"
d="M 48.9270,37.3250
47.1770,37.3250
47.1770,36.3750
48.9270,36.3750
Z" /> 
<path style="fill:#000000; fill-opacity:1.0000; stroke:none;fill-rule:evenodd;"
d="M 53.4770,36.1500
53.4770,32.9500
55.2270,32.9500
55.2270,36.1500
Z" /> 
</g>
<g style="fill:none; 
stroke:#000000; stroke-width:0.1500; stroke-opacity:1; 
stroke-linecap:round; stroke-linejoin:round;">
<path d="M2.2500 57.1000
L2.2500 0.1000
" />
<path d="M102.2500 57.1000
L2.2500 57.1000
" />
<path d="M2.2500 0.1000
L102.2500 0.1000
" />
<path d="M102.2500 0.1000
L102.2500 57.1000
" />
</g> 
</svg>
