<?xml version="1.0" standalone="no"?>
 <!DOCTYPE svg PUBLIC "-//W3C//DTD SVG 1.1//EN" 
 "http://www.w3.org/Graphics/SVG/1.1/DTD/svg11.dtd"> 
<svg
  xmlns:svg="http://www.w3.org/2000/svg"
  xmlns="http://www.w3.org/2000/svg"
  xmlns:xlink="http://www.w3.org/1999/xlink"
  version="1.1"
  width="102.3112mm" height="57.1500mm" viewBox="0.0000 0.0000 102.3112 57.1500">
<title>SVG Image created as RL78_G14_Arduino_48p-F_Paste.svg date 2025/01/18 20:08:33 </title>
  <desc>Image generated by PCBNEW </desc>
<g style="fill:#000000; fill-opacity:1.0000;stroke:#000000; stroke-opacity:1.0000;
stroke-linecap:round; stroke-linejoin:round;"
 transform="translate(0 0) scale(1 1)">
<path style="fill:#000000; fill-opacity:1.0000; stroke:none;fill-rule:evenodd;"
d="M 70.8250,19.0750
70.8440,18.9793
70.8982,18.8982
70.9793,18.8440
71.0750,18.8250
71.7500,18.8250
71.8457,18.8440
71.9268,18.8982
71.9810,18.9793
72.0000,19.0750
72.0000,20.0250
71.9810,20.1207
71.9268,20.2018
71.8457,20.2560
71.7500,20.2750
71.0750,20.2750
70.9793,20.2560
70.8982,20.2018
70.8440,20.1207
70.8250,20.0250
Z" /> 
<path style="fill:#000000; fill-opacity:1.0000; stroke:none;fill-rule:evenodd;"
d="M 72.9000,19.0750
72.9190,18.9793
72.9732,18.8982
73.0543,18.8440
73.1500,18.8250
73.8250,18.8250
73.9207,18.8440
74.0018,18.8982
74.0560,18.9793
74.0750,19.0750
74.0750,20.0250
74.0560,20.1207
74.0018,20.2018
73.9207,20.2560
73.8250,20.2750
73.1500,20.2750
73.0543,20.2560
72.9732,20.2018
72.9190,20.1207
72.9000,20.0250
Z" /> 
<path style="fill:#000000; fill-opacity:1.0000; stroke:none;fill-rule:evenodd;"
d="M 11.1000,12.3250
11.1957,12.3440
11.2768,12.3982
11.3310,12.4793
11.3500,12.5750
11.3500,13.1000
11.3310,13.1957
11.2768,13.2768
11.1957,13.3310
11.1000,13.3500
10.2000,13.3500
10.1043,13.3310
10.0232,13.2768
9.9690,13.1957
9.9500,13.1000
9.9500,12.5750
9.9690,12.4793
10.0232,12.3982
10.1043,12.3440
10.2000,12.3250
Z" /> 
<path style="fill:#000000; fill-opacity:1.0000; stroke:none;fill-rule:evenodd;"
d="M 11.1000,14.1500
11.1957,14.1690
11.2768,14.2232
11.3310,14.3043
11.3500,14.4000
11.3500,14.9250
11.3310,15.0207
11.2768,15.1018
11.1957,15.1560
11.1000,15.1750
10.2000,15.1750
10.1043,15.1560
10.0232,15.1018
9.9690,15.0207
9.9500,14.9250
9.9500,14.4000
9.9690,14.3043
10.0232,14.2232
10.1043,14.1690
10.2000,14.1500
Z" /> 
<path style="fill:#000000; fill-opacity:1.0000; stroke:none;fill-rule:evenodd;"
d="M 24.1380,9.5250
24.0423,9.5060
23.9612,9.4518
23.9070,9.3707
23.8880,9.2750
23.8880,8.7500
23.9070,8.6543
23.9612,8.5732
24.0423,8.5190
24.1380,8.5000
25.0380,8.5000
25.1337,8.5190
25.2148,8.5732
25.2690,8.6543
25.2880,8.7500
25.2880,9.2750
25.2690,9.3707
25.2148,9.4518
25.1337,9.5060
25.0380,9.5250
Z" /> 
<path style="fill:#000000; fill-opacity:1.0000; stroke:none;fill-rule:evenodd;"
d="M 24.1380,7.7000
24.0423,7.6810
23.9612,7.6268
23.9070,7.5457
23.8880,7.4500
23.8880,6.9250
23.9070,6.8293
23.9612,6.7482
24.0423,6.6940
24.1380,6.6750
25.0380,6.6750
25.1337,6.6940
25.2148,6.7482
25.2690,6.8293
25.2880,6.9250
25.2880,7.4500
25.2690,7.5457
25.2148,7.6268
25.1337,7.6810
25.0380,7.7000
Z" /> 
<path style="fill:#000000; fill-opacity:1.0000; stroke:none;fill-rule:evenodd;"
d="M 70.3228,23.7143
69.1036,23.7143
69.1036,23.4857
70.3228,23.4857
Z" /> 
<path style="fill:#000000; fill-opacity:1.0000; stroke:none;fill-rule:evenodd;"
d="M 70.3228,24.2143
69.1036,24.2143
69.1036,23.9857
70.3228,23.9857
Z" /> 
<path style="fill:#000000; fill-opacity:1.0000; stroke:none;fill-rule:evenodd;"
d="M 70.3228,24.7143
69.1036,24.7143
69.1036,24.4857
70.3228,24.4857
Z" /> 
<path style="fill:#000000; fill-opacity:1.0000; stroke:none;fill-rule:evenodd;"
d="M 70.3228,25.2143
69.1036,25.2143
69.1036,24.9857
70.3228,24.9857
Z" /> 
<path style="fill:#000000; fill-opacity:1.0000; stroke:none;fill-rule:evenodd;"
d="M 70.3228,25.7143
69.1036,25.7143
69.1036,25.4857
70.3228,25.4857
Z" /> 
<path style="fill:#000000; fill-opacity:1.0000; stroke:none;fill-rule:evenodd;"
d="M 70.3228,26.2143
69.1036,26.2143
69.1036,25.9857
70.3228,25.9857
Z" /> 
<path style="fill:#000000; fill-opacity:1.0000; stroke:none;fill-rule:evenodd;"
d="M 70.3228,26.7143
69.1036,26.7143
69.1036,26.4857
70.3228,26.4857
Z" /> 
<path style="fill:#000000; fill-opacity:1.0000; stroke:none;fill-rule:evenodd;"
d="M 70.3228,27.2143
69.1036,27.2143
69.1036,26.9857
70.3228,26.9857
Z" /> 
<path style="fill:#000000; fill-opacity:1.0000; stroke:none;fill-rule:evenodd;"
d="M 70.3228,27.7143
69.1036,27.7143
69.1036,27.4857
70.3228,27.4857
Z" /> 
<path style="fill:#000000; fill-opacity:1.0000; stroke:none;fill-rule:evenodd;"
d="M 70.3228,28.2143
69.1036,28.2143
69.1036,27.9857
70.3228,27.9857
Z" /> 
<path style="fill:#000000; fill-opacity:1.0000; stroke:none;fill-rule:evenodd;"
d="M 70.3228,28.7143
69.1036,28.7143
69.1036,28.4857
70.3228,28.4857
Z" /> 
<path style="fill:#000000; fill-opacity:1.0000; stroke:none;fill-rule:evenodd;"
d="M 70.3228,29.2143
69.1036,29.2143
69.1036,28.9857
70.3228,28.9857
Z" /> 
<path style="fill:#000000; fill-opacity:1.0000; stroke:none;fill-rule:evenodd;"
d="M 71.1923,31.3030
71.1923,30.0838
71.4209,30.0838
71.4209,31.3030
Z" /> 
<path style="fill:#000000; fill-opacity:1.0000; stroke:none;fill-rule:evenodd;"
d="M 71.6923,31.3030
71.6923,30.0838
71.9209,30.0838
71.9209,31.3030
Z" /> 
<path style="fill:#000000; fill-opacity:1.0000; stroke:none;fill-rule:evenodd;"
d="M 72.1923,31.3030
72.1923,30.0838
72.4209,30.0838
72.4209,31.3030
Z" /> 
<path style="fill:#000000; fill-opacity:1.0000; stroke:none;fill-rule:evenodd;"
d="M 72.6923,31.3030
72.6923,30.0838
72.9209,30.0838
72.9209,31.3030
Z" /> 
<path style="fill:#000000; fill-opacity:1.0000; stroke:none;fill-rule:evenodd;"
d="M 73.1923,31.3030
73.1923,30.0838
73.4209,30.0838
73.4209,31.3030
Z" /> 
<path style="fill:#000000; fill-opacity:1.0000; stroke:none;fill-rule:evenodd;"
d="M 73.6923,31.3030
73.6923,30.0838
73.9209,30.0838
73.9209,31.3030
Z" /> 
<path style="fill:#000000; fill-opacity:1.0000; stroke:none;fill-rule:evenodd;"
d="M 74.1923,31.3030
74.1923,30.0838
74.4209,30.0838
74.4209,31.3030
Z" /> 
<path style="fill:#000000; fill-opacity:1.0000; stroke:none;fill-rule:evenodd;"
d="M 74.6923,31.3030
74.6923,30.0838
74.9209,30.0838
74.9209,31.3030
Z" /> 
<path style="fill:#000000; fill-opacity:1.0000; stroke:none;fill-rule:evenodd;"
d="M 75.1923,31.3030
75.1923,30.0838
75.4209,30.0838
75.4209,31.3030
Z" /> 
<path style="fill:#000000; fill-opacity:1.0000; stroke:none;fill-rule:evenodd;"
d="M 75.6923,31.3030
75.6923,30.0838
75.9209,30.0838
75.9209,31.3030
Z" /> 
<path style="fill:#000000; fill-opacity:1.0000; stroke:none;fill-rule:evenodd;"
d="M 76.1923,31.3030
76.1923,30.0838
76.4209,30.0838
76.4209,31.3030
Z" /> 
<path style="fill:#000000; fill-opacity:1.0000; stroke:none;fill-rule:evenodd;"
d="M 76.6923,31.3030
76.6923,30.0838
76.9209,30.0838
76.9209,31.3030
Z" /> 
<path style="fill:#000000; fill-opacity:1.0000; stroke:none;fill-rule:evenodd;"
d="M 79.0096,29.2143
77.7904,29.2143
77.7904,28.9857
79.0096,28.9857
Z" /> 
<path style="fill:#000000; fill-opacity:1.0000; stroke:none;fill-rule:evenodd;"
d="M 79.0096,28.7143
77.7904,28.7143
77.7904,28.4857
79.0096,28.4857
Z" /> 
<path style="fill:#000000; fill-opacity:1.0000; stroke:none;fill-rule:evenodd;"
d="M 79.0096,28.2143
77.7904,28.2143
77.7904,27.9857
79.0096,27.9857
Z" /> 
<path style="fill:#000000; fill-opacity:1.0000; stroke:none;fill-rule:evenodd;"
d="M 79.0096,27.7143
77.7904,27.7143
77.7904,27.4857
79.0096,27.4857
Z" /> 
<path style="fill:#000000; fill-opacity:1.0000; stroke:none;fill-rule:evenodd;"
d="M 79.0096,27.2143
77.7904,27.2143
77.7904,26.9857
79.0096,26.9857
Z" /> 
<path style="fill:#000000; fill-opacity:1.0000; stroke:none;fill-rule:evenodd;"
d="M 79.0096,26.7143
77.7904,26.7143
77.7904,26.4857
79.0096,26.4857
Z" /> 
<path style="fill:#000000; fill-opacity:1.0000; stroke:none;fill-rule:evenodd;"
d="M 79.0096,26.2143
77.7904,26.2143
77.7904,25.9857
79.0096,25.9857
Z" /> 
<path style="fill:#000000; fill-opacity:1.0000; stroke:none;fill-rule:evenodd;"
d="M 79.0096,25.7143
77.7904,25.7143
77.7904,25.4857
79.0096,25.4857
Z" /> 
<path style="fill:#000000; fill-opacity:1.0000; stroke:none;fill-rule:evenodd;"
d="M 79.0096,25.2143
77.7904,25.2143
77.7904,24.9857
79.0096,24.9857
Z" /> 
<path style="fill:#000000; fill-opacity:1.0000; stroke:none;fill-rule:evenodd;"
d="M 79.0096,24.7143
77.7904,24.7143
77.7904,24.4857
79.0096,24.4857
Z" /> 
<path style="fill:#000000; fill-opacity:1.0000; stroke:none;fill-rule:evenodd;"
d="M 79.0096,24.2143
77.7904,24.2143
77.7904,23.9857
79.0096,23.9857
Z" /> 
<path style="fill:#000000; fill-opacity:1.0000; stroke:none;fill-rule:evenodd;"
d="M 79.0096,23.7143
77.7904,23.7143
77.7904,23.4857
79.0096,23.4857
Z" /> 
<path style="fill:#000000; fill-opacity:1.0000; stroke:none;fill-rule:evenodd;"
d="M 76.6923,22.6162
76.6923,21.3970
76.9209,21.3970
76.9209,22.6162
Z" /> 
<path style="fill:#000000; fill-opacity:1.0000; stroke:none;fill-rule:evenodd;"
d="M 76.1923,22.6162
76.1923,21.3970
76.4209,21.3970
76.4209,22.6162
Z" /> 
<path style="fill:#000000; fill-opacity:1.0000; stroke:none;fill-rule:evenodd;"
d="M 75.6923,22.6162
75.6923,21.3970
75.9209,21.3970
75.9209,22.6162
Z" /> 
<path style="fill:#000000; fill-opacity:1.0000; stroke:none;fill-rule:evenodd;"
d="M 75.1923,22.6162
75.1923,21.3970
75.4209,21.3970
75.4209,22.6162
Z" /> 
<path style="fill:#000000; fill-opacity:1.0000; stroke:none;fill-rule:evenodd;"
d="M 74.6923,22.6162
74.6923,21.3970
74.9209,21.3970
74.9209,22.6162
Z" /> 
<path style="fill:#000000; fill-opacity:1.0000; stroke:none;fill-rule:evenodd;"
d="M 74.1923,22.6162
74.1923,21.3970
74.4209,21.3970
74.4209,22.6162
Z" /> 
<path style="fill:#000000; fill-opacity:1.0000; stroke:none;fill-rule:evenodd;"
d="M 73.6923,22.6162
73.6923,21.3970
73.9209,21.3970
73.9209,22.6162
Z" /> 
<path style="fill:#000000; fill-opacity:1.0000; stroke:none;fill-rule:evenodd;"
d="M 73.1923,22.6162
73.1923,21.3970
73.4209,21.3970
73.4209,22.6162
Z" /> 
<path style="fill:#000000; fill-opacity:1.0000; stroke:none;fill-rule:evenodd;"
d="M 72.6923,22.6162
72.6923,21.3970
72.9209,21.3970
72.9209,22.6162
Z" /> 
<path style="fill:#000000; fill-opacity:1.0000; stroke:none;fill-rule:evenodd;"
d="M 72.1923,22.6162
72.1923,21.3970
72.4209,21.3970
72.4209,22.6162
Z" /> 
<path style="fill:#000000; fill-opacity:1.0000; stroke:none;fill-rule:evenodd;"
d="M 71.6923,22.6162
71.6923,21.3970
71.9209,21.3970
71.9209,22.6162
Z" /> 
<path style="fill:#000000; fill-opacity:1.0000; stroke:none;fill-rule:evenodd;"
d="M 71.1923,22.6162
71.1923,21.3970
71.4209,21.3970
71.4209,22.6162
Z" /> 
<path style="fill:#000000; fill-opacity:1.0000; stroke:none;fill-rule:evenodd;"
d="M 38.9444,38.8009
38.9444,37.0991
39.6556,37.0991
39.6556,38.8009
Z" /> 
<path style="fill:#000000; fill-opacity:1.0000; stroke:none;fill-rule:evenodd;"
d="M 38.2218,36.0831
38.2218,28.0821
44.9782,28.0821
44.9782,36.0831
Z" /> 
<path style="fill:#000000; fill-opacity:1.0000; stroke:none;fill-rule:evenodd;"
d="M 43.5444,38.8009
43.5444,37.0991
44.2556,37.0991
44.2556,38.8009
Z" /> 
<path style="fill:#000000; fill-opacity:1.0000; stroke:none;fill-rule:evenodd;"
d="M 6.0000,27.2000
6.0190,27.1043
6.0732,27.0232
6.1543,26.9690
6.2500,26.9500
6.9500,26.9500
7.0457,26.9690
7.1268,27.0232
7.1810,27.1043
7.2000,27.2000
7.2000,28.1000
7.1810,28.1957
7.1268,28.2768
7.0457,28.3310
6.9500,28.3500
6.2500,28.3500
6.1543,28.3310
6.0732,28.2768
6.0190,28.1957
6.0000,28.1000
Z" /> 
<path style="fill:#000000; fill-opacity:1.0000; stroke:none;fill-rule:evenodd;"
d="M 8.0000,27.2000
8.0190,27.1043
8.0732,27.0232
8.1543,26.9690
8.2500,26.9500
8.9500,26.9500
9.0457,26.9690
9.1268,27.0232
9.1810,27.1043
9.2000,27.2000
9.2000,28.1000
9.1810,28.1957
9.1268,28.2768
9.0457,28.3310
8.9500,28.3500
8.2500,28.3500
8.1543,28.3310
8.0732,28.2768
8.0190,28.1957
8.0000,28.1000
Z" /> 
<path style="fill:#000000; fill-opacity:1.0000; stroke:none;fill-rule:evenodd;"
d="M 79.0020,9.5250
78.9063,9.5060
78.8252,9.4518
78.7710,9.3707
78.7520,9.2750
78.7520,8.7500
78.7710,8.6543
78.8252,8.5732
78.9063,8.5190
79.0020,8.5000
79.9020,8.5000
79.9977,8.5190
80.0788,8.5732
80.1330,8.6543
80.1520,8.7500
80.1520,9.2750
80.1330,9.3707
80.0788,9.4518
79.9977,9.5060
79.9020,9.5250
Z" /> 
<path style="fill:#000000; fill-opacity:1.0000; stroke:none;fill-rule:evenodd;"
d="M 79.0020,7.7000
78.9063,7.6810
78.8252,7.6268
78.7710,7.5457
78.7520,7.4500
78.7520,6.9250
78.7710,6.8293
78.8252,6.7482
78.9063,6.6940
79.0020,6.6750
79.9020,6.6750
79.9977,6.6940
80.0788,6.7482
80.1330,6.8293
80.1520,6.9250
80.1520,7.4500
80.1330,7.5457
80.0788,7.6268
79.9977,7.6810
79.9020,7.7000
Z" /> 
<path style="fill:#000000; fill-opacity:1.0000; stroke:none;fill-rule:evenodd;"
d="M 85.0200,45.7750
85.1157,45.7940
85.1968,45.8482
85.2510,45.9293
85.2700,46.0250
85.2700,46.5500
85.2510,46.6457
85.1968,46.7268
85.1157,46.7810
85.0200,46.8000
84.1200,46.8000
84.0243,46.7810
83.9432,46.7268
83.8890,46.6457
83.8700,46.5500
83.8700,46.0250
83.8890,45.9293
83.9432,45.8482
84.0243,45.7940
84.1200,45.7750
Z" /> 
<path style="fill:#000000; fill-opacity:1.0000; stroke:none;fill-rule:evenodd;"
d="M 85.0200,47.6000
85.1157,47.6190
85.1968,47.6732
85.2510,47.7543
85.2700,47.8500
85.2700,48.3750
85.2510,48.4707
85.1968,48.5518
85.1157,48.6060
85.0200,48.6250
84.1200,48.6250
84.0243,48.6060
83.9432,48.5518
83.8890,48.4707
83.8700,48.3750
83.8700,47.8500
83.8890,47.7543
83.9432,47.6732
84.0243,47.6190
84.1200,47.6000
Z" /> 
<path style="fill:#000000; fill-opacity:1.0000; stroke:none;fill-rule:evenodd;"
d="M 47.4770,28.6750
47.4960,28.5793
47.5502,28.4982
47.6313,28.4440
47.7270,28.4250
48.4020,28.4250
48.4977,28.4440
48.5788,28.4982
48.6330,28.5793
48.6520,28.6750
48.6520,29.6250
48.6330,29.7207
48.5788,29.8018
48.4977,29.8560
48.4020,29.8750
47.7270,29.8750
47.6313,29.8560
47.5502,29.8018
47.4960,29.7207
47.4770,29.6250
Z" /> 
<path style="fill:#000000; fill-opacity:1.0000; stroke:none;fill-rule:evenodd;"
d="M 49.5520,28.6750
49.5710,28.5793
49.6252,28.4982
49.7063,28.4440
49.8020,28.4250
50.4770,28.4250
50.5727,28.4440
50.6538,28.4982
50.7080,28.5793
50.7270,28.6750
50.7270,29.6250
50.7080,29.7207
50.6538,29.8018
50.5727,29.8560
50.4770,29.8750
49.8020,29.8750
49.7063,29.8560
49.6252,29.8018
49.5710,29.7207
49.5520,29.6250
Z" /> 
<path style="fill:#000000; fill-opacity:1.0000; stroke:none;fill-rule:evenodd;"
d="M 69.4750,21.8750
69.4560,21.9707
69.4018,22.0518
69.3207,22.1060
69.2250,22.1250
68.5500,22.1250
68.4543,22.1060
68.3732,22.0518
68.3190,21.9707
68.3000,21.8750
68.3000,20.9250
68.3190,20.8293
68.3732,20.7482
68.4543,20.6940
68.5500,20.6750
69.2250,20.6750
69.3207,20.6940
69.4018,20.7482
69.4560,20.8293
69.4750,20.9250
Z" /> 
<path style="fill:#000000; fill-opacity:1.0000; stroke:none;fill-rule:evenodd;"
d="M 67.4000,21.8750
67.3810,21.9707
67.3268,22.0518
67.2457,22.1060
67.1500,22.1250
66.4750,22.1250
66.3793,22.1060
66.2982,22.0518
66.2440,21.9707
66.2250,21.8750
66.2250,20.9250
66.2440,20.8293
66.2982,20.7482
66.3793,20.6940
66.4750,20.6750
67.1500,20.6750
67.2457,20.6940
67.3268,20.7482
67.3810,20.8293
67.4000,20.9250
Z" /> 
<path style="fill:#000000; fill-opacity:1.0000; stroke:none;fill-rule:evenodd;"
d="M 11.1500,16.1250
11.2457,16.1440
11.3268,16.1982
11.3810,16.2793
11.4000,16.3750
11.4000,16.9000
11.3810,16.9957
11.3268,17.0768
11.2457,17.1310
11.1500,17.1500
10.2500,17.1500
10.1543,17.1310
10.0732,17.0768
10.0190,16.9957
10.0000,16.9000
10.0000,16.3750
10.0190,16.2793
10.0732,16.1982
10.1543,16.1440
10.2500,16.1250
Z" /> 
<path style="fill:#000000; fill-opacity:1.0000; stroke:none;fill-rule:evenodd;"
d="M 11.1500,17.9500
11.2457,17.9690
11.3268,18.0232
11.3810,18.1043
11.4000,18.2000
11.4000,18.7250
11.3810,18.8207
11.3268,18.9018
11.2457,18.9560
11.1500,18.9750
10.2500,18.9750
10.1543,18.9560
10.0732,18.9018
10.0190,18.8207
10.0000,18.7250
10.0000,18.2000
10.0190,18.1043
10.0732,18.0232
10.1543,17.9690
10.2500,17.9500
Z" /> 
<path style="fill:#000000; fill-opacity:1.0000; stroke:none;fill-rule:evenodd;"
d="M 21.5980,9.5250
21.5023,9.5060
21.4212,9.4518
21.3670,9.3707
21.3480,9.2750
21.3480,8.7500
21.3670,8.6543
21.4212,8.5732
21.5023,8.5190
21.5980,8.5000
22.4980,8.5000
22.5937,8.5190
22.6748,8.5732
22.7290,8.6543
22.7480,8.7500
22.7480,9.2750
22.7290,9.3707
22.6748,9.4518
22.5937,9.5060
22.4980,9.5250
Z" /> 
<path style="fill:#000000; fill-opacity:1.0000; stroke:none;fill-rule:evenodd;"
d="M 21.5980,7.7000
21.5023,7.6810
21.4212,7.6268
21.3670,7.5457
21.3480,7.4500
21.3480,6.9250
21.3670,6.8293
21.4212,6.7482
21.5023,6.6940
21.5980,6.6750
22.4980,6.6750
22.5937,6.6940
22.6748,6.7482
22.7290,6.8293
22.7480,6.9250
22.7480,7.4500
22.7290,7.5457
22.6748,7.6268
22.5937,7.6810
22.4980,7.7000
Z" /> 
<path style="fill:#000000; fill-opacity:1.0000; stroke:none;fill-rule:evenodd;"
d="M 34.7770,37.6375
34.6813,37.6185
34.6002,37.5643
34.5460,37.4832
34.5270,37.3875
34.5270,36.7125
34.5460,36.6168
34.6002,36.5357
34.6813,36.4815
34.7770,36.4625
35.7270,36.4625
35.8227,36.4815
35.9038,36.5357
35.9580,36.6168
35.9770,36.7125
35.9770,37.3875
35.9580,37.4832
35.9038,37.5643
35.8227,37.6185
35.7270,37.6375
Z" /> 
<path style="fill:#000000; fill-opacity:1.0000; stroke:none;fill-rule:evenodd;"
d="M 34.7770,35.5625
34.6813,35.5435
34.6002,35.4893
34.5460,35.4082
34.5270,35.3125
34.5270,34.6375
34.5460,34.5418
34.6002,34.4607
34.6813,34.4065
34.7770,34.3875
35.7270,34.3875
35.8227,34.4065
35.9038,34.4607
35.9580,34.5418
35.9770,34.6375
35.9770,35.3125
35.9580,35.4082
35.9038,35.4893
35.8227,35.5435
35.7270,35.5625
Z" /> 
<path style="fill:#000000; fill-opacity:1.0000; stroke:none;fill-rule:evenodd;"
d="M 56.5770,36.6750
56.5960,36.5793
56.6502,36.4982
56.7313,36.4440
56.8270,36.4250
57.5020,36.4250
57.5977,36.4440
57.6788,36.4982
57.7330,36.5793
57.7520,36.6750
57.7520,37.6250
57.7330,37.7207
57.6788,37.8018
57.5977,37.8560
57.5020,37.8750
56.8270,37.8750
56.7313,37.8560
56.6502,37.8018
56.5960,37.7207
56.5770,37.6250
Z" /> 
<path style="fill:#000000; fill-opacity:1.0000; stroke:none;fill-rule:evenodd;"
d="M 58.6520,36.6750
58.6710,36.5793
58.7252,36.4982
58.8063,36.4440
58.9020,36.4250
59.5770,36.4250
59.6727,36.4440
59.7538,36.4982
59.8080,36.5793
59.8270,36.6750
59.8270,37.6250
59.8080,37.7207
59.7538,37.8018
59.6727,37.8560
59.5770,37.8750
58.9020,37.8750
58.8063,37.8560
58.7252,37.8018
58.6710,37.7207
58.6520,37.6250
Z" /> 
<path style="fill:#000000; fill-opacity:1.0000; stroke:none;fill-rule:evenodd;"
d="M 48.9270,32.7250
47.1770,32.7250
47.1770,31.7750
48.9270,31.7750
Z" /> 
<path style="fill:#000000; fill-opacity:1.0000; stroke:none;fill-rule:evenodd;"
d="M 48.9270,35.0250
47.1770,35.0250
47.1770,34.0750
48.9270,34.0750
Z" /> 
<path style="fill:#000000; fill-opacity:1.0000; stroke:none;fill-rule:evenodd;"
d="M 48.9270,37.3250
47.1770,37.3250
47.1770,36.3750
48.9270,36.3750
Z" /> 
<path style="fill:#000000; fill-opacity:1.0000; stroke:none;fill-rule:evenodd;"
d="M 53.4770,36.1500
53.4770,32.9500
55.2270,32.9500
55.2270,36.1500
Z" /> 
</g>
<g style="fill:none; 
stroke:#000000; stroke-width:0.1500; stroke-opacity:1; 
stroke-linecap:round; stroke-linejoin:round;">
<path d="M2.2500 57.1000
L2.2500 0.1000
" />
<path d="M102.2500 57.1000
L2.2500 57.1000
" />
<path d="M2.2500 0.1000
L102.2500 0.1000
" />
<path d="M102.2500 0.1000
L102.2500 57.1000
" />
</g> 
</svg>
