<?xml version="1.0" standalone="no"?>
 <!DOCTYPE svg PUBLIC "-//W3C//DTD SVG 1.1//EN" 
 "http://www.w3.org/Graphics/SVG/1.1/DTD/svg11.dtd"> 
<svg
  xmlns:svg="http://www.w3.org/2000/svg"
  xmlns="http://www.w3.org/2000/svg"
  xmlns:xlink="http://www.w3.org/1999/xlink"
  version="1.1"
  width="102.3112mm" height="57.1500mm" viewBox="0.0000 0.0000 102.3112 57.1500">
<title>SVG Image created as RL78_G13_Arduino-F_Paste.svg date 2025/01/18 13:18:10 </title>
  <desc>Image generated by PCBNEW </desc>
<g style="fill:#000000; fill-opacity:1.0000;stroke:#000000; stroke-opacity:1.0000;
stroke-linecap:round; stroke-linejoin:round;"
 transform="translate(0 0) scale(1 1)">
<path style="fill:#000000; fill-opacity:1.0000; stroke:none;fill-rule:evenodd;"
d="M 66.4390,24.8250
66.5347,24.8440
66.6158,24.8982
66.6700,24.9793
66.6890,25.0750
66.6890,25.7500
66.6700,25.8457
66.6158,25.9268
66.5347,25.9810
66.4390,26.0000
65.4890,26.0000
65.3933,25.9810
65.3122,25.9268
65.2580,25.8457
65.2390,25.7500
65.2390,25.0750
65.2580,24.9793
65.3122,24.8982
65.3933,24.8440
65.4890,24.8250
Z" /> 
<path style="fill:#000000; fill-opacity:1.0000; stroke:none;fill-rule:evenodd;"
d="M 66.4390,26.9000
66.5347,26.9190
66.6158,26.9732
66.6700,27.0543
66.6890,27.1500
66.6890,27.8250
66.6700,27.9207
66.6158,28.0018
66.5347,28.0560
66.4390,28.0750
65.4890,28.0750
65.3933,28.0560
65.3122,28.0018
65.2580,27.9207
65.2390,27.8250
65.2390,27.1500
65.2580,27.0543
65.3122,26.9732
65.3933,26.9190
65.4890,26.9000
Z" /> 
<path style="fill:#000000; fill-opacity:1.0000; stroke:none;fill-rule:evenodd;"
d="M 11.1000,12.3250
11.1957,12.3440
11.2768,12.3982
11.3310,12.4793
11.3500,12.5750
11.3500,13.1000
11.3310,13.1957
11.2768,13.2768
11.1957,13.3310
11.1000,13.3500
10.2000,13.3500
10.1043,13.3310
10.0232,13.2768
9.9690,13.1957
9.9500,13.1000
9.9500,12.5750
9.9690,12.4793
10.0232,12.3982
10.1043,12.3440
10.2000,12.3250
Z" /> 
<path style="fill:#000000; fill-opacity:1.0000; stroke:none;fill-rule:evenodd;"
d="M 11.1000,14.1500
11.1957,14.1690
11.2768,14.2232
11.3310,14.3043
11.3500,14.4000
11.3500,14.9250
11.3310,15.0207
11.2768,15.1018
11.1957,15.1560
11.1000,15.1750
10.2000,15.1750
10.1043,15.1560
10.0232,15.1018
9.9690,15.0207
9.9500,14.9250
9.9500,14.4000
9.9690,14.3043
10.0232,14.2232
10.1043,14.1690
10.2000,14.1500
Z" /> 
<path style="fill:#000000; fill-opacity:1.0000; stroke:none;fill-rule:evenodd;"
d="M 89.2000,9.4125
89.1043,9.3935
89.0232,9.3393
88.9690,9.2582
88.9500,9.1625
88.9500,8.6375
88.9690,8.5418
89.0232,8.4607
89.1043,8.4065
89.2000,8.3875
90.1000,8.3875
90.1957,8.4065
90.2768,8.4607
90.3310,8.5418
90.3500,8.6375
90.3500,9.1625
90.3310,9.2582
90.2768,9.3393
90.1957,9.3935
90.1000,9.4125
Z" /> 
<path style="fill:#000000; fill-opacity:1.0000; stroke:none;fill-rule:evenodd;"
d="M 89.2000,7.5875
89.1043,7.5685
89.0232,7.5143
88.9690,7.4332
88.9500,7.3375
88.9500,6.8125
88.9690,6.7168
89.0232,6.6357
89.1043,6.5815
89.2000,6.5625
90.1000,6.5625
90.1957,6.5815
90.2768,6.6357
90.3310,6.7168
90.3500,6.8125
90.3500,7.3375
90.3310,7.4332
90.2768,7.5143
90.1957,7.5685
90.1000,7.5875
Z" /> 
<path style="fill:#000000; fill-opacity:1.0000; stroke:none;fill-rule:evenodd;"
d="M 38.9444,38.8009
38.9444,37.0991
39.6556,37.0991
39.6556,38.8009
Z" /> 
<path style="fill:#000000; fill-opacity:1.0000; stroke:none;fill-rule:evenodd;"
d="M 38.2218,36.0831
38.2218,28.0821
44.9782,28.0821
44.9782,36.0831
Z" /> 
<path style="fill:#000000; fill-opacity:1.0000; stroke:none;fill-rule:evenodd;"
d="M 43.5444,38.8009
43.5444,37.0991
44.2556,37.0991
44.2556,38.8009
Z" /> 
<path style="fill:#000000; fill-opacity:1.0000; stroke:none;fill-rule:evenodd;"
d="M 6.0000,27.2000
6.0190,27.1043
6.0732,27.0232
6.1543,26.9690
6.2500,26.9500
6.9500,26.9500
7.0457,26.9690
7.1268,27.0232
7.1810,27.1043
7.2000,27.2000
7.2000,28.1000
7.1810,28.1957
7.1268,28.2768
7.0457,28.3310
6.9500,28.3500
6.2500,28.3500
6.1543,28.3310
6.0732,28.2768
6.0190,28.1957
6.0000,28.1000
Z" /> 
<path style="fill:#000000; fill-opacity:1.0000; stroke:none;fill-rule:evenodd;"
d="M 8.0000,27.2000
8.0190,27.1043
8.0732,27.0232
8.1543,26.9690
8.2500,26.9500
8.9500,26.9500
9.0457,26.9690
9.1268,27.0232
9.1810,27.1043
9.2000,27.2000
9.2000,28.1000
9.1810,28.1957
9.1268,28.2768
9.0457,28.3310
8.9500,28.3500
8.2500,28.3500
8.1543,28.3310
8.0732,28.2768
8.0190,28.1957
8.0000,28.1000
Z" /> 
<path style="fill:#000000; fill-opacity:1.0000; stroke:none;fill-rule:evenodd;"
d="M 24.1380,9.3250
24.0423,9.3060
23.9612,9.2518
23.9070,9.1707
23.8880,9.0750
23.8880,8.5500
23.9070,8.4543
23.9612,8.3732
24.0423,8.3190
24.1380,8.3000
25.0380,8.3000
25.1337,8.3190
25.2148,8.3732
25.2690,8.4543
25.2880,8.5500
25.2880,9.0750
25.2690,9.1707
25.2148,9.2518
25.1337,9.3060
25.0380,9.3250
Z" /> 
<path style="fill:#000000; fill-opacity:1.0000; stroke:none;fill-rule:evenodd;"
d="M 24.1380,7.5000
24.0423,7.4810
23.9612,7.4268
23.9070,7.3457
23.8880,7.2500
23.8880,6.7250
23.9070,6.6293
23.9612,6.5482
24.0423,6.4940
24.1380,6.4750
25.0380,6.4750
25.1337,6.4940
25.2148,6.5482
25.2690,6.6293
25.2880,6.7250
25.2880,7.2500
25.2690,7.3457
25.2148,7.4268
25.1337,7.4810
25.0380,7.5000
Z" /> 
<path style="fill:#000000; fill-opacity:1.0000; stroke:none;fill-rule:evenodd;"
d="M 21.5980,9.3250
21.5023,9.3060
21.4212,9.2518
21.3670,9.1707
21.3480,9.0750
21.3480,8.5500
21.3670,8.4543
21.4212,8.3732
21.5023,8.3190
21.5980,8.3000
22.4980,8.3000
22.5937,8.3190
22.6748,8.3732
22.7290,8.4543
22.7480,8.5500
22.7480,9.0750
22.7290,9.1707
22.6748,9.2518
22.5937,9.3060
22.4980,9.3250
Z" /> 
<path style="fill:#000000; fill-opacity:1.0000; stroke:none;fill-rule:evenodd;"
d="M 21.5980,7.5000
21.5023,7.4810
21.4212,7.4268
21.3670,7.3457
21.3480,7.2500
21.3480,6.7250
21.3670,6.6293
21.4212,6.5482
21.5023,6.4940
21.5980,6.4750
22.4980,6.4750
22.5937,6.4940
22.6748,6.5482
22.7290,6.6293
22.7480,6.7250
22.7480,7.2500
22.7290,7.3457
22.6748,7.4268
22.5937,7.4810
22.4980,7.5000
Z" /> 
<path style="fill:#000000; fill-opacity:1.0000; stroke:none;fill-rule:evenodd;"
d="M 47.4770,28.6750
47.4960,28.5793
47.5502,28.4982
47.6313,28.4440
47.7270,28.4250
48.4020,28.4250
48.4977,28.4440
48.5788,28.4982
48.6330,28.5793
48.6520,28.6750
48.6520,29.6250
48.6330,29.7207
48.5788,29.8018
48.4977,29.8560
48.4020,29.8750
47.7270,29.8750
47.6313,29.8560
47.5502,29.8018
47.4960,29.7207
47.4770,29.6250
Z" /> 
<path style="fill:#000000; fill-opacity:1.0000; stroke:none;fill-rule:evenodd;"
d="M 49.5520,28.6750
49.5710,28.5793
49.6252,28.4982
49.7063,28.4440
49.8020,28.4250
50.4770,28.4250
50.5727,28.4440
50.6538,28.4982
50.7080,28.5793
50.7270,28.6750
50.7270,29.6250
50.7080,29.7207
50.6538,29.8018
50.5727,29.8560
50.4770,29.8750
49.8020,29.8750
49.7063,29.8560
49.6252,29.8018
49.5710,29.7207
49.5520,29.6250
Z" /> 
<path style="fill:#000000; fill-opacity:1.0000; stroke:none;fill-rule:evenodd;"
d="M 67.2890,31.3750
67.2700,31.4707
67.2158,31.5518
67.1347,31.6060
67.0390,31.6250
66.3640,31.6250
66.2683,31.6060
66.1872,31.5518
66.1330,31.4707
66.1140,31.3750
66.1140,30.4250
66.1330,30.3293
66.1872,30.2482
66.2683,30.1940
66.3640,30.1750
67.0390,30.1750
67.1347,30.1940
67.2158,30.2482
67.2700,30.3293
67.2890,30.4250
Z" /> 
<path style="fill:#000000; fill-opacity:1.0000; stroke:none;fill-rule:evenodd;"
d="M 65.2140,31.3750
65.1950,31.4707
65.1408,31.5518
65.0597,31.6060
64.9640,31.6250
64.2890,31.6250
64.1933,31.6060
64.1122,31.5518
64.0580,31.4707
64.0390,31.3750
64.0390,30.4250
64.0580,30.3293
64.1122,30.2482
64.1933,30.1940
64.2890,30.1750
64.9640,30.1750
65.0597,30.1940
65.1408,30.2482
65.1950,30.3293
65.2140,30.4250
Z" /> 
<path style="fill:#000000; fill-opacity:1.0000; stroke:none;fill-rule:evenodd;"
d="M 68.4125,19.5625
68.4230,19.5099
68.4528,19.4653
68.4974,19.4355
68.5500,19.4250
69.7500,19.4250
69.8026,19.4355
69.8472,19.4653
69.8770,19.5099
69.8875,19.5625
69.8875,19.8375
69.8770,19.8901
69.8472,19.9347
69.8026,19.9645
69.7500,19.9750
68.5500,19.9750
68.4974,19.9645
68.4528,19.9347
68.4230,19.8901
68.4125,19.8375
Z" /> 
<path style="fill:#000000; fill-opacity:1.0000; stroke:none;fill-rule:evenodd;"
d="M 68.4125,20.3625
68.4230,20.3099
68.4528,20.2653
68.4974,20.2355
68.5500,20.2250
69.7500,20.2250
69.8026,20.2355
69.8472,20.2653
69.8770,20.3099
69.8875,20.3625
69.8875,20.6375
69.8770,20.6901
69.8472,20.7347
69.8026,20.7645
69.7500,20.7750
68.5500,20.7750
68.4974,20.7645
68.4528,20.7347
68.4230,20.6901
68.4125,20.6375
Z" /> 
<path style="fill:#000000; fill-opacity:1.0000; stroke:none;fill-rule:evenodd;"
d="M 68.4125,21.1625
68.4230,21.1099
68.4528,21.0653
68.4974,21.0355
68.5500,21.0250
69.7500,21.0250
69.8026,21.0355
69.8472,21.0653
69.8770,21.1099
69.8875,21.1625
69.8875,21.4375
69.8770,21.4901
69.8472,21.5347
69.8026,21.5645
69.7500,21.5750
68.5500,21.5750
68.4974,21.5645
68.4528,21.5347
68.4230,21.4901
68.4125,21.4375
Z" /> 
<path style="fill:#000000; fill-opacity:1.0000; stroke:none;fill-rule:evenodd;"
d="M 68.4125,21.9625
68.4230,21.9099
68.4528,21.8653
68.4974,21.8355
68.5500,21.8250
69.7500,21.8250
69.8026,21.8355
69.8472,21.8653
69.8770,21.9099
69.8875,21.9625
69.8875,22.2375
69.8770,22.2901
69.8472,22.3347
69.8026,22.3645
69.7500,22.3750
68.5500,22.3750
68.4974,22.3645
68.4528,22.3347
68.4230,22.2901
68.4125,22.2375
Z" /> 
<path style="fill:#000000; fill-opacity:1.0000; stroke:none;fill-rule:evenodd;"
d="M 68.4125,22.7625
68.4230,22.7099
68.4528,22.6653
68.4974,22.6355
68.5500,22.6250
69.7500,22.6250
69.8026,22.6355
69.8472,22.6653
69.8770,22.7099
69.8875,22.7625
69.8875,23.0375
69.8770,23.0901
69.8472,23.1347
69.8026,23.1645
69.7500,23.1750
68.5500,23.1750
68.4974,23.1645
68.4528,23.1347
68.4230,23.0901
68.4125,23.0375
Z" /> 
<path style="fill:#000000; fill-opacity:1.0000; stroke:none;fill-rule:evenodd;"
d="M 68.4125,23.5625
68.4230,23.5099
68.4528,23.4653
68.4974,23.4355
68.5500,23.4250
69.7500,23.4250
69.8026,23.4355
69.8472,23.4653
69.8770,23.5099
69.8875,23.5625
69.8875,23.8375
69.8770,23.8901
69.8472,23.9347
69.8026,23.9645
69.7500,23.9750
68.5500,23.9750
68.4974,23.9645
68.4528,23.9347
68.4230,23.8901
68.4125,23.8375
Z" /> 
<path style="fill:#000000; fill-opacity:1.0000; stroke:none;fill-rule:evenodd;"
d="M 68.4125,24.3625
68.4230,24.3099
68.4528,24.2653
68.4974,24.2355
68.5500,24.2250
69.7500,24.2250
69.8026,24.2355
69.8472,24.2653
69.8770,24.3099
69.8875,24.3625
69.8875,24.6375
69.8770,24.6901
69.8472,24.7347
69.8026,24.7645
69.7500,24.7750
68.5500,24.7750
68.4974,24.7645
68.4528,24.7347
68.4230,24.6901
68.4125,24.6375
Z" /> 
<path style="fill:#000000; fill-opacity:1.0000; stroke:none;fill-rule:evenodd;"
d="M 68.4125,25.1625
68.4230,25.1099
68.4528,25.0653
68.4974,25.0355
68.5500,25.0250
69.7500,25.0250
69.8026,25.0355
69.8472,25.0653
69.8770,25.1099
69.8875,25.1625
69.8875,25.4375
69.8770,25.4901
69.8472,25.5347
69.8026,25.5645
69.7500,25.5750
68.5500,25.5750
68.4974,25.5645
68.4528,25.5347
68.4230,25.4901
68.4125,25.4375
Z" /> 
<path style="fill:#000000; fill-opacity:1.0000; stroke:none;fill-rule:evenodd;"
d="M 68.4125,25.9625
68.4230,25.9099
68.4528,25.8653
68.4974,25.8355
68.5500,25.8250
69.7500,25.8250
69.8026,25.8355
69.8472,25.8653
69.8770,25.9099
69.8875,25.9625
69.8875,26.2375
69.8770,26.2901
69.8472,26.3347
69.8026,26.3645
69.7500,26.3750
68.5500,26.3750
68.4974,26.3645
68.4528,26.3347
68.4230,26.2901
68.4125,26.2375
Z" /> 
<path style="fill:#000000; fill-opacity:1.0000; stroke:none;fill-rule:evenodd;"
d="M 68.4125,26.7625
68.4230,26.7099
68.4528,26.6653
68.4974,26.6355
68.5500,26.6250
69.7500,26.6250
69.8026,26.6355
69.8472,26.6653
69.8770,26.7099
69.8875,26.7625
69.8875,27.0375
69.8770,27.0901
69.8472,27.1347
69.8026,27.1645
69.7500,27.1750
68.5500,27.1750
68.4974,27.1645
68.4528,27.1347
68.4230,27.0901
68.4125,27.0375
Z" /> 
<path style="fill:#000000; fill-opacity:1.0000; stroke:none;fill-rule:evenodd;"
d="M 68.4125,27.5625
68.4230,27.5099
68.4528,27.4653
68.4974,27.4355
68.5500,27.4250
69.7500,27.4250
69.8026,27.4355
69.8472,27.4653
69.8770,27.5099
69.8875,27.5625
69.8875,27.8375
69.8770,27.8901
69.8472,27.9347
69.8026,27.9645
69.7500,27.9750
68.5500,27.9750
68.4974,27.9645
68.4528,27.9347
68.4230,27.8901
68.4125,27.8375
Z" /> 
<path style="fill:#000000; fill-opacity:1.0000; stroke:none;fill-rule:evenodd;"
d="M 70.5375,28.7625
70.5480,28.7099
70.5778,28.6653
70.6224,28.6355
70.6750,28.6250
70.9500,28.6250
71.0026,28.6355
71.0472,28.6653
71.0770,28.7099
71.0875,28.7625
71.0875,29.9625
71.0770,30.0151
71.0472,30.0597
71.0026,30.0895
70.9500,30.1000
70.6750,30.1000
70.6224,30.0895
70.5778,30.0597
70.5480,30.0151
70.5375,29.9625
Z" /> 
<path style="fill:#000000; fill-opacity:1.0000; stroke:none;fill-rule:evenodd;"
d="M 71.3375,28.7625
71.3480,28.7099
71.3778,28.6653
71.4224,28.6355
71.4750,28.6250
71.7500,28.6250
71.8026,28.6355
71.8472,28.6653
71.8770,28.7099
71.8875,28.7625
71.8875,29.9625
71.8770,30.0151
71.8472,30.0597
71.8026,30.0895
71.7500,30.1000
71.4750,30.1000
71.4224,30.0895
71.3778,30.0597
71.3480,30.0151
71.3375,29.9625
Z" /> 
<path style="fill:#000000; fill-opacity:1.0000; stroke:none;fill-rule:evenodd;"
d="M 72.1375,28.7625
72.1480,28.7099
72.1778,28.6653
72.2224,28.6355
72.2750,28.6250
72.5500,28.6250
72.6026,28.6355
72.6472,28.6653
72.6770,28.7099
72.6875,28.7625
72.6875,29.9625
72.6770,30.0151
72.6472,30.0597
72.6026,30.0895
72.5500,30.1000
72.2750,30.1000
72.2224,30.0895
72.1778,30.0597
72.1480,30.0151
72.1375,29.9625
Z" /> 
<path style="fill:#000000; fill-opacity:1.0000; stroke:none;fill-rule:evenodd;"
d="M 72.9375,28.7625
72.9480,28.7099
72.9778,28.6653
73.0224,28.6355
73.0750,28.6250
73.3500,28.6250
73.4026,28.6355
73.4472,28.6653
73.4770,28.7099
73.4875,28.7625
73.4875,29.9625
73.4770,30.0151
73.4472,30.0597
73.4026,30.0895
73.3500,30.1000
73.0750,30.1000
73.0224,30.0895
72.9778,30.0597
72.9480,30.0151
72.9375,29.9625
Z" /> 
<path style="fill:#000000; fill-opacity:1.0000; stroke:none;fill-rule:evenodd;"
d="M 73.7375,28.7625
73.7480,28.7099
73.7778,28.6653
73.8224,28.6355
73.8750,28.6250
74.1500,28.6250
74.2026,28.6355
74.2472,28.6653
74.2770,28.7099
74.2875,28.7625
74.2875,29.9625
74.2770,30.0151
74.2472,30.0597
74.2026,30.0895
74.1500,30.1000
73.8750,30.1000
73.8224,30.0895
73.7778,30.0597
73.7480,30.0151
73.7375,29.9625
Z" /> 
<path style="fill:#000000; fill-opacity:1.0000; stroke:none;fill-rule:evenodd;"
d="M 74.5375,28.7625
74.5480,28.7099
74.5778,28.6653
74.6224,28.6355
74.6750,28.6250
74.9500,28.6250
75.0026,28.6355
75.0472,28.6653
75.0770,28.7099
75.0875,28.7625
75.0875,29.9625
75.0770,30.0151
75.0472,30.0597
75.0026,30.0895
74.9500,30.1000
74.6750,30.1000
74.6224,30.0895
74.5778,30.0597
74.5480,30.0151
74.5375,29.9625
Z" /> 
<path style="fill:#000000; fill-opacity:1.0000; stroke:none;fill-rule:evenodd;"
d="M 75.3375,28.7625
75.3480,28.7099
75.3778,28.6653
75.4224,28.6355
75.4750,28.6250
75.7500,28.6250
75.8026,28.6355
75.8472,28.6653
75.8770,28.7099
75.8875,28.7625
75.8875,29.9625
75.8770,30.0151
75.8472,30.0597
75.8026,30.0895
75.7500,30.1000
75.4750,30.1000
75.4224,30.0895
75.3778,30.0597
75.3480,30.0151
75.3375,29.9625
Z" /> 
<path style="fill:#000000; fill-opacity:1.0000; stroke:none;fill-rule:evenodd;"
d="M 76.1375,28.7625
76.1480,28.7099
76.1778,28.6653
76.2224,28.6355
76.2750,28.6250
76.5500,28.6250
76.6026,28.6355
76.6472,28.6653
76.6770,28.7099
76.6875,28.7625
76.6875,29.9625
76.6770,30.0151
76.6472,30.0597
76.6026,30.0895
76.5500,30.1000
76.2750,30.1000
76.2224,30.0895
76.1778,30.0597
76.1480,30.0151
76.1375,29.9625
Z" /> 
<path style="fill:#000000; fill-opacity:1.0000; stroke:none;fill-rule:evenodd;"
d="M 76.9375,28.7625
76.9480,28.7099
76.9778,28.6653
77.0224,28.6355
77.0750,28.6250
77.3500,28.6250
77.4026,28.6355
77.4472,28.6653
77.4770,28.7099
77.4875,28.7625
77.4875,29.9625
77.4770,30.0151
77.4472,30.0597
77.4026,30.0895
77.3500,30.1000
77.0750,30.1000
77.0224,30.0895
76.9778,30.0597
76.9480,30.0151
76.9375,29.9625
Z" /> 
<path style="fill:#000000; fill-opacity:1.0000; stroke:none;fill-rule:evenodd;"
d="M 77.7375,28.7625
77.7480,28.7099
77.7778,28.6653
77.8224,28.6355
77.8750,28.6250
78.1500,28.6250
78.2026,28.6355
78.2472,28.6653
78.2770,28.7099
78.2875,28.7625
78.2875,29.9625
78.2770,30.0151
78.2472,30.0597
78.2026,30.0895
78.1500,30.1000
77.8750,30.1000
77.8224,30.0895
77.7778,30.0597
77.7480,30.0151
77.7375,29.9625
Z" /> 
<path style="fill:#000000; fill-opacity:1.0000; stroke:none;fill-rule:evenodd;"
d="M 78.5375,28.7625
78.5480,28.7099
78.5778,28.6653
78.6224,28.6355
78.6750,28.6250
78.9500,28.6250
79.0026,28.6355
79.0472,28.6653
79.0770,28.7099
79.0875,28.7625
79.0875,29.9625
79.0770,30.0151
79.0472,30.0597
79.0026,30.0895
78.9500,30.1000
78.6750,30.1000
78.6224,30.0895
78.5778,30.0597
78.5480,30.0151
78.5375,29.9625
Z" /> 
<path style="fill:#000000; fill-opacity:1.0000; stroke:none;fill-rule:evenodd;"
d="M 79.7375,27.5625
79.7480,27.5099
79.7778,27.4653
79.8224,27.4355
79.8750,27.4250
81.0750,27.4250
81.1276,27.4355
81.1722,27.4653
81.2020,27.5099
81.2125,27.5625
81.2125,27.8375
81.2020,27.8901
81.1722,27.9347
81.1276,27.9645
81.0750,27.9750
79.8750,27.9750
79.8224,27.9645
79.7778,27.9347
79.7480,27.8901
79.7375,27.8375
Z" /> 
<path style="fill:#000000; fill-opacity:1.0000; stroke:none;fill-rule:evenodd;"
d="M 79.7375,26.7625
79.7480,26.7099
79.7778,26.6653
79.8224,26.6355
79.8750,26.6250
81.0750,26.6250
81.1276,26.6355
81.1722,26.6653
81.2020,26.7099
81.2125,26.7625
81.2125,27.0375
81.2020,27.0901
81.1722,27.1347
81.1276,27.1645
81.0750,27.1750
79.8750,27.1750
79.8224,27.1645
79.7778,27.1347
79.7480,27.0901
79.7375,27.0375
Z" /> 
<path style="fill:#000000; fill-opacity:1.0000; stroke:none;fill-rule:evenodd;"
d="M 79.7375,25.9625
79.7480,25.9099
79.7778,25.8653
79.8224,25.8355
79.8750,25.8250
81.0750,25.8250
81.1276,25.8355
81.1722,25.8653
81.2020,25.9099
81.2125,25.9625
81.2125,26.2375
81.2020,26.2901
81.1722,26.3347
81.1276,26.3645
81.0750,26.3750
79.8750,26.3750
79.8224,26.3645
79.7778,26.3347
79.7480,26.2901
79.7375,26.2375
Z" /> 
<path style="fill:#000000; fill-opacity:1.0000; stroke:none;fill-rule:evenodd;"
d="M 79.7375,25.1625
79.7480,25.1099
79.7778,25.0653
79.8224,25.0355
79.8750,25.0250
81.0750,25.0250
81.1276,25.0355
81.1722,25.0653
81.2020,25.1099
81.2125,25.1625
81.2125,25.4375
81.2020,25.4901
81.1722,25.5347
81.1276,25.5645
81.0750,25.5750
79.8750,25.5750
79.8224,25.5645
79.7778,25.5347
79.7480,25.4901
79.7375,25.4375
Z" /> 
<path style="fill:#000000; fill-opacity:1.0000; stroke:none;fill-rule:evenodd;"
d="M 79.7375,24.3625
79.7480,24.3099
79.7778,24.2653
79.8224,24.2355
79.8750,24.2250
81.0750,24.2250
81.1276,24.2355
81.1722,24.2653
81.2020,24.3099
81.2125,24.3625
81.2125,24.6375
81.2020,24.6901
81.1722,24.7347
81.1276,24.7645
81.0750,24.7750
79.8750,24.7750
79.8224,24.7645
79.7778,24.7347
79.7480,24.6901
79.7375,24.6375
Z" /> 
<path style="fill:#000000; fill-opacity:1.0000; stroke:none;fill-rule:evenodd;"
d="M 79.7375,23.5625
79.7480,23.5099
79.7778,23.4653
79.8224,23.4355
79.8750,23.4250
81.0750,23.4250
81.1276,23.4355
81.1722,23.4653
81.2020,23.5099
81.2125,23.5625
81.2125,23.8375
81.2020,23.8901
81.1722,23.9347
81.1276,23.9645
81.0750,23.9750
79.8750,23.9750
79.8224,23.9645
79.7778,23.9347
79.7480,23.8901
79.7375,23.8375
Z" /> 
<path style="fill:#000000; fill-opacity:1.0000; stroke:none;fill-rule:evenodd;"
d="M 79.7375,22.7625
79.7480,22.7099
79.7778,22.6653
79.8224,22.6355
79.8750,22.6250
81.0750,22.6250
81.1276,22.6355
81.1722,22.6653
81.2020,22.7099
81.2125,22.7625
81.2125,23.0375
81.2020,23.0901
81.1722,23.1347
81.1276,23.1645
81.0750,23.1750
79.8750,23.1750
79.8224,23.1645
79.7778,23.1347
79.7480,23.0901
79.7375,23.0375
Z" /> 
<path style="fill:#000000; fill-opacity:1.0000; stroke:none;fill-rule:evenodd;"
d="M 79.7375,21.9625
79.7480,21.9099
79.7778,21.8653
79.8224,21.8355
79.8750,21.8250
81.0750,21.8250
81.1276,21.8355
81.1722,21.8653
81.2020,21.9099
81.2125,21.9625
81.2125,22.2375
81.2020,22.2901
81.1722,22.3347
81.1276,22.3645
81.0750,22.3750
79.8750,22.3750
79.8224,22.3645
79.7778,22.3347
79.7480,22.2901
79.7375,22.2375
Z" /> 
<path style="fill:#000000; fill-opacity:1.0000; stroke:none;fill-rule:evenodd;"
d="M 79.7375,21.1625
79.7480,21.1099
79.7778,21.0653
79.8224,21.0355
79.8750,21.0250
81.0750,21.0250
81.1276,21.0355
81.1722,21.0653
81.2020,21.1099
81.2125,21.1625
81.2125,21.4375
81.2020,21.4901
81.1722,21.5347
81.1276,21.5645
81.0750,21.5750
79.8750,21.5750
79.8224,21.5645
79.7778,21.5347
79.7480,21.4901
79.7375,21.4375
Z" /> 
<path style="fill:#000000; fill-opacity:1.0000; stroke:none;fill-rule:evenodd;"
d="M 79.7375,20.3625
79.7480,20.3099
79.7778,20.2653
79.8224,20.2355
79.8750,20.2250
81.0750,20.2250
81.1276,20.2355
81.1722,20.2653
81.2020,20.3099
81.2125,20.3625
81.2125,20.6375
81.2020,20.6901
81.1722,20.7347
81.1276,20.7645
81.0750,20.7750
79.8750,20.7750
79.8224,20.7645
79.7778,20.7347
79.7480,20.6901
79.7375,20.6375
Z" /> 
<path style="fill:#000000; fill-opacity:1.0000; stroke:none;fill-rule:evenodd;"
d="M 79.7375,19.5625
79.7480,19.5099
79.7778,19.4653
79.8224,19.4355
79.8750,19.4250
81.0750,19.4250
81.1276,19.4355
81.1722,19.4653
81.2020,19.5099
81.2125,19.5625
81.2125,19.8375
81.2020,19.8901
81.1722,19.9347
81.1276,19.9645
81.0750,19.9750
79.8750,19.9750
79.8224,19.9645
79.7778,19.9347
79.7480,19.8901
79.7375,19.8375
Z" /> 
<path style="fill:#000000; fill-opacity:1.0000; stroke:none;fill-rule:evenodd;"
d="M 78.5375,17.4375
78.5480,17.3849
78.5778,17.3403
78.6224,17.3105
78.6750,17.3000
78.9500,17.3000
79.0026,17.3105
79.0472,17.3403
79.0770,17.3849
79.0875,17.4375
79.0875,18.6375
79.0770,18.6901
79.0472,18.7347
79.0026,18.7645
78.9500,18.7750
78.6750,18.7750
78.6224,18.7645
78.5778,18.7347
78.5480,18.6901
78.5375,18.6375
Z" /> 
<path style="fill:#000000; fill-opacity:1.0000; stroke:none;fill-rule:evenodd;"
d="M 77.7375,17.4375
77.7480,17.3849
77.7778,17.3403
77.8224,17.3105
77.8750,17.3000
78.1500,17.3000
78.2026,17.3105
78.2472,17.3403
78.2770,17.3849
78.2875,17.4375
78.2875,18.6375
78.2770,18.6901
78.2472,18.7347
78.2026,18.7645
78.1500,18.7750
77.8750,18.7750
77.8224,18.7645
77.7778,18.7347
77.7480,18.6901
77.7375,18.6375
Z" /> 
<path style="fill:#000000; fill-opacity:1.0000; stroke:none;fill-rule:evenodd;"
d="M 76.9375,17.4375
76.9480,17.3849
76.9778,17.3403
77.0224,17.3105
77.0750,17.3000
77.3500,17.3000
77.4026,17.3105
77.4472,17.3403
77.4770,17.3849
77.4875,17.4375
77.4875,18.6375
77.4770,18.6901
77.4472,18.7347
77.4026,18.7645
77.3500,18.7750
77.0750,18.7750
77.0224,18.7645
76.9778,18.7347
76.9480,18.6901
76.9375,18.6375
Z" /> 
<path style="fill:#000000; fill-opacity:1.0000; stroke:none;fill-rule:evenodd;"
d="M 76.1375,17.4375
76.1480,17.3849
76.1778,17.3403
76.2224,17.3105
76.2750,17.3000
76.5500,17.3000
76.6026,17.3105
76.6472,17.3403
76.6770,17.3849
76.6875,17.4375
76.6875,18.6375
76.6770,18.6901
76.6472,18.7347
76.6026,18.7645
76.5500,18.7750
76.2750,18.7750
76.2224,18.7645
76.1778,18.7347
76.1480,18.6901
76.1375,18.6375
Z" /> 
<path style="fill:#000000; fill-opacity:1.0000; stroke:none;fill-rule:evenodd;"
d="M 75.3375,17.4375
75.3480,17.3849
75.3778,17.3403
75.4224,17.3105
75.4750,17.3000
75.7500,17.3000
75.8026,17.3105
75.8472,17.3403
75.8770,17.3849
75.8875,17.4375
75.8875,18.6375
75.8770,18.6901
75.8472,18.7347
75.8026,18.7645
75.7500,18.7750
75.4750,18.7750
75.4224,18.7645
75.3778,18.7347
75.3480,18.6901
75.3375,18.6375
Z" /> 
<path style="fill:#000000; fill-opacity:1.0000; stroke:none;fill-rule:evenodd;"
d="M 74.5375,17.4375
74.5480,17.3849
74.5778,17.3403
74.6224,17.3105
74.6750,17.3000
74.9500,17.3000
75.0026,17.3105
75.0472,17.3403
75.0770,17.3849
75.0875,17.4375
75.0875,18.6375
75.0770,18.6901
75.0472,18.7347
75.0026,18.7645
74.9500,18.7750
74.6750,18.7750
74.6224,18.7645
74.5778,18.7347
74.5480,18.6901
74.5375,18.6375
Z" /> 
<path style="fill:#000000; fill-opacity:1.0000; stroke:none;fill-rule:evenodd;"
d="M 73.7375,17.4375
73.7480,17.3849
73.7778,17.3403
73.8224,17.3105
73.8750,17.3000
74.1500,17.3000
74.2026,17.3105
74.2472,17.3403
74.2770,17.3849
74.2875,17.4375
74.2875,18.6375
74.2770,18.6901
74.2472,18.7347
74.2026,18.7645
74.1500,18.7750
73.8750,18.7750
73.8224,18.7645
73.7778,18.7347
73.7480,18.6901
73.7375,18.6375
Z" /> 
<path style="fill:#000000; fill-opacity:1.0000; stroke:none;fill-rule:evenodd;"
d="M 72.9375,17.4375
72.9480,17.3849
72.9778,17.3403
73.0224,17.3105
73.0750,17.3000
73.3500,17.3000
73.4026,17.3105
73.4472,17.3403
73.4770,17.3849
73.4875,17.4375
73.4875,18.6375
73.4770,18.6901
73.4472,18.7347
73.4026,18.7645
73.3500,18.7750
73.0750,18.7750
73.0224,18.7645
72.9778,18.7347
72.9480,18.6901
72.9375,18.6375
Z" /> 
<path style="fill:#000000; fill-opacity:1.0000; stroke:none;fill-rule:evenodd;"
d="M 72.1375,17.4375
72.1480,17.3849
72.1778,17.3403
72.2224,17.3105
72.2750,17.3000
72.5500,17.3000
72.6026,17.3105
72.6472,17.3403
72.6770,17.3849
72.6875,17.4375
72.6875,18.6375
72.6770,18.6901
72.6472,18.7347
72.6026,18.7645
72.5500,18.7750
72.2750,18.7750
72.2224,18.7645
72.1778,18.7347
72.1480,18.6901
72.1375,18.6375
Z" /> 
<path style="fill:#000000; fill-opacity:1.0000; stroke:none;fill-rule:evenodd;"
d="M 71.3375,17.4375
71.3480,17.3849
71.3778,17.3403
71.4224,17.3105
71.4750,17.3000
71.7500,17.3000
71.8026,17.3105
71.8472,17.3403
71.8770,17.3849
71.8875,17.4375
71.8875,18.6375
71.8770,18.6901
71.8472,18.7347
71.8026,18.7645
71.7500,18.7750
71.4750,18.7750
71.4224,18.7645
71.3778,18.7347
71.3480,18.6901
71.3375,18.6375
Z" /> 
<path style="fill:#000000; fill-opacity:1.0000; stroke:none;fill-rule:evenodd;"
d="M 70.5375,17.4375
70.5480,17.3849
70.5778,17.3403
70.6224,17.3105
70.6750,17.3000
70.9500,17.3000
71.0026,17.3105
71.0472,17.3403
71.0770,17.3849
71.0875,17.4375
71.0875,18.6375
71.0770,18.6901
71.0472,18.7347
71.0026,18.7645
70.9500,18.7750
70.6750,18.7750
70.6224,18.7645
70.5778,18.7347
70.5480,18.6901
70.5375,18.6375
Z" /> 
<path style="fill:#000000; fill-opacity:1.0000; stroke:none;fill-rule:evenodd;"
d="M 11.1500,16.1250
11.2457,16.1440
11.3268,16.1982
11.3810,16.2793
11.4000,16.3750
11.4000,16.9000
11.3810,16.9957
11.3268,17.0768
11.2457,17.1310
11.1500,17.1500
10.2500,17.1500
10.1543,17.1310
10.0732,17.0768
10.0190,16.9957
10.0000,16.9000
10.0000,16.3750
10.0190,16.2793
10.0732,16.1982
10.1543,16.1440
10.2500,16.1250
Z" /> 
<path style="fill:#000000; fill-opacity:1.0000; stroke:none;fill-rule:evenodd;"
d="M 11.1500,17.9500
11.2457,17.9690
11.3268,18.0232
11.3810,18.1043
11.4000,18.2000
11.4000,18.7250
11.3810,18.8207
11.3268,18.9018
11.2457,18.9560
11.1500,18.9750
10.2500,18.9750
10.1543,18.9560
10.0732,18.9018
10.0190,18.8207
10.0000,18.7250
10.0000,18.2000
10.0190,18.1043
10.0732,18.0232
10.1543,17.9690
10.2500,17.9500
Z" /> 
<path style="fill:#000000; fill-opacity:1.0000; stroke:none;fill-rule:evenodd;"
d="M 79.0500,9.5750
78.9543,9.5560
78.8732,9.5018
78.8190,9.4207
78.8000,9.3250
78.8000,8.8000
78.8190,8.7043
78.8732,8.6232
78.9543,8.5690
79.0500,8.5500
79.9500,8.5500
80.0457,8.5690
80.1268,8.6232
80.1810,8.7043
80.2000,8.8000
80.2000,9.3250
80.1810,9.4207
80.1268,9.5018
80.0457,9.5560
79.9500,9.5750
Z" /> 
<path style="fill:#000000; fill-opacity:1.0000; stroke:none;fill-rule:evenodd;"
d="M 79.0500,7.7500
78.9543,7.7310
78.8732,7.6768
78.8190,7.5957
78.8000,7.5000
78.8000,6.9750
78.8190,6.8793
78.8732,6.7982
78.9543,6.7440
79.0500,6.7250
79.9500,6.7250
80.0457,6.7440
80.1268,6.7982
80.1810,6.8793
80.2000,6.9750
80.2000,7.5000
80.1810,7.5957
80.1268,7.6768
80.0457,7.7310
79.9500,7.7500
Z" /> 
<path style="fill:#000000; fill-opacity:1.0000; stroke:none;fill-rule:evenodd;"
d="M 34.7770,37.6375
34.6813,37.6185
34.6002,37.5643
34.5460,37.4832
34.5270,37.3875
34.5270,36.7125
34.5460,36.6168
34.6002,36.5357
34.6813,36.4815
34.7770,36.4625
35.7270,36.4625
35.8227,36.4815
35.9038,36.5357
35.9580,36.6168
35.9770,36.7125
35.9770,37.3875
35.9580,37.4832
35.9038,37.5643
35.8227,37.6185
35.7270,37.6375
Z" /> 
<path style="fill:#000000; fill-opacity:1.0000; stroke:none;fill-rule:evenodd;"
d="M 34.7770,35.5625
34.6813,35.5435
34.6002,35.4893
34.5460,35.4082
34.5270,35.3125
34.5270,34.6375
34.5460,34.5418
34.6002,34.4607
34.6813,34.4065
34.7770,34.3875
35.7270,34.3875
35.8227,34.4065
35.9038,34.4607
35.9580,34.5418
35.9770,34.6375
35.9770,35.3125
35.9580,35.4082
35.9038,35.4893
35.8227,35.5435
35.7270,35.5625
Z" /> 
<path style="fill:#000000; fill-opacity:1.0000; stroke:none;fill-rule:evenodd;"
d="M 56.5770,36.6750
56.5960,36.5793
56.6502,36.4982
56.7313,36.4440
56.8270,36.4250
57.5020,36.4250
57.5977,36.4440
57.6788,36.4982
57.7330,36.5793
57.7520,36.6750
57.7520,37.6250
57.7330,37.7207
57.6788,37.8018
57.5977,37.8560
57.5020,37.8750
56.8270,37.8750
56.7313,37.8560
56.6502,37.8018
56.5960,37.7207
56.5770,37.6250
Z" /> 
<path style="fill:#000000; fill-opacity:1.0000; stroke:none;fill-rule:evenodd;"
d="M 58.6520,36.6750
58.6710,36.5793
58.7252,36.4982
58.8063,36.4440
58.9020,36.4250
59.5770,36.4250
59.6727,36.4440
59.7538,36.4982
59.8080,36.5793
59.8270,36.6750
59.8270,37.6250
59.8080,37.7207
59.7538,37.8018
59.6727,37.8560
59.5770,37.8750
58.9020,37.8750
58.8063,37.8560
58.7252,37.8018
58.6710,37.7207
58.6520,37.6250
Z" /> 
<path style="fill:#000000; fill-opacity:1.0000; stroke:none;fill-rule:evenodd;"
d="M 48.9270,32.7250
47.1770,32.7250
47.1770,31.7750
48.9270,31.7750
Z" /> 
<path style="fill:#000000; fill-opacity:1.0000; stroke:none;fill-rule:evenodd;"
d="M 48.9270,35.0250
47.1770,35.0250
47.1770,34.0750
48.9270,34.0750
Z" /> 
<path style="fill:#000000; fill-opacity:1.0000; stroke:none;fill-rule:evenodd;"
d="M 48.9270,37.3250
47.1770,37.3250
47.1770,36.3750
48.9270,36.3750
Z" /> 
<path style="fill:#000000; fill-opacity:1.0000; stroke:none;fill-rule:evenodd;"
d="M 53.4770,36.1500
53.4770,32.9500
55.2270,32.9500
55.2270,36.1500
Z" /> 
</g>
<g style="fill:none; 
stroke:#000000; stroke-width:0.1500; stroke-opacity:1; 
stroke-linecap:round; stroke-linejoin:round;">
<path d="M2.2500 57.1000
L2.2500 0.1000
" />
<path d="M102.2500 57.1000
L2.2500 57.1000
" />
<path d="M2.2500 0.1000
L102.2500 0.1000
" />
<path d="M102.2500 0.1000
L102.2500 57.1000
" />
</g> 
</svg>
