%TF.GenerationSoftware,KiCad,Pcbnew,8.0.6*%
%TF.CreationDate,2024-12-29T09:39:46-05:00*%
%TF.ProjectId,Beagley-ai-2CAN,42656167-6c65-4792-9d61-692d3243414e,rev?*%
%TF.SameCoordinates,Original*%
%TF.FileFunction,Drillmap*%
%TF.FilePolarity,Positive*%
%FSLAX45Y45*%
G04 Gerber Fmt 4.5, Leading zero omitted, Abs format (unit mm)*
G04 Created by KiCad (PCBNEW 8.0.6) date 2024-12-29 09:39:46*
%MOMM*%
%LPD*%
G01*
G04 APERTURE LIST*
%ADD10C,0.150000*%
%ADD11C,0.200000*%
%ADD12C,0.100000*%
%ADD13C,0.101600*%
%ADD14C,0.330200*%
G04 APERTURE END LIST*
D10*
X7560000Y-7755000D02*
X7560000Y-3055000D01*
X13060000Y-7755000D02*
X7560000Y-7755000D01*
X13060000Y-3055000D02*
X7560000Y-3055000D01*
X13060000Y-3055000D02*
X13060000Y-7755000D01*
D11*
D12*
X9990000Y-4040000D02*
X10030000Y-4080000D01*
X10030000Y-4040000D02*
X9990000Y-4080000D01*
X10091500Y-3843500D02*
X10131500Y-3883500D01*
X10131500Y-3843500D02*
X10091500Y-3883500D01*
X10467250Y-4067250D02*
X10507250Y-4107250D01*
X10507250Y-4067250D02*
X10467250Y-4107250D01*
X10475000Y-5415000D02*
X10515000Y-5455000D01*
X10515000Y-5415000D02*
X10475000Y-5455000D01*
X8514000Y-3947000D02*
G75*
G02*
X8414000Y-3947000I-50000J0D01*
G01*
X8414000Y-3947000D02*
G75*
G02*
X8514000Y-3947000I50000J0D01*
G01*
X8514000Y-4201000D02*
G75*
G02*
X8414000Y-4201000I-50000J0D01*
G01*
X8414000Y-4201000D02*
G75*
G02*
X8514000Y-4201000I50000J0D01*
G01*
X8514000Y-4455000D02*
G75*
G02*
X8414000Y-4455000I-50000J0D01*
G01*
X8414000Y-4455000D02*
G75*
G02*
X8514000Y-4455000I50000J0D01*
G01*
X8514000Y-4709000D02*
G75*
G02*
X8414000Y-4709000I-50000J0D01*
G01*
X8414000Y-4709000D02*
G75*
G02*
X8514000Y-4709000I50000J0D01*
G01*
X8514000Y-4963000D02*
G75*
G02*
X8414000Y-4963000I-50000J0D01*
G01*
X8414000Y-4963000D02*
G75*
G02*
X8514000Y-4963000I50000J0D01*
G01*
X8514000Y-5217000D02*
G75*
G02*
X8414000Y-5217000I-50000J0D01*
G01*
X8414000Y-5217000D02*
G75*
G02*
X8514000Y-5217000I50000J0D01*
G01*
X8514000Y-5471000D02*
G75*
G02*
X8414000Y-5471000I-50000J0D01*
G01*
X8414000Y-5471000D02*
G75*
G02*
X8514000Y-5471000I50000J0D01*
G01*
X8514000Y-5725000D02*
G75*
G02*
X8414000Y-5725000I-50000J0D01*
G01*
X8414000Y-5725000D02*
G75*
G02*
X8514000Y-5725000I50000J0D01*
G01*
X8514000Y-5979000D02*
G75*
G02*
X8414000Y-5979000I-50000J0D01*
G01*
X8414000Y-5979000D02*
G75*
G02*
X8514000Y-5979000I50000J0D01*
G01*
X8514000Y-6233000D02*
G75*
G02*
X8414000Y-6233000I-50000J0D01*
G01*
X8414000Y-6233000D02*
G75*
G02*
X8514000Y-6233000I50000J0D01*
G01*
X8514000Y-6487000D02*
G75*
G02*
X8414000Y-6487000I-50000J0D01*
G01*
X8414000Y-6487000D02*
G75*
G02*
X8514000Y-6487000I50000J0D01*
G01*
X8768000Y-3947000D02*
G75*
G02*
X8668000Y-3947000I-50000J0D01*
G01*
X8668000Y-3947000D02*
G75*
G02*
X8768000Y-3947000I50000J0D01*
G01*
X8768000Y-4201000D02*
G75*
G02*
X8668000Y-4201000I-50000J0D01*
G01*
X8668000Y-4201000D02*
G75*
G02*
X8768000Y-4201000I50000J0D01*
G01*
X8768000Y-4455000D02*
G75*
G02*
X8668000Y-4455000I-50000J0D01*
G01*
X8668000Y-4455000D02*
G75*
G02*
X8768000Y-4455000I50000J0D01*
G01*
X8768000Y-4709000D02*
G75*
G02*
X8668000Y-4709000I-50000J0D01*
G01*
X8668000Y-4709000D02*
G75*
G02*
X8768000Y-4709000I50000J0D01*
G01*
X8768000Y-4963000D02*
G75*
G02*
X8668000Y-4963000I-50000J0D01*
G01*
X8668000Y-4963000D02*
G75*
G02*
X8768000Y-4963000I50000J0D01*
G01*
X8768000Y-5217000D02*
G75*
G02*
X8668000Y-5217000I-50000J0D01*
G01*
X8668000Y-5217000D02*
G75*
G02*
X8768000Y-5217000I50000J0D01*
G01*
X8768000Y-5471000D02*
G75*
G02*
X8668000Y-5471000I-50000J0D01*
G01*
X8668000Y-5471000D02*
G75*
G02*
X8768000Y-5471000I50000J0D01*
G01*
X8768000Y-5725000D02*
G75*
G02*
X8668000Y-5725000I-50000J0D01*
G01*
X8668000Y-5725000D02*
G75*
G02*
X8768000Y-5725000I50000J0D01*
G01*
X8768000Y-5979000D02*
G75*
G02*
X8668000Y-5979000I-50000J0D01*
G01*
X8668000Y-5979000D02*
G75*
G02*
X8768000Y-5979000I50000J0D01*
G01*
X8768000Y-6233000D02*
G75*
G02*
X8668000Y-6233000I-50000J0D01*
G01*
X8668000Y-6233000D02*
G75*
G02*
X8768000Y-6233000I50000J0D01*
G01*
X8768000Y-6487000D02*
G75*
G02*
X8668000Y-6487000I-50000J0D01*
G01*
X8668000Y-6487000D02*
G75*
G02*
X8768000Y-6487000I50000J0D01*
G01*
X11410000Y-4055000D02*
G75*
G02*
X11310000Y-4055000I-50000J0D01*
G01*
X11310000Y-4055000D02*
G75*
G02*
X11410000Y-4055000I50000J0D01*
G01*
X11410000Y-4309000D02*
G75*
G02*
X11310000Y-4309000I-50000J0D01*
G01*
X11310000Y-4309000D02*
G75*
G02*
X11410000Y-4309000I50000J0D01*
G01*
X11410000Y-5755000D02*
G75*
G02*
X11310000Y-5755000I-50000J0D01*
G01*
X11310000Y-5755000D02*
G75*
G02*
X11410000Y-5755000I50000J0D01*
G01*
X11410000Y-6009000D02*
G75*
G02*
X11310000Y-6009000I-50000J0D01*
G01*
X11310000Y-6009000D02*
G75*
G02*
X11410000Y-6009000I50000J0D01*
G01*
D13*
X12003000Y-4455560D02*
X12003000Y-4557160D01*
X11952200Y-4506360D02*
X12053800Y-4506360D01*
X12003000Y-4729880D02*
X12003000Y-4831480D01*
X11952200Y-4780680D02*
X12053800Y-4780680D01*
X12003000Y-5004200D02*
X12003000Y-5105800D01*
X11952200Y-5055000D02*
X12053800Y-5055000D01*
X12003000Y-5278520D02*
X12003000Y-5380120D01*
X11952200Y-5329320D02*
X12053800Y-5329320D01*
X12003000Y-5552840D02*
X12003000Y-5654440D01*
X11952200Y-5603640D02*
X12053800Y-5603640D01*
X12257000Y-4592720D02*
X12257000Y-4694320D01*
X12206200Y-4643520D02*
X12307800Y-4643520D01*
X12257000Y-4867040D02*
X12257000Y-4968640D01*
X12206200Y-4917840D02*
X12307800Y-4917840D01*
X12257000Y-5141360D02*
X12257000Y-5242960D01*
X12206200Y-5192160D02*
X12307800Y-5192160D01*
X12257000Y-5415680D02*
X12257000Y-5517280D01*
X12206200Y-5466480D02*
X12307800Y-5466480D01*
D14*
X12246744Y-3919524D02*
X12246744Y-3686036D01*
X12013256Y-3686036D01*
X12013256Y-3919524D01*
X12246744Y-3919524D01*
X12246744Y-6423964D02*
X12246744Y-6190476D01*
X12013256Y-6190476D01*
X12013256Y-6423964D01*
X12246744Y-6423964D01*
D11*
X7813277Y-8073984D02*
X7813277Y-7873984D01*
X7813277Y-7873984D02*
X7860896Y-7873984D01*
X7860896Y-7873984D02*
X7889467Y-7883508D01*
X7889467Y-7883508D02*
X7908515Y-7902555D01*
X7908515Y-7902555D02*
X7918039Y-7921603D01*
X7918039Y-7921603D02*
X7927562Y-7959698D01*
X7927562Y-7959698D02*
X7927562Y-7988269D01*
X7927562Y-7988269D02*
X7918039Y-8026365D01*
X7918039Y-8026365D02*
X7908515Y-8045412D01*
X7908515Y-8045412D02*
X7889467Y-8064460D01*
X7889467Y-8064460D02*
X7860896Y-8073984D01*
X7860896Y-8073984D02*
X7813277Y-8073984D01*
X8013277Y-8073984D02*
X8013277Y-7940650D01*
X8013277Y-7978746D02*
X8022801Y-7959698D01*
X8022801Y-7959698D02*
X8032324Y-7950174D01*
X8032324Y-7950174D02*
X8051372Y-7940650D01*
X8051372Y-7940650D02*
X8070420Y-7940650D01*
X8137086Y-8073984D02*
X8137086Y-7940650D01*
X8137086Y-7873984D02*
X8127562Y-7883508D01*
X8127562Y-7883508D02*
X8137086Y-7893031D01*
X8137086Y-7893031D02*
X8146610Y-7883508D01*
X8146610Y-7883508D02*
X8137086Y-7873984D01*
X8137086Y-7873984D02*
X8137086Y-7893031D01*
X8260896Y-8073984D02*
X8241848Y-8064460D01*
X8241848Y-8064460D02*
X8232324Y-8045412D01*
X8232324Y-8045412D02*
X8232324Y-7873984D01*
X8365658Y-8073984D02*
X8346610Y-8064460D01*
X8346610Y-8064460D02*
X8337086Y-8045412D01*
X8337086Y-8045412D02*
X8337086Y-7873984D01*
X8594229Y-8073984D02*
X8594229Y-7873984D01*
X8594229Y-7873984D02*
X8660896Y-8016841D01*
X8660896Y-8016841D02*
X8727563Y-7873984D01*
X8727563Y-7873984D02*
X8727563Y-8073984D01*
X8908515Y-8073984D02*
X8908515Y-7969222D01*
X8908515Y-7969222D02*
X8898991Y-7950174D01*
X8898991Y-7950174D02*
X8879944Y-7940650D01*
X8879944Y-7940650D02*
X8841848Y-7940650D01*
X8841848Y-7940650D02*
X8822801Y-7950174D01*
X8908515Y-8064460D02*
X8889467Y-8073984D01*
X8889467Y-8073984D02*
X8841848Y-8073984D01*
X8841848Y-8073984D02*
X8822801Y-8064460D01*
X8822801Y-8064460D02*
X8813277Y-8045412D01*
X8813277Y-8045412D02*
X8813277Y-8026365D01*
X8813277Y-8026365D02*
X8822801Y-8007317D01*
X8822801Y-8007317D02*
X8841848Y-7997793D01*
X8841848Y-7997793D02*
X8889467Y-7997793D01*
X8889467Y-7997793D02*
X8908515Y-7988269D01*
X9003753Y-7940650D02*
X9003753Y-8140650D01*
X9003753Y-7950174D02*
X9022801Y-7940650D01*
X9022801Y-7940650D02*
X9060896Y-7940650D01*
X9060896Y-7940650D02*
X9079944Y-7950174D01*
X9079944Y-7950174D02*
X9089467Y-7959698D01*
X9089467Y-7959698D02*
X9098991Y-7978746D01*
X9098991Y-7978746D02*
X9098991Y-8035888D01*
X9098991Y-8035888D02*
X9089467Y-8054936D01*
X9089467Y-8054936D02*
X9079944Y-8064460D01*
X9079944Y-8064460D02*
X9060896Y-8073984D01*
X9060896Y-8073984D02*
X9022801Y-8073984D01*
X9022801Y-8073984D02*
X9003753Y-8064460D01*
X9184705Y-8054936D02*
X9194229Y-8064460D01*
X9194229Y-8064460D02*
X9184705Y-8073984D01*
X9184705Y-8073984D02*
X9175182Y-8064460D01*
X9175182Y-8064460D02*
X9184705Y-8054936D01*
X9184705Y-8054936D02*
X9184705Y-8073984D01*
X9184705Y-7950174D02*
X9194229Y-7959698D01*
X9194229Y-7959698D02*
X9184705Y-7969222D01*
X9184705Y-7969222D02*
X9175182Y-7959698D01*
X9175182Y-7959698D02*
X9184705Y-7950174D01*
X9184705Y-7950174D02*
X9184705Y-7969222D01*
D12*
X7512500Y-8382500D02*
X7552500Y-8422500D01*
X7552500Y-8382500D02*
X7512500Y-8422500D01*
D11*
X7851372Y-8293984D02*
X7870420Y-8293984D01*
X7870420Y-8293984D02*
X7889467Y-8303508D01*
X7889467Y-8303508D02*
X7898991Y-8313031D01*
X7898991Y-8313031D02*
X7908515Y-8332079D01*
X7908515Y-8332079D02*
X7918039Y-8370174D01*
X7918039Y-8370174D02*
X7918039Y-8417793D01*
X7918039Y-8417793D02*
X7908515Y-8455889D01*
X7908515Y-8455889D02*
X7898991Y-8474936D01*
X7898991Y-8474936D02*
X7889467Y-8484460D01*
X7889467Y-8484460D02*
X7870420Y-8493984D01*
X7870420Y-8493984D02*
X7851372Y-8493984D01*
X7851372Y-8493984D02*
X7832324Y-8484460D01*
X7832324Y-8484460D02*
X7822801Y-8474936D01*
X7822801Y-8474936D02*
X7813277Y-8455889D01*
X7813277Y-8455889D02*
X7803753Y-8417793D01*
X7803753Y-8417793D02*
X7803753Y-8370174D01*
X7803753Y-8370174D02*
X7813277Y-8332079D01*
X7813277Y-8332079D02*
X7822801Y-8313031D01*
X7822801Y-8313031D02*
X7832324Y-8303508D01*
X7832324Y-8303508D02*
X7851372Y-8293984D01*
X8003753Y-8474936D02*
X8013277Y-8484460D01*
X8013277Y-8484460D02*
X8003753Y-8493984D01*
X8003753Y-8493984D02*
X7994229Y-8484460D01*
X7994229Y-8484460D02*
X8003753Y-8474936D01*
X8003753Y-8474936D02*
X8003753Y-8493984D01*
X8184705Y-8360650D02*
X8184705Y-8493984D01*
X8137086Y-8284460D02*
X8089467Y-8427317D01*
X8089467Y-8427317D02*
X8213277Y-8427317D01*
X8327562Y-8293984D02*
X8346610Y-8293984D01*
X8346610Y-8293984D02*
X8365658Y-8303508D01*
X8365658Y-8303508D02*
X8375182Y-8313031D01*
X8375182Y-8313031D02*
X8384705Y-8332079D01*
X8384705Y-8332079D02*
X8394229Y-8370174D01*
X8394229Y-8370174D02*
X8394229Y-8417793D01*
X8394229Y-8417793D02*
X8384705Y-8455889D01*
X8384705Y-8455889D02*
X8375182Y-8474936D01*
X8375182Y-8474936D02*
X8365658Y-8484460D01*
X8365658Y-8484460D02*
X8346610Y-8493984D01*
X8346610Y-8493984D02*
X8327562Y-8493984D01*
X8327562Y-8493984D02*
X8308515Y-8484460D01*
X8308515Y-8484460D02*
X8298991Y-8474936D01*
X8298991Y-8474936D02*
X8289467Y-8455889D01*
X8289467Y-8455889D02*
X8279943Y-8417793D01*
X8279943Y-8417793D02*
X8279943Y-8370174D01*
X8279943Y-8370174D02*
X8289467Y-8332079D01*
X8289467Y-8332079D02*
X8298991Y-8313031D01*
X8298991Y-8313031D02*
X8308515Y-8303508D01*
X8308515Y-8303508D02*
X8327562Y-8293984D01*
X8518039Y-8293984D02*
X8537086Y-8293984D01*
X8537086Y-8293984D02*
X8556134Y-8303508D01*
X8556134Y-8303508D02*
X8565658Y-8313031D01*
X8565658Y-8313031D02*
X8575182Y-8332079D01*
X8575182Y-8332079D02*
X8584705Y-8370174D01*
X8584705Y-8370174D02*
X8584705Y-8417793D01*
X8584705Y-8417793D02*
X8575182Y-8455889D01*
X8575182Y-8455889D02*
X8565658Y-8474936D01*
X8565658Y-8474936D02*
X8556134Y-8484460D01*
X8556134Y-8484460D02*
X8537086Y-8493984D01*
X8537086Y-8493984D02*
X8518039Y-8493984D01*
X8518039Y-8493984D02*
X8498991Y-8484460D01*
X8498991Y-8484460D02*
X8489467Y-8474936D01*
X8489467Y-8474936D02*
X8479944Y-8455889D01*
X8479944Y-8455889D02*
X8470420Y-8417793D01*
X8470420Y-8417793D02*
X8470420Y-8370174D01*
X8470420Y-8370174D02*
X8479944Y-8332079D01*
X8479944Y-8332079D02*
X8489467Y-8313031D01*
X8489467Y-8313031D02*
X8498991Y-8303508D01*
X8498991Y-8303508D02*
X8518039Y-8293984D01*
X8670420Y-8493984D02*
X8670420Y-8360650D01*
X8670420Y-8379698D02*
X8679944Y-8370174D01*
X8679944Y-8370174D02*
X8698991Y-8360650D01*
X8698991Y-8360650D02*
X8727563Y-8360650D01*
X8727563Y-8360650D02*
X8746610Y-8370174D01*
X8746610Y-8370174D02*
X8756134Y-8389222D01*
X8756134Y-8389222D02*
X8756134Y-8493984D01*
X8756134Y-8389222D02*
X8765658Y-8370174D01*
X8765658Y-8370174D02*
X8784705Y-8360650D01*
X8784705Y-8360650D02*
X8813277Y-8360650D01*
X8813277Y-8360650D02*
X8832325Y-8370174D01*
X8832325Y-8370174D02*
X8841848Y-8389222D01*
X8841848Y-8389222D02*
X8841848Y-8493984D01*
X8937086Y-8493984D02*
X8937086Y-8360650D01*
X8937086Y-8379698D02*
X8946610Y-8370174D01*
X8946610Y-8370174D02*
X8965658Y-8360650D01*
X8965658Y-8360650D02*
X8994229Y-8360650D01*
X8994229Y-8360650D02*
X9013277Y-8370174D01*
X9013277Y-8370174D02*
X9022801Y-8389222D01*
X9022801Y-8389222D02*
X9022801Y-8493984D01*
X9022801Y-8389222D02*
X9032325Y-8370174D01*
X9032325Y-8370174D02*
X9051372Y-8360650D01*
X9051372Y-8360650D02*
X9079944Y-8360650D01*
X9079944Y-8360650D02*
X9098991Y-8370174D01*
X9098991Y-8370174D02*
X9108515Y-8389222D01*
X9108515Y-8389222D02*
X9108515Y-8493984D01*
X9498991Y-8284460D02*
X9327563Y-8541603D01*
X9756134Y-8293984D02*
X9775182Y-8293984D01*
X9775182Y-8293984D02*
X9794229Y-8303508D01*
X9794229Y-8303508D02*
X9803753Y-8313031D01*
X9803753Y-8313031D02*
X9813277Y-8332079D01*
X9813277Y-8332079D02*
X9822801Y-8370174D01*
X9822801Y-8370174D02*
X9822801Y-8417793D01*
X9822801Y-8417793D02*
X9813277Y-8455889D01*
X9813277Y-8455889D02*
X9803753Y-8474936D01*
X9803753Y-8474936D02*
X9794229Y-8484460D01*
X9794229Y-8484460D02*
X9775182Y-8493984D01*
X9775182Y-8493984D02*
X9756134Y-8493984D01*
X9756134Y-8493984D02*
X9737087Y-8484460D01*
X9737087Y-8484460D02*
X9727563Y-8474936D01*
X9727563Y-8474936D02*
X9718039Y-8455889D01*
X9718039Y-8455889D02*
X9708515Y-8417793D01*
X9708515Y-8417793D02*
X9708515Y-8370174D01*
X9708515Y-8370174D02*
X9718039Y-8332079D01*
X9718039Y-8332079D02*
X9727563Y-8313031D01*
X9727563Y-8313031D02*
X9737087Y-8303508D01*
X9737087Y-8303508D02*
X9756134Y-8293984D01*
X9908515Y-8474936D02*
X9918039Y-8484460D01*
X9918039Y-8484460D02*
X9908515Y-8493984D01*
X9908515Y-8493984D02*
X9898991Y-8484460D01*
X9898991Y-8484460D02*
X9908515Y-8474936D01*
X9908515Y-8474936D02*
X9908515Y-8493984D01*
X10041848Y-8293984D02*
X10060896Y-8293984D01*
X10060896Y-8293984D02*
X10079944Y-8303508D01*
X10079944Y-8303508D02*
X10089468Y-8313031D01*
X10089468Y-8313031D02*
X10098991Y-8332079D01*
X10098991Y-8332079D02*
X10108515Y-8370174D01*
X10108515Y-8370174D02*
X10108515Y-8417793D01*
X10108515Y-8417793D02*
X10098991Y-8455889D01*
X10098991Y-8455889D02*
X10089468Y-8474936D01*
X10089468Y-8474936D02*
X10079944Y-8484460D01*
X10079944Y-8484460D02*
X10060896Y-8493984D01*
X10060896Y-8493984D02*
X10041848Y-8493984D01*
X10041848Y-8493984D02*
X10022801Y-8484460D01*
X10022801Y-8484460D02*
X10013277Y-8474936D01*
X10013277Y-8474936D02*
X10003753Y-8455889D01*
X10003753Y-8455889D02*
X9994229Y-8417793D01*
X9994229Y-8417793D02*
X9994229Y-8370174D01*
X9994229Y-8370174D02*
X10003753Y-8332079D01*
X10003753Y-8332079D02*
X10013277Y-8313031D01*
X10013277Y-8313031D02*
X10022801Y-8303508D01*
X10022801Y-8303508D02*
X10041848Y-8293984D01*
X10298991Y-8493984D02*
X10184706Y-8493984D01*
X10241848Y-8493984D02*
X10241848Y-8293984D01*
X10241848Y-8293984D02*
X10222801Y-8322555D01*
X10222801Y-8322555D02*
X10203753Y-8341603D01*
X10203753Y-8341603D02*
X10184706Y-8351127D01*
X10479944Y-8293984D02*
X10384706Y-8293984D01*
X10384706Y-8293984D02*
X10375182Y-8389222D01*
X10375182Y-8389222D02*
X10384706Y-8379698D01*
X10384706Y-8379698D02*
X10403753Y-8370174D01*
X10403753Y-8370174D02*
X10451372Y-8370174D01*
X10451372Y-8370174D02*
X10470420Y-8379698D01*
X10470420Y-8379698D02*
X10479944Y-8389222D01*
X10479944Y-8389222D02*
X10489468Y-8408270D01*
X10489468Y-8408270D02*
X10489468Y-8455889D01*
X10489468Y-8455889D02*
X10479944Y-8474936D01*
X10479944Y-8474936D02*
X10470420Y-8484460D01*
X10470420Y-8484460D02*
X10451372Y-8493984D01*
X10451372Y-8493984D02*
X10403753Y-8493984D01*
X10403753Y-8493984D02*
X10384706Y-8484460D01*
X10384706Y-8484460D02*
X10375182Y-8474936D01*
X10556134Y-8293984D02*
X10689468Y-8293984D01*
X10689468Y-8293984D02*
X10603753Y-8493984D01*
X10756134Y-8293984D02*
X10756134Y-8332079D01*
X10832325Y-8293984D02*
X10832325Y-8332079D01*
X11127563Y-8570174D02*
X11118039Y-8560650D01*
X11118039Y-8560650D02*
X11098991Y-8532079D01*
X11098991Y-8532079D02*
X11089468Y-8513031D01*
X11089468Y-8513031D02*
X11079944Y-8484460D01*
X11079944Y-8484460D02*
X11070420Y-8436841D01*
X11070420Y-8436841D02*
X11070420Y-8398746D01*
X11070420Y-8398746D02*
X11079944Y-8351127D01*
X11079944Y-8351127D02*
X11089468Y-8322555D01*
X11089468Y-8322555D02*
X11098991Y-8303508D01*
X11098991Y-8303508D02*
X11118039Y-8274936D01*
X11118039Y-8274936D02*
X11127563Y-8265412D01*
X11289468Y-8360650D02*
X11289468Y-8493984D01*
X11241848Y-8284460D02*
X11194229Y-8427317D01*
X11194229Y-8427317D02*
X11318039Y-8427317D01*
X11546610Y-8493984D02*
X11546610Y-8293984D01*
X11632325Y-8493984D02*
X11632325Y-8389222D01*
X11632325Y-8389222D02*
X11622801Y-8370174D01*
X11622801Y-8370174D02*
X11603753Y-8360650D01*
X11603753Y-8360650D02*
X11575182Y-8360650D01*
X11575182Y-8360650D02*
X11556134Y-8370174D01*
X11556134Y-8370174D02*
X11546610Y-8379698D01*
X11756134Y-8493984D02*
X11737087Y-8484460D01*
X11737087Y-8484460D02*
X11727563Y-8474936D01*
X11727563Y-8474936D02*
X11718039Y-8455889D01*
X11718039Y-8455889D02*
X11718039Y-8398746D01*
X11718039Y-8398746D02*
X11727563Y-8379698D01*
X11727563Y-8379698D02*
X11737087Y-8370174D01*
X11737087Y-8370174D02*
X11756134Y-8360650D01*
X11756134Y-8360650D02*
X11784706Y-8360650D01*
X11784706Y-8360650D02*
X11803753Y-8370174D01*
X11803753Y-8370174D02*
X11813277Y-8379698D01*
X11813277Y-8379698D02*
X11822801Y-8398746D01*
X11822801Y-8398746D02*
X11822801Y-8455889D01*
X11822801Y-8455889D02*
X11813277Y-8474936D01*
X11813277Y-8474936D02*
X11803753Y-8484460D01*
X11803753Y-8484460D02*
X11784706Y-8493984D01*
X11784706Y-8493984D02*
X11756134Y-8493984D01*
X11937087Y-8493984D02*
X11918039Y-8484460D01*
X11918039Y-8484460D02*
X11908515Y-8465412D01*
X11908515Y-8465412D02*
X11908515Y-8293984D01*
X12089468Y-8484460D02*
X12070420Y-8493984D01*
X12070420Y-8493984D02*
X12032325Y-8493984D01*
X12032325Y-8493984D02*
X12013277Y-8484460D01*
X12013277Y-8484460D02*
X12003753Y-8465412D01*
X12003753Y-8465412D02*
X12003753Y-8389222D01*
X12003753Y-8389222D02*
X12013277Y-8370174D01*
X12013277Y-8370174D02*
X12032325Y-8360650D01*
X12032325Y-8360650D02*
X12070420Y-8360650D01*
X12070420Y-8360650D02*
X12089468Y-8370174D01*
X12089468Y-8370174D02*
X12098991Y-8389222D01*
X12098991Y-8389222D02*
X12098991Y-8408270D01*
X12098991Y-8408270D02*
X12003753Y-8427317D01*
X12175182Y-8484460D02*
X12194230Y-8493984D01*
X12194230Y-8493984D02*
X12232325Y-8493984D01*
X12232325Y-8493984D02*
X12251372Y-8484460D01*
X12251372Y-8484460D02*
X12260896Y-8465412D01*
X12260896Y-8465412D02*
X12260896Y-8455889D01*
X12260896Y-8455889D02*
X12251372Y-8436841D01*
X12251372Y-8436841D02*
X12232325Y-8427317D01*
X12232325Y-8427317D02*
X12203753Y-8427317D01*
X12203753Y-8427317D02*
X12184706Y-8417793D01*
X12184706Y-8417793D02*
X12175182Y-8398746D01*
X12175182Y-8398746D02*
X12175182Y-8389222D01*
X12175182Y-8389222D02*
X12184706Y-8370174D01*
X12184706Y-8370174D02*
X12203753Y-8360650D01*
X12203753Y-8360650D02*
X12232325Y-8360650D01*
X12232325Y-8360650D02*
X12251372Y-8370174D01*
X12327563Y-8570174D02*
X12337087Y-8560650D01*
X12337087Y-8560650D02*
X12356134Y-8532079D01*
X12356134Y-8532079D02*
X12365658Y-8513031D01*
X12365658Y-8513031D02*
X12375182Y-8484460D01*
X12375182Y-8484460D02*
X12384706Y-8436841D01*
X12384706Y-8436841D02*
X12384706Y-8398746D01*
X12384706Y-8398746D02*
X12375182Y-8351127D01*
X12375182Y-8351127D02*
X12365658Y-8322555D01*
X12365658Y-8322555D02*
X12356134Y-8303508D01*
X12356134Y-8303508D02*
X12337087Y-8274936D01*
X12337087Y-8274936D02*
X12327563Y-8265412D01*
D12*
X7552500Y-8666500D02*
G75*
G02*
X7452500Y-8666500I-50000J0D01*
G01*
X7452500Y-8666500D02*
G75*
G02*
X7552500Y-8666500I50000J0D01*
G01*
D11*
X7918039Y-8757984D02*
X7803753Y-8757984D01*
X7860896Y-8757984D02*
X7860896Y-8557984D01*
X7860896Y-8557984D02*
X7841848Y-8586555D01*
X7841848Y-8586555D02*
X7822801Y-8605603D01*
X7822801Y-8605603D02*
X7803753Y-8615127D01*
X8003753Y-8738936D02*
X8013277Y-8748460D01*
X8013277Y-8748460D02*
X8003753Y-8757984D01*
X8003753Y-8757984D02*
X7994229Y-8748460D01*
X7994229Y-8748460D02*
X8003753Y-8738936D01*
X8003753Y-8738936D02*
X8003753Y-8757984D01*
X8137086Y-8557984D02*
X8156134Y-8557984D01*
X8156134Y-8557984D02*
X8175182Y-8567508D01*
X8175182Y-8567508D02*
X8184705Y-8577031D01*
X8184705Y-8577031D02*
X8194229Y-8596079D01*
X8194229Y-8596079D02*
X8203753Y-8634174D01*
X8203753Y-8634174D02*
X8203753Y-8681793D01*
X8203753Y-8681793D02*
X8194229Y-8719889D01*
X8194229Y-8719889D02*
X8184705Y-8738936D01*
X8184705Y-8738936D02*
X8175182Y-8748460D01*
X8175182Y-8748460D02*
X8156134Y-8757984D01*
X8156134Y-8757984D02*
X8137086Y-8757984D01*
X8137086Y-8757984D02*
X8118039Y-8748460D01*
X8118039Y-8748460D02*
X8108515Y-8738936D01*
X8108515Y-8738936D02*
X8098991Y-8719889D01*
X8098991Y-8719889D02*
X8089467Y-8681793D01*
X8089467Y-8681793D02*
X8089467Y-8634174D01*
X8089467Y-8634174D02*
X8098991Y-8596079D01*
X8098991Y-8596079D02*
X8108515Y-8577031D01*
X8108515Y-8577031D02*
X8118039Y-8567508D01*
X8118039Y-8567508D02*
X8137086Y-8557984D01*
X8327562Y-8557984D02*
X8346610Y-8557984D01*
X8346610Y-8557984D02*
X8365658Y-8567508D01*
X8365658Y-8567508D02*
X8375182Y-8577031D01*
X8375182Y-8577031D02*
X8384705Y-8596079D01*
X8384705Y-8596079D02*
X8394229Y-8634174D01*
X8394229Y-8634174D02*
X8394229Y-8681793D01*
X8394229Y-8681793D02*
X8384705Y-8719889D01*
X8384705Y-8719889D02*
X8375182Y-8738936D01*
X8375182Y-8738936D02*
X8365658Y-8748460D01*
X8365658Y-8748460D02*
X8346610Y-8757984D01*
X8346610Y-8757984D02*
X8327562Y-8757984D01*
X8327562Y-8757984D02*
X8308515Y-8748460D01*
X8308515Y-8748460D02*
X8298991Y-8738936D01*
X8298991Y-8738936D02*
X8289467Y-8719889D01*
X8289467Y-8719889D02*
X8279943Y-8681793D01*
X8279943Y-8681793D02*
X8279943Y-8634174D01*
X8279943Y-8634174D02*
X8289467Y-8596079D01*
X8289467Y-8596079D02*
X8298991Y-8577031D01*
X8298991Y-8577031D02*
X8308515Y-8567508D01*
X8308515Y-8567508D02*
X8327562Y-8557984D01*
X8518039Y-8557984D02*
X8537086Y-8557984D01*
X8537086Y-8557984D02*
X8556134Y-8567508D01*
X8556134Y-8567508D02*
X8565658Y-8577031D01*
X8565658Y-8577031D02*
X8575182Y-8596079D01*
X8575182Y-8596079D02*
X8584705Y-8634174D01*
X8584705Y-8634174D02*
X8584705Y-8681793D01*
X8584705Y-8681793D02*
X8575182Y-8719889D01*
X8575182Y-8719889D02*
X8565658Y-8738936D01*
X8565658Y-8738936D02*
X8556134Y-8748460D01*
X8556134Y-8748460D02*
X8537086Y-8757984D01*
X8537086Y-8757984D02*
X8518039Y-8757984D01*
X8518039Y-8757984D02*
X8498991Y-8748460D01*
X8498991Y-8748460D02*
X8489467Y-8738936D01*
X8489467Y-8738936D02*
X8479944Y-8719889D01*
X8479944Y-8719889D02*
X8470420Y-8681793D01*
X8470420Y-8681793D02*
X8470420Y-8634174D01*
X8470420Y-8634174D02*
X8479944Y-8596079D01*
X8479944Y-8596079D02*
X8489467Y-8577031D01*
X8489467Y-8577031D02*
X8498991Y-8567508D01*
X8498991Y-8567508D02*
X8518039Y-8557984D01*
X8670420Y-8757984D02*
X8670420Y-8624650D01*
X8670420Y-8643698D02*
X8679944Y-8634174D01*
X8679944Y-8634174D02*
X8698991Y-8624650D01*
X8698991Y-8624650D02*
X8727563Y-8624650D01*
X8727563Y-8624650D02*
X8746610Y-8634174D01*
X8746610Y-8634174D02*
X8756134Y-8653222D01*
X8756134Y-8653222D02*
X8756134Y-8757984D01*
X8756134Y-8653222D02*
X8765658Y-8634174D01*
X8765658Y-8634174D02*
X8784705Y-8624650D01*
X8784705Y-8624650D02*
X8813277Y-8624650D01*
X8813277Y-8624650D02*
X8832325Y-8634174D01*
X8832325Y-8634174D02*
X8841848Y-8653222D01*
X8841848Y-8653222D02*
X8841848Y-8757984D01*
X8937086Y-8757984D02*
X8937086Y-8624650D01*
X8937086Y-8643698D02*
X8946610Y-8634174D01*
X8946610Y-8634174D02*
X8965658Y-8624650D01*
X8965658Y-8624650D02*
X8994229Y-8624650D01*
X8994229Y-8624650D02*
X9013277Y-8634174D01*
X9013277Y-8634174D02*
X9022801Y-8653222D01*
X9022801Y-8653222D02*
X9022801Y-8757984D01*
X9022801Y-8653222D02*
X9032325Y-8634174D01*
X9032325Y-8634174D02*
X9051372Y-8624650D01*
X9051372Y-8624650D02*
X9079944Y-8624650D01*
X9079944Y-8624650D02*
X9098991Y-8634174D01*
X9098991Y-8634174D02*
X9108515Y-8653222D01*
X9108515Y-8653222D02*
X9108515Y-8757984D01*
X9498991Y-8548460D02*
X9327563Y-8805603D01*
X9756134Y-8557984D02*
X9775182Y-8557984D01*
X9775182Y-8557984D02*
X9794229Y-8567508D01*
X9794229Y-8567508D02*
X9803753Y-8577031D01*
X9803753Y-8577031D02*
X9813277Y-8596079D01*
X9813277Y-8596079D02*
X9822801Y-8634174D01*
X9822801Y-8634174D02*
X9822801Y-8681793D01*
X9822801Y-8681793D02*
X9813277Y-8719889D01*
X9813277Y-8719889D02*
X9803753Y-8738936D01*
X9803753Y-8738936D02*
X9794229Y-8748460D01*
X9794229Y-8748460D02*
X9775182Y-8757984D01*
X9775182Y-8757984D02*
X9756134Y-8757984D01*
X9756134Y-8757984D02*
X9737087Y-8748460D01*
X9737087Y-8748460D02*
X9727563Y-8738936D01*
X9727563Y-8738936D02*
X9718039Y-8719889D01*
X9718039Y-8719889D02*
X9708515Y-8681793D01*
X9708515Y-8681793D02*
X9708515Y-8634174D01*
X9708515Y-8634174D02*
X9718039Y-8596079D01*
X9718039Y-8596079D02*
X9727563Y-8577031D01*
X9727563Y-8577031D02*
X9737087Y-8567508D01*
X9737087Y-8567508D02*
X9756134Y-8557984D01*
X9908515Y-8738936D02*
X9918039Y-8748460D01*
X9918039Y-8748460D02*
X9908515Y-8757984D01*
X9908515Y-8757984D02*
X9898991Y-8748460D01*
X9898991Y-8748460D02*
X9908515Y-8738936D01*
X9908515Y-8738936D02*
X9908515Y-8757984D01*
X10041848Y-8557984D02*
X10060896Y-8557984D01*
X10060896Y-8557984D02*
X10079944Y-8567508D01*
X10079944Y-8567508D02*
X10089468Y-8577031D01*
X10089468Y-8577031D02*
X10098991Y-8596079D01*
X10098991Y-8596079D02*
X10108515Y-8634174D01*
X10108515Y-8634174D02*
X10108515Y-8681793D01*
X10108515Y-8681793D02*
X10098991Y-8719889D01*
X10098991Y-8719889D02*
X10089468Y-8738936D01*
X10089468Y-8738936D02*
X10079944Y-8748460D01*
X10079944Y-8748460D02*
X10060896Y-8757984D01*
X10060896Y-8757984D02*
X10041848Y-8757984D01*
X10041848Y-8757984D02*
X10022801Y-8748460D01*
X10022801Y-8748460D02*
X10013277Y-8738936D01*
X10013277Y-8738936D02*
X10003753Y-8719889D01*
X10003753Y-8719889D02*
X9994229Y-8681793D01*
X9994229Y-8681793D02*
X9994229Y-8634174D01*
X9994229Y-8634174D02*
X10003753Y-8596079D01*
X10003753Y-8596079D02*
X10013277Y-8577031D01*
X10013277Y-8577031D02*
X10022801Y-8567508D01*
X10022801Y-8567508D02*
X10041848Y-8557984D01*
X10175182Y-8557984D02*
X10298991Y-8557984D01*
X10298991Y-8557984D02*
X10232325Y-8634174D01*
X10232325Y-8634174D02*
X10260896Y-8634174D01*
X10260896Y-8634174D02*
X10279944Y-8643698D01*
X10279944Y-8643698D02*
X10289468Y-8653222D01*
X10289468Y-8653222D02*
X10298991Y-8672270D01*
X10298991Y-8672270D02*
X10298991Y-8719889D01*
X10298991Y-8719889D02*
X10289468Y-8738936D01*
X10289468Y-8738936D02*
X10279944Y-8748460D01*
X10279944Y-8748460D02*
X10260896Y-8757984D01*
X10260896Y-8757984D02*
X10203753Y-8757984D01*
X10203753Y-8757984D02*
X10184706Y-8748460D01*
X10184706Y-8748460D02*
X10175182Y-8738936D01*
X10394229Y-8757984D02*
X10432325Y-8757984D01*
X10432325Y-8757984D02*
X10451372Y-8748460D01*
X10451372Y-8748460D02*
X10460896Y-8738936D01*
X10460896Y-8738936D02*
X10479944Y-8710365D01*
X10479944Y-8710365D02*
X10489468Y-8672270D01*
X10489468Y-8672270D02*
X10489468Y-8596079D01*
X10489468Y-8596079D02*
X10479944Y-8577031D01*
X10479944Y-8577031D02*
X10470420Y-8567508D01*
X10470420Y-8567508D02*
X10451372Y-8557984D01*
X10451372Y-8557984D02*
X10413277Y-8557984D01*
X10413277Y-8557984D02*
X10394229Y-8567508D01*
X10394229Y-8567508D02*
X10384706Y-8577031D01*
X10384706Y-8577031D02*
X10375182Y-8596079D01*
X10375182Y-8596079D02*
X10375182Y-8643698D01*
X10375182Y-8643698D02*
X10384706Y-8662746D01*
X10384706Y-8662746D02*
X10394229Y-8672270D01*
X10394229Y-8672270D02*
X10413277Y-8681793D01*
X10413277Y-8681793D02*
X10451372Y-8681793D01*
X10451372Y-8681793D02*
X10470420Y-8672270D01*
X10470420Y-8672270D02*
X10479944Y-8662746D01*
X10479944Y-8662746D02*
X10489468Y-8643698D01*
X10660896Y-8624650D02*
X10660896Y-8757984D01*
X10613277Y-8548460D02*
X10565658Y-8691317D01*
X10565658Y-8691317D02*
X10689468Y-8691317D01*
X10756134Y-8557984D02*
X10756134Y-8596079D01*
X10832325Y-8557984D02*
X10832325Y-8596079D01*
X11127563Y-8834174D02*
X11118039Y-8824650D01*
X11118039Y-8824650D02*
X11098991Y-8796079D01*
X11098991Y-8796079D02*
X11089468Y-8777031D01*
X11089468Y-8777031D02*
X11079944Y-8748460D01*
X11079944Y-8748460D02*
X11070420Y-8700841D01*
X11070420Y-8700841D02*
X11070420Y-8662746D01*
X11070420Y-8662746D02*
X11079944Y-8615127D01*
X11079944Y-8615127D02*
X11089468Y-8586555D01*
X11089468Y-8586555D02*
X11098991Y-8567508D01*
X11098991Y-8567508D02*
X11118039Y-8538936D01*
X11118039Y-8538936D02*
X11127563Y-8529412D01*
X11194229Y-8577031D02*
X11203753Y-8567508D01*
X11203753Y-8567508D02*
X11222801Y-8557984D01*
X11222801Y-8557984D02*
X11270420Y-8557984D01*
X11270420Y-8557984D02*
X11289468Y-8567508D01*
X11289468Y-8567508D02*
X11298991Y-8577031D01*
X11298991Y-8577031D02*
X11308515Y-8596079D01*
X11308515Y-8596079D02*
X11308515Y-8615127D01*
X11308515Y-8615127D02*
X11298991Y-8643698D01*
X11298991Y-8643698D02*
X11184706Y-8757984D01*
X11184706Y-8757984D02*
X11308515Y-8757984D01*
X11479944Y-8557984D02*
X11441848Y-8557984D01*
X11441848Y-8557984D02*
X11422801Y-8567508D01*
X11422801Y-8567508D02*
X11413277Y-8577031D01*
X11413277Y-8577031D02*
X11394229Y-8605603D01*
X11394229Y-8605603D02*
X11384706Y-8643698D01*
X11384706Y-8643698D02*
X11384706Y-8719889D01*
X11384706Y-8719889D02*
X11394229Y-8738936D01*
X11394229Y-8738936D02*
X11403753Y-8748460D01*
X11403753Y-8748460D02*
X11422801Y-8757984D01*
X11422801Y-8757984D02*
X11460896Y-8757984D01*
X11460896Y-8757984D02*
X11479944Y-8748460D01*
X11479944Y-8748460D02*
X11489468Y-8738936D01*
X11489468Y-8738936D02*
X11498991Y-8719889D01*
X11498991Y-8719889D02*
X11498991Y-8672270D01*
X11498991Y-8672270D02*
X11489468Y-8653222D01*
X11489468Y-8653222D02*
X11479944Y-8643698D01*
X11479944Y-8643698D02*
X11460896Y-8634174D01*
X11460896Y-8634174D02*
X11422801Y-8634174D01*
X11422801Y-8634174D02*
X11403753Y-8643698D01*
X11403753Y-8643698D02*
X11394229Y-8653222D01*
X11394229Y-8653222D02*
X11384706Y-8672270D01*
X11737087Y-8757984D02*
X11737087Y-8557984D01*
X11822801Y-8757984D02*
X11822801Y-8653222D01*
X11822801Y-8653222D02*
X11813277Y-8634174D01*
X11813277Y-8634174D02*
X11794230Y-8624650D01*
X11794230Y-8624650D02*
X11765658Y-8624650D01*
X11765658Y-8624650D02*
X11746610Y-8634174D01*
X11746610Y-8634174D02*
X11737087Y-8643698D01*
X11946610Y-8757984D02*
X11927563Y-8748460D01*
X11927563Y-8748460D02*
X11918039Y-8738936D01*
X11918039Y-8738936D02*
X11908515Y-8719889D01*
X11908515Y-8719889D02*
X11908515Y-8662746D01*
X11908515Y-8662746D02*
X11918039Y-8643698D01*
X11918039Y-8643698D02*
X11927563Y-8634174D01*
X11927563Y-8634174D02*
X11946610Y-8624650D01*
X11946610Y-8624650D02*
X11975182Y-8624650D01*
X11975182Y-8624650D02*
X11994230Y-8634174D01*
X11994230Y-8634174D02*
X12003753Y-8643698D01*
X12003753Y-8643698D02*
X12013277Y-8662746D01*
X12013277Y-8662746D02*
X12013277Y-8719889D01*
X12013277Y-8719889D02*
X12003753Y-8738936D01*
X12003753Y-8738936D02*
X11994230Y-8748460D01*
X11994230Y-8748460D02*
X11975182Y-8757984D01*
X11975182Y-8757984D02*
X11946610Y-8757984D01*
X12127563Y-8757984D02*
X12108515Y-8748460D01*
X12108515Y-8748460D02*
X12098991Y-8729412D01*
X12098991Y-8729412D02*
X12098991Y-8557984D01*
X12279944Y-8748460D02*
X12260896Y-8757984D01*
X12260896Y-8757984D02*
X12222801Y-8757984D01*
X12222801Y-8757984D02*
X12203753Y-8748460D01*
X12203753Y-8748460D02*
X12194230Y-8729412D01*
X12194230Y-8729412D02*
X12194230Y-8653222D01*
X12194230Y-8653222D02*
X12203753Y-8634174D01*
X12203753Y-8634174D02*
X12222801Y-8624650D01*
X12222801Y-8624650D02*
X12260896Y-8624650D01*
X12260896Y-8624650D02*
X12279944Y-8634174D01*
X12279944Y-8634174D02*
X12289468Y-8653222D01*
X12289468Y-8653222D02*
X12289468Y-8672270D01*
X12289468Y-8672270D02*
X12194230Y-8691317D01*
X12365658Y-8748460D02*
X12384706Y-8757984D01*
X12384706Y-8757984D02*
X12422801Y-8757984D01*
X12422801Y-8757984D02*
X12441849Y-8748460D01*
X12441849Y-8748460D02*
X12451372Y-8729412D01*
X12451372Y-8729412D02*
X12451372Y-8719889D01*
X12451372Y-8719889D02*
X12441849Y-8700841D01*
X12441849Y-8700841D02*
X12422801Y-8691317D01*
X12422801Y-8691317D02*
X12394230Y-8691317D01*
X12394230Y-8691317D02*
X12375182Y-8681793D01*
X12375182Y-8681793D02*
X12365658Y-8662746D01*
X12365658Y-8662746D02*
X12365658Y-8653222D01*
X12365658Y-8653222D02*
X12375182Y-8634174D01*
X12375182Y-8634174D02*
X12394230Y-8624650D01*
X12394230Y-8624650D02*
X12422801Y-8624650D01*
X12422801Y-8624650D02*
X12441849Y-8634174D01*
X12518039Y-8834174D02*
X12527563Y-8824650D01*
X12527563Y-8824650D02*
X12546611Y-8796079D01*
X12546611Y-8796079D02*
X12556134Y-8777031D01*
X12556134Y-8777031D02*
X12565658Y-8748460D01*
X12565658Y-8748460D02*
X12575182Y-8700841D01*
X12575182Y-8700841D02*
X12575182Y-8662746D01*
X12575182Y-8662746D02*
X12565658Y-8615127D01*
X12565658Y-8615127D02*
X12556134Y-8586555D01*
X12556134Y-8586555D02*
X12546611Y-8567508D01*
X12546611Y-8567508D02*
X12527563Y-8538936D01*
X12527563Y-8538936D02*
X12518039Y-8529412D01*
D13*
X7501700Y-8879700D02*
X7501700Y-8981300D01*
X7450900Y-8930500D02*
X7552500Y-8930500D01*
D11*
X7918039Y-9021984D02*
X7803753Y-9021984D01*
X7860896Y-9021984D02*
X7860896Y-8821984D01*
X7860896Y-8821984D02*
X7841848Y-8850555D01*
X7841848Y-8850555D02*
X7822801Y-8869603D01*
X7822801Y-8869603D02*
X7803753Y-8879127D01*
X8003753Y-9002936D02*
X8013277Y-9012460D01*
X8013277Y-9012460D02*
X8003753Y-9021984D01*
X8003753Y-9021984D02*
X7994229Y-9012460D01*
X7994229Y-9012460D02*
X8003753Y-9002936D01*
X8003753Y-9002936D02*
X8003753Y-9021984D01*
X8137086Y-8821984D02*
X8156134Y-8821984D01*
X8156134Y-8821984D02*
X8175182Y-8831508D01*
X8175182Y-8831508D02*
X8184705Y-8841031D01*
X8184705Y-8841031D02*
X8194229Y-8860079D01*
X8194229Y-8860079D02*
X8203753Y-8898174D01*
X8203753Y-8898174D02*
X8203753Y-8945793D01*
X8203753Y-8945793D02*
X8194229Y-8983889D01*
X8194229Y-8983889D02*
X8184705Y-9002936D01*
X8184705Y-9002936D02*
X8175182Y-9012460D01*
X8175182Y-9012460D02*
X8156134Y-9021984D01*
X8156134Y-9021984D02*
X8137086Y-9021984D01*
X8137086Y-9021984D02*
X8118039Y-9012460D01*
X8118039Y-9012460D02*
X8108515Y-9002936D01*
X8108515Y-9002936D02*
X8098991Y-8983889D01*
X8098991Y-8983889D02*
X8089467Y-8945793D01*
X8089467Y-8945793D02*
X8089467Y-8898174D01*
X8089467Y-8898174D02*
X8098991Y-8860079D01*
X8098991Y-8860079D02*
X8108515Y-8841031D01*
X8108515Y-8841031D02*
X8118039Y-8831508D01*
X8118039Y-8831508D02*
X8137086Y-8821984D01*
X8394229Y-9021984D02*
X8279943Y-9021984D01*
X8337086Y-9021984D02*
X8337086Y-8821984D01*
X8337086Y-8821984D02*
X8318039Y-8850555D01*
X8318039Y-8850555D02*
X8298991Y-8869603D01*
X8298991Y-8869603D02*
X8279943Y-8879127D01*
X8565658Y-8821984D02*
X8527563Y-8821984D01*
X8527563Y-8821984D02*
X8508515Y-8831508D01*
X8508515Y-8831508D02*
X8498991Y-8841031D01*
X8498991Y-8841031D02*
X8479944Y-8869603D01*
X8479944Y-8869603D02*
X8470420Y-8907698D01*
X8470420Y-8907698D02*
X8470420Y-8983889D01*
X8470420Y-8983889D02*
X8479944Y-9002936D01*
X8479944Y-9002936D02*
X8489467Y-9012460D01*
X8489467Y-9012460D02*
X8508515Y-9021984D01*
X8508515Y-9021984D02*
X8546610Y-9021984D01*
X8546610Y-9021984D02*
X8565658Y-9012460D01*
X8565658Y-9012460D02*
X8575182Y-9002936D01*
X8575182Y-9002936D02*
X8584705Y-8983889D01*
X8584705Y-8983889D02*
X8584705Y-8936270D01*
X8584705Y-8936270D02*
X8575182Y-8917222D01*
X8575182Y-8917222D02*
X8565658Y-8907698D01*
X8565658Y-8907698D02*
X8546610Y-8898174D01*
X8546610Y-8898174D02*
X8508515Y-8898174D01*
X8508515Y-8898174D02*
X8489467Y-8907698D01*
X8489467Y-8907698D02*
X8479944Y-8917222D01*
X8479944Y-8917222D02*
X8470420Y-8936270D01*
X8670420Y-9021984D02*
X8670420Y-8888650D01*
X8670420Y-8907698D02*
X8679944Y-8898174D01*
X8679944Y-8898174D02*
X8698991Y-8888650D01*
X8698991Y-8888650D02*
X8727563Y-8888650D01*
X8727563Y-8888650D02*
X8746610Y-8898174D01*
X8746610Y-8898174D02*
X8756134Y-8917222D01*
X8756134Y-8917222D02*
X8756134Y-9021984D01*
X8756134Y-8917222D02*
X8765658Y-8898174D01*
X8765658Y-8898174D02*
X8784705Y-8888650D01*
X8784705Y-8888650D02*
X8813277Y-8888650D01*
X8813277Y-8888650D02*
X8832325Y-8898174D01*
X8832325Y-8898174D02*
X8841848Y-8917222D01*
X8841848Y-8917222D02*
X8841848Y-9021984D01*
X8937086Y-9021984D02*
X8937086Y-8888650D01*
X8937086Y-8907698D02*
X8946610Y-8898174D01*
X8946610Y-8898174D02*
X8965658Y-8888650D01*
X8965658Y-8888650D02*
X8994229Y-8888650D01*
X8994229Y-8888650D02*
X9013277Y-8898174D01*
X9013277Y-8898174D02*
X9022801Y-8917222D01*
X9022801Y-8917222D02*
X9022801Y-9021984D01*
X9022801Y-8917222D02*
X9032325Y-8898174D01*
X9032325Y-8898174D02*
X9051372Y-8888650D01*
X9051372Y-8888650D02*
X9079944Y-8888650D01*
X9079944Y-8888650D02*
X9098991Y-8898174D01*
X9098991Y-8898174D02*
X9108515Y-8917222D01*
X9108515Y-8917222D02*
X9108515Y-9021984D01*
X9498991Y-8812460D02*
X9327563Y-9069603D01*
X9756134Y-8821984D02*
X9775182Y-8821984D01*
X9775182Y-8821984D02*
X9794229Y-8831508D01*
X9794229Y-8831508D02*
X9803753Y-8841031D01*
X9803753Y-8841031D02*
X9813277Y-8860079D01*
X9813277Y-8860079D02*
X9822801Y-8898174D01*
X9822801Y-8898174D02*
X9822801Y-8945793D01*
X9822801Y-8945793D02*
X9813277Y-8983889D01*
X9813277Y-8983889D02*
X9803753Y-9002936D01*
X9803753Y-9002936D02*
X9794229Y-9012460D01*
X9794229Y-9012460D02*
X9775182Y-9021984D01*
X9775182Y-9021984D02*
X9756134Y-9021984D01*
X9756134Y-9021984D02*
X9737087Y-9012460D01*
X9737087Y-9012460D02*
X9727563Y-9002936D01*
X9727563Y-9002936D02*
X9718039Y-8983889D01*
X9718039Y-8983889D02*
X9708515Y-8945793D01*
X9708515Y-8945793D02*
X9708515Y-8898174D01*
X9708515Y-8898174D02*
X9718039Y-8860079D01*
X9718039Y-8860079D02*
X9727563Y-8841031D01*
X9727563Y-8841031D02*
X9737087Y-8831508D01*
X9737087Y-8831508D02*
X9756134Y-8821984D01*
X9908515Y-9002936D02*
X9918039Y-9012460D01*
X9918039Y-9012460D02*
X9908515Y-9021984D01*
X9908515Y-9021984D02*
X9898991Y-9012460D01*
X9898991Y-9012460D02*
X9908515Y-9002936D01*
X9908515Y-9002936D02*
X9908515Y-9021984D01*
X10041848Y-8821984D02*
X10060896Y-8821984D01*
X10060896Y-8821984D02*
X10079944Y-8831508D01*
X10079944Y-8831508D02*
X10089468Y-8841031D01*
X10089468Y-8841031D02*
X10098991Y-8860079D01*
X10098991Y-8860079D02*
X10108515Y-8898174D01*
X10108515Y-8898174D02*
X10108515Y-8945793D01*
X10108515Y-8945793D02*
X10098991Y-8983889D01*
X10098991Y-8983889D02*
X10089468Y-9002936D01*
X10089468Y-9002936D02*
X10079944Y-9012460D01*
X10079944Y-9012460D02*
X10060896Y-9021984D01*
X10060896Y-9021984D02*
X10041848Y-9021984D01*
X10041848Y-9021984D02*
X10022801Y-9012460D01*
X10022801Y-9012460D02*
X10013277Y-9002936D01*
X10013277Y-9002936D02*
X10003753Y-8983889D01*
X10003753Y-8983889D02*
X9994229Y-8945793D01*
X9994229Y-8945793D02*
X9994229Y-8898174D01*
X9994229Y-8898174D02*
X10003753Y-8860079D01*
X10003753Y-8860079D02*
X10013277Y-8841031D01*
X10013277Y-8841031D02*
X10022801Y-8831508D01*
X10022801Y-8831508D02*
X10041848Y-8821984D01*
X10279944Y-8888650D02*
X10279944Y-9021984D01*
X10232325Y-8812460D02*
X10184706Y-8955317D01*
X10184706Y-8955317D02*
X10308515Y-8955317D01*
X10422801Y-8821984D02*
X10441849Y-8821984D01*
X10441849Y-8821984D02*
X10460896Y-8831508D01*
X10460896Y-8831508D02*
X10470420Y-8841031D01*
X10470420Y-8841031D02*
X10479944Y-8860079D01*
X10479944Y-8860079D02*
X10489468Y-8898174D01*
X10489468Y-8898174D02*
X10489468Y-8945793D01*
X10489468Y-8945793D02*
X10479944Y-8983889D01*
X10479944Y-8983889D02*
X10470420Y-9002936D01*
X10470420Y-9002936D02*
X10460896Y-9012460D01*
X10460896Y-9012460D02*
X10441849Y-9021984D01*
X10441849Y-9021984D02*
X10422801Y-9021984D01*
X10422801Y-9021984D02*
X10403753Y-9012460D01*
X10403753Y-9012460D02*
X10394229Y-9002936D01*
X10394229Y-9002936D02*
X10384706Y-8983889D01*
X10384706Y-8983889D02*
X10375182Y-8945793D01*
X10375182Y-8945793D02*
X10375182Y-8898174D01*
X10375182Y-8898174D02*
X10384706Y-8860079D01*
X10384706Y-8860079D02*
X10394229Y-8841031D01*
X10394229Y-8841031D02*
X10403753Y-8831508D01*
X10403753Y-8831508D02*
X10422801Y-8821984D01*
X10613277Y-8821984D02*
X10632325Y-8821984D01*
X10632325Y-8821984D02*
X10651372Y-8831508D01*
X10651372Y-8831508D02*
X10660896Y-8841031D01*
X10660896Y-8841031D02*
X10670420Y-8860079D01*
X10670420Y-8860079D02*
X10679944Y-8898174D01*
X10679944Y-8898174D02*
X10679944Y-8945793D01*
X10679944Y-8945793D02*
X10670420Y-8983889D01*
X10670420Y-8983889D02*
X10660896Y-9002936D01*
X10660896Y-9002936D02*
X10651372Y-9012460D01*
X10651372Y-9012460D02*
X10632325Y-9021984D01*
X10632325Y-9021984D02*
X10613277Y-9021984D01*
X10613277Y-9021984D02*
X10594229Y-9012460D01*
X10594229Y-9012460D02*
X10584706Y-9002936D01*
X10584706Y-9002936D02*
X10575182Y-8983889D01*
X10575182Y-8983889D02*
X10565658Y-8945793D01*
X10565658Y-8945793D02*
X10565658Y-8898174D01*
X10565658Y-8898174D02*
X10575182Y-8860079D01*
X10575182Y-8860079D02*
X10584706Y-8841031D01*
X10584706Y-8841031D02*
X10594229Y-8831508D01*
X10594229Y-8831508D02*
X10613277Y-8821984D01*
X10756134Y-8821984D02*
X10756134Y-8860079D01*
X10832325Y-8821984D02*
X10832325Y-8860079D01*
X11127563Y-9098174D02*
X11118039Y-9088650D01*
X11118039Y-9088650D02*
X11098991Y-9060079D01*
X11098991Y-9060079D02*
X11089468Y-9041031D01*
X11089468Y-9041031D02*
X11079944Y-9012460D01*
X11079944Y-9012460D02*
X11070420Y-8964841D01*
X11070420Y-8964841D02*
X11070420Y-8926746D01*
X11070420Y-8926746D02*
X11079944Y-8879127D01*
X11079944Y-8879127D02*
X11089468Y-8850555D01*
X11089468Y-8850555D02*
X11098991Y-8831508D01*
X11098991Y-8831508D02*
X11118039Y-8802936D01*
X11118039Y-8802936D02*
X11127563Y-8793412D01*
X11213277Y-9021984D02*
X11251372Y-9021984D01*
X11251372Y-9021984D02*
X11270420Y-9012460D01*
X11270420Y-9012460D02*
X11279944Y-9002936D01*
X11279944Y-9002936D02*
X11298991Y-8974365D01*
X11298991Y-8974365D02*
X11308515Y-8936270D01*
X11308515Y-8936270D02*
X11308515Y-8860079D01*
X11308515Y-8860079D02*
X11298991Y-8841031D01*
X11298991Y-8841031D02*
X11289468Y-8831508D01*
X11289468Y-8831508D02*
X11270420Y-8821984D01*
X11270420Y-8821984D02*
X11232325Y-8821984D01*
X11232325Y-8821984D02*
X11213277Y-8831508D01*
X11213277Y-8831508D02*
X11203753Y-8841031D01*
X11203753Y-8841031D02*
X11194229Y-8860079D01*
X11194229Y-8860079D02*
X11194229Y-8907698D01*
X11194229Y-8907698D02*
X11203753Y-8926746D01*
X11203753Y-8926746D02*
X11213277Y-8936270D01*
X11213277Y-8936270D02*
X11232325Y-8945793D01*
X11232325Y-8945793D02*
X11270420Y-8945793D01*
X11270420Y-8945793D02*
X11289468Y-8936270D01*
X11289468Y-8936270D02*
X11298991Y-8926746D01*
X11298991Y-8926746D02*
X11308515Y-8907698D01*
X11546610Y-9021984D02*
X11546610Y-8821984D01*
X11632325Y-9021984D02*
X11632325Y-8917222D01*
X11632325Y-8917222D02*
X11622801Y-8898174D01*
X11622801Y-8898174D02*
X11603753Y-8888650D01*
X11603753Y-8888650D02*
X11575182Y-8888650D01*
X11575182Y-8888650D02*
X11556134Y-8898174D01*
X11556134Y-8898174D02*
X11546610Y-8907698D01*
X11756134Y-9021984D02*
X11737087Y-9012460D01*
X11737087Y-9012460D02*
X11727563Y-9002936D01*
X11727563Y-9002936D02*
X11718039Y-8983889D01*
X11718039Y-8983889D02*
X11718039Y-8926746D01*
X11718039Y-8926746D02*
X11727563Y-8907698D01*
X11727563Y-8907698D02*
X11737087Y-8898174D01*
X11737087Y-8898174D02*
X11756134Y-8888650D01*
X11756134Y-8888650D02*
X11784706Y-8888650D01*
X11784706Y-8888650D02*
X11803753Y-8898174D01*
X11803753Y-8898174D02*
X11813277Y-8907698D01*
X11813277Y-8907698D02*
X11822801Y-8926746D01*
X11822801Y-8926746D02*
X11822801Y-8983889D01*
X11822801Y-8983889D02*
X11813277Y-9002936D01*
X11813277Y-9002936D02*
X11803753Y-9012460D01*
X11803753Y-9012460D02*
X11784706Y-9021984D01*
X11784706Y-9021984D02*
X11756134Y-9021984D01*
X11937087Y-9021984D02*
X11918039Y-9012460D01*
X11918039Y-9012460D02*
X11908515Y-8993412D01*
X11908515Y-8993412D02*
X11908515Y-8821984D01*
X12089468Y-9012460D02*
X12070420Y-9021984D01*
X12070420Y-9021984D02*
X12032325Y-9021984D01*
X12032325Y-9021984D02*
X12013277Y-9012460D01*
X12013277Y-9012460D02*
X12003753Y-8993412D01*
X12003753Y-8993412D02*
X12003753Y-8917222D01*
X12003753Y-8917222D02*
X12013277Y-8898174D01*
X12013277Y-8898174D02*
X12032325Y-8888650D01*
X12032325Y-8888650D02*
X12070420Y-8888650D01*
X12070420Y-8888650D02*
X12089468Y-8898174D01*
X12089468Y-8898174D02*
X12098991Y-8917222D01*
X12098991Y-8917222D02*
X12098991Y-8936270D01*
X12098991Y-8936270D02*
X12003753Y-8955317D01*
X12175182Y-9012460D02*
X12194230Y-9021984D01*
X12194230Y-9021984D02*
X12232325Y-9021984D01*
X12232325Y-9021984D02*
X12251372Y-9012460D01*
X12251372Y-9012460D02*
X12260896Y-8993412D01*
X12260896Y-8993412D02*
X12260896Y-8983889D01*
X12260896Y-8983889D02*
X12251372Y-8964841D01*
X12251372Y-8964841D02*
X12232325Y-8955317D01*
X12232325Y-8955317D02*
X12203753Y-8955317D01*
X12203753Y-8955317D02*
X12184706Y-8945793D01*
X12184706Y-8945793D02*
X12175182Y-8926746D01*
X12175182Y-8926746D02*
X12175182Y-8917222D01*
X12175182Y-8917222D02*
X12184706Y-8898174D01*
X12184706Y-8898174D02*
X12203753Y-8888650D01*
X12203753Y-8888650D02*
X12232325Y-8888650D01*
X12232325Y-8888650D02*
X12251372Y-8898174D01*
X12327563Y-9098174D02*
X12337087Y-9088650D01*
X12337087Y-9088650D02*
X12356134Y-9060079D01*
X12356134Y-9060079D02*
X12365658Y-9041031D01*
X12365658Y-9041031D02*
X12375182Y-9012460D01*
X12375182Y-9012460D02*
X12384706Y-8964841D01*
X12384706Y-8964841D02*
X12384706Y-8926746D01*
X12384706Y-8926746D02*
X12375182Y-8879127D01*
X12375182Y-8879127D02*
X12365658Y-8850555D01*
X12365658Y-8850555D02*
X12356134Y-8831508D01*
X12356134Y-8831508D02*
X12337087Y-8802936D01*
X12337087Y-8802936D02*
X12327563Y-8793412D01*
X7523211Y-9265211D02*
X7523211Y-9123789D01*
X7381789Y-9123789D01*
X7381789Y-9265211D01*
X7523211Y-9265211D01*
X7794229Y-9085984D02*
X7918039Y-9085984D01*
X7918039Y-9085984D02*
X7851372Y-9162174D01*
X7851372Y-9162174D02*
X7879943Y-9162174D01*
X7879943Y-9162174D02*
X7898991Y-9171698D01*
X7898991Y-9171698D02*
X7908515Y-9181222D01*
X7908515Y-9181222D02*
X7918039Y-9200270D01*
X7918039Y-9200270D02*
X7918039Y-9247889D01*
X7918039Y-9247889D02*
X7908515Y-9266936D01*
X7908515Y-9266936D02*
X7898991Y-9276460D01*
X7898991Y-9276460D02*
X7879943Y-9285984D01*
X7879943Y-9285984D02*
X7822801Y-9285984D01*
X7822801Y-9285984D02*
X7803753Y-9276460D01*
X7803753Y-9276460D02*
X7794229Y-9266936D01*
X8003753Y-9266936D02*
X8013277Y-9276460D01*
X8013277Y-9276460D02*
X8003753Y-9285984D01*
X8003753Y-9285984D02*
X7994229Y-9276460D01*
X7994229Y-9276460D02*
X8003753Y-9266936D01*
X8003753Y-9266936D02*
X8003753Y-9285984D01*
X8079943Y-9085984D02*
X8203753Y-9085984D01*
X8203753Y-9085984D02*
X8137086Y-9162174D01*
X8137086Y-9162174D02*
X8165658Y-9162174D01*
X8165658Y-9162174D02*
X8184705Y-9171698D01*
X8184705Y-9171698D02*
X8194229Y-9181222D01*
X8194229Y-9181222D02*
X8203753Y-9200270D01*
X8203753Y-9200270D02*
X8203753Y-9247889D01*
X8203753Y-9247889D02*
X8194229Y-9266936D01*
X8194229Y-9266936D02*
X8184705Y-9276460D01*
X8184705Y-9276460D02*
X8165658Y-9285984D01*
X8165658Y-9285984D02*
X8108515Y-9285984D01*
X8108515Y-9285984D02*
X8089467Y-9276460D01*
X8089467Y-9276460D02*
X8079943Y-9266936D01*
X8327562Y-9085984D02*
X8346610Y-9085984D01*
X8346610Y-9085984D02*
X8365658Y-9095508D01*
X8365658Y-9095508D02*
X8375182Y-9105031D01*
X8375182Y-9105031D02*
X8384705Y-9124079D01*
X8384705Y-9124079D02*
X8394229Y-9162174D01*
X8394229Y-9162174D02*
X8394229Y-9209793D01*
X8394229Y-9209793D02*
X8384705Y-9247889D01*
X8384705Y-9247889D02*
X8375182Y-9266936D01*
X8375182Y-9266936D02*
X8365658Y-9276460D01*
X8365658Y-9276460D02*
X8346610Y-9285984D01*
X8346610Y-9285984D02*
X8327562Y-9285984D01*
X8327562Y-9285984D02*
X8308515Y-9276460D01*
X8308515Y-9276460D02*
X8298991Y-9266936D01*
X8298991Y-9266936D02*
X8289467Y-9247889D01*
X8289467Y-9247889D02*
X8279943Y-9209793D01*
X8279943Y-9209793D02*
X8279943Y-9162174D01*
X8279943Y-9162174D02*
X8289467Y-9124079D01*
X8289467Y-9124079D02*
X8298991Y-9105031D01*
X8298991Y-9105031D02*
X8308515Y-9095508D01*
X8308515Y-9095508D02*
X8327562Y-9085984D01*
X8470420Y-9105031D02*
X8479944Y-9095508D01*
X8479944Y-9095508D02*
X8498991Y-9085984D01*
X8498991Y-9085984D02*
X8546610Y-9085984D01*
X8546610Y-9085984D02*
X8565658Y-9095508D01*
X8565658Y-9095508D02*
X8575182Y-9105031D01*
X8575182Y-9105031D02*
X8584705Y-9124079D01*
X8584705Y-9124079D02*
X8584705Y-9143127D01*
X8584705Y-9143127D02*
X8575182Y-9171698D01*
X8575182Y-9171698D02*
X8460896Y-9285984D01*
X8460896Y-9285984D02*
X8584705Y-9285984D01*
X8670420Y-9285984D02*
X8670420Y-9152650D01*
X8670420Y-9171698D02*
X8679944Y-9162174D01*
X8679944Y-9162174D02*
X8698991Y-9152650D01*
X8698991Y-9152650D02*
X8727563Y-9152650D01*
X8727563Y-9152650D02*
X8746610Y-9162174D01*
X8746610Y-9162174D02*
X8756134Y-9181222D01*
X8756134Y-9181222D02*
X8756134Y-9285984D01*
X8756134Y-9181222D02*
X8765658Y-9162174D01*
X8765658Y-9162174D02*
X8784705Y-9152650D01*
X8784705Y-9152650D02*
X8813277Y-9152650D01*
X8813277Y-9152650D02*
X8832325Y-9162174D01*
X8832325Y-9162174D02*
X8841848Y-9181222D01*
X8841848Y-9181222D02*
X8841848Y-9285984D01*
X8937086Y-9285984D02*
X8937086Y-9152650D01*
X8937086Y-9171698D02*
X8946610Y-9162174D01*
X8946610Y-9162174D02*
X8965658Y-9152650D01*
X8965658Y-9152650D02*
X8994229Y-9152650D01*
X8994229Y-9152650D02*
X9013277Y-9162174D01*
X9013277Y-9162174D02*
X9022801Y-9181222D01*
X9022801Y-9181222D02*
X9022801Y-9285984D01*
X9022801Y-9181222D02*
X9032325Y-9162174D01*
X9032325Y-9162174D02*
X9051372Y-9152650D01*
X9051372Y-9152650D02*
X9079944Y-9152650D01*
X9079944Y-9152650D02*
X9098991Y-9162174D01*
X9098991Y-9162174D02*
X9108515Y-9181222D01*
X9108515Y-9181222D02*
X9108515Y-9285984D01*
X9498991Y-9076460D02*
X9327563Y-9333603D01*
X9756134Y-9085984D02*
X9775182Y-9085984D01*
X9775182Y-9085984D02*
X9794229Y-9095508D01*
X9794229Y-9095508D02*
X9803753Y-9105031D01*
X9803753Y-9105031D02*
X9813277Y-9124079D01*
X9813277Y-9124079D02*
X9822801Y-9162174D01*
X9822801Y-9162174D02*
X9822801Y-9209793D01*
X9822801Y-9209793D02*
X9813277Y-9247889D01*
X9813277Y-9247889D02*
X9803753Y-9266936D01*
X9803753Y-9266936D02*
X9794229Y-9276460D01*
X9794229Y-9276460D02*
X9775182Y-9285984D01*
X9775182Y-9285984D02*
X9756134Y-9285984D01*
X9756134Y-9285984D02*
X9737087Y-9276460D01*
X9737087Y-9276460D02*
X9727563Y-9266936D01*
X9727563Y-9266936D02*
X9718039Y-9247889D01*
X9718039Y-9247889D02*
X9708515Y-9209793D01*
X9708515Y-9209793D02*
X9708515Y-9162174D01*
X9708515Y-9162174D02*
X9718039Y-9124079D01*
X9718039Y-9124079D02*
X9727563Y-9105031D01*
X9727563Y-9105031D02*
X9737087Y-9095508D01*
X9737087Y-9095508D02*
X9756134Y-9085984D01*
X9908515Y-9266936D02*
X9918039Y-9276460D01*
X9918039Y-9276460D02*
X9908515Y-9285984D01*
X9908515Y-9285984D02*
X9898991Y-9276460D01*
X9898991Y-9276460D02*
X9908515Y-9266936D01*
X9908515Y-9266936D02*
X9908515Y-9285984D01*
X10108515Y-9285984D02*
X9994229Y-9285984D01*
X10051372Y-9285984D02*
X10051372Y-9085984D01*
X10051372Y-9085984D02*
X10032325Y-9114555D01*
X10032325Y-9114555D02*
X10013277Y-9133603D01*
X10013277Y-9133603D02*
X9994229Y-9143127D01*
X10175182Y-9085984D02*
X10298991Y-9085984D01*
X10298991Y-9085984D02*
X10232325Y-9162174D01*
X10232325Y-9162174D02*
X10260896Y-9162174D01*
X10260896Y-9162174D02*
X10279944Y-9171698D01*
X10279944Y-9171698D02*
X10289468Y-9181222D01*
X10289468Y-9181222D02*
X10298991Y-9200270D01*
X10298991Y-9200270D02*
X10298991Y-9247889D01*
X10298991Y-9247889D02*
X10289468Y-9266936D01*
X10289468Y-9266936D02*
X10279944Y-9276460D01*
X10279944Y-9276460D02*
X10260896Y-9285984D01*
X10260896Y-9285984D02*
X10203753Y-9285984D01*
X10203753Y-9285984D02*
X10184706Y-9276460D01*
X10184706Y-9276460D02*
X10175182Y-9266936D01*
X10422801Y-9085984D02*
X10441849Y-9085984D01*
X10441849Y-9085984D02*
X10460896Y-9095508D01*
X10460896Y-9095508D02*
X10470420Y-9105031D01*
X10470420Y-9105031D02*
X10479944Y-9124079D01*
X10479944Y-9124079D02*
X10489468Y-9162174D01*
X10489468Y-9162174D02*
X10489468Y-9209793D01*
X10489468Y-9209793D02*
X10479944Y-9247889D01*
X10479944Y-9247889D02*
X10470420Y-9266936D01*
X10470420Y-9266936D02*
X10460896Y-9276460D01*
X10460896Y-9276460D02*
X10441849Y-9285984D01*
X10441849Y-9285984D02*
X10422801Y-9285984D01*
X10422801Y-9285984D02*
X10403753Y-9276460D01*
X10403753Y-9276460D02*
X10394229Y-9266936D01*
X10394229Y-9266936D02*
X10384706Y-9247889D01*
X10384706Y-9247889D02*
X10375182Y-9209793D01*
X10375182Y-9209793D02*
X10375182Y-9162174D01*
X10375182Y-9162174D02*
X10384706Y-9124079D01*
X10384706Y-9124079D02*
X10394229Y-9105031D01*
X10394229Y-9105031D02*
X10403753Y-9095508D01*
X10403753Y-9095508D02*
X10422801Y-9085984D01*
X10613277Y-9085984D02*
X10632325Y-9085984D01*
X10632325Y-9085984D02*
X10651372Y-9095508D01*
X10651372Y-9095508D02*
X10660896Y-9105031D01*
X10660896Y-9105031D02*
X10670420Y-9124079D01*
X10670420Y-9124079D02*
X10679944Y-9162174D01*
X10679944Y-9162174D02*
X10679944Y-9209793D01*
X10679944Y-9209793D02*
X10670420Y-9247889D01*
X10670420Y-9247889D02*
X10660896Y-9266936D01*
X10660896Y-9266936D02*
X10651372Y-9276460D01*
X10651372Y-9276460D02*
X10632325Y-9285984D01*
X10632325Y-9285984D02*
X10613277Y-9285984D01*
X10613277Y-9285984D02*
X10594229Y-9276460D01*
X10594229Y-9276460D02*
X10584706Y-9266936D01*
X10584706Y-9266936D02*
X10575182Y-9247889D01*
X10575182Y-9247889D02*
X10565658Y-9209793D01*
X10565658Y-9209793D02*
X10565658Y-9162174D01*
X10565658Y-9162174D02*
X10575182Y-9124079D01*
X10575182Y-9124079D02*
X10584706Y-9105031D01*
X10584706Y-9105031D02*
X10594229Y-9095508D01*
X10594229Y-9095508D02*
X10613277Y-9085984D01*
X10756134Y-9085984D02*
X10756134Y-9124079D01*
X10832325Y-9085984D02*
X10832325Y-9124079D01*
X11127563Y-9362174D02*
X11118039Y-9352650D01*
X11118039Y-9352650D02*
X11098991Y-9324079D01*
X11098991Y-9324079D02*
X11089468Y-9305031D01*
X11089468Y-9305031D02*
X11079944Y-9276460D01*
X11079944Y-9276460D02*
X11070420Y-9228841D01*
X11070420Y-9228841D02*
X11070420Y-9190746D01*
X11070420Y-9190746D02*
X11079944Y-9143127D01*
X11079944Y-9143127D02*
X11089468Y-9114555D01*
X11089468Y-9114555D02*
X11098991Y-9095508D01*
X11098991Y-9095508D02*
X11118039Y-9066936D01*
X11118039Y-9066936D02*
X11127563Y-9057412D01*
X11194229Y-9105031D02*
X11203753Y-9095508D01*
X11203753Y-9095508D02*
X11222801Y-9085984D01*
X11222801Y-9085984D02*
X11270420Y-9085984D01*
X11270420Y-9085984D02*
X11289468Y-9095508D01*
X11289468Y-9095508D02*
X11298991Y-9105031D01*
X11298991Y-9105031D02*
X11308515Y-9124079D01*
X11308515Y-9124079D02*
X11308515Y-9143127D01*
X11308515Y-9143127D02*
X11298991Y-9171698D01*
X11298991Y-9171698D02*
X11184706Y-9285984D01*
X11184706Y-9285984D02*
X11308515Y-9285984D01*
X11546610Y-9285984D02*
X11546610Y-9085984D01*
X11632325Y-9285984D02*
X11632325Y-9181222D01*
X11632325Y-9181222D02*
X11622801Y-9162174D01*
X11622801Y-9162174D02*
X11603753Y-9152650D01*
X11603753Y-9152650D02*
X11575182Y-9152650D01*
X11575182Y-9152650D02*
X11556134Y-9162174D01*
X11556134Y-9162174D02*
X11546610Y-9171698D01*
X11756134Y-9285984D02*
X11737087Y-9276460D01*
X11737087Y-9276460D02*
X11727563Y-9266936D01*
X11727563Y-9266936D02*
X11718039Y-9247889D01*
X11718039Y-9247889D02*
X11718039Y-9190746D01*
X11718039Y-9190746D02*
X11727563Y-9171698D01*
X11727563Y-9171698D02*
X11737087Y-9162174D01*
X11737087Y-9162174D02*
X11756134Y-9152650D01*
X11756134Y-9152650D02*
X11784706Y-9152650D01*
X11784706Y-9152650D02*
X11803753Y-9162174D01*
X11803753Y-9162174D02*
X11813277Y-9171698D01*
X11813277Y-9171698D02*
X11822801Y-9190746D01*
X11822801Y-9190746D02*
X11822801Y-9247889D01*
X11822801Y-9247889D02*
X11813277Y-9266936D01*
X11813277Y-9266936D02*
X11803753Y-9276460D01*
X11803753Y-9276460D02*
X11784706Y-9285984D01*
X11784706Y-9285984D02*
X11756134Y-9285984D01*
X11937087Y-9285984D02*
X11918039Y-9276460D01*
X11918039Y-9276460D02*
X11908515Y-9257412D01*
X11908515Y-9257412D02*
X11908515Y-9085984D01*
X12089468Y-9276460D02*
X12070420Y-9285984D01*
X12070420Y-9285984D02*
X12032325Y-9285984D01*
X12032325Y-9285984D02*
X12013277Y-9276460D01*
X12013277Y-9276460D02*
X12003753Y-9257412D01*
X12003753Y-9257412D02*
X12003753Y-9181222D01*
X12003753Y-9181222D02*
X12013277Y-9162174D01*
X12013277Y-9162174D02*
X12032325Y-9152650D01*
X12032325Y-9152650D02*
X12070420Y-9152650D01*
X12070420Y-9152650D02*
X12089468Y-9162174D01*
X12089468Y-9162174D02*
X12098991Y-9181222D01*
X12098991Y-9181222D02*
X12098991Y-9200270D01*
X12098991Y-9200270D02*
X12003753Y-9219317D01*
X12175182Y-9276460D02*
X12194230Y-9285984D01*
X12194230Y-9285984D02*
X12232325Y-9285984D01*
X12232325Y-9285984D02*
X12251372Y-9276460D01*
X12251372Y-9276460D02*
X12260896Y-9257412D01*
X12260896Y-9257412D02*
X12260896Y-9247889D01*
X12260896Y-9247889D02*
X12251372Y-9228841D01*
X12251372Y-9228841D02*
X12232325Y-9219317D01*
X12232325Y-9219317D02*
X12203753Y-9219317D01*
X12203753Y-9219317D02*
X12184706Y-9209793D01*
X12184706Y-9209793D02*
X12175182Y-9190746D01*
X12175182Y-9190746D02*
X12175182Y-9181222D01*
X12175182Y-9181222D02*
X12184706Y-9162174D01*
X12184706Y-9162174D02*
X12203753Y-9152650D01*
X12203753Y-9152650D02*
X12232325Y-9152650D01*
X12232325Y-9152650D02*
X12251372Y-9162174D01*
X12327563Y-9362174D02*
X12337087Y-9352650D01*
X12337087Y-9352650D02*
X12356134Y-9324079D01*
X12356134Y-9324079D02*
X12365658Y-9305031D01*
X12365658Y-9305031D02*
X12375182Y-9276460D01*
X12375182Y-9276460D02*
X12384706Y-9228841D01*
X12384706Y-9228841D02*
X12384706Y-9190746D01*
X12384706Y-9190746D02*
X12375182Y-9143127D01*
X12375182Y-9143127D02*
X12365658Y-9114555D01*
X12365658Y-9114555D02*
X12356134Y-9095508D01*
X12356134Y-9095508D02*
X12337087Y-9066936D01*
X12337087Y-9066936D02*
X12327563Y-9057412D01*
M02*
