G04 #@! TF.GenerationSoftware,KiCad,Pcbnew,8.0.6*
G04 #@! TF.CreationDate,2024-12-29T09:39:42-05:00*
G04 #@! TF.ProjectId,Beagley-ai-2CAN,42656167-6c65-4792-9d61-692d3243414e,rev?*
G04 #@! TF.SameCoordinates,Original*
G04 #@! TF.FileFunction,Soldermask,Top*
G04 #@! TF.FilePolarity,Negative*
%FSLAX46Y46*%
G04 Gerber Fmt 4.6, Leading zero omitted, Abs format (unit mm)*
G04 Created by KiCad (PCBNEW 8.0.6) date 2024-12-29 09:39:42*
%MOMM*%
%LPD*%
G01*
G04 APERTURE LIST*
G04 Aperture macros list*
%AMRoundRect*
0 Rectangle with rounded corners*
0 $1 Rounding radius*
0 $2 $3 $4 $5 $6 $7 $8 $9 X,Y pos of 4 corners*
0 Add a 4 corners polygon primitive as box body*
4,1,4,$2,$3,$4,$5,$6,$7,$8,$9,$2,$3,0*
0 Add four circle primitives for the rounded corners*
1,1,$1+$1,$2,$3*
1,1,$1+$1,$4,$5*
1,1,$1+$1,$6,$7*
1,1,$1+$1,$8,$9*
0 Add four rect primitives between the rounded corners*
20,1,$1+$1,$2,$3,$4,$5,0*
20,1,$1+$1,$4,$5,$6,$7,0*
20,1,$1+$1,$6,$7,$8,$9,0*
20,1,$1+$1,$8,$9,$2,$3,0*%
G04 Aperture macros list end*
%ADD10RoundRect,0.250000X0.475000X-0.337500X0.475000X0.337500X-0.475000X0.337500X-0.475000X-0.337500X0*%
%ADD11RoundRect,0.249999X0.450001X1.425001X-0.450001X1.425001X-0.450001X-1.425001X0.450001X-1.425001X0*%
%ADD12R,1.700000X1.700000*%
%ADD13O,1.700000X1.700000*%
%ADD14RoundRect,0.150000X-0.825000X-0.150000X0.825000X-0.150000X0.825000X0.150000X-0.825000X0.150000X0*%
%ADD15C,1.625600*%
%ADD16C,5.181600*%
G04 APERTURE END LIST*
D10*
X98600000Y-42587500D03*
X98600000Y-40512500D03*
D11*
X114400000Y-48550000D03*
X108300000Y-48550000D03*
D12*
X84640000Y-64870000D03*
D13*
X87180000Y-64870000D03*
X84640000Y-62330000D03*
X87180000Y-62330000D03*
X84640000Y-59790000D03*
X87180000Y-59790000D03*
X84640000Y-57250000D03*
X87180000Y-57250000D03*
X84640000Y-54710000D03*
X87180000Y-54710000D03*
X84640000Y-52170000D03*
X87180000Y-52170000D03*
X84640000Y-49630000D03*
X87180000Y-49630000D03*
X84640000Y-47090000D03*
X87180000Y-47090000D03*
X84640000Y-44550000D03*
X87180000Y-44550000D03*
X84640000Y-42010000D03*
X87180000Y-42010000D03*
X84640000Y-39470000D03*
X87180000Y-39470000D03*
D14*
X102125000Y-56295000D03*
X102125000Y-57565000D03*
X102125000Y-58835000D03*
X102125000Y-60105000D03*
X107075000Y-60105000D03*
X107075000Y-58835000D03*
X107075000Y-57565000D03*
X107075000Y-56295000D03*
D12*
X113600000Y-57550000D03*
D13*
X113600000Y-60090000D03*
D11*
X114400000Y-65550000D03*
X108300000Y-65550000D03*
D15*
X120030000Y-45063600D03*
X120030000Y-47806800D03*
X120030000Y-50550000D03*
X120030000Y-53293200D03*
X120030000Y-56036400D03*
X122570000Y-46435200D03*
X122570000Y-49178400D03*
X122570000Y-51921600D03*
X122570000Y-54664800D03*
D16*
X121300000Y-38027800D03*
X121300000Y-63072200D03*
D14*
X102125000Y-39645000D03*
X102125000Y-40915000D03*
X102125000Y-42185000D03*
X102125000Y-43455000D03*
X107075000Y-43455000D03*
X107075000Y-42185000D03*
X107075000Y-40915000D03*
X107075000Y-39645000D03*
D12*
X113600000Y-40550000D03*
D13*
X113600000Y-43090000D03*
D10*
X98600000Y-59587500D03*
X98600000Y-57512500D03*
M02*
