<?xml version="1.0" standalone="no"?>
 <!DOCTYPE svg PUBLIC "-//W3C//DTD SVG 1.1//EN" 
 "http://www.w3.org/Graphics/SVG/1.1/DTD/svg11.dtd"> 
<svg
  xmlns:svg="http://www.w3.org/2000/svg"
  xmlns="http://www.w3.org/2000/svg"
  xmlns:xlink="http://www.w3.org/1999/xlink"
  version="1.1"
  width="63.7794mm" height="48.2346mm" viewBox="0.0000 0.0000 63.7794 48.2346">
<title>SVG Image created as Beagley-ai-1CAN-F_Paste.svg date 2024/12/29 11:18:51 </title>
  <desc>Image generated by PCBNEW </desc>
<g style="fill:#000000; fill-opacity:1.0000;stroke:#000000; stroke-opacity:1.0000;
stroke-linecap:round; stroke-linejoin:round;"
 transform="translate(0 0) scale(1 1)">
<path style="fill:#000000; fill-opacity:1.0000; stroke:none;fill-rule:evenodd;"
d="M 23.0750,25.2250
23.1707,25.2440
23.2518,25.2982
23.3060,25.3793
23.3250,25.4750
23.3250,26.1500
23.3060,26.2457
23.2518,26.3268
23.1707,26.3810
23.0750,26.4000
22.1250,26.4000
22.0293,26.3810
21.9482,26.3268
21.8940,26.2457
21.8750,26.1500
21.8750,25.4750
21.8940,25.3793
21.9482,25.2982
22.0293,25.2440
22.1250,25.2250
Z" /> 
<path style="fill:#000000; fill-opacity:1.0000; stroke:none;fill-rule:evenodd;"
d="M 23.0750,27.3000
23.1707,27.3190
23.2518,27.3732
23.3060,27.4543
23.3250,27.5500
23.3250,28.2250
23.3060,28.3207
23.2518,28.4018
23.1707,28.4560
23.0750,28.4750
22.1250,28.4750
22.0293,28.4560
21.9482,28.4018
21.8940,28.3207
21.8750,28.2250
21.8750,27.5500
21.8940,27.4543
21.9482,27.3732
22.0293,27.3190
22.1250,27.3000
Z" /> 
<path style="fill:#000000; fill-opacity:1.0000; stroke:none;fill-rule:evenodd;"
d="M 26.3500,23.0950
26.3614,23.0376
26.3939,22.9889
26.4426,22.9564
26.5000,22.9450
28.1500,22.9450
28.2074,22.9564
28.2561,22.9889
28.2886,23.0376
28.3000,23.0950
28.3000,23.3950
28.2886,23.4524
28.2561,23.5011
28.2074,23.5336
28.1500,23.5450
26.5000,23.5450
26.4426,23.5336
26.3939,23.5011
26.3614,23.4524
26.3500,23.3950
Z" /> 
<path style="fill:#000000; fill-opacity:1.0000; stroke:none;fill-rule:evenodd;"
d="M 26.3500,24.3650
26.3614,24.3076
26.3939,24.2589
26.4426,24.2264
26.5000,24.2150
28.1500,24.2150
28.2074,24.2264
28.2561,24.2589
28.2886,24.3076
28.3000,24.3650
28.3000,24.6650
28.2886,24.7224
28.2561,24.7711
28.2074,24.8036
28.1500,24.8150
26.5000,24.8150
26.4426,24.8036
26.3939,24.7711
26.3614,24.7224
26.3500,24.6650
Z" /> 
<path style="fill:#000000; fill-opacity:1.0000; stroke:none;fill-rule:evenodd;"
d="M 26.3500,25.6350
26.3614,25.5776
26.3939,25.5289
26.4426,25.4964
26.5000,25.4850
28.1500,25.4850
28.2074,25.4964
28.2561,25.5289
28.2886,25.5776
28.3000,25.6350
28.3000,25.9350
28.2886,25.9924
28.2561,26.0411
28.2074,26.0736
28.1500,26.0850
26.5000,26.0850
26.4426,26.0736
26.3939,26.0411
26.3614,25.9924
26.3500,25.9350
Z" /> 
<path style="fill:#000000; fill-opacity:1.0000; stroke:none;fill-rule:evenodd;"
d="M 26.3500,26.9050
26.3614,26.8476
26.3939,26.7989
26.4426,26.7664
26.5000,26.7550
28.1500,26.7550
28.2074,26.7664
28.2561,26.7989
28.2886,26.8476
28.3000,26.9050
28.3000,27.2050
28.2886,27.2624
28.2561,27.3111
28.2074,27.3436
28.1500,27.3550
26.5000,27.3550
26.4426,27.3436
26.3939,27.3111
26.3614,27.2624
26.3500,27.2050
Z" /> 
<path style="fill:#000000; fill-opacity:1.0000; stroke:none;fill-rule:evenodd;"
d="M 31.3000,26.9050
31.3114,26.8476
31.3439,26.7989
31.3926,26.7664
31.4500,26.7550
33.1000,26.7550
33.1574,26.7664
33.2061,26.7989
33.2386,26.8476
33.2500,26.9050
33.2500,27.2050
33.2386,27.2624
33.2061,27.3111
33.1574,27.3436
33.1000,27.3550
31.4500,27.3550
31.3926,27.3436
31.3439,27.3111
31.3114,27.2624
31.3000,27.2050
Z" /> 
<path style="fill:#000000; fill-opacity:1.0000; stroke:none;fill-rule:evenodd;"
d="M 31.3000,25.6350
31.3114,25.5776
31.3439,25.5289
31.3926,25.4964
31.4500,25.4850
33.1000,25.4850
33.1574,25.4964
33.2061,25.5289
33.2386,25.5776
33.2500,25.6350
33.2500,25.9350
33.2386,25.9924
33.2061,26.0411
33.1574,26.0736
33.1000,26.0850
31.4500,26.0850
31.3926,26.0736
31.3439,26.0411
31.3114,25.9924
31.3000,25.9350
Z" /> 
<path style="fill:#000000; fill-opacity:1.0000; stroke:none;fill-rule:evenodd;"
d="M 31.3000,24.3650
31.3114,24.3076
31.3439,24.2589
31.3926,24.2264
31.4500,24.2150
33.1000,24.2150
33.1574,24.2264
33.2061,24.2589
33.2386,24.3076
33.2500,24.3650
33.2500,24.6650
33.2386,24.7224
33.2061,24.7711
33.1574,24.8036
33.1000,24.8150
31.4500,24.8150
31.3926,24.8036
31.3439,24.7711
31.3114,24.7224
31.3000,24.6650
Z" /> 
<path style="fill:#000000; fill-opacity:1.0000; stroke:none;fill-rule:evenodd;"
d="M 31.3000,23.0950
31.3114,23.0376
31.3439,22.9889
31.3926,22.9564
31.4500,22.9450
33.1000,22.9450
33.1574,22.9564
33.2061,22.9889
33.2386,23.0376
33.2500,23.0950
33.2500,23.3950
33.2386,23.4524
33.2061,23.5011
33.1574,23.5336
33.1000,23.5450
31.4500,23.5450
31.3926,23.5336
31.3439,23.5011
31.3114,23.4524
31.3000,23.3950
Z" /> 
<path style="fill:#000000; fill-opacity:1.0000; stroke:none;fill-rule:evenodd;"
d="M 39.6000,33.5750
39.5810,33.6707
39.5268,33.7518
39.4457,33.8060
39.3500,33.8250
38.4500,33.8250
38.3543,33.8060
38.2732,33.7518
38.2190,33.6707
38.2000,33.5750
38.2000,30.7250
38.2190,30.6293
38.2732,30.5482
38.3543,30.4940
38.4500,30.4750
39.3500,30.4750
39.4457,30.4940
39.5268,30.5482
39.5810,30.6293
39.6000,30.7250
Z" /> 
<path style="fill:#000000; fill-opacity:1.0000; stroke:none;fill-rule:evenodd;"
d="M 33.5000,33.5750
33.4810,33.6707
33.4268,33.7518
33.3457,33.8060
33.2500,33.8250
32.3500,33.8250
32.2543,33.8060
32.1732,33.7518
32.1190,33.6707
32.1000,33.5750
32.1000,30.7250
32.1190,30.6293
32.1732,30.5482
32.2543,30.4940
32.3500,30.4750
33.2500,30.4750
33.3457,30.4940
33.4268,30.5482
33.4810,30.6293
33.5000,30.7250
Z" /> 
</g>
<g style="fill:none; 
stroke:#000000; stroke-width:0.1500; stroke-opacity:1; 
stroke-linecap:round; stroke-linejoin:round;">
<path d="M0.1000 48.1500
L0.1000 0.1500
" />
<path d="M55.1000 48.1500
L0.1000 48.1500
" />
<path d="M55.1000 0.1500
L0.1000 0.1500
" />
<path d="M55.1000 0.1500
L55.1000 48.1500
" />
</g> 
</svg>
