G04 #@! TF.GenerationSoftware,KiCad,Pcbnew,8.0.6*
G04 #@! TF.CreationDate,2025-01-05T21:46:19-05:00*
G04 #@! TF.ProjectId,Beagle-AI-64-CAN-Part1,42656167-6c65-42d4-9149-2d36342d4341,rev?*
G04 #@! TF.SameCoordinates,Original*
G04 #@! TF.FileFunction,Soldermask,Bot*
G04 #@! TF.FilePolarity,Negative*
%FSLAX46Y46*%
G04 Gerber Fmt 4.6, Leading zero omitted, Abs format (unit mm)*
G04 Created by KiCad (PCBNEW 8.0.6) date 2025-01-05 21:46:19*
%MOMM*%
%LPD*%
G01*
G04 APERTURE LIST*
G04 Aperture macros list*
%AMRoundRect*
0 Rectangle with rounded corners*
0 $1 Rounding radius*
0 $2 $3 $4 $5 $6 $7 $8 $9 X,Y pos of 4 corners*
0 Add a 4 corners polygon primitive as box body*
4,1,4,$2,$3,$4,$5,$6,$7,$8,$9,$2,$3,0*
0 Add four circle primitives for the rounded corners*
1,1,$1+$1,$2,$3*
1,1,$1+$1,$4,$5*
1,1,$1+$1,$6,$7*
1,1,$1+$1,$8,$9*
0 Add four rect primitives between the rounded corners*
20,1,$1+$1,$2,$3,$4,$5,0*
20,1,$1+$1,$4,$5,$6,$7,0*
20,1,$1+$1,$6,$7,$8,$9,0*
20,1,$1+$1,$8,$9,$2,$3,0*%
G04 Aperture macros list end*
%ADD10R,1.700000X1.700000*%
%ADD11O,1.700000X1.700000*%
%ADD12C,3.175000*%
%ADD13RoundRect,0.101600X-0.939800X-0.939800X0.939800X-0.939800X0.939800X0.939800X-0.939800X0.939800X0*%
%ADD14C,2.082800*%
G04 APERTURE END LIST*
D10*
X183700000Y-91625000D03*
D11*
X183700000Y-94165000D03*
X183700000Y-96705000D03*
X183700000Y-99245000D03*
X183700000Y-101785000D03*
X183700000Y-104325000D03*
X183700000Y-106865000D03*
X183700000Y-109405000D03*
X183700000Y-111945000D03*
X183700000Y-114485000D03*
D12*
X119761000Y-80772000D03*
X119761000Y-129032000D03*
X185801000Y-83947000D03*
X185801000Y-125857000D03*
D13*
X125476000Y-82042000D03*
D14*
X125476000Y-79502000D03*
X128016000Y-82042000D03*
X128016000Y-79502000D03*
X130556000Y-82042000D03*
X130556000Y-79502000D03*
X133096000Y-82042000D03*
X133096000Y-79502000D03*
X135636000Y-82042000D03*
X135636000Y-79502000D03*
X138176000Y-82042000D03*
X138176000Y-79502000D03*
X140716000Y-82042000D03*
X140716000Y-79502000D03*
X143256000Y-82042000D03*
X143256000Y-79502000D03*
X145796000Y-82042000D03*
X145796000Y-79502000D03*
X148336000Y-82042000D03*
X148336000Y-79502000D03*
X150876000Y-82042000D03*
X150876000Y-79502000D03*
X153416000Y-82042000D03*
X153416000Y-79502000D03*
X155956000Y-82042000D03*
X155956000Y-79502000D03*
X158496000Y-82042000D03*
X158496000Y-79502000D03*
X161036000Y-82042000D03*
X161036000Y-79502000D03*
X163576000Y-82042000D03*
X163576000Y-79502000D03*
X166116000Y-82042000D03*
X166116000Y-79502000D03*
X168656000Y-82042000D03*
X168656000Y-79502000D03*
X171196000Y-82042000D03*
X171196000Y-79502000D03*
X173736000Y-82042000D03*
X173736000Y-79502000D03*
X176276000Y-82042000D03*
X176276000Y-79502000D03*
X178816000Y-82042000D03*
X178816000Y-79502000D03*
X181356000Y-82042000D03*
X181356000Y-79502000D03*
D13*
X125476000Y-130302000D03*
D14*
X125476000Y-127762000D03*
X128016000Y-130302000D03*
X128016000Y-127762000D03*
X130556000Y-130302000D03*
X130556000Y-127762000D03*
X133096000Y-130302000D03*
X133096000Y-127762000D03*
X135636000Y-130302000D03*
X135636000Y-127762000D03*
X138176000Y-130302000D03*
X138176000Y-127762000D03*
X140716000Y-130302000D03*
X140716000Y-127762000D03*
X143256000Y-130302000D03*
X143256000Y-127762000D03*
X145796000Y-130302000D03*
X145796000Y-127762000D03*
X148336000Y-130302000D03*
X148336000Y-127762000D03*
X150876000Y-130302000D03*
X150876000Y-127762000D03*
X153416000Y-130302000D03*
X153416000Y-127762000D03*
X155956000Y-130302000D03*
X155956000Y-127762000D03*
X158496000Y-130302000D03*
X158496000Y-127762000D03*
X161036000Y-130302000D03*
X161036000Y-127762000D03*
X163576000Y-130302000D03*
X163576000Y-127762000D03*
X166116000Y-130302000D03*
X166116000Y-127762000D03*
X168656000Y-130302000D03*
X168656000Y-127762000D03*
X171196000Y-130302000D03*
X171196000Y-127762000D03*
X173736000Y-130302000D03*
X173736000Y-127762000D03*
X176276000Y-130302000D03*
X176276000Y-127762000D03*
X178816000Y-130302000D03*
X178816000Y-127762000D03*
X181356000Y-130302000D03*
X181356000Y-127762000D03*
M02*
