G04 #@! TF.GenerationSoftware,KiCad,Pcbnew,8.0.6*
G04 #@! TF.CreationDate,2025-01-05T21:46:19-05:00*
G04 #@! TF.ProjectId,Beagle-AI-64-CAN-Part1,42656167-6c65-42d4-9149-2d36342d4341,rev?*
G04 #@! TF.SameCoordinates,Original*
G04 #@! TF.FileFunction,Legend,Top*
G04 #@! TF.FilePolarity,Positive*
%FSLAX46Y46*%
G04 Gerber Fmt 4.6, Leading zero omitted, Abs format (unit mm)*
G04 Created by KiCad (PCBNEW 8.0.6) date 2025-01-05 21:46:19*
%MOMM*%
%LPD*%
G01*
G04 APERTURE LIST*
%ADD10C,0.150000*%
%ADD11C,0.152400*%
%ADD12C,0.190500*%
%ADD13C,0.120000*%
G04 APERTURE END LIST*
D10*
X172238095Y-111054819D02*
X172238095Y-111864342D01*
X172238095Y-111864342D02*
X172285714Y-111959580D01*
X172285714Y-111959580D02*
X172333333Y-112007200D01*
X172333333Y-112007200D02*
X172428571Y-112054819D01*
X172428571Y-112054819D02*
X172619047Y-112054819D01*
X172619047Y-112054819D02*
X172714285Y-112007200D01*
X172714285Y-112007200D02*
X172761904Y-111959580D01*
X172761904Y-111959580D02*
X172809523Y-111864342D01*
X172809523Y-111864342D02*
X172809523Y-111054819D01*
X173809523Y-112054819D02*
X173238095Y-112054819D01*
X173523809Y-112054819D02*
X173523809Y-111054819D01*
X173523809Y-111054819D02*
X173428571Y-111197676D01*
X173428571Y-111197676D02*
X173333333Y-111292914D01*
X173333333Y-111292914D02*
X173238095Y-111340533D01*
X172238095Y-99054819D02*
X172238095Y-99864342D01*
X172238095Y-99864342D02*
X172285714Y-99959580D01*
X172285714Y-99959580D02*
X172333333Y-100007200D01*
X172333333Y-100007200D02*
X172428571Y-100054819D01*
X172428571Y-100054819D02*
X172619047Y-100054819D01*
X172619047Y-100054819D02*
X172714285Y-100007200D01*
X172714285Y-100007200D02*
X172761904Y-99959580D01*
X172761904Y-99959580D02*
X172809523Y-99864342D01*
X172809523Y-99864342D02*
X172809523Y-99054819D01*
X173761904Y-99054819D02*
X173285714Y-99054819D01*
X173285714Y-99054819D02*
X173238095Y-99531009D01*
X173238095Y-99531009D02*
X173285714Y-99483390D01*
X173285714Y-99483390D02*
X173380952Y-99435771D01*
X173380952Y-99435771D02*
X173619047Y-99435771D01*
X173619047Y-99435771D02*
X173714285Y-99483390D01*
X173714285Y-99483390D02*
X173761904Y-99531009D01*
X173761904Y-99531009D02*
X173809523Y-99626247D01*
X173809523Y-99626247D02*
X173809523Y-99864342D01*
X173809523Y-99864342D02*
X173761904Y-99959580D01*
X173761904Y-99959580D02*
X173714285Y-100007200D01*
X173714285Y-100007200D02*
X173619047Y-100054819D01*
X173619047Y-100054819D02*
X173380952Y-100054819D01*
X173380952Y-100054819D02*
X173285714Y-100007200D01*
X173285714Y-100007200D02*
X173238095Y-99959580D01*
X172238095Y-85054819D02*
X172238095Y-85864342D01*
X172238095Y-85864342D02*
X172285714Y-85959580D01*
X172285714Y-85959580D02*
X172333333Y-86007200D01*
X172333333Y-86007200D02*
X172428571Y-86054819D01*
X172428571Y-86054819D02*
X172619047Y-86054819D01*
X172619047Y-86054819D02*
X172714285Y-86007200D01*
X172714285Y-86007200D02*
X172761904Y-85959580D01*
X172761904Y-85959580D02*
X172809523Y-85864342D01*
X172809523Y-85864342D02*
X172809523Y-85054819D01*
X173714285Y-85388152D02*
X173714285Y-86054819D01*
X173476190Y-85007200D02*
X173238095Y-85721485D01*
X173238095Y-85721485D02*
X173857142Y-85721485D01*
X134238095Y-106054819D02*
X134238095Y-106864342D01*
X134238095Y-106864342D02*
X134285714Y-106959580D01*
X134285714Y-106959580D02*
X134333333Y-107007200D01*
X134333333Y-107007200D02*
X134428571Y-107054819D01*
X134428571Y-107054819D02*
X134619047Y-107054819D01*
X134619047Y-107054819D02*
X134714285Y-107007200D01*
X134714285Y-107007200D02*
X134761904Y-106959580D01*
X134761904Y-106959580D02*
X134809523Y-106864342D01*
X134809523Y-106864342D02*
X134809523Y-106054819D01*
X135190476Y-106054819D02*
X135809523Y-106054819D01*
X135809523Y-106054819D02*
X135476190Y-106435771D01*
X135476190Y-106435771D02*
X135619047Y-106435771D01*
X135619047Y-106435771D02*
X135714285Y-106483390D01*
X135714285Y-106483390D02*
X135761904Y-106531009D01*
X135761904Y-106531009D02*
X135809523Y-106626247D01*
X135809523Y-106626247D02*
X135809523Y-106864342D01*
X135809523Y-106864342D02*
X135761904Y-106959580D01*
X135761904Y-106959580D02*
X135714285Y-107007200D01*
X135714285Y-107007200D02*
X135619047Y-107054819D01*
X135619047Y-107054819D02*
X135333333Y-107054819D01*
X135333333Y-107054819D02*
X135238095Y-107007200D01*
X135238095Y-107007200D02*
X135190476Y-106959580D01*
X134238095Y-85054819D02*
X134238095Y-85864342D01*
X134238095Y-85864342D02*
X134285714Y-85959580D01*
X134285714Y-85959580D02*
X134333333Y-86007200D01*
X134333333Y-86007200D02*
X134428571Y-86054819D01*
X134428571Y-86054819D02*
X134619047Y-86054819D01*
X134619047Y-86054819D02*
X134714285Y-86007200D01*
X134714285Y-86007200D02*
X134761904Y-85959580D01*
X134761904Y-85959580D02*
X134809523Y-85864342D01*
X134809523Y-85864342D02*
X134809523Y-85054819D01*
X135238095Y-85150057D02*
X135285714Y-85102438D01*
X135285714Y-85102438D02*
X135380952Y-85054819D01*
X135380952Y-85054819D02*
X135619047Y-85054819D01*
X135619047Y-85054819D02*
X135714285Y-85102438D01*
X135714285Y-85102438D02*
X135761904Y-85150057D01*
X135761904Y-85150057D02*
X135809523Y-85245295D01*
X135809523Y-85245295D02*
X135809523Y-85340533D01*
X135809523Y-85340533D02*
X135761904Y-85483390D01*
X135761904Y-85483390D02*
X135190476Y-86054819D01*
X135190476Y-86054819D02*
X135809523Y-86054819D01*
X140733333Y-92609580D02*
X140685714Y-92657200D01*
X140685714Y-92657200D02*
X140542857Y-92704819D01*
X140542857Y-92704819D02*
X140447619Y-92704819D01*
X140447619Y-92704819D02*
X140304762Y-92657200D01*
X140304762Y-92657200D02*
X140209524Y-92561961D01*
X140209524Y-92561961D02*
X140161905Y-92466723D01*
X140161905Y-92466723D02*
X140114286Y-92276247D01*
X140114286Y-92276247D02*
X140114286Y-92133390D01*
X140114286Y-92133390D02*
X140161905Y-91942914D01*
X140161905Y-91942914D02*
X140209524Y-91847676D01*
X140209524Y-91847676D02*
X140304762Y-91752438D01*
X140304762Y-91752438D02*
X140447619Y-91704819D01*
X140447619Y-91704819D02*
X140542857Y-91704819D01*
X140542857Y-91704819D02*
X140685714Y-91752438D01*
X140685714Y-91752438D02*
X140733333Y-91800057D01*
X141066667Y-91704819D02*
X141685714Y-91704819D01*
X141685714Y-91704819D02*
X141352381Y-92085771D01*
X141352381Y-92085771D02*
X141495238Y-92085771D01*
X141495238Y-92085771D02*
X141590476Y-92133390D01*
X141590476Y-92133390D02*
X141638095Y-92181009D01*
X141638095Y-92181009D02*
X141685714Y-92276247D01*
X141685714Y-92276247D02*
X141685714Y-92514342D01*
X141685714Y-92514342D02*
X141638095Y-92609580D01*
X141638095Y-92609580D02*
X141590476Y-92657200D01*
X141590476Y-92657200D02*
X141495238Y-92704819D01*
X141495238Y-92704819D02*
X141209524Y-92704819D01*
X141209524Y-92704819D02*
X141114286Y-92657200D01*
X141114286Y-92657200D02*
X141066667Y-92609580D01*
X164679333Y-87989580D02*
X164631714Y-88037200D01*
X164631714Y-88037200D02*
X164488857Y-88084819D01*
X164488857Y-88084819D02*
X164393619Y-88084819D01*
X164393619Y-88084819D02*
X164250762Y-88037200D01*
X164250762Y-88037200D02*
X164155524Y-87941961D01*
X164155524Y-87941961D02*
X164107905Y-87846723D01*
X164107905Y-87846723D02*
X164060286Y-87656247D01*
X164060286Y-87656247D02*
X164060286Y-87513390D01*
X164060286Y-87513390D02*
X164107905Y-87322914D01*
X164107905Y-87322914D02*
X164155524Y-87227676D01*
X164155524Y-87227676D02*
X164250762Y-87132438D01*
X164250762Y-87132438D02*
X164393619Y-87084819D01*
X164393619Y-87084819D02*
X164488857Y-87084819D01*
X164488857Y-87084819D02*
X164631714Y-87132438D01*
X164631714Y-87132438D02*
X164679333Y-87180057D01*
X165060286Y-87180057D02*
X165107905Y-87132438D01*
X165107905Y-87132438D02*
X165203143Y-87084819D01*
X165203143Y-87084819D02*
X165441238Y-87084819D01*
X165441238Y-87084819D02*
X165536476Y-87132438D01*
X165536476Y-87132438D02*
X165584095Y-87180057D01*
X165584095Y-87180057D02*
X165631714Y-87275295D01*
X165631714Y-87275295D02*
X165631714Y-87370533D01*
X165631714Y-87370533D02*
X165584095Y-87513390D01*
X165584095Y-87513390D02*
X165012667Y-88084819D01*
X165012667Y-88084819D02*
X165631714Y-88084819D01*
X126611142Y-110087580D02*
X126563523Y-110135200D01*
X126563523Y-110135200D02*
X126420666Y-110182819D01*
X126420666Y-110182819D02*
X126325428Y-110182819D01*
X126325428Y-110182819D02*
X126182571Y-110135200D01*
X126182571Y-110135200D02*
X126087333Y-110039961D01*
X126087333Y-110039961D02*
X126039714Y-109944723D01*
X126039714Y-109944723D02*
X125992095Y-109754247D01*
X125992095Y-109754247D02*
X125992095Y-109611390D01*
X125992095Y-109611390D02*
X126039714Y-109420914D01*
X126039714Y-109420914D02*
X126087333Y-109325676D01*
X126087333Y-109325676D02*
X126182571Y-109230438D01*
X126182571Y-109230438D02*
X126325428Y-109182819D01*
X126325428Y-109182819D02*
X126420666Y-109182819D01*
X126420666Y-109182819D02*
X126563523Y-109230438D01*
X126563523Y-109230438D02*
X126611142Y-109278057D01*
X127563523Y-110182819D02*
X126992095Y-110182819D01*
X127277809Y-110182819D02*
X127277809Y-109182819D01*
X127277809Y-109182819D02*
X127182571Y-109325676D01*
X127182571Y-109325676D02*
X127087333Y-109420914D01*
X127087333Y-109420914D02*
X126992095Y-109468533D01*
X128182571Y-109182819D02*
X128277809Y-109182819D01*
X128277809Y-109182819D02*
X128373047Y-109230438D01*
X128373047Y-109230438D02*
X128420666Y-109278057D01*
X128420666Y-109278057D02*
X128468285Y-109373295D01*
X128468285Y-109373295D02*
X128515904Y-109563771D01*
X128515904Y-109563771D02*
X128515904Y-109801866D01*
X128515904Y-109801866D02*
X128468285Y-109992342D01*
X128468285Y-109992342D02*
X128420666Y-110087580D01*
X128420666Y-110087580D02*
X128373047Y-110135200D01*
X128373047Y-110135200D02*
X128277809Y-110182819D01*
X128277809Y-110182819D02*
X128182571Y-110182819D01*
X128182571Y-110182819D02*
X128087333Y-110135200D01*
X128087333Y-110135200D02*
X128039714Y-110087580D01*
X128039714Y-110087580D02*
X127992095Y-109992342D01*
X127992095Y-109992342D02*
X127944476Y-109801866D01*
X127944476Y-109801866D02*
X127944476Y-109563771D01*
X127944476Y-109563771D02*
X127992095Y-109373295D01*
X127992095Y-109373295D02*
X128039714Y-109278057D01*
X128039714Y-109278057D02*
X128087333Y-109230438D01*
X128087333Y-109230438D02*
X128182571Y-109182819D01*
X129627333Y-91291580D02*
X129579714Y-91339200D01*
X129579714Y-91339200D02*
X129436857Y-91386819D01*
X129436857Y-91386819D02*
X129341619Y-91386819D01*
X129341619Y-91386819D02*
X129198762Y-91339200D01*
X129198762Y-91339200D02*
X129103524Y-91243961D01*
X129103524Y-91243961D02*
X129055905Y-91148723D01*
X129055905Y-91148723D02*
X129008286Y-90958247D01*
X129008286Y-90958247D02*
X129008286Y-90815390D01*
X129008286Y-90815390D02*
X129055905Y-90624914D01*
X129055905Y-90624914D02*
X129103524Y-90529676D01*
X129103524Y-90529676D02*
X129198762Y-90434438D01*
X129198762Y-90434438D02*
X129341619Y-90386819D01*
X129341619Y-90386819D02*
X129436857Y-90386819D01*
X129436857Y-90386819D02*
X129579714Y-90434438D01*
X129579714Y-90434438D02*
X129627333Y-90482057D01*
X130484476Y-90720152D02*
X130484476Y-91386819D01*
X130246381Y-90339200D02*
X130008286Y-91053485D01*
X130008286Y-91053485D02*
X130627333Y-91053485D01*
X178233333Y-92359580D02*
X178185714Y-92407200D01*
X178185714Y-92407200D02*
X178042857Y-92454819D01*
X178042857Y-92454819D02*
X177947619Y-92454819D01*
X177947619Y-92454819D02*
X177804762Y-92407200D01*
X177804762Y-92407200D02*
X177709524Y-92311961D01*
X177709524Y-92311961D02*
X177661905Y-92216723D01*
X177661905Y-92216723D02*
X177614286Y-92026247D01*
X177614286Y-92026247D02*
X177614286Y-91883390D01*
X177614286Y-91883390D02*
X177661905Y-91692914D01*
X177661905Y-91692914D02*
X177709524Y-91597676D01*
X177709524Y-91597676D02*
X177804762Y-91502438D01*
X177804762Y-91502438D02*
X177947619Y-91454819D01*
X177947619Y-91454819D02*
X178042857Y-91454819D01*
X178042857Y-91454819D02*
X178185714Y-91502438D01*
X178185714Y-91502438D02*
X178233333Y-91550057D01*
X179185714Y-92454819D02*
X178614286Y-92454819D01*
X178900000Y-92454819D02*
X178900000Y-91454819D01*
X178900000Y-91454819D02*
X178804762Y-91597676D01*
X178804762Y-91597676D02*
X178709524Y-91692914D01*
X178709524Y-91692914D02*
X178614286Y-91740533D01*
X167219333Y-117453580D02*
X167171714Y-117501200D01*
X167171714Y-117501200D02*
X167028857Y-117548819D01*
X167028857Y-117548819D02*
X166933619Y-117548819D01*
X166933619Y-117548819D02*
X166790762Y-117501200D01*
X166790762Y-117501200D02*
X166695524Y-117405961D01*
X166695524Y-117405961D02*
X166647905Y-117310723D01*
X166647905Y-117310723D02*
X166600286Y-117120247D01*
X166600286Y-117120247D02*
X166600286Y-116977390D01*
X166600286Y-116977390D02*
X166647905Y-116786914D01*
X166647905Y-116786914D02*
X166695524Y-116691676D01*
X166695524Y-116691676D02*
X166790762Y-116596438D01*
X166790762Y-116596438D02*
X166933619Y-116548819D01*
X166933619Y-116548819D02*
X167028857Y-116548819D01*
X167028857Y-116548819D02*
X167171714Y-116596438D01*
X167171714Y-116596438D02*
X167219333Y-116644057D01*
X167790762Y-116977390D02*
X167695524Y-116929771D01*
X167695524Y-116929771D02*
X167647905Y-116882152D01*
X167647905Y-116882152D02*
X167600286Y-116786914D01*
X167600286Y-116786914D02*
X167600286Y-116739295D01*
X167600286Y-116739295D02*
X167647905Y-116644057D01*
X167647905Y-116644057D02*
X167695524Y-116596438D01*
X167695524Y-116596438D02*
X167790762Y-116548819D01*
X167790762Y-116548819D02*
X167981238Y-116548819D01*
X167981238Y-116548819D02*
X168076476Y-116596438D01*
X168076476Y-116596438D02*
X168124095Y-116644057D01*
X168124095Y-116644057D02*
X168171714Y-116739295D01*
X168171714Y-116739295D02*
X168171714Y-116786914D01*
X168171714Y-116786914D02*
X168124095Y-116882152D01*
X168124095Y-116882152D02*
X168076476Y-116929771D01*
X168076476Y-116929771D02*
X167981238Y-116977390D01*
X167981238Y-116977390D02*
X167790762Y-116977390D01*
X167790762Y-116977390D02*
X167695524Y-117025009D01*
X167695524Y-117025009D02*
X167647905Y-117072628D01*
X167647905Y-117072628D02*
X167600286Y-117167866D01*
X167600286Y-117167866D02*
X167600286Y-117358342D01*
X167600286Y-117358342D02*
X167647905Y-117453580D01*
X167647905Y-117453580D02*
X167695524Y-117501200D01*
X167695524Y-117501200D02*
X167790762Y-117548819D01*
X167790762Y-117548819D02*
X167981238Y-117548819D01*
X167981238Y-117548819D02*
X168076476Y-117501200D01*
X168076476Y-117501200D02*
X168124095Y-117453580D01*
X168124095Y-117453580D02*
X168171714Y-117358342D01*
X168171714Y-117358342D02*
X168171714Y-117167866D01*
X168171714Y-117167866D02*
X168124095Y-117072628D01*
X168124095Y-117072628D02*
X168076476Y-117025009D01*
X168076476Y-117025009D02*
X167981238Y-116977390D01*
X178083333Y-118109580D02*
X178035714Y-118157200D01*
X178035714Y-118157200D02*
X177892857Y-118204819D01*
X177892857Y-118204819D02*
X177797619Y-118204819D01*
X177797619Y-118204819D02*
X177654762Y-118157200D01*
X177654762Y-118157200D02*
X177559524Y-118061961D01*
X177559524Y-118061961D02*
X177511905Y-117966723D01*
X177511905Y-117966723D02*
X177464286Y-117776247D01*
X177464286Y-117776247D02*
X177464286Y-117633390D01*
X177464286Y-117633390D02*
X177511905Y-117442914D01*
X177511905Y-117442914D02*
X177559524Y-117347676D01*
X177559524Y-117347676D02*
X177654762Y-117252438D01*
X177654762Y-117252438D02*
X177797619Y-117204819D01*
X177797619Y-117204819D02*
X177892857Y-117204819D01*
X177892857Y-117204819D02*
X178035714Y-117252438D01*
X178035714Y-117252438D02*
X178083333Y-117300057D01*
X178988095Y-117204819D02*
X178511905Y-117204819D01*
X178511905Y-117204819D02*
X178464286Y-117681009D01*
X178464286Y-117681009D02*
X178511905Y-117633390D01*
X178511905Y-117633390D02*
X178607143Y-117585771D01*
X178607143Y-117585771D02*
X178845238Y-117585771D01*
X178845238Y-117585771D02*
X178940476Y-117633390D01*
X178940476Y-117633390D02*
X178988095Y-117681009D01*
X178988095Y-117681009D02*
X179035714Y-117776247D01*
X179035714Y-117776247D02*
X179035714Y-118014342D01*
X179035714Y-118014342D02*
X178988095Y-118109580D01*
X178988095Y-118109580D02*
X178940476Y-118157200D01*
X178940476Y-118157200D02*
X178845238Y-118204819D01*
X178845238Y-118204819D02*
X178607143Y-118204819D01*
X178607143Y-118204819D02*
X178511905Y-118157200D01*
X178511905Y-118157200D02*
X178464286Y-118109580D01*
X140483333Y-113059580D02*
X140435714Y-113107200D01*
X140435714Y-113107200D02*
X140292857Y-113154819D01*
X140292857Y-113154819D02*
X140197619Y-113154819D01*
X140197619Y-113154819D02*
X140054762Y-113107200D01*
X140054762Y-113107200D02*
X139959524Y-113011961D01*
X139959524Y-113011961D02*
X139911905Y-112916723D01*
X139911905Y-112916723D02*
X139864286Y-112726247D01*
X139864286Y-112726247D02*
X139864286Y-112583390D01*
X139864286Y-112583390D02*
X139911905Y-112392914D01*
X139911905Y-112392914D02*
X139959524Y-112297676D01*
X139959524Y-112297676D02*
X140054762Y-112202438D01*
X140054762Y-112202438D02*
X140197619Y-112154819D01*
X140197619Y-112154819D02*
X140292857Y-112154819D01*
X140292857Y-112154819D02*
X140435714Y-112202438D01*
X140435714Y-112202438D02*
X140483333Y-112250057D01*
X140816667Y-112154819D02*
X141483333Y-112154819D01*
X141483333Y-112154819D02*
X141054762Y-113154819D01*
X167473333Y-105769580D02*
X167425714Y-105817200D01*
X167425714Y-105817200D02*
X167282857Y-105864819D01*
X167282857Y-105864819D02*
X167187619Y-105864819D01*
X167187619Y-105864819D02*
X167044762Y-105817200D01*
X167044762Y-105817200D02*
X166949524Y-105721961D01*
X166949524Y-105721961D02*
X166901905Y-105626723D01*
X166901905Y-105626723D02*
X166854286Y-105436247D01*
X166854286Y-105436247D02*
X166854286Y-105293390D01*
X166854286Y-105293390D02*
X166901905Y-105102914D01*
X166901905Y-105102914D02*
X166949524Y-105007676D01*
X166949524Y-105007676D02*
X167044762Y-104912438D01*
X167044762Y-104912438D02*
X167187619Y-104864819D01*
X167187619Y-104864819D02*
X167282857Y-104864819D01*
X167282857Y-104864819D02*
X167425714Y-104912438D01*
X167425714Y-104912438D02*
X167473333Y-104960057D01*
X168330476Y-104864819D02*
X168140000Y-104864819D01*
X168140000Y-104864819D02*
X168044762Y-104912438D01*
X168044762Y-104912438D02*
X167997143Y-104960057D01*
X167997143Y-104960057D02*
X167901905Y-105102914D01*
X167901905Y-105102914D02*
X167854286Y-105293390D01*
X167854286Y-105293390D02*
X167854286Y-105674342D01*
X167854286Y-105674342D02*
X167901905Y-105769580D01*
X167901905Y-105769580D02*
X167949524Y-105817200D01*
X167949524Y-105817200D02*
X168044762Y-105864819D01*
X168044762Y-105864819D02*
X168235238Y-105864819D01*
X168235238Y-105864819D02*
X168330476Y-105817200D01*
X168330476Y-105817200D02*
X168378095Y-105769580D01*
X168378095Y-105769580D02*
X168425714Y-105674342D01*
X168425714Y-105674342D02*
X168425714Y-105436247D01*
X168425714Y-105436247D02*
X168378095Y-105341009D01*
X168378095Y-105341009D02*
X168330476Y-105293390D01*
X168330476Y-105293390D02*
X168235238Y-105245771D01*
X168235238Y-105245771D02*
X168044762Y-105245771D01*
X168044762Y-105245771D02*
X167949524Y-105293390D01*
X167949524Y-105293390D02*
X167901905Y-105341009D01*
X167901905Y-105341009D02*
X167854286Y-105436247D01*
X178483333Y-106509580D02*
X178435714Y-106557200D01*
X178435714Y-106557200D02*
X178292857Y-106604819D01*
X178292857Y-106604819D02*
X178197619Y-106604819D01*
X178197619Y-106604819D02*
X178054762Y-106557200D01*
X178054762Y-106557200D02*
X177959524Y-106461961D01*
X177959524Y-106461961D02*
X177911905Y-106366723D01*
X177911905Y-106366723D02*
X177864286Y-106176247D01*
X177864286Y-106176247D02*
X177864286Y-106033390D01*
X177864286Y-106033390D02*
X177911905Y-105842914D01*
X177911905Y-105842914D02*
X177959524Y-105747676D01*
X177959524Y-105747676D02*
X178054762Y-105652438D01*
X178054762Y-105652438D02*
X178197619Y-105604819D01*
X178197619Y-105604819D02*
X178292857Y-105604819D01*
X178292857Y-105604819D02*
X178435714Y-105652438D01*
X178435714Y-105652438D02*
X178483333Y-105700057D01*
X178959524Y-106604819D02*
X179150000Y-106604819D01*
X179150000Y-106604819D02*
X179245238Y-106557200D01*
X179245238Y-106557200D02*
X179292857Y-106509580D01*
X179292857Y-106509580D02*
X179388095Y-106366723D01*
X179388095Y-106366723D02*
X179435714Y-106176247D01*
X179435714Y-106176247D02*
X179435714Y-105795295D01*
X179435714Y-105795295D02*
X179388095Y-105700057D01*
X179388095Y-105700057D02*
X179340476Y-105652438D01*
X179340476Y-105652438D02*
X179245238Y-105604819D01*
X179245238Y-105604819D02*
X179054762Y-105604819D01*
X179054762Y-105604819D02*
X178959524Y-105652438D01*
X178959524Y-105652438D02*
X178911905Y-105700057D01*
X178911905Y-105700057D02*
X178864286Y-105795295D01*
X178864286Y-105795295D02*
X178864286Y-106033390D01*
X178864286Y-106033390D02*
X178911905Y-106128628D01*
X178911905Y-106128628D02*
X178959524Y-106176247D01*
X178959524Y-106176247D02*
X179054762Y-106223866D01*
X179054762Y-106223866D02*
X179245238Y-106223866D01*
X179245238Y-106223866D02*
X179340476Y-106176247D01*
X179340476Y-106176247D02*
X179388095Y-106128628D01*
X179388095Y-106128628D02*
X179435714Y-106033390D01*
D11*
X183206654Y-130548742D02*
X183782387Y-130548742D01*
X182877664Y-130754361D02*
X183494521Y-130959980D01*
X183494521Y-130959980D02*
X183494521Y-130425371D01*
X182918787Y-129685142D02*
X182918787Y-130096380D01*
X182918787Y-130096380D02*
X183330025Y-130137504D01*
X183330025Y-130137504D02*
X183288902Y-130096380D01*
X183288902Y-130096380D02*
X183247778Y-130014133D01*
X183247778Y-130014133D02*
X183247778Y-129808514D01*
X183247778Y-129808514D02*
X183288902Y-129726266D01*
X183288902Y-129726266D02*
X183330025Y-129685142D01*
X183330025Y-129685142D02*
X183412273Y-129644019D01*
X183412273Y-129644019D02*
X183617892Y-129644019D01*
X183617892Y-129644019D02*
X183700140Y-129685142D01*
X183700140Y-129685142D02*
X183741264Y-129726266D01*
X183741264Y-129726266D02*
X183782387Y-129808514D01*
X183782387Y-129808514D02*
X183782387Y-130014133D01*
X183782387Y-130014133D02*
X183741264Y-130096380D01*
X183741264Y-130096380D02*
X183700140Y-130137504D01*
D12*
X122793983Y-81568773D02*
X121714483Y-81568773D01*
X121714483Y-81568773D02*
X121714483Y-81157535D01*
X121714483Y-81157535D02*
X121765888Y-81054725D01*
X121765888Y-81054725D02*
X121817293Y-81003320D01*
X121817293Y-81003320D02*
X121920102Y-80951916D01*
X121920102Y-80951916D02*
X122074317Y-80951916D01*
X122074317Y-80951916D02*
X122177126Y-81003320D01*
X122177126Y-81003320D02*
X122228531Y-81054725D01*
X122228531Y-81054725D02*
X122279936Y-81157535D01*
X122279936Y-81157535D02*
X122279936Y-81568773D01*
X122177126Y-80335058D02*
X122125721Y-80437868D01*
X122125721Y-80437868D02*
X122074317Y-80489273D01*
X122074317Y-80489273D02*
X121971507Y-80540677D01*
X121971507Y-80540677D02*
X121920102Y-80540677D01*
X121920102Y-80540677D02*
X121817293Y-80489273D01*
X121817293Y-80489273D02*
X121765888Y-80437868D01*
X121765888Y-80437868D02*
X121714483Y-80335058D01*
X121714483Y-80335058D02*
X121714483Y-80129439D01*
X121714483Y-80129439D02*
X121765888Y-80026630D01*
X121765888Y-80026630D02*
X121817293Y-79975225D01*
X121817293Y-79975225D02*
X121920102Y-79923820D01*
X121920102Y-79923820D02*
X121971507Y-79923820D01*
X121971507Y-79923820D02*
X122074317Y-79975225D01*
X122074317Y-79975225D02*
X122125721Y-80026630D01*
X122125721Y-80026630D02*
X122177126Y-80129439D01*
X122177126Y-80129439D02*
X122177126Y-80335058D01*
X122177126Y-80335058D02*
X122228531Y-80437868D01*
X122228531Y-80437868D02*
X122279936Y-80489273D01*
X122279936Y-80489273D02*
X122382745Y-80540677D01*
X122382745Y-80540677D02*
X122588364Y-80540677D01*
X122588364Y-80540677D02*
X122691174Y-80489273D01*
X122691174Y-80489273D02*
X122742579Y-80437868D01*
X122742579Y-80437868D02*
X122793983Y-80335058D01*
X122793983Y-80335058D02*
X122793983Y-80129439D01*
X122793983Y-80129439D02*
X122742579Y-80026630D01*
X122742579Y-80026630D02*
X122691174Y-79975225D01*
X122691174Y-79975225D02*
X122588364Y-79923820D01*
X122588364Y-79923820D02*
X122382745Y-79923820D01*
X122382745Y-79923820D02*
X122279936Y-79975225D01*
X122279936Y-79975225D02*
X122228531Y-80026630D01*
X122228531Y-80026630D02*
X122177126Y-80129439D01*
D11*
X183206654Y-79748742D02*
X183782387Y-79748742D01*
X182877664Y-79954361D02*
X183494521Y-80159980D01*
X183494521Y-80159980D02*
X183494521Y-79625371D01*
X182918787Y-78926266D02*
X182918787Y-79090761D01*
X182918787Y-79090761D02*
X182959911Y-79173009D01*
X182959911Y-79173009D02*
X183001035Y-79214133D01*
X183001035Y-79214133D02*
X183124406Y-79296380D01*
X183124406Y-79296380D02*
X183288902Y-79337504D01*
X183288902Y-79337504D02*
X183617892Y-79337504D01*
X183617892Y-79337504D02*
X183700140Y-79296380D01*
X183700140Y-79296380D02*
X183741264Y-79255257D01*
X183741264Y-79255257D02*
X183782387Y-79173009D01*
X183782387Y-79173009D02*
X183782387Y-79008514D01*
X183782387Y-79008514D02*
X183741264Y-78926266D01*
X183741264Y-78926266D02*
X183700140Y-78885142D01*
X183700140Y-78885142D02*
X183617892Y-78844019D01*
X183617892Y-78844019D02*
X183412273Y-78844019D01*
X183412273Y-78844019D02*
X183330025Y-78885142D01*
X183330025Y-78885142D02*
X183288902Y-78926266D01*
X183288902Y-78926266D02*
X183247778Y-79008514D01*
X183247778Y-79008514D02*
X183247778Y-79173009D01*
X183247778Y-79173009D02*
X183288902Y-79255257D01*
X183288902Y-79255257D02*
X183330025Y-79296380D01*
X183330025Y-79296380D02*
X183412273Y-79337504D01*
D12*
X122793983Y-129828773D02*
X121714483Y-129828773D01*
X121714483Y-129828773D02*
X121714483Y-129417535D01*
X121714483Y-129417535D02*
X121765888Y-129314725D01*
X121765888Y-129314725D02*
X121817293Y-129263320D01*
X121817293Y-129263320D02*
X121920102Y-129211916D01*
X121920102Y-129211916D02*
X122074317Y-129211916D01*
X122074317Y-129211916D02*
X122177126Y-129263320D01*
X122177126Y-129263320D02*
X122228531Y-129314725D01*
X122228531Y-129314725D02*
X122279936Y-129417535D01*
X122279936Y-129417535D02*
X122279936Y-129828773D01*
X122793983Y-128697868D02*
X122793983Y-128492249D01*
X122793983Y-128492249D02*
X122742579Y-128389439D01*
X122742579Y-128389439D02*
X122691174Y-128338035D01*
X122691174Y-128338035D02*
X122536959Y-128235225D01*
X122536959Y-128235225D02*
X122331340Y-128183820D01*
X122331340Y-128183820D02*
X121920102Y-128183820D01*
X121920102Y-128183820D02*
X121817293Y-128235225D01*
X121817293Y-128235225D02*
X121765888Y-128286630D01*
X121765888Y-128286630D02*
X121714483Y-128389439D01*
X121714483Y-128389439D02*
X121714483Y-128595058D01*
X121714483Y-128595058D02*
X121765888Y-128697868D01*
X121765888Y-128697868D02*
X121817293Y-128749273D01*
X121817293Y-128749273D02*
X121920102Y-128800677D01*
X121920102Y-128800677D02*
X122177126Y-128800677D01*
X122177126Y-128800677D02*
X122279936Y-128749273D01*
X122279936Y-128749273D02*
X122331340Y-128697868D01*
X122331340Y-128697868D02*
X122382745Y-128595058D01*
X122382745Y-128595058D02*
X122382745Y-128389439D01*
X122382745Y-128389439D02*
X122331340Y-128286630D01*
X122331340Y-128286630D02*
X122279936Y-128235225D01*
X122279936Y-128235225D02*
X122177126Y-128183820D01*
D11*
X124092387Y-130055257D02*
X124092387Y-130548742D01*
X124092387Y-130301999D02*
X123228787Y-130301999D01*
X123228787Y-130301999D02*
X123352159Y-130384247D01*
X123352159Y-130384247D02*
X123434406Y-130466495D01*
X123434406Y-130466495D02*
X123475530Y-130548742D01*
D12*
X124063983Y-81733570D02*
X124063983Y-82350427D01*
X124063983Y-82041999D02*
X122984483Y-82041999D01*
X122984483Y-82041999D02*
X123138698Y-82144808D01*
X123138698Y-82144808D02*
X123241507Y-82247618D01*
X123241507Y-82247618D02*
X123292912Y-82350427D01*
D11*
X183206654Y-128008742D02*
X183782387Y-128008742D01*
X182877664Y-128214361D02*
X183494521Y-128419980D01*
X183494521Y-128419980D02*
X183494521Y-127885371D01*
X182918787Y-127186266D02*
X182918787Y-127350761D01*
X182918787Y-127350761D02*
X182959911Y-127433009D01*
X182959911Y-127433009D02*
X183001035Y-127474133D01*
X183001035Y-127474133D02*
X183124406Y-127556380D01*
X183124406Y-127556380D02*
X183288902Y-127597504D01*
X183288902Y-127597504D02*
X183617892Y-127597504D01*
X183617892Y-127597504D02*
X183700140Y-127556380D01*
X183700140Y-127556380D02*
X183741264Y-127515257D01*
X183741264Y-127515257D02*
X183782387Y-127433009D01*
X183782387Y-127433009D02*
X183782387Y-127268514D01*
X183782387Y-127268514D02*
X183741264Y-127186266D01*
X183741264Y-127186266D02*
X183700140Y-127145142D01*
X183700140Y-127145142D02*
X183617892Y-127104019D01*
X183617892Y-127104019D02*
X183412273Y-127104019D01*
X183412273Y-127104019D02*
X183330025Y-127145142D01*
X183330025Y-127145142D02*
X183288902Y-127186266D01*
X183288902Y-127186266D02*
X183247778Y-127268514D01*
X183247778Y-127268514D02*
X183247778Y-127433009D01*
X183247778Y-127433009D02*
X183288902Y-127515257D01*
X183288902Y-127515257D02*
X183330025Y-127556380D01*
X183330025Y-127556380D02*
X183412273Y-127597504D01*
X123311035Y-128008742D02*
X123269911Y-127967618D01*
X123269911Y-127967618D02*
X123228787Y-127885371D01*
X123228787Y-127885371D02*
X123228787Y-127679752D01*
X123228787Y-127679752D02*
X123269911Y-127597504D01*
X123269911Y-127597504D02*
X123311035Y-127556380D01*
X123311035Y-127556380D02*
X123393283Y-127515257D01*
X123393283Y-127515257D02*
X123475530Y-127515257D01*
X123475530Y-127515257D02*
X123598902Y-127556380D01*
X123598902Y-127556380D02*
X124092387Y-128049866D01*
X124092387Y-128049866D02*
X124092387Y-127515257D01*
X123311035Y-79748742D02*
X123269911Y-79707618D01*
X123269911Y-79707618D02*
X123228787Y-79625371D01*
X123228787Y-79625371D02*
X123228787Y-79419752D01*
X123228787Y-79419752D02*
X123269911Y-79337504D01*
X123269911Y-79337504D02*
X123311035Y-79296380D01*
X123311035Y-79296380D02*
X123393283Y-79255257D01*
X123393283Y-79255257D02*
X123475530Y-79255257D01*
X123475530Y-79255257D02*
X123598902Y-79296380D01*
X123598902Y-79296380D02*
X124092387Y-79789866D01*
X124092387Y-79789866D02*
X124092387Y-79255257D01*
X183206654Y-82288742D02*
X183782387Y-82288742D01*
X182877664Y-82494361D02*
X183494521Y-82699980D01*
X183494521Y-82699980D02*
X183494521Y-82165371D01*
X182918787Y-81425142D02*
X182918787Y-81836380D01*
X182918787Y-81836380D02*
X183330025Y-81877504D01*
X183330025Y-81877504D02*
X183288902Y-81836380D01*
X183288902Y-81836380D02*
X183247778Y-81754133D01*
X183247778Y-81754133D02*
X183247778Y-81548514D01*
X183247778Y-81548514D02*
X183288902Y-81466266D01*
X183288902Y-81466266D02*
X183330025Y-81425142D01*
X183330025Y-81425142D02*
X183412273Y-81384019D01*
X183412273Y-81384019D02*
X183617892Y-81384019D01*
X183617892Y-81384019D02*
X183700140Y-81425142D01*
X183700140Y-81425142D02*
X183741264Y-81466266D01*
X183741264Y-81466266D02*
X183782387Y-81548514D01*
X183782387Y-81548514D02*
X183782387Y-81754133D01*
X183782387Y-81754133D02*
X183741264Y-81836380D01*
X183741264Y-81836380D02*
X183700140Y-81877504D01*
D13*
X173000000Y-112440000D02*
X171050000Y-112440000D01*
X173000000Y-112440000D02*
X174950000Y-112440000D01*
X173000000Y-117560000D02*
X171050000Y-117560000D01*
X173000000Y-117560000D02*
X174950000Y-117560000D01*
X170300000Y-112535000D02*
X170060000Y-112205000D01*
X170540000Y-112205000D01*
X170300000Y-112535000D01*
G36*
X170300000Y-112535000D02*
G01*
X170060000Y-112205000D01*
X170540000Y-112205000D01*
X170300000Y-112535000D01*
G37*
X173000000Y-100440000D02*
X171050000Y-100440000D01*
X173000000Y-100440000D02*
X174950000Y-100440000D01*
X173000000Y-105560000D02*
X171050000Y-105560000D01*
X173000000Y-105560000D02*
X174950000Y-105560000D01*
X170300000Y-100535000D02*
X170060000Y-100205000D01*
X170540000Y-100205000D01*
X170300000Y-100535000D01*
G36*
X170300000Y-100535000D02*
G01*
X170060000Y-100205000D01*
X170540000Y-100205000D01*
X170300000Y-100535000D01*
G37*
X173000000Y-86440000D02*
X171050000Y-86440000D01*
X173000000Y-86440000D02*
X174950000Y-86440000D01*
X173000000Y-91560000D02*
X171050000Y-91560000D01*
X173000000Y-91560000D02*
X174950000Y-91560000D01*
X170300000Y-86535000D02*
X170060000Y-86205000D01*
X170540000Y-86205000D01*
X170300000Y-86535000D01*
G36*
X170300000Y-86535000D02*
G01*
X170060000Y-86205000D01*
X170540000Y-86205000D01*
X170300000Y-86535000D01*
G37*
X135000000Y-107440000D02*
X133050000Y-107440000D01*
X135000000Y-107440000D02*
X136950000Y-107440000D01*
X135000000Y-112560000D02*
X133050000Y-112560000D01*
X135000000Y-112560000D02*
X136950000Y-112560000D01*
X132300000Y-107535000D02*
X132060000Y-107205000D01*
X132540000Y-107205000D01*
X132300000Y-107535000D01*
G36*
X132300000Y-107535000D02*
G01*
X132060000Y-107205000D01*
X132540000Y-107205000D01*
X132300000Y-107535000D01*
G37*
X135000000Y-86440000D02*
X133050000Y-86440000D01*
X135000000Y-86440000D02*
X136950000Y-86440000D01*
X135000000Y-91560000D02*
X133050000Y-91560000D01*
X135000000Y-91560000D02*
X136950000Y-91560000D01*
X132300000Y-86535000D02*
X132060000Y-86205000D01*
X132540000Y-86205000D01*
X132300000Y-86535000D01*
G36*
X132300000Y-86535000D02*
G01*
X132060000Y-86205000D01*
X132540000Y-86205000D01*
X132300000Y-86535000D01*
G37*
X182370000Y-90295000D02*
X183700000Y-90295000D01*
X182370000Y-91625000D02*
X182370000Y-90295000D01*
X182370000Y-92895000D02*
X182370000Y-115815000D01*
X182370000Y-92895000D02*
X185030000Y-92895000D01*
X182370000Y-115815000D02*
X185030000Y-115815000D01*
X185030000Y-92895000D02*
X185030000Y-115815000D01*
X141435000Y-88788748D02*
X141435000Y-89311252D01*
X139965000Y-88788748D02*
X139965000Y-89311252D01*
X166651000Y-89161252D02*
X166651000Y-88638748D01*
X168121000Y-89161252D02*
X168121000Y-88638748D01*
X129059000Y-110010752D02*
X129059000Y-109488248D01*
X130529000Y-110010752D02*
X130529000Y-109488248D01*
X129059000Y-88399252D02*
X129059000Y-87876748D01*
X130529000Y-88399252D02*
X130529000Y-87876748D01*
X179235000Y-88776248D02*
X179235000Y-89298752D01*
X177765000Y-88776248D02*
X177765000Y-89298752D01*
X166651000Y-114561252D02*
X166651000Y-114038748D01*
X168121000Y-114561252D02*
X168121000Y-114038748D01*
X179085000Y-114638748D02*
X179085000Y-115161252D01*
X177615000Y-114638748D02*
X177615000Y-115161252D01*
X141235000Y-109588748D02*
X141235000Y-110111252D01*
X139765000Y-109588748D02*
X139765000Y-110111252D01*
X166905000Y-102898752D02*
X166905000Y-102376248D01*
X168375000Y-102898752D02*
X168375000Y-102376248D01*
X179185000Y-102888748D02*
X179185000Y-103411252D01*
X177715000Y-102888748D02*
X177715000Y-103411252D01*
M02*
