M48
; DRILL file {KiCad 8.0.6} date 2025-01-18T11:31:29-0500
; FORMAT={-:-/ absolute / inch / decimal}
; #@! TF.CreationDate,2025-01-18T11:31:29-05:00
; #@! TF.GenerationSoftware,Kicad,Pcbnew,8.0.6
; #@! TF.FileFunction,Plated,1,2,PTH
FMAT,2
INCH
; #@! TA.AperFunction,Plated,PTH,ViaDrill
T1C0.0157
; #@! TA.AperFunction,Plated,PTH,ComponentDrill
T2C0.0315
; #@! TA.AperFunction,Plated,PTH,ComponentDrill
T3C0.0362
; #@! TA.AperFunction,Plated,PTH,ComponentDrill
T4C0.0394
; #@! TA.AperFunction,Plated,PTH,ComponentDrill
T5C0.0400
; #@! TA.AperFunction,Plated,PTH,ComponentDrill
T6C0.0917
; #@! TA.AperFunction,Plated,PTH,ComponentDrill
T7C0.1063
; #@! TA.AperFunction,Plated,PTH,ComponentDrill
T8C0.1180
; #@! TA.AperFunction,Plated,PTH,ComponentDrill
T9C0.1300
%
G90
G05
T1
X3.3018Y-3.9862
X3.7089Y-3.4248
X3.751Y-3.3994
X3.9016Y-5.877
X4.0684Y-4.4267
X4.2421Y-4.4646
X4.3457Y-5.5409
X4.3661Y-3.9862
X4.392Y-5.4753
X4.4546Y-3.9964
X4.4835Y-3.9659
X4.5167Y-4.8624
X4.5614Y-3.9773
X4.6085Y-3.9202
X4.6715Y-5.0765
X4.6825Y-3.8679
X4.6929Y-3.9783
X4.7Y-4.6364
X4.7519Y-3.8654
X4.7588Y-6.189
X4.7638Y-4.5085
X4.7913Y-3.8587
X4.8165Y-3.7992
X4.8187Y-4.3674
X4.8371Y-4.2869
X4.8375Y-4.7827
X4.8427Y-4.7068
X4.8469Y-4.4286
X4.8491Y-4.5713
X4.8513Y-4.3895
X4.864Y-4.4756
X4.8681Y-5.7579
X4.8727Y-4.7372
X4.9016Y-4.3209
X4.9173Y-5.6949
X4.937Y-4.4434
X4.9409Y-6.185
X4.9505Y-3.3445
X4.9562Y-4.3494
X4.9649Y-3.3993
X4.9843Y-5.8543
X4.9918Y-4.4707
X5.0005Y-3.8508
X5.003Y-3.8115
X5.0098Y-4.374
X5.0207Y-3.7224
X5.0355Y-4.7343
X5.0355Y-4.2923
X5.0394Y-4.4232
X5.0394Y-5.0765
X5.0591Y-5.6969
X5.1033Y-4.5246
X5.1127Y-4.3479
X5.1201Y-4.3957
X5.126Y-4.4882
X5.1732Y-5.6575
X5.1811Y-6.1063
X5.2461Y-3.8799
X5.2471Y-4.0443
X5.2559Y-4.1342
X5.2579Y-3.9882
X5.2638Y-5.7559
X5.2645Y-3.9147
X5.3049Y-4.0199
X5.3248Y-5.6575
X5.3445Y-4.1043
X5.378Y-6.0335
X5.3898Y-4.2697
X5.4301Y-6.1191
X5.5256Y-6.2146
X6.4511Y-3.5238
T2
X3.1455Y-3.5787
X3.3376Y-3.5787
X3.4705Y-5.8888
X3.5689Y-5.8888
X3.7978Y-6.1831
X3.7978Y-6.2815
X4.1488Y-4.5669
X4.1488Y-4.7244
X4.1488Y-4.8819
X4.1488Y-5.0394
X4.1488Y-5.1969
X4.4488Y-4.5669
X4.4488Y-4.7244
X4.4488Y-4.8819
X4.4488Y-5.0394
X4.4488Y-5.1969
X4.8287Y-2.9331
X4.9075Y-2.9331
X4.9862Y-2.9331
X5.065Y-2.9331
X5.1437Y-2.9331
X5.7126Y-4.6831
X5.7126Y-4.7831
X5.7126Y-4.8831
X5.7126Y-4.9831
X5.8059Y-3.3819
X5.8059Y-3.4819
X5.8059Y-3.5819
X5.8059Y-3.6819
X5.8059Y-3.7819
X5.8059Y-3.8819
X6.0126Y-4.6831
X6.0126Y-4.7831
X6.0126Y-4.8831
X6.0126Y-4.9831
X6.6059Y-3.3819
X6.6059Y-3.4819
X6.6059Y-3.5819
X6.6059Y-3.6819
X6.6059Y-3.7819
X6.6059Y-3.8819
T3
X3.622Y-2.9677
X3.622Y-3.0465
X3.7205Y-2.9677
X3.7205Y-3.0465
T4
X3.0709Y-4.2126
X3.0709Y-4.3126
X3.0709Y-4.4126
X3.0709Y-4.5126
X3.0709Y-4.6126
X3.6122Y-5.2146
X3.6122Y-5.3146
X3.937Y-4.3701
X3.937Y-4.4701
X3.937Y-4.5701
X3.937Y-4.6701
X3.937Y-4.7701
X3.937Y-4.8701
X3.937Y-4.9701
X3.937Y-5.0701
X3.937Y-5.1701
X4.5839Y-6.2992
X4.5839Y-6.3992
X4.6839Y-6.2992
X4.6839Y-6.3992
X4.7839Y-6.2992
X4.7839Y-6.3992
X4.8839Y-6.2992
X4.8839Y-6.3992
X4.9839Y-6.2992
X4.9839Y-6.3992
X5.0839Y-6.2992
X5.0839Y-6.3992
X5.1839Y-6.2992
X5.1839Y-6.3992
X5.2839Y-6.2992
X5.2839Y-6.3992
X5.3839Y-6.2992
X5.3839Y-6.3992
X5.4839Y-6.2992
X5.4839Y-6.3992
X5.5839Y-6.2992
X5.5839Y-6.3992
X5.6839Y-6.2992
X5.6839Y-6.3992
X5.7839Y-6.2992
X5.7839Y-6.3992
X5.9085Y-5.563
X6.0085Y-5.563
T5
X3.0669Y-5.0941
X3.0669Y-5.2721
X3.3229Y-5.0941
X3.3229Y-5.2721
X6.2768Y-4.7446
X6.2768Y-4.8526
X6.2768Y-4.9606
X6.2768Y-5.0686
X6.2768Y-5.1766
X6.3768Y-4.7986
X6.3768Y-4.9066
X6.3768Y-5.0146
X6.3768Y-5.1226
T6
X3.4343Y-2.861
X3.9083Y-2.861
T7
X3.0709Y-2.874
X3.0709Y-6.1811
X6.2991Y-6.167
X6.378Y-2.874
T8
X3.065Y-5.6693
X3.1831Y-5.8543
X3.3012Y-5.6693
T9
X6.3268Y-4.4676
X6.3268Y-5.4536
M30
