G04 #@! TF.GenerationSoftware,KiCad,Pcbnew,8.0.6*
G04 #@! TF.CreationDate,2025-01-16T23:29:27-05:00*
G04 #@! TF.ProjectId,RL78_F14_48p_Rev2,524c3738-5f46-4313-945f-3438705f5265,rev?*
G04 #@! TF.SameCoordinates,Original*
G04 #@! TF.FileFunction,Paste,Top*
G04 #@! TF.FilePolarity,Positive*
%FSLAX46Y46*%
G04 Gerber Fmt 4.6, Leading zero omitted, Abs format (unit mm)*
G04 Created by KiCad (PCBNEW 8.0.6) date 2025-01-16 23:29:27*
%MOMM*%
%LPD*%
G01*
G04 APERTURE LIST*
G04 Aperture macros list*
%AMRoundRect*
0 Rectangle with rounded corners*
0 $1 Rounding radius*
0 $2 $3 $4 $5 $6 $7 $8 $9 X,Y pos of 4 corners*
0 Add a 4 corners polygon primitive as box body*
4,1,4,$2,$3,$4,$5,$6,$7,$8,$9,$2,$3,0*
0 Add four circle primitives for the rounded corners*
1,1,$1+$1,$2,$3*
1,1,$1+$1,$4,$5*
1,1,$1+$1,$6,$7*
1,1,$1+$1,$8,$9*
0 Add four rect primitives between the rounded corners*
20,1,$1+$1,$2,$3,$4,$5,0*
20,1,$1+$1,$4,$5,$6,$7,0*
20,1,$1+$1,$6,$7,$8,$9,0*
20,1,$1+$1,$8,$9,$2,$3,0*%
G04 Aperture macros list end*
%ADD10RoundRect,0.250000X-0.337500X-0.475000X0.337500X-0.475000X0.337500X0.475000X-0.337500X0.475000X0*%
%ADD11RoundRect,0.250000X-0.262500X-0.450000X0.262500X-0.450000X0.262500X0.450000X-0.262500X0.450000X0*%
%ADD12RoundRect,0.250000X0.475000X-0.337500X0.475000X0.337500X-0.475000X0.337500X-0.475000X-0.337500X0*%
%ADD13RoundRect,0.150000X-0.825000X-0.150000X0.825000X-0.150000X0.825000X0.150000X-0.825000X0.150000X0*%
%ADD14RoundRect,0.250000X-0.250000X-0.250000X0.250000X-0.250000X0.250000X0.250000X-0.250000X0.250000X0*%
%ADD15RoundRect,0.062500X-0.412500X-0.062500X0.412500X-0.062500X0.412500X0.062500X-0.412500X0.062500X0*%
%ADD16RoundRect,0.062500X-0.062500X-0.412500X0.062500X-0.412500X0.062500X0.412500X-0.062500X0.412500X0*%
%ADD17RoundRect,0.250000X-0.450000X0.262500X-0.450000X-0.262500X0.450000X-0.262500X0.450000X0.262500X0*%
%ADD18RoundRect,0.250000X0.450000X-0.350000X0.450000X0.350000X-0.450000X0.350000X-0.450000X-0.350000X0*%
%ADD19R,1.460500X0.533400*%
%ADD20RoundRect,0.250000X0.262500X0.450000X-0.262500X0.450000X-0.262500X-0.450000X0.262500X-0.450000X0*%
%ADD21RoundRect,0.250000X-0.475000X0.337500X-0.475000X-0.337500X0.475000X-0.337500X0.475000X0.337500X0*%
%ADD22RoundRect,0.250000X0.337500X0.475000X-0.337500X0.475000X-0.337500X-0.475000X0.337500X-0.475000X0*%
%ADD23RoundRect,0.249999X-0.450001X-1.425001X0.450001X-1.425001X0.450001X1.425001X-0.450001X1.425001X0*%
%ADD24RoundRect,0.375000X-0.625000X-0.375000X0.625000X-0.375000X0.625000X0.375000X-0.625000X0.375000X0*%
%ADD25RoundRect,0.500000X-0.500000X-1.400000X0.500000X-1.400000X0.500000X1.400000X-0.500000X1.400000X0*%
G04 APERTURE END LIST*
D10*
X88862500Y-143150000D03*
X90937500Y-143150000D03*
D11*
X87087500Y-107000000D03*
X88912500Y-107000000D03*
D12*
X87325000Y-84737500D03*
X87325000Y-82662500D03*
D13*
X108475000Y-136467500D03*
X108475000Y-137737500D03*
X108475000Y-139007500D03*
X108475000Y-140277500D03*
X108475000Y-141547500D03*
X108475000Y-142817500D03*
X108475000Y-144087500D03*
X113425000Y-144087500D03*
X113425000Y-142817500D03*
X113425000Y-141547500D03*
X113425000Y-140277500D03*
X113425000Y-139007500D03*
X113425000Y-137737500D03*
X113425000Y-136467500D03*
D14*
X122420000Y-101145000D03*
X122420000Y-102385000D03*
X122420000Y-103625000D03*
X122420000Y-104865000D03*
X122420000Y-106105000D03*
X123660000Y-101145000D03*
X123660000Y-102385000D03*
X123660000Y-103625000D03*
X123660000Y-104865000D03*
X123660000Y-106105000D03*
X124900000Y-101145000D03*
X124900000Y-102385000D03*
X124900000Y-103625000D03*
X124900000Y-104865000D03*
X124900000Y-106105000D03*
X126140000Y-101145000D03*
X126140000Y-102385000D03*
X126140000Y-103625000D03*
X126140000Y-104865000D03*
X126140000Y-106105000D03*
X127380000Y-101145000D03*
X127380000Y-102385000D03*
X127380000Y-103625000D03*
X127380000Y-104865000D03*
X127380000Y-106105000D03*
D15*
X121025000Y-100875000D03*
X121025000Y-101375000D03*
X121025000Y-101875000D03*
X121025000Y-102375000D03*
X121025000Y-102875000D03*
X121025000Y-103375000D03*
X121025000Y-103875000D03*
X121025000Y-104375000D03*
X121025000Y-104875000D03*
X121025000Y-105375000D03*
X121025000Y-105875000D03*
X121025000Y-106375000D03*
D16*
X122150000Y-107500000D03*
X122650000Y-107500000D03*
X123150000Y-107500000D03*
X123650000Y-107500000D03*
X124150000Y-107500000D03*
X124650000Y-107500000D03*
X125150000Y-107500000D03*
X125650000Y-107500000D03*
X126150000Y-107500000D03*
X126650000Y-107500000D03*
X127150000Y-107500000D03*
X127650000Y-107500000D03*
D15*
X128775000Y-106375000D03*
X128775000Y-105875000D03*
X128775000Y-105375000D03*
X128775000Y-104875000D03*
X128775000Y-104375000D03*
X128775000Y-103875000D03*
X128775000Y-103375000D03*
X128775000Y-102875000D03*
X128775000Y-102375000D03*
X128775000Y-101875000D03*
X128775000Y-101375000D03*
X128775000Y-100875000D03*
D16*
X127650000Y-99750000D03*
X127150000Y-99750000D03*
X126650000Y-99750000D03*
X126150000Y-99750000D03*
X125650000Y-99750000D03*
X125150000Y-99750000D03*
X124650000Y-99750000D03*
X124150000Y-99750000D03*
X123650000Y-99750000D03*
X123150000Y-99750000D03*
X122650000Y-99750000D03*
X122150000Y-99750000D03*
D17*
X81880000Y-112167500D03*
X81880000Y-113992500D03*
D10*
X99687500Y-82650000D03*
X101762500Y-82650000D03*
D18*
X84450000Y-126700000D03*
X84450000Y-124700000D03*
D11*
X95087500Y-109950000D03*
X96912500Y-109950000D03*
D19*
X120900050Y-118330000D03*
X120900050Y-119600000D03*
X120900050Y-120870000D03*
X120900050Y-122140000D03*
X126348350Y-122140000D03*
X126348350Y-120870000D03*
X126348350Y-119600000D03*
X126348350Y-118330000D03*
D10*
X126362500Y-115650000D03*
X128437500Y-115650000D03*
D11*
X87087500Y-112000000D03*
X88912500Y-112000000D03*
D20*
X130912500Y-124000000D03*
X129087500Y-124000000D03*
D21*
X116550000Y-106362500D03*
X116550000Y-108437500D03*
D20*
X130912500Y-119000000D03*
X129087500Y-119000000D03*
D10*
X152662500Y-129850000D03*
X154737500Y-129850000D03*
D13*
X91950000Y-82680000D03*
X91950000Y-83950000D03*
X91950000Y-85220000D03*
X91950000Y-86490000D03*
X91950000Y-87760000D03*
X91950000Y-89030000D03*
X91950000Y-90300000D03*
X91950000Y-91570000D03*
X96900000Y-91570000D03*
X96900000Y-90300000D03*
X96900000Y-89030000D03*
X96900000Y-87760000D03*
X96900000Y-86490000D03*
X96900000Y-85220000D03*
X96900000Y-83950000D03*
X96900000Y-82680000D03*
D10*
X116400000Y-136550000D03*
X118475000Y-136550000D03*
D21*
X89605000Y-156812500D03*
X89605000Y-158887500D03*
D22*
X85012500Y-95900000D03*
X82937500Y-95900000D03*
D12*
X155800000Y-126600000D03*
X155800000Y-124525000D03*
D10*
X79900000Y-85750000D03*
X81975000Y-85750000D03*
D17*
X81820000Y-106967500D03*
X81820000Y-108792500D03*
D23*
X148250000Y-135600000D03*
X154350000Y-135600000D03*
D24*
X96405000Y-146977500D03*
X96405000Y-149277500D03*
D25*
X102705000Y-149277500D03*
D24*
X96405000Y-151577500D03*
D22*
X121037500Y-110600000D03*
X118962500Y-110600000D03*
D11*
X95187500Y-114600000D03*
X97012500Y-114600000D03*
D20*
X130912500Y-121500000D03*
X129087500Y-121500000D03*
M02*
