G04 #@! TF.GenerationSoftware,KiCad,Pcbnew,8.0.6*
G04 #@! TF.CreationDate,2025-01-18T11:31:26-05:00*
G04 #@! TF.ProjectId,RL78_F14_48p_Rev2,524c3738-5f46-4313-945f-3438705f5265,rev?*
G04 #@! TF.SameCoordinates,Original*
G04 #@! TF.FileFunction,Copper,L2,Bot*
G04 #@! TF.FilePolarity,Positive*
%FSLAX46Y46*%
G04 Gerber Fmt 4.6, Leading zero omitted, Abs format (unit mm)*
G04 Created by KiCad (PCBNEW 8.0.6) date 2025-01-18 11:31:26*
%MOMM*%
%LPD*%
G01*
G04 APERTURE LIST*
%ADD10C,0.300000*%
G04 #@! TA.AperFunction,NonConductor*
%ADD11C,0.300000*%
G04 #@! TD*
G04 #@! TA.AperFunction,ComponentPad*
%ADD12C,4.700000*%
G04 #@! TD*
G04 #@! TA.AperFunction,ComponentPad*
%ADD13C,4.318000*%
G04 #@! TD*
G04 #@! TA.AperFunction,ComponentPad*
%ADD14R,1.600000X1.600000*%
G04 #@! TD*
G04 #@! TA.AperFunction,ComponentPad*
%ADD15O,1.600000X1.600000*%
G04 #@! TD*
G04 #@! TA.AperFunction,ComponentPad*
%ADD16C,1.500000*%
G04 #@! TD*
G04 #@! TA.AperFunction,ComponentPad*
%ADD17C,1.600000*%
G04 #@! TD*
G04 #@! TA.AperFunction,ComponentPad*
%ADD18R,1.700000X1.700000*%
G04 #@! TD*
G04 #@! TA.AperFunction,ComponentPad*
%ADD19O,1.700000X1.700000*%
G04 #@! TD*
G04 #@! TA.AperFunction,ComponentPad*
%ADD20C,1.700000*%
G04 #@! TD*
G04 #@! TA.AperFunction,ComponentPad*
%ADD21C,3.500000*%
G04 #@! TD*
G04 #@! TA.AperFunction,ComponentPad*
%ADD22R,2.400000X1.600000*%
G04 #@! TD*
G04 #@! TA.AperFunction,ComponentPad*
%ADD23O,2.400000X1.600000*%
G04 #@! TD*
G04 #@! TA.AperFunction,ComponentPad*
%ADD24R,1.350000X1.350000*%
G04 #@! TD*
G04 #@! TA.AperFunction,ComponentPad*
%ADD25O,1.350000X1.350000*%
G04 #@! TD*
G04 #@! TA.AperFunction,ComponentPad*
%ADD26O,3.048000X1.524000*%
G04 #@! TD*
G04 #@! TA.AperFunction,ComponentPad*
%ADD27C,1.524000*%
G04 #@! TD*
G04 #@! TA.AperFunction,ComponentPad*
%ADD28C,5.080000*%
G04 #@! TD*
G04 #@! TA.AperFunction,ViaPad*
%ADD29C,0.800000*%
G04 #@! TD*
G04 #@! TA.AperFunction,Conductor*
%ADD30C,0.500000*%
G04 #@! TD*
G04 #@! TA.AperFunction,Conductor*
%ADD31C,0.250000*%
G04 #@! TD*
G04 APERTURE END LIST*
D10*
D11*
X131349999Y-71553328D02*
X131349999Y-70053328D01*
X131349999Y-70053328D02*
X130849999Y-71124757D01*
X130849999Y-71124757D02*
X130349999Y-70053328D01*
X130349999Y-70053328D02*
X130349999Y-71553328D01*
X129635713Y-71553328D02*
X129635713Y-70553328D01*
X129635713Y-70053328D02*
X129707141Y-70124757D01*
X129707141Y-70124757D02*
X129635713Y-70196185D01*
X129635713Y-70196185D02*
X129564284Y-70124757D01*
X129564284Y-70124757D02*
X129635713Y-70053328D01*
X129635713Y-70053328D02*
X129635713Y-70196185D01*
X128278570Y-71481900D02*
X128421427Y-71553328D01*
X128421427Y-71553328D02*
X128707141Y-71553328D01*
X128707141Y-71553328D02*
X128849998Y-71481900D01*
X128849998Y-71481900D02*
X128921427Y-71410471D01*
X128921427Y-71410471D02*
X128992855Y-71267614D01*
X128992855Y-71267614D02*
X128992855Y-70839042D01*
X128992855Y-70839042D02*
X128921427Y-70696185D01*
X128921427Y-70696185D02*
X128849998Y-70624757D01*
X128849998Y-70624757D02*
X128707141Y-70553328D01*
X128707141Y-70553328D02*
X128421427Y-70553328D01*
X128421427Y-70553328D02*
X128278570Y-70624757D01*
X127635713Y-71553328D02*
X127635713Y-70053328D01*
X126992856Y-71553328D02*
X126992856Y-70767614D01*
X126992856Y-70767614D02*
X127064284Y-70624757D01*
X127064284Y-70624757D02*
X127207141Y-70553328D01*
X127207141Y-70553328D02*
X127421427Y-70553328D01*
X127421427Y-70553328D02*
X127564284Y-70624757D01*
X127564284Y-70624757D02*
X127635713Y-70696185D01*
X125707141Y-71481900D02*
X125849998Y-71553328D01*
X125849998Y-71553328D02*
X126135713Y-71553328D01*
X126135713Y-71553328D02*
X126278570Y-71481900D01*
X126278570Y-71481900D02*
X126349998Y-71339042D01*
X126349998Y-71339042D02*
X126349998Y-70767614D01*
X126349998Y-70767614D02*
X126278570Y-70624757D01*
X126278570Y-70624757D02*
X126135713Y-70553328D01*
X126135713Y-70553328D02*
X125849998Y-70553328D01*
X125849998Y-70553328D02*
X125707141Y-70624757D01*
X125707141Y-70624757D02*
X125635713Y-70767614D01*
X125635713Y-70767614D02*
X125635713Y-70910471D01*
X125635713Y-70910471D02*
X126349998Y-71053328D01*
X124778570Y-71553328D02*
X124921427Y-71481900D01*
X124921427Y-71481900D02*
X124992856Y-71339042D01*
X124992856Y-71339042D02*
X124992856Y-70053328D01*
X122207142Y-71410471D02*
X122278570Y-71481900D01*
X122278570Y-71481900D02*
X122492856Y-71553328D01*
X122492856Y-71553328D02*
X122635713Y-71553328D01*
X122635713Y-71553328D02*
X122849999Y-71481900D01*
X122849999Y-71481900D02*
X122992856Y-71339042D01*
X122992856Y-71339042D02*
X123064285Y-71196185D01*
X123064285Y-71196185D02*
X123135713Y-70910471D01*
X123135713Y-70910471D02*
X123135713Y-70696185D01*
X123135713Y-70696185D02*
X123064285Y-70410471D01*
X123064285Y-70410471D02*
X122992856Y-70267614D01*
X122992856Y-70267614D02*
X122849999Y-70124757D01*
X122849999Y-70124757D02*
X122635713Y-70053328D01*
X122635713Y-70053328D02*
X122492856Y-70053328D01*
X122492856Y-70053328D02*
X122278570Y-70124757D01*
X122278570Y-70124757D02*
X122207142Y-70196185D01*
X120921428Y-71553328D02*
X120921428Y-70767614D01*
X120921428Y-70767614D02*
X120992856Y-70624757D01*
X120992856Y-70624757D02*
X121135713Y-70553328D01*
X121135713Y-70553328D02*
X121421428Y-70553328D01*
X121421428Y-70553328D02*
X121564285Y-70624757D01*
X120921428Y-71481900D02*
X121064285Y-71553328D01*
X121064285Y-71553328D02*
X121421428Y-71553328D01*
X121421428Y-71553328D02*
X121564285Y-71481900D01*
X121564285Y-71481900D02*
X121635713Y-71339042D01*
X121635713Y-71339042D02*
X121635713Y-71196185D01*
X121635713Y-71196185D02*
X121564285Y-71053328D01*
X121564285Y-71053328D02*
X121421428Y-70981900D01*
X121421428Y-70981900D02*
X121064285Y-70981900D01*
X121064285Y-70981900D02*
X120921428Y-70910471D01*
X120421427Y-70553328D02*
X119849999Y-70553328D01*
X120207142Y-70053328D02*
X120207142Y-71339042D01*
X120207142Y-71339042D02*
X120135713Y-71481900D01*
X120135713Y-71481900D02*
X119992856Y-71553328D01*
X119992856Y-71553328D02*
X119849999Y-71553328D01*
X118707142Y-70553328D02*
X118707142Y-71553328D01*
X119349999Y-70553328D02*
X119349999Y-71339042D01*
X119349999Y-71339042D02*
X119278570Y-71481900D01*
X119278570Y-71481900D02*
X119135713Y-71553328D01*
X119135713Y-71553328D02*
X118921427Y-71553328D01*
X118921427Y-71553328D02*
X118778570Y-71481900D01*
X118778570Y-71481900D02*
X118707142Y-71410471D01*
X117349999Y-71553328D02*
X117349999Y-70053328D01*
X117349999Y-71481900D02*
X117492856Y-71553328D01*
X117492856Y-71553328D02*
X117778570Y-71553328D01*
X117778570Y-71553328D02*
X117921427Y-71481900D01*
X117921427Y-71481900D02*
X117992856Y-71410471D01*
X117992856Y-71410471D02*
X118064284Y-71267614D01*
X118064284Y-71267614D02*
X118064284Y-70839042D01*
X118064284Y-70839042D02*
X117992856Y-70696185D01*
X117992856Y-70696185D02*
X117921427Y-70624757D01*
X117921427Y-70624757D02*
X117778570Y-70553328D01*
X117778570Y-70553328D02*
X117492856Y-70553328D01*
X117492856Y-70553328D02*
X117349999Y-70624757D01*
X115992856Y-71553328D02*
X115992856Y-70767614D01*
X115992856Y-70767614D02*
X116064284Y-70624757D01*
X116064284Y-70624757D02*
X116207141Y-70553328D01*
X116207141Y-70553328D02*
X116492856Y-70553328D01*
X116492856Y-70553328D02*
X116635713Y-70624757D01*
X115992856Y-71481900D02*
X116135713Y-71553328D01*
X116135713Y-71553328D02*
X116492856Y-71553328D01*
X116492856Y-71553328D02*
X116635713Y-71481900D01*
X116635713Y-71481900D02*
X116707141Y-71339042D01*
X116707141Y-71339042D02*
X116707141Y-71196185D01*
X116707141Y-71196185D02*
X116635713Y-71053328D01*
X116635713Y-71053328D02*
X116492856Y-70981900D01*
X116492856Y-70981900D02*
X116135713Y-70981900D01*
X116135713Y-70981900D02*
X115992856Y-70910471D01*
X115064284Y-71553328D02*
X115207141Y-71481900D01*
X115207141Y-71481900D02*
X115278570Y-71339042D01*
X115278570Y-71339042D02*
X115278570Y-70053328D01*
X113421427Y-70196185D02*
X113349999Y-70124757D01*
X113349999Y-70124757D02*
X113207142Y-70053328D01*
X113207142Y-70053328D02*
X112849999Y-70053328D01*
X112849999Y-70053328D02*
X112707142Y-70124757D01*
X112707142Y-70124757D02*
X112635713Y-70196185D01*
X112635713Y-70196185D02*
X112564284Y-70339042D01*
X112564284Y-70339042D02*
X112564284Y-70481900D01*
X112564284Y-70481900D02*
X112635713Y-70696185D01*
X112635713Y-70696185D02*
X113492856Y-71553328D01*
X113492856Y-71553328D02*
X112564284Y-71553328D01*
X111635713Y-70053328D02*
X111492856Y-70053328D01*
X111492856Y-70053328D02*
X111349999Y-70124757D01*
X111349999Y-70124757D02*
X111278571Y-70196185D01*
X111278571Y-70196185D02*
X111207142Y-70339042D01*
X111207142Y-70339042D02*
X111135713Y-70624757D01*
X111135713Y-70624757D02*
X111135713Y-70981900D01*
X111135713Y-70981900D02*
X111207142Y-71267614D01*
X111207142Y-71267614D02*
X111278571Y-71410471D01*
X111278571Y-71410471D02*
X111349999Y-71481900D01*
X111349999Y-71481900D02*
X111492856Y-71553328D01*
X111492856Y-71553328D02*
X111635713Y-71553328D01*
X111635713Y-71553328D02*
X111778571Y-71481900D01*
X111778571Y-71481900D02*
X111849999Y-71410471D01*
X111849999Y-71410471D02*
X111921428Y-71267614D01*
X111921428Y-71267614D02*
X111992856Y-70981900D01*
X111992856Y-70981900D02*
X111992856Y-70624757D01*
X111992856Y-70624757D02*
X111921428Y-70339042D01*
X111921428Y-70339042D02*
X111849999Y-70196185D01*
X111849999Y-70196185D02*
X111778571Y-70124757D01*
X111778571Y-70124757D02*
X111635713Y-70053328D01*
X110564285Y-70196185D02*
X110492857Y-70124757D01*
X110492857Y-70124757D02*
X110350000Y-70053328D01*
X110350000Y-70053328D02*
X109992857Y-70053328D01*
X109992857Y-70053328D02*
X109850000Y-70124757D01*
X109850000Y-70124757D02*
X109778571Y-70196185D01*
X109778571Y-70196185D02*
X109707142Y-70339042D01*
X109707142Y-70339042D02*
X109707142Y-70481900D01*
X109707142Y-70481900D02*
X109778571Y-70696185D01*
X109778571Y-70696185D02*
X110635714Y-71553328D01*
X110635714Y-71553328D02*
X109707142Y-71553328D01*
X108350000Y-70053328D02*
X109064286Y-70053328D01*
X109064286Y-70053328D02*
X109135714Y-70767614D01*
X109135714Y-70767614D02*
X109064286Y-70696185D01*
X109064286Y-70696185D02*
X108921429Y-70624757D01*
X108921429Y-70624757D02*
X108564286Y-70624757D01*
X108564286Y-70624757D02*
X108421429Y-70696185D01*
X108421429Y-70696185D02*
X108350000Y-70767614D01*
X108350000Y-70767614D02*
X108278571Y-70910471D01*
X108278571Y-70910471D02*
X108278571Y-71267614D01*
X108278571Y-71267614D02*
X108350000Y-71410471D01*
X108350000Y-71410471D02*
X108421429Y-71481900D01*
X108421429Y-71481900D02*
X108564286Y-71553328D01*
X108564286Y-71553328D02*
X108921429Y-71553328D01*
X108921429Y-71553328D02*
X109064286Y-71481900D01*
X109064286Y-71481900D02*
X109135714Y-71410471D01*
D10*
D11*
X123053570Y-68703328D02*
X123553570Y-67989042D01*
X123910713Y-68703328D02*
X123910713Y-67203328D01*
X123910713Y-67203328D02*
X123339284Y-67203328D01*
X123339284Y-67203328D02*
X123196427Y-67274757D01*
X123196427Y-67274757D02*
X123124998Y-67346185D01*
X123124998Y-67346185D02*
X123053570Y-67489042D01*
X123053570Y-67489042D02*
X123053570Y-67703328D01*
X123053570Y-67703328D02*
X123124998Y-67846185D01*
X123124998Y-67846185D02*
X123196427Y-67917614D01*
X123196427Y-67917614D02*
X123339284Y-67989042D01*
X123339284Y-67989042D02*
X123910713Y-67989042D01*
X121696427Y-68703328D02*
X122410713Y-68703328D01*
X122410713Y-68703328D02*
X122410713Y-67203328D01*
X121339284Y-67203328D02*
X120339284Y-67203328D01*
X120339284Y-67203328D02*
X120982141Y-68703328D01*
X119553570Y-67846185D02*
X119696427Y-67774757D01*
X119696427Y-67774757D02*
X119767856Y-67703328D01*
X119767856Y-67703328D02*
X119839284Y-67560471D01*
X119839284Y-67560471D02*
X119839284Y-67489042D01*
X119839284Y-67489042D02*
X119767856Y-67346185D01*
X119767856Y-67346185D02*
X119696427Y-67274757D01*
X119696427Y-67274757D02*
X119553570Y-67203328D01*
X119553570Y-67203328D02*
X119267856Y-67203328D01*
X119267856Y-67203328D02*
X119124999Y-67274757D01*
X119124999Y-67274757D02*
X119053570Y-67346185D01*
X119053570Y-67346185D02*
X118982141Y-67489042D01*
X118982141Y-67489042D02*
X118982141Y-67560471D01*
X118982141Y-67560471D02*
X119053570Y-67703328D01*
X119053570Y-67703328D02*
X119124999Y-67774757D01*
X119124999Y-67774757D02*
X119267856Y-67846185D01*
X119267856Y-67846185D02*
X119553570Y-67846185D01*
X119553570Y-67846185D02*
X119696427Y-67917614D01*
X119696427Y-67917614D02*
X119767856Y-67989042D01*
X119767856Y-67989042D02*
X119839284Y-68131900D01*
X119839284Y-68131900D02*
X119839284Y-68417614D01*
X119839284Y-68417614D02*
X119767856Y-68560471D01*
X119767856Y-68560471D02*
X119696427Y-68631900D01*
X119696427Y-68631900D02*
X119553570Y-68703328D01*
X119553570Y-68703328D02*
X119267856Y-68703328D01*
X119267856Y-68703328D02*
X119124999Y-68631900D01*
X119124999Y-68631900D02*
X119053570Y-68560471D01*
X119053570Y-68560471D02*
X118982141Y-68417614D01*
X118982141Y-68417614D02*
X118982141Y-68131900D01*
X118982141Y-68131900D02*
X119053570Y-67989042D01*
X119053570Y-67989042D02*
X119124999Y-67917614D01*
X119124999Y-67917614D02*
X119267856Y-67846185D01*
X117267856Y-67131900D02*
X118553570Y-69060471D01*
X116267856Y-67917614D02*
X116767856Y-67917614D01*
X116767856Y-68703328D02*
X116767856Y-67203328D01*
X116767856Y-67203328D02*
X116053570Y-67203328D01*
X114696427Y-68703328D02*
X115553570Y-68703328D01*
X115124999Y-68703328D02*
X115124999Y-67203328D01*
X115124999Y-67203328D02*
X115267856Y-67417614D01*
X115267856Y-67417614D02*
X115410713Y-67560471D01*
X115410713Y-67560471D02*
X115553570Y-67631900D01*
X113410714Y-67703328D02*
X113410714Y-68703328D01*
X113767856Y-67131900D02*
X114124999Y-68203328D01*
X114124999Y-68203328D02*
X113196428Y-68203328D01*
D12*
X78000000Y-73000000D03*
X162000000Y-73000000D03*
X78000000Y-157000000D03*
X159997000Y-156643000D03*
D13*
X77850000Y-144000000D03*
X80850000Y-148700000D03*
X83850000Y-144000000D03*
D14*
X113000000Y-132000000D03*
D15*
X105380000Y-132000000D03*
D16*
X79895000Y-90900000D03*
X84775000Y-90900000D03*
D14*
X96465000Y-157050000D03*
D17*
X96465000Y-159550000D03*
D14*
X113000000Y-120000000D03*
D15*
X105380000Y-120000000D03*
D18*
X100000000Y-111000000D03*
D19*
X100000000Y-113540000D03*
X100000000Y-116080000D03*
X100000000Y-118620000D03*
X100000000Y-121160000D03*
X100000000Y-123700000D03*
X100000000Y-126240000D03*
X100000000Y-128780000D03*
X100000000Y-131320000D03*
D14*
X90650000Y-149575000D03*
D17*
X88150000Y-149575000D03*
D14*
X113000000Y-124000000D03*
D15*
X105380000Y-124000000D03*
D14*
X145100000Y-118950000D03*
D15*
X145100000Y-121490000D03*
X145100000Y-124030000D03*
X145100000Y-126570000D03*
X152720000Y-126570000D03*
X152720000Y-124030000D03*
X152720000Y-121490000D03*
X152720000Y-118950000D03*
D18*
X92000000Y-77380000D03*
D20*
X94500000Y-77380000D03*
X94500000Y-75380000D03*
X92000000Y-75380000D03*
D21*
X87230000Y-72670000D03*
X99270000Y-72670000D03*
D22*
X167790000Y-98600000D03*
D23*
X167790000Y-96060000D03*
X167790000Y-93520000D03*
X167790000Y-90980000D03*
X167790000Y-88440000D03*
X167790000Y-85900000D03*
X147470000Y-85900000D03*
X147470000Y-88440000D03*
X147470000Y-90980000D03*
X147470000Y-93520000D03*
X147470000Y-96060000D03*
X147470000Y-98600000D03*
D14*
X113000000Y-128000000D03*
D15*
X105380000Y-128000000D03*
D24*
X122650000Y-74500000D03*
D25*
X124650000Y-74500000D03*
X126650000Y-74500000D03*
X128650000Y-74500000D03*
X130650000Y-74500000D03*
D14*
X113000000Y-116000000D03*
D15*
X105380000Y-116000000D03*
D18*
X150075000Y-141300000D03*
D19*
X152615000Y-141300000D03*
D18*
X78000000Y-107000000D03*
D19*
X78000000Y-109540000D03*
X78000000Y-112080000D03*
X78000000Y-114620000D03*
X78000000Y-117160000D03*
D26*
X77898800Y-129389400D03*
X84401200Y-129389400D03*
X77898800Y-133910600D03*
X84401200Y-133910600D03*
D27*
X159430000Y-120513600D03*
X159430000Y-123256800D03*
X159430000Y-126000000D03*
X159430000Y-128743200D03*
X159430000Y-131486400D03*
X161970000Y-121885200D03*
X161970000Y-124628400D03*
X161970000Y-127371600D03*
X161970000Y-130114800D03*
D28*
X160700000Y-113477800D03*
X160700000Y-138522200D03*
D18*
X91750000Y-134990000D03*
D19*
X91750000Y-132450000D03*
D18*
X146910000Y-160000000D03*
D19*
X146910000Y-162540000D03*
X144370000Y-160000000D03*
X144370000Y-162540000D03*
X141830000Y-160000000D03*
X141830000Y-162540000D03*
X139290000Y-160000000D03*
X139290000Y-162540000D03*
X136750000Y-160000000D03*
X136750000Y-162540000D03*
X134210000Y-160000000D03*
X134210000Y-162540000D03*
X131670000Y-160000000D03*
X131670000Y-162540000D03*
X129130000Y-160000000D03*
X129130000Y-162540000D03*
X126590000Y-160000000D03*
X126590000Y-162540000D03*
X124050000Y-160000000D03*
X124050000Y-162540000D03*
X121510000Y-160000000D03*
X121510000Y-162540000D03*
X118970000Y-160000000D03*
X118970000Y-162540000D03*
X116430000Y-160000000D03*
X116430000Y-162540000D03*
D29*
X140350000Y-157850000D03*
X123167000Y-116111300D03*
X126600000Y-148700000D03*
X99100000Y-149275000D03*
X123110000Y-112487500D03*
X107750000Y-113400000D03*
X110900000Y-101250000D03*
X113147300Y-101509600D03*
X113881100Y-100734300D03*
X110381000Y-140738300D03*
X118934900Y-98244900D03*
X115858800Y-101023300D03*
X122338100Y-96498600D03*
X121700000Y-98010600D03*
X114724500Y-123504700D03*
X83866100Y-101250100D03*
X94205000Y-86989100D03*
X95274700Y-86344900D03*
X120873200Y-157200000D03*
X127902772Y-109024999D03*
X130200000Y-114000000D03*
X137925000Y-155425000D03*
X135750000Y-104250000D03*
X131600000Y-155100000D03*
X133550000Y-101300000D03*
X123650000Y-146250000D03*
X124500000Y-109750000D03*
X133700000Y-146200000D03*
X128000000Y-128944300D03*
X119200000Y-101050000D03*
X118655700Y-128944300D03*
X124900000Y-144650000D03*
X127250000Y-111100000D03*
X128500000Y-144700000D03*
X127013077Y-97811054D03*
X129862653Y-110437347D03*
X129625000Y-114925000D03*
X130050000Y-111650000D03*
X136600000Y-153250000D03*
X125500000Y-157100000D03*
X131400000Y-143700000D03*
X135250000Y-143700000D03*
X125887995Y-110475000D03*
X127525000Y-94550000D03*
X121001200Y-114514900D03*
X117056500Y-99572600D03*
X111557200Y-139072700D03*
X122863556Y-108888250D03*
X127901300Y-120250000D03*
X126792500Y-113556700D03*
X123223547Y-111493965D03*
X128000000Y-112350000D03*
X125399500Y-112863100D03*
X123544800Y-113681200D03*
X123766204Y-120324999D03*
X103338603Y-112438603D03*
X119380700Y-117764600D03*
X127075000Y-96812973D03*
X133717889Y-99433790D03*
X133276397Y-102726397D03*
X125742600Y-84950900D03*
X134744149Y-102105851D03*
X126108197Y-86341803D03*
X133250000Y-98550000D03*
X122872347Y-121481753D03*
X122395747Y-110932941D03*
X123004100Y-119552800D03*
X133500000Y-105008700D03*
X136900000Y-108450000D03*
X120698200Y-98180500D03*
X163857400Y-89503800D03*
D30*
X83850000Y-144000000D02*
X86200000Y-144000000D01*
X86200000Y-144000000D02*
X90650000Y-148450000D01*
X90650000Y-148450000D02*
X90650000Y-149575000D01*
D31*
X99100000Y-149275000D02*
X99075000Y-149250000D01*
X99075000Y-149250000D02*
X99075000Y-147525000D01*
X99075000Y-147525000D02*
X91750000Y-140200000D01*
X91750000Y-140200000D02*
X91750000Y-134990000D01*
D30*
X99100000Y-153288300D02*
X99100000Y-149275000D01*
D31*
X140465000Y-157965000D02*
X140465000Y-161175000D01*
X140465000Y-161175000D02*
X141830000Y-162540000D01*
X140350000Y-157850000D02*
X140465000Y-157965000D01*
X143157900Y-160518900D02*
X144370000Y-161731000D01*
X145100000Y-124875000D02*
X143157900Y-126817100D01*
X145100000Y-124030000D02*
X145100000Y-124875000D01*
X144370000Y-161731000D02*
X144370000Y-162540000D01*
X143157900Y-126817100D02*
X143157900Y-160518900D01*
X92000000Y-91823300D02*
X78000000Y-105823300D01*
X122818100Y-112779400D02*
X122818100Y-115762400D01*
X147470000Y-93520000D02*
X147470000Y-96060000D01*
X122818100Y-115762400D02*
X123167000Y-116111300D01*
X153886500Y-125403500D02*
X152720000Y-126570000D01*
X147470000Y-96060000D02*
X148996700Y-97586700D01*
X123110000Y-112487500D02*
X122818100Y-112779400D01*
X148996700Y-119414500D02*
X152342200Y-122760000D01*
X92000000Y-77380000D02*
X92000000Y-91823300D01*
X126600000Y-148700000D02*
X126590000Y-148710000D01*
X148996700Y-97586700D02*
X148996700Y-119414500D01*
X152342200Y-122760000D02*
X153109500Y-122760000D01*
D30*
X96465000Y-157050000D02*
X96465000Y-155923300D01*
X96465000Y-155923300D02*
X99100000Y-153288300D01*
D31*
X153886500Y-123537000D02*
X153886500Y-125403500D01*
X78000000Y-107000000D02*
X78000000Y-105823300D01*
X153109500Y-122760000D02*
X153886500Y-123537000D01*
X126590000Y-148710000D02*
X126590000Y-160000000D01*
X110900000Y-101250000D02*
X107750000Y-104400000D01*
X107750000Y-104400000D02*
X107750000Y-113400000D01*
X113000000Y-118873300D02*
X113000000Y-118062000D01*
X113147300Y-114085300D02*
X113147300Y-101509600D01*
X113147400Y-114085300D02*
X113147300Y-114085300D01*
X114126700Y-115064600D02*
X113147400Y-114085300D01*
X114126700Y-116935400D02*
X114126700Y-115064600D01*
X113000000Y-120000000D02*
X113000000Y-118873300D01*
X113000000Y-118062000D02*
X113000100Y-118062000D01*
X113000100Y-118062000D02*
X114126700Y-116935400D01*
X110381000Y-140738300D02*
X110381000Y-127745700D01*
X114578400Y-101431600D02*
X114578400Y-121294900D01*
X113881100Y-100734300D02*
X114578400Y-101431600D01*
X114578400Y-121294900D02*
X113000000Y-122873300D01*
X113000000Y-124528200D02*
X113000000Y-125126700D01*
X113000000Y-124000000D02*
X113000000Y-122873300D01*
X110381000Y-127745700D02*
X113000000Y-125126700D01*
X113000000Y-124528200D02*
X113000000Y-124000000D01*
X118041600Y-121972500D02*
X113140800Y-126873300D01*
X118041600Y-99138200D02*
X118041600Y-121972500D01*
X113000000Y-128000000D02*
X113000000Y-126873300D01*
X113140800Y-126873300D02*
X113000000Y-126873300D01*
X118934900Y-98244900D02*
X118041600Y-99138200D01*
X122338100Y-96498600D02*
X122338100Y-97372500D01*
X122338100Y-97372500D02*
X121700000Y-98010600D01*
X115858800Y-122370400D02*
X114724500Y-123504700D01*
X115858800Y-101023300D02*
X115858800Y-122370400D01*
X150075000Y-127520000D02*
X150075000Y-141300000D01*
X152720000Y-124030000D02*
X152720000Y-124875000D01*
X152720000Y-124875000D02*
X150075000Y-127520000D01*
X78000000Y-109172300D02*
X83866100Y-103306200D01*
X78000000Y-109540000D02*
X78000000Y-109172300D01*
X83866100Y-103306200D02*
X83866100Y-101250100D01*
X94500000Y-86694100D02*
X94205000Y-86989100D01*
X94500000Y-77380000D02*
X94500000Y-86694100D01*
X95274700Y-86344900D02*
X95683400Y-85936200D01*
X95683400Y-85936200D02*
X95683400Y-76563400D01*
X95683400Y-76563400D02*
X94500000Y-75380000D01*
X121048200Y-113536595D02*
X121726200Y-114214595D01*
X121726200Y-114214595D02*
X121726200Y-156347000D01*
X127902772Y-109024999D02*
X126775173Y-107897400D01*
X121048200Y-108987996D02*
X121048200Y-113536595D01*
X121726200Y-156347000D02*
X120873200Y-157200000D01*
X126775173Y-107897400D02*
X122138796Y-107897400D01*
X122138796Y-107897400D02*
X121048200Y-108987996D01*
X128261105Y-114000000D02*
X127092805Y-112831700D01*
X126492195Y-112831700D02*
X125734345Y-113589550D01*
X124550000Y-156900000D02*
X124550000Y-156960000D01*
X124550000Y-156960000D02*
X121510000Y-160000000D01*
X130200000Y-114000000D02*
X128261105Y-114000000D01*
X125787400Y-113642604D02*
X125787400Y-155662600D01*
X127092805Y-112831700D02*
X126492195Y-112831700D01*
X125787400Y-155662600D02*
X124550000Y-156900000D01*
X125734345Y-113589550D02*
X125787400Y-113642604D01*
X131670000Y-155170000D02*
X131670000Y-160000000D01*
X131600000Y-155100000D02*
X131670000Y-155170000D01*
X137925000Y-106425000D02*
X137925000Y-155425000D01*
X135750000Y-104250000D02*
X137925000Y-106425000D01*
X132142600Y-90322500D02*
X126044200Y-84224100D01*
X126044200Y-84224100D02*
X125409700Y-84224100D01*
X120390100Y-98913700D02*
X119971400Y-98495000D01*
X119242200Y-97469200D02*
X116018200Y-97469200D01*
X121826800Y-98913700D02*
X120390100Y-98913700D01*
X109648800Y-103838600D02*
X109648800Y-154949800D01*
X119971400Y-98495000D02*
X119971400Y-98198400D01*
X109648800Y-154949800D02*
X116430000Y-161731000D01*
X116018200Y-97469200D02*
X109648800Y-103838600D01*
X116430000Y-161731000D02*
X116430000Y-162540000D01*
X133550000Y-101300000D02*
X132142600Y-99892600D01*
X132142600Y-99892600D02*
X132142600Y-90322500D01*
X125409700Y-84224100D02*
X124769100Y-84864700D01*
X119971400Y-98198400D02*
X119242200Y-97469200D01*
X124769100Y-95971400D02*
X121826800Y-98913700D01*
X124769100Y-84864700D02*
X124769100Y-95971400D01*
X133700000Y-146200000D02*
X134210000Y-146710000D01*
X124224500Y-110025500D02*
X124224500Y-113335595D01*
X124500000Y-109750000D02*
X124224500Y-110025500D01*
X124269800Y-113380895D02*
X124269800Y-113769800D01*
X123650000Y-121466508D02*
X123650000Y-146250000D01*
X124224500Y-113335595D02*
X124269800Y-113380895D01*
X124789800Y-119000000D02*
X124789800Y-120326708D01*
X124789800Y-120326708D02*
X123650000Y-121466508D01*
X124789800Y-114289800D02*
X124789800Y-119000000D01*
X134210000Y-146710000D02*
X134210000Y-160000000D01*
X124269800Y-113769800D02*
X124789800Y-114289800D01*
X118655700Y-101594300D02*
X118655700Y-128944300D01*
X127765000Y-129179300D02*
X127765000Y-161365000D01*
X128000000Y-128944300D02*
X127765000Y-129179300D01*
X127765000Y-161365000D02*
X126590000Y-162540000D01*
X118655700Y-128944300D02*
X118650000Y-128950000D01*
X119200000Y-101050000D02*
X118655700Y-101594300D01*
X124674500Y-113166101D02*
X125250000Y-113741601D01*
X125488104Y-112138100D02*
X125099195Y-112138100D01*
X125250000Y-113741601D02*
X125250000Y-128450000D01*
X125099195Y-112138100D02*
X124674500Y-112562795D01*
X127250000Y-111100000D02*
X126526204Y-111100000D01*
X125250000Y-144300000D02*
X124900000Y-144650000D01*
X128500000Y-144700000D02*
X129130000Y-145330000D01*
X129130000Y-145330000D02*
X129130000Y-160000000D01*
X125250000Y-128450000D02*
X125250000Y-144300000D01*
X126526204Y-111100000D02*
X125488104Y-112138100D01*
X124674500Y-112562795D02*
X124674500Y-113166101D01*
X127013077Y-97811054D02*
X127013077Y-99886923D01*
X120148200Y-160552900D02*
X118970000Y-161731100D01*
X118970000Y-161731100D02*
X118970000Y-162540000D01*
X120148200Y-106751800D02*
X120148200Y-160552900D01*
X127013077Y-99886923D02*
X120148200Y-106751800D01*
X125225000Y-162836701D02*
X125225000Y-161175000D01*
X137200000Y-158788299D02*
X137925000Y-159513299D01*
X129862653Y-110437347D02*
X130775000Y-111349694D01*
X137236701Y-163715000D02*
X126103299Y-163715000D01*
X126103299Y-163715000D02*
X125225000Y-162836701D01*
X137475000Y-118375000D02*
X137475000Y-154849695D01*
X137925000Y-163026701D02*
X137236701Y-163715000D01*
X137200000Y-155124695D02*
X137200000Y-158788299D01*
X137925000Y-159513299D02*
X137925000Y-163026701D01*
X130775000Y-111349694D02*
X130775000Y-111675000D01*
X125225000Y-161175000D02*
X124050000Y-160000000D01*
X137475000Y-154849695D02*
X137200000Y-155124695D01*
X130775000Y-111675000D02*
X137475000Y-118375000D01*
X129625000Y-115254100D02*
X133900000Y-119529100D01*
X135412300Y-162327300D02*
X135199600Y-162540000D01*
X135412300Y-146212300D02*
X135412300Y-162327300D01*
X135199600Y-162540000D02*
X134210000Y-162540000D01*
X133900000Y-119529100D02*
X133900000Y-144700000D01*
X129625000Y-114925000D02*
X129625000Y-115254100D01*
X133900000Y-144700000D02*
X135412300Y-146212300D01*
X152720000Y-121490000D02*
X153846700Y-121490000D01*
X156985100Y-124628400D02*
X153846700Y-121490000D01*
X161970000Y-124628400D02*
X156985100Y-124628400D01*
X122685000Y-159665000D02*
X122685000Y-161365000D01*
X125250000Y-157100000D02*
X122685000Y-159665000D01*
X122685000Y-161365000D02*
X121510000Y-162540000D01*
X130050000Y-111650000D02*
X130050000Y-111900000D01*
X130050000Y-111900000D02*
X136600000Y-118450000D01*
X136600000Y-118450000D02*
X136600000Y-153250000D01*
X125500000Y-157100000D02*
X125250000Y-157100000D01*
X135862300Y-143087700D02*
X135250000Y-143700000D01*
X131400000Y-143700000D02*
X130305000Y-144795000D01*
X127100000Y-109850000D02*
X135862300Y-118612300D01*
X130305000Y-161365000D02*
X129130000Y-162540000D01*
X125887995Y-110475000D02*
X126512995Y-109850000D01*
X126512995Y-109850000D02*
X127100000Y-109850000D01*
X135862300Y-118612300D02*
X135862300Y-143087700D01*
X130305000Y-144795000D02*
X130305000Y-161365000D01*
X127800000Y-94825000D02*
X127800000Y-100450000D01*
X120598200Y-114111900D02*
X121001200Y-114514900D01*
X127525000Y-94550000D02*
X127800000Y-94825000D01*
X127800000Y-100450000D02*
X120598200Y-107651800D01*
X120598200Y-107651800D02*
X120598200Y-114111900D01*
X113648100Y-125281500D02*
X113975400Y-125281500D01*
X111557200Y-127372400D02*
X113648100Y-125281500D01*
X111557200Y-139072700D02*
X111557200Y-127372400D01*
X117056500Y-122200400D02*
X117056500Y-99572600D01*
X113975400Y-125281500D02*
X117056500Y-122200400D01*
X126792500Y-119141200D02*
X127901300Y-120250000D01*
X122863556Y-108888250D02*
X122863556Y-110375445D01*
X122863556Y-110375445D02*
X123223547Y-110735436D01*
X123223547Y-110735436D02*
X123223547Y-111493965D01*
X126792500Y-113556700D02*
X126792500Y-119141200D01*
X123850000Y-120241203D02*
X123850000Y-116453605D01*
X123766204Y-120324999D02*
X123850000Y-120241203D01*
X128000000Y-112350000D02*
X125912600Y-112350000D01*
X125912600Y-112350000D02*
X125399500Y-112863100D01*
X123850000Y-116453605D02*
X123892000Y-116411605D01*
X123892000Y-114028400D02*
X123544800Y-113681200D01*
X123892000Y-116411605D02*
X123892000Y-114028400D01*
X84401200Y-124381300D02*
X84401200Y-129389400D01*
X100560304Y-112438603D02*
X100486701Y-112365000D01*
X100486701Y-112365000D02*
X96417500Y-112365000D01*
X96417500Y-112365000D02*
X84401200Y-124381300D01*
X103338603Y-112438603D02*
X100560304Y-112438603D01*
X119640700Y-117504600D02*
X119380700Y-117764600D01*
X119640700Y-104109300D02*
X119640700Y-117504600D01*
X127075000Y-96812973D02*
X126937027Y-96812973D01*
X126937027Y-96812973D02*
X119640700Y-104109300D01*
X146226700Y-125443300D02*
X145100000Y-126570000D01*
X135050000Y-100750000D02*
X146226700Y-111926700D01*
X135050000Y-100765901D02*
X135050000Y-100750000D01*
X146226700Y-111926700D02*
X146226700Y-125443300D01*
X133717889Y-99433790D02*
X135050000Y-100765901D01*
X130710700Y-89919000D02*
X125742600Y-84950900D01*
X130710700Y-100160700D02*
X130710700Y-89919000D01*
X133276397Y-102726397D02*
X130710700Y-100160700D01*
X134744149Y-102283950D02*
X134744149Y-102105851D01*
X132976092Y-103451397D02*
X133576702Y-103451397D01*
X128250000Y-88483606D02*
X128250000Y-98725305D01*
X133576702Y-103451397D02*
X134744149Y-102283950D01*
X126108197Y-86341803D02*
X128250000Y-88483606D01*
X128250000Y-98725305D02*
X132976092Y-103451397D01*
X133250000Y-98550000D02*
X132992889Y-98807111D01*
X145550000Y-111886396D02*
X145550000Y-117373300D01*
X132992889Y-98807111D02*
X132992889Y-99734095D01*
X132992889Y-99734095D02*
X133417584Y-100158790D01*
X145100000Y-117823300D02*
X145100000Y-118950000D01*
X133806493Y-100158790D02*
X135097703Y-101450000D01*
X135097703Y-101450000D02*
X135113604Y-101450000D01*
X135113604Y-101450000D02*
X145550000Y-111886396D01*
X133417584Y-100158790D02*
X133806493Y-100158790D01*
X145550000Y-117373300D02*
X145100000Y-117823300D01*
X122353300Y-118902000D02*
X123004100Y-119552800D01*
X122872347Y-121481753D02*
X123004100Y-121350000D01*
X122395747Y-110932941D02*
X122353300Y-110975388D01*
X123004100Y-121350000D02*
X123004100Y-119552800D01*
X122353300Y-110975388D02*
X122353300Y-118902000D01*
X133500000Y-105050000D02*
X133500000Y-105008700D01*
X136900000Y-108450000D02*
X133500000Y-105050000D01*
X120698200Y-74608200D02*
X120698200Y-98180500D01*
X131054500Y-73455800D02*
X121850600Y-73455800D01*
X145943300Y-88344600D02*
X131054500Y-73455800D01*
X147470000Y-88440000D02*
X145943300Y-88440000D01*
X145943300Y-88440000D02*
X145943300Y-88344600D01*
X121850600Y-73455800D02*
X120698200Y-74608200D01*
X163857400Y-89503800D02*
X165333600Y-90980000D01*
X165333600Y-90980000D02*
X167790000Y-90980000D01*
G04 #@! TA.AperFunction,Conductor*
G36*
X140641905Y-160673515D02*
G01*
X140663804Y-160698787D01*
X140754278Y-160837268D01*
X140754283Y-160837273D01*
X140754284Y-160837276D01*
X140880967Y-160974888D01*
X140906760Y-161002906D01*
X141084424Y-161141189D01*
X141120930Y-161160945D01*
X141127695Y-161164606D01*
X141177286Y-161213825D01*
X141192394Y-161282042D01*
X141168224Y-161347597D01*
X141139802Y-161375236D01*
X140958922Y-161501890D01*
X140958920Y-161501891D01*
X140791891Y-161668920D01*
X140791890Y-161668922D01*
X140665131Y-161849952D01*
X140610554Y-161893577D01*
X140541055Y-161900769D01*
X140478701Y-161869247D01*
X140459752Y-161846656D01*
X140365722Y-161702732D01*
X140365715Y-161702725D01*
X140365715Y-161702723D01*
X140213243Y-161537097D01*
X140213238Y-161537092D01*
X140035577Y-161398812D01*
X140035578Y-161398812D01*
X140035576Y-161398811D01*
X139999070Y-161379055D01*
X139949479Y-161329836D01*
X139934371Y-161261619D01*
X139958541Y-161196064D01*
X139999070Y-161160945D01*
X139999084Y-161160936D01*
X140035576Y-161141189D01*
X140213240Y-161002906D01*
X140365722Y-160837268D01*
X140456193Y-160698790D01*
X140509338Y-160653437D01*
X140578569Y-160644013D01*
X140641905Y-160673515D01*
G37*
G04 #@! TD.AperFunction*
G04 #@! TA.AperFunction,Conductor*
G36*
X117941534Y-123070983D02*
G01*
X117997467Y-123112855D01*
X118021884Y-123178319D01*
X118022200Y-123187165D01*
X118022200Y-128242541D01*
X118002515Y-128309580D01*
X117990350Y-128325513D01*
X117916663Y-128407350D01*
X117916658Y-128407357D01*
X117821173Y-128572743D01*
X117821170Y-128572750D01*
X117765789Y-128743197D01*
X117762158Y-128754372D01*
X117742196Y-128944300D01*
X117762158Y-129134228D01*
X117762159Y-129134231D01*
X117821170Y-129315849D01*
X117821173Y-129315856D01*
X117916660Y-129481244D01*
X117923995Y-129489390D01*
X118039143Y-129617276D01*
X118044447Y-129623166D01*
X118198948Y-129735418D01*
X118373412Y-129813094D01*
X118560213Y-129852800D01*
X118751187Y-129852800D01*
X118937988Y-129813094D01*
X119112452Y-129735418D01*
X119266953Y-129623166D01*
X119298551Y-129588072D01*
X119358035Y-129551425D01*
X119427892Y-129552754D01*
X119485941Y-129591640D01*
X119513751Y-129655736D01*
X119514700Y-129671045D01*
X119514700Y-158576998D01*
X119495015Y-158644037D01*
X119442211Y-158689792D01*
X119373053Y-158699736D01*
X119350438Y-158694279D01*
X119304639Y-158678556D01*
X119082569Y-158641500D01*
X118857431Y-158641500D01*
X118635362Y-158678556D01*
X118422430Y-158751656D01*
X118422419Y-158751661D01*
X118224427Y-158858808D01*
X118224422Y-158858812D01*
X118046761Y-158997092D01*
X118046756Y-158997097D01*
X117894284Y-159162723D01*
X117894276Y-159162734D01*
X117800251Y-159306650D01*
X117747105Y-159352007D01*
X117677873Y-159361430D01*
X117614538Y-159331928D01*
X117594868Y-159309951D01*
X117468113Y-159128926D01*
X117468108Y-159128920D01*
X117301082Y-158961894D01*
X117107578Y-158826399D01*
X116893492Y-158726570D01*
X116893486Y-158726567D01*
X116680000Y-158669364D01*
X116680000Y-159566988D01*
X116622993Y-159534075D01*
X116495826Y-159500000D01*
X116364174Y-159500000D01*
X116237007Y-159534075D01*
X116180000Y-159566988D01*
X116180000Y-158669364D01*
X116179999Y-158669364D01*
X115966513Y-158726567D01*
X115966507Y-158726570D01*
X115752422Y-158826399D01*
X115752420Y-158826400D01*
X115558926Y-158961886D01*
X115558920Y-158961891D01*
X115391891Y-159128920D01*
X115391886Y-159128926D01*
X115256401Y-159322419D01*
X115223410Y-159393168D01*
X115177237Y-159445607D01*
X115110043Y-159464758D01*
X115043162Y-159444542D01*
X115023347Y-159428443D01*
X110318619Y-154723715D01*
X110285134Y-154662392D01*
X110282300Y-154636034D01*
X110282300Y-141770800D01*
X110301985Y-141703761D01*
X110354789Y-141658006D01*
X110406300Y-141646800D01*
X110476487Y-141646800D01*
X110663288Y-141607094D01*
X110837752Y-141529418D01*
X110992253Y-141417166D01*
X111120040Y-141275244D01*
X111215527Y-141109856D01*
X111274542Y-140928228D01*
X111294504Y-140738300D01*
X111274542Y-140548372D01*
X111215527Y-140366744D01*
X111121449Y-140203796D01*
X111120041Y-140201357D01*
X111120036Y-140201350D01*
X111046350Y-140119513D01*
X111016120Y-140056521D01*
X111014500Y-140036541D01*
X111014500Y-140016494D01*
X111034185Y-139949455D01*
X111086989Y-139903700D01*
X111156147Y-139893756D01*
X111188928Y-139903211D01*
X111274912Y-139941494D01*
X111274915Y-139941494D01*
X111274916Y-139941495D01*
X111461713Y-139981200D01*
X111652687Y-139981200D01*
X111839488Y-139941494D01*
X112013952Y-139863818D01*
X112168453Y-139751566D01*
X112296240Y-139609644D01*
X112391727Y-139444256D01*
X112450742Y-139262628D01*
X112470704Y-139072700D01*
X112450742Y-138882772D01*
X112391727Y-138701144D01*
X112296240Y-138535756D01*
X112296236Y-138535750D01*
X112222550Y-138453913D01*
X112192320Y-138390921D01*
X112190700Y-138370941D01*
X112190700Y-133432500D01*
X112210385Y-133365461D01*
X112263189Y-133319706D01*
X112314700Y-133308500D01*
X113848638Y-133308500D01*
X113848654Y-133308499D01*
X113875692Y-133305591D01*
X113909201Y-133301989D01*
X114046204Y-133250889D01*
X114163261Y-133163261D01*
X114250889Y-133046204D01*
X114301989Y-132909201D01*
X114305591Y-132875692D01*
X114308499Y-132848654D01*
X114308500Y-132848637D01*
X114308500Y-131151362D01*
X114308499Y-131151345D01*
X114302509Y-131095640D01*
X114301989Y-131090799D01*
X114250889Y-130953796D01*
X114163261Y-130836739D01*
X114046204Y-130749111D01*
X113909203Y-130698011D01*
X113848654Y-130691500D01*
X113848638Y-130691500D01*
X112314700Y-130691500D01*
X112247661Y-130671815D01*
X112201906Y-130619011D01*
X112190700Y-130567500D01*
X112190700Y-129432500D01*
X112210385Y-129365461D01*
X112263189Y-129319706D01*
X112314700Y-129308500D01*
X113848638Y-129308500D01*
X113848654Y-129308499D01*
X113875692Y-129305591D01*
X113909201Y-129301989D01*
X114046204Y-129250889D01*
X114163261Y-129163261D01*
X114250889Y-129046204D01*
X114301989Y-128909201D01*
X114306959Y-128862975D01*
X114308499Y-128848654D01*
X114308500Y-128848637D01*
X114308500Y-127151362D01*
X114308499Y-127151345D01*
X114304716Y-127116167D01*
X114301989Y-127090799D01*
X114297776Y-127079504D01*
X114265812Y-126993806D01*
X114250889Y-126953796D01*
X114189121Y-126871284D01*
X114164705Y-126805822D01*
X114179556Y-126737549D01*
X114200704Y-126709298D01*
X117810521Y-123099482D01*
X117871842Y-123065999D01*
X117941534Y-123070983D01*
G37*
G04 #@! TD.AperFunction*
G04 #@! TA.AperFunction,Conductor*
G36*
X136852788Y-104087800D02*
G01*
X136869507Y-104101807D01*
X144880181Y-112112481D01*
X144913666Y-112173804D01*
X144916500Y-112200162D01*
X144916500Y-117059534D01*
X144896815Y-117126573D01*
X144880181Y-117147215D01*
X144696167Y-117331229D01*
X144669014Y-117358382D01*
X144607927Y-117419468D01*
X144538603Y-117523218D01*
X144538596Y-117523230D01*
X144521316Y-117564952D01*
X144477476Y-117619356D01*
X144411182Y-117641421D01*
X144406755Y-117641500D01*
X144251345Y-117641500D01*
X144190797Y-117648011D01*
X144190795Y-117648011D01*
X144053795Y-117699111D01*
X143936739Y-117786739D01*
X143849111Y-117903795D01*
X143798011Y-118040795D01*
X143798011Y-118040797D01*
X143791500Y-118101345D01*
X143791500Y-119798654D01*
X143798011Y-119859202D01*
X143798011Y-119859204D01*
X143831816Y-119949836D01*
X143849111Y-119996204D01*
X143936739Y-120113261D01*
X144053796Y-120200889D01*
X144142765Y-120234073D01*
X144190793Y-120251987D01*
X144190799Y-120251989D01*
X144218346Y-120254950D01*
X144282894Y-120281686D01*
X144322744Y-120339078D01*
X144325239Y-120408903D01*
X144289587Y-120468992D01*
X144276218Y-120479811D01*
X144261181Y-120490340D01*
X144100342Y-120651179D01*
X143969865Y-120837517D01*
X143873734Y-121043673D01*
X143873730Y-121043682D01*
X143821127Y-121239999D01*
X143821128Y-121240000D01*
X144784314Y-121240000D01*
X144779920Y-121244394D01*
X144727259Y-121335606D01*
X144700000Y-121437339D01*
X144700000Y-121542661D01*
X144727259Y-121644394D01*
X144779920Y-121735606D01*
X144784314Y-121740000D01*
X143821128Y-121740000D01*
X143873730Y-121936317D01*
X143873734Y-121936326D01*
X143969865Y-122142482D01*
X144100342Y-122328820D01*
X144261179Y-122489657D01*
X144447517Y-122620133D01*
X144496399Y-122642927D01*
X144548839Y-122689099D01*
X144567992Y-122756292D01*
X144547777Y-122823174D01*
X144496402Y-122867691D01*
X144443256Y-122892474D01*
X144443252Y-122892476D01*
X144443251Y-122892477D01*
X144255700Y-123023802D01*
X144255698Y-123023803D01*
X144255695Y-123023806D01*
X144093806Y-123185695D01*
X144093803Y-123185698D01*
X144093802Y-123185700D01*
X144029619Y-123277363D01*
X143962476Y-123373252D01*
X143962475Y-123373254D01*
X143865718Y-123580750D01*
X143865714Y-123580761D01*
X143806457Y-123801910D01*
X143806456Y-123801918D01*
X143786502Y-124029998D01*
X143786502Y-124030001D01*
X143806456Y-124258081D01*
X143806457Y-124258089D01*
X143865714Y-124479238D01*
X143865718Y-124479249D01*
X143942405Y-124643704D01*
X143962477Y-124686749D01*
X144079835Y-124854353D01*
X144102161Y-124920556D01*
X144085151Y-124988324D01*
X144065940Y-125013155D01*
X143391016Y-125688080D01*
X142754067Y-126325029D01*
X142725543Y-126353553D01*
X142665827Y-126413268D01*
X142596503Y-126517018D01*
X142596498Y-126517027D01*
X142548745Y-126632314D01*
X142548743Y-126632322D01*
X142524400Y-126754701D01*
X142524400Y-158628390D01*
X142504715Y-158695429D01*
X142451911Y-158741184D01*
X142382753Y-158751128D01*
X142360137Y-158745671D01*
X142164637Y-158678556D01*
X141942569Y-158641500D01*
X141717431Y-158641500D01*
X141495362Y-158678556D01*
X141282430Y-158751656D01*
X141282419Y-158751661D01*
X141084427Y-158858808D01*
X141084422Y-158858812D01*
X140906761Y-158997092D01*
X140906756Y-158997097D01*
X140754284Y-159162723D01*
X140754276Y-159162734D01*
X140663808Y-159301206D01*
X140610662Y-159346562D01*
X140541431Y-159355986D01*
X140478095Y-159326484D01*
X140456192Y-159301206D01*
X140365723Y-159162734D01*
X140365715Y-159162723D01*
X140213243Y-158997097D01*
X140213238Y-158997092D01*
X140035577Y-158858812D01*
X140035572Y-158858808D01*
X139837580Y-158751661D01*
X139837577Y-158751659D01*
X139837574Y-158751658D01*
X139837571Y-158751657D01*
X139837569Y-158751656D01*
X139624637Y-158678556D01*
X139402569Y-158641500D01*
X139177431Y-158641500D01*
X138955362Y-158678556D01*
X138742430Y-158751656D01*
X138742419Y-158751661D01*
X138544427Y-158858808D01*
X138544423Y-158858811D01*
X138418273Y-158956998D01*
X138353279Y-158982640D01*
X138284739Y-158969073D01*
X138254430Y-158946825D01*
X137869819Y-158562214D01*
X137836334Y-158500891D01*
X137833500Y-158474533D01*
X137833500Y-156457500D01*
X137853185Y-156390461D01*
X137905989Y-156344706D01*
X137957500Y-156333500D01*
X138020487Y-156333500D01*
X138207288Y-156293794D01*
X138381752Y-156216118D01*
X138536253Y-156103866D01*
X138664040Y-155961944D01*
X138759527Y-155796556D01*
X138818542Y-155614928D01*
X138838504Y-155425000D01*
X138818542Y-155235072D01*
X138759527Y-155053444D01*
X138693978Y-154939910D01*
X138664041Y-154888057D01*
X138664036Y-154888050D01*
X138590350Y-154806213D01*
X138560120Y-154743221D01*
X138558500Y-154723241D01*
X138558500Y-106362605D01*
X138558499Y-106362601D01*
X138534156Y-106240222D01*
X138534155Y-106240215D01*
X138486400Y-106124925D01*
X138486399Y-106124924D01*
X138486396Y-106124918D01*
X138417072Y-106021168D01*
X138417071Y-106021167D01*
X138328833Y-105932929D01*
X136696620Y-104300716D01*
X136663135Y-104239393D01*
X136660983Y-104226018D01*
X136658505Y-104202445D01*
X136671074Y-104133720D01*
X136718806Y-104082696D01*
X136786546Y-104065578D01*
X136852788Y-104087800D01*
G37*
G04 #@! TD.AperFunction*
G04 #@! TA.AperFunction,Conductor*
G36*
X168040000Y-98284314D02*
G01*
X168035606Y-98279920D01*
X167944394Y-98227259D01*
X167842661Y-98200000D01*
X167737339Y-98200000D01*
X167635606Y-98227259D01*
X167544394Y-98279920D01*
X167540000Y-98284314D01*
X167540000Y-96375686D01*
X167544394Y-96380080D01*
X167635606Y-96432741D01*
X167737339Y-96460000D01*
X167842661Y-96460000D01*
X167944394Y-96432741D01*
X168035606Y-96380080D01*
X168040000Y-96375686D01*
X168040000Y-98284314D01*
G37*
G04 #@! TD.AperFunction*
G04 #@! TA.AperFunction,Conductor*
G36*
X169917539Y-65045185D02*
G01*
X169963294Y-65097989D01*
X169974500Y-65149500D01*
X169974500Y-164850500D01*
X169954815Y-164917539D01*
X169902011Y-164963294D01*
X169850500Y-164974500D01*
X70149500Y-164974500D01*
X70082461Y-164954815D01*
X70036706Y-164902011D01*
X70025500Y-164850500D01*
X70025500Y-156999996D01*
X75136656Y-156999996D01*
X75136656Y-157000003D01*
X75156017Y-157332414D01*
X75156018Y-157332425D01*
X75213834Y-157660315D01*
X75213837Y-157660329D01*
X75309336Y-157979320D01*
X75441218Y-158285057D01*
X75441224Y-158285070D01*
X75607711Y-158573434D01*
X75806547Y-158840518D01*
X75806552Y-158840524D01*
X75900176Y-158939759D01*
X76035054Y-159082721D01*
X76035060Y-159082726D01*
X76035062Y-159082728D01*
X76290127Y-159296753D01*
X76290135Y-159296759D01*
X76568324Y-159479727D01*
X76568328Y-159479729D01*
X76865887Y-159629169D01*
X77178784Y-159743054D01*
X77502786Y-159819843D01*
X77833511Y-159858500D01*
X77833519Y-159858500D01*
X78166481Y-159858500D01*
X78166489Y-159858500D01*
X78497214Y-159819843D01*
X78821216Y-159743054D01*
X79134113Y-159629169D01*
X79431672Y-159479729D01*
X79670850Y-159322419D01*
X79709864Y-159296759D01*
X79709864Y-159296758D01*
X79709870Y-159296755D01*
X79964946Y-159082721D01*
X80193449Y-158840522D01*
X80200452Y-158831116D01*
X80264063Y-158745671D01*
X80392289Y-158573433D01*
X80558778Y-158285066D01*
X80690663Y-157979321D01*
X80786162Y-157660333D01*
X80843983Y-157332414D01*
X80863344Y-157000000D01*
X80843983Y-156667586D01*
X80840367Y-156647081D01*
X80786165Y-156339684D01*
X80786164Y-156339683D01*
X80786162Y-156339667D01*
X80690663Y-156020679D01*
X80558778Y-155714934D01*
X80471643Y-155564012D01*
X80392288Y-155426565D01*
X80193452Y-155159481D01*
X80193447Y-155159475D01*
X80054497Y-155012198D01*
X79964946Y-154917279D01*
X79964939Y-154917273D01*
X79964937Y-154917271D01*
X79709872Y-154703246D01*
X79709864Y-154703240D01*
X79431675Y-154520272D01*
X79134120Y-154370834D01*
X79134114Y-154370831D01*
X78821217Y-154256946D01*
X78821215Y-154256945D01*
X78497214Y-154180157D01*
X78166489Y-154141500D01*
X77833511Y-154141500D01*
X77539533Y-154175861D01*
X77502785Y-154180157D01*
X77178784Y-154256945D01*
X77178782Y-154256946D01*
X76865885Y-154370831D01*
X76865879Y-154370834D01*
X76568324Y-154520272D01*
X76290135Y-154703240D01*
X76290127Y-154703246D01*
X76035062Y-154917271D01*
X76035052Y-154917281D01*
X75806552Y-155159475D01*
X75806547Y-155159481D01*
X75607711Y-155426565D01*
X75441224Y-155714929D01*
X75441218Y-155714942D01*
X75309336Y-156020679D01*
X75213837Y-156339670D01*
X75213834Y-156339684D01*
X75156018Y-156667574D01*
X75156017Y-156667585D01*
X75136656Y-156999996D01*
X70025500Y-156999996D01*
X70025500Y-148700000D01*
X78186140Y-148700000D01*
X78205562Y-149021087D01*
X78263549Y-149337511D01*
X78359241Y-149644599D01*
X78359245Y-149644610D01*
X78491267Y-149937952D01*
X78491268Y-149937954D01*
X78657685Y-150213243D01*
X78657690Y-150213251D01*
X78800681Y-150395764D01*
X79628342Y-149568103D01*
X79706932Y-149676272D01*
X79873728Y-149843068D01*
X79981895Y-149921656D01*
X79154234Y-150749317D01*
X79154234Y-150749318D01*
X79336748Y-150892309D01*
X79336756Y-150892314D01*
X79612045Y-151058731D01*
X79612047Y-151058732D01*
X79905389Y-151190754D01*
X79905400Y-151190758D01*
X80212488Y-151286450D01*
X80528912Y-151344437D01*
X80850000Y-151363859D01*
X81171087Y-151344437D01*
X81487511Y-151286450D01*
X81794599Y-151190758D01*
X81794610Y-151190754D01*
X82087952Y-151058732D01*
X82087954Y-151058731D01*
X82363243Y-150892314D01*
X82363251Y-150892308D01*
X82545764Y-150749318D01*
X82545764Y-150749317D01*
X81718104Y-149921657D01*
X81826272Y-149843068D01*
X81993068Y-149676272D01*
X82071657Y-149568104D01*
X82899317Y-150395764D01*
X82899318Y-150395764D01*
X83042308Y-150213251D01*
X83042314Y-150213243D01*
X83208731Y-149937954D01*
X83208732Y-149937952D01*
X83340754Y-149644610D01*
X83340758Y-149644599D01*
X83436450Y-149337511D01*
X83494437Y-149021087D01*
X83513859Y-148700000D01*
X83494437Y-148378912D01*
X83436450Y-148062488D01*
X83340758Y-147755400D01*
X83340754Y-147755389D01*
X83208732Y-147462047D01*
X83208731Y-147462045D01*
X83042314Y-147186756D01*
X83042309Y-147186748D01*
X82899317Y-147004234D01*
X82071656Y-147831895D01*
X81993068Y-147723728D01*
X81826272Y-147556932D01*
X81718103Y-147478342D01*
X82545764Y-146650681D01*
X82545764Y-146650680D01*
X82360296Y-146505375D01*
X82361088Y-146504363D01*
X82320469Y-146454245D01*
X82315180Y-146406318D01*
X82291267Y-146420598D01*
X82221435Y-146418300D01*
X82196115Y-146406653D01*
X82087954Y-146341268D01*
X82087952Y-146341267D01*
X81794610Y-146209245D01*
X81794599Y-146209241D01*
X81487511Y-146113549D01*
X81171087Y-146055562D01*
X80850000Y-146036140D01*
X80528912Y-146055562D01*
X80212488Y-146113549D01*
X79905400Y-146209241D01*
X79905389Y-146209245D01*
X79612047Y-146341267D01*
X79612045Y-146341268D01*
X79336756Y-146507685D01*
X79154234Y-146650681D01*
X79981895Y-147478342D01*
X79873728Y-147556932D01*
X79706932Y-147723728D01*
X79628342Y-147831895D01*
X78800681Y-147004234D01*
X78657685Y-147186756D01*
X78491268Y-147462045D01*
X78491267Y-147462047D01*
X78359245Y-147755389D01*
X78359241Y-147755400D01*
X78263549Y-148062488D01*
X78205562Y-148378912D01*
X78186140Y-148700000D01*
X70025500Y-148700000D01*
X70025500Y-144000000D01*
X75186140Y-144000000D01*
X75205562Y-144321087D01*
X75263549Y-144637511D01*
X75359241Y-144944599D01*
X75359245Y-144944610D01*
X75491267Y-145237952D01*
X75491268Y-145237954D01*
X75657685Y-145513243D01*
X75657690Y-145513251D01*
X75800681Y-145695764D01*
X76628342Y-144868103D01*
X76706932Y-144976272D01*
X76873728Y-145143068D01*
X76981895Y-145221656D01*
X76154234Y-146049317D01*
X76154234Y-146049318D01*
X76336748Y-146192309D01*
X76336756Y-146192314D01*
X76612045Y-146358731D01*
X76612047Y-146358732D01*
X76905389Y-146490754D01*
X76905400Y-146490758D01*
X77212488Y-146586450D01*
X77528912Y-146644437D01*
X77850000Y-146663859D01*
X78171087Y-146644437D01*
X78487511Y-146586450D01*
X78794599Y-146490758D01*
X78794610Y-146490754D01*
X79087952Y-146358732D01*
X79087954Y-146358731D01*
X79363243Y-146192314D01*
X79363251Y-146192308D01*
X79545764Y-146049318D01*
X79545764Y-146049317D01*
X78718104Y-145221657D01*
X78826272Y-145143068D01*
X78993068Y-144976272D01*
X79071657Y-144868104D01*
X79899317Y-145695764D01*
X79899318Y-145695764D01*
X80042308Y-145513251D01*
X80042314Y-145513243D01*
X80208731Y-145237954D01*
X80208732Y-145237952D01*
X80340754Y-144944610D01*
X80340758Y-144944599D01*
X80436450Y-144637511D01*
X80494437Y-144321087D01*
X80513859Y-144000000D01*
X81177624Y-144000000D01*
X81197108Y-144322114D01*
X81255277Y-144639540D01*
X81351278Y-144947620D01*
X81351284Y-144947635D01*
X81483726Y-145241910D01*
X81483727Y-145241911D01*
X81483729Y-145241915D01*
X81536293Y-145328866D01*
X81650676Y-145518081D01*
X81650682Y-145518089D01*
X81849700Y-145772116D01*
X82077883Y-146000299D01*
X82334866Y-146201633D01*
X82334073Y-146202644D01*
X82374693Y-146252763D01*
X82379981Y-146300689D01*
X82403895Y-146286410D01*
X82473727Y-146288708D01*
X82499044Y-146300353D01*
X82608085Y-146366271D01*
X82902362Y-146498715D01*
X82902371Y-146498717D01*
X82902379Y-146498721D01*
X83183913Y-146586450D01*
X83210459Y-146594722D01*
X83527881Y-146652891D01*
X83850000Y-146672376D01*
X84172119Y-146652891D01*
X84489541Y-146594722D01*
X84626181Y-146552143D01*
X84797620Y-146498721D01*
X84797624Y-146498719D01*
X84797638Y-146498715D01*
X85091915Y-146366271D01*
X85368083Y-146199322D01*
X85622113Y-146000302D01*
X85850302Y-145772113D01*
X86049322Y-145518083D01*
X86192021Y-145282028D01*
X86243547Y-145234843D01*
X86312407Y-145223004D01*
X86376736Y-145250272D01*
X86385818Y-145258499D01*
X89433160Y-148305841D01*
X89466645Y-148367164D01*
X89461661Y-148436856D01*
X89444747Y-148467831D01*
X89399112Y-148528793D01*
X89399111Y-148528793D01*
X89348011Y-148665795D01*
X89348011Y-148665797D01*
X89341500Y-148726345D01*
X89341323Y-148729669D01*
X89341144Y-148729659D01*
X89341144Y-148729665D01*
X89341040Y-148729653D01*
X89339871Y-148729591D01*
X89321815Y-148791084D01*
X89269011Y-148836839D01*
X89236032Y-148842519D01*
X88550000Y-149528551D01*
X88550000Y-149522339D01*
X88522741Y-149420606D01*
X88470080Y-149329394D01*
X88395606Y-149254920D01*
X88304394Y-149202259D01*
X88202661Y-149175000D01*
X88196448Y-149175000D01*
X88875472Y-148495974D01*
X88802478Y-148444863D01*
X88596331Y-148348735D01*
X88596317Y-148348730D01*
X88376610Y-148289860D01*
X88376599Y-148289858D01*
X88150002Y-148270034D01*
X88149998Y-148270034D01*
X87923400Y-148289858D01*
X87923389Y-148289860D01*
X87703682Y-148348730D01*
X87703673Y-148348734D01*
X87497516Y-148444866D01*
X87497512Y-148444868D01*
X87424526Y-148495973D01*
X87424526Y-148495974D01*
X88103553Y-149175000D01*
X88097339Y-149175000D01*
X87995606Y-149202259D01*
X87904394Y-149254920D01*
X87829920Y-149329394D01*
X87777259Y-149420606D01*
X87750000Y-149522339D01*
X87750000Y-149528552D01*
X87070974Y-148849526D01*
X87070973Y-148849526D01*
X87019868Y-148922512D01*
X87019866Y-148922516D01*
X86923734Y-149128673D01*
X86923730Y-149128682D01*
X86864860Y-149348389D01*
X86864858Y-149348400D01*
X86845034Y-149574997D01*
X86845034Y-149575002D01*
X86864858Y-149801599D01*
X86864860Y-149801610D01*
X86923730Y-150021317D01*
X86923735Y-150021331D01*
X87019863Y-150227478D01*
X87070974Y-150300472D01*
X87750000Y-149621446D01*
X87750000Y-149627661D01*
X87777259Y-149729394D01*
X87829920Y-149820606D01*
X87904394Y-149895080D01*
X87995606Y-149947741D01*
X88097339Y-149975000D01*
X88103553Y-149975000D01*
X87424526Y-150654025D01*
X87497513Y-150705132D01*
X87497521Y-150705136D01*
X87703668Y-150801264D01*
X87703682Y-150801269D01*
X87923389Y-150860139D01*
X87923400Y-150860141D01*
X88149998Y-150879966D01*
X88150002Y-150879966D01*
X88376599Y-150860141D01*
X88376610Y-150860139D01*
X88596317Y-150801269D01*
X88596331Y-150801264D01*
X88802478Y-150705136D01*
X88875471Y-150654024D01*
X88196447Y-149975000D01*
X88202661Y-149975000D01*
X88304394Y-149947741D01*
X88395606Y-149895080D01*
X88470080Y-149820606D01*
X88522741Y-149729394D01*
X88550000Y-149627661D01*
X88550000Y-149621447D01*
X89237086Y-150308533D01*
X89275192Y-150316191D01*
X89325375Y-150364806D01*
X89340035Y-150420399D01*
X89341040Y-150420346D01*
X89341144Y-150420335D01*
X89341144Y-150420340D01*
X89341323Y-150420331D01*
X89341500Y-150423654D01*
X89348011Y-150484202D01*
X89348011Y-150484204D01*
X89399111Y-150621204D01*
X89486739Y-150738261D01*
X89603796Y-150825889D01*
X89740799Y-150876989D01*
X89768050Y-150879918D01*
X89801345Y-150883499D01*
X89801362Y-150883500D01*
X91498638Y-150883500D01*
X91498654Y-150883499D01*
X91525692Y-150880591D01*
X91559201Y-150876989D01*
X91696204Y-150825889D01*
X91813261Y-150738261D01*
X91900889Y-150621204D01*
X91951989Y-150484201D01*
X91955591Y-150450692D01*
X91958499Y-150423654D01*
X91958500Y-150423637D01*
X91958500Y-148726362D01*
X91958499Y-148726345D01*
X91955157Y-148695270D01*
X91951989Y-148665799D01*
X91900889Y-148528796D01*
X91813261Y-148411739D01*
X91696204Y-148324111D01*
X91647221Y-148305841D01*
X91559203Y-148273011D01*
X91498654Y-148266500D01*
X91498638Y-148266500D01*
X91477840Y-148266500D01*
X91410801Y-148246815D01*
X91365046Y-148194011D01*
X91363279Y-148189953D01*
X91331252Y-148112633D01*
X91331252Y-148112632D01*
X91322177Y-148090723D01*
X91322176Y-148090722D01*
X91322174Y-148090716D01*
X91239165Y-147966484D01*
X91133516Y-147860835D01*
X88910954Y-145638273D01*
X86683518Y-143410836D01*
X86683517Y-143410835D01*
X86559281Y-143327824D01*
X86469721Y-143290727D01*
X86415317Y-143246885D01*
X86398789Y-143213060D01*
X86348715Y-143052362D01*
X86216271Y-142758085D01*
X86068270Y-142513261D01*
X86049323Y-142481918D01*
X86049317Y-142481910D01*
X85850299Y-142227883D01*
X85622116Y-141999700D01*
X85368089Y-141800682D01*
X85368081Y-141800676D01*
X85207762Y-141703761D01*
X85091915Y-141633729D01*
X85091911Y-141633727D01*
X85091910Y-141633726D01*
X84891331Y-141543453D01*
X84797638Y-141501285D01*
X84797635Y-141501284D01*
X84797620Y-141501278D01*
X84489540Y-141405277D01*
X84172114Y-141347108D01*
X83850000Y-141327624D01*
X83527885Y-141347108D01*
X83210459Y-141405277D01*
X82902379Y-141501278D01*
X82902364Y-141501284D01*
X82608089Y-141633726D01*
X82608087Y-141633728D01*
X82331918Y-141800676D01*
X82331910Y-141800682D01*
X82077883Y-141999700D01*
X81849700Y-142227883D01*
X81650682Y-142481910D01*
X81650676Y-142481918D01*
X81483728Y-142758087D01*
X81483726Y-142758089D01*
X81351284Y-143052364D01*
X81351278Y-143052379D01*
X81255277Y-143360459D01*
X81197108Y-143677885D01*
X81177624Y-144000000D01*
X80513859Y-144000000D01*
X80494437Y-143678912D01*
X80436450Y-143362488D01*
X80340758Y-143055400D01*
X80340754Y-143055389D01*
X80208732Y-142762047D01*
X80208731Y-142762045D01*
X80042314Y-142486756D01*
X80042309Y-142486748D01*
X79899317Y-142304234D01*
X79071656Y-143131895D01*
X78993068Y-143023728D01*
X78826272Y-142856932D01*
X78718103Y-142778342D01*
X79545764Y-141950681D01*
X79545764Y-141950680D01*
X79363251Y-141807690D01*
X79363243Y-141807685D01*
X79087954Y-141641268D01*
X79087952Y-141641267D01*
X78794610Y-141509245D01*
X78794599Y-141509241D01*
X78487511Y-141413549D01*
X78171087Y-141355562D01*
X77850000Y-141336140D01*
X77528912Y-141355562D01*
X77212488Y-141413549D01*
X76905400Y-141509241D01*
X76905389Y-141509245D01*
X76612047Y-141641267D01*
X76612045Y-141641268D01*
X76336756Y-141807685D01*
X76154234Y-141950681D01*
X76981895Y-142778342D01*
X76873728Y-142856932D01*
X76706932Y-143023728D01*
X76628342Y-143131895D01*
X75800681Y-142304234D01*
X75657685Y-142486756D01*
X75491268Y-142762045D01*
X75491267Y-142762047D01*
X75359245Y-143055389D01*
X75359241Y-143055400D01*
X75263549Y-143362488D01*
X75205562Y-143678912D01*
X75186140Y-144000000D01*
X70025500Y-144000000D01*
X70025500Y-133660599D01*
X75898665Y-133660599D01*
X75898665Y-133660600D01*
X77456549Y-133660600D01*
X77425419Y-133714519D01*
X77390800Y-133843720D01*
X77390800Y-133977480D01*
X77425419Y-134106681D01*
X77456549Y-134160600D01*
X75898665Y-134160600D01*
X75905874Y-134206117D01*
X75967256Y-134395035D01*
X76057441Y-134572032D01*
X76174203Y-134732739D01*
X76174203Y-134732740D01*
X76314659Y-134873196D01*
X76475367Y-134989958D01*
X76652362Y-135080142D01*
X76841277Y-135141524D01*
X77037479Y-135172600D01*
X77648800Y-135172600D01*
X77648800Y-134352851D01*
X77702719Y-134383981D01*
X77831920Y-134418600D01*
X77965680Y-134418600D01*
X78094881Y-134383981D01*
X78148800Y-134352851D01*
X78148800Y-135172600D01*
X78760121Y-135172600D01*
X78956320Y-135141524D01*
X78956323Y-135141524D01*
X79145237Y-135080142D01*
X79322232Y-134989958D01*
X79482939Y-134873196D01*
X79482940Y-134873196D01*
X79623396Y-134732740D01*
X79623396Y-134732739D01*
X79740158Y-134572032D01*
X79830343Y-134395035D01*
X79891725Y-134206117D01*
X79898934Y-134160600D01*
X78341051Y-134160600D01*
X78372181Y-134106681D01*
X78406800Y-133977480D01*
X78406800Y-133843720D01*
X78372181Y-133714519D01*
X78341051Y-133660600D01*
X79898935Y-133660600D01*
X79898934Y-133660599D01*
X82401065Y-133660599D01*
X82401065Y-133660600D01*
X83958949Y-133660600D01*
X83927819Y-133714519D01*
X83893200Y-133843720D01*
X83893200Y-133977480D01*
X83927819Y-134106681D01*
X83958949Y-134160600D01*
X82401065Y-134160600D01*
X82408274Y-134206117D01*
X82469656Y-134395035D01*
X82559841Y-134572032D01*
X82676603Y-134732739D01*
X82676603Y-134732740D01*
X82817059Y-134873196D01*
X82977767Y-134989958D01*
X83154762Y-135080142D01*
X83343677Y-135141524D01*
X83539879Y-135172600D01*
X84151200Y-135172600D01*
X84151200Y-134352851D01*
X84205119Y-134383981D01*
X84334320Y-134418600D01*
X84468080Y-134418600D01*
X84597281Y-134383981D01*
X84651200Y-134352851D01*
X84651200Y-135172600D01*
X85262521Y-135172600D01*
X85458720Y-135141524D01*
X85458723Y-135141524D01*
X85647637Y-135080142D01*
X85824632Y-134989958D01*
X85985339Y-134873196D01*
X85985340Y-134873196D01*
X86125796Y-134732740D01*
X86125796Y-134732739D01*
X86242558Y-134572032D01*
X86332743Y-134395035D01*
X86394125Y-134206117D01*
X86401334Y-134160600D01*
X84843451Y-134160600D01*
X84874581Y-134106681D01*
X84878690Y-134091345D01*
X90391500Y-134091345D01*
X90391500Y-135888654D01*
X90398011Y-135949202D01*
X90398011Y-135949204D01*
X90449111Y-136086204D01*
X90536739Y-136203261D01*
X90653796Y-136290889D01*
X90790799Y-136341989D01*
X90818050Y-136344918D01*
X90851345Y-136348499D01*
X90851362Y-136348500D01*
X90992500Y-136348500D01*
X91059539Y-136368185D01*
X91105294Y-136420989D01*
X91116500Y-136472500D01*
X91116500Y-140262398D01*
X91140843Y-140384777D01*
X91140845Y-140384785D01*
X91188598Y-140500072D01*
X91188603Y-140500081D01*
X91257928Y-140603832D01*
X91257931Y-140603836D01*
X98405181Y-147751085D01*
X98438666Y-147812408D01*
X98441500Y-147838766D01*
X98441500Y-148601008D01*
X98421815Y-148668047D01*
X98409650Y-148683980D01*
X98360959Y-148738057D01*
X98265473Y-148903443D01*
X98265470Y-148903450D01*
X98216699Y-149053553D01*
X98206458Y-149085072D01*
X98186496Y-149275000D01*
X98206458Y-149464928D01*
X98206459Y-149464931D01*
X98265470Y-149646549D01*
X98265473Y-149646556D01*
X98324887Y-149749463D01*
X98341500Y-149811463D01*
X98341500Y-152922756D01*
X98321815Y-152989795D01*
X98305181Y-153010437D01*
X95875836Y-155439781D01*
X95875835Y-155439782D01*
X95792828Y-155564012D01*
X95792824Y-155564019D01*
X95751017Y-155664953D01*
X95707176Y-155719356D01*
X95640882Y-155741421D01*
X95636456Y-155741500D01*
X95616345Y-155741500D01*
X95555797Y-155748011D01*
X95555795Y-155748011D01*
X95418795Y-155799111D01*
X95301739Y-155886739D01*
X95214111Y-156003795D01*
X95163011Y-156140795D01*
X95163011Y-156140797D01*
X95156500Y-156201345D01*
X95156500Y-157898654D01*
X95163011Y-157959202D01*
X95163011Y-157959204D01*
X95203887Y-158068794D01*
X95214111Y-158096204D01*
X95301739Y-158213261D01*
X95418796Y-158300889D01*
X95555799Y-158351989D01*
X95583050Y-158354918D01*
X95616345Y-158358499D01*
X95616360Y-158358499D01*
X95616362Y-158358500D01*
X95616364Y-158358500D01*
X95619669Y-158358677D01*
X95619659Y-158358855D01*
X95619665Y-158358856D01*
X95619653Y-158358959D01*
X95619591Y-158360128D01*
X95681084Y-158378185D01*
X95726839Y-158430989D01*
X95732519Y-158463967D01*
X96418553Y-159150000D01*
X96412339Y-159150000D01*
X96310606Y-159177259D01*
X96219394Y-159229920D01*
X96144920Y-159304394D01*
X96092259Y-159395606D01*
X96065000Y-159497339D01*
X96065000Y-159503552D01*
X95385974Y-158824526D01*
X95385973Y-158824526D01*
X95334868Y-158897512D01*
X95334866Y-158897516D01*
X95238734Y-159103673D01*
X95238730Y-159103682D01*
X95179860Y-159323389D01*
X95179858Y-159323400D01*
X95160034Y-159549997D01*
X95160034Y-159550002D01*
X95179858Y-159776599D01*
X95179860Y-159776610D01*
X95238730Y-159996317D01*
X95238735Y-159996331D01*
X95334863Y-160202478D01*
X95385974Y-160275472D01*
X96065000Y-159596446D01*
X96065000Y-159602661D01*
X96092259Y-159704394D01*
X96144920Y-159795606D01*
X96219394Y-159870080D01*
X96310606Y-159922741D01*
X96412339Y-159950000D01*
X96418553Y-159950000D01*
X95739526Y-160629025D01*
X95812513Y-160680132D01*
X95812521Y-160680136D01*
X96018668Y-160776264D01*
X96018682Y-160776269D01*
X96238389Y-160835139D01*
X96238400Y-160835141D01*
X96464998Y-160854966D01*
X96465002Y-160854966D01*
X96691599Y-160835141D01*
X96691610Y-160835139D01*
X96911317Y-160776269D01*
X96911331Y-160776264D01*
X97117478Y-160680136D01*
X97190471Y-160629024D01*
X96511447Y-159950000D01*
X96517661Y-159950000D01*
X96619394Y-159922741D01*
X96710606Y-159870080D01*
X96785080Y-159795606D01*
X96837741Y-159704394D01*
X96865000Y-159602661D01*
X96865000Y-159596447D01*
X97544024Y-160275471D01*
X97595136Y-160202478D01*
X97691264Y-159996331D01*
X97691269Y-159996317D01*
X97750139Y-159776610D01*
X97750141Y-159776599D01*
X97769966Y-159550002D01*
X97769966Y-159549997D01*
X97750141Y-159323400D01*
X97750139Y-159323389D01*
X97691269Y-159103682D01*
X97691264Y-159103668D01*
X97595136Y-158897521D01*
X97595132Y-158897513D01*
X97544025Y-158824526D01*
X96865000Y-159503551D01*
X96865000Y-159497339D01*
X96837741Y-159395606D01*
X96785080Y-159304394D01*
X96710606Y-159229920D01*
X96619394Y-159177259D01*
X96517661Y-159150000D01*
X96511448Y-159150000D01*
X97198534Y-158462912D01*
X97206192Y-158424808D01*
X97254807Y-158374625D01*
X97310399Y-158359964D01*
X97310346Y-158358959D01*
X97310335Y-158358856D01*
X97310340Y-158358855D01*
X97310331Y-158358677D01*
X97313635Y-158358500D01*
X97313638Y-158358500D01*
X97313640Y-158358499D01*
X97313654Y-158358499D01*
X97340692Y-158355591D01*
X97374201Y-158351989D01*
X97511204Y-158300889D01*
X97628261Y-158213261D01*
X97715889Y-158096204D01*
X97766989Y-157959201D01*
X97770591Y-157925692D01*
X97773499Y-157898654D01*
X97773500Y-157898637D01*
X97773500Y-156201362D01*
X97773499Y-156201345D01*
X97770157Y-156170270D01*
X97766989Y-156140799D01*
X97751873Y-156100273D01*
X97746026Y-156084596D01*
X97715889Y-156003796D01*
X97700085Y-155982684D01*
X97669525Y-155941860D01*
X97645108Y-155876396D01*
X97659960Y-155808123D01*
X97681111Y-155779869D01*
X98654768Y-154806213D01*
X99689166Y-153771815D01*
X99772174Y-153647584D01*
X99829351Y-153509546D01*
X99858500Y-153363005D01*
X99858500Y-153213595D01*
X99858500Y-149811463D01*
X99875113Y-149749463D01*
X99917370Y-149676272D01*
X99934527Y-149646556D01*
X99993542Y-149464928D01*
X100013504Y-149275000D01*
X99993542Y-149085072D01*
X99934527Y-148903444D01*
X99839040Y-148738056D01*
X99740350Y-148628449D01*
X99710120Y-148565457D01*
X99708500Y-148545477D01*
X99708500Y-147462605D01*
X99708499Y-147462601D01*
X99684156Y-147340222D01*
X99684155Y-147340215D01*
X99636400Y-147224925D01*
X99636399Y-147224924D01*
X99636396Y-147224918D01*
X99567072Y-147121168D01*
X99527572Y-147081668D01*
X99478833Y-147032929D01*
X92419819Y-139973915D01*
X92386334Y-139912592D01*
X92383500Y-139886234D01*
X92383500Y-136472500D01*
X92403185Y-136405461D01*
X92455989Y-136359706D01*
X92507500Y-136348500D01*
X92648638Y-136348500D01*
X92648654Y-136348499D01*
X92675692Y-136345591D01*
X92709201Y-136341989D01*
X92846204Y-136290889D01*
X92963261Y-136203261D01*
X93050889Y-136086204D01*
X93101989Y-135949201D01*
X93105591Y-135915692D01*
X93108499Y-135888654D01*
X93108500Y-135888637D01*
X93108500Y-134091362D01*
X93108499Y-134091345D01*
X93105157Y-134060270D01*
X93101989Y-134030799D01*
X93050889Y-133893796D01*
X92963261Y-133776739D01*
X92846204Y-133689111D01*
X92846202Y-133689110D01*
X92846204Y-133689110D01*
X92716619Y-133640777D01*
X92660685Y-133598906D01*
X92636269Y-133533441D01*
X92651121Y-133465168D01*
X92672272Y-133436914D01*
X92788108Y-133321078D01*
X92923600Y-133127578D01*
X93023429Y-132913492D01*
X93023432Y-132913486D01*
X93080636Y-132700000D01*
X92183012Y-132700000D01*
X92215925Y-132642993D01*
X92250000Y-132515826D01*
X92250000Y-132384174D01*
X92215925Y-132257007D01*
X92183012Y-132200000D01*
X93080636Y-132200000D01*
X93080635Y-132199999D01*
X93023432Y-131986513D01*
X93023429Y-131986507D01*
X92923600Y-131772422D01*
X92923599Y-131772420D01*
X92788113Y-131578926D01*
X92788108Y-131578920D01*
X92621082Y-131411894D01*
X92427578Y-131276399D01*
X92213492Y-131176570D01*
X92213486Y-131176567D01*
X92000000Y-131119364D01*
X92000000Y-132016988D01*
X91942993Y-131984075D01*
X91815826Y-131950000D01*
X91684174Y-131950000D01*
X91557007Y-131984075D01*
X91500000Y-132016988D01*
X91500000Y-131119364D01*
X91499999Y-131119364D01*
X91286513Y-131176567D01*
X91286507Y-131176570D01*
X91072422Y-131276399D01*
X91072420Y-131276400D01*
X90878926Y-131411886D01*
X90878920Y-131411891D01*
X90711891Y-131578920D01*
X90711886Y-131578926D01*
X90576400Y-131772420D01*
X90576399Y-131772422D01*
X90476570Y-131986507D01*
X90476567Y-131986513D01*
X90419364Y-132199999D01*
X90419364Y-132200000D01*
X91316988Y-132200000D01*
X91284075Y-132257007D01*
X91250000Y-132384174D01*
X91250000Y-132515826D01*
X91284075Y-132642993D01*
X91316988Y-132700000D01*
X90419364Y-132700000D01*
X90476567Y-132913486D01*
X90476570Y-132913492D01*
X90576399Y-133127578D01*
X90711894Y-133321082D01*
X90827727Y-133436915D01*
X90861212Y-133498238D01*
X90856228Y-133567930D01*
X90814356Y-133623863D01*
X90783381Y-133640777D01*
X90653795Y-133689111D01*
X90536739Y-133776739D01*
X90449111Y-133893795D01*
X90398011Y-134030795D01*
X90398011Y-134030797D01*
X90391500Y-134091345D01*
X84878690Y-134091345D01*
X84909200Y-133977480D01*
X84909200Y-133843720D01*
X84874581Y-133714519D01*
X84843451Y-133660600D01*
X86401335Y-133660600D01*
X86401334Y-133660599D01*
X86394125Y-133615082D01*
X86332743Y-133426164D01*
X86242558Y-133249167D01*
X86125796Y-133088460D01*
X86125796Y-133088459D01*
X85985340Y-132948003D01*
X85824632Y-132831241D01*
X85647637Y-132741057D01*
X85458722Y-132679675D01*
X85262521Y-132648600D01*
X84651200Y-132648600D01*
X84651200Y-133468348D01*
X84597281Y-133437219D01*
X84468080Y-133402600D01*
X84334320Y-133402600D01*
X84205119Y-133437219D01*
X84151200Y-133468348D01*
X84151200Y-132648600D01*
X83539879Y-132648600D01*
X83343679Y-132679675D01*
X83343676Y-132679675D01*
X83154762Y-132741057D01*
X82977767Y-132831241D01*
X82817060Y-132948003D01*
X82817059Y-132948003D01*
X82676603Y-133088459D01*
X82676603Y-133088460D01*
X82559841Y-133249167D01*
X82469656Y-133426164D01*
X82408274Y-133615082D01*
X82401065Y-133660599D01*
X79898934Y-133660599D01*
X79891725Y-133615082D01*
X79830343Y-133426164D01*
X79740158Y-133249167D01*
X79623396Y-133088460D01*
X79623396Y-133088459D01*
X79482940Y-132948003D01*
X79322232Y-132831241D01*
X79145237Y-132741057D01*
X78956322Y-132679675D01*
X78760121Y-132648600D01*
X78148800Y-132648600D01*
X78148800Y-133468348D01*
X78094881Y-133437219D01*
X77965680Y-133402600D01*
X77831920Y-133402600D01*
X77702719Y-133437219D01*
X77648800Y-133468348D01*
X77648800Y-132648600D01*
X77037479Y-132648600D01*
X76841279Y-132679675D01*
X76841276Y-132679675D01*
X76652362Y-132741057D01*
X76475367Y-132831241D01*
X76314660Y-132948003D01*
X76314659Y-132948003D01*
X76174203Y-133088459D01*
X76174203Y-133088460D01*
X76057441Y-133249167D01*
X75967256Y-133426164D01*
X75905874Y-133615082D01*
X75898665Y-133660599D01*
X70025500Y-133660599D01*
X70025500Y-129289409D01*
X75866300Y-129289409D01*
X75866300Y-129489390D01*
X75897584Y-129686911D01*
X75959379Y-129877100D01*
X76016989Y-129990165D01*
X76050171Y-130055287D01*
X76167717Y-130217075D01*
X76309125Y-130358483D01*
X76470913Y-130476029D01*
X76536454Y-130509424D01*
X76649099Y-130566820D01*
X76744193Y-130597717D01*
X76839290Y-130628616D01*
X77036809Y-130659900D01*
X77036810Y-130659900D01*
X78760790Y-130659900D01*
X78760791Y-130659900D01*
X78958310Y-130628616D01*
X79148503Y-130566819D01*
X79326687Y-130476029D01*
X79488475Y-130358483D01*
X79629883Y-130217075D01*
X79747429Y-130055287D01*
X79838219Y-129877103D01*
X79900016Y-129686910D01*
X79931300Y-129489391D01*
X79931300Y-129289409D01*
X82368700Y-129289409D01*
X82368700Y-129489390D01*
X82399984Y-129686911D01*
X82461779Y-129877100D01*
X82519389Y-129990165D01*
X82552571Y-130055287D01*
X82670117Y-130217075D01*
X82811525Y-130358483D01*
X82973313Y-130476029D01*
X83038854Y-130509424D01*
X83151499Y-130566820D01*
X83246593Y-130597717D01*
X83341690Y-130628616D01*
X83539209Y-130659900D01*
X83539210Y-130659900D01*
X85263190Y-130659900D01*
X85263191Y-130659900D01*
X85460710Y-130628616D01*
X85650903Y-130566819D01*
X85829087Y-130476029D01*
X85990875Y-130358483D01*
X86132283Y-130217075D01*
X86249829Y-130055287D01*
X86340619Y-129877103D01*
X86402416Y-129686910D01*
X86433700Y-129489391D01*
X86433700Y-129289409D01*
X86402416Y-129091890D01*
X86371517Y-128996793D01*
X86340620Y-128901699D01*
X86312184Y-128845891D01*
X86249829Y-128723513D01*
X86132283Y-128561725D01*
X85990875Y-128420317D01*
X85829087Y-128302771D01*
X85650900Y-128211979D01*
X85460711Y-128150184D01*
X85340894Y-128131207D01*
X85263191Y-128118900D01*
X85263190Y-128118900D01*
X85158700Y-128118900D01*
X85091661Y-128099215D01*
X85045906Y-128046411D01*
X85034700Y-127994900D01*
X85034700Y-124695066D01*
X85054385Y-124628027D01*
X85071019Y-124607385D01*
X96643585Y-113034819D01*
X96704908Y-113001334D01*
X96731266Y-112998500D01*
X98576429Y-112998500D01*
X98643468Y-113018185D01*
X98689223Y-113070989D01*
X98699167Y-113140147D01*
X98696635Y-113152940D01*
X98655436Y-113315628D01*
X98655434Y-113315640D01*
X98636844Y-113539994D01*
X98636844Y-113540005D01*
X98655434Y-113764359D01*
X98655436Y-113764371D01*
X98710703Y-113982614D01*
X98801140Y-114188792D01*
X98924276Y-114377265D01*
X98924284Y-114377276D01*
X99076756Y-114542902D01*
X99076760Y-114542906D01*
X99254424Y-114681189D01*
X99254429Y-114681191D01*
X99254431Y-114681193D01*
X99290930Y-114700946D01*
X99340520Y-114750165D01*
X99355628Y-114818382D01*
X99331457Y-114883937D01*
X99290930Y-114919054D01*
X99254431Y-114938806D01*
X99254422Y-114938812D01*
X99076761Y-115077092D01*
X99076756Y-115077097D01*
X98924284Y-115242723D01*
X98924276Y-115242734D01*
X98801140Y-115431207D01*
X98710703Y-115637385D01*
X98655436Y-115855628D01*
X98655434Y-115855640D01*
X98636844Y-116079994D01*
X98636844Y-116080005D01*
X98655434Y-116304359D01*
X98655436Y-116304371D01*
X98710703Y-116522614D01*
X98801140Y-116728792D01*
X98924276Y-116917265D01*
X98924284Y-116917276D01*
X99018666Y-117019800D01*
X99076760Y-117082906D01*
X99254424Y-117221189D01*
X99254429Y-117221191D01*
X99254431Y-117221193D01*
X99290930Y-117240946D01*
X99340520Y-117290165D01*
X99355628Y-117358382D01*
X99331457Y-117423937D01*
X99290930Y-117459054D01*
X99254431Y-117478806D01*
X99254422Y-117478812D01*
X99076761Y-117617092D01*
X99076756Y-117617097D01*
X98924284Y-117782723D01*
X98924276Y-117782734D01*
X98801140Y-117971207D01*
X98710703Y-118177385D01*
X98655436Y-118395628D01*
X98655434Y-118395640D01*
X98636844Y-118619994D01*
X98636844Y-118620005D01*
X98655434Y-118844359D01*
X98655436Y-118844371D01*
X98710703Y-119062614D01*
X98801140Y-119268792D01*
X98924276Y-119457265D01*
X98924284Y-119457276D01*
X99055015Y-119599285D01*
X99076760Y-119622906D01*
X99254424Y-119761189D01*
X99254429Y-119761191D01*
X99254431Y-119761193D01*
X99290930Y-119780946D01*
X99340520Y-119830165D01*
X99355628Y-119898382D01*
X99331457Y-119963937D01*
X99290930Y-119999054D01*
X99254431Y-120018806D01*
X99254422Y-120018812D01*
X99076761Y-120157092D01*
X99076756Y-120157097D01*
X98924284Y-120322723D01*
X98924276Y-120322734D01*
X98801140Y-120511207D01*
X98710703Y-120717385D01*
X98655436Y-120935628D01*
X98655434Y-120935640D01*
X98636844Y-121159994D01*
X98636844Y-121160005D01*
X98655434Y-121384359D01*
X98655436Y-121384371D01*
X98710703Y-121602614D01*
X98801140Y-121808792D01*
X98924276Y-121997265D01*
X98924284Y-121997276D01*
X99067007Y-122152312D01*
X99076760Y-122162906D01*
X99254424Y-122301189D01*
X99254429Y-122301191D01*
X99254431Y-122301193D01*
X99290930Y-122320946D01*
X99340520Y-122370165D01*
X99355628Y-122438382D01*
X99331457Y-122503937D01*
X99290930Y-122539054D01*
X99254431Y-122558806D01*
X99254422Y-122558812D01*
X99076761Y-122697092D01*
X99076756Y-122697097D01*
X98924284Y-122862723D01*
X98924276Y-122862734D01*
X98801140Y-123051207D01*
X98710703Y-123257385D01*
X98655436Y-123475628D01*
X98655434Y-123475640D01*
X98636844Y-123699994D01*
X98636844Y-123700005D01*
X98655434Y-123924359D01*
X98655436Y-123924371D01*
X98710703Y-124142614D01*
X98801140Y-124348792D01*
X98924276Y-124537265D01*
X98924284Y-124537276D01*
X99076756Y-124702902D01*
X99076760Y-124702906D01*
X99254424Y-124841189D01*
X99254429Y-124841191D01*
X99254431Y-124841193D01*
X99290930Y-124860946D01*
X99340520Y-124910165D01*
X99355628Y-124978382D01*
X99331457Y-125043937D01*
X99290930Y-125079054D01*
X99254431Y-125098806D01*
X99254422Y-125098812D01*
X99076761Y-125237092D01*
X99076756Y-125237097D01*
X98924284Y-125402723D01*
X98924276Y-125402734D01*
X98801140Y-125591207D01*
X98710703Y-125797385D01*
X98655436Y-126015628D01*
X98655434Y-126015640D01*
X98636844Y-126239994D01*
X98636844Y-126240005D01*
X98655434Y-126464359D01*
X98655436Y-126464371D01*
X98710703Y-126682614D01*
X98801140Y-126888792D01*
X98924276Y-127077265D01*
X98924284Y-127077276D01*
X99076756Y-127242902D01*
X99076761Y-127242907D01*
X99089682Y-127252964D01*
X99254424Y-127381189D01*
X99254429Y-127381191D01*
X99254431Y-127381193D01*
X99290930Y-127400946D01*
X99340520Y-127450165D01*
X99355628Y-127518382D01*
X99331457Y-127583937D01*
X99290930Y-127619054D01*
X99254431Y-127638806D01*
X99254422Y-127638812D01*
X99076761Y-127777092D01*
X99076756Y-127777097D01*
X98924284Y-127942723D01*
X98924276Y-127942734D01*
X98801140Y-128131207D01*
X98710703Y-128337385D01*
X98655436Y-128555628D01*
X98655434Y-128555640D01*
X98636844Y-128779994D01*
X98636844Y-128780005D01*
X98655434Y-129004359D01*
X98655436Y-129004371D01*
X98710703Y-129222614D01*
X98801140Y-129428792D01*
X98924276Y-129617265D01*
X98924284Y-129617276D01*
X99068195Y-129773602D01*
X99076760Y-129782906D01*
X99254424Y-129921189D01*
X99254429Y-129921191D01*
X99254431Y-129921193D01*
X99290930Y-129940946D01*
X99340520Y-129990165D01*
X99355628Y-130058382D01*
X99331457Y-130123937D01*
X99290930Y-130159054D01*
X99254431Y-130178806D01*
X99254422Y-130178812D01*
X99076761Y-130317092D01*
X99076756Y-130317097D01*
X98924284Y-130482723D01*
X98924276Y-130482734D01*
X98801140Y-130671207D01*
X98710703Y-130877385D01*
X98655436Y-131095628D01*
X98655434Y-131095640D01*
X98636844Y-131319994D01*
X98636844Y-131320005D01*
X98655434Y-131544359D01*
X98655436Y-131544371D01*
X98710703Y-131762614D01*
X98801140Y-131968792D01*
X98924276Y-132157265D01*
X98924284Y-132157276D01*
X99061363Y-132306181D01*
X99076760Y-132322906D01*
X99254424Y-132461189D01*
X99254425Y-132461189D01*
X99254427Y-132461191D01*
X99381135Y-132529761D01*
X99452426Y-132568342D01*
X99665365Y-132641444D01*
X99887431Y-132678500D01*
X100112569Y-132678500D01*
X100334635Y-132641444D01*
X100547574Y-132568342D01*
X100745576Y-132461189D01*
X100923240Y-132322906D01*
X101075722Y-132157268D01*
X101178471Y-131999998D01*
X104066502Y-131999998D01*
X104066502Y-132000001D01*
X104086456Y-132228081D01*
X104086457Y-132228089D01*
X104145714Y-132449238D01*
X104145718Y-132449249D01*
X104238677Y-132648600D01*
X104242477Y-132656749D01*
X104373802Y-132844300D01*
X104535700Y-133006198D01*
X104723251Y-133137523D01*
X104778445Y-133163260D01*
X104930750Y-133234281D01*
X104930752Y-133234281D01*
X104930757Y-133234284D01*
X105151913Y-133293543D01*
X105314832Y-133307796D01*
X105379998Y-133313498D01*
X105380000Y-133313498D01*
X105380002Y-133313498D01*
X105437139Y-133308499D01*
X105608087Y-133293543D01*
X105829243Y-133234284D01*
X106036749Y-133137523D01*
X106224300Y-133006198D01*
X106386198Y-132844300D01*
X106517523Y-132656749D01*
X106614284Y-132449243D01*
X106673543Y-132228087D01*
X106693498Y-132000000D01*
X106673543Y-131771913D01*
X106614284Y-131550757D01*
X106517523Y-131343251D01*
X106386198Y-131155700D01*
X106224300Y-130993802D01*
X106036749Y-130862477D01*
X106036745Y-130862475D01*
X105829249Y-130765718D01*
X105829238Y-130765714D01*
X105608089Y-130706457D01*
X105608081Y-130706456D01*
X105380002Y-130686502D01*
X105379998Y-130686502D01*
X105151918Y-130706456D01*
X105151910Y-130706457D01*
X104930761Y-130765714D01*
X104930750Y-130765718D01*
X104723254Y-130862475D01*
X104723252Y-130862476D01*
X104701960Y-130877385D01*
X104535700Y-130993802D01*
X104535698Y-130993803D01*
X104535695Y-130993806D01*
X104373806Y-131155695D01*
X104242476Y-131343252D01*
X104242475Y-131343254D01*
X104145718Y-131550750D01*
X104145714Y-131550761D01*
X104086457Y-131771910D01*
X104086456Y-131771918D01*
X104066502Y-131999998D01*
X101178471Y-131999998D01*
X101198860Y-131968791D01*
X101289296Y-131762616D01*
X101344564Y-131544368D01*
X101344565Y-131544359D01*
X101363156Y-131320005D01*
X101363156Y-131319994D01*
X101344565Y-131095640D01*
X101344563Y-131095628D01*
X101289296Y-130877385D01*
X101282756Y-130862476D01*
X101198860Y-130671209D01*
X101191471Y-130659900D01*
X101075723Y-130482734D01*
X101075715Y-130482723D01*
X100923243Y-130317097D01*
X100923238Y-130317092D01*
X100804797Y-130224905D01*
X100745576Y-130178811D01*
X100709070Y-130159055D01*
X100659479Y-130109836D01*
X100644371Y-130041619D01*
X100668541Y-129976064D01*
X100709070Y-129940945D01*
X100709084Y-129940936D01*
X100745576Y-129921189D01*
X100923240Y-129782906D01*
X101040309Y-129655736D01*
X101075715Y-129617276D01*
X101075716Y-129617274D01*
X101075722Y-129617268D01*
X101198860Y-129428791D01*
X101289296Y-129222616D01*
X101344564Y-129004368D01*
X101347855Y-128964657D01*
X101363156Y-128780005D01*
X101363156Y-128779994D01*
X101344565Y-128555640D01*
X101344563Y-128555628D01*
X101317624Y-128449249D01*
X101289296Y-128337384D01*
X101198860Y-128131209D01*
X101177957Y-128099215D01*
X101113135Y-127999998D01*
X104066502Y-127999998D01*
X104066502Y-128000001D01*
X104086456Y-128228081D01*
X104086457Y-128228089D01*
X104145714Y-128449238D01*
X104145718Y-128449249D01*
X104237909Y-128646953D01*
X104242477Y-128656749D01*
X104373802Y-128844300D01*
X104535700Y-129006198D01*
X104723251Y-129137523D01*
X104723897Y-129137824D01*
X104930750Y-129234281D01*
X104930752Y-129234281D01*
X104930757Y-129234284D01*
X105151913Y-129293543D01*
X105314832Y-129307796D01*
X105379998Y-129313498D01*
X105380000Y-129313498D01*
X105380002Y-129313498D01*
X105437139Y-129308499D01*
X105608087Y-129293543D01*
X105829243Y-129234284D01*
X106036749Y-129137523D01*
X106224300Y-129006198D01*
X106386198Y-128844300D01*
X106517523Y-128656749D01*
X106614284Y-128449243D01*
X106673543Y-128228087D01*
X106692686Y-128009277D01*
X106693498Y-128000001D01*
X106693498Y-127999998D01*
X106683305Y-127883498D01*
X106673543Y-127771913D01*
X106614284Y-127550757D01*
X106599187Y-127518382D01*
X106570845Y-127457601D01*
X106517523Y-127343251D01*
X106386198Y-127155700D01*
X106224300Y-126993802D01*
X106036749Y-126862477D01*
X106036745Y-126862475D01*
X105829249Y-126765718D01*
X105829238Y-126765714D01*
X105608089Y-126706457D01*
X105608081Y-126706456D01*
X105380002Y-126686502D01*
X105379998Y-126686502D01*
X105151918Y-126706456D01*
X105151910Y-126706457D01*
X104930761Y-126765714D01*
X104930750Y-126765718D01*
X104723254Y-126862475D01*
X104723252Y-126862476D01*
X104723251Y-126862477D01*
X104535700Y-126993802D01*
X104535698Y-126993803D01*
X104535695Y-126993806D01*
X104373806Y-127155695D01*
X104373803Y-127155698D01*
X104373802Y-127155700D01*
X104349488Y-127190424D01*
X104242476Y-127343252D01*
X104242475Y-127343254D01*
X104145718Y-127550750D01*
X104145714Y-127550761D01*
X104086457Y-127771910D01*
X104086456Y-127771918D01*
X104066502Y-127999998D01*
X101113135Y-127999998D01*
X101075723Y-127942734D01*
X101075715Y-127942723D01*
X100923243Y-127777097D01*
X100923238Y-127777092D01*
X100745577Y-127638812D01*
X100745578Y-127638812D01*
X100745576Y-127638811D01*
X100709070Y-127619055D01*
X100659479Y-127569836D01*
X100644371Y-127501619D01*
X100668541Y-127436064D01*
X100709070Y-127400945D01*
X100709084Y-127400936D01*
X100745576Y-127381189D01*
X100923240Y-127242906D01*
X101063268Y-127090797D01*
X101075715Y-127077276D01*
X101075716Y-127077274D01*
X101075722Y-127077268D01*
X101198860Y-126888791D01*
X101289296Y-126682616D01*
X101344564Y-126464368D01*
X101347141Y-126433270D01*
X101363156Y-126240005D01*
X101363156Y-126239994D01*
X101344565Y-126015640D01*
X101344563Y-126015628D01*
X101301894Y-125847133D01*
X101289296Y-125797384D01*
X101198860Y-125591209D01*
X101196944Y-125588277D01*
X101075723Y-125402734D01*
X101075715Y-125402723D01*
X100923243Y-125237097D01*
X100923238Y-125237092D01*
X100745577Y-125098812D01*
X100745578Y-125098812D01*
X100745576Y-125098811D01*
X100709070Y-125079055D01*
X100659479Y-125029836D01*
X100644371Y-124961619D01*
X100668541Y-124896064D01*
X100709070Y-124860945D01*
X100709084Y-124860936D01*
X100745576Y-124841189D01*
X100923240Y-124702906D01*
X101075722Y-124537268D01*
X101198860Y-124348791D01*
X101289296Y-124142616D01*
X101325412Y-123999998D01*
X104066502Y-123999998D01*
X104066502Y-124000001D01*
X104086456Y-124228081D01*
X104086457Y-124228089D01*
X104145714Y-124449238D01*
X104145718Y-124449249D01*
X104236394Y-124643704D01*
X104242477Y-124656749D01*
X104373802Y-124844300D01*
X104535700Y-125006198D01*
X104723251Y-125137523D01*
X104835352Y-125189796D01*
X104930750Y-125234281D01*
X104930752Y-125234281D01*
X104930757Y-125234284D01*
X105151913Y-125293543D01*
X105314832Y-125307796D01*
X105379998Y-125313498D01*
X105380000Y-125313498D01*
X105380002Y-125313498D01*
X105437021Y-125308509D01*
X105608087Y-125293543D01*
X105829243Y-125234284D01*
X106036749Y-125137523D01*
X106224300Y-125006198D01*
X106386198Y-124844300D01*
X106517523Y-124656749D01*
X106614284Y-124449243D01*
X106673543Y-124228087D01*
X106693498Y-124000000D01*
X106692686Y-123990724D01*
X106676168Y-123801918D01*
X106673543Y-123771913D01*
X106614284Y-123550757D01*
X106517523Y-123343251D01*
X106386198Y-123155700D01*
X106224300Y-122993802D01*
X106036749Y-122862477D01*
X106036095Y-122862172D01*
X105829249Y-122765718D01*
X105829238Y-122765714D01*
X105608089Y-122706457D01*
X105608081Y-122706456D01*
X105380002Y-122686502D01*
X105379998Y-122686502D01*
X105151918Y-122706456D01*
X105151910Y-122706457D01*
X104930761Y-122765714D01*
X104930750Y-122765718D01*
X104723254Y-122862475D01*
X104723252Y-122862476D01*
X104687080Y-122887804D01*
X104535700Y-122993802D01*
X104535698Y-122993803D01*
X104535695Y-122993806D01*
X104373806Y-123155695D01*
X104373803Y-123155698D01*
X104373802Y-123155700D01*
X104303013Y-123256797D01*
X104242476Y-123343252D01*
X104242475Y-123343254D01*
X104145718Y-123550750D01*
X104145714Y-123550761D01*
X104086457Y-123771910D01*
X104086456Y-123771918D01*
X104066502Y-123999998D01*
X101325412Y-123999998D01*
X101344564Y-123924368D01*
X101353337Y-123818496D01*
X101363156Y-123700005D01*
X101363156Y-123699994D01*
X101344565Y-123475640D01*
X101344563Y-123475628D01*
X101341876Y-123465018D01*
X101289296Y-123257384D01*
X101198860Y-123051209D01*
X101188490Y-123035337D01*
X101095155Y-122892477D01*
X101075722Y-122862732D01*
X101075719Y-122862729D01*
X101075715Y-122862723D01*
X100923243Y-122697097D01*
X100923238Y-122697092D01*
X100764086Y-122573218D01*
X100745576Y-122558811D01*
X100709070Y-122539055D01*
X100659479Y-122489836D01*
X100644371Y-122421619D01*
X100668541Y-122356064D01*
X100709070Y-122320945D01*
X100717858Y-122316189D01*
X100745576Y-122301189D01*
X100923240Y-122162906D01*
X101068627Y-122004975D01*
X101075715Y-121997276D01*
X101075716Y-121997274D01*
X101075722Y-121997268D01*
X101198860Y-121808791D01*
X101289296Y-121602616D01*
X101344564Y-121384368D01*
X101346252Y-121364000D01*
X101363156Y-121160005D01*
X101363156Y-121159994D01*
X101344565Y-120935640D01*
X101344563Y-120935628D01*
X101338097Y-120910094D01*
X101289296Y-120717384D01*
X101198860Y-120511209D01*
X101075722Y-120322732D01*
X101075719Y-120322729D01*
X101075715Y-120322723D01*
X100923243Y-120157097D01*
X100923238Y-120157092D01*
X100745577Y-120018812D01*
X100745578Y-120018812D01*
X100745576Y-120018811D01*
X100710813Y-119999998D01*
X104066502Y-119999998D01*
X104066502Y-120000001D01*
X104086456Y-120228081D01*
X104086457Y-120228089D01*
X104145714Y-120449238D01*
X104145718Y-120449249D01*
X104229641Y-120629222D01*
X104242477Y-120656749D01*
X104373802Y-120844300D01*
X104535700Y-121006198D01*
X104723251Y-121137523D01*
X104778445Y-121163260D01*
X104930750Y-121234281D01*
X104930752Y-121234281D01*
X104930757Y-121234284D01*
X105151913Y-121293543D01*
X105314832Y-121307796D01*
X105379998Y-121313498D01*
X105380000Y-121313498D01*
X105380002Y-121313498D01*
X105437139Y-121308499D01*
X105608087Y-121293543D01*
X105829243Y-121234284D01*
X106036749Y-121137523D01*
X106224300Y-121006198D01*
X106386198Y-120844300D01*
X106517523Y-120656749D01*
X106614284Y-120449243D01*
X106673543Y-120228087D01*
X106693498Y-120000000D01*
X106673543Y-119771913D01*
X106614284Y-119550757D01*
X106517523Y-119343251D01*
X106386198Y-119155700D01*
X106224300Y-118993802D01*
X106036749Y-118862477D01*
X106018124Y-118853792D01*
X105829249Y-118765718D01*
X105829238Y-118765714D01*
X105608089Y-118706457D01*
X105608081Y-118706456D01*
X105380002Y-118686502D01*
X105379998Y-118686502D01*
X105151918Y-118706456D01*
X105151910Y-118706457D01*
X104930761Y-118765714D01*
X104930750Y-118765718D01*
X104723254Y-118862475D01*
X104723252Y-118862476D01*
X104723251Y-118862477D01*
X104535700Y-118993802D01*
X104535698Y-118993803D01*
X104535695Y-118993806D01*
X104373806Y-119155695D01*
X104373803Y-119155698D01*
X104373802Y-119155700D01*
X104342783Y-119200000D01*
X104242476Y-119343252D01*
X104242475Y-119343254D01*
X104145718Y-119550750D01*
X104145714Y-119550761D01*
X104086457Y-119771910D01*
X104086456Y-119771918D01*
X104066502Y-119999998D01*
X100710813Y-119999998D01*
X100709070Y-119999055D01*
X100659479Y-119949836D01*
X100644371Y-119881619D01*
X100668541Y-119816064D01*
X100709070Y-119780945D01*
X100725750Y-119771918D01*
X100745576Y-119761189D01*
X100923240Y-119622906D01*
X101067035Y-119466705D01*
X101075715Y-119457276D01*
X101075716Y-119457274D01*
X101075722Y-119457268D01*
X101198860Y-119268791D01*
X101289296Y-119062616D01*
X101344564Y-118844368D01*
X101348605Y-118795606D01*
X101363156Y-118620005D01*
X101363156Y-118619994D01*
X101344565Y-118395640D01*
X101344563Y-118395628D01*
X101317355Y-118288185D01*
X101289296Y-118177384D01*
X101198860Y-117971209D01*
X101075722Y-117782732D01*
X101075719Y-117782729D01*
X101075715Y-117782723D01*
X100923243Y-117617097D01*
X100923238Y-117617092D01*
X100745577Y-117478812D01*
X100745578Y-117478812D01*
X100745576Y-117478811D01*
X100709070Y-117459055D01*
X100659479Y-117409836D01*
X100644371Y-117341619D01*
X100668541Y-117276064D01*
X100709070Y-117240945D01*
X100709084Y-117240936D01*
X100745576Y-117221189D01*
X100923240Y-117082906D01*
X101075722Y-116917268D01*
X101198860Y-116728791D01*
X101289296Y-116522616D01*
X101344564Y-116304368D01*
X101350885Y-116228087D01*
X101363156Y-116080005D01*
X101363156Y-116079994D01*
X101356527Y-115999998D01*
X104066502Y-115999998D01*
X104066502Y-116000001D01*
X104086456Y-116228081D01*
X104086457Y-116228089D01*
X104145714Y-116449238D01*
X104145718Y-116449249D01*
X104179929Y-116522614D01*
X104242477Y-116656749D01*
X104373802Y-116844300D01*
X104535700Y-117006198D01*
X104723251Y-117137523D01*
X104744036Y-117147215D01*
X104930750Y-117234281D01*
X104930752Y-117234281D01*
X104930757Y-117234284D01*
X105151913Y-117293543D01*
X105314832Y-117307796D01*
X105379998Y-117313498D01*
X105380000Y-117313498D01*
X105380002Y-117313498D01*
X105437139Y-117308499D01*
X105608087Y-117293543D01*
X105829243Y-117234284D01*
X106036749Y-117137523D01*
X106224300Y-117006198D01*
X106386198Y-116844300D01*
X106517523Y-116656749D01*
X106614284Y-116449243D01*
X106673543Y-116228087D01*
X106693498Y-116000000D01*
X106673543Y-115771913D01*
X106614284Y-115550757D01*
X106517523Y-115343251D01*
X106386198Y-115155700D01*
X106224300Y-114993802D01*
X106036749Y-114862477D01*
X106025544Y-114857252D01*
X105829249Y-114765718D01*
X105829238Y-114765714D01*
X105608089Y-114706457D01*
X105608081Y-114706456D01*
X105380002Y-114686502D01*
X105379998Y-114686502D01*
X105151918Y-114706456D01*
X105151910Y-114706457D01*
X104930761Y-114765714D01*
X104930750Y-114765718D01*
X104723254Y-114862475D01*
X104723252Y-114862476D01*
X104723251Y-114862477D01*
X104535700Y-114993802D01*
X104535698Y-114993803D01*
X104535695Y-114993806D01*
X104373806Y-115155695D01*
X104242476Y-115343252D01*
X104242475Y-115343254D01*
X104145718Y-115550750D01*
X104145714Y-115550761D01*
X104086457Y-115771910D01*
X104086456Y-115771918D01*
X104066502Y-115999998D01*
X101356527Y-115999998D01*
X101344565Y-115855640D01*
X101344563Y-115855628D01*
X101313881Y-115734468D01*
X101289296Y-115637384D01*
X101198860Y-115431209D01*
X101176536Y-115397040D01*
X101075723Y-115242734D01*
X101075715Y-115242723D01*
X100923243Y-115077097D01*
X100923238Y-115077092D01*
X100804797Y-114984905D01*
X100745576Y-114938811D01*
X100709070Y-114919055D01*
X100659479Y-114869836D01*
X100644371Y-114801619D01*
X100668541Y-114736064D01*
X100709070Y-114700945D01*
X100709084Y-114700936D01*
X100745576Y-114681189D01*
X100923240Y-114542906D01*
X101058817Y-114395632D01*
X101075715Y-114377276D01*
X101075716Y-114377274D01*
X101075722Y-114377268D01*
X101198860Y-114188791D01*
X101289296Y-113982616D01*
X101344564Y-113764368D01*
X101344565Y-113764359D01*
X101363156Y-113540005D01*
X101363156Y-113539994D01*
X101351555Y-113400000D01*
X106836496Y-113400000D01*
X106856458Y-113589928D01*
X106856459Y-113589931D01*
X106915470Y-113771549D01*
X106915473Y-113771556D01*
X107010960Y-113936944D01*
X107138747Y-114078866D01*
X107293248Y-114191118D01*
X107467712Y-114268794D01*
X107654513Y-114308500D01*
X107845487Y-114308500D01*
X108032288Y-114268794D01*
X108206752Y-114191118D01*
X108361253Y-114078866D01*
X108489040Y-113936944D01*
X108584527Y-113771556D01*
X108643542Y-113589928D01*
X108663504Y-113400000D01*
X108643542Y-113210072D01*
X108584527Y-113028444D01*
X108520344Y-112917276D01*
X108489041Y-112863057D01*
X108489036Y-112863050D01*
X108415350Y-112781213D01*
X108385120Y-112718221D01*
X108383500Y-112698241D01*
X108383500Y-104713766D01*
X108403185Y-104646727D01*
X108419819Y-104626085D01*
X108803619Y-104242285D01*
X108864942Y-104208800D01*
X108934634Y-104213784D01*
X108990567Y-104255656D01*
X109014984Y-104321120D01*
X109015300Y-104329966D01*
X109015300Y-155012198D01*
X109039643Y-155134577D01*
X109039645Y-155134585D01*
X109087398Y-155249872D01*
X109087403Y-155249881D01*
X109156728Y-155353632D01*
X109156731Y-155353636D01*
X115343177Y-161540081D01*
X115376662Y-161601404D01*
X115371678Y-161671096D01*
X115356592Y-161698117D01*
X115357083Y-161698438D01*
X115231139Y-161891209D01*
X115140703Y-162097385D01*
X115085436Y-162315628D01*
X115085434Y-162315640D01*
X115066844Y-162539994D01*
X115066844Y-162540005D01*
X115085434Y-162764359D01*
X115085436Y-162764371D01*
X115140703Y-162982614D01*
X115231140Y-163188792D01*
X115354276Y-163377265D01*
X115354284Y-163377276D01*
X115506756Y-163542902D01*
X115506761Y-163542907D01*
X115534726Y-163564673D01*
X115684424Y-163681189D01*
X115684425Y-163681189D01*
X115684427Y-163681191D01*
X115744314Y-163713600D01*
X115882426Y-163788342D01*
X116095365Y-163861444D01*
X116317431Y-163898500D01*
X116542569Y-163898500D01*
X116764635Y-163861444D01*
X116977574Y-163788342D01*
X117175576Y-163681189D01*
X117353240Y-163542906D01*
X117474594Y-163411082D01*
X117505715Y-163377276D01*
X117505715Y-163377275D01*
X117505722Y-163377268D01*
X117596193Y-163238790D01*
X117649338Y-163193437D01*
X117718569Y-163184013D01*
X117781905Y-163213515D01*
X117803804Y-163238787D01*
X117894278Y-163377268D01*
X117894283Y-163377273D01*
X117894284Y-163377276D01*
X118046756Y-163542902D01*
X118046761Y-163542907D01*
X118074726Y-163564673D01*
X118224424Y-163681189D01*
X118224425Y-163681189D01*
X118224427Y-163681191D01*
X118284314Y-163713600D01*
X118422426Y-163788342D01*
X118635365Y-163861444D01*
X118857431Y-163898500D01*
X119082569Y-163898500D01*
X119304635Y-163861444D01*
X119517574Y-163788342D01*
X119715576Y-163681189D01*
X119893240Y-163542906D01*
X120014594Y-163411082D01*
X120045715Y-163377276D01*
X120045715Y-163377275D01*
X120045722Y-163377268D01*
X120136193Y-163238790D01*
X120189338Y-163193437D01*
X120258569Y-163184013D01*
X120321905Y-163213515D01*
X120343804Y-163238787D01*
X120434278Y-163377268D01*
X120434283Y-163377273D01*
X120434284Y-163377276D01*
X120586756Y-163542902D01*
X120586761Y-163542907D01*
X120614726Y-163564673D01*
X120764424Y-163681189D01*
X120764425Y-163681189D01*
X120764427Y-163681191D01*
X120824314Y-163713600D01*
X120962426Y-163788342D01*
X121175365Y-163861444D01*
X121397431Y-163898500D01*
X121622569Y-163898500D01*
X121844635Y-163861444D01*
X122057574Y-163788342D01*
X122255576Y-163681189D01*
X122433240Y-163542906D01*
X122554594Y-163411082D01*
X122585715Y-163377276D01*
X122585715Y-163377275D01*
X122585722Y-163377268D01*
X122679749Y-163233347D01*
X122732894Y-163187994D01*
X122802125Y-163178570D01*
X122865461Y-163208072D01*
X122885130Y-163230048D01*
X123011890Y-163411078D01*
X123178917Y-163578105D01*
X123372421Y-163713600D01*
X123586507Y-163813429D01*
X123586516Y-163813433D01*
X123800000Y-163870634D01*
X123800000Y-162973012D01*
X123857007Y-163005925D01*
X123984174Y-163040000D01*
X124115826Y-163040000D01*
X124242993Y-163005925D01*
X124300000Y-162973012D01*
X124300000Y-163870633D01*
X124513483Y-163813433D01*
X124513492Y-163813429D01*
X124727579Y-163713599D01*
X124727585Y-163713595D01*
X124923733Y-163576250D01*
X124989939Y-163553922D01*
X125057706Y-163570932D01*
X125082538Y-163590143D01*
X125699462Y-164207068D01*
X125699466Y-164207071D01*
X125803217Y-164276396D01*
X125803223Y-164276399D01*
X125803224Y-164276400D01*
X125918514Y-164324155D01*
X126040900Y-164348499D01*
X126040904Y-164348500D01*
X126040905Y-164348500D01*
X137299096Y-164348500D01*
X137299097Y-164348499D01*
X137421486Y-164324155D01*
X137536776Y-164276400D01*
X137640534Y-164207071D01*
X138254432Y-163593172D01*
X138315753Y-163559689D01*
X138385444Y-163564673D01*
X138418274Y-163583002D01*
X138490436Y-163639168D01*
X138544424Y-163681189D01*
X138544425Y-163681189D01*
X138544427Y-163681191D01*
X138604314Y-163713600D01*
X138742426Y-163788342D01*
X138955365Y-163861444D01*
X139177431Y-163898500D01*
X139402569Y-163898500D01*
X139624635Y-163861444D01*
X139837574Y-163788342D01*
X140035576Y-163681189D01*
X140213240Y-163542906D01*
X140334594Y-163411082D01*
X140365715Y-163377276D01*
X140365715Y-163377275D01*
X140365722Y-163377268D01*
X140459749Y-163233347D01*
X140512894Y-163187994D01*
X140582125Y-163178570D01*
X140645461Y-163208072D01*
X140665130Y-163230048D01*
X140791890Y-163411078D01*
X140958917Y-163578105D01*
X141152421Y-163713600D01*
X141366507Y-163813429D01*
X141366516Y-163813433D01*
X141580000Y-163870634D01*
X141580000Y-162973012D01*
X141637007Y-163005925D01*
X141764174Y-163040000D01*
X141895826Y-163040000D01*
X142022993Y-163005925D01*
X142080000Y-162973012D01*
X142080000Y-163870633D01*
X142293483Y-163813433D01*
X142293492Y-163813429D01*
X142507578Y-163713600D01*
X142701082Y-163578105D01*
X142868105Y-163411082D01*
X142994868Y-163230048D01*
X143049445Y-163186423D01*
X143118944Y-163179231D01*
X143181298Y-163210753D01*
X143200251Y-163233350D01*
X143294276Y-163377265D01*
X143294284Y-163377276D01*
X143446756Y-163542902D01*
X143446761Y-163542907D01*
X143474726Y-163564673D01*
X143624424Y-163681189D01*
X143624425Y-163681189D01*
X143624427Y-163681191D01*
X143684314Y-163713600D01*
X143822426Y-163788342D01*
X144035365Y-163861444D01*
X144257431Y-163898500D01*
X144482569Y-163898500D01*
X144704635Y-163861444D01*
X144917574Y-163788342D01*
X145115576Y-163681189D01*
X145293240Y-163542906D01*
X145414594Y-163411082D01*
X145445715Y-163377276D01*
X145445715Y-163377275D01*
X145445722Y-163377268D01*
X145536193Y-163238790D01*
X145589338Y-163193437D01*
X145658569Y-163184013D01*
X145721905Y-163213515D01*
X145743804Y-163238787D01*
X145834278Y-163377268D01*
X145834283Y-163377273D01*
X145834284Y-163377276D01*
X145986756Y-163542902D01*
X145986761Y-163542907D01*
X146014726Y-163564673D01*
X146164424Y-163681189D01*
X146164425Y-163681189D01*
X146164427Y-163681191D01*
X146224314Y-163713600D01*
X146362426Y-163788342D01*
X146575365Y-163861444D01*
X146797431Y-163898500D01*
X147022569Y-163898500D01*
X147244635Y-163861444D01*
X147457574Y-163788342D01*
X147655576Y-163681189D01*
X147833240Y-163542906D01*
X147954594Y-163411082D01*
X147985715Y-163377276D01*
X147985717Y-163377273D01*
X147985722Y-163377268D01*
X148108860Y-163188791D01*
X148199296Y-162982616D01*
X148254564Y-162764368D01*
X148257164Y-162732993D01*
X148273156Y-162540005D01*
X148273156Y-162539994D01*
X148254565Y-162315640D01*
X148254563Y-162315628D01*
X148199296Y-162097385D01*
X148189071Y-162074075D01*
X148108860Y-161891209D01*
X148092706Y-161866484D01*
X147985723Y-161702734D01*
X147985715Y-161702723D01*
X147840510Y-161544991D01*
X147809587Y-161482337D01*
X147817447Y-161412911D01*
X147861594Y-161358755D01*
X147888405Y-161344827D01*
X147968584Y-161314920D01*
X148006204Y-161300889D01*
X148123261Y-161213261D01*
X148210889Y-161096204D01*
X148261989Y-160959201D01*
X148265591Y-160925692D01*
X148268499Y-160898654D01*
X148268500Y-160898637D01*
X148268500Y-159101362D01*
X148268499Y-159101345D01*
X148264672Y-159065759D01*
X148261989Y-159040799D01*
X148254689Y-159021228D01*
X148232559Y-158961894D01*
X148210889Y-158903796D01*
X148123261Y-158786739D01*
X148006204Y-158699111D01*
X147966291Y-158684224D01*
X147869203Y-158648011D01*
X147808654Y-158641500D01*
X147808638Y-158641500D01*
X146011362Y-158641500D01*
X146011345Y-158641500D01*
X145950797Y-158648011D01*
X145950795Y-158648011D01*
X145813795Y-158699111D01*
X145696739Y-158786739D01*
X145609111Y-158903795D01*
X145563861Y-159025111D01*
X145521989Y-159081044D01*
X145456524Y-159105460D01*
X145388252Y-159090607D01*
X145356454Y-159065762D01*
X145293240Y-158997094D01*
X145115576Y-158858811D01*
X145115575Y-158858810D01*
X145115572Y-158858808D01*
X144917580Y-158751661D01*
X144917577Y-158751659D01*
X144917574Y-158751658D01*
X144917571Y-158751657D01*
X144917569Y-158751656D01*
X144704637Y-158678556D01*
X144482569Y-158641500D01*
X144257431Y-158641500D01*
X144035362Y-158678556D01*
X143955663Y-158705917D01*
X143885864Y-158709067D01*
X143825443Y-158673981D01*
X143793582Y-158611798D01*
X143791400Y-158588636D01*
X143791400Y-156642996D01*
X157133656Y-156642996D01*
X157133656Y-156643003D01*
X157153017Y-156975414D01*
X157153018Y-156975425D01*
X157210834Y-157303315D01*
X157210837Y-157303329D01*
X157306336Y-157622320D01*
X157438218Y-157928057D01*
X157438224Y-157928070D01*
X157604711Y-158216434D01*
X157803547Y-158483518D01*
X157803552Y-158483524D01*
X157921564Y-158608608D01*
X158032054Y-158725721D01*
X158032060Y-158725726D01*
X158032062Y-158725728D01*
X158287127Y-158939753D01*
X158287135Y-158939759D01*
X158565324Y-159122727D01*
X158703520Y-159192132D01*
X158862887Y-159272169D01*
X159175784Y-159386054D01*
X159499786Y-159462843D01*
X159830511Y-159501500D01*
X159830519Y-159501500D01*
X160163481Y-159501500D01*
X160163489Y-159501500D01*
X160494214Y-159462843D01*
X160818216Y-159386054D01*
X161131113Y-159272169D01*
X161428672Y-159122729D01*
X161619690Y-158997094D01*
X161706864Y-158939759D01*
X161706864Y-158939758D01*
X161706870Y-158939755D01*
X161961946Y-158725721D01*
X162190449Y-158483522D01*
X162389289Y-158216433D01*
X162555778Y-157928066D01*
X162687663Y-157622321D01*
X162783162Y-157303333D01*
X162840983Y-156975414D01*
X162860107Y-156647072D01*
X162860344Y-156643003D01*
X162860344Y-156642996D01*
X162851792Y-156496167D01*
X162840983Y-156310586D01*
X162818647Y-156183915D01*
X162783165Y-155982684D01*
X162783164Y-155982683D01*
X162783162Y-155982667D01*
X162687663Y-155663679D01*
X162555778Y-155357934D01*
X162441199Y-155159478D01*
X162389288Y-155069565D01*
X162190452Y-154802481D01*
X162190447Y-154802475D01*
X162079959Y-154685365D01*
X161961946Y-154560279D01*
X161961939Y-154560273D01*
X161961937Y-154560271D01*
X161706872Y-154346246D01*
X161706864Y-154346240D01*
X161428675Y-154163272D01*
X161131120Y-154013834D01*
X161131114Y-154013831D01*
X160818217Y-153899946D01*
X160818215Y-153899945D01*
X160494214Y-153823157D01*
X160163489Y-153784500D01*
X159830511Y-153784500D01*
X159536533Y-153818861D01*
X159499785Y-153823157D01*
X159175784Y-153899945D01*
X159175782Y-153899946D01*
X158862885Y-154013831D01*
X158862879Y-154013834D01*
X158565324Y-154163272D01*
X158287135Y-154346240D01*
X158287127Y-154346246D01*
X158032062Y-154560271D01*
X158032052Y-154560281D01*
X157803552Y-154802475D01*
X157803547Y-154802481D01*
X157604711Y-155069565D01*
X157438224Y-155357929D01*
X157438218Y-155357942D01*
X157306336Y-155663679D01*
X157210837Y-155982670D01*
X157210834Y-155982684D01*
X157153018Y-156310574D01*
X157153017Y-156310585D01*
X157133656Y-156642996D01*
X143791400Y-156642996D01*
X143791400Y-127375702D01*
X143811085Y-127308663D01*
X143863889Y-127262908D01*
X143933047Y-127252964D01*
X143996603Y-127281989D01*
X144016968Y-127304571D01*
X144093802Y-127414300D01*
X144255700Y-127576198D01*
X144443251Y-127707523D01*
X144525946Y-127746084D01*
X144650750Y-127804281D01*
X144650752Y-127804281D01*
X144650757Y-127804284D01*
X144871913Y-127863543D01*
X145034832Y-127877796D01*
X145099998Y-127883498D01*
X145100000Y-127883498D01*
X145100002Y-127883498D01*
X145157021Y-127878509D01*
X145328087Y-127863543D01*
X145549243Y-127804284D01*
X145756749Y-127707523D01*
X145944300Y-127576198D01*
X146106198Y-127414300D01*
X146237523Y-127226749D01*
X146334284Y-127019243D01*
X146393543Y-126798087D01*
X146413498Y-126570000D01*
X146411907Y-126551820D01*
X146401537Y-126433284D01*
X146393543Y-126341913D01*
X146376241Y-126277341D01*
X146377904Y-126207493D01*
X146408333Y-126157569D01*
X146718771Y-125847133D01*
X146788100Y-125743375D01*
X146835855Y-125628085D01*
X146837708Y-125618771D01*
X146840373Y-125605377D01*
X146860199Y-125505698D01*
X146860200Y-125505695D01*
X146860200Y-111864305D01*
X146860199Y-111864301D01*
X146835857Y-111741922D01*
X146835854Y-111741913D01*
X146821868Y-111708147D01*
X146807947Y-111674539D01*
X146788101Y-111626625D01*
X146788099Y-111626623D01*
X146788099Y-111626621D01*
X146718772Y-111522867D01*
X146718769Y-111522863D01*
X135453836Y-100257931D01*
X135453832Y-100257928D01*
X135416064Y-100232692D01*
X135397274Y-100217271D01*
X134664509Y-99484506D01*
X134631024Y-99423183D01*
X134628872Y-99409805D01*
X134611431Y-99243862D01*
X134552416Y-99062234D01*
X134456929Y-98896846D01*
X134329142Y-98754924D01*
X134329140Y-98754922D01*
X134213163Y-98670660D01*
X134170497Y-98615330D01*
X134162728Y-98557376D01*
X134163504Y-98550000D01*
X134143542Y-98360072D01*
X134084527Y-98178444D01*
X133989040Y-98013056D01*
X133861253Y-97871134D01*
X133706752Y-97758882D01*
X133532288Y-97681206D01*
X133532286Y-97681205D01*
X133345487Y-97641500D01*
X133154513Y-97641500D01*
X132967713Y-97681205D01*
X132967706Y-97681207D01*
X132950531Y-97688854D01*
X132881281Y-97698137D01*
X132818005Y-97668506D01*
X132780794Y-97609369D01*
X132776100Y-97575573D01*
X132776100Y-90260105D01*
X132776099Y-90260101D01*
X132751756Y-90137722D01*
X132751755Y-90137715D01*
X132704000Y-90022425D01*
X132703999Y-90022424D01*
X132703996Y-90022418D01*
X132634672Y-89918668D01*
X132591353Y-89875349D01*
X132546433Y-89830429D01*
X129515172Y-86799168D01*
X126448036Y-83732031D01*
X126448032Y-83732028D01*
X126344281Y-83662703D01*
X126344272Y-83662698D01*
X126228985Y-83614945D01*
X126228977Y-83614943D01*
X126106598Y-83590600D01*
X126106594Y-83590600D01*
X125472094Y-83590600D01*
X125347306Y-83590600D01*
X125347301Y-83590600D01*
X125224922Y-83614943D01*
X125224914Y-83614945D01*
X125109627Y-83662698D01*
X125109618Y-83662703D01*
X125005867Y-83732028D01*
X125005863Y-83732031D01*
X124365267Y-84372629D01*
X124321147Y-84416749D01*
X124277027Y-84460868D01*
X124207703Y-84564618D01*
X124207698Y-84564627D01*
X124159945Y-84679914D01*
X124159943Y-84679922D01*
X124135600Y-84802301D01*
X124135600Y-95657633D01*
X124115915Y-95724672D01*
X124099281Y-95745314D01*
X123444408Y-96400186D01*
X123383085Y-96433671D01*
X123313393Y-96428687D01*
X123257460Y-96386815D01*
X123233407Y-96325467D01*
X123231642Y-96308672D01*
X123172627Y-96127044D01*
X123077140Y-95961656D01*
X122949353Y-95819734D01*
X122794852Y-95707482D01*
X122620388Y-95629806D01*
X122620386Y-95629805D01*
X122433587Y-95590100D01*
X122242613Y-95590100D01*
X122055814Y-95629805D01*
X121881346Y-95707483D01*
X121726845Y-95819735D01*
X121599058Y-95961657D01*
X121563087Y-96023962D01*
X121512520Y-96072178D01*
X121443913Y-96085400D01*
X121379048Y-96059432D01*
X121338520Y-96002518D01*
X121331700Y-95961962D01*
X121331700Y-75536733D01*
X121351385Y-75469694D01*
X121404189Y-75423939D01*
X121473347Y-75413995D01*
X121536903Y-75443020D01*
X121554964Y-75462419D01*
X121611739Y-75538261D01*
X121728796Y-75625889D01*
X121826808Y-75662446D01*
X121858782Y-75674372D01*
X121865799Y-75676989D01*
X121893050Y-75679918D01*
X121926345Y-75683499D01*
X121926362Y-75683500D01*
X123373638Y-75683500D01*
X123373654Y-75683499D01*
X123400692Y-75680591D01*
X123434201Y-75676989D01*
X123441218Y-75674372D01*
X123448768Y-75671555D01*
X123571204Y-75625889D01*
X123688261Y-75538261D01*
X123745907Y-75461254D01*
X123801840Y-75419383D01*
X123871532Y-75414399D01*
X123928710Y-75443926D01*
X123932556Y-75447432D01*
X123933727Y-75448499D01*
X124120209Y-75563964D01*
X124324732Y-75643197D01*
X124540333Y-75683500D01*
X124540335Y-75683500D01*
X124759665Y-75683500D01*
X124759667Y-75683500D01*
X124975268Y-75643197D01*
X125179791Y-75563964D01*
X125366273Y-75448499D01*
X125528364Y-75300734D01*
X125551046Y-75270697D01*
X125607155Y-75229062D01*
X125676867Y-75224371D01*
X125738049Y-75258113D01*
X125748954Y-75270698D01*
X125771637Y-75300736D01*
X125858588Y-75380001D01*
X125933727Y-75448499D01*
X126120209Y-75563964D01*
X126324732Y-75643197D01*
X126540333Y-75683500D01*
X126540335Y-75683500D01*
X126759665Y-75683500D01*
X126759667Y-75683500D01*
X126975268Y-75643197D01*
X127179791Y-75563964D01*
X127366273Y-75448499D01*
X127528364Y-75300734D01*
X127551046Y-75270697D01*
X127607155Y-75229062D01*
X127676867Y-75224371D01*
X127738049Y-75258113D01*
X127748954Y-75270698D01*
X127771637Y-75300736D01*
X127858588Y-75380001D01*
X127933727Y-75448499D01*
X128120209Y-75563964D01*
X128324732Y-75643197D01*
X128540333Y-75683500D01*
X128540335Y-75683500D01*
X128759665Y-75683500D01*
X128759667Y-75683500D01*
X128975268Y-75643197D01*
X129179791Y-75563964D01*
X129366273Y-75448499D01*
X129528364Y-75300734D01*
X129551046Y-75270697D01*
X129607155Y-75229062D01*
X129676867Y-75224371D01*
X129738049Y-75258113D01*
X129748954Y-75270698D01*
X129771637Y-75300736D01*
X129858588Y-75380001D01*
X129933727Y-75448499D01*
X130120209Y-75563964D01*
X130324732Y-75643197D01*
X130540333Y-75683500D01*
X130540335Y-75683500D01*
X130759665Y-75683500D01*
X130759667Y-75683500D01*
X130975268Y-75643197D01*
X131179791Y-75563964D01*
X131366273Y-75448499D01*
X131528364Y-75300734D01*
X131646934Y-75143721D01*
X131703039Y-75102088D01*
X131772751Y-75097396D01*
X131833566Y-75130770D01*
X145321344Y-88618548D01*
X145348224Y-88658776D01*
X145381899Y-88740073D01*
X145381901Y-88740077D01*
X145451225Y-88843828D01*
X145451231Y-88843836D01*
X145539463Y-88932068D01*
X145539467Y-88932071D01*
X145643218Y-89001396D01*
X145643224Y-89001399D01*
X145643225Y-89001400D01*
X145758515Y-89049155D01*
X145822756Y-89061933D01*
X145870885Y-89071507D01*
X145932796Y-89103892D01*
X145947514Y-89122219D01*
X145948007Y-89121862D01*
X146071926Y-89292423D01*
X146071930Y-89292428D01*
X146217571Y-89438069D01*
X146217576Y-89438073D01*
X146384195Y-89559128D01*
X146463459Y-89599516D01*
X146514254Y-89647490D01*
X146531049Y-89715311D01*
X146508511Y-89781446D01*
X146463459Y-89820484D01*
X146384195Y-89860871D01*
X146217576Y-89981926D01*
X146217571Y-89981930D01*
X146071930Y-90127571D01*
X146071926Y-90127576D01*
X145950873Y-90294193D01*
X145857367Y-90477705D01*
X145793719Y-90673591D01*
X145761500Y-90877019D01*
X145761500Y-91082980D01*
X145793719Y-91286408D01*
X145857367Y-91482294D01*
X145950873Y-91665806D01*
X146071926Y-91832423D01*
X146071930Y-91832428D01*
X146217571Y-91978069D01*
X146217576Y-91978073D01*
X146384195Y-92099128D01*
X146463459Y-92139516D01*
X146514254Y-92187490D01*
X146531049Y-92255311D01*
X146508511Y-92321446D01*
X146463459Y-92360484D01*
X146384195Y-92400871D01*
X146217576Y-92521926D01*
X146217571Y-92521930D01*
X146071930Y-92667571D01*
X146071926Y-92667576D01*
X145950873Y-92834193D01*
X145857367Y-93017705D01*
X145793719Y-93213591D01*
X145761500Y-93417019D01*
X145761500Y-93622980D01*
X145793719Y-93826408D01*
X145857367Y-94022294D01*
X145921671Y-94148496D01*
X145936930Y-94178443D01*
X145950873Y-94205806D01*
X146071926Y-94372423D01*
X146071930Y-94372428D01*
X146217571Y-94518069D01*
X146217576Y-94518073D01*
X146384195Y-94639128D01*
X146463459Y-94679516D01*
X146514254Y-94727490D01*
X146531049Y-94795311D01*
X146508511Y-94861446D01*
X146463459Y-94900484D01*
X146384195Y-94940871D01*
X146217576Y-95061926D01*
X146217571Y-95061930D01*
X146071930Y-95207571D01*
X146071926Y-95207576D01*
X145950873Y-95374193D01*
X145857367Y-95557705D01*
X145793719Y-95753591D01*
X145761500Y-95957019D01*
X145761500Y-96162980D01*
X145793719Y-96366408D01*
X145857367Y-96562294D01*
X145950873Y-96745806D01*
X146071926Y-96912423D01*
X146071930Y-96912428D01*
X146217571Y-97058069D01*
X146217576Y-97058073D01*
X146270375Y-97096433D01*
X146384197Y-97179129D01*
X146472819Y-97224284D01*
X146523615Y-97272259D01*
X146540410Y-97340080D01*
X146517873Y-97406214D01*
X146472819Y-97445254D01*
X146388650Y-97488140D01*
X146223105Y-97608417D01*
X146223104Y-97608417D01*
X146078417Y-97753104D01*
X146078417Y-97753105D01*
X145958140Y-97918650D01*
X145865244Y-98100970D01*
X145802009Y-98295586D01*
X145793391Y-98350000D01*
X147154314Y-98350000D01*
X147149920Y-98354394D01*
X147097259Y-98445606D01*
X147070000Y-98547339D01*
X147070000Y-98652661D01*
X147097259Y-98754394D01*
X147149920Y-98845606D01*
X147154314Y-98850000D01*
X145793391Y-98850000D01*
X145802009Y-98904413D01*
X145865244Y-99099029D01*
X145958140Y-99281349D01*
X146078417Y-99446894D01*
X146078417Y-99446895D01*
X146223104Y-99591582D01*
X146388650Y-99711859D01*
X146570968Y-99804755D01*
X146765582Y-99867990D01*
X146967683Y-99900000D01*
X147220000Y-99900000D01*
X147220000Y-98915686D01*
X147224394Y-98920080D01*
X147315606Y-98972741D01*
X147417339Y-99000000D01*
X147522661Y-99000000D01*
X147624394Y-98972741D01*
X147715606Y-98920080D01*
X147720000Y-98915686D01*
X147720000Y-99900000D01*
X147972317Y-99900000D01*
X148174413Y-99867990D01*
X148174417Y-99867989D01*
X148200880Y-99859391D01*
X148270721Y-99857394D01*
X148330554Y-99893474D01*
X148361383Y-99956174D01*
X148363200Y-99977321D01*
X148363200Y-119476898D01*
X148387543Y-119599277D01*
X148387545Y-119599285D01*
X148435298Y-119714572D01*
X148435303Y-119714581D01*
X148504628Y-119818332D01*
X148504631Y-119818336D01*
X151705634Y-123019338D01*
X151739119Y-123080661D01*
X151734135Y-123150353D01*
X151716351Y-123180876D01*
X151716908Y-123181266D01*
X151713806Y-123185695D01*
X151713802Y-123185700D01*
X151629838Y-123305613D01*
X151582476Y-123373252D01*
X151582475Y-123373254D01*
X151485718Y-123580750D01*
X151485714Y-123580761D01*
X151426457Y-123801910D01*
X151426456Y-123801918D01*
X151406502Y-124029998D01*
X151406502Y-124030001D01*
X151426456Y-124258081D01*
X151426457Y-124258089D01*
X151485714Y-124479238D01*
X151485718Y-124479249D01*
X151562405Y-124643704D01*
X151582477Y-124686749D01*
X151699835Y-124854353D01*
X151722161Y-124920556D01*
X151705151Y-124988324D01*
X151685940Y-125013155D01*
X150678533Y-126020563D01*
X149671167Y-127027929D01*
X149647356Y-127051740D01*
X149582927Y-127116168D01*
X149513603Y-127219918D01*
X149513598Y-127219927D01*
X149465845Y-127335214D01*
X149465843Y-127335222D01*
X149441500Y-127457601D01*
X149441500Y-139817500D01*
X149421815Y-139884539D01*
X149369011Y-139930294D01*
X149317500Y-139941500D01*
X149176345Y-139941500D01*
X149115797Y-139948011D01*
X149115795Y-139948011D01*
X148978795Y-139999111D01*
X148861739Y-140086739D01*
X148774111Y-140203795D01*
X148723011Y-140340795D01*
X148723011Y-140340797D01*
X148716500Y-140401345D01*
X148716500Y-142198654D01*
X148723011Y-142259202D01*
X148723011Y-142259204D01*
X148774111Y-142396204D01*
X148861739Y-142513261D01*
X148978796Y-142600889D01*
X149115799Y-142651989D01*
X149143050Y-142654918D01*
X149176345Y-142658499D01*
X149176362Y-142658500D01*
X150973638Y-142658500D01*
X150973654Y-142658499D01*
X151000692Y-142655591D01*
X151034201Y-142651989D01*
X151171204Y-142600889D01*
X151288261Y-142513261D01*
X151375889Y-142396204D01*
X151421138Y-142274887D01*
X151463009Y-142218956D01*
X151528474Y-142194539D01*
X151596746Y-142209391D01*
X151628545Y-142234236D01*
X151691760Y-142302906D01*
X151869424Y-142441189D01*
X151869425Y-142441189D01*
X151869427Y-142441191D01*
X151996135Y-142509761D01*
X152067426Y-142548342D01*
X152280365Y-142621444D01*
X152502431Y-142658500D01*
X152727569Y-142658500D01*
X152949635Y-142621444D01*
X153162574Y-142548342D01*
X153360576Y-142441189D01*
X153538240Y-142302906D01*
X153690722Y-142137268D01*
X153813860Y-141948791D01*
X153904296Y-141742616D01*
X153959564Y-141524368D01*
X153960817Y-141509245D01*
X153978156Y-141300005D01*
X153978156Y-141299994D01*
X153959565Y-141075640D01*
X153959563Y-141075628D01*
X153915775Y-140902713D01*
X153904296Y-140857384D01*
X153813860Y-140651209D01*
X153690722Y-140462732D01*
X153690719Y-140462729D01*
X153690715Y-140462723D01*
X153538243Y-140297097D01*
X153538238Y-140297092D01*
X153360577Y-140158812D01*
X153360572Y-140158808D01*
X153162580Y-140051661D01*
X153162577Y-140051659D01*
X153162574Y-140051658D01*
X153162571Y-140051657D01*
X153162569Y-140051656D01*
X152949637Y-139978556D01*
X152727569Y-139941500D01*
X152502431Y-139941500D01*
X152280362Y-139978556D01*
X152067430Y-140051656D01*
X152067419Y-140051661D01*
X151869427Y-140158808D01*
X151869422Y-140158812D01*
X151691761Y-140297092D01*
X151628548Y-140365760D01*
X151568661Y-140401750D01*
X151498823Y-140399649D01*
X151441207Y-140360124D01*
X151421138Y-140325110D01*
X151375889Y-140203796D01*
X151342214Y-140158812D01*
X151288261Y-140086739D01*
X151171204Y-139999111D01*
X151034203Y-139948011D01*
X150973654Y-139941500D01*
X150973638Y-139941500D01*
X150832500Y-139941500D01*
X150765461Y-139921815D01*
X150719706Y-139869011D01*
X150708500Y-139817500D01*
X150708500Y-138522200D01*
X157655210Y-138522200D01*
X157674354Y-138863103D01*
X157674356Y-138863115D01*
X157731548Y-139199726D01*
X157731550Y-139199735D01*
X157826071Y-139527824D01*
X157956738Y-139843283D01*
X158121903Y-140142126D01*
X158319488Y-140420597D01*
X158380159Y-140488486D01*
X159369236Y-139499409D01*
X159440688Y-139597754D01*
X159624446Y-139781512D01*
X159722789Y-139852962D01*
X158733712Y-140842039D01*
X158801605Y-140902713D01*
X158801610Y-140902717D01*
X159080073Y-141100296D01*
X159378916Y-141265461D01*
X159694375Y-141396128D01*
X160022464Y-141490649D01*
X160022473Y-141490651D01*
X160359084Y-141547843D01*
X160359096Y-141547845D01*
X160700000Y-141566989D01*
X161040903Y-141547845D01*
X161040915Y-141547843D01*
X161377526Y-141490651D01*
X161377535Y-141490649D01*
X161705624Y-141396128D01*
X162021083Y-141265461D01*
X162319926Y-141100296D01*
X162598396Y-140902712D01*
X162598407Y-140902703D01*
X162666287Y-140842040D01*
X162666287Y-140842039D01*
X161677210Y-139852962D01*
X161775554Y-139781512D01*
X161959312Y-139597754D01*
X162030762Y-139499410D01*
X163019839Y-140488487D01*
X163019840Y-140488487D01*
X163080503Y-140420607D01*
X163080512Y-140420596D01*
X163278096Y-140142126D01*
X163443261Y-139843283D01*
X163573928Y-139527824D01*
X163668449Y-139199735D01*
X163668451Y-139199726D01*
X163725643Y-138863115D01*
X163725645Y-138863103D01*
X163744789Y-138522200D01*
X163725645Y-138181296D01*
X163725643Y-138181284D01*
X163668451Y-137844673D01*
X163668449Y-137844664D01*
X163573928Y-137516575D01*
X163443261Y-137201116D01*
X163278096Y-136902273D01*
X163080517Y-136623810D01*
X163080513Y-136623805D01*
X163019839Y-136555912D01*
X162030762Y-137544989D01*
X161959312Y-137446646D01*
X161775554Y-137262888D01*
X161677209Y-137191436D01*
X162666286Y-136202359D01*
X162598397Y-136141688D01*
X162319926Y-135944103D01*
X162021083Y-135778938D01*
X161705624Y-135648271D01*
X161377535Y-135553750D01*
X161377526Y-135553748D01*
X161040915Y-135496556D01*
X161040903Y-135496554D01*
X160700000Y-135477410D01*
X160359096Y-135496554D01*
X160359084Y-135496556D01*
X160022473Y-135553748D01*
X160022464Y-135553750D01*
X159694375Y-135648271D01*
X159378916Y-135778938D01*
X159080073Y-135944103D01*
X158801599Y-136141691D01*
X158733712Y-136202359D01*
X159722789Y-137191436D01*
X159624446Y-137262888D01*
X159440688Y-137446646D01*
X159369237Y-137544989D01*
X158380159Y-136555912D01*
X158319491Y-136623799D01*
X158121903Y-136902273D01*
X157956738Y-137201116D01*
X157826071Y-137516575D01*
X157731550Y-137844664D01*
X157731548Y-137844673D01*
X157674356Y-138181284D01*
X157674354Y-138181296D01*
X157655210Y-138522200D01*
X150708500Y-138522200D01*
X150708500Y-127833765D01*
X150728185Y-127766726D01*
X150744815Y-127746088D01*
X151356026Y-127134876D01*
X151417347Y-127101393D01*
X151487038Y-127106377D01*
X151542972Y-127148248D01*
X151556086Y-127170154D01*
X151582477Y-127226749D01*
X151713802Y-127414300D01*
X151875700Y-127576198D01*
X152063251Y-127707523D01*
X152145946Y-127746084D01*
X152270750Y-127804281D01*
X152270752Y-127804281D01*
X152270757Y-127804284D01*
X152491913Y-127863543D01*
X152654832Y-127877796D01*
X152719998Y-127883498D01*
X152720000Y-127883498D01*
X152720002Y-127883498D01*
X152777021Y-127878509D01*
X152948087Y-127863543D01*
X153169243Y-127804284D01*
X153376749Y-127707523D01*
X153564300Y-127576198D01*
X153726198Y-127414300D01*
X153857523Y-127226749D01*
X153954284Y-127019243D01*
X154013543Y-126798087D01*
X154033498Y-126570000D01*
X154031907Y-126551820D01*
X154021537Y-126433284D01*
X154013543Y-126341913D01*
X153996241Y-126277341D01*
X153997904Y-126207493D01*
X154028335Y-126157568D01*
X154185904Y-126000000D01*
X154378571Y-125807333D01*
X154447900Y-125703575D01*
X154495655Y-125588285D01*
X154520000Y-125465894D01*
X154520000Y-125341106D01*
X154520000Y-123474606D01*
X154496602Y-123356976D01*
X154502829Y-123287385D01*
X154545692Y-123232208D01*
X154611582Y-123208963D01*
X154679579Y-123225031D01*
X154705900Y-123245104D01*
X156493029Y-125032233D01*
X156539850Y-125079054D01*
X156581268Y-125120472D01*
X156685018Y-125189796D01*
X156685024Y-125189799D01*
X156685025Y-125189800D01*
X156800315Y-125237555D01*
X156903009Y-125257982D01*
X156922701Y-125261899D01*
X156922705Y-125261900D01*
X156922706Y-125261900D01*
X158187078Y-125261900D01*
X158254117Y-125281585D01*
X158299872Y-125334389D01*
X158309816Y-125403547D01*
X158299460Y-125438305D01*
X158239579Y-125566720D01*
X158239575Y-125566729D01*
X158182426Y-125780013D01*
X158182424Y-125780023D01*
X158163179Y-125999999D01*
X158163179Y-126000000D01*
X158182424Y-126219976D01*
X158182426Y-126219986D01*
X158239575Y-126433270D01*
X158239580Y-126433284D01*
X158332898Y-126633405D01*
X158332901Y-126633411D01*
X158378258Y-126698187D01*
X158378258Y-126698188D01*
X158940504Y-126135941D01*
X158956619Y-126196081D01*
X159023498Y-126311920D01*
X159118080Y-126406502D01*
X159233919Y-126473381D01*
X159294057Y-126489494D01*
X158731810Y-127051740D01*
X158796590Y-127097099D01*
X158796592Y-127097100D01*
X158996715Y-127190419D01*
X158996729Y-127190424D01*
X159209459Y-127247424D01*
X159269120Y-127283789D01*
X159299649Y-127346636D01*
X159291355Y-127416011D01*
X159246869Y-127469889D01*
X159209461Y-127486974D01*
X159154807Y-127501619D01*
X158993804Y-127544760D01*
X158993800Y-127544761D01*
X158993799Y-127544762D01*
X158792323Y-127638712D01*
X158792319Y-127638714D01*
X158610217Y-127766223D01*
X158453023Y-127923417D01*
X158325514Y-128105519D01*
X158325512Y-128105523D01*
X158231561Y-128307000D01*
X158174022Y-128521735D01*
X158174021Y-128521742D01*
X158154647Y-128743197D01*
X158154647Y-128743202D01*
X158174021Y-128964657D01*
X158174022Y-128964665D01*
X158231558Y-129179391D01*
X158231559Y-129179393D01*
X158231560Y-129179396D01*
X158257155Y-129234284D01*
X158325511Y-129380876D01*
X158325512Y-129380877D01*
X158453023Y-129562981D01*
X158610219Y-129720177D01*
X158792323Y-129847688D01*
X158993804Y-129941640D01*
X159193039Y-129995025D01*
X159252699Y-130031390D01*
X159283228Y-130094237D01*
X159274933Y-130163613D01*
X159230448Y-130217491D01*
X159193040Y-130234574D01*
X159033366Y-130277359D01*
X158993800Y-130287961D01*
X158792323Y-130381912D01*
X158792319Y-130381914D01*
X158610217Y-130509423D01*
X158453023Y-130666617D01*
X158325514Y-130848719D01*
X158325512Y-130848723D01*
X158231561Y-131050200D01*
X158174022Y-131264935D01*
X158174021Y-131264942D01*
X158154647Y-131486397D01*
X158154647Y-131486402D01*
X158174021Y-131707857D01*
X158174022Y-131707865D01*
X158231558Y-131922591D01*
X158231559Y-131922593D01*
X158231560Y-131922596D01*
X158278536Y-132023336D01*
X158325511Y-132124076D01*
X158325512Y-132124077D01*
X158453023Y-132306181D01*
X158610219Y-132463377D01*
X158792323Y-132590888D01*
X158993804Y-132684840D01*
X159208537Y-132742378D01*
X159366724Y-132756217D01*
X159429998Y-132761753D01*
X159430000Y-132761753D01*
X159430002Y-132761753D01*
X159485365Y-132756909D01*
X159651463Y-132742378D01*
X159866196Y-132684840D01*
X160067677Y-132590888D01*
X160249781Y-132463377D01*
X160406977Y-132306181D01*
X160534488Y-132124077D01*
X160628440Y-131922596D01*
X160685978Y-131707863D01*
X160705353Y-131486400D01*
X160698834Y-131411891D01*
X160695238Y-131370778D01*
X160685978Y-131264937D01*
X160628440Y-131050204D01*
X160534488Y-130848724D01*
X160534486Y-130848721D01*
X160534485Y-130848719D01*
X160406978Y-130666620D01*
X160359369Y-130619011D01*
X160249781Y-130509423D01*
X160067677Y-130381912D01*
X160067678Y-130381912D01*
X160067676Y-130381911D01*
X159966936Y-130334936D01*
X159866196Y-130287960D01*
X159866192Y-130287959D01*
X159866188Y-130287957D01*
X159717330Y-130248071D01*
X159666960Y-130234574D01*
X159607300Y-130198210D01*
X159576771Y-130135363D01*
X159585066Y-130065987D01*
X159629551Y-130012110D01*
X159666959Y-129995025D01*
X159866196Y-129941640D01*
X160067677Y-129847688D01*
X160249781Y-129720177D01*
X160406977Y-129562981D01*
X160534488Y-129380877D01*
X160628440Y-129179396D01*
X160685978Y-128964663D01*
X160705353Y-128743200D01*
X160685978Y-128521737D01*
X160628440Y-128307004D01*
X160534488Y-128105524D01*
X160534486Y-128105521D01*
X160534485Y-128105519D01*
X160406978Y-127923420D01*
X160347100Y-127863542D01*
X160249781Y-127766223D01*
X160067820Y-127638812D01*
X160067676Y-127638711D01*
X159933604Y-127576193D01*
X159866196Y-127544760D01*
X159866192Y-127544759D01*
X159866190Y-127544758D01*
X159650539Y-127486974D01*
X159590879Y-127450609D01*
X159560350Y-127387762D01*
X159568645Y-127318386D01*
X159613130Y-127264508D01*
X159650540Y-127247424D01*
X159863270Y-127190424D01*
X159863284Y-127190419D01*
X160063407Y-127097100D01*
X160063417Y-127097094D01*
X160128188Y-127051741D01*
X159565942Y-126489494D01*
X159626081Y-126473381D01*
X159741920Y-126406502D01*
X159836502Y-126311920D01*
X159903381Y-126196081D01*
X159919495Y-126135942D01*
X160481741Y-126698188D01*
X160527094Y-126633417D01*
X160527100Y-126633407D01*
X160620419Y-126433284D01*
X160620424Y-126433270D01*
X160677573Y-126219986D01*
X160677575Y-126219976D01*
X160696821Y-126000000D01*
X160696821Y-125999999D01*
X160677575Y-125780023D01*
X160677573Y-125780013D01*
X160620424Y-125566729D01*
X160620420Y-125566720D01*
X160560540Y-125438305D01*
X160550048Y-125369227D01*
X160578568Y-125305443D01*
X160637044Y-125267204D01*
X160672922Y-125261900D01*
X160798037Y-125261900D01*
X160865076Y-125281585D01*
X160899611Y-125314776D01*
X160961770Y-125403547D01*
X160993023Y-125448181D01*
X161150219Y-125605377D01*
X161332323Y-125732888D01*
X161533804Y-125826840D01*
X161733039Y-125880225D01*
X161792699Y-125916590D01*
X161823228Y-125979437D01*
X161814933Y-126048813D01*
X161770448Y-126102691D01*
X161733040Y-126119774D01*
X161591994Y-126157568D01*
X161533800Y-126173161D01*
X161332323Y-126267112D01*
X161332319Y-126267114D01*
X161150217Y-126394623D01*
X160993023Y-126551817D01*
X160865514Y-126733919D01*
X160865512Y-126733923D01*
X160771561Y-126935400D01*
X160714022Y-127150135D01*
X160714021Y-127150142D01*
X160694647Y-127371597D01*
X160694647Y-127371602D01*
X160714021Y-127593057D01*
X160714022Y-127593065D01*
X160771558Y-127807791D01*
X160771559Y-127807793D01*
X160771560Y-127807796D01*
X160818536Y-127908536D01*
X160865511Y-128009276D01*
X160865512Y-128009277D01*
X160993023Y-128191381D01*
X161150219Y-128348577D01*
X161332323Y-128476088D01*
X161533804Y-128570040D01*
X161733039Y-128623425D01*
X161792699Y-128659790D01*
X161823228Y-128722637D01*
X161814933Y-128792013D01*
X161770448Y-128845891D01*
X161733040Y-128862974D01*
X161588527Y-128901697D01*
X161533800Y-128916361D01*
X161332323Y-129010312D01*
X161332319Y-129010314D01*
X161150217Y-129137823D01*
X160993023Y-129295017D01*
X160865514Y-129477119D01*
X160865512Y-129477123D01*
X160771561Y-129678600D01*
X160714022Y-129893335D01*
X160714021Y-129893342D01*
X160694647Y-130114797D01*
X160694647Y-130114802D01*
X160714021Y-130336257D01*
X160714022Y-130336265D01*
X160771558Y-130550991D01*
X160771559Y-130550993D01*
X160771560Y-130550996D01*
X160778939Y-130566820D01*
X160865511Y-130752476D01*
X160874782Y-130765716D01*
X160993023Y-130934581D01*
X161150219Y-131091777D01*
X161332323Y-131219288D01*
X161533804Y-131313240D01*
X161748537Y-131370778D01*
X161906724Y-131384617D01*
X161969998Y-131390153D01*
X161970000Y-131390153D01*
X161970002Y-131390153D01*
X162025365Y-131385309D01*
X162191463Y-131370778D01*
X162406196Y-131313240D01*
X162607677Y-131219288D01*
X162789781Y-131091777D01*
X162946977Y-130934581D01*
X163074488Y-130752477D01*
X163168440Y-130550996D01*
X163225978Y-130336263D01*
X163245353Y-130114800D01*
X163225978Y-129893337D01*
X163168440Y-129678604D01*
X163074488Y-129477124D01*
X163074486Y-129477121D01*
X163074485Y-129477119D01*
X162946978Y-129295020D01*
X162874572Y-129222614D01*
X162789781Y-129137823D01*
X162607677Y-129010312D01*
X162607678Y-129010312D01*
X162607676Y-129010311D01*
X162506936Y-128963336D01*
X162406196Y-128916360D01*
X162406192Y-128916359D01*
X162406188Y-128916357D01*
X162257330Y-128876471D01*
X162206960Y-128862974D01*
X162147300Y-128826610D01*
X162116771Y-128763763D01*
X162125066Y-128694387D01*
X162169551Y-128640510D01*
X162206959Y-128623425D01*
X162406196Y-128570040D01*
X162607677Y-128476088D01*
X162789781Y-128348577D01*
X162946977Y-128191381D01*
X163074488Y-128009277D01*
X163168440Y-127807796D01*
X163225978Y-127593063D01*
X163245353Y-127371600D01*
X163242170Y-127335222D01*
X163234094Y-127242902D01*
X163225978Y-127150137D01*
X163168440Y-126935404D01*
X163074488Y-126733924D01*
X163074486Y-126733921D01*
X163074485Y-126733919D01*
X162946978Y-126551820D01*
X162868539Y-126473381D01*
X162789781Y-126394623D01*
X162649677Y-126296521D01*
X162607676Y-126267111D01*
X162455350Y-126196081D01*
X162406196Y-126173160D01*
X162406192Y-126173159D01*
X162406188Y-126173157D01*
X162257330Y-126133271D01*
X162206960Y-126119774D01*
X162147300Y-126083410D01*
X162116771Y-126020563D01*
X162125066Y-125951187D01*
X162169551Y-125897310D01*
X162206959Y-125880225D01*
X162406196Y-125826840D01*
X162607677Y-125732888D01*
X162789781Y-125605377D01*
X162946977Y-125448181D01*
X163074488Y-125266077D01*
X163168440Y-125064596D01*
X163225978Y-124849863D01*
X163245353Y-124628400D01*
X163245320Y-124628027D01*
X163232303Y-124479238D01*
X163225978Y-124406937D01*
X163168440Y-124192204D01*
X163074488Y-123990724D01*
X163074486Y-123990721D01*
X163074485Y-123990719D01*
X162946978Y-123808620D01*
X162910268Y-123771910D01*
X162789781Y-123651423D01*
X162607677Y-123523912D01*
X162607678Y-123523912D01*
X162607676Y-123523911D01*
X162501938Y-123474605D01*
X162406196Y-123429960D01*
X162406192Y-123429959D01*
X162406188Y-123429957D01*
X162257330Y-123390071D01*
X162206960Y-123376574D01*
X162147300Y-123340210D01*
X162116771Y-123277363D01*
X162125066Y-123207987D01*
X162169551Y-123154110D01*
X162206959Y-123137025D01*
X162406196Y-123083640D01*
X162607677Y-122989688D01*
X162789781Y-122862177D01*
X162946977Y-122704981D01*
X163074488Y-122522877D01*
X163168440Y-122321396D01*
X163225978Y-122106663D01*
X163245353Y-121885200D01*
X163241684Y-121843267D01*
X163234874Y-121765425D01*
X163225978Y-121663737D01*
X163168440Y-121449004D01*
X163074488Y-121247524D01*
X163074486Y-121247521D01*
X163074485Y-121247519D01*
X162946978Y-121065420D01*
X162879486Y-120997928D01*
X162789781Y-120908223D01*
X162646024Y-120807563D01*
X162607676Y-120780711D01*
X162506936Y-120733736D01*
X162406196Y-120686760D01*
X162406193Y-120686759D01*
X162406191Y-120686758D01*
X162191465Y-120629222D01*
X162191457Y-120629221D01*
X161970002Y-120609847D01*
X161969998Y-120609847D01*
X161748542Y-120629221D01*
X161748535Y-120629222D01*
X161533800Y-120686761D01*
X161332323Y-120780712D01*
X161332319Y-120780714D01*
X161150217Y-120908223D01*
X160993023Y-121065417D01*
X160865514Y-121247519D01*
X160865512Y-121247523D01*
X160771561Y-121449000D01*
X160714022Y-121663735D01*
X160714021Y-121663742D01*
X160694647Y-121885197D01*
X160694647Y-121885202D01*
X160714021Y-122106657D01*
X160714022Y-122106665D01*
X160771558Y-122321391D01*
X160771559Y-122321393D01*
X160771560Y-122321396D01*
X160795105Y-122371888D01*
X160865511Y-122522876D01*
X160865512Y-122522877D01*
X160993023Y-122704981D01*
X161150219Y-122862177D01*
X161332323Y-122989688D01*
X161533804Y-123083640D01*
X161733039Y-123137025D01*
X161792699Y-123173390D01*
X161823228Y-123236237D01*
X161814933Y-123305613D01*
X161770448Y-123359491D01*
X161733040Y-123376574D01*
X161573366Y-123419359D01*
X161533800Y-123429961D01*
X161332323Y-123523912D01*
X161332319Y-123523914D01*
X161150217Y-123651423D01*
X160993024Y-123808616D01*
X160899613Y-123942023D01*
X160845036Y-123985648D01*
X160798038Y-123994900D01*
X160682301Y-123994900D01*
X160615262Y-123975215D01*
X160569507Y-123922411D01*
X160559563Y-123853253D01*
X160569919Y-123818496D01*
X160612237Y-123727743D01*
X160628440Y-123692996D01*
X160685978Y-123478263D01*
X160705353Y-123256800D01*
X160685978Y-123035337D01*
X160628440Y-122820604D01*
X160534488Y-122619124D01*
X160534486Y-122619121D01*
X160534485Y-122619119D01*
X160406978Y-122437020D01*
X160340123Y-122370165D01*
X160249781Y-122279823D01*
X160067677Y-122152312D01*
X160067678Y-122152312D01*
X160067676Y-122152311D01*
X159966936Y-122105336D01*
X159866196Y-122058360D01*
X159866192Y-122058359D01*
X159866188Y-122058357D01*
X159717330Y-122018471D01*
X159666960Y-122004974D01*
X159607300Y-121968610D01*
X159576771Y-121905763D01*
X159585066Y-121836387D01*
X159629551Y-121782510D01*
X159666959Y-121765425D01*
X159866196Y-121712040D01*
X160067677Y-121618088D01*
X160249781Y-121490577D01*
X160406977Y-121333381D01*
X160534488Y-121151277D01*
X160628440Y-120949796D01*
X160685978Y-120735063D01*
X160705353Y-120513600D01*
X160702746Y-120483806D01*
X160691257Y-120352476D01*
X160685978Y-120292137D01*
X160628440Y-120077404D01*
X160534488Y-119875924D01*
X160534486Y-119875921D01*
X160534485Y-119875919D01*
X160406978Y-119693820D01*
X160336060Y-119622902D01*
X160249781Y-119536623D01*
X160067677Y-119409112D01*
X160067678Y-119409112D01*
X160067676Y-119409111D01*
X159945427Y-119352106D01*
X159866196Y-119315160D01*
X159866193Y-119315159D01*
X159866191Y-119315158D01*
X159651465Y-119257622D01*
X159651457Y-119257621D01*
X159430002Y-119238247D01*
X159429998Y-119238247D01*
X159208542Y-119257621D01*
X159208535Y-119257622D01*
X158993800Y-119315161D01*
X158792323Y-119409112D01*
X158792319Y-119409114D01*
X158610217Y-119536623D01*
X158453023Y-119693817D01*
X158325514Y-119875919D01*
X158325512Y-119875923D01*
X158231561Y-120077400D01*
X158174022Y-120292135D01*
X158174021Y-120292142D01*
X158154647Y-120513597D01*
X158154647Y-120513602D01*
X158174021Y-120735057D01*
X158174022Y-120735065D01*
X158231558Y-120949791D01*
X158231559Y-120949793D01*
X158231560Y-120949796D01*
X158257861Y-121006198D01*
X158325511Y-121151276D01*
X158333903Y-121163261D01*
X158453023Y-121333381D01*
X158610219Y-121490577D01*
X158792323Y-121618088D01*
X158993804Y-121712040D01*
X159193039Y-121765425D01*
X159252699Y-121801790D01*
X159283228Y-121864637D01*
X159274933Y-121934013D01*
X159230448Y-121987891D01*
X159193040Y-122004974D01*
X159033366Y-122047759D01*
X158993800Y-122058361D01*
X158792323Y-122152312D01*
X158792319Y-122152314D01*
X158610217Y-122279823D01*
X158453023Y-122437017D01*
X158325514Y-122619119D01*
X158325512Y-122619123D01*
X158231561Y-122820600D01*
X158174022Y-123035335D01*
X158174021Y-123035342D01*
X158154647Y-123256797D01*
X158154647Y-123256802D01*
X158174021Y-123478257D01*
X158174022Y-123478265D01*
X158231558Y-123692991D01*
X158231562Y-123693002D01*
X158290081Y-123818496D01*
X158300573Y-123887573D01*
X158272053Y-123951357D01*
X158213576Y-123989596D01*
X158177699Y-123994900D01*
X157298866Y-123994900D01*
X157231827Y-123975215D01*
X157211185Y-123958581D01*
X154250536Y-120997931D01*
X154250532Y-120997928D01*
X154146781Y-120928603D01*
X154146772Y-120928598D01*
X154031485Y-120880845D01*
X154031477Y-120880843D01*
X153916919Y-120858056D01*
X153855008Y-120825671D01*
X153839540Y-120807569D01*
X153726198Y-120645700D01*
X153564300Y-120483802D01*
X153376749Y-120352477D01*
X153323596Y-120327691D01*
X153271158Y-120281519D01*
X153252007Y-120214325D01*
X153272223Y-120147444D01*
X153323600Y-120102927D01*
X153372483Y-120080133D01*
X153558820Y-119949657D01*
X153719657Y-119788820D01*
X153850134Y-119602482D01*
X153946265Y-119396326D01*
X153946269Y-119396317D01*
X153998872Y-119200000D01*
X153035686Y-119200000D01*
X153040080Y-119195606D01*
X153092741Y-119104394D01*
X153120000Y-119002661D01*
X153120000Y-118897339D01*
X153092741Y-118795606D01*
X153040080Y-118704394D01*
X153035686Y-118700000D01*
X153998872Y-118700000D01*
X153998872Y-118699999D01*
X153946269Y-118503682D01*
X153946265Y-118503673D01*
X153850134Y-118297517D01*
X153719657Y-118111179D01*
X153558820Y-117950342D01*
X153372482Y-117819865D01*
X153166328Y-117723734D01*
X152970000Y-117671127D01*
X152970000Y-118634314D01*
X152965606Y-118629920D01*
X152874394Y-118577259D01*
X152772661Y-118550000D01*
X152667339Y-118550000D01*
X152565606Y-118577259D01*
X152474394Y-118629920D01*
X152470000Y-118634314D01*
X152470000Y-117671127D01*
X152273671Y-117723734D01*
X152067517Y-117819865D01*
X151881179Y-117950342D01*
X151720342Y-118111179D01*
X151589865Y-118297517D01*
X151493734Y-118503673D01*
X151493730Y-118503682D01*
X151441127Y-118699999D01*
X151441128Y-118700000D01*
X152404314Y-118700000D01*
X152399920Y-118704394D01*
X152347259Y-118795606D01*
X152320000Y-118897339D01*
X152320000Y-119002661D01*
X152347259Y-119104394D01*
X152399920Y-119195606D01*
X152404314Y-119200000D01*
X151441128Y-119200000D01*
X151493730Y-119396317D01*
X151493734Y-119396326D01*
X151589865Y-119602482D01*
X151720342Y-119788820D01*
X151881179Y-119949657D01*
X152067517Y-120080133D01*
X152116399Y-120102927D01*
X152168839Y-120149099D01*
X152187992Y-120216292D01*
X152167777Y-120283174D01*
X152116402Y-120327691D01*
X152063256Y-120352474D01*
X152063252Y-120352476D01*
X151992856Y-120401767D01*
X151875700Y-120483802D01*
X151875698Y-120483803D01*
X151875695Y-120483806D01*
X151713806Y-120645695D01*
X151713803Y-120645698D01*
X151713802Y-120645700D01*
X151651229Y-120735063D01*
X151582474Y-120833255D01*
X151582473Y-120833256D01*
X151571096Y-120857655D01*
X151524923Y-120910094D01*
X151457729Y-120929245D01*
X151390849Y-120909028D01*
X151371034Y-120892930D01*
X149666519Y-119188415D01*
X149633034Y-119127092D01*
X149630200Y-119100734D01*
X149630200Y-113477800D01*
X157655210Y-113477800D01*
X157674354Y-113818703D01*
X157674356Y-113818715D01*
X157731548Y-114155326D01*
X157731550Y-114155335D01*
X157826071Y-114483424D01*
X157956738Y-114798883D01*
X158121903Y-115097726D01*
X158319488Y-115376197D01*
X158380159Y-115444086D01*
X159369236Y-114455009D01*
X159440688Y-114553354D01*
X159624446Y-114737112D01*
X159722789Y-114808562D01*
X158733712Y-115797639D01*
X158801605Y-115858313D01*
X158801610Y-115858317D01*
X159080073Y-116055896D01*
X159378916Y-116221061D01*
X159694375Y-116351728D01*
X160022464Y-116446249D01*
X160022473Y-116446251D01*
X160359084Y-116503443D01*
X160359096Y-116503445D01*
X160700000Y-116522589D01*
X161040903Y-116503445D01*
X161040915Y-116503443D01*
X161377526Y-116446251D01*
X161377535Y-116446249D01*
X161705624Y-116351728D01*
X162021083Y-116221061D01*
X162319926Y-116055896D01*
X162598396Y-115858312D01*
X162598407Y-115858303D01*
X162666287Y-115797640D01*
X162666287Y-115797639D01*
X161677210Y-114808562D01*
X161775554Y-114737112D01*
X161959312Y-114553354D01*
X162030762Y-114455010D01*
X163019839Y-115444087D01*
X163019840Y-115444087D01*
X163080503Y-115376207D01*
X163080512Y-115376196D01*
X163278096Y-115097726D01*
X163443261Y-114798883D01*
X163573928Y-114483424D01*
X163668449Y-114155335D01*
X163668451Y-114155326D01*
X163725643Y-113818715D01*
X163725645Y-113818703D01*
X163744789Y-113477800D01*
X163725645Y-113136896D01*
X163725643Y-113136884D01*
X163668451Y-112800273D01*
X163668449Y-112800264D01*
X163573928Y-112472175D01*
X163443261Y-112156716D01*
X163278096Y-111857873D01*
X163080517Y-111579410D01*
X163080513Y-111579405D01*
X163019839Y-111511512D01*
X162030762Y-112500589D01*
X161959312Y-112402246D01*
X161775554Y-112218488D01*
X161677209Y-112147036D01*
X162666286Y-111157959D01*
X162598397Y-111097288D01*
X162319926Y-110899703D01*
X162021083Y-110734538D01*
X161705624Y-110603871D01*
X161377535Y-110509350D01*
X161377526Y-110509348D01*
X161040915Y-110452156D01*
X161040903Y-110452154D01*
X160700000Y-110433010D01*
X160359096Y-110452154D01*
X160359084Y-110452156D01*
X160022473Y-110509348D01*
X160022464Y-110509350D01*
X159694375Y-110603871D01*
X159378916Y-110734538D01*
X159080073Y-110899703D01*
X158801599Y-111097291D01*
X158733712Y-111157959D01*
X159722789Y-112147036D01*
X159624446Y-112218488D01*
X159440688Y-112402246D01*
X159369237Y-112500589D01*
X158380159Y-111511512D01*
X158319491Y-111579399D01*
X158121903Y-111857873D01*
X157956738Y-112156716D01*
X157826071Y-112472175D01*
X157731550Y-112800264D01*
X157731548Y-112800273D01*
X157674356Y-113136884D01*
X157674354Y-113136896D01*
X157655210Y-113477800D01*
X149630200Y-113477800D01*
X149630200Y-97524305D01*
X149630199Y-97524301D01*
X149623006Y-97488140D01*
X149605855Y-97401915D01*
X149558100Y-97286625D01*
X149558099Y-97286624D01*
X149558096Y-97286618D01*
X149488772Y-97182868D01*
X149447710Y-97141806D01*
X149400533Y-97094629D01*
X149073955Y-96768051D01*
X149040470Y-96706728D01*
X149045454Y-96637036D01*
X149051143Y-96624093D01*
X149082634Y-96562290D01*
X149146280Y-96366408D01*
X149178500Y-96162981D01*
X149178500Y-95957019D01*
X149146280Y-95753592D01*
X149143590Y-95745314D01*
X149082632Y-95557705D01*
X149034991Y-95464206D01*
X148989129Y-95374197D01*
X148965096Y-95341118D01*
X148868073Y-95207576D01*
X148868069Y-95207571D01*
X148722428Y-95061930D01*
X148722423Y-95061926D01*
X148555806Y-94940873D01*
X148555805Y-94940872D01*
X148555803Y-94940871D01*
X148476540Y-94900484D01*
X148425745Y-94852510D01*
X148408950Y-94784689D01*
X148431487Y-94718554D01*
X148476541Y-94679515D01*
X148555803Y-94639129D01*
X148722430Y-94518068D01*
X148868068Y-94372430D01*
X148989129Y-94205803D01*
X149082634Y-94022290D01*
X149146280Y-93826408D01*
X149178500Y-93622981D01*
X149178500Y-93417019D01*
X149146280Y-93213592D01*
X149082634Y-93017710D01*
X149082632Y-93017707D01*
X149082632Y-93017705D01*
X149048709Y-92951128D01*
X148989129Y-92834197D01*
X148973661Y-92812908D01*
X148868073Y-92667576D01*
X148868069Y-92667571D01*
X148722428Y-92521930D01*
X148722423Y-92521926D01*
X148555806Y-92400873D01*
X148555805Y-92400872D01*
X148555803Y-92400871D01*
X148476540Y-92360484D01*
X148425745Y-92312510D01*
X148408950Y-92244689D01*
X148431487Y-92178554D01*
X148476541Y-92139515D01*
X148555803Y-92099129D01*
X148722430Y-91978068D01*
X148868068Y-91832430D01*
X148989129Y-91665803D01*
X149082634Y-91482290D01*
X149146280Y-91286408D01*
X149178500Y-91082981D01*
X149178500Y-90877019D01*
X149146280Y-90673591D01*
X149082632Y-90477705D01*
X149029074Y-90372594D01*
X148989129Y-90294197D01*
X148925347Y-90206408D01*
X148868073Y-90127576D01*
X148868069Y-90127571D01*
X148722428Y-89981930D01*
X148722423Y-89981926D01*
X148555806Y-89860873D01*
X148555805Y-89860872D01*
X148555803Y-89860871D01*
X148476540Y-89820484D01*
X148425745Y-89772510D01*
X148408950Y-89704689D01*
X148431487Y-89638554D01*
X148476541Y-89599515D01*
X148555803Y-89559129D01*
X148631957Y-89503800D01*
X162943896Y-89503800D01*
X162963858Y-89693728D01*
X162963859Y-89693731D01*
X163022870Y-89875349D01*
X163022873Y-89875356D01*
X163118360Y-90040744D01*
X163246147Y-90182666D01*
X163400648Y-90294918D01*
X163575112Y-90372594D01*
X163761913Y-90412300D01*
X163818634Y-90412300D01*
X163885673Y-90431985D01*
X163906315Y-90448619D01*
X164841529Y-91383833D01*
X164929767Y-91472071D01*
X164929768Y-91472072D01*
X165033518Y-91541396D01*
X165033524Y-91541399D01*
X165033525Y-91541400D01*
X165148815Y-91589155D01*
X165271201Y-91613499D01*
X165271205Y-91613500D01*
X165271206Y-91613500D01*
X166169689Y-91613500D01*
X166236728Y-91633185D01*
X166270007Y-91664615D01*
X166391926Y-91832423D01*
X166391930Y-91832428D01*
X166537571Y-91978069D01*
X166537576Y-91978073D01*
X166704195Y-92099128D01*
X166783459Y-92139516D01*
X166834254Y-92187490D01*
X166851049Y-92255311D01*
X166828511Y-92321446D01*
X166783459Y-92360484D01*
X166704195Y-92400871D01*
X166537576Y-92521926D01*
X166537571Y-92521930D01*
X166391930Y-92667571D01*
X166391926Y-92667576D01*
X166270873Y-92834193D01*
X166177367Y-93017705D01*
X166113719Y-93213591D01*
X166081500Y-93417019D01*
X166081500Y-93622980D01*
X166113719Y-93826408D01*
X166177367Y-94022294D01*
X166241671Y-94148496D01*
X166256930Y-94178443D01*
X166270873Y-94205806D01*
X166391926Y-94372423D01*
X166391930Y-94372428D01*
X166537571Y-94518069D01*
X166537576Y-94518073D01*
X166682908Y-94623661D01*
X166704197Y-94639129D01*
X166792819Y-94684284D01*
X166843615Y-94732259D01*
X166860410Y-94800080D01*
X166837873Y-94866214D01*
X166792819Y-94905254D01*
X166708650Y-94948140D01*
X166543105Y-95068417D01*
X166543104Y-95068417D01*
X166398417Y-95213104D01*
X166398417Y-95213105D01*
X166278140Y-95378650D01*
X166185244Y-95560970D01*
X166122009Y-95755586D01*
X166113391Y-95810000D01*
X167474314Y-95810000D01*
X167469920Y-95814394D01*
X167417259Y-95905606D01*
X167390000Y-96007339D01*
X167390000Y-96112661D01*
X167417259Y-96214394D01*
X167469920Y-96305606D01*
X167474314Y-96310000D01*
X166113391Y-96310000D01*
X166122009Y-96364413D01*
X166185244Y-96559029D01*
X166278140Y-96741349D01*
X166398417Y-96906894D01*
X166398417Y-96906895D01*
X166543104Y-97051582D01*
X166580416Y-97078691D01*
X166623081Y-97134021D01*
X166629060Y-97203634D01*
X166596454Y-97265429D01*
X166535615Y-97299787D01*
X166520788Y-97302298D01*
X166482626Y-97306401D01*
X166482620Y-97306403D01*
X166347913Y-97356645D01*
X166347906Y-97356649D01*
X166232812Y-97442809D01*
X166232809Y-97442812D01*
X166146649Y-97557906D01*
X166146645Y-97557913D01*
X166096403Y-97692620D01*
X166096401Y-97692627D01*
X166090000Y-97752155D01*
X166090000Y-98350000D01*
X167474314Y-98350000D01*
X167469920Y-98354394D01*
X167417259Y-98445606D01*
X167390000Y-98547339D01*
X167390000Y-98652661D01*
X167417259Y-98754394D01*
X167469920Y-98845606D01*
X167474314Y-98850000D01*
X166090000Y-98850000D01*
X166090000Y-99447844D01*
X166096401Y-99507372D01*
X166096403Y-99507379D01*
X166146645Y-99642086D01*
X166146649Y-99642093D01*
X166232809Y-99757187D01*
X166232812Y-99757190D01*
X166347906Y-99843350D01*
X166347913Y-99843354D01*
X166482620Y-99893596D01*
X166482627Y-99893598D01*
X166542155Y-99899999D01*
X166542172Y-99900000D01*
X167540000Y-99900000D01*
X167540000Y-98915686D01*
X167544394Y-98920080D01*
X167635606Y-98972741D01*
X167737339Y-99000000D01*
X167842661Y-99000000D01*
X167944394Y-98972741D01*
X168035606Y-98920080D01*
X168040000Y-98915686D01*
X168040000Y-99900000D01*
X169037828Y-99900000D01*
X169037844Y-99899999D01*
X169097372Y-99893598D01*
X169097379Y-99893596D01*
X169232086Y-99843354D01*
X169232093Y-99843350D01*
X169347187Y-99757190D01*
X169347190Y-99757187D01*
X169433350Y-99642093D01*
X169433354Y-99642086D01*
X169483596Y-99507379D01*
X169483598Y-99507372D01*
X169489999Y-99447844D01*
X169490000Y-99447827D01*
X169490000Y-98850000D01*
X168105686Y-98850000D01*
X168110080Y-98845606D01*
X168162741Y-98754394D01*
X168190000Y-98652661D01*
X168190000Y-98547339D01*
X168162741Y-98445606D01*
X168110080Y-98354394D01*
X168105686Y-98350000D01*
X169490000Y-98350000D01*
X169490000Y-97752172D01*
X169489999Y-97752155D01*
X169483598Y-97692627D01*
X169483596Y-97692620D01*
X169433354Y-97557913D01*
X169433350Y-97557906D01*
X169347190Y-97442812D01*
X169347187Y-97442809D01*
X169232093Y-97356649D01*
X169232086Y-97356645D01*
X169097379Y-97306403D01*
X169097373Y-97306401D01*
X169059211Y-97302298D01*
X168994661Y-97275559D01*
X168954814Y-97218166D01*
X168952321Y-97148340D01*
X168987975Y-97088252D01*
X168999585Y-97078690D01*
X169036892Y-97051585D01*
X169181582Y-96906895D01*
X169181582Y-96906894D01*
X169301859Y-96741349D01*
X169394755Y-96559029D01*
X169457990Y-96364413D01*
X169466609Y-96310000D01*
X168105686Y-96310000D01*
X168110080Y-96305606D01*
X168162741Y-96214394D01*
X168190000Y-96112661D01*
X168190000Y-96007339D01*
X168162741Y-95905606D01*
X168110080Y-95814394D01*
X168105686Y-95810000D01*
X169466609Y-95810000D01*
X169457990Y-95755586D01*
X169394755Y-95560970D01*
X169301859Y-95378650D01*
X169181582Y-95213105D01*
X169181582Y-95213104D01*
X169036895Y-95068417D01*
X168871349Y-94948140D01*
X168787180Y-94905254D01*
X168736384Y-94857280D01*
X168719589Y-94789459D01*
X168742126Y-94723324D01*
X168787179Y-94684284D01*
X168875803Y-94639129D01*
X169042430Y-94518068D01*
X169188068Y-94372430D01*
X169309129Y-94205803D01*
X169402634Y-94022290D01*
X169466280Y-93826408D01*
X169498500Y-93622981D01*
X169498500Y-93417019D01*
X169466280Y-93213592D01*
X169402634Y-93017710D01*
X169402632Y-93017707D01*
X169402632Y-93017705D01*
X169368709Y-92951128D01*
X169309129Y-92834197D01*
X169293661Y-92812908D01*
X169188073Y-92667576D01*
X169188069Y-92667571D01*
X169042428Y-92521930D01*
X169042423Y-92521926D01*
X168875806Y-92400873D01*
X168875805Y-92400872D01*
X168875803Y-92400871D01*
X168796540Y-92360484D01*
X168745745Y-92312510D01*
X168728950Y-92244689D01*
X168751487Y-92178554D01*
X168796541Y-92139515D01*
X168875803Y-92099129D01*
X169042430Y-91978068D01*
X169188068Y-91832430D01*
X169309129Y-91665803D01*
X169402634Y-91482290D01*
X169466280Y-91286408D01*
X169498500Y-91082981D01*
X169498500Y-90877019D01*
X169466280Y-90673591D01*
X169402632Y-90477705D01*
X169349074Y-90372594D01*
X169309129Y-90294197D01*
X169245347Y-90206408D01*
X169188073Y-90127576D01*
X169188069Y-90127571D01*
X169042428Y-89981930D01*
X169042423Y-89981926D01*
X168875806Y-89860873D01*
X168875805Y-89860872D01*
X168875803Y-89860871D01*
X168796540Y-89820484D01*
X168745745Y-89772510D01*
X168728950Y-89704689D01*
X168751487Y-89638554D01*
X168796541Y-89599515D01*
X168875803Y-89559129D01*
X169042430Y-89438068D01*
X169188068Y-89292430D01*
X169309129Y-89125803D01*
X169402634Y-88942290D01*
X169466280Y-88746408D01*
X169498500Y-88542981D01*
X169498500Y-88337019D01*
X169466280Y-88133592D01*
X169402634Y-87937710D01*
X169402632Y-87937707D01*
X169402632Y-87937705D01*
X169368709Y-87871128D01*
X169309129Y-87754197D01*
X169246479Y-87667966D01*
X169188073Y-87587576D01*
X169188069Y-87587571D01*
X169042428Y-87441930D01*
X169042423Y-87441926D01*
X168875806Y-87320873D01*
X168875805Y-87320872D01*
X168875803Y-87320871D01*
X168796540Y-87280484D01*
X168745745Y-87232510D01*
X168728950Y-87164689D01*
X168751487Y-87098554D01*
X168796541Y-87059515D01*
X168875803Y-87019129D01*
X169042430Y-86898068D01*
X169188068Y-86752430D01*
X169309129Y-86585803D01*
X169402634Y-86402290D01*
X169466280Y-86206408D01*
X169498500Y-86002981D01*
X169498500Y-85797019D01*
X169466280Y-85593592D01*
X169402634Y-85397710D01*
X169402632Y-85397707D01*
X169402632Y-85397705D01*
X169368709Y-85331128D01*
X169309129Y-85214197D01*
X169293661Y-85192908D01*
X169188073Y-85047576D01*
X169188069Y-85047571D01*
X169042428Y-84901930D01*
X169042423Y-84901926D01*
X168875806Y-84780873D01*
X168875805Y-84780872D01*
X168875803Y-84780871D01*
X168818496Y-84751671D01*
X168692294Y-84687367D01*
X168496408Y-84623719D01*
X168320794Y-84595905D01*
X168292981Y-84591500D01*
X167287019Y-84591500D01*
X167262550Y-84595375D01*
X167083591Y-84623719D01*
X166887705Y-84687367D01*
X166704193Y-84780873D01*
X166537576Y-84901926D01*
X166537571Y-84901930D01*
X166391930Y-85047571D01*
X166391926Y-85047576D01*
X166270873Y-85214193D01*
X166177367Y-85397705D01*
X166113719Y-85593591D01*
X166081500Y-85797019D01*
X166081500Y-86002980D01*
X166113719Y-86206408D01*
X166177367Y-86402294D01*
X166270873Y-86585806D01*
X166391926Y-86752423D01*
X166391930Y-86752428D01*
X166537571Y-86898069D01*
X166537576Y-86898073D01*
X166704195Y-87019128D01*
X166783459Y-87059516D01*
X166834254Y-87107490D01*
X166851049Y-87175311D01*
X166828511Y-87241446D01*
X166783459Y-87280484D01*
X166704195Y-87320871D01*
X166537576Y-87441926D01*
X166537571Y-87441930D01*
X166391930Y-87587571D01*
X166391926Y-87587576D01*
X166270873Y-87754193D01*
X166177367Y-87937705D01*
X166113719Y-88133591D01*
X166081500Y-88337019D01*
X166081500Y-88542980D01*
X166113719Y-88746408D01*
X166177367Y-88942294D01*
X166270873Y-89125806D01*
X166391926Y-89292423D01*
X166391930Y-89292428D01*
X166537571Y-89438069D01*
X166537576Y-89438073D01*
X166704195Y-89559128D01*
X166783459Y-89599516D01*
X166834254Y-89647490D01*
X166851049Y-89715311D01*
X166828511Y-89781446D01*
X166783459Y-89820484D01*
X166704195Y-89860871D01*
X166537576Y-89981926D01*
X166537571Y-89981930D01*
X166391930Y-90127571D01*
X166391926Y-90127576D01*
X166270007Y-90295385D01*
X166214677Y-90338051D01*
X166169689Y-90346500D01*
X165647366Y-90346500D01*
X165580327Y-90326815D01*
X165559685Y-90310181D01*
X164804020Y-89554516D01*
X164770535Y-89493193D01*
X164768383Y-89479815D01*
X164750942Y-89313872D01*
X164691927Y-89132244D01*
X164596440Y-88966856D01*
X164468653Y-88824934D01*
X164314152Y-88712682D01*
X164139688Y-88635006D01*
X164139686Y-88635005D01*
X163952887Y-88595300D01*
X163761913Y-88595300D01*
X163575114Y-88635005D01*
X163400646Y-88712683D01*
X163246145Y-88824935D01*
X163118359Y-88966857D01*
X163022873Y-89132243D01*
X163022870Y-89132250D01*
X162970825Y-89292430D01*
X162963858Y-89313872D01*
X162943896Y-89503800D01*
X148631957Y-89503800D01*
X148722430Y-89438068D01*
X148868068Y-89292430D01*
X148989129Y-89125803D01*
X149082634Y-88942290D01*
X149146280Y-88746408D01*
X149178500Y-88542981D01*
X149178500Y-88337019D01*
X149146280Y-88133592D01*
X149082634Y-87937710D01*
X149082632Y-87937707D01*
X149082632Y-87937705D01*
X149048709Y-87871128D01*
X148989129Y-87754197D01*
X148926479Y-87667966D01*
X148868073Y-87587576D01*
X148868069Y-87587571D01*
X148722428Y-87441930D01*
X148722423Y-87441926D01*
X148555806Y-87320873D01*
X148555805Y-87320872D01*
X148555803Y-87320871D01*
X148476540Y-87280484D01*
X148425745Y-87232510D01*
X148408950Y-87164689D01*
X148431487Y-87098554D01*
X148476541Y-87059515D01*
X148555803Y-87019129D01*
X148722430Y-86898068D01*
X148868068Y-86752430D01*
X148989129Y-86585803D01*
X149082634Y-86402290D01*
X149146280Y-86206408D01*
X149178500Y-86002981D01*
X149178500Y-85797019D01*
X149146280Y-85593592D01*
X149082634Y-85397710D01*
X149082632Y-85397707D01*
X149082632Y-85397705D01*
X149048709Y-85331128D01*
X148989129Y-85214197D01*
X148973661Y-85192908D01*
X148868073Y-85047576D01*
X148868069Y-85047571D01*
X148722428Y-84901930D01*
X148722423Y-84901926D01*
X148555806Y-84780873D01*
X148555805Y-84780872D01*
X148555803Y-84780871D01*
X148498496Y-84751671D01*
X148372294Y-84687367D01*
X148176408Y-84623719D01*
X148000794Y-84595905D01*
X147972981Y-84591500D01*
X146967019Y-84591500D01*
X146942550Y-84595375D01*
X146763591Y-84623719D01*
X146567705Y-84687367D01*
X146384193Y-84780873D01*
X146217576Y-84901926D01*
X146217571Y-84901930D01*
X146071930Y-85047571D01*
X146071926Y-85047576D01*
X145950873Y-85214193D01*
X145857367Y-85397705D01*
X145793719Y-85593591D01*
X145761500Y-85797019D01*
X145761500Y-86002980D01*
X145793719Y-86206408D01*
X145857367Y-86402294D01*
X145950873Y-86585806D01*
X146071926Y-86752423D01*
X146071930Y-86752428D01*
X146217571Y-86898069D01*
X146217576Y-86898073D01*
X146384195Y-87019128D01*
X146463459Y-87059516D01*
X146514254Y-87107490D01*
X146531049Y-87175311D01*
X146508511Y-87241446D01*
X146463459Y-87280484D01*
X146384195Y-87320871D01*
X146217576Y-87441926D01*
X146217571Y-87441930D01*
X146164733Y-87494768D01*
X146103410Y-87528252D01*
X146033718Y-87523267D01*
X145989372Y-87494767D01*
X131494601Y-72999996D01*
X159136656Y-72999996D01*
X159136656Y-73000003D01*
X159156017Y-73332414D01*
X159156018Y-73332425D01*
X159213834Y-73660315D01*
X159213837Y-73660329D01*
X159213838Y-73660333D01*
X159234839Y-73730483D01*
X159309336Y-73979320D01*
X159441218Y-74285057D01*
X159441224Y-74285070D01*
X159607711Y-74573434D01*
X159806547Y-74840518D01*
X159806552Y-74840524D01*
X159911111Y-74951349D01*
X160035054Y-75082721D01*
X160035060Y-75082726D01*
X160035062Y-75082728D01*
X160290127Y-75296753D01*
X160290135Y-75296759D01*
X160568324Y-75479727D01*
X160568328Y-75479729D01*
X160865887Y-75629169D01*
X161178784Y-75743054D01*
X161502786Y-75819843D01*
X161833511Y-75858500D01*
X161833519Y-75858500D01*
X162166481Y-75858500D01*
X162166489Y-75858500D01*
X162497214Y-75819843D01*
X162821216Y-75743054D01*
X163134113Y-75629169D01*
X163431672Y-75479729D01*
X163709870Y-75296755D01*
X163964946Y-75082721D01*
X164193449Y-74840522D01*
X164392289Y-74573433D01*
X164558778Y-74285066D01*
X164690663Y-73979321D01*
X164786162Y-73660333D01*
X164843983Y-73332414D01*
X164863344Y-73000000D01*
X164861265Y-72964312D01*
X164857193Y-72894398D01*
X164843983Y-72667586D01*
X164786162Y-72339667D01*
X164690663Y-72020679D01*
X164558778Y-71714934D01*
X164392289Y-71426567D01*
X164296083Y-71297339D01*
X164193452Y-71159481D01*
X164193447Y-71159475D01*
X164082959Y-71042365D01*
X163964946Y-70917279D01*
X163964939Y-70917273D01*
X163964937Y-70917271D01*
X163709872Y-70703246D01*
X163709864Y-70703240D01*
X163431675Y-70520272D01*
X163134120Y-70370834D01*
X163134114Y-70370831D01*
X162821217Y-70256946D01*
X162821215Y-70256945D01*
X162497214Y-70180157D01*
X162166489Y-70141500D01*
X161833511Y-70141500D01*
X161539533Y-70175861D01*
X161502785Y-70180157D01*
X161178784Y-70256945D01*
X161178782Y-70256946D01*
X160865885Y-70370831D01*
X160865879Y-70370834D01*
X160568324Y-70520272D01*
X160290135Y-70703240D01*
X160290127Y-70703246D01*
X160035062Y-70917271D01*
X160035052Y-70917281D01*
X159806552Y-71159475D01*
X159806547Y-71159481D01*
X159607711Y-71426565D01*
X159441224Y-71714929D01*
X159441218Y-71714942D01*
X159309336Y-72020679D01*
X159213837Y-72339670D01*
X159213834Y-72339684D01*
X159156018Y-72667574D01*
X159156017Y-72667585D01*
X159136656Y-72999996D01*
X131494601Y-72999996D01*
X131458336Y-72963731D01*
X131458332Y-72963728D01*
X131354581Y-72894403D01*
X131354572Y-72894398D01*
X131239285Y-72846645D01*
X131239277Y-72846643D01*
X131116898Y-72822300D01*
X131116894Y-72822300D01*
X121788206Y-72822300D01*
X121788202Y-72822300D01*
X121665819Y-72846643D01*
X121665814Y-72846645D01*
X121632048Y-72860629D01*
X121632049Y-72860630D01*
X121550526Y-72894398D01*
X121550522Y-72894400D01*
X121446771Y-72963724D01*
X121446763Y-72963730D01*
X120431176Y-73979320D01*
X120294367Y-74116129D01*
X120250247Y-74160249D01*
X120206127Y-74204368D01*
X120136803Y-74308118D01*
X120136798Y-74308127D01*
X120089045Y-74423414D01*
X120089043Y-74423422D01*
X120064700Y-74545801D01*
X120064700Y-97096433D01*
X120045015Y-97163472D01*
X119992211Y-97209227D01*
X119923053Y-97219171D01*
X119859497Y-97190146D01*
X119853019Y-97184114D01*
X119646036Y-96977131D01*
X119646032Y-96977128D01*
X119542281Y-96907803D01*
X119542272Y-96907798D01*
X119426985Y-96860045D01*
X119426977Y-96860043D01*
X119304598Y-96835700D01*
X119304594Y-96835700D01*
X116080594Y-96835700D01*
X115955806Y-96835700D01*
X115955801Y-96835700D01*
X115833422Y-96860043D01*
X115833414Y-96860045D01*
X115718127Y-96907798D01*
X115718118Y-96907803D01*
X115614367Y-96977128D01*
X115614363Y-96977131D01*
X111840934Y-100750560D01*
X111779611Y-100784045D01*
X111709919Y-100779061D01*
X111653986Y-100737189D01*
X111645865Y-100724877D01*
X111639041Y-100713057D01*
X111511254Y-100571135D01*
X111431316Y-100513056D01*
X111356752Y-100458882D01*
X111182288Y-100381206D01*
X111182286Y-100381205D01*
X110995487Y-100341500D01*
X110804513Y-100341500D01*
X110617714Y-100381205D01*
X110443246Y-100458883D01*
X110288745Y-100571135D01*
X110160959Y-100713057D01*
X110065473Y-100878443D01*
X110065470Y-100878450D01*
X110006459Y-101060068D01*
X110006458Y-101060072D01*
X109989019Y-101225995D01*
X109962434Y-101290609D01*
X109953379Y-101300714D01*
X107763119Y-103490977D01*
X107346167Y-103907929D01*
X107310631Y-103943465D01*
X107257927Y-103996168D01*
X107188603Y-104099918D01*
X107188598Y-104099927D01*
X107140845Y-104215214D01*
X107140843Y-104215222D01*
X107116500Y-104337601D01*
X107116500Y-112698241D01*
X107096815Y-112765280D01*
X107084650Y-112781213D01*
X107010963Y-112863050D01*
X107010958Y-112863057D01*
X106915473Y-113028443D01*
X106915470Y-113028450D01*
X106873792Y-113156723D01*
X106856458Y-113210072D01*
X106836496Y-113400000D01*
X101351555Y-113400000D01*
X101344565Y-113315640D01*
X101344563Y-113315627D01*
X101322004Y-113226543D01*
X101324629Y-113156723D01*
X101364586Y-113099405D01*
X101429187Y-113072789D01*
X101442210Y-113072103D01*
X102631294Y-113072103D01*
X102698333Y-113091788D01*
X102723443Y-113113130D01*
X102727350Y-113117469D01*
X102881851Y-113229721D01*
X103056315Y-113307397D01*
X103243116Y-113347103D01*
X103434090Y-113347103D01*
X103620891Y-113307397D01*
X103795355Y-113229721D01*
X103949856Y-113117469D01*
X104077643Y-112975547D01*
X104173130Y-112810159D01*
X104232145Y-112628531D01*
X104252107Y-112438603D01*
X104232145Y-112248675D01*
X104173130Y-112067047D01*
X104077643Y-111901659D01*
X103949856Y-111759737D01*
X103795355Y-111647485D01*
X103620891Y-111569809D01*
X103620889Y-111569808D01*
X103434090Y-111530103D01*
X103243116Y-111530103D01*
X103056317Y-111569808D01*
X103056315Y-111569809D01*
X102904539Y-111637384D01*
X102881849Y-111647486D01*
X102727348Y-111759738D01*
X102723443Y-111764076D01*
X102663957Y-111800724D01*
X102631294Y-111805103D01*
X101482500Y-111805103D01*
X101415461Y-111785418D01*
X101369706Y-111732614D01*
X101358500Y-111681103D01*
X101358500Y-110101362D01*
X101358499Y-110101345D01*
X101355157Y-110070270D01*
X101351989Y-110040799D01*
X101351453Y-110039363D01*
X101314001Y-109938950D01*
X101300889Y-109903796D01*
X101213261Y-109786739D01*
X101096204Y-109699111D01*
X101055374Y-109683882D01*
X100959203Y-109648011D01*
X100898654Y-109641500D01*
X100898638Y-109641500D01*
X99101362Y-109641500D01*
X99101345Y-109641500D01*
X99040797Y-109648011D01*
X99040795Y-109648011D01*
X98903795Y-109699111D01*
X98786739Y-109786739D01*
X98699111Y-109903795D01*
X98648011Y-110040795D01*
X98648011Y-110040797D01*
X98641500Y-110101345D01*
X98641500Y-111607500D01*
X98621815Y-111674539D01*
X98569011Y-111720294D01*
X98517500Y-111731500D01*
X96355101Y-111731500D01*
X96232722Y-111755843D01*
X96232714Y-111755845D01*
X96117427Y-111803598D01*
X96117418Y-111803603D01*
X96013667Y-111872928D01*
X96013663Y-111872931D01*
X86993666Y-120892930D01*
X83997367Y-123889229D01*
X83964185Y-123922411D01*
X83909127Y-123977468D01*
X83839803Y-124081218D01*
X83839798Y-124081227D01*
X83792045Y-124196514D01*
X83792043Y-124196522D01*
X83767700Y-124318901D01*
X83767700Y-127994900D01*
X83748015Y-128061939D01*
X83695211Y-128107694D01*
X83643700Y-128118900D01*
X83539209Y-128118900D01*
X83473369Y-128129328D01*
X83341688Y-128150184D01*
X83151499Y-128211979D01*
X82973312Y-128302771D01*
X82881006Y-128369835D01*
X82811525Y-128420317D01*
X82811523Y-128420319D01*
X82811522Y-128420319D01*
X82670119Y-128561722D01*
X82670119Y-128561723D01*
X82670117Y-128561725D01*
X82662107Y-128572750D01*
X82552571Y-128723512D01*
X82461779Y-128901699D01*
X82399984Y-129091888D01*
X82368700Y-129289409D01*
X79931300Y-129289409D01*
X79900016Y-129091890D01*
X79869117Y-128996793D01*
X79838220Y-128901699D01*
X79809784Y-128845891D01*
X79747429Y-128723513D01*
X79629883Y-128561725D01*
X79488475Y-128420317D01*
X79326687Y-128302771D01*
X79148500Y-128211979D01*
X78958311Y-128150184D01*
X78838494Y-128131207D01*
X78760791Y-128118900D01*
X77036809Y-128118900D01*
X76970969Y-128129328D01*
X76839288Y-128150184D01*
X76649099Y-128211979D01*
X76470912Y-128302771D01*
X76378606Y-128369835D01*
X76309125Y-128420317D01*
X76309123Y-128420319D01*
X76309122Y-128420319D01*
X76167719Y-128561722D01*
X76167719Y-128561723D01*
X76167717Y-128561725D01*
X76159707Y-128572750D01*
X76050171Y-128723512D01*
X75959379Y-128901699D01*
X75897584Y-129091888D01*
X75866300Y-129289409D01*
X70025500Y-129289409D01*
X70025500Y-109539994D01*
X76636844Y-109539994D01*
X76636844Y-109540005D01*
X76655434Y-109764359D01*
X76655436Y-109764371D01*
X76710703Y-109982614D01*
X76801140Y-110188792D01*
X76924276Y-110377265D01*
X76924284Y-110377276D01*
X77075114Y-110541118D01*
X77076760Y-110542906D01*
X77254424Y-110681189D01*
X77254429Y-110681191D01*
X77254431Y-110681193D01*
X77290930Y-110700946D01*
X77340520Y-110750165D01*
X77355628Y-110818382D01*
X77331457Y-110883937D01*
X77290930Y-110919054D01*
X77254431Y-110938806D01*
X77254422Y-110938812D01*
X77076761Y-111077092D01*
X77076756Y-111077097D01*
X76924284Y-111242723D01*
X76924276Y-111242734D01*
X76801140Y-111431207D01*
X76710703Y-111637385D01*
X76655436Y-111855628D01*
X76655434Y-111855640D01*
X76636844Y-112079994D01*
X76636844Y-112080005D01*
X76655434Y-112304359D01*
X76655436Y-112304371D01*
X76710703Y-112522614D01*
X76801140Y-112728792D01*
X76924276Y-112917265D01*
X76924284Y-112917276D01*
X77076756Y-113082902D01*
X77076761Y-113082907D01*
X77115591Y-113113130D01*
X77254424Y-113221189D01*
X77254429Y-113221191D01*
X77254431Y-113221193D01*
X77290930Y-113240946D01*
X77340520Y-113290165D01*
X77355628Y-113358382D01*
X77331457Y-113423937D01*
X77290930Y-113459054D01*
X77254431Y-113478806D01*
X77254422Y-113478812D01*
X77076761Y-113617092D01*
X77076756Y-113617097D01*
X76924284Y-113782723D01*
X76924276Y-113782734D01*
X76801140Y-113971207D01*
X76710703Y-114177385D01*
X76655436Y-114395628D01*
X76655434Y-114395640D01*
X76636844Y-114619994D01*
X76636844Y-114620005D01*
X76655434Y-114844359D01*
X76655436Y-114844371D01*
X76710703Y-115062614D01*
X76801140Y-115268792D01*
X76924276Y-115457265D01*
X76924284Y-115457276D01*
X77059230Y-115603864D01*
X77076760Y-115622906D01*
X77254424Y-115761189D01*
X77274250Y-115771918D01*
X77297695Y-115784606D01*
X77347286Y-115833825D01*
X77362394Y-115902042D01*
X77338224Y-115967597D01*
X77309802Y-115995236D01*
X77128922Y-116121890D01*
X77128920Y-116121891D01*
X76961891Y-116288920D01*
X76961886Y-116288926D01*
X76826400Y-116482420D01*
X76826399Y-116482422D01*
X76726570Y-116696507D01*
X76726567Y-116696513D01*
X76669364Y-116909999D01*
X76669364Y-116910000D01*
X77566988Y-116910000D01*
X77534075Y-116967007D01*
X77500000Y-117094174D01*
X77500000Y-117225826D01*
X77534075Y-117352993D01*
X77566988Y-117410000D01*
X76669364Y-117410000D01*
X76726567Y-117623486D01*
X76726570Y-117623492D01*
X76826399Y-117837578D01*
X76961894Y-118031082D01*
X77128917Y-118198105D01*
X77322421Y-118333600D01*
X77536507Y-118433429D01*
X77536516Y-118433433D01*
X77750000Y-118490634D01*
X77750000Y-117593012D01*
X77807007Y-117625925D01*
X77934174Y-117660000D01*
X78065826Y-117660000D01*
X78192993Y-117625925D01*
X78250000Y-117593012D01*
X78250000Y-118490633D01*
X78463483Y-118433433D01*
X78463492Y-118433429D01*
X78677578Y-118333600D01*
X78871082Y-118198105D01*
X79038105Y-118031082D01*
X79173600Y-117837578D01*
X79273429Y-117623492D01*
X79273432Y-117623486D01*
X79330636Y-117410000D01*
X78433012Y-117410000D01*
X78465925Y-117352993D01*
X78500000Y-117225826D01*
X78500000Y-117094174D01*
X78465925Y-116967007D01*
X78433012Y-116910000D01*
X79330636Y-116910000D01*
X79330635Y-116909999D01*
X79273432Y-116696513D01*
X79273429Y-116696507D01*
X79173600Y-116482422D01*
X79173599Y-116482420D01*
X79038113Y-116288926D01*
X79038108Y-116288920D01*
X78871082Y-116121894D01*
X78690197Y-115995236D01*
X78646572Y-115940659D01*
X78639380Y-115871160D01*
X78670902Y-115808806D01*
X78702300Y-115784608D01*
X78745576Y-115761189D01*
X78923240Y-115622906D01*
X79054463Y-115480361D01*
X79075715Y-115457276D01*
X79075716Y-115457274D01*
X79075722Y-115457268D01*
X79198860Y-115268791D01*
X79289296Y-115062616D01*
X79344564Y-114844368D01*
X79345617Y-114831658D01*
X79363156Y-114620005D01*
X79363156Y-114619994D01*
X79344565Y-114395640D01*
X79344563Y-114395628D01*
X79339913Y-114377265D01*
X79289296Y-114177384D01*
X79198860Y-113971209D01*
X79075722Y-113782732D01*
X79075719Y-113782729D01*
X79075715Y-113782723D01*
X78923243Y-113617097D01*
X78923238Y-113617092D01*
X78745577Y-113478812D01*
X78745578Y-113478812D01*
X78745576Y-113478811D01*
X78709070Y-113459055D01*
X78659479Y-113409836D01*
X78644371Y-113341619D01*
X78668541Y-113276064D01*
X78709070Y-113240945D01*
X78709084Y-113240936D01*
X78745576Y-113221189D01*
X78923240Y-113082906D01*
X79075722Y-112917268D01*
X79198860Y-112728791D01*
X79289296Y-112522616D01*
X79344564Y-112304368D01*
X79349179Y-112248675D01*
X79363156Y-112080005D01*
X79363156Y-112079994D01*
X79344565Y-111855640D01*
X79344563Y-111855628D01*
X79315766Y-111741913D01*
X79289296Y-111637384D01*
X79198860Y-111431209D01*
X79175665Y-111395707D01*
X79137291Y-111336970D01*
X79075722Y-111242732D01*
X79075719Y-111242729D01*
X79075715Y-111242723D01*
X78923243Y-111077097D01*
X78923238Y-111077092D01*
X78786635Y-110970769D01*
X78745576Y-110938811D01*
X78709070Y-110919055D01*
X78659479Y-110869836D01*
X78644371Y-110801619D01*
X78668541Y-110736064D01*
X78709070Y-110700945D01*
X78709084Y-110700936D01*
X78745576Y-110681189D01*
X78923240Y-110542906D01*
X79075722Y-110377268D01*
X79198860Y-110188791D01*
X79289296Y-109982616D01*
X79344564Y-109764368D01*
X79349853Y-109700546D01*
X79363156Y-109540005D01*
X79363156Y-109539994D01*
X79344565Y-109315640D01*
X79344563Y-109315628D01*
X79289296Y-109097385D01*
X79281467Y-109079537D01*
X79226223Y-108953592D01*
X79217321Y-108884294D01*
X79247298Y-108821182D01*
X79252081Y-108816121D01*
X84358171Y-103710033D01*
X84427500Y-103606275D01*
X84475255Y-103490985D01*
X84499600Y-103368594D01*
X84499600Y-103243806D01*
X84499600Y-101951856D01*
X84519285Y-101884817D01*
X84531446Y-101868888D01*
X84605140Y-101787044D01*
X84700627Y-101621656D01*
X84759642Y-101440028D01*
X84779604Y-101250100D01*
X84759642Y-101060172D01*
X84700627Y-100878544D01*
X84605140Y-100713156D01*
X84477353Y-100571234D01*
X84404032Y-100517963D01*
X84361367Y-100462634D01*
X84355388Y-100393021D01*
X84387993Y-100331226D01*
X84389162Y-100330040D01*
X92492071Y-92227133D01*
X92561400Y-92123375D01*
X92609155Y-92008085D01*
X92633500Y-91885694D01*
X92633500Y-91760906D01*
X92633500Y-78862500D01*
X92653185Y-78795461D01*
X92705989Y-78749706D01*
X92757500Y-78738500D01*
X92898638Y-78738500D01*
X92898654Y-78738499D01*
X92925692Y-78735591D01*
X92959201Y-78731989D01*
X93096204Y-78680889D01*
X93213261Y-78593261D01*
X93300889Y-78476204D01*
X93334604Y-78385809D01*
X93376475Y-78329879D01*
X93441939Y-78305462D01*
X93510212Y-78320314D01*
X93542014Y-78345162D01*
X93576761Y-78382907D01*
X93627357Y-78422288D01*
X93754424Y-78521189D01*
X93754426Y-78521190D01*
X93754433Y-78521195D01*
X93801516Y-78546674D01*
X93851107Y-78595892D01*
X93866500Y-78655729D01*
X93866500Y-86064806D01*
X93846815Y-86131845D01*
X93794011Y-86177600D01*
X93792937Y-86178085D01*
X93748246Y-86197982D01*
X93593745Y-86310235D01*
X93465959Y-86452157D01*
X93370473Y-86617543D01*
X93370470Y-86617550D01*
X93311459Y-86799168D01*
X93311458Y-86799172D01*
X93291496Y-86989100D01*
X93311458Y-87179028D01*
X93311459Y-87179031D01*
X93370470Y-87360649D01*
X93370473Y-87360656D01*
X93465960Y-87526044D01*
X93593747Y-87667966D01*
X93748248Y-87780218D01*
X93922712Y-87857894D01*
X94109513Y-87897600D01*
X94300487Y-87897600D01*
X94487288Y-87857894D01*
X94661752Y-87780218D01*
X94816253Y-87667966D01*
X94944040Y-87526044D01*
X95039527Y-87360656D01*
X95046809Y-87338241D01*
X95086245Y-87280569D01*
X95150603Y-87253369D01*
X95177715Y-87253242D01*
X95179209Y-87253399D01*
X95179213Y-87253400D01*
X95179217Y-87253400D01*
X95370187Y-87253400D01*
X95556988Y-87213694D01*
X95731452Y-87136018D01*
X95885953Y-87023766D01*
X96013740Y-86881844D01*
X96109227Y-86716456D01*
X96168242Y-86534828D01*
X96187986Y-86346967D01*
X96208202Y-86291045D01*
X96244800Y-86236275D01*
X96292555Y-86120985D01*
X96316900Y-85998594D01*
X96316900Y-85873806D01*
X96316900Y-76501006D01*
X96292555Y-76378615D01*
X96244800Y-76263325D01*
X96244799Y-76263324D01*
X96244796Y-76263318D01*
X96175472Y-76159568D01*
X96175050Y-76159146D01*
X96087233Y-76071329D01*
X95849063Y-75833159D01*
X95815578Y-75771836D01*
X95816539Y-75715037D01*
X95844561Y-75604380D01*
X95844561Y-75604379D01*
X95844564Y-75604368D01*
X95847912Y-75563963D01*
X95863156Y-75380005D01*
X95863156Y-75379994D01*
X95844565Y-75155640D01*
X95844563Y-75155628D01*
X95789296Y-74937385D01*
X95781670Y-74920000D01*
X95698860Y-74731209D01*
X95686230Y-74711878D01*
X95625305Y-74618625D01*
X95575722Y-74542732D01*
X95575719Y-74542729D01*
X95575715Y-74542723D01*
X95423243Y-74377097D01*
X95423238Y-74377092D01*
X95245577Y-74238812D01*
X95245572Y-74238808D01*
X95047580Y-74131661D01*
X95047577Y-74131659D01*
X95047574Y-74131658D01*
X95047571Y-74131657D01*
X95047569Y-74131656D01*
X94834637Y-74058556D01*
X94612569Y-74021500D01*
X94387431Y-74021500D01*
X94165362Y-74058556D01*
X93952430Y-74131656D01*
X93952419Y-74131661D01*
X93754427Y-74238808D01*
X93754422Y-74238812D01*
X93576761Y-74377092D01*
X93576756Y-74377097D01*
X93424284Y-74542723D01*
X93424276Y-74542734D01*
X93349558Y-74657098D01*
X93296411Y-74702455D01*
X93227180Y-74711878D01*
X93163845Y-74682375D01*
X93144175Y-74660399D01*
X93114925Y-74618626D01*
X93114925Y-74618625D01*
X92450302Y-75283248D01*
X92428651Y-75202447D01*
X92368091Y-75097554D01*
X92282446Y-75011909D01*
X92177553Y-74951349D01*
X92096750Y-74929697D01*
X92761373Y-74265073D01*
X92761373Y-74265072D01*
X92677583Y-74206402D01*
X92677579Y-74206400D01*
X92463492Y-74106570D01*
X92463483Y-74106566D01*
X92235326Y-74045432D01*
X92235315Y-74045430D01*
X92000002Y-74024843D01*
X91999998Y-74024843D01*
X91764684Y-74045430D01*
X91764673Y-74045432D01*
X91536516Y-74106566D01*
X91536507Y-74106570D01*
X91322419Y-74206401D01*
X91238625Y-74265072D01*
X91903250Y-74929697D01*
X91822447Y-74951349D01*
X91717554Y-75011909D01*
X91631909Y-75097554D01*
X91571349Y-75202447D01*
X91549697Y-75283250D01*
X90885072Y-74618625D01*
X90826401Y-74702419D01*
X90726570Y-74916507D01*
X90726566Y-74916516D01*
X90665432Y-75144673D01*
X90665430Y-75144684D01*
X90644843Y-75379998D01*
X90644843Y-75380001D01*
X90665430Y-75615315D01*
X90665432Y-75615326D01*
X90726566Y-75843483D01*
X90726570Y-75843492D01*
X90811807Y-76026284D01*
X90822299Y-76095362D01*
X90793779Y-76159146D01*
X90787113Y-76166364D01*
X90786737Y-76166739D01*
X90699112Y-76283793D01*
X90699111Y-76283793D01*
X90648011Y-76420795D01*
X90648011Y-76420797D01*
X90641500Y-76481345D01*
X90641500Y-78278654D01*
X90648011Y-78339202D01*
X90648011Y-78339204D01*
X90699111Y-78476204D01*
X90786739Y-78593261D01*
X90903796Y-78680889D01*
X91040799Y-78731989D01*
X91068050Y-78734918D01*
X91101345Y-78738499D01*
X91101362Y-78738500D01*
X91242500Y-78738500D01*
X91309539Y-78758185D01*
X91355294Y-78810989D01*
X91366500Y-78862500D01*
X91366500Y-91509534D01*
X91346815Y-91576573D01*
X91330181Y-91597215D01*
X77596167Y-105331229D01*
X77552047Y-105375349D01*
X77507927Y-105419468D01*
X77438603Y-105523218D01*
X77438596Y-105523230D01*
X77421316Y-105564952D01*
X77377476Y-105619356D01*
X77311182Y-105641421D01*
X77306755Y-105641500D01*
X77101345Y-105641500D01*
X77040797Y-105648011D01*
X77040795Y-105648011D01*
X76903795Y-105699111D01*
X76786739Y-105786739D01*
X76699111Y-105903795D01*
X76648011Y-106040795D01*
X76648011Y-106040797D01*
X76641500Y-106101345D01*
X76641500Y-107898654D01*
X76648011Y-107959202D01*
X76648011Y-107959204D01*
X76693134Y-108080180D01*
X76699111Y-108096204D01*
X76786739Y-108213261D01*
X76903796Y-108300889D01*
X76955737Y-108320262D01*
X77021595Y-108344827D01*
X77077528Y-108386699D01*
X77101944Y-108452163D01*
X77087092Y-108520436D01*
X77069490Y-108544991D01*
X76924279Y-108702730D01*
X76924276Y-108702734D01*
X76801140Y-108891207D01*
X76710703Y-109097385D01*
X76655436Y-109315628D01*
X76655434Y-109315640D01*
X76636844Y-109539994D01*
X70025500Y-109539994D01*
X70025500Y-90899997D01*
X78631693Y-90899997D01*
X78631693Y-90900000D01*
X78650885Y-91119371D01*
X78707880Y-91332076D01*
X78707881Y-91332079D01*
X78707882Y-91332081D01*
X78777925Y-91482290D01*
X78800944Y-91531654D01*
X78927251Y-91712038D01*
X79082962Y-91867749D01*
X79263346Y-91994056D01*
X79462924Y-92087120D01*
X79675629Y-92144115D01*
X79832322Y-92157823D01*
X79894998Y-92163307D01*
X79895000Y-92163307D01*
X79895002Y-92163307D01*
X79949842Y-92158509D01*
X80114371Y-92144115D01*
X80327076Y-92087120D01*
X80526654Y-91994056D01*
X80707038Y-91867749D01*
X80862749Y-91712038D01*
X80989056Y-91531654D01*
X81082120Y-91332076D01*
X81139115Y-91119371D01*
X81158307Y-90900000D01*
X81158307Y-90899997D01*
X83511693Y-90899997D01*
X83511693Y-90900000D01*
X83530885Y-91119371D01*
X83587880Y-91332076D01*
X83587881Y-91332079D01*
X83587882Y-91332081D01*
X83657925Y-91482290D01*
X83680944Y-91531654D01*
X83807251Y-91712038D01*
X83962962Y-91867749D01*
X84143346Y-91994056D01*
X84342924Y-92087120D01*
X84555629Y-92144115D01*
X84712322Y-92157823D01*
X84774998Y-92163307D01*
X84775000Y-92163307D01*
X84775002Y-92163307D01*
X84829842Y-92158509D01*
X84994371Y-92144115D01*
X85207076Y-92087120D01*
X85406654Y-91994056D01*
X85587038Y-91867749D01*
X85742749Y-91712038D01*
X85869056Y-91531654D01*
X85962120Y-91332076D01*
X86019115Y-91119371D01*
X86038307Y-90900000D01*
X86036296Y-90877019D01*
X86019115Y-90680634D01*
X86019115Y-90680629D01*
X85962120Y-90467924D01*
X85869056Y-90268347D01*
X85869054Y-90268344D01*
X85869053Y-90268342D01*
X85770487Y-90127576D01*
X85742749Y-90087962D01*
X85587038Y-89932251D01*
X85406654Y-89805944D01*
X85406650Y-89805942D01*
X85207081Y-89712882D01*
X85207079Y-89712881D01*
X85207076Y-89712880D01*
X85055777Y-89672339D01*
X84994372Y-89655885D01*
X84994365Y-89655884D01*
X84775002Y-89636693D01*
X84774998Y-89636693D01*
X84555634Y-89655884D01*
X84555627Y-89655885D01*
X84342920Y-89712881D01*
X84143346Y-89805944D01*
X84143342Y-89805946D01*
X83962967Y-89932247D01*
X83962960Y-89932252D01*
X83807252Y-90087960D01*
X83807247Y-90087967D01*
X83680946Y-90268342D01*
X83680944Y-90268346D01*
X83587881Y-90467920D01*
X83530885Y-90680627D01*
X83530884Y-90680634D01*
X83511693Y-90899997D01*
X81158307Y-90899997D01*
X81156296Y-90877019D01*
X81139115Y-90680634D01*
X81139115Y-90680629D01*
X81082120Y-90467924D01*
X80989056Y-90268347D01*
X80989054Y-90268344D01*
X80989053Y-90268342D01*
X80890487Y-90127576D01*
X80862749Y-90087962D01*
X80707038Y-89932251D01*
X80526654Y-89805944D01*
X80526650Y-89805942D01*
X80327081Y-89712882D01*
X80327079Y-89712881D01*
X80327076Y-89712880D01*
X80175777Y-89672339D01*
X80114372Y-89655885D01*
X80114365Y-89655884D01*
X79895002Y-89636693D01*
X79894998Y-89636693D01*
X79675634Y-89655884D01*
X79675627Y-89655885D01*
X79462920Y-89712881D01*
X79263346Y-89805944D01*
X79263342Y-89805946D01*
X79082967Y-89932247D01*
X79082960Y-89932252D01*
X78927252Y-90087960D01*
X78927247Y-90087967D01*
X78800946Y-90268342D01*
X78800944Y-90268346D01*
X78707881Y-90467920D01*
X78650885Y-90680627D01*
X78650884Y-90680634D01*
X78631693Y-90899997D01*
X70025500Y-90899997D01*
X70025500Y-72999996D01*
X75136656Y-72999996D01*
X75136656Y-73000003D01*
X75156017Y-73332414D01*
X75156018Y-73332425D01*
X75213834Y-73660315D01*
X75213837Y-73660329D01*
X75213838Y-73660333D01*
X75234839Y-73730483D01*
X75309336Y-73979320D01*
X75441218Y-74285057D01*
X75441224Y-74285070D01*
X75607711Y-74573434D01*
X75806547Y-74840518D01*
X75806552Y-74840524D01*
X75911111Y-74951349D01*
X76035054Y-75082721D01*
X76035060Y-75082726D01*
X76035062Y-75082728D01*
X76290127Y-75296753D01*
X76290135Y-75296759D01*
X76568324Y-75479727D01*
X76568328Y-75479729D01*
X76865887Y-75629169D01*
X77178784Y-75743054D01*
X77502786Y-75819843D01*
X77833511Y-75858500D01*
X77833519Y-75858500D01*
X78166481Y-75858500D01*
X78166489Y-75858500D01*
X78497214Y-75819843D01*
X78821216Y-75743054D01*
X79134113Y-75629169D01*
X79431672Y-75479729D01*
X79709870Y-75296755D01*
X79964946Y-75082721D01*
X80193449Y-74840522D01*
X80392289Y-74573433D01*
X80558778Y-74285066D01*
X80690663Y-73979321D01*
X80786162Y-73660333D01*
X80843983Y-73332414D01*
X80863344Y-73000000D01*
X80861265Y-72964312D01*
X80857193Y-72894398D01*
X80844124Y-72670000D01*
X84975172Y-72670000D01*
X84994462Y-72964312D01*
X84994464Y-72964324D01*
X85052001Y-73253584D01*
X85052005Y-73253599D01*
X85146812Y-73532888D01*
X85277258Y-73797406D01*
X85277265Y-73797419D01*
X85441123Y-74042649D01*
X85470405Y-74076040D01*
X86247173Y-73299271D01*
X86341388Y-73428946D01*
X86471054Y-73558612D01*
X86600726Y-73652825D01*
X85823958Y-74429593D01*
X85857350Y-74458876D01*
X86102580Y-74622734D01*
X86102593Y-74622741D01*
X86367111Y-74753187D01*
X86646400Y-74847994D01*
X86646415Y-74847998D01*
X86935675Y-74905535D01*
X86935687Y-74905537D01*
X87230000Y-74924827D01*
X87524312Y-74905537D01*
X87524324Y-74905535D01*
X87813584Y-74847998D01*
X87813599Y-74847994D01*
X88092888Y-74753187D01*
X88357406Y-74622741D01*
X88357419Y-74622734D01*
X88602648Y-74458877D01*
X88636039Y-74429593D01*
X87859272Y-73652825D01*
X87988946Y-73558612D01*
X88118612Y-73428946D01*
X88212825Y-73299272D01*
X88989593Y-74076039D01*
X89018877Y-74042648D01*
X89182734Y-73797419D01*
X89182741Y-73797406D01*
X89313187Y-73532888D01*
X89407994Y-73253599D01*
X89407998Y-73253584D01*
X89465535Y-72964324D01*
X89465537Y-72964312D01*
X89484827Y-72670000D01*
X97015172Y-72670000D01*
X97034462Y-72964312D01*
X97034464Y-72964324D01*
X97092001Y-73253584D01*
X97092005Y-73253599D01*
X97186812Y-73532888D01*
X97317258Y-73797406D01*
X97317265Y-73797419D01*
X97481123Y-74042649D01*
X97510405Y-74076040D01*
X98287173Y-73299271D01*
X98381388Y-73428946D01*
X98511054Y-73558612D01*
X98640726Y-73652825D01*
X97863958Y-74429593D01*
X97897350Y-74458876D01*
X98142580Y-74622734D01*
X98142593Y-74622741D01*
X98407111Y-74753187D01*
X98686400Y-74847994D01*
X98686415Y-74847998D01*
X98975675Y-74905535D01*
X98975687Y-74905537D01*
X99270000Y-74924827D01*
X99564312Y-74905537D01*
X99564324Y-74905535D01*
X99853584Y-74847998D01*
X99853599Y-74847994D01*
X100132888Y-74753187D01*
X100397406Y-74622741D01*
X100397419Y-74622734D01*
X100642648Y-74458877D01*
X100676039Y-74429593D01*
X99899272Y-73652825D01*
X100028946Y-73558612D01*
X100158612Y-73428946D01*
X100252825Y-73299271D01*
X101029593Y-74076039D01*
X101058877Y-74042648D01*
X101222734Y-73797419D01*
X101222741Y-73797406D01*
X101353187Y-73532888D01*
X101447994Y-73253599D01*
X101447998Y-73253584D01*
X101505535Y-72964324D01*
X101505537Y-72964312D01*
X101524827Y-72670000D01*
X101505537Y-72375687D01*
X101505535Y-72375675D01*
X101447998Y-72086415D01*
X101447994Y-72086400D01*
X101353187Y-71807111D01*
X101222741Y-71542593D01*
X101222734Y-71542580D01*
X101058876Y-71297350D01*
X101029593Y-71263958D01*
X100252824Y-72040726D01*
X100158612Y-71911054D01*
X100028946Y-71781388D01*
X99899271Y-71687174D01*
X100676040Y-70910405D01*
X100642649Y-70881123D01*
X100397419Y-70717265D01*
X100397406Y-70717258D01*
X100132888Y-70586812D01*
X99853599Y-70492005D01*
X99853584Y-70492001D01*
X99564324Y-70434464D01*
X99564312Y-70434462D01*
X99270000Y-70415172D01*
X98975687Y-70434462D01*
X98975675Y-70434464D01*
X98686415Y-70492001D01*
X98686400Y-70492005D01*
X98407111Y-70586812D01*
X98142593Y-70717258D01*
X98142580Y-70717265D01*
X97897346Y-70881126D01*
X97897339Y-70881131D01*
X97863959Y-70910403D01*
X97863959Y-70910405D01*
X98640728Y-71687174D01*
X98511054Y-71781388D01*
X98381388Y-71911054D01*
X98287174Y-72040728D01*
X97510405Y-71263959D01*
X97510403Y-71263959D01*
X97481131Y-71297339D01*
X97481126Y-71297346D01*
X97317265Y-71542580D01*
X97317258Y-71542593D01*
X97186812Y-71807111D01*
X97092005Y-72086400D01*
X97092001Y-72086415D01*
X97034464Y-72375675D01*
X97034462Y-72375687D01*
X97015172Y-72670000D01*
X89484827Y-72670000D01*
X89465537Y-72375687D01*
X89465535Y-72375675D01*
X89407998Y-72086415D01*
X89407994Y-72086400D01*
X89313187Y-71807111D01*
X89182741Y-71542593D01*
X89182734Y-71542580D01*
X89018876Y-71297350D01*
X88989593Y-71263958D01*
X88212824Y-72040726D01*
X88118612Y-71911054D01*
X87988946Y-71781388D01*
X87859271Y-71687174D01*
X88636040Y-70910405D01*
X88602649Y-70881123D01*
X88357419Y-70717265D01*
X88357406Y-70717258D01*
X88092888Y-70586812D01*
X87813599Y-70492005D01*
X87813584Y-70492001D01*
X87524324Y-70434464D01*
X87524312Y-70434462D01*
X87230000Y-70415172D01*
X86935687Y-70434462D01*
X86935675Y-70434464D01*
X86646415Y-70492001D01*
X86646400Y-70492005D01*
X86367111Y-70586812D01*
X86102593Y-70717258D01*
X86102580Y-70717265D01*
X85857346Y-70881126D01*
X85857339Y-70881131D01*
X85823959Y-70910403D01*
X85823959Y-70910405D01*
X86600728Y-71687174D01*
X86471054Y-71781388D01*
X86341388Y-71911054D01*
X86247174Y-72040727D01*
X85470405Y-71263959D01*
X85470403Y-71263959D01*
X85441131Y-71297339D01*
X85441126Y-71297346D01*
X85277265Y-71542580D01*
X85277258Y-71542593D01*
X85146812Y-71807111D01*
X85052005Y-72086400D01*
X85052001Y-72086415D01*
X84994464Y-72375675D01*
X84994462Y-72375687D01*
X84975172Y-72670000D01*
X80844124Y-72670000D01*
X80843983Y-72667586D01*
X80786162Y-72339667D01*
X80690663Y-72020679D01*
X80558778Y-71714934D01*
X80392289Y-71426567D01*
X80296083Y-71297339D01*
X80193452Y-71159481D01*
X80193447Y-71159475D01*
X80082959Y-71042365D01*
X79964946Y-70917279D01*
X79964939Y-70917273D01*
X79964937Y-70917271D01*
X79709872Y-70703246D01*
X79709864Y-70703240D01*
X79431675Y-70520272D01*
X79134120Y-70370834D01*
X79134114Y-70370831D01*
X78821217Y-70256946D01*
X78821215Y-70256945D01*
X78497214Y-70180157D01*
X78166489Y-70141500D01*
X77833511Y-70141500D01*
X77539533Y-70175861D01*
X77502785Y-70180157D01*
X77178784Y-70256945D01*
X77178782Y-70256946D01*
X76865885Y-70370831D01*
X76865879Y-70370834D01*
X76568324Y-70520272D01*
X76290135Y-70703240D01*
X76290127Y-70703246D01*
X76035062Y-70917271D01*
X76035052Y-70917281D01*
X75806552Y-71159475D01*
X75806547Y-71159481D01*
X75607711Y-71426565D01*
X75441224Y-71714929D01*
X75441218Y-71714942D01*
X75309336Y-72020679D01*
X75213837Y-72339670D01*
X75213834Y-72339684D01*
X75156018Y-72667574D01*
X75156017Y-72667585D01*
X75136656Y-72999996D01*
X70025500Y-72999996D01*
X70025500Y-69387629D01*
X107613346Y-69387629D01*
X107613346Y-72218553D01*
X132014660Y-72218553D01*
X132014660Y-69387629D01*
X124698213Y-69387629D01*
X124631174Y-69367944D01*
X124585419Y-69315140D01*
X124574213Y-69263629D01*
X124574213Y-66465556D01*
X112532928Y-66465556D01*
X112532928Y-69263629D01*
X112513243Y-69330668D01*
X112460439Y-69376423D01*
X112408928Y-69387629D01*
X107613346Y-69387629D01*
X70025500Y-69387629D01*
X70025500Y-65149500D01*
X70045185Y-65082461D01*
X70097989Y-65036706D01*
X70149500Y-65025500D01*
X169850500Y-65025500D01*
X169917539Y-65045185D01*
G37*
G04 #@! TD.AperFunction*
M02*
