%TF.GenerationSoftware,KiCad,Pcbnew,8.0.6*%
%TF.CreationDate,2025-01-18T11:31:30-05:00*%
%TF.ProjectId,RL78_F14_48p_Rev2,524c3738-5f46-4313-945f-3438705f5265,rev?*%
%TF.SameCoordinates,Original*%
%TF.FileFunction,Drillmap*%
%TF.FilePolarity,Positive*%
%FSLAX45Y45*%
G04 Gerber Fmt 4.5, Leading zero omitted, Abs format (unit mm)*
G04 Created by KiCad (PCBNEW 8.0.6) date 2025-01-18 11:31:30*
%MOMM*%
%LPD*%
G01*
G04 APERTURE LIST*
%ADD10C,0.050000*%
%ADD11C,0.200000*%
%ADD12C,0.100000*%
%ADD13C,0.101600*%
%ADD14C,0.233000*%
%ADD15C,0.270000*%
%ADD16C,0.299720*%
%ADD17C,0.330200*%
G04 APERTURE END LIST*
D10*
X7000000Y-6500000D02*
X7000000Y-16500000D01*
X17000000Y-6500000D02*
X17000000Y-16500000D01*
X7000000Y-6500000D02*
X17000000Y-6500000D01*
X17000000Y-16500000D02*
X7000000Y-16500000D01*
D11*
D12*
X8366610Y-10105010D02*
X8406610Y-10145010D01*
X8406610Y-10105010D02*
X8366610Y-10145010D01*
X9400500Y-8678910D02*
X9440500Y-8718910D01*
X9440500Y-8678910D02*
X9400500Y-8718910D01*
X9507470Y-8614490D02*
X9547470Y-8654490D01*
X9547470Y-8614490D02*
X9507470Y-8654490D01*
X9890000Y-14907500D02*
X9930000Y-14947500D01*
X9930000Y-14907500D02*
X9890000Y-14947500D01*
X10313860Y-11223860D02*
X10353860Y-11263860D01*
X10353860Y-11223860D02*
X10313860Y-11263860D01*
X10755000Y-11320000D02*
X10795000Y-11360000D01*
X10795000Y-11320000D02*
X10755000Y-11360000D01*
X11018100Y-14053830D02*
X11058100Y-14093830D01*
X11058100Y-14053830D02*
X11018100Y-14093830D01*
X11070000Y-10105000D02*
X11110000Y-10145000D01*
X11110000Y-10105000D02*
X11070000Y-10145000D01*
X11135720Y-13887270D02*
X11175720Y-13927270D01*
X11175720Y-13887270D02*
X11135720Y-13927270D01*
X11294730Y-10130960D02*
X11334730Y-10170960D01*
X11334730Y-10130960D02*
X11294730Y-10170960D01*
X11368110Y-10053430D02*
X11408110Y-10093430D01*
X11408110Y-10053430D02*
X11368110Y-10093430D01*
X11452450Y-12330470D02*
X11492450Y-12370470D01*
X11492450Y-12330470D02*
X11452450Y-12370470D01*
X11565880Y-10082330D02*
X11605880Y-10122330D01*
X11605880Y-10082330D02*
X11565880Y-10122330D01*
X11685650Y-9937260D02*
X11725650Y-9977260D01*
X11725650Y-9937260D02*
X11685650Y-9977260D01*
X11845570Y-12874430D02*
X11885570Y-12914430D01*
X11885570Y-12874430D02*
X11845570Y-12914430D01*
X11873490Y-9804490D02*
X11913490Y-9844490D01*
X11913490Y-9804490D02*
X11873490Y-9844490D01*
X11900000Y-10085000D02*
X11940000Y-10125000D01*
X11940000Y-10085000D02*
X11900000Y-10125000D01*
X11918070Y-11756460D02*
X11958070Y-11796460D01*
X11958070Y-11756460D02*
X11918070Y-11796460D01*
X12049820Y-9798050D02*
X12089820Y-9838050D01*
X12089820Y-9798050D02*
X12049820Y-9838050D01*
X12067320Y-15700000D02*
X12107320Y-15740000D01*
X12107320Y-15700000D02*
X12067320Y-15740000D01*
X12080120Y-11431490D02*
X12120120Y-11471490D01*
X12120120Y-11431490D02*
X12080120Y-11471490D01*
X12150000Y-9781060D02*
X12190000Y-9821060D01*
X12190000Y-9781060D02*
X12150000Y-9821060D01*
X12213810Y-9629860D02*
X12253810Y-9669860D01*
X12253810Y-9629860D02*
X12213810Y-9669860D01*
X12219575Y-11073294D02*
X12259575Y-11113294D01*
X12259575Y-11073294D02*
X12219575Y-11113294D01*
X12266356Y-10868825D02*
X12306356Y-10908825D01*
X12306356Y-10868825D02*
X12266356Y-10908825D01*
X12267235Y-12128175D02*
X12307235Y-12168175D01*
X12307235Y-12128175D02*
X12267235Y-12168175D01*
X12280410Y-11935280D02*
X12320410Y-11975280D01*
X12320410Y-11935280D02*
X12280410Y-11975280D01*
X12291000Y-11228750D02*
X12331000Y-11268750D01*
X12331000Y-11228750D02*
X12291000Y-11268750D01*
X12296700Y-11591130D02*
X12336700Y-11631130D01*
X12336700Y-11591130D02*
X12296700Y-11631130D01*
X12302355Y-11129397D02*
X12342355Y-11169397D01*
X12342355Y-11129397D02*
X12302355Y-11169397D01*
X12334480Y-11348120D02*
X12374480Y-11388120D01*
X12374480Y-11348120D02*
X12334480Y-11388120D01*
X12345000Y-14605000D02*
X12385000Y-14645000D01*
X12385000Y-14605000D02*
X12345000Y-14645000D01*
X12356620Y-12012500D02*
X12396620Y-12052500D01*
X12396620Y-12012500D02*
X12356620Y-12052500D01*
X12430000Y-10955000D02*
X12470000Y-10995000D01*
X12470000Y-10955000D02*
X12430000Y-10995000D01*
X12470000Y-14445000D02*
X12510000Y-14485000D01*
X12510000Y-14445000D02*
X12470000Y-14485000D01*
X12519950Y-11266310D02*
X12559950Y-11306310D01*
X12559950Y-11266310D02*
X12519950Y-11306310D01*
X12530000Y-15690000D02*
X12570000Y-15730000D01*
X12570000Y-15690000D02*
X12530000Y-15730000D01*
X12554260Y-8475090D02*
X12594260Y-8515090D01*
X12594260Y-8475090D02*
X12554260Y-8515090D01*
X12568799Y-11027500D02*
X12608799Y-11067500D01*
X12608799Y-11027500D02*
X12568799Y-11067500D01*
X12590820Y-8614180D02*
X12630820Y-8654180D01*
X12630820Y-8614180D02*
X12590820Y-8654180D01*
X12640000Y-14850000D02*
X12680000Y-14890000D01*
X12680000Y-14850000D02*
X12640000Y-14890000D01*
X12659250Y-11335670D02*
X12699250Y-11375670D01*
X12699250Y-11335670D02*
X12659250Y-11375670D01*
X12681308Y-9761105D02*
X12721308Y-9801105D01*
X12721308Y-9761105D02*
X12681308Y-9801105D01*
X12687500Y-9661297D02*
X12727500Y-9701297D01*
X12727500Y-9661297D02*
X12687500Y-9701297D01*
X12705000Y-11090000D02*
X12745000Y-11130000D01*
X12745000Y-11090000D02*
X12705000Y-11130000D01*
X12732500Y-9435000D02*
X12772500Y-9475000D01*
X12772500Y-9435000D02*
X12732500Y-9475000D01*
X12770130Y-12005000D02*
X12810130Y-12045000D01*
X12810130Y-12005000D02*
X12770130Y-12045000D01*
X12770277Y-10882500D02*
X12810277Y-10922500D01*
X12810277Y-10882500D02*
X12770277Y-10922500D01*
X12780000Y-11215000D02*
X12820000Y-11255000D01*
X12820000Y-11215000D02*
X12780000Y-11255000D01*
X12780000Y-12874430D02*
X12820000Y-12914430D01*
X12820000Y-12874430D02*
X12780000Y-12914430D01*
X12830000Y-14450000D02*
X12870000Y-14490000D01*
X12870000Y-14450000D02*
X12830000Y-14490000D01*
X12942500Y-11472500D02*
X12982500Y-11512500D01*
X12982500Y-11472500D02*
X12942500Y-11512500D01*
X12966265Y-11023735D02*
X13006265Y-11063735D01*
X13006265Y-11023735D02*
X12966265Y-11063735D01*
X12985000Y-11145000D02*
X13025000Y-11185000D01*
X13025000Y-11145000D02*
X12985000Y-11185000D01*
X13000000Y-11380000D02*
X13040000Y-11420000D01*
X13040000Y-11380000D02*
X13000000Y-11420000D01*
X13120000Y-14350000D02*
X13160000Y-14390000D01*
X13160000Y-14350000D02*
X13120000Y-14390000D01*
X13140000Y-15490000D02*
X13180000Y-15530000D01*
X13180000Y-15490000D02*
X13140000Y-15530000D01*
X13305000Y-9835000D02*
X13345000Y-9875000D01*
X13345000Y-9835000D02*
X13305000Y-9875000D01*
X13307640Y-10252640D02*
X13347640Y-10292640D01*
X13347640Y-10252640D02*
X13307640Y-10292640D01*
X13330000Y-10480870D02*
X13370000Y-10520870D01*
X13370000Y-10480870D02*
X13330000Y-10520870D01*
X13335000Y-10110000D02*
X13375000Y-10150000D01*
X13375000Y-10110000D02*
X13335000Y-10150000D01*
X13350000Y-14600000D02*
X13390000Y-14640000D01*
X13390000Y-14600000D02*
X13350000Y-14640000D01*
X13351789Y-9923379D02*
X13391789Y-9963379D01*
X13391789Y-9923379D02*
X13351789Y-9963379D01*
X13454415Y-10190585D02*
X13494415Y-10230585D01*
X13494415Y-10190585D02*
X13454415Y-10230585D01*
X13505000Y-14350000D02*
X13545000Y-14390000D01*
X13545000Y-14350000D02*
X13505000Y-14390000D01*
X13555000Y-10405000D02*
X13595000Y-10445000D01*
X13595000Y-10405000D02*
X13555000Y-10445000D01*
X13640000Y-15305000D02*
X13680000Y-15345000D01*
X13680000Y-15305000D02*
X13640000Y-15345000D01*
X13670000Y-10825000D02*
X13710000Y-10865000D01*
X13710000Y-10825000D02*
X13670000Y-10865000D01*
X13772500Y-15522500D02*
X13812500Y-15562500D01*
X13812500Y-15522500D02*
X13772500Y-15562500D01*
X14015000Y-15765000D02*
X14055000Y-15805000D01*
X14055000Y-15765000D02*
X14015000Y-15805000D01*
X16365740Y-8930380D02*
X16405740Y-8970380D01*
X16405740Y-8930380D02*
X16365740Y-8970380D01*
X8029500Y-9090000D02*
G75*
G02*
X7949500Y-9090000I-40000J0D01*
G01*
X7949500Y-9090000D02*
G75*
G02*
X8029500Y-9090000I40000J0D01*
G01*
X8517500Y-9090000D02*
G75*
G02*
X8437500Y-9090000I-40000J0D01*
G01*
X8437500Y-9090000D02*
G75*
G02*
X8517500Y-9090000I40000J0D01*
G01*
X8855000Y-14957500D02*
G75*
G02*
X8775000Y-14957500I-40000J0D01*
G01*
X8775000Y-14957500D02*
G75*
G02*
X8855000Y-14957500I40000J0D01*
G01*
X9105000Y-14957500D02*
G75*
G02*
X9025000Y-14957500I-40000J0D01*
G01*
X9025000Y-14957500D02*
G75*
G02*
X9105000Y-14957500I40000J0D01*
G01*
X9686500Y-15705000D02*
G75*
G02*
X9606500Y-15705000I-40000J0D01*
G01*
X9606500Y-15705000D02*
G75*
G02*
X9686500Y-15705000I40000J0D01*
G01*
X9686500Y-15955000D02*
G75*
G02*
X9606500Y-15955000I-40000J0D01*
G01*
X9606500Y-15955000D02*
G75*
G02*
X9686500Y-15955000I40000J0D01*
G01*
X10578000Y-11600000D02*
G75*
G02*
X10498000Y-11600000I-40000J0D01*
G01*
X10498000Y-11600000D02*
G75*
G02*
X10578000Y-11600000I40000J0D01*
G01*
X10578000Y-12000000D02*
G75*
G02*
X10498000Y-12000000I-40000J0D01*
G01*
X10498000Y-12000000D02*
G75*
G02*
X10578000Y-12000000I40000J0D01*
G01*
X10578000Y-12400000D02*
G75*
G02*
X10498000Y-12400000I-40000J0D01*
G01*
X10498000Y-12400000D02*
G75*
G02*
X10578000Y-12400000I40000J0D01*
G01*
X10578000Y-12800000D02*
G75*
G02*
X10498000Y-12800000I-40000J0D01*
G01*
X10498000Y-12800000D02*
G75*
G02*
X10578000Y-12800000I40000J0D01*
G01*
X10578000Y-13200000D02*
G75*
G02*
X10498000Y-13200000I-40000J0D01*
G01*
X10498000Y-13200000D02*
G75*
G02*
X10578000Y-13200000I40000J0D01*
G01*
X11340000Y-11600000D02*
G75*
G02*
X11260000Y-11600000I-40000J0D01*
G01*
X11260000Y-11600000D02*
G75*
G02*
X11340000Y-11600000I40000J0D01*
G01*
X11340000Y-12000000D02*
G75*
G02*
X11260000Y-12000000I-40000J0D01*
G01*
X11260000Y-12000000D02*
G75*
G02*
X11340000Y-12000000I40000J0D01*
G01*
X11340000Y-12400000D02*
G75*
G02*
X11260000Y-12400000I-40000J0D01*
G01*
X11260000Y-12400000D02*
G75*
G02*
X11340000Y-12400000I40000J0D01*
G01*
X11340000Y-12800000D02*
G75*
G02*
X11260000Y-12800000I-40000J0D01*
G01*
X11260000Y-12800000D02*
G75*
G02*
X11340000Y-12800000I40000J0D01*
G01*
X11340000Y-13200000D02*
G75*
G02*
X11260000Y-13200000I-40000J0D01*
G01*
X11260000Y-13200000D02*
G75*
G02*
X11340000Y-13200000I40000J0D01*
G01*
X12305000Y-7450000D02*
G75*
G02*
X12225000Y-7450000I-40000J0D01*
G01*
X12225000Y-7450000D02*
G75*
G02*
X12305000Y-7450000I40000J0D01*
G01*
X12505000Y-7450000D02*
G75*
G02*
X12425000Y-7450000I-40000J0D01*
G01*
X12425000Y-7450000D02*
G75*
G02*
X12505000Y-7450000I40000J0D01*
G01*
X12705000Y-7450000D02*
G75*
G02*
X12625000Y-7450000I-40000J0D01*
G01*
X12625000Y-7450000D02*
G75*
G02*
X12705000Y-7450000I40000J0D01*
G01*
X12905000Y-7450000D02*
G75*
G02*
X12825000Y-7450000I-40000J0D01*
G01*
X12825000Y-7450000D02*
G75*
G02*
X12905000Y-7450000I40000J0D01*
G01*
X13105000Y-7450000D02*
G75*
G02*
X13025000Y-7450000I-40000J0D01*
G01*
X13025000Y-7450000D02*
G75*
G02*
X13105000Y-7450000I40000J0D01*
G01*
X14550000Y-11895000D02*
G75*
G02*
X14470000Y-11895000I-40000J0D01*
G01*
X14470000Y-11895000D02*
G75*
G02*
X14550000Y-11895000I40000J0D01*
G01*
X14550000Y-12149000D02*
G75*
G02*
X14470000Y-12149000I-40000J0D01*
G01*
X14470000Y-12149000D02*
G75*
G02*
X14550000Y-12149000I40000J0D01*
G01*
X14550000Y-12403000D02*
G75*
G02*
X14470000Y-12403000I-40000J0D01*
G01*
X14470000Y-12403000D02*
G75*
G02*
X14550000Y-12403000I40000J0D01*
G01*
X14550000Y-12657000D02*
G75*
G02*
X14470000Y-12657000I-40000J0D01*
G01*
X14470000Y-12657000D02*
G75*
G02*
X14550000Y-12657000I40000J0D01*
G01*
X14787000Y-8590000D02*
G75*
G02*
X14707000Y-8590000I-40000J0D01*
G01*
X14707000Y-8590000D02*
G75*
G02*
X14787000Y-8590000I40000J0D01*
G01*
X14787000Y-8844000D02*
G75*
G02*
X14707000Y-8844000I-40000J0D01*
G01*
X14707000Y-8844000D02*
G75*
G02*
X14787000Y-8844000I40000J0D01*
G01*
X14787000Y-9098000D02*
G75*
G02*
X14707000Y-9098000I-40000J0D01*
G01*
X14707000Y-9098000D02*
G75*
G02*
X14787000Y-9098000I40000J0D01*
G01*
X14787000Y-9352000D02*
G75*
G02*
X14707000Y-9352000I-40000J0D01*
G01*
X14707000Y-9352000D02*
G75*
G02*
X14787000Y-9352000I40000J0D01*
G01*
X14787000Y-9606000D02*
G75*
G02*
X14707000Y-9606000I-40000J0D01*
G01*
X14707000Y-9606000D02*
G75*
G02*
X14787000Y-9606000I40000J0D01*
G01*
X14787000Y-9860000D02*
G75*
G02*
X14707000Y-9860000I-40000J0D01*
G01*
X14707000Y-9860000D02*
G75*
G02*
X14787000Y-9860000I40000J0D01*
G01*
X15312000Y-11895000D02*
G75*
G02*
X15232000Y-11895000I-40000J0D01*
G01*
X15232000Y-11895000D02*
G75*
G02*
X15312000Y-11895000I40000J0D01*
G01*
X15312000Y-12149000D02*
G75*
G02*
X15232000Y-12149000I-40000J0D01*
G01*
X15232000Y-12149000D02*
G75*
G02*
X15312000Y-12149000I40000J0D01*
G01*
X15312000Y-12403000D02*
G75*
G02*
X15232000Y-12403000I-40000J0D01*
G01*
X15232000Y-12403000D02*
G75*
G02*
X15312000Y-12403000I40000J0D01*
G01*
X15312000Y-12657000D02*
G75*
G02*
X15232000Y-12657000I-40000J0D01*
G01*
X15232000Y-12657000D02*
G75*
G02*
X15312000Y-12657000I40000J0D01*
G01*
X16819000Y-8590000D02*
G75*
G02*
X16739000Y-8590000I-40000J0D01*
G01*
X16739000Y-8590000D02*
G75*
G02*
X16819000Y-8590000I40000J0D01*
G01*
X16819000Y-8844000D02*
G75*
G02*
X16739000Y-8844000I-40000J0D01*
G01*
X16739000Y-8844000D02*
G75*
G02*
X16819000Y-8844000I40000J0D01*
G01*
X16819000Y-9098000D02*
G75*
G02*
X16739000Y-9098000I-40000J0D01*
G01*
X16739000Y-9098000D02*
G75*
G02*
X16819000Y-9098000I40000J0D01*
G01*
X16819000Y-9352000D02*
G75*
G02*
X16739000Y-9352000I-40000J0D01*
G01*
X16739000Y-9352000D02*
G75*
G02*
X16819000Y-9352000I40000J0D01*
G01*
X16819000Y-9606000D02*
G75*
G02*
X16739000Y-9606000I-40000J0D01*
G01*
X16739000Y-9606000D02*
G75*
G02*
X16819000Y-9606000I40000J0D01*
G01*
X16819000Y-9860000D02*
G75*
G02*
X16739000Y-9860000I-40000J0D01*
G01*
X16739000Y-9860000D02*
G75*
G02*
X16819000Y-9860000I40000J0D01*
G01*
X9200000Y-7492000D02*
X9200000Y-7584000D01*
X9154000Y-7538000D02*
X9246000Y-7538000D01*
X9200000Y-7692000D02*
X9200000Y-7784000D01*
X9154000Y-7738000D02*
X9246000Y-7738000D01*
X9450000Y-7492000D02*
X9450000Y-7584000D01*
X9404000Y-7538000D02*
X9496000Y-7538000D01*
X9450000Y-7692000D02*
X9450000Y-7784000D01*
X9404000Y-7738000D02*
X9496000Y-7738000D01*
X7835356Y-10735356D02*
X7835356Y-10664644D01*
X7764644Y-10664644D01*
X7764644Y-10735356D01*
X7835356Y-10735356D01*
X7835356Y-10989356D02*
X7835356Y-10918644D01*
X7764644Y-10918644D01*
X7764644Y-10989356D01*
X7835356Y-10989356D01*
X7835356Y-11243356D02*
X7835356Y-11172644D01*
X7764644Y-11172644D01*
X7764644Y-11243356D01*
X7835356Y-11243356D01*
X7835356Y-11497356D02*
X7835356Y-11426644D01*
X7764644Y-11426644D01*
X7764644Y-11497356D01*
X7835356Y-11497356D01*
X7835356Y-11751356D02*
X7835356Y-11680644D01*
X7764644Y-11680644D01*
X7764644Y-11751356D01*
X7835356Y-11751356D01*
X9210356Y-13280356D02*
X9210356Y-13209644D01*
X9139644Y-13209644D01*
X9139644Y-13280356D01*
X9210356Y-13280356D01*
X9210356Y-13534356D02*
X9210356Y-13463644D01*
X9139644Y-13463644D01*
X9139644Y-13534356D01*
X9210356Y-13534356D01*
X10035356Y-11135356D02*
X10035356Y-11064644D01*
X9964644Y-11064644D01*
X9964644Y-11135356D01*
X10035356Y-11135356D01*
X10035356Y-11389356D02*
X10035356Y-11318644D01*
X9964644Y-11318644D01*
X9964644Y-11389356D01*
X10035356Y-11389356D01*
X10035356Y-11643356D02*
X10035356Y-11572644D01*
X9964644Y-11572644D01*
X9964644Y-11643356D01*
X10035356Y-11643356D01*
X10035356Y-11897356D02*
X10035356Y-11826644D01*
X9964644Y-11826644D01*
X9964644Y-11897356D01*
X10035356Y-11897356D01*
X10035356Y-12151356D02*
X10035356Y-12080644D01*
X9964644Y-12080644D01*
X9964644Y-12151356D01*
X10035356Y-12151356D01*
X10035356Y-12405356D02*
X10035356Y-12334644D01*
X9964644Y-12334644D01*
X9964644Y-12405356D01*
X10035356Y-12405356D01*
X10035356Y-12659356D02*
X10035356Y-12588644D01*
X9964644Y-12588644D01*
X9964644Y-12659356D01*
X10035356Y-12659356D01*
X10035356Y-12913356D02*
X10035356Y-12842644D01*
X9964644Y-12842644D01*
X9964644Y-12913356D01*
X10035356Y-12913356D01*
X10035356Y-13167356D02*
X10035356Y-13096644D01*
X9964644Y-13096644D01*
X9964644Y-13167356D01*
X10035356Y-13167356D01*
X11678356Y-16035356D02*
X11678356Y-15964644D01*
X11607644Y-15964644D01*
X11607644Y-16035356D01*
X11678356Y-16035356D01*
X11678356Y-16289356D02*
X11678356Y-16218644D01*
X11607644Y-16218644D01*
X11607644Y-16289356D01*
X11678356Y-16289356D01*
X11932356Y-16035356D02*
X11932356Y-15964644D01*
X11861644Y-15964644D01*
X11861644Y-16035356D01*
X11932356Y-16035356D01*
X11932356Y-16289356D02*
X11932356Y-16218644D01*
X11861644Y-16218644D01*
X11861644Y-16289356D01*
X11932356Y-16289356D01*
X12186356Y-16035356D02*
X12186356Y-15964644D01*
X12115644Y-15964644D01*
X12115644Y-16035356D01*
X12186356Y-16035356D01*
X12186356Y-16289356D02*
X12186356Y-16218644D01*
X12115644Y-16218644D01*
X12115644Y-16289356D01*
X12186356Y-16289356D01*
X12440356Y-16035356D02*
X12440356Y-15964644D01*
X12369644Y-15964644D01*
X12369644Y-16035356D01*
X12440356Y-16035356D01*
X12440356Y-16289356D02*
X12440356Y-16218644D01*
X12369644Y-16218644D01*
X12369644Y-16289356D01*
X12440356Y-16289356D01*
X12694356Y-16035356D02*
X12694356Y-15964644D01*
X12623644Y-15964644D01*
X12623644Y-16035356D01*
X12694356Y-16035356D01*
X12694356Y-16289356D02*
X12694356Y-16218644D01*
X12623644Y-16218644D01*
X12623644Y-16289356D01*
X12694356Y-16289356D01*
X12948356Y-16035356D02*
X12948356Y-15964644D01*
X12877644Y-15964644D01*
X12877644Y-16035356D01*
X12948356Y-16035356D01*
X12948356Y-16289356D02*
X12948356Y-16218644D01*
X12877644Y-16218644D01*
X12877644Y-16289356D01*
X12948356Y-16289356D01*
X13202356Y-16035356D02*
X13202356Y-15964644D01*
X13131644Y-15964644D01*
X13131644Y-16035356D01*
X13202356Y-16035356D01*
X13202356Y-16289356D02*
X13202356Y-16218644D01*
X13131644Y-16218644D01*
X13131644Y-16289356D01*
X13202356Y-16289356D01*
X13456356Y-16035356D02*
X13456356Y-15964644D01*
X13385644Y-15964644D01*
X13385644Y-16035356D01*
X13456356Y-16035356D01*
X13456356Y-16289356D02*
X13456356Y-16218644D01*
X13385644Y-16218644D01*
X13385644Y-16289356D01*
X13456356Y-16289356D01*
X13710356Y-16035356D02*
X13710356Y-15964644D01*
X13639644Y-15964644D01*
X13639644Y-16035356D01*
X13710356Y-16035356D01*
X13710356Y-16289356D02*
X13710356Y-16218644D01*
X13639644Y-16218644D01*
X13639644Y-16289356D01*
X13710356Y-16289356D01*
X13964356Y-16035356D02*
X13964356Y-15964644D01*
X13893644Y-15964644D01*
X13893644Y-16035356D01*
X13964356Y-16035356D01*
X13964356Y-16289356D02*
X13964356Y-16218644D01*
X13893644Y-16218644D01*
X13893644Y-16289356D01*
X13964356Y-16289356D01*
X14218356Y-16035356D02*
X14218356Y-15964644D01*
X14147644Y-15964644D01*
X14147644Y-16035356D01*
X14218356Y-16035356D01*
X14218356Y-16289356D02*
X14218356Y-16218644D01*
X14147644Y-16218644D01*
X14147644Y-16289356D01*
X14218356Y-16289356D01*
X14472356Y-16035356D02*
X14472356Y-15964644D01*
X14401644Y-15964644D01*
X14401644Y-16035356D01*
X14472356Y-16035356D01*
X14472356Y-16289356D02*
X14472356Y-16218644D01*
X14401644Y-16218644D01*
X14401644Y-16289356D01*
X14472356Y-16289356D01*
X14726356Y-16035356D02*
X14726356Y-15964644D01*
X14655644Y-15964644D01*
X14655644Y-16035356D01*
X14726356Y-16035356D01*
X14726356Y-16289356D02*
X14726356Y-16218644D01*
X14655644Y-16218644D01*
X14655644Y-16289356D01*
X14726356Y-16289356D01*
X15042856Y-14165356D02*
X15042856Y-14094644D01*
X14972144Y-14094644D01*
X14972144Y-14165356D01*
X15042856Y-14165356D01*
X15296856Y-14165356D02*
X15296856Y-14094644D01*
X15226144Y-14094644D01*
X15226144Y-14165356D01*
X15296856Y-14165356D01*
D13*
X7789880Y-12989740D02*
X7840680Y-12938940D01*
X7789880Y-12888140D01*
X7739080Y-12938940D01*
X7789880Y-12989740D01*
X7789880Y-13441860D02*
X7840680Y-13391060D01*
X7789880Y-13340260D01*
X7739080Y-13391060D01*
X7789880Y-13441860D01*
X8440120Y-12989740D02*
X8490920Y-12938940D01*
X8440120Y-12888140D01*
X8389320Y-12938940D01*
X8440120Y-12989740D01*
X8440120Y-13441860D02*
X8490920Y-13391060D01*
X8440120Y-13340260D01*
X8389320Y-13391060D01*
X8440120Y-13441860D01*
X15943000Y-12102160D02*
X15993800Y-12051360D01*
X15943000Y-12000560D01*
X15892200Y-12051360D01*
X15943000Y-12102160D01*
X15943000Y-12376480D02*
X15993800Y-12325680D01*
X15943000Y-12274880D01*
X15892200Y-12325680D01*
X15943000Y-12376480D01*
X15943000Y-12650800D02*
X15993800Y-12600000D01*
X15943000Y-12549200D01*
X15892200Y-12600000D01*
X15943000Y-12650800D01*
X15943000Y-12925120D02*
X15993800Y-12874320D01*
X15943000Y-12823520D01*
X15892200Y-12874320D01*
X15943000Y-12925120D01*
X15943000Y-13199440D02*
X15993800Y-13148640D01*
X15943000Y-13097840D01*
X15892200Y-13148640D01*
X15943000Y-13199440D01*
X16197000Y-12239320D02*
X16247800Y-12188520D01*
X16197000Y-12137720D01*
X16146200Y-12188520D01*
X16197000Y-12239320D01*
X16197000Y-12513640D02*
X16247800Y-12462840D01*
X16197000Y-12412040D01*
X16146200Y-12462840D01*
X16197000Y-12513640D01*
X16197000Y-12787960D02*
X16247800Y-12737160D01*
X16197000Y-12686360D01*
X16146200Y-12737160D01*
X16197000Y-12787960D01*
X16197000Y-13062280D02*
X16247800Y-13011480D01*
X16197000Y-12960680D01*
X16146200Y-13011480D01*
X16197000Y-13062280D01*
D14*
X8606500Y-7150500D02*
X8839500Y-7383500D01*
X8839500Y-7150500D02*
X8606500Y-7383500D01*
X8839500Y-7267000D02*
G75*
G02*
X8606500Y-7267000I-116500J0D01*
G01*
X8606500Y-7267000D02*
G75*
G02*
X8839500Y-7267000I116500J0D01*
G01*
X9810500Y-7150500D02*
X10043500Y-7383500D01*
X10043500Y-7150500D02*
X9810500Y-7383500D01*
X10043500Y-7267000D02*
G75*
G02*
X9810500Y-7267000I-116500J0D01*
G01*
X9810500Y-7267000D02*
G75*
G02*
X10043500Y-7267000I116500J0D01*
G01*
D15*
X7665000Y-7165000D02*
X7935000Y-7435000D01*
X7935000Y-7165000D02*
X7665000Y-7435000D01*
X7800000Y-7165000D02*
X7800000Y-7435000D01*
X7665000Y-7300000D02*
X7935000Y-7300000D01*
X7665000Y-15565000D02*
X7935000Y-15835000D01*
X7935000Y-15565000D02*
X7665000Y-15835000D01*
X7800000Y-15565000D02*
X7800000Y-15835000D01*
X7665000Y-15700000D02*
X7935000Y-15700000D01*
X15864700Y-15529300D02*
X16134700Y-15799300D01*
X16134700Y-15529300D02*
X15864700Y-15799300D01*
X15999700Y-15529300D02*
X15999700Y-15799300D01*
X15864700Y-15664300D02*
X16134700Y-15664300D01*
X16065000Y-7165000D02*
X16335000Y-7435000D01*
X16335000Y-7165000D02*
X16065000Y-7435000D01*
X16200000Y-7165000D02*
X16200000Y-7435000D01*
X16065000Y-7300000D02*
X16335000Y-7300000D01*
D16*
X7635140Y-14250140D02*
X7934860Y-14549860D01*
X7934860Y-14250140D02*
X7635140Y-14549860D01*
X7890968Y-14505968D02*
X7890968Y-14294032D01*
X7679032Y-14294032D01*
X7679032Y-14505968D01*
X7890968Y-14505968D01*
X7935140Y-14720140D02*
X8234860Y-15019860D01*
X8234860Y-14720140D02*
X7935140Y-15019860D01*
X8190968Y-14975968D02*
X8190968Y-14764032D01*
X7979032Y-14764032D01*
X7979032Y-14975968D01*
X8190968Y-14975968D01*
X8235140Y-14250140D02*
X8534860Y-14549860D01*
X8534860Y-14250140D02*
X8235140Y-14549860D01*
X8490968Y-14505968D02*
X8490968Y-14294032D01*
X8279032Y-14294032D01*
X8279032Y-14505968D01*
X8490968Y-14505968D01*
D17*
X15904900Y-11182680D02*
X16235100Y-11512880D01*
X16235100Y-11182680D02*
X15904900Y-11512880D01*
X16070000Y-11512880D02*
X16235100Y-11347780D01*
X16070000Y-11182680D01*
X15904900Y-11347780D01*
X16070000Y-11512880D01*
X15904900Y-13687120D02*
X16235100Y-14017320D01*
X16235100Y-13687120D02*
X15904900Y-14017320D01*
X16070000Y-14017320D02*
X16235100Y-13852220D01*
X16070000Y-13687120D01*
X15904900Y-13852220D01*
X16070000Y-14017320D01*
D11*
X7258277Y-16813984D02*
X7258277Y-16613984D01*
X7258277Y-16613984D02*
X7305896Y-16613984D01*
X7305896Y-16613984D02*
X7334467Y-16623508D01*
X7334467Y-16623508D02*
X7353515Y-16642555D01*
X7353515Y-16642555D02*
X7363039Y-16661603D01*
X7363039Y-16661603D02*
X7372562Y-16699698D01*
X7372562Y-16699698D02*
X7372562Y-16728269D01*
X7372562Y-16728269D02*
X7363039Y-16766365D01*
X7363039Y-16766365D02*
X7353515Y-16785412D01*
X7353515Y-16785412D02*
X7334467Y-16804460D01*
X7334467Y-16804460D02*
X7305896Y-16813984D01*
X7305896Y-16813984D02*
X7258277Y-16813984D01*
X7458277Y-16813984D02*
X7458277Y-16680650D01*
X7458277Y-16718746D02*
X7467801Y-16699698D01*
X7467801Y-16699698D02*
X7477324Y-16690174D01*
X7477324Y-16690174D02*
X7496372Y-16680650D01*
X7496372Y-16680650D02*
X7515420Y-16680650D01*
X7582086Y-16813984D02*
X7582086Y-16680650D01*
X7582086Y-16613984D02*
X7572562Y-16623508D01*
X7572562Y-16623508D02*
X7582086Y-16633031D01*
X7582086Y-16633031D02*
X7591610Y-16623508D01*
X7591610Y-16623508D02*
X7582086Y-16613984D01*
X7582086Y-16613984D02*
X7582086Y-16633031D01*
X7705896Y-16813984D02*
X7686848Y-16804460D01*
X7686848Y-16804460D02*
X7677324Y-16785412D01*
X7677324Y-16785412D02*
X7677324Y-16613984D01*
X7810658Y-16813984D02*
X7791610Y-16804460D01*
X7791610Y-16804460D02*
X7782086Y-16785412D01*
X7782086Y-16785412D02*
X7782086Y-16613984D01*
X8039229Y-16813984D02*
X8039229Y-16613984D01*
X8039229Y-16613984D02*
X8105896Y-16756841D01*
X8105896Y-16756841D02*
X8172562Y-16613984D01*
X8172562Y-16613984D02*
X8172562Y-16813984D01*
X8353515Y-16813984D02*
X8353515Y-16709222D01*
X8353515Y-16709222D02*
X8343991Y-16690174D01*
X8343991Y-16690174D02*
X8324943Y-16680650D01*
X8324943Y-16680650D02*
X8286848Y-16680650D01*
X8286848Y-16680650D02*
X8267801Y-16690174D01*
X8353515Y-16804460D02*
X8334467Y-16813984D01*
X8334467Y-16813984D02*
X8286848Y-16813984D01*
X8286848Y-16813984D02*
X8267801Y-16804460D01*
X8267801Y-16804460D02*
X8258277Y-16785412D01*
X8258277Y-16785412D02*
X8258277Y-16766365D01*
X8258277Y-16766365D02*
X8267801Y-16747317D01*
X8267801Y-16747317D02*
X8286848Y-16737793D01*
X8286848Y-16737793D02*
X8334467Y-16737793D01*
X8334467Y-16737793D02*
X8353515Y-16728269D01*
X8448753Y-16680650D02*
X8448753Y-16880650D01*
X8448753Y-16690174D02*
X8467801Y-16680650D01*
X8467801Y-16680650D02*
X8505896Y-16680650D01*
X8505896Y-16680650D02*
X8524944Y-16690174D01*
X8524944Y-16690174D02*
X8534467Y-16699698D01*
X8534467Y-16699698D02*
X8543991Y-16718746D01*
X8543991Y-16718746D02*
X8543991Y-16775888D01*
X8543991Y-16775888D02*
X8534467Y-16794936D01*
X8534467Y-16794936D02*
X8524944Y-16804460D01*
X8524944Y-16804460D02*
X8505896Y-16813984D01*
X8505896Y-16813984D02*
X8467801Y-16813984D01*
X8467801Y-16813984D02*
X8448753Y-16804460D01*
X8629705Y-16794936D02*
X8639229Y-16804460D01*
X8639229Y-16804460D02*
X8629705Y-16813984D01*
X8629705Y-16813984D02*
X8620182Y-16804460D01*
X8620182Y-16804460D02*
X8629705Y-16794936D01*
X8629705Y-16794936D02*
X8629705Y-16813984D01*
X8629705Y-16690174D02*
X8639229Y-16699698D01*
X8639229Y-16699698D02*
X8629705Y-16709222D01*
X8629705Y-16709222D02*
X8620182Y-16699698D01*
X8620182Y-16699698D02*
X8629705Y-16690174D01*
X8629705Y-16690174D02*
X8629705Y-16709222D01*
D12*
X6957500Y-17122500D02*
X6997500Y-17162500D01*
X6997500Y-17122500D02*
X6957500Y-17162500D01*
D11*
X7296372Y-17033984D02*
X7315420Y-17033984D01*
X7315420Y-17033984D02*
X7334467Y-17043508D01*
X7334467Y-17043508D02*
X7343991Y-17053031D01*
X7343991Y-17053031D02*
X7353515Y-17072079D01*
X7353515Y-17072079D02*
X7363039Y-17110174D01*
X7363039Y-17110174D02*
X7363039Y-17157793D01*
X7363039Y-17157793D02*
X7353515Y-17195889D01*
X7353515Y-17195889D02*
X7343991Y-17214936D01*
X7343991Y-17214936D02*
X7334467Y-17224460D01*
X7334467Y-17224460D02*
X7315420Y-17233984D01*
X7315420Y-17233984D02*
X7296372Y-17233984D01*
X7296372Y-17233984D02*
X7277324Y-17224460D01*
X7277324Y-17224460D02*
X7267801Y-17214936D01*
X7267801Y-17214936D02*
X7258277Y-17195889D01*
X7258277Y-17195889D02*
X7248753Y-17157793D01*
X7248753Y-17157793D02*
X7248753Y-17110174D01*
X7248753Y-17110174D02*
X7258277Y-17072079D01*
X7258277Y-17072079D02*
X7267801Y-17053031D01*
X7267801Y-17053031D02*
X7277324Y-17043508D01*
X7277324Y-17043508D02*
X7296372Y-17033984D01*
X7448753Y-17214936D02*
X7458277Y-17224460D01*
X7458277Y-17224460D02*
X7448753Y-17233984D01*
X7448753Y-17233984D02*
X7439229Y-17224460D01*
X7439229Y-17224460D02*
X7448753Y-17214936D01*
X7448753Y-17214936D02*
X7448753Y-17233984D01*
X7629705Y-17100650D02*
X7629705Y-17233984D01*
X7582086Y-17024460D02*
X7534467Y-17167317D01*
X7534467Y-17167317D02*
X7658277Y-17167317D01*
X7772562Y-17033984D02*
X7791610Y-17033984D01*
X7791610Y-17033984D02*
X7810658Y-17043508D01*
X7810658Y-17043508D02*
X7820182Y-17053031D01*
X7820182Y-17053031D02*
X7829705Y-17072079D01*
X7829705Y-17072079D02*
X7839229Y-17110174D01*
X7839229Y-17110174D02*
X7839229Y-17157793D01*
X7839229Y-17157793D02*
X7829705Y-17195889D01*
X7829705Y-17195889D02*
X7820182Y-17214936D01*
X7820182Y-17214936D02*
X7810658Y-17224460D01*
X7810658Y-17224460D02*
X7791610Y-17233984D01*
X7791610Y-17233984D02*
X7772562Y-17233984D01*
X7772562Y-17233984D02*
X7753515Y-17224460D01*
X7753515Y-17224460D02*
X7743991Y-17214936D01*
X7743991Y-17214936D02*
X7734467Y-17195889D01*
X7734467Y-17195889D02*
X7724943Y-17157793D01*
X7724943Y-17157793D02*
X7724943Y-17110174D01*
X7724943Y-17110174D02*
X7734467Y-17072079D01*
X7734467Y-17072079D02*
X7743991Y-17053031D01*
X7743991Y-17053031D02*
X7753515Y-17043508D01*
X7753515Y-17043508D02*
X7772562Y-17033984D01*
X7963039Y-17033984D02*
X7982086Y-17033984D01*
X7982086Y-17033984D02*
X8001134Y-17043508D01*
X8001134Y-17043508D02*
X8010658Y-17053031D01*
X8010658Y-17053031D02*
X8020182Y-17072079D01*
X8020182Y-17072079D02*
X8029705Y-17110174D01*
X8029705Y-17110174D02*
X8029705Y-17157793D01*
X8029705Y-17157793D02*
X8020182Y-17195889D01*
X8020182Y-17195889D02*
X8010658Y-17214936D01*
X8010658Y-17214936D02*
X8001134Y-17224460D01*
X8001134Y-17224460D02*
X7982086Y-17233984D01*
X7982086Y-17233984D02*
X7963039Y-17233984D01*
X7963039Y-17233984D02*
X7943991Y-17224460D01*
X7943991Y-17224460D02*
X7934467Y-17214936D01*
X7934467Y-17214936D02*
X7924943Y-17195889D01*
X7924943Y-17195889D02*
X7915420Y-17157793D01*
X7915420Y-17157793D02*
X7915420Y-17110174D01*
X7915420Y-17110174D02*
X7924943Y-17072079D01*
X7924943Y-17072079D02*
X7934467Y-17053031D01*
X7934467Y-17053031D02*
X7943991Y-17043508D01*
X7943991Y-17043508D02*
X7963039Y-17033984D01*
X8115420Y-17233984D02*
X8115420Y-17100650D01*
X8115420Y-17119698D02*
X8124943Y-17110174D01*
X8124943Y-17110174D02*
X8143991Y-17100650D01*
X8143991Y-17100650D02*
X8172563Y-17100650D01*
X8172563Y-17100650D02*
X8191610Y-17110174D01*
X8191610Y-17110174D02*
X8201134Y-17129222D01*
X8201134Y-17129222D02*
X8201134Y-17233984D01*
X8201134Y-17129222D02*
X8210658Y-17110174D01*
X8210658Y-17110174D02*
X8229705Y-17100650D01*
X8229705Y-17100650D02*
X8258277Y-17100650D01*
X8258277Y-17100650D02*
X8277324Y-17110174D01*
X8277324Y-17110174D02*
X8286848Y-17129222D01*
X8286848Y-17129222D02*
X8286848Y-17233984D01*
X8382086Y-17233984D02*
X8382086Y-17100650D01*
X8382086Y-17119698D02*
X8391610Y-17110174D01*
X8391610Y-17110174D02*
X8410658Y-17100650D01*
X8410658Y-17100650D02*
X8439229Y-17100650D01*
X8439229Y-17100650D02*
X8458277Y-17110174D01*
X8458277Y-17110174D02*
X8467801Y-17129222D01*
X8467801Y-17129222D02*
X8467801Y-17233984D01*
X8467801Y-17129222D02*
X8477325Y-17110174D01*
X8477325Y-17110174D02*
X8496372Y-17100650D01*
X8496372Y-17100650D02*
X8524944Y-17100650D01*
X8524944Y-17100650D02*
X8543991Y-17110174D01*
X8543991Y-17110174D02*
X8553515Y-17129222D01*
X8553515Y-17129222D02*
X8553515Y-17233984D01*
X8943991Y-17024460D02*
X8772563Y-17281603D01*
X9201134Y-17033984D02*
X9220182Y-17033984D01*
X9220182Y-17033984D02*
X9239229Y-17043508D01*
X9239229Y-17043508D02*
X9248753Y-17053031D01*
X9248753Y-17053031D02*
X9258277Y-17072079D01*
X9258277Y-17072079D02*
X9267801Y-17110174D01*
X9267801Y-17110174D02*
X9267801Y-17157793D01*
X9267801Y-17157793D02*
X9258277Y-17195889D01*
X9258277Y-17195889D02*
X9248753Y-17214936D01*
X9248753Y-17214936D02*
X9239229Y-17224460D01*
X9239229Y-17224460D02*
X9220182Y-17233984D01*
X9220182Y-17233984D02*
X9201134Y-17233984D01*
X9201134Y-17233984D02*
X9182087Y-17224460D01*
X9182087Y-17224460D02*
X9172563Y-17214936D01*
X9172563Y-17214936D02*
X9163039Y-17195889D01*
X9163039Y-17195889D02*
X9153515Y-17157793D01*
X9153515Y-17157793D02*
X9153515Y-17110174D01*
X9153515Y-17110174D02*
X9163039Y-17072079D01*
X9163039Y-17072079D02*
X9172563Y-17053031D01*
X9172563Y-17053031D02*
X9182087Y-17043508D01*
X9182087Y-17043508D02*
X9201134Y-17033984D01*
X9353515Y-17214936D02*
X9363039Y-17224460D01*
X9363039Y-17224460D02*
X9353515Y-17233984D01*
X9353515Y-17233984D02*
X9343991Y-17224460D01*
X9343991Y-17224460D02*
X9353515Y-17214936D01*
X9353515Y-17214936D02*
X9353515Y-17233984D01*
X9486848Y-17033984D02*
X9505896Y-17033984D01*
X9505896Y-17033984D02*
X9524944Y-17043508D01*
X9524944Y-17043508D02*
X9534468Y-17053031D01*
X9534468Y-17053031D02*
X9543991Y-17072079D01*
X9543991Y-17072079D02*
X9553515Y-17110174D01*
X9553515Y-17110174D02*
X9553515Y-17157793D01*
X9553515Y-17157793D02*
X9543991Y-17195889D01*
X9543991Y-17195889D02*
X9534468Y-17214936D01*
X9534468Y-17214936D02*
X9524944Y-17224460D01*
X9524944Y-17224460D02*
X9505896Y-17233984D01*
X9505896Y-17233984D02*
X9486848Y-17233984D01*
X9486848Y-17233984D02*
X9467801Y-17224460D01*
X9467801Y-17224460D02*
X9458277Y-17214936D01*
X9458277Y-17214936D02*
X9448753Y-17195889D01*
X9448753Y-17195889D02*
X9439229Y-17157793D01*
X9439229Y-17157793D02*
X9439229Y-17110174D01*
X9439229Y-17110174D02*
X9448753Y-17072079D01*
X9448753Y-17072079D02*
X9458277Y-17053031D01*
X9458277Y-17053031D02*
X9467801Y-17043508D01*
X9467801Y-17043508D02*
X9486848Y-17033984D01*
X9743991Y-17233984D02*
X9629706Y-17233984D01*
X9686848Y-17233984D02*
X9686848Y-17033984D01*
X9686848Y-17033984D02*
X9667801Y-17062555D01*
X9667801Y-17062555D02*
X9648753Y-17081603D01*
X9648753Y-17081603D02*
X9629706Y-17091127D01*
X9924944Y-17033984D02*
X9829706Y-17033984D01*
X9829706Y-17033984D02*
X9820182Y-17129222D01*
X9820182Y-17129222D02*
X9829706Y-17119698D01*
X9829706Y-17119698D02*
X9848753Y-17110174D01*
X9848753Y-17110174D02*
X9896372Y-17110174D01*
X9896372Y-17110174D02*
X9915420Y-17119698D01*
X9915420Y-17119698D02*
X9924944Y-17129222D01*
X9924944Y-17129222D02*
X9934468Y-17148270D01*
X9934468Y-17148270D02*
X9934468Y-17195889D01*
X9934468Y-17195889D02*
X9924944Y-17214936D01*
X9924944Y-17214936D02*
X9915420Y-17224460D01*
X9915420Y-17224460D02*
X9896372Y-17233984D01*
X9896372Y-17233984D02*
X9848753Y-17233984D01*
X9848753Y-17233984D02*
X9829706Y-17224460D01*
X9829706Y-17224460D02*
X9820182Y-17214936D01*
X10001134Y-17033984D02*
X10134468Y-17033984D01*
X10134468Y-17033984D02*
X10048753Y-17233984D01*
X10201134Y-17033984D02*
X10201134Y-17072079D01*
X10277325Y-17033984D02*
X10277325Y-17072079D01*
X10572563Y-17310174D02*
X10563039Y-17300650D01*
X10563039Y-17300650D02*
X10543991Y-17272079D01*
X10543991Y-17272079D02*
X10534468Y-17253031D01*
X10534468Y-17253031D02*
X10524944Y-17224460D01*
X10524944Y-17224460D02*
X10515420Y-17176841D01*
X10515420Y-17176841D02*
X10515420Y-17138746D01*
X10515420Y-17138746D02*
X10524944Y-17091127D01*
X10524944Y-17091127D02*
X10534468Y-17062555D01*
X10534468Y-17062555D02*
X10543991Y-17043508D01*
X10543991Y-17043508D02*
X10563039Y-17014936D01*
X10563039Y-17014936D02*
X10572563Y-17005412D01*
X10629706Y-17033984D02*
X10763039Y-17033984D01*
X10763039Y-17033984D02*
X10677325Y-17233984D01*
X10943991Y-17233984D02*
X10829706Y-17233984D01*
X10886849Y-17233984D02*
X10886849Y-17033984D01*
X10886849Y-17033984D02*
X10867801Y-17062555D01*
X10867801Y-17062555D02*
X10848753Y-17081603D01*
X10848753Y-17081603D02*
X10829706Y-17091127D01*
X11182087Y-17233984D02*
X11182087Y-17033984D01*
X11267801Y-17233984D02*
X11267801Y-17129222D01*
X11267801Y-17129222D02*
X11258277Y-17110174D01*
X11258277Y-17110174D02*
X11239230Y-17100650D01*
X11239230Y-17100650D02*
X11210658Y-17100650D01*
X11210658Y-17100650D02*
X11191610Y-17110174D01*
X11191610Y-17110174D02*
X11182087Y-17119698D01*
X11391610Y-17233984D02*
X11372563Y-17224460D01*
X11372563Y-17224460D02*
X11363039Y-17214936D01*
X11363039Y-17214936D02*
X11353515Y-17195889D01*
X11353515Y-17195889D02*
X11353515Y-17138746D01*
X11353515Y-17138746D02*
X11363039Y-17119698D01*
X11363039Y-17119698D02*
X11372563Y-17110174D01*
X11372563Y-17110174D02*
X11391610Y-17100650D01*
X11391610Y-17100650D02*
X11420182Y-17100650D01*
X11420182Y-17100650D02*
X11439230Y-17110174D01*
X11439230Y-17110174D02*
X11448753Y-17119698D01*
X11448753Y-17119698D02*
X11458277Y-17138746D01*
X11458277Y-17138746D02*
X11458277Y-17195889D01*
X11458277Y-17195889D02*
X11448753Y-17214936D01*
X11448753Y-17214936D02*
X11439230Y-17224460D01*
X11439230Y-17224460D02*
X11420182Y-17233984D01*
X11420182Y-17233984D02*
X11391610Y-17233984D01*
X11572563Y-17233984D02*
X11553515Y-17224460D01*
X11553515Y-17224460D02*
X11543991Y-17205412D01*
X11543991Y-17205412D02*
X11543991Y-17033984D01*
X11724944Y-17224460D02*
X11705896Y-17233984D01*
X11705896Y-17233984D02*
X11667801Y-17233984D01*
X11667801Y-17233984D02*
X11648753Y-17224460D01*
X11648753Y-17224460D02*
X11639230Y-17205412D01*
X11639230Y-17205412D02*
X11639230Y-17129222D01*
X11639230Y-17129222D02*
X11648753Y-17110174D01*
X11648753Y-17110174D02*
X11667801Y-17100650D01*
X11667801Y-17100650D02*
X11705896Y-17100650D01*
X11705896Y-17100650D02*
X11724944Y-17110174D01*
X11724944Y-17110174D02*
X11734468Y-17129222D01*
X11734468Y-17129222D02*
X11734468Y-17148270D01*
X11734468Y-17148270D02*
X11639230Y-17167317D01*
X11810658Y-17224460D02*
X11829706Y-17233984D01*
X11829706Y-17233984D02*
X11867801Y-17233984D01*
X11867801Y-17233984D02*
X11886849Y-17224460D01*
X11886849Y-17224460D02*
X11896372Y-17205412D01*
X11896372Y-17205412D02*
X11896372Y-17195889D01*
X11896372Y-17195889D02*
X11886849Y-17176841D01*
X11886849Y-17176841D02*
X11867801Y-17167317D01*
X11867801Y-17167317D02*
X11839230Y-17167317D01*
X11839230Y-17167317D02*
X11820182Y-17157793D01*
X11820182Y-17157793D02*
X11810658Y-17138746D01*
X11810658Y-17138746D02*
X11810658Y-17129222D01*
X11810658Y-17129222D02*
X11820182Y-17110174D01*
X11820182Y-17110174D02*
X11839230Y-17100650D01*
X11839230Y-17100650D02*
X11867801Y-17100650D01*
X11867801Y-17100650D02*
X11886849Y-17110174D01*
X11963039Y-17310174D02*
X11972563Y-17300650D01*
X11972563Y-17300650D02*
X11991611Y-17272079D01*
X11991611Y-17272079D02*
X12001134Y-17253031D01*
X12001134Y-17253031D02*
X12010658Y-17224460D01*
X12010658Y-17224460D02*
X12020182Y-17176841D01*
X12020182Y-17176841D02*
X12020182Y-17138746D01*
X12020182Y-17138746D02*
X12010658Y-17091127D01*
X12010658Y-17091127D02*
X12001134Y-17062555D01*
X12001134Y-17062555D02*
X11991611Y-17043508D01*
X11991611Y-17043508D02*
X11972563Y-17014936D01*
X11972563Y-17014936D02*
X11963039Y-17005412D01*
D12*
X6997500Y-17406500D02*
G75*
G02*
X6917500Y-17406500I-40000J0D01*
G01*
X6917500Y-17406500D02*
G75*
G02*
X6997500Y-17406500I40000J0D01*
G01*
D11*
X7296372Y-17297984D02*
X7315420Y-17297984D01*
X7315420Y-17297984D02*
X7334467Y-17307508D01*
X7334467Y-17307508D02*
X7343991Y-17317031D01*
X7343991Y-17317031D02*
X7353515Y-17336079D01*
X7353515Y-17336079D02*
X7363039Y-17374174D01*
X7363039Y-17374174D02*
X7363039Y-17421793D01*
X7363039Y-17421793D02*
X7353515Y-17459889D01*
X7353515Y-17459889D02*
X7343991Y-17478936D01*
X7343991Y-17478936D02*
X7334467Y-17488460D01*
X7334467Y-17488460D02*
X7315420Y-17497984D01*
X7315420Y-17497984D02*
X7296372Y-17497984D01*
X7296372Y-17497984D02*
X7277324Y-17488460D01*
X7277324Y-17488460D02*
X7267801Y-17478936D01*
X7267801Y-17478936D02*
X7258277Y-17459889D01*
X7258277Y-17459889D02*
X7248753Y-17421793D01*
X7248753Y-17421793D02*
X7248753Y-17374174D01*
X7248753Y-17374174D02*
X7258277Y-17336079D01*
X7258277Y-17336079D02*
X7267801Y-17317031D01*
X7267801Y-17317031D02*
X7277324Y-17307508D01*
X7277324Y-17307508D02*
X7296372Y-17297984D01*
X7448753Y-17478936D02*
X7458277Y-17488460D01*
X7458277Y-17488460D02*
X7448753Y-17497984D01*
X7448753Y-17497984D02*
X7439229Y-17488460D01*
X7439229Y-17488460D02*
X7448753Y-17478936D01*
X7448753Y-17478936D02*
X7448753Y-17497984D01*
X7572562Y-17383698D02*
X7553515Y-17374174D01*
X7553515Y-17374174D02*
X7543991Y-17364650D01*
X7543991Y-17364650D02*
X7534467Y-17345603D01*
X7534467Y-17345603D02*
X7534467Y-17336079D01*
X7534467Y-17336079D02*
X7543991Y-17317031D01*
X7543991Y-17317031D02*
X7553515Y-17307508D01*
X7553515Y-17307508D02*
X7572562Y-17297984D01*
X7572562Y-17297984D02*
X7610658Y-17297984D01*
X7610658Y-17297984D02*
X7629705Y-17307508D01*
X7629705Y-17307508D02*
X7639229Y-17317031D01*
X7639229Y-17317031D02*
X7648753Y-17336079D01*
X7648753Y-17336079D02*
X7648753Y-17345603D01*
X7648753Y-17345603D02*
X7639229Y-17364650D01*
X7639229Y-17364650D02*
X7629705Y-17374174D01*
X7629705Y-17374174D02*
X7610658Y-17383698D01*
X7610658Y-17383698D02*
X7572562Y-17383698D01*
X7572562Y-17383698D02*
X7553515Y-17393222D01*
X7553515Y-17393222D02*
X7543991Y-17402746D01*
X7543991Y-17402746D02*
X7534467Y-17421793D01*
X7534467Y-17421793D02*
X7534467Y-17459889D01*
X7534467Y-17459889D02*
X7543991Y-17478936D01*
X7543991Y-17478936D02*
X7553515Y-17488460D01*
X7553515Y-17488460D02*
X7572562Y-17497984D01*
X7572562Y-17497984D02*
X7610658Y-17497984D01*
X7610658Y-17497984D02*
X7629705Y-17488460D01*
X7629705Y-17488460D02*
X7639229Y-17478936D01*
X7639229Y-17478936D02*
X7648753Y-17459889D01*
X7648753Y-17459889D02*
X7648753Y-17421793D01*
X7648753Y-17421793D02*
X7639229Y-17402746D01*
X7639229Y-17402746D02*
X7629705Y-17393222D01*
X7629705Y-17393222D02*
X7610658Y-17383698D01*
X7772562Y-17297984D02*
X7791610Y-17297984D01*
X7791610Y-17297984D02*
X7810658Y-17307508D01*
X7810658Y-17307508D02*
X7820182Y-17317031D01*
X7820182Y-17317031D02*
X7829705Y-17336079D01*
X7829705Y-17336079D02*
X7839229Y-17374174D01*
X7839229Y-17374174D02*
X7839229Y-17421793D01*
X7839229Y-17421793D02*
X7829705Y-17459889D01*
X7829705Y-17459889D02*
X7820182Y-17478936D01*
X7820182Y-17478936D02*
X7810658Y-17488460D01*
X7810658Y-17488460D02*
X7791610Y-17497984D01*
X7791610Y-17497984D02*
X7772562Y-17497984D01*
X7772562Y-17497984D02*
X7753515Y-17488460D01*
X7753515Y-17488460D02*
X7743991Y-17478936D01*
X7743991Y-17478936D02*
X7734467Y-17459889D01*
X7734467Y-17459889D02*
X7724943Y-17421793D01*
X7724943Y-17421793D02*
X7724943Y-17374174D01*
X7724943Y-17374174D02*
X7734467Y-17336079D01*
X7734467Y-17336079D02*
X7743991Y-17317031D01*
X7743991Y-17317031D02*
X7753515Y-17307508D01*
X7753515Y-17307508D02*
X7772562Y-17297984D01*
X7963039Y-17297984D02*
X7982086Y-17297984D01*
X7982086Y-17297984D02*
X8001134Y-17307508D01*
X8001134Y-17307508D02*
X8010658Y-17317031D01*
X8010658Y-17317031D02*
X8020182Y-17336079D01*
X8020182Y-17336079D02*
X8029705Y-17374174D01*
X8029705Y-17374174D02*
X8029705Y-17421793D01*
X8029705Y-17421793D02*
X8020182Y-17459889D01*
X8020182Y-17459889D02*
X8010658Y-17478936D01*
X8010658Y-17478936D02*
X8001134Y-17488460D01*
X8001134Y-17488460D02*
X7982086Y-17497984D01*
X7982086Y-17497984D02*
X7963039Y-17497984D01*
X7963039Y-17497984D02*
X7943991Y-17488460D01*
X7943991Y-17488460D02*
X7934467Y-17478936D01*
X7934467Y-17478936D02*
X7924943Y-17459889D01*
X7924943Y-17459889D02*
X7915420Y-17421793D01*
X7915420Y-17421793D02*
X7915420Y-17374174D01*
X7915420Y-17374174D02*
X7924943Y-17336079D01*
X7924943Y-17336079D02*
X7934467Y-17317031D01*
X7934467Y-17317031D02*
X7943991Y-17307508D01*
X7943991Y-17307508D02*
X7963039Y-17297984D01*
X8115420Y-17497984D02*
X8115420Y-17364650D01*
X8115420Y-17383698D02*
X8124943Y-17374174D01*
X8124943Y-17374174D02*
X8143991Y-17364650D01*
X8143991Y-17364650D02*
X8172563Y-17364650D01*
X8172563Y-17364650D02*
X8191610Y-17374174D01*
X8191610Y-17374174D02*
X8201134Y-17393222D01*
X8201134Y-17393222D02*
X8201134Y-17497984D01*
X8201134Y-17393222D02*
X8210658Y-17374174D01*
X8210658Y-17374174D02*
X8229705Y-17364650D01*
X8229705Y-17364650D02*
X8258277Y-17364650D01*
X8258277Y-17364650D02*
X8277324Y-17374174D01*
X8277324Y-17374174D02*
X8286848Y-17393222D01*
X8286848Y-17393222D02*
X8286848Y-17497984D01*
X8382086Y-17497984D02*
X8382086Y-17364650D01*
X8382086Y-17383698D02*
X8391610Y-17374174D01*
X8391610Y-17374174D02*
X8410658Y-17364650D01*
X8410658Y-17364650D02*
X8439229Y-17364650D01*
X8439229Y-17364650D02*
X8458277Y-17374174D01*
X8458277Y-17374174D02*
X8467801Y-17393222D01*
X8467801Y-17393222D02*
X8467801Y-17497984D01*
X8467801Y-17393222D02*
X8477325Y-17374174D01*
X8477325Y-17374174D02*
X8496372Y-17364650D01*
X8496372Y-17364650D02*
X8524944Y-17364650D01*
X8524944Y-17364650D02*
X8543991Y-17374174D01*
X8543991Y-17374174D02*
X8553515Y-17393222D01*
X8553515Y-17393222D02*
X8553515Y-17497984D01*
X8943991Y-17288460D02*
X8772563Y-17545603D01*
X9201134Y-17297984D02*
X9220182Y-17297984D01*
X9220182Y-17297984D02*
X9239229Y-17307508D01*
X9239229Y-17307508D02*
X9248753Y-17317031D01*
X9248753Y-17317031D02*
X9258277Y-17336079D01*
X9258277Y-17336079D02*
X9267801Y-17374174D01*
X9267801Y-17374174D02*
X9267801Y-17421793D01*
X9267801Y-17421793D02*
X9258277Y-17459889D01*
X9258277Y-17459889D02*
X9248753Y-17478936D01*
X9248753Y-17478936D02*
X9239229Y-17488460D01*
X9239229Y-17488460D02*
X9220182Y-17497984D01*
X9220182Y-17497984D02*
X9201134Y-17497984D01*
X9201134Y-17497984D02*
X9182087Y-17488460D01*
X9182087Y-17488460D02*
X9172563Y-17478936D01*
X9172563Y-17478936D02*
X9163039Y-17459889D01*
X9163039Y-17459889D02*
X9153515Y-17421793D01*
X9153515Y-17421793D02*
X9153515Y-17374174D01*
X9153515Y-17374174D02*
X9163039Y-17336079D01*
X9163039Y-17336079D02*
X9172563Y-17317031D01*
X9172563Y-17317031D02*
X9182087Y-17307508D01*
X9182087Y-17307508D02*
X9201134Y-17297984D01*
X9353515Y-17478936D02*
X9363039Y-17488460D01*
X9363039Y-17488460D02*
X9353515Y-17497984D01*
X9353515Y-17497984D02*
X9343991Y-17488460D01*
X9343991Y-17488460D02*
X9353515Y-17478936D01*
X9353515Y-17478936D02*
X9353515Y-17497984D01*
X9486848Y-17297984D02*
X9505896Y-17297984D01*
X9505896Y-17297984D02*
X9524944Y-17307508D01*
X9524944Y-17307508D02*
X9534468Y-17317031D01*
X9534468Y-17317031D02*
X9543991Y-17336079D01*
X9543991Y-17336079D02*
X9553515Y-17374174D01*
X9553515Y-17374174D02*
X9553515Y-17421793D01*
X9553515Y-17421793D02*
X9543991Y-17459889D01*
X9543991Y-17459889D02*
X9534468Y-17478936D01*
X9534468Y-17478936D02*
X9524944Y-17488460D01*
X9524944Y-17488460D02*
X9505896Y-17497984D01*
X9505896Y-17497984D02*
X9486848Y-17497984D01*
X9486848Y-17497984D02*
X9467801Y-17488460D01*
X9467801Y-17488460D02*
X9458277Y-17478936D01*
X9458277Y-17478936D02*
X9448753Y-17459889D01*
X9448753Y-17459889D02*
X9439229Y-17421793D01*
X9439229Y-17421793D02*
X9439229Y-17374174D01*
X9439229Y-17374174D02*
X9448753Y-17336079D01*
X9448753Y-17336079D02*
X9458277Y-17317031D01*
X9458277Y-17317031D02*
X9467801Y-17307508D01*
X9467801Y-17307508D02*
X9486848Y-17297984D01*
X9620182Y-17297984D02*
X9743991Y-17297984D01*
X9743991Y-17297984D02*
X9677325Y-17374174D01*
X9677325Y-17374174D02*
X9705896Y-17374174D01*
X9705896Y-17374174D02*
X9724944Y-17383698D01*
X9724944Y-17383698D02*
X9734468Y-17393222D01*
X9734468Y-17393222D02*
X9743991Y-17412270D01*
X9743991Y-17412270D02*
X9743991Y-17459889D01*
X9743991Y-17459889D02*
X9734468Y-17478936D01*
X9734468Y-17478936D02*
X9724944Y-17488460D01*
X9724944Y-17488460D02*
X9705896Y-17497984D01*
X9705896Y-17497984D02*
X9648753Y-17497984D01*
X9648753Y-17497984D02*
X9629706Y-17488460D01*
X9629706Y-17488460D02*
X9620182Y-17478936D01*
X9934468Y-17497984D02*
X9820182Y-17497984D01*
X9877325Y-17497984D02*
X9877325Y-17297984D01*
X9877325Y-17297984D02*
X9858277Y-17326555D01*
X9858277Y-17326555D02*
X9839229Y-17345603D01*
X9839229Y-17345603D02*
X9820182Y-17355127D01*
X10115420Y-17297984D02*
X10020182Y-17297984D01*
X10020182Y-17297984D02*
X10010658Y-17393222D01*
X10010658Y-17393222D02*
X10020182Y-17383698D01*
X10020182Y-17383698D02*
X10039229Y-17374174D01*
X10039229Y-17374174D02*
X10086849Y-17374174D01*
X10086849Y-17374174D02*
X10105896Y-17383698D01*
X10105896Y-17383698D02*
X10115420Y-17393222D01*
X10115420Y-17393222D02*
X10124944Y-17412270D01*
X10124944Y-17412270D02*
X10124944Y-17459889D01*
X10124944Y-17459889D02*
X10115420Y-17478936D01*
X10115420Y-17478936D02*
X10105896Y-17488460D01*
X10105896Y-17488460D02*
X10086849Y-17497984D01*
X10086849Y-17497984D02*
X10039229Y-17497984D01*
X10039229Y-17497984D02*
X10020182Y-17488460D01*
X10020182Y-17488460D02*
X10010658Y-17478936D01*
X10201134Y-17297984D02*
X10201134Y-17336079D01*
X10277325Y-17297984D02*
X10277325Y-17336079D01*
X10572563Y-17574174D02*
X10563039Y-17564650D01*
X10563039Y-17564650D02*
X10543991Y-17536079D01*
X10543991Y-17536079D02*
X10534468Y-17517031D01*
X10534468Y-17517031D02*
X10524944Y-17488460D01*
X10524944Y-17488460D02*
X10515420Y-17440841D01*
X10515420Y-17440841D02*
X10515420Y-17402746D01*
X10515420Y-17402746D02*
X10524944Y-17355127D01*
X10524944Y-17355127D02*
X10534468Y-17326555D01*
X10534468Y-17326555D02*
X10543991Y-17307508D01*
X10543991Y-17307508D02*
X10563039Y-17278936D01*
X10563039Y-17278936D02*
X10572563Y-17269412D01*
X10734468Y-17364650D02*
X10734468Y-17497984D01*
X10686849Y-17288460D02*
X10639230Y-17431317D01*
X10639230Y-17431317D02*
X10763039Y-17431317D01*
X10943991Y-17497984D02*
X10829706Y-17497984D01*
X10886849Y-17497984D02*
X10886849Y-17297984D01*
X10886849Y-17297984D02*
X10867801Y-17326555D01*
X10867801Y-17326555D02*
X10848753Y-17345603D01*
X10848753Y-17345603D02*
X10829706Y-17355127D01*
X11182087Y-17497984D02*
X11182087Y-17297984D01*
X11267801Y-17497984D02*
X11267801Y-17393222D01*
X11267801Y-17393222D02*
X11258277Y-17374174D01*
X11258277Y-17374174D02*
X11239230Y-17364650D01*
X11239230Y-17364650D02*
X11210658Y-17364650D01*
X11210658Y-17364650D02*
X11191610Y-17374174D01*
X11191610Y-17374174D02*
X11182087Y-17383698D01*
X11391610Y-17497984D02*
X11372563Y-17488460D01*
X11372563Y-17488460D02*
X11363039Y-17478936D01*
X11363039Y-17478936D02*
X11353515Y-17459889D01*
X11353515Y-17459889D02*
X11353515Y-17402746D01*
X11353515Y-17402746D02*
X11363039Y-17383698D01*
X11363039Y-17383698D02*
X11372563Y-17374174D01*
X11372563Y-17374174D02*
X11391610Y-17364650D01*
X11391610Y-17364650D02*
X11420182Y-17364650D01*
X11420182Y-17364650D02*
X11439230Y-17374174D01*
X11439230Y-17374174D02*
X11448753Y-17383698D01*
X11448753Y-17383698D02*
X11458277Y-17402746D01*
X11458277Y-17402746D02*
X11458277Y-17459889D01*
X11458277Y-17459889D02*
X11448753Y-17478936D01*
X11448753Y-17478936D02*
X11439230Y-17488460D01*
X11439230Y-17488460D02*
X11420182Y-17497984D01*
X11420182Y-17497984D02*
X11391610Y-17497984D01*
X11572563Y-17497984D02*
X11553515Y-17488460D01*
X11553515Y-17488460D02*
X11543991Y-17469412D01*
X11543991Y-17469412D02*
X11543991Y-17297984D01*
X11724944Y-17488460D02*
X11705896Y-17497984D01*
X11705896Y-17497984D02*
X11667801Y-17497984D01*
X11667801Y-17497984D02*
X11648753Y-17488460D01*
X11648753Y-17488460D02*
X11639230Y-17469412D01*
X11639230Y-17469412D02*
X11639230Y-17393222D01*
X11639230Y-17393222D02*
X11648753Y-17374174D01*
X11648753Y-17374174D02*
X11667801Y-17364650D01*
X11667801Y-17364650D02*
X11705896Y-17364650D01*
X11705896Y-17364650D02*
X11724944Y-17374174D01*
X11724944Y-17374174D02*
X11734468Y-17393222D01*
X11734468Y-17393222D02*
X11734468Y-17412270D01*
X11734468Y-17412270D02*
X11639230Y-17431317D01*
X11810658Y-17488460D02*
X11829706Y-17497984D01*
X11829706Y-17497984D02*
X11867801Y-17497984D01*
X11867801Y-17497984D02*
X11886849Y-17488460D01*
X11886849Y-17488460D02*
X11896372Y-17469412D01*
X11896372Y-17469412D02*
X11896372Y-17459889D01*
X11896372Y-17459889D02*
X11886849Y-17440841D01*
X11886849Y-17440841D02*
X11867801Y-17431317D01*
X11867801Y-17431317D02*
X11839230Y-17431317D01*
X11839230Y-17431317D02*
X11820182Y-17421793D01*
X11820182Y-17421793D02*
X11810658Y-17402746D01*
X11810658Y-17402746D02*
X11810658Y-17393222D01*
X11810658Y-17393222D02*
X11820182Y-17374174D01*
X11820182Y-17374174D02*
X11839230Y-17364650D01*
X11839230Y-17364650D02*
X11867801Y-17364650D01*
X11867801Y-17364650D02*
X11886849Y-17374174D01*
X11963039Y-17574174D02*
X11972563Y-17564650D01*
X11972563Y-17564650D02*
X11991611Y-17536079D01*
X11991611Y-17536079D02*
X12001134Y-17517031D01*
X12001134Y-17517031D02*
X12010658Y-17488460D01*
X12010658Y-17488460D02*
X12020182Y-17440841D01*
X12020182Y-17440841D02*
X12020182Y-17402746D01*
X12020182Y-17402746D02*
X12010658Y-17355127D01*
X12010658Y-17355127D02*
X12001134Y-17326555D01*
X12001134Y-17326555D02*
X11991611Y-17307508D01*
X11991611Y-17307508D02*
X11972563Y-17278936D01*
X11972563Y-17278936D02*
X11963039Y-17269412D01*
D12*
X6951500Y-17624500D02*
X6951500Y-17716500D01*
X6905500Y-17670500D02*
X6997500Y-17670500D01*
D11*
X7296372Y-17561984D02*
X7315420Y-17561984D01*
X7315420Y-17561984D02*
X7334467Y-17571508D01*
X7334467Y-17571508D02*
X7343991Y-17581031D01*
X7343991Y-17581031D02*
X7353515Y-17600079D01*
X7353515Y-17600079D02*
X7363039Y-17638174D01*
X7363039Y-17638174D02*
X7363039Y-17685793D01*
X7363039Y-17685793D02*
X7353515Y-17723889D01*
X7353515Y-17723889D02*
X7343991Y-17742936D01*
X7343991Y-17742936D02*
X7334467Y-17752460D01*
X7334467Y-17752460D02*
X7315420Y-17761984D01*
X7315420Y-17761984D02*
X7296372Y-17761984D01*
X7296372Y-17761984D02*
X7277324Y-17752460D01*
X7277324Y-17752460D02*
X7267801Y-17742936D01*
X7267801Y-17742936D02*
X7258277Y-17723889D01*
X7258277Y-17723889D02*
X7248753Y-17685793D01*
X7248753Y-17685793D02*
X7248753Y-17638174D01*
X7248753Y-17638174D02*
X7258277Y-17600079D01*
X7258277Y-17600079D02*
X7267801Y-17581031D01*
X7267801Y-17581031D02*
X7277324Y-17571508D01*
X7277324Y-17571508D02*
X7296372Y-17561984D01*
X7448753Y-17742936D02*
X7458277Y-17752460D01*
X7458277Y-17752460D02*
X7448753Y-17761984D01*
X7448753Y-17761984D02*
X7439229Y-17752460D01*
X7439229Y-17752460D02*
X7448753Y-17742936D01*
X7448753Y-17742936D02*
X7448753Y-17761984D01*
X7553515Y-17761984D02*
X7591610Y-17761984D01*
X7591610Y-17761984D02*
X7610658Y-17752460D01*
X7610658Y-17752460D02*
X7620182Y-17742936D01*
X7620182Y-17742936D02*
X7639229Y-17714365D01*
X7639229Y-17714365D02*
X7648753Y-17676270D01*
X7648753Y-17676270D02*
X7648753Y-17600079D01*
X7648753Y-17600079D02*
X7639229Y-17581031D01*
X7639229Y-17581031D02*
X7629705Y-17571508D01*
X7629705Y-17571508D02*
X7610658Y-17561984D01*
X7610658Y-17561984D02*
X7572562Y-17561984D01*
X7572562Y-17561984D02*
X7553515Y-17571508D01*
X7553515Y-17571508D02*
X7543991Y-17581031D01*
X7543991Y-17581031D02*
X7534467Y-17600079D01*
X7534467Y-17600079D02*
X7534467Y-17647698D01*
X7534467Y-17647698D02*
X7543991Y-17666746D01*
X7543991Y-17666746D02*
X7553515Y-17676270D01*
X7553515Y-17676270D02*
X7572562Y-17685793D01*
X7572562Y-17685793D02*
X7610658Y-17685793D01*
X7610658Y-17685793D02*
X7629705Y-17676270D01*
X7629705Y-17676270D02*
X7639229Y-17666746D01*
X7639229Y-17666746D02*
X7648753Y-17647698D01*
X7724943Y-17581031D02*
X7734467Y-17571508D01*
X7734467Y-17571508D02*
X7753515Y-17561984D01*
X7753515Y-17561984D02*
X7801134Y-17561984D01*
X7801134Y-17561984D02*
X7820182Y-17571508D01*
X7820182Y-17571508D02*
X7829705Y-17581031D01*
X7829705Y-17581031D02*
X7839229Y-17600079D01*
X7839229Y-17600079D02*
X7839229Y-17619127D01*
X7839229Y-17619127D02*
X7829705Y-17647698D01*
X7829705Y-17647698D02*
X7715420Y-17761984D01*
X7715420Y-17761984D02*
X7839229Y-17761984D01*
X7963039Y-17561984D02*
X7982086Y-17561984D01*
X7982086Y-17561984D02*
X8001134Y-17571508D01*
X8001134Y-17571508D02*
X8010658Y-17581031D01*
X8010658Y-17581031D02*
X8020182Y-17600079D01*
X8020182Y-17600079D02*
X8029705Y-17638174D01*
X8029705Y-17638174D02*
X8029705Y-17685793D01*
X8029705Y-17685793D02*
X8020182Y-17723889D01*
X8020182Y-17723889D02*
X8010658Y-17742936D01*
X8010658Y-17742936D02*
X8001134Y-17752460D01*
X8001134Y-17752460D02*
X7982086Y-17761984D01*
X7982086Y-17761984D02*
X7963039Y-17761984D01*
X7963039Y-17761984D02*
X7943991Y-17752460D01*
X7943991Y-17752460D02*
X7934467Y-17742936D01*
X7934467Y-17742936D02*
X7924943Y-17723889D01*
X7924943Y-17723889D02*
X7915420Y-17685793D01*
X7915420Y-17685793D02*
X7915420Y-17638174D01*
X7915420Y-17638174D02*
X7924943Y-17600079D01*
X7924943Y-17600079D02*
X7934467Y-17581031D01*
X7934467Y-17581031D02*
X7943991Y-17571508D01*
X7943991Y-17571508D02*
X7963039Y-17561984D01*
X8115420Y-17761984D02*
X8115420Y-17628650D01*
X8115420Y-17647698D02*
X8124943Y-17638174D01*
X8124943Y-17638174D02*
X8143991Y-17628650D01*
X8143991Y-17628650D02*
X8172563Y-17628650D01*
X8172563Y-17628650D02*
X8191610Y-17638174D01*
X8191610Y-17638174D02*
X8201134Y-17657222D01*
X8201134Y-17657222D02*
X8201134Y-17761984D01*
X8201134Y-17657222D02*
X8210658Y-17638174D01*
X8210658Y-17638174D02*
X8229705Y-17628650D01*
X8229705Y-17628650D02*
X8258277Y-17628650D01*
X8258277Y-17628650D02*
X8277324Y-17638174D01*
X8277324Y-17638174D02*
X8286848Y-17657222D01*
X8286848Y-17657222D02*
X8286848Y-17761984D01*
X8382086Y-17761984D02*
X8382086Y-17628650D01*
X8382086Y-17647698D02*
X8391610Y-17638174D01*
X8391610Y-17638174D02*
X8410658Y-17628650D01*
X8410658Y-17628650D02*
X8439229Y-17628650D01*
X8439229Y-17628650D02*
X8458277Y-17638174D01*
X8458277Y-17638174D02*
X8467801Y-17657222D01*
X8467801Y-17657222D02*
X8467801Y-17761984D01*
X8467801Y-17657222D02*
X8477325Y-17638174D01*
X8477325Y-17638174D02*
X8496372Y-17628650D01*
X8496372Y-17628650D02*
X8524944Y-17628650D01*
X8524944Y-17628650D02*
X8543991Y-17638174D01*
X8543991Y-17638174D02*
X8553515Y-17657222D01*
X8553515Y-17657222D02*
X8553515Y-17761984D01*
X8943991Y-17552460D02*
X8772563Y-17809603D01*
X9201134Y-17561984D02*
X9220182Y-17561984D01*
X9220182Y-17561984D02*
X9239229Y-17571508D01*
X9239229Y-17571508D02*
X9248753Y-17581031D01*
X9248753Y-17581031D02*
X9258277Y-17600079D01*
X9258277Y-17600079D02*
X9267801Y-17638174D01*
X9267801Y-17638174D02*
X9267801Y-17685793D01*
X9267801Y-17685793D02*
X9258277Y-17723889D01*
X9258277Y-17723889D02*
X9248753Y-17742936D01*
X9248753Y-17742936D02*
X9239229Y-17752460D01*
X9239229Y-17752460D02*
X9220182Y-17761984D01*
X9220182Y-17761984D02*
X9201134Y-17761984D01*
X9201134Y-17761984D02*
X9182087Y-17752460D01*
X9182087Y-17752460D02*
X9172563Y-17742936D01*
X9172563Y-17742936D02*
X9163039Y-17723889D01*
X9163039Y-17723889D02*
X9153515Y-17685793D01*
X9153515Y-17685793D02*
X9153515Y-17638174D01*
X9153515Y-17638174D02*
X9163039Y-17600079D01*
X9163039Y-17600079D02*
X9172563Y-17581031D01*
X9172563Y-17581031D02*
X9182087Y-17571508D01*
X9182087Y-17571508D02*
X9201134Y-17561984D01*
X9353515Y-17742936D02*
X9363039Y-17752460D01*
X9363039Y-17752460D02*
X9353515Y-17761984D01*
X9353515Y-17761984D02*
X9343991Y-17752460D01*
X9343991Y-17752460D02*
X9353515Y-17742936D01*
X9353515Y-17742936D02*
X9353515Y-17761984D01*
X9486848Y-17561984D02*
X9505896Y-17561984D01*
X9505896Y-17561984D02*
X9524944Y-17571508D01*
X9524944Y-17571508D02*
X9534468Y-17581031D01*
X9534468Y-17581031D02*
X9543991Y-17600079D01*
X9543991Y-17600079D02*
X9553515Y-17638174D01*
X9553515Y-17638174D02*
X9553515Y-17685793D01*
X9553515Y-17685793D02*
X9543991Y-17723889D01*
X9543991Y-17723889D02*
X9534468Y-17742936D01*
X9534468Y-17742936D02*
X9524944Y-17752460D01*
X9524944Y-17752460D02*
X9505896Y-17761984D01*
X9505896Y-17761984D02*
X9486848Y-17761984D01*
X9486848Y-17761984D02*
X9467801Y-17752460D01*
X9467801Y-17752460D02*
X9458277Y-17742936D01*
X9458277Y-17742936D02*
X9448753Y-17723889D01*
X9448753Y-17723889D02*
X9439229Y-17685793D01*
X9439229Y-17685793D02*
X9439229Y-17638174D01*
X9439229Y-17638174D02*
X9448753Y-17600079D01*
X9448753Y-17600079D02*
X9458277Y-17581031D01*
X9458277Y-17581031D02*
X9467801Y-17571508D01*
X9467801Y-17571508D02*
X9486848Y-17561984D01*
X9620182Y-17561984D02*
X9743991Y-17561984D01*
X9743991Y-17561984D02*
X9677325Y-17638174D01*
X9677325Y-17638174D02*
X9705896Y-17638174D01*
X9705896Y-17638174D02*
X9724944Y-17647698D01*
X9724944Y-17647698D02*
X9734468Y-17657222D01*
X9734468Y-17657222D02*
X9743991Y-17676270D01*
X9743991Y-17676270D02*
X9743991Y-17723889D01*
X9743991Y-17723889D02*
X9734468Y-17742936D01*
X9734468Y-17742936D02*
X9724944Y-17752460D01*
X9724944Y-17752460D02*
X9705896Y-17761984D01*
X9705896Y-17761984D02*
X9648753Y-17761984D01*
X9648753Y-17761984D02*
X9629706Y-17752460D01*
X9629706Y-17752460D02*
X9620182Y-17742936D01*
X9915420Y-17561984D02*
X9877325Y-17561984D01*
X9877325Y-17561984D02*
X9858277Y-17571508D01*
X9858277Y-17571508D02*
X9848753Y-17581031D01*
X9848753Y-17581031D02*
X9829706Y-17609603D01*
X9829706Y-17609603D02*
X9820182Y-17647698D01*
X9820182Y-17647698D02*
X9820182Y-17723889D01*
X9820182Y-17723889D02*
X9829706Y-17742936D01*
X9829706Y-17742936D02*
X9839229Y-17752460D01*
X9839229Y-17752460D02*
X9858277Y-17761984D01*
X9858277Y-17761984D02*
X9896372Y-17761984D01*
X9896372Y-17761984D02*
X9915420Y-17752460D01*
X9915420Y-17752460D02*
X9924944Y-17742936D01*
X9924944Y-17742936D02*
X9934468Y-17723889D01*
X9934468Y-17723889D02*
X9934468Y-17676270D01*
X9934468Y-17676270D02*
X9924944Y-17657222D01*
X9924944Y-17657222D02*
X9915420Y-17647698D01*
X9915420Y-17647698D02*
X9896372Y-17638174D01*
X9896372Y-17638174D02*
X9858277Y-17638174D01*
X9858277Y-17638174D02*
X9839229Y-17647698D01*
X9839229Y-17647698D02*
X9829706Y-17657222D01*
X9829706Y-17657222D02*
X9820182Y-17676270D01*
X10010658Y-17581031D02*
X10020182Y-17571508D01*
X10020182Y-17571508D02*
X10039229Y-17561984D01*
X10039229Y-17561984D02*
X10086849Y-17561984D01*
X10086849Y-17561984D02*
X10105896Y-17571508D01*
X10105896Y-17571508D02*
X10115420Y-17581031D01*
X10115420Y-17581031D02*
X10124944Y-17600079D01*
X10124944Y-17600079D02*
X10124944Y-17619127D01*
X10124944Y-17619127D02*
X10115420Y-17647698D01*
X10115420Y-17647698D02*
X10001134Y-17761984D01*
X10001134Y-17761984D02*
X10124944Y-17761984D01*
X10201134Y-17561984D02*
X10201134Y-17600079D01*
X10277325Y-17561984D02*
X10277325Y-17600079D01*
X10572563Y-17838174D02*
X10563039Y-17828650D01*
X10563039Y-17828650D02*
X10543991Y-17800079D01*
X10543991Y-17800079D02*
X10534468Y-17781031D01*
X10534468Y-17781031D02*
X10524944Y-17752460D01*
X10524944Y-17752460D02*
X10515420Y-17704841D01*
X10515420Y-17704841D02*
X10515420Y-17666746D01*
X10515420Y-17666746D02*
X10524944Y-17619127D01*
X10524944Y-17619127D02*
X10534468Y-17590555D01*
X10534468Y-17590555D02*
X10543991Y-17571508D01*
X10543991Y-17571508D02*
X10563039Y-17542936D01*
X10563039Y-17542936D02*
X10572563Y-17533412D01*
X10734468Y-17628650D02*
X10734468Y-17761984D01*
X10686849Y-17552460D02*
X10639230Y-17695317D01*
X10639230Y-17695317D02*
X10763039Y-17695317D01*
X10991611Y-17761984D02*
X10991611Y-17561984D01*
X11077325Y-17761984D02*
X11077325Y-17657222D01*
X11077325Y-17657222D02*
X11067801Y-17638174D01*
X11067801Y-17638174D02*
X11048753Y-17628650D01*
X11048753Y-17628650D02*
X11020182Y-17628650D01*
X11020182Y-17628650D02*
X11001134Y-17638174D01*
X11001134Y-17638174D02*
X10991611Y-17647698D01*
X11201134Y-17761984D02*
X11182087Y-17752460D01*
X11182087Y-17752460D02*
X11172563Y-17742936D01*
X11172563Y-17742936D02*
X11163039Y-17723889D01*
X11163039Y-17723889D02*
X11163039Y-17666746D01*
X11163039Y-17666746D02*
X11172563Y-17647698D01*
X11172563Y-17647698D02*
X11182087Y-17638174D01*
X11182087Y-17638174D02*
X11201134Y-17628650D01*
X11201134Y-17628650D02*
X11229706Y-17628650D01*
X11229706Y-17628650D02*
X11248753Y-17638174D01*
X11248753Y-17638174D02*
X11258277Y-17647698D01*
X11258277Y-17647698D02*
X11267801Y-17666746D01*
X11267801Y-17666746D02*
X11267801Y-17723889D01*
X11267801Y-17723889D02*
X11258277Y-17742936D01*
X11258277Y-17742936D02*
X11248753Y-17752460D01*
X11248753Y-17752460D02*
X11229706Y-17761984D01*
X11229706Y-17761984D02*
X11201134Y-17761984D01*
X11382087Y-17761984D02*
X11363039Y-17752460D01*
X11363039Y-17752460D02*
X11353515Y-17733412D01*
X11353515Y-17733412D02*
X11353515Y-17561984D01*
X11534468Y-17752460D02*
X11515420Y-17761984D01*
X11515420Y-17761984D02*
X11477325Y-17761984D01*
X11477325Y-17761984D02*
X11458277Y-17752460D01*
X11458277Y-17752460D02*
X11448753Y-17733412D01*
X11448753Y-17733412D02*
X11448753Y-17657222D01*
X11448753Y-17657222D02*
X11458277Y-17638174D01*
X11458277Y-17638174D02*
X11477325Y-17628650D01*
X11477325Y-17628650D02*
X11515420Y-17628650D01*
X11515420Y-17628650D02*
X11534468Y-17638174D01*
X11534468Y-17638174D02*
X11543991Y-17657222D01*
X11543991Y-17657222D02*
X11543991Y-17676270D01*
X11543991Y-17676270D02*
X11448753Y-17695317D01*
X11620182Y-17752460D02*
X11639230Y-17761984D01*
X11639230Y-17761984D02*
X11677325Y-17761984D01*
X11677325Y-17761984D02*
X11696372Y-17752460D01*
X11696372Y-17752460D02*
X11705896Y-17733412D01*
X11705896Y-17733412D02*
X11705896Y-17723889D01*
X11705896Y-17723889D02*
X11696372Y-17704841D01*
X11696372Y-17704841D02*
X11677325Y-17695317D01*
X11677325Y-17695317D02*
X11648753Y-17695317D01*
X11648753Y-17695317D02*
X11629706Y-17685793D01*
X11629706Y-17685793D02*
X11620182Y-17666746D01*
X11620182Y-17666746D02*
X11620182Y-17657222D01*
X11620182Y-17657222D02*
X11629706Y-17638174D01*
X11629706Y-17638174D02*
X11648753Y-17628650D01*
X11648753Y-17628650D02*
X11677325Y-17628650D01*
X11677325Y-17628650D02*
X11696372Y-17638174D01*
X11772563Y-17838174D02*
X11782087Y-17828650D01*
X11782087Y-17828650D02*
X11801134Y-17800079D01*
X11801134Y-17800079D02*
X11810658Y-17781031D01*
X11810658Y-17781031D02*
X11820182Y-17752460D01*
X11820182Y-17752460D02*
X11829706Y-17704841D01*
X11829706Y-17704841D02*
X11829706Y-17666746D01*
X11829706Y-17666746D02*
X11820182Y-17619127D01*
X11820182Y-17619127D02*
X11810658Y-17590555D01*
X11810658Y-17590555D02*
X11801134Y-17571508D01*
X11801134Y-17571508D02*
X11782087Y-17542936D01*
X11782087Y-17542936D02*
X11772563Y-17533412D01*
D12*
X6982856Y-17969856D02*
X6982856Y-17899144D01*
X6912144Y-17899144D01*
X6912144Y-17969856D01*
X6982856Y-17969856D01*
D11*
X7363039Y-18025984D02*
X7248753Y-18025984D01*
X7305896Y-18025984D02*
X7305896Y-17825984D01*
X7305896Y-17825984D02*
X7286848Y-17854555D01*
X7286848Y-17854555D02*
X7267801Y-17873603D01*
X7267801Y-17873603D02*
X7248753Y-17883127D01*
X7448753Y-18006936D02*
X7458277Y-18016460D01*
X7458277Y-18016460D02*
X7448753Y-18025984D01*
X7448753Y-18025984D02*
X7439229Y-18016460D01*
X7439229Y-18016460D02*
X7448753Y-18006936D01*
X7448753Y-18006936D02*
X7448753Y-18025984D01*
X7582086Y-17825984D02*
X7601134Y-17825984D01*
X7601134Y-17825984D02*
X7620182Y-17835508D01*
X7620182Y-17835508D02*
X7629705Y-17845031D01*
X7629705Y-17845031D02*
X7639229Y-17864079D01*
X7639229Y-17864079D02*
X7648753Y-17902174D01*
X7648753Y-17902174D02*
X7648753Y-17949793D01*
X7648753Y-17949793D02*
X7639229Y-17987889D01*
X7639229Y-17987889D02*
X7629705Y-18006936D01*
X7629705Y-18006936D02*
X7620182Y-18016460D01*
X7620182Y-18016460D02*
X7601134Y-18025984D01*
X7601134Y-18025984D02*
X7582086Y-18025984D01*
X7582086Y-18025984D02*
X7563039Y-18016460D01*
X7563039Y-18016460D02*
X7553515Y-18006936D01*
X7553515Y-18006936D02*
X7543991Y-17987889D01*
X7543991Y-17987889D02*
X7534467Y-17949793D01*
X7534467Y-17949793D02*
X7534467Y-17902174D01*
X7534467Y-17902174D02*
X7543991Y-17864079D01*
X7543991Y-17864079D02*
X7553515Y-17845031D01*
X7553515Y-17845031D02*
X7563039Y-17835508D01*
X7563039Y-17835508D02*
X7582086Y-17825984D01*
X7772562Y-17825984D02*
X7791610Y-17825984D01*
X7791610Y-17825984D02*
X7810658Y-17835508D01*
X7810658Y-17835508D02*
X7820182Y-17845031D01*
X7820182Y-17845031D02*
X7829705Y-17864079D01*
X7829705Y-17864079D02*
X7839229Y-17902174D01*
X7839229Y-17902174D02*
X7839229Y-17949793D01*
X7839229Y-17949793D02*
X7829705Y-17987889D01*
X7829705Y-17987889D02*
X7820182Y-18006936D01*
X7820182Y-18006936D02*
X7810658Y-18016460D01*
X7810658Y-18016460D02*
X7791610Y-18025984D01*
X7791610Y-18025984D02*
X7772562Y-18025984D01*
X7772562Y-18025984D02*
X7753515Y-18016460D01*
X7753515Y-18016460D02*
X7743991Y-18006936D01*
X7743991Y-18006936D02*
X7734467Y-17987889D01*
X7734467Y-17987889D02*
X7724943Y-17949793D01*
X7724943Y-17949793D02*
X7724943Y-17902174D01*
X7724943Y-17902174D02*
X7734467Y-17864079D01*
X7734467Y-17864079D02*
X7743991Y-17845031D01*
X7743991Y-17845031D02*
X7753515Y-17835508D01*
X7753515Y-17835508D02*
X7772562Y-17825984D01*
X7963039Y-17825984D02*
X7982086Y-17825984D01*
X7982086Y-17825984D02*
X8001134Y-17835508D01*
X8001134Y-17835508D02*
X8010658Y-17845031D01*
X8010658Y-17845031D02*
X8020182Y-17864079D01*
X8020182Y-17864079D02*
X8029705Y-17902174D01*
X8029705Y-17902174D02*
X8029705Y-17949793D01*
X8029705Y-17949793D02*
X8020182Y-17987889D01*
X8020182Y-17987889D02*
X8010658Y-18006936D01*
X8010658Y-18006936D02*
X8001134Y-18016460D01*
X8001134Y-18016460D02*
X7982086Y-18025984D01*
X7982086Y-18025984D02*
X7963039Y-18025984D01*
X7963039Y-18025984D02*
X7943991Y-18016460D01*
X7943991Y-18016460D02*
X7934467Y-18006936D01*
X7934467Y-18006936D02*
X7924943Y-17987889D01*
X7924943Y-17987889D02*
X7915420Y-17949793D01*
X7915420Y-17949793D02*
X7915420Y-17902174D01*
X7915420Y-17902174D02*
X7924943Y-17864079D01*
X7924943Y-17864079D02*
X7934467Y-17845031D01*
X7934467Y-17845031D02*
X7943991Y-17835508D01*
X7943991Y-17835508D02*
X7963039Y-17825984D01*
X8115420Y-18025984D02*
X8115420Y-17892650D01*
X8115420Y-17911698D02*
X8124943Y-17902174D01*
X8124943Y-17902174D02*
X8143991Y-17892650D01*
X8143991Y-17892650D02*
X8172563Y-17892650D01*
X8172563Y-17892650D02*
X8191610Y-17902174D01*
X8191610Y-17902174D02*
X8201134Y-17921222D01*
X8201134Y-17921222D02*
X8201134Y-18025984D01*
X8201134Y-17921222D02*
X8210658Y-17902174D01*
X8210658Y-17902174D02*
X8229705Y-17892650D01*
X8229705Y-17892650D02*
X8258277Y-17892650D01*
X8258277Y-17892650D02*
X8277324Y-17902174D01*
X8277324Y-17902174D02*
X8286848Y-17921222D01*
X8286848Y-17921222D02*
X8286848Y-18025984D01*
X8382086Y-18025984D02*
X8382086Y-17892650D01*
X8382086Y-17911698D02*
X8391610Y-17902174D01*
X8391610Y-17902174D02*
X8410658Y-17892650D01*
X8410658Y-17892650D02*
X8439229Y-17892650D01*
X8439229Y-17892650D02*
X8458277Y-17902174D01*
X8458277Y-17902174D02*
X8467801Y-17921222D01*
X8467801Y-17921222D02*
X8467801Y-18025984D01*
X8467801Y-17921222D02*
X8477325Y-17902174D01*
X8477325Y-17902174D02*
X8496372Y-17892650D01*
X8496372Y-17892650D02*
X8524944Y-17892650D01*
X8524944Y-17892650D02*
X8543991Y-17902174D01*
X8543991Y-17902174D02*
X8553515Y-17921222D01*
X8553515Y-17921222D02*
X8553515Y-18025984D01*
X8943991Y-17816460D02*
X8772563Y-18073603D01*
X9201134Y-17825984D02*
X9220182Y-17825984D01*
X9220182Y-17825984D02*
X9239229Y-17835508D01*
X9239229Y-17835508D02*
X9248753Y-17845031D01*
X9248753Y-17845031D02*
X9258277Y-17864079D01*
X9258277Y-17864079D02*
X9267801Y-17902174D01*
X9267801Y-17902174D02*
X9267801Y-17949793D01*
X9267801Y-17949793D02*
X9258277Y-17987889D01*
X9258277Y-17987889D02*
X9248753Y-18006936D01*
X9248753Y-18006936D02*
X9239229Y-18016460D01*
X9239229Y-18016460D02*
X9220182Y-18025984D01*
X9220182Y-18025984D02*
X9201134Y-18025984D01*
X9201134Y-18025984D02*
X9182087Y-18016460D01*
X9182087Y-18016460D02*
X9172563Y-18006936D01*
X9172563Y-18006936D02*
X9163039Y-17987889D01*
X9163039Y-17987889D02*
X9153515Y-17949793D01*
X9153515Y-17949793D02*
X9153515Y-17902174D01*
X9153515Y-17902174D02*
X9163039Y-17864079D01*
X9163039Y-17864079D02*
X9172563Y-17845031D01*
X9172563Y-17845031D02*
X9182087Y-17835508D01*
X9182087Y-17835508D02*
X9201134Y-17825984D01*
X9353515Y-18006936D02*
X9363039Y-18016460D01*
X9363039Y-18016460D02*
X9353515Y-18025984D01*
X9353515Y-18025984D02*
X9343991Y-18016460D01*
X9343991Y-18016460D02*
X9353515Y-18006936D01*
X9353515Y-18006936D02*
X9353515Y-18025984D01*
X9486848Y-17825984D02*
X9505896Y-17825984D01*
X9505896Y-17825984D02*
X9524944Y-17835508D01*
X9524944Y-17835508D02*
X9534468Y-17845031D01*
X9534468Y-17845031D02*
X9543991Y-17864079D01*
X9543991Y-17864079D02*
X9553515Y-17902174D01*
X9553515Y-17902174D02*
X9553515Y-17949793D01*
X9553515Y-17949793D02*
X9543991Y-17987889D01*
X9543991Y-17987889D02*
X9534468Y-18006936D01*
X9534468Y-18006936D02*
X9524944Y-18016460D01*
X9524944Y-18016460D02*
X9505896Y-18025984D01*
X9505896Y-18025984D02*
X9486848Y-18025984D01*
X9486848Y-18025984D02*
X9467801Y-18016460D01*
X9467801Y-18016460D02*
X9458277Y-18006936D01*
X9458277Y-18006936D02*
X9448753Y-17987889D01*
X9448753Y-17987889D02*
X9439229Y-17949793D01*
X9439229Y-17949793D02*
X9439229Y-17902174D01*
X9439229Y-17902174D02*
X9448753Y-17864079D01*
X9448753Y-17864079D02*
X9458277Y-17845031D01*
X9458277Y-17845031D02*
X9467801Y-17835508D01*
X9467801Y-17835508D02*
X9486848Y-17825984D01*
X9620182Y-17825984D02*
X9743991Y-17825984D01*
X9743991Y-17825984D02*
X9677325Y-17902174D01*
X9677325Y-17902174D02*
X9705896Y-17902174D01*
X9705896Y-17902174D02*
X9724944Y-17911698D01*
X9724944Y-17911698D02*
X9734468Y-17921222D01*
X9734468Y-17921222D02*
X9743991Y-17940270D01*
X9743991Y-17940270D02*
X9743991Y-17987889D01*
X9743991Y-17987889D02*
X9734468Y-18006936D01*
X9734468Y-18006936D02*
X9724944Y-18016460D01*
X9724944Y-18016460D02*
X9705896Y-18025984D01*
X9705896Y-18025984D02*
X9648753Y-18025984D01*
X9648753Y-18025984D02*
X9629706Y-18016460D01*
X9629706Y-18016460D02*
X9620182Y-18006936D01*
X9839229Y-18025984D02*
X9877325Y-18025984D01*
X9877325Y-18025984D02*
X9896372Y-18016460D01*
X9896372Y-18016460D02*
X9905896Y-18006936D01*
X9905896Y-18006936D02*
X9924944Y-17978365D01*
X9924944Y-17978365D02*
X9934468Y-17940270D01*
X9934468Y-17940270D02*
X9934468Y-17864079D01*
X9934468Y-17864079D02*
X9924944Y-17845031D01*
X9924944Y-17845031D02*
X9915420Y-17835508D01*
X9915420Y-17835508D02*
X9896372Y-17825984D01*
X9896372Y-17825984D02*
X9858277Y-17825984D01*
X9858277Y-17825984D02*
X9839229Y-17835508D01*
X9839229Y-17835508D02*
X9829706Y-17845031D01*
X9829706Y-17845031D02*
X9820182Y-17864079D01*
X9820182Y-17864079D02*
X9820182Y-17911698D01*
X9820182Y-17911698D02*
X9829706Y-17930746D01*
X9829706Y-17930746D02*
X9839229Y-17940270D01*
X9839229Y-17940270D02*
X9858277Y-17949793D01*
X9858277Y-17949793D02*
X9896372Y-17949793D01*
X9896372Y-17949793D02*
X9915420Y-17940270D01*
X9915420Y-17940270D02*
X9924944Y-17930746D01*
X9924944Y-17930746D02*
X9934468Y-17911698D01*
X10105896Y-17892650D02*
X10105896Y-18025984D01*
X10058277Y-17816460D02*
X10010658Y-17959317D01*
X10010658Y-17959317D02*
X10134468Y-17959317D01*
X10201134Y-17825984D02*
X10201134Y-17864079D01*
X10277325Y-17825984D02*
X10277325Y-17864079D01*
X10572563Y-18102174D02*
X10563039Y-18092650D01*
X10563039Y-18092650D02*
X10543991Y-18064079D01*
X10543991Y-18064079D02*
X10534468Y-18045031D01*
X10534468Y-18045031D02*
X10524944Y-18016460D01*
X10524944Y-18016460D02*
X10515420Y-17968841D01*
X10515420Y-17968841D02*
X10515420Y-17930746D01*
X10515420Y-17930746D02*
X10524944Y-17883127D01*
X10524944Y-17883127D02*
X10534468Y-17854555D01*
X10534468Y-17854555D02*
X10543991Y-17835508D01*
X10543991Y-17835508D02*
X10563039Y-17806936D01*
X10563039Y-17806936D02*
X10572563Y-17797412D01*
X10734468Y-17892650D02*
X10734468Y-18025984D01*
X10686849Y-17816460D02*
X10639230Y-17959317D01*
X10639230Y-17959317D02*
X10763039Y-17959317D01*
X10924944Y-17892650D02*
X10924944Y-18025984D01*
X10877325Y-17816460D02*
X10829706Y-17959317D01*
X10829706Y-17959317D02*
X10953515Y-17959317D01*
X11182087Y-18025984D02*
X11182087Y-17825984D01*
X11267801Y-18025984D02*
X11267801Y-17921222D01*
X11267801Y-17921222D02*
X11258277Y-17902174D01*
X11258277Y-17902174D02*
X11239230Y-17892650D01*
X11239230Y-17892650D02*
X11210658Y-17892650D01*
X11210658Y-17892650D02*
X11191610Y-17902174D01*
X11191610Y-17902174D02*
X11182087Y-17911698D01*
X11391610Y-18025984D02*
X11372563Y-18016460D01*
X11372563Y-18016460D02*
X11363039Y-18006936D01*
X11363039Y-18006936D02*
X11353515Y-17987889D01*
X11353515Y-17987889D02*
X11353515Y-17930746D01*
X11353515Y-17930746D02*
X11363039Y-17911698D01*
X11363039Y-17911698D02*
X11372563Y-17902174D01*
X11372563Y-17902174D02*
X11391610Y-17892650D01*
X11391610Y-17892650D02*
X11420182Y-17892650D01*
X11420182Y-17892650D02*
X11439230Y-17902174D01*
X11439230Y-17902174D02*
X11448753Y-17911698D01*
X11448753Y-17911698D02*
X11458277Y-17930746D01*
X11458277Y-17930746D02*
X11458277Y-17987889D01*
X11458277Y-17987889D02*
X11448753Y-18006936D01*
X11448753Y-18006936D02*
X11439230Y-18016460D01*
X11439230Y-18016460D02*
X11420182Y-18025984D01*
X11420182Y-18025984D02*
X11391610Y-18025984D01*
X11572563Y-18025984D02*
X11553515Y-18016460D01*
X11553515Y-18016460D02*
X11543991Y-17997412D01*
X11543991Y-17997412D02*
X11543991Y-17825984D01*
X11724944Y-18016460D02*
X11705896Y-18025984D01*
X11705896Y-18025984D02*
X11667801Y-18025984D01*
X11667801Y-18025984D02*
X11648753Y-18016460D01*
X11648753Y-18016460D02*
X11639230Y-17997412D01*
X11639230Y-17997412D02*
X11639230Y-17921222D01*
X11639230Y-17921222D02*
X11648753Y-17902174D01*
X11648753Y-17902174D02*
X11667801Y-17892650D01*
X11667801Y-17892650D02*
X11705896Y-17892650D01*
X11705896Y-17892650D02*
X11724944Y-17902174D01*
X11724944Y-17902174D02*
X11734468Y-17921222D01*
X11734468Y-17921222D02*
X11734468Y-17940270D01*
X11734468Y-17940270D02*
X11639230Y-17959317D01*
X11810658Y-18016460D02*
X11829706Y-18025984D01*
X11829706Y-18025984D02*
X11867801Y-18025984D01*
X11867801Y-18025984D02*
X11886849Y-18016460D01*
X11886849Y-18016460D02*
X11896372Y-17997412D01*
X11896372Y-17997412D02*
X11896372Y-17987889D01*
X11896372Y-17987889D02*
X11886849Y-17968841D01*
X11886849Y-17968841D02*
X11867801Y-17959317D01*
X11867801Y-17959317D02*
X11839230Y-17959317D01*
X11839230Y-17959317D02*
X11820182Y-17949793D01*
X11820182Y-17949793D02*
X11810658Y-17930746D01*
X11810658Y-17930746D02*
X11810658Y-17921222D01*
X11810658Y-17921222D02*
X11820182Y-17902174D01*
X11820182Y-17902174D02*
X11839230Y-17892650D01*
X11839230Y-17892650D02*
X11867801Y-17892650D01*
X11867801Y-17892650D02*
X11886849Y-17902174D01*
X11963039Y-18102174D02*
X11972563Y-18092650D01*
X11972563Y-18092650D02*
X11991611Y-18064079D01*
X11991611Y-18064079D02*
X12001134Y-18045031D01*
X12001134Y-18045031D02*
X12010658Y-18016460D01*
X12010658Y-18016460D02*
X12020182Y-17968841D01*
X12020182Y-17968841D02*
X12020182Y-17930746D01*
X12020182Y-17930746D02*
X12010658Y-17883127D01*
X12010658Y-17883127D02*
X12001134Y-17854555D01*
X12001134Y-17854555D02*
X11991611Y-17835508D01*
X11991611Y-17835508D02*
X11972563Y-17806936D01*
X11972563Y-17806936D02*
X11963039Y-17797412D01*
D13*
X6946700Y-18249300D02*
X6997500Y-18198500D01*
X6946700Y-18147700D01*
X6895900Y-18198500D01*
X6946700Y-18249300D01*
D11*
X7363039Y-18289984D02*
X7248753Y-18289984D01*
X7305896Y-18289984D02*
X7305896Y-18089984D01*
X7305896Y-18089984D02*
X7286848Y-18118555D01*
X7286848Y-18118555D02*
X7267801Y-18137603D01*
X7267801Y-18137603D02*
X7248753Y-18147127D01*
X7448753Y-18270936D02*
X7458277Y-18280460D01*
X7458277Y-18280460D02*
X7448753Y-18289984D01*
X7448753Y-18289984D02*
X7439229Y-18280460D01*
X7439229Y-18280460D02*
X7448753Y-18270936D01*
X7448753Y-18270936D02*
X7448753Y-18289984D01*
X7582086Y-18089984D02*
X7601134Y-18089984D01*
X7601134Y-18089984D02*
X7620182Y-18099508D01*
X7620182Y-18099508D02*
X7629705Y-18109031D01*
X7629705Y-18109031D02*
X7639229Y-18128079D01*
X7639229Y-18128079D02*
X7648753Y-18166174D01*
X7648753Y-18166174D02*
X7648753Y-18213793D01*
X7648753Y-18213793D02*
X7639229Y-18251889D01*
X7639229Y-18251889D02*
X7629705Y-18270936D01*
X7629705Y-18270936D02*
X7620182Y-18280460D01*
X7620182Y-18280460D02*
X7601134Y-18289984D01*
X7601134Y-18289984D02*
X7582086Y-18289984D01*
X7582086Y-18289984D02*
X7563039Y-18280460D01*
X7563039Y-18280460D02*
X7553515Y-18270936D01*
X7553515Y-18270936D02*
X7543991Y-18251889D01*
X7543991Y-18251889D02*
X7534467Y-18213793D01*
X7534467Y-18213793D02*
X7534467Y-18166174D01*
X7534467Y-18166174D02*
X7543991Y-18128079D01*
X7543991Y-18128079D02*
X7553515Y-18109031D01*
X7553515Y-18109031D02*
X7563039Y-18099508D01*
X7563039Y-18099508D02*
X7582086Y-18089984D01*
X7839229Y-18289984D02*
X7724943Y-18289984D01*
X7782086Y-18289984D02*
X7782086Y-18089984D01*
X7782086Y-18089984D02*
X7763039Y-18118555D01*
X7763039Y-18118555D02*
X7743991Y-18137603D01*
X7743991Y-18137603D02*
X7724943Y-18147127D01*
X8010658Y-18089984D02*
X7972562Y-18089984D01*
X7972562Y-18089984D02*
X7953515Y-18099508D01*
X7953515Y-18099508D02*
X7943991Y-18109031D01*
X7943991Y-18109031D02*
X7924943Y-18137603D01*
X7924943Y-18137603D02*
X7915420Y-18175698D01*
X7915420Y-18175698D02*
X7915420Y-18251889D01*
X7915420Y-18251889D02*
X7924943Y-18270936D01*
X7924943Y-18270936D02*
X7934467Y-18280460D01*
X7934467Y-18280460D02*
X7953515Y-18289984D01*
X7953515Y-18289984D02*
X7991610Y-18289984D01*
X7991610Y-18289984D02*
X8010658Y-18280460D01*
X8010658Y-18280460D02*
X8020182Y-18270936D01*
X8020182Y-18270936D02*
X8029705Y-18251889D01*
X8029705Y-18251889D02*
X8029705Y-18204270D01*
X8029705Y-18204270D02*
X8020182Y-18185222D01*
X8020182Y-18185222D02*
X8010658Y-18175698D01*
X8010658Y-18175698D02*
X7991610Y-18166174D01*
X7991610Y-18166174D02*
X7953515Y-18166174D01*
X7953515Y-18166174D02*
X7934467Y-18175698D01*
X7934467Y-18175698D02*
X7924943Y-18185222D01*
X7924943Y-18185222D02*
X7915420Y-18204270D01*
X8115420Y-18289984D02*
X8115420Y-18156650D01*
X8115420Y-18175698D02*
X8124943Y-18166174D01*
X8124943Y-18166174D02*
X8143991Y-18156650D01*
X8143991Y-18156650D02*
X8172563Y-18156650D01*
X8172563Y-18156650D02*
X8191610Y-18166174D01*
X8191610Y-18166174D02*
X8201134Y-18185222D01*
X8201134Y-18185222D02*
X8201134Y-18289984D01*
X8201134Y-18185222D02*
X8210658Y-18166174D01*
X8210658Y-18166174D02*
X8229705Y-18156650D01*
X8229705Y-18156650D02*
X8258277Y-18156650D01*
X8258277Y-18156650D02*
X8277324Y-18166174D01*
X8277324Y-18166174D02*
X8286848Y-18185222D01*
X8286848Y-18185222D02*
X8286848Y-18289984D01*
X8382086Y-18289984D02*
X8382086Y-18156650D01*
X8382086Y-18175698D02*
X8391610Y-18166174D01*
X8391610Y-18166174D02*
X8410658Y-18156650D01*
X8410658Y-18156650D02*
X8439229Y-18156650D01*
X8439229Y-18156650D02*
X8458277Y-18166174D01*
X8458277Y-18166174D02*
X8467801Y-18185222D01*
X8467801Y-18185222D02*
X8467801Y-18289984D01*
X8467801Y-18185222D02*
X8477325Y-18166174D01*
X8477325Y-18166174D02*
X8496372Y-18156650D01*
X8496372Y-18156650D02*
X8524944Y-18156650D01*
X8524944Y-18156650D02*
X8543991Y-18166174D01*
X8543991Y-18166174D02*
X8553515Y-18185222D01*
X8553515Y-18185222D02*
X8553515Y-18289984D01*
X8943991Y-18080460D02*
X8772563Y-18337603D01*
X9201134Y-18089984D02*
X9220182Y-18089984D01*
X9220182Y-18089984D02*
X9239229Y-18099508D01*
X9239229Y-18099508D02*
X9248753Y-18109031D01*
X9248753Y-18109031D02*
X9258277Y-18128079D01*
X9258277Y-18128079D02*
X9267801Y-18166174D01*
X9267801Y-18166174D02*
X9267801Y-18213793D01*
X9267801Y-18213793D02*
X9258277Y-18251889D01*
X9258277Y-18251889D02*
X9248753Y-18270936D01*
X9248753Y-18270936D02*
X9239229Y-18280460D01*
X9239229Y-18280460D02*
X9220182Y-18289984D01*
X9220182Y-18289984D02*
X9201134Y-18289984D01*
X9201134Y-18289984D02*
X9182087Y-18280460D01*
X9182087Y-18280460D02*
X9172563Y-18270936D01*
X9172563Y-18270936D02*
X9163039Y-18251889D01*
X9163039Y-18251889D02*
X9153515Y-18213793D01*
X9153515Y-18213793D02*
X9153515Y-18166174D01*
X9153515Y-18166174D02*
X9163039Y-18128079D01*
X9163039Y-18128079D02*
X9172563Y-18109031D01*
X9172563Y-18109031D02*
X9182087Y-18099508D01*
X9182087Y-18099508D02*
X9201134Y-18089984D01*
X9353515Y-18270936D02*
X9363039Y-18280460D01*
X9363039Y-18280460D02*
X9353515Y-18289984D01*
X9353515Y-18289984D02*
X9343991Y-18280460D01*
X9343991Y-18280460D02*
X9353515Y-18270936D01*
X9353515Y-18270936D02*
X9353515Y-18289984D01*
X9486848Y-18089984D02*
X9505896Y-18089984D01*
X9505896Y-18089984D02*
X9524944Y-18099508D01*
X9524944Y-18099508D02*
X9534468Y-18109031D01*
X9534468Y-18109031D02*
X9543991Y-18128079D01*
X9543991Y-18128079D02*
X9553515Y-18166174D01*
X9553515Y-18166174D02*
X9553515Y-18213793D01*
X9553515Y-18213793D02*
X9543991Y-18251889D01*
X9543991Y-18251889D02*
X9534468Y-18270936D01*
X9534468Y-18270936D02*
X9524944Y-18280460D01*
X9524944Y-18280460D02*
X9505896Y-18289984D01*
X9505896Y-18289984D02*
X9486848Y-18289984D01*
X9486848Y-18289984D02*
X9467801Y-18280460D01*
X9467801Y-18280460D02*
X9458277Y-18270936D01*
X9458277Y-18270936D02*
X9448753Y-18251889D01*
X9448753Y-18251889D02*
X9439229Y-18213793D01*
X9439229Y-18213793D02*
X9439229Y-18166174D01*
X9439229Y-18166174D02*
X9448753Y-18128079D01*
X9448753Y-18128079D02*
X9458277Y-18109031D01*
X9458277Y-18109031D02*
X9467801Y-18099508D01*
X9467801Y-18099508D02*
X9486848Y-18089984D01*
X9724944Y-18156650D02*
X9724944Y-18289984D01*
X9677325Y-18080460D02*
X9629706Y-18223317D01*
X9629706Y-18223317D02*
X9753515Y-18223317D01*
X9867801Y-18089984D02*
X9886849Y-18089984D01*
X9886849Y-18089984D02*
X9905896Y-18099508D01*
X9905896Y-18099508D02*
X9915420Y-18109031D01*
X9915420Y-18109031D02*
X9924944Y-18128079D01*
X9924944Y-18128079D02*
X9934468Y-18166174D01*
X9934468Y-18166174D02*
X9934468Y-18213793D01*
X9934468Y-18213793D02*
X9924944Y-18251889D01*
X9924944Y-18251889D02*
X9915420Y-18270936D01*
X9915420Y-18270936D02*
X9905896Y-18280460D01*
X9905896Y-18280460D02*
X9886849Y-18289984D01*
X9886849Y-18289984D02*
X9867801Y-18289984D01*
X9867801Y-18289984D02*
X9848753Y-18280460D01*
X9848753Y-18280460D02*
X9839229Y-18270936D01*
X9839229Y-18270936D02*
X9829706Y-18251889D01*
X9829706Y-18251889D02*
X9820182Y-18213793D01*
X9820182Y-18213793D02*
X9820182Y-18166174D01*
X9820182Y-18166174D02*
X9829706Y-18128079D01*
X9829706Y-18128079D02*
X9839229Y-18109031D01*
X9839229Y-18109031D02*
X9848753Y-18099508D01*
X9848753Y-18099508D02*
X9867801Y-18089984D01*
X10058277Y-18089984D02*
X10077325Y-18089984D01*
X10077325Y-18089984D02*
X10096372Y-18099508D01*
X10096372Y-18099508D02*
X10105896Y-18109031D01*
X10105896Y-18109031D02*
X10115420Y-18128079D01*
X10115420Y-18128079D02*
X10124944Y-18166174D01*
X10124944Y-18166174D02*
X10124944Y-18213793D01*
X10124944Y-18213793D02*
X10115420Y-18251889D01*
X10115420Y-18251889D02*
X10105896Y-18270936D01*
X10105896Y-18270936D02*
X10096372Y-18280460D01*
X10096372Y-18280460D02*
X10077325Y-18289984D01*
X10077325Y-18289984D02*
X10058277Y-18289984D01*
X10058277Y-18289984D02*
X10039229Y-18280460D01*
X10039229Y-18280460D02*
X10029706Y-18270936D01*
X10029706Y-18270936D02*
X10020182Y-18251889D01*
X10020182Y-18251889D02*
X10010658Y-18213793D01*
X10010658Y-18213793D02*
X10010658Y-18166174D01*
X10010658Y-18166174D02*
X10020182Y-18128079D01*
X10020182Y-18128079D02*
X10029706Y-18109031D01*
X10029706Y-18109031D02*
X10039229Y-18099508D01*
X10039229Y-18099508D02*
X10058277Y-18089984D01*
X10201134Y-18089984D02*
X10201134Y-18128079D01*
X10277325Y-18089984D02*
X10277325Y-18128079D01*
X10572563Y-18366174D02*
X10563039Y-18356650D01*
X10563039Y-18356650D02*
X10543991Y-18328079D01*
X10543991Y-18328079D02*
X10534468Y-18309031D01*
X10534468Y-18309031D02*
X10524944Y-18280460D01*
X10524944Y-18280460D02*
X10515420Y-18232841D01*
X10515420Y-18232841D02*
X10515420Y-18194746D01*
X10515420Y-18194746D02*
X10524944Y-18147127D01*
X10524944Y-18147127D02*
X10534468Y-18118555D01*
X10534468Y-18118555D02*
X10543991Y-18099508D01*
X10543991Y-18099508D02*
X10563039Y-18070936D01*
X10563039Y-18070936D02*
X10572563Y-18061412D01*
X10753515Y-18289984D02*
X10639230Y-18289984D01*
X10696372Y-18289984D02*
X10696372Y-18089984D01*
X10696372Y-18089984D02*
X10677325Y-18118555D01*
X10677325Y-18118555D02*
X10658277Y-18137603D01*
X10658277Y-18137603D02*
X10639230Y-18147127D01*
X10820182Y-18089984D02*
X10943991Y-18089984D01*
X10943991Y-18089984D02*
X10877325Y-18166174D01*
X10877325Y-18166174D02*
X10905896Y-18166174D01*
X10905896Y-18166174D02*
X10924944Y-18175698D01*
X10924944Y-18175698D02*
X10934468Y-18185222D01*
X10934468Y-18185222D02*
X10943991Y-18204270D01*
X10943991Y-18204270D02*
X10943991Y-18251889D01*
X10943991Y-18251889D02*
X10934468Y-18270936D01*
X10934468Y-18270936D02*
X10924944Y-18280460D01*
X10924944Y-18280460D02*
X10905896Y-18289984D01*
X10905896Y-18289984D02*
X10848753Y-18289984D01*
X10848753Y-18289984D02*
X10829706Y-18280460D01*
X10829706Y-18280460D02*
X10820182Y-18270936D01*
X11182087Y-18289984D02*
X11182087Y-18089984D01*
X11267801Y-18289984D02*
X11267801Y-18185222D01*
X11267801Y-18185222D02*
X11258277Y-18166174D01*
X11258277Y-18166174D02*
X11239230Y-18156650D01*
X11239230Y-18156650D02*
X11210658Y-18156650D01*
X11210658Y-18156650D02*
X11191610Y-18166174D01*
X11191610Y-18166174D02*
X11182087Y-18175698D01*
X11391610Y-18289984D02*
X11372563Y-18280460D01*
X11372563Y-18280460D02*
X11363039Y-18270936D01*
X11363039Y-18270936D02*
X11353515Y-18251889D01*
X11353515Y-18251889D02*
X11353515Y-18194746D01*
X11353515Y-18194746D02*
X11363039Y-18175698D01*
X11363039Y-18175698D02*
X11372563Y-18166174D01*
X11372563Y-18166174D02*
X11391610Y-18156650D01*
X11391610Y-18156650D02*
X11420182Y-18156650D01*
X11420182Y-18156650D02*
X11439230Y-18166174D01*
X11439230Y-18166174D02*
X11448753Y-18175698D01*
X11448753Y-18175698D02*
X11458277Y-18194746D01*
X11458277Y-18194746D02*
X11458277Y-18251889D01*
X11458277Y-18251889D02*
X11448753Y-18270936D01*
X11448753Y-18270936D02*
X11439230Y-18280460D01*
X11439230Y-18280460D02*
X11420182Y-18289984D01*
X11420182Y-18289984D02*
X11391610Y-18289984D01*
X11572563Y-18289984D02*
X11553515Y-18280460D01*
X11553515Y-18280460D02*
X11543991Y-18261412D01*
X11543991Y-18261412D02*
X11543991Y-18089984D01*
X11724944Y-18280460D02*
X11705896Y-18289984D01*
X11705896Y-18289984D02*
X11667801Y-18289984D01*
X11667801Y-18289984D02*
X11648753Y-18280460D01*
X11648753Y-18280460D02*
X11639230Y-18261412D01*
X11639230Y-18261412D02*
X11639230Y-18185222D01*
X11639230Y-18185222D02*
X11648753Y-18166174D01*
X11648753Y-18166174D02*
X11667801Y-18156650D01*
X11667801Y-18156650D02*
X11705896Y-18156650D01*
X11705896Y-18156650D02*
X11724944Y-18166174D01*
X11724944Y-18166174D02*
X11734468Y-18185222D01*
X11734468Y-18185222D02*
X11734468Y-18204270D01*
X11734468Y-18204270D02*
X11639230Y-18223317D01*
X11810658Y-18280460D02*
X11829706Y-18289984D01*
X11829706Y-18289984D02*
X11867801Y-18289984D01*
X11867801Y-18289984D02*
X11886849Y-18280460D01*
X11886849Y-18280460D02*
X11896372Y-18261412D01*
X11896372Y-18261412D02*
X11896372Y-18251889D01*
X11896372Y-18251889D02*
X11886849Y-18232841D01*
X11886849Y-18232841D02*
X11867801Y-18223317D01*
X11867801Y-18223317D02*
X11839230Y-18223317D01*
X11839230Y-18223317D02*
X11820182Y-18213793D01*
X11820182Y-18213793D02*
X11810658Y-18194746D01*
X11810658Y-18194746D02*
X11810658Y-18185222D01*
X11810658Y-18185222D02*
X11820182Y-18166174D01*
X11820182Y-18166174D02*
X11839230Y-18156650D01*
X11839230Y-18156650D02*
X11867801Y-18156650D01*
X11867801Y-18156650D02*
X11886849Y-18166174D01*
X11963039Y-18366174D02*
X11972563Y-18356650D01*
X11972563Y-18356650D02*
X11991611Y-18328079D01*
X11991611Y-18328079D02*
X12001134Y-18309031D01*
X12001134Y-18309031D02*
X12010658Y-18280460D01*
X12010658Y-18280460D02*
X12020182Y-18232841D01*
X12020182Y-18232841D02*
X12020182Y-18194746D01*
X12020182Y-18194746D02*
X12010658Y-18147127D01*
X12010658Y-18147127D02*
X12001134Y-18118555D01*
X12001134Y-18118555D02*
X11991611Y-18099508D01*
X11991611Y-18099508D02*
X11972563Y-18070936D01*
X11972563Y-18070936D02*
X11963039Y-18061412D01*
X6797500Y-18362500D02*
X6997500Y-18562500D01*
X6997500Y-18362500D02*
X6797500Y-18562500D01*
X6997500Y-18462500D02*
G75*
G02*
X6797500Y-18462500I-100000J0D01*
G01*
X6797500Y-18462500D02*
G75*
G02*
X6997500Y-18462500I100000J0D01*
G01*
X7248753Y-18373031D02*
X7258277Y-18363508D01*
X7258277Y-18363508D02*
X7277324Y-18353984D01*
X7277324Y-18353984D02*
X7324943Y-18353984D01*
X7324943Y-18353984D02*
X7343991Y-18363508D01*
X7343991Y-18363508D02*
X7353515Y-18373031D01*
X7353515Y-18373031D02*
X7363039Y-18392079D01*
X7363039Y-18392079D02*
X7363039Y-18411127D01*
X7363039Y-18411127D02*
X7353515Y-18439698D01*
X7353515Y-18439698D02*
X7239229Y-18553984D01*
X7239229Y-18553984D02*
X7363039Y-18553984D01*
X7448753Y-18534936D02*
X7458277Y-18544460D01*
X7458277Y-18544460D02*
X7448753Y-18553984D01*
X7448753Y-18553984D02*
X7439229Y-18544460D01*
X7439229Y-18544460D02*
X7448753Y-18534936D01*
X7448753Y-18534936D02*
X7448753Y-18553984D01*
X7524943Y-18353984D02*
X7648753Y-18353984D01*
X7648753Y-18353984D02*
X7582086Y-18430174D01*
X7582086Y-18430174D02*
X7610658Y-18430174D01*
X7610658Y-18430174D02*
X7629705Y-18439698D01*
X7629705Y-18439698D02*
X7639229Y-18449222D01*
X7639229Y-18449222D02*
X7648753Y-18468270D01*
X7648753Y-18468270D02*
X7648753Y-18515889D01*
X7648753Y-18515889D02*
X7639229Y-18534936D01*
X7639229Y-18534936D02*
X7629705Y-18544460D01*
X7629705Y-18544460D02*
X7610658Y-18553984D01*
X7610658Y-18553984D02*
X7553515Y-18553984D01*
X7553515Y-18553984D02*
X7534467Y-18544460D01*
X7534467Y-18544460D02*
X7524943Y-18534936D01*
X7715420Y-18353984D02*
X7839229Y-18353984D01*
X7839229Y-18353984D02*
X7772562Y-18430174D01*
X7772562Y-18430174D02*
X7801134Y-18430174D01*
X7801134Y-18430174D02*
X7820182Y-18439698D01*
X7820182Y-18439698D02*
X7829705Y-18449222D01*
X7829705Y-18449222D02*
X7839229Y-18468270D01*
X7839229Y-18468270D02*
X7839229Y-18515889D01*
X7839229Y-18515889D02*
X7829705Y-18534936D01*
X7829705Y-18534936D02*
X7820182Y-18544460D01*
X7820182Y-18544460D02*
X7801134Y-18553984D01*
X7801134Y-18553984D02*
X7743991Y-18553984D01*
X7743991Y-18553984D02*
X7724943Y-18544460D01*
X7724943Y-18544460D02*
X7715420Y-18534936D01*
X7963039Y-18353984D02*
X7982086Y-18353984D01*
X7982086Y-18353984D02*
X8001134Y-18363508D01*
X8001134Y-18363508D02*
X8010658Y-18373031D01*
X8010658Y-18373031D02*
X8020182Y-18392079D01*
X8020182Y-18392079D02*
X8029705Y-18430174D01*
X8029705Y-18430174D02*
X8029705Y-18477793D01*
X8029705Y-18477793D02*
X8020182Y-18515889D01*
X8020182Y-18515889D02*
X8010658Y-18534936D01*
X8010658Y-18534936D02*
X8001134Y-18544460D01*
X8001134Y-18544460D02*
X7982086Y-18553984D01*
X7982086Y-18553984D02*
X7963039Y-18553984D01*
X7963039Y-18553984D02*
X7943991Y-18544460D01*
X7943991Y-18544460D02*
X7934467Y-18534936D01*
X7934467Y-18534936D02*
X7924943Y-18515889D01*
X7924943Y-18515889D02*
X7915420Y-18477793D01*
X7915420Y-18477793D02*
X7915420Y-18430174D01*
X7915420Y-18430174D02*
X7924943Y-18392079D01*
X7924943Y-18392079D02*
X7934467Y-18373031D01*
X7934467Y-18373031D02*
X7943991Y-18363508D01*
X7943991Y-18363508D02*
X7963039Y-18353984D01*
X8115420Y-18553984D02*
X8115420Y-18420650D01*
X8115420Y-18439698D02*
X8124943Y-18430174D01*
X8124943Y-18430174D02*
X8143991Y-18420650D01*
X8143991Y-18420650D02*
X8172563Y-18420650D01*
X8172563Y-18420650D02*
X8191610Y-18430174D01*
X8191610Y-18430174D02*
X8201134Y-18449222D01*
X8201134Y-18449222D02*
X8201134Y-18553984D01*
X8201134Y-18449222D02*
X8210658Y-18430174D01*
X8210658Y-18430174D02*
X8229705Y-18420650D01*
X8229705Y-18420650D02*
X8258277Y-18420650D01*
X8258277Y-18420650D02*
X8277324Y-18430174D01*
X8277324Y-18430174D02*
X8286848Y-18449222D01*
X8286848Y-18449222D02*
X8286848Y-18553984D01*
X8382086Y-18553984D02*
X8382086Y-18420650D01*
X8382086Y-18439698D02*
X8391610Y-18430174D01*
X8391610Y-18430174D02*
X8410658Y-18420650D01*
X8410658Y-18420650D02*
X8439229Y-18420650D01*
X8439229Y-18420650D02*
X8458277Y-18430174D01*
X8458277Y-18430174D02*
X8467801Y-18449222D01*
X8467801Y-18449222D02*
X8467801Y-18553984D01*
X8467801Y-18449222D02*
X8477325Y-18430174D01*
X8477325Y-18430174D02*
X8496372Y-18420650D01*
X8496372Y-18420650D02*
X8524944Y-18420650D01*
X8524944Y-18420650D02*
X8543991Y-18430174D01*
X8543991Y-18430174D02*
X8553515Y-18449222D01*
X8553515Y-18449222D02*
X8553515Y-18553984D01*
X8943991Y-18344460D02*
X8772563Y-18601603D01*
X9201134Y-18353984D02*
X9220182Y-18353984D01*
X9220182Y-18353984D02*
X9239229Y-18363508D01*
X9239229Y-18363508D02*
X9248753Y-18373031D01*
X9248753Y-18373031D02*
X9258277Y-18392079D01*
X9258277Y-18392079D02*
X9267801Y-18430174D01*
X9267801Y-18430174D02*
X9267801Y-18477793D01*
X9267801Y-18477793D02*
X9258277Y-18515889D01*
X9258277Y-18515889D02*
X9248753Y-18534936D01*
X9248753Y-18534936D02*
X9239229Y-18544460D01*
X9239229Y-18544460D02*
X9220182Y-18553984D01*
X9220182Y-18553984D02*
X9201134Y-18553984D01*
X9201134Y-18553984D02*
X9182087Y-18544460D01*
X9182087Y-18544460D02*
X9172563Y-18534936D01*
X9172563Y-18534936D02*
X9163039Y-18515889D01*
X9163039Y-18515889D02*
X9153515Y-18477793D01*
X9153515Y-18477793D02*
X9153515Y-18430174D01*
X9153515Y-18430174D02*
X9163039Y-18392079D01*
X9163039Y-18392079D02*
X9172563Y-18373031D01*
X9172563Y-18373031D02*
X9182087Y-18363508D01*
X9182087Y-18363508D02*
X9201134Y-18353984D01*
X9353515Y-18534936D02*
X9363039Y-18544460D01*
X9363039Y-18544460D02*
X9353515Y-18553984D01*
X9353515Y-18553984D02*
X9343991Y-18544460D01*
X9343991Y-18544460D02*
X9353515Y-18534936D01*
X9353515Y-18534936D02*
X9353515Y-18553984D01*
X9486848Y-18353984D02*
X9505896Y-18353984D01*
X9505896Y-18353984D02*
X9524944Y-18363508D01*
X9524944Y-18363508D02*
X9534468Y-18373031D01*
X9534468Y-18373031D02*
X9543991Y-18392079D01*
X9543991Y-18392079D02*
X9553515Y-18430174D01*
X9553515Y-18430174D02*
X9553515Y-18477793D01*
X9553515Y-18477793D02*
X9543991Y-18515889D01*
X9543991Y-18515889D02*
X9534468Y-18534936D01*
X9534468Y-18534936D02*
X9524944Y-18544460D01*
X9524944Y-18544460D02*
X9505896Y-18553984D01*
X9505896Y-18553984D02*
X9486848Y-18553984D01*
X9486848Y-18553984D02*
X9467801Y-18544460D01*
X9467801Y-18544460D02*
X9458277Y-18534936D01*
X9458277Y-18534936D02*
X9448753Y-18515889D01*
X9448753Y-18515889D02*
X9439229Y-18477793D01*
X9439229Y-18477793D02*
X9439229Y-18430174D01*
X9439229Y-18430174D02*
X9448753Y-18392079D01*
X9448753Y-18392079D02*
X9458277Y-18373031D01*
X9458277Y-18373031D02*
X9467801Y-18363508D01*
X9467801Y-18363508D02*
X9486848Y-18353984D01*
X9648753Y-18553984D02*
X9686848Y-18553984D01*
X9686848Y-18553984D02*
X9705896Y-18544460D01*
X9705896Y-18544460D02*
X9715420Y-18534936D01*
X9715420Y-18534936D02*
X9734468Y-18506365D01*
X9734468Y-18506365D02*
X9743991Y-18468270D01*
X9743991Y-18468270D02*
X9743991Y-18392079D01*
X9743991Y-18392079D02*
X9734468Y-18373031D01*
X9734468Y-18373031D02*
X9724944Y-18363508D01*
X9724944Y-18363508D02*
X9705896Y-18353984D01*
X9705896Y-18353984D02*
X9667801Y-18353984D01*
X9667801Y-18353984D02*
X9648753Y-18363508D01*
X9648753Y-18363508D02*
X9639229Y-18373031D01*
X9639229Y-18373031D02*
X9629706Y-18392079D01*
X9629706Y-18392079D02*
X9629706Y-18439698D01*
X9629706Y-18439698D02*
X9639229Y-18458746D01*
X9639229Y-18458746D02*
X9648753Y-18468270D01*
X9648753Y-18468270D02*
X9667801Y-18477793D01*
X9667801Y-18477793D02*
X9705896Y-18477793D01*
X9705896Y-18477793D02*
X9724944Y-18468270D01*
X9724944Y-18468270D02*
X9734468Y-18458746D01*
X9734468Y-18458746D02*
X9743991Y-18439698D01*
X9934468Y-18553984D02*
X9820182Y-18553984D01*
X9877325Y-18553984D02*
X9877325Y-18353984D01*
X9877325Y-18353984D02*
X9858277Y-18382555D01*
X9858277Y-18382555D02*
X9839229Y-18401603D01*
X9839229Y-18401603D02*
X9820182Y-18411127D01*
X10001134Y-18353984D02*
X10134468Y-18353984D01*
X10134468Y-18353984D02*
X10048753Y-18553984D01*
X10201134Y-18353984D02*
X10201134Y-18392079D01*
X10277325Y-18353984D02*
X10277325Y-18392079D01*
X10572563Y-18630174D02*
X10563039Y-18620650D01*
X10563039Y-18620650D02*
X10543991Y-18592079D01*
X10543991Y-18592079D02*
X10534468Y-18573031D01*
X10534468Y-18573031D02*
X10524944Y-18544460D01*
X10524944Y-18544460D02*
X10515420Y-18496841D01*
X10515420Y-18496841D02*
X10515420Y-18458746D01*
X10515420Y-18458746D02*
X10524944Y-18411127D01*
X10524944Y-18411127D02*
X10534468Y-18382555D01*
X10534468Y-18382555D02*
X10543991Y-18363508D01*
X10543991Y-18363508D02*
X10563039Y-18334936D01*
X10563039Y-18334936D02*
X10572563Y-18325412D01*
X10639230Y-18373031D02*
X10648753Y-18363508D01*
X10648753Y-18363508D02*
X10667801Y-18353984D01*
X10667801Y-18353984D02*
X10715420Y-18353984D01*
X10715420Y-18353984D02*
X10734468Y-18363508D01*
X10734468Y-18363508D02*
X10743991Y-18373031D01*
X10743991Y-18373031D02*
X10753515Y-18392079D01*
X10753515Y-18392079D02*
X10753515Y-18411127D01*
X10753515Y-18411127D02*
X10743991Y-18439698D01*
X10743991Y-18439698D02*
X10629706Y-18553984D01*
X10629706Y-18553984D02*
X10753515Y-18553984D01*
X10991611Y-18553984D02*
X10991611Y-18353984D01*
X11077325Y-18553984D02*
X11077325Y-18449222D01*
X11077325Y-18449222D02*
X11067801Y-18430174D01*
X11067801Y-18430174D02*
X11048753Y-18420650D01*
X11048753Y-18420650D02*
X11020182Y-18420650D01*
X11020182Y-18420650D02*
X11001134Y-18430174D01*
X11001134Y-18430174D02*
X10991611Y-18439698D01*
X11201134Y-18553984D02*
X11182087Y-18544460D01*
X11182087Y-18544460D02*
X11172563Y-18534936D01*
X11172563Y-18534936D02*
X11163039Y-18515889D01*
X11163039Y-18515889D02*
X11163039Y-18458746D01*
X11163039Y-18458746D02*
X11172563Y-18439698D01*
X11172563Y-18439698D02*
X11182087Y-18430174D01*
X11182087Y-18430174D02*
X11201134Y-18420650D01*
X11201134Y-18420650D02*
X11229706Y-18420650D01*
X11229706Y-18420650D02*
X11248753Y-18430174D01*
X11248753Y-18430174D02*
X11258277Y-18439698D01*
X11258277Y-18439698D02*
X11267801Y-18458746D01*
X11267801Y-18458746D02*
X11267801Y-18515889D01*
X11267801Y-18515889D02*
X11258277Y-18534936D01*
X11258277Y-18534936D02*
X11248753Y-18544460D01*
X11248753Y-18544460D02*
X11229706Y-18553984D01*
X11229706Y-18553984D02*
X11201134Y-18553984D01*
X11382087Y-18553984D02*
X11363039Y-18544460D01*
X11363039Y-18544460D02*
X11353515Y-18525412D01*
X11353515Y-18525412D02*
X11353515Y-18353984D01*
X11534468Y-18544460D02*
X11515420Y-18553984D01*
X11515420Y-18553984D02*
X11477325Y-18553984D01*
X11477325Y-18553984D02*
X11458277Y-18544460D01*
X11458277Y-18544460D02*
X11448753Y-18525412D01*
X11448753Y-18525412D02*
X11448753Y-18449222D01*
X11448753Y-18449222D02*
X11458277Y-18430174D01*
X11458277Y-18430174D02*
X11477325Y-18420650D01*
X11477325Y-18420650D02*
X11515420Y-18420650D01*
X11515420Y-18420650D02*
X11534468Y-18430174D01*
X11534468Y-18430174D02*
X11543991Y-18449222D01*
X11543991Y-18449222D02*
X11543991Y-18468270D01*
X11543991Y-18468270D02*
X11448753Y-18487317D01*
X11620182Y-18544460D02*
X11639230Y-18553984D01*
X11639230Y-18553984D02*
X11677325Y-18553984D01*
X11677325Y-18553984D02*
X11696372Y-18544460D01*
X11696372Y-18544460D02*
X11705896Y-18525412D01*
X11705896Y-18525412D02*
X11705896Y-18515889D01*
X11705896Y-18515889D02*
X11696372Y-18496841D01*
X11696372Y-18496841D02*
X11677325Y-18487317D01*
X11677325Y-18487317D02*
X11648753Y-18487317D01*
X11648753Y-18487317D02*
X11629706Y-18477793D01*
X11629706Y-18477793D02*
X11620182Y-18458746D01*
X11620182Y-18458746D02*
X11620182Y-18449222D01*
X11620182Y-18449222D02*
X11629706Y-18430174D01*
X11629706Y-18430174D02*
X11648753Y-18420650D01*
X11648753Y-18420650D02*
X11677325Y-18420650D01*
X11677325Y-18420650D02*
X11696372Y-18430174D01*
X11772563Y-18630174D02*
X11782087Y-18620650D01*
X11782087Y-18620650D02*
X11801134Y-18592079D01*
X11801134Y-18592079D02*
X11810658Y-18573031D01*
X11810658Y-18573031D02*
X11820182Y-18544460D01*
X11820182Y-18544460D02*
X11829706Y-18496841D01*
X11829706Y-18496841D02*
X11829706Y-18458746D01*
X11829706Y-18458746D02*
X11820182Y-18411127D01*
X11820182Y-18411127D02*
X11810658Y-18382555D01*
X11810658Y-18382555D02*
X11801134Y-18363508D01*
X11801134Y-18363508D02*
X11782087Y-18334936D01*
X11782087Y-18334936D02*
X11772563Y-18325412D01*
X6797500Y-18682500D02*
X6997500Y-18882500D01*
X6997500Y-18682500D02*
X6797500Y-18882500D01*
X6897500Y-18682500D02*
X6897500Y-18882500D01*
X6797500Y-18782500D02*
X6997500Y-18782500D01*
X7248753Y-18693031D02*
X7258277Y-18683508D01*
X7258277Y-18683508D02*
X7277324Y-18673984D01*
X7277324Y-18673984D02*
X7324943Y-18673984D01*
X7324943Y-18673984D02*
X7343991Y-18683508D01*
X7343991Y-18683508D02*
X7353515Y-18693031D01*
X7353515Y-18693031D02*
X7363039Y-18712079D01*
X7363039Y-18712079D02*
X7363039Y-18731127D01*
X7363039Y-18731127D02*
X7353515Y-18759698D01*
X7353515Y-18759698D02*
X7239229Y-18873984D01*
X7239229Y-18873984D02*
X7363039Y-18873984D01*
X7448753Y-18854936D02*
X7458277Y-18864460D01*
X7458277Y-18864460D02*
X7448753Y-18873984D01*
X7448753Y-18873984D02*
X7439229Y-18864460D01*
X7439229Y-18864460D02*
X7448753Y-18854936D01*
X7448753Y-18854936D02*
X7448753Y-18873984D01*
X7524943Y-18673984D02*
X7658277Y-18673984D01*
X7658277Y-18673984D02*
X7572562Y-18873984D01*
X7772562Y-18673984D02*
X7791610Y-18673984D01*
X7791610Y-18673984D02*
X7810658Y-18683508D01*
X7810658Y-18683508D02*
X7820182Y-18693031D01*
X7820182Y-18693031D02*
X7829705Y-18712079D01*
X7829705Y-18712079D02*
X7839229Y-18750174D01*
X7839229Y-18750174D02*
X7839229Y-18797793D01*
X7839229Y-18797793D02*
X7829705Y-18835889D01*
X7829705Y-18835889D02*
X7820182Y-18854936D01*
X7820182Y-18854936D02*
X7810658Y-18864460D01*
X7810658Y-18864460D02*
X7791610Y-18873984D01*
X7791610Y-18873984D02*
X7772562Y-18873984D01*
X7772562Y-18873984D02*
X7753515Y-18864460D01*
X7753515Y-18864460D02*
X7743991Y-18854936D01*
X7743991Y-18854936D02*
X7734467Y-18835889D01*
X7734467Y-18835889D02*
X7724943Y-18797793D01*
X7724943Y-18797793D02*
X7724943Y-18750174D01*
X7724943Y-18750174D02*
X7734467Y-18712079D01*
X7734467Y-18712079D02*
X7743991Y-18693031D01*
X7743991Y-18693031D02*
X7753515Y-18683508D01*
X7753515Y-18683508D02*
X7772562Y-18673984D01*
X7963039Y-18673984D02*
X7982086Y-18673984D01*
X7982086Y-18673984D02*
X8001134Y-18683508D01*
X8001134Y-18683508D02*
X8010658Y-18693031D01*
X8010658Y-18693031D02*
X8020182Y-18712079D01*
X8020182Y-18712079D02*
X8029705Y-18750174D01*
X8029705Y-18750174D02*
X8029705Y-18797793D01*
X8029705Y-18797793D02*
X8020182Y-18835889D01*
X8020182Y-18835889D02*
X8010658Y-18854936D01*
X8010658Y-18854936D02*
X8001134Y-18864460D01*
X8001134Y-18864460D02*
X7982086Y-18873984D01*
X7982086Y-18873984D02*
X7963039Y-18873984D01*
X7963039Y-18873984D02*
X7943991Y-18864460D01*
X7943991Y-18864460D02*
X7934467Y-18854936D01*
X7934467Y-18854936D02*
X7924943Y-18835889D01*
X7924943Y-18835889D02*
X7915420Y-18797793D01*
X7915420Y-18797793D02*
X7915420Y-18750174D01*
X7915420Y-18750174D02*
X7924943Y-18712079D01*
X7924943Y-18712079D02*
X7934467Y-18693031D01*
X7934467Y-18693031D02*
X7943991Y-18683508D01*
X7943991Y-18683508D02*
X7963039Y-18673984D01*
X8115420Y-18873984D02*
X8115420Y-18740650D01*
X8115420Y-18759698D02*
X8124943Y-18750174D01*
X8124943Y-18750174D02*
X8143991Y-18740650D01*
X8143991Y-18740650D02*
X8172563Y-18740650D01*
X8172563Y-18740650D02*
X8191610Y-18750174D01*
X8191610Y-18750174D02*
X8201134Y-18769222D01*
X8201134Y-18769222D02*
X8201134Y-18873984D01*
X8201134Y-18769222D02*
X8210658Y-18750174D01*
X8210658Y-18750174D02*
X8229705Y-18740650D01*
X8229705Y-18740650D02*
X8258277Y-18740650D01*
X8258277Y-18740650D02*
X8277324Y-18750174D01*
X8277324Y-18750174D02*
X8286848Y-18769222D01*
X8286848Y-18769222D02*
X8286848Y-18873984D01*
X8382086Y-18873984D02*
X8382086Y-18740650D01*
X8382086Y-18759698D02*
X8391610Y-18750174D01*
X8391610Y-18750174D02*
X8410658Y-18740650D01*
X8410658Y-18740650D02*
X8439229Y-18740650D01*
X8439229Y-18740650D02*
X8458277Y-18750174D01*
X8458277Y-18750174D02*
X8467801Y-18769222D01*
X8467801Y-18769222D02*
X8467801Y-18873984D01*
X8467801Y-18769222D02*
X8477325Y-18750174D01*
X8477325Y-18750174D02*
X8496372Y-18740650D01*
X8496372Y-18740650D02*
X8524944Y-18740650D01*
X8524944Y-18740650D02*
X8543991Y-18750174D01*
X8543991Y-18750174D02*
X8553515Y-18769222D01*
X8553515Y-18769222D02*
X8553515Y-18873984D01*
X8943991Y-18664460D02*
X8772563Y-18921603D01*
X9201134Y-18673984D02*
X9220182Y-18673984D01*
X9220182Y-18673984D02*
X9239229Y-18683508D01*
X9239229Y-18683508D02*
X9248753Y-18693031D01*
X9248753Y-18693031D02*
X9258277Y-18712079D01*
X9258277Y-18712079D02*
X9267801Y-18750174D01*
X9267801Y-18750174D02*
X9267801Y-18797793D01*
X9267801Y-18797793D02*
X9258277Y-18835889D01*
X9258277Y-18835889D02*
X9248753Y-18854936D01*
X9248753Y-18854936D02*
X9239229Y-18864460D01*
X9239229Y-18864460D02*
X9220182Y-18873984D01*
X9220182Y-18873984D02*
X9201134Y-18873984D01*
X9201134Y-18873984D02*
X9182087Y-18864460D01*
X9182087Y-18864460D02*
X9172563Y-18854936D01*
X9172563Y-18854936D02*
X9163039Y-18835889D01*
X9163039Y-18835889D02*
X9153515Y-18797793D01*
X9153515Y-18797793D02*
X9153515Y-18750174D01*
X9153515Y-18750174D02*
X9163039Y-18712079D01*
X9163039Y-18712079D02*
X9172563Y-18693031D01*
X9172563Y-18693031D02*
X9182087Y-18683508D01*
X9182087Y-18683508D02*
X9201134Y-18673984D01*
X9353515Y-18854936D02*
X9363039Y-18864460D01*
X9363039Y-18864460D02*
X9353515Y-18873984D01*
X9353515Y-18873984D02*
X9343991Y-18864460D01*
X9343991Y-18864460D02*
X9353515Y-18854936D01*
X9353515Y-18854936D02*
X9353515Y-18873984D01*
X9553515Y-18873984D02*
X9439229Y-18873984D01*
X9496372Y-18873984D02*
X9496372Y-18673984D01*
X9496372Y-18673984D02*
X9477325Y-18702555D01*
X9477325Y-18702555D02*
X9458277Y-18721603D01*
X9458277Y-18721603D02*
X9439229Y-18731127D01*
X9677325Y-18673984D02*
X9696372Y-18673984D01*
X9696372Y-18673984D02*
X9715420Y-18683508D01*
X9715420Y-18683508D02*
X9724944Y-18693031D01*
X9724944Y-18693031D02*
X9734468Y-18712079D01*
X9734468Y-18712079D02*
X9743991Y-18750174D01*
X9743991Y-18750174D02*
X9743991Y-18797793D01*
X9743991Y-18797793D02*
X9734468Y-18835889D01*
X9734468Y-18835889D02*
X9724944Y-18854936D01*
X9724944Y-18854936D02*
X9715420Y-18864460D01*
X9715420Y-18864460D02*
X9696372Y-18873984D01*
X9696372Y-18873984D02*
X9677325Y-18873984D01*
X9677325Y-18873984D02*
X9658277Y-18864460D01*
X9658277Y-18864460D02*
X9648753Y-18854936D01*
X9648753Y-18854936D02*
X9639229Y-18835889D01*
X9639229Y-18835889D02*
X9629706Y-18797793D01*
X9629706Y-18797793D02*
X9629706Y-18750174D01*
X9629706Y-18750174D02*
X9639229Y-18712079D01*
X9639229Y-18712079D02*
X9648753Y-18693031D01*
X9648753Y-18693031D02*
X9658277Y-18683508D01*
X9658277Y-18683508D02*
X9677325Y-18673984D01*
X9915420Y-18673984D02*
X9877325Y-18673984D01*
X9877325Y-18673984D02*
X9858277Y-18683508D01*
X9858277Y-18683508D02*
X9848753Y-18693031D01*
X9848753Y-18693031D02*
X9829706Y-18721603D01*
X9829706Y-18721603D02*
X9820182Y-18759698D01*
X9820182Y-18759698D02*
X9820182Y-18835889D01*
X9820182Y-18835889D02*
X9829706Y-18854936D01*
X9829706Y-18854936D02*
X9839229Y-18864460D01*
X9839229Y-18864460D02*
X9858277Y-18873984D01*
X9858277Y-18873984D02*
X9896372Y-18873984D01*
X9896372Y-18873984D02*
X9915420Y-18864460D01*
X9915420Y-18864460D02*
X9924944Y-18854936D01*
X9924944Y-18854936D02*
X9934468Y-18835889D01*
X9934468Y-18835889D02*
X9934468Y-18788270D01*
X9934468Y-18788270D02*
X9924944Y-18769222D01*
X9924944Y-18769222D02*
X9915420Y-18759698D01*
X9915420Y-18759698D02*
X9896372Y-18750174D01*
X9896372Y-18750174D02*
X9858277Y-18750174D01*
X9858277Y-18750174D02*
X9839229Y-18759698D01*
X9839229Y-18759698D02*
X9829706Y-18769222D01*
X9829706Y-18769222D02*
X9820182Y-18788270D01*
X10001134Y-18673984D02*
X10124944Y-18673984D01*
X10124944Y-18673984D02*
X10058277Y-18750174D01*
X10058277Y-18750174D02*
X10086849Y-18750174D01*
X10086849Y-18750174D02*
X10105896Y-18759698D01*
X10105896Y-18759698D02*
X10115420Y-18769222D01*
X10115420Y-18769222D02*
X10124944Y-18788270D01*
X10124944Y-18788270D02*
X10124944Y-18835889D01*
X10124944Y-18835889D02*
X10115420Y-18854936D01*
X10115420Y-18854936D02*
X10105896Y-18864460D01*
X10105896Y-18864460D02*
X10086849Y-18873984D01*
X10086849Y-18873984D02*
X10029706Y-18873984D01*
X10029706Y-18873984D02*
X10010658Y-18864460D01*
X10010658Y-18864460D02*
X10001134Y-18854936D01*
X10201134Y-18673984D02*
X10201134Y-18712079D01*
X10277325Y-18673984D02*
X10277325Y-18712079D01*
X10572563Y-18950174D02*
X10563039Y-18940650D01*
X10563039Y-18940650D02*
X10543991Y-18912079D01*
X10543991Y-18912079D02*
X10534468Y-18893031D01*
X10534468Y-18893031D02*
X10524944Y-18864460D01*
X10524944Y-18864460D02*
X10515420Y-18816841D01*
X10515420Y-18816841D02*
X10515420Y-18778746D01*
X10515420Y-18778746D02*
X10524944Y-18731127D01*
X10524944Y-18731127D02*
X10534468Y-18702555D01*
X10534468Y-18702555D02*
X10543991Y-18683508D01*
X10543991Y-18683508D02*
X10563039Y-18654936D01*
X10563039Y-18654936D02*
X10572563Y-18645412D01*
X10734468Y-18740650D02*
X10734468Y-18873984D01*
X10686849Y-18664460D02*
X10639230Y-18807317D01*
X10639230Y-18807317D02*
X10763039Y-18807317D01*
X10991611Y-18873984D02*
X10991611Y-18673984D01*
X11077325Y-18873984D02*
X11077325Y-18769222D01*
X11077325Y-18769222D02*
X11067801Y-18750174D01*
X11067801Y-18750174D02*
X11048753Y-18740650D01*
X11048753Y-18740650D02*
X11020182Y-18740650D01*
X11020182Y-18740650D02*
X11001134Y-18750174D01*
X11001134Y-18750174D02*
X10991611Y-18759698D01*
X11201134Y-18873984D02*
X11182087Y-18864460D01*
X11182087Y-18864460D02*
X11172563Y-18854936D01*
X11172563Y-18854936D02*
X11163039Y-18835889D01*
X11163039Y-18835889D02*
X11163039Y-18778746D01*
X11163039Y-18778746D02*
X11172563Y-18759698D01*
X11172563Y-18759698D02*
X11182087Y-18750174D01*
X11182087Y-18750174D02*
X11201134Y-18740650D01*
X11201134Y-18740650D02*
X11229706Y-18740650D01*
X11229706Y-18740650D02*
X11248753Y-18750174D01*
X11248753Y-18750174D02*
X11258277Y-18759698D01*
X11258277Y-18759698D02*
X11267801Y-18778746D01*
X11267801Y-18778746D02*
X11267801Y-18835889D01*
X11267801Y-18835889D02*
X11258277Y-18854936D01*
X11258277Y-18854936D02*
X11248753Y-18864460D01*
X11248753Y-18864460D02*
X11229706Y-18873984D01*
X11229706Y-18873984D02*
X11201134Y-18873984D01*
X11382087Y-18873984D02*
X11363039Y-18864460D01*
X11363039Y-18864460D02*
X11353515Y-18845412D01*
X11353515Y-18845412D02*
X11353515Y-18673984D01*
X11534468Y-18864460D02*
X11515420Y-18873984D01*
X11515420Y-18873984D02*
X11477325Y-18873984D01*
X11477325Y-18873984D02*
X11458277Y-18864460D01*
X11458277Y-18864460D02*
X11448753Y-18845412D01*
X11448753Y-18845412D02*
X11448753Y-18769222D01*
X11448753Y-18769222D02*
X11458277Y-18750174D01*
X11458277Y-18750174D02*
X11477325Y-18740650D01*
X11477325Y-18740650D02*
X11515420Y-18740650D01*
X11515420Y-18740650D02*
X11534468Y-18750174D01*
X11534468Y-18750174D02*
X11543991Y-18769222D01*
X11543991Y-18769222D02*
X11543991Y-18788270D01*
X11543991Y-18788270D02*
X11448753Y-18807317D01*
X11620182Y-18864460D02*
X11639230Y-18873984D01*
X11639230Y-18873984D02*
X11677325Y-18873984D01*
X11677325Y-18873984D02*
X11696372Y-18864460D01*
X11696372Y-18864460D02*
X11705896Y-18845412D01*
X11705896Y-18845412D02*
X11705896Y-18835889D01*
X11705896Y-18835889D02*
X11696372Y-18816841D01*
X11696372Y-18816841D02*
X11677325Y-18807317D01*
X11677325Y-18807317D02*
X11648753Y-18807317D01*
X11648753Y-18807317D02*
X11629706Y-18797793D01*
X11629706Y-18797793D02*
X11620182Y-18778746D01*
X11620182Y-18778746D02*
X11620182Y-18769222D01*
X11620182Y-18769222D02*
X11629706Y-18750174D01*
X11629706Y-18750174D02*
X11648753Y-18740650D01*
X11648753Y-18740650D02*
X11677325Y-18740650D01*
X11677325Y-18740650D02*
X11696372Y-18750174D01*
X11772563Y-18950174D02*
X11782087Y-18940650D01*
X11782087Y-18940650D02*
X11801134Y-18912079D01*
X11801134Y-18912079D02*
X11810658Y-18893031D01*
X11810658Y-18893031D02*
X11820182Y-18864460D01*
X11820182Y-18864460D02*
X11829706Y-18816841D01*
X11829706Y-18816841D02*
X11829706Y-18778746D01*
X11829706Y-18778746D02*
X11820182Y-18731127D01*
X11820182Y-18731127D02*
X11810658Y-18702555D01*
X11810658Y-18702555D02*
X11801134Y-18683508D01*
X11801134Y-18683508D02*
X11782087Y-18654936D01*
X11782087Y-18654936D02*
X11772563Y-18645412D01*
X6797500Y-19002500D02*
X6997500Y-19202500D01*
X6997500Y-19002500D02*
X6797500Y-19202500D01*
X6968211Y-19173211D02*
X6968211Y-19031789D01*
X6826789Y-19031789D01*
X6826789Y-19173211D01*
X6968211Y-19173211D01*
X7248753Y-19013031D02*
X7258277Y-19003508D01*
X7258277Y-19003508D02*
X7277324Y-18993984D01*
X7277324Y-18993984D02*
X7324943Y-18993984D01*
X7324943Y-18993984D02*
X7343991Y-19003508D01*
X7343991Y-19003508D02*
X7353515Y-19013031D01*
X7353515Y-19013031D02*
X7363039Y-19032079D01*
X7363039Y-19032079D02*
X7363039Y-19051127D01*
X7363039Y-19051127D02*
X7353515Y-19079698D01*
X7353515Y-19079698D02*
X7239229Y-19193984D01*
X7239229Y-19193984D02*
X7363039Y-19193984D01*
X7448753Y-19174936D02*
X7458277Y-19184460D01*
X7458277Y-19184460D02*
X7448753Y-19193984D01*
X7448753Y-19193984D02*
X7439229Y-19184460D01*
X7439229Y-19184460D02*
X7448753Y-19174936D01*
X7448753Y-19174936D02*
X7448753Y-19193984D01*
X7553515Y-19193984D02*
X7591610Y-19193984D01*
X7591610Y-19193984D02*
X7610658Y-19184460D01*
X7610658Y-19184460D02*
X7620182Y-19174936D01*
X7620182Y-19174936D02*
X7639229Y-19146365D01*
X7639229Y-19146365D02*
X7648753Y-19108270D01*
X7648753Y-19108270D02*
X7648753Y-19032079D01*
X7648753Y-19032079D02*
X7639229Y-19013031D01*
X7639229Y-19013031D02*
X7629705Y-19003508D01*
X7629705Y-19003508D02*
X7610658Y-18993984D01*
X7610658Y-18993984D02*
X7572562Y-18993984D01*
X7572562Y-18993984D02*
X7553515Y-19003508D01*
X7553515Y-19003508D02*
X7543991Y-19013031D01*
X7543991Y-19013031D02*
X7534467Y-19032079D01*
X7534467Y-19032079D02*
X7534467Y-19079698D01*
X7534467Y-19079698D02*
X7543991Y-19098746D01*
X7543991Y-19098746D02*
X7553515Y-19108270D01*
X7553515Y-19108270D02*
X7572562Y-19117793D01*
X7572562Y-19117793D02*
X7610658Y-19117793D01*
X7610658Y-19117793D02*
X7629705Y-19108270D01*
X7629705Y-19108270D02*
X7639229Y-19098746D01*
X7639229Y-19098746D02*
X7648753Y-19079698D01*
X7743991Y-19193984D02*
X7782086Y-19193984D01*
X7782086Y-19193984D02*
X7801134Y-19184460D01*
X7801134Y-19184460D02*
X7810658Y-19174936D01*
X7810658Y-19174936D02*
X7829705Y-19146365D01*
X7829705Y-19146365D02*
X7839229Y-19108270D01*
X7839229Y-19108270D02*
X7839229Y-19032079D01*
X7839229Y-19032079D02*
X7829705Y-19013031D01*
X7829705Y-19013031D02*
X7820182Y-19003508D01*
X7820182Y-19003508D02*
X7801134Y-18993984D01*
X7801134Y-18993984D02*
X7763039Y-18993984D01*
X7763039Y-18993984D02*
X7743991Y-19003508D01*
X7743991Y-19003508D02*
X7734467Y-19013031D01*
X7734467Y-19013031D02*
X7724943Y-19032079D01*
X7724943Y-19032079D02*
X7724943Y-19079698D01*
X7724943Y-19079698D02*
X7734467Y-19098746D01*
X7734467Y-19098746D02*
X7743991Y-19108270D01*
X7743991Y-19108270D02*
X7763039Y-19117793D01*
X7763039Y-19117793D02*
X7801134Y-19117793D01*
X7801134Y-19117793D02*
X7820182Y-19108270D01*
X7820182Y-19108270D02*
X7829705Y-19098746D01*
X7829705Y-19098746D02*
X7839229Y-19079698D01*
X7905896Y-18993984D02*
X8039229Y-18993984D01*
X8039229Y-18993984D02*
X7953515Y-19193984D01*
X8115420Y-19193984D02*
X8115420Y-19060650D01*
X8115420Y-19079698D02*
X8124943Y-19070174D01*
X8124943Y-19070174D02*
X8143991Y-19060650D01*
X8143991Y-19060650D02*
X8172563Y-19060650D01*
X8172563Y-19060650D02*
X8191610Y-19070174D01*
X8191610Y-19070174D02*
X8201134Y-19089222D01*
X8201134Y-19089222D02*
X8201134Y-19193984D01*
X8201134Y-19089222D02*
X8210658Y-19070174D01*
X8210658Y-19070174D02*
X8229705Y-19060650D01*
X8229705Y-19060650D02*
X8258277Y-19060650D01*
X8258277Y-19060650D02*
X8277324Y-19070174D01*
X8277324Y-19070174D02*
X8286848Y-19089222D01*
X8286848Y-19089222D02*
X8286848Y-19193984D01*
X8382086Y-19193984D02*
X8382086Y-19060650D01*
X8382086Y-19079698D02*
X8391610Y-19070174D01*
X8391610Y-19070174D02*
X8410658Y-19060650D01*
X8410658Y-19060650D02*
X8439229Y-19060650D01*
X8439229Y-19060650D02*
X8458277Y-19070174D01*
X8458277Y-19070174D02*
X8467801Y-19089222D01*
X8467801Y-19089222D02*
X8467801Y-19193984D01*
X8467801Y-19089222D02*
X8477325Y-19070174D01*
X8477325Y-19070174D02*
X8496372Y-19060650D01*
X8496372Y-19060650D02*
X8524944Y-19060650D01*
X8524944Y-19060650D02*
X8543991Y-19070174D01*
X8543991Y-19070174D02*
X8553515Y-19089222D01*
X8553515Y-19089222D02*
X8553515Y-19193984D01*
X8943991Y-18984460D02*
X8772563Y-19241603D01*
X9201134Y-18993984D02*
X9220182Y-18993984D01*
X9220182Y-18993984D02*
X9239229Y-19003508D01*
X9239229Y-19003508D02*
X9248753Y-19013031D01*
X9248753Y-19013031D02*
X9258277Y-19032079D01*
X9258277Y-19032079D02*
X9267801Y-19070174D01*
X9267801Y-19070174D02*
X9267801Y-19117793D01*
X9267801Y-19117793D02*
X9258277Y-19155889D01*
X9258277Y-19155889D02*
X9248753Y-19174936D01*
X9248753Y-19174936D02*
X9239229Y-19184460D01*
X9239229Y-19184460D02*
X9220182Y-19193984D01*
X9220182Y-19193984D02*
X9201134Y-19193984D01*
X9201134Y-19193984D02*
X9182087Y-19184460D01*
X9182087Y-19184460D02*
X9172563Y-19174936D01*
X9172563Y-19174936D02*
X9163039Y-19155889D01*
X9163039Y-19155889D02*
X9153515Y-19117793D01*
X9153515Y-19117793D02*
X9153515Y-19070174D01*
X9153515Y-19070174D02*
X9163039Y-19032079D01*
X9163039Y-19032079D02*
X9172563Y-19013031D01*
X9172563Y-19013031D02*
X9182087Y-19003508D01*
X9182087Y-19003508D02*
X9201134Y-18993984D01*
X9353515Y-19174936D02*
X9363039Y-19184460D01*
X9363039Y-19184460D02*
X9353515Y-19193984D01*
X9353515Y-19193984D02*
X9343991Y-19184460D01*
X9343991Y-19184460D02*
X9353515Y-19174936D01*
X9353515Y-19174936D02*
X9353515Y-19193984D01*
X9553515Y-19193984D02*
X9439229Y-19193984D01*
X9496372Y-19193984D02*
X9496372Y-18993984D01*
X9496372Y-18993984D02*
X9477325Y-19022555D01*
X9477325Y-19022555D02*
X9458277Y-19041603D01*
X9458277Y-19041603D02*
X9439229Y-19051127D01*
X9743991Y-19193984D02*
X9629706Y-19193984D01*
X9686848Y-19193984D02*
X9686848Y-18993984D01*
X9686848Y-18993984D02*
X9667801Y-19022555D01*
X9667801Y-19022555D02*
X9648753Y-19041603D01*
X9648753Y-19041603D02*
X9629706Y-19051127D01*
X9858277Y-19079698D02*
X9839229Y-19070174D01*
X9839229Y-19070174D02*
X9829706Y-19060650D01*
X9829706Y-19060650D02*
X9820182Y-19041603D01*
X9820182Y-19041603D02*
X9820182Y-19032079D01*
X9820182Y-19032079D02*
X9829706Y-19013031D01*
X9829706Y-19013031D02*
X9839229Y-19003508D01*
X9839229Y-19003508D02*
X9858277Y-18993984D01*
X9858277Y-18993984D02*
X9896372Y-18993984D01*
X9896372Y-18993984D02*
X9915420Y-19003508D01*
X9915420Y-19003508D02*
X9924944Y-19013031D01*
X9924944Y-19013031D02*
X9934468Y-19032079D01*
X9934468Y-19032079D02*
X9934468Y-19041603D01*
X9934468Y-19041603D02*
X9924944Y-19060650D01*
X9924944Y-19060650D02*
X9915420Y-19070174D01*
X9915420Y-19070174D02*
X9896372Y-19079698D01*
X9896372Y-19079698D02*
X9858277Y-19079698D01*
X9858277Y-19079698D02*
X9839229Y-19089222D01*
X9839229Y-19089222D02*
X9829706Y-19098746D01*
X9829706Y-19098746D02*
X9820182Y-19117793D01*
X9820182Y-19117793D02*
X9820182Y-19155889D01*
X9820182Y-19155889D02*
X9829706Y-19174936D01*
X9829706Y-19174936D02*
X9839229Y-19184460D01*
X9839229Y-19184460D02*
X9858277Y-19193984D01*
X9858277Y-19193984D02*
X9896372Y-19193984D01*
X9896372Y-19193984D02*
X9915420Y-19184460D01*
X9915420Y-19184460D02*
X9924944Y-19174936D01*
X9924944Y-19174936D02*
X9934468Y-19155889D01*
X9934468Y-19155889D02*
X9934468Y-19117793D01*
X9934468Y-19117793D02*
X9924944Y-19098746D01*
X9924944Y-19098746D02*
X9915420Y-19089222D01*
X9915420Y-19089222D02*
X9896372Y-19079698D01*
X10058277Y-18993984D02*
X10077325Y-18993984D01*
X10077325Y-18993984D02*
X10096372Y-19003508D01*
X10096372Y-19003508D02*
X10105896Y-19013031D01*
X10105896Y-19013031D02*
X10115420Y-19032079D01*
X10115420Y-19032079D02*
X10124944Y-19070174D01*
X10124944Y-19070174D02*
X10124944Y-19117793D01*
X10124944Y-19117793D02*
X10115420Y-19155889D01*
X10115420Y-19155889D02*
X10105896Y-19174936D01*
X10105896Y-19174936D02*
X10096372Y-19184460D01*
X10096372Y-19184460D02*
X10077325Y-19193984D01*
X10077325Y-19193984D02*
X10058277Y-19193984D01*
X10058277Y-19193984D02*
X10039229Y-19184460D01*
X10039229Y-19184460D02*
X10029706Y-19174936D01*
X10029706Y-19174936D02*
X10020182Y-19155889D01*
X10020182Y-19155889D02*
X10010658Y-19117793D01*
X10010658Y-19117793D02*
X10010658Y-19070174D01*
X10010658Y-19070174D02*
X10020182Y-19032079D01*
X10020182Y-19032079D02*
X10029706Y-19013031D01*
X10029706Y-19013031D02*
X10039229Y-19003508D01*
X10039229Y-19003508D02*
X10058277Y-18993984D01*
X10201134Y-18993984D02*
X10201134Y-19032079D01*
X10277325Y-18993984D02*
X10277325Y-19032079D01*
X10572563Y-19270174D02*
X10563039Y-19260650D01*
X10563039Y-19260650D02*
X10543991Y-19232079D01*
X10543991Y-19232079D02*
X10534468Y-19213031D01*
X10534468Y-19213031D02*
X10524944Y-19184460D01*
X10524944Y-19184460D02*
X10515420Y-19136841D01*
X10515420Y-19136841D02*
X10515420Y-19098746D01*
X10515420Y-19098746D02*
X10524944Y-19051127D01*
X10524944Y-19051127D02*
X10534468Y-19022555D01*
X10534468Y-19022555D02*
X10543991Y-19003508D01*
X10543991Y-19003508D02*
X10563039Y-18974936D01*
X10563039Y-18974936D02*
X10572563Y-18965412D01*
X10629706Y-18993984D02*
X10753515Y-18993984D01*
X10753515Y-18993984D02*
X10686849Y-19070174D01*
X10686849Y-19070174D02*
X10715420Y-19070174D01*
X10715420Y-19070174D02*
X10734468Y-19079698D01*
X10734468Y-19079698D02*
X10743991Y-19089222D01*
X10743991Y-19089222D02*
X10753515Y-19108270D01*
X10753515Y-19108270D02*
X10753515Y-19155889D01*
X10753515Y-19155889D02*
X10743991Y-19174936D01*
X10743991Y-19174936D02*
X10734468Y-19184460D01*
X10734468Y-19184460D02*
X10715420Y-19193984D01*
X10715420Y-19193984D02*
X10658277Y-19193984D01*
X10658277Y-19193984D02*
X10639230Y-19184460D01*
X10639230Y-19184460D02*
X10629706Y-19174936D01*
X10991611Y-19193984D02*
X10991611Y-18993984D01*
X11077325Y-19193984D02*
X11077325Y-19089222D01*
X11077325Y-19089222D02*
X11067801Y-19070174D01*
X11067801Y-19070174D02*
X11048753Y-19060650D01*
X11048753Y-19060650D02*
X11020182Y-19060650D01*
X11020182Y-19060650D02*
X11001134Y-19070174D01*
X11001134Y-19070174D02*
X10991611Y-19079698D01*
X11201134Y-19193984D02*
X11182087Y-19184460D01*
X11182087Y-19184460D02*
X11172563Y-19174936D01*
X11172563Y-19174936D02*
X11163039Y-19155889D01*
X11163039Y-19155889D02*
X11163039Y-19098746D01*
X11163039Y-19098746D02*
X11172563Y-19079698D01*
X11172563Y-19079698D02*
X11182087Y-19070174D01*
X11182087Y-19070174D02*
X11201134Y-19060650D01*
X11201134Y-19060650D02*
X11229706Y-19060650D01*
X11229706Y-19060650D02*
X11248753Y-19070174D01*
X11248753Y-19070174D02*
X11258277Y-19079698D01*
X11258277Y-19079698D02*
X11267801Y-19098746D01*
X11267801Y-19098746D02*
X11267801Y-19155889D01*
X11267801Y-19155889D02*
X11258277Y-19174936D01*
X11258277Y-19174936D02*
X11248753Y-19184460D01*
X11248753Y-19184460D02*
X11229706Y-19193984D01*
X11229706Y-19193984D02*
X11201134Y-19193984D01*
X11382087Y-19193984D02*
X11363039Y-19184460D01*
X11363039Y-19184460D02*
X11353515Y-19165412D01*
X11353515Y-19165412D02*
X11353515Y-18993984D01*
X11534468Y-19184460D02*
X11515420Y-19193984D01*
X11515420Y-19193984D02*
X11477325Y-19193984D01*
X11477325Y-19193984D02*
X11458277Y-19184460D01*
X11458277Y-19184460D02*
X11448753Y-19165412D01*
X11448753Y-19165412D02*
X11448753Y-19089222D01*
X11448753Y-19089222D02*
X11458277Y-19070174D01*
X11458277Y-19070174D02*
X11477325Y-19060650D01*
X11477325Y-19060650D02*
X11515420Y-19060650D01*
X11515420Y-19060650D02*
X11534468Y-19070174D01*
X11534468Y-19070174D02*
X11543991Y-19089222D01*
X11543991Y-19089222D02*
X11543991Y-19108270D01*
X11543991Y-19108270D02*
X11448753Y-19127317D01*
X11620182Y-19184460D02*
X11639230Y-19193984D01*
X11639230Y-19193984D02*
X11677325Y-19193984D01*
X11677325Y-19193984D02*
X11696372Y-19184460D01*
X11696372Y-19184460D02*
X11705896Y-19165412D01*
X11705896Y-19165412D02*
X11705896Y-19155889D01*
X11705896Y-19155889D02*
X11696372Y-19136841D01*
X11696372Y-19136841D02*
X11677325Y-19127317D01*
X11677325Y-19127317D02*
X11648753Y-19127317D01*
X11648753Y-19127317D02*
X11629706Y-19117793D01*
X11629706Y-19117793D02*
X11620182Y-19098746D01*
X11620182Y-19098746D02*
X11620182Y-19089222D01*
X11620182Y-19089222D02*
X11629706Y-19070174D01*
X11629706Y-19070174D02*
X11648753Y-19060650D01*
X11648753Y-19060650D02*
X11677325Y-19060650D01*
X11677325Y-19060650D02*
X11696372Y-19070174D01*
X11772563Y-19270174D02*
X11782087Y-19260650D01*
X11782087Y-19260650D02*
X11801134Y-19232079D01*
X11801134Y-19232079D02*
X11810658Y-19213031D01*
X11810658Y-19213031D02*
X11820182Y-19184460D01*
X11820182Y-19184460D02*
X11829706Y-19136841D01*
X11829706Y-19136841D02*
X11829706Y-19098746D01*
X11829706Y-19098746D02*
X11820182Y-19051127D01*
X11820182Y-19051127D02*
X11810658Y-19022555D01*
X11810658Y-19022555D02*
X11801134Y-19003508D01*
X11801134Y-19003508D02*
X11782087Y-18974936D01*
X11782087Y-18974936D02*
X11772563Y-18965412D01*
X6797500Y-19322500D02*
X6997500Y-19522500D01*
X6997500Y-19322500D02*
X6797500Y-19522500D01*
X6897500Y-19522500D02*
X6997500Y-19422500D01*
X6897500Y-19322500D01*
X6797500Y-19422500D01*
X6897500Y-19522500D01*
X7239229Y-19313984D02*
X7363039Y-19313984D01*
X7363039Y-19313984D02*
X7296372Y-19390174D01*
X7296372Y-19390174D02*
X7324943Y-19390174D01*
X7324943Y-19390174D02*
X7343991Y-19399698D01*
X7343991Y-19399698D02*
X7353515Y-19409222D01*
X7353515Y-19409222D02*
X7363039Y-19428270D01*
X7363039Y-19428270D02*
X7363039Y-19475889D01*
X7363039Y-19475889D02*
X7353515Y-19494936D01*
X7353515Y-19494936D02*
X7343991Y-19504460D01*
X7343991Y-19504460D02*
X7324943Y-19513984D01*
X7324943Y-19513984D02*
X7267801Y-19513984D01*
X7267801Y-19513984D02*
X7248753Y-19504460D01*
X7248753Y-19504460D02*
X7239229Y-19494936D01*
X7448753Y-19494936D02*
X7458277Y-19504460D01*
X7458277Y-19504460D02*
X7448753Y-19513984D01*
X7448753Y-19513984D02*
X7439229Y-19504460D01*
X7439229Y-19504460D02*
X7448753Y-19494936D01*
X7448753Y-19494936D02*
X7448753Y-19513984D01*
X7524943Y-19313984D02*
X7648753Y-19313984D01*
X7648753Y-19313984D02*
X7582086Y-19390174D01*
X7582086Y-19390174D02*
X7610658Y-19390174D01*
X7610658Y-19390174D02*
X7629705Y-19399698D01*
X7629705Y-19399698D02*
X7639229Y-19409222D01*
X7639229Y-19409222D02*
X7648753Y-19428270D01*
X7648753Y-19428270D02*
X7648753Y-19475889D01*
X7648753Y-19475889D02*
X7639229Y-19494936D01*
X7639229Y-19494936D02*
X7629705Y-19504460D01*
X7629705Y-19504460D02*
X7610658Y-19513984D01*
X7610658Y-19513984D02*
X7553515Y-19513984D01*
X7553515Y-19513984D02*
X7534467Y-19504460D01*
X7534467Y-19504460D02*
X7524943Y-19494936D01*
X7772562Y-19313984D02*
X7791610Y-19313984D01*
X7791610Y-19313984D02*
X7810658Y-19323508D01*
X7810658Y-19323508D02*
X7820182Y-19333031D01*
X7820182Y-19333031D02*
X7829705Y-19352079D01*
X7829705Y-19352079D02*
X7839229Y-19390174D01*
X7839229Y-19390174D02*
X7839229Y-19437793D01*
X7839229Y-19437793D02*
X7829705Y-19475889D01*
X7829705Y-19475889D02*
X7820182Y-19494936D01*
X7820182Y-19494936D02*
X7810658Y-19504460D01*
X7810658Y-19504460D02*
X7791610Y-19513984D01*
X7791610Y-19513984D02*
X7772562Y-19513984D01*
X7772562Y-19513984D02*
X7753515Y-19504460D01*
X7753515Y-19504460D02*
X7743991Y-19494936D01*
X7743991Y-19494936D02*
X7734467Y-19475889D01*
X7734467Y-19475889D02*
X7724943Y-19437793D01*
X7724943Y-19437793D02*
X7724943Y-19390174D01*
X7724943Y-19390174D02*
X7734467Y-19352079D01*
X7734467Y-19352079D02*
X7743991Y-19333031D01*
X7743991Y-19333031D02*
X7753515Y-19323508D01*
X7753515Y-19323508D02*
X7772562Y-19313984D01*
X7915420Y-19333031D02*
X7924943Y-19323508D01*
X7924943Y-19323508D02*
X7943991Y-19313984D01*
X7943991Y-19313984D02*
X7991610Y-19313984D01*
X7991610Y-19313984D02*
X8010658Y-19323508D01*
X8010658Y-19323508D02*
X8020182Y-19333031D01*
X8020182Y-19333031D02*
X8029705Y-19352079D01*
X8029705Y-19352079D02*
X8029705Y-19371127D01*
X8029705Y-19371127D02*
X8020182Y-19399698D01*
X8020182Y-19399698D02*
X7905896Y-19513984D01*
X7905896Y-19513984D02*
X8029705Y-19513984D01*
X8115420Y-19513984D02*
X8115420Y-19380650D01*
X8115420Y-19399698D02*
X8124943Y-19390174D01*
X8124943Y-19390174D02*
X8143991Y-19380650D01*
X8143991Y-19380650D02*
X8172563Y-19380650D01*
X8172563Y-19380650D02*
X8191610Y-19390174D01*
X8191610Y-19390174D02*
X8201134Y-19409222D01*
X8201134Y-19409222D02*
X8201134Y-19513984D01*
X8201134Y-19409222D02*
X8210658Y-19390174D01*
X8210658Y-19390174D02*
X8229705Y-19380650D01*
X8229705Y-19380650D02*
X8258277Y-19380650D01*
X8258277Y-19380650D02*
X8277324Y-19390174D01*
X8277324Y-19390174D02*
X8286848Y-19409222D01*
X8286848Y-19409222D02*
X8286848Y-19513984D01*
X8382086Y-19513984D02*
X8382086Y-19380650D01*
X8382086Y-19399698D02*
X8391610Y-19390174D01*
X8391610Y-19390174D02*
X8410658Y-19380650D01*
X8410658Y-19380650D02*
X8439229Y-19380650D01*
X8439229Y-19380650D02*
X8458277Y-19390174D01*
X8458277Y-19390174D02*
X8467801Y-19409222D01*
X8467801Y-19409222D02*
X8467801Y-19513984D01*
X8467801Y-19409222D02*
X8477325Y-19390174D01*
X8477325Y-19390174D02*
X8496372Y-19380650D01*
X8496372Y-19380650D02*
X8524944Y-19380650D01*
X8524944Y-19380650D02*
X8543991Y-19390174D01*
X8543991Y-19390174D02*
X8553515Y-19409222D01*
X8553515Y-19409222D02*
X8553515Y-19513984D01*
X8943991Y-19304460D02*
X8772563Y-19561603D01*
X9201134Y-19313984D02*
X9220182Y-19313984D01*
X9220182Y-19313984D02*
X9239229Y-19323508D01*
X9239229Y-19323508D02*
X9248753Y-19333031D01*
X9248753Y-19333031D02*
X9258277Y-19352079D01*
X9258277Y-19352079D02*
X9267801Y-19390174D01*
X9267801Y-19390174D02*
X9267801Y-19437793D01*
X9267801Y-19437793D02*
X9258277Y-19475889D01*
X9258277Y-19475889D02*
X9248753Y-19494936D01*
X9248753Y-19494936D02*
X9239229Y-19504460D01*
X9239229Y-19504460D02*
X9220182Y-19513984D01*
X9220182Y-19513984D02*
X9201134Y-19513984D01*
X9201134Y-19513984D02*
X9182087Y-19504460D01*
X9182087Y-19504460D02*
X9172563Y-19494936D01*
X9172563Y-19494936D02*
X9163039Y-19475889D01*
X9163039Y-19475889D02*
X9153515Y-19437793D01*
X9153515Y-19437793D02*
X9153515Y-19390174D01*
X9153515Y-19390174D02*
X9163039Y-19352079D01*
X9163039Y-19352079D02*
X9172563Y-19333031D01*
X9172563Y-19333031D02*
X9182087Y-19323508D01*
X9182087Y-19323508D02*
X9201134Y-19313984D01*
X9353515Y-19494936D02*
X9363039Y-19504460D01*
X9363039Y-19504460D02*
X9353515Y-19513984D01*
X9353515Y-19513984D02*
X9343991Y-19504460D01*
X9343991Y-19504460D02*
X9353515Y-19494936D01*
X9353515Y-19494936D02*
X9353515Y-19513984D01*
X9553515Y-19513984D02*
X9439229Y-19513984D01*
X9496372Y-19513984D02*
X9496372Y-19313984D01*
X9496372Y-19313984D02*
X9477325Y-19342555D01*
X9477325Y-19342555D02*
X9458277Y-19361603D01*
X9458277Y-19361603D02*
X9439229Y-19371127D01*
X9620182Y-19313984D02*
X9743991Y-19313984D01*
X9743991Y-19313984D02*
X9677325Y-19390174D01*
X9677325Y-19390174D02*
X9705896Y-19390174D01*
X9705896Y-19390174D02*
X9724944Y-19399698D01*
X9724944Y-19399698D02*
X9734468Y-19409222D01*
X9734468Y-19409222D02*
X9743991Y-19428270D01*
X9743991Y-19428270D02*
X9743991Y-19475889D01*
X9743991Y-19475889D02*
X9734468Y-19494936D01*
X9734468Y-19494936D02*
X9724944Y-19504460D01*
X9724944Y-19504460D02*
X9705896Y-19513984D01*
X9705896Y-19513984D02*
X9648753Y-19513984D01*
X9648753Y-19513984D02*
X9629706Y-19504460D01*
X9629706Y-19504460D02*
X9620182Y-19494936D01*
X9867801Y-19313984D02*
X9886849Y-19313984D01*
X9886849Y-19313984D02*
X9905896Y-19323508D01*
X9905896Y-19323508D02*
X9915420Y-19333031D01*
X9915420Y-19333031D02*
X9924944Y-19352079D01*
X9924944Y-19352079D02*
X9934468Y-19390174D01*
X9934468Y-19390174D02*
X9934468Y-19437793D01*
X9934468Y-19437793D02*
X9924944Y-19475889D01*
X9924944Y-19475889D02*
X9915420Y-19494936D01*
X9915420Y-19494936D02*
X9905896Y-19504460D01*
X9905896Y-19504460D02*
X9886849Y-19513984D01*
X9886849Y-19513984D02*
X9867801Y-19513984D01*
X9867801Y-19513984D02*
X9848753Y-19504460D01*
X9848753Y-19504460D02*
X9839229Y-19494936D01*
X9839229Y-19494936D02*
X9829706Y-19475889D01*
X9829706Y-19475889D02*
X9820182Y-19437793D01*
X9820182Y-19437793D02*
X9820182Y-19390174D01*
X9820182Y-19390174D02*
X9829706Y-19352079D01*
X9829706Y-19352079D02*
X9839229Y-19333031D01*
X9839229Y-19333031D02*
X9848753Y-19323508D01*
X9848753Y-19323508D02*
X9867801Y-19313984D01*
X10058277Y-19313984D02*
X10077325Y-19313984D01*
X10077325Y-19313984D02*
X10096372Y-19323508D01*
X10096372Y-19323508D02*
X10105896Y-19333031D01*
X10105896Y-19333031D02*
X10115420Y-19352079D01*
X10115420Y-19352079D02*
X10124944Y-19390174D01*
X10124944Y-19390174D02*
X10124944Y-19437793D01*
X10124944Y-19437793D02*
X10115420Y-19475889D01*
X10115420Y-19475889D02*
X10105896Y-19494936D01*
X10105896Y-19494936D02*
X10096372Y-19504460D01*
X10096372Y-19504460D02*
X10077325Y-19513984D01*
X10077325Y-19513984D02*
X10058277Y-19513984D01*
X10058277Y-19513984D02*
X10039229Y-19504460D01*
X10039229Y-19504460D02*
X10029706Y-19494936D01*
X10029706Y-19494936D02*
X10020182Y-19475889D01*
X10020182Y-19475889D02*
X10010658Y-19437793D01*
X10010658Y-19437793D02*
X10010658Y-19390174D01*
X10010658Y-19390174D02*
X10020182Y-19352079D01*
X10020182Y-19352079D02*
X10029706Y-19333031D01*
X10029706Y-19333031D02*
X10039229Y-19323508D01*
X10039229Y-19323508D02*
X10058277Y-19313984D01*
X10201134Y-19313984D02*
X10201134Y-19352079D01*
X10277325Y-19313984D02*
X10277325Y-19352079D01*
X10572563Y-19590174D02*
X10563039Y-19580650D01*
X10563039Y-19580650D02*
X10543991Y-19552079D01*
X10543991Y-19552079D02*
X10534468Y-19533031D01*
X10534468Y-19533031D02*
X10524944Y-19504460D01*
X10524944Y-19504460D02*
X10515420Y-19456841D01*
X10515420Y-19456841D02*
X10515420Y-19418746D01*
X10515420Y-19418746D02*
X10524944Y-19371127D01*
X10524944Y-19371127D02*
X10534468Y-19342555D01*
X10534468Y-19342555D02*
X10543991Y-19323508D01*
X10543991Y-19323508D02*
X10563039Y-19294936D01*
X10563039Y-19294936D02*
X10572563Y-19285412D01*
X10639230Y-19333031D02*
X10648753Y-19323508D01*
X10648753Y-19323508D02*
X10667801Y-19313984D01*
X10667801Y-19313984D02*
X10715420Y-19313984D01*
X10715420Y-19313984D02*
X10734468Y-19323508D01*
X10734468Y-19323508D02*
X10743991Y-19333031D01*
X10743991Y-19333031D02*
X10753515Y-19352079D01*
X10753515Y-19352079D02*
X10753515Y-19371127D01*
X10753515Y-19371127D02*
X10743991Y-19399698D01*
X10743991Y-19399698D02*
X10629706Y-19513984D01*
X10629706Y-19513984D02*
X10753515Y-19513984D01*
X10991611Y-19513984D02*
X10991611Y-19313984D01*
X11077325Y-19513984D02*
X11077325Y-19409222D01*
X11077325Y-19409222D02*
X11067801Y-19390174D01*
X11067801Y-19390174D02*
X11048753Y-19380650D01*
X11048753Y-19380650D02*
X11020182Y-19380650D01*
X11020182Y-19380650D02*
X11001134Y-19390174D01*
X11001134Y-19390174D02*
X10991611Y-19399698D01*
X11201134Y-19513984D02*
X11182087Y-19504460D01*
X11182087Y-19504460D02*
X11172563Y-19494936D01*
X11172563Y-19494936D02*
X11163039Y-19475889D01*
X11163039Y-19475889D02*
X11163039Y-19418746D01*
X11163039Y-19418746D02*
X11172563Y-19399698D01*
X11172563Y-19399698D02*
X11182087Y-19390174D01*
X11182087Y-19390174D02*
X11201134Y-19380650D01*
X11201134Y-19380650D02*
X11229706Y-19380650D01*
X11229706Y-19380650D02*
X11248753Y-19390174D01*
X11248753Y-19390174D02*
X11258277Y-19399698D01*
X11258277Y-19399698D02*
X11267801Y-19418746D01*
X11267801Y-19418746D02*
X11267801Y-19475889D01*
X11267801Y-19475889D02*
X11258277Y-19494936D01*
X11258277Y-19494936D02*
X11248753Y-19504460D01*
X11248753Y-19504460D02*
X11229706Y-19513984D01*
X11229706Y-19513984D02*
X11201134Y-19513984D01*
X11382087Y-19513984D02*
X11363039Y-19504460D01*
X11363039Y-19504460D02*
X11353515Y-19485412D01*
X11353515Y-19485412D02*
X11353515Y-19313984D01*
X11534468Y-19504460D02*
X11515420Y-19513984D01*
X11515420Y-19513984D02*
X11477325Y-19513984D01*
X11477325Y-19513984D02*
X11458277Y-19504460D01*
X11458277Y-19504460D02*
X11448753Y-19485412D01*
X11448753Y-19485412D02*
X11448753Y-19409222D01*
X11448753Y-19409222D02*
X11458277Y-19390174D01*
X11458277Y-19390174D02*
X11477325Y-19380650D01*
X11477325Y-19380650D02*
X11515420Y-19380650D01*
X11515420Y-19380650D02*
X11534468Y-19390174D01*
X11534468Y-19390174D02*
X11543991Y-19409222D01*
X11543991Y-19409222D02*
X11543991Y-19428270D01*
X11543991Y-19428270D02*
X11448753Y-19447317D01*
X11620182Y-19504460D02*
X11639230Y-19513984D01*
X11639230Y-19513984D02*
X11677325Y-19513984D01*
X11677325Y-19513984D02*
X11696372Y-19504460D01*
X11696372Y-19504460D02*
X11705896Y-19485412D01*
X11705896Y-19485412D02*
X11705896Y-19475889D01*
X11705896Y-19475889D02*
X11696372Y-19456841D01*
X11696372Y-19456841D02*
X11677325Y-19447317D01*
X11677325Y-19447317D02*
X11648753Y-19447317D01*
X11648753Y-19447317D02*
X11629706Y-19437793D01*
X11629706Y-19437793D02*
X11620182Y-19418746D01*
X11620182Y-19418746D02*
X11620182Y-19409222D01*
X11620182Y-19409222D02*
X11629706Y-19390174D01*
X11629706Y-19390174D02*
X11648753Y-19380650D01*
X11648753Y-19380650D02*
X11677325Y-19380650D01*
X11677325Y-19380650D02*
X11696372Y-19390174D01*
X11772563Y-19590174D02*
X11782087Y-19580650D01*
X11782087Y-19580650D02*
X11801134Y-19552079D01*
X11801134Y-19552079D02*
X11810658Y-19533031D01*
X11810658Y-19533031D02*
X11820182Y-19504460D01*
X11820182Y-19504460D02*
X11829706Y-19456841D01*
X11829706Y-19456841D02*
X11829706Y-19418746D01*
X11829706Y-19418746D02*
X11820182Y-19371127D01*
X11820182Y-19371127D02*
X11810658Y-19342555D01*
X11810658Y-19342555D02*
X11801134Y-19323508D01*
X11801134Y-19323508D02*
X11782087Y-19294936D01*
X11782087Y-19294936D02*
X11772563Y-19285412D01*
M02*
