G04 #@! TF.GenerationSoftware,KiCad,Pcbnew,8.0.6*
G04 #@! TF.CreationDate,2025-01-16T23:29:27-05:00*
G04 #@! TF.ProjectId,RL78_F14_48p_Rev2,524c3738-5f46-4313-945f-3438705f5265,rev?*
G04 #@! TF.SameCoordinates,Original*
G04 #@! TF.FileFunction,Soldermask,Bot*
G04 #@! TF.FilePolarity,Negative*
%FSLAX46Y46*%
G04 Gerber Fmt 4.6, Leading zero omitted, Abs format (unit mm)*
G04 Created by KiCad (PCBNEW 8.0.6) date 2025-01-16 23:29:27*
%MOMM*%
%LPD*%
G01*
G04 APERTURE LIST*
%ADD10C,4.700000*%
%ADD11C,4.419600*%
%ADD12R,1.600000X1.600000*%
%ADD13O,1.600000X1.600000*%
%ADD14C,1.500000*%
%ADD15C,1.600000*%
%ADD16R,1.700000X1.700000*%
%ADD17O,1.700000X1.700000*%
%ADD18C,1.700000*%
%ADD19C,3.500000*%
%ADD20R,2.400000X1.600000*%
%ADD21O,2.400000X1.600000*%
%ADD22R,1.350000X1.350000*%
%ADD23O,1.350000X1.350000*%
%ADD24O,3.149600X1.625600*%
%ADD25C,1.625600*%
%ADD26C,5.181600*%
G04 APERTURE END LIST*
D10*
X78000000Y-73000000D03*
X162000000Y-73000000D03*
X78000000Y-157000000D03*
X159997000Y-156643000D03*
D11*
X77850000Y-144000000D03*
X80850000Y-148700000D03*
X83850000Y-144000000D03*
D12*
X113000000Y-132000000D03*
D13*
X105380000Y-132000000D03*
D14*
X79895000Y-90900000D03*
X84775000Y-90900000D03*
D12*
X96465000Y-157050000D03*
D15*
X96465000Y-159550000D03*
D12*
X113000000Y-120000000D03*
D13*
X105380000Y-120000000D03*
D16*
X100000000Y-111000000D03*
D17*
X100000000Y-113540000D03*
X100000000Y-116080000D03*
X100000000Y-118620000D03*
X100000000Y-121160000D03*
X100000000Y-123700000D03*
X100000000Y-126240000D03*
X100000000Y-128780000D03*
X100000000Y-131320000D03*
D12*
X90650000Y-149575000D03*
D15*
X88150000Y-149575000D03*
D12*
X113000000Y-124000000D03*
D13*
X105380000Y-124000000D03*
D12*
X145100000Y-118950000D03*
D13*
X145100000Y-121490000D03*
X145100000Y-124030000D03*
X145100000Y-126570000D03*
X152720000Y-126570000D03*
X152720000Y-124030000D03*
X152720000Y-121490000D03*
X152720000Y-118950000D03*
D16*
X92000000Y-77380000D03*
D18*
X94500000Y-77380000D03*
X94500000Y-75380000D03*
X92000000Y-75380000D03*
D19*
X87230000Y-72670000D03*
X99270000Y-72670000D03*
D20*
X167790000Y-98600000D03*
D21*
X167790000Y-96060000D03*
X167790000Y-93520000D03*
X167790000Y-90980000D03*
X167790000Y-88440000D03*
X167790000Y-85900000D03*
X147470000Y-85900000D03*
X147470000Y-88440000D03*
X147470000Y-90980000D03*
X147470000Y-93520000D03*
X147470000Y-96060000D03*
X147470000Y-98600000D03*
D12*
X113000000Y-128000000D03*
D13*
X105380000Y-128000000D03*
D22*
X122650000Y-74500000D03*
D23*
X124650000Y-74500000D03*
X126650000Y-74500000D03*
X128650000Y-74500000D03*
X130650000Y-74500000D03*
D12*
X113000000Y-116000000D03*
D13*
X105380000Y-116000000D03*
D16*
X150075000Y-141300000D03*
D17*
X152615000Y-141300000D03*
D16*
X78000000Y-107000000D03*
D17*
X78000000Y-109540000D03*
X78000000Y-112080000D03*
X78000000Y-114620000D03*
X78000000Y-117160000D03*
D24*
X77898800Y-129389400D03*
X84401200Y-129389400D03*
X77898800Y-133910600D03*
X84401200Y-133910600D03*
D25*
X159430000Y-120513600D03*
X159430000Y-123256800D03*
X159430000Y-126000000D03*
X159430000Y-128743200D03*
X159430000Y-131486400D03*
X161970000Y-121885200D03*
X161970000Y-124628400D03*
X161970000Y-127371600D03*
X161970000Y-130114800D03*
D26*
X160700000Y-113477800D03*
X160700000Y-138522200D03*
D16*
X91750000Y-134990000D03*
D17*
X91750000Y-132450000D03*
D16*
X146910000Y-160000000D03*
D17*
X146910000Y-162540000D03*
X144370000Y-160000000D03*
X144370000Y-162540000D03*
X141830000Y-160000000D03*
X141830000Y-162540000D03*
X139290000Y-160000000D03*
X139290000Y-162540000D03*
X136750000Y-160000000D03*
X136750000Y-162540000D03*
X134210000Y-160000000D03*
X134210000Y-162540000D03*
X131670000Y-160000000D03*
X131670000Y-162540000D03*
X129130000Y-160000000D03*
X129130000Y-162540000D03*
X126590000Y-160000000D03*
X126590000Y-162540000D03*
X124050000Y-160000000D03*
X124050000Y-162540000D03*
X121510000Y-160000000D03*
X121510000Y-162540000D03*
X118970000Y-160000000D03*
X118970000Y-162540000D03*
X116430000Y-160000000D03*
X116430000Y-162540000D03*
M02*
