G04 #@! TF.GenerationSoftware,KiCad,Pcbnew,8.0.6*
G04 #@! TF.CreationDate,2025-01-16T23:29:27-05:00*
G04 #@! TF.ProjectId,RL78_F14_48p_Rev2,524c3738-5f46-4313-945f-3438705f5265,rev?*
G04 #@! TF.SameCoordinates,Original*
G04 #@! TF.FileFunction,Soldermask,Top*
G04 #@! TF.FilePolarity,Negative*
%FSLAX46Y46*%
G04 Gerber Fmt 4.6, Leading zero omitted, Abs format (unit mm)*
G04 Created by KiCad (PCBNEW 8.0.6) date 2025-01-16 23:29:27*
%MOMM*%
%LPD*%
G01*
G04 APERTURE LIST*
G04 Aperture macros list*
%AMRoundRect*
0 Rectangle with rounded corners*
0 $1 Rounding radius*
0 $2 $3 $4 $5 $6 $7 $8 $9 X,Y pos of 4 corners*
0 Add a 4 corners polygon primitive as box body*
4,1,4,$2,$3,$4,$5,$6,$7,$8,$9,$2,$3,0*
0 Add four circle primitives for the rounded corners*
1,1,$1+$1,$2,$3*
1,1,$1+$1,$4,$5*
1,1,$1+$1,$6,$7*
1,1,$1+$1,$8,$9*
0 Add four rect primitives between the rounded corners*
20,1,$1+$1,$2,$3,$4,$5,0*
20,1,$1+$1,$4,$5,$6,$7,0*
20,1,$1+$1,$6,$7,$8,$9,0*
20,1,$1+$1,$8,$9,$2,$3,0*%
G04 Aperture macros list end*
%ADD10C,4.700000*%
%ADD11C,4.419600*%
%ADD12RoundRect,0.250000X-0.337500X-0.475000X0.337500X-0.475000X0.337500X0.475000X-0.337500X0.475000X0*%
%ADD13RoundRect,0.250000X-0.262500X-0.450000X0.262500X-0.450000X0.262500X0.450000X-0.262500X0.450000X0*%
%ADD14R,1.600000X1.600000*%
%ADD15O,1.600000X1.600000*%
%ADD16RoundRect,0.250000X0.475000X-0.337500X0.475000X0.337500X-0.475000X0.337500X-0.475000X-0.337500X0*%
%ADD17RoundRect,0.150000X-0.825000X-0.150000X0.825000X-0.150000X0.825000X0.150000X-0.825000X0.150000X0*%
%ADD18C,1.500000*%
%ADD19RoundRect,0.062500X-0.412500X-0.062500X0.412500X-0.062500X0.412500X0.062500X-0.412500X0.062500X0*%
%ADD20RoundRect,0.062500X-0.062500X-0.412500X0.062500X-0.412500X0.062500X0.412500X-0.062500X0.412500X0*%
%ADD21R,6.200000X6.200000*%
%ADD22RoundRect,0.250000X-0.450000X0.262500X-0.450000X-0.262500X0.450000X-0.262500X0.450000X0.262500X0*%
%ADD23RoundRect,0.250000X0.450000X-0.350000X0.450000X0.350000X-0.450000X0.350000X-0.450000X-0.350000X0*%
%ADD24C,1.600000*%
%ADD25R,1.460500X0.533400*%
%ADD26RoundRect,0.250000X0.262500X0.450000X-0.262500X0.450000X-0.262500X-0.450000X0.262500X-0.450000X0*%
%ADD27R,1.700000X1.700000*%
%ADD28O,1.700000X1.700000*%
%ADD29RoundRect,0.250000X-0.475000X0.337500X-0.475000X-0.337500X0.475000X-0.337500X0.475000X0.337500X0*%
%ADD30C,1.700000*%
%ADD31C,3.500000*%
%ADD32R,2.400000X1.600000*%
%ADD33O,2.400000X1.600000*%
%ADD34R,1.350000X1.350000*%
%ADD35O,1.350000X1.350000*%
%ADD36RoundRect,0.250000X0.337500X0.475000X-0.337500X0.475000X-0.337500X-0.475000X0.337500X-0.475000X0*%
%ADD37RoundRect,0.249999X-0.450001X-1.425001X0.450001X-1.425001X0.450001X1.425001X-0.450001X1.425001X0*%
%ADD38O,3.149600X1.625600*%
%ADD39RoundRect,0.375000X-0.625000X-0.375000X0.625000X-0.375000X0.625000X0.375000X-0.625000X0.375000X0*%
%ADD40RoundRect,0.500000X-0.500000X-1.400000X0.500000X-1.400000X0.500000X1.400000X-0.500000X1.400000X0*%
%ADD41C,1.625600*%
%ADD42C,5.181600*%
G04 APERTURE END LIST*
D10*
X78000000Y-73000000D03*
X162000000Y-73000000D03*
X78000000Y-157000000D03*
X159997000Y-156643000D03*
D11*
X77850000Y-144000000D03*
X80850000Y-148700000D03*
X83850000Y-144000000D03*
D12*
X88862500Y-143150000D03*
X90937500Y-143150000D03*
D13*
X87087500Y-107000000D03*
X88912500Y-107000000D03*
D14*
X113000000Y-132000000D03*
D15*
X105380000Y-132000000D03*
D16*
X87325000Y-84737500D03*
X87325000Y-82662500D03*
D17*
X108475000Y-136467500D03*
X108475000Y-137737500D03*
X108475000Y-139007500D03*
X108475000Y-140277500D03*
X108475000Y-141547500D03*
X108475000Y-142817500D03*
X108475000Y-144087500D03*
X113425000Y-144087500D03*
X113425000Y-142817500D03*
X113425000Y-141547500D03*
X113425000Y-140277500D03*
X113425000Y-139007500D03*
X113425000Y-137737500D03*
X113425000Y-136467500D03*
D18*
X79895000Y-90900000D03*
X84775000Y-90900000D03*
D19*
X121025000Y-100875000D03*
X121025000Y-101375000D03*
X121025000Y-101875000D03*
X121025000Y-102375000D03*
X121025000Y-102875000D03*
X121025000Y-103375000D03*
X121025000Y-103875000D03*
X121025000Y-104375000D03*
X121025000Y-104875000D03*
X121025000Y-105375000D03*
X121025000Y-105875000D03*
X121025000Y-106375000D03*
D20*
X122150000Y-107500000D03*
X122650000Y-107500000D03*
X123150000Y-107500000D03*
X123650000Y-107500000D03*
X124150000Y-107500000D03*
X124650000Y-107500000D03*
X125150000Y-107500000D03*
X125650000Y-107500000D03*
X126150000Y-107500000D03*
X126650000Y-107500000D03*
X127150000Y-107500000D03*
X127650000Y-107500000D03*
D19*
X128775000Y-106375000D03*
X128775000Y-105875000D03*
X128775000Y-105375000D03*
X128775000Y-104875000D03*
X128775000Y-104375000D03*
X128775000Y-103875000D03*
X128775000Y-103375000D03*
X128775000Y-102875000D03*
X128775000Y-102375000D03*
X128775000Y-101875000D03*
X128775000Y-101375000D03*
X128775000Y-100875000D03*
D20*
X127650000Y-99750000D03*
X127150000Y-99750000D03*
X126650000Y-99750000D03*
X126150000Y-99750000D03*
X125650000Y-99750000D03*
X125150000Y-99750000D03*
X124650000Y-99750000D03*
X124150000Y-99750000D03*
X123650000Y-99750000D03*
X123150000Y-99750000D03*
X122650000Y-99750000D03*
X122150000Y-99750000D03*
D21*
X124900000Y-103625000D03*
D22*
X81880000Y-112167500D03*
X81880000Y-113992500D03*
D12*
X99687500Y-82650000D03*
X101762500Y-82650000D03*
D23*
X84450000Y-126700000D03*
X84450000Y-124700000D03*
D13*
X95087500Y-109950000D03*
X96912500Y-109950000D03*
D14*
X96465000Y-157050000D03*
D24*
X96465000Y-159550000D03*
D25*
X120900050Y-118330000D03*
X120900050Y-119600000D03*
X120900050Y-120870000D03*
X120900050Y-122140000D03*
X126348350Y-122140000D03*
X126348350Y-120870000D03*
X126348350Y-119600000D03*
X126348350Y-118330000D03*
D14*
X113000000Y-120000000D03*
D15*
X105380000Y-120000000D03*
D12*
X126362500Y-115650000D03*
X128437500Y-115650000D03*
D13*
X87087500Y-112000000D03*
X88912500Y-112000000D03*
D26*
X130912500Y-124000000D03*
X129087500Y-124000000D03*
D27*
X100000000Y-111000000D03*
D28*
X100000000Y-113540000D03*
X100000000Y-116080000D03*
X100000000Y-118620000D03*
X100000000Y-121160000D03*
X100000000Y-123700000D03*
X100000000Y-126240000D03*
X100000000Y-128780000D03*
X100000000Y-131320000D03*
D14*
X90650000Y-149575000D03*
D24*
X88150000Y-149575000D03*
D14*
X113000000Y-124000000D03*
D15*
X105380000Y-124000000D03*
D29*
X116550000Y-106362500D03*
X116550000Y-108437500D03*
D26*
X130912500Y-119000000D03*
X129087500Y-119000000D03*
D14*
X145100000Y-118950000D03*
D15*
X145100000Y-121490000D03*
X145100000Y-124030000D03*
X145100000Y-126570000D03*
X152720000Y-126570000D03*
X152720000Y-124030000D03*
X152720000Y-121490000D03*
X152720000Y-118950000D03*
D12*
X152662500Y-129850000D03*
X154737500Y-129850000D03*
D27*
X92000000Y-77380000D03*
D30*
X94500000Y-77380000D03*
X94500000Y-75380000D03*
X92000000Y-75380000D03*
D31*
X87230000Y-72670000D03*
X99270000Y-72670000D03*
D17*
X91950000Y-82680000D03*
X91950000Y-83950000D03*
X91950000Y-85220000D03*
X91950000Y-86490000D03*
X91950000Y-87760000D03*
X91950000Y-89030000D03*
X91950000Y-90300000D03*
X91950000Y-91570000D03*
X96900000Y-91570000D03*
X96900000Y-90300000D03*
X96900000Y-89030000D03*
X96900000Y-87760000D03*
X96900000Y-86490000D03*
X96900000Y-85220000D03*
X96900000Y-83950000D03*
X96900000Y-82680000D03*
D12*
X116400000Y-136550000D03*
X118475000Y-136550000D03*
D32*
X167790000Y-98600000D03*
D33*
X167790000Y-96060000D03*
X167790000Y-93520000D03*
X167790000Y-90980000D03*
X167790000Y-88440000D03*
X167790000Y-85900000D03*
X147470000Y-85900000D03*
X147470000Y-88440000D03*
X147470000Y-90980000D03*
X147470000Y-93520000D03*
X147470000Y-96060000D03*
X147470000Y-98600000D03*
D14*
X113000000Y-128000000D03*
D15*
X105380000Y-128000000D03*
D29*
X89605000Y-156812500D03*
X89605000Y-158887500D03*
D34*
X122650000Y-74500000D03*
D35*
X124650000Y-74500000D03*
X126650000Y-74500000D03*
X128650000Y-74500000D03*
X130650000Y-74500000D03*
D14*
X113000000Y-116000000D03*
D15*
X105380000Y-116000000D03*
D36*
X85012500Y-95900000D03*
X82937500Y-95900000D03*
D16*
X155800000Y-126600000D03*
X155800000Y-124525000D03*
D12*
X79900000Y-85750000D03*
X81975000Y-85750000D03*
D22*
X81820000Y-106967500D03*
X81820000Y-108792500D03*
D27*
X150075000Y-141300000D03*
D28*
X152615000Y-141300000D03*
D27*
X78000000Y-107000000D03*
D28*
X78000000Y-109540000D03*
X78000000Y-112080000D03*
X78000000Y-114620000D03*
X78000000Y-117160000D03*
D37*
X148250000Y-135600000D03*
X154350000Y-135600000D03*
D38*
X77898800Y-129389400D03*
X84401200Y-129389400D03*
X77898800Y-133910600D03*
X84401200Y-133910600D03*
D39*
X96405000Y-146977500D03*
X96405000Y-149277500D03*
D40*
X102705000Y-149277500D03*
D39*
X96405000Y-151577500D03*
D36*
X121037500Y-110600000D03*
X118962500Y-110600000D03*
D13*
X95187500Y-114600000D03*
X97012500Y-114600000D03*
D26*
X130912500Y-121500000D03*
X129087500Y-121500000D03*
D41*
X159430000Y-120513600D03*
X159430000Y-123256800D03*
X159430000Y-126000000D03*
X159430000Y-128743200D03*
X159430000Y-131486400D03*
X161970000Y-121885200D03*
X161970000Y-124628400D03*
X161970000Y-127371600D03*
X161970000Y-130114800D03*
D42*
X160700000Y-113477800D03*
X160700000Y-138522200D03*
D27*
X91750000Y-134990000D03*
D28*
X91750000Y-132450000D03*
D27*
X146910000Y-160000000D03*
D28*
X146910000Y-162540000D03*
X144370000Y-160000000D03*
X144370000Y-162540000D03*
X141830000Y-160000000D03*
X141830000Y-162540000D03*
X139290000Y-160000000D03*
X139290000Y-162540000D03*
X136750000Y-160000000D03*
X136750000Y-162540000D03*
X134210000Y-160000000D03*
X134210000Y-162540000D03*
X131670000Y-160000000D03*
X131670000Y-162540000D03*
X129130000Y-160000000D03*
X129130000Y-162540000D03*
X126590000Y-160000000D03*
X126590000Y-162540000D03*
X124050000Y-160000000D03*
X124050000Y-162540000D03*
X121510000Y-160000000D03*
X121510000Y-162540000D03*
X118970000Y-160000000D03*
X118970000Y-162540000D03*
X116430000Y-160000000D03*
X116430000Y-162540000D03*
M02*
