%TF.GenerationSoftware,KiCad,Pcbnew,9.0.0*%
%TF.CreationDate,2025-04-09T14:41:31-04:00*%
%TF.ProjectId,PocketBeagle2_cape,506f636b-6574-4426-9561-676c65325f63,rev?*%
%TF.SameCoordinates,Original*%
%TF.FileFunction,Soldermask,Top*%
%TF.FilePolarity,Negative*%
%FSLAX46Y46*%
G04 Gerber Fmt 4.6, Leading zero omitted, Abs format (unit mm)*
G04 Created by KiCad (PCBNEW 9.0.0) date 2025-04-09 14:41:31*
%MOMM*%
%LPD*%
G01*
G04 APERTURE LIST*
G04 Aperture macros list*
%AMRoundRect*
0 Rectangle with rounded corners*
0 $1 Rounding radius*
0 $2 $3 $4 $5 $6 $7 $8 $9 X,Y pos of 4 corners*
0 Add a 4 corners polygon primitive as box body*
4,1,4,$2,$3,$4,$5,$6,$7,$8,$9,$2,$3,0*
0 Add four circle primitives for the rounded corners*
1,1,$1+$1,$2,$3*
1,1,$1+$1,$4,$5*
1,1,$1+$1,$6,$7*
1,1,$1+$1,$8,$9*
0 Add four rect primitives between the rounded corners*
20,1,$1+$1,$2,$3,$4,$5,0*
20,1,$1+$1,$4,$5,$6,$7,0*
20,1,$1+$1,$6,$7,$8,$9,0*
20,1,$1+$1,$8,$9,$2,$3,0*%
G04 Aperture macros list end*
%ADD10RoundRect,0.250000X0.475000X-0.250000X0.475000X0.250000X-0.475000X0.250000X-0.475000X-0.250000X0*%
%ADD11R,1.700000X1.700000*%
%ADD12O,1.700000X1.700000*%
%ADD13RoundRect,0.150000X-0.725000X-0.150000X0.725000X-0.150000X0.725000X0.150000X-0.725000X0.150000X0*%
%ADD14C,1.625600*%
%ADD15C,5.181600*%
%ADD16R,1.350000X1.350000*%
%ADD17O,1.350000X1.350000*%
%ADD18C,1.100000*%
%ADD19C,1.981200*%
%ADD20C,3.317600*%
%ADD21O,3.149600X1.625600*%
%ADD22R,1.600000X1.600000*%
%ADD23C,1.600000*%
%ADD24C,4.419600*%
%ADD25RoundRect,0.250000X-0.262500X-0.450000X0.262500X-0.450000X0.262500X0.450000X-0.262500X0.450000X0*%
%ADD26RoundRect,0.150000X0.512500X0.150000X-0.512500X0.150000X-0.512500X-0.150000X0.512500X-0.150000X0*%
%ADD27O,1.727200X1.727200*%
%ADD28R,1.727200X1.727200*%
%ADD29RoundRect,0.243750X0.243750X0.456250X-0.243750X0.456250X-0.243750X-0.456250X0.243750X-0.456250X0*%
%ADD30RoundRect,0.050800X-0.654000X0.654000X-0.654000X-0.654000X0.654000X-0.654000X0.654000X0.654000X0*%
%ADD31C,1.409600*%
G04 APERTURE END LIST*
D10*
%TO.C,C6*%
X175800000Y-115750000D03*
X175800000Y-113850000D03*
%TD*%
D11*
%TO.C,P8*%
X122875000Y-82275000D03*
D12*
X122875000Y-84815000D03*
X122875000Y-87355000D03*
%TD*%
D13*
%TO.C,U2*%
X113425000Y-111245000D03*
X113425000Y-112515000D03*
X113425000Y-113785000D03*
X113425000Y-115055000D03*
X118575000Y-115055000D03*
X118575000Y-113785000D03*
X118575000Y-112515000D03*
X118575000Y-111245000D03*
%TD*%
D14*
%TO.C,P9*%
X104491100Y-107936400D03*
X104491100Y-105193200D03*
X104491100Y-102450000D03*
X104491100Y-99706800D03*
X104491100Y-96963600D03*
X101951100Y-106564800D03*
X101951100Y-103821600D03*
X101951100Y-101078400D03*
X101951100Y-98335200D03*
D15*
X103221100Y-114972200D03*
X103221100Y-89927800D03*
%TD*%
D16*
%TO.C,P3*%
X151000000Y-113300000D03*
D17*
X151000000Y-115300000D03*
X151000000Y-117300000D03*
X151000000Y-119300000D03*
X151000000Y-121300000D03*
X151000000Y-123300000D03*
X151000000Y-125300000D03*
%TD*%
D18*
%TO.C,P1*%
X111750000Y-122198700D03*
X116250000Y-122198700D03*
D19*
X112873000Y-119698700D03*
X115127000Y-119698700D03*
D20*
X108200000Y-122098700D03*
X119800000Y-122098700D03*
D19*
X110500000Y-119698700D03*
X117500000Y-119698700D03*
%TD*%
D21*
%TO.C,S1*%
X169498800Y-94739400D03*
X176001200Y-94739400D03*
X169498800Y-99260600D03*
X176001200Y-99260600D03*
%TD*%
D16*
%TO.C,P7*%
X170000000Y-114000000D03*
D17*
X170000000Y-116000000D03*
X170000000Y-118000000D03*
X170000000Y-120000000D03*
X170000000Y-122000000D03*
X170000000Y-124000000D03*
%TD*%
D22*
%TO.C,C5*%
X122850000Y-96500000D03*
D23*
X120350000Y-96500000D03*
%TD*%
D10*
%TO.C,C4*%
X110000000Y-113800000D03*
X110000000Y-111900000D03*
%TD*%
D24*
%TO.C,P2*%
X115000000Y-86048600D03*
X110300000Y-89048600D03*
X115000000Y-92048600D03*
%TD*%
D25*
%TO.C,R1*%
X161887500Y-83200000D03*
X163712500Y-83200000D03*
%TD*%
D10*
%TO.C,C7*%
X121500000Y-106200000D03*
X121500000Y-104300000D03*
%TD*%
D13*
%TO.C,U3*%
X113425000Y-102445000D03*
X113425000Y-103715000D03*
X113425000Y-104985000D03*
X113425000Y-106255000D03*
X118575000Y-106255000D03*
X118575000Y-104985000D03*
X118575000Y-103715000D03*
X118575000Y-102445000D03*
%TD*%
D10*
%TO.C,C3*%
X110000000Y-105000000D03*
X110000000Y-103100000D03*
%TD*%
D16*
%TO.C,P4*%
X126700000Y-115100000D03*
D17*
X126700000Y-117100000D03*
X126700000Y-119100000D03*
X126700000Y-121100000D03*
X126700000Y-123100000D03*
X126700000Y-125100000D03*
%TD*%
D16*
%TO.C,P5*%
X165000000Y-114000000D03*
D17*
X165000000Y-116000000D03*
X165000000Y-118000000D03*
X165000000Y-120000000D03*
X165000000Y-122000000D03*
X165000000Y-124000000D03*
%TD*%
D22*
%TO.C,C9*%
X162700000Y-94400000D03*
D23*
X165200000Y-94400000D03*
%TD*%
D26*
%TO.C,U4*%
X164237500Y-87550000D03*
X164237500Y-86600000D03*
X164237500Y-85650000D03*
X161962500Y-85650000D03*
X161962500Y-87550000D03*
%TD*%
D21*
%TO.C,S2*%
X169498800Y-84039400D03*
X176001200Y-84039400D03*
X169498800Y-88560600D03*
X176001200Y-88560600D03*
%TD*%
D16*
%TO.C,P6*%
X127000000Y-82000000D03*
D17*
X127000000Y-84000000D03*
X127000000Y-86000000D03*
X127000000Y-88000000D03*
X127000000Y-90000000D03*
X127000000Y-92000000D03*
X127000000Y-94000000D03*
%TD*%
D10*
%TO.C,C8*%
X121500000Y-115050000D03*
X121500000Y-113150000D03*
%TD*%
D27*
%TO.C,P14*%
X138200000Y-87500000D03*
X138200000Y-90040000D03*
X138200000Y-92580000D03*
X138200000Y-95120000D03*
X138200000Y-97660000D03*
X138200000Y-100200000D03*
X138200000Y-102740000D03*
X138200000Y-105280000D03*
X138200000Y-109344000D03*
X138200000Y-111884000D03*
X138200000Y-114424000D03*
X138200000Y-116964000D03*
X138200000Y-119504000D03*
X138200000Y-122044000D03*
D28*
X138200000Y-124584000D03*
D27*
X138200000Y-127124000D03*
X186460000Y-117980000D03*
X186460000Y-115440000D03*
X186460000Y-112900000D03*
D28*
X186460000Y-110360000D03*
X186460000Y-107820000D03*
D27*
X186460000Y-105280000D03*
X186460000Y-100200000D03*
X186460000Y-97660000D03*
X186460000Y-95120000D03*
X186460000Y-92580000D03*
X186460000Y-90040000D03*
X186460000Y-87500000D03*
%TD*%
D29*
%TO.C,FB1*%
X180987500Y-94050000D03*
X179112500Y-94050000D03*
%TD*%
D30*
%TO.C,U1*%
X158290000Y-82120000D03*
D31*
X155750000Y-82120000D03*
X158290000Y-84660000D03*
X155750000Y-84660000D03*
X158290000Y-87200000D03*
X155750000Y-87200000D03*
X158290000Y-89740000D03*
X155750000Y-89740000D03*
X158290000Y-92280000D03*
X155750000Y-92280000D03*
X158290000Y-94820000D03*
X155750000Y-94820000D03*
X158290000Y-97360000D03*
X155750000Y-97360000D03*
X158290000Y-99900000D03*
X155750000Y-99900000D03*
X158290000Y-102440000D03*
X155750000Y-102440000D03*
X158290000Y-104980000D03*
X155750000Y-104980000D03*
X158290000Y-107520000D03*
X155750000Y-107520000D03*
X158290000Y-110060000D03*
X155750000Y-110060000D03*
X158290000Y-112600000D03*
X155750000Y-112600000D03*
X158290000Y-115140000D03*
X155750000Y-115140000D03*
X158290000Y-117680000D03*
X155750000Y-117680000D03*
X158290000Y-120220000D03*
X155750000Y-120220000D03*
X158290000Y-122760000D03*
X155750000Y-122760000D03*
X158290000Y-125300000D03*
X155750000Y-125300000D03*
D30*
X132890000Y-82120000D03*
D31*
X130350000Y-82120000D03*
X132890000Y-84660000D03*
X130350000Y-84660000D03*
X132890000Y-87200000D03*
X130350000Y-87200000D03*
X132890000Y-89740000D03*
X130350000Y-89740000D03*
X132890000Y-92280000D03*
X130350000Y-92280000D03*
X132890000Y-94820000D03*
X130350000Y-94820000D03*
X132890000Y-97360000D03*
X130350000Y-97360000D03*
X132890000Y-99900000D03*
X130350000Y-99900000D03*
X132890000Y-102440000D03*
X130350000Y-102440000D03*
X132890000Y-104980000D03*
X130350000Y-104980000D03*
X132890000Y-107520000D03*
X130350000Y-107520000D03*
X132890000Y-110060000D03*
X130350000Y-110060000D03*
X132890000Y-112600000D03*
X130350000Y-112600000D03*
X132890000Y-115140000D03*
X130350000Y-115140000D03*
X132890000Y-117680000D03*
X130350000Y-117680000D03*
X132890000Y-120220000D03*
X130350000Y-120220000D03*
X132890000Y-122760000D03*
X130350000Y-122760000D03*
X132890000Y-125300000D03*
X130350000Y-125300000D03*
%TD*%
M02*
