M48
; DRILL file {KiCad 9.0.0} date 2025-04-09T14:41:34-0400
; FORMAT={-:-/ absolute / metric / decimal}
; #@! TF.CreationDate,2025-04-09T14:41:34-04:00
; #@! TF.GenerationSoftware,Kicad,Pcbnew,9.0.0
; #@! TF.FileFunction,Plated,1,2,PTH
FMAT,2
METRIC
; #@! TA.AperFunction,Plated,PTH,ViaDrill
T1C0.400
; #@! TA.AperFunction,Plated,PTH,ComponentDrill
T2C0.800
; #@! TA.AperFunction,Plated,PTH,ComponentDrill
T3C0.914
; #@! TA.AperFunction,Plated,PTH,ComponentDrill
T4C1.000
; #@! TA.AperFunction,Plated,PTH,ComponentDrill
T5C1.016
; #@! TA.AperFunction,Plated,PTH,ComponentDrill
T6C2.200
; #@! TA.AperFunction,Plated,PTH,ComponentDrill
T7C2.997
; #@! TA.AperFunction,Plated,PTH,ComponentDrill
T8C3.302
%
G90
G05
T1
X106.021Y-110.84
X106.021Y-128.351
X115.028Y-111.824
X115.071Y-104.941
X117.683Y-81.655
X121.022Y-94.74
X122.685Y-113.91
X124.565Y-97.101
X125.275Y-111.494
X125.736Y-97.941
X126.429Y-78.792
X127.506Y-99.69
X129.345Y-78.028
X132.153Y-128.459
X133.9Y-98.35
X134.551Y-105.003
X135.176Y-125.433
X135.9Y-98.1
X135.95Y-107.5
X136.977Y-129.145
X138.413Y-129.543
X139.913Y-93.198
X140.064Y-99.558
X141.007Y-95.506
X141.007Y-126.435
X141.798Y-98.255
X144.222Y-106.587
X146.838Y-108.022
X146.838Y-110.434
X149.528Y-108.023
X149.882Y-102.101
X152.077Y-130.623
X153.058Y-107.542
X153.093Y-112.125
X153.496Y-98.392
X153.578Y-105.367
X153.874Y-100.128
X154.3Y-115.15
X154.49Y-117.306
X154.506Y-96.824
X154.755Y-101.349
X154.888Y-104.072
X157.21Y-103.691
X159.05Y-116.35
X159.55Y-85.285
X159.577Y-80.633
X160.3Y-83.6
X160.629Y-87.611
X161.259Y-108.12
X161.415Y-113.759
X161.977Y-91.407
X162.274Y-95.997
X162.636Y-102.279
X162.65Y-124.05
X163.373Y-96.284
X164.76Y-90.606
X165.3Y-99.9
X165.4Y-84.4
X166.3Y-81.35
X166.701Y-124.558
X167.246Y-78.792
X169.138Y-110.406
X170.162Y-110.84
X176.95Y-126.9
X181.592Y-99.453
X183.472Y-98.685
T2
X120.35Y-96.5
X122.85Y-96.5
X126.7Y-115.1
X126.7Y-117.1
X126.7Y-119.1
X126.7Y-121.1
X126.7Y-123.1
X126.7Y-125.1
X127.0Y-82.0
X127.0Y-84.0
X127.0Y-86.0
X127.0Y-88.0
X127.0Y-90.0
X127.0Y-92.0
X127.0Y-94.0
X130.35Y-82.12
X130.35Y-84.66
X130.35Y-87.2
X130.35Y-89.74
X130.35Y-92.28
X130.35Y-94.82
X130.35Y-97.36
X130.35Y-99.9
X130.35Y-102.44
X130.35Y-104.98
X130.35Y-107.52
X130.35Y-110.06
X130.35Y-112.6
X130.35Y-115.14
X130.35Y-117.68
X130.35Y-120.22
X130.35Y-122.76
X130.35Y-125.3
X132.89Y-82.12
X132.89Y-84.66
X132.89Y-87.2
X132.89Y-89.74
X132.89Y-92.28
X132.89Y-94.82
X132.89Y-97.36
X132.89Y-99.9
X132.89Y-102.44
X132.89Y-104.98
X132.89Y-107.52
X132.89Y-110.06
X132.89Y-112.6
X132.89Y-115.14
X132.89Y-117.68
X132.89Y-120.22
X132.89Y-122.76
X132.89Y-125.3
X151.0Y-113.3
X151.0Y-115.3
X151.0Y-117.3
X151.0Y-119.3
X151.0Y-121.3
X151.0Y-123.3
X151.0Y-125.3
X155.75Y-82.12
X155.75Y-84.66
X155.75Y-87.2
X155.75Y-89.74
X155.75Y-92.28
X155.75Y-94.82
X155.75Y-97.36
X155.75Y-99.9
X155.75Y-102.44
X155.75Y-104.98
X155.75Y-107.52
X155.75Y-110.06
X155.75Y-112.6
X155.75Y-115.14
X155.75Y-117.68
X155.75Y-120.22
X155.75Y-122.76
X155.75Y-125.3
X158.29Y-82.12
X158.29Y-84.66
X158.29Y-87.2
X158.29Y-89.74
X158.29Y-92.28
X158.29Y-94.82
X158.29Y-97.36
X158.29Y-99.9
X158.29Y-102.44
X158.29Y-104.98
X158.29Y-107.52
X158.29Y-110.06
X158.29Y-112.6
X158.29Y-115.14
X158.29Y-117.68
X158.29Y-120.22
X158.29Y-122.76
X158.29Y-125.3
X162.7Y-94.4
X165.0Y-114.0
X165.0Y-116.0
X165.0Y-118.0
X165.0Y-120.0
X165.0Y-122.0
X165.0Y-124.0
X165.2Y-94.4
X170.0Y-114.0
X170.0Y-116.0
X170.0Y-118.0
X170.0Y-120.0
X170.0Y-122.0
X170.0Y-124.0
T3
X110.5Y-119.699
X112.873Y-119.699
X115.127Y-119.699
X117.5Y-119.699
T4
X122.875Y-82.275
X122.875Y-84.815
X122.875Y-87.355
T5
X101.951Y-98.335
X101.951Y-101.078
X101.951Y-103.822
X101.951Y-106.565
X104.491Y-96.964
X104.491Y-99.707
X104.491Y-102.45
X104.491Y-105.193
X104.491Y-107.936
X138.2Y-87.5
X138.2Y-90.04
X138.2Y-92.58
X138.2Y-95.12
X138.2Y-97.66
X138.2Y-100.2
X138.2Y-102.74
X138.2Y-105.28
X138.2Y-109.344
X138.2Y-111.884
X138.2Y-114.424
X138.2Y-116.964
X138.2Y-119.504
X138.2Y-122.044
X138.2Y-124.584
X138.2Y-127.124
X169.499Y-84.039
X169.499Y-88.561
X169.499Y-94.739
X169.499Y-99.261
X176.001Y-84.039
X176.001Y-88.561
X176.001Y-94.739
X176.001Y-99.261
X186.46Y-87.5
X186.46Y-90.04
X186.46Y-92.58
X186.46Y-95.12
X186.46Y-97.66
X186.46Y-100.2
X186.46Y-105.28
X186.46Y-107.82
X186.46Y-110.36
X186.46Y-112.9
X186.46Y-115.44
X186.46Y-117.98
T6
X108.2Y-122.099
X119.8Y-122.099
T7
X110.3Y-89.049
X115.0Y-86.049
X115.0Y-92.049
T8
X103.221Y-89.928
X103.221Y-114.972
M30
