%TF.GenerationSoftware,KiCad,Pcbnew,9.0.0*%
%TF.CreationDate,2025-04-09T14:41:31-04:00*%
%TF.ProjectId,PocketBeagle2_cape,506f636b-6574-4426-9561-676c65325f63,rev?*%
%TF.SameCoordinates,Original*%
%TF.FileFunction,Legend,Bot*%
%TF.FilePolarity,Positive*%
%FSLAX46Y46*%
G04 Gerber Fmt 4.6, Leading zero omitted, Abs format (unit mm)*
G04 Created by KiCad (PCBNEW 9.0.0) date 2025-04-09 14:41:31*
%MOMM*%
%LPD*%
G01*
G04 APERTURE LIST*
%ADD10C,0.812800*%
%ADD11C,0.097536*%
%ADD12C,0.198120*%
G04 APERTURE END LIST*
D10*
X193921100Y-128628600D02*
X193921100Y-81378600D01*
X97001100Y-131708600D02*
X190901100Y-131708600D01*
X190901100Y-78298600D02*
G75*
G02*
X193981100Y-81378600I0J-3080000D01*
G01*
X93921100Y-81378600D02*
G75*
G02*
X97001100Y-78298600I3080000J0D01*
G01*
X97001100Y-78298600D02*
G75*
G02*
X93921100Y-81378600I0J-3080000D01*
G01*
X193921100Y-128628600D02*
G75*
G02*
X190901100Y-131648600I-3020000J0D01*
G01*
X190901100Y-78298600D02*
X97001100Y-78298600D01*
X193921100Y-81378600D02*
G75*
G02*
X190901100Y-78358600I-3020000J0D01*
G01*
X190901100Y-131708600D02*
G75*
G02*
X193981100Y-128628600I0J3080000D01*
G01*
X93921100Y-81378600D02*
X93921100Y-128628600D01*
X97001100Y-131708600D02*
G75*
G02*
X93921100Y-128628600I0J3080000D01*
G01*
X93921100Y-128628600D02*
G75*
G02*
X97001100Y-131708600I3080000J0D01*
G01*
D11*
X132469984Y-126744476D02*
X132469984Y-127222480D01*
X132469984Y-127222480D02*
X132764140Y-126965093D01*
X132764140Y-126965093D02*
X132764140Y-127075402D01*
X132764140Y-127075402D02*
X132800910Y-127148941D01*
X132800910Y-127148941D02*
X132837679Y-127185710D01*
X132837679Y-127185710D02*
X132911218Y-127222480D01*
X132911218Y-127222480D02*
X133095066Y-127222480D01*
X133095066Y-127222480D02*
X133168605Y-127185710D01*
X133168605Y-127185710D02*
X133205375Y-127148941D01*
X133205375Y-127148941D02*
X133242144Y-127075402D01*
X133242144Y-127075402D02*
X133242144Y-126854785D01*
X133242144Y-126854785D02*
X133205375Y-126781246D01*
X133205375Y-126781246D02*
X133168605Y-126744476D01*
X132469984Y-127921100D02*
X132469984Y-127553405D01*
X132469984Y-127553405D02*
X132837679Y-127516636D01*
X132837679Y-127516636D02*
X132800910Y-127553405D01*
X132800910Y-127553405D02*
X132764140Y-127626944D01*
X132764140Y-127626944D02*
X132764140Y-127810792D01*
X132764140Y-127810792D02*
X132800910Y-127884331D01*
X132800910Y-127884331D02*
X132837679Y-127921100D01*
X132837679Y-127921100D02*
X132911218Y-127957870D01*
X132911218Y-127957870D02*
X133095066Y-127957870D01*
X133095066Y-127957870D02*
X133168605Y-127921100D01*
X133168605Y-127921100D02*
X133205375Y-127884331D01*
X133205375Y-127884331D02*
X133242144Y-127810792D01*
X133242144Y-127810792D02*
X133242144Y-127626944D01*
X133242144Y-127626944D02*
X133205375Y-127553405D01*
X133205375Y-127553405D02*
X133168605Y-127516636D01*
X129929984Y-126744476D02*
X129929984Y-127222480D01*
X129929984Y-127222480D02*
X130224140Y-126965093D01*
X130224140Y-126965093D02*
X130224140Y-127075402D01*
X130224140Y-127075402D02*
X130260910Y-127148941D01*
X130260910Y-127148941D02*
X130297679Y-127185710D01*
X130297679Y-127185710D02*
X130371218Y-127222480D01*
X130371218Y-127222480D02*
X130555066Y-127222480D01*
X130555066Y-127222480D02*
X130628605Y-127185710D01*
X130628605Y-127185710D02*
X130665375Y-127148941D01*
X130665375Y-127148941D02*
X130702144Y-127075402D01*
X130702144Y-127075402D02*
X130702144Y-126854785D01*
X130702144Y-126854785D02*
X130665375Y-126781246D01*
X130665375Y-126781246D02*
X130628605Y-126744476D01*
X129929984Y-127884331D02*
X129929984Y-127737253D01*
X129929984Y-127737253D02*
X129966754Y-127663714D01*
X129966754Y-127663714D02*
X130003523Y-127626944D01*
X130003523Y-127626944D02*
X130113832Y-127553405D01*
X130113832Y-127553405D02*
X130260910Y-127516636D01*
X130260910Y-127516636D02*
X130555066Y-127516636D01*
X130555066Y-127516636D02*
X130628605Y-127553405D01*
X130628605Y-127553405D02*
X130665375Y-127590175D01*
X130665375Y-127590175D02*
X130702144Y-127663714D01*
X130702144Y-127663714D02*
X130702144Y-127810792D01*
X130702144Y-127810792D02*
X130665375Y-127884331D01*
X130665375Y-127884331D02*
X130628605Y-127921100D01*
X130628605Y-127921100D02*
X130555066Y-127957870D01*
X130555066Y-127957870D02*
X130371218Y-127957870D01*
X130371218Y-127957870D02*
X130297679Y-127921100D01*
X130297679Y-127921100D02*
X130260910Y-127884331D01*
X130260910Y-127884331D02*
X130224140Y-127810792D01*
X130224140Y-127810792D02*
X130224140Y-127663714D01*
X130224140Y-127663714D02*
X130260910Y-127590175D01*
X130260910Y-127590175D02*
X130297679Y-127553405D01*
X130297679Y-127553405D02*
X130371218Y-127516636D01*
X155329984Y-126744476D02*
X155329984Y-127222480D01*
X155329984Y-127222480D02*
X155624140Y-126965093D01*
X155624140Y-126965093D02*
X155624140Y-127075402D01*
X155624140Y-127075402D02*
X155660910Y-127148941D01*
X155660910Y-127148941D02*
X155697679Y-127185710D01*
X155697679Y-127185710D02*
X155771218Y-127222480D01*
X155771218Y-127222480D02*
X155955066Y-127222480D01*
X155955066Y-127222480D02*
X156028605Y-127185710D01*
X156028605Y-127185710D02*
X156065375Y-127148941D01*
X156065375Y-127148941D02*
X156102144Y-127075402D01*
X156102144Y-127075402D02*
X156102144Y-126854785D01*
X156102144Y-126854785D02*
X156065375Y-126781246D01*
X156065375Y-126781246D02*
X156028605Y-126744476D01*
X155329984Y-127884331D02*
X155329984Y-127737253D01*
X155329984Y-127737253D02*
X155366754Y-127663714D01*
X155366754Y-127663714D02*
X155403523Y-127626944D01*
X155403523Y-127626944D02*
X155513832Y-127553405D01*
X155513832Y-127553405D02*
X155660910Y-127516636D01*
X155660910Y-127516636D02*
X155955066Y-127516636D01*
X155955066Y-127516636D02*
X156028605Y-127553405D01*
X156028605Y-127553405D02*
X156065375Y-127590175D01*
X156065375Y-127590175D02*
X156102144Y-127663714D01*
X156102144Y-127663714D02*
X156102144Y-127810792D01*
X156102144Y-127810792D02*
X156065375Y-127884331D01*
X156065375Y-127884331D02*
X156028605Y-127921100D01*
X156028605Y-127921100D02*
X155955066Y-127957870D01*
X155955066Y-127957870D02*
X155771218Y-127957870D01*
X155771218Y-127957870D02*
X155697679Y-127921100D01*
X155697679Y-127921100D02*
X155660910Y-127884331D01*
X155660910Y-127884331D02*
X155624140Y-127810792D01*
X155624140Y-127810792D02*
X155624140Y-127663714D01*
X155624140Y-127663714D02*
X155660910Y-127590175D01*
X155660910Y-127590175D02*
X155697679Y-127553405D01*
X155697679Y-127553405D02*
X155771218Y-127516636D01*
X157869984Y-126744476D02*
X157869984Y-127222480D01*
X157869984Y-127222480D02*
X158164140Y-126965093D01*
X158164140Y-126965093D02*
X158164140Y-127075402D01*
X158164140Y-127075402D02*
X158200910Y-127148941D01*
X158200910Y-127148941D02*
X158237679Y-127185710D01*
X158237679Y-127185710D02*
X158311218Y-127222480D01*
X158311218Y-127222480D02*
X158495066Y-127222480D01*
X158495066Y-127222480D02*
X158568605Y-127185710D01*
X158568605Y-127185710D02*
X158605375Y-127148941D01*
X158605375Y-127148941D02*
X158642144Y-127075402D01*
X158642144Y-127075402D02*
X158642144Y-126854785D01*
X158642144Y-126854785D02*
X158605375Y-126781246D01*
X158605375Y-126781246D02*
X158568605Y-126744476D01*
X157869984Y-127921100D02*
X157869984Y-127553405D01*
X157869984Y-127553405D02*
X158237679Y-127516636D01*
X158237679Y-127516636D02*
X158200910Y-127553405D01*
X158200910Y-127553405D02*
X158164140Y-127626944D01*
X158164140Y-127626944D02*
X158164140Y-127810792D01*
X158164140Y-127810792D02*
X158200910Y-127884331D01*
X158200910Y-127884331D02*
X158237679Y-127921100D01*
X158237679Y-127921100D02*
X158311218Y-127957870D01*
X158311218Y-127957870D02*
X158495066Y-127957870D01*
X158495066Y-127957870D02*
X158568605Y-127921100D01*
X158568605Y-127921100D02*
X158605375Y-127884331D01*
X158605375Y-127884331D02*
X158642144Y-127810792D01*
X158642144Y-127810792D02*
X158642144Y-127626944D01*
X158642144Y-127626944D02*
X158605375Y-127553405D01*
X158605375Y-127553405D02*
X158568605Y-127516636D01*
D12*
X158007665Y-80732835D02*
X158007665Y-79164385D01*
X158007665Y-79164385D02*
X157410160Y-79164385D01*
X157410160Y-79164385D02*
X157260784Y-79239073D01*
X157260784Y-79239073D02*
X157186096Y-79313761D01*
X157186096Y-79313761D02*
X157111408Y-79463137D01*
X157111408Y-79463137D02*
X157111408Y-79687201D01*
X157111408Y-79687201D02*
X157186096Y-79836577D01*
X157186096Y-79836577D02*
X157260784Y-79911266D01*
X157260784Y-79911266D02*
X157410160Y-79985954D01*
X157410160Y-79985954D02*
X158007665Y-79985954D01*
X155617646Y-80732835D02*
X156513903Y-80732835D01*
X156065775Y-80732835D02*
X156065775Y-79164385D01*
X156065775Y-79164385D02*
X156215151Y-79388449D01*
X156215151Y-79388449D02*
X156364527Y-79537825D01*
X156364527Y-79537825D02*
X156513903Y-79612513D01*
X132596217Y-80847749D02*
X132596217Y-79279299D01*
X132596217Y-79279299D02*
X131998712Y-79279299D01*
X131998712Y-79279299D02*
X131849336Y-79353987D01*
X131849336Y-79353987D02*
X131774648Y-79428675D01*
X131774648Y-79428675D02*
X131699960Y-79578051D01*
X131699960Y-79578051D02*
X131699960Y-79802115D01*
X131699960Y-79802115D02*
X131774648Y-79951491D01*
X131774648Y-79951491D02*
X131849336Y-80026180D01*
X131849336Y-80026180D02*
X131998712Y-80100868D01*
X131998712Y-80100868D02*
X132596217Y-80100868D01*
X131102455Y-79428675D02*
X131027767Y-79353987D01*
X131027767Y-79353987D02*
X130878391Y-79279299D01*
X130878391Y-79279299D02*
X130504950Y-79279299D01*
X130504950Y-79279299D02*
X130355574Y-79353987D01*
X130355574Y-79353987D02*
X130280886Y-79428675D01*
X130280886Y-79428675D02*
X130206198Y-79578051D01*
X130206198Y-79578051D02*
X130206198Y-79727427D01*
X130206198Y-79727427D02*
X130280886Y-79951491D01*
X130280886Y-79951491D02*
X131177143Y-80847749D01*
X131177143Y-80847749D02*
X130206198Y-80847749D01*
M02*
