M48
; DRILL file {KiCad (6.0.7)} date Sat 27 Aug 2022 23:03:47 EDT
; FORMAT={3:3/ absolute / metric / suppress leading zeros}
; #@! TF.CreationDate,2022-08-27T23:03:47-04:00
; #@! TF.GenerationSoftware,Kicad,Pcbnew,(6.0.7)
; #@! TF.FileFunction,MixedPlating,1,2
FMAT,2
METRIC,TZ
; #@! TA.AperFunction,Plated,PTH,ViaDrill
T1C0.400
; #@! TA.AperFunction,Plated,PTH,ComponentDrill
T2C0.800
; #@! TA.AperFunction,Plated,PTH,ComponentDrill
T3C0.920
; #@! TA.AperFunction,Plated,PTH,ComponentDrill
T4C1.000
; #@! TA.AperFunction,Plated,PTH,ComponentDrill
T5C1.200
; #@! TA.AperFunction,Plated,PTH,ComponentDrill
T6C2.330
; #@! TA.AperFunction,Plated,PTH,ComponentDrill
T7C2.700
; #@! TA.AperFunction,Plated,PTH,ComponentDrill
T8C2.997
%
G90
G05
T1
X90678Y-113919
X96266Y-113919
X101351Y-117726
X107256Y-119361
X110782Y-123577
X113643Y-131594
X115697Y-106045
X116743Y-122914
X116964Y-132861
X117020Y-131710
X117026Y-124043
X117136Y-128778
X117602Y-130810
X117767Y-122994
X118618Y-130429
X118704Y-123874
X120780Y-135506
X120904Y-130429
X120904Y-132461
X120991Y-128447
X121268Y-150899
X121657Y-127357
X122047Y-105283
X122201Y-132039
X122653Y-136590
X128054Y-111363
X128418Y-108760
X128531Y-112625
X129032Y-120523
X131770Y-115490
X131816Y-110819
X133604Y-116713
T2
X88900Y-147320
X88900Y-149820
X93054Y-131572
X97934Y-131572
X110236Y-141732
X110236Y-144232
X119634Y-109818
X119634Y-114698
X136916Y-106944
X136916Y-109484
X136916Y-112024
X136916Y-114564
X144536Y-106944
X144536Y-109484
X144536Y-112024
X144536Y-114564
T3
X84079Y-122702
X84079Y-125202
X86079Y-122702
X86079Y-125202
T4
X87000Y-99000
X89540Y-99000
X92080Y-99000
X94620Y-99000
X97160Y-99000
X99700Y-99000
X102240Y-99000
X104780Y-99000
X118638Y-99797
X121178Y-99797
X138000Y-123840
X138000Y-126380
X138000Y-128920
X138000Y-131460
X138000Y-134000
X152000Y-126380
X152000Y-128920
X152000Y-131460
X152000Y-134000
T5
X128778Y-99822
X144018Y-99822
T6
X81370Y-117932
X81370Y-129972
T7
X78000Y-103000
X78000Y-157000
X154000Y-103000
X154000Y-157000
T8
X77677Y-141859
X80677Y-146559
X83677Y-141859
T0
M30
