%TF.GenerationSoftware,KiCad,Pcbnew,(6.0.7)*%
%TF.CreationDate,2022-08-27T23:03:48-04:00*%
%TF.ProjectId,RA2E1-CAN,52413245-312d-4434-914e-2e6b69636164,rev?*%
%TF.SameCoordinates,Original*%
%TF.FileFunction,Drillmap*%
%TF.FilePolarity,Positive*%
%FSLAX45Y45*%
G04 Gerber Fmt 4.5, Leading zero omitted, Abs format (unit mm)*
G04 Created by KiCad (PCBNEW (6.0.7)) date 2022-08-27 23:03:48*
%MOMM*%
%LPD*%
G01*
G04 APERTURE LIST*
%ADD10C,0.050000*%
%ADD11C,0.200000*%
%ADD12C,0.040000*%
%ADD13C,0.080000*%
%ADD14C,0.092000*%
%ADD15C,0.100000*%
%ADD16C,0.120000*%
%ADD17C,0.233000*%
%ADD18C,0.270000*%
%ADD19C,0.299720*%
G04 APERTURE END LIST*
D10*
X7000000Y-9500000D02*
X7000000Y-16500000D01*
X16200000Y-9500000D02*
X16200000Y-16500000D01*
X16200000Y-16500000D02*
X7000000Y-16500000D01*
X7000000Y-9500000D02*
X16200000Y-9500000D01*
D11*
D12*
X9047800Y-11371900D02*
X9087800Y-11411900D01*
X9087800Y-11371900D02*
X9047800Y-11411900D01*
X9606600Y-11371900D02*
X9646600Y-11411900D01*
X9646600Y-11371900D02*
X9606600Y-11411900D01*
X10115090Y-11752620D02*
X10155090Y-11792620D01*
X10155090Y-11752620D02*
X10115090Y-11792620D01*
X10705560Y-11916140D02*
X10745560Y-11956140D01*
X10745560Y-11916140D02*
X10705560Y-11956140D01*
X11058150Y-12337720D02*
X11098150Y-12377720D01*
X11098150Y-12337720D02*
X11058150Y-12377720D01*
X11344350Y-13139350D02*
X11384350Y-13179350D01*
X11384350Y-13139350D02*
X11344350Y-13179350D01*
X11549700Y-10584500D02*
X11589700Y-10624500D01*
X11589700Y-10584500D02*
X11549700Y-10624500D01*
X11654340Y-12271370D02*
X11694340Y-12311370D01*
X11694340Y-12271370D02*
X11654340Y-12311370D01*
X11676410Y-13266080D02*
X11716410Y-13306080D01*
X11716410Y-13266080D02*
X11676410Y-13306080D01*
X11681960Y-13151020D02*
X11721960Y-13191020D01*
X11721960Y-13151020D02*
X11681960Y-13191020D01*
X11682580Y-12384310D02*
X11722580Y-12424310D01*
X11722580Y-12384310D02*
X11682580Y-12424310D01*
X11693620Y-12857800D02*
X11733620Y-12897800D01*
X11733620Y-12857800D02*
X11693620Y-12897800D01*
X11740200Y-13061000D02*
X11780200Y-13101000D01*
X11780200Y-13061000D02*
X11740200Y-13101000D01*
X11756650Y-12279410D02*
X11796650Y-12319410D01*
X11796650Y-12279410D02*
X11756650Y-12319410D01*
X11841800Y-13022900D02*
X11881800Y-13062900D01*
X11881800Y-13022900D02*
X11841800Y-13062900D01*
X11850390Y-12367410D02*
X11890390Y-12407410D01*
X11890390Y-12367410D02*
X11850390Y-12407410D01*
X12058030Y-13530630D02*
X12098030Y-13570630D01*
X12098030Y-13530630D02*
X12058030Y-13570630D01*
X12070400Y-13022900D02*
X12110400Y-13062900D01*
X12110400Y-13022900D02*
X12070400Y-13062900D01*
X12070400Y-13226100D02*
X12110400Y-13266100D01*
X12110400Y-13226100D02*
X12070400Y-13266100D01*
X12079050Y-12824710D02*
X12119050Y-12864710D01*
X12119050Y-12824710D02*
X12079050Y-12864710D01*
X12106760Y-15069900D02*
X12146760Y-15109900D01*
X12146760Y-15069900D02*
X12106760Y-15109900D01*
X12145660Y-12715660D02*
X12185660Y-12755660D01*
X12185660Y-12715660D02*
X12145660Y-12755660D01*
X12184700Y-10508300D02*
X12224700Y-10548300D01*
X12224700Y-10508300D02*
X12184700Y-10548300D01*
X12200130Y-13183860D02*
X12240130Y-13223860D01*
X12240130Y-13183860D02*
X12200130Y-13223860D01*
X12245350Y-13638970D02*
X12285350Y-13678970D01*
X12285350Y-13638970D02*
X12245350Y-13678970D01*
X12785400Y-11116270D02*
X12825400Y-11156270D01*
X12825400Y-11116270D02*
X12785400Y-11156270D01*
X12821800Y-10856030D02*
X12861800Y-10896030D01*
X12861800Y-10856030D02*
X12821800Y-10896030D01*
X12833060Y-11242540D02*
X12873060Y-11282540D01*
X12873060Y-11242540D02*
X12833060Y-11282540D01*
X12883200Y-12032300D02*
X12923200Y-12072300D01*
X12923200Y-12032300D02*
X12883200Y-12072300D01*
X13157010Y-11528980D02*
X13197010Y-11568980D01*
X13197010Y-11528980D02*
X13157010Y-11568980D01*
X13161610Y-11061900D02*
X13201610Y-11101900D01*
X13201610Y-11061900D02*
X13161610Y-11101900D01*
X13340400Y-11651300D02*
X13380400Y-11691300D01*
X13380400Y-11651300D02*
X13340400Y-11691300D01*
D13*
X8930000Y-14732000D02*
G75*
G03*
X8930000Y-14732000I-40000J0D01*
G01*
X8930000Y-14982000D02*
G75*
G03*
X8930000Y-14982000I-40000J0D01*
G01*
X9345400Y-13157200D02*
G75*
G03*
X9345400Y-13157200I-40000J0D01*
G01*
X9833400Y-13157200D02*
G75*
G03*
X9833400Y-13157200I-40000J0D01*
G01*
X11063600Y-14173200D02*
G75*
G03*
X11063600Y-14173200I-40000J0D01*
G01*
X11063600Y-14423200D02*
G75*
G03*
X11063600Y-14423200I-40000J0D01*
G01*
X12003400Y-10981800D02*
G75*
G03*
X12003400Y-10981800I-40000J0D01*
G01*
X12003400Y-11469800D02*
G75*
G03*
X12003400Y-11469800I-40000J0D01*
G01*
X13731600Y-10694400D02*
G75*
G03*
X13731600Y-10694400I-40000J0D01*
G01*
X13731600Y-10948400D02*
G75*
G03*
X13731600Y-10948400I-40000J0D01*
G01*
X13731600Y-11202400D02*
G75*
G03*
X13731600Y-11202400I-40000J0D01*
G01*
X13731600Y-11456400D02*
G75*
G03*
X13731600Y-11456400I-40000J0D01*
G01*
X14493600Y-10694400D02*
G75*
G03*
X14493600Y-10694400I-40000J0D01*
G01*
X14493600Y-10948400D02*
G75*
G03*
X14493600Y-10948400I-40000J0D01*
G01*
X14493600Y-11202400D02*
G75*
G03*
X14493600Y-11202400I-40000J0D01*
G01*
X14493600Y-11456400D02*
G75*
G03*
X14493600Y-11456400I-40000J0D01*
G01*
D14*
X8407950Y-12224200D02*
X8407950Y-12316200D01*
X8361950Y-12270200D02*
X8453950Y-12270200D01*
X8407950Y-12474200D02*
X8407950Y-12566200D01*
X8361950Y-12520200D02*
X8453950Y-12520200D01*
X8607950Y-12224200D02*
X8607950Y-12316200D01*
X8561950Y-12270200D02*
X8653950Y-12270200D01*
X8607950Y-12474200D02*
X8607950Y-12566200D01*
X8561950Y-12520200D02*
X8653950Y-12520200D01*
D15*
X8735356Y-9935356D02*
X8735356Y-9864644D01*
X8664644Y-9864644D01*
X8664644Y-9935356D01*
X8735356Y-9935356D01*
X8989356Y-9935356D02*
X8989356Y-9864644D01*
X8918644Y-9864644D01*
X8918644Y-9935356D01*
X8989356Y-9935356D01*
X9243356Y-9935356D02*
X9243356Y-9864644D01*
X9172644Y-9864644D01*
X9172644Y-9935356D01*
X9243356Y-9935356D01*
X9497356Y-9935356D02*
X9497356Y-9864644D01*
X9426644Y-9864644D01*
X9426644Y-9935356D01*
X9497356Y-9935356D01*
X9751356Y-9935356D02*
X9751356Y-9864644D01*
X9680644Y-9864644D01*
X9680644Y-9935356D01*
X9751356Y-9935356D01*
X10005356Y-9935356D02*
X10005356Y-9864644D01*
X9934644Y-9864644D01*
X9934644Y-9935356D01*
X10005356Y-9935356D01*
X10259356Y-9935356D02*
X10259356Y-9864644D01*
X10188644Y-9864644D01*
X10188644Y-9935356D01*
X10259356Y-9935356D01*
X10513356Y-9935356D02*
X10513356Y-9864644D01*
X10442644Y-9864644D01*
X10442644Y-9935356D01*
X10513356Y-9935356D01*
X11899156Y-10015056D02*
X11899156Y-9944344D01*
X11828444Y-9944344D01*
X11828444Y-10015056D01*
X11899156Y-10015056D01*
X12153156Y-10015056D02*
X12153156Y-9944344D01*
X12082444Y-9944344D01*
X12082444Y-10015056D01*
X12153156Y-10015056D01*
X13835356Y-12419356D02*
X13835356Y-12348644D01*
X13764644Y-12348644D01*
X13764644Y-12419356D01*
X13835356Y-12419356D01*
X13835356Y-12673356D02*
X13835356Y-12602644D01*
X13764644Y-12602644D01*
X13764644Y-12673356D01*
X13835356Y-12673356D01*
X13835356Y-12927356D02*
X13835356Y-12856644D01*
X13764644Y-12856644D01*
X13764644Y-12927356D01*
X13835356Y-12927356D01*
X13835356Y-13181356D02*
X13835356Y-13110644D01*
X13764644Y-13110644D01*
X13764644Y-13181356D01*
X13835356Y-13181356D01*
X13835356Y-13435356D02*
X13835356Y-13364644D01*
X13764644Y-13364644D01*
X13764644Y-13435356D01*
X13835356Y-13435356D01*
X15235356Y-12673356D02*
X15235356Y-12602644D01*
X15164644Y-12602644D01*
X15164644Y-12673356D01*
X15235356Y-12673356D01*
X15235356Y-12927356D02*
X15235356Y-12856644D01*
X15164644Y-12856644D01*
X15164644Y-12927356D01*
X15235356Y-12927356D01*
X15235356Y-13181356D02*
X15235356Y-13110644D01*
X15164644Y-13110644D01*
X15164644Y-13181356D01*
X15235356Y-13181356D01*
X15235356Y-13435356D02*
X15235356Y-13364644D01*
X15164644Y-13364644D01*
X15164644Y-13435356D01*
X15235356Y-13435356D01*
D16*
X12877800Y-10042200D02*
X12937800Y-9982200D01*
X12877800Y-9922200D01*
X12817800Y-9982200D01*
X12877800Y-10042200D01*
X14401800Y-10042200D02*
X14461800Y-9982200D01*
X14401800Y-9922200D01*
X14341800Y-9982200D01*
X14401800Y-10042200D01*
D17*
X8020450Y-11676700D02*
X8253450Y-11909700D01*
X8253450Y-11676700D02*
X8020450Y-11909700D01*
X8253450Y-11793200D02*
G75*
G03*
X8253450Y-11793200I-116500J0D01*
G01*
X8020450Y-12880700D02*
X8253450Y-13113700D01*
X8253450Y-12880700D02*
X8020450Y-13113700D01*
X8253450Y-12997200D02*
G75*
G03*
X8253450Y-12997200I-116500J0D01*
G01*
D18*
X7665000Y-10165000D02*
X7935000Y-10435000D01*
X7935000Y-10165000D02*
X7665000Y-10435000D01*
X7800000Y-10165000D02*
X7800000Y-10435000D01*
X7665000Y-10300000D02*
X7935000Y-10300000D01*
X7665000Y-15565000D02*
X7935000Y-15835000D01*
X7935000Y-15565000D02*
X7665000Y-15835000D01*
X7800000Y-15565000D02*
X7800000Y-15835000D01*
X7665000Y-15700000D02*
X7935000Y-15700000D01*
X15265000Y-10165000D02*
X15535000Y-10435000D01*
X15535000Y-10165000D02*
X15265000Y-10435000D01*
X15400000Y-10165000D02*
X15400000Y-10435000D01*
X15265000Y-10300000D02*
X15535000Y-10300000D01*
X15265000Y-15565000D02*
X15535000Y-15835000D01*
X15535000Y-15565000D02*
X15265000Y-15835000D01*
X15400000Y-15565000D02*
X15400000Y-15835000D01*
X15265000Y-15700000D02*
X15535000Y-15700000D01*
D19*
X7617840Y-14036040D02*
X7917560Y-14335760D01*
X7917560Y-14036040D02*
X7617840Y-14335760D01*
X7873668Y-14291868D02*
X7873668Y-14079932D01*
X7661732Y-14079932D01*
X7661732Y-14291868D01*
X7873668Y-14291868D01*
X7917840Y-14506040D02*
X8217560Y-14805760D01*
X8217560Y-14506040D02*
X7917840Y-14805760D01*
X8173668Y-14761868D02*
X8173668Y-14549932D01*
X7961732Y-14549932D01*
X7961732Y-14761868D01*
X8173668Y-14761868D01*
X8217840Y-14036040D02*
X8517560Y-14335760D01*
X8517560Y-14036040D02*
X8217840Y-14335760D01*
X8473668Y-14291868D02*
X8473668Y-14079932D01*
X8261732Y-14079932D01*
X8261732Y-14291868D01*
X8473668Y-14291868D01*
D11*
X7255119Y-16812976D02*
X7255119Y-16612976D01*
X7302738Y-16612976D01*
X7331309Y-16622500D01*
X7350357Y-16641548D01*
X7359881Y-16660595D01*
X7369405Y-16698690D01*
X7369405Y-16727262D01*
X7359881Y-16765357D01*
X7350357Y-16784405D01*
X7331309Y-16803452D01*
X7302738Y-16812976D01*
X7255119Y-16812976D01*
X7455119Y-16812976D02*
X7455119Y-16679643D01*
X7455119Y-16717738D02*
X7464643Y-16698690D01*
X7474167Y-16689167D01*
X7493214Y-16679643D01*
X7512262Y-16679643D01*
X7578928Y-16812976D02*
X7578928Y-16679643D01*
X7578928Y-16612976D02*
X7569405Y-16622500D01*
X7578928Y-16632024D01*
X7588452Y-16622500D01*
X7578928Y-16612976D01*
X7578928Y-16632024D01*
X7702738Y-16812976D02*
X7683690Y-16803452D01*
X7674167Y-16784405D01*
X7674167Y-16612976D01*
X7807500Y-16812976D02*
X7788452Y-16803452D01*
X7778928Y-16784405D01*
X7778928Y-16612976D01*
X8036071Y-16812976D02*
X8036071Y-16612976D01*
X8102738Y-16755833D01*
X8169405Y-16612976D01*
X8169405Y-16812976D01*
X8350357Y-16812976D02*
X8350357Y-16708214D01*
X8340833Y-16689167D01*
X8321786Y-16679643D01*
X8283690Y-16679643D01*
X8264643Y-16689167D01*
X8350357Y-16803452D02*
X8331309Y-16812976D01*
X8283690Y-16812976D01*
X8264643Y-16803452D01*
X8255119Y-16784405D01*
X8255119Y-16765357D01*
X8264643Y-16746309D01*
X8283690Y-16736786D01*
X8331309Y-16736786D01*
X8350357Y-16727262D01*
X8445595Y-16679643D02*
X8445595Y-16879643D01*
X8445595Y-16689167D02*
X8464643Y-16679643D01*
X8502738Y-16679643D01*
X8521786Y-16689167D01*
X8531310Y-16698690D01*
X8540833Y-16717738D01*
X8540833Y-16774881D01*
X8531310Y-16793929D01*
X8521786Y-16803452D01*
X8502738Y-16812976D01*
X8464643Y-16812976D01*
X8445595Y-16803452D01*
X8626548Y-16793929D02*
X8636071Y-16803452D01*
X8626548Y-16812976D01*
X8617024Y-16803452D01*
X8626548Y-16793929D01*
X8626548Y-16812976D01*
X8626548Y-16689167D02*
X8636071Y-16698690D01*
X8626548Y-16708214D01*
X8617024Y-16698690D01*
X8626548Y-16689167D01*
X8626548Y-16708214D01*
D12*
X6957500Y-17122500D02*
X6997500Y-17162500D01*
X6997500Y-17122500D02*
X6957500Y-17162500D01*
D11*
X7293214Y-17032976D02*
X7312262Y-17032976D01*
X7331309Y-17042500D01*
X7340833Y-17052024D01*
X7350357Y-17071071D01*
X7359881Y-17109167D01*
X7359881Y-17156786D01*
X7350357Y-17194881D01*
X7340833Y-17213929D01*
X7331309Y-17223452D01*
X7312262Y-17232976D01*
X7293214Y-17232976D01*
X7274167Y-17223452D01*
X7264643Y-17213929D01*
X7255119Y-17194881D01*
X7245595Y-17156786D01*
X7245595Y-17109167D01*
X7255119Y-17071071D01*
X7264643Y-17052024D01*
X7274167Y-17042500D01*
X7293214Y-17032976D01*
X7445595Y-17213929D02*
X7455119Y-17223452D01*
X7445595Y-17232976D01*
X7436071Y-17223452D01*
X7445595Y-17213929D01*
X7445595Y-17232976D01*
X7626548Y-17099643D02*
X7626548Y-17232976D01*
X7578928Y-17023452D02*
X7531309Y-17166310D01*
X7655119Y-17166310D01*
X7769405Y-17032976D02*
X7788452Y-17032976D01*
X7807500Y-17042500D01*
X7817024Y-17052024D01*
X7826548Y-17071071D01*
X7836071Y-17109167D01*
X7836071Y-17156786D01*
X7826548Y-17194881D01*
X7817024Y-17213929D01*
X7807500Y-17223452D01*
X7788452Y-17232976D01*
X7769405Y-17232976D01*
X7750357Y-17223452D01*
X7740833Y-17213929D01*
X7731309Y-17194881D01*
X7721786Y-17156786D01*
X7721786Y-17109167D01*
X7731309Y-17071071D01*
X7740833Y-17052024D01*
X7750357Y-17042500D01*
X7769405Y-17032976D01*
X7959881Y-17032976D02*
X7978928Y-17032976D01*
X7997976Y-17042500D01*
X8007500Y-17052024D01*
X8017024Y-17071071D01*
X8026548Y-17109167D01*
X8026548Y-17156786D01*
X8017024Y-17194881D01*
X8007500Y-17213929D01*
X7997976Y-17223452D01*
X7978928Y-17232976D01*
X7959881Y-17232976D01*
X7940833Y-17223452D01*
X7931309Y-17213929D01*
X7921786Y-17194881D01*
X7912262Y-17156786D01*
X7912262Y-17109167D01*
X7921786Y-17071071D01*
X7931309Y-17052024D01*
X7940833Y-17042500D01*
X7959881Y-17032976D01*
X8112262Y-17232976D02*
X8112262Y-17099643D01*
X8112262Y-17118690D02*
X8121786Y-17109167D01*
X8140833Y-17099643D01*
X8169405Y-17099643D01*
X8188452Y-17109167D01*
X8197976Y-17128214D01*
X8197976Y-17232976D01*
X8197976Y-17128214D02*
X8207500Y-17109167D01*
X8226548Y-17099643D01*
X8255119Y-17099643D01*
X8274167Y-17109167D01*
X8283690Y-17128214D01*
X8283690Y-17232976D01*
X8378928Y-17232976D02*
X8378928Y-17099643D01*
X8378928Y-17118690D02*
X8388452Y-17109167D01*
X8407500Y-17099643D01*
X8436071Y-17099643D01*
X8455119Y-17109167D01*
X8464643Y-17128214D01*
X8464643Y-17232976D01*
X8464643Y-17128214D02*
X8474167Y-17109167D01*
X8493214Y-17099643D01*
X8521786Y-17099643D01*
X8540833Y-17109167D01*
X8550357Y-17128214D01*
X8550357Y-17232976D01*
X8940833Y-17023452D02*
X8769405Y-17280595D01*
X9197976Y-17032976D02*
X9217024Y-17032976D01*
X9236071Y-17042500D01*
X9245595Y-17052024D01*
X9255119Y-17071071D01*
X9264643Y-17109167D01*
X9264643Y-17156786D01*
X9255119Y-17194881D01*
X9245595Y-17213929D01*
X9236071Y-17223452D01*
X9217024Y-17232976D01*
X9197976Y-17232976D01*
X9178929Y-17223452D01*
X9169405Y-17213929D01*
X9159881Y-17194881D01*
X9150357Y-17156786D01*
X9150357Y-17109167D01*
X9159881Y-17071071D01*
X9169405Y-17052024D01*
X9178929Y-17042500D01*
X9197976Y-17032976D01*
X9350357Y-17213929D02*
X9359881Y-17223452D01*
X9350357Y-17232976D01*
X9340833Y-17223452D01*
X9350357Y-17213929D01*
X9350357Y-17232976D01*
X9483690Y-17032976D02*
X9502738Y-17032976D01*
X9521786Y-17042500D01*
X9531310Y-17052024D01*
X9540833Y-17071071D01*
X9550357Y-17109167D01*
X9550357Y-17156786D01*
X9540833Y-17194881D01*
X9531310Y-17213929D01*
X9521786Y-17223452D01*
X9502738Y-17232976D01*
X9483690Y-17232976D01*
X9464643Y-17223452D01*
X9455119Y-17213929D01*
X9445595Y-17194881D01*
X9436071Y-17156786D01*
X9436071Y-17109167D01*
X9445595Y-17071071D01*
X9455119Y-17052024D01*
X9464643Y-17042500D01*
X9483690Y-17032976D01*
X9740833Y-17232976D02*
X9626548Y-17232976D01*
X9683690Y-17232976D02*
X9683690Y-17032976D01*
X9664643Y-17061548D01*
X9645595Y-17080595D01*
X9626548Y-17090119D01*
X9921786Y-17032976D02*
X9826548Y-17032976D01*
X9817024Y-17128214D01*
X9826548Y-17118690D01*
X9845595Y-17109167D01*
X9893214Y-17109167D01*
X9912262Y-17118690D01*
X9921786Y-17128214D01*
X9931310Y-17147262D01*
X9931310Y-17194881D01*
X9921786Y-17213929D01*
X9912262Y-17223452D01*
X9893214Y-17232976D01*
X9845595Y-17232976D01*
X9826548Y-17223452D01*
X9817024Y-17213929D01*
X9997976Y-17032976D02*
X10131310Y-17032976D01*
X10045595Y-17232976D01*
X10197976Y-17032976D02*
X10197976Y-17071071D01*
X10274167Y-17032976D02*
X10274167Y-17071071D01*
X10569405Y-17309167D02*
X10559881Y-17299643D01*
X10540833Y-17271071D01*
X10531310Y-17252024D01*
X10521786Y-17223452D01*
X10512262Y-17175833D01*
X10512262Y-17137738D01*
X10521786Y-17090119D01*
X10531310Y-17061548D01*
X10540833Y-17042500D01*
X10559881Y-17013929D01*
X10569405Y-17004405D01*
X10626548Y-17032976D02*
X10750357Y-17032976D01*
X10683690Y-17109167D01*
X10712262Y-17109167D01*
X10731310Y-17118690D01*
X10740833Y-17128214D01*
X10750357Y-17147262D01*
X10750357Y-17194881D01*
X10740833Y-17213929D01*
X10731310Y-17223452D01*
X10712262Y-17232976D01*
X10655119Y-17232976D01*
X10636071Y-17223452D01*
X10626548Y-17213929D01*
X10826548Y-17052024D02*
X10836071Y-17042500D01*
X10855119Y-17032976D01*
X10902738Y-17032976D01*
X10921786Y-17042500D01*
X10931310Y-17052024D01*
X10940833Y-17071071D01*
X10940833Y-17090119D01*
X10931310Y-17118690D01*
X10817024Y-17232976D01*
X10940833Y-17232976D01*
X11178929Y-17232976D02*
X11178929Y-17032976D01*
X11264643Y-17232976D02*
X11264643Y-17128214D01*
X11255119Y-17109167D01*
X11236071Y-17099643D01*
X11207500Y-17099643D01*
X11188452Y-17109167D01*
X11178929Y-17118690D01*
X11388452Y-17232976D02*
X11369405Y-17223452D01*
X11359881Y-17213929D01*
X11350357Y-17194881D01*
X11350357Y-17137738D01*
X11359881Y-17118690D01*
X11369405Y-17109167D01*
X11388452Y-17099643D01*
X11417024Y-17099643D01*
X11436071Y-17109167D01*
X11445595Y-17118690D01*
X11455119Y-17137738D01*
X11455119Y-17194881D01*
X11445595Y-17213929D01*
X11436071Y-17223452D01*
X11417024Y-17232976D01*
X11388452Y-17232976D01*
X11569405Y-17232976D02*
X11550357Y-17223452D01*
X11540833Y-17204405D01*
X11540833Y-17032976D01*
X11721786Y-17223452D02*
X11702738Y-17232976D01*
X11664643Y-17232976D01*
X11645595Y-17223452D01*
X11636071Y-17204405D01*
X11636071Y-17128214D01*
X11645595Y-17109167D01*
X11664643Y-17099643D01*
X11702738Y-17099643D01*
X11721786Y-17109167D01*
X11731309Y-17128214D01*
X11731309Y-17147262D01*
X11636071Y-17166310D01*
X11807500Y-17223452D02*
X11826548Y-17232976D01*
X11864643Y-17232976D01*
X11883690Y-17223452D01*
X11893214Y-17204405D01*
X11893214Y-17194881D01*
X11883690Y-17175833D01*
X11864643Y-17166310D01*
X11836071Y-17166310D01*
X11817024Y-17156786D01*
X11807500Y-17137738D01*
X11807500Y-17128214D01*
X11817024Y-17109167D01*
X11836071Y-17099643D01*
X11864643Y-17099643D01*
X11883690Y-17109167D01*
X11959881Y-17309167D02*
X11969405Y-17299643D01*
X11988452Y-17271071D01*
X11997976Y-17252024D01*
X12007500Y-17223452D01*
X12017024Y-17175833D01*
X12017024Y-17137738D01*
X12007500Y-17090119D01*
X11997976Y-17061548D01*
X11988452Y-17042500D01*
X11969405Y-17013929D01*
X11959881Y-17004405D01*
D13*
X6997500Y-17406500D02*
G75*
G03*
X6997500Y-17406500I-40000J0D01*
G01*
D11*
X7293214Y-17296976D02*
X7312262Y-17296976D01*
X7331309Y-17306500D01*
X7340833Y-17316024D01*
X7350357Y-17335071D01*
X7359881Y-17373167D01*
X7359881Y-17420786D01*
X7350357Y-17458881D01*
X7340833Y-17477929D01*
X7331309Y-17487452D01*
X7312262Y-17496976D01*
X7293214Y-17496976D01*
X7274167Y-17487452D01*
X7264643Y-17477929D01*
X7255119Y-17458881D01*
X7245595Y-17420786D01*
X7245595Y-17373167D01*
X7255119Y-17335071D01*
X7264643Y-17316024D01*
X7274167Y-17306500D01*
X7293214Y-17296976D01*
X7445595Y-17477929D02*
X7455119Y-17487452D01*
X7445595Y-17496976D01*
X7436071Y-17487452D01*
X7445595Y-17477929D01*
X7445595Y-17496976D01*
X7569405Y-17382690D02*
X7550357Y-17373167D01*
X7540833Y-17363643D01*
X7531309Y-17344595D01*
X7531309Y-17335071D01*
X7540833Y-17316024D01*
X7550357Y-17306500D01*
X7569405Y-17296976D01*
X7607500Y-17296976D01*
X7626548Y-17306500D01*
X7636071Y-17316024D01*
X7645595Y-17335071D01*
X7645595Y-17344595D01*
X7636071Y-17363643D01*
X7626548Y-17373167D01*
X7607500Y-17382690D01*
X7569405Y-17382690D01*
X7550357Y-17392214D01*
X7540833Y-17401738D01*
X7531309Y-17420786D01*
X7531309Y-17458881D01*
X7540833Y-17477929D01*
X7550357Y-17487452D01*
X7569405Y-17496976D01*
X7607500Y-17496976D01*
X7626548Y-17487452D01*
X7636071Y-17477929D01*
X7645595Y-17458881D01*
X7645595Y-17420786D01*
X7636071Y-17401738D01*
X7626548Y-17392214D01*
X7607500Y-17382690D01*
X7769405Y-17296976D02*
X7788452Y-17296976D01*
X7807500Y-17306500D01*
X7817024Y-17316024D01*
X7826548Y-17335071D01*
X7836071Y-17373167D01*
X7836071Y-17420786D01*
X7826548Y-17458881D01*
X7817024Y-17477929D01*
X7807500Y-17487452D01*
X7788452Y-17496976D01*
X7769405Y-17496976D01*
X7750357Y-17487452D01*
X7740833Y-17477929D01*
X7731309Y-17458881D01*
X7721786Y-17420786D01*
X7721786Y-17373167D01*
X7731309Y-17335071D01*
X7740833Y-17316024D01*
X7750357Y-17306500D01*
X7769405Y-17296976D01*
X7959881Y-17296976D02*
X7978928Y-17296976D01*
X7997976Y-17306500D01*
X8007500Y-17316024D01*
X8017024Y-17335071D01*
X8026548Y-17373167D01*
X8026548Y-17420786D01*
X8017024Y-17458881D01*
X8007500Y-17477929D01*
X7997976Y-17487452D01*
X7978928Y-17496976D01*
X7959881Y-17496976D01*
X7940833Y-17487452D01*
X7931309Y-17477929D01*
X7921786Y-17458881D01*
X7912262Y-17420786D01*
X7912262Y-17373167D01*
X7921786Y-17335071D01*
X7931309Y-17316024D01*
X7940833Y-17306500D01*
X7959881Y-17296976D01*
X8112262Y-17496976D02*
X8112262Y-17363643D01*
X8112262Y-17382690D02*
X8121786Y-17373167D01*
X8140833Y-17363643D01*
X8169405Y-17363643D01*
X8188452Y-17373167D01*
X8197976Y-17392214D01*
X8197976Y-17496976D01*
X8197976Y-17392214D02*
X8207500Y-17373167D01*
X8226548Y-17363643D01*
X8255119Y-17363643D01*
X8274167Y-17373167D01*
X8283690Y-17392214D01*
X8283690Y-17496976D01*
X8378928Y-17496976D02*
X8378928Y-17363643D01*
X8378928Y-17382690D02*
X8388452Y-17373167D01*
X8407500Y-17363643D01*
X8436071Y-17363643D01*
X8455119Y-17373167D01*
X8464643Y-17392214D01*
X8464643Y-17496976D01*
X8464643Y-17392214D02*
X8474167Y-17373167D01*
X8493214Y-17363643D01*
X8521786Y-17363643D01*
X8540833Y-17373167D01*
X8550357Y-17392214D01*
X8550357Y-17496976D01*
X8940833Y-17287452D02*
X8769405Y-17544595D01*
X9197976Y-17296976D02*
X9217024Y-17296976D01*
X9236071Y-17306500D01*
X9245595Y-17316024D01*
X9255119Y-17335071D01*
X9264643Y-17373167D01*
X9264643Y-17420786D01*
X9255119Y-17458881D01*
X9245595Y-17477929D01*
X9236071Y-17487452D01*
X9217024Y-17496976D01*
X9197976Y-17496976D01*
X9178929Y-17487452D01*
X9169405Y-17477929D01*
X9159881Y-17458881D01*
X9150357Y-17420786D01*
X9150357Y-17373167D01*
X9159881Y-17335071D01*
X9169405Y-17316024D01*
X9178929Y-17306500D01*
X9197976Y-17296976D01*
X9350357Y-17477929D02*
X9359881Y-17487452D01*
X9350357Y-17496976D01*
X9340833Y-17487452D01*
X9350357Y-17477929D01*
X9350357Y-17496976D01*
X9483690Y-17296976D02*
X9502738Y-17296976D01*
X9521786Y-17306500D01*
X9531310Y-17316024D01*
X9540833Y-17335071D01*
X9550357Y-17373167D01*
X9550357Y-17420786D01*
X9540833Y-17458881D01*
X9531310Y-17477929D01*
X9521786Y-17487452D01*
X9502738Y-17496976D01*
X9483690Y-17496976D01*
X9464643Y-17487452D01*
X9455119Y-17477929D01*
X9445595Y-17458881D01*
X9436071Y-17420786D01*
X9436071Y-17373167D01*
X9445595Y-17335071D01*
X9455119Y-17316024D01*
X9464643Y-17306500D01*
X9483690Y-17296976D01*
X9617024Y-17296976D02*
X9740833Y-17296976D01*
X9674167Y-17373167D01*
X9702738Y-17373167D01*
X9721786Y-17382690D01*
X9731310Y-17392214D01*
X9740833Y-17411262D01*
X9740833Y-17458881D01*
X9731310Y-17477929D01*
X9721786Y-17487452D01*
X9702738Y-17496976D01*
X9645595Y-17496976D01*
X9626548Y-17487452D01*
X9617024Y-17477929D01*
X9931310Y-17496976D02*
X9817024Y-17496976D01*
X9874167Y-17496976D02*
X9874167Y-17296976D01*
X9855119Y-17325548D01*
X9836071Y-17344595D01*
X9817024Y-17354119D01*
X10112262Y-17296976D02*
X10017024Y-17296976D01*
X10007500Y-17392214D01*
X10017024Y-17382690D01*
X10036071Y-17373167D01*
X10083690Y-17373167D01*
X10102738Y-17382690D01*
X10112262Y-17392214D01*
X10121786Y-17411262D01*
X10121786Y-17458881D01*
X10112262Y-17477929D01*
X10102738Y-17487452D01*
X10083690Y-17496976D01*
X10036071Y-17496976D01*
X10017024Y-17487452D01*
X10007500Y-17477929D01*
X10197976Y-17296976D02*
X10197976Y-17335071D01*
X10274167Y-17296976D02*
X10274167Y-17335071D01*
X10569405Y-17573167D02*
X10559881Y-17563643D01*
X10540833Y-17535071D01*
X10531310Y-17516024D01*
X10521786Y-17487452D01*
X10512262Y-17439833D01*
X10512262Y-17401738D01*
X10521786Y-17354119D01*
X10531310Y-17325548D01*
X10540833Y-17306500D01*
X10559881Y-17277929D01*
X10569405Y-17268405D01*
X10750357Y-17496976D02*
X10636071Y-17496976D01*
X10693214Y-17496976D02*
X10693214Y-17296976D01*
X10674167Y-17325548D01*
X10655119Y-17344595D01*
X10636071Y-17354119D01*
X10921786Y-17296976D02*
X10883690Y-17296976D01*
X10864643Y-17306500D01*
X10855119Y-17316024D01*
X10836071Y-17344595D01*
X10826548Y-17382690D01*
X10826548Y-17458881D01*
X10836071Y-17477929D01*
X10845595Y-17487452D01*
X10864643Y-17496976D01*
X10902738Y-17496976D01*
X10921786Y-17487452D01*
X10931310Y-17477929D01*
X10940833Y-17458881D01*
X10940833Y-17411262D01*
X10931310Y-17392214D01*
X10921786Y-17382690D01*
X10902738Y-17373167D01*
X10864643Y-17373167D01*
X10845595Y-17382690D01*
X10836071Y-17392214D01*
X10826548Y-17411262D01*
X11178929Y-17496976D02*
X11178929Y-17296976D01*
X11264643Y-17496976D02*
X11264643Y-17392214D01*
X11255119Y-17373167D01*
X11236071Y-17363643D01*
X11207500Y-17363643D01*
X11188452Y-17373167D01*
X11178929Y-17382690D01*
X11388452Y-17496976D02*
X11369405Y-17487452D01*
X11359881Y-17477929D01*
X11350357Y-17458881D01*
X11350357Y-17401738D01*
X11359881Y-17382690D01*
X11369405Y-17373167D01*
X11388452Y-17363643D01*
X11417024Y-17363643D01*
X11436071Y-17373167D01*
X11445595Y-17382690D01*
X11455119Y-17401738D01*
X11455119Y-17458881D01*
X11445595Y-17477929D01*
X11436071Y-17487452D01*
X11417024Y-17496976D01*
X11388452Y-17496976D01*
X11569405Y-17496976D02*
X11550357Y-17487452D01*
X11540833Y-17468405D01*
X11540833Y-17296976D01*
X11721786Y-17487452D02*
X11702738Y-17496976D01*
X11664643Y-17496976D01*
X11645595Y-17487452D01*
X11636071Y-17468405D01*
X11636071Y-17392214D01*
X11645595Y-17373167D01*
X11664643Y-17363643D01*
X11702738Y-17363643D01*
X11721786Y-17373167D01*
X11731309Y-17392214D01*
X11731309Y-17411262D01*
X11636071Y-17430310D01*
X11807500Y-17487452D02*
X11826548Y-17496976D01*
X11864643Y-17496976D01*
X11883690Y-17487452D01*
X11893214Y-17468405D01*
X11893214Y-17458881D01*
X11883690Y-17439833D01*
X11864643Y-17430310D01*
X11836071Y-17430310D01*
X11817024Y-17420786D01*
X11807500Y-17401738D01*
X11807500Y-17392214D01*
X11817024Y-17373167D01*
X11836071Y-17363643D01*
X11864643Y-17363643D01*
X11883690Y-17373167D01*
X11959881Y-17573167D02*
X11969405Y-17563643D01*
X11988452Y-17535071D01*
X11997976Y-17516024D01*
X12007500Y-17487452D01*
X12017024Y-17439833D01*
X12017024Y-17401738D01*
X12007500Y-17354119D01*
X11997976Y-17325548D01*
X11988452Y-17306500D01*
X11969405Y-17277929D01*
X11959881Y-17268405D01*
D14*
X6951500Y-17624500D02*
X6951500Y-17716500D01*
X6905500Y-17670500D02*
X6997500Y-17670500D01*
D11*
X7293214Y-17560976D02*
X7312262Y-17560976D01*
X7331309Y-17570500D01*
X7340833Y-17580024D01*
X7350357Y-17599071D01*
X7359881Y-17637167D01*
X7359881Y-17684786D01*
X7350357Y-17722881D01*
X7340833Y-17741929D01*
X7331309Y-17751452D01*
X7312262Y-17760976D01*
X7293214Y-17760976D01*
X7274167Y-17751452D01*
X7264643Y-17741929D01*
X7255119Y-17722881D01*
X7245595Y-17684786D01*
X7245595Y-17637167D01*
X7255119Y-17599071D01*
X7264643Y-17580024D01*
X7274167Y-17570500D01*
X7293214Y-17560976D01*
X7445595Y-17741929D02*
X7455119Y-17751452D01*
X7445595Y-17760976D01*
X7436071Y-17751452D01*
X7445595Y-17741929D01*
X7445595Y-17760976D01*
X7550357Y-17760976D02*
X7588452Y-17760976D01*
X7607500Y-17751452D01*
X7617024Y-17741929D01*
X7636071Y-17713357D01*
X7645595Y-17675262D01*
X7645595Y-17599071D01*
X7636071Y-17580024D01*
X7626548Y-17570500D01*
X7607500Y-17560976D01*
X7569405Y-17560976D01*
X7550357Y-17570500D01*
X7540833Y-17580024D01*
X7531309Y-17599071D01*
X7531309Y-17646690D01*
X7540833Y-17665738D01*
X7550357Y-17675262D01*
X7569405Y-17684786D01*
X7607500Y-17684786D01*
X7626548Y-17675262D01*
X7636071Y-17665738D01*
X7645595Y-17646690D01*
X7721786Y-17580024D02*
X7731309Y-17570500D01*
X7750357Y-17560976D01*
X7797976Y-17560976D01*
X7817024Y-17570500D01*
X7826548Y-17580024D01*
X7836071Y-17599071D01*
X7836071Y-17618119D01*
X7826548Y-17646690D01*
X7712262Y-17760976D01*
X7836071Y-17760976D01*
X7959881Y-17560976D02*
X7978928Y-17560976D01*
X7997976Y-17570500D01*
X8007500Y-17580024D01*
X8017024Y-17599071D01*
X8026548Y-17637167D01*
X8026548Y-17684786D01*
X8017024Y-17722881D01*
X8007500Y-17741929D01*
X7997976Y-17751452D01*
X7978928Y-17760976D01*
X7959881Y-17760976D01*
X7940833Y-17751452D01*
X7931309Y-17741929D01*
X7921786Y-17722881D01*
X7912262Y-17684786D01*
X7912262Y-17637167D01*
X7921786Y-17599071D01*
X7931309Y-17580024D01*
X7940833Y-17570500D01*
X7959881Y-17560976D01*
X8112262Y-17760976D02*
X8112262Y-17627643D01*
X8112262Y-17646690D02*
X8121786Y-17637167D01*
X8140833Y-17627643D01*
X8169405Y-17627643D01*
X8188452Y-17637167D01*
X8197976Y-17656214D01*
X8197976Y-17760976D01*
X8197976Y-17656214D02*
X8207500Y-17637167D01*
X8226548Y-17627643D01*
X8255119Y-17627643D01*
X8274167Y-17637167D01*
X8283690Y-17656214D01*
X8283690Y-17760976D01*
X8378928Y-17760976D02*
X8378928Y-17627643D01*
X8378928Y-17646690D02*
X8388452Y-17637167D01*
X8407500Y-17627643D01*
X8436071Y-17627643D01*
X8455119Y-17637167D01*
X8464643Y-17656214D01*
X8464643Y-17760976D01*
X8464643Y-17656214D02*
X8474167Y-17637167D01*
X8493214Y-17627643D01*
X8521786Y-17627643D01*
X8540833Y-17637167D01*
X8550357Y-17656214D01*
X8550357Y-17760976D01*
X8940833Y-17551452D02*
X8769405Y-17808595D01*
X9197976Y-17560976D02*
X9217024Y-17560976D01*
X9236071Y-17570500D01*
X9245595Y-17580024D01*
X9255119Y-17599071D01*
X9264643Y-17637167D01*
X9264643Y-17684786D01*
X9255119Y-17722881D01*
X9245595Y-17741929D01*
X9236071Y-17751452D01*
X9217024Y-17760976D01*
X9197976Y-17760976D01*
X9178929Y-17751452D01*
X9169405Y-17741929D01*
X9159881Y-17722881D01*
X9150357Y-17684786D01*
X9150357Y-17637167D01*
X9159881Y-17599071D01*
X9169405Y-17580024D01*
X9178929Y-17570500D01*
X9197976Y-17560976D01*
X9350357Y-17741929D02*
X9359881Y-17751452D01*
X9350357Y-17760976D01*
X9340833Y-17751452D01*
X9350357Y-17741929D01*
X9350357Y-17760976D01*
X9483690Y-17560976D02*
X9502738Y-17560976D01*
X9521786Y-17570500D01*
X9531310Y-17580024D01*
X9540833Y-17599071D01*
X9550357Y-17637167D01*
X9550357Y-17684786D01*
X9540833Y-17722881D01*
X9531310Y-17741929D01*
X9521786Y-17751452D01*
X9502738Y-17760976D01*
X9483690Y-17760976D01*
X9464643Y-17751452D01*
X9455119Y-17741929D01*
X9445595Y-17722881D01*
X9436071Y-17684786D01*
X9436071Y-17637167D01*
X9445595Y-17599071D01*
X9455119Y-17580024D01*
X9464643Y-17570500D01*
X9483690Y-17560976D01*
X9617024Y-17560976D02*
X9740833Y-17560976D01*
X9674167Y-17637167D01*
X9702738Y-17637167D01*
X9721786Y-17646690D01*
X9731310Y-17656214D01*
X9740833Y-17675262D01*
X9740833Y-17722881D01*
X9731310Y-17741929D01*
X9721786Y-17751452D01*
X9702738Y-17760976D01*
X9645595Y-17760976D01*
X9626548Y-17751452D01*
X9617024Y-17741929D01*
X9912262Y-17560976D02*
X9874167Y-17560976D01*
X9855119Y-17570500D01*
X9845595Y-17580024D01*
X9826548Y-17608595D01*
X9817024Y-17646690D01*
X9817024Y-17722881D01*
X9826548Y-17741929D01*
X9836071Y-17751452D01*
X9855119Y-17760976D01*
X9893214Y-17760976D01*
X9912262Y-17751452D01*
X9921786Y-17741929D01*
X9931310Y-17722881D01*
X9931310Y-17675262D01*
X9921786Y-17656214D01*
X9912262Y-17646690D01*
X9893214Y-17637167D01*
X9855119Y-17637167D01*
X9836071Y-17646690D01*
X9826548Y-17656214D01*
X9817024Y-17675262D01*
X10007500Y-17580024D02*
X10017024Y-17570500D01*
X10036071Y-17560976D01*
X10083690Y-17560976D01*
X10102738Y-17570500D01*
X10112262Y-17580024D01*
X10121786Y-17599071D01*
X10121786Y-17618119D01*
X10112262Y-17646690D01*
X9997976Y-17760976D01*
X10121786Y-17760976D01*
X10197976Y-17560976D02*
X10197976Y-17599071D01*
X10274167Y-17560976D02*
X10274167Y-17599071D01*
X10569405Y-17837167D02*
X10559881Y-17827643D01*
X10540833Y-17799071D01*
X10531310Y-17780024D01*
X10521786Y-17751452D01*
X10512262Y-17703833D01*
X10512262Y-17665738D01*
X10521786Y-17618119D01*
X10531310Y-17589548D01*
X10540833Y-17570500D01*
X10559881Y-17541929D01*
X10569405Y-17532405D01*
X10731310Y-17627643D02*
X10731310Y-17760976D01*
X10683690Y-17551452D02*
X10636071Y-17694310D01*
X10759881Y-17694310D01*
X10988452Y-17760976D02*
X10988452Y-17560976D01*
X11074167Y-17760976D02*
X11074167Y-17656214D01*
X11064643Y-17637167D01*
X11045595Y-17627643D01*
X11017024Y-17627643D01*
X10997976Y-17637167D01*
X10988452Y-17646690D01*
X11197976Y-17760976D02*
X11178929Y-17751452D01*
X11169405Y-17741929D01*
X11159881Y-17722881D01*
X11159881Y-17665738D01*
X11169405Y-17646690D01*
X11178929Y-17637167D01*
X11197976Y-17627643D01*
X11226548Y-17627643D01*
X11245595Y-17637167D01*
X11255119Y-17646690D01*
X11264643Y-17665738D01*
X11264643Y-17722881D01*
X11255119Y-17741929D01*
X11245595Y-17751452D01*
X11226548Y-17760976D01*
X11197976Y-17760976D01*
X11378928Y-17760976D02*
X11359881Y-17751452D01*
X11350357Y-17732405D01*
X11350357Y-17560976D01*
X11531309Y-17751452D02*
X11512262Y-17760976D01*
X11474167Y-17760976D01*
X11455119Y-17751452D01*
X11445595Y-17732405D01*
X11445595Y-17656214D01*
X11455119Y-17637167D01*
X11474167Y-17627643D01*
X11512262Y-17627643D01*
X11531309Y-17637167D01*
X11540833Y-17656214D01*
X11540833Y-17675262D01*
X11445595Y-17694310D01*
X11617024Y-17751452D02*
X11636071Y-17760976D01*
X11674167Y-17760976D01*
X11693214Y-17751452D01*
X11702738Y-17732405D01*
X11702738Y-17722881D01*
X11693214Y-17703833D01*
X11674167Y-17694310D01*
X11645595Y-17694310D01*
X11626548Y-17684786D01*
X11617024Y-17665738D01*
X11617024Y-17656214D01*
X11626548Y-17637167D01*
X11645595Y-17627643D01*
X11674167Y-17627643D01*
X11693214Y-17637167D01*
X11769405Y-17837167D02*
X11778928Y-17827643D01*
X11797976Y-17799071D01*
X11807500Y-17780024D01*
X11817024Y-17751452D01*
X11826548Y-17703833D01*
X11826548Y-17665738D01*
X11817024Y-17618119D01*
X11807500Y-17589548D01*
X11797976Y-17570500D01*
X11778928Y-17541929D01*
X11769405Y-17532405D01*
D15*
X6982856Y-17969856D02*
X6982856Y-17899144D01*
X6912144Y-17899144D01*
X6912144Y-17969856D01*
X6982856Y-17969856D01*
D11*
X7359881Y-18024976D02*
X7245595Y-18024976D01*
X7302738Y-18024976D02*
X7302738Y-17824976D01*
X7283690Y-17853548D01*
X7264643Y-17872595D01*
X7245595Y-17882119D01*
X7445595Y-18005929D02*
X7455119Y-18015452D01*
X7445595Y-18024976D01*
X7436071Y-18015452D01*
X7445595Y-18005929D01*
X7445595Y-18024976D01*
X7578928Y-17824976D02*
X7597976Y-17824976D01*
X7617024Y-17834500D01*
X7626548Y-17844024D01*
X7636071Y-17863071D01*
X7645595Y-17901167D01*
X7645595Y-17948786D01*
X7636071Y-17986881D01*
X7626548Y-18005929D01*
X7617024Y-18015452D01*
X7597976Y-18024976D01*
X7578928Y-18024976D01*
X7559881Y-18015452D01*
X7550357Y-18005929D01*
X7540833Y-17986881D01*
X7531309Y-17948786D01*
X7531309Y-17901167D01*
X7540833Y-17863071D01*
X7550357Y-17844024D01*
X7559881Y-17834500D01*
X7578928Y-17824976D01*
X7769405Y-17824976D02*
X7788452Y-17824976D01*
X7807500Y-17834500D01*
X7817024Y-17844024D01*
X7826548Y-17863071D01*
X7836071Y-17901167D01*
X7836071Y-17948786D01*
X7826548Y-17986881D01*
X7817024Y-18005929D01*
X7807500Y-18015452D01*
X7788452Y-18024976D01*
X7769405Y-18024976D01*
X7750357Y-18015452D01*
X7740833Y-18005929D01*
X7731309Y-17986881D01*
X7721786Y-17948786D01*
X7721786Y-17901167D01*
X7731309Y-17863071D01*
X7740833Y-17844024D01*
X7750357Y-17834500D01*
X7769405Y-17824976D01*
X7959881Y-17824976D02*
X7978928Y-17824976D01*
X7997976Y-17834500D01*
X8007500Y-17844024D01*
X8017024Y-17863071D01*
X8026548Y-17901167D01*
X8026548Y-17948786D01*
X8017024Y-17986881D01*
X8007500Y-18005929D01*
X7997976Y-18015452D01*
X7978928Y-18024976D01*
X7959881Y-18024976D01*
X7940833Y-18015452D01*
X7931309Y-18005929D01*
X7921786Y-17986881D01*
X7912262Y-17948786D01*
X7912262Y-17901167D01*
X7921786Y-17863071D01*
X7931309Y-17844024D01*
X7940833Y-17834500D01*
X7959881Y-17824976D01*
X8112262Y-18024976D02*
X8112262Y-17891643D01*
X8112262Y-17910690D02*
X8121786Y-17901167D01*
X8140833Y-17891643D01*
X8169405Y-17891643D01*
X8188452Y-17901167D01*
X8197976Y-17920214D01*
X8197976Y-18024976D01*
X8197976Y-17920214D02*
X8207500Y-17901167D01*
X8226548Y-17891643D01*
X8255119Y-17891643D01*
X8274167Y-17901167D01*
X8283690Y-17920214D01*
X8283690Y-18024976D01*
X8378928Y-18024976D02*
X8378928Y-17891643D01*
X8378928Y-17910690D02*
X8388452Y-17901167D01*
X8407500Y-17891643D01*
X8436071Y-17891643D01*
X8455119Y-17901167D01*
X8464643Y-17920214D01*
X8464643Y-18024976D01*
X8464643Y-17920214D02*
X8474167Y-17901167D01*
X8493214Y-17891643D01*
X8521786Y-17891643D01*
X8540833Y-17901167D01*
X8550357Y-17920214D01*
X8550357Y-18024976D01*
X8940833Y-17815452D02*
X8769405Y-18072595D01*
X9197976Y-17824976D02*
X9217024Y-17824976D01*
X9236071Y-17834500D01*
X9245595Y-17844024D01*
X9255119Y-17863071D01*
X9264643Y-17901167D01*
X9264643Y-17948786D01*
X9255119Y-17986881D01*
X9245595Y-18005929D01*
X9236071Y-18015452D01*
X9217024Y-18024976D01*
X9197976Y-18024976D01*
X9178929Y-18015452D01*
X9169405Y-18005929D01*
X9159881Y-17986881D01*
X9150357Y-17948786D01*
X9150357Y-17901167D01*
X9159881Y-17863071D01*
X9169405Y-17844024D01*
X9178929Y-17834500D01*
X9197976Y-17824976D01*
X9350357Y-18005929D02*
X9359881Y-18015452D01*
X9350357Y-18024976D01*
X9340833Y-18015452D01*
X9350357Y-18005929D01*
X9350357Y-18024976D01*
X9483690Y-17824976D02*
X9502738Y-17824976D01*
X9521786Y-17834500D01*
X9531310Y-17844024D01*
X9540833Y-17863071D01*
X9550357Y-17901167D01*
X9550357Y-17948786D01*
X9540833Y-17986881D01*
X9531310Y-18005929D01*
X9521786Y-18015452D01*
X9502738Y-18024976D01*
X9483690Y-18024976D01*
X9464643Y-18015452D01*
X9455119Y-18005929D01*
X9445595Y-17986881D01*
X9436071Y-17948786D01*
X9436071Y-17901167D01*
X9445595Y-17863071D01*
X9455119Y-17844024D01*
X9464643Y-17834500D01*
X9483690Y-17824976D01*
X9617024Y-17824976D02*
X9740833Y-17824976D01*
X9674167Y-17901167D01*
X9702738Y-17901167D01*
X9721786Y-17910690D01*
X9731310Y-17920214D01*
X9740833Y-17939262D01*
X9740833Y-17986881D01*
X9731310Y-18005929D01*
X9721786Y-18015452D01*
X9702738Y-18024976D01*
X9645595Y-18024976D01*
X9626548Y-18015452D01*
X9617024Y-18005929D01*
X9836071Y-18024976D02*
X9874167Y-18024976D01*
X9893214Y-18015452D01*
X9902738Y-18005929D01*
X9921786Y-17977357D01*
X9931310Y-17939262D01*
X9931310Y-17863071D01*
X9921786Y-17844024D01*
X9912262Y-17834500D01*
X9893214Y-17824976D01*
X9855119Y-17824976D01*
X9836071Y-17834500D01*
X9826548Y-17844024D01*
X9817024Y-17863071D01*
X9817024Y-17910690D01*
X9826548Y-17929738D01*
X9836071Y-17939262D01*
X9855119Y-17948786D01*
X9893214Y-17948786D01*
X9912262Y-17939262D01*
X9921786Y-17929738D01*
X9931310Y-17910690D01*
X10102738Y-17891643D02*
X10102738Y-18024976D01*
X10055119Y-17815452D02*
X10007500Y-17958310D01*
X10131310Y-17958310D01*
X10197976Y-17824976D02*
X10197976Y-17863071D01*
X10274167Y-17824976D02*
X10274167Y-17863071D01*
X10569405Y-18101167D02*
X10559881Y-18091643D01*
X10540833Y-18063071D01*
X10531310Y-18044024D01*
X10521786Y-18015452D01*
X10512262Y-17967833D01*
X10512262Y-17929738D01*
X10521786Y-17882119D01*
X10531310Y-17853548D01*
X10540833Y-17834500D01*
X10559881Y-17805929D01*
X10569405Y-17796405D01*
X10750357Y-18024976D02*
X10636071Y-18024976D01*
X10693214Y-18024976D02*
X10693214Y-17824976D01*
X10674167Y-17853548D01*
X10655119Y-17872595D01*
X10636071Y-17882119D01*
X10845595Y-18024976D02*
X10883690Y-18024976D01*
X10902738Y-18015452D01*
X10912262Y-18005929D01*
X10931310Y-17977357D01*
X10940833Y-17939262D01*
X10940833Y-17863071D01*
X10931310Y-17844024D01*
X10921786Y-17834500D01*
X10902738Y-17824976D01*
X10864643Y-17824976D01*
X10845595Y-17834500D01*
X10836071Y-17844024D01*
X10826548Y-17863071D01*
X10826548Y-17910690D01*
X10836071Y-17929738D01*
X10845595Y-17939262D01*
X10864643Y-17948786D01*
X10902738Y-17948786D01*
X10921786Y-17939262D01*
X10931310Y-17929738D01*
X10940833Y-17910690D01*
X11178929Y-18024976D02*
X11178929Y-17824976D01*
X11264643Y-18024976D02*
X11264643Y-17920214D01*
X11255119Y-17901167D01*
X11236071Y-17891643D01*
X11207500Y-17891643D01*
X11188452Y-17901167D01*
X11178929Y-17910690D01*
X11388452Y-18024976D02*
X11369405Y-18015452D01*
X11359881Y-18005929D01*
X11350357Y-17986881D01*
X11350357Y-17929738D01*
X11359881Y-17910690D01*
X11369405Y-17901167D01*
X11388452Y-17891643D01*
X11417024Y-17891643D01*
X11436071Y-17901167D01*
X11445595Y-17910690D01*
X11455119Y-17929738D01*
X11455119Y-17986881D01*
X11445595Y-18005929D01*
X11436071Y-18015452D01*
X11417024Y-18024976D01*
X11388452Y-18024976D01*
X11569405Y-18024976D02*
X11550357Y-18015452D01*
X11540833Y-17996405D01*
X11540833Y-17824976D01*
X11721786Y-18015452D02*
X11702738Y-18024976D01*
X11664643Y-18024976D01*
X11645595Y-18015452D01*
X11636071Y-17996405D01*
X11636071Y-17920214D01*
X11645595Y-17901167D01*
X11664643Y-17891643D01*
X11702738Y-17891643D01*
X11721786Y-17901167D01*
X11731309Y-17920214D01*
X11731309Y-17939262D01*
X11636071Y-17958310D01*
X11807500Y-18015452D02*
X11826548Y-18024976D01*
X11864643Y-18024976D01*
X11883690Y-18015452D01*
X11893214Y-17996405D01*
X11893214Y-17986881D01*
X11883690Y-17967833D01*
X11864643Y-17958310D01*
X11836071Y-17958310D01*
X11817024Y-17948786D01*
X11807500Y-17929738D01*
X11807500Y-17920214D01*
X11817024Y-17901167D01*
X11836071Y-17891643D01*
X11864643Y-17891643D01*
X11883690Y-17901167D01*
X11959881Y-18101167D02*
X11969405Y-18091643D01*
X11988452Y-18063071D01*
X11997976Y-18044024D01*
X12007500Y-18015452D01*
X12017024Y-17967833D01*
X12017024Y-17929738D01*
X12007500Y-17882119D01*
X11997976Y-17853548D01*
X11988452Y-17834500D01*
X11969405Y-17805929D01*
X11959881Y-17796405D01*
D16*
X6937500Y-18258500D02*
X6997500Y-18198500D01*
X6937500Y-18138500D01*
X6877500Y-18198500D01*
X6937500Y-18258500D01*
D11*
X7359881Y-18288976D02*
X7245595Y-18288976D01*
X7302738Y-18288976D02*
X7302738Y-18088976D01*
X7283690Y-18117548D01*
X7264643Y-18136595D01*
X7245595Y-18146119D01*
X7445595Y-18269929D02*
X7455119Y-18279452D01*
X7445595Y-18288976D01*
X7436071Y-18279452D01*
X7445595Y-18269929D01*
X7445595Y-18288976D01*
X7531309Y-18108024D02*
X7540833Y-18098500D01*
X7559881Y-18088976D01*
X7607500Y-18088976D01*
X7626548Y-18098500D01*
X7636071Y-18108024D01*
X7645595Y-18127071D01*
X7645595Y-18146119D01*
X7636071Y-18174690D01*
X7521786Y-18288976D01*
X7645595Y-18288976D01*
X7769405Y-18088976D02*
X7788452Y-18088976D01*
X7807500Y-18098500D01*
X7817024Y-18108024D01*
X7826548Y-18127071D01*
X7836071Y-18165167D01*
X7836071Y-18212786D01*
X7826548Y-18250881D01*
X7817024Y-18269929D01*
X7807500Y-18279452D01*
X7788452Y-18288976D01*
X7769405Y-18288976D01*
X7750357Y-18279452D01*
X7740833Y-18269929D01*
X7731309Y-18250881D01*
X7721786Y-18212786D01*
X7721786Y-18165167D01*
X7731309Y-18127071D01*
X7740833Y-18108024D01*
X7750357Y-18098500D01*
X7769405Y-18088976D01*
X7959881Y-18088976D02*
X7978928Y-18088976D01*
X7997976Y-18098500D01*
X8007500Y-18108024D01*
X8017024Y-18127071D01*
X8026548Y-18165167D01*
X8026548Y-18212786D01*
X8017024Y-18250881D01*
X8007500Y-18269929D01*
X7997976Y-18279452D01*
X7978928Y-18288976D01*
X7959881Y-18288976D01*
X7940833Y-18279452D01*
X7931309Y-18269929D01*
X7921786Y-18250881D01*
X7912262Y-18212786D01*
X7912262Y-18165167D01*
X7921786Y-18127071D01*
X7931309Y-18108024D01*
X7940833Y-18098500D01*
X7959881Y-18088976D01*
X8112262Y-18288976D02*
X8112262Y-18155643D01*
X8112262Y-18174690D02*
X8121786Y-18165167D01*
X8140833Y-18155643D01*
X8169405Y-18155643D01*
X8188452Y-18165167D01*
X8197976Y-18184214D01*
X8197976Y-18288976D01*
X8197976Y-18184214D02*
X8207500Y-18165167D01*
X8226548Y-18155643D01*
X8255119Y-18155643D01*
X8274167Y-18165167D01*
X8283690Y-18184214D01*
X8283690Y-18288976D01*
X8378928Y-18288976D02*
X8378928Y-18155643D01*
X8378928Y-18174690D02*
X8388452Y-18165167D01*
X8407500Y-18155643D01*
X8436071Y-18155643D01*
X8455119Y-18165167D01*
X8464643Y-18184214D01*
X8464643Y-18288976D01*
X8464643Y-18184214D02*
X8474167Y-18165167D01*
X8493214Y-18155643D01*
X8521786Y-18155643D01*
X8540833Y-18165167D01*
X8550357Y-18184214D01*
X8550357Y-18288976D01*
X8940833Y-18079452D02*
X8769405Y-18336595D01*
X9197976Y-18088976D02*
X9217024Y-18088976D01*
X9236071Y-18098500D01*
X9245595Y-18108024D01*
X9255119Y-18127071D01*
X9264643Y-18165167D01*
X9264643Y-18212786D01*
X9255119Y-18250881D01*
X9245595Y-18269929D01*
X9236071Y-18279452D01*
X9217024Y-18288976D01*
X9197976Y-18288976D01*
X9178929Y-18279452D01*
X9169405Y-18269929D01*
X9159881Y-18250881D01*
X9150357Y-18212786D01*
X9150357Y-18165167D01*
X9159881Y-18127071D01*
X9169405Y-18108024D01*
X9178929Y-18098500D01*
X9197976Y-18088976D01*
X9350357Y-18269929D02*
X9359881Y-18279452D01*
X9350357Y-18288976D01*
X9340833Y-18279452D01*
X9350357Y-18269929D01*
X9350357Y-18288976D01*
X9483690Y-18088976D02*
X9502738Y-18088976D01*
X9521786Y-18098500D01*
X9531310Y-18108024D01*
X9540833Y-18127071D01*
X9550357Y-18165167D01*
X9550357Y-18212786D01*
X9540833Y-18250881D01*
X9531310Y-18269929D01*
X9521786Y-18279452D01*
X9502738Y-18288976D01*
X9483690Y-18288976D01*
X9464643Y-18279452D01*
X9455119Y-18269929D01*
X9445595Y-18250881D01*
X9436071Y-18212786D01*
X9436071Y-18165167D01*
X9445595Y-18127071D01*
X9455119Y-18108024D01*
X9464643Y-18098500D01*
X9483690Y-18088976D01*
X9721786Y-18155643D02*
X9721786Y-18288976D01*
X9674167Y-18079452D02*
X9626548Y-18222310D01*
X9750357Y-18222310D01*
X9807500Y-18088976D02*
X9940833Y-18088976D01*
X9855119Y-18288976D01*
X10007500Y-18108024D02*
X10017024Y-18098500D01*
X10036071Y-18088976D01*
X10083690Y-18088976D01*
X10102738Y-18098500D01*
X10112262Y-18108024D01*
X10121786Y-18127071D01*
X10121786Y-18146119D01*
X10112262Y-18174690D01*
X9997976Y-18288976D01*
X10121786Y-18288976D01*
X10197976Y-18088976D02*
X10197976Y-18127071D01*
X10274167Y-18088976D02*
X10274167Y-18127071D01*
X10569405Y-18365167D02*
X10559881Y-18355643D01*
X10540833Y-18327071D01*
X10531310Y-18308024D01*
X10521786Y-18279452D01*
X10512262Y-18231833D01*
X10512262Y-18193738D01*
X10521786Y-18146119D01*
X10531310Y-18117548D01*
X10540833Y-18098500D01*
X10559881Y-18069929D01*
X10569405Y-18060405D01*
X10636071Y-18108024D02*
X10645595Y-18098500D01*
X10664643Y-18088976D01*
X10712262Y-18088976D01*
X10731310Y-18098500D01*
X10740833Y-18108024D01*
X10750357Y-18127071D01*
X10750357Y-18146119D01*
X10740833Y-18174690D01*
X10626548Y-18288976D01*
X10750357Y-18288976D01*
X10988452Y-18288976D02*
X10988452Y-18088976D01*
X11074167Y-18288976D02*
X11074167Y-18184214D01*
X11064643Y-18165167D01*
X11045595Y-18155643D01*
X11017024Y-18155643D01*
X10997976Y-18165167D01*
X10988452Y-18174690D01*
X11197976Y-18288976D02*
X11178929Y-18279452D01*
X11169405Y-18269929D01*
X11159881Y-18250881D01*
X11159881Y-18193738D01*
X11169405Y-18174690D01*
X11178929Y-18165167D01*
X11197976Y-18155643D01*
X11226548Y-18155643D01*
X11245595Y-18165167D01*
X11255119Y-18174690D01*
X11264643Y-18193738D01*
X11264643Y-18250881D01*
X11255119Y-18269929D01*
X11245595Y-18279452D01*
X11226548Y-18288976D01*
X11197976Y-18288976D01*
X11378928Y-18288976D02*
X11359881Y-18279452D01*
X11350357Y-18260405D01*
X11350357Y-18088976D01*
X11531309Y-18279452D02*
X11512262Y-18288976D01*
X11474167Y-18288976D01*
X11455119Y-18279452D01*
X11445595Y-18260405D01*
X11445595Y-18184214D01*
X11455119Y-18165167D01*
X11474167Y-18155643D01*
X11512262Y-18155643D01*
X11531309Y-18165167D01*
X11540833Y-18184214D01*
X11540833Y-18203262D01*
X11445595Y-18222310D01*
X11617024Y-18279452D02*
X11636071Y-18288976D01*
X11674167Y-18288976D01*
X11693214Y-18279452D01*
X11702738Y-18260405D01*
X11702738Y-18250881D01*
X11693214Y-18231833D01*
X11674167Y-18222310D01*
X11645595Y-18222310D01*
X11626548Y-18212786D01*
X11617024Y-18193738D01*
X11617024Y-18184214D01*
X11626548Y-18165167D01*
X11645595Y-18155643D01*
X11674167Y-18155643D01*
X11693214Y-18165167D01*
X11769405Y-18365167D02*
X11778928Y-18355643D01*
X11797976Y-18327071D01*
X11807500Y-18308024D01*
X11817024Y-18279452D01*
X11826548Y-18231833D01*
X11826548Y-18193738D01*
X11817024Y-18146119D01*
X11807500Y-18117548D01*
X11797976Y-18098500D01*
X11778928Y-18069929D01*
X11769405Y-18060405D01*
X6797500Y-18362500D02*
X6997500Y-18562500D01*
X6997500Y-18362500D02*
X6797500Y-18562500D01*
X6997500Y-18462500D02*
G75*
G03*
X6997500Y-18462500I-100000J0D01*
G01*
X7245595Y-18372024D02*
X7255119Y-18362500D01*
X7274167Y-18352976D01*
X7321786Y-18352976D01*
X7340833Y-18362500D01*
X7350357Y-18372024D01*
X7359881Y-18391071D01*
X7359881Y-18410119D01*
X7350357Y-18438690D01*
X7236071Y-18552976D01*
X7359881Y-18552976D01*
X7445595Y-18533929D02*
X7455119Y-18543452D01*
X7445595Y-18552976D01*
X7436071Y-18543452D01*
X7445595Y-18533929D01*
X7445595Y-18552976D01*
X7521786Y-18352976D02*
X7645595Y-18352976D01*
X7578928Y-18429167D01*
X7607500Y-18429167D01*
X7626548Y-18438690D01*
X7636071Y-18448214D01*
X7645595Y-18467262D01*
X7645595Y-18514881D01*
X7636071Y-18533929D01*
X7626548Y-18543452D01*
X7607500Y-18552976D01*
X7550357Y-18552976D01*
X7531309Y-18543452D01*
X7521786Y-18533929D01*
X7712262Y-18352976D02*
X7836071Y-18352976D01*
X7769405Y-18429167D01*
X7797976Y-18429167D01*
X7817024Y-18438690D01*
X7826548Y-18448214D01*
X7836071Y-18467262D01*
X7836071Y-18514881D01*
X7826548Y-18533929D01*
X7817024Y-18543452D01*
X7797976Y-18552976D01*
X7740833Y-18552976D01*
X7721786Y-18543452D01*
X7712262Y-18533929D01*
X7959881Y-18352976D02*
X7978928Y-18352976D01*
X7997976Y-18362500D01*
X8007500Y-18372024D01*
X8017024Y-18391071D01*
X8026548Y-18429167D01*
X8026548Y-18476786D01*
X8017024Y-18514881D01*
X8007500Y-18533929D01*
X7997976Y-18543452D01*
X7978928Y-18552976D01*
X7959881Y-18552976D01*
X7940833Y-18543452D01*
X7931309Y-18533929D01*
X7921786Y-18514881D01*
X7912262Y-18476786D01*
X7912262Y-18429167D01*
X7921786Y-18391071D01*
X7931309Y-18372024D01*
X7940833Y-18362500D01*
X7959881Y-18352976D01*
X8112262Y-18552976D02*
X8112262Y-18419643D01*
X8112262Y-18438690D02*
X8121786Y-18429167D01*
X8140833Y-18419643D01*
X8169405Y-18419643D01*
X8188452Y-18429167D01*
X8197976Y-18448214D01*
X8197976Y-18552976D01*
X8197976Y-18448214D02*
X8207500Y-18429167D01*
X8226548Y-18419643D01*
X8255119Y-18419643D01*
X8274167Y-18429167D01*
X8283690Y-18448214D01*
X8283690Y-18552976D01*
X8378928Y-18552976D02*
X8378928Y-18419643D01*
X8378928Y-18438690D02*
X8388452Y-18429167D01*
X8407500Y-18419643D01*
X8436071Y-18419643D01*
X8455119Y-18429167D01*
X8464643Y-18448214D01*
X8464643Y-18552976D01*
X8464643Y-18448214D02*
X8474167Y-18429167D01*
X8493214Y-18419643D01*
X8521786Y-18419643D01*
X8540833Y-18429167D01*
X8550357Y-18448214D01*
X8550357Y-18552976D01*
X8940833Y-18343452D02*
X8769405Y-18600595D01*
X9197976Y-18352976D02*
X9217024Y-18352976D01*
X9236071Y-18362500D01*
X9245595Y-18372024D01*
X9255119Y-18391071D01*
X9264643Y-18429167D01*
X9264643Y-18476786D01*
X9255119Y-18514881D01*
X9245595Y-18533929D01*
X9236071Y-18543452D01*
X9217024Y-18552976D01*
X9197976Y-18552976D01*
X9178929Y-18543452D01*
X9169405Y-18533929D01*
X9159881Y-18514881D01*
X9150357Y-18476786D01*
X9150357Y-18429167D01*
X9159881Y-18391071D01*
X9169405Y-18372024D01*
X9178929Y-18362500D01*
X9197976Y-18352976D01*
X9350357Y-18533929D02*
X9359881Y-18543452D01*
X9350357Y-18552976D01*
X9340833Y-18543452D01*
X9350357Y-18533929D01*
X9350357Y-18552976D01*
X9483690Y-18352976D02*
X9502738Y-18352976D01*
X9521786Y-18362500D01*
X9531310Y-18372024D01*
X9540833Y-18391071D01*
X9550357Y-18429167D01*
X9550357Y-18476786D01*
X9540833Y-18514881D01*
X9531310Y-18533929D01*
X9521786Y-18543452D01*
X9502738Y-18552976D01*
X9483690Y-18552976D01*
X9464643Y-18543452D01*
X9455119Y-18533929D01*
X9445595Y-18514881D01*
X9436071Y-18476786D01*
X9436071Y-18429167D01*
X9445595Y-18391071D01*
X9455119Y-18372024D01*
X9464643Y-18362500D01*
X9483690Y-18352976D01*
X9645595Y-18552976D02*
X9683690Y-18552976D01*
X9702738Y-18543452D01*
X9712262Y-18533929D01*
X9731310Y-18505357D01*
X9740833Y-18467262D01*
X9740833Y-18391071D01*
X9731310Y-18372024D01*
X9721786Y-18362500D01*
X9702738Y-18352976D01*
X9664643Y-18352976D01*
X9645595Y-18362500D01*
X9636071Y-18372024D01*
X9626548Y-18391071D01*
X9626548Y-18438690D01*
X9636071Y-18457738D01*
X9645595Y-18467262D01*
X9664643Y-18476786D01*
X9702738Y-18476786D01*
X9721786Y-18467262D01*
X9731310Y-18457738D01*
X9740833Y-18438690D01*
X9931310Y-18552976D02*
X9817024Y-18552976D01*
X9874167Y-18552976D02*
X9874167Y-18352976D01*
X9855119Y-18381548D01*
X9836071Y-18400595D01*
X9817024Y-18410119D01*
X9997976Y-18352976D02*
X10131310Y-18352976D01*
X10045595Y-18552976D01*
X10197976Y-18352976D02*
X10197976Y-18391071D01*
X10274167Y-18352976D02*
X10274167Y-18391071D01*
X10569405Y-18629167D02*
X10559881Y-18619643D01*
X10540833Y-18591071D01*
X10531310Y-18572024D01*
X10521786Y-18543452D01*
X10512262Y-18495833D01*
X10512262Y-18457738D01*
X10521786Y-18410119D01*
X10531310Y-18381548D01*
X10540833Y-18362500D01*
X10559881Y-18333929D01*
X10569405Y-18324405D01*
X10636071Y-18372024D02*
X10645595Y-18362500D01*
X10664643Y-18352976D01*
X10712262Y-18352976D01*
X10731310Y-18362500D01*
X10740833Y-18372024D01*
X10750357Y-18391071D01*
X10750357Y-18410119D01*
X10740833Y-18438690D01*
X10626548Y-18552976D01*
X10750357Y-18552976D01*
X10988452Y-18552976D02*
X10988452Y-18352976D01*
X11074167Y-18552976D02*
X11074167Y-18448214D01*
X11064643Y-18429167D01*
X11045595Y-18419643D01*
X11017024Y-18419643D01*
X10997976Y-18429167D01*
X10988452Y-18438690D01*
X11197976Y-18552976D02*
X11178929Y-18543452D01*
X11169405Y-18533929D01*
X11159881Y-18514881D01*
X11159881Y-18457738D01*
X11169405Y-18438690D01*
X11178929Y-18429167D01*
X11197976Y-18419643D01*
X11226548Y-18419643D01*
X11245595Y-18429167D01*
X11255119Y-18438690D01*
X11264643Y-18457738D01*
X11264643Y-18514881D01*
X11255119Y-18533929D01*
X11245595Y-18543452D01*
X11226548Y-18552976D01*
X11197976Y-18552976D01*
X11378928Y-18552976D02*
X11359881Y-18543452D01*
X11350357Y-18524405D01*
X11350357Y-18352976D01*
X11531309Y-18543452D02*
X11512262Y-18552976D01*
X11474167Y-18552976D01*
X11455119Y-18543452D01*
X11445595Y-18524405D01*
X11445595Y-18448214D01*
X11455119Y-18429167D01*
X11474167Y-18419643D01*
X11512262Y-18419643D01*
X11531309Y-18429167D01*
X11540833Y-18448214D01*
X11540833Y-18467262D01*
X11445595Y-18486310D01*
X11617024Y-18543452D02*
X11636071Y-18552976D01*
X11674167Y-18552976D01*
X11693214Y-18543452D01*
X11702738Y-18524405D01*
X11702738Y-18514881D01*
X11693214Y-18495833D01*
X11674167Y-18486310D01*
X11645595Y-18486310D01*
X11626548Y-18476786D01*
X11617024Y-18457738D01*
X11617024Y-18448214D01*
X11626548Y-18429167D01*
X11645595Y-18419643D01*
X11674167Y-18419643D01*
X11693214Y-18429167D01*
X11769405Y-18629167D02*
X11778928Y-18619643D01*
X11797976Y-18591071D01*
X11807500Y-18572024D01*
X11817024Y-18543452D01*
X11826548Y-18495833D01*
X11826548Y-18457738D01*
X11817024Y-18410119D01*
X11807500Y-18381548D01*
X11797976Y-18362500D01*
X11778928Y-18333929D01*
X11769405Y-18324405D01*
X6797500Y-18682500D02*
X6997500Y-18882500D01*
X6997500Y-18682500D02*
X6797500Y-18882500D01*
X6897500Y-18682500D02*
X6897500Y-18882500D01*
X6797500Y-18782500D02*
X6997500Y-18782500D01*
X7245595Y-18692024D02*
X7255119Y-18682500D01*
X7274167Y-18672976D01*
X7321786Y-18672976D01*
X7340833Y-18682500D01*
X7350357Y-18692024D01*
X7359881Y-18711071D01*
X7359881Y-18730119D01*
X7350357Y-18758690D01*
X7236071Y-18872976D01*
X7359881Y-18872976D01*
X7445595Y-18853929D02*
X7455119Y-18863452D01*
X7445595Y-18872976D01*
X7436071Y-18863452D01*
X7445595Y-18853929D01*
X7445595Y-18872976D01*
X7521786Y-18672976D02*
X7655119Y-18672976D01*
X7569405Y-18872976D01*
X7769405Y-18672976D02*
X7788452Y-18672976D01*
X7807500Y-18682500D01*
X7817024Y-18692024D01*
X7826548Y-18711071D01*
X7836071Y-18749167D01*
X7836071Y-18796786D01*
X7826548Y-18834881D01*
X7817024Y-18853929D01*
X7807500Y-18863452D01*
X7788452Y-18872976D01*
X7769405Y-18872976D01*
X7750357Y-18863452D01*
X7740833Y-18853929D01*
X7731309Y-18834881D01*
X7721786Y-18796786D01*
X7721786Y-18749167D01*
X7731309Y-18711071D01*
X7740833Y-18692024D01*
X7750357Y-18682500D01*
X7769405Y-18672976D01*
X7959881Y-18672976D02*
X7978928Y-18672976D01*
X7997976Y-18682500D01*
X8007500Y-18692024D01*
X8017024Y-18711071D01*
X8026548Y-18749167D01*
X8026548Y-18796786D01*
X8017024Y-18834881D01*
X8007500Y-18853929D01*
X7997976Y-18863452D01*
X7978928Y-18872976D01*
X7959881Y-18872976D01*
X7940833Y-18863452D01*
X7931309Y-18853929D01*
X7921786Y-18834881D01*
X7912262Y-18796786D01*
X7912262Y-18749167D01*
X7921786Y-18711071D01*
X7931309Y-18692024D01*
X7940833Y-18682500D01*
X7959881Y-18672976D01*
X8112262Y-18872976D02*
X8112262Y-18739643D01*
X8112262Y-18758690D02*
X8121786Y-18749167D01*
X8140833Y-18739643D01*
X8169405Y-18739643D01*
X8188452Y-18749167D01*
X8197976Y-18768214D01*
X8197976Y-18872976D01*
X8197976Y-18768214D02*
X8207500Y-18749167D01*
X8226548Y-18739643D01*
X8255119Y-18739643D01*
X8274167Y-18749167D01*
X8283690Y-18768214D01*
X8283690Y-18872976D01*
X8378928Y-18872976D02*
X8378928Y-18739643D01*
X8378928Y-18758690D02*
X8388452Y-18749167D01*
X8407500Y-18739643D01*
X8436071Y-18739643D01*
X8455119Y-18749167D01*
X8464643Y-18768214D01*
X8464643Y-18872976D01*
X8464643Y-18768214D02*
X8474167Y-18749167D01*
X8493214Y-18739643D01*
X8521786Y-18739643D01*
X8540833Y-18749167D01*
X8550357Y-18768214D01*
X8550357Y-18872976D01*
X8940833Y-18663452D02*
X8769405Y-18920595D01*
X9197976Y-18672976D02*
X9217024Y-18672976D01*
X9236071Y-18682500D01*
X9245595Y-18692024D01*
X9255119Y-18711071D01*
X9264643Y-18749167D01*
X9264643Y-18796786D01*
X9255119Y-18834881D01*
X9245595Y-18853929D01*
X9236071Y-18863452D01*
X9217024Y-18872976D01*
X9197976Y-18872976D01*
X9178929Y-18863452D01*
X9169405Y-18853929D01*
X9159881Y-18834881D01*
X9150357Y-18796786D01*
X9150357Y-18749167D01*
X9159881Y-18711071D01*
X9169405Y-18692024D01*
X9178929Y-18682500D01*
X9197976Y-18672976D01*
X9350357Y-18853929D02*
X9359881Y-18863452D01*
X9350357Y-18872976D01*
X9340833Y-18863452D01*
X9350357Y-18853929D01*
X9350357Y-18872976D01*
X9550357Y-18872976D02*
X9436071Y-18872976D01*
X9493214Y-18872976D02*
X9493214Y-18672976D01*
X9474167Y-18701548D01*
X9455119Y-18720595D01*
X9436071Y-18730119D01*
X9674167Y-18672976D02*
X9693214Y-18672976D01*
X9712262Y-18682500D01*
X9721786Y-18692024D01*
X9731310Y-18711071D01*
X9740833Y-18749167D01*
X9740833Y-18796786D01*
X9731310Y-18834881D01*
X9721786Y-18853929D01*
X9712262Y-18863452D01*
X9693214Y-18872976D01*
X9674167Y-18872976D01*
X9655119Y-18863452D01*
X9645595Y-18853929D01*
X9636071Y-18834881D01*
X9626548Y-18796786D01*
X9626548Y-18749167D01*
X9636071Y-18711071D01*
X9645595Y-18692024D01*
X9655119Y-18682500D01*
X9674167Y-18672976D01*
X9912262Y-18672976D02*
X9874167Y-18672976D01*
X9855119Y-18682500D01*
X9845595Y-18692024D01*
X9826548Y-18720595D01*
X9817024Y-18758690D01*
X9817024Y-18834881D01*
X9826548Y-18853929D01*
X9836071Y-18863452D01*
X9855119Y-18872976D01*
X9893214Y-18872976D01*
X9912262Y-18863452D01*
X9921786Y-18853929D01*
X9931310Y-18834881D01*
X9931310Y-18787262D01*
X9921786Y-18768214D01*
X9912262Y-18758690D01*
X9893214Y-18749167D01*
X9855119Y-18749167D01*
X9836071Y-18758690D01*
X9826548Y-18768214D01*
X9817024Y-18787262D01*
X9997976Y-18672976D02*
X10121786Y-18672976D01*
X10055119Y-18749167D01*
X10083690Y-18749167D01*
X10102738Y-18758690D01*
X10112262Y-18768214D01*
X10121786Y-18787262D01*
X10121786Y-18834881D01*
X10112262Y-18853929D01*
X10102738Y-18863452D01*
X10083690Y-18872976D01*
X10026548Y-18872976D01*
X10007500Y-18863452D01*
X9997976Y-18853929D01*
X10197976Y-18672976D02*
X10197976Y-18711071D01*
X10274167Y-18672976D02*
X10274167Y-18711071D01*
X10569405Y-18949167D02*
X10559881Y-18939643D01*
X10540833Y-18911071D01*
X10531310Y-18892024D01*
X10521786Y-18863452D01*
X10512262Y-18815833D01*
X10512262Y-18777738D01*
X10521786Y-18730119D01*
X10531310Y-18701548D01*
X10540833Y-18682500D01*
X10559881Y-18653929D01*
X10569405Y-18644405D01*
X10731310Y-18739643D02*
X10731310Y-18872976D01*
X10683690Y-18663452D02*
X10636071Y-18806310D01*
X10759881Y-18806310D01*
X10988452Y-18872976D02*
X10988452Y-18672976D01*
X11074167Y-18872976D02*
X11074167Y-18768214D01*
X11064643Y-18749167D01*
X11045595Y-18739643D01*
X11017024Y-18739643D01*
X10997976Y-18749167D01*
X10988452Y-18758690D01*
X11197976Y-18872976D02*
X11178929Y-18863452D01*
X11169405Y-18853929D01*
X11159881Y-18834881D01*
X11159881Y-18777738D01*
X11169405Y-18758690D01*
X11178929Y-18749167D01*
X11197976Y-18739643D01*
X11226548Y-18739643D01*
X11245595Y-18749167D01*
X11255119Y-18758690D01*
X11264643Y-18777738D01*
X11264643Y-18834881D01*
X11255119Y-18853929D01*
X11245595Y-18863452D01*
X11226548Y-18872976D01*
X11197976Y-18872976D01*
X11378928Y-18872976D02*
X11359881Y-18863452D01*
X11350357Y-18844405D01*
X11350357Y-18672976D01*
X11531309Y-18863452D02*
X11512262Y-18872976D01*
X11474167Y-18872976D01*
X11455119Y-18863452D01*
X11445595Y-18844405D01*
X11445595Y-18768214D01*
X11455119Y-18749167D01*
X11474167Y-18739643D01*
X11512262Y-18739643D01*
X11531309Y-18749167D01*
X11540833Y-18768214D01*
X11540833Y-18787262D01*
X11445595Y-18806310D01*
X11617024Y-18863452D02*
X11636071Y-18872976D01*
X11674167Y-18872976D01*
X11693214Y-18863452D01*
X11702738Y-18844405D01*
X11702738Y-18834881D01*
X11693214Y-18815833D01*
X11674167Y-18806310D01*
X11645595Y-18806310D01*
X11626548Y-18796786D01*
X11617024Y-18777738D01*
X11617024Y-18768214D01*
X11626548Y-18749167D01*
X11645595Y-18739643D01*
X11674167Y-18739643D01*
X11693214Y-18749167D01*
X11769405Y-18949167D02*
X11778928Y-18939643D01*
X11797976Y-18911071D01*
X11807500Y-18892024D01*
X11817024Y-18863452D01*
X11826548Y-18815833D01*
X11826548Y-18777738D01*
X11817024Y-18730119D01*
X11807500Y-18701548D01*
X11797976Y-18682500D01*
X11778928Y-18653929D01*
X11769405Y-18644405D01*
X6797500Y-19002500D02*
X6997500Y-19202500D01*
X6997500Y-19002500D02*
X6797500Y-19202500D01*
X6968211Y-19173211D02*
X6968211Y-19031789D01*
X6826789Y-19031789D01*
X6826789Y-19173211D01*
X6968211Y-19173211D01*
X7245595Y-19012024D02*
X7255119Y-19002500D01*
X7274167Y-18992976D01*
X7321786Y-18992976D01*
X7340833Y-19002500D01*
X7350357Y-19012024D01*
X7359881Y-19031071D01*
X7359881Y-19050119D01*
X7350357Y-19078690D01*
X7236071Y-19192976D01*
X7359881Y-19192976D01*
X7445595Y-19173929D02*
X7455119Y-19183452D01*
X7445595Y-19192976D01*
X7436071Y-19183452D01*
X7445595Y-19173929D01*
X7445595Y-19192976D01*
X7550357Y-19192976D02*
X7588452Y-19192976D01*
X7607500Y-19183452D01*
X7617024Y-19173929D01*
X7636071Y-19145357D01*
X7645595Y-19107262D01*
X7645595Y-19031071D01*
X7636071Y-19012024D01*
X7626548Y-19002500D01*
X7607500Y-18992976D01*
X7569405Y-18992976D01*
X7550357Y-19002500D01*
X7540833Y-19012024D01*
X7531309Y-19031071D01*
X7531309Y-19078690D01*
X7540833Y-19097738D01*
X7550357Y-19107262D01*
X7569405Y-19116786D01*
X7607500Y-19116786D01*
X7626548Y-19107262D01*
X7636071Y-19097738D01*
X7645595Y-19078690D01*
X7740833Y-19192976D02*
X7778928Y-19192976D01*
X7797976Y-19183452D01*
X7807500Y-19173929D01*
X7826548Y-19145357D01*
X7836071Y-19107262D01*
X7836071Y-19031071D01*
X7826548Y-19012024D01*
X7817024Y-19002500D01*
X7797976Y-18992976D01*
X7759881Y-18992976D01*
X7740833Y-19002500D01*
X7731309Y-19012024D01*
X7721786Y-19031071D01*
X7721786Y-19078690D01*
X7731309Y-19097738D01*
X7740833Y-19107262D01*
X7759881Y-19116786D01*
X7797976Y-19116786D01*
X7817024Y-19107262D01*
X7826548Y-19097738D01*
X7836071Y-19078690D01*
X7902738Y-18992976D02*
X8036071Y-18992976D01*
X7950357Y-19192976D01*
X8112262Y-19192976D02*
X8112262Y-19059643D01*
X8112262Y-19078690D02*
X8121786Y-19069167D01*
X8140833Y-19059643D01*
X8169405Y-19059643D01*
X8188452Y-19069167D01*
X8197976Y-19088214D01*
X8197976Y-19192976D01*
X8197976Y-19088214D02*
X8207500Y-19069167D01*
X8226548Y-19059643D01*
X8255119Y-19059643D01*
X8274167Y-19069167D01*
X8283690Y-19088214D01*
X8283690Y-19192976D01*
X8378928Y-19192976D02*
X8378928Y-19059643D01*
X8378928Y-19078690D02*
X8388452Y-19069167D01*
X8407500Y-19059643D01*
X8436071Y-19059643D01*
X8455119Y-19069167D01*
X8464643Y-19088214D01*
X8464643Y-19192976D01*
X8464643Y-19088214D02*
X8474167Y-19069167D01*
X8493214Y-19059643D01*
X8521786Y-19059643D01*
X8540833Y-19069167D01*
X8550357Y-19088214D01*
X8550357Y-19192976D01*
X8940833Y-18983452D02*
X8769405Y-19240595D01*
X9197976Y-18992976D02*
X9217024Y-18992976D01*
X9236071Y-19002500D01*
X9245595Y-19012024D01*
X9255119Y-19031071D01*
X9264643Y-19069167D01*
X9264643Y-19116786D01*
X9255119Y-19154881D01*
X9245595Y-19173929D01*
X9236071Y-19183452D01*
X9217024Y-19192976D01*
X9197976Y-19192976D01*
X9178929Y-19183452D01*
X9169405Y-19173929D01*
X9159881Y-19154881D01*
X9150357Y-19116786D01*
X9150357Y-19069167D01*
X9159881Y-19031071D01*
X9169405Y-19012024D01*
X9178929Y-19002500D01*
X9197976Y-18992976D01*
X9350357Y-19173929D02*
X9359881Y-19183452D01*
X9350357Y-19192976D01*
X9340833Y-19183452D01*
X9350357Y-19173929D01*
X9350357Y-19192976D01*
X9550357Y-19192976D02*
X9436071Y-19192976D01*
X9493214Y-19192976D02*
X9493214Y-18992976D01*
X9474167Y-19021548D01*
X9455119Y-19040595D01*
X9436071Y-19050119D01*
X9740833Y-19192976D02*
X9626548Y-19192976D01*
X9683690Y-19192976D02*
X9683690Y-18992976D01*
X9664643Y-19021548D01*
X9645595Y-19040595D01*
X9626548Y-19050119D01*
X9855119Y-19078690D02*
X9836071Y-19069167D01*
X9826548Y-19059643D01*
X9817024Y-19040595D01*
X9817024Y-19031071D01*
X9826548Y-19012024D01*
X9836071Y-19002500D01*
X9855119Y-18992976D01*
X9893214Y-18992976D01*
X9912262Y-19002500D01*
X9921786Y-19012024D01*
X9931310Y-19031071D01*
X9931310Y-19040595D01*
X9921786Y-19059643D01*
X9912262Y-19069167D01*
X9893214Y-19078690D01*
X9855119Y-19078690D01*
X9836071Y-19088214D01*
X9826548Y-19097738D01*
X9817024Y-19116786D01*
X9817024Y-19154881D01*
X9826548Y-19173929D01*
X9836071Y-19183452D01*
X9855119Y-19192976D01*
X9893214Y-19192976D01*
X9912262Y-19183452D01*
X9921786Y-19173929D01*
X9931310Y-19154881D01*
X9931310Y-19116786D01*
X9921786Y-19097738D01*
X9912262Y-19088214D01*
X9893214Y-19078690D01*
X10055119Y-18992976D02*
X10074167Y-18992976D01*
X10093214Y-19002500D01*
X10102738Y-19012024D01*
X10112262Y-19031071D01*
X10121786Y-19069167D01*
X10121786Y-19116786D01*
X10112262Y-19154881D01*
X10102738Y-19173929D01*
X10093214Y-19183452D01*
X10074167Y-19192976D01*
X10055119Y-19192976D01*
X10036071Y-19183452D01*
X10026548Y-19173929D01*
X10017024Y-19154881D01*
X10007500Y-19116786D01*
X10007500Y-19069167D01*
X10017024Y-19031071D01*
X10026548Y-19012024D01*
X10036071Y-19002500D01*
X10055119Y-18992976D01*
X10197976Y-18992976D02*
X10197976Y-19031071D01*
X10274167Y-18992976D02*
X10274167Y-19031071D01*
X10569405Y-19269167D02*
X10559881Y-19259643D01*
X10540833Y-19231071D01*
X10531310Y-19212024D01*
X10521786Y-19183452D01*
X10512262Y-19135833D01*
X10512262Y-19097738D01*
X10521786Y-19050119D01*
X10531310Y-19021548D01*
X10540833Y-19002500D01*
X10559881Y-18973929D01*
X10569405Y-18964405D01*
X10626548Y-18992976D02*
X10750357Y-18992976D01*
X10683690Y-19069167D01*
X10712262Y-19069167D01*
X10731310Y-19078690D01*
X10740833Y-19088214D01*
X10750357Y-19107262D01*
X10750357Y-19154881D01*
X10740833Y-19173929D01*
X10731310Y-19183452D01*
X10712262Y-19192976D01*
X10655119Y-19192976D01*
X10636071Y-19183452D01*
X10626548Y-19173929D01*
X10988452Y-19192976D02*
X10988452Y-18992976D01*
X11074167Y-19192976D02*
X11074167Y-19088214D01*
X11064643Y-19069167D01*
X11045595Y-19059643D01*
X11017024Y-19059643D01*
X10997976Y-19069167D01*
X10988452Y-19078690D01*
X11197976Y-19192976D02*
X11178929Y-19183452D01*
X11169405Y-19173929D01*
X11159881Y-19154881D01*
X11159881Y-19097738D01*
X11169405Y-19078690D01*
X11178929Y-19069167D01*
X11197976Y-19059643D01*
X11226548Y-19059643D01*
X11245595Y-19069167D01*
X11255119Y-19078690D01*
X11264643Y-19097738D01*
X11264643Y-19154881D01*
X11255119Y-19173929D01*
X11245595Y-19183452D01*
X11226548Y-19192976D01*
X11197976Y-19192976D01*
X11378928Y-19192976D02*
X11359881Y-19183452D01*
X11350357Y-19164405D01*
X11350357Y-18992976D01*
X11531309Y-19183452D02*
X11512262Y-19192976D01*
X11474167Y-19192976D01*
X11455119Y-19183452D01*
X11445595Y-19164405D01*
X11445595Y-19088214D01*
X11455119Y-19069167D01*
X11474167Y-19059643D01*
X11512262Y-19059643D01*
X11531309Y-19069167D01*
X11540833Y-19088214D01*
X11540833Y-19107262D01*
X11445595Y-19126310D01*
X11617024Y-19183452D02*
X11636071Y-19192976D01*
X11674167Y-19192976D01*
X11693214Y-19183452D01*
X11702738Y-19164405D01*
X11702738Y-19154881D01*
X11693214Y-19135833D01*
X11674167Y-19126310D01*
X11645595Y-19126310D01*
X11626548Y-19116786D01*
X11617024Y-19097738D01*
X11617024Y-19088214D01*
X11626548Y-19069167D01*
X11645595Y-19059643D01*
X11674167Y-19059643D01*
X11693214Y-19069167D01*
X11769405Y-19269167D02*
X11778928Y-19259643D01*
X11797976Y-19231071D01*
X11807500Y-19212024D01*
X11817024Y-19183452D01*
X11826548Y-19135833D01*
X11826548Y-19097738D01*
X11817024Y-19050119D01*
X11807500Y-19021548D01*
X11797976Y-19002500D01*
X11778928Y-18973929D01*
X11769405Y-18964405D01*
M02*
