G04 #@! TF.GenerationSoftware,KiCad,Pcbnew,8.0.6*
G04 #@! TF.CreationDate,2025-01-19T13:54:33-05:00*
G04 #@! TF.ProjectId,RA2E1-CAN-Rev2,52413245-312d-4434-914e-2d526576322e,rev?*
G04 #@! TF.SameCoordinates,Original*
G04 #@! TF.FileFunction,Copper,L2,Bot*
G04 #@! TF.FilePolarity,Positive*
%FSLAX46Y46*%
G04 Gerber Fmt 4.6, Leading zero omitted, Abs format (unit mm)*
G04 Created by KiCad (PCBNEW 8.0.6) date 2025-01-19 13:54:33*
%MOMM*%
%LPD*%
G01*
G04 APERTURE LIST*
%ADD10C,0.300000*%
G04 #@! TA.AperFunction,NonConductor*
%ADD11C,0.300000*%
G04 #@! TD*
G04 #@! TA.AperFunction,ComponentPad*
%ADD12C,4.700000*%
G04 #@! TD*
G04 #@! TA.AperFunction,ComponentPad*
%ADD13R,1.700000X1.700000*%
G04 #@! TD*
G04 #@! TA.AperFunction,ComponentPad*
%ADD14O,1.700000X1.700000*%
G04 #@! TD*
G04 #@! TA.AperFunction,ComponentPad*
%ADD15C,1.500000*%
G04 #@! TD*
G04 #@! TA.AperFunction,ComponentPad*
%ADD16R,1.600000X1.600000*%
G04 #@! TD*
G04 #@! TA.AperFunction,ComponentPad*
%ADD17C,1.600000*%
G04 #@! TD*
G04 #@! TA.AperFunction,ComponentPad*
%ADD18O,1.600000X1.600000*%
G04 #@! TD*
G04 #@! TA.AperFunction,ComponentPad*
%ADD19R,1.600000X2.400000*%
G04 #@! TD*
G04 #@! TA.AperFunction,ComponentPad*
%ADD20O,1.600000X2.400000*%
G04 #@! TD*
G04 #@! TA.AperFunction,ComponentPad*
%ADD21C,4.318000*%
G04 #@! TD*
G04 #@! TA.AperFunction,ViaPad*
%ADD22C,0.800000*%
G04 #@! TD*
G04 #@! TA.AperFunction,Conductor*
%ADD23C,0.250000*%
G04 #@! TD*
G04 #@! TA.AperFunction,Conductor*
%ADD24C,0.500000*%
G04 #@! TD*
G04 APERTURE END LIST*
D10*
D11*
X109203142Y-88412328D02*
X109703142Y-87698042D01*
X110060285Y-88412328D02*
X110060285Y-86912328D01*
X110060285Y-86912328D02*
X109488856Y-86912328D01*
X109488856Y-86912328D02*
X109345999Y-86983757D01*
X109345999Y-86983757D02*
X109274570Y-87055185D01*
X109274570Y-87055185D02*
X109203142Y-87198042D01*
X109203142Y-87198042D02*
X109203142Y-87412328D01*
X109203142Y-87412328D02*
X109274570Y-87555185D01*
X109274570Y-87555185D02*
X109345999Y-87626614D01*
X109345999Y-87626614D02*
X109488856Y-87698042D01*
X109488856Y-87698042D02*
X110060285Y-87698042D01*
X108631713Y-87983757D02*
X107917428Y-87983757D01*
X108774570Y-88412328D02*
X108274570Y-86912328D01*
X108274570Y-86912328D02*
X107774570Y-88412328D01*
X107345999Y-87055185D02*
X107274571Y-86983757D01*
X107274571Y-86983757D02*
X107131714Y-86912328D01*
X107131714Y-86912328D02*
X106774571Y-86912328D01*
X106774571Y-86912328D02*
X106631714Y-86983757D01*
X106631714Y-86983757D02*
X106560285Y-87055185D01*
X106560285Y-87055185D02*
X106488856Y-87198042D01*
X106488856Y-87198042D02*
X106488856Y-87340900D01*
X106488856Y-87340900D02*
X106560285Y-87555185D01*
X106560285Y-87555185D02*
X107417428Y-88412328D01*
X107417428Y-88412328D02*
X106488856Y-88412328D01*
X105846000Y-87626614D02*
X105346000Y-87626614D01*
X105131714Y-88412328D02*
X105846000Y-88412328D01*
X105846000Y-88412328D02*
X105846000Y-86912328D01*
X105846000Y-86912328D02*
X105131714Y-86912328D01*
X103703142Y-88412328D02*
X104560285Y-88412328D01*
X104131714Y-88412328D02*
X104131714Y-86912328D01*
X104131714Y-86912328D02*
X104274571Y-87126614D01*
X104274571Y-87126614D02*
X104417428Y-87269471D01*
X104417428Y-87269471D02*
X104560285Y-87340900D01*
X102060286Y-87412328D02*
X101774572Y-88412328D01*
X101774572Y-88412328D02*
X101488857Y-87698042D01*
X101488857Y-87698042D02*
X101203143Y-88412328D01*
X101203143Y-88412328D02*
X100917429Y-87412328D01*
X100346000Y-88412328D02*
X100346000Y-87412328D01*
X100346000Y-86912328D02*
X100417428Y-86983757D01*
X100417428Y-86983757D02*
X100346000Y-87055185D01*
X100346000Y-87055185D02*
X100274571Y-86983757D01*
X100274571Y-86983757D02*
X100346000Y-86912328D01*
X100346000Y-86912328D02*
X100346000Y-87055185D01*
X99845999Y-87412328D02*
X99274571Y-87412328D01*
X99631714Y-86912328D02*
X99631714Y-88198042D01*
X99631714Y-88198042D02*
X99560285Y-88340900D01*
X99560285Y-88340900D02*
X99417428Y-88412328D01*
X99417428Y-88412328D02*
X99274571Y-88412328D01*
X98774571Y-88412328D02*
X98774571Y-86912328D01*
X98131714Y-88412328D02*
X98131714Y-87626614D01*
X98131714Y-87626614D02*
X98203142Y-87483757D01*
X98203142Y-87483757D02*
X98345999Y-87412328D01*
X98345999Y-87412328D02*
X98560285Y-87412328D01*
X98560285Y-87412328D02*
X98703142Y-87483757D01*
X98703142Y-87483757D02*
X98774571Y-87555185D01*
X95417428Y-88269471D02*
X95488856Y-88340900D01*
X95488856Y-88340900D02*
X95703142Y-88412328D01*
X95703142Y-88412328D02*
X95845999Y-88412328D01*
X95845999Y-88412328D02*
X96060285Y-88340900D01*
X96060285Y-88340900D02*
X96203142Y-88198042D01*
X96203142Y-88198042D02*
X96274571Y-88055185D01*
X96274571Y-88055185D02*
X96345999Y-87769471D01*
X96345999Y-87769471D02*
X96345999Y-87555185D01*
X96345999Y-87555185D02*
X96274571Y-87269471D01*
X96274571Y-87269471D02*
X96203142Y-87126614D01*
X96203142Y-87126614D02*
X96060285Y-86983757D01*
X96060285Y-86983757D02*
X95845999Y-86912328D01*
X95845999Y-86912328D02*
X95703142Y-86912328D01*
X95703142Y-86912328D02*
X95488856Y-86983757D01*
X95488856Y-86983757D02*
X95417428Y-87055185D01*
X94845999Y-87983757D02*
X94131714Y-87983757D01*
X94988856Y-88412328D02*
X94488856Y-86912328D01*
X94488856Y-86912328D02*
X93988856Y-88412328D01*
X93488857Y-88412328D02*
X93488857Y-86912328D01*
X93488857Y-86912328D02*
X92631714Y-88412328D01*
X92631714Y-88412328D02*
X92631714Y-86912328D01*
D10*
D11*
X113645999Y-91728328D02*
X113645999Y-90228328D01*
X113645999Y-90228328D02*
X113145999Y-91299757D01*
X113145999Y-91299757D02*
X112645999Y-90228328D01*
X112645999Y-90228328D02*
X112645999Y-91728328D01*
X111931713Y-91728328D02*
X111931713Y-90728328D01*
X111931713Y-90228328D02*
X112003141Y-90299757D01*
X112003141Y-90299757D02*
X111931713Y-90371185D01*
X111931713Y-90371185D02*
X111860284Y-90299757D01*
X111860284Y-90299757D02*
X111931713Y-90228328D01*
X111931713Y-90228328D02*
X111931713Y-90371185D01*
X110574570Y-91656900D02*
X110717427Y-91728328D01*
X110717427Y-91728328D02*
X111003141Y-91728328D01*
X111003141Y-91728328D02*
X111145998Y-91656900D01*
X111145998Y-91656900D02*
X111217427Y-91585471D01*
X111217427Y-91585471D02*
X111288855Y-91442614D01*
X111288855Y-91442614D02*
X111288855Y-91014042D01*
X111288855Y-91014042D02*
X111217427Y-90871185D01*
X111217427Y-90871185D02*
X111145998Y-90799757D01*
X111145998Y-90799757D02*
X111003141Y-90728328D01*
X111003141Y-90728328D02*
X110717427Y-90728328D01*
X110717427Y-90728328D02*
X110574570Y-90799757D01*
X109931713Y-91728328D02*
X109931713Y-90228328D01*
X109288856Y-91728328D02*
X109288856Y-90942614D01*
X109288856Y-90942614D02*
X109360284Y-90799757D01*
X109360284Y-90799757D02*
X109503141Y-90728328D01*
X109503141Y-90728328D02*
X109717427Y-90728328D01*
X109717427Y-90728328D02*
X109860284Y-90799757D01*
X109860284Y-90799757D02*
X109931713Y-90871185D01*
X108003141Y-91656900D02*
X108145998Y-91728328D01*
X108145998Y-91728328D02*
X108431713Y-91728328D01*
X108431713Y-91728328D02*
X108574570Y-91656900D01*
X108574570Y-91656900D02*
X108645998Y-91514042D01*
X108645998Y-91514042D02*
X108645998Y-90942614D01*
X108645998Y-90942614D02*
X108574570Y-90799757D01*
X108574570Y-90799757D02*
X108431713Y-90728328D01*
X108431713Y-90728328D02*
X108145998Y-90728328D01*
X108145998Y-90728328D02*
X108003141Y-90799757D01*
X108003141Y-90799757D02*
X107931713Y-90942614D01*
X107931713Y-90942614D02*
X107931713Y-91085471D01*
X107931713Y-91085471D02*
X108645998Y-91228328D01*
X107074570Y-91728328D02*
X107217427Y-91656900D01*
X107217427Y-91656900D02*
X107288856Y-91514042D01*
X107288856Y-91514042D02*
X107288856Y-90228328D01*
X104503142Y-91585471D02*
X104574570Y-91656900D01*
X104574570Y-91656900D02*
X104788856Y-91728328D01*
X104788856Y-91728328D02*
X104931713Y-91728328D01*
X104931713Y-91728328D02*
X105145999Y-91656900D01*
X105145999Y-91656900D02*
X105288856Y-91514042D01*
X105288856Y-91514042D02*
X105360285Y-91371185D01*
X105360285Y-91371185D02*
X105431713Y-91085471D01*
X105431713Y-91085471D02*
X105431713Y-90871185D01*
X105431713Y-90871185D02*
X105360285Y-90585471D01*
X105360285Y-90585471D02*
X105288856Y-90442614D01*
X105288856Y-90442614D02*
X105145999Y-90299757D01*
X105145999Y-90299757D02*
X104931713Y-90228328D01*
X104931713Y-90228328D02*
X104788856Y-90228328D01*
X104788856Y-90228328D02*
X104574570Y-90299757D01*
X104574570Y-90299757D02*
X104503142Y-90371185D01*
X103217428Y-91728328D02*
X103217428Y-90942614D01*
X103217428Y-90942614D02*
X103288856Y-90799757D01*
X103288856Y-90799757D02*
X103431713Y-90728328D01*
X103431713Y-90728328D02*
X103717428Y-90728328D01*
X103717428Y-90728328D02*
X103860285Y-90799757D01*
X103217428Y-91656900D02*
X103360285Y-91728328D01*
X103360285Y-91728328D02*
X103717428Y-91728328D01*
X103717428Y-91728328D02*
X103860285Y-91656900D01*
X103860285Y-91656900D02*
X103931713Y-91514042D01*
X103931713Y-91514042D02*
X103931713Y-91371185D01*
X103931713Y-91371185D02*
X103860285Y-91228328D01*
X103860285Y-91228328D02*
X103717428Y-91156900D01*
X103717428Y-91156900D02*
X103360285Y-91156900D01*
X103360285Y-91156900D02*
X103217428Y-91085471D01*
X102717427Y-90728328D02*
X102145999Y-90728328D01*
X102503142Y-90228328D02*
X102503142Y-91514042D01*
X102503142Y-91514042D02*
X102431713Y-91656900D01*
X102431713Y-91656900D02*
X102288856Y-91728328D01*
X102288856Y-91728328D02*
X102145999Y-91728328D01*
X101003142Y-90728328D02*
X101003142Y-91728328D01*
X101645999Y-90728328D02*
X101645999Y-91514042D01*
X101645999Y-91514042D02*
X101574570Y-91656900D01*
X101574570Y-91656900D02*
X101431713Y-91728328D01*
X101431713Y-91728328D02*
X101217427Y-91728328D01*
X101217427Y-91728328D02*
X101074570Y-91656900D01*
X101074570Y-91656900D02*
X101003142Y-91585471D01*
X99645999Y-91728328D02*
X99645999Y-90228328D01*
X99645999Y-91656900D02*
X99788856Y-91728328D01*
X99788856Y-91728328D02*
X100074570Y-91728328D01*
X100074570Y-91728328D02*
X100217427Y-91656900D01*
X100217427Y-91656900D02*
X100288856Y-91585471D01*
X100288856Y-91585471D02*
X100360284Y-91442614D01*
X100360284Y-91442614D02*
X100360284Y-91014042D01*
X100360284Y-91014042D02*
X100288856Y-90871185D01*
X100288856Y-90871185D02*
X100217427Y-90799757D01*
X100217427Y-90799757D02*
X100074570Y-90728328D01*
X100074570Y-90728328D02*
X99788856Y-90728328D01*
X99788856Y-90728328D02*
X99645999Y-90799757D01*
X98288856Y-91728328D02*
X98288856Y-90942614D01*
X98288856Y-90942614D02*
X98360284Y-90799757D01*
X98360284Y-90799757D02*
X98503141Y-90728328D01*
X98503141Y-90728328D02*
X98788856Y-90728328D01*
X98788856Y-90728328D02*
X98931713Y-90799757D01*
X98288856Y-91656900D02*
X98431713Y-91728328D01*
X98431713Y-91728328D02*
X98788856Y-91728328D01*
X98788856Y-91728328D02*
X98931713Y-91656900D01*
X98931713Y-91656900D02*
X99003141Y-91514042D01*
X99003141Y-91514042D02*
X99003141Y-91371185D01*
X99003141Y-91371185D02*
X98931713Y-91228328D01*
X98931713Y-91228328D02*
X98788856Y-91156900D01*
X98788856Y-91156900D02*
X98431713Y-91156900D01*
X98431713Y-91156900D02*
X98288856Y-91085471D01*
X97360284Y-91728328D02*
X97503141Y-91656900D01*
X97503141Y-91656900D02*
X97574570Y-91514042D01*
X97574570Y-91514042D02*
X97574570Y-90228328D01*
X95717427Y-90371185D02*
X95645999Y-90299757D01*
X95645999Y-90299757D02*
X95503142Y-90228328D01*
X95503142Y-90228328D02*
X95145999Y-90228328D01*
X95145999Y-90228328D02*
X95003142Y-90299757D01*
X95003142Y-90299757D02*
X94931713Y-90371185D01*
X94931713Y-90371185D02*
X94860284Y-90514042D01*
X94860284Y-90514042D02*
X94860284Y-90656900D01*
X94860284Y-90656900D02*
X94931713Y-90871185D01*
X94931713Y-90871185D02*
X95788856Y-91728328D01*
X95788856Y-91728328D02*
X94860284Y-91728328D01*
X93931713Y-90228328D02*
X93788856Y-90228328D01*
X93788856Y-90228328D02*
X93645999Y-90299757D01*
X93645999Y-90299757D02*
X93574571Y-90371185D01*
X93574571Y-90371185D02*
X93503142Y-90514042D01*
X93503142Y-90514042D02*
X93431713Y-90799757D01*
X93431713Y-90799757D02*
X93431713Y-91156900D01*
X93431713Y-91156900D02*
X93503142Y-91442614D01*
X93503142Y-91442614D02*
X93574571Y-91585471D01*
X93574571Y-91585471D02*
X93645999Y-91656900D01*
X93645999Y-91656900D02*
X93788856Y-91728328D01*
X93788856Y-91728328D02*
X93931713Y-91728328D01*
X93931713Y-91728328D02*
X94074571Y-91656900D01*
X94074571Y-91656900D02*
X94145999Y-91585471D01*
X94145999Y-91585471D02*
X94217428Y-91442614D01*
X94217428Y-91442614D02*
X94288856Y-91156900D01*
X94288856Y-91156900D02*
X94288856Y-90799757D01*
X94288856Y-90799757D02*
X94217428Y-90514042D01*
X94217428Y-90514042D02*
X94145999Y-90371185D01*
X94145999Y-90371185D02*
X94074571Y-90299757D01*
X94074571Y-90299757D02*
X93931713Y-90228328D01*
X92860285Y-90371185D02*
X92788857Y-90299757D01*
X92788857Y-90299757D02*
X92646000Y-90228328D01*
X92646000Y-90228328D02*
X92288857Y-90228328D01*
X92288857Y-90228328D02*
X92146000Y-90299757D01*
X92146000Y-90299757D02*
X92074571Y-90371185D01*
X92074571Y-90371185D02*
X92003142Y-90514042D01*
X92003142Y-90514042D02*
X92003142Y-90656900D01*
X92003142Y-90656900D02*
X92074571Y-90871185D01*
X92074571Y-90871185D02*
X92931714Y-91728328D01*
X92931714Y-91728328D02*
X92003142Y-91728328D01*
X90717429Y-90728328D02*
X90717429Y-91728328D01*
X91074571Y-90156900D02*
X91431714Y-91228328D01*
X91431714Y-91228328D02*
X90503143Y-91228328D01*
D12*
X75000000Y-30000000D03*
X155000000Y-30000000D03*
X75000000Y-90000000D03*
X155000000Y-90000000D03*
D13*
X74000000Y-64000000D03*
D14*
X74000000Y-66540000D03*
X74000000Y-69080000D03*
X74000000Y-71620000D03*
X74000000Y-74160000D03*
X74000000Y-76700000D03*
X74000000Y-79240000D03*
X74000000Y-81780000D03*
D15*
X119634000Y-39818000D03*
X119634000Y-44698000D03*
D16*
X90750000Y-48300000D03*
D17*
X93250000Y-48300000D03*
D13*
X118638000Y-29797000D03*
D14*
X121178000Y-29797000D03*
D16*
X136916000Y-36944000D03*
D18*
X136916000Y-39484000D03*
X136916000Y-42024000D03*
X136916000Y-44564000D03*
X144536000Y-44564000D03*
X144536000Y-42024000D03*
X144536000Y-39484000D03*
X144536000Y-36944000D03*
D13*
X158500000Y-41800000D03*
D14*
X158500000Y-44340000D03*
X158500000Y-46880000D03*
D16*
X88350000Y-38500000D03*
D17*
X90850000Y-38500000D03*
D19*
X155050000Y-56200000D03*
D20*
X152510000Y-56200000D03*
X149970000Y-56200000D03*
X147430000Y-56200000D03*
X144890000Y-56200000D03*
X142350000Y-56200000D03*
X142350000Y-76520000D03*
X144890000Y-76520000D03*
X147430000Y-76520000D03*
X149970000Y-76520000D03*
X152510000Y-76520000D03*
X155050000Y-76520000D03*
D13*
X127000000Y-69080000D03*
D14*
X127000000Y-71620000D03*
X127000000Y-74160000D03*
X127000000Y-76700000D03*
D13*
X152950000Y-46275000D03*
D14*
X152950000Y-48815000D03*
D21*
X78250000Y-48250000D03*
X81250000Y-52950000D03*
X84250000Y-48250000D03*
D22*
X129777000Y-47373000D03*
X132137532Y-45533532D03*
X96227000Y-53923000D03*
X88831100Y-35374500D03*
X155077000Y-41973000D03*
X114621000Y-47953800D03*
X113170600Y-50199900D03*
X113734300Y-57451200D03*
X81977000Y-71620000D03*
X109355800Y-56312500D03*
X113278000Y-53228700D03*
X121321700Y-70674900D03*
X116867400Y-58682200D03*
X83329600Y-69075600D03*
X109963400Y-53741000D03*
X98871200Y-55921500D03*
X103664200Y-55601800D03*
X107664600Y-55679900D03*
X111101600Y-50280600D03*
X111733300Y-59068800D03*
X112434600Y-55366400D03*
X111787400Y-61880200D03*
X108929600Y-50282200D03*
X121290700Y-37565900D03*
X128285600Y-39528800D03*
X108564100Y-48548400D03*
X128109200Y-44083000D03*
X121309900Y-59413100D03*
X126347600Y-40170300D03*
X111258200Y-49278800D03*
X127384200Y-44948000D03*
X110021600Y-58415200D03*
X110784700Y-48215200D03*
X112627000Y-44323000D03*
X126920100Y-38494500D03*
D23*
X111258200Y-49278800D02*
X114456000Y-46081000D01*
X114456000Y-46081000D02*
X114456000Y-41480396D01*
X114456000Y-41480396D02*
X117920496Y-38015900D01*
X117920496Y-38015900D02*
X120715395Y-38015900D01*
X120715395Y-38015900D02*
X122869795Y-40170300D01*
X122869795Y-40170300D02*
X126347600Y-40170300D01*
X112627000Y-44323000D02*
X112627000Y-46372900D01*
X112627000Y-46372900D02*
X110784700Y-48215200D01*
X121290700Y-37565900D02*
X117734100Y-37565900D01*
X117734100Y-37565900D02*
X110827000Y-44473000D01*
X110827000Y-44473000D02*
X110827000Y-46921896D01*
X110827000Y-46921896D02*
X109290800Y-48458096D01*
X109290800Y-48458096D02*
X109290800Y-49921000D01*
X109290800Y-49921000D02*
X108929600Y-50282200D01*
X108564100Y-48548400D02*
X110377000Y-46735500D01*
X110377000Y-44023000D02*
X117560900Y-36839100D01*
X110377000Y-46735500D02*
X110377000Y-44023000D01*
X117560900Y-36839100D02*
X123801100Y-36839100D01*
X123801100Y-36839100D02*
X126241700Y-39279700D01*
X126241700Y-39279700D02*
X128036500Y-39279700D01*
X128036500Y-39279700D02*
X128285600Y-39528800D01*
X129777000Y-47373000D02*
X130298064Y-47373000D01*
X130298064Y-47373000D02*
X132137532Y-45533532D01*
X147430000Y-56200000D02*
X147430000Y-54673300D01*
X128834200Y-43782695D02*
X128157005Y-43105500D01*
X147430000Y-54673300D02*
X132977300Y-54673300D01*
X128834200Y-50530200D02*
X128834200Y-43782695D01*
X111362100Y-50280600D02*
X111101600Y-50280600D01*
X132977300Y-54673300D02*
X128834200Y-50530200D01*
X128157005Y-43105500D02*
X125894500Y-43105500D01*
X125894500Y-43105500D02*
X121772900Y-47227100D01*
X113892500Y-47750200D02*
X111362100Y-50280600D01*
X121772900Y-47227100D02*
X114318500Y-47227100D01*
X114318500Y-47227100D02*
X113892500Y-47653100D01*
X113892500Y-47653100D02*
X113892500Y-47750200D01*
X128109200Y-44083000D02*
X128109200Y-52613800D01*
X128109200Y-52613800D02*
X121309900Y-59413100D01*
X127384200Y-44948000D02*
X125296100Y-44948000D01*
X125296100Y-44948000D02*
X115604400Y-54639700D01*
X115604400Y-54639700D02*
X112069800Y-54639700D01*
X112069800Y-54639700D02*
X110021600Y-56687900D01*
X110021600Y-56687900D02*
X110021600Y-58415200D01*
X136916000Y-42024000D02*
X135789300Y-42024000D01*
X91876700Y-48018300D02*
X91876700Y-48300000D01*
X130151200Y-36385900D02*
X103509100Y-36385900D01*
X103509100Y-36385900D02*
X91876700Y-48018300D01*
X135789300Y-42024000D02*
X130151200Y-36385900D01*
X90750000Y-48300000D02*
X91876700Y-48300000D01*
X152510000Y-76520000D02*
X152510000Y-74993300D01*
X88831100Y-38632500D02*
X88831100Y-35374500D01*
X96227000Y-53923000D02*
X96227000Y-54523000D01*
D24*
X86750000Y-64000000D02*
X74000000Y-64000000D01*
D23*
X158500000Y-69003300D02*
X152510000Y-74993300D01*
X158500000Y-46880000D02*
X158500000Y-69003300D01*
X88350000Y-39113600D02*
X88831100Y-38632500D01*
X96227000Y-54523000D02*
X88350000Y-62400000D01*
D24*
X88350000Y-62400000D02*
X86750000Y-64000000D01*
X88350000Y-38500000D02*
X88350000Y-39113600D01*
X88350000Y-39113600D02*
X88350000Y-62400000D01*
D23*
X154419000Y-48815000D02*
X152950000Y-48815000D01*
X155077000Y-41973000D02*
X155077000Y-48157000D01*
X155077000Y-48157000D02*
X154419000Y-48815000D01*
X139526800Y-38141500D02*
X143409300Y-42024000D01*
X134044100Y-38141500D02*
X139526800Y-38141500D01*
X125699600Y-29797000D02*
X134044100Y-38141500D01*
X121178000Y-29797000D02*
X125699600Y-29797000D01*
X144536000Y-42024000D02*
X143409300Y-42024000D01*
X114621000Y-48749500D02*
X113170600Y-50199900D01*
X114621000Y-47953800D02*
X114621000Y-48749500D01*
X108578900Y-55540700D02*
X108578900Y-58019000D01*
X103325000Y-54871600D02*
X107909800Y-54871600D01*
X110617100Y-59157000D02*
X112322900Y-57451200D01*
X112322900Y-57451200D02*
X113734300Y-57451200D01*
X109716900Y-59157000D02*
X110617100Y-59157000D01*
X108578900Y-58019000D02*
X109716900Y-59157000D01*
X76416600Y-81780000D02*
X103325000Y-54871600D01*
X107909800Y-54871600D02*
X108578900Y-55540700D01*
X74000000Y-81780000D02*
X76416600Y-81780000D01*
X109355800Y-56312500D02*
X109355800Y-55671000D01*
X109355800Y-55671000D02*
X108060400Y-54375600D01*
X108060400Y-54375600D02*
X99333300Y-54375600D01*
X82088900Y-71620000D02*
X81977000Y-71620000D01*
X99333300Y-54375600D02*
X82088900Y-71620000D01*
X83872800Y-67768800D02*
X82931200Y-67768800D01*
X113056400Y-53007100D02*
X98634500Y-53007100D01*
X113278000Y-53228700D02*
X113056400Y-53007100D01*
X98634500Y-53007100D02*
X83872800Y-67768800D01*
X82931200Y-67768800D02*
X74000000Y-76700000D01*
X116867400Y-66220600D02*
X116867400Y-58682200D01*
X121321700Y-70674900D02*
X116867400Y-66220600D01*
X83329600Y-69075600D02*
X98664200Y-53741000D01*
X98664200Y-53741000D02*
X109963400Y-53741000D01*
X75176700Y-79240000D02*
X75552700Y-79240000D01*
X75552700Y-79240000D02*
X98871200Y-55921500D01*
X74000000Y-79240000D02*
X75176700Y-79240000D01*
X103664200Y-55601800D02*
X124762400Y-76700000D01*
X124762400Y-76700000D02*
X127000000Y-76700000D01*
X107664600Y-58809900D02*
X123014700Y-74160000D01*
X123014700Y-74160000D02*
X127000000Y-74160000D01*
X107664600Y-55679900D02*
X107664600Y-58809900D01*
X116502400Y-57942600D02*
X115376200Y-59068800D01*
X147065800Y-60630900D02*
X119908000Y-60630900D01*
X115376200Y-59068800D02*
X111733300Y-59068800D01*
X117219700Y-57942600D02*
X116502400Y-57942600D01*
X149970000Y-57726700D02*
X147065800Y-60630900D01*
X119908000Y-60630900D02*
X117219700Y-57942600D01*
X149970000Y-56200000D02*
X149970000Y-57726700D01*
X112434600Y-55366500D02*
X112434600Y-55366400D01*
X139901900Y-60174800D02*
X121043800Y-60174800D01*
X142350000Y-57726700D02*
X139901900Y-60174800D01*
X142350000Y-56200000D02*
X142350000Y-57726700D01*
X116235500Y-55366500D02*
X112434600Y-55366500D01*
X121043800Y-60174800D02*
X116235500Y-55366500D01*
X142350000Y-74993300D02*
X140246700Y-72890000D01*
X142350000Y-76520000D02*
X142350000Y-74993300D01*
X140246700Y-72890000D02*
X122425800Y-72890000D01*
X111787400Y-62251600D02*
X111787400Y-61880200D01*
X122425800Y-72890000D02*
X111787400Y-62251600D01*
X129719800Y-38494500D02*
X126920100Y-38494500D01*
X136916000Y-44564000D02*
X135789300Y-44564000D01*
X135789300Y-44564000D02*
X129719800Y-38494500D01*
G04 #@! TA.AperFunction,Conductor*
G36*
X85751127Y-64778502D02*
G01*
X85797620Y-64832158D01*
X85807724Y-64902432D01*
X85778230Y-64967012D01*
X85772101Y-64973595D01*
X83647301Y-67098395D01*
X83584989Y-67132421D01*
X83558206Y-67135300D01*
X82868803Y-67135300D01*
X82795768Y-67149828D01*
X82746415Y-67159645D01*
X82746413Y-67159645D01*
X82746412Y-67159646D01*
X82631123Y-67207401D01*
X82527371Y-67276726D01*
X82527364Y-67276731D01*
X75576870Y-74227224D01*
X75514558Y-74261250D01*
X75443742Y-74256185D01*
X75386907Y-74213638D01*
X75362206Y-74148536D01*
X75344564Y-73935632D01*
X75289296Y-73717384D01*
X75198860Y-73511209D01*
X75192140Y-73500924D01*
X75075724Y-73322734D01*
X75075720Y-73322729D01*
X74923237Y-73157091D01*
X74841382Y-73093381D01*
X74745576Y-73018811D01*
X74712319Y-73000813D01*
X74661929Y-72950802D01*
X74646576Y-72881485D01*
X74671136Y-72814872D01*
X74712320Y-72779186D01*
X74745576Y-72761189D01*
X74923240Y-72622906D01*
X75075722Y-72457268D01*
X75198860Y-72268791D01*
X75289296Y-72062616D01*
X75344564Y-71844368D01*
X75363156Y-71620000D01*
X75344564Y-71395632D01*
X75307291Y-71248444D01*
X75289297Y-71177387D01*
X75289296Y-71177386D01*
X75289296Y-71177384D01*
X75198860Y-70971209D01*
X75129358Y-70864828D01*
X75075724Y-70782734D01*
X75075720Y-70782729D01*
X74923237Y-70617091D01*
X74815007Y-70532852D01*
X74745576Y-70478811D01*
X74712319Y-70460813D01*
X74661929Y-70410802D01*
X74646576Y-70341485D01*
X74671136Y-70274872D01*
X74712320Y-70239186D01*
X74745576Y-70221189D01*
X74923240Y-70082906D01*
X75075722Y-69917268D01*
X75198860Y-69728791D01*
X75289296Y-69522616D01*
X75344564Y-69304368D01*
X75363156Y-69080000D01*
X75344564Y-68855632D01*
X75344562Y-68855624D01*
X75289297Y-68637387D01*
X75289296Y-68637386D01*
X75289296Y-68637384D01*
X75198860Y-68431209D01*
X75192140Y-68420924D01*
X75075724Y-68242734D01*
X75075720Y-68242729D01*
X74923237Y-68077091D01*
X74803367Y-67983792D01*
X74745576Y-67938811D01*
X74711792Y-67920528D01*
X74661402Y-67870516D01*
X74646050Y-67801199D01*
X74670610Y-67734586D01*
X74711793Y-67698901D01*
X74745300Y-67680767D01*
X74745301Y-67680767D01*
X74922902Y-67542534D01*
X75075325Y-67376958D01*
X75198419Y-67188548D01*
X75288820Y-66982456D01*
X75288823Y-66982449D01*
X75336544Y-66794000D01*
X74430703Y-66794000D01*
X74465925Y-66732993D01*
X74500000Y-66605826D01*
X74500000Y-66474174D01*
X74465925Y-66347007D01*
X74430703Y-66286000D01*
X75336544Y-66286000D01*
X75336544Y-66285999D01*
X75288823Y-66097550D01*
X75288820Y-66097543D01*
X75198419Y-65891451D01*
X75075325Y-65703041D01*
X74932018Y-65547367D01*
X74900598Y-65483702D01*
X74908585Y-65413156D01*
X74953444Y-65358127D01*
X74980679Y-65343977D01*
X75096204Y-65300889D01*
X75213261Y-65213261D01*
X75300889Y-65096204D01*
X75351989Y-64959201D01*
X75358500Y-64898638D01*
X75358500Y-64884500D01*
X75378502Y-64816379D01*
X75432158Y-64769886D01*
X75484500Y-64758500D01*
X85683006Y-64758500D01*
X85751127Y-64778502D01*
G37*
G04 #@! TD.AperFunction*
G04 #@! TA.AperFunction,Conductor*
G36*
X154729920Y-55954394D02*
G01*
X154677259Y-56045606D01*
X154650000Y-56147339D01*
X154650000Y-56252661D01*
X154677259Y-56354394D01*
X154729920Y-56445606D01*
X154738314Y-56454000D01*
X152821686Y-56454000D01*
X152830080Y-56445606D01*
X152882741Y-56354394D01*
X152910000Y-56252661D01*
X152910000Y-56147339D01*
X152882741Y-56045606D01*
X152830080Y-55954394D01*
X152821686Y-55946000D01*
X154738314Y-55946000D01*
X154729920Y-55954394D01*
G37*
G04 #@! TD.AperFunction*
G04 #@! TA.AperFunction,Conductor*
G36*
X133653147Y-38642780D02*
G01*
X133662763Y-38648602D01*
X133744025Y-38702900D01*
X133859315Y-38750655D01*
X133981706Y-38775000D01*
X134106494Y-38775000D01*
X135605613Y-38775000D01*
X135673734Y-38795002D01*
X135720227Y-38848658D01*
X135730331Y-38918932D01*
X135719808Y-38954250D01*
X135682188Y-39034925D01*
X135682186Y-39034931D01*
X135629917Y-39230000D01*
X136604314Y-39230000D01*
X136595920Y-39238394D01*
X136543259Y-39329606D01*
X136516000Y-39431339D01*
X136516000Y-39536661D01*
X136543259Y-39638394D01*
X136595920Y-39729606D01*
X136604314Y-39738000D01*
X135629918Y-39738000D01*
X135682186Y-39933068D01*
X135682188Y-39933073D01*
X135778912Y-40140498D01*
X135910184Y-40327974D01*
X135910189Y-40327980D01*
X136072019Y-40489810D01*
X136072025Y-40489815D01*
X136259503Y-40621089D01*
X136299049Y-40639530D01*
X136352334Y-40686447D01*
X136371794Y-40754724D01*
X136351252Y-40822684D01*
X136299049Y-40867918D01*
X136259252Y-40886475D01*
X136071703Y-41017799D01*
X135964447Y-41125054D01*
X135902134Y-41159079D01*
X135831318Y-41154013D01*
X135786257Y-41125053D01*
X133503667Y-38842463D01*
X133469641Y-38780151D01*
X133474706Y-38709336D01*
X133517253Y-38652500D01*
X133583773Y-38627689D01*
X133653147Y-38642780D01*
G37*
G04 #@! TD.AperFunction*
G04 #@! TA.AperFunction,Conductor*
G36*
X161916621Y-25045502D02*
G01*
X161963114Y-25099158D01*
X161974500Y-25151500D01*
X161974500Y-94720279D01*
X161954498Y-94788400D01*
X161900842Y-94834893D01*
X161848674Y-94846279D01*
X70151674Y-94972757D01*
X70083526Y-94952849D01*
X70036959Y-94899257D01*
X70025500Y-94846757D01*
X70025500Y-90000000D01*
X72136656Y-90000000D01*
X72156016Y-90332403D01*
X72156016Y-90332409D01*
X72156017Y-90332414D01*
X72213838Y-90660333D01*
X72309337Y-90979321D01*
X72309339Y-90979327D01*
X72309340Y-90979328D01*
X72441220Y-91285063D01*
X72441222Y-91285066D01*
X72607711Y-91573433D01*
X72607714Y-91573437D01*
X72806552Y-91840523D01*
X73035057Y-92082724D01*
X73290134Y-92296758D01*
X73568320Y-92479724D01*
X73568328Y-92479729D01*
X73865887Y-92629169D01*
X74022335Y-92686111D01*
X74178775Y-92743051D01*
X74178776Y-92743051D01*
X74178784Y-92743054D01*
X74502786Y-92819843D01*
X74691771Y-92841932D01*
X74833508Y-92858500D01*
X74833511Y-92858500D01*
X75166492Y-92858500D01*
X75290510Y-92844003D01*
X75497214Y-92819843D01*
X75821216Y-92743054D01*
X76134113Y-92629169D01*
X76431672Y-92479729D01*
X76562696Y-92393553D01*
X89839643Y-92393553D01*
X114310660Y-92393553D01*
X114310660Y-90000000D01*
X152136656Y-90000000D01*
X152156016Y-90332403D01*
X152156016Y-90332409D01*
X152156017Y-90332414D01*
X152213838Y-90660333D01*
X152309337Y-90979321D01*
X152309339Y-90979327D01*
X152309340Y-90979328D01*
X152441220Y-91285063D01*
X152441222Y-91285066D01*
X152607711Y-91573433D01*
X152607714Y-91573437D01*
X152806552Y-91840523D01*
X153035057Y-92082724D01*
X153290134Y-92296758D01*
X153568320Y-92479724D01*
X153568328Y-92479729D01*
X153865887Y-92629169D01*
X154022335Y-92686111D01*
X154178775Y-92743051D01*
X154178776Y-92743051D01*
X154178784Y-92743054D01*
X154502786Y-92819843D01*
X154691771Y-92841932D01*
X154833508Y-92858500D01*
X154833511Y-92858500D01*
X155166492Y-92858500D01*
X155290510Y-92844003D01*
X155497214Y-92819843D01*
X155821216Y-92743054D01*
X156134113Y-92629169D01*
X156431672Y-92479729D01*
X156709870Y-92296755D01*
X156964946Y-92082721D01*
X157193449Y-91840522D01*
X157392289Y-91573433D01*
X157558778Y-91285066D01*
X157690663Y-90979321D01*
X157786162Y-90660333D01*
X157843983Y-90332414D01*
X157863344Y-90000000D01*
X157843983Y-89667586D01*
X157786162Y-89339667D01*
X157690663Y-89020679D01*
X157558778Y-88714934D01*
X157392289Y-88426567D01*
X157193449Y-88159478D01*
X156964946Y-87917279D01*
X156964944Y-87917278D01*
X156964942Y-87917275D01*
X156709865Y-87703241D01*
X156431679Y-87520275D01*
X156431675Y-87520273D01*
X156431672Y-87520271D01*
X156134113Y-87370831D01*
X156134108Y-87370829D01*
X156134103Y-87370827D01*
X155821224Y-87256948D01*
X155821217Y-87256946D01*
X155821216Y-87256946D01*
X155639258Y-87213821D01*
X155497219Y-87180158D01*
X155497209Y-87180156D01*
X155166492Y-87141500D01*
X155166489Y-87141500D01*
X154833511Y-87141500D01*
X154833508Y-87141500D01*
X154502790Y-87180156D01*
X154502780Y-87180158D01*
X154178784Y-87256946D01*
X154178775Y-87256948D01*
X153865896Y-87370827D01*
X153865891Y-87370829D01*
X153568320Y-87520275D01*
X153290134Y-87703241D01*
X153035057Y-87917275D01*
X152806552Y-88159476D01*
X152607714Y-88426562D01*
X152607704Y-88426578D01*
X152441223Y-88714931D01*
X152441220Y-88714936D01*
X152309340Y-89020671D01*
X152309338Y-89020677D01*
X152213838Y-89339666D01*
X152156016Y-89667590D01*
X152156016Y-89667596D01*
X152136656Y-90000000D01*
X114310660Y-90000000D01*
X114310660Y-89491675D01*
X89839643Y-89491675D01*
X89839643Y-92393553D01*
X76562696Y-92393553D01*
X76709870Y-92296755D01*
X76964946Y-92082721D01*
X77193449Y-91840522D01*
X77392289Y-91573433D01*
X77558778Y-91285066D01*
X77690663Y-90979321D01*
X77786162Y-90660333D01*
X77843983Y-90332414D01*
X77863344Y-90000000D01*
X77843983Y-89667586D01*
X77786162Y-89339667D01*
X77708020Y-89078655D01*
X91965689Y-89078655D01*
X110723785Y-89078655D01*
X110723785Y-86245984D01*
X91965689Y-86245984D01*
X91965689Y-89078655D01*
X77708020Y-89078655D01*
X77690663Y-89020679D01*
X77558778Y-88714934D01*
X77392289Y-88426567D01*
X77193449Y-88159478D01*
X76964946Y-87917279D01*
X76964944Y-87917278D01*
X76964942Y-87917275D01*
X76709865Y-87703241D01*
X76431679Y-87520275D01*
X76431675Y-87520273D01*
X76431672Y-87520271D01*
X76134113Y-87370831D01*
X76134108Y-87370829D01*
X76134103Y-87370827D01*
X75821224Y-87256948D01*
X75821217Y-87256946D01*
X75821216Y-87256946D01*
X75639258Y-87213821D01*
X75497219Y-87180158D01*
X75497209Y-87180156D01*
X75166492Y-87141500D01*
X75166489Y-87141500D01*
X74833511Y-87141500D01*
X74833508Y-87141500D01*
X74502790Y-87180156D01*
X74502780Y-87180158D01*
X74178784Y-87256946D01*
X74178775Y-87256948D01*
X73865896Y-87370827D01*
X73865891Y-87370829D01*
X73568320Y-87520275D01*
X73290134Y-87703241D01*
X73035057Y-87917275D01*
X72806552Y-88159476D01*
X72607714Y-88426562D01*
X72607704Y-88426578D01*
X72441223Y-88714931D01*
X72441220Y-88714936D01*
X72309340Y-89020671D01*
X72309338Y-89020677D01*
X72213838Y-89339666D01*
X72156016Y-89667590D01*
X72156016Y-89667596D01*
X72136656Y-90000000D01*
X70025500Y-90000000D01*
X70025500Y-69080000D01*
X72636844Y-69080000D01*
X72645800Y-69188085D01*
X72655437Y-69304375D01*
X72710702Y-69522612D01*
X72710703Y-69522613D01*
X72710704Y-69522616D01*
X72750150Y-69612544D01*
X72801141Y-69728793D01*
X72924275Y-69917265D01*
X72924279Y-69917270D01*
X73076762Y-70082908D01*
X73131331Y-70125381D01*
X73254424Y-70221189D01*
X73287680Y-70239186D01*
X73338071Y-70289200D01*
X73353423Y-70358516D01*
X73328862Y-70425129D01*
X73287680Y-70460813D01*
X73254426Y-70478810D01*
X73254424Y-70478811D01*
X73076762Y-70617091D01*
X72924279Y-70782729D01*
X72924275Y-70782734D01*
X72801141Y-70971206D01*
X72710703Y-71177386D01*
X72710702Y-71177387D01*
X72655437Y-71395624D01*
X72655436Y-71395630D01*
X72655436Y-71395632D01*
X72636844Y-71620000D01*
X72652582Y-71809928D01*
X72655437Y-71844375D01*
X72710702Y-72062612D01*
X72710703Y-72062613D01*
X72710704Y-72062616D01*
X72752080Y-72156944D01*
X72801141Y-72268793D01*
X72924275Y-72457265D01*
X72924279Y-72457270D01*
X73076762Y-72622908D01*
X73131331Y-72665381D01*
X73254424Y-72761189D01*
X73287680Y-72779186D01*
X73338071Y-72829200D01*
X73353423Y-72898516D01*
X73328862Y-72965129D01*
X73287680Y-73000813D01*
X73254426Y-73018810D01*
X73254424Y-73018811D01*
X73076762Y-73157091D01*
X72924279Y-73322729D01*
X72924275Y-73322734D01*
X72801141Y-73511206D01*
X72710703Y-73717386D01*
X72710702Y-73717387D01*
X72655437Y-73935624D01*
X72655436Y-73935630D01*
X72655436Y-73935632D01*
X72636844Y-74160000D01*
X72642414Y-74227224D01*
X72655437Y-74384375D01*
X72710702Y-74602612D01*
X72710703Y-74602613D01*
X72710704Y-74602616D01*
X72794433Y-74793500D01*
X72801141Y-74808793D01*
X72924275Y-74997265D01*
X72924279Y-74997270D01*
X73076762Y-75162908D01*
X73083879Y-75168447D01*
X73254424Y-75301189D01*
X73287680Y-75319186D01*
X73338071Y-75369200D01*
X73353423Y-75438516D01*
X73328862Y-75505129D01*
X73287680Y-75540813D01*
X73254426Y-75558810D01*
X73254424Y-75558811D01*
X73076762Y-75697091D01*
X72924279Y-75862729D01*
X72924275Y-75862734D01*
X72801141Y-76051206D01*
X72710703Y-76257386D01*
X72710702Y-76257387D01*
X72655437Y-76475624D01*
X72655436Y-76475630D01*
X72655436Y-76475632D01*
X72636844Y-76700000D01*
X72652815Y-76892741D01*
X72655437Y-76924375D01*
X72710702Y-77142612D01*
X72710703Y-77142613D01*
X72710704Y-77142616D01*
X72747460Y-77226412D01*
X72801141Y-77348793D01*
X72924275Y-77537265D01*
X72924279Y-77537270D01*
X73076762Y-77702908D01*
X73131331Y-77745381D01*
X73254424Y-77841189D01*
X73287680Y-77859186D01*
X73338071Y-77909200D01*
X73353423Y-77978516D01*
X73328862Y-78045129D01*
X73287680Y-78080813D01*
X73254426Y-78098810D01*
X73254424Y-78098811D01*
X73076762Y-78237091D01*
X72924279Y-78402729D01*
X72924275Y-78402734D01*
X72801141Y-78591206D01*
X72710703Y-78797386D01*
X72710702Y-78797387D01*
X72655437Y-79015624D01*
X72636844Y-79240000D01*
X72655437Y-79464375D01*
X72710702Y-79682612D01*
X72710703Y-79682613D01*
X72710704Y-79682616D01*
X72732397Y-79732071D01*
X72801141Y-79888793D01*
X72924275Y-80077265D01*
X72924279Y-80077270D01*
X73076762Y-80242908D01*
X73131331Y-80285381D01*
X73254424Y-80381189D01*
X73287680Y-80399186D01*
X73338071Y-80449200D01*
X73353423Y-80518516D01*
X73328862Y-80585129D01*
X73287680Y-80620813D01*
X73254426Y-80638810D01*
X73254424Y-80638811D01*
X73076762Y-80777091D01*
X72924279Y-80942729D01*
X72924275Y-80942734D01*
X72801141Y-81131206D01*
X72710703Y-81337386D01*
X72710702Y-81337387D01*
X72655437Y-81555624D01*
X72636844Y-81780000D01*
X72655437Y-82004375D01*
X72710702Y-82222612D01*
X72710703Y-82222613D01*
X72710704Y-82222616D01*
X72732397Y-82272071D01*
X72801141Y-82428793D01*
X72924275Y-82617265D01*
X72924279Y-82617270D01*
X73076762Y-82782908D01*
X73131331Y-82825381D01*
X73254424Y-82921189D01*
X73452426Y-83028342D01*
X73452427Y-83028342D01*
X73452428Y-83028343D01*
X73564227Y-83066723D01*
X73665365Y-83101444D01*
X73887431Y-83138500D01*
X73887435Y-83138500D01*
X74112565Y-83138500D01*
X74112569Y-83138500D01*
X74334635Y-83101444D01*
X74547574Y-83028342D01*
X74745576Y-82921189D01*
X74923240Y-82782906D01*
X75075722Y-82617268D01*
X75171555Y-82470585D01*
X75225558Y-82424496D01*
X75277038Y-82413500D01*
X76478993Y-82413500D01*
X76478994Y-82413500D01*
X76601385Y-82389155D01*
X76716675Y-82341400D01*
X76820433Y-82272071D01*
X102844824Y-56247678D01*
X102907134Y-56213654D01*
X102977949Y-56218719D01*
X103027553Y-56252464D01*
X103047755Y-56274900D01*
X103052947Y-56280666D01*
X103207448Y-56392918D01*
X103381912Y-56470594D01*
X103568713Y-56510300D01*
X103624606Y-56510300D01*
X103692727Y-56530302D01*
X103713700Y-56547204D01*
X124358567Y-77192072D01*
X124462325Y-77261401D01*
X124543847Y-77295168D01*
X124577615Y-77309155D01*
X124700006Y-77333500D01*
X124700007Y-77333500D01*
X124824794Y-77333500D01*
X125722962Y-77333500D01*
X125791083Y-77353502D01*
X125828445Y-77390585D01*
X125924275Y-77537265D01*
X125924279Y-77537270D01*
X126076762Y-77702908D01*
X126131331Y-77745381D01*
X126254424Y-77841189D01*
X126452426Y-77948342D01*
X126452427Y-77948342D01*
X126452428Y-77948343D01*
X126540320Y-77978516D01*
X126665365Y-78021444D01*
X126887431Y-78058500D01*
X126887435Y-78058500D01*
X127112565Y-78058500D01*
X127112569Y-78058500D01*
X127334635Y-78021444D01*
X127547574Y-77948342D01*
X127745576Y-77841189D01*
X127923240Y-77702906D01*
X128075722Y-77537268D01*
X128198860Y-77348791D01*
X128289296Y-77142616D01*
X128344564Y-76924368D01*
X128363156Y-76700000D01*
X128344564Y-76475632D01*
X128316702Y-76365606D01*
X128289297Y-76257387D01*
X128289296Y-76257386D01*
X128289296Y-76257384D01*
X128198860Y-76051209D01*
X128171555Y-76009415D01*
X128075724Y-75862734D01*
X128075720Y-75862729D01*
X127923237Y-75697091D01*
X127821500Y-75617906D01*
X127745576Y-75558811D01*
X127712319Y-75540813D01*
X127661929Y-75490802D01*
X127646576Y-75421485D01*
X127671136Y-75354872D01*
X127712320Y-75319186D01*
X127745576Y-75301189D01*
X127923240Y-75162906D01*
X128075722Y-74997268D01*
X128198860Y-74808791D01*
X128289296Y-74602616D01*
X128344564Y-74384368D01*
X128363156Y-74160000D01*
X128344564Y-73935632D01*
X128289296Y-73717384D01*
X128281721Y-73700114D01*
X128272674Y-73629696D01*
X128303134Y-73565566D01*
X128363431Y-73528084D01*
X128397108Y-73523500D01*
X139932106Y-73523500D01*
X140000227Y-73543502D01*
X140021201Y-73560405D01*
X141451053Y-74990257D01*
X141485079Y-75052569D01*
X141480014Y-75123384D01*
X141451054Y-75168447D01*
X141351932Y-75267569D01*
X141230873Y-75434193D01*
X141137367Y-75617708D01*
X141137364Y-75617714D01*
X141073721Y-75813587D01*
X141073720Y-75813590D01*
X141073720Y-75813592D01*
X141041500Y-76017019D01*
X141041500Y-77022981D01*
X141073720Y-77226408D01*
X141073721Y-77226412D01*
X141113484Y-77348791D01*
X141137366Y-77422290D01*
X141230871Y-77605803D01*
X141351932Y-77772430D01*
X141351934Y-77772432D01*
X141351936Y-77772435D01*
X141497564Y-77918063D01*
X141497567Y-77918065D01*
X141497570Y-77918068D01*
X141664197Y-78039129D01*
X141847710Y-78132634D01*
X142043592Y-78196280D01*
X142247019Y-78228500D01*
X142247022Y-78228500D01*
X142452978Y-78228500D01*
X142452981Y-78228500D01*
X142656408Y-78196280D01*
X142852290Y-78132634D01*
X143035803Y-78039129D01*
X143202430Y-77918068D01*
X143348068Y-77772430D01*
X143469129Y-77605803D01*
X143507734Y-77530034D01*
X143556481Y-77478422D01*
X143625396Y-77461356D01*
X143692598Y-77484257D01*
X143732264Y-77530034D01*
X143770871Y-77605803D01*
X143891932Y-77772430D01*
X143891934Y-77772432D01*
X143891936Y-77772435D01*
X144037564Y-77918063D01*
X144037567Y-77918065D01*
X144037570Y-77918068D01*
X144204197Y-78039129D01*
X144387710Y-78132634D01*
X144583592Y-78196280D01*
X144787019Y-78228500D01*
X144787022Y-78228500D01*
X144992978Y-78228500D01*
X144992981Y-78228500D01*
X145196408Y-78196280D01*
X145392290Y-78132634D01*
X145575803Y-78039129D01*
X145742430Y-77918068D01*
X145888068Y-77772430D01*
X146009129Y-77605803D01*
X146047734Y-77530034D01*
X146096481Y-77478422D01*
X146165396Y-77461356D01*
X146232598Y-77484257D01*
X146272264Y-77530034D01*
X146310871Y-77605803D01*
X146431932Y-77772430D01*
X146431934Y-77772432D01*
X146431936Y-77772435D01*
X146577564Y-77918063D01*
X146577567Y-77918065D01*
X146577570Y-77918068D01*
X146744197Y-78039129D01*
X146927710Y-78132634D01*
X147123592Y-78196280D01*
X147327019Y-78228500D01*
X147327022Y-78228500D01*
X147532978Y-78228500D01*
X147532981Y-78228500D01*
X147736408Y-78196280D01*
X147932290Y-78132634D01*
X148115803Y-78039129D01*
X148282430Y-77918068D01*
X148428068Y-77772430D01*
X148549129Y-77605803D01*
X148587734Y-77530034D01*
X148636481Y-77478422D01*
X148705396Y-77461356D01*
X148772598Y-77484257D01*
X148812264Y-77530034D01*
X148850871Y-77605803D01*
X148971932Y-77772430D01*
X148971934Y-77772432D01*
X148971936Y-77772435D01*
X149117564Y-77918063D01*
X149117567Y-77918065D01*
X149117570Y-77918068D01*
X149284197Y-78039129D01*
X149467710Y-78132634D01*
X149663592Y-78196280D01*
X149867019Y-78228500D01*
X149867022Y-78228500D01*
X150072978Y-78228500D01*
X150072981Y-78228500D01*
X150276408Y-78196280D01*
X150472290Y-78132634D01*
X150655803Y-78039129D01*
X150822430Y-77918068D01*
X150968068Y-77772430D01*
X151089129Y-77605803D01*
X151127734Y-77530034D01*
X151176481Y-77478422D01*
X151245396Y-77461356D01*
X151312598Y-77484257D01*
X151352264Y-77530034D01*
X151390871Y-77605803D01*
X151511932Y-77772430D01*
X151511934Y-77772432D01*
X151511936Y-77772435D01*
X151657564Y-77918063D01*
X151657567Y-77918065D01*
X151657570Y-77918068D01*
X151824197Y-78039129D01*
X152007710Y-78132634D01*
X152203592Y-78196280D01*
X152407019Y-78228500D01*
X152407022Y-78228500D01*
X152612978Y-78228500D01*
X152612981Y-78228500D01*
X152816408Y-78196280D01*
X153012290Y-78132634D01*
X153195803Y-78039129D01*
X153362430Y-77918068D01*
X153508068Y-77772430D01*
X153629129Y-77605803D01*
X153668014Y-77529486D01*
X153716759Y-77477874D01*
X153785674Y-77460807D01*
X153852876Y-77483707D01*
X153892545Y-77529487D01*
X153931298Y-77605542D01*
X154052315Y-77772107D01*
X154052317Y-77772110D01*
X154197889Y-77917682D01*
X154197892Y-77917684D01*
X154364454Y-78038699D01*
X154547900Y-78132170D01*
X154547906Y-78132173D01*
X154743705Y-78195791D01*
X154743717Y-78195794D01*
X154795999Y-78204074D01*
X154796000Y-78204074D01*
X154796000Y-76831686D01*
X154804394Y-76840080D01*
X154895606Y-76892741D01*
X154997339Y-76920000D01*
X155102661Y-76920000D01*
X155204394Y-76892741D01*
X155295606Y-76840080D01*
X155304000Y-76831686D01*
X155304000Y-78204074D01*
X155356282Y-78195794D01*
X155356294Y-78195791D01*
X155552093Y-78132173D01*
X155552099Y-78132170D01*
X155735545Y-78038699D01*
X155902107Y-77917684D01*
X155902110Y-77917682D01*
X156047682Y-77772110D01*
X156047684Y-77772107D01*
X156168699Y-77605545D01*
X156262170Y-77422099D01*
X156262173Y-77422093D01*
X156325791Y-77226296D01*
X156358000Y-77022938D01*
X156358000Y-76774000D01*
X155361686Y-76774000D01*
X155370080Y-76765606D01*
X155422741Y-76674394D01*
X155450000Y-76572661D01*
X155450000Y-76467339D01*
X155422741Y-76365606D01*
X155370080Y-76274394D01*
X155361686Y-76266000D01*
X156358000Y-76266000D01*
X156358000Y-76017061D01*
X156325791Y-75813703D01*
X156262173Y-75617906D01*
X156262170Y-75617900D01*
X156168699Y-75434454D01*
X156047684Y-75267892D01*
X156047682Y-75267889D01*
X155902110Y-75122317D01*
X155902107Y-75122315D01*
X155735545Y-75001300D01*
X155552099Y-74907829D01*
X155552093Y-74907826D01*
X155356294Y-74844208D01*
X155356296Y-74844208D01*
X155304000Y-74835925D01*
X155304000Y-76208314D01*
X155295606Y-76199920D01*
X155204394Y-76147259D01*
X155102661Y-76120000D01*
X154997339Y-76120000D01*
X154895606Y-76147259D01*
X154804394Y-76199920D01*
X154796000Y-76208314D01*
X154796000Y-74835925D01*
X154743704Y-74844208D01*
X154547906Y-74907826D01*
X154547900Y-74907829D01*
X154364454Y-75001300D01*
X154197892Y-75122315D01*
X154197889Y-75122317D01*
X154052317Y-75267889D01*
X154052315Y-75267892D01*
X153931299Y-75434455D01*
X153892545Y-75510513D01*
X153843796Y-75562127D01*
X153774881Y-75579192D01*
X153707680Y-75556290D01*
X153668013Y-75510511D01*
X153629129Y-75434197D01*
X153508068Y-75267570D01*
X153508065Y-75267567D01*
X153508063Y-75267564D01*
X153408946Y-75168447D01*
X153374920Y-75106135D01*
X153379985Y-75035320D01*
X153408946Y-74990257D01*
X156147287Y-72251916D01*
X158992071Y-69407133D01*
X159061400Y-69303375D01*
X159109155Y-69188085D01*
X159133500Y-69065694D01*
X159133500Y-68940906D01*
X159133500Y-48156920D01*
X159153502Y-48088799D01*
X159199527Y-48046108D01*
X159245576Y-48021189D01*
X159423240Y-47882906D01*
X159575722Y-47717268D01*
X159698860Y-47528791D01*
X159789296Y-47322616D01*
X159844564Y-47104368D01*
X159863156Y-46880000D01*
X159844564Y-46655632D01*
X159844562Y-46655624D01*
X159789297Y-46437387D01*
X159789296Y-46437386D01*
X159789296Y-46437384D01*
X159698860Y-46231209D01*
X159641488Y-46143394D01*
X159575724Y-46042734D01*
X159575720Y-46042729D01*
X159459570Y-45916559D01*
X159423240Y-45877094D01*
X159423239Y-45877093D01*
X159423237Y-45877091D01*
X159321983Y-45798282D01*
X159245576Y-45738811D01*
X159212319Y-45720813D01*
X159161929Y-45670802D01*
X159146576Y-45601485D01*
X159171136Y-45534872D01*
X159212320Y-45499186D01*
X159245576Y-45481189D01*
X159423240Y-45342906D01*
X159575722Y-45177268D01*
X159698860Y-44988791D01*
X159789296Y-44782616D01*
X159844564Y-44564368D01*
X159863156Y-44340000D01*
X159844564Y-44115632D01*
X159835339Y-44079204D01*
X159789297Y-43897387D01*
X159789296Y-43897386D01*
X159789296Y-43897384D01*
X159698860Y-43691209D01*
X159681772Y-43665054D01*
X159575724Y-43502734D01*
X159575714Y-43502722D01*
X159432159Y-43346782D01*
X159400737Y-43283117D01*
X159408723Y-43212571D01*
X159453582Y-43157542D01*
X159480827Y-43143388D01*
X159595965Y-43100444D01*
X159712904Y-43012904D01*
X159800444Y-42895965D01*
X159800444Y-42895964D01*
X159851494Y-42759093D01*
X159857999Y-42698597D01*
X159858000Y-42698585D01*
X159858000Y-42054000D01*
X158930703Y-42054000D01*
X158965925Y-41992993D01*
X159000000Y-41865826D01*
X159000000Y-41734174D01*
X158965925Y-41607007D01*
X158930703Y-41546000D01*
X159858000Y-41546000D01*
X159858000Y-40901414D01*
X159857999Y-40901402D01*
X159851494Y-40840906D01*
X159800444Y-40704035D01*
X159800444Y-40704034D01*
X159712904Y-40587095D01*
X159595965Y-40499555D01*
X159459093Y-40448505D01*
X159398597Y-40442000D01*
X158754000Y-40442000D01*
X158754000Y-41369297D01*
X158692993Y-41334075D01*
X158565826Y-41300000D01*
X158434174Y-41300000D01*
X158307007Y-41334075D01*
X158246000Y-41369297D01*
X158246000Y-40442000D01*
X157601402Y-40442000D01*
X157540906Y-40448505D01*
X157404035Y-40499555D01*
X157404034Y-40499555D01*
X157287095Y-40587095D01*
X157199555Y-40704034D01*
X157199555Y-40704035D01*
X157148505Y-40840906D01*
X157142000Y-40901402D01*
X157142000Y-41546000D01*
X158069297Y-41546000D01*
X158034075Y-41607007D01*
X158000000Y-41734174D01*
X158000000Y-41865826D01*
X158034075Y-41992993D01*
X158069297Y-42054000D01*
X157142000Y-42054000D01*
X157142000Y-42698597D01*
X157148505Y-42759093D01*
X157199555Y-42895964D01*
X157199555Y-42895965D01*
X157287095Y-43012904D01*
X157404034Y-43100444D01*
X157519172Y-43143388D01*
X157576008Y-43185935D01*
X157600819Y-43252455D01*
X157585728Y-43321829D01*
X157567841Y-43346782D01*
X157424280Y-43502729D01*
X157424275Y-43502734D01*
X157301141Y-43691206D01*
X157210703Y-43897386D01*
X157210702Y-43897387D01*
X157155437Y-44115624D01*
X157155436Y-44115630D01*
X157155436Y-44115632D01*
X157136844Y-44340000D01*
X157151173Y-44512928D01*
X157155437Y-44564375D01*
X157210702Y-44782612D01*
X157210703Y-44782613D01*
X157210704Y-44782616D01*
X157294701Y-44974111D01*
X157301141Y-44988793D01*
X157424275Y-45177265D01*
X157424279Y-45177270D01*
X157576762Y-45342908D01*
X157619728Y-45376350D01*
X157754424Y-45481189D01*
X157787680Y-45499186D01*
X157838071Y-45549200D01*
X157853423Y-45618516D01*
X157828862Y-45685129D01*
X157787680Y-45720813D01*
X157754426Y-45738810D01*
X157754424Y-45738811D01*
X157576762Y-45877091D01*
X157424279Y-46042729D01*
X157424275Y-46042734D01*
X157301141Y-46231206D01*
X157210703Y-46437386D01*
X157210702Y-46437387D01*
X157155437Y-46655624D01*
X157155436Y-46655630D01*
X157155436Y-46655632D01*
X157136844Y-46880000D01*
X157150857Y-47049112D01*
X157155437Y-47104375D01*
X157210702Y-47322612D01*
X157210703Y-47322613D01*
X157210704Y-47322616D01*
X157301140Y-47528791D01*
X157301141Y-47528793D01*
X157424275Y-47717265D01*
X157424279Y-47717270D01*
X157576762Y-47882908D01*
X157665592Y-47952047D01*
X157754424Y-48021189D01*
X157800471Y-48046108D01*
X157850859Y-48096118D01*
X157866500Y-48156920D01*
X157866500Y-68688706D01*
X157846498Y-68756827D01*
X157829595Y-68777801D01*
X152017931Y-74589464D01*
X152017926Y-74589471D01*
X151948601Y-74693223D01*
X151900846Y-74808511D01*
X151878663Y-74920029D01*
X151845755Y-74982938D01*
X151827781Y-74997381D01*
X151828202Y-74997961D01*
X151657567Y-75121934D01*
X151657564Y-75121936D01*
X151511936Y-75267564D01*
X151511934Y-75267567D01*
X151390873Y-75434193D01*
X151390871Y-75434197D01*
X151354730Y-75505129D01*
X151352267Y-75509962D01*
X151303518Y-75561577D01*
X151234603Y-75578643D01*
X151167402Y-75555742D01*
X151127733Y-75509962D01*
X151089129Y-75434197D01*
X150968068Y-75267570D01*
X150968065Y-75267567D01*
X150968063Y-75267564D01*
X150822435Y-75121936D01*
X150822432Y-75121934D01*
X150822430Y-75121932D01*
X150666434Y-75008595D01*
X150655806Y-75000873D01*
X150655805Y-75000872D01*
X150655803Y-75000871D01*
X150472290Y-74907366D01*
X150472287Y-74907365D01*
X150472285Y-74907364D01*
X150276412Y-74843721D01*
X150276410Y-74843720D01*
X150276408Y-74843720D01*
X150072981Y-74811500D01*
X149867019Y-74811500D01*
X149663592Y-74843720D01*
X149663590Y-74843720D01*
X149663587Y-74843721D01*
X149467714Y-74907364D01*
X149467708Y-74907367D01*
X149284193Y-75000873D01*
X149117567Y-75121934D01*
X149117564Y-75121936D01*
X148971936Y-75267564D01*
X148971934Y-75267567D01*
X148850873Y-75434193D01*
X148850871Y-75434197D01*
X148814730Y-75505129D01*
X148812267Y-75509962D01*
X148763518Y-75561577D01*
X148694603Y-75578643D01*
X148627402Y-75555742D01*
X148587733Y-75509962D01*
X148549129Y-75434197D01*
X148428068Y-75267570D01*
X148428065Y-75267567D01*
X148428063Y-75267564D01*
X148282435Y-75121936D01*
X148282432Y-75121934D01*
X148282430Y-75121932D01*
X148126434Y-75008595D01*
X148115806Y-75000873D01*
X148115805Y-75000872D01*
X148115803Y-75000871D01*
X147932290Y-74907366D01*
X147932287Y-74907365D01*
X147932285Y-74907364D01*
X147736412Y-74843721D01*
X147736410Y-74843720D01*
X147736408Y-74843720D01*
X147532981Y-74811500D01*
X147327019Y-74811500D01*
X147123592Y-74843720D01*
X147123590Y-74843720D01*
X147123587Y-74843721D01*
X146927714Y-74907364D01*
X146927708Y-74907367D01*
X146744193Y-75000873D01*
X146577567Y-75121934D01*
X146577564Y-75121936D01*
X146431936Y-75267564D01*
X146431934Y-75267567D01*
X146310873Y-75434193D01*
X146310871Y-75434197D01*
X146274730Y-75505129D01*
X146272267Y-75509962D01*
X146223518Y-75561577D01*
X146154603Y-75578643D01*
X146087402Y-75555742D01*
X146047733Y-75509962D01*
X146009129Y-75434197D01*
X145888068Y-75267570D01*
X145888065Y-75267567D01*
X145888063Y-75267564D01*
X145742435Y-75121936D01*
X145742432Y-75121934D01*
X145742430Y-75121932D01*
X145586434Y-75008595D01*
X145575806Y-75000873D01*
X145575805Y-75000872D01*
X145575803Y-75000871D01*
X145392290Y-74907366D01*
X145392287Y-74907365D01*
X145392285Y-74907364D01*
X145196412Y-74843721D01*
X145196410Y-74843720D01*
X145196408Y-74843720D01*
X144992981Y-74811500D01*
X144787019Y-74811500D01*
X144583592Y-74843720D01*
X144583590Y-74843720D01*
X144583587Y-74843721D01*
X144387714Y-74907364D01*
X144387708Y-74907367D01*
X144204193Y-75000873D01*
X144037567Y-75121934D01*
X144037564Y-75121936D01*
X143891936Y-75267564D01*
X143891934Y-75267567D01*
X143770873Y-75434193D01*
X143770871Y-75434197D01*
X143734730Y-75505129D01*
X143732267Y-75509962D01*
X143683518Y-75561577D01*
X143614603Y-75578643D01*
X143547402Y-75555742D01*
X143507733Y-75509962D01*
X143469129Y-75434197D01*
X143348068Y-75267570D01*
X143348065Y-75267567D01*
X143348063Y-75267564D01*
X143202435Y-75121936D01*
X143202432Y-75121934D01*
X143202430Y-75121932D01*
X143046434Y-75008595D01*
X143031798Y-74997961D01*
X143033053Y-74996233D01*
X142991427Y-74950186D01*
X142981336Y-74920028D01*
X142959155Y-74808515D01*
X142911400Y-74693225D01*
X142842071Y-74589467D01*
X142753833Y-74501229D01*
X140650533Y-72397929D01*
X140546775Y-72328600D01*
X140431485Y-72280845D01*
X140357786Y-72266185D01*
X140309096Y-72256500D01*
X140309094Y-72256500D01*
X128397108Y-72256500D01*
X128328987Y-72236498D01*
X128282494Y-72182842D01*
X128272390Y-72112568D01*
X128281721Y-72079886D01*
X128283964Y-72074769D01*
X128289296Y-72062616D01*
X128344564Y-71844368D01*
X128363156Y-71620000D01*
X128344564Y-71395632D01*
X128307291Y-71248444D01*
X128289297Y-71177387D01*
X128289296Y-71177386D01*
X128289296Y-71177384D01*
X128198860Y-70971209D01*
X128129358Y-70864828D01*
X128075724Y-70782734D01*
X128075719Y-70782729D01*
X127932524Y-70627179D01*
X127901103Y-70563514D01*
X127909090Y-70492968D01*
X127953948Y-70437939D01*
X127981183Y-70423789D01*
X128096204Y-70380889D01*
X128148842Y-70341485D01*
X128213261Y-70293261D01*
X128300887Y-70176207D01*
X128300887Y-70176206D01*
X128300889Y-70176204D01*
X128351989Y-70039201D01*
X128355996Y-70001934D01*
X128358499Y-69978649D01*
X128358500Y-69978632D01*
X128358500Y-68181367D01*
X128358499Y-68181350D01*
X128351990Y-68120803D01*
X128351988Y-68120795D01*
X128300889Y-67983797D01*
X128300887Y-67983792D01*
X128213261Y-67866738D01*
X128096207Y-67779112D01*
X128096202Y-67779110D01*
X127959204Y-67728011D01*
X127959196Y-67728009D01*
X127898649Y-67721500D01*
X127898638Y-67721500D01*
X126101362Y-67721500D01*
X126101350Y-67721500D01*
X126040803Y-67728009D01*
X126040795Y-67728011D01*
X125903797Y-67779110D01*
X125903792Y-67779112D01*
X125786738Y-67866738D01*
X125699112Y-67983792D01*
X125699110Y-67983797D01*
X125648011Y-68120795D01*
X125648009Y-68120803D01*
X125641500Y-68181350D01*
X125641500Y-69978649D01*
X125648009Y-70039196D01*
X125648011Y-70039204D01*
X125699110Y-70176202D01*
X125699112Y-70176207D01*
X125786738Y-70293261D01*
X125903791Y-70380886D01*
X125903792Y-70380886D01*
X125903796Y-70380889D01*
X126018810Y-70423787D01*
X126075642Y-70466332D01*
X126100453Y-70532852D01*
X126085362Y-70602226D01*
X126067475Y-70627179D01*
X125924280Y-70782729D01*
X125924275Y-70782734D01*
X125801141Y-70971206D01*
X125710703Y-71177386D01*
X125710702Y-71177387D01*
X125655437Y-71395624D01*
X125655436Y-71395630D01*
X125655436Y-71395632D01*
X125636844Y-71620000D01*
X125652582Y-71809928D01*
X125655437Y-71844375D01*
X125710702Y-72062612D01*
X125710705Y-72062619D01*
X125718279Y-72079886D01*
X125727326Y-72150304D01*
X125696866Y-72214434D01*
X125636569Y-72251916D01*
X125602892Y-72256500D01*
X122740395Y-72256500D01*
X122672274Y-72236498D01*
X122651300Y-72219595D01*
X121947625Y-71515920D01*
X121913599Y-71453608D01*
X121918664Y-71382793D01*
X121943084Y-71342515D01*
X122060734Y-71211851D01*
X122060735Y-71211849D01*
X122060740Y-71211844D01*
X122156227Y-71046456D01*
X122215242Y-70864828D01*
X122235204Y-70674900D01*
X122215242Y-70484972D01*
X122156227Y-70303344D01*
X122060740Y-70137956D01*
X122060738Y-70137954D01*
X122060734Y-70137948D01*
X121932955Y-69996035D01*
X121778452Y-69883782D01*
X121603988Y-69806106D01*
X121417187Y-69766400D01*
X121361294Y-69766400D01*
X121293173Y-69746398D01*
X121272199Y-69729495D01*
X117537805Y-65995101D01*
X117503779Y-65932789D01*
X117500900Y-65906006D01*
X117500900Y-59423894D01*
X117520902Y-59355773D01*
X117574558Y-59309280D01*
X117644832Y-59299176D01*
X117709412Y-59328670D01*
X117715995Y-59334799D01*
X119504167Y-61122971D01*
X119607925Y-61192300D01*
X119723215Y-61240055D01*
X119845606Y-61264400D01*
X119845607Y-61264400D01*
X147128193Y-61264400D01*
X147128194Y-61264400D01*
X147250585Y-61240055D01*
X147365875Y-61192300D01*
X147469633Y-61122971D01*
X150462071Y-58130533D01*
X150531400Y-58026775D01*
X150579155Y-57911485D01*
X150601336Y-57799969D01*
X150634243Y-57737061D01*
X150652227Y-57722631D01*
X150651797Y-57722039D01*
X150655800Y-57719130D01*
X150655803Y-57719129D01*
X150822430Y-57598068D01*
X150968068Y-57452430D01*
X151089129Y-57285803D01*
X151128014Y-57209486D01*
X151176759Y-57157874D01*
X151245674Y-57140807D01*
X151312876Y-57163707D01*
X151352545Y-57209487D01*
X151391298Y-57285542D01*
X151512315Y-57452107D01*
X151512317Y-57452110D01*
X151657889Y-57597682D01*
X151657892Y-57597684D01*
X151824454Y-57718699D01*
X152007900Y-57812170D01*
X152007906Y-57812173D01*
X152203705Y-57875791D01*
X152203717Y-57875794D01*
X152255999Y-57884074D01*
X152256000Y-57884074D01*
X152256000Y-56511686D01*
X152264394Y-56520080D01*
X152355606Y-56572741D01*
X152457339Y-56600000D01*
X152562661Y-56600000D01*
X152664394Y-56572741D01*
X152755606Y-56520080D01*
X152764000Y-56511686D01*
X152764000Y-57884074D01*
X152816282Y-57875794D01*
X152816294Y-57875791D01*
X153012093Y-57812173D01*
X153012099Y-57812170D01*
X153195545Y-57718699D01*
X153362107Y-57597684D01*
X153362110Y-57597682D01*
X153507682Y-57452110D01*
X153519871Y-57435333D01*
X153576091Y-57391977D01*
X153646827Y-57385899D01*
X153709620Y-57419028D01*
X153744534Y-57480846D01*
X153747087Y-57495914D01*
X153748504Y-57509090D01*
X153748504Y-57509091D01*
X153799555Y-57645964D01*
X153799555Y-57645965D01*
X153887095Y-57762904D01*
X154004034Y-57850444D01*
X154140906Y-57901494D01*
X154201402Y-57907999D01*
X154201415Y-57908000D01*
X154796000Y-57908000D01*
X154796000Y-56511686D01*
X154804394Y-56520080D01*
X154895606Y-56572741D01*
X154997339Y-56600000D01*
X155102661Y-56600000D01*
X155204394Y-56572741D01*
X155295606Y-56520080D01*
X155304000Y-56511686D01*
X155304000Y-57908000D01*
X155898585Y-57908000D01*
X155898597Y-57907999D01*
X155959093Y-57901494D01*
X156095964Y-57850444D01*
X156095965Y-57850444D01*
X156212904Y-57762904D01*
X156300444Y-57645965D01*
X156300444Y-57645964D01*
X156351494Y-57509093D01*
X156357999Y-57448597D01*
X156358000Y-57448585D01*
X156358000Y-56454000D01*
X155361686Y-56454000D01*
X155370080Y-56445606D01*
X155422741Y-56354394D01*
X155450000Y-56252661D01*
X155450000Y-56147339D01*
X155422741Y-56045606D01*
X155370080Y-55954394D01*
X155361686Y-55946000D01*
X156358000Y-55946000D01*
X156358000Y-54951414D01*
X156357999Y-54951395D01*
X156351494Y-54890906D01*
X156300444Y-54754035D01*
X156300444Y-54754034D01*
X156212904Y-54637095D01*
X156095965Y-54549555D01*
X155959093Y-54498505D01*
X155898597Y-54492000D01*
X155304000Y-54492000D01*
X155304000Y-55888314D01*
X155295606Y-55879920D01*
X155204394Y-55827259D01*
X155102661Y-55800000D01*
X154997339Y-55800000D01*
X154895606Y-55827259D01*
X154804394Y-55879920D01*
X154796000Y-55888314D01*
X154796000Y-54492000D01*
X154201402Y-54492000D01*
X154140906Y-54498505D01*
X154004035Y-54549555D01*
X154004034Y-54549555D01*
X153887095Y-54637095D01*
X153799555Y-54754034D01*
X153799555Y-54754035D01*
X153748504Y-54890908D01*
X153748504Y-54890909D01*
X153747087Y-54904085D01*
X153719914Y-54969676D01*
X153661593Y-55010163D01*
X153590642Y-55012693D01*
X153529586Y-54976462D01*
X153519873Y-54964668D01*
X153507687Y-54947895D01*
X153507682Y-54947889D01*
X153362110Y-54802317D01*
X153362107Y-54802315D01*
X153195545Y-54681300D01*
X153012099Y-54587829D01*
X153012093Y-54587826D01*
X152816294Y-54524208D01*
X152816296Y-54524208D01*
X152764000Y-54515925D01*
X152764000Y-55888314D01*
X152755606Y-55879920D01*
X152664394Y-55827259D01*
X152562661Y-55800000D01*
X152457339Y-55800000D01*
X152355606Y-55827259D01*
X152264394Y-55879920D01*
X152256000Y-55888314D01*
X152256000Y-54515925D01*
X152203704Y-54524208D01*
X152007906Y-54587826D01*
X152007900Y-54587829D01*
X151824454Y-54681300D01*
X151657892Y-54802315D01*
X151657889Y-54802317D01*
X151512317Y-54947889D01*
X151512315Y-54947892D01*
X151391299Y-55114455D01*
X151352545Y-55190513D01*
X151303796Y-55242127D01*
X151234881Y-55259192D01*
X151167680Y-55236290D01*
X151128013Y-55190511D01*
X151089129Y-55114197D01*
X150968068Y-54947570D01*
X150968065Y-54947567D01*
X150968063Y-54947564D01*
X150822435Y-54801936D01*
X150822432Y-54801934D01*
X150822430Y-54801932D01*
X150661624Y-54685100D01*
X150655806Y-54680873D01*
X150655805Y-54680872D01*
X150655803Y-54680871D01*
X150472290Y-54587366D01*
X150472287Y-54587365D01*
X150472285Y-54587364D01*
X150276412Y-54523721D01*
X150276410Y-54523720D01*
X150276408Y-54523720D01*
X150072981Y-54491500D01*
X149867019Y-54491500D01*
X149663592Y-54523720D01*
X149663590Y-54523720D01*
X149663587Y-54523721D01*
X149467714Y-54587364D01*
X149467708Y-54587367D01*
X149284193Y-54680873D01*
X149117567Y-54801934D01*
X149117564Y-54801936D01*
X148971936Y-54947564D01*
X148971934Y-54947567D01*
X148850873Y-55114193D01*
X148850871Y-55114197D01*
X148817889Y-55178929D01*
X148812267Y-55189962D01*
X148763518Y-55241577D01*
X148694603Y-55258643D01*
X148627402Y-55235742D01*
X148587733Y-55189962D01*
X148549129Y-55114197D01*
X148428068Y-54947570D01*
X148428065Y-54947567D01*
X148428063Y-54947564D01*
X148282435Y-54801936D01*
X148282432Y-54801934D01*
X148282430Y-54801932D01*
X148121624Y-54685100D01*
X148111798Y-54677961D01*
X148113053Y-54676233D01*
X148071427Y-54630186D01*
X148061336Y-54600028D01*
X148039155Y-54488515D01*
X147991400Y-54373225D01*
X147922071Y-54269467D01*
X147833833Y-54181229D01*
X147730075Y-54111900D01*
X147614785Y-54064145D01*
X147541086Y-54049485D01*
X147492396Y-54039800D01*
X147492394Y-54039800D01*
X133291894Y-54039800D01*
X133223773Y-54019798D01*
X133202799Y-54002895D01*
X129504605Y-50304701D01*
X129470579Y-50242389D01*
X129467700Y-50215606D01*
X129467700Y-48815000D01*
X151586844Y-48815000D01*
X151605213Y-49036682D01*
X151605437Y-49039375D01*
X151660702Y-49257612D01*
X151660703Y-49257613D01*
X151660704Y-49257616D01*
X151720118Y-49393068D01*
X151751141Y-49463793D01*
X151874275Y-49652265D01*
X151874279Y-49652270D01*
X152026762Y-49817908D01*
X152079051Y-49858606D01*
X152204424Y-49956189D01*
X152402426Y-50063342D01*
X152402427Y-50063342D01*
X152402428Y-50063343D01*
X152486696Y-50092272D01*
X152615365Y-50136444D01*
X152837431Y-50173500D01*
X152837435Y-50173500D01*
X153062565Y-50173500D01*
X153062569Y-50173500D01*
X153284635Y-50136444D01*
X153497574Y-50063342D01*
X153695576Y-49956189D01*
X153873240Y-49817906D01*
X154025722Y-49652268D01*
X154026971Y-49650356D01*
X154121555Y-49505585D01*
X154175558Y-49459496D01*
X154227038Y-49448500D01*
X154481393Y-49448500D01*
X154481394Y-49448500D01*
X154603785Y-49424155D01*
X154719075Y-49376400D01*
X154822833Y-49307071D01*
X155569072Y-48560833D01*
X155638401Y-48457075D01*
X155686155Y-48341784D01*
X155688022Y-48332395D01*
X155689907Y-48322927D01*
X155710499Y-48219399D01*
X155710500Y-48219392D01*
X155710500Y-42675524D01*
X155730502Y-42607403D01*
X155742858Y-42591220D01*
X155816040Y-42509944D01*
X155911527Y-42344556D01*
X155970542Y-42162928D01*
X155990504Y-41973000D01*
X155970542Y-41783072D01*
X155911527Y-41601444D01*
X155816040Y-41436056D01*
X155816038Y-41436054D01*
X155816034Y-41436048D01*
X155688255Y-41294135D01*
X155533752Y-41181882D01*
X155359288Y-41104206D01*
X155172487Y-41064500D01*
X154981513Y-41064500D01*
X154794711Y-41104206D01*
X154620247Y-41181882D01*
X154465744Y-41294135D01*
X154337965Y-41436048D01*
X154337958Y-41436058D01*
X154242476Y-41601438D01*
X154242473Y-41601444D01*
X154227999Y-41645986D01*
X154183457Y-41783072D01*
X154163496Y-41973000D01*
X154183457Y-42162927D01*
X154212427Y-42252086D01*
X154242473Y-42344556D01*
X154242476Y-42344561D01*
X154330108Y-42496345D01*
X154337960Y-42509944D01*
X154411137Y-42591215D01*
X154441853Y-42655220D01*
X154443500Y-42675524D01*
X154443500Y-45057524D01*
X154423498Y-45125645D01*
X154369842Y-45172138D01*
X154299568Y-45182242D01*
X154234988Y-45152748D01*
X154216632Y-45133034D01*
X154208300Y-45121904D01*
X154163261Y-45061739D01*
X154163259Y-45061738D01*
X154163259Y-45061737D01*
X154046207Y-44974112D01*
X154046202Y-44974110D01*
X153909204Y-44923011D01*
X153909196Y-44923009D01*
X153848649Y-44916500D01*
X153848638Y-44916500D01*
X152051362Y-44916500D01*
X152051350Y-44916500D01*
X151990803Y-44923009D01*
X151990795Y-44923011D01*
X151853797Y-44974110D01*
X151853792Y-44974112D01*
X151736738Y-45061738D01*
X151649112Y-45178792D01*
X151649110Y-45178797D01*
X151598011Y-45315795D01*
X151598009Y-45315803D01*
X151591500Y-45376350D01*
X151591500Y-47173649D01*
X151598009Y-47234196D01*
X151598011Y-47234204D01*
X151649110Y-47371202D01*
X151649112Y-47371207D01*
X151736738Y-47488261D01*
X151853791Y-47575886D01*
X151853792Y-47575886D01*
X151853796Y-47575889D01*
X151968810Y-47618787D01*
X152025642Y-47661332D01*
X152050453Y-47727852D01*
X152035362Y-47797226D01*
X152017475Y-47822179D01*
X151874280Y-47977729D01*
X151874275Y-47977734D01*
X151751141Y-48166206D01*
X151660703Y-48372386D01*
X151660702Y-48372387D01*
X151605437Y-48590624D01*
X151605436Y-48590630D01*
X151605436Y-48590632D01*
X151586844Y-48815000D01*
X129467700Y-48815000D01*
X129467700Y-43720302D01*
X129467699Y-43720298D01*
X129467580Y-43719700D01*
X129443355Y-43597910D01*
X129395600Y-43482620D01*
X129326271Y-43378862D01*
X129238033Y-43290624D01*
X128560838Y-42613429D01*
X128457080Y-42544100D01*
X128341790Y-42496345D01*
X128268091Y-42481685D01*
X128219401Y-42472000D01*
X128219399Y-42472000D01*
X125832106Y-42472000D01*
X125832103Y-42472000D01*
X125709714Y-42496345D01*
X125709709Y-42496347D01*
X125676884Y-42509944D01*
X125594423Y-42544100D01*
X125490667Y-42613427D01*
X125490661Y-42613432D01*
X121547401Y-46556695D01*
X121485089Y-46590720D01*
X121458306Y-46593600D01*
X115111125Y-46593600D01*
X115043004Y-46573598D01*
X114996511Y-46519942D01*
X114986407Y-46449668D01*
X115006359Y-46397600D01*
X115017398Y-46381078D01*
X115017398Y-46381077D01*
X115017400Y-46381075D01*
X115065155Y-46265785D01*
X115089500Y-46143394D01*
X115089500Y-46018606D01*
X115089500Y-44698000D01*
X118370693Y-44698000D01*
X118389885Y-44917371D01*
X118415573Y-45013240D01*
X118446879Y-45130073D01*
X118446881Y-45130079D01*
X118471205Y-45182242D01*
X118539944Y-45329654D01*
X118646050Y-45481188D01*
X118666251Y-45510038D01*
X118666254Y-45510042D01*
X118821957Y-45665745D01*
X118821961Y-45665748D01*
X118821962Y-45665749D01*
X119002346Y-45792056D01*
X119201924Y-45885120D01*
X119414629Y-45942115D01*
X119634000Y-45961307D01*
X119853371Y-45942115D01*
X120066076Y-45885120D01*
X120265654Y-45792056D01*
X120446038Y-45665749D01*
X120601749Y-45510038D01*
X120728056Y-45329654D01*
X120821120Y-45130076D01*
X120878115Y-44917371D01*
X120897307Y-44698000D01*
X120878115Y-44478629D01*
X120821120Y-44265924D01*
X120728056Y-44066347D01*
X120601749Y-43885962D01*
X120446038Y-43730251D01*
X120435575Y-43722925D01*
X120390276Y-43691206D01*
X120265654Y-43603944D01*
X120166706Y-43557804D01*
X120066079Y-43510881D01*
X120066073Y-43510879D01*
X119940166Y-43477142D01*
X119853371Y-43453885D01*
X119634000Y-43434693D01*
X119414629Y-43453885D01*
X119201926Y-43510879D01*
X119201920Y-43510881D01*
X119002346Y-43603944D01*
X118821965Y-43730248D01*
X118821959Y-43730253D01*
X118666253Y-43885959D01*
X118666248Y-43885965D01*
X118539944Y-44066346D01*
X118446881Y-44265920D01*
X118446879Y-44265926D01*
X118435056Y-44310050D01*
X118389885Y-44478629D01*
X118370693Y-44698000D01*
X115089500Y-44698000D01*
X115089500Y-41794990D01*
X115109502Y-41726869D01*
X115126405Y-41705895D01*
X118145995Y-38686305D01*
X118208307Y-38652279D01*
X118235090Y-38649400D01*
X118718623Y-38649400D01*
X118786744Y-38669402D01*
X118833237Y-38723058D01*
X118843341Y-38793332D01*
X118813847Y-38857912D01*
X118807718Y-38864495D01*
X118666253Y-39005959D01*
X118666248Y-39005965D01*
X118539944Y-39186346D01*
X118446881Y-39385920D01*
X118446879Y-39385926D01*
X118392974Y-39587100D01*
X118389885Y-39598629D01*
X118370693Y-39818000D01*
X118389885Y-40037371D01*
X118422791Y-40160178D01*
X118446879Y-40250073D01*
X118446881Y-40250079D01*
X118483204Y-40327974D01*
X118539944Y-40449654D01*
X118636182Y-40587095D01*
X118666251Y-40630038D01*
X118666254Y-40630042D01*
X118821957Y-40785745D01*
X118821961Y-40785748D01*
X118821962Y-40785749D01*
X119002346Y-40912056D01*
X119201924Y-41005120D01*
X119414629Y-41062115D01*
X119634000Y-41081307D01*
X119853371Y-41062115D01*
X120066076Y-41005120D01*
X120265654Y-40912056D01*
X120446038Y-40785749D01*
X120601749Y-40630038D01*
X120728056Y-40449654D01*
X120821120Y-40250076D01*
X120878115Y-40037371D01*
X120897307Y-39818000D01*
X120878115Y-39598629D01*
X120821120Y-39385924D01*
X120809496Y-39360996D01*
X120801234Y-39343278D01*
X120790573Y-39273086D01*
X120819553Y-39208273D01*
X120878973Y-39169417D01*
X120949967Y-39168854D01*
X121004521Y-39200931D01*
X122465962Y-40662372D01*
X122569720Y-40731701D01*
X122632409Y-40757667D01*
X122685010Y-40779455D01*
X122807401Y-40803800D01*
X122807402Y-40803800D01*
X122932189Y-40803800D01*
X125639400Y-40803800D01*
X125707521Y-40823802D01*
X125733037Y-40845490D01*
X125736347Y-40849166D01*
X125890848Y-40961418D01*
X126065312Y-41039094D01*
X126252113Y-41078800D01*
X126443087Y-41078800D01*
X126629888Y-41039094D01*
X126804352Y-40961418D01*
X126958853Y-40849166D01*
X126962163Y-40845490D01*
X127086634Y-40707251D01*
X127086635Y-40707249D01*
X127086640Y-40707244D01*
X127182127Y-40541856D01*
X127241142Y-40360228D01*
X127261104Y-40170300D01*
X127248709Y-40052369D01*
X127261481Y-39982532D01*
X127309983Y-39930685D01*
X127374019Y-39913200D01*
X127385743Y-39913200D01*
X127453864Y-39933202D01*
X127494863Y-39976201D01*
X127546560Y-40065745D01*
X127674344Y-40207664D01*
X127674347Y-40207666D01*
X127828848Y-40319918D01*
X128003312Y-40397594D01*
X128190113Y-40437300D01*
X128381087Y-40437300D01*
X128567888Y-40397594D01*
X128742352Y-40319918D01*
X128896853Y-40207666D01*
X128896855Y-40207664D01*
X129024634Y-40065751D01*
X129024635Y-40065749D01*
X129024640Y-40065744D01*
X129120127Y-39900356D01*
X129179142Y-39718728D01*
X129199104Y-39528800D01*
X129179142Y-39338872D01*
X129179142Y-39338871D01*
X129164217Y-39292936D01*
X129162190Y-39221968D01*
X129198852Y-39161171D01*
X129262564Y-39129845D01*
X129284050Y-39128000D01*
X129405206Y-39128000D01*
X129473327Y-39148002D01*
X129494301Y-39164905D01*
X135385467Y-45056071D01*
X135489225Y-45125400D01*
X135604515Y-45173155D01*
X135702489Y-45192643D01*
X135718293Y-45195787D01*
X135781203Y-45228695D01*
X135796924Y-45247095D01*
X135909799Y-45408296D01*
X135909802Y-45408300D01*
X136071700Y-45570198D01*
X136259251Y-45701523D01*
X136466757Y-45798284D01*
X136687913Y-45857543D01*
X136916000Y-45877498D01*
X137144087Y-45857543D01*
X137365243Y-45798284D01*
X137572749Y-45701523D01*
X137760300Y-45570198D01*
X137922198Y-45408300D01*
X138053523Y-45220749D01*
X138150284Y-45013243D01*
X138209543Y-44792087D01*
X138229498Y-44564000D01*
X138209543Y-44335913D01*
X138150284Y-44114757D01*
X138053523Y-43907251D01*
X137922198Y-43719700D01*
X137760300Y-43557802D01*
X137721921Y-43530929D01*
X137612350Y-43454206D01*
X137572749Y-43426477D01*
X137533543Y-43408195D01*
X137480258Y-43361279D01*
X137460796Y-43293002D01*
X137481337Y-43225042D01*
X137533543Y-43179805D01*
X137535997Y-43178660D01*
X137572749Y-43161523D01*
X137760300Y-43030198D01*
X137922198Y-42868300D01*
X138053523Y-42680749D01*
X138150284Y-42473243D01*
X138209543Y-42252087D01*
X138229498Y-42024000D01*
X138209543Y-41795913D01*
X138150284Y-41574757D01*
X138053523Y-41367251D01*
X137922198Y-41179700D01*
X137760300Y-41017802D01*
X137742188Y-41005120D01*
X137572749Y-40886477D01*
X137532951Y-40867919D01*
X137479666Y-40821002D01*
X137460205Y-40752725D01*
X137480747Y-40684765D01*
X137532951Y-40639529D01*
X137572498Y-40621087D01*
X137759974Y-40489815D01*
X137759980Y-40489810D01*
X137921810Y-40327980D01*
X137921815Y-40327974D01*
X138053087Y-40140498D01*
X138149811Y-39933073D01*
X138149813Y-39933068D01*
X138202082Y-39738000D01*
X137227686Y-39738000D01*
X137236080Y-39729606D01*
X137288741Y-39638394D01*
X137316000Y-39536661D01*
X137316000Y-39431339D01*
X137288741Y-39329606D01*
X137236080Y-39238394D01*
X137227686Y-39230000D01*
X138202082Y-39230000D01*
X138149813Y-39034931D01*
X138149811Y-39034925D01*
X138112192Y-38954250D01*
X138101531Y-38884058D01*
X138130511Y-38819245D01*
X138189931Y-38780389D01*
X138226387Y-38775000D01*
X139212206Y-38775000D01*
X139280327Y-38795002D01*
X139301301Y-38811905D01*
X142917229Y-42427833D01*
X143005467Y-42516071D01*
X143109225Y-42585400D01*
X143224515Y-42633155D01*
X143322489Y-42652643D01*
X143338293Y-42655787D01*
X143401203Y-42688695D01*
X143416924Y-42707095D01*
X143453334Y-42759093D01*
X143529802Y-42868300D01*
X143691700Y-43030198D01*
X143879251Y-43161523D01*
X143914359Y-43177894D01*
X143918457Y-43179805D01*
X143971742Y-43226722D01*
X143991203Y-43294999D01*
X143970661Y-43362959D01*
X143918457Y-43408195D01*
X143879250Y-43426477D01*
X143691703Y-43557799D01*
X143691697Y-43557804D01*
X143529804Y-43719697D01*
X143529799Y-43719703D01*
X143398477Y-43907250D01*
X143301717Y-44114753D01*
X143301715Y-44114759D01*
X143253554Y-44294498D01*
X143242457Y-44335913D01*
X143222502Y-44564000D01*
X143234225Y-44698000D01*
X143242457Y-44792086D01*
X143301715Y-45013240D01*
X143301717Y-45013246D01*
X143398477Y-45220749D01*
X143474730Y-45329650D01*
X143529802Y-45408300D01*
X143691700Y-45570198D01*
X143879251Y-45701523D01*
X144086757Y-45798284D01*
X144307913Y-45857543D01*
X144536000Y-45877498D01*
X144764087Y-45857543D01*
X144985243Y-45798284D01*
X145192749Y-45701523D01*
X145380300Y-45570198D01*
X145542198Y-45408300D01*
X145673523Y-45220749D01*
X145770284Y-45013243D01*
X145829543Y-44792087D01*
X145849498Y-44564000D01*
X145829543Y-44335913D01*
X145770284Y-44114757D01*
X145673523Y-43907251D01*
X145542198Y-43719700D01*
X145380300Y-43557802D01*
X145341921Y-43530929D01*
X145232350Y-43454206D01*
X145192749Y-43426477D01*
X145153543Y-43408195D01*
X145100258Y-43361279D01*
X145080796Y-43293002D01*
X145101337Y-43225042D01*
X145153543Y-43179805D01*
X145155997Y-43178660D01*
X145192749Y-43161523D01*
X145380300Y-43030198D01*
X145542198Y-42868300D01*
X145673523Y-42680749D01*
X145770284Y-42473243D01*
X145829543Y-42252087D01*
X145849498Y-42024000D01*
X145829543Y-41795913D01*
X145770284Y-41574757D01*
X145673523Y-41367251D01*
X145542198Y-41179700D01*
X145380300Y-41017802D01*
X145362185Y-41005118D01*
X145317998Y-40974177D01*
X145192749Y-40886477D01*
X145153543Y-40868195D01*
X145100258Y-40821279D01*
X145080796Y-40753002D01*
X145101337Y-40685042D01*
X145153543Y-40639805D01*
X145155997Y-40638660D01*
X145192749Y-40621523D01*
X145380300Y-40490198D01*
X145542198Y-40328300D01*
X145673523Y-40140749D01*
X145770284Y-39933243D01*
X145829543Y-39712087D01*
X145849498Y-39484000D01*
X145829543Y-39255913D01*
X145770284Y-39034757D01*
X145673523Y-38827251D01*
X145542198Y-38639700D01*
X145380300Y-38477802D01*
X145336794Y-38447339D01*
X145192749Y-38346477D01*
X145152951Y-38327919D01*
X145099666Y-38281002D01*
X145080205Y-38212725D01*
X145100747Y-38144765D01*
X145152951Y-38099529D01*
X145192498Y-38081087D01*
X145379974Y-37949815D01*
X145379980Y-37949810D01*
X145541810Y-37787980D01*
X145541815Y-37787974D01*
X145673087Y-37600498D01*
X145769811Y-37393073D01*
X145769813Y-37393068D01*
X145822082Y-37198000D01*
X144847686Y-37198000D01*
X144856080Y-37189606D01*
X144908741Y-37098394D01*
X144936000Y-36996661D01*
X144936000Y-36891339D01*
X144908741Y-36789606D01*
X144856080Y-36698394D01*
X144847686Y-36690000D01*
X145822082Y-36690000D01*
X145769813Y-36494931D01*
X145769811Y-36494926D01*
X145673087Y-36287501D01*
X145541815Y-36100025D01*
X145541810Y-36100019D01*
X145379980Y-35938189D01*
X145379974Y-35938184D01*
X145192498Y-35806912D01*
X144985073Y-35710188D01*
X144985071Y-35710187D01*
X144790000Y-35657917D01*
X144790000Y-36632314D01*
X144781606Y-36623920D01*
X144690394Y-36571259D01*
X144588661Y-36544000D01*
X144483339Y-36544000D01*
X144381606Y-36571259D01*
X144290394Y-36623920D01*
X144282000Y-36632314D01*
X144282000Y-35657917D01*
X144281999Y-35657917D01*
X144086928Y-35710187D01*
X144086926Y-35710188D01*
X143879501Y-35806912D01*
X143692025Y-35938184D01*
X143692019Y-35938189D01*
X143530189Y-36100019D01*
X143530184Y-36100025D01*
X143398912Y-36287501D01*
X143302188Y-36494926D01*
X143302186Y-36494931D01*
X143249917Y-36690000D01*
X144224314Y-36690000D01*
X144215920Y-36698394D01*
X144163259Y-36789606D01*
X144136000Y-36891339D01*
X144136000Y-36996661D01*
X144163259Y-37098394D01*
X144215920Y-37189606D01*
X144224314Y-37198000D01*
X143249918Y-37198000D01*
X143302186Y-37393068D01*
X143302188Y-37393073D01*
X143398912Y-37600498D01*
X143530184Y-37787974D01*
X143530189Y-37787980D01*
X143692019Y-37949810D01*
X143692025Y-37949815D01*
X143879503Y-38081089D01*
X143919049Y-38099530D01*
X143972334Y-38146447D01*
X143991794Y-38214724D01*
X143971252Y-38282684D01*
X143919049Y-38327918D01*
X143879252Y-38346475D01*
X143691703Y-38477799D01*
X143691697Y-38477804D01*
X143529804Y-38639697D01*
X143529799Y-38639703D01*
X143398477Y-38827250D01*
X143301717Y-39034753D01*
X143301715Y-39034759D01*
X143261097Y-39186347D01*
X143242457Y-39255913D01*
X143222502Y-39484000D01*
X143242457Y-39712087D01*
X143252854Y-39750887D01*
X143301715Y-39933240D01*
X143301717Y-39933246D01*
X143398477Y-40140749D01*
X143445331Y-40207664D01*
X143529802Y-40328300D01*
X143691700Y-40490198D01*
X143879251Y-40621523D01*
X143914359Y-40637894D01*
X143918457Y-40639805D01*
X143971742Y-40686722D01*
X143991203Y-40754999D01*
X143970661Y-40822959D01*
X143918457Y-40868195D01*
X143879250Y-40886477D01*
X143691703Y-41017799D01*
X143584447Y-41125054D01*
X143522134Y-41159079D01*
X143451318Y-41154013D01*
X143406257Y-41125053D01*
X139930635Y-37649431D01*
X139930633Y-37649429D01*
X139826875Y-37580100D01*
X139711585Y-37532345D01*
X139637886Y-37517685D01*
X139589196Y-37508000D01*
X139589194Y-37508000D01*
X138350500Y-37508000D01*
X138282379Y-37487998D01*
X138235886Y-37434342D01*
X138224500Y-37382000D01*
X138224500Y-36095367D01*
X138224499Y-36095350D01*
X138217990Y-36034803D01*
X138217988Y-36034795D01*
X138166889Y-35897797D01*
X138166887Y-35897792D01*
X138079261Y-35780738D01*
X137962207Y-35693112D01*
X137962202Y-35693110D01*
X137825204Y-35642011D01*
X137825196Y-35642009D01*
X137764649Y-35635500D01*
X137764638Y-35635500D01*
X136067362Y-35635500D01*
X136067350Y-35635500D01*
X136006803Y-35642009D01*
X136006795Y-35642011D01*
X135869797Y-35693110D01*
X135869792Y-35693112D01*
X135752738Y-35780738D01*
X135665112Y-35897792D01*
X135665110Y-35897797D01*
X135614011Y-36034795D01*
X135614009Y-36034803D01*
X135607500Y-36095350D01*
X135607500Y-37382000D01*
X135587498Y-37450121D01*
X135533842Y-37496614D01*
X135481500Y-37508000D01*
X134358694Y-37508000D01*
X134290573Y-37487998D01*
X134269599Y-37471095D01*
X126798504Y-30000000D01*
X152136656Y-30000000D01*
X152156016Y-30332403D01*
X152156016Y-30332409D01*
X152209242Y-30634268D01*
X152213838Y-30660333D01*
X152309337Y-30979321D01*
X152309339Y-30979327D01*
X152309340Y-30979328D01*
X152441220Y-31285063D01*
X152441222Y-31285066D01*
X152607711Y-31573433D01*
X152607714Y-31573437D01*
X152806552Y-31840523D01*
X153035057Y-32082724D01*
X153290134Y-32296758D01*
X153568320Y-32479724D01*
X153568328Y-32479729D01*
X153865887Y-32629169D01*
X154022335Y-32686111D01*
X154178775Y-32743051D01*
X154178776Y-32743051D01*
X154178784Y-32743054D01*
X154502786Y-32819843D01*
X154691771Y-32841932D01*
X154833508Y-32858500D01*
X154833511Y-32858500D01*
X155166492Y-32858500D01*
X155290510Y-32844003D01*
X155497214Y-32819843D01*
X155821216Y-32743054D01*
X156134113Y-32629169D01*
X156431672Y-32479729D01*
X156709870Y-32296755D01*
X156964946Y-32082721D01*
X157193449Y-31840522D01*
X157392289Y-31573433D01*
X157558778Y-31285066D01*
X157690663Y-30979321D01*
X157786162Y-30660333D01*
X157843983Y-30332414D01*
X157863344Y-30000000D01*
X157843983Y-29667586D01*
X157786162Y-29339667D01*
X157690663Y-29020679D01*
X157558778Y-28714934D01*
X157392289Y-28426567D01*
X157193449Y-28159478D01*
X156964946Y-27917279D01*
X156964944Y-27917278D01*
X156964942Y-27917275D01*
X156709865Y-27703241D01*
X156431679Y-27520275D01*
X156431675Y-27520273D01*
X156431672Y-27520271D01*
X156134113Y-27370831D01*
X156134108Y-27370829D01*
X156134103Y-27370827D01*
X155821224Y-27256948D01*
X155821217Y-27256946D01*
X155821216Y-27256946D01*
X155639258Y-27213821D01*
X155497219Y-27180158D01*
X155497209Y-27180156D01*
X155166492Y-27141500D01*
X155166489Y-27141500D01*
X154833511Y-27141500D01*
X154833508Y-27141500D01*
X154502790Y-27180156D01*
X154502780Y-27180158D01*
X154178784Y-27256946D01*
X154178775Y-27256948D01*
X153865896Y-27370827D01*
X153865891Y-27370829D01*
X153568320Y-27520275D01*
X153290134Y-27703241D01*
X153035057Y-27917275D01*
X152806552Y-28159476D01*
X152607714Y-28426562D01*
X152607704Y-28426578D01*
X152441223Y-28714931D01*
X152441220Y-28714936D01*
X152309340Y-29020671D01*
X152309338Y-29020677D01*
X152213838Y-29339666D01*
X152156016Y-29667590D01*
X152156016Y-29667596D01*
X152136656Y-30000000D01*
X126798504Y-30000000D01*
X126103435Y-29304931D01*
X126103433Y-29304929D01*
X125999675Y-29235600D01*
X125884385Y-29187845D01*
X125810686Y-29173185D01*
X125761996Y-29163500D01*
X125761994Y-29163500D01*
X122455038Y-29163500D01*
X122386917Y-29143498D01*
X122349555Y-29106415D01*
X122253724Y-28959734D01*
X122253720Y-28959729D01*
X122101237Y-28794091D01*
X121999536Y-28714934D01*
X121923576Y-28655811D01*
X121725574Y-28548658D01*
X121725572Y-28548657D01*
X121725571Y-28548656D01*
X121512639Y-28475557D01*
X121512630Y-28475555D01*
X121468476Y-28468187D01*
X121290569Y-28438500D01*
X121065431Y-28438500D01*
X120917211Y-28463233D01*
X120843369Y-28475555D01*
X120843360Y-28475557D01*
X120630428Y-28548656D01*
X120630426Y-28548658D01*
X120432426Y-28655810D01*
X120432424Y-28655811D01*
X120254762Y-28794091D01*
X120193754Y-28860363D01*
X120132901Y-28896933D01*
X120061936Y-28894798D01*
X120003391Y-28854636D01*
X119982999Y-28819057D01*
X119938889Y-28700797D01*
X119938887Y-28700792D01*
X119851261Y-28583738D01*
X119734207Y-28496112D01*
X119734202Y-28496110D01*
X119597204Y-28445011D01*
X119597196Y-28445009D01*
X119536649Y-28438500D01*
X119536638Y-28438500D01*
X117739362Y-28438500D01*
X117739350Y-28438500D01*
X117678803Y-28445009D01*
X117678795Y-28445011D01*
X117541797Y-28496110D01*
X117541792Y-28496112D01*
X117424738Y-28583738D01*
X117337112Y-28700792D01*
X117337110Y-28700797D01*
X117286011Y-28837795D01*
X117286009Y-28837803D01*
X117279500Y-28898350D01*
X117279500Y-30695649D01*
X117286009Y-30756196D01*
X117286011Y-30756204D01*
X117337110Y-30893202D01*
X117337112Y-30893207D01*
X117424738Y-31010261D01*
X117541792Y-31097887D01*
X117541794Y-31097888D01*
X117541796Y-31097889D01*
X117596900Y-31118442D01*
X117678795Y-31148988D01*
X117678803Y-31148990D01*
X117739350Y-31155499D01*
X117739355Y-31155499D01*
X117739362Y-31155500D01*
X117739368Y-31155500D01*
X119536632Y-31155500D01*
X119536638Y-31155500D01*
X119536645Y-31155499D01*
X119536649Y-31155499D01*
X119597196Y-31148990D01*
X119597199Y-31148989D01*
X119597201Y-31148989D01*
X119734204Y-31097889D01*
X119804399Y-31045342D01*
X119851261Y-31010261D01*
X119938886Y-30893208D01*
X119938885Y-30893208D01*
X119938889Y-30893204D01*
X119982999Y-30774939D01*
X120025545Y-30718107D01*
X120092066Y-30693296D01*
X120161440Y-30708388D01*
X120193753Y-30733635D01*
X120214529Y-30756204D01*
X120254762Y-30799908D01*
X120309331Y-30842381D01*
X120432424Y-30938189D01*
X120630426Y-31045342D01*
X120630427Y-31045342D01*
X120630428Y-31045343D01*
X120742227Y-31083723D01*
X120843365Y-31118444D01*
X121065431Y-31155500D01*
X121065435Y-31155500D01*
X121290565Y-31155500D01*
X121290569Y-31155500D01*
X121512635Y-31118444D01*
X121725574Y-31045342D01*
X121923576Y-30938189D01*
X122101240Y-30799906D01*
X122253722Y-30634268D01*
X122349555Y-30487585D01*
X122403558Y-30441496D01*
X122455038Y-30430500D01*
X125385006Y-30430500D01*
X125453127Y-30450502D01*
X125474101Y-30467405D01*
X130691632Y-35684936D01*
X130725658Y-35747248D01*
X130720593Y-35818063D01*
X130678046Y-35874899D01*
X130611526Y-35899710D01*
X130542152Y-35884619D01*
X130532535Y-35878796D01*
X130451276Y-35824501D01*
X130451277Y-35824501D01*
X130451275Y-35824500D01*
X130335985Y-35776745D01*
X130262286Y-35762085D01*
X130213596Y-35752400D01*
X130213594Y-35752400D01*
X103571494Y-35752400D01*
X103446706Y-35752400D01*
X103446703Y-35752400D01*
X103373668Y-35766928D01*
X103324315Y-35776745D01*
X103324313Y-35776745D01*
X103324312Y-35776746D01*
X103209023Y-35824501D01*
X103105271Y-35893826D01*
X103105264Y-35893831D01*
X91961351Y-47037743D01*
X91899039Y-47071769D01*
X91828224Y-47066704D01*
X91796754Y-47049521D01*
X91796212Y-47049115D01*
X91796202Y-47049110D01*
X91659204Y-46998011D01*
X91659196Y-46998009D01*
X91598649Y-46991500D01*
X91598638Y-46991500D01*
X89901362Y-46991500D01*
X89901350Y-46991500D01*
X89840803Y-46998009D01*
X89840795Y-46998011D01*
X89703797Y-47049110D01*
X89703792Y-47049112D01*
X89586738Y-47136738D01*
X89499112Y-47253792D01*
X89499110Y-47253797D01*
X89448011Y-47390795D01*
X89448009Y-47390803D01*
X89441500Y-47451350D01*
X89441500Y-49148649D01*
X89448009Y-49209196D01*
X89448011Y-49209204D01*
X89499110Y-49346202D01*
X89499112Y-49346207D01*
X89586738Y-49463261D01*
X89703792Y-49550887D01*
X89703794Y-49550888D01*
X89703796Y-49550889D01*
X89762875Y-49572924D01*
X89840795Y-49601988D01*
X89840803Y-49601990D01*
X89901350Y-49608499D01*
X89901355Y-49608499D01*
X89901362Y-49608500D01*
X89901368Y-49608500D01*
X91598632Y-49608500D01*
X91598638Y-49608500D01*
X91598645Y-49608499D01*
X91598649Y-49608499D01*
X91659196Y-49601990D01*
X91659199Y-49601989D01*
X91659201Y-49601989D01*
X91664923Y-49599855D01*
X91681293Y-49593749D01*
X91796204Y-49550889D01*
X91819018Y-49533811D01*
X91913261Y-49463261D01*
X92000887Y-49346207D01*
X92000887Y-49346206D01*
X92000889Y-49346204D01*
X92051989Y-49209201D01*
X92053232Y-49197644D01*
X92058861Y-49145283D01*
X92059908Y-49145395D01*
X92082056Y-49082567D01*
X92138113Y-49039000D01*
X92154106Y-49036682D01*
X92850000Y-48340788D01*
X92850000Y-48352661D01*
X92877259Y-48454394D01*
X92929920Y-48545606D01*
X93004394Y-48620080D01*
X93095606Y-48672741D01*
X93197339Y-48700000D01*
X93209210Y-48700000D01*
X92522110Y-49387098D01*
X92522110Y-49387100D01*
X92593498Y-49437086D01*
X92800926Y-49533811D01*
X92800931Y-49533813D01*
X93021999Y-49593048D01*
X93021995Y-49593048D01*
X93250000Y-49612995D01*
X93478002Y-49593048D01*
X93699068Y-49533813D01*
X93699073Y-49533811D01*
X93906497Y-49437088D01*
X93977888Y-49387099D01*
X93977888Y-49387097D01*
X93290791Y-48700000D01*
X93302661Y-48700000D01*
X93404394Y-48672741D01*
X93495606Y-48620080D01*
X93570080Y-48545606D01*
X93622741Y-48454394D01*
X93650000Y-48352661D01*
X93650000Y-48340791D01*
X94337097Y-49027888D01*
X94337099Y-49027888D01*
X94387088Y-48956497D01*
X94483811Y-48749073D01*
X94483813Y-48749068D01*
X94543048Y-48528002D01*
X94562995Y-48300000D01*
X94543048Y-48071997D01*
X94483813Y-47850931D01*
X94483811Y-47850926D01*
X94387086Y-47643498D01*
X94337100Y-47572110D01*
X94337098Y-47572110D01*
X93650000Y-48259208D01*
X93650000Y-48247339D01*
X93622741Y-48145606D01*
X93570080Y-48054394D01*
X93495606Y-47979920D01*
X93404394Y-47927259D01*
X93302661Y-47900000D01*
X93290789Y-47900000D01*
X93977888Y-47212899D01*
X93977888Y-47212898D01*
X93906501Y-47162913D01*
X93906498Y-47162911D01*
X93879647Y-47150391D01*
X93826361Y-47103475D01*
X93806900Y-47035197D01*
X93827441Y-46967237D01*
X93843792Y-46947111D01*
X103734599Y-37056305D01*
X103796911Y-37022279D01*
X103823694Y-37019400D01*
X116180505Y-37019400D01*
X116248626Y-37039402D01*
X116295119Y-37093058D01*
X116305223Y-37163332D01*
X116275729Y-37227912D01*
X116269600Y-37234495D01*
X109973167Y-43530929D01*
X109884931Y-43619164D01*
X109884926Y-43619171D01*
X109817353Y-43720302D01*
X109815600Y-43722925D01*
X109807749Y-43741879D01*
X109767846Y-43838212D01*
X109743500Y-43960603D01*
X109743500Y-46420905D01*
X109723498Y-46489026D01*
X109706595Y-46510000D01*
X108613601Y-47602995D01*
X108551289Y-47637020D01*
X108524506Y-47639900D01*
X108468613Y-47639900D01*
X108281811Y-47679606D01*
X108107347Y-47757282D01*
X107952844Y-47869535D01*
X107825065Y-48011448D01*
X107825058Y-48011458D01*
X107729576Y-48176838D01*
X107729573Y-48176845D01*
X107670557Y-48358472D01*
X107650596Y-48548400D01*
X107670557Y-48738327D01*
X107694461Y-48811894D01*
X107729573Y-48919956D01*
X107729576Y-48919961D01*
X107825058Y-49085341D01*
X107825065Y-49085351D01*
X107952844Y-49227264D01*
X107994616Y-49257613D01*
X108107348Y-49339518D01*
X108269100Y-49411534D01*
X108323196Y-49457514D01*
X108343845Y-49525441D01*
X108324493Y-49593749D01*
X108311488Y-49610951D01*
X108190561Y-49745254D01*
X108190558Y-49745258D01*
X108095076Y-49910638D01*
X108095073Y-49910645D01*
X108036057Y-50092272D01*
X108016096Y-50282200D01*
X108036057Y-50472127D01*
X108051508Y-50519678D01*
X108095073Y-50653756D01*
X108095076Y-50653761D01*
X108190558Y-50819141D01*
X108190565Y-50819151D01*
X108318344Y-50961064D01*
X108318347Y-50961066D01*
X108472848Y-51073318D01*
X108647312Y-51150994D01*
X108834113Y-51190700D01*
X109025087Y-51190700D01*
X109211888Y-51150994D01*
X109386352Y-51073318D01*
X109540853Y-50961066D01*
X109542294Y-50959466D01*
X109668634Y-50819151D01*
X109668635Y-50819149D01*
X109668640Y-50819144D01*
X109764127Y-50653756D01*
X109823142Y-50472128D01*
X109843104Y-50282200D01*
X109843104Y-50282199D01*
X109843104Y-50275597D01*
X109844209Y-50275597D01*
X109852067Y-50221397D01*
X109899952Y-50105792D01*
X109899951Y-50105792D01*
X109899955Y-50105785D01*
X109924300Y-49983394D01*
X109924300Y-49858606D01*
X109924300Y-48945601D01*
X109944302Y-48877480D01*
X109997958Y-48830987D01*
X110068232Y-48820883D01*
X110132812Y-48850377D01*
X110143937Y-48861292D01*
X110173444Y-48894064D01*
X110311261Y-48994194D01*
X110354615Y-49050416D01*
X110362510Y-49109300D01*
X110344696Y-49278799D01*
X110364657Y-49468728D01*
X110407263Y-49599855D01*
X110409290Y-49670823D01*
X110381070Y-49723097D01*
X110362559Y-49743656D01*
X110362558Y-49743658D01*
X110267076Y-49909038D01*
X110267073Y-49909045D01*
X110208057Y-50090672D01*
X110188096Y-50280600D01*
X110208057Y-50470527D01*
X110236211Y-50557174D01*
X110267073Y-50652156D01*
X110267074Y-50652157D01*
X110267076Y-50652161D01*
X110362558Y-50817541D01*
X110362565Y-50817551D01*
X110490344Y-50959464D01*
X110490347Y-50959466D01*
X110644848Y-51071718D01*
X110819312Y-51149394D01*
X111006113Y-51189100D01*
X111197087Y-51189100D01*
X111383888Y-51149394D01*
X111558352Y-51071718D01*
X111712853Y-50959466D01*
X111746700Y-50921875D01*
X111840634Y-50817551D01*
X111840635Y-50817549D01*
X111840640Y-50817544D01*
X111936127Y-50652156D01*
X111950690Y-50607333D01*
X111981426Y-50557176D01*
X112100210Y-50438392D01*
X112162520Y-50404368D01*
X112233335Y-50409433D01*
X112290171Y-50451980D01*
X112309135Y-50488550D01*
X112336073Y-50571456D01*
X112343414Y-50584171D01*
X112431558Y-50736841D01*
X112431565Y-50736851D01*
X112559344Y-50878764D01*
X112559347Y-50878766D01*
X112713848Y-50991018D01*
X112888312Y-51068694D01*
X113075113Y-51108400D01*
X113266087Y-51108400D01*
X113452888Y-51068694D01*
X113627352Y-50991018D01*
X113781853Y-50878766D01*
X113781855Y-50878764D01*
X113909634Y-50736851D01*
X113909635Y-50736849D01*
X113909640Y-50736844D01*
X114005127Y-50571456D01*
X114064142Y-50389828D01*
X114081507Y-50224603D01*
X114108520Y-50158948D01*
X114117704Y-50148698D01*
X115113071Y-49153333D01*
X115182400Y-49049575D01*
X115230155Y-48934285D01*
X115254500Y-48811894D01*
X115254500Y-48687107D01*
X115254500Y-48656324D01*
X115274502Y-48588203D01*
X115286858Y-48572020D01*
X115360040Y-48490744D01*
X115455527Y-48325356D01*
X115514542Y-48143728D01*
X115524368Y-48050241D01*
X115532441Y-47973430D01*
X115559454Y-47907773D01*
X115617676Y-47867143D01*
X115657751Y-47860600D01*
X121183405Y-47860600D01*
X121251526Y-47880602D01*
X121298019Y-47934258D01*
X121308123Y-48004532D01*
X121278629Y-48069112D01*
X121272500Y-48075695D01*
X115378901Y-53969295D01*
X115316589Y-54003321D01*
X115289806Y-54006200D01*
X114083443Y-54006200D01*
X114015322Y-53986198D01*
X113968829Y-53932542D01*
X113958725Y-53862268D01*
X113988219Y-53797688D01*
X113989807Y-53795889D01*
X114017040Y-53765644D01*
X114112527Y-53600256D01*
X114171542Y-53418628D01*
X114191504Y-53228700D01*
X114171542Y-53038772D01*
X114112527Y-52857144D01*
X114017040Y-52691756D01*
X114017038Y-52691754D01*
X114017034Y-52691748D01*
X113889255Y-52549835D01*
X113734752Y-52437582D01*
X113560288Y-52359906D01*
X113373487Y-52320200D01*
X113182513Y-52320200D01*
X112995712Y-52359906D01*
X112989421Y-52362707D01*
X112938173Y-52373600D01*
X98572103Y-52373600D01*
X98499068Y-52388128D01*
X98449715Y-52397945D01*
X98449713Y-52397945D01*
X98449712Y-52397946D01*
X98382175Y-52425921D01*
X98354024Y-52437582D01*
X98334423Y-52445701D01*
X98230671Y-52515026D01*
X98230669Y-52515027D01*
X97226218Y-53519477D01*
X97163906Y-53553502D01*
X97093090Y-53548437D01*
X97036255Y-53505890D01*
X97028004Y-53493381D01*
X96966041Y-53386058D01*
X96966034Y-53386048D01*
X96838255Y-53244135D01*
X96683752Y-53131882D01*
X96509288Y-53054206D01*
X96322487Y-53014500D01*
X96131513Y-53014500D01*
X95944711Y-53054206D01*
X95770247Y-53131882D01*
X95615744Y-53244135D01*
X95487965Y-53386048D01*
X95487958Y-53386058D01*
X95394209Y-53548437D01*
X95392473Y-53551444D01*
X95380133Y-53589421D01*
X95333457Y-53733072D01*
X95313496Y-53923000D01*
X95333457Y-54112928D01*
X95392470Y-54294550D01*
X95392473Y-54294557D01*
X95405283Y-54316745D01*
X95422019Y-54385741D01*
X95398797Y-54452832D01*
X95385257Y-54468837D01*
X89323595Y-60530500D01*
X89261283Y-60564526D01*
X89190468Y-60559461D01*
X89133632Y-60516914D01*
X89108821Y-60450394D01*
X89108500Y-60441405D01*
X89108500Y-39931370D01*
X89128502Y-39863249D01*
X89182158Y-39816756D01*
X89221034Y-39806092D01*
X89232151Y-39804896D01*
X89259195Y-39801990D01*
X89259198Y-39801989D01*
X89259201Y-39801989D01*
X89396204Y-39750889D01*
X89419018Y-39733811D01*
X89513261Y-39663261D01*
X89600887Y-39546207D01*
X89600887Y-39546206D01*
X89600889Y-39546204D01*
X89651989Y-39409201D01*
X89654492Y-39385926D01*
X89658861Y-39345283D01*
X89659908Y-39345395D01*
X89682056Y-39282567D01*
X89738113Y-39239000D01*
X89754105Y-39236682D01*
X90450000Y-38540788D01*
X90450000Y-38552661D01*
X90477259Y-38654394D01*
X90529920Y-38745606D01*
X90604394Y-38820080D01*
X90695606Y-38872741D01*
X90797339Y-38900000D01*
X90809210Y-38900000D01*
X90122110Y-39587098D01*
X90122110Y-39587100D01*
X90193498Y-39637086D01*
X90400926Y-39733811D01*
X90400931Y-39733813D01*
X90621999Y-39793048D01*
X90621995Y-39793048D01*
X90850000Y-39812995D01*
X91078002Y-39793048D01*
X91299068Y-39733813D01*
X91299073Y-39733811D01*
X91506497Y-39637088D01*
X91577888Y-39587099D01*
X91577888Y-39587097D01*
X90890791Y-38900000D01*
X90902661Y-38900000D01*
X91004394Y-38872741D01*
X91095606Y-38820080D01*
X91170080Y-38745606D01*
X91222741Y-38654394D01*
X91250000Y-38552661D01*
X91250000Y-38540791D01*
X91937097Y-39227888D01*
X91937099Y-39227888D01*
X91987088Y-39156497D01*
X92083811Y-38949073D01*
X92083813Y-38949068D01*
X92143048Y-38728002D01*
X92162995Y-38500000D01*
X92143048Y-38271997D01*
X92083813Y-38050931D01*
X92083811Y-38050926D01*
X91987086Y-37843498D01*
X91937100Y-37772110D01*
X91937098Y-37772110D01*
X91250000Y-38459208D01*
X91250000Y-38447339D01*
X91222741Y-38345606D01*
X91170080Y-38254394D01*
X91095606Y-38179920D01*
X91004394Y-38127259D01*
X90902661Y-38100000D01*
X90890790Y-38100000D01*
X91577888Y-37412899D01*
X91577888Y-37412898D01*
X91506501Y-37362913D01*
X91299073Y-37266188D01*
X91299068Y-37266186D01*
X91078000Y-37206951D01*
X91078004Y-37206951D01*
X90850000Y-37187004D01*
X90621997Y-37206951D01*
X90400931Y-37266186D01*
X90400926Y-37266188D01*
X90193500Y-37362913D01*
X90122109Y-37412900D01*
X90809209Y-38100000D01*
X90797339Y-38100000D01*
X90695606Y-38127259D01*
X90604394Y-38179920D01*
X90529920Y-38254394D01*
X90477259Y-38345606D01*
X90450000Y-38447339D01*
X90450000Y-38459209D01*
X89751219Y-37760428D01*
X89725649Y-37755289D01*
X89674657Y-37705890D01*
X89659666Y-37654630D01*
X89658861Y-37654717D01*
X89651990Y-37590803D01*
X89651988Y-37590795D01*
X89610343Y-37479143D01*
X89600889Y-37453796D01*
X89600888Y-37453794D01*
X89600887Y-37453792D01*
X89513259Y-37336736D01*
X89506890Y-37330367D01*
X89508264Y-37328992D01*
X89472540Y-37281261D01*
X89464600Y-37237240D01*
X89464600Y-36077024D01*
X89484602Y-36008903D01*
X89496958Y-35992720D01*
X89570140Y-35911444D01*
X89665627Y-35746056D01*
X89724642Y-35564428D01*
X89744604Y-35374500D01*
X89724642Y-35184572D01*
X89665627Y-35002944D01*
X89570140Y-34837556D01*
X89570138Y-34837554D01*
X89570134Y-34837548D01*
X89442355Y-34695635D01*
X89287852Y-34583382D01*
X89113388Y-34505706D01*
X88926587Y-34466000D01*
X88735613Y-34466000D01*
X88548811Y-34505706D01*
X88374347Y-34583382D01*
X88219844Y-34695635D01*
X88092065Y-34837548D01*
X88092058Y-34837558D01*
X87996576Y-35002938D01*
X87996573Y-35002945D01*
X87937557Y-35184572D01*
X87917596Y-35374500D01*
X87937557Y-35564427D01*
X87960651Y-35635500D01*
X87996573Y-35746056D01*
X87996576Y-35746061D01*
X88076572Y-35884619D01*
X88092060Y-35911444D01*
X88165237Y-35992715D01*
X88195953Y-36056720D01*
X88197600Y-36077024D01*
X88197600Y-37065500D01*
X88177598Y-37133621D01*
X88123942Y-37180114D01*
X88071600Y-37191500D01*
X87501350Y-37191500D01*
X87440803Y-37198009D01*
X87440795Y-37198011D01*
X87303797Y-37249110D01*
X87303792Y-37249112D01*
X87186738Y-37336738D01*
X87099112Y-37453792D01*
X87099110Y-37453797D01*
X87048011Y-37590795D01*
X87048009Y-37590803D01*
X87041500Y-37651350D01*
X87041500Y-39348649D01*
X87048009Y-39409196D01*
X87048011Y-39409204D01*
X87099110Y-39546202D01*
X87099112Y-39546207D01*
X87186738Y-39663261D01*
X87303792Y-39750887D01*
X87303794Y-39750888D01*
X87303796Y-39750889D01*
X87362875Y-39772924D01*
X87440795Y-39801988D01*
X87440798Y-39801988D01*
X87440799Y-39801989D01*
X87440804Y-39801990D01*
X87469812Y-39805108D01*
X87478965Y-39806092D01*
X87544558Y-39833259D01*
X87585051Y-39891576D01*
X87591500Y-39931370D01*
X87591500Y-62033629D01*
X87571498Y-62101750D01*
X87554595Y-62122724D01*
X86472724Y-63204595D01*
X86410412Y-63238621D01*
X86383629Y-63241500D01*
X75484500Y-63241500D01*
X75416379Y-63221498D01*
X75369886Y-63167842D01*
X75358500Y-63115500D01*
X75358500Y-63101367D01*
X75358499Y-63101350D01*
X75351990Y-63040803D01*
X75351988Y-63040795D01*
X75300889Y-62903797D01*
X75300887Y-62903792D01*
X75213261Y-62786738D01*
X75096207Y-62699112D01*
X75096202Y-62699110D01*
X74959204Y-62648011D01*
X74959196Y-62648009D01*
X74898649Y-62641500D01*
X74898638Y-62641500D01*
X73101362Y-62641500D01*
X73101350Y-62641500D01*
X73040803Y-62648009D01*
X73040795Y-62648011D01*
X72903797Y-62699110D01*
X72903792Y-62699112D01*
X72786738Y-62786738D01*
X72699112Y-62903792D01*
X72699110Y-62903797D01*
X72648011Y-63040795D01*
X72648009Y-63040803D01*
X72641500Y-63101350D01*
X72641500Y-64898649D01*
X72648009Y-64959196D01*
X72648011Y-64959204D01*
X72699110Y-65096202D01*
X72699112Y-65096207D01*
X72786738Y-65213261D01*
X72903792Y-65300887D01*
X72903796Y-65300889D01*
X73019312Y-65343975D01*
X73076148Y-65386522D01*
X73100958Y-65453042D01*
X73085866Y-65522416D01*
X73067981Y-65547367D01*
X72924674Y-65703041D01*
X72801580Y-65891451D01*
X72711179Y-66097543D01*
X72711176Y-66097550D01*
X72663455Y-66285999D01*
X72663456Y-66286000D01*
X73569297Y-66286000D01*
X73534075Y-66347007D01*
X73500000Y-66474174D01*
X73500000Y-66605826D01*
X73534075Y-66732993D01*
X73569297Y-66794000D01*
X72663455Y-66794000D01*
X72711176Y-66982449D01*
X72711179Y-66982456D01*
X72801580Y-67188548D01*
X72924674Y-67376958D01*
X73077097Y-67542534D01*
X73254698Y-67680767D01*
X73254704Y-67680771D01*
X73288207Y-67698902D01*
X73338597Y-67748915D01*
X73353949Y-67818232D01*
X73329388Y-67884845D01*
X73288207Y-67920528D01*
X73254430Y-67938807D01*
X73254424Y-67938811D01*
X73076762Y-68077091D01*
X72924279Y-68242729D01*
X72924275Y-68242734D01*
X72801141Y-68431206D01*
X72710703Y-68637386D01*
X72710702Y-68637387D01*
X72655437Y-68855624D01*
X72655436Y-68855630D01*
X72655436Y-68855632D01*
X72636844Y-69080000D01*
X70025500Y-69080000D01*
X70025500Y-59680196D01*
X70028607Y-57419028D01*
X70041207Y-48249998D01*
X75578125Y-48249998D01*
X75578125Y-48250001D01*
X75597605Y-48572056D01*
X75597606Y-48572059D01*
X75655764Y-48889421D01*
X75751754Y-49197464D01*
X75884166Y-49491671D01*
X75884169Y-49491677D01*
X76051089Y-49767797D01*
X76192498Y-49948290D01*
X76192498Y-49948291D01*
X77025962Y-49114827D01*
X77106932Y-49226272D01*
X77273728Y-49393068D01*
X77385171Y-49474036D01*
X76551707Y-50307500D01*
X76732202Y-50448910D01*
X77008322Y-50615830D01*
X77008328Y-50615833D01*
X77302535Y-50748245D01*
X77610578Y-50844235D01*
X77927940Y-50902393D01*
X77927943Y-50902394D01*
X78249999Y-50921875D01*
X78250001Y-50921875D01*
X78572056Y-50902394D01*
X78572059Y-50902393D01*
X78889421Y-50844235D01*
X79197464Y-50748245D01*
X79491671Y-50615833D01*
X79491674Y-50615831D01*
X79518149Y-50599827D01*
X79586793Y-50581702D01*
X79654340Y-50603567D01*
X79699342Y-50658478D01*
X79707513Y-50729003D01*
X79676259Y-50792750D01*
X79661042Y-50806840D01*
X79551708Y-50892498D01*
X79551707Y-50892498D01*
X80385171Y-51725962D01*
X80273728Y-51806932D01*
X80106932Y-51973728D01*
X80025962Y-52085171D01*
X79192498Y-51251707D01*
X79192498Y-51251708D01*
X79051089Y-51432202D01*
X78884169Y-51708322D01*
X78884166Y-51708328D01*
X78751754Y-52002535D01*
X78655764Y-52310578D01*
X78597606Y-52627940D01*
X78597605Y-52627943D01*
X78578125Y-52949998D01*
X78578125Y-52950001D01*
X78597605Y-53272056D01*
X78597606Y-53272059D01*
X78655764Y-53589421D01*
X78751754Y-53897464D01*
X78884166Y-54191671D01*
X78884169Y-54191677D01*
X79051089Y-54467797D01*
X79192498Y-54648290D01*
X79192498Y-54648291D01*
X80025962Y-53814827D01*
X80106932Y-53926272D01*
X80273728Y-54093068D01*
X80385171Y-54174036D01*
X79551707Y-55007500D01*
X79732202Y-55148910D01*
X80008322Y-55315830D01*
X80008328Y-55315833D01*
X80302535Y-55448245D01*
X80610578Y-55544235D01*
X80927940Y-55602393D01*
X80927943Y-55602394D01*
X81249999Y-55621875D01*
X81250001Y-55621875D01*
X81572056Y-55602394D01*
X81572059Y-55602393D01*
X81889421Y-55544235D01*
X82197464Y-55448245D01*
X82491671Y-55315833D01*
X82491677Y-55315830D01*
X82767797Y-55148910D01*
X82948290Y-55007500D01*
X82948291Y-55007500D01*
X82114828Y-54174037D01*
X82226272Y-54093068D01*
X82393068Y-53926272D01*
X82474037Y-53814828D01*
X83307500Y-54648291D01*
X83307500Y-54648290D01*
X83448910Y-54467797D01*
X83615830Y-54191677D01*
X83615833Y-54191671D01*
X83748245Y-53897464D01*
X83844235Y-53589421D01*
X83902393Y-53272059D01*
X83902394Y-53272056D01*
X83921875Y-52950001D01*
X83921875Y-52949998D01*
X83902394Y-52627943D01*
X83902393Y-52627940D01*
X83844235Y-52310578D01*
X83748245Y-52002535D01*
X83615833Y-51708328D01*
X83615830Y-51708322D01*
X83448910Y-51432202D01*
X83307500Y-51251708D01*
X83307500Y-51251707D01*
X82474036Y-52085170D01*
X82393068Y-51973728D01*
X82226272Y-51806932D01*
X82114827Y-51725962D01*
X82948291Y-50892498D01*
X82842219Y-50809396D01*
X82800931Y-50751639D01*
X82797424Y-50680729D01*
X82832809Y-50619180D01*
X82895854Y-50586532D01*
X82966541Y-50593151D01*
X82985109Y-50602382D01*
X82993174Y-50607257D01*
X83008085Y-50616271D01*
X83008090Y-50616273D01*
X83008095Y-50616276D01*
X83302355Y-50748712D01*
X83302362Y-50748715D01*
X83610459Y-50844722D01*
X83927881Y-50902891D01*
X84142627Y-50915881D01*
X84249999Y-50922376D01*
X84250000Y-50922376D01*
X84250001Y-50922376D01*
X84330529Y-50917504D01*
X84572119Y-50902891D01*
X84889541Y-50844722D01*
X85197638Y-50748715D01*
X85491915Y-50616271D01*
X85768083Y-50449322D01*
X86022113Y-50250302D01*
X86250302Y-50022113D01*
X86449322Y-49768083D01*
X86616271Y-49491915D01*
X86748715Y-49197638D01*
X86844722Y-48889541D01*
X86902891Y-48572119D01*
X86919351Y-48300001D01*
X86922376Y-48250001D01*
X86922376Y-48249998D01*
X86902895Y-47927943D01*
X86902891Y-47927881D01*
X86844722Y-47610459D01*
X86748715Y-47302362D01*
X86726857Y-47253796D01*
X86616276Y-47008095D01*
X86616273Y-47008089D01*
X86610179Y-46998009D01*
X86449322Y-46731917D01*
X86250302Y-46477887D01*
X86250300Y-46477885D01*
X86250295Y-46477879D01*
X86022120Y-46249704D01*
X86022114Y-46249699D01*
X85998513Y-46231209D01*
X85812396Y-46085395D01*
X85768082Y-46050677D01*
X85491910Y-45883726D01*
X85491904Y-45883723D01*
X85197644Y-45751287D01*
X85158592Y-45739118D01*
X84923144Y-45665749D01*
X84889538Y-45655277D01*
X84572119Y-45597109D01*
X84572116Y-45597108D01*
X84250001Y-45577624D01*
X84249999Y-45577624D01*
X83927883Y-45597108D01*
X83927880Y-45597109D01*
X83610461Y-45655277D01*
X83302355Y-45751287D01*
X83008095Y-45883723D01*
X83008089Y-45883726D01*
X82731917Y-46050677D01*
X82477885Y-46249699D01*
X82477879Y-46249704D01*
X82249704Y-46477879D01*
X82249699Y-46477885D01*
X82050677Y-46731917D01*
X81883726Y-47008089D01*
X81883723Y-47008095D01*
X81751287Y-47302355D01*
X81655277Y-47610461D01*
X81597109Y-47927880D01*
X81597108Y-47927883D01*
X81577624Y-48249998D01*
X81577624Y-48250001D01*
X81597108Y-48572116D01*
X81597109Y-48572119D01*
X81653067Y-48877480D01*
X81655278Y-48889541D01*
X81735005Y-49145395D01*
X81751287Y-49197644D01*
X81883723Y-49491904D01*
X81883726Y-49491910D01*
X82050677Y-49768082D01*
X82249699Y-50022114D01*
X82249704Y-50022120D01*
X82477879Y-50250295D01*
X82477885Y-50250300D01*
X82477887Y-50250302D01*
X82550895Y-50307500D01*
X82657490Y-50391012D01*
X82698777Y-50448769D01*
X82702285Y-50519678D01*
X82666900Y-50581228D01*
X82603855Y-50613876D01*
X82533168Y-50607257D01*
X82514599Y-50598026D01*
X82491678Y-50584170D01*
X82491671Y-50584166D01*
X82197464Y-50451754D01*
X81889421Y-50355764D01*
X81572059Y-50297606D01*
X81572056Y-50297605D01*
X81250001Y-50278125D01*
X81249999Y-50278125D01*
X80927943Y-50297605D01*
X80927940Y-50297606D01*
X80610578Y-50355764D01*
X80302535Y-50451754D01*
X80008328Y-50584166D01*
X80008318Y-50584171D01*
X79981843Y-50600176D01*
X79913198Y-50618298D01*
X79845653Y-50596432D01*
X79800652Y-50541519D01*
X79792483Y-50470993D01*
X79823740Y-50407248D01*
X79838954Y-50393161D01*
X79948290Y-50307500D01*
X79948291Y-50307500D01*
X79114828Y-49474037D01*
X79226272Y-49393068D01*
X79393068Y-49226272D01*
X79474037Y-49114828D01*
X80307500Y-49948291D01*
X80307500Y-49948290D01*
X80448910Y-49767797D01*
X80615830Y-49491677D01*
X80615833Y-49491671D01*
X80748245Y-49197464D01*
X80844235Y-48889421D01*
X80902393Y-48572059D01*
X80902394Y-48572056D01*
X80921875Y-48250001D01*
X80921875Y-48249998D01*
X80902394Y-47927943D01*
X80902393Y-47927940D01*
X80844235Y-47610578D01*
X80748245Y-47302535D01*
X80615833Y-47008328D01*
X80615830Y-47008322D01*
X80448910Y-46732202D01*
X80307500Y-46551708D01*
X80307500Y-46551707D01*
X79474036Y-47385170D01*
X79393068Y-47273728D01*
X79226272Y-47106932D01*
X79114827Y-47025962D01*
X79948291Y-46192498D01*
X79767797Y-46051089D01*
X79491677Y-45884169D01*
X79491671Y-45884166D01*
X79197464Y-45751754D01*
X78889421Y-45655764D01*
X78572059Y-45597606D01*
X78572056Y-45597605D01*
X78250001Y-45578125D01*
X78249999Y-45578125D01*
X77927943Y-45597605D01*
X77927940Y-45597606D01*
X77610578Y-45655764D01*
X77302535Y-45751754D01*
X77008328Y-45884166D01*
X77008322Y-45884169D01*
X76732202Y-46051089D01*
X76551708Y-46192498D01*
X76551707Y-46192498D01*
X77385171Y-47025962D01*
X77273728Y-47106932D01*
X77106932Y-47273728D01*
X77025962Y-47385171D01*
X76192498Y-46551707D01*
X76192498Y-46551708D01*
X76051089Y-46732202D01*
X75884169Y-47008322D01*
X75884166Y-47008328D01*
X75751754Y-47302535D01*
X75655764Y-47610578D01*
X75597606Y-47927940D01*
X75597605Y-47927943D01*
X75578125Y-48249998D01*
X70041207Y-48249998D01*
X70066287Y-30000000D01*
X72136656Y-30000000D01*
X72156016Y-30332403D01*
X72156016Y-30332409D01*
X72209242Y-30634268D01*
X72213838Y-30660333D01*
X72309337Y-30979321D01*
X72309339Y-30979327D01*
X72309340Y-30979328D01*
X72441220Y-31285063D01*
X72441222Y-31285066D01*
X72607711Y-31573433D01*
X72607714Y-31573437D01*
X72806552Y-31840523D01*
X73035057Y-32082724D01*
X73290134Y-32296758D01*
X73568320Y-32479724D01*
X73568328Y-32479729D01*
X73865887Y-32629169D01*
X74022335Y-32686111D01*
X74178775Y-32743051D01*
X74178776Y-32743051D01*
X74178784Y-32743054D01*
X74502786Y-32819843D01*
X74691771Y-32841932D01*
X74833508Y-32858500D01*
X74833511Y-32858500D01*
X75166492Y-32858500D01*
X75290510Y-32844003D01*
X75497214Y-32819843D01*
X75821216Y-32743054D01*
X76134113Y-32629169D01*
X76431672Y-32479729D01*
X76709870Y-32296755D01*
X76964946Y-32082721D01*
X77193449Y-31840522D01*
X77392289Y-31573433D01*
X77558778Y-31285066D01*
X77690663Y-30979321D01*
X77786162Y-30660333D01*
X77843983Y-30332414D01*
X77863344Y-30000000D01*
X77843983Y-29667586D01*
X77786162Y-29339667D01*
X77690663Y-29020679D01*
X77558778Y-28714934D01*
X77392289Y-28426567D01*
X77193449Y-28159478D01*
X76964946Y-27917279D01*
X76964944Y-27917278D01*
X76964942Y-27917275D01*
X76709865Y-27703241D01*
X76431679Y-27520275D01*
X76431675Y-27520273D01*
X76431672Y-27520271D01*
X76134113Y-27370831D01*
X76134108Y-27370829D01*
X76134103Y-27370827D01*
X75821224Y-27256948D01*
X75821217Y-27256946D01*
X75821216Y-27256946D01*
X75639258Y-27213821D01*
X75497219Y-27180158D01*
X75497209Y-27180156D01*
X75166492Y-27141500D01*
X75166489Y-27141500D01*
X74833511Y-27141500D01*
X74833508Y-27141500D01*
X74502790Y-27180156D01*
X74502780Y-27180158D01*
X74178784Y-27256946D01*
X74178775Y-27256948D01*
X73865896Y-27370827D01*
X73865891Y-27370829D01*
X73568320Y-27520275D01*
X73290134Y-27703241D01*
X73035057Y-27917275D01*
X72806552Y-28159476D01*
X72607714Y-28426562D01*
X72607704Y-28426578D01*
X72441223Y-28714931D01*
X72441220Y-28714936D01*
X72309340Y-29020671D01*
X72309338Y-29020677D01*
X72213838Y-29339666D01*
X72156016Y-29667590D01*
X72156016Y-29667596D01*
X72136656Y-30000000D01*
X70066287Y-30000000D01*
X70072950Y-25151326D01*
X70093046Y-25083234D01*
X70146765Y-25036815D01*
X70198950Y-25025500D01*
X161848500Y-25025500D01*
X161916621Y-25045502D01*
G37*
G04 #@! TD.AperFunction*
M02*
