G04 #@! TF.GenerationSoftware,KiCad,Pcbnew,8.0.6*
G04 #@! TF.CreationDate,2025-01-19T13:54:33-05:00*
G04 #@! TF.ProjectId,RA2E1-CAN-Rev2,52413245-312d-4434-914e-2d526576322e,rev?*
G04 #@! TF.SameCoordinates,Original*
G04 #@! TF.FileFunction,Soldermask,Top*
G04 #@! TF.FilePolarity,Negative*
%FSLAX46Y46*%
G04 Gerber Fmt 4.6, Leading zero omitted, Abs format (unit mm)*
G04 Created by KiCad (PCBNEW 8.0.6) date 2025-01-19 13:54:33*
%MOMM*%
%LPD*%
G01*
G04 APERTURE LIST*
G04 Aperture macros list*
%AMRoundRect*
0 Rectangle with rounded corners*
0 $1 Rounding radius*
0 $2 $3 $4 $5 $6 $7 $8 $9 X,Y pos of 4 corners*
0 Add a 4 corners polygon primitive as box body*
4,1,4,$2,$3,$4,$5,$6,$7,$8,$9,$2,$3,0*
0 Add four circle primitives for the rounded corners*
1,1,$1+$1,$2,$3*
1,1,$1+$1,$4,$5*
1,1,$1+$1,$6,$7*
1,1,$1+$1,$8,$9*
0 Add four rect primitives between the rounded corners*
20,1,$1+$1,$2,$3,$4,$5,0*
20,1,$1+$1,$4,$5,$6,$7,0*
20,1,$1+$1,$6,$7,$8,$9,0*
20,1,$1+$1,$8,$9,$2,$3,0*%
G04 Aperture macros list end*
%ADD10C,4.700000*%
%ADD11R,1.700000X1.700000*%
%ADD12O,1.700000X1.700000*%
%ADD13C,1.500000*%
%ADD14R,0.500000X1.200000*%
%ADD15R,1.200000X0.500000*%
%ADD16R,1.600000X1.600000*%
%ADD17C,1.600000*%
%ADD18RoundRect,0.250000X-0.450000X0.350000X-0.450000X-0.350000X0.450000X-0.350000X0.450000X0.350000X0*%
%ADD19RoundRect,0.250000X-0.337500X-0.475000X0.337500X-0.475000X0.337500X0.475000X-0.337500X0.475000X0*%
%ADD20R,1.397000X0.558800*%
%ADD21R,0.950000X1.750000*%
%ADD22R,3.200000X1.750000*%
%ADD23RoundRect,0.250000X0.475000X-0.337500X0.475000X0.337500X-0.475000X0.337500X-0.475000X-0.337500X0*%
%ADD24O,1.600000X1.600000*%
%ADD25R,0.740000X2.400000*%
%ADD26RoundRect,0.250000X-0.475000X0.337500X-0.475000X-0.337500X0.475000X-0.337500X0.475000X0.337500X0*%
%ADD27R,1.600000X2.400000*%
%ADD28O,1.600000X2.400000*%
%ADD29C,4.419600*%
%ADD30RoundRect,0.249999X-0.450001X-1.425001X0.450001X-1.425001X0.450001X1.425001X-0.450001X1.425001X0*%
G04 APERTURE END LIST*
D10*
X75000000Y-30000000D03*
X155000000Y-30000000D03*
X75000000Y-90000000D03*
X155000000Y-90000000D03*
D11*
X74000000Y-64000000D03*
D12*
X74000000Y-66540000D03*
X74000000Y-69080000D03*
X74000000Y-71620000D03*
X74000000Y-74160000D03*
X74000000Y-76700000D03*
X74000000Y-79240000D03*
X74000000Y-81780000D03*
D13*
X119634000Y-39818000D03*
X119634000Y-44698000D03*
D14*
X107900000Y-60500000D03*
X108700000Y-60500000D03*
X109500000Y-60500000D03*
X110300000Y-60500000D03*
X111100000Y-60500000D03*
X111900000Y-60500000D03*
X112700000Y-60500000D03*
X113500000Y-60500000D03*
D15*
X114950000Y-59050000D03*
X114950000Y-58250000D03*
X114950000Y-57450000D03*
X114950000Y-56650000D03*
X114950000Y-55850000D03*
X114950000Y-55050000D03*
X114950000Y-54250000D03*
X114950000Y-53450000D03*
D14*
X113500000Y-52000000D03*
X112700000Y-52000000D03*
X111900000Y-52000000D03*
X111100000Y-52000000D03*
X110300000Y-52000000D03*
X109500000Y-52000000D03*
X108700000Y-52000000D03*
X107900000Y-52000000D03*
D15*
X106450000Y-53450000D03*
X106450000Y-54250000D03*
X106450000Y-55050000D03*
X106450000Y-55850000D03*
X106450000Y-56650000D03*
X106450000Y-57450000D03*
X106450000Y-58250000D03*
X106450000Y-59050000D03*
D16*
X90750000Y-48300000D03*
D17*
X93250000Y-48300000D03*
D18*
X120450000Y-55850000D03*
X120450000Y-57850000D03*
D19*
X112412500Y-63450000D03*
X114487500Y-63450000D03*
D20*
X124599700Y-37188000D03*
X124599700Y-38458000D03*
X124599700Y-39728000D03*
X124599700Y-40998000D03*
X124599700Y-42268000D03*
X124599700Y-43538000D03*
X124599700Y-44808000D03*
X129908300Y-44808000D03*
X129908300Y-43538000D03*
X129908300Y-42268000D03*
X129908300Y-40998000D03*
X129908300Y-39728000D03*
X129908300Y-38458000D03*
X129908300Y-37188000D03*
D19*
X123930500Y-47602000D03*
X126005500Y-47602000D03*
D21*
X79232400Y-41050000D03*
X81532400Y-41050000D03*
X83832400Y-41050000D03*
D22*
X81532400Y-34750000D03*
D11*
X118638000Y-29797000D03*
D12*
X121178000Y-29797000D03*
D23*
X148082000Y-45591500D03*
X148082000Y-43516500D03*
D16*
X136916000Y-36944000D03*
D24*
X136916000Y-39484000D03*
X136916000Y-42024000D03*
X136916000Y-44564000D03*
X144536000Y-44564000D03*
X144536000Y-42024000D03*
X144536000Y-39484000D03*
X144536000Y-36944000D03*
D11*
X158500000Y-41800000D03*
D12*
X158500000Y-44340000D03*
X158500000Y-46880000D03*
D19*
X88994900Y-33600000D03*
X91069900Y-33600000D03*
D25*
X109780000Y-29450000D03*
X109780000Y-33350000D03*
X108510000Y-29450000D03*
X108510000Y-33350000D03*
X107240000Y-29450000D03*
X107240000Y-33350000D03*
X105970000Y-29450000D03*
X105970000Y-33350000D03*
X104700000Y-29450000D03*
X104700000Y-33350000D03*
X103430000Y-29450000D03*
X103430000Y-33350000D03*
X102160000Y-29450000D03*
X102160000Y-33350000D03*
X100890000Y-29450000D03*
X100890000Y-33350000D03*
X99620000Y-29450000D03*
X99620000Y-33350000D03*
X98350000Y-29450000D03*
X98350000Y-33350000D03*
D26*
X133096000Y-42500500D03*
X133096000Y-44575500D03*
D16*
X88350000Y-38500000D03*
D17*
X90850000Y-38500000D03*
D27*
X155050000Y-56200000D03*
D28*
X152510000Y-56200000D03*
X149970000Y-56200000D03*
X147430000Y-56200000D03*
X144890000Y-56200000D03*
X142350000Y-56200000D03*
X142350000Y-76520000D03*
X144890000Y-76520000D03*
X147430000Y-76520000D03*
X149970000Y-76520000D03*
X152510000Y-76520000D03*
X155050000Y-76520000D03*
D19*
X117834500Y-34648000D03*
X119909500Y-34648000D03*
D26*
X133096000Y-37166500D03*
X133096000Y-39241500D03*
D19*
X91862500Y-53400000D03*
X93937500Y-53400000D03*
D11*
X127000000Y-69080000D03*
D12*
X127000000Y-71620000D03*
X127000000Y-74160000D03*
X127000000Y-76700000D03*
D19*
X108012500Y-63450000D03*
X110087500Y-63450000D03*
D11*
X152950000Y-46275000D03*
D12*
X152950000Y-48815000D03*
D29*
X78250000Y-48250000D03*
X81250000Y-52950000D03*
X84250000Y-48250000D03*
D30*
X130527000Y-29923000D03*
X136627000Y-29923000D03*
M02*
