G04 #@! TF.GenerationSoftware,KiCad,Pcbnew,8.0.6*
G04 #@! TF.CreationDate,2025-01-06T22:58:23-05:00*
G04 #@! TF.ProjectId,MikroBusCAN,4d696b72-6f42-4757-9343-414e2e6b6963,rev?*
G04 #@! TF.SameCoordinates,Original*
G04 #@! TF.FileFunction,Legend,Bot*
G04 #@! TF.FilePolarity,Positive*
%FSLAX46Y46*%
G04 Gerber Fmt 4.6, Leading zero omitted, Abs format (unit mm)*
G04 Created by KiCad (PCBNEW 8.0.6) date 2025-01-06 22:58:23*
%MOMM*%
%LPD*%
G01*
G04 APERTURE LIST*
%ADD10C,0.050000*%
%ADD11C,0.127000*%
G04 APERTURE END LIST*
D10*
X66272913Y-97725000D02*
X66130056Y-97772619D01*
X66130056Y-97772619D02*
X65891961Y-97772619D01*
X65891961Y-97772619D02*
X65796723Y-97725000D01*
X65796723Y-97725000D02*
X65749104Y-97677380D01*
X65749104Y-97677380D02*
X65701485Y-97582142D01*
X65701485Y-97582142D02*
X65701485Y-97486904D01*
X65701485Y-97486904D02*
X65749104Y-97391666D01*
X65749104Y-97391666D02*
X65796723Y-97344047D01*
X65796723Y-97344047D02*
X65891961Y-97296428D01*
X65891961Y-97296428D02*
X66082437Y-97248809D01*
X66082437Y-97248809D02*
X66177675Y-97201190D01*
X66177675Y-97201190D02*
X66225294Y-97153571D01*
X66225294Y-97153571D02*
X66272913Y-97058333D01*
X66272913Y-97058333D02*
X66272913Y-96963095D01*
X66272913Y-96963095D02*
X66225294Y-96867857D01*
X66225294Y-96867857D02*
X66177675Y-96820238D01*
X66177675Y-96820238D02*
X66082437Y-96772619D01*
X66082437Y-96772619D02*
X65844342Y-96772619D01*
X65844342Y-96772619D02*
X65701485Y-96820238D01*
X64701485Y-97677380D02*
X64749104Y-97725000D01*
X64749104Y-97725000D02*
X64891961Y-97772619D01*
X64891961Y-97772619D02*
X64987199Y-97772619D01*
X64987199Y-97772619D02*
X65130056Y-97725000D01*
X65130056Y-97725000D02*
X65225294Y-97629761D01*
X65225294Y-97629761D02*
X65272913Y-97534523D01*
X65272913Y-97534523D02*
X65320532Y-97344047D01*
X65320532Y-97344047D02*
X65320532Y-97201190D01*
X65320532Y-97201190D02*
X65272913Y-97010714D01*
X65272913Y-97010714D02*
X65225294Y-96915476D01*
X65225294Y-96915476D02*
X65130056Y-96820238D01*
X65130056Y-96820238D02*
X64987199Y-96772619D01*
X64987199Y-96772619D02*
X64891961Y-96772619D01*
X64891961Y-96772619D02*
X64749104Y-96820238D01*
X64749104Y-96820238D02*
X64701485Y-96867857D01*
X64272913Y-97772619D02*
X64272913Y-96772619D01*
X63701485Y-97772619D02*
X64130056Y-97201190D01*
X63701485Y-96772619D02*
X64272913Y-97344047D01*
X83087618Y-96772619D02*
X82516190Y-96772619D01*
X82801904Y-97772619D02*
X82801904Y-96772619D01*
X82278094Y-96772619D02*
X81611428Y-97772619D01*
X81611428Y-96772619D02*
X82278094Y-97772619D01*
X82420951Y-106980238D02*
X82516189Y-106932619D01*
X82516189Y-106932619D02*
X82659046Y-106932619D01*
X82659046Y-106932619D02*
X82801903Y-106980238D01*
X82801903Y-106980238D02*
X82897141Y-107075476D01*
X82897141Y-107075476D02*
X82944760Y-107170714D01*
X82944760Y-107170714D02*
X82992379Y-107361190D01*
X82992379Y-107361190D02*
X82992379Y-107504047D01*
X82992379Y-107504047D02*
X82944760Y-107694523D01*
X82944760Y-107694523D02*
X82897141Y-107789761D01*
X82897141Y-107789761D02*
X82801903Y-107885000D01*
X82801903Y-107885000D02*
X82659046Y-107932619D01*
X82659046Y-107932619D02*
X82563808Y-107932619D01*
X82563808Y-107932619D02*
X82420951Y-107885000D01*
X82420951Y-107885000D02*
X82373332Y-107837380D01*
X82373332Y-107837380D02*
X82373332Y-107504047D01*
X82373332Y-107504047D02*
X82563808Y-107504047D01*
X81944760Y-107932619D02*
X81944760Y-106932619D01*
X81944760Y-106932619D02*
X81373332Y-107932619D01*
X81373332Y-107932619D02*
X81373332Y-106932619D01*
X80897141Y-107932619D02*
X80897141Y-106932619D01*
X80897141Y-106932619D02*
X80659046Y-106932619D01*
X80659046Y-106932619D02*
X80516189Y-106980238D01*
X80516189Y-106980238D02*
X80420951Y-107075476D01*
X80420951Y-107075476D02*
X80373332Y-107170714D01*
X80373332Y-107170714D02*
X80325713Y-107361190D01*
X80325713Y-107361190D02*
X80325713Y-107504047D01*
X80325713Y-107504047D02*
X80373332Y-107694523D01*
X80373332Y-107694523D02*
X80420951Y-107789761D01*
X80420951Y-107789761D02*
X80516189Y-107885000D01*
X80516189Y-107885000D02*
X80659046Y-107932619D01*
X80659046Y-107932619D02*
X80897141Y-107932619D01*
X82373332Y-95232619D02*
X82706665Y-94756428D01*
X82944760Y-95232619D02*
X82944760Y-94232619D01*
X82944760Y-94232619D02*
X82563808Y-94232619D01*
X82563808Y-94232619D02*
X82468570Y-94280238D01*
X82468570Y-94280238D02*
X82420951Y-94327857D01*
X82420951Y-94327857D02*
X82373332Y-94423095D01*
X82373332Y-94423095D02*
X82373332Y-94565952D01*
X82373332Y-94565952D02*
X82420951Y-94661190D01*
X82420951Y-94661190D02*
X82468570Y-94708809D01*
X82468570Y-94708809D02*
X82563808Y-94756428D01*
X82563808Y-94756428D02*
X82944760Y-94756428D01*
X82039998Y-94232619D02*
X81373332Y-95232619D01*
X81373332Y-94232619D02*
X82039998Y-95232619D01*
X65415772Y-92692619D02*
X65749105Y-92216428D01*
X65987200Y-92692619D02*
X65987200Y-91692619D01*
X65987200Y-91692619D02*
X65606248Y-91692619D01*
X65606248Y-91692619D02*
X65511010Y-91740238D01*
X65511010Y-91740238D02*
X65463391Y-91787857D01*
X65463391Y-91787857D02*
X65415772Y-91883095D01*
X65415772Y-91883095D02*
X65415772Y-92025952D01*
X65415772Y-92025952D02*
X65463391Y-92121190D01*
X65463391Y-92121190D02*
X65511010Y-92168809D01*
X65511010Y-92168809D02*
X65606248Y-92216428D01*
X65606248Y-92216428D02*
X65987200Y-92216428D01*
X65034819Y-92645000D02*
X64891962Y-92692619D01*
X64891962Y-92692619D02*
X64653867Y-92692619D01*
X64653867Y-92692619D02*
X64558629Y-92645000D01*
X64558629Y-92645000D02*
X64511010Y-92597380D01*
X64511010Y-92597380D02*
X64463391Y-92502142D01*
X64463391Y-92502142D02*
X64463391Y-92406904D01*
X64463391Y-92406904D02*
X64511010Y-92311666D01*
X64511010Y-92311666D02*
X64558629Y-92264047D01*
X64558629Y-92264047D02*
X64653867Y-92216428D01*
X64653867Y-92216428D02*
X64844343Y-92168809D01*
X64844343Y-92168809D02*
X64939581Y-92121190D01*
X64939581Y-92121190D02*
X64987200Y-92073571D01*
X64987200Y-92073571D02*
X65034819Y-91978333D01*
X65034819Y-91978333D02*
X65034819Y-91883095D01*
X65034819Y-91883095D02*
X64987200Y-91787857D01*
X64987200Y-91787857D02*
X64939581Y-91740238D01*
X64939581Y-91740238D02*
X64844343Y-91692619D01*
X64844343Y-91692619D02*
X64606248Y-91692619D01*
X64606248Y-91692619D02*
X64463391Y-91740238D01*
X64177676Y-91692619D02*
X63606248Y-91692619D01*
X63891962Y-92692619D02*
X63891962Y-91692619D01*
X65225295Y-89866904D02*
X64749105Y-89866904D01*
X65320533Y-90152619D02*
X64987200Y-89152619D01*
X64987200Y-89152619D02*
X64653867Y-90152619D01*
X64320533Y-90152619D02*
X64320533Y-89152619D01*
X64320533Y-89152619D02*
X63749105Y-90152619D01*
X63749105Y-90152619D02*
X63749105Y-89152619D01*
X67272914Y-104986266D02*
X66511010Y-104986266D01*
X66891962Y-105367219D02*
X66891962Y-104605314D01*
X66130057Y-104367219D02*
X65511010Y-104367219D01*
X65511010Y-104367219D02*
X65844343Y-104748171D01*
X65844343Y-104748171D02*
X65701486Y-104748171D01*
X65701486Y-104748171D02*
X65606248Y-104795790D01*
X65606248Y-104795790D02*
X65558629Y-104843409D01*
X65558629Y-104843409D02*
X65511010Y-104938647D01*
X65511010Y-104938647D02*
X65511010Y-105176742D01*
X65511010Y-105176742D02*
X65558629Y-105271980D01*
X65558629Y-105271980D02*
X65606248Y-105319600D01*
X65606248Y-105319600D02*
X65701486Y-105367219D01*
X65701486Y-105367219D02*
X65987200Y-105367219D01*
X65987200Y-105367219D02*
X66082438Y-105319600D01*
X66082438Y-105319600D02*
X66130057Y-105271980D01*
X65225295Y-104367219D02*
X64891962Y-105367219D01*
X64891962Y-105367219D02*
X64558629Y-104367219D01*
X64320533Y-104367219D02*
X63701486Y-104367219D01*
X63701486Y-104367219D02*
X64034819Y-104748171D01*
X64034819Y-104748171D02*
X63891962Y-104748171D01*
X63891962Y-104748171D02*
X63796724Y-104795790D01*
X63796724Y-104795790D02*
X63749105Y-104843409D01*
X63749105Y-104843409D02*
X63701486Y-104938647D01*
X63701486Y-104938647D02*
X63701486Y-105176742D01*
X63701486Y-105176742D02*
X63749105Y-105271980D01*
X63749105Y-105271980D02*
X63796724Y-105319600D01*
X63796724Y-105319600D02*
X63891962Y-105367219D01*
X63891962Y-105367219D02*
X64177676Y-105367219D01*
X64177676Y-105367219D02*
X64272914Y-105319600D01*
X64272914Y-105319600D02*
X64320533Y-105271980D01*
X65796723Y-106980238D02*
X65891961Y-106932619D01*
X65891961Y-106932619D02*
X66034818Y-106932619D01*
X66034818Y-106932619D02*
X66177675Y-106980238D01*
X66177675Y-106980238D02*
X66272913Y-107075476D01*
X66272913Y-107075476D02*
X66320532Y-107170714D01*
X66320532Y-107170714D02*
X66368151Y-107361190D01*
X66368151Y-107361190D02*
X66368151Y-107504047D01*
X66368151Y-107504047D02*
X66320532Y-107694523D01*
X66320532Y-107694523D02*
X66272913Y-107789761D01*
X66272913Y-107789761D02*
X66177675Y-107885000D01*
X66177675Y-107885000D02*
X66034818Y-107932619D01*
X66034818Y-107932619D02*
X65939580Y-107932619D01*
X65939580Y-107932619D02*
X65796723Y-107885000D01*
X65796723Y-107885000D02*
X65749104Y-107837380D01*
X65749104Y-107837380D02*
X65749104Y-107504047D01*
X65749104Y-107504047D02*
X65939580Y-107504047D01*
X65320532Y-107932619D02*
X65320532Y-106932619D01*
X65320532Y-106932619D02*
X64749104Y-107932619D01*
X64749104Y-107932619D02*
X64749104Y-106932619D01*
X64272913Y-107932619D02*
X64272913Y-106932619D01*
X64272913Y-106932619D02*
X64034818Y-106932619D01*
X64034818Y-106932619D02*
X63891961Y-106980238D01*
X63891961Y-106980238D02*
X63796723Y-107075476D01*
X63796723Y-107075476D02*
X63749104Y-107170714D01*
X63749104Y-107170714D02*
X63701485Y-107361190D01*
X63701485Y-107361190D02*
X63701485Y-107504047D01*
X63701485Y-107504047D02*
X63749104Y-107694523D01*
X63749104Y-107694523D02*
X63796723Y-107789761D01*
X63796723Y-107789761D02*
X63891961Y-107885000D01*
X63891961Y-107885000D02*
X64034818Y-107932619D01*
X64034818Y-107932619D02*
X64272913Y-107932619D01*
X65889008Y-102805000D02*
X65746151Y-102852619D01*
X65746151Y-102852619D02*
X65508056Y-102852619D01*
X65508056Y-102852619D02*
X65412818Y-102805000D01*
X65412818Y-102805000D02*
X65365199Y-102757380D01*
X65365199Y-102757380D02*
X65317580Y-102662142D01*
X65317580Y-102662142D02*
X65317580Y-102566904D01*
X65317580Y-102566904D02*
X65365199Y-102471666D01*
X65365199Y-102471666D02*
X65412818Y-102424047D01*
X65412818Y-102424047D02*
X65508056Y-102376428D01*
X65508056Y-102376428D02*
X65698532Y-102328809D01*
X65698532Y-102328809D02*
X65793770Y-102281190D01*
X65793770Y-102281190D02*
X65841389Y-102233571D01*
X65841389Y-102233571D02*
X65889008Y-102138333D01*
X65889008Y-102138333D02*
X65889008Y-102043095D01*
X65889008Y-102043095D02*
X65841389Y-101947857D01*
X65841389Y-101947857D02*
X65793770Y-101900238D01*
X65793770Y-101900238D02*
X65698532Y-101852619D01*
X65698532Y-101852619D02*
X65460437Y-101852619D01*
X65460437Y-101852619D02*
X65317580Y-101900238D01*
X64889008Y-102852619D02*
X64889008Y-101852619D01*
X64889008Y-101852619D02*
X64650913Y-101852619D01*
X64650913Y-101852619D02*
X64508056Y-101900238D01*
X64508056Y-101900238D02*
X64412818Y-101995476D01*
X64412818Y-101995476D02*
X64365199Y-102090714D01*
X64365199Y-102090714D02*
X64317580Y-102281190D01*
X64317580Y-102281190D02*
X64317580Y-102424047D01*
X64317580Y-102424047D02*
X64365199Y-102614523D01*
X64365199Y-102614523D02*
X64412818Y-102709761D01*
X64412818Y-102709761D02*
X64508056Y-102805000D01*
X64508056Y-102805000D02*
X64650913Y-102852619D01*
X64650913Y-102852619D02*
X64889008Y-102852619D01*
X63889008Y-102852619D02*
X63889008Y-101852619D01*
X82992380Y-102805000D02*
X82849523Y-102852619D01*
X82849523Y-102852619D02*
X82611428Y-102852619D01*
X82611428Y-102852619D02*
X82516190Y-102805000D01*
X82516190Y-102805000D02*
X82468571Y-102757380D01*
X82468571Y-102757380D02*
X82420952Y-102662142D01*
X82420952Y-102662142D02*
X82420952Y-102566904D01*
X82420952Y-102566904D02*
X82468571Y-102471666D01*
X82468571Y-102471666D02*
X82516190Y-102424047D01*
X82516190Y-102424047D02*
X82611428Y-102376428D01*
X82611428Y-102376428D02*
X82801904Y-102328809D01*
X82801904Y-102328809D02*
X82897142Y-102281190D01*
X82897142Y-102281190D02*
X82944761Y-102233571D01*
X82944761Y-102233571D02*
X82992380Y-102138333D01*
X82992380Y-102138333D02*
X82992380Y-102043095D01*
X82992380Y-102043095D02*
X82944761Y-101947857D01*
X82944761Y-101947857D02*
X82897142Y-101900238D01*
X82897142Y-101900238D02*
X82801904Y-101852619D01*
X82801904Y-101852619D02*
X82563809Y-101852619D01*
X82563809Y-101852619D02*
X82420952Y-101900238D01*
X81992380Y-102852619D02*
X81992380Y-101852619D01*
X81992380Y-101852619D02*
X81754285Y-101852619D01*
X81754285Y-101852619D02*
X81611428Y-101900238D01*
X81611428Y-101900238D02*
X81516190Y-101995476D01*
X81516190Y-101995476D02*
X81468571Y-102090714D01*
X81468571Y-102090714D02*
X81420952Y-102281190D01*
X81420952Y-102281190D02*
X81420952Y-102424047D01*
X81420952Y-102424047D02*
X81468571Y-102614523D01*
X81468571Y-102614523D02*
X81516190Y-102709761D01*
X81516190Y-102709761D02*
X81611428Y-102805000D01*
X81611428Y-102805000D02*
X81754285Y-102852619D01*
X81754285Y-102852619D02*
X81992380Y-102852619D01*
X81039999Y-102566904D02*
X80563809Y-102566904D01*
X81135237Y-102852619D02*
X80801904Y-101852619D01*
X80801904Y-101852619D02*
X80468571Y-102852619D01*
X82992379Y-100265000D02*
X82849522Y-100312619D01*
X82849522Y-100312619D02*
X82611427Y-100312619D01*
X82611427Y-100312619D02*
X82516189Y-100265000D01*
X82516189Y-100265000D02*
X82468570Y-100217380D01*
X82468570Y-100217380D02*
X82420951Y-100122142D01*
X82420951Y-100122142D02*
X82420951Y-100026904D01*
X82420951Y-100026904D02*
X82468570Y-99931666D01*
X82468570Y-99931666D02*
X82516189Y-99884047D01*
X82516189Y-99884047D02*
X82611427Y-99836428D01*
X82611427Y-99836428D02*
X82801903Y-99788809D01*
X82801903Y-99788809D02*
X82897141Y-99741190D01*
X82897141Y-99741190D02*
X82944760Y-99693571D01*
X82944760Y-99693571D02*
X82992379Y-99598333D01*
X82992379Y-99598333D02*
X82992379Y-99503095D01*
X82992379Y-99503095D02*
X82944760Y-99407857D01*
X82944760Y-99407857D02*
X82897141Y-99360238D01*
X82897141Y-99360238D02*
X82801903Y-99312619D01*
X82801903Y-99312619D02*
X82563808Y-99312619D01*
X82563808Y-99312619D02*
X82420951Y-99360238D01*
X81420951Y-100217380D02*
X81468570Y-100265000D01*
X81468570Y-100265000D02*
X81611427Y-100312619D01*
X81611427Y-100312619D02*
X81706665Y-100312619D01*
X81706665Y-100312619D02*
X81849522Y-100265000D01*
X81849522Y-100265000D02*
X81944760Y-100169761D01*
X81944760Y-100169761D02*
X81992379Y-100074523D01*
X81992379Y-100074523D02*
X82039998Y-99884047D01*
X82039998Y-99884047D02*
X82039998Y-99741190D01*
X82039998Y-99741190D02*
X81992379Y-99550714D01*
X81992379Y-99550714D02*
X81944760Y-99455476D01*
X81944760Y-99455476D02*
X81849522Y-99360238D01*
X81849522Y-99360238D02*
X81706665Y-99312619D01*
X81706665Y-99312619D02*
X81611427Y-99312619D01*
X81611427Y-99312619D02*
X81468570Y-99360238D01*
X81468570Y-99360238D02*
X81420951Y-99407857D01*
X80516189Y-100312619D02*
X80992379Y-100312619D01*
X80992379Y-100312619D02*
X80992379Y-99312619D01*
X82944761Y-90279619D02*
X82944761Y-89279619D01*
X82944761Y-89279619D02*
X82563809Y-89279619D01*
X82563809Y-89279619D02*
X82468571Y-89327238D01*
X82468571Y-89327238D02*
X82420952Y-89374857D01*
X82420952Y-89374857D02*
X82373333Y-89470095D01*
X82373333Y-89470095D02*
X82373333Y-89612952D01*
X82373333Y-89612952D02*
X82420952Y-89708190D01*
X82420952Y-89708190D02*
X82468571Y-89755809D01*
X82468571Y-89755809D02*
X82563809Y-89803428D01*
X82563809Y-89803428D02*
X82944761Y-89803428D01*
X82039999Y-89279619D02*
X81801904Y-90279619D01*
X81801904Y-90279619D02*
X81611428Y-89565333D01*
X81611428Y-89565333D02*
X81420952Y-90279619D01*
X81420952Y-90279619D02*
X81182857Y-89279619D01*
X80801904Y-90279619D02*
X80801904Y-89279619D01*
X80801904Y-89279619D02*
X80468571Y-89993904D01*
X80468571Y-89993904D02*
X80135238Y-89279619D01*
X80135238Y-89279619D02*
X80135238Y-90279619D01*
X66274723Y-100150000D02*
X66131866Y-100197619D01*
X66131866Y-100197619D02*
X65893771Y-100197619D01*
X65893771Y-100197619D02*
X65798533Y-100150000D01*
X65798533Y-100150000D02*
X65750914Y-100102380D01*
X65750914Y-100102380D02*
X65703295Y-100007142D01*
X65703295Y-100007142D02*
X65703295Y-99911904D01*
X65703295Y-99911904D02*
X65750914Y-99816666D01*
X65750914Y-99816666D02*
X65798533Y-99769047D01*
X65798533Y-99769047D02*
X65893771Y-99721428D01*
X65893771Y-99721428D02*
X66084247Y-99673809D01*
X66084247Y-99673809D02*
X66179485Y-99626190D01*
X66179485Y-99626190D02*
X66227104Y-99578571D01*
X66227104Y-99578571D02*
X66274723Y-99483333D01*
X66274723Y-99483333D02*
X66274723Y-99388095D01*
X66274723Y-99388095D02*
X66227104Y-99292857D01*
X66227104Y-99292857D02*
X66179485Y-99245238D01*
X66179485Y-99245238D02*
X66084247Y-99197619D01*
X66084247Y-99197619D02*
X65846152Y-99197619D01*
X65846152Y-99197619D02*
X65703295Y-99245238D01*
X65274723Y-100197619D02*
X65274723Y-99197619D01*
X65274723Y-99197619D02*
X65036628Y-99197619D01*
X65036628Y-99197619D02*
X64893771Y-99245238D01*
X64893771Y-99245238D02*
X64798533Y-99340476D01*
X64798533Y-99340476D02*
X64750914Y-99435714D01*
X64750914Y-99435714D02*
X64703295Y-99626190D01*
X64703295Y-99626190D02*
X64703295Y-99769047D01*
X64703295Y-99769047D02*
X64750914Y-99959523D01*
X64750914Y-99959523D02*
X64798533Y-100054761D01*
X64798533Y-100054761D02*
X64893771Y-100150000D01*
X64893771Y-100150000D02*
X65036628Y-100197619D01*
X65036628Y-100197619D02*
X65274723Y-100197619D01*
X64084247Y-99197619D02*
X63893771Y-99197619D01*
X63893771Y-99197619D02*
X63798533Y-99245238D01*
X63798533Y-99245238D02*
X63703295Y-99340476D01*
X63703295Y-99340476D02*
X63655676Y-99530952D01*
X63655676Y-99530952D02*
X63655676Y-99864285D01*
X63655676Y-99864285D02*
X63703295Y-100054761D01*
X63703295Y-100054761D02*
X63798533Y-100150000D01*
X63798533Y-100150000D02*
X63893771Y-100197619D01*
X63893771Y-100197619D02*
X64084247Y-100197619D01*
X64084247Y-100197619D02*
X64179485Y-100150000D01*
X64179485Y-100150000D02*
X64274723Y-100054761D01*
X64274723Y-100054761D02*
X64322342Y-99864285D01*
X64322342Y-99864285D02*
X64322342Y-99530952D01*
X64322342Y-99530952D02*
X64274723Y-99340476D01*
X64274723Y-99340476D02*
X64179485Y-99245238D01*
X64179485Y-99245238D02*
X64084247Y-99197619D01*
X82944761Y-92692619D02*
X82944761Y-91692619D01*
X82468571Y-92692619D02*
X82468571Y-91692619D01*
X82468571Y-91692619D02*
X81897143Y-92692619D01*
X81897143Y-92692619D02*
X81897143Y-91692619D01*
X81563809Y-91692619D02*
X80992381Y-91692619D01*
X81278095Y-92692619D02*
X81278095Y-91692619D01*
X82944760Y-105011666D02*
X82182856Y-105011666D01*
X82563808Y-105392619D02*
X82563808Y-104630714D01*
X81230475Y-104392619D02*
X81706665Y-104392619D01*
X81706665Y-104392619D02*
X81754284Y-104868809D01*
X81754284Y-104868809D02*
X81706665Y-104821190D01*
X81706665Y-104821190D02*
X81611427Y-104773571D01*
X81611427Y-104773571D02*
X81373332Y-104773571D01*
X81373332Y-104773571D02*
X81278094Y-104821190D01*
X81278094Y-104821190D02*
X81230475Y-104868809D01*
X81230475Y-104868809D02*
X81182856Y-104964047D01*
X81182856Y-104964047D02*
X81182856Y-105202142D01*
X81182856Y-105202142D02*
X81230475Y-105297380D01*
X81230475Y-105297380D02*
X81278094Y-105345000D01*
X81278094Y-105345000D02*
X81373332Y-105392619D01*
X81373332Y-105392619D02*
X81611427Y-105392619D01*
X81611427Y-105392619D02*
X81706665Y-105345000D01*
X81706665Y-105345000D02*
X81754284Y-105297380D01*
X80897141Y-104392619D02*
X80563808Y-105392619D01*
X80563808Y-105392619D02*
X80230475Y-104392619D01*
X64653866Y-95111980D02*
X64701485Y-95159600D01*
X64701485Y-95159600D02*
X64844342Y-95207219D01*
X64844342Y-95207219D02*
X64939580Y-95207219D01*
X64939580Y-95207219D02*
X65082437Y-95159600D01*
X65082437Y-95159600D02*
X65177675Y-95064361D01*
X65177675Y-95064361D02*
X65225294Y-94969123D01*
X65225294Y-94969123D02*
X65272913Y-94778647D01*
X65272913Y-94778647D02*
X65272913Y-94635790D01*
X65272913Y-94635790D02*
X65225294Y-94445314D01*
X65225294Y-94445314D02*
X65177675Y-94350076D01*
X65177675Y-94350076D02*
X65082437Y-94254838D01*
X65082437Y-94254838D02*
X64939580Y-94207219D01*
X64939580Y-94207219D02*
X64844342Y-94207219D01*
X64844342Y-94207219D02*
X64701485Y-94254838D01*
X64701485Y-94254838D02*
X64653866Y-94302457D01*
X64272913Y-95159600D02*
X64130056Y-95207219D01*
X64130056Y-95207219D02*
X63891961Y-95207219D01*
X63891961Y-95207219D02*
X63796723Y-95159600D01*
X63796723Y-95159600D02*
X63749104Y-95111980D01*
X63749104Y-95111980D02*
X63701485Y-95016742D01*
X63701485Y-95016742D02*
X63701485Y-94921504D01*
X63701485Y-94921504D02*
X63749104Y-94826266D01*
X63749104Y-94826266D02*
X63796723Y-94778647D01*
X63796723Y-94778647D02*
X63891961Y-94731028D01*
X63891961Y-94731028D02*
X64082437Y-94683409D01*
X64082437Y-94683409D02*
X64177675Y-94635790D01*
X64177675Y-94635790D02*
X64225294Y-94588171D01*
X64225294Y-94588171D02*
X64272913Y-94492933D01*
X64272913Y-94492933D02*
X64272913Y-94397695D01*
X64272913Y-94397695D02*
X64225294Y-94302457D01*
X64225294Y-94302457D02*
X64177675Y-94254838D01*
X64177675Y-94254838D02*
X64082437Y-94207219D01*
X64082437Y-94207219D02*
X63844342Y-94207219D01*
X63844342Y-94207219D02*
X63701485Y-94254838D01*
D11*
X60645200Y-88187600D02*
X60645200Y-90727600D01*
X60645200Y-90727600D02*
X60645200Y-108507600D01*
X60645200Y-90727600D02*
X63185200Y-90727600D01*
X60645200Y-108507600D02*
X63185200Y-108507600D01*
X63185200Y-88187600D02*
X60645200Y-88187600D01*
X63185200Y-90727600D02*
X63185200Y-88187600D01*
X63185200Y-108507600D02*
X63185200Y-90727600D01*
X83505200Y-88187600D02*
X83505200Y-90727600D01*
X83505200Y-88187600D02*
X86045200Y-88187600D01*
X83505200Y-90727600D02*
X83505200Y-108507600D01*
X83505200Y-90727600D02*
X86045200Y-90727600D01*
X83505200Y-108507600D02*
X86045200Y-108507600D01*
X86045200Y-88187600D02*
X86045200Y-108507600D01*
X86045200Y-108507600D02*
X83505200Y-111097600D01*
M02*
