G04 #@! TF.GenerationSoftware,KiCad,Pcbnew,8.0.6*
G04 #@! TF.CreationDate,2025-01-06T22:58:22-05:00*
G04 #@! TF.ProjectId,MikroBusCAN,4d696b72-6f42-4757-9343-414e2e6b6963,rev?*
G04 #@! TF.SameCoordinates,Original*
G04 #@! TF.FileFunction,Copper,L2,Bot*
G04 #@! TF.FilePolarity,Positive*
%FSLAX46Y46*%
G04 Gerber Fmt 4.6, Leading zero omitted, Abs format (unit mm)*
G04 Created by KiCad (PCBNEW 8.0.6) date 2025-01-06 22:58:22*
%MOMM*%
%LPD*%
G01*
G04 APERTURE LIST*
G04 #@! TA.AperFunction,ComponentPad*
%ADD10R,1.524000X1.524000*%
G04 #@! TD*
G04 #@! TA.AperFunction,ComponentPad*
%ADD11C,1.524000*%
G04 #@! TD*
G04 #@! TA.AperFunction,ComponentPad*
%ADD12R,1.700000X1.700000*%
G04 #@! TD*
G04 #@! TA.AperFunction,ComponentPad*
%ADD13O,1.700000X1.700000*%
G04 #@! TD*
G04 #@! TA.AperFunction,ComponentPad*
%ADD14C,1.600000*%
G04 #@! TD*
G04 #@! TA.AperFunction,ComponentPad*
%ADD15O,1.600000X1.600000*%
G04 #@! TD*
G04 #@! TA.AperFunction,ComponentPad*
%ADD16R,1.676400X1.676400*%
G04 #@! TD*
G04 #@! TA.AperFunction,ComponentPad*
%ADD17R,2.400000X1.600000*%
G04 #@! TD*
G04 #@! TA.AperFunction,ComponentPad*
%ADD18O,2.400000X1.600000*%
G04 #@! TD*
G04 #@! TA.AperFunction,ViaPad*
%ADD19C,0.800000*%
G04 #@! TD*
G04 #@! TA.AperFunction,Conductor*
%ADD20C,0.250000*%
G04 #@! TD*
G04 APERTURE END LIST*
D10*
X64900000Y-72658000D03*
D11*
X66900000Y-72658000D03*
X68900000Y-72658000D03*
X70900000Y-72658000D03*
D12*
X82900000Y-72458000D03*
D13*
X82900000Y-74998000D03*
X82900000Y-77538000D03*
X82900000Y-80078000D03*
D14*
X77100000Y-85758000D03*
X72100000Y-85758000D03*
X78100000Y-78758000D03*
D15*
X62860000Y-78758000D03*
D14*
X68650000Y-105608000D03*
X73650000Y-105608000D03*
D16*
X61915200Y-89457600D03*
D11*
X61915200Y-91997600D03*
X61915200Y-94537600D03*
X61915200Y-97077600D03*
X61915200Y-99617600D03*
X61915200Y-102157600D03*
X61915200Y-104697600D03*
X61915200Y-107237600D03*
X84775200Y-107237600D03*
X84775200Y-104697600D03*
X84775200Y-102157600D03*
X84775200Y-99617600D03*
X84775200Y-97077600D03*
X84775200Y-94537600D03*
X84775200Y-91997600D03*
D10*
X84775200Y-89457600D03*
D12*
X63300000Y-67058000D03*
D13*
X65840000Y-67058000D03*
X68380000Y-67058000D03*
X70920000Y-67058000D03*
X73460000Y-67058000D03*
X76000000Y-67058000D03*
X78540000Y-67058000D03*
X81080000Y-67058000D03*
D12*
X66600000Y-84058000D03*
D13*
X66600000Y-86598000D03*
D17*
X69130000Y-91458000D03*
D18*
X69130000Y-93998000D03*
X69130000Y-96538000D03*
X69130000Y-99078000D03*
X76750000Y-99078000D03*
X76750000Y-96538000D03*
X76750000Y-93998000D03*
X76750000Y-91458000D03*
D12*
X81200000Y-85758000D03*
D13*
X83740000Y-85758000D03*
D19*
X64752000Y-93587300D03*
X82833400Y-87851800D03*
X72848700Y-95176700D03*
X81872800Y-96090800D03*
D20*
X72850000Y-91408000D02*
X72900000Y-91458000D01*
X72900000Y-91458000D02*
X76750000Y-91458000D01*
X69130000Y-93998000D02*
X70260000Y-93998000D01*
X70260000Y-93998000D02*
X72850000Y-91408000D01*
X68650000Y-105608000D02*
X69832800Y-104425200D01*
X69832800Y-104425200D02*
X84502800Y-104425200D01*
X84502800Y-104425200D02*
X84775200Y-104697600D01*
X76750000Y-93998000D02*
X78276700Y-93998000D01*
X81200000Y-86934700D02*
X81200000Y-91074700D01*
X81200000Y-91074700D02*
X78276700Y-93998000D01*
X81200000Y-85758000D02*
X81200000Y-86934700D01*
X75616700Y-78758000D02*
X78100000Y-78758000D01*
X66600000Y-86598000D02*
X67776700Y-86598000D01*
X67776700Y-86598000D02*
X75616700Y-78758000D01*
X76000000Y-73175900D02*
X76000000Y-67058000D01*
X64969800Y-93369500D02*
X64752000Y-93587300D01*
X66040700Y-85421000D02*
X64969800Y-86491900D01*
X77822100Y-74998000D02*
X67399100Y-85421000D01*
X67399100Y-85421000D02*
X66040700Y-85421000D01*
X77822100Y-74998000D02*
X76000000Y-73175900D01*
X82900000Y-74998000D02*
X77822100Y-74998000D01*
X64969800Y-86491900D02*
X64969800Y-93369500D01*
X82833400Y-90055800D02*
X84775200Y-91997600D01*
X82833400Y-87851800D02*
X82833400Y-90055800D01*
X69556700Y-65881300D02*
X73952000Y-65881300D01*
X64439000Y-92013800D02*
X61915200Y-94537600D01*
X74644400Y-66573700D02*
X74644400Y-72322500D01*
X74644400Y-72322500D02*
X64439000Y-82527900D01*
X73952000Y-65881300D02*
X74644400Y-66573700D01*
X68380000Y-67058000D02*
X69556700Y-65881300D01*
X64439000Y-82527900D02*
X64439000Y-92013800D01*
X76750000Y-99078000D02*
X75223300Y-99078000D01*
X67566700Y-100223000D02*
X67566700Y-90291300D01*
X67566700Y-90291300D02*
X72100000Y-85758000D01*
X74078300Y-100223000D02*
X67566700Y-100223000D01*
X61915200Y-104697600D02*
X66389800Y-100223000D01*
X68900000Y-72658000D02*
X63300000Y-67058000D01*
X66389800Y-100223000D02*
X67566700Y-100223000D01*
X75223300Y-99078000D02*
X74078300Y-100223000D01*
X71830800Y-97903900D02*
X83948900Y-97903900D01*
X69130000Y-99078000D02*
X70656700Y-99078000D01*
X83948900Y-97903900D02*
X84775200Y-97077600D01*
X70656700Y-99078000D02*
X71830800Y-97903900D01*
X84084000Y-74520299D02*
X83386701Y-73823000D01*
X82106600Y-76344900D02*
X83440500Y-76344900D01*
X62289400Y-97077600D02*
X65478700Y-93888300D01*
X84102000Y-78876000D02*
X82900000Y-80078000D01*
X65478700Y-93888300D02*
X65478700Y-90051000D01*
X78566800Y-79884700D02*
X82106600Y-76344900D01*
X80562600Y-69080600D02*
X78540000Y-67058000D01*
X61915200Y-97077600D02*
X62289400Y-97077600D01*
X75645000Y-79884700D02*
X78566800Y-79884700D01*
X84084000Y-75701400D02*
X84084000Y-74520299D01*
X81615000Y-73823000D02*
X80562600Y-72770600D01*
X65478700Y-90051000D02*
X75645000Y-79884700D01*
X84102000Y-77006400D02*
X84102000Y-78876000D01*
X83440500Y-76344900D02*
X84084000Y-75701400D01*
X80562600Y-72770600D02*
X80562600Y-69080600D01*
X83386701Y-73823000D02*
X81615000Y-73823000D01*
X83440500Y-76344900D02*
X84102000Y-77006400D01*
X65930400Y-90303900D02*
X74841200Y-81393100D01*
X82900000Y-77538000D02*
X81723300Y-77538000D01*
X74841200Y-81393100D02*
X77868200Y-81393100D01*
X65930400Y-95602400D02*
X65930400Y-90303900D01*
X77868200Y-81393100D02*
X81723300Y-77538000D01*
X61915200Y-99617600D02*
X65930400Y-95602400D01*
X84775200Y-94537600D02*
X84136100Y-95176700D01*
X84136100Y-95176700D02*
X72848700Y-95176700D01*
X61915200Y-84400700D02*
X73460000Y-72855900D01*
X73460000Y-72855900D02*
X73460000Y-67058000D01*
X61915200Y-89457600D02*
X61915200Y-84400700D01*
X78276700Y-96538000D02*
X78723900Y-96090800D01*
X76750000Y-96538000D02*
X78276700Y-96538000D01*
X78723900Y-96090800D02*
X81872800Y-96090800D01*
G04 #@! TA.AperFunction,Conductor*
G36*
X83822573Y-98557402D02*
G01*
X83869066Y-98611058D01*
X83879170Y-98681332D01*
X83849676Y-98745912D01*
X83843547Y-98752495D01*
X83798225Y-98797816D01*
X83798220Y-98797822D01*
X83670712Y-98979923D01*
X83576761Y-99181401D01*
X83576759Y-99181406D01*
X83550056Y-99281063D01*
X83519222Y-99396137D01*
X83499847Y-99617600D01*
X83519222Y-99839063D01*
X83547051Y-99942921D01*
X83576759Y-100053793D01*
X83576761Y-100053799D01*
X83670711Y-100255275D01*
X83670712Y-100255277D01*
X83798216Y-100437372D01*
X83798220Y-100437377D01*
X83798223Y-100437381D01*
X83955419Y-100594577D01*
X83955423Y-100594580D01*
X83955427Y-100594583D01*
X84059324Y-100667332D01*
X84137523Y-100722088D01*
X84247573Y-100773405D01*
X84300858Y-100820322D01*
X84320319Y-100888599D01*
X84299777Y-100956559D01*
X84247573Y-101001795D01*
X84137523Y-101053112D01*
X83955422Y-101180620D01*
X83955416Y-101180625D01*
X83798225Y-101337816D01*
X83798220Y-101337822D01*
X83670712Y-101519923D01*
X83670712Y-101519924D01*
X83576760Y-101721404D01*
X83519222Y-101936137D01*
X83499847Y-102157600D01*
X83519222Y-102379063D01*
X83529900Y-102418913D01*
X83576759Y-102593793D01*
X83576761Y-102593799D01*
X83670711Y-102795275D01*
X83670712Y-102795277D01*
X83798216Y-102977372D01*
X83798220Y-102977377D01*
X83798223Y-102977381D01*
X83955419Y-103134577D01*
X83955423Y-103134580D01*
X83955427Y-103134583D01*
X84059324Y-103207332D01*
X84137523Y-103262088D01*
X84247573Y-103313405D01*
X84300858Y-103360322D01*
X84320319Y-103428599D01*
X84299777Y-103496559D01*
X84247573Y-103541795D01*
X84137523Y-103593112D01*
X83955422Y-103720620D01*
X83955416Y-103720625D01*
X83921247Y-103754795D01*
X83858935Y-103788821D01*
X83832152Y-103791700D01*
X69770403Y-103791700D01*
X69697368Y-103806228D01*
X69648015Y-103816045D01*
X69648013Y-103816045D01*
X69648012Y-103816046D01*
X69532724Y-103863800D01*
X69428967Y-103933127D01*
X69063246Y-104298848D01*
X69000934Y-104332873D01*
X68941540Y-104331459D01*
X68878090Y-104314457D01*
X68650000Y-104294502D01*
X68421913Y-104314457D01*
X68200759Y-104373715D01*
X68200753Y-104373717D01*
X67993250Y-104470477D01*
X67805703Y-104601799D01*
X67805697Y-104601804D01*
X67643804Y-104763697D01*
X67643799Y-104763703D01*
X67512477Y-104951250D01*
X67415717Y-105158753D01*
X67415715Y-105158759D01*
X67368418Y-105335275D01*
X67356457Y-105379913D01*
X67336502Y-105608000D01*
X67356457Y-105836087D01*
X67415716Y-106057243D01*
X67512477Y-106264749D01*
X67643802Y-106452300D01*
X67805700Y-106614198D01*
X67993251Y-106745523D01*
X68200757Y-106842284D01*
X68421913Y-106901543D01*
X68650000Y-106921498D01*
X68878087Y-106901543D01*
X69099243Y-106842284D01*
X69306749Y-106745523D01*
X69494300Y-106614198D01*
X69656198Y-106452300D01*
X69787523Y-106264749D01*
X69884284Y-106057243D01*
X69943543Y-105836087D01*
X69963498Y-105608000D01*
X69943543Y-105379913D01*
X69926540Y-105316458D01*
X69928230Y-105245483D01*
X69959152Y-105194752D01*
X70007570Y-105146335D01*
X70058301Y-105095604D01*
X70120613Y-105061579D01*
X70147396Y-105058700D01*
X72278837Y-105058700D01*
X72346958Y-105078702D01*
X72393451Y-105132358D01*
X72403555Y-105202632D01*
X72400544Y-105217312D01*
X72356951Y-105379999D01*
X72337004Y-105608000D01*
X72356951Y-105836002D01*
X72416186Y-106057068D01*
X72416188Y-106057073D01*
X72512913Y-106264501D01*
X72562898Y-106335888D01*
X72562900Y-106335888D01*
X73250000Y-105648788D01*
X73250000Y-105660661D01*
X73277259Y-105762394D01*
X73329920Y-105853606D01*
X73404394Y-105928080D01*
X73495606Y-105980741D01*
X73597339Y-106008000D01*
X73609210Y-106008000D01*
X72922110Y-106695098D01*
X72922110Y-106695100D01*
X72993498Y-106745086D01*
X73200926Y-106841811D01*
X73200931Y-106841813D01*
X73421999Y-106901048D01*
X73421995Y-106901048D01*
X73650000Y-106920995D01*
X73878002Y-106901048D01*
X74099068Y-106841813D01*
X74099073Y-106841811D01*
X74306497Y-106745088D01*
X74377888Y-106695099D01*
X74377888Y-106695097D01*
X73690791Y-106008000D01*
X73702661Y-106008000D01*
X73804394Y-105980741D01*
X73895606Y-105928080D01*
X73970080Y-105853606D01*
X74022741Y-105762394D01*
X74050000Y-105660661D01*
X74050000Y-105648791D01*
X74737097Y-106335888D01*
X74737099Y-106335888D01*
X74787088Y-106264497D01*
X74883811Y-106057073D01*
X74883813Y-106057068D01*
X74943048Y-105836002D01*
X74962995Y-105608000D01*
X74943048Y-105379999D01*
X74899456Y-105217312D01*
X74901146Y-105146335D01*
X74940940Y-105087539D01*
X75006204Y-105059591D01*
X75021163Y-105058700D01*
X83461471Y-105058700D01*
X83529592Y-105078702D01*
X83575666Y-105131450D01*
X83670711Y-105335275D01*
X83670712Y-105335277D01*
X83798216Y-105517372D01*
X83798220Y-105517377D01*
X83798223Y-105517381D01*
X83955419Y-105674577D01*
X83955423Y-105674580D01*
X83955427Y-105674583D01*
X84059324Y-105747332D01*
X84137523Y-105802088D01*
X84202510Y-105832392D01*
X84248164Y-105853681D01*
X84301449Y-105900598D01*
X84320910Y-105968876D01*
X84300368Y-106036836D01*
X84248165Y-106082070D01*
X84137777Y-106133545D01*
X84074594Y-106177785D01*
X84695566Y-106798757D01*
X84603629Y-106823392D01*
X84502270Y-106881911D01*
X84419511Y-106964670D01*
X84360992Y-107066029D01*
X84336357Y-107157966D01*
X83715385Y-106536994D01*
X83671146Y-106600175D01*
X83577233Y-106801572D01*
X83577231Y-106801576D01*
X83519717Y-107016225D01*
X83500349Y-107237600D01*
X83519717Y-107458974D01*
X83577231Y-107673623D01*
X83577233Y-107673627D01*
X83671146Y-107875025D01*
X83715384Y-107938203D01*
X83715385Y-107938203D01*
X84336356Y-107317231D01*
X84360992Y-107409171D01*
X84419511Y-107510530D01*
X84502270Y-107593289D01*
X84603629Y-107651808D01*
X84695566Y-107676442D01*
X84074595Y-108297413D01*
X84074595Y-108297414D01*
X84137775Y-108341653D01*
X84137774Y-108341653D01*
X84339172Y-108435566D01*
X84339176Y-108435568D01*
X84553825Y-108493082D01*
X84775200Y-108512450D01*
X84996574Y-108493082D01*
X85211223Y-108435568D01*
X85211227Y-108435566D01*
X85412625Y-108341653D01*
X85412626Y-108341652D01*
X85475803Y-108297414D01*
X85475803Y-108297412D01*
X84854833Y-107676442D01*
X84946771Y-107651808D01*
X85048130Y-107593289D01*
X85130889Y-107510530D01*
X85189408Y-107409171D01*
X85214042Y-107317233D01*
X85835012Y-107938203D01*
X85883519Y-107933960D01*
X85953124Y-107947950D01*
X86004116Y-107997349D01*
X86020500Y-108059481D01*
X86020500Y-108573120D01*
X86000498Y-108641241D01*
X85980998Y-108664740D01*
X83562407Y-110948120D01*
X83499142Y-110980339D01*
X83475909Y-110982500D01*
X60897500Y-110982500D01*
X60829379Y-110962498D01*
X60782886Y-110908842D01*
X60771500Y-110856500D01*
X60771500Y-108068369D01*
X60791502Y-108000248D01*
X60814452Y-107980361D01*
X60813840Y-107979749D01*
X61476356Y-107317232D01*
X61500992Y-107409171D01*
X61559511Y-107510530D01*
X61642270Y-107593289D01*
X61743629Y-107651808D01*
X61835566Y-107676442D01*
X61214595Y-108297413D01*
X61214595Y-108297414D01*
X61277775Y-108341653D01*
X61277774Y-108341653D01*
X61479172Y-108435566D01*
X61479176Y-108435568D01*
X61693825Y-108493082D01*
X61915200Y-108512450D01*
X62136574Y-108493082D01*
X62351223Y-108435568D01*
X62351227Y-108435566D01*
X62552625Y-108341653D01*
X62552626Y-108341652D01*
X62615803Y-108297414D01*
X62615803Y-108297412D01*
X61994833Y-107676442D01*
X62086771Y-107651808D01*
X62188130Y-107593289D01*
X62270889Y-107510530D01*
X62329408Y-107409171D01*
X62354042Y-107317233D01*
X62975012Y-107938203D01*
X62975014Y-107938203D01*
X63019252Y-107875026D01*
X63019253Y-107875025D01*
X63113166Y-107673627D01*
X63113168Y-107673623D01*
X63170682Y-107458974D01*
X63190050Y-107237600D01*
X63170682Y-107016225D01*
X63113168Y-106801576D01*
X63113166Y-106801572D01*
X63019251Y-106600171D01*
X62975015Y-106536995D01*
X62975013Y-106536995D01*
X62354042Y-107157966D01*
X62329408Y-107066029D01*
X62270889Y-106964670D01*
X62188130Y-106881911D01*
X62086771Y-106823392D01*
X61994832Y-106798757D01*
X62615803Y-106177785D01*
X62615803Y-106177784D01*
X62552625Y-106133546D01*
X62552620Y-106133543D01*
X62442234Y-106082069D01*
X62388950Y-106035152D01*
X62369489Y-105966875D01*
X62390031Y-105898915D01*
X62442234Y-105853681D01*
X62552877Y-105802088D01*
X62734981Y-105674577D01*
X62892177Y-105517381D01*
X63019688Y-105335277D01*
X63113640Y-105133796D01*
X63171178Y-104919063D01*
X63190553Y-104697600D01*
X63171178Y-104476137D01*
X63160713Y-104437082D01*
X63162401Y-104366111D01*
X63193322Y-104315380D01*
X66615299Y-100893405D01*
X66677611Y-100859379D01*
X66704394Y-100856500D01*
X74140693Y-100856500D01*
X74140694Y-100856500D01*
X74263085Y-100832155D01*
X74378375Y-100784400D01*
X74482133Y-100715071D01*
X75220260Y-99976943D01*
X75282569Y-99942921D01*
X75353384Y-99947985D01*
X75398447Y-99976946D01*
X75497564Y-100076063D01*
X75497567Y-100076065D01*
X75497570Y-100076068D01*
X75664197Y-100197129D01*
X75847710Y-100290634D01*
X76043592Y-100354280D01*
X76247019Y-100386500D01*
X76247022Y-100386500D01*
X77252978Y-100386500D01*
X77252981Y-100386500D01*
X77456408Y-100354280D01*
X77652290Y-100290634D01*
X77835803Y-100197129D01*
X78002430Y-100076068D01*
X78148068Y-99930430D01*
X78269129Y-99763803D01*
X78362634Y-99580290D01*
X78426280Y-99384408D01*
X78458500Y-99180981D01*
X78458500Y-98975019D01*
X78426280Y-98771592D01*
X78403776Y-98702334D01*
X78401749Y-98631369D01*
X78438411Y-98570571D01*
X78502123Y-98539246D01*
X78523610Y-98537400D01*
X83754452Y-98537400D01*
X83822573Y-98557402D01*
G37*
G04 #@! TD.AperFunction*
G04 #@! TA.AperFunction,Conductor*
G36*
X60980012Y-105559624D02*
G01*
X60986595Y-105565753D01*
X61095419Y-105674577D01*
X61095423Y-105674580D01*
X61095427Y-105674583D01*
X61199324Y-105747332D01*
X61277523Y-105802088D01*
X61342510Y-105832392D01*
X61388164Y-105853681D01*
X61441449Y-105900598D01*
X61460910Y-105968876D01*
X61440368Y-106036836D01*
X61388165Y-106082070D01*
X61277777Y-106133545D01*
X61214594Y-106177785D01*
X61835566Y-106798757D01*
X61743629Y-106823392D01*
X61642270Y-106881911D01*
X61559511Y-106964670D01*
X61500992Y-107066029D01*
X61476357Y-107157966D01*
X60813839Y-106495448D01*
X60814521Y-106494765D01*
X60787880Y-106468952D01*
X60771500Y-106406828D01*
X60771500Y-105654848D01*
X60791502Y-105586727D01*
X60845158Y-105540234D01*
X60915432Y-105530130D01*
X60980012Y-105559624D01*
G37*
G04 #@! TD.AperFunction*
G04 #@! TA.AperFunction,Conductor*
G36*
X85980724Y-105441919D02*
G01*
X86016709Y-105503121D01*
X86020500Y-105533797D01*
X86020500Y-106415717D01*
X86000498Y-106483838D01*
X85946842Y-106530331D01*
X85883520Y-106541238D01*
X85835014Y-106536994D01*
X85214042Y-107157966D01*
X85189408Y-107066029D01*
X85130889Y-106964670D01*
X85048130Y-106881911D01*
X84946771Y-106823392D01*
X84854832Y-106798757D01*
X85475803Y-106177785D01*
X85475803Y-106177784D01*
X85412625Y-106133546D01*
X85412620Y-106133543D01*
X85302234Y-106082069D01*
X85248950Y-106035152D01*
X85229489Y-105966875D01*
X85250031Y-105898915D01*
X85302234Y-105853681D01*
X85412877Y-105802088D01*
X85594981Y-105674577D01*
X85752177Y-105517381D01*
X85791287Y-105461527D01*
X85846744Y-105417198D01*
X85917363Y-105409889D01*
X85980724Y-105441919D01*
G37*
G04 #@! TD.AperFunction*
G04 #@! TA.AperFunction,Conductor*
G36*
X85962621Y-64153502D02*
G01*
X86009114Y-64207158D01*
X86020500Y-64259500D01*
X86020500Y-88170482D01*
X86000498Y-88238603D01*
X85946842Y-88285096D01*
X85876568Y-88295200D01*
X85818992Y-88271351D01*
X85783406Y-88244712D01*
X85783402Y-88244710D01*
X85646404Y-88193611D01*
X85646396Y-88193609D01*
X85585849Y-88187100D01*
X85585838Y-88187100D01*
X83964562Y-88187100D01*
X83964550Y-88187100D01*
X83904003Y-88193609D01*
X83903996Y-88193611D01*
X83890876Y-88198505D01*
X83820060Y-88203569D01*
X83757748Y-88169543D01*
X83723724Y-88107230D01*
X83726667Y-88048418D01*
X83725570Y-88048185D01*
X83726942Y-88041730D01*
X83732915Y-87984900D01*
X83746904Y-87851800D01*
X83726942Y-87661872D01*
X83667927Y-87480244D01*
X83572440Y-87314856D01*
X83572439Y-87314855D01*
X83569138Y-87309137D01*
X83570704Y-87308232D01*
X83549820Y-87249683D01*
X83565906Y-87180533D01*
X83616824Y-87131057D01*
X83675615Y-87116500D01*
X83852565Y-87116500D01*
X83852569Y-87116500D01*
X84074635Y-87079444D01*
X84287574Y-87006342D01*
X84485576Y-86899189D01*
X84663240Y-86760906D01*
X84815722Y-86595268D01*
X84938860Y-86406791D01*
X85029296Y-86200616D01*
X85084564Y-85982368D01*
X85103156Y-85758000D01*
X85084564Y-85533632D01*
X85084562Y-85533624D01*
X85029297Y-85315387D01*
X85029296Y-85315386D01*
X85029296Y-85315384D01*
X84938860Y-85109209D01*
X84887182Y-85030110D01*
X84815724Y-84920734D01*
X84815720Y-84920729D01*
X84663237Y-84755091D01*
X84581382Y-84691381D01*
X84485576Y-84616811D01*
X84287574Y-84509658D01*
X84287572Y-84509657D01*
X84287571Y-84509656D01*
X84074639Y-84436557D01*
X84074630Y-84436555D01*
X84030476Y-84429187D01*
X83852569Y-84399500D01*
X83627431Y-84399500D01*
X83479211Y-84424233D01*
X83405369Y-84436555D01*
X83405360Y-84436557D01*
X83192428Y-84509656D01*
X83192426Y-84509658D01*
X82994426Y-84616810D01*
X82994424Y-84616811D01*
X82816762Y-84755091D01*
X82755754Y-84821363D01*
X82694901Y-84857933D01*
X82623936Y-84855798D01*
X82565391Y-84815636D01*
X82544999Y-84780057D01*
X82520265Y-84713744D01*
X82500889Y-84661796D01*
X82500888Y-84661794D01*
X82500887Y-84661792D01*
X82413261Y-84544738D01*
X82296207Y-84457112D01*
X82296202Y-84457110D01*
X82159204Y-84406011D01*
X82159196Y-84406009D01*
X82098649Y-84399500D01*
X82098638Y-84399500D01*
X80301362Y-84399500D01*
X80301350Y-84399500D01*
X80240803Y-84406009D01*
X80240795Y-84406011D01*
X80103797Y-84457110D01*
X80103792Y-84457112D01*
X79986738Y-84544738D01*
X79899112Y-84661792D01*
X79899110Y-84661797D01*
X79848011Y-84798795D01*
X79848009Y-84798803D01*
X79841500Y-84859350D01*
X79841500Y-86656649D01*
X79848009Y-86717196D01*
X79848011Y-86717204D01*
X79899110Y-86854202D01*
X79899112Y-86854207D01*
X79986738Y-86971261D01*
X80103792Y-87058887D01*
X80103794Y-87058888D01*
X80103796Y-87058889D01*
X80137599Y-87071497D01*
X80240795Y-87109988D01*
X80240803Y-87109990D01*
X80301350Y-87116499D01*
X80301355Y-87116499D01*
X80301362Y-87116500D01*
X80440500Y-87116500D01*
X80508621Y-87136502D01*
X80555114Y-87190158D01*
X80566500Y-87242500D01*
X80566500Y-90760104D01*
X80546498Y-90828225D01*
X80529595Y-90849199D01*
X78279741Y-93099052D01*
X78217429Y-93133078D01*
X78146613Y-93128013D01*
X78101551Y-93099052D01*
X78002435Y-92999936D01*
X78002432Y-92999934D01*
X78002430Y-92999932D01*
X77835803Y-92878871D01*
X77759486Y-92839985D01*
X77707873Y-92791239D01*
X77690807Y-92722324D01*
X77713708Y-92655122D01*
X77759488Y-92615453D01*
X77835545Y-92576699D01*
X78002107Y-92455684D01*
X78002110Y-92455682D01*
X78147682Y-92310110D01*
X78147684Y-92310107D01*
X78268699Y-92143545D01*
X78362170Y-91960099D01*
X78362173Y-91960093D01*
X78425791Y-91764295D01*
X78434074Y-91712000D01*
X77061686Y-91712000D01*
X77070080Y-91703606D01*
X77122741Y-91612394D01*
X77150000Y-91510661D01*
X77150000Y-91405339D01*
X77122741Y-91303606D01*
X77070080Y-91212394D01*
X77061686Y-91204000D01*
X78434074Y-91204000D01*
X78425791Y-91151704D01*
X78362173Y-90955906D01*
X78362170Y-90955900D01*
X78268699Y-90772454D01*
X78147684Y-90605892D01*
X78147682Y-90605889D01*
X78002110Y-90460317D01*
X78002107Y-90460315D01*
X77835545Y-90339300D01*
X77652099Y-90245829D01*
X77652093Y-90245826D01*
X77456294Y-90182208D01*
X77456298Y-90182208D01*
X77252939Y-90150000D01*
X77004000Y-90150000D01*
X77004000Y-91146314D01*
X76995606Y-91137920D01*
X76904394Y-91085259D01*
X76802661Y-91058000D01*
X76697339Y-91058000D01*
X76595606Y-91085259D01*
X76504394Y-91137920D01*
X76496000Y-91146314D01*
X76496000Y-90150000D01*
X76247061Y-90150000D01*
X76043703Y-90182208D01*
X75847906Y-90245826D01*
X75847900Y-90245829D01*
X75664454Y-90339300D01*
X75497892Y-90460315D01*
X75497889Y-90460317D01*
X75352317Y-90605889D01*
X75352315Y-90605892D01*
X75231300Y-90772454D01*
X75137829Y-90955900D01*
X75137826Y-90955906D01*
X75074208Y-91151704D01*
X75065926Y-91204000D01*
X76438314Y-91204000D01*
X76429920Y-91212394D01*
X76377259Y-91303606D01*
X76350000Y-91405339D01*
X76350000Y-91510661D01*
X76377259Y-91612394D01*
X76429920Y-91703606D01*
X76438314Y-91712000D01*
X75065926Y-91712000D01*
X75074208Y-91764295D01*
X75137826Y-91960093D01*
X75137829Y-91960099D01*
X75231300Y-92143545D01*
X75352315Y-92310107D01*
X75352317Y-92310110D01*
X75497889Y-92455682D01*
X75497892Y-92455684D01*
X75664455Y-92576700D01*
X75740511Y-92615453D01*
X75792126Y-92664202D01*
X75809192Y-92733117D01*
X75786291Y-92800318D01*
X75740511Y-92839987D01*
X75664193Y-92878872D01*
X75497567Y-92999934D01*
X75497564Y-92999936D01*
X75351936Y-93145564D01*
X75351934Y-93145567D01*
X75230873Y-93312193D01*
X75137367Y-93495708D01*
X75137364Y-93495714D01*
X75073721Y-93691587D01*
X75073720Y-93691590D01*
X75073720Y-93691592D01*
X75041500Y-93895019D01*
X75041500Y-94100981D01*
X75069266Y-94276286D01*
X75073721Y-94304412D01*
X75097717Y-94378264D01*
X75099745Y-94449231D01*
X75063082Y-94510029D01*
X74999370Y-94541355D01*
X74977884Y-94543200D01*
X73556900Y-94543200D01*
X73488779Y-94523198D01*
X73463263Y-94501510D01*
X73459952Y-94497833D01*
X73305452Y-94385582D01*
X73130988Y-94307906D01*
X72944187Y-94268200D01*
X72753213Y-94268200D01*
X72566411Y-94307906D01*
X72391947Y-94385582D01*
X72237444Y-94497835D01*
X72109665Y-94639748D01*
X72109658Y-94639758D01*
X72014176Y-94805138D01*
X72014173Y-94805145D01*
X71955157Y-94986772D01*
X71935196Y-95176700D01*
X71955157Y-95366627D01*
X71985226Y-95459170D01*
X72014173Y-95548256D01*
X72014176Y-95548261D01*
X72109658Y-95713641D01*
X72109665Y-95713651D01*
X72237444Y-95855564D01*
X72266341Y-95876559D01*
X72391948Y-95967818D01*
X72566412Y-96045494D01*
X72753213Y-96085200D01*
X72944187Y-96085200D01*
X73130988Y-96045494D01*
X73305452Y-95967818D01*
X73459953Y-95855566D01*
X73463263Y-95851890D01*
X73523709Y-95814650D01*
X73556900Y-95810200D01*
X75046656Y-95810200D01*
X75114777Y-95830202D01*
X75161270Y-95883858D01*
X75171374Y-95954132D01*
X75158923Y-95993400D01*
X75152383Y-96006238D01*
X75137367Y-96035708D01*
X75137364Y-96035714D01*
X75073721Y-96231587D01*
X75073720Y-96231590D01*
X75073720Y-96231592D01*
X75041500Y-96435019D01*
X75041500Y-96640981D01*
X75054697Y-96724300D01*
X75073721Y-96844412D01*
X75137082Y-97039418D01*
X75137366Y-97040290D01*
X75161267Y-97087198D01*
X75174371Y-97156974D01*
X75147671Y-97222758D01*
X75089644Y-97263665D01*
X75049000Y-97270400D01*
X71768403Y-97270400D01*
X71695368Y-97284928D01*
X71646015Y-97294745D01*
X71646013Y-97294745D01*
X71646012Y-97294746D01*
X71530723Y-97342501D01*
X71426971Y-97411826D01*
X71426969Y-97411827D01*
X70659741Y-98179053D01*
X70597429Y-98213078D01*
X70526613Y-98208013D01*
X70481551Y-98179052D01*
X70382435Y-98079936D01*
X70382432Y-98079934D01*
X70382430Y-98079932D01*
X70215803Y-97958871D01*
X70140034Y-97920265D01*
X70088422Y-97871519D01*
X70071356Y-97802604D01*
X70094257Y-97735402D01*
X70140034Y-97695735D01*
X70215803Y-97657129D01*
X70382430Y-97536068D01*
X70528068Y-97390430D01*
X70649129Y-97223803D01*
X70742634Y-97040290D01*
X70806280Y-96844408D01*
X70838500Y-96640981D01*
X70838500Y-96435019D01*
X70806280Y-96231592D01*
X70742634Y-96035710D01*
X70649129Y-95852197D01*
X70528068Y-95685570D01*
X70528065Y-95685567D01*
X70528063Y-95685564D01*
X70382435Y-95539936D01*
X70382432Y-95539934D01*
X70382430Y-95539932D01*
X70215803Y-95418871D01*
X70139486Y-95379985D01*
X70087873Y-95331239D01*
X70070807Y-95262324D01*
X70093708Y-95195122D01*
X70139488Y-95155453D01*
X70215545Y-95116699D01*
X70382107Y-94995684D01*
X70382110Y-94995682D01*
X70527682Y-94850110D01*
X70527684Y-94850107D01*
X70648699Y-94683545D01*
X70742170Y-94500099D01*
X70742173Y-94500093D01*
X70805791Y-94304295D01*
X70814074Y-94252000D01*
X69441686Y-94252000D01*
X69450080Y-94243606D01*
X69502741Y-94152394D01*
X69530000Y-94050661D01*
X69530000Y-93945339D01*
X69502741Y-93843606D01*
X69450080Y-93752394D01*
X69441686Y-93744000D01*
X70814074Y-93744000D01*
X70805791Y-93691704D01*
X70742173Y-93495906D01*
X70742170Y-93495900D01*
X70648699Y-93312454D01*
X70527684Y-93145892D01*
X70527682Y-93145889D01*
X70382110Y-93000317D01*
X70382102Y-93000310D01*
X70365934Y-92988563D01*
X70322581Y-92932340D01*
X70316507Y-92861604D01*
X70349640Y-92798813D01*
X70411461Y-92763903D01*
X70426523Y-92761351D01*
X70439201Y-92759989D01*
X70576204Y-92708889D01*
X70693261Y-92621261D01*
X70780889Y-92504204D01*
X70831989Y-92367201D01*
X70838500Y-92306638D01*
X70838500Y-90609362D01*
X70833871Y-90566304D01*
X70831990Y-90548803D01*
X70831988Y-90548795D01*
X70780889Y-90411797D01*
X70780887Y-90411792D01*
X70693261Y-90294738D01*
X70576207Y-90207112D01*
X70576202Y-90207110D01*
X70439204Y-90156011D01*
X70439196Y-90156009D01*
X70378649Y-90149500D01*
X70378638Y-90149500D01*
X68908594Y-90149500D01*
X68840473Y-90129498D01*
X68793980Y-90075842D01*
X68783876Y-90005568D01*
X68813370Y-89940988D01*
X68819499Y-89934405D01*
X69000873Y-89753030D01*
X71686753Y-87067149D01*
X71749063Y-87033126D01*
X71808457Y-87034539D01*
X71850653Y-87045846D01*
X71870065Y-87051048D01*
X71871913Y-87051543D01*
X72100000Y-87071498D01*
X72328087Y-87051543D01*
X72549243Y-86992284D01*
X72756749Y-86895523D01*
X72944300Y-86764198D01*
X73106198Y-86602300D01*
X73237523Y-86414749D01*
X73334284Y-86207243D01*
X73393543Y-85986087D01*
X73413498Y-85758000D01*
X75787004Y-85758000D01*
X75806951Y-85986002D01*
X75866186Y-86207068D01*
X75866188Y-86207073D01*
X75962913Y-86414501D01*
X76012899Y-86485888D01*
X76700000Y-85798788D01*
X76700000Y-85810661D01*
X76727259Y-85912394D01*
X76779920Y-86003606D01*
X76854394Y-86078080D01*
X76945606Y-86130741D01*
X77047339Y-86158000D01*
X77059210Y-86158000D01*
X76372110Y-86845098D01*
X76372110Y-86845100D01*
X76443498Y-86895086D01*
X76650926Y-86991811D01*
X76650931Y-86991813D01*
X76871999Y-87051048D01*
X76871995Y-87051048D01*
X77100000Y-87070995D01*
X77328002Y-87051048D01*
X77549068Y-86991813D01*
X77549073Y-86991811D01*
X77756497Y-86895088D01*
X77827888Y-86845099D01*
X77827888Y-86845097D01*
X77140791Y-86158000D01*
X77152661Y-86158000D01*
X77254394Y-86130741D01*
X77345606Y-86078080D01*
X77420080Y-86003606D01*
X77472741Y-85912394D01*
X77500000Y-85810661D01*
X77500000Y-85798791D01*
X78187097Y-86485888D01*
X78187099Y-86485888D01*
X78237088Y-86414497D01*
X78333811Y-86207073D01*
X78333813Y-86207068D01*
X78393048Y-85986002D01*
X78412995Y-85758000D01*
X78393048Y-85529997D01*
X78333813Y-85308931D01*
X78333811Y-85308926D01*
X78237086Y-85101498D01*
X78187100Y-85030110D01*
X78187098Y-85030110D01*
X77500000Y-85717208D01*
X77500000Y-85705339D01*
X77472741Y-85603606D01*
X77420080Y-85512394D01*
X77345606Y-85437920D01*
X77254394Y-85385259D01*
X77152661Y-85358000D01*
X77140790Y-85358000D01*
X77827888Y-84670899D01*
X77827888Y-84670898D01*
X77756501Y-84620913D01*
X77549073Y-84524188D01*
X77549068Y-84524186D01*
X77328000Y-84464951D01*
X77328004Y-84464951D01*
X77100000Y-84445004D01*
X76871997Y-84464951D01*
X76650931Y-84524186D01*
X76650926Y-84524188D01*
X76443500Y-84620913D01*
X76372109Y-84670900D01*
X77059209Y-85358000D01*
X77047339Y-85358000D01*
X76945606Y-85385259D01*
X76854394Y-85437920D01*
X76779920Y-85512394D01*
X76727259Y-85603606D01*
X76700000Y-85705339D01*
X76700000Y-85717209D01*
X76012900Y-85030109D01*
X75962913Y-85101500D01*
X75866188Y-85308926D01*
X75866186Y-85308931D01*
X75806951Y-85529997D01*
X75787004Y-85758000D01*
X73413498Y-85758000D01*
X73393543Y-85529913D01*
X73334284Y-85308757D01*
X73237523Y-85101251D01*
X73106198Y-84913700D01*
X72944300Y-84751802D01*
X72944296Y-84751799D01*
X72944291Y-84751795D01*
X72756749Y-84620477D01*
X72756745Y-84620475D01*
X72751367Y-84617967D01*
X72698083Y-84571049D01*
X72678623Y-84502771D01*
X72699166Y-84434811D01*
X72715519Y-84414683D01*
X75066699Y-82063505D01*
X75129011Y-82029479D01*
X75155794Y-82026600D01*
X77930593Y-82026600D01*
X77930594Y-82026600D01*
X78052985Y-82002255D01*
X78168275Y-81954500D01*
X78272033Y-81885171D01*
X81711128Y-78446075D01*
X81773438Y-78412051D01*
X81844253Y-78417116D01*
X81892922Y-78449834D01*
X81976762Y-78540908D01*
X82031331Y-78583381D01*
X82154424Y-78679189D01*
X82187680Y-78697186D01*
X82238071Y-78747200D01*
X82253423Y-78816516D01*
X82228862Y-78883129D01*
X82187680Y-78918814D01*
X82154426Y-78936810D01*
X82154424Y-78936811D01*
X81976762Y-79075091D01*
X81824279Y-79240729D01*
X81824275Y-79240734D01*
X81701141Y-79429206D01*
X81610703Y-79635386D01*
X81610702Y-79635387D01*
X81555437Y-79853624D01*
X81536844Y-80078000D01*
X81555437Y-80302375D01*
X81610702Y-80520612D01*
X81610703Y-80520613D01*
X81701141Y-80726793D01*
X81824275Y-80915265D01*
X81824279Y-80915270D01*
X81976762Y-81080908D01*
X82031331Y-81123381D01*
X82154424Y-81219189D01*
X82352426Y-81326342D01*
X82352427Y-81326342D01*
X82352428Y-81326343D01*
X82464227Y-81364723D01*
X82565365Y-81399444D01*
X82787431Y-81436500D01*
X82787435Y-81436500D01*
X83012565Y-81436500D01*
X83012569Y-81436500D01*
X83234635Y-81399444D01*
X83447574Y-81326342D01*
X83645576Y-81219189D01*
X83823240Y-81080906D01*
X83975722Y-80915268D01*
X84098860Y-80726791D01*
X84189296Y-80520616D01*
X84244564Y-80302368D01*
X84263156Y-80078000D01*
X84244564Y-79853632D01*
X84216817Y-79744063D01*
X84219483Y-79673119D01*
X84249864Y-79624039D01*
X84594072Y-79279833D01*
X84663401Y-79176075D01*
X84711155Y-79060784D01*
X84734627Y-78942785D01*
X84735500Y-78938394D01*
X84735500Y-76944006D01*
X84711155Y-76821615D01*
X84663400Y-76706325D01*
X84594071Y-76602567D01*
X84505833Y-76514329D01*
X84425499Y-76433995D01*
X84391473Y-76371683D01*
X84396538Y-76300868D01*
X84425499Y-76255805D01*
X84576071Y-76105233D01*
X84645400Y-76001475D01*
X84693155Y-75886185D01*
X84703283Y-75835268D01*
X84717500Y-75763794D01*
X84717500Y-74457905D01*
X84693155Y-74335514D01*
X84648138Y-74226833D01*
X84645401Y-74220224D01*
X84576072Y-74116466D01*
X84197999Y-73738393D01*
X84163973Y-73676081D01*
X84169038Y-73605266D01*
X84186224Y-73573793D01*
X84200889Y-73554204D01*
X84251989Y-73417201D01*
X84258500Y-73356638D01*
X84258500Y-71559362D01*
X84255638Y-71532738D01*
X84251990Y-71498803D01*
X84251988Y-71498795D01*
X84200889Y-71361797D01*
X84200887Y-71361792D01*
X84113261Y-71244738D01*
X83996207Y-71157112D01*
X83996202Y-71157110D01*
X83859204Y-71106011D01*
X83859196Y-71106009D01*
X83798649Y-71099500D01*
X83798638Y-71099500D01*
X82001362Y-71099500D01*
X82001350Y-71099500D01*
X81940803Y-71106009D01*
X81940795Y-71106011D01*
X81803797Y-71157110D01*
X81803792Y-71157112D01*
X81686738Y-71244738D01*
X81599112Y-71361792D01*
X81599110Y-71361797D01*
X81548011Y-71498795D01*
X81548009Y-71498803D01*
X81541500Y-71559350D01*
X81541500Y-72549406D01*
X81521498Y-72617527D01*
X81467842Y-72664020D01*
X81397568Y-72674124D01*
X81332988Y-72644630D01*
X81326405Y-72638501D01*
X81233005Y-72545101D01*
X81198979Y-72482789D01*
X81196100Y-72456006D01*
X81196100Y-69018207D01*
X81196099Y-69018203D01*
X81171755Y-68895815D01*
X81124000Y-68780525D01*
X81054671Y-68676767D01*
X81009499Y-68631595D01*
X80975473Y-68569283D01*
X80980538Y-68498468D01*
X81023085Y-68441632D01*
X81089605Y-68416821D01*
X81098594Y-68416500D01*
X81192565Y-68416500D01*
X81192569Y-68416500D01*
X81414635Y-68379444D01*
X81627574Y-68306342D01*
X81825576Y-68199189D01*
X82003240Y-68060906D01*
X82155722Y-67895268D01*
X82155927Y-67894955D01*
X82162441Y-67884983D01*
X82278860Y-67706791D01*
X82369296Y-67500616D01*
X82424564Y-67282368D01*
X82443156Y-67058000D01*
X82424564Y-66833632D01*
X82369296Y-66615384D01*
X82278860Y-66409209D01*
X82261597Y-66382786D01*
X82155724Y-66220734D01*
X82155720Y-66220729D01*
X82027667Y-66081629D01*
X82003240Y-66055094D01*
X82003239Y-66055093D01*
X82003237Y-66055091D01*
X81883367Y-65961792D01*
X81825576Y-65916811D01*
X81627574Y-65809658D01*
X81627572Y-65809657D01*
X81627571Y-65809656D01*
X81414639Y-65736557D01*
X81414630Y-65736555D01*
X81337029Y-65723606D01*
X81192569Y-65699500D01*
X80967431Y-65699500D01*
X80822971Y-65723606D01*
X80745369Y-65736555D01*
X80745360Y-65736557D01*
X80532428Y-65809656D01*
X80532426Y-65809658D01*
X80334426Y-65916810D01*
X80334424Y-65916811D01*
X80156762Y-66055091D01*
X80004279Y-66220729D01*
X79915483Y-66356643D01*
X79861479Y-66402731D01*
X79791131Y-66412306D01*
X79726774Y-66382329D01*
X79704517Y-66356643D01*
X79615720Y-66220729D01*
X79487667Y-66081629D01*
X79463240Y-66055094D01*
X79463239Y-66055093D01*
X79463237Y-66055091D01*
X79343367Y-65961792D01*
X79285576Y-65916811D01*
X79087574Y-65809658D01*
X79087572Y-65809657D01*
X79087571Y-65809656D01*
X78874639Y-65736557D01*
X78874630Y-65736555D01*
X78797029Y-65723606D01*
X78652569Y-65699500D01*
X78427431Y-65699500D01*
X78282971Y-65723606D01*
X78205369Y-65736555D01*
X78205360Y-65736557D01*
X77992428Y-65809656D01*
X77992426Y-65809658D01*
X77794426Y-65916810D01*
X77794424Y-65916811D01*
X77616762Y-66055091D01*
X77464279Y-66220729D01*
X77375483Y-66356643D01*
X77321479Y-66402731D01*
X77251131Y-66412306D01*
X77186774Y-66382329D01*
X77164517Y-66356643D01*
X77075720Y-66220729D01*
X76947667Y-66081629D01*
X76923240Y-66055094D01*
X76923239Y-66055093D01*
X76923237Y-66055091D01*
X76803367Y-65961792D01*
X76745576Y-65916811D01*
X76547574Y-65809658D01*
X76547572Y-65809657D01*
X76547571Y-65809656D01*
X76334639Y-65736557D01*
X76334630Y-65736555D01*
X76257029Y-65723606D01*
X76112569Y-65699500D01*
X75887431Y-65699500D01*
X75742971Y-65723606D01*
X75665369Y-65736555D01*
X75665360Y-65736557D01*
X75452428Y-65809656D01*
X75452426Y-65809658D01*
X75254426Y-65916810D01*
X75254423Y-65916811D01*
X75133603Y-66010850D01*
X75067560Y-66036906D01*
X74997915Y-66023120D01*
X74967117Y-66000513D01*
X74355835Y-65389231D01*
X74355833Y-65389229D01*
X74252075Y-65319900D01*
X74136785Y-65272145D01*
X74063086Y-65257485D01*
X74014396Y-65247800D01*
X74014394Y-65247800D01*
X69619094Y-65247800D01*
X69494306Y-65247800D01*
X69494303Y-65247800D01*
X69421268Y-65262328D01*
X69371915Y-65272145D01*
X69371913Y-65272145D01*
X69371912Y-65272146D01*
X69256623Y-65319901D01*
X69152871Y-65389226D01*
X69152869Y-65389227D01*
X68837794Y-65704301D01*
X68775482Y-65738326D01*
X68719781Y-65737382D01*
X68719776Y-65737414D01*
X68719563Y-65737378D01*
X68717764Y-65737348D01*
X68714642Y-65736557D01*
X68637029Y-65723606D01*
X68492569Y-65699500D01*
X68267431Y-65699500D01*
X68122971Y-65723606D01*
X68045369Y-65736555D01*
X68045360Y-65736557D01*
X67832428Y-65809656D01*
X67832426Y-65809658D01*
X67634426Y-65916810D01*
X67634424Y-65916811D01*
X67456762Y-66055091D01*
X67304279Y-66220729D01*
X67215183Y-66357101D01*
X67161179Y-66403189D01*
X67090831Y-66412764D01*
X67026474Y-66382786D01*
X67004217Y-66357100D01*
X66915327Y-66221044D01*
X66762902Y-66055465D01*
X66585301Y-65917232D01*
X66585300Y-65917231D01*
X66387371Y-65810117D01*
X66387369Y-65810116D01*
X66174512Y-65737043D01*
X66174501Y-65737040D01*
X66094000Y-65723606D01*
X66094000Y-66627297D01*
X66032993Y-66592075D01*
X65905826Y-66558000D01*
X65774174Y-66558000D01*
X65647007Y-66592075D01*
X65586000Y-66627297D01*
X65586000Y-65723607D01*
X65585999Y-65723606D01*
X65505498Y-65737040D01*
X65505487Y-65737043D01*
X65292630Y-65810116D01*
X65292628Y-65810117D01*
X65094699Y-65917231D01*
X65094698Y-65917232D01*
X64917096Y-66055465D01*
X64855951Y-66121888D01*
X64795098Y-66158459D01*
X64724134Y-66156324D01*
X64665588Y-66116163D01*
X64645195Y-66080583D01*
X64600889Y-65961796D01*
X64600887Y-65961792D01*
X64513261Y-65844738D01*
X64396207Y-65757112D01*
X64396202Y-65757110D01*
X64259204Y-65706011D01*
X64259196Y-65706009D01*
X64198649Y-65699500D01*
X64198638Y-65699500D01*
X62401362Y-65699500D01*
X62401350Y-65699500D01*
X62340803Y-65706009D01*
X62340795Y-65706011D01*
X62203797Y-65757110D01*
X62203792Y-65757112D01*
X62086738Y-65844738D01*
X61999112Y-65961792D01*
X61999110Y-65961797D01*
X61948011Y-66098795D01*
X61948009Y-66098803D01*
X61941500Y-66159350D01*
X61941500Y-67956649D01*
X61948009Y-68017196D01*
X61948011Y-68017204D01*
X61999110Y-68154202D01*
X61999112Y-68154207D01*
X62086738Y-68271261D01*
X62203792Y-68358887D01*
X62203794Y-68358888D01*
X62203796Y-68358889D01*
X62257600Y-68378957D01*
X62340795Y-68409988D01*
X62340803Y-68409990D01*
X62401350Y-68416499D01*
X62401355Y-68416499D01*
X62401362Y-68416500D01*
X63710406Y-68416500D01*
X63778527Y-68436502D01*
X63799501Y-68453405D01*
X66579096Y-71233000D01*
X66613122Y-71295312D01*
X66608057Y-71366127D01*
X66565510Y-71422963D01*
X66522613Y-71443801D01*
X66463814Y-71459556D01*
X66463801Y-71459561D01*
X66262322Y-71553512D01*
X66216976Y-71585263D01*
X66149702Y-71607949D01*
X66080842Y-71590662D01*
X66043840Y-71557557D01*
X66025261Y-71532738D01*
X65908207Y-71445112D01*
X65908202Y-71445110D01*
X65771204Y-71394011D01*
X65771196Y-71394009D01*
X65710649Y-71387500D01*
X65710638Y-71387500D01*
X64089362Y-71387500D01*
X64089350Y-71387500D01*
X64028803Y-71394009D01*
X64028795Y-71394011D01*
X63891797Y-71445110D01*
X63891792Y-71445112D01*
X63774738Y-71532738D01*
X63687112Y-71649792D01*
X63687110Y-71649797D01*
X63636011Y-71786795D01*
X63636009Y-71786803D01*
X63629500Y-71847350D01*
X63629500Y-73468649D01*
X63636009Y-73529196D01*
X63636011Y-73529204D01*
X63687110Y-73666202D01*
X63687112Y-73666207D01*
X63774738Y-73783261D01*
X63891792Y-73870887D01*
X63891794Y-73870888D01*
X63891796Y-73870889D01*
X63950875Y-73892924D01*
X64028795Y-73921988D01*
X64028803Y-73921990D01*
X64089350Y-73928499D01*
X64089355Y-73928499D01*
X64089362Y-73928500D01*
X64089368Y-73928500D01*
X65710632Y-73928500D01*
X65710638Y-73928500D01*
X65710645Y-73928499D01*
X65710649Y-73928499D01*
X65771196Y-73921990D01*
X65771199Y-73921989D01*
X65771201Y-73921989D01*
X65908204Y-73870889D01*
X66025261Y-73783261D01*
X66043840Y-73758442D01*
X66100674Y-73715896D01*
X66171490Y-73710830D01*
X66216979Y-73730738D01*
X66262323Y-73762488D01*
X66463804Y-73856440D01*
X66678537Y-73913978D01*
X66900000Y-73933353D01*
X67121463Y-73913978D01*
X67336196Y-73856440D01*
X67537677Y-73762488D01*
X67719781Y-73634977D01*
X67810905Y-73543853D01*
X67873217Y-73509827D01*
X67944032Y-73514892D01*
X67989095Y-73543853D01*
X68080219Y-73634977D01*
X68080223Y-73634980D01*
X68080227Y-73634983D01*
X68124820Y-73666207D01*
X68262323Y-73762488D01*
X68463804Y-73856440D01*
X68678537Y-73913978D01*
X68900000Y-73933353D01*
X69121463Y-73913978D01*
X69336196Y-73856440D01*
X69537677Y-73762488D01*
X69719781Y-73634977D01*
X69876977Y-73477781D01*
X70004488Y-73295677D01*
X70083675Y-73125858D01*
X70108773Y-73090015D01*
X70519000Y-72679788D01*
X70519000Y-72708160D01*
X70544964Y-72805061D01*
X70595124Y-72891940D01*
X70666060Y-72962876D01*
X70752939Y-73013036D01*
X70849840Y-73039000D01*
X70878210Y-73039000D01*
X70199395Y-73717813D01*
X70199395Y-73717814D01*
X70262575Y-73762053D01*
X70262574Y-73762053D01*
X70463972Y-73855966D01*
X70463976Y-73855968D01*
X70678625Y-73913482D01*
X70900000Y-73932850D01*
X71121376Y-73913482D01*
X71121378Y-73913482D01*
X71193267Y-73894219D01*
X71264243Y-73895908D01*
X71323039Y-73935701D01*
X71350988Y-74000965D01*
X71339215Y-74070979D01*
X71314974Y-74105020D01*
X61511367Y-83908629D01*
X61423131Y-83996864D01*
X61423126Y-83996871D01*
X61353801Y-84100623D01*
X61306046Y-84215912D01*
X61281700Y-84338303D01*
X61281700Y-87984900D01*
X61261698Y-88053021D01*
X61208042Y-88099514D01*
X61155700Y-88110900D01*
X61028350Y-88110900D01*
X60967803Y-88117409D01*
X60967799Y-88117410D01*
X60941532Y-88127208D01*
X60870716Y-88132272D01*
X60808404Y-88098247D01*
X60774379Y-88035935D01*
X60771500Y-88009152D01*
X60771500Y-78758000D01*
X61546502Y-78758000D01*
X61551621Y-78816516D01*
X61566457Y-78986086D01*
X61625715Y-79207240D01*
X61625717Y-79207246D01*
X61659565Y-79279833D01*
X61722477Y-79414749D01*
X61853802Y-79602300D01*
X62015700Y-79764198D01*
X62203251Y-79895523D01*
X62410757Y-79992284D01*
X62631913Y-80051543D01*
X62860000Y-80071498D01*
X63088087Y-80051543D01*
X63309243Y-79992284D01*
X63516749Y-79895523D01*
X63704300Y-79764198D01*
X63866198Y-79602300D01*
X63997523Y-79414749D01*
X64094284Y-79207243D01*
X64153543Y-78986087D01*
X64173498Y-78758000D01*
X64153543Y-78529913D01*
X64094284Y-78308757D01*
X63997523Y-78101251D01*
X63866198Y-77913700D01*
X63704300Y-77751802D01*
X63516749Y-77620477D01*
X63309246Y-77523717D01*
X63309240Y-77523715D01*
X63215771Y-77498670D01*
X63088087Y-77464457D01*
X62860000Y-77444502D01*
X62631913Y-77464457D01*
X62410759Y-77523715D01*
X62410753Y-77523717D01*
X62203250Y-77620477D01*
X62015703Y-77751799D01*
X62015697Y-77751804D01*
X61853804Y-77913697D01*
X61853799Y-77913703D01*
X61722477Y-78101250D01*
X61625717Y-78308753D01*
X61625715Y-78308759D01*
X61607894Y-78375268D01*
X61566457Y-78529913D01*
X61546502Y-78758000D01*
X60771500Y-78758000D01*
X60771500Y-64259500D01*
X60791502Y-64191379D01*
X60845158Y-64144886D01*
X60897500Y-64133500D01*
X85894500Y-64133500D01*
X85962621Y-64153502D01*
G37*
G04 #@! TD.AperFunction*
G04 #@! TA.AperFunction,Conductor*
G36*
X66094000Y-68392390D02*
G01*
X66174507Y-68378957D01*
X66174516Y-68378955D01*
X66387369Y-68305883D01*
X66387371Y-68305882D01*
X66585300Y-68198768D01*
X66585301Y-68198767D01*
X66762902Y-68060534D01*
X66915327Y-67894955D01*
X67004217Y-67758899D01*
X67058220Y-67712810D01*
X67128568Y-67703235D01*
X67192925Y-67733212D01*
X67215183Y-67758898D01*
X67304279Y-67895270D01*
X67456762Y-68060908D01*
X67511331Y-68103381D01*
X67634424Y-68199189D01*
X67832426Y-68306342D01*
X67832427Y-68306342D01*
X67832428Y-68306343D01*
X67915671Y-68334920D01*
X68045365Y-68379444D01*
X68267431Y-68416500D01*
X68267435Y-68416500D01*
X68492565Y-68416500D01*
X68492569Y-68416500D01*
X68714635Y-68379444D01*
X68927574Y-68306342D01*
X69125576Y-68199189D01*
X69303240Y-68060906D01*
X69455722Y-67895268D01*
X69455927Y-67894955D01*
X69461115Y-67887012D01*
X69544518Y-67759354D01*
X69598520Y-67713268D01*
X69668868Y-67703692D01*
X69733225Y-67733669D01*
X69755480Y-67759353D01*
X69788607Y-67810058D01*
X69844275Y-67895265D01*
X69844279Y-67895270D01*
X69996762Y-68060908D01*
X70051331Y-68103381D01*
X70174424Y-68199189D01*
X70372426Y-68306342D01*
X70372427Y-68306342D01*
X70372428Y-68306343D01*
X70455671Y-68334920D01*
X70585365Y-68379444D01*
X70807431Y-68416500D01*
X70807435Y-68416500D01*
X71032565Y-68416500D01*
X71032569Y-68416500D01*
X71254635Y-68379444D01*
X71467574Y-68306342D01*
X71665576Y-68199189D01*
X71843240Y-68060906D01*
X71995722Y-67895268D01*
X71995927Y-67894955D01*
X72001115Y-67887012D01*
X72084518Y-67759354D01*
X72138520Y-67713268D01*
X72208868Y-67703692D01*
X72273225Y-67733669D01*
X72295480Y-67759353D01*
X72328607Y-67810058D01*
X72384275Y-67895265D01*
X72384279Y-67895270D01*
X72536762Y-68060908D01*
X72625592Y-68130047D01*
X72714424Y-68199189D01*
X72760471Y-68224108D01*
X72810859Y-68274118D01*
X72826500Y-68334920D01*
X72826500Y-72541305D01*
X72806498Y-72609426D01*
X72789599Y-72630395D01*
X72566399Y-72853596D01*
X72347020Y-73072975D01*
X72284708Y-73107000D01*
X72213892Y-73101935D01*
X72157057Y-73059388D01*
X72132246Y-72992868D01*
X72136219Y-72951267D01*
X72155482Y-72879378D01*
X72155482Y-72879376D01*
X72174850Y-72658000D01*
X72155482Y-72436625D01*
X72097968Y-72221976D01*
X72097966Y-72221972D01*
X72004051Y-72020571D01*
X71959815Y-71957395D01*
X71959812Y-71957395D01*
X71281000Y-72636208D01*
X71281000Y-72607840D01*
X71255036Y-72510939D01*
X71204876Y-72424060D01*
X71133940Y-72353124D01*
X71047061Y-72302964D01*
X70950160Y-72277000D01*
X70921790Y-72277000D01*
X71600603Y-71598185D01*
X71600603Y-71598184D01*
X71537425Y-71553946D01*
X71336027Y-71460033D01*
X71336023Y-71460031D01*
X71121374Y-71402517D01*
X70900000Y-71383149D01*
X70678625Y-71402517D01*
X70463976Y-71460031D01*
X70463972Y-71460033D01*
X70262575Y-71553946D01*
X70199394Y-71598185D01*
X70878209Y-72277000D01*
X70849840Y-72277000D01*
X70752939Y-72302964D01*
X70666060Y-72353124D01*
X70595124Y-72424060D01*
X70544964Y-72510939D01*
X70519000Y-72607840D01*
X70519000Y-72636210D01*
X70108773Y-72225984D01*
X70083675Y-72190141D01*
X70004488Y-72020324D01*
X69876977Y-71838219D01*
X69719781Y-71681023D01*
X69719777Y-71681020D01*
X69719772Y-71681016D01*
X69537677Y-71553512D01*
X69537675Y-71553511D01*
X69336199Y-71459561D01*
X69336193Y-71459559D01*
X69277383Y-71443801D01*
X69121463Y-71402022D01*
X68900000Y-71382647D01*
X68678536Y-71402022D01*
X68678531Y-71402023D01*
X68639481Y-71412486D01*
X68568505Y-71410795D01*
X68517778Y-71379874D01*
X65622905Y-68485001D01*
X65588879Y-68422689D01*
X65586000Y-68395906D01*
X65586000Y-67488702D01*
X65647007Y-67523925D01*
X65774174Y-67558000D01*
X65905826Y-67558000D01*
X66032993Y-67523925D01*
X66094000Y-67488702D01*
X66094000Y-68392390D01*
G37*
G04 #@! TD.AperFunction*
M02*
