M48
; DRILL file {KiCad 8.0.6} date 2025-01-06T22:58:20-0500
; FORMAT={-:-/ absolute / inch / decimal}
; #@! TF.CreationDate,2025-01-06T22:58:20-05:00
; #@! TF.GenerationSoftware,Kicad,Pcbnew,8.0.6
; #@! TF.FileFunction,Plated,1,2,PTH
FMAT,2
INCH
; #@! TA.AperFunction,Plated,PTH,ViaDrill
T1C0.0157
; #@! TA.AperFunction,Plated,PTH,ComponentDrill
T2C0.0300
; #@! TA.AperFunction,Plated,PTH,ComponentDrill
T3C0.0315
; #@! TA.AperFunction,Plated,PTH,ComponentDrill
T4C0.0350
; #@! TA.AperFunction,Plated,PTH,ComponentDrill
T5C0.0394
%
G90
G05
T1
X2.5493Y-3.6845
X2.8681Y-3.7471
X3.2233Y-3.7831
X3.2612Y-3.4587
T2
X2.5551Y-2.8606
X2.6339Y-2.8606
X2.7126Y-2.8606
X2.7913Y-2.8606
T3
X2.4748Y-3.1007
X2.7028Y-4.1578
X2.7217Y-3.6007
X2.7217Y-3.7007
X2.7217Y-3.8007
X2.7217Y-3.9007
X2.8386Y-3.3763
X2.8996Y-4.1578
X3.0217Y-3.6007
X3.0217Y-3.7007
X3.0217Y-3.8007
X3.0217Y-3.9007
X3.0354Y-3.3763
X3.0748Y-3.1007
T4
X2.4376Y-3.522
X2.4376Y-3.622
X2.4376Y-3.722
X2.4376Y-3.822
X2.4376Y-3.922
X2.4376Y-4.022
X2.4376Y-4.122
X2.4376Y-4.222
X3.3376Y-3.522
X3.3376Y-3.622
X3.3376Y-3.722
X3.3376Y-3.822
X3.3376Y-3.922
X3.3376Y-4.022
X3.3376Y-4.122
X3.3376Y-4.222
T5
X2.4921Y-2.6401
X2.5921Y-2.6401
X2.622Y-3.3094
X2.622Y-3.4094
X2.6921Y-2.6401
X2.7921Y-2.6401
X2.8921Y-2.6401
X2.9921Y-2.6401
X3.0921Y-2.6401
X3.1921Y-2.6401
X3.1969Y-3.3763
X3.2638Y-2.8527
X3.2638Y-2.9527
X3.2638Y-3.0527
X3.2638Y-3.1527
X3.2969Y-3.3763
M30
