%TF.GenerationSoftware,KiCad,Pcbnew,8.0.6*%
%TF.CreationDate,2025-01-06T22:58:19-05:00*%
%TF.ProjectId,MikroBusCAN,4d696b72-6f42-4757-9343-414e2e6b6963,rev?*%
%TF.SameCoordinates,Original*%
%TF.FileFunction,Drillmap*%
%TF.FilePolarity,Positive*%
%FSLAX45Y45*%
G04 Gerber Fmt 4.5, Leading zero omitted, Abs format (unit mm)*
G04 Created by KiCad (PCBNEW 8.0.6) date 2025-01-06 22:58:19*
%MOMM*%
%LPD*%
G01*
G04 APERTURE LIST*
%ADD10C,0.150000*%
%ADD11C,0.200000*%
%ADD12C,0.100000*%
G04 APERTURE END LIST*
D10*
X8609600Y-6405800D02*
X6069600Y-6405800D01*
X8609600Y-10866000D02*
X8609600Y-6405800D01*
X6069600Y-11105800D02*
X8355600Y-11105800D01*
X8355600Y-11105800D02*
X8609600Y-10866000D01*
X6069600Y-6405800D02*
X6069600Y-11105800D01*
D11*
D12*
X6455200Y-9338730D02*
X6495200Y-9378730D01*
X6495200Y-9338730D02*
X6455200Y-9378730D01*
X7264870Y-9497670D02*
X7304870Y-9537670D01*
X7304870Y-9497670D02*
X7264870Y-9537670D01*
X8167280Y-9589080D02*
X8207280Y-9629080D01*
X8207280Y-9589080D02*
X8167280Y-9629080D01*
X8263340Y-8765180D02*
X8303340Y-8805180D01*
X8303340Y-8765180D02*
X8263340Y-8805180D01*
X6528100Y-7265800D02*
G75*
G02*
X6451900Y-7265800I-38100J0D01*
G01*
X6451900Y-7265800D02*
G75*
G02*
X6528100Y-7265800I38100J0D01*
G01*
X6728100Y-7265800D02*
G75*
G02*
X6651900Y-7265800I-38100J0D01*
G01*
X6651900Y-7265800D02*
G75*
G02*
X6728100Y-7265800I38100J0D01*
G01*
X6928100Y-7265800D02*
G75*
G02*
X6851900Y-7265800I-38100J0D01*
G01*
X6851900Y-7265800D02*
G75*
G02*
X6928100Y-7265800I38100J0D01*
G01*
X7128100Y-7265800D02*
G75*
G02*
X7051900Y-7265800I-38100J0D01*
G01*
X7051900Y-7265800D02*
G75*
G02*
X7128100Y-7265800I38100J0D01*
G01*
X6286000Y-7835800D02*
X6286000Y-7915800D01*
X6246000Y-7875800D02*
X6326000Y-7875800D01*
X6865000Y-10520800D02*
X6865000Y-10600800D01*
X6825000Y-10560800D02*
X6905000Y-10560800D01*
X6913000Y-9105800D02*
X6913000Y-9185800D01*
X6873000Y-9145800D02*
X6953000Y-9145800D01*
X6913000Y-9359800D02*
X6913000Y-9439800D01*
X6873000Y-9399800D02*
X6953000Y-9399800D01*
X6913000Y-9613800D02*
X6913000Y-9693800D01*
X6873000Y-9653800D02*
X6953000Y-9653800D01*
X6913000Y-9867800D02*
X6913000Y-9947800D01*
X6873000Y-9907800D02*
X6953000Y-9907800D01*
X7210000Y-8535800D02*
X7210000Y-8615800D01*
X7170000Y-8575800D02*
X7250000Y-8575800D01*
X7365000Y-10520800D02*
X7365000Y-10600800D01*
X7325000Y-10560800D02*
X7405000Y-10560800D01*
X7675000Y-9105800D02*
X7675000Y-9185800D01*
X7635000Y-9145800D02*
X7715000Y-9145800D01*
X7675000Y-9359800D02*
X7675000Y-9439800D01*
X7635000Y-9399800D02*
X7715000Y-9399800D01*
X7675000Y-9613800D02*
X7675000Y-9693800D01*
X7635000Y-9653800D02*
X7715000Y-9653800D01*
X7675000Y-9867800D02*
X7675000Y-9947800D01*
X7635000Y-9907800D02*
X7715000Y-9907800D01*
X7710000Y-8535800D02*
X7710000Y-8615800D01*
X7670000Y-8575800D02*
X7750000Y-8575800D01*
X7810000Y-7835800D02*
X7810000Y-7915800D01*
X7770000Y-7875800D02*
X7850000Y-7875800D01*
X6222951Y-8977191D02*
X6222951Y-8914329D01*
X6160089Y-8914329D01*
X6160089Y-8977191D01*
X6222951Y-8977191D01*
X6222951Y-9231191D02*
X6222951Y-9168329D01*
X6160089Y-9168329D01*
X6160089Y-9231191D01*
X6222951Y-9231191D01*
X6222951Y-9485191D02*
X6222951Y-9422329D01*
X6160089Y-9422329D01*
X6160089Y-9485191D01*
X6222951Y-9485191D01*
X6222951Y-9739191D02*
X6222951Y-9676329D01*
X6160089Y-9676329D01*
X6160089Y-9739191D01*
X6222951Y-9739191D01*
X6222951Y-9993191D02*
X6222951Y-9930329D01*
X6160089Y-9930329D01*
X6160089Y-9993191D01*
X6222951Y-9993191D01*
X6222951Y-10247191D02*
X6222951Y-10184329D01*
X6160089Y-10184329D01*
X6160089Y-10247191D01*
X6222951Y-10247191D01*
X6222951Y-10501191D02*
X6222951Y-10438329D01*
X6160089Y-10438329D01*
X6160089Y-10501191D01*
X6222951Y-10501191D01*
X6222951Y-10755191D02*
X6222951Y-10692329D01*
X6160089Y-10692329D01*
X6160089Y-10755191D01*
X6222951Y-10755191D01*
X8508951Y-8977191D02*
X8508951Y-8914329D01*
X8446089Y-8914329D01*
X8446089Y-8977191D01*
X8508951Y-8977191D01*
X8508951Y-9231191D02*
X8508951Y-9168329D01*
X8446089Y-9168329D01*
X8446089Y-9231191D01*
X8508951Y-9231191D01*
X8508951Y-9485191D02*
X8508951Y-9422329D01*
X8446089Y-9422329D01*
X8446089Y-9485191D01*
X8508951Y-9485191D01*
X8508951Y-9739191D02*
X8508951Y-9676329D01*
X8446089Y-9676329D01*
X8446089Y-9739191D01*
X8508951Y-9739191D01*
X8508951Y-9993191D02*
X8508951Y-9930329D01*
X8446089Y-9930329D01*
X8446089Y-9993191D01*
X8508951Y-9993191D01*
X8508951Y-10247191D02*
X8508951Y-10184329D01*
X8446089Y-10184329D01*
X8446089Y-10247191D01*
X8508951Y-10247191D01*
X8508951Y-10501191D02*
X8508951Y-10438329D01*
X8446089Y-10438329D01*
X8446089Y-10501191D01*
X8508951Y-10501191D01*
X8508951Y-10755191D02*
X8508951Y-10692329D01*
X8446089Y-10692329D01*
X8446089Y-10755191D01*
X8508951Y-10755191D01*
X6330000Y-6755800D02*
X6380000Y-6705800D01*
X6330000Y-6655800D01*
X6280000Y-6705800D01*
X6330000Y-6755800D01*
X6584000Y-6755800D02*
X6634000Y-6705800D01*
X6584000Y-6655800D01*
X6534000Y-6705800D01*
X6584000Y-6755800D01*
X6660000Y-8455800D02*
X6710000Y-8405800D01*
X6660000Y-8355800D01*
X6610000Y-8405800D01*
X6660000Y-8455800D01*
X6660000Y-8709800D02*
X6710000Y-8659800D01*
X6660000Y-8609800D01*
X6610000Y-8659800D01*
X6660000Y-8709800D01*
X6838000Y-6755800D02*
X6888000Y-6705800D01*
X6838000Y-6655800D01*
X6788000Y-6705800D01*
X6838000Y-6755800D01*
X7092000Y-6755800D02*
X7142000Y-6705800D01*
X7092000Y-6655800D01*
X7042000Y-6705800D01*
X7092000Y-6755800D01*
X7346000Y-6755800D02*
X7396000Y-6705800D01*
X7346000Y-6655800D01*
X7296000Y-6705800D01*
X7346000Y-6755800D01*
X7600000Y-6755800D02*
X7650000Y-6705800D01*
X7600000Y-6655800D01*
X7550000Y-6705800D01*
X7600000Y-6755800D01*
X7854000Y-6755800D02*
X7904000Y-6705800D01*
X7854000Y-6655800D01*
X7804000Y-6705800D01*
X7854000Y-6755800D01*
X8108000Y-6755800D02*
X8158000Y-6705800D01*
X8108000Y-6655800D01*
X8058000Y-6705800D01*
X8108000Y-6755800D01*
X8120000Y-8625800D02*
X8170000Y-8575800D01*
X8120000Y-8525800D01*
X8070000Y-8575800D01*
X8120000Y-8625800D01*
X8290000Y-7295800D02*
X8340000Y-7245800D01*
X8290000Y-7195800D01*
X8240000Y-7245800D01*
X8290000Y-7295800D01*
X8290000Y-7549800D02*
X8340000Y-7499800D01*
X8290000Y-7449800D01*
X8240000Y-7499800D01*
X8290000Y-7549800D01*
X8290000Y-7803800D02*
X8340000Y-7753800D01*
X8290000Y-7703800D01*
X8240000Y-7753800D01*
X8290000Y-7803800D01*
X8290000Y-8057800D02*
X8340000Y-8007800D01*
X8290000Y-7957800D01*
X8240000Y-8007800D01*
X8290000Y-8057800D01*
X8374000Y-8625800D02*
X8424000Y-8575800D01*
X8374000Y-8525800D01*
X8324000Y-8575800D01*
X8374000Y-8625800D01*
D11*
X6322877Y-11424784D02*
X6322877Y-11224784D01*
X6322877Y-11224784D02*
X6370496Y-11224784D01*
X6370496Y-11224784D02*
X6399067Y-11234308D01*
X6399067Y-11234308D02*
X6418115Y-11253355D01*
X6418115Y-11253355D02*
X6427639Y-11272403D01*
X6427639Y-11272403D02*
X6437162Y-11310498D01*
X6437162Y-11310498D02*
X6437162Y-11339069D01*
X6437162Y-11339069D02*
X6427639Y-11377165D01*
X6427639Y-11377165D02*
X6418115Y-11396212D01*
X6418115Y-11396212D02*
X6399067Y-11415260D01*
X6399067Y-11415260D02*
X6370496Y-11424784D01*
X6370496Y-11424784D02*
X6322877Y-11424784D01*
X6522877Y-11424784D02*
X6522877Y-11291450D01*
X6522877Y-11329546D02*
X6532401Y-11310498D01*
X6532401Y-11310498D02*
X6541924Y-11300974D01*
X6541924Y-11300974D02*
X6560972Y-11291450D01*
X6560972Y-11291450D02*
X6580020Y-11291450D01*
X6646686Y-11424784D02*
X6646686Y-11291450D01*
X6646686Y-11224784D02*
X6637162Y-11234308D01*
X6637162Y-11234308D02*
X6646686Y-11243831D01*
X6646686Y-11243831D02*
X6656210Y-11234308D01*
X6656210Y-11234308D02*
X6646686Y-11224784D01*
X6646686Y-11224784D02*
X6646686Y-11243831D01*
X6770496Y-11424784D02*
X6751448Y-11415260D01*
X6751448Y-11415260D02*
X6741924Y-11396212D01*
X6741924Y-11396212D02*
X6741924Y-11224784D01*
X6875258Y-11424784D02*
X6856210Y-11415260D01*
X6856210Y-11415260D02*
X6846686Y-11396212D01*
X6846686Y-11396212D02*
X6846686Y-11224784D01*
X7103829Y-11424784D02*
X7103829Y-11224784D01*
X7103829Y-11224784D02*
X7170496Y-11367641D01*
X7170496Y-11367641D02*
X7237162Y-11224784D01*
X7237162Y-11224784D02*
X7237162Y-11424784D01*
X7418115Y-11424784D02*
X7418115Y-11320022D01*
X7418115Y-11320022D02*
X7408591Y-11300974D01*
X7408591Y-11300974D02*
X7389543Y-11291450D01*
X7389543Y-11291450D02*
X7351448Y-11291450D01*
X7351448Y-11291450D02*
X7332401Y-11300974D01*
X7418115Y-11415260D02*
X7399067Y-11424784D01*
X7399067Y-11424784D02*
X7351448Y-11424784D01*
X7351448Y-11424784D02*
X7332401Y-11415260D01*
X7332401Y-11415260D02*
X7322877Y-11396212D01*
X7322877Y-11396212D02*
X7322877Y-11377165D01*
X7322877Y-11377165D02*
X7332401Y-11358117D01*
X7332401Y-11358117D02*
X7351448Y-11348593D01*
X7351448Y-11348593D02*
X7399067Y-11348593D01*
X7399067Y-11348593D02*
X7418115Y-11339069D01*
X7513353Y-11291450D02*
X7513353Y-11491450D01*
X7513353Y-11300974D02*
X7532401Y-11291450D01*
X7532401Y-11291450D02*
X7570496Y-11291450D01*
X7570496Y-11291450D02*
X7589543Y-11300974D01*
X7589543Y-11300974D02*
X7599067Y-11310498D01*
X7599067Y-11310498D02*
X7608591Y-11329546D01*
X7608591Y-11329546D02*
X7608591Y-11386688D01*
X7608591Y-11386688D02*
X7599067Y-11405736D01*
X7599067Y-11405736D02*
X7589543Y-11415260D01*
X7589543Y-11415260D02*
X7570496Y-11424784D01*
X7570496Y-11424784D02*
X7532401Y-11424784D01*
X7532401Y-11424784D02*
X7513353Y-11415260D01*
X7694305Y-11405736D02*
X7703829Y-11415260D01*
X7703829Y-11415260D02*
X7694305Y-11424784D01*
X7694305Y-11424784D02*
X7684782Y-11415260D01*
X7684782Y-11415260D02*
X7694305Y-11405736D01*
X7694305Y-11405736D02*
X7694305Y-11424784D01*
X7694305Y-11300974D02*
X7703829Y-11310498D01*
X7703829Y-11310498D02*
X7694305Y-11320022D01*
X7694305Y-11320022D02*
X7684782Y-11310498D01*
X7684782Y-11310498D02*
X7694305Y-11300974D01*
X7694305Y-11300974D02*
X7694305Y-11320022D01*
D12*
X6022100Y-11733300D02*
X6062100Y-11773300D01*
X6062100Y-11733300D02*
X6022100Y-11773300D01*
D11*
X6360972Y-11644784D02*
X6380020Y-11644784D01*
X6380020Y-11644784D02*
X6399067Y-11654308D01*
X6399067Y-11654308D02*
X6408591Y-11663831D01*
X6408591Y-11663831D02*
X6418115Y-11682879D01*
X6418115Y-11682879D02*
X6427639Y-11720974D01*
X6427639Y-11720974D02*
X6427639Y-11768593D01*
X6427639Y-11768593D02*
X6418115Y-11806688D01*
X6418115Y-11806688D02*
X6408591Y-11825736D01*
X6408591Y-11825736D02*
X6399067Y-11835260D01*
X6399067Y-11835260D02*
X6380020Y-11844784D01*
X6380020Y-11844784D02*
X6360972Y-11844784D01*
X6360972Y-11844784D02*
X6341924Y-11835260D01*
X6341924Y-11835260D02*
X6332401Y-11825736D01*
X6332401Y-11825736D02*
X6322877Y-11806688D01*
X6322877Y-11806688D02*
X6313353Y-11768593D01*
X6313353Y-11768593D02*
X6313353Y-11720974D01*
X6313353Y-11720974D02*
X6322877Y-11682879D01*
X6322877Y-11682879D02*
X6332401Y-11663831D01*
X6332401Y-11663831D02*
X6341924Y-11654308D01*
X6341924Y-11654308D02*
X6360972Y-11644784D01*
X6513353Y-11825736D02*
X6522877Y-11835260D01*
X6522877Y-11835260D02*
X6513353Y-11844784D01*
X6513353Y-11844784D02*
X6503829Y-11835260D01*
X6503829Y-11835260D02*
X6513353Y-11825736D01*
X6513353Y-11825736D02*
X6513353Y-11844784D01*
X6694305Y-11711450D02*
X6694305Y-11844784D01*
X6646686Y-11635260D02*
X6599067Y-11778117D01*
X6599067Y-11778117D02*
X6722877Y-11778117D01*
X6837162Y-11644784D02*
X6856210Y-11644784D01*
X6856210Y-11644784D02*
X6875258Y-11654308D01*
X6875258Y-11654308D02*
X6884782Y-11663831D01*
X6884782Y-11663831D02*
X6894305Y-11682879D01*
X6894305Y-11682879D02*
X6903829Y-11720974D01*
X6903829Y-11720974D02*
X6903829Y-11768593D01*
X6903829Y-11768593D02*
X6894305Y-11806688D01*
X6894305Y-11806688D02*
X6884782Y-11825736D01*
X6884782Y-11825736D02*
X6875258Y-11835260D01*
X6875258Y-11835260D02*
X6856210Y-11844784D01*
X6856210Y-11844784D02*
X6837162Y-11844784D01*
X6837162Y-11844784D02*
X6818115Y-11835260D01*
X6818115Y-11835260D02*
X6808591Y-11825736D01*
X6808591Y-11825736D02*
X6799067Y-11806688D01*
X6799067Y-11806688D02*
X6789543Y-11768593D01*
X6789543Y-11768593D02*
X6789543Y-11720974D01*
X6789543Y-11720974D02*
X6799067Y-11682879D01*
X6799067Y-11682879D02*
X6808591Y-11663831D01*
X6808591Y-11663831D02*
X6818115Y-11654308D01*
X6818115Y-11654308D02*
X6837162Y-11644784D01*
X7027639Y-11644784D02*
X7046686Y-11644784D01*
X7046686Y-11644784D02*
X7065734Y-11654308D01*
X7065734Y-11654308D02*
X7075258Y-11663831D01*
X7075258Y-11663831D02*
X7084782Y-11682879D01*
X7084782Y-11682879D02*
X7094305Y-11720974D01*
X7094305Y-11720974D02*
X7094305Y-11768593D01*
X7094305Y-11768593D02*
X7084782Y-11806688D01*
X7084782Y-11806688D02*
X7075258Y-11825736D01*
X7075258Y-11825736D02*
X7065734Y-11835260D01*
X7065734Y-11835260D02*
X7046686Y-11844784D01*
X7046686Y-11844784D02*
X7027639Y-11844784D01*
X7027639Y-11844784D02*
X7008591Y-11835260D01*
X7008591Y-11835260D02*
X6999067Y-11825736D01*
X6999067Y-11825736D02*
X6989543Y-11806688D01*
X6989543Y-11806688D02*
X6980020Y-11768593D01*
X6980020Y-11768593D02*
X6980020Y-11720974D01*
X6980020Y-11720974D02*
X6989543Y-11682879D01*
X6989543Y-11682879D02*
X6999067Y-11663831D01*
X6999067Y-11663831D02*
X7008591Y-11654308D01*
X7008591Y-11654308D02*
X7027639Y-11644784D01*
X7180020Y-11844784D02*
X7180020Y-11711450D01*
X7180020Y-11730498D02*
X7189543Y-11720974D01*
X7189543Y-11720974D02*
X7208591Y-11711450D01*
X7208591Y-11711450D02*
X7237163Y-11711450D01*
X7237163Y-11711450D02*
X7256210Y-11720974D01*
X7256210Y-11720974D02*
X7265734Y-11740022D01*
X7265734Y-11740022D02*
X7265734Y-11844784D01*
X7265734Y-11740022D02*
X7275258Y-11720974D01*
X7275258Y-11720974D02*
X7294305Y-11711450D01*
X7294305Y-11711450D02*
X7322877Y-11711450D01*
X7322877Y-11711450D02*
X7341924Y-11720974D01*
X7341924Y-11720974D02*
X7351448Y-11740022D01*
X7351448Y-11740022D02*
X7351448Y-11844784D01*
X7446686Y-11844784D02*
X7446686Y-11711450D01*
X7446686Y-11730498D02*
X7456210Y-11720974D01*
X7456210Y-11720974D02*
X7475258Y-11711450D01*
X7475258Y-11711450D02*
X7503829Y-11711450D01*
X7503829Y-11711450D02*
X7522877Y-11720974D01*
X7522877Y-11720974D02*
X7532401Y-11740022D01*
X7532401Y-11740022D02*
X7532401Y-11844784D01*
X7532401Y-11740022D02*
X7541924Y-11720974D01*
X7541924Y-11720974D02*
X7560972Y-11711450D01*
X7560972Y-11711450D02*
X7589543Y-11711450D01*
X7589543Y-11711450D02*
X7608591Y-11720974D01*
X7608591Y-11720974D02*
X7618115Y-11740022D01*
X7618115Y-11740022D02*
X7618115Y-11844784D01*
X8008591Y-11635260D02*
X7837163Y-11892403D01*
X8265734Y-11644784D02*
X8284782Y-11644784D01*
X8284782Y-11644784D02*
X8303829Y-11654308D01*
X8303829Y-11654308D02*
X8313353Y-11663831D01*
X8313353Y-11663831D02*
X8322877Y-11682879D01*
X8322877Y-11682879D02*
X8332401Y-11720974D01*
X8332401Y-11720974D02*
X8332401Y-11768593D01*
X8332401Y-11768593D02*
X8322877Y-11806688D01*
X8322877Y-11806688D02*
X8313353Y-11825736D01*
X8313353Y-11825736D02*
X8303829Y-11835260D01*
X8303829Y-11835260D02*
X8284782Y-11844784D01*
X8284782Y-11844784D02*
X8265734Y-11844784D01*
X8265734Y-11844784D02*
X8246686Y-11835260D01*
X8246686Y-11835260D02*
X8237163Y-11825736D01*
X8237163Y-11825736D02*
X8227639Y-11806688D01*
X8227639Y-11806688D02*
X8218115Y-11768593D01*
X8218115Y-11768593D02*
X8218115Y-11720974D01*
X8218115Y-11720974D02*
X8227639Y-11682879D01*
X8227639Y-11682879D02*
X8237163Y-11663831D01*
X8237163Y-11663831D02*
X8246686Y-11654308D01*
X8246686Y-11654308D02*
X8265734Y-11644784D01*
X8418115Y-11825736D02*
X8427639Y-11835260D01*
X8427639Y-11835260D02*
X8418115Y-11844784D01*
X8418115Y-11844784D02*
X8408591Y-11835260D01*
X8408591Y-11835260D02*
X8418115Y-11825736D01*
X8418115Y-11825736D02*
X8418115Y-11844784D01*
X8551448Y-11644784D02*
X8570496Y-11644784D01*
X8570496Y-11644784D02*
X8589544Y-11654308D01*
X8589544Y-11654308D02*
X8599068Y-11663831D01*
X8599068Y-11663831D02*
X8608591Y-11682879D01*
X8608591Y-11682879D02*
X8618115Y-11720974D01*
X8618115Y-11720974D02*
X8618115Y-11768593D01*
X8618115Y-11768593D02*
X8608591Y-11806688D01*
X8608591Y-11806688D02*
X8599068Y-11825736D01*
X8599068Y-11825736D02*
X8589544Y-11835260D01*
X8589544Y-11835260D02*
X8570496Y-11844784D01*
X8570496Y-11844784D02*
X8551448Y-11844784D01*
X8551448Y-11844784D02*
X8532401Y-11835260D01*
X8532401Y-11835260D02*
X8522877Y-11825736D01*
X8522877Y-11825736D02*
X8513353Y-11806688D01*
X8513353Y-11806688D02*
X8503829Y-11768593D01*
X8503829Y-11768593D02*
X8503829Y-11720974D01*
X8503829Y-11720974D02*
X8513353Y-11682879D01*
X8513353Y-11682879D02*
X8522877Y-11663831D01*
X8522877Y-11663831D02*
X8532401Y-11654308D01*
X8532401Y-11654308D02*
X8551448Y-11644784D01*
X8808591Y-11844784D02*
X8694306Y-11844784D01*
X8751448Y-11844784D02*
X8751448Y-11644784D01*
X8751448Y-11644784D02*
X8732401Y-11673355D01*
X8732401Y-11673355D02*
X8713353Y-11692403D01*
X8713353Y-11692403D02*
X8694306Y-11701927D01*
X8989544Y-11644784D02*
X8894306Y-11644784D01*
X8894306Y-11644784D02*
X8884782Y-11740022D01*
X8884782Y-11740022D02*
X8894306Y-11730498D01*
X8894306Y-11730498D02*
X8913353Y-11720974D01*
X8913353Y-11720974D02*
X8960972Y-11720974D01*
X8960972Y-11720974D02*
X8980020Y-11730498D01*
X8980020Y-11730498D02*
X8989544Y-11740022D01*
X8989544Y-11740022D02*
X8999068Y-11759069D01*
X8999068Y-11759069D02*
X8999068Y-11806688D01*
X8999068Y-11806688D02*
X8989544Y-11825736D01*
X8989544Y-11825736D02*
X8980020Y-11835260D01*
X8980020Y-11835260D02*
X8960972Y-11844784D01*
X8960972Y-11844784D02*
X8913353Y-11844784D01*
X8913353Y-11844784D02*
X8894306Y-11835260D01*
X8894306Y-11835260D02*
X8884782Y-11825736D01*
X9065734Y-11644784D02*
X9199068Y-11644784D01*
X9199068Y-11644784D02*
X9113353Y-11844784D01*
X9265734Y-11644784D02*
X9265734Y-11682879D01*
X9341925Y-11644784D02*
X9341925Y-11682879D01*
X9637163Y-11920974D02*
X9627639Y-11911450D01*
X9627639Y-11911450D02*
X9608591Y-11882879D01*
X9608591Y-11882879D02*
X9599068Y-11863831D01*
X9599068Y-11863831D02*
X9589544Y-11835260D01*
X9589544Y-11835260D02*
X9580020Y-11787641D01*
X9580020Y-11787641D02*
X9580020Y-11749546D01*
X9580020Y-11749546D02*
X9589544Y-11701927D01*
X9589544Y-11701927D02*
X9599068Y-11673355D01*
X9599068Y-11673355D02*
X9608591Y-11654308D01*
X9608591Y-11654308D02*
X9627639Y-11625736D01*
X9627639Y-11625736D02*
X9637163Y-11616212D01*
X9799068Y-11711450D02*
X9799068Y-11844784D01*
X9751449Y-11635260D02*
X9703830Y-11778117D01*
X9703830Y-11778117D02*
X9827639Y-11778117D01*
X10056211Y-11844784D02*
X10056211Y-11644784D01*
X10141925Y-11844784D02*
X10141925Y-11740022D01*
X10141925Y-11740022D02*
X10132401Y-11720974D01*
X10132401Y-11720974D02*
X10113353Y-11711450D01*
X10113353Y-11711450D02*
X10084782Y-11711450D01*
X10084782Y-11711450D02*
X10065734Y-11720974D01*
X10065734Y-11720974D02*
X10056211Y-11730498D01*
X10265734Y-11844784D02*
X10246687Y-11835260D01*
X10246687Y-11835260D02*
X10237163Y-11825736D01*
X10237163Y-11825736D02*
X10227639Y-11806688D01*
X10227639Y-11806688D02*
X10227639Y-11749546D01*
X10227639Y-11749546D02*
X10237163Y-11730498D01*
X10237163Y-11730498D02*
X10246687Y-11720974D01*
X10246687Y-11720974D02*
X10265734Y-11711450D01*
X10265734Y-11711450D02*
X10294306Y-11711450D01*
X10294306Y-11711450D02*
X10313353Y-11720974D01*
X10313353Y-11720974D02*
X10322877Y-11730498D01*
X10322877Y-11730498D02*
X10332401Y-11749546D01*
X10332401Y-11749546D02*
X10332401Y-11806688D01*
X10332401Y-11806688D02*
X10322877Y-11825736D01*
X10322877Y-11825736D02*
X10313353Y-11835260D01*
X10313353Y-11835260D02*
X10294306Y-11844784D01*
X10294306Y-11844784D02*
X10265734Y-11844784D01*
X10446687Y-11844784D02*
X10427639Y-11835260D01*
X10427639Y-11835260D02*
X10418115Y-11816212D01*
X10418115Y-11816212D02*
X10418115Y-11644784D01*
X10599068Y-11835260D02*
X10580020Y-11844784D01*
X10580020Y-11844784D02*
X10541925Y-11844784D01*
X10541925Y-11844784D02*
X10522877Y-11835260D01*
X10522877Y-11835260D02*
X10513353Y-11816212D01*
X10513353Y-11816212D02*
X10513353Y-11740022D01*
X10513353Y-11740022D02*
X10522877Y-11720974D01*
X10522877Y-11720974D02*
X10541925Y-11711450D01*
X10541925Y-11711450D02*
X10580020Y-11711450D01*
X10580020Y-11711450D02*
X10599068Y-11720974D01*
X10599068Y-11720974D02*
X10608592Y-11740022D01*
X10608592Y-11740022D02*
X10608592Y-11759069D01*
X10608592Y-11759069D02*
X10513353Y-11778117D01*
X10684782Y-11835260D02*
X10703830Y-11844784D01*
X10703830Y-11844784D02*
X10741925Y-11844784D01*
X10741925Y-11844784D02*
X10760973Y-11835260D01*
X10760973Y-11835260D02*
X10770496Y-11816212D01*
X10770496Y-11816212D02*
X10770496Y-11806688D01*
X10770496Y-11806688D02*
X10760973Y-11787641D01*
X10760973Y-11787641D02*
X10741925Y-11778117D01*
X10741925Y-11778117D02*
X10713353Y-11778117D01*
X10713353Y-11778117D02*
X10694306Y-11768593D01*
X10694306Y-11768593D02*
X10684782Y-11749546D01*
X10684782Y-11749546D02*
X10684782Y-11740022D01*
X10684782Y-11740022D02*
X10694306Y-11720974D01*
X10694306Y-11720974D02*
X10713353Y-11711450D01*
X10713353Y-11711450D02*
X10741925Y-11711450D01*
X10741925Y-11711450D02*
X10760973Y-11720974D01*
X10837163Y-11920974D02*
X10846687Y-11911450D01*
X10846687Y-11911450D02*
X10865734Y-11882879D01*
X10865734Y-11882879D02*
X10875258Y-11863831D01*
X10875258Y-11863831D02*
X10884782Y-11835260D01*
X10884782Y-11835260D02*
X10894306Y-11787641D01*
X10894306Y-11787641D02*
X10894306Y-11749546D01*
X10894306Y-11749546D02*
X10884782Y-11701927D01*
X10884782Y-11701927D02*
X10875258Y-11673355D01*
X10875258Y-11673355D02*
X10865734Y-11654308D01*
X10865734Y-11654308D02*
X10846687Y-11625736D01*
X10846687Y-11625736D02*
X10837163Y-11616212D01*
D12*
X6062100Y-12017300D02*
G75*
G02*
X5985900Y-12017300I-38100J0D01*
G01*
X5985900Y-12017300D02*
G75*
G02*
X6062100Y-12017300I38100J0D01*
G01*
D11*
X6360972Y-11908784D02*
X6380020Y-11908784D01*
X6380020Y-11908784D02*
X6399067Y-11918308D01*
X6399067Y-11918308D02*
X6408591Y-11927831D01*
X6408591Y-11927831D02*
X6418115Y-11946879D01*
X6418115Y-11946879D02*
X6427639Y-11984974D01*
X6427639Y-11984974D02*
X6427639Y-12032593D01*
X6427639Y-12032593D02*
X6418115Y-12070688D01*
X6418115Y-12070688D02*
X6408591Y-12089736D01*
X6408591Y-12089736D02*
X6399067Y-12099260D01*
X6399067Y-12099260D02*
X6380020Y-12108784D01*
X6380020Y-12108784D02*
X6360972Y-12108784D01*
X6360972Y-12108784D02*
X6341924Y-12099260D01*
X6341924Y-12099260D02*
X6332401Y-12089736D01*
X6332401Y-12089736D02*
X6322877Y-12070688D01*
X6322877Y-12070688D02*
X6313353Y-12032593D01*
X6313353Y-12032593D02*
X6313353Y-11984974D01*
X6313353Y-11984974D02*
X6322877Y-11946879D01*
X6322877Y-11946879D02*
X6332401Y-11927831D01*
X6332401Y-11927831D02*
X6341924Y-11918308D01*
X6341924Y-11918308D02*
X6360972Y-11908784D01*
X6513353Y-12089736D02*
X6522877Y-12099260D01*
X6522877Y-12099260D02*
X6513353Y-12108784D01*
X6513353Y-12108784D02*
X6503829Y-12099260D01*
X6503829Y-12099260D02*
X6513353Y-12089736D01*
X6513353Y-12089736D02*
X6513353Y-12108784D01*
X6589543Y-11908784D02*
X6722877Y-11908784D01*
X6722877Y-11908784D02*
X6637162Y-12108784D01*
X6884782Y-11908784D02*
X6846686Y-11908784D01*
X6846686Y-11908784D02*
X6827639Y-11918308D01*
X6827639Y-11918308D02*
X6818115Y-11927831D01*
X6818115Y-11927831D02*
X6799067Y-11956403D01*
X6799067Y-11956403D02*
X6789543Y-11994498D01*
X6789543Y-11994498D02*
X6789543Y-12070688D01*
X6789543Y-12070688D02*
X6799067Y-12089736D01*
X6799067Y-12089736D02*
X6808591Y-12099260D01*
X6808591Y-12099260D02*
X6827639Y-12108784D01*
X6827639Y-12108784D02*
X6865734Y-12108784D01*
X6865734Y-12108784D02*
X6884782Y-12099260D01*
X6884782Y-12099260D02*
X6894305Y-12089736D01*
X6894305Y-12089736D02*
X6903829Y-12070688D01*
X6903829Y-12070688D02*
X6903829Y-12023069D01*
X6903829Y-12023069D02*
X6894305Y-12004022D01*
X6894305Y-12004022D02*
X6884782Y-11994498D01*
X6884782Y-11994498D02*
X6865734Y-11984974D01*
X6865734Y-11984974D02*
X6827639Y-11984974D01*
X6827639Y-11984974D02*
X6808591Y-11994498D01*
X6808591Y-11994498D02*
X6799067Y-12004022D01*
X6799067Y-12004022D02*
X6789543Y-12023069D01*
X6980020Y-11927831D02*
X6989543Y-11918308D01*
X6989543Y-11918308D02*
X7008591Y-11908784D01*
X7008591Y-11908784D02*
X7056210Y-11908784D01*
X7056210Y-11908784D02*
X7075258Y-11918308D01*
X7075258Y-11918308D02*
X7084782Y-11927831D01*
X7084782Y-11927831D02*
X7094305Y-11946879D01*
X7094305Y-11946879D02*
X7094305Y-11965927D01*
X7094305Y-11965927D02*
X7084782Y-11994498D01*
X7084782Y-11994498D02*
X6970496Y-12108784D01*
X6970496Y-12108784D02*
X7094305Y-12108784D01*
X7180020Y-12108784D02*
X7180020Y-11975450D01*
X7180020Y-11994498D02*
X7189543Y-11984974D01*
X7189543Y-11984974D02*
X7208591Y-11975450D01*
X7208591Y-11975450D02*
X7237163Y-11975450D01*
X7237163Y-11975450D02*
X7256210Y-11984974D01*
X7256210Y-11984974D02*
X7265734Y-12004022D01*
X7265734Y-12004022D02*
X7265734Y-12108784D01*
X7265734Y-12004022D02*
X7275258Y-11984974D01*
X7275258Y-11984974D02*
X7294305Y-11975450D01*
X7294305Y-11975450D02*
X7322877Y-11975450D01*
X7322877Y-11975450D02*
X7341924Y-11984974D01*
X7341924Y-11984974D02*
X7351448Y-12004022D01*
X7351448Y-12004022D02*
X7351448Y-12108784D01*
X7446686Y-12108784D02*
X7446686Y-11975450D01*
X7446686Y-11994498D02*
X7456210Y-11984974D01*
X7456210Y-11984974D02*
X7475258Y-11975450D01*
X7475258Y-11975450D02*
X7503829Y-11975450D01*
X7503829Y-11975450D02*
X7522877Y-11984974D01*
X7522877Y-11984974D02*
X7532401Y-12004022D01*
X7532401Y-12004022D02*
X7532401Y-12108784D01*
X7532401Y-12004022D02*
X7541924Y-11984974D01*
X7541924Y-11984974D02*
X7560972Y-11975450D01*
X7560972Y-11975450D02*
X7589543Y-11975450D01*
X7589543Y-11975450D02*
X7608591Y-11984974D01*
X7608591Y-11984974D02*
X7618115Y-12004022D01*
X7618115Y-12004022D02*
X7618115Y-12108784D01*
X8008591Y-11899260D02*
X7837163Y-12156403D01*
X8265734Y-11908784D02*
X8284782Y-11908784D01*
X8284782Y-11908784D02*
X8303829Y-11918308D01*
X8303829Y-11918308D02*
X8313353Y-11927831D01*
X8313353Y-11927831D02*
X8322877Y-11946879D01*
X8322877Y-11946879D02*
X8332401Y-11984974D01*
X8332401Y-11984974D02*
X8332401Y-12032593D01*
X8332401Y-12032593D02*
X8322877Y-12070688D01*
X8322877Y-12070688D02*
X8313353Y-12089736D01*
X8313353Y-12089736D02*
X8303829Y-12099260D01*
X8303829Y-12099260D02*
X8284782Y-12108784D01*
X8284782Y-12108784D02*
X8265734Y-12108784D01*
X8265734Y-12108784D02*
X8246686Y-12099260D01*
X8246686Y-12099260D02*
X8237163Y-12089736D01*
X8237163Y-12089736D02*
X8227639Y-12070688D01*
X8227639Y-12070688D02*
X8218115Y-12032593D01*
X8218115Y-12032593D02*
X8218115Y-11984974D01*
X8218115Y-11984974D02*
X8227639Y-11946879D01*
X8227639Y-11946879D02*
X8237163Y-11927831D01*
X8237163Y-11927831D02*
X8246686Y-11918308D01*
X8246686Y-11918308D02*
X8265734Y-11908784D01*
X8418115Y-12089736D02*
X8427639Y-12099260D01*
X8427639Y-12099260D02*
X8418115Y-12108784D01*
X8418115Y-12108784D02*
X8408591Y-12099260D01*
X8408591Y-12099260D02*
X8418115Y-12089736D01*
X8418115Y-12089736D02*
X8418115Y-12108784D01*
X8551448Y-11908784D02*
X8570496Y-11908784D01*
X8570496Y-11908784D02*
X8589544Y-11918308D01*
X8589544Y-11918308D02*
X8599068Y-11927831D01*
X8599068Y-11927831D02*
X8608591Y-11946879D01*
X8608591Y-11946879D02*
X8618115Y-11984974D01*
X8618115Y-11984974D02*
X8618115Y-12032593D01*
X8618115Y-12032593D02*
X8608591Y-12070688D01*
X8608591Y-12070688D02*
X8599068Y-12089736D01*
X8599068Y-12089736D02*
X8589544Y-12099260D01*
X8589544Y-12099260D02*
X8570496Y-12108784D01*
X8570496Y-12108784D02*
X8551448Y-12108784D01*
X8551448Y-12108784D02*
X8532401Y-12099260D01*
X8532401Y-12099260D02*
X8522877Y-12089736D01*
X8522877Y-12089736D02*
X8513353Y-12070688D01*
X8513353Y-12070688D02*
X8503829Y-12032593D01*
X8503829Y-12032593D02*
X8503829Y-11984974D01*
X8503829Y-11984974D02*
X8513353Y-11946879D01*
X8513353Y-11946879D02*
X8522877Y-11927831D01*
X8522877Y-11927831D02*
X8532401Y-11918308D01*
X8532401Y-11918308D02*
X8551448Y-11908784D01*
X8684782Y-11908784D02*
X8808591Y-11908784D01*
X8808591Y-11908784D02*
X8741925Y-11984974D01*
X8741925Y-11984974D02*
X8770496Y-11984974D01*
X8770496Y-11984974D02*
X8789544Y-11994498D01*
X8789544Y-11994498D02*
X8799068Y-12004022D01*
X8799068Y-12004022D02*
X8808591Y-12023069D01*
X8808591Y-12023069D02*
X8808591Y-12070688D01*
X8808591Y-12070688D02*
X8799068Y-12089736D01*
X8799068Y-12089736D02*
X8789544Y-12099260D01*
X8789544Y-12099260D02*
X8770496Y-12108784D01*
X8770496Y-12108784D02*
X8713353Y-12108784D01*
X8713353Y-12108784D02*
X8694306Y-12099260D01*
X8694306Y-12099260D02*
X8684782Y-12089736D01*
X8932401Y-11908784D02*
X8951449Y-11908784D01*
X8951449Y-11908784D02*
X8970496Y-11918308D01*
X8970496Y-11918308D02*
X8980020Y-11927831D01*
X8980020Y-11927831D02*
X8989544Y-11946879D01*
X8989544Y-11946879D02*
X8999068Y-11984974D01*
X8999068Y-11984974D02*
X8999068Y-12032593D01*
X8999068Y-12032593D02*
X8989544Y-12070688D01*
X8989544Y-12070688D02*
X8980020Y-12089736D01*
X8980020Y-12089736D02*
X8970496Y-12099260D01*
X8970496Y-12099260D02*
X8951449Y-12108784D01*
X8951449Y-12108784D02*
X8932401Y-12108784D01*
X8932401Y-12108784D02*
X8913353Y-12099260D01*
X8913353Y-12099260D02*
X8903829Y-12089736D01*
X8903829Y-12089736D02*
X8894306Y-12070688D01*
X8894306Y-12070688D02*
X8884782Y-12032593D01*
X8884782Y-12032593D02*
X8884782Y-11984974D01*
X8884782Y-11984974D02*
X8894306Y-11946879D01*
X8894306Y-11946879D02*
X8903829Y-11927831D01*
X8903829Y-11927831D02*
X8913353Y-11918308D01*
X8913353Y-11918308D02*
X8932401Y-11908784D01*
X9122877Y-11908784D02*
X9141925Y-11908784D01*
X9141925Y-11908784D02*
X9160972Y-11918308D01*
X9160972Y-11918308D02*
X9170496Y-11927831D01*
X9170496Y-11927831D02*
X9180020Y-11946879D01*
X9180020Y-11946879D02*
X9189544Y-11984974D01*
X9189544Y-11984974D02*
X9189544Y-12032593D01*
X9189544Y-12032593D02*
X9180020Y-12070688D01*
X9180020Y-12070688D02*
X9170496Y-12089736D01*
X9170496Y-12089736D02*
X9160972Y-12099260D01*
X9160972Y-12099260D02*
X9141925Y-12108784D01*
X9141925Y-12108784D02*
X9122877Y-12108784D01*
X9122877Y-12108784D02*
X9103829Y-12099260D01*
X9103829Y-12099260D02*
X9094306Y-12089736D01*
X9094306Y-12089736D02*
X9084782Y-12070688D01*
X9084782Y-12070688D02*
X9075258Y-12032593D01*
X9075258Y-12032593D02*
X9075258Y-11984974D01*
X9075258Y-11984974D02*
X9084782Y-11946879D01*
X9084782Y-11946879D02*
X9094306Y-11927831D01*
X9094306Y-11927831D02*
X9103829Y-11918308D01*
X9103829Y-11918308D02*
X9122877Y-11908784D01*
X9265734Y-11908784D02*
X9265734Y-11946879D01*
X9341925Y-11908784D02*
X9341925Y-11946879D01*
X9637163Y-12184974D02*
X9627639Y-12175450D01*
X9627639Y-12175450D02*
X9608591Y-12146879D01*
X9608591Y-12146879D02*
X9599068Y-12127831D01*
X9599068Y-12127831D02*
X9589544Y-12099260D01*
X9589544Y-12099260D02*
X9580020Y-12051641D01*
X9580020Y-12051641D02*
X9580020Y-12013546D01*
X9580020Y-12013546D02*
X9589544Y-11965927D01*
X9589544Y-11965927D02*
X9599068Y-11937355D01*
X9599068Y-11937355D02*
X9608591Y-11918308D01*
X9608591Y-11918308D02*
X9627639Y-11889736D01*
X9627639Y-11889736D02*
X9637163Y-11880212D01*
X9799068Y-11975450D02*
X9799068Y-12108784D01*
X9751449Y-11899260D02*
X9703830Y-12042117D01*
X9703830Y-12042117D02*
X9827639Y-12042117D01*
X10056211Y-12108784D02*
X10056211Y-11908784D01*
X10141925Y-12108784D02*
X10141925Y-12004022D01*
X10141925Y-12004022D02*
X10132401Y-11984974D01*
X10132401Y-11984974D02*
X10113353Y-11975450D01*
X10113353Y-11975450D02*
X10084782Y-11975450D01*
X10084782Y-11975450D02*
X10065734Y-11984974D01*
X10065734Y-11984974D02*
X10056211Y-11994498D01*
X10265734Y-12108784D02*
X10246687Y-12099260D01*
X10246687Y-12099260D02*
X10237163Y-12089736D01*
X10237163Y-12089736D02*
X10227639Y-12070688D01*
X10227639Y-12070688D02*
X10227639Y-12013546D01*
X10227639Y-12013546D02*
X10237163Y-11994498D01*
X10237163Y-11994498D02*
X10246687Y-11984974D01*
X10246687Y-11984974D02*
X10265734Y-11975450D01*
X10265734Y-11975450D02*
X10294306Y-11975450D01*
X10294306Y-11975450D02*
X10313353Y-11984974D01*
X10313353Y-11984974D02*
X10322877Y-11994498D01*
X10322877Y-11994498D02*
X10332401Y-12013546D01*
X10332401Y-12013546D02*
X10332401Y-12070688D01*
X10332401Y-12070688D02*
X10322877Y-12089736D01*
X10322877Y-12089736D02*
X10313353Y-12099260D01*
X10313353Y-12099260D02*
X10294306Y-12108784D01*
X10294306Y-12108784D02*
X10265734Y-12108784D01*
X10446687Y-12108784D02*
X10427639Y-12099260D01*
X10427639Y-12099260D02*
X10418115Y-12080212D01*
X10418115Y-12080212D02*
X10418115Y-11908784D01*
X10599068Y-12099260D02*
X10580020Y-12108784D01*
X10580020Y-12108784D02*
X10541925Y-12108784D01*
X10541925Y-12108784D02*
X10522877Y-12099260D01*
X10522877Y-12099260D02*
X10513353Y-12080212D01*
X10513353Y-12080212D02*
X10513353Y-12004022D01*
X10513353Y-12004022D02*
X10522877Y-11984974D01*
X10522877Y-11984974D02*
X10541925Y-11975450D01*
X10541925Y-11975450D02*
X10580020Y-11975450D01*
X10580020Y-11975450D02*
X10599068Y-11984974D01*
X10599068Y-11984974D02*
X10608592Y-12004022D01*
X10608592Y-12004022D02*
X10608592Y-12023069D01*
X10608592Y-12023069D02*
X10513353Y-12042117D01*
X10684782Y-12099260D02*
X10703830Y-12108784D01*
X10703830Y-12108784D02*
X10741925Y-12108784D01*
X10741925Y-12108784D02*
X10760973Y-12099260D01*
X10760973Y-12099260D02*
X10770496Y-12080212D01*
X10770496Y-12080212D02*
X10770496Y-12070688D01*
X10770496Y-12070688D02*
X10760973Y-12051641D01*
X10760973Y-12051641D02*
X10741925Y-12042117D01*
X10741925Y-12042117D02*
X10713353Y-12042117D01*
X10713353Y-12042117D02*
X10694306Y-12032593D01*
X10694306Y-12032593D02*
X10684782Y-12013546D01*
X10684782Y-12013546D02*
X10684782Y-12004022D01*
X10684782Y-12004022D02*
X10694306Y-11984974D01*
X10694306Y-11984974D02*
X10713353Y-11975450D01*
X10713353Y-11975450D02*
X10741925Y-11975450D01*
X10741925Y-11975450D02*
X10760973Y-11984974D01*
X10837163Y-12184974D02*
X10846687Y-12175450D01*
X10846687Y-12175450D02*
X10865734Y-12146879D01*
X10865734Y-12146879D02*
X10875258Y-12127831D01*
X10875258Y-12127831D02*
X10884782Y-12099260D01*
X10884782Y-12099260D02*
X10894306Y-12051641D01*
X10894306Y-12051641D02*
X10894306Y-12013546D01*
X10894306Y-12013546D02*
X10884782Y-11965927D01*
X10884782Y-11965927D02*
X10875258Y-11937355D01*
X10875258Y-11937355D02*
X10865734Y-11918308D01*
X10865734Y-11918308D02*
X10846687Y-11889736D01*
X10846687Y-11889736D02*
X10837163Y-11880212D01*
D12*
X6022100Y-12241300D02*
X6022100Y-12321300D01*
X5982100Y-12281300D02*
X6062100Y-12281300D01*
D11*
X6360972Y-12172784D02*
X6380020Y-12172784D01*
X6380020Y-12172784D02*
X6399067Y-12182308D01*
X6399067Y-12182308D02*
X6408591Y-12191831D01*
X6408591Y-12191831D02*
X6418115Y-12210879D01*
X6418115Y-12210879D02*
X6427639Y-12248974D01*
X6427639Y-12248974D02*
X6427639Y-12296593D01*
X6427639Y-12296593D02*
X6418115Y-12334688D01*
X6418115Y-12334688D02*
X6408591Y-12353736D01*
X6408591Y-12353736D02*
X6399067Y-12363260D01*
X6399067Y-12363260D02*
X6380020Y-12372784D01*
X6380020Y-12372784D02*
X6360972Y-12372784D01*
X6360972Y-12372784D02*
X6341924Y-12363260D01*
X6341924Y-12363260D02*
X6332401Y-12353736D01*
X6332401Y-12353736D02*
X6322877Y-12334688D01*
X6322877Y-12334688D02*
X6313353Y-12296593D01*
X6313353Y-12296593D02*
X6313353Y-12248974D01*
X6313353Y-12248974D02*
X6322877Y-12210879D01*
X6322877Y-12210879D02*
X6332401Y-12191831D01*
X6332401Y-12191831D02*
X6341924Y-12182308D01*
X6341924Y-12182308D02*
X6360972Y-12172784D01*
X6513353Y-12353736D02*
X6522877Y-12363260D01*
X6522877Y-12363260D02*
X6513353Y-12372784D01*
X6513353Y-12372784D02*
X6503829Y-12363260D01*
X6503829Y-12363260D02*
X6513353Y-12353736D01*
X6513353Y-12353736D02*
X6513353Y-12372784D01*
X6637162Y-12258498D02*
X6618115Y-12248974D01*
X6618115Y-12248974D02*
X6608591Y-12239450D01*
X6608591Y-12239450D02*
X6599067Y-12220403D01*
X6599067Y-12220403D02*
X6599067Y-12210879D01*
X6599067Y-12210879D02*
X6608591Y-12191831D01*
X6608591Y-12191831D02*
X6618115Y-12182308D01*
X6618115Y-12182308D02*
X6637162Y-12172784D01*
X6637162Y-12172784D02*
X6675258Y-12172784D01*
X6675258Y-12172784D02*
X6694305Y-12182308D01*
X6694305Y-12182308D02*
X6703829Y-12191831D01*
X6703829Y-12191831D02*
X6713353Y-12210879D01*
X6713353Y-12210879D02*
X6713353Y-12220403D01*
X6713353Y-12220403D02*
X6703829Y-12239450D01*
X6703829Y-12239450D02*
X6694305Y-12248974D01*
X6694305Y-12248974D02*
X6675258Y-12258498D01*
X6675258Y-12258498D02*
X6637162Y-12258498D01*
X6637162Y-12258498D02*
X6618115Y-12268022D01*
X6618115Y-12268022D02*
X6608591Y-12277546D01*
X6608591Y-12277546D02*
X6599067Y-12296593D01*
X6599067Y-12296593D02*
X6599067Y-12334688D01*
X6599067Y-12334688D02*
X6608591Y-12353736D01*
X6608591Y-12353736D02*
X6618115Y-12363260D01*
X6618115Y-12363260D02*
X6637162Y-12372784D01*
X6637162Y-12372784D02*
X6675258Y-12372784D01*
X6675258Y-12372784D02*
X6694305Y-12363260D01*
X6694305Y-12363260D02*
X6703829Y-12353736D01*
X6703829Y-12353736D02*
X6713353Y-12334688D01*
X6713353Y-12334688D02*
X6713353Y-12296593D01*
X6713353Y-12296593D02*
X6703829Y-12277546D01*
X6703829Y-12277546D02*
X6694305Y-12268022D01*
X6694305Y-12268022D02*
X6675258Y-12258498D01*
X6837162Y-12172784D02*
X6856210Y-12172784D01*
X6856210Y-12172784D02*
X6875258Y-12182308D01*
X6875258Y-12182308D02*
X6884782Y-12191831D01*
X6884782Y-12191831D02*
X6894305Y-12210879D01*
X6894305Y-12210879D02*
X6903829Y-12248974D01*
X6903829Y-12248974D02*
X6903829Y-12296593D01*
X6903829Y-12296593D02*
X6894305Y-12334688D01*
X6894305Y-12334688D02*
X6884782Y-12353736D01*
X6884782Y-12353736D02*
X6875258Y-12363260D01*
X6875258Y-12363260D02*
X6856210Y-12372784D01*
X6856210Y-12372784D02*
X6837162Y-12372784D01*
X6837162Y-12372784D02*
X6818115Y-12363260D01*
X6818115Y-12363260D02*
X6808591Y-12353736D01*
X6808591Y-12353736D02*
X6799067Y-12334688D01*
X6799067Y-12334688D02*
X6789543Y-12296593D01*
X6789543Y-12296593D02*
X6789543Y-12248974D01*
X6789543Y-12248974D02*
X6799067Y-12210879D01*
X6799067Y-12210879D02*
X6808591Y-12191831D01*
X6808591Y-12191831D02*
X6818115Y-12182308D01*
X6818115Y-12182308D02*
X6837162Y-12172784D01*
X7027639Y-12172784D02*
X7046686Y-12172784D01*
X7046686Y-12172784D02*
X7065734Y-12182308D01*
X7065734Y-12182308D02*
X7075258Y-12191831D01*
X7075258Y-12191831D02*
X7084782Y-12210879D01*
X7084782Y-12210879D02*
X7094305Y-12248974D01*
X7094305Y-12248974D02*
X7094305Y-12296593D01*
X7094305Y-12296593D02*
X7084782Y-12334688D01*
X7084782Y-12334688D02*
X7075258Y-12353736D01*
X7075258Y-12353736D02*
X7065734Y-12363260D01*
X7065734Y-12363260D02*
X7046686Y-12372784D01*
X7046686Y-12372784D02*
X7027639Y-12372784D01*
X7027639Y-12372784D02*
X7008591Y-12363260D01*
X7008591Y-12363260D02*
X6999067Y-12353736D01*
X6999067Y-12353736D02*
X6989543Y-12334688D01*
X6989543Y-12334688D02*
X6980020Y-12296593D01*
X6980020Y-12296593D02*
X6980020Y-12248974D01*
X6980020Y-12248974D02*
X6989543Y-12210879D01*
X6989543Y-12210879D02*
X6999067Y-12191831D01*
X6999067Y-12191831D02*
X7008591Y-12182308D01*
X7008591Y-12182308D02*
X7027639Y-12172784D01*
X7180020Y-12372784D02*
X7180020Y-12239450D01*
X7180020Y-12258498D02*
X7189543Y-12248974D01*
X7189543Y-12248974D02*
X7208591Y-12239450D01*
X7208591Y-12239450D02*
X7237163Y-12239450D01*
X7237163Y-12239450D02*
X7256210Y-12248974D01*
X7256210Y-12248974D02*
X7265734Y-12268022D01*
X7265734Y-12268022D02*
X7265734Y-12372784D01*
X7265734Y-12268022D02*
X7275258Y-12248974D01*
X7275258Y-12248974D02*
X7294305Y-12239450D01*
X7294305Y-12239450D02*
X7322877Y-12239450D01*
X7322877Y-12239450D02*
X7341924Y-12248974D01*
X7341924Y-12248974D02*
X7351448Y-12268022D01*
X7351448Y-12268022D02*
X7351448Y-12372784D01*
X7446686Y-12372784D02*
X7446686Y-12239450D01*
X7446686Y-12258498D02*
X7456210Y-12248974D01*
X7456210Y-12248974D02*
X7475258Y-12239450D01*
X7475258Y-12239450D02*
X7503829Y-12239450D01*
X7503829Y-12239450D02*
X7522877Y-12248974D01*
X7522877Y-12248974D02*
X7532401Y-12268022D01*
X7532401Y-12268022D02*
X7532401Y-12372784D01*
X7532401Y-12268022D02*
X7541924Y-12248974D01*
X7541924Y-12248974D02*
X7560972Y-12239450D01*
X7560972Y-12239450D02*
X7589543Y-12239450D01*
X7589543Y-12239450D02*
X7608591Y-12248974D01*
X7608591Y-12248974D02*
X7618115Y-12268022D01*
X7618115Y-12268022D02*
X7618115Y-12372784D01*
X8008591Y-12163260D02*
X7837163Y-12420403D01*
X8265734Y-12172784D02*
X8284782Y-12172784D01*
X8284782Y-12172784D02*
X8303829Y-12182308D01*
X8303829Y-12182308D02*
X8313353Y-12191831D01*
X8313353Y-12191831D02*
X8322877Y-12210879D01*
X8322877Y-12210879D02*
X8332401Y-12248974D01*
X8332401Y-12248974D02*
X8332401Y-12296593D01*
X8332401Y-12296593D02*
X8322877Y-12334688D01*
X8322877Y-12334688D02*
X8313353Y-12353736D01*
X8313353Y-12353736D02*
X8303829Y-12363260D01*
X8303829Y-12363260D02*
X8284782Y-12372784D01*
X8284782Y-12372784D02*
X8265734Y-12372784D01*
X8265734Y-12372784D02*
X8246686Y-12363260D01*
X8246686Y-12363260D02*
X8237163Y-12353736D01*
X8237163Y-12353736D02*
X8227639Y-12334688D01*
X8227639Y-12334688D02*
X8218115Y-12296593D01*
X8218115Y-12296593D02*
X8218115Y-12248974D01*
X8218115Y-12248974D02*
X8227639Y-12210879D01*
X8227639Y-12210879D02*
X8237163Y-12191831D01*
X8237163Y-12191831D02*
X8246686Y-12182308D01*
X8246686Y-12182308D02*
X8265734Y-12172784D01*
X8418115Y-12353736D02*
X8427639Y-12363260D01*
X8427639Y-12363260D02*
X8418115Y-12372784D01*
X8418115Y-12372784D02*
X8408591Y-12363260D01*
X8408591Y-12363260D02*
X8418115Y-12353736D01*
X8418115Y-12353736D02*
X8418115Y-12372784D01*
X8551448Y-12172784D02*
X8570496Y-12172784D01*
X8570496Y-12172784D02*
X8589544Y-12182308D01*
X8589544Y-12182308D02*
X8599068Y-12191831D01*
X8599068Y-12191831D02*
X8608591Y-12210879D01*
X8608591Y-12210879D02*
X8618115Y-12248974D01*
X8618115Y-12248974D02*
X8618115Y-12296593D01*
X8618115Y-12296593D02*
X8608591Y-12334688D01*
X8608591Y-12334688D02*
X8599068Y-12353736D01*
X8599068Y-12353736D02*
X8589544Y-12363260D01*
X8589544Y-12363260D02*
X8570496Y-12372784D01*
X8570496Y-12372784D02*
X8551448Y-12372784D01*
X8551448Y-12372784D02*
X8532401Y-12363260D01*
X8532401Y-12363260D02*
X8522877Y-12353736D01*
X8522877Y-12353736D02*
X8513353Y-12334688D01*
X8513353Y-12334688D02*
X8503829Y-12296593D01*
X8503829Y-12296593D02*
X8503829Y-12248974D01*
X8503829Y-12248974D02*
X8513353Y-12210879D01*
X8513353Y-12210879D02*
X8522877Y-12191831D01*
X8522877Y-12191831D02*
X8532401Y-12182308D01*
X8532401Y-12182308D02*
X8551448Y-12172784D01*
X8684782Y-12172784D02*
X8808591Y-12172784D01*
X8808591Y-12172784D02*
X8741925Y-12248974D01*
X8741925Y-12248974D02*
X8770496Y-12248974D01*
X8770496Y-12248974D02*
X8789544Y-12258498D01*
X8789544Y-12258498D02*
X8799068Y-12268022D01*
X8799068Y-12268022D02*
X8808591Y-12287069D01*
X8808591Y-12287069D02*
X8808591Y-12334688D01*
X8808591Y-12334688D02*
X8799068Y-12353736D01*
X8799068Y-12353736D02*
X8789544Y-12363260D01*
X8789544Y-12363260D02*
X8770496Y-12372784D01*
X8770496Y-12372784D02*
X8713353Y-12372784D01*
X8713353Y-12372784D02*
X8694306Y-12363260D01*
X8694306Y-12363260D02*
X8684782Y-12353736D01*
X8999068Y-12372784D02*
X8884782Y-12372784D01*
X8941925Y-12372784D02*
X8941925Y-12172784D01*
X8941925Y-12172784D02*
X8922877Y-12201355D01*
X8922877Y-12201355D02*
X8903829Y-12220403D01*
X8903829Y-12220403D02*
X8884782Y-12229927D01*
X9180020Y-12172784D02*
X9084782Y-12172784D01*
X9084782Y-12172784D02*
X9075258Y-12268022D01*
X9075258Y-12268022D02*
X9084782Y-12258498D01*
X9084782Y-12258498D02*
X9103829Y-12248974D01*
X9103829Y-12248974D02*
X9151449Y-12248974D01*
X9151449Y-12248974D02*
X9170496Y-12258498D01*
X9170496Y-12258498D02*
X9180020Y-12268022D01*
X9180020Y-12268022D02*
X9189544Y-12287069D01*
X9189544Y-12287069D02*
X9189544Y-12334688D01*
X9189544Y-12334688D02*
X9180020Y-12353736D01*
X9180020Y-12353736D02*
X9170496Y-12363260D01*
X9170496Y-12363260D02*
X9151449Y-12372784D01*
X9151449Y-12372784D02*
X9103829Y-12372784D01*
X9103829Y-12372784D02*
X9084782Y-12363260D01*
X9084782Y-12363260D02*
X9075258Y-12353736D01*
X9265734Y-12172784D02*
X9265734Y-12210879D01*
X9341925Y-12172784D02*
X9341925Y-12210879D01*
X9637163Y-12448974D02*
X9627639Y-12439450D01*
X9627639Y-12439450D02*
X9608591Y-12410879D01*
X9608591Y-12410879D02*
X9599068Y-12391831D01*
X9599068Y-12391831D02*
X9589544Y-12363260D01*
X9589544Y-12363260D02*
X9580020Y-12315641D01*
X9580020Y-12315641D02*
X9580020Y-12277546D01*
X9580020Y-12277546D02*
X9589544Y-12229927D01*
X9589544Y-12229927D02*
X9599068Y-12201355D01*
X9599068Y-12201355D02*
X9608591Y-12182308D01*
X9608591Y-12182308D02*
X9627639Y-12153736D01*
X9627639Y-12153736D02*
X9637163Y-12144212D01*
X9818115Y-12372784D02*
X9703830Y-12372784D01*
X9760972Y-12372784D02*
X9760972Y-12172784D01*
X9760972Y-12172784D02*
X9741925Y-12201355D01*
X9741925Y-12201355D02*
X9722877Y-12220403D01*
X9722877Y-12220403D02*
X9703830Y-12229927D01*
X9989544Y-12239450D02*
X9989544Y-12372784D01*
X9941925Y-12163260D02*
X9894306Y-12306117D01*
X9894306Y-12306117D02*
X10018115Y-12306117D01*
X10246687Y-12372784D02*
X10246687Y-12172784D01*
X10332401Y-12372784D02*
X10332401Y-12268022D01*
X10332401Y-12268022D02*
X10322877Y-12248974D01*
X10322877Y-12248974D02*
X10303830Y-12239450D01*
X10303830Y-12239450D02*
X10275258Y-12239450D01*
X10275258Y-12239450D02*
X10256211Y-12248974D01*
X10256211Y-12248974D02*
X10246687Y-12258498D01*
X10456211Y-12372784D02*
X10437163Y-12363260D01*
X10437163Y-12363260D02*
X10427639Y-12353736D01*
X10427639Y-12353736D02*
X10418115Y-12334688D01*
X10418115Y-12334688D02*
X10418115Y-12277546D01*
X10418115Y-12277546D02*
X10427639Y-12258498D01*
X10427639Y-12258498D02*
X10437163Y-12248974D01*
X10437163Y-12248974D02*
X10456211Y-12239450D01*
X10456211Y-12239450D02*
X10484782Y-12239450D01*
X10484782Y-12239450D02*
X10503830Y-12248974D01*
X10503830Y-12248974D02*
X10513353Y-12258498D01*
X10513353Y-12258498D02*
X10522877Y-12277546D01*
X10522877Y-12277546D02*
X10522877Y-12334688D01*
X10522877Y-12334688D02*
X10513353Y-12353736D01*
X10513353Y-12353736D02*
X10503830Y-12363260D01*
X10503830Y-12363260D02*
X10484782Y-12372784D01*
X10484782Y-12372784D02*
X10456211Y-12372784D01*
X10637163Y-12372784D02*
X10618115Y-12363260D01*
X10618115Y-12363260D02*
X10608592Y-12344212D01*
X10608592Y-12344212D02*
X10608592Y-12172784D01*
X10789544Y-12363260D02*
X10770496Y-12372784D01*
X10770496Y-12372784D02*
X10732401Y-12372784D01*
X10732401Y-12372784D02*
X10713353Y-12363260D01*
X10713353Y-12363260D02*
X10703830Y-12344212D01*
X10703830Y-12344212D02*
X10703830Y-12268022D01*
X10703830Y-12268022D02*
X10713353Y-12248974D01*
X10713353Y-12248974D02*
X10732401Y-12239450D01*
X10732401Y-12239450D02*
X10770496Y-12239450D01*
X10770496Y-12239450D02*
X10789544Y-12248974D01*
X10789544Y-12248974D02*
X10799068Y-12268022D01*
X10799068Y-12268022D02*
X10799068Y-12287069D01*
X10799068Y-12287069D02*
X10703830Y-12306117D01*
X10875258Y-12363260D02*
X10894306Y-12372784D01*
X10894306Y-12372784D02*
X10932401Y-12372784D01*
X10932401Y-12372784D02*
X10951449Y-12363260D01*
X10951449Y-12363260D02*
X10960973Y-12344212D01*
X10960973Y-12344212D02*
X10960973Y-12334688D01*
X10960973Y-12334688D02*
X10951449Y-12315641D01*
X10951449Y-12315641D02*
X10932401Y-12306117D01*
X10932401Y-12306117D02*
X10903830Y-12306117D01*
X10903830Y-12306117D02*
X10884782Y-12296593D01*
X10884782Y-12296593D02*
X10875258Y-12277546D01*
X10875258Y-12277546D02*
X10875258Y-12268022D01*
X10875258Y-12268022D02*
X10884782Y-12248974D01*
X10884782Y-12248974D02*
X10903830Y-12239450D01*
X10903830Y-12239450D02*
X10932401Y-12239450D01*
X10932401Y-12239450D02*
X10951449Y-12248974D01*
X11027639Y-12448974D02*
X11037163Y-12439450D01*
X11037163Y-12439450D02*
X11056211Y-12410879D01*
X11056211Y-12410879D02*
X11065734Y-12391831D01*
X11065734Y-12391831D02*
X11075258Y-12363260D01*
X11075258Y-12363260D02*
X11084782Y-12315641D01*
X11084782Y-12315641D02*
X11084782Y-12277546D01*
X11084782Y-12277546D02*
X11075258Y-12229927D01*
X11075258Y-12229927D02*
X11065734Y-12201355D01*
X11065734Y-12201355D02*
X11056211Y-12182308D01*
X11056211Y-12182308D02*
X11037163Y-12153736D01*
X11037163Y-12153736D02*
X11027639Y-12144212D01*
D12*
X6049081Y-12576731D02*
X6049081Y-12513869D01*
X5986219Y-12513869D01*
X5986219Y-12576731D01*
X6049081Y-12576731D01*
D11*
X6360972Y-12436784D02*
X6380020Y-12436784D01*
X6380020Y-12436784D02*
X6399067Y-12446308D01*
X6399067Y-12446308D02*
X6408591Y-12455831D01*
X6408591Y-12455831D02*
X6418115Y-12474879D01*
X6418115Y-12474879D02*
X6427639Y-12512974D01*
X6427639Y-12512974D02*
X6427639Y-12560593D01*
X6427639Y-12560593D02*
X6418115Y-12598688D01*
X6418115Y-12598688D02*
X6408591Y-12617736D01*
X6408591Y-12617736D02*
X6399067Y-12627260D01*
X6399067Y-12627260D02*
X6380020Y-12636784D01*
X6380020Y-12636784D02*
X6360972Y-12636784D01*
X6360972Y-12636784D02*
X6341924Y-12627260D01*
X6341924Y-12627260D02*
X6332401Y-12617736D01*
X6332401Y-12617736D02*
X6322877Y-12598688D01*
X6322877Y-12598688D02*
X6313353Y-12560593D01*
X6313353Y-12560593D02*
X6313353Y-12512974D01*
X6313353Y-12512974D02*
X6322877Y-12474879D01*
X6322877Y-12474879D02*
X6332401Y-12455831D01*
X6332401Y-12455831D02*
X6341924Y-12446308D01*
X6341924Y-12446308D02*
X6360972Y-12436784D01*
X6513353Y-12617736D02*
X6522877Y-12627260D01*
X6522877Y-12627260D02*
X6513353Y-12636784D01*
X6513353Y-12636784D02*
X6503829Y-12627260D01*
X6503829Y-12627260D02*
X6513353Y-12617736D01*
X6513353Y-12617736D02*
X6513353Y-12636784D01*
X6637162Y-12522498D02*
X6618115Y-12512974D01*
X6618115Y-12512974D02*
X6608591Y-12503450D01*
X6608591Y-12503450D02*
X6599067Y-12484403D01*
X6599067Y-12484403D02*
X6599067Y-12474879D01*
X6599067Y-12474879D02*
X6608591Y-12455831D01*
X6608591Y-12455831D02*
X6618115Y-12446308D01*
X6618115Y-12446308D02*
X6637162Y-12436784D01*
X6637162Y-12436784D02*
X6675258Y-12436784D01*
X6675258Y-12436784D02*
X6694305Y-12446308D01*
X6694305Y-12446308D02*
X6703829Y-12455831D01*
X6703829Y-12455831D02*
X6713353Y-12474879D01*
X6713353Y-12474879D02*
X6713353Y-12484403D01*
X6713353Y-12484403D02*
X6703829Y-12503450D01*
X6703829Y-12503450D02*
X6694305Y-12512974D01*
X6694305Y-12512974D02*
X6675258Y-12522498D01*
X6675258Y-12522498D02*
X6637162Y-12522498D01*
X6637162Y-12522498D02*
X6618115Y-12532022D01*
X6618115Y-12532022D02*
X6608591Y-12541546D01*
X6608591Y-12541546D02*
X6599067Y-12560593D01*
X6599067Y-12560593D02*
X6599067Y-12598688D01*
X6599067Y-12598688D02*
X6608591Y-12617736D01*
X6608591Y-12617736D02*
X6618115Y-12627260D01*
X6618115Y-12627260D02*
X6637162Y-12636784D01*
X6637162Y-12636784D02*
X6675258Y-12636784D01*
X6675258Y-12636784D02*
X6694305Y-12627260D01*
X6694305Y-12627260D02*
X6703829Y-12617736D01*
X6703829Y-12617736D02*
X6713353Y-12598688D01*
X6713353Y-12598688D02*
X6713353Y-12560593D01*
X6713353Y-12560593D02*
X6703829Y-12541546D01*
X6703829Y-12541546D02*
X6694305Y-12532022D01*
X6694305Y-12532022D02*
X6675258Y-12522498D01*
X6827639Y-12522498D02*
X6808591Y-12512974D01*
X6808591Y-12512974D02*
X6799067Y-12503450D01*
X6799067Y-12503450D02*
X6789543Y-12484403D01*
X6789543Y-12484403D02*
X6789543Y-12474879D01*
X6789543Y-12474879D02*
X6799067Y-12455831D01*
X6799067Y-12455831D02*
X6808591Y-12446308D01*
X6808591Y-12446308D02*
X6827639Y-12436784D01*
X6827639Y-12436784D02*
X6865734Y-12436784D01*
X6865734Y-12436784D02*
X6884782Y-12446308D01*
X6884782Y-12446308D02*
X6894305Y-12455831D01*
X6894305Y-12455831D02*
X6903829Y-12474879D01*
X6903829Y-12474879D02*
X6903829Y-12484403D01*
X6903829Y-12484403D02*
X6894305Y-12503450D01*
X6894305Y-12503450D02*
X6884782Y-12512974D01*
X6884782Y-12512974D02*
X6865734Y-12522498D01*
X6865734Y-12522498D02*
X6827639Y-12522498D01*
X6827639Y-12522498D02*
X6808591Y-12532022D01*
X6808591Y-12532022D02*
X6799067Y-12541546D01*
X6799067Y-12541546D02*
X6789543Y-12560593D01*
X6789543Y-12560593D02*
X6789543Y-12598688D01*
X6789543Y-12598688D02*
X6799067Y-12617736D01*
X6799067Y-12617736D02*
X6808591Y-12627260D01*
X6808591Y-12627260D02*
X6827639Y-12636784D01*
X6827639Y-12636784D02*
X6865734Y-12636784D01*
X6865734Y-12636784D02*
X6884782Y-12627260D01*
X6884782Y-12627260D02*
X6894305Y-12617736D01*
X6894305Y-12617736D02*
X6903829Y-12598688D01*
X6903829Y-12598688D02*
X6903829Y-12560593D01*
X6903829Y-12560593D02*
X6894305Y-12541546D01*
X6894305Y-12541546D02*
X6884782Y-12532022D01*
X6884782Y-12532022D02*
X6865734Y-12522498D01*
X6999067Y-12636784D02*
X7037162Y-12636784D01*
X7037162Y-12636784D02*
X7056210Y-12627260D01*
X7056210Y-12627260D02*
X7065734Y-12617736D01*
X7065734Y-12617736D02*
X7084782Y-12589165D01*
X7084782Y-12589165D02*
X7094305Y-12551069D01*
X7094305Y-12551069D02*
X7094305Y-12474879D01*
X7094305Y-12474879D02*
X7084782Y-12455831D01*
X7084782Y-12455831D02*
X7075258Y-12446308D01*
X7075258Y-12446308D02*
X7056210Y-12436784D01*
X7056210Y-12436784D02*
X7018115Y-12436784D01*
X7018115Y-12436784D02*
X6999067Y-12446308D01*
X6999067Y-12446308D02*
X6989543Y-12455831D01*
X6989543Y-12455831D02*
X6980020Y-12474879D01*
X6980020Y-12474879D02*
X6980020Y-12522498D01*
X6980020Y-12522498D02*
X6989543Y-12541546D01*
X6989543Y-12541546D02*
X6999067Y-12551069D01*
X6999067Y-12551069D02*
X7018115Y-12560593D01*
X7018115Y-12560593D02*
X7056210Y-12560593D01*
X7056210Y-12560593D02*
X7075258Y-12551069D01*
X7075258Y-12551069D02*
X7084782Y-12541546D01*
X7084782Y-12541546D02*
X7094305Y-12522498D01*
X7180020Y-12636784D02*
X7180020Y-12503450D01*
X7180020Y-12522498D02*
X7189543Y-12512974D01*
X7189543Y-12512974D02*
X7208591Y-12503450D01*
X7208591Y-12503450D02*
X7237163Y-12503450D01*
X7237163Y-12503450D02*
X7256210Y-12512974D01*
X7256210Y-12512974D02*
X7265734Y-12532022D01*
X7265734Y-12532022D02*
X7265734Y-12636784D01*
X7265734Y-12532022D02*
X7275258Y-12512974D01*
X7275258Y-12512974D02*
X7294305Y-12503450D01*
X7294305Y-12503450D02*
X7322877Y-12503450D01*
X7322877Y-12503450D02*
X7341924Y-12512974D01*
X7341924Y-12512974D02*
X7351448Y-12532022D01*
X7351448Y-12532022D02*
X7351448Y-12636784D01*
X7446686Y-12636784D02*
X7446686Y-12503450D01*
X7446686Y-12522498D02*
X7456210Y-12512974D01*
X7456210Y-12512974D02*
X7475258Y-12503450D01*
X7475258Y-12503450D02*
X7503829Y-12503450D01*
X7503829Y-12503450D02*
X7522877Y-12512974D01*
X7522877Y-12512974D02*
X7532401Y-12532022D01*
X7532401Y-12532022D02*
X7532401Y-12636784D01*
X7532401Y-12532022D02*
X7541924Y-12512974D01*
X7541924Y-12512974D02*
X7560972Y-12503450D01*
X7560972Y-12503450D02*
X7589543Y-12503450D01*
X7589543Y-12503450D02*
X7608591Y-12512974D01*
X7608591Y-12512974D02*
X7618115Y-12532022D01*
X7618115Y-12532022D02*
X7618115Y-12636784D01*
X8008591Y-12427260D02*
X7837163Y-12684403D01*
X8265734Y-12436784D02*
X8284782Y-12436784D01*
X8284782Y-12436784D02*
X8303829Y-12446308D01*
X8303829Y-12446308D02*
X8313353Y-12455831D01*
X8313353Y-12455831D02*
X8322877Y-12474879D01*
X8322877Y-12474879D02*
X8332401Y-12512974D01*
X8332401Y-12512974D02*
X8332401Y-12560593D01*
X8332401Y-12560593D02*
X8322877Y-12598688D01*
X8322877Y-12598688D02*
X8313353Y-12617736D01*
X8313353Y-12617736D02*
X8303829Y-12627260D01*
X8303829Y-12627260D02*
X8284782Y-12636784D01*
X8284782Y-12636784D02*
X8265734Y-12636784D01*
X8265734Y-12636784D02*
X8246686Y-12627260D01*
X8246686Y-12627260D02*
X8237163Y-12617736D01*
X8237163Y-12617736D02*
X8227639Y-12598688D01*
X8227639Y-12598688D02*
X8218115Y-12560593D01*
X8218115Y-12560593D02*
X8218115Y-12512974D01*
X8218115Y-12512974D02*
X8227639Y-12474879D01*
X8227639Y-12474879D02*
X8237163Y-12455831D01*
X8237163Y-12455831D02*
X8246686Y-12446308D01*
X8246686Y-12446308D02*
X8265734Y-12436784D01*
X8418115Y-12617736D02*
X8427639Y-12627260D01*
X8427639Y-12627260D02*
X8418115Y-12636784D01*
X8418115Y-12636784D02*
X8408591Y-12627260D01*
X8408591Y-12627260D02*
X8418115Y-12617736D01*
X8418115Y-12617736D02*
X8418115Y-12636784D01*
X8551448Y-12436784D02*
X8570496Y-12436784D01*
X8570496Y-12436784D02*
X8589544Y-12446308D01*
X8589544Y-12446308D02*
X8599068Y-12455831D01*
X8599068Y-12455831D02*
X8608591Y-12474879D01*
X8608591Y-12474879D02*
X8618115Y-12512974D01*
X8618115Y-12512974D02*
X8618115Y-12560593D01*
X8618115Y-12560593D02*
X8608591Y-12598688D01*
X8608591Y-12598688D02*
X8599068Y-12617736D01*
X8599068Y-12617736D02*
X8589544Y-12627260D01*
X8589544Y-12627260D02*
X8570496Y-12636784D01*
X8570496Y-12636784D02*
X8551448Y-12636784D01*
X8551448Y-12636784D02*
X8532401Y-12627260D01*
X8532401Y-12627260D02*
X8522877Y-12617736D01*
X8522877Y-12617736D02*
X8513353Y-12598688D01*
X8513353Y-12598688D02*
X8503829Y-12560593D01*
X8503829Y-12560593D02*
X8503829Y-12512974D01*
X8503829Y-12512974D02*
X8513353Y-12474879D01*
X8513353Y-12474879D02*
X8522877Y-12455831D01*
X8522877Y-12455831D02*
X8532401Y-12446308D01*
X8532401Y-12446308D02*
X8551448Y-12436784D01*
X8684782Y-12436784D02*
X8808591Y-12436784D01*
X8808591Y-12436784D02*
X8741925Y-12512974D01*
X8741925Y-12512974D02*
X8770496Y-12512974D01*
X8770496Y-12512974D02*
X8789544Y-12522498D01*
X8789544Y-12522498D02*
X8799068Y-12532022D01*
X8799068Y-12532022D02*
X8808591Y-12551069D01*
X8808591Y-12551069D02*
X8808591Y-12598688D01*
X8808591Y-12598688D02*
X8799068Y-12617736D01*
X8799068Y-12617736D02*
X8789544Y-12627260D01*
X8789544Y-12627260D02*
X8770496Y-12636784D01*
X8770496Y-12636784D02*
X8713353Y-12636784D01*
X8713353Y-12636784D02*
X8694306Y-12627260D01*
X8694306Y-12627260D02*
X8684782Y-12617736D01*
X8989544Y-12436784D02*
X8894306Y-12436784D01*
X8894306Y-12436784D02*
X8884782Y-12532022D01*
X8884782Y-12532022D02*
X8894306Y-12522498D01*
X8894306Y-12522498D02*
X8913353Y-12512974D01*
X8913353Y-12512974D02*
X8960972Y-12512974D01*
X8960972Y-12512974D02*
X8980020Y-12522498D01*
X8980020Y-12522498D02*
X8989544Y-12532022D01*
X8989544Y-12532022D02*
X8999068Y-12551069D01*
X8999068Y-12551069D02*
X8999068Y-12598688D01*
X8999068Y-12598688D02*
X8989544Y-12617736D01*
X8989544Y-12617736D02*
X8980020Y-12627260D01*
X8980020Y-12627260D02*
X8960972Y-12636784D01*
X8960972Y-12636784D02*
X8913353Y-12636784D01*
X8913353Y-12636784D02*
X8894306Y-12627260D01*
X8894306Y-12627260D02*
X8884782Y-12617736D01*
X9122877Y-12436784D02*
X9141925Y-12436784D01*
X9141925Y-12436784D02*
X9160972Y-12446308D01*
X9160972Y-12446308D02*
X9170496Y-12455831D01*
X9170496Y-12455831D02*
X9180020Y-12474879D01*
X9180020Y-12474879D02*
X9189544Y-12512974D01*
X9189544Y-12512974D02*
X9189544Y-12560593D01*
X9189544Y-12560593D02*
X9180020Y-12598688D01*
X9180020Y-12598688D02*
X9170496Y-12617736D01*
X9170496Y-12617736D02*
X9160972Y-12627260D01*
X9160972Y-12627260D02*
X9141925Y-12636784D01*
X9141925Y-12636784D02*
X9122877Y-12636784D01*
X9122877Y-12636784D02*
X9103829Y-12627260D01*
X9103829Y-12627260D02*
X9094306Y-12617736D01*
X9094306Y-12617736D02*
X9084782Y-12598688D01*
X9084782Y-12598688D02*
X9075258Y-12560593D01*
X9075258Y-12560593D02*
X9075258Y-12512974D01*
X9075258Y-12512974D02*
X9084782Y-12474879D01*
X9084782Y-12474879D02*
X9094306Y-12455831D01*
X9094306Y-12455831D02*
X9103829Y-12446308D01*
X9103829Y-12446308D02*
X9122877Y-12436784D01*
X9265734Y-12436784D02*
X9265734Y-12474879D01*
X9341925Y-12436784D02*
X9341925Y-12474879D01*
X9637163Y-12712974D02*
X9627639Y-12703450D01*
X9627639Y-12703450D02*
X9608591Y-12674879D01*
X9608591Y-12674879D02*
X9599068Y-12655831D01*
X9599068Y-12655831D02*
X9589544Y-12627260D01*
X9589544Y-12627260D02*
X9580020Y-12579641D01*
X9580020Y-12579641D02*
X9580020Y-12541546D01*
X9580020Y-12541546D02*
X9589544Y-12493927D01*
X9589544Y-12493927D02*
X9599068Y-12465355D01*
X9599068Y-12465355D02*
X9608591Y-12446308D01*
X9608591Y-12446308D02*
X9627639Y-12417736D01*
X9627639Y-12417736D02*
X9637163Y-12408212D01*
X9818115Y-12636784D02*
X9703830Y-12636784D01*
X9760972Y-12636784D02*
X9760972Y-12436784D01*
X9760972Y-12436784D02*
X9741925Y-12465355D01*
X9741925Y-12465355D02*
X9722877Y-12484403D01*
X9722877Y-12484403D02*
X9703830Y-12493927D01*
X9989544Y-12436784D02*
X9951449Y-12436784D01*
X9951449Y-12436784D02*
X9932401Y-12446308D01*
X9932401Y-12446308D02*
X9922877Y-12455831D01*
X9922877Y-12455831D02*
X9903830Y-12484403D01*
X9903830Y-12484403D02*
X9894306Y-12522498D01*
X9894306Y-12522498D02*
X9894306Y-12598688D01*
X9894306Y-12598688D02*
X9903830Y-12617736D01*
X9903830Y-12617736D02*
X9913353Y-12627260D01*
X9913353Y-12627260D02*
X9932401Y-12636784D01*
X9932401Y-12636784D02*
X9970496Y-12636784D01*
X9970496Y-12636784D02*
X9989544Y-12627260D01*
X9989544Y-12627260D02*
X9999068Y-12617736D01*
X9999068Y-12617736D02*
X10008591Y-12598688D01*
X10008591Y-12598688D02*
X10008591Y-12551069D01*
X10008591Y-12551069D02*
X9999068Y-12532022D01*
X9999068Y-12532022D02*
X9989544Y-12522498D01*
X9989544Y-12522498D02*
X9970496Y-12512974D01*
X9970496Y-12512974D02*
X9932401Y-12512974D01*
X9932401Y-12512974D02*
X9913353Y-12522498D01*
X9913353Y-12522498D02*
X9903830Y-12532022D01*
X9903830Y-12532022D02*
X9894306Y-12551069D01*
X10246687Y-12636784D02*
X10246687Y-12436784D01*
X10332401Y-12636784D02*
X10332401Y-12532022D01*
X10332401Y-12532022D02*
X10322877Y-12512974D01*
X10322877Y-12512974D02*
X10303830Y-12503450D01*
X10303830Y-12503450D02*
X10275258Y-12503450D01*
X10275258Y-12503450D02*
X10256211Y-12512974D01*
X10256211Y-12512974D02*
X10246687Y-12522498D01*
X10456211Y-12636784D02*
X10437163Y-12627260D01*
X10437163Y-12627260D02*
X10427639Y-12617736D01*
X10427639Y-12617736D02*
X10418115Y-12598688D01*
X10418115Y-12598688D02*
X10418115Y-12541546D01*
X10418115Y-12541546D02*
X10427639Y-12522498D01*
X10427639Y-12522498D02*
X10437163Y-12512974D01*
X10437163Y-12512974D02*
X10456211Y-12503450D01*
X10456211Y-12503450D02*
X10484782Y-12503450D01*
X10484782Y-12503450D02*
X10503830Y-12512974D01*
X10503830Y-12512974D02*
X10513353Y-12522498D01*
X10513353Y-12522498D02*
X10522877Y-12541546D01*
X10522877Y-12541546D02*
X10522877Y-12598688D01*
X10522877Y-12598688D02*
X10513353Y-12617736D01*
X10513353Y-12617736D02*
X10503830Y-12627260D01*
X10503830Y-12627260D02*
X10484782Y-12636784D01*
X10484782Y-12636784D02*
X10456211Y-12636784D01*
X10637163Y-12636784D02*
X10618115Y-12627260D01*
X10618115Y-12627260D02*
X10608592Y-12608212D01*
X10608592Y-12608212D02*
X10608592Y-12436784D01*
X10789544Y-12627260D02*
X10770496Y-12636784D01*
X10770496Y-12636784D02*
X10732401Y-12636784D01*
X10732401Y-12636784D02*
X10713353Y-12627260D01*
X10713353Y-12627260D02*
X10703830Y-12608212D01*
X10703830Y-12608212D02*
X10703830Y-12532022D01*
X10703830Y-12532022D02*
X10713353Y-12512974D01*
X10713353Y-12512974D02*
X10732401Y-12503450D01*
X10732401Y-12503450D02*
X10770496Y-12503450D01*
X10770496Y-12503450D02*
X10789544Y-12512974D01*
X10789544Y-12512974D02*
X10799068Y-12532022D01*
X10799068Y-12532022D02*
X10799068Y-12551069D01*
X10799068Y-12551069D02*
X10703830Y-12570117D01*
X10875258Y-12627260D02*
X10894306Y-12636784D01*
X10894306Y-12636784D02*
X10932401Y-12636784D01*
X10932401Y-12636784D02*
X10951449Y-12627260D01*
X10951449Y-12627260D02*
X10960973Y-12608212D01*
X10960973Y-12608212D02*
X10960973Y-12598688D01*
X10960973Y-12598688D02*
X10951449Y-12579641D01*
X10951449Y-12579641D02*
X10932401Y-12570117D01*
X10932401Y-12570117D02*
X10903830Y-12570117D01*
X10903830Y-12570117D02*
X10884782Y-12560593D01*
X10884782Y-12560593D02*
X10875258Y-12541546D01*
X10875258Y-12541546D02*
X10875258Y-12532022D01*
X10875258Y-12532022D02*
X10884782Y-12512974D01*
X10884782Y-12512974D02*
X10903830Y-12503450D01*
X10903830Y-12503450D02*
X10932401Y-12503450D01*
X10932401Y-12503450D02*
X10951449Y-12512974D01*
X11027639Y-12712974D02*
X11037163Y-12703450D01*
X11037163Y-12703450D02*
X11056211Y-12674879D01*
X11056211Y-12674879D02*
X11065734Y-12655831D01*
X11065734Y-12655831D02*
X11075258Y-12627260D01*
X11075258Y-12627260D02*
X11084782Y-12579641D01*
X11084782Y-12579641D02*
X11084782Y-12541546D01*
X11084782Y-12541546D02*
X11075258Y-12493927D01*
X11075258Y-12493927D02*
X11065734Y-12465355D01*
X11065734Y-12465355D02*
X11056211Y-12446308D01*
X11056211Y-12446308D02*
X11037163Y-12417736D01*
X11037163Y-12417736D02*
X11027639Y-12408212D01*
D12*
X6012100Y-12859300D02*
X6062100Y-12809300D01*
X6012100Y-12759300D01*
X5962100Y-12809300D01*
X6012100Y-12859300D01*
D11*
X6427639Y-12900784D02*
X6313353Y-12900784D01*
X6370496Y-12900784D02*
X6370496Y-12700784D01*
X6370496Y-12700784D02*
X6351448Y-12729355D01*
X6351448Y-12729355D02*
X6332401Y-12748403D01*
X6332401Y-12748403D02*
X6313353Y-12757927D01*
X6513353Y-12881736D02*
X6522877Y-12891260D01*
X6522877Y-12891260D02*
X6513353Y-12900784D01*
X6513353Y-12900784D02*
X6503829Y-12891260D01*
X6503829Y-12891260D02*
X6513353Y-12881736D01*
X6513353Y-12881736D02*
X6513353Y-12900784D01*
X6646686Y-12700784D02*
X6665734Y-12700784D01*
X6665734Y-12700784D02*
X6684782Y-12710308D01*
X6684782Y-12710308D02*
X6694305Y-12719831D01*
X6694305Y-12719831D02*
X6703829Y-12738879D01*
X6703829Y-12738879D02*
X6713353Y-12776974D01*
X6713353Y-12776974D02*
X6713353Y-12824593D01*
X6713353Y-12824593D02*
X6703829Y-12862688D01*
X6703829Y-12862688D02*
X6694305Y-12881736D01*
X6694305Y-12881736D02*
X6684782Y-12891260D01*
X6684782Y-12891260D02*
X6665734Y-12900784D01*
X6665734Y-12900784D02*
X6646686Y-12900784D01*
X6646686Y-12900784D02*
X6627639Y-12891260D01*
X6627639Y-12891260D02*
X6618115Y-12881736D01*
X6618115Y-12881736D02*
X6608591Y-12862688D01*
X6608591Y-12862688D02*
X6599067Y-12824593D01*
X6599067Y-12824593D02*
X6599067Y-12776974D01*
X6599067Y-12776974D02*
X6608591Y-12738879D01*
X6608591Y-12738879D02*
X6618115Y-12719831D01*
X6618115Y-12719831D02*
X6627639Y-12710308D01*
X6627639Y-12710308D02*
X6646686Y-12700784D01*
X6837162Y-12700784D02*
X6856210Y-12700784D01*
X6856210Y-12700784D02*
X6875258Y-12710308D01*
X6875258Y-12710308D02*
X6884782Y-12719831D01*
X6884782Y-12719831D02*
X6894305Y-12738879D01*
X6894305Y-12738879D02*
X6903829Y-12776974D01*
X6903829Y-12776974D02*
X6903829Y-12824593D01*
X6903829Y-12824593D02*
X6894305Y-12862688D01*
X6894305Y-12862688D02*
X6884782Y-12881736D01*
X6884782Y-12881736D02*
X6875258Y-12891260D01*
X6875258Y-12891260D02*
X6856210Y-12900784D01*
X6856210Y-12900784D02*
X6837162Y-12900784D01*
X6837162Y-12900784D02*
X6818115Y-12891260D01*
X6818115Y-12891260D02*
X6808591Y-12881736D01*
X6808591Y-12881736D02*
X6799067Y-12862688D01*
X6799067Y-12862688D02*
X6789543Y-12824593D01*
X6789543Y-12824593D02*
X6789543Y-12776974D01*
X6789543Y-12776974D02*
X6799067Y-12738879D01*
X6799067Y-12738879D02*
X6808591Y-12719831D01*
X6808591Y-12719831D02*
X6818115Y-12710308D01*
X6818115Y-12710308D02*
X6837162Y-12700784D01*
X7027639Y-12700784D02*
X7046686Y-12700784D01*
X7046686Y-12700784D02*
X7065734Y-12710308D01*
X7065734Y-12710308D02*
X7075258Y-12719831D01*
X7075258Y-12719831D02*
X7084782Y-12738879D01*
X7084782Y-12738879D02*
X7094305Y-12776974D01*
X7094305Y-12776974D02*
X7094305Y-12824593D01*
X7094305Y-12824593D02*
X7084782Y-12862688D01*
X7084782Y-12862688D02*
X7075258Y-12881736D01*
X7075258Y-12881736D02*
X7065734Y-12891260D01*
X7065734Y-12891260D02*
X7046686Y-12900784D01*
X7046686Y-12900784D02*
X7027639Y-12900784D01*
X7027639Y-12900784D02*
X7008591Y-12891260D01*
X7008591Y-12891260D02*
X6999067Y-12881736D01*
X6999067Y-12881736D02*
X6989543Y-12862688D01*
X6989543Y-12862688D02*
X6980020Y-12824593D01*
X6980020Y-12824593D02*
X6980020Y-12776974D01*
X6980020Y-12776974D02*
X6989543Y-12738879D01*
X6989543Y-12738879D02*
X6999067Y-12719831D01*
X6999067Y-12719831D02*
X7008591Y-12710308D01*
X7008591Y-12710308D02*
X7027639Y-12700784D01*
X7180020Y-12900784D02*
X7180020Y-12767450D01*
X7180020Y-12786498D02*
X7189543Y-12776974D01*
X7189543Y-12776974D02*
X7208591Y-12767450D01*
X7208591Y-12767450D02*
X7237163Y-12767450D01*
X7237163Y-12767450D02*
X7256210Y-12776974D01*
X7256210Y-12776974D02*
X7265734Y-12796022D01*
X7265734Y-12796022D02*
X7265734Y-12900784D01*
X7265734Y-12796022D02*
X7275258Y-12776974D01*
X7275258Y-12776974D02*
X7294305Y-12767450D01*
X7294305Y-12767450D02*
X7322877Y-12767450D01*
X7322877Y-12767450D02*
X7341924Y-12776974D01*
X7341924Y-12776974D02*
X7351448Y-12796022D01*
X7351448Y-12796022D02*
X7351448Y-12900784D01*
X7446686Y-12900784D02*
X7446686Y-12767450D01*
X7446686Y-12786498D02*
X7456210Y-12776974D01*
X7456210Y-12776974D02*
X7475258Y-12767450D01*
X7475258Y-12767450D02*
X7503829Y-12767450D01*
X7503829Y-12767450D02*
X7522877Y-12776974D01*
X7522877Y-12776974D02*
X7532401Y-12796022D01*
X7532401Y-12796022D02*
X7532401Y-12900784D01*
X7532401Y-12796022D02*
X7541924Y-12776974D01*
X7541924Y-12776974D02*
X7560972Y-12767450D01*
X7560972Y-12767450D02*
X7589543Y-12767450D01*
X7589543Y-12767450D02*
X7608591Y-12776974D01*
X7608591Y-12776974D02*
X7618115Y-12796022D01*
X7618115Y-12796022D02*
X7618115Y-12900784D01*
X8008591Y-12691260D02*
X7837163Y-12948403D01*
X8265734Y-12700784D02*
X8284782Y-12700784D01*
X8284782Y-12700784D02*
X8303829Y-12710308D01*
X8303829Y-12710308D02*
X8313353Y-12719831D01*
X8313353Y-12719831D02*
X8322877Y-12738879D01*
X8322877Y-12738879D02*
X8332401Y-12776974D01*
X8332401Y-12776974D02*
X8332401Y-12824593D01*
X8332401Y-12824593D02*
X8322877Y-12862688D01*
X8322877Y-12862688D02*
X8313353Y-12881736D01*
X8313353Y-12881736D02*
X8303829Y-12891260D01*
X8303829Y-12891260D02*
X8284782Y-12900784D01*
X8284782Y-12900784D02*
X8265734Y-12900784D01*
X8265734Y-12900784D02*
X8246686Y-12891260D01*
X8246686Y-12891260D02*
X8237163Y-12881736D01*
X8237163Y-12881736D02*
X8227639Y-12862688D01*
X8227639Y-12862688D02*
X8218115Y-12824593D01*
X8218115Y-12824593D02*
X8218115Y-12776974D01*
X8218115Y-12776974D02*
X8227639Y-12738879D01*
X8227639Y-12738879D02*
X8237163Y-12719831D01*
X8237163Y-12719831D02*
X8246686Y-12710308D01*
X8246686Y-12710308D02*
X8265734Y-12700784D01*
X8418115Y-12881736D02*
X8427639Y-12891260D01*
X8427639Y-12891260D02*
X8418115Y-12900784D01*
X8418115Y-12900784D02*
X8408591Y-12891260D01*
X8408591Y-12891260D02*
X8418115Y-12881736D01*
X8418115Y-12881736D02*
X8418115Y-12900784D01*
X8551448Y-12700784D02*
X8570496Y-12700784D01*
X8570496Y-12700784D02*
X8589544Y-12710308D01*
X8589544Y-12710308D02*
X8599068Y-12719831D01*
X8599068Y-12719831D02*
X8608591Y-12738879D01*
X8608591Y-12738879D02*
X8618115Y-12776974D01*
X8618115Y-12776974D02*
X8618115Y-12824593D01*
X8618115Y-12824593D02*
X8608591Y-12862688D01*
X8608591Y-12862688D02*
X8599068Y-12881736D01*
X8599068Y-12881736D02*
X8589544Y-12891260D01*
X8589544Y-12891260D02*
X8570496Y-12900784D01*
X8570496Y-12900784D02*
X8551448Y-12900784D01*
X8551448Y-12900784D02*
X8532401Y-12891260D01*
X8532401Y-12891260D02*
X8522877Y-12881736D01*
X8522877Y-12881736D02*
X8513353Y-12862688D01*
X8513353Y-12862688D02*
X8503829Y-12824593D01*
X8503829Y-12824593D02*
X8503829Y-12776974D01*
X8503829Y-12776974D02*
X8513353Y-12738879D01*
X8513353Y-12738879D02*
X8522877Y-12719831D01*
X8522877Y-12719831D02*
X8532401Y-12710308D01*
X8532401Y-12710308D02*
X8551448Y-12700784D01*
X8684782Y-12700784D02*
X8808591Y-12700784D01*
X8808591Y-12700784D02*
X8741925Y-12776974D01*
X8741925Y-12776974D02*
X8770496Y-12776974D01*
X8770496Y-12776974D02*
X8789544Y-12786498D01*
X8789544Y-12786498D02*
X8799068Y-12796022D01*
X8799068Y-12796022D02*
X8808591Y-12815069D01*
X8808591Y-12815069D02*
X8808591Y-12862688D01*
X8808591Y-12862688D02*
X8799068Y-12881736D01*
X8799068Y-12881736D02*
X8789544Y-12891260D01*
X8789544Y-12891260D02*
X8770496Y-12900784D01*
X8770496Y-12900784D02*
X8713353Y-12900784D01*
X8713353Y-12900784D02*
X8694306Y-12891260D01*
X8694306Y-12891260D02*
X8684782Y-12881736D01*
X8903829Y-12900784D02*
X8941925Y-12900784D01*
X8941925Y-12900784D02*
X8960972Y-12891260D01*
X8960972Y-12891260D02*
X8970496Y-12881736D01*
X8970496Y-12881736D02*
X8989544Y-12853165D01*
X8989544Y-12853165D02*
X8999068Y-12815069D01*
X8999068Y-12815069D02*
X8999068Y-12738879D01*
X8999068Y-12738879D02*
X8989544Y-12719831D01*
X8989544Y-12719831D02*
X8980020Y-12710308D01*
X8980020Y-12710308D02*
X8960972Y-12700784D01*
X8960972Y-12700784D02*
X8922877Y-12700784D01*
X8922877Y-12700784D02*
X8903829Y-12710308D01*
X8903829Y-12710308D02*
X8894306Y-12719831D01*
X8894306Y-12719831D02*
X8884782Y-12738879D01*
X8884782Y-12738879D02*
X8884782Y-12786498D01*
X8884782Y-12786498D02*
X8894306Y-12805546D01*
X8894306Y-12805546D02*
X8903829Y-12815069D01*
X8903829Y-12815069D02*
X8922877Y-12824593D01*
X8922877Y-12824593D02*
X8960972Y-12824593D01*
X8960972Y-12824593D02*
X8980020Y-12815069D01*
X8980020Y-12815069D02*
X8989544Y-12805546D01*
X8989544Y-12805546D02*
X8999068Y-12786498D01*
X9170496Y-12767450D02*
X9170496Y-12900784D01*
X9122877Y-12691260D02*
X9075258Y-12834117D01*
X9075258Y-12834117D02*
X9199068Y-12834117D01*
X9265734Y-12700784D02*
X9265734Y-12738879D01*
X9341925Y-12700784D02*
X9341925Y-12738879D01*
X9637163Y-12976974D02*
X9627639Y-12967450D01*
X9627639Y-12967450D02*
X9608591Y-12938879D01*
X9608591Y-12938879D02*
X9599068Y-12919831D01*
X9599068Y-12919831D02*
X9589544Y-12891260D01*
X9589544Y-12891260D02*
X9580020Y-12843641D01*
X9580020Y-12843641D02*
X9580020Y-12805546D01*
X9580020Y-12805546D02*
X9589544Y-12757927D01*
X9589544Y-12757927D02*
X9599068Y-12729355D01*
X9599068Y-12729355D02*
X9608591Y-12710308D01*
X9608591Y-12710308D02*
X9627639Y-12681736D01*
X9627639Y-12681736D02*
X9637163Y-12672212D01*
X9818115Y-12900784D02*
X9703830Y-12900784D01*
X9760972Y-12900784D02*
X9760972Y-12700784D01*
X9760972Y-12700784D02*
X9741925Y-12729355D01*
X9741925Y-12729355D02*
X9722877Y-12748403D01*
X9722877Y-12748403D02*
X9703830Y-12757927D01*
X9989544Y-12700784D02*
X9951449Y-12700784D01*
X9951449Y-12700784D02*
X9932401Y-12710308D01*
X9932401Y-12710308D02*
X9922877Y-12719831D01*
X9922877Y-12719831D02*
X9903830Y-12748403D01*
X9903830Y-12748403D02*
X9894306Y-12786498D01*
X9894306Y-12786498D02*
X9894306Y-12862688D01*
X9894306Y-12862688D02*
X9903830Y-12881736D01*
X9903830Y-12881736D02*
X9913353Y-12891260D01*
X9913353Y-12891260D02*
X9932401Y-12900784D01*
X9932401Y-12900784D02*
X9970496Y-12900784D01*
X9970496Y-12900784D02*
X9989544Y-12891260D01*
X9989544Y-12891260D02*
X9999068Y-12881736D01*
X9999068Y-12881736D02*
X10008591Y-12862688D01*
X10008591Y-12862688D02*
X10008591Y-12815069D01*
X10008591Y-12815069D02*
X9999068Y-12796022D01*
X9999068Y-12796022D02*
X9989544Y-12786498D01*
X9989544Y-12786498D02*
X9970496Y-12776974D01*
X9970496Y-12776974D02*
X9932401Y-12776974D01*
X9932401Y-12776974D02*
X9913353Y-12786498D01*
X9913353Y-12786498D02*
X9903830Y-12796022D01*
X9903830Y-12796022D02*
X9894306Y-12815069D01*
X10246687Y-12900784D02*
X10246687Y-12700784D01*
X10332401Y-12900784D02*
X10332401Y-12796022D01*
X10332401Y-12796022D02*
X10322877Y-12776974D01*
X10322877Y-12776974D02*
X10303830Y-12767450D01*
X10303830Y-12767450D02*
X10275258Y-12767450D01*
X10275258Y-12767450D02*
X10256211Y-12776974D01*
X10256211Y-12776974D02*
X10246687Y-12786498D01*
X10456211Y-12900784D02*
X10437163Y-12891260D01*
X10437163Y-12891260D02*
X10427639Y-12881736D01*
X10427639Y-12881736D02*
X10418115Y-12862688D01*
X10418115Y-12862688D02*
X10418115Y-12805546D01*
X10418115Y-12805546D02*
X10427639Y-12786498D01*
X10427639Y-12786498D02*
X10437163Y-12776974D01*
X10437163Y-12776974D02*
X10456211Y-12767450D01*
X10456211Y-12767450D02*
X10484782Y-12767450D01*
X10484782Y-12767450D02*
X10503830Y-12776974D01*
X10503830Y-12776974D02*
X10513353Y-12786498D01*
X10513353Y-12786498D02*
X10522877Y-12805546D01*
X10522877Y-12805546D02*
X10522877Y-12862688D01*
X10522877Y-12862688D02*
X10513353Y-12881736D01*
X10513353Y-12881736D02*
X10503830Y-12891260D01*
X10503830Y-12891260D02*
X10484782Y-12900784D01*
X10484782Y-12900784D02*
X10456211Y-12900784D01*
X10637163Y-12900784D02*
X10618115Y-12891260D01*
X10618115Y-12891260D02*
X10608592Y-12872212D01*
X10608592Y-12872212D02*
X10608592Y-12700784D01*
X10789544Y-12891260D02*
X10770496Y-12900784D01*
X10770496Y-12900784D02*
X10732401Y-12900784D01*
X10732401Y-12900784D02*
X10713353Y-12891260D01*
X10713353Y-12891260D02*
X10703830Y-12872212D01*
X10703830Y-12872212D02*
X10703830Y-12796022D01*
X10703830Y-12796022D02*
X10713353Y-12776974D01*
X10713353Y-12776974D02*
X10732401Y-12767450D01*
X10732401Y-12767450D02*
X10770496Y-12767450D01*
X10770496Y-12767450D02*
X10789544Y-12776974D01*
X10789544Y-12776974D02*
X10799068Y-12796022D01*
X10799068Y-12796022D02*
X10799068Y-12815069D01*
X10799068Y-12815069D02*
X10703830Y-12834117D01*
X10875258Y-12891260D02*
X10894306Y-12900784D01*
X10894306Y-12900784D02*
X10932401Y-12900784D01*
X10932401Y-12900784D02*
X10951449Y-12891260D01*
X10951449Y-12891260D02*
X10960973Y-12872212D01*
X10960973Y-12872212D02*
X10960973Y-12862688D01*
X10960973Y-12862688D02*
X10951449Y-12843641D01*
X10951449Y-12843641D02*
X10932401Y-12834117D01*
X10932401Y-12834117D02*
X10903830Y-12834117D01*
X10903830Y-12834117D02*
X10884782Y-12824593D01*
X10884782Y-12824593D02*
X10875258Y-12805546D01*
X10875258Y-12805546D02*
X10875258Y-12796022D01*
X10875258Y-12796022D02*
X10884782Y-12776974D01*
X10884782Y-12776974D02*
X10903830Y-12767450D01*
X10903830Y-12767450D02*
X10932401Y-12767450D01*
X10932401Y-12767450D02*
X10951449Y-12776974D01*
X11027639Y-12976974D02*
X11037163Y-12967450D01*
X11037163Y-12967450D02*
X11056211Y-12938879D01*
X11056211Y-12938879D02*
X11065734Y-12919831D01*
X11065734Y-12919831D02*
X11075258Y-12891260D01*
X11075258Y-12891260D02*
X11084782Y-12843641D01*
X11084782Y-12843641D02*
X11084782Y-12805546D01*
X11084782Y-12805546D02*
X11075258Y-12757927D01*
X11075258Y-12757927D02*
X11065734Y-12729355D01*
X11065734Y-12729355D02*
X11056211Y-12710308D01*
X11056211Y-12710308D02*
X11037163Y-12681736D01*
X11037163Y-12681736D02*
X11027639Y-12672212D01*
M02*
