G04 #@! TF.GenerationSoftware,KiCad,Pcbnew,8.0.6*
G04 #@! TF.CreationDate,2025-01-06T22:58:22-05:00*
G04 #@! TF.ProjectId,MikroBusCAN,4d696b72-6f42-4757-9343-414e2e6b6963,rev?*
G04 #@! TF.SameCoordinates,Original*
G04 #@! TF.FileFunction,Copper,L1,Top*
G04 #@! TF.FilePolarity,Positive*
%FSLAX46Y46*%
G04 Gerber Fmt 4.6, Leading zero omitted, Abs format (unit mm)*
G04 Created by KiCad (PCBNEW 8.0.6) date 2025-01-06 22:58:22*
%MOMM*%
%LPD*%
G01*
G04 APERTURE LIST*
G04 #@! TA.AperFunction,ComponentPad*
%ADD10R,1.524000X1.524000*%
G04 #@! TD*
G04 #@! TA.AperFunction,ComponentPad*
%ADD11C,1.524000*%
G04 #@! TD*
G04 #@! TA.AperFunction,ComponentPad*
%ADD12R,1.700000X1.700000*%
G04 #@! TD*
G04 #@! TA.AperFunction,ComponentPad*
%ADD13O,1.700000X1.700000*%
G04 #@! TD*
G04 #@! TA.AperFunction,ComponentPad*
%ADD14C,1.600000*%
G04 #@! TD*
G04 #@! TA.AperFunction,ComponentPad*
%ADD15O,1.600000X1.600000*%
G04 #@! TD*
G04 #@! TA.AperFunction,ComponentPad*
%ADD16R,1.676400X1.676400*%
G04 #@! TD*
G04 #@! TA.AperFunction,ComponentPad*
%ADD17R,2.400000X1.600000*%
G04 #@! TD*
G04 #@! TA.AperFunction,ComponentPad*
%ADD18O,2.400000X1.600000*%
G04 #@! TD*
G04 #@! TA.AperFunction,ViaPad*
%ADD19C,0.800000*%
G04 #@! TD*
G04 #@! TA.AperFunction,Conductor*
%ADD20C,0.250000*%
G04 #@! TD*
G04 APERTURE END LIST*
D10*
X64900000Y-72658000D03*
D11*
X66900000Y-72658000D03*
X68900000Y-72658000D03*
X70900000Y-72658000D03*
D12*
X82900000Y-72458000D03*
D13*
X82900000Y-74998000D03*
X82900000Y-77538000D03*
X82900000Y-80078000D03*
D14*
X77100000Y-85758000D03*
X72100000Y-85758000D03*
X78100000Y-78758000D03*
D15*
X62860000Y-78758000D03*
D14*
X68650000Y-105608000D03*
X73650000Y-105608000D03*
D16*
X61915200Y-89457600D03*
D11*
X61915200Y-91997600D03*
X61915200Y-94537600D03*
X61915200Y-97077600D03*
X61915200Y-99617600D03*
X61915200Y-102157600D03*
X61915200Y-104697600D03*
X61915200Y-107237600D03*
X84775200Y-107237600D03*
X84775200Y-104697600D03*
X84775200Y-102157600D03*
X84775200Y-99617600D03*
X84775200Y-97077600D03*
X84775200Y-94537600D03*
X84775200Y-91997600D03*
D10*
X84775200Y-89457600D03*
D12*
X63300000Y-67058000D03*
D13*
X65840000Y-67058000D03*
X68380000Y-67058000D03*
X70920000Y-67058000D03*
X73460000Y-67058000D03*
X76000000Y-67058000D03*
X78540000Y-67058000D03*
X81080000Y-67058000D03*
D12*
X66600000Y-84058000D03*
D13*
X66600000Y-86598000D03*
D17*
X69130000Y-91458000D03*
D18*
X69130000Y-93998000D03*
X69130000Y-96538000D03*
X69130000Y-99078000D03*
X76750000Y-99078000D03*
X76750000Y-96538000D03*
X76750000Y-93998000D03*
X76750000Y-91458000D03*
D12*
X81200000Y-85758000D03*
D13*
X83740000Y-85758000D03*
D19*
X64752000Y-93587300D03*
X82833400Y-87851800D03*
X72848700Y-95176700D03*
X81872800Y-96090800D03*
D20*
X67603300Y-96538000D02*
X67603300Y-104561300D01*
X69130000Y-96538000D02*
X67603300Y-96538000D01*
X67603300Y-104561300D02*
X68650000Y-105608000D01*
X75731000Y-93998000D02*
X76750000Y-93998000D01*
X66600000Y-84867000D02*
X75731000Y-93998000D01*
X66600000Y-84058000D02*
X66600000Y-84867000D01*
X64752000Y-99320800D02*
X61915200Y-102157600D01*
X64752000Y-93587300D02*
X64752000Y-99320800D01*
X68934400Y-68234700D02*
X67291100Y-68234700D01*
X70111100Y-67058000D02*
X68934400Y-68234700D01*
X63080100Y-88484000D02*
X63080100Y-90832700D01*
X70920000Y-67058000D02*
X70111100Y-67058000D01*
X63080100Y-90832700D02*
X61915200Y-91997600D01*
X61646800Y-73879000D02*
X61646800Y-87050700D01*
X61646800Y-87050700D02*
X63080100Y-88484000D01*
X67291100Y-68234700D02*
X61646800Y-73879000D01*
X81696500Y-82239300D02*
X82376700Y-82919500D01*
X82376700Y-87395100D02*
X82833400Y-87851800D01*
X82900000Y-72458000D02*
X82900000Y-73267000D01*
X81696500Y-74470500D02*
X81696500Y-82239300D01*
X82376700Y-82919500D02*
X82376700Y-87395100D01*
X82900000Y-73267000D02*
X81696500Y-74470500D01*
X68900000Y-72658000D02*
X72100000Y-75858000D01*
X72100000Y-75858000D02*
X72100000Y-85758000D01*
X75974800Y-76150100D02*
X71389100Y-71564400D01*
X65993600Y-71564400D02*
X64900000Y-72658000D01*
X75974800Y-80928400D02*
X75974800Y-76150100D01*
X78925400Y-83879000D02*
X75974800Y-80928400D01*
X71389100Y-71564400D02*
X65993600Y-71564400D01*
X78925400Y-94173400D02*
X78925400Y-83879000D01*
X84369600Y-99617600D02*
X78925400Y-94173400D01*
X84775200Y-99617600D02*
X84369600Y-99617600D01*
X77482500Y-92728000D02*
X78379600Y-93625100D01*
X68533900Y-85243300D02*
X76018600Y-92728000D01*
X76018600Y-92728000D02*
X77482500Y-92728000D01*
X66900000Y-72658000D02*
X68533900Y-74291900D01*
X68533900Y-74291900D02*
X68533900Y-85243300D01*
X78379600Y-95762000D02*
X84775200Y-102157600D01*
X78379600Y-93625100D02*
X78379600Y-95762000D01*
X84955700Y-88188400D02*
X84775200Y-88368900D01*
X81080000Y-68234700D02*
X84955700Y-72110400D01*
X84955700Y-72110400D02*
X84955700Y-88188400D01*
X81080000Y-67058000D02*
X81080000Y-68234700D01*
X84775200Y-89457600D02*
X84775200Y-88368900D01*
X72848700Y-95176700D02*
X69130000Y-91458000D01*
X83740000Y-85758000D02*
X83740000Y-86934700D01*
X62860000Y-78758000D02*
X62860000Y-84523600D01*
X70226300Y-90014300D02*
X76750000Y-96538000D01*
X68350700Y-90014300D02*
X70226300Y-90014300D01*
X83740000Y-87972900D02*
X83740000Y-86934700D01*
X81872800Y-96090800D02*
X81872800Y-89840100D01*
X62860000Y-84523600D02*
X68350700Y-90014300D01*
X81872800Y-89840100D02*
X83740000Y-87972900D01*
G04 #@! TA.AperFunction,Conductor*
G36*
X62488812Y-85048770D02*
G01*
X62495395Y-85054899D01*
X67561891Y-90121395D01*
X67595917Y-90183707D01*
X67590852Y-90254522D01*
X67570458Y-90286266D01*
X67572139Y-90287525D01*
X67479112Y-90411792D01*
X67479110Y-90411797D01*
X67428011Y-90548795D01*
X67428009Y-90548803D01*
X67421500Y-90609350D01*
X67421500Y-92306649D01*
X67428009Y-92367196D01*
X67428011Y-92367204D01*
X67479110Y-92504202D01*
X67479112Y-92504207D01*
X67566738Y-92621261D01*
X67683792Y-92708887D01*
X67683794Y-92708888D01*
X67683796Y-92708889D01*
X67820799Y-92759989D01*
X67833467Y-92761350D01*
X67899059Y-92788517D01*
X67939552Y-92846833D01*
X67942090Y-92917784D01*
X67905865Y-92978844D01*
X67894068Y-92988562D01*
X67877889Y-93000317D01*
X67732317Y-93145889D01*
X67732315Y-93145892D01*
X67611300Y-93312454D01*
X67517829Y-93495900D01*
X67517826Y-93495906D01*
X67454208Y-93691704D01*
X67445926Y-93744000D01*
X68818314Y-93744000D01*
X68809920Y-93752394D01*
X68757259Y-93843606D01*
X68730000Y-93945339D01*
X68730000Y-94050661D01*
X68757259Y-94152394D01*
X68809920Y-94243606D01*
X68818314Y-94252000D01*
X67445926Y-94252000D01*
X67454208Y-94304295D01*
X67517826Y-94500093D01*
X67517829Y-94500099D01*
X67611300Y-94683545D01*
X67732315Y-94850107D01*
X67732317Y-94850110D01*
X67877889Y-94995682D01*
X67877892Y-94995684D01*
X68044455Y-95116700D01*
X68120511Y-95155453D01*
X68172126Y-95204202D01*
X68189192Y-95273117D01*
X68166291Y-95340318D01*
X68120511Y-95379987D01*
X68044193Y-95418872D01*
X67877567Y-95539934D01*
X67877564Y-95539936D01*
X67731936Y-95685564D01*
X67731934Y-95685567D01*
X67607961Y-95856202D01*
X67606242Y-95854953D01*
X67560132Y-95896598D01*
X67530029Y-95906663D01*
X67453958Y-95921795D01*
X67418515Y-95928845D01*
X67418514Y-95928845D01*
X67418511Y-95928846D01*
X67338359Y-95962047D01*
X67324427Y-95967818D01*
X67303223Y-95976601D01*
X67199471Y-96045926D01*
X67199464Y-96045931D01*
X67111231Y-96134164D01*
X67111226Y-96134171D01*
X67041901Y-96237923D01*
X66994146Y-96353212D01*
X66969800Y-96475603D01*
X66969800Y-96475606D01*
X66969800Y-104498906D01*
X66969800Y-104623694D01*
X66994145Y-104746085D01*
X67041900Y-104861375D01*
X67111229Y-104965133D01*
X67111231Y-104965135D01*
X67340847Y-105194751D01*
X67374873Y-105257063D01*
X67373459Y-105316456D01*
X67356458Y-105379907D01*
X67356457Y-105379910D01*
X67356457Y-105379913D01*
X67336502Y-105608000D01*
X67356457Y-105836087D01*
X67415716Y-106057243D01*
X67512477Y-106264749D01*
X67643802Y-106452300D01*
X67805700Y-106614198D01*
X67993251Y-106745523D01*
X68200757Y-106842284D01*
X68421913Y-106901543D01*
X68650000Y-106921498D01*
X68878087Y-106901543D01*
X69099243Y-106842284D01*
X69306749Y-106745523D01*
X69494300Y-106614198D01*
X69656198Y-106452300D01*
X69787523Y-106264749D01*
X69884284Y-106057243D01*
X69943543Y-105836087D01*
X69963498Y-105608000D01*
X72337004Y-105608000D01*
X72356951Y-105836002D01*
X72416186Y-106057068D01*
X72416188Y-106057073D01*
X72512913Y-106264501D01*
X72562899Y-106335888D01*
X73250000Y-105648788D01*
X73250000Y-105660661D01*
X73277259Y-105762394D01*
X73329920Y-105853606D01*
X73404394Y-105928080D01*
X73495606Y-105980741D01*
X73597339Y-106008000D01*
X73609210Y-106008000D01*
X72922110Y-106695098D01*
X72922110Y-106695100D01*
X72993498Y-106745086D01*
X73200926Y-106841811D01*
X73200931Y-106841813D01*
X73421999Y-106901048D01*
X73421995Y-106901048D01*
X73650000Y-106920995D01*
X73878002Y-106901048D01*
X74099068Y-106841813D01*
X74099073Y-106841811D01*
X74306497Y-106745088D01*
X74377888Y-106695099D01*
X74377888Y-106695097D01*
X73690791Y-106008000D01*
X73702661Y-106008000D01*
X73804394Y-105980741D01*
X73895606Y-105928080D01*
X73970080Y-105853606D01*
X74022741Y-105762394D01*
X74050000Y-105660661D01*
X74050000Y-105648791D01*
X74737097Y-106335888D01*
X74737099Y-106335888D01*
X74787088Y-106264497D01*
X74883811Y-106057073D01*
X74883813Y-106057068D01*
X74943048Y-105836002D01*
X74962995Y-105608000D01*
X74943048Y-105379997D01*
X74883813Y-105158931D01*
X74883811Y-105158926D01*
X74787086Y-104951498D01*
X74737100Y-104880110D01*
X74737098Y-104880110D01*
X74050000Y-105567208D01*
X74050000Y-105555339D01*
X74022741Y-105453606D01*
X73970080Y-105362394D01*
X73895606Y-105287920D01*
X73804394Y-105235259D01*
X73702661Y-105208000D01*
X73690790Y-105208000D01*
X74377888Y-104520899D01*
X74377888Y-104520898D01*
X74306501Y-104470913D01*
X74099073Y-104374188D01*
X74099068Y-104374186D01*
X73878000Y-104314951D01*
X73878004Y-104314951D01*
X73650000Y-104295004D01*
X73421997Y-104314951D01*
X73200931Y-104374186D01*
X73200926Y-104374188D01*
X72993500Y-104470913D01*
X72922109Y-104520900D01*
X73609209Y-105208000D01*
X73597339Y-105208000D01*
X73495606Y-105235259D01*
X73404394Y-105287920D01*
X73329920Y-105362394D01*
X73277259Y-105453606D01*
X73250000Y-105555339D01*
X73250000Y-105567209D01*
X72562900Y-104880109D01*
X72512913Y-104951500D01*
X72416188Y-105158926D01*
X72416186Y-105158931D01*
X72356951Y-105379997D01*
X72337004Y-105608000D01*
X69963498Y-105608000D01*
X69943543Y-105379913D01*
X69884284Y-105158757D01*
X69787523Y-104951251D01*
X69656198Y-104763700D01*
X69494300Y-104601802D01*
X69378757Y-104520898D01*
X69306749Y-104470477D01*
X69099246Y-104373717D01*
X69099240Y-104373715D01*
X69005771Y-104348670D01*
X68878087Y-104314457D01*
X68650000Y-104294502D01*
X68421913Y-104314457D01*
X68421910Y-104314457D01*
X68421907Y-104314458D01*
X68395407Y-104321558D01*
X68324431Y-104319866D01*
X68265636Y-104280070D01*
X68237691Y-104214805D01*
X68236800Y-104199850D01*
X68236800Y-100467011D01*
X68256802Y-100398890D01*
X68310458Y-100352397D01*
X68380732Y-100342293D01*
X68401731Y-100347177D01*
X68423592Y-100354280D01*
X68627019Y-100386500D01*
X68627022Y-100386500D01*
X69632978Y-100386500D01*
X69632981Y-100386500D01*
X69836408Y-100354280D01*
X70032290Y-100290634D01*
X70215803Y-100197129D01*
X70382430Y-100076068D01*
X70528068Y-99930430D01*
X70649129Y-99763803D01*
X70742634Y-99580290D01*
X70806280Y-99384408D01*
X70838500Y-99180981D01*
X70838500Y-98975019D01*
X70806280Y-98771592D01*
X70742634Y-98575710D01*
X70649129Y-98392197D01*
X70528068Y-98225570D01*
X70528065Y-98225567D01*
X70528063Y-98225564D01*
X70382435Y-98079936D01*
X70382432Y-98079934D01*
X70382430Y-98079932D01*
X70215803Y-97958871D01*
X70140034Y-97920265D01*
X70088422Y-97871519D01*
X70071356Y-97802604D01*
X70094257Y-97735402D01*
X70140034Y-97695735D01*
X70215803Y-97657129D01*
X70382430Y-97536068D01*
X70528068Y-97390430D01*
X70649129Y-97223803D01*
X70742634Y-97040290D01*
X70806280Y-96844408D01*
X70838500Y-96640981D01*
X70838500Y-96435019D01*
X70806280Y-96231592D01*
X70742634Y-96035710D01*
X70649129Y-95852197D01*
X70528068Y-95685570D01*
X70528065Y-95685567D01*
X70528063Y-95685564D01*
X70382435Y-95539936D01*
X70382432Y-95539934D01*
X70382430Y-95539932D01*
X70256999Y-95448802D01*
X70215806Y-95418873D01*
X70215805Y-95418872D01*
X70215803Y-95418871D01*
X70139486Y-95379985D01*
X70087873Y-95331239D01*
X70070807Y-95262324D01*
X70093708Y-95195122D01*
X70139488Y-95155453D01*
X70215545Y-95116699D01*
X70382107Y-94995684D01*
X70382110Y-94995682D01*
X70527682Y-94850110D01*
X70527684Y-94850107D01*
X70648699Y-94683545D01*
X70742170Y-94500099D01*
X70742173Y-94500093D01*
X70805790Y-94304299D01*
X70806429Y-94301639D01*
X70806949Y-94300732D01*
X70807323Y-94299583D01*
X70807564Y-94299661D01*
X70841776Y-94240067D01*
X70904801Y-94207380D01*
X70975492Y-94213955D01*
X71018045Y-94241949D01*
X71901577Y-95125481D01*
X71935603Y-95187793D01*
X71937792Y-95201405D01*
X71955157Y-95366627D01*
X71977907Y-95436641D01*
X72014173Y-95548256D01*
X72014176Y-95548261D01*
X72109658Y-95713641D01*
X72109665Y-95713651D01*
X72237444Y-95855564D01*
X72266341Y-95876559D01*
X72391948Y-95967818D01*
X72566412Y-96045494D01*
X72753213Y-96085200D01*
X72944187Y-96085200D01*
X73130988Y-96045494D01*
X73305452Y-95967818D01*
X73459953Y-95855566D01*
X73460505Y-95854953D01*
X73587734Y-95713651D01*
X73587735Y-95713649D01*
X73587740Y-95713644D01*
X73683227Y-95548256D01*
X73742242Y-95366628D01*
X73762204Y-95176700D01*
X73742242Y-94986772D01*
X73683227Y-94805144D01*
X73587740Y-94639756D01*
X73587738Y-94639754D01*
X73587734Y-94639748D01*
X73479482Y-94519522D01*
X73472968Y-94505950D01*
X73472860Y-94505927D01*
X73459184Y-94497275D01*
X73305452Y-94385582D01*
X73130988Y-94307906D01*
X72944187Y-94268200D01*
X72888294Y-94268200D01*
X72820173Y-94248198D01*
X72799199Y-94231295D01*
X70875405Y-92307501D01*
X70841379Y-92245189D01*
X70838500Y-92218406D01*
X70838500Y-91826594D01*
X70858502Y-91758473D01*
X70912158Y-91711980D01*
X70982432Y-91701876D01*
X71047012Y-91731370D01*
X71053595Y-91737499D01*
X73622340Y-94306244D01*
X73633304Y-94326323D01*
X73639209Y-94327936D01*
X73662213Y-94346117D01*
X75145016Y-95828920D01*
X75179042Y-95891232D01*
X75173977Y-95962047D01*
X75168188Y-95975217D01*
X75137369Y-96035702D01*
X75137364Y-96035714D01*
X75073721Y-96231587D01*
X75073720Y-96231590D01*
X75073720Y-96231592D01*
X75041500Y-96435019D01*
X75041500Y-96640981D01*
X75061882Y-96769666D01*
X75073721Y-96844412D01*
X75102967Y-96934423D01*
X75137366Y-97040290D01*
X75230871Y-97223803D01*
X75351932Y-97390430D01*
X75351934Y-97390432D01*
X75351936Y-97390435D01*
X75497564Y-97536063D01*
X75497567Y-97536065D01*
X75497570Y-97536068D01*
X75664197Y-97657129D01*
X75739962Y-97695733D01*
X75791577Y-97744482D01*
X75808643Y-97813397D01*
X75785742Y-97880598D01*
X75739963Y-97920266D01*
X75671033Y-97955387D01*
X75664193Y-97958873D01*
X75497567Y-98079934D01*
X75497564Y-98079936D01*
X75351936Y-98225564D01*
X75351934Y-98225567D01*
X75230873Y-98392193D01*
X75137367Y-98575708D01*
X75137364Y-98575714D01*
X75073721Y-98771587D01*
X75073720Y-98771590D01*
X75073720Y-98771592D01*
X75041500Y-98975019D01*
X75041500Y-99180981D01*
X75073528Y-99383194D01*
X75073721Y-99384412D01*
X75113092Y-99505585D01*
X75137366Y-99580290D01*
X75230871Y-99763803D01*
X75351932Y-99930430D01*
X75351934Y-99930432D01*
X75351936Y-99930435D01*
X75497564Y-100076063D01*
X75497567Y-100076065D01*
X75497570Y-100076068D01*
X75664197Y-100197129D01*
X75847710Y-100290634D01*
X76043592Y-100354280D01*
X76247019Y-100386500D01*
X76247022Y-100386500D01*
X77252978Y-100386500D01*
X77252981Y-100386500D01*
X77456408Y-100354280D01*
X77652290Y-100290634D01*
X77835803Y-100197129D01*
X78002430Y-100076068D01*
X78148068Y-99930430D01*
X78269129Y-99763803D01*
X78362634Y-99580290D01*
X78426280Y-99384408D01*
X78458500Y-99180981D01*
X78458500Y-98975019D01*
X78426280Y-98771592D01*
X78362634Y-98575710D01*
X78269129Y-98392197D01*
X78148068Y-98225570D01*
X78148065Y-98225567D01*
X78148063Y-98225564D01*
X78002435Y-98079936D01*
X78002432Y-98079934D01*
X78002430Y-98079932D01*
X77835803Y-97958871D01*
X77760034Y-97920265D01*
X77708422Y-97871519D01*
X77691356Y-97802604D01*
X77714257Y-97735402D01*
X77760034Y-97695735D01*
X77835803Y-97657129D01*
X78002430Y-97536068D01*
X78148068Y-97390430D01*
X78269129Y-97223803D01*
X78362634Y-97040290D01*
X78397032Y-96934422D01*
X78437105Y-96875817D01*
X78502502Y-96848180D01*
X78572459Y-96860287D01*
X78605960Y-96884264D01*
X83497074Y-101775378D01*
X83531100Y-101837690D01*
X83529686Y-101897081D01*
X83519223Y-101936131D01*
X83519222Y-101936136D01*
X83519222Y-101936137D01*
X83499847Y-102157600D01*
X83519222Y-102379063D01*
X83529900Y-102418913D01*
X83576759Y-102593793D01*
X83576761Y-102593799D01*
X83670711Y-102795275D01*
X83670712Y-102795277D01*
X83798216Y-102977372D01*
X83798220Y-102977377D01*
X83798223Y-102977381D01*
X83955419Y-103134577D01*
X83955423Y-103134580D01*
X83955427Y-103134583D01*
X84059324Y-103207332D01*
X84137523Y-103262088D01*
X84247573Y-103313405D01*
X84300858Y-103360322D01*
X84320319Y-103428599D01*
X84299777Y-103496559D01*
X84247573Y-103541795D01*
X84137523Y-103593112D01*
X83955422Y-103720620D01*
X83955416Y-103720625D01*
X83798225Y-103877816D01*
X83798220Y-103877822D01*
X83670712Y-104059923D01*
X83576761Y-104261401D01*
X83576759Y-104261406D01*
X83552944Y-104350287D01*
X83519222Y-104476137D01*
X83499847Y-104697600D01*
X83519222Y-104919063D01*
X83565473Y-105091674D01*
X83576759Y-105133793D01*
X83576761Y-105133799D01*
X83670711Y-105335275D01*
X83670712Y-105335277D01*
X83798216Y-105517372D01*
X83798220Y-105517377D01*
X83798223Y-105517381D01*
X83955419Y-105674577D01*
X83955423Y-105674580D01*
X83955427Y-105674583D01*
X84059324Y-105747332D01*
X84137523Y-105802088D01*
X84202510Y-105832392D01*
X84248164Y-105853681D01*
X84301449Y-105900598D01*
X84320910Y-105968876D01*
X84300368Y-106036836D01*
X84248165Y-106082070D01*
X84137777Y-106133545D01*
X84074594Y-106177785D01*
X84695566Y-106798757D01*
X84603629Y-106823392D01*
X84502270Y-106881911D01*
X84419511Y-106964670D01*
X84360992Y-107066029D01*
X84336357Y-107157966D01*
X83715385Y-106536994D01*
X83671146Y-106600175D01*
X83577233Y-106801572D01*
X83577231Y-106801576D01*
X83519717Y-107016225D01*
X83500349Y-107237600D01*
X83519717Y-107458974D01*
X83577231Y-107673623D01*
X83577233Y-107673627D01*
X83671146Y-107875025D01*
X83715384Y-107938203D01*
X83715385Y-107938203D01*
X84336356Y-107317231D01*
X84360992Y-107409171D01*
X84419511Y-107510530D01*
X84502270Y-107593289D01*
X84603629Y-107651808D01*
X84695566Y-107676442D01*
X84074595Y-108297413D01*
X84074595Y-108297414D01*
X84137775Y-108341653D01*
X84137774Y-108341653D01*
X84339172Y-108435566D01*
X84339176Y-108435568D01*
X84553825Y-108493082D01*
X84775200Y-108512450D01*
X84996574Y-108493082D01*
X85211223Y-108435568D01*
X85211227Y-108435566D01*
X85412625Y-108341653D01*
X85412626Y-108341652D01*
X85475803Y-108297414D01*
X85475803Y-108297412D01*
X84854833Y-107676442D01*
X84946771Y-107651808D01*
X85048130Y-107593289D01*
X85130889Y-107510530D01*
X85189408Y-107409171D01*
X85214042Y-107317233D01*
X85835012Y-107938203D01*
X85883519Y-107933960D01*
X85953124Y-107947950D01*
X86004116Y-107997349D01*
X86020500Y-108059481D01*
X86020500Y-108573120D01*
X86000498Y-108641241D01*
X85980998Y-108664740D01*
X84041961Y-110495374D01*
X83562490Y-110948042D01*
X83562407Y-110948120D01*
X83499142Y-110980339D01*
X83475909Y-110982500D01*
X64273600Y-110982500D01*
X64272314Y-110982493D01*
X60896214Y-110948042D01*
X60828301Y-110927346D01*
X60782358Y-110873219D01*
X60771500Y-110822049D01*
X60771500Y-108068369D01*
X60791502Y-108000248D01*
X60814452Y-107980361D01*
X60813840Y-107979749D01*
X61476356Y-107317232D01*
X61500992Y-107409171D01*
X61559511Y-107510530D01*
X61642270Y-107593289D01*
X61743629Y-107651808D01*
X61835566Y-107676442D01*
X61214595Y-108297413D01*
X61214595Y-108297414D01*
X61277775Y-108341653D01*
X61277774Y-108341653D01*
X61479172Y-108435566D01*
X61479176Y-108435568D01*
X61693825Y-108493082D01*
X61915200Y-108512450D01*
X62136574Y-108493082D01*
X62351223Y-108435568D01*
X62351227Y-108435566D01*
X62552625Y-108341653D01*
X62552626Y-108341652D01*
X62615803Y-108297414D01*
X62615803Y-108297412D01*
X61994833Y-107676442D01*
X62086771Y-107651808D01*
X62188130Y-107593289D01*
X62270889Y-107510530D01*
X62329408Y-107409171D01*
X62354042Y-107317233D01*
X62975012Y-107938203D01*
X62975014Y-107938203D01*
X63019252Y-107875026D01*
X63019253Y-107875025D01*
X63113166Y-107673627D01*
X63113168Y-107673623D01*
X63170682Y-107458974D01*
X63190050Y-107237600D01*
X63170682Y-107016225D01*
X63113168Y-106801576D01*
X63113166Y-106801572D01*
X63019251Y-106600171D01*
X62975015Y-106536995D01*
X62975013Y-106536995D01*
X62354042Y-107157966D01*
X62329408Y-107066029D01*
X62270889Y-106964670D01*
X62188130Y-106881911D01*
X62086771Y-106823392D01*
X61994832Y-106798757D01*
X62615803Y-106177785D01*
X62615803Y-106177784D01*
X62552625Y-106133546D01*
X62552620Y-106133543D01*
X62442234Y-106082069D01*
X62388950Y-106035152D01*
X62369489Y-105966875D01*
X62390031Y-105898915D01*
X62442234Y-105853681D01*
X62552877Y-105802088D01*
X62734981Y-105674577D01*
X62892177Y-105517381D01*
X63019688Y-105335277D01*
X63113640Y-105133796D01*
X63171178Y-104919063D01*
X63190553Y-104697600D01*
X63171178Y-104476137D01*
X63113640Y-104261404D01*
X63019688Y-104059924D01*
X62892177Y-103877819D01*
X62734981Y-103720623D01*
X62734977Y-103720620D01*
X62734972Y-103720616D01*
X62552877Y-103593112D01*
X62552875Y-103593111D01*
X62442827Y-103541795D01*
X62389542Y-103494878D01*
X62370081Y-103426601D01*
X62390623Y-103358641D01*
X62442827Y-103313405D01*
X62552877Y-103262088D01*
X62734981Y-103134577D01*
X62892177Y-102977381D01*
X63019688Y-102795277D01*
X63113640Y-102593796D01*
X63171178Y-102379063D01*
X63190553Y-102157600D01*
X63171178Y-101936137D01*
X63160713Y-101897081D01*
X63162401Y-101826111D01*
X63193320Y-101775382D01*
X65244071Y-99724633D01*
X65313400Y-99620875D01*
X65361155Y-99505585D01*
X65385500Y-99383194D01*
X65385500Y-99258406D01*
X65385500Y-94289824D01*
X65405502Y-94221703D01*
X65417858Y-94205520D01*
X65491040Y-94124244D01*
X65586527Y-93958856D01*
X65645542Y-93777228D01*
X65665504Y-93587300D01*
X65645542Y-93397372D01*
X65586527Y-93215744D01*
X65491040Y-93050356D01*
X65491038Y-93050354D01*
X65491034Y-93050348D01*
X65363255Y-92908435D01*
X65208752Y-92796182D01*
X65034288Y-92718506D01*
X64847487Y-92678800D01*
X64656513Y-92678800D01*
X64469711Y-92718506D01*
X64295247Y-92796182D01*
X64140744Y-92908435D01*
X64012965Y-93050348D01*
X64012958Y-93050358D01*
X63917476Y-93215738D01*
X63917473Y-93215745D01*
X63858457Y-93397372D01*
X63838496Y-93587300D01*
X63858457Y-93777227D01*
X63888526Y-93869770D01*
X63917473Y-93958856D01*
X63917476Y-93958861D01*
X63999771Y-94101401D01*
X64012960Y-94124244D01*
X64086137Y-94205515D01*
X64116853Y-94269520D01*
X64118500Y-94289824D01*
X64118500Y-99006205D01*
X64098498Y-99074326D01*
X64081595Y-99095301D01*
X63399986Y-99776909D01*
X63337674Y-99810934D01*
X63266858Y-99805869D01*
X63210023Y-99763322D01*
X63185212Y-99696802D01*
X63185371Y-99676831D01*
X63190553Y-99617605D01*
X63190553Y-99617604D01*
X63190553Y-99617600D01*
X63171178Y-99396137D01*
X63113640Y-99181404D01*
X63019688Y-98979924D01*
X62892177Y-98797819D01*
X62734981Y-98640623D01*
X62734977Y-98640620D01*
X62734972Y-98640616D01*
X62552877Y-98513112D01*
X62552875Y-98513111D01*
X62442827Y-98461795D01*
X62389542Y-98414878D01*
X62370081Y-98346601D01*
X62390623Y-98278641D01*
X62442827Y-98233405D01*
X62459629Y-98225570D01*
X62552877Y-98182088D01*
X62734981Y-98054577D01*
X62892177Y-97897381D01*
X63019688Y-97715277D01*
X63113640Y-97513796D01*
X63171178Y-97299063D01*
X63190553Y-97077600D01*
X63171178Y-96856137D01*
X63113640Y-96641404D01*
X63019688Y-96439924D01*
X62892177Y-96257819D01*
X62734981Y-96100623D01*
X62734977Y-96100620D01*
X62734972Y-96100616D01*
X62552877Y-95973112D01*
X62552875Y-95973111D01*
X62442827Y-95921795D01*
X62389542Y-95874878D01*
X62370081Y-95806601D01*
X62390623Y-95738641D01*
X62442827Y-95693405D01*
X62459629Y-95685570D01*
X62552877Y-95642088D01*
X62734981Y-95514577D01*
X62892177Y-95357381D01*
X63019688Y-95175277D01*
X63113640Y-94973796D01*
X63171178Y-94759063D01*
X63190553Y-94537600D01*
X63171178Y-94316137D01*
X63113640Y-94101404D01*
X63019688Y-93899924D01*
X62892177Y-93717819D01*
X62734981Y-93560623D01*
X62734977Y-93560620D01*
X62734972Y-93560616D01*
X62552877Y-93433112D01*
X62552875Y-93433111D01*
X62442827Y-93381795D01*
X62389542Y-93334878D01*
X62370081Y-93266601D01*
X62390623Y-93198641D01*
X62442827Y-93153405D01*
X62552877Y-93102088D01*
X62734981Y-92974577D01*
X62892177Y-92817381D01*
X63019688Y-92635277D01*
X63113640Y-92433796D01*
X63171178Y-92219063D01*
X63190553Y-91997600D01*
X63171178Y-91776137D01*
X63160714Y-91737086D01*
X63162403Y-91666110D01*
X63193325Y-91615378D01*
X63298042Y-91510661D01*
X63572171Y-91236533D01*
X63641500Y-91132775D01*
X63689255Y-91017485D01*
X63713600Y-90895094D01*
X63713600Y-90770307D01*
X63713600Y-88421606D01*
X63689255Y-88299215D01*
X63641500Y-88183925D01*
X63572171Y-88080167D01*
X63483933Y-87991929D01*
X62317205Y-86825201D01*
X62283179Y-86762889D01*
X62280300Y-86736106D01*
X62280300Y-85143994D01*
X62300302Y-85075873D01*
X62353958Y-85029380D01*
X62424232Y-85019276D01*
X62488812Y-85048770D01*
G37*
G04 #@! TD.AperFunction*
G04 #@! TA.AperFunction,Conductor*
G36*
X60980012Y-105559624D02*
G01*
X60986595Y-105565753D01*
X61095419Y-105674577D01*
X61095423Y-105674580D01*
X61095427Y-105674583D01*
X61199324Y-105747332D01*
X61277523Y-105802088D01*
X61342510Y-105832392D01*
X61388164Y-105853681D01*
X61441449Y-105900598D01*
X61460910Y-105968876D01*
X61440368Y-106036836D01*
X61388165Y-106082070D01*
X61277777Y-106133545D01*
X61214594Y-106177785D01*
X61835566Y-106798757D01*
X61743629Y-106823392D01*
X61642270Y-106881911D01*
X61559511Y-106964670D01*
X61500992Y-107066029D01*
X61476357Y-107157966D01*
X60813839Y-106495448D01*
X60814521Y-106494765D01*
X60787880Y-106468952D01*
X60771500Y-106406828D01*
X60771500Y-105654848D01*
X60791502Y-105586727D01*
X60845158Y-105540234D01*
X60915432Y-105530130D01*
X60980012Y-105559624D01*
G37*
G04 #@! TD.AperFunction*
G04 #@! TA.AperFunction,Conductor*
G36*
X85980724Y-105441919D02*
G01*
X86016709Y-105503121D01*
X86020500Y-105533797D01*
X86020500Y-106415717D01*
X86000498Y-106483838D01*
X85946842Y-106530331D01*
X85883520Y-106541238D01*
X85835014Y-106536994D01*
X85214042Y-107157966D01*
X85189408Y-107066029D01*
X85130889Y-106964670D01*
X85048130Y-106881911D01*
X84946771Y-106823392D01*
X84854832Y-106798757D01*
X85475803Y-106177785D01*
X85475803Y-106177784D01*
X85412625Y-106133546D01*
X85412620Y-106133543D01*
X85302234Y-106082069D01*
X85248950Y-106035152D01*
X85229489Y-105966875D01*
X85250031Y-105898915D01*
X85302234Y-105853681D01*
X85412877Y-105802088D01*
X85594981Y-105674577D01*
X85752177Y-105517381D01*
X85791287Y-105461527D01*
X85846744Y-105417198D01*
X85917363Y-105409889D01*
X85980724Y-105441919D01*
G37*
G04 #@! TD.AperFunction*
G04 #@! TA.AperFunction,Conductor*
G36*
X71959812Y-73358603D02*
G01*
X71959814Y-73358603D01*
X72007209Y-73290919D01*
X72008835Y-73292057D01*
X72053876Y-73249079D01*
X72123584Y-73235616D01*
X72189506Y-73261977D01*
X72200751Y-73271955D01*
X75304395Y-76375599D01*
X75338421Y-76437911D01*
X75341300Y-76464694D01*
X75341300Y-80866006D01*
X75341300Y-80990794D01*
X75365645Y-81113185D01*
X75413400Y-81228475D01*
X75482729Y-81332233D01*
X75482731Y-81332235D01*
X78254995Y-84104499D01*
X78289021Y-84166811D01*
X78291900Y-84193594D01*
X78291900Y-84901774D01*
X78271898Y-84969895D01*
X78218242Y-85016388D01*
X78197195Y-85020013D01*
X77500000Y-85717208D01*
X77500000Y-85705339D01*
X77472741Y-85603606D01*
X77420080Y-85512394D01*
X77345606Y-85437920D01*
X77254394Y-85385259D01*
X77152661Y-85358000D01*
X77140790Y-85358000D01*
X77827888Y-84670899D01*
X77827888Y-84670898D01*
X77756501Y-84620913D01*
X77549073Y-84524188D01*
X77549068Y-84524186D01*
X77328000Y-84464951D01*
X77328004Y-84464951D01*
X77100000Y-84445004D01*
X76871997Y-84464951D01*
X76650931Y-84524186D01*
X76650926Y-84524188D01*
X76443500Y-84620913D01*
X76372109Y-84670900D01*
X77059209Y-85358000D01*
X77047339Y-85358000D01*
X76945606Y-85385259D01*
X76854394Y-85437920D01*
X76779920Y-85512394D01*
X76727259Y-85603606D01*
X76700000Y-85705339D01*
X76700000Y-85717209D01*
X76012900Y-85030109D01*
X75962913Y-85101500D01*
X75866188Y-85308926D01*
X75866186Y-85308931D01*
X75806951Y-85529997D01*
X75787004Y-85758000D01*
X75806951Y-85986002D01*
X75866186Y-86207068D01*
X75866188Y-86207073D01*
X75962913Y-86414501D01*
X76012899Y-86485888D01*
X76700000Y-85798788D01*
X76700000Y-85810661D01*
X76727259Y-85912394D01*
X76779920Y-86003606D01*
X76854394Y-86078080D01*
X76945606Y-86130741D01*
X77047339Y-86158000D01*
X77059210Y-86158000D01*
X76372110Y-86845098D01*
X76372110Y-86845100D01*
X76443498Y-86895086D01*
X76650926Y-86991811D01*
X76650931Y-86991813D01*
X76871999Y-87051048D01*
X76871995Y-87051048D01*
X77100000Y-87070995D01*
X77328002Y-87051048D01*
X77549068Y-86991813D01*
X77549073Y-86991811D01*
X77756497Y-86895088D01*
X77827888Y-86845099D01*
X77827888Y-86845097D01*
X77140791Y-86158000D01*
X77152661Y-86158000D01*
X77254394Y-86130741D01*
X77345606Y-86078080D01*
X77420080Y-86003606D01*
X77472741Y-85912394D01*
X77500000Y-85810661D01*
X77500000Y-85798791D01*
X78198714Y-86497505D01*
X78224521Y-86502691D01*
X78275514Y-86552089D01*
X78291900Y-86614224D01*
X78291900Y-90445917D01*
X78271898Y-90514038D01*
X78218242Y-90560531D01*
X78147968Y-90570635D01*
X78083388Y-90541141D01*
X78076805Y-90535012D01*
X78002110Y-90460317D01*
X78002107Y-90460315D01*
X77835545Y-90339300D01*
X77652099Y-90245829D01*
X77652093Y-90245826D01*
X77456294Y-90182208D01*
X77456298Y-90182208D01*
X77252939Y-90150000D01*
X77004000Y-90150000D01*
X77004000Y-91146314D01*
X76995606Y-91137920D01*
X76904394Y-91085259D01*
X76802661Y-91058000D01*
X76697339Y-91058000D01*
X76595606Y-91085259D01*
X76504394Y-91137920D01*
X76496000Y-91146314D01*
X76496000Y-90150000D01*
X76247061Y-90150000D01*
X76043703Y-90182208D01*
X75847906Y-90245826D01*
X75847900Y-90245829D01*
X75664454Y-90339300D01*
X75497892Y-90460315D01*
X75497889Y-90460317D01*
X75352317Y-90605889D01*
X75352315Y-90605892D01*
X75231299Y-90772455D01*
X75218105Y-90798350D01*
X75169355Y-90849965D01*
X75100440Y-90867029D01*
X75033239Y-90844127D01*
X75016744Y-90830240D01*
X71256701Y-87070197D01*
X71222675Y-87007885D01*
X71227740Y-86937070D01*
X71270287Y-86880234D01*
X71336807Y-86855423D01*
X71406181Y-86870514D01*
X71418067Y-86877889D01*
X71443251Y-86895523D01*
X71650757Y-86992284D01*
X71871913Y-87051543D01*
X72100000Y-87071498D01*
X72328087Y-87051543D01*
X72549243Y-86992284D01*
X72756749Y-86895523D01*
X72944300Y-86764198D01*
X73106198Y-86602300D01*
X73237523Y-86414749D01*
X73334284Y-86207243D01*
X73393543Y-85986087D01*
X73413498Y-85758000D01*
X73393543Y-85529913D01*
X73334284Y-85308757D01*
X73237523Y-85101251D01*
X73106198Y-84913700D01*
X72944300Y-84751802D01*
X72944296Y-84751799D01*
X72787229Y-84641819D01*
X72742901Y-84586362D01*
X72733500Y-84538606D01*
X72733500Y-75795607D01*
X72733499Y-75795603D01*
X72709155Y-75673215D01*
X72661400Y-75557925D01*
X72592071Y-75454167D01*
X72503833Y-75365929D01*
X71220495Y-74082591D01*
X71186469Y-74020279D01*
X71191534Y-73949464D01*
X71234081Y-73892628D01*
X71276979Y-73871789D01*
X71336023Y-73855968D01*
X71336027Y-73855966D01*
X71537425Y-73762053D01*
X71537426Y-73762052D01*
X71600603Y-73717814D01*
X71600603Y-73717812D01*
X70921791Y-73039000D01*
X70950160Y-73039000D01*
X71047061Y-73013036D01*
X71133940Y-72962876D01*
X71204876Y-72891940D01*
X71255036Y-72805061D01*
X71281000Y-72708160D01*
X71281000Y-72679791D01*
X71959812Y-73358603D01*
G37*
G04 #@! TD.AperFunction*
G04 #@! TA.AperFunction,Conductor*
G36*
X85962621Y-64153502D02*
G01*
X86009114Y-64207158D01*
X86020500Y-64259500D01*
X86020500Y-88170482D01*
X86000498Y-88238603D01*
X85946842Y-88285096D01*
X85876568Y-88295200D01*
X85818992Y-88271351D01*
X85783406Y-88244712D01*
X85783404Y-88244711D01*
X85671166Y-88202847D01*
X85614331Y-88160300D01*
X85589521Y-88093779D01*
X85589200Y-88084792D01*
X85589200Y-72048007D01*
X85589199Y-72048003D01*
X85564855Y-71925615D01*
X85533056Y-71848845D01*
X85517101Y-71810325D01*
X85447772Y-71706567D01*
X85447767Y-71706561D01*
X81991030Y-68249826D01*
X81957005Y-68187514D01*
X81962069Y-68116699D01*
X81999977Y-68065057D01*
X81999405Y-68064436D01*
X82002578Y-68061514D01*
X82002739Y-68061296D01*
X82002761Y-68061278D01*
X82003240Y-68060906D01*
X82155722Y-67895268D01*
X82278860Y-67706791D01*
X82369296Y-67500616D01*
X82424564Y-67282368D01*
X82443156Y-67058000D01*
X82424564Y-66833632D01*
X82369296Y-66615384D01*
X82278860Y-66409209D01*
X82261597Y-66382786D01*
X82155724Y-66220734D01*
X82155720Y-66220729D01*
X82039570Y-66094559D01*
X82003240Y-66055094D01*
X82003239Y-66055093D01*
X82003237Y-66055091D01*
X81883367Y-65961792D01*
X81825576Y-65916811D01*
X81627574Y-65809658D01*
X81627572Y-65809657D01*
X81627571Y-65809656D01*
X81414639Y-65736557D01*
X81414630Y-65736555D01*
X81337029Y-65723606D01*
X81192569Y-65699500D01*
X80967431Y-65699500D01*
X80822971Y-65723606D01*
X80745369Y-65736555D01*
X80745360Y-65736557D01*
X80532428Y-65809656D01*
X80532426Y-65809658D01*
X80334426Y-65916810D01*
X80334424Y-65916811D01*
X80156762Y-66055091D01*
X80004279Y-66220729D01*
X79915483Y-66356643D01*
X79861479Y-66402731D01*
X79791131Y-66412306D01*
X79726774Y-66382329D01*
X79704517Y-66356643D01*
X79615720Y-66220729D01*
X79499570Y-66094559D01*
X79463240Y-66055094D01*
X79463239Y-66055093D01*
X79463237Y-66055091D01*
X79343367Y-65961792D01*
X79285576Y-65916811D01*
X79087574Y-65809658D01*
X79087572Y-65809657D01*
X79087571Y-65809656D01*
X78874639Y-65736557D01*
X78874630Y-65736555D01*
X78797029Y-65723606D01*
X78652569Y-65699500D01*
X78427431Y-65699500D01*
X78282971Y-65723606D01*
X78205369Y-65736555D01*
X78205360Y-65736557D01*
X77992428Y-65809656D01*
X77992426Y-65809658D01*
X77794426Y-65916810D01*
X77794424Y-65916811D01*
X77616762Y-66055091D01*
X77464279Y-66220729D01*
X77375483Y-66356643D01*
X77321479Y-66402731D01*
X77251131Y-66412306D01*
X77186774Y-66382329D01*
X77164517Y-66356643D01*
X77075720Y-66220729D01*
X76959570Y-66094559D01*
X76923240Y-66055094D01*
X76923239Y-66055093D01*
X76923237Y-66055091D01*
X76803367Y-65961792D01*
X76745576Y-65916811D01*
X76547574Y-65809658D01*
X76547572Y-65809657D01*
X76547571Y-65809656D01*
X76334639Y-65736557D01*
X76334630Y-65736555D01*
X76257029Y-65723606D01*
X76112569Y-65699500D01*
X75887431Y-65699500D01*
X75742971Y-65723606D01*
X75665369Y-65736555D01*
X75665360Y-65736557D01*
X75452428Y-65809656D01*
X75452426Y-65809658D01*
X75254426Y-65916810D01*
X75254424Y-65916811D01*
X75076762Y-66055091D01*
X74924279Y-66220729D01*
X74835483Y-66356643D01*
X74781479Y-66402731D01*
X74711131Y-66412306D01*
X74646774Y-66382329D01*
X74624517Y-66356643D01*
X74535720Y-66220729D01*
X74419570Y-66094559D01*
X74383240Y-66055094D01*
X74383239Y-66055093D01*
X74383237Y-66055091D01*
X74263367Y-65961792D01*
X74205576Y-65916811D01*
X74007574Y-65809658D01*
X74007572Y-65809657D01*
X74007571Y-65809656D01*
X73794639Y-65736557D01*
X73794630Y-65736555D01*
X73717029Y-65723606D01*
X73572569Y-65699500D01*
X73347431Y-65699500D01*
X73202971Y-65723606D01*
X73125369Y-65736555D01*
X73125360Y-65736557D01*
X72912428Y-65809656D01*
X72912426Y-65809658D01*
X72714426Y-65916810D01*
X72714424Y-65916811D01*
X72536762Y-66055091D01*
X72384279Y-66220729D01*
X72295483Y-66356643D01*
X72241479Y-66402731D01*
X72171131Y-66412306D01*
X72106774Y-66382329D01*
X72084517Y-66356643D01*
X71995720Y-66220729D01*
X71879570Y-66094559D01*
X71843240Y-66055094D01*
X71843239Y-66055093D01*
X71843237Y-66055091D01*
X71723367Y-65961792D01*
X71665576Y-65916811D01*
X71467574Y-65809658D01*
X71467572Y-65809657D01*
X71467571Y-65809656D01*
X71254639Y-65736557D01*
X71254630Y-65736555D01*
X71177029Y-65723606D01*
X71032569Y-65699500D01*
X70807431Y-65699500D01*
X70662971Y-65723606D01*
X70585369Y-65736555D01*
X70585360Y-65736557D01*
X70372428Y-65809656D01*
X70372426Y-65809658D01*
X70174426Y-65916810D01*
X70174424Y-65916811D01*
X69996762Y-66055091D01*
X69844279Y-66220729D01*
X69755483Y-66356643D01*
X69701479Y-66402731D01*
X69631131Y-66412306D01*
X69566774Y-66382329D01*
X69544517Y-66356643D01*
X69455720Y-66220729D01*
X69339570Y-66094559D01*
X69303240Y-66055094D01*
X69303239Y-66055093D01*
X69303237Y-66055091D01*
X69183367Y-65961792D01*
X69125576Y-65916811D01*
X68927574Y-65809658D01*
X68927572Y-65809657D01*
X68927571Y-65809656D01*
X68714639Y-65736557D01*
X68714630Y-65736555D01*
X68637029Y-65723606D01*
X68492569Y-65699500D01*
X68267431Y-65699500D01*
X68122971Y-65723606D01*
X68045369Y-65736555D01*
X68045360Y-65736557D01*
X67832428Y-65809656D01*
X67832426Y-65809658D01*
X67634426Y-65916810D01*
X67634424Y-65916811D01*
X67456762Y-66055091D01*
X67304279Y-66220729D01*
X67215183Y-66357101D01*
X67161179Y-66403189D01*
X67090831Y-66412764D01*
X67026474Y-66382786D01*
X67004217Y-66357100D01*
X66915327Y-66221044D01*
X66762902Y-66055465D01*
X66585301Y-65917232D01*
X66585300Y-65917231D01*
X66387371Y-65810117D01*
X66387369Y-65810116D01*
X66174512Y-65737043D01*
X66174501Y-65737040D01*
X66094000Y-65723606D01*
X66094000Y-66627297D01*
X66032993Y-66592075D01*
X65905826Y-66558000D01*
X65774174Y-66558000D01*
X65647007Y-66592075D01*
X65586000Y-66627297D01*
X65586000Y-65723607D01*
X65585999Y-65723606D01*
X65505498Y-65737040D01*
X65505487Y-65737043D01*
X65292630Y-65810116D01*
X65292628Y-65810117D01*
X65094699Y-65917231D01*
X65094698Y-65917232D01*
X64917096Y-66055465D01*
X64855951Y-66121888D01*
X64795098Y-66158459D01*
X64724134Y-66156324D01*
X64665588Y-66116163D01*
X64645195Y-66080583D01*
X64600889Y-65961796D01*
X64600887Y-65961792D01*
X64513261Y-65844738D01*
X64396207Y-65757112D01*
X64396202Y-65757110D01*
X64259204Y-65706011D01*
X64259196Y-65706009D01*
X64198649Y-65699500D01*
X64198638Y-65699500D01*
X62401362Y-65699500D01*
X62401350Y-65699500D01*
X62340803Y-65706009D01*
X62340795Y-65706011D01*
X62203797Y-65757110D01*
X62203792Y-65757112D01*
X62086738Y-65844738D01*
X61999112Y-65961792D01*
X61999110Y-65961797D01*
X61948011Y-66098795D01*
X61948009Y-66098803D01*
X61941500Y-66159350D01*
X61941500Y-67956649D01*
X61948009Y-68017196D01*
X61948011Y-68017204D01*
X61999110Y-68154202D01*
X61999112Y-68154207D01*
X62086738Y-68271261D01*
X62203792Y-68358887D01*
X62203794Y-68358888D01*
X62203796Y-68358889D01*
X62257600Y-68378957D01*
X62340795Y-68409988D01*
X62340803Y-68409990D01*
X62401350Y-68416499D01*
X62401355Y-68416499D01*
X62401362Y-68416500D01*
X62401368Y-68416500D01*
X64198632Y-68416500D01*
X64198638Y-68416500D01*
X64198645Y-68416499D01*
X64198649Y-68416499D01*
X64259196Y-68409990D01*
X64259199Y-68409989D01*
X64259201Y-68409989D01*
X64396204Y-68358889D01*
X64466399Y-68306342D01*
X64513261Y-68271261D01*
X64600886Y-68154208D01*
X64600885Y-68154208D01*
X64600889Y-68154204D01*
X64645196Y-68035413D01*
X64687741Y-67978581D01*
X64754262Y-67953770D01*
X64823636Y-67968862D01*
X64855952Y-67994112D01*
X64917097Y-68060534D01*
X65094698Y-68198767D01*
X65094699Y-68198768D01*
X65292628Y-68305882D01*
X65292630Y-68305883D01*
X65505483Y-68378955D01*
X65505492Y-68378957D01*
X65586000Y-68392391D01*
X65586000Y-67488702D01*
X65647007Y-67523925D01*
X65774174Y-67558000D01*
X65905826Y-67558000D01*
X66032993Y-67523925D01*
X66094000Y-67488702D01*
X66094000Y-68410343D01*
X66106305Y-68429022D01*
X66107108Y-68500014D01*
X66074913Y-68554980D01*
X61242967Y-73386929D01*
X61154731Y-73475164D01*
X61154726Y-73475171D01*
X61085401Y-73578923D01*
X61049248Y-73666204D01*
X61037645Y-73694215D01*
X61032951Y-73717814D01*
X61021079Y-73777498D01*
X60988171Y-73840408D01*
X60926476Y-73875539D01*
X60855581Y-73871739D01*
X60797995Y-73830213D01*
X60772001Y-73764146D01*
X60771500Y-73752916D01*
X60771500Y-64259500D01*
X60791502Y-64191379D01*
X60845158Y-64144886D01*
X60897500Y-64133500D01*
X85894500Y-64133500D01*
X85962621Y-64153502D01*
G37*
G04 #@! TD.AperFunction*
M02*
