G04 #@! TF.GenerationSoftware,KiCad,Pcbnew,8.0.6*
G04 #@! TF.CreationDate,2025-01-13T19:20:44-05:00*
G04 #@! TF.ProjectId,yy_CAN_board,79795f43-414e-45f6-926f-6172642e6b69,1.0*
G04 #@! TF.SameCoordinates,Original*
G04 #@! TF.FileFunction,Copper,L2,Bot*
G04 #@! TF.FilePolarity,Positive*
%FSLAX46Y46*%
G04 Gerber Fmt 4.6, Leading zero omitted, Abs format (unit mm)*
G04 Created by KiCad (PCBNEW 8.0.6) date 2025-01-13 19:20:44*
%MOMM*%
%LPD*%
G01*
G04 APERTURE LIST*
%ADD10C,0.300000*%
G04 #@! TA.AperFunction,NonConductor*
%ADD11C,0.300000*%
G04 #@! TD*
G04 #@! TA.AperFunction,ComponentPad*
%ADD12C,4.700000*%
G04 #@! TD*
G04 #@! TA.AperFunction,ComponentPad*
%ADD13C,5.080000*%
G04 #@! TD*
G04 #@! TA.AperFunction,ComponentPad*
%ADD14C,1.524000*%
G04 #@! TD*
G04 #@! TA.AperFunction,ComponentPad*
%ADD15C,1.500000*%
G04 #@! TD*
G04 #@! TA.AperFunction,ViaPad*
%ADD16C,0.800000*%
G04 #@! TD*
G04 #@! TA.AperFunction,Conductor*
%ADD17C,0.250000*%
G04 #@! TD*
G04 APERTURE END LIST*
D10*
D11*
X116567928Y-96725400D02*
X115067928Y-96725400D01*
X115067928Y-96725400D02*
X116139357Y-97225400D01*
X116139357Y-97225400D02*
X115067928Y-97725400D01*
X115067928Y-97725400D02*
X116567928Y-97725400D01*
X116567928Y-98439686D02*
X115567928Y-98439686D01*
X115067928Y-98439686D02*
X115139357Y-98368258D01*
X115139357Y-98368258D02*
X115210785Y-98439686D01*
X115210785Y-98439686D02*
X115139357Y-98511115D01*
X115139357Y-98511115D02*
X115067928Y-98439686D01*
X115067928Y-98439686D02*
X115210785Y-98439686D01*
X116496500Y-99796830D02*
X116567928Y-99653972D01*
X116567928Y-99653972D02*
X116567928Y-99368258D01*
X116567928Y-99368258D02*
X116496500Y-99225401D01*
X116496500Y-99225401D02*
X116425071Y-99153972D01*
X116425071Y-99153972D02*
X116282214Y-99082544D01*
X116282214Y-99082544D02*
X115853642Y-99082544D01*
X115853642Y-99082544D02*
X115710785Y-99153972D01*
X115710785Y-99153972D02*
X115639357Y-99225401D01*
X115639357Y-99225401D02*
X115567928Y-99368258D01*
X115567928Y-99368258D02*
X115567928Y-99653972D01*
X115567928Y-99653972D02*
X115639357Y-99796830D01*
X116567928Y-100439686D02*
X115067928Y-100439686D01*
X116567928Y-101082544D02*
X115782214Y-101082544D01*
X115782214Y-101082544D02*
X115639357Y-101011115D01*
X115639357Y-101011115D02*
X115567928Y-100868258D01*
X115567928Y-100868258D02*
X115567928Y-100653972D01*
X115567928Y-100653972D02*
X115639357Y-100511115D01*
X115639357Y-100511115D02*
X115710785Y-100439686D01*
X116496500Y-102368258D02*
X116567928Y-102225401D01*
X116567928Y-102225401D02*
X116567928Y-101939687D01*
X116567928Y-101939687D02*
X116496500Y-101796829D01*
X116496500Y-101796829D02*
X116353642Y-101725401D01*
X116353642Y-101725401D02*
X115782214Y-101725401D01*
X115782214Y-101725401D02*
X115639357Y-101796829D01*
X115639357Y-101796829D02*
X115567928Y-101939687D01*
X115567928Y-101939687D02*
X115567928Y-102225401D01*
X115567928Y-102225401D02*
X115639357Y-102368258D01*
X115639357Y-102368258D02*
X115782214Y-102439687D01*
X115782214Y-102439687D02*
X115925071Y-102439687D01*
X115925071Y-102439687D02*
X116067928Y-101725401D01*
X116567928Y-103296829D02*
X116496500Y-103153972D01*
X116496500Y-103153972D02*
X116353642Y-103082543D01*
X116353642Y-103082543D02*
X115067928Y-103082543D01*
X116425071Y-105868257D02*
X116496500Y-105796829D01*
X116496500Y-105796829D02*
X116567928Y-105582543D01*
X116567928Y-105582543D02*
X116567928Y-105439686D01*
X116567928Y-105439686D02*
X116496500Y-105225400D01*
X116496500Y-105225400D02*
X116353642Y-105082543D01*
X116353642Y-105082543D02*
X116210785Y-105011114D01*
X116210785Y-105011114D02*
X115925071Y-104939686D01*
X115925071Y-104939686D02*
X115710785Y-104939686D01*
X115710785Y-104939686D02*
X115425071Y-105011114D01*
X115425071Y-105011114D02*
X115282214Y-105082543D01*
X115282214Y-105082543D02*
X115139357Y-105225400D01*
X115139357Y-105225400D02*
X115067928Y-105439686D01*
X115067928Y-105439686D02*
X115067928Y-105582543D01*
X115067928Y-105582543D02*
X115139357Y-105796829D01*
X115139357Y-105796829D02*
X115210785Y-105868257D01*
X116567928Y-107153972D02*
X115782214Y-107153972D01*
X115782214Y-107153972D02*
X115639357Y-107082543D01*
X115639357Y-107082543D02*
X115567928Y-106939686D01*
X115567928Y-106939686D02*
X115567928Y-106653972D01*
X115567928Y-106653972D02*
X115639357Y-106511114D01*
X116496500Y-107153972D02*
X116567928Y-107011114D01*
X116567928Y-107011114D02*
X116567928Y-106653972D01*
X116567928Y-106653972D02*
X116496500Y-106511114D01*
X116496500Y-106511114D02*
X116353642Y-106439686D01*
X116353642Y-106439686D02*
X116210785Y-106439686D01*
X116210785Y-106439686D02*
X116067928Y-106511114D01*
X116067928Y-106511114D02*
X115996500Y-106653972D01*
X115996500Y-106653972D02*
X115996500Y-107011114D01*
X115996500Y-107011114D02*
X115925071Y-107153972D01*
X115567928Y-107653972D02*
X115567928Y-108225400D01*
X115067928Y-107868257D02*
X116353642Y-107868257D01*
X116353642Y-107868257D02*
X116496500Y-107939686D01*
X116496500Y-107939686D02*
X116567928Y-108082543D01*
X116567928Y-108082543D02*
X116567928Y-108225400D01*
X115567928Y-109368258D02*
X116567928Y-109368258D01*
X115567928Y-108725400D02*
X116353642Y-108725400D01*
X116353642Y-108725400D02*
X116496500Y-108796829D01*
X116496500Y-108796829D02*
X116567928Y-108939686D01*
X116567928Y-108939686D02*
X116567928Y-109153972D01*
X116567928Y-109153972D02*
X116496500Y-109296829D01*
X116496500Y-109296829D02*
X116425071Y-109368258D01*
X116567928Y-110725401D02*
X115067928Y-110725401D01*
X116496500Y-110725401D02*
X116567928Y-110582543D01*
X116567928Y-110582543D02*
X116567928Y-110296829D01*
X116567928Y-110296829D02*
X116496500Y-110153972D01*
X116496500Y-110153972D02*
X116425071Y-110082543D01*
X116425071Y-110082543D02*
X116282214Y-110011115D01*
X116282214Y-110011115D02*
X115853642Y-110011115D01*
X115853642Y-110011115D02*
X115710785Y-110082543D01*
X115710785Y-110082543D02*
X115639357Y-110153972D01*
X115639357Y-110153972D02*
X115567928Y-110296829D01*
X115567928Y-110296829D02*
X115567928Y-110582543D01*
X115567928Y-110582543D02*
X115639357Y-110725401D01*
X116567928Y-112082544D02*
X115782214Y-112082544D01*
X115782214Y-112082544D02*
X115639357Y-112011115D01*
X115639357Y-112011115D02*
X115567928Y-111868258D01*
X115567928Y-111868258D02*
X115567928Y-111582544D01*
X115567928Y-111582544D02*
X115639357Y-111439686D01*
X116496500Y-112082544D02*
X116567928Y-111939686D01*
X116567928Y-111939686D02*
X116567928Y-111582544D01*
X116567928Y-111582544D02*
X116496500Y-111439686D01*
X116496500Y-111439686D02*
X116353642Y-111368258D01*
X116353642Y-111368258D02*
X116210785Y-111368258D01*
X116210785Y-111368258D02*
X116067928Y-111439686D01*
X116067928Y-111439686D02*
X115996500Y-111582544D01*
X115996500Y-111582544D02*
X115996500Y-111939686D01*
X115996500Y-111939686D02*
X115925071Y-112082544D01*
X116567928Y-113011115D02*
X116496500Y-112868258D01*
X116496500Y-112868258D02*
X116353642Y-112796829D01*
X116353642Y-112796829D02*
X115067928Y-112796829D01*
X115210785Y-114653972D02*
X115139357Y-114725400D01*
X115139357Y-114725400D02*
X115067928Y-114868258D01*
X115067928Y-114868258D02*
X115067928Y-115225400D01*
X115067928Y-115225400D02*
X115139357Y-115368258D01*
X115139357Y-115368258D02*
X115210785Y-115439686D01*
X115210785Y-115439686D02*
X115353642Y-115511115D01*
X115353642Y-115511115D02*
X115496500Y-115511115D01*
X115496500Y-115511115D02*
X115710785Y-115439686D01*
X115710785Y-115439686D02*
X116567928Y-114582543D01*
X116567928Y-114582543D02*
X116567928Y-115511115D01*
X115067928Y-116439686D02*
X115067928Y-116582543D01*
X115067928Y-116582543D02*
X115139357Y-116725400D01*
X115139357Y-116725400D02*
X115210785Y-116796829D01*
X115210785Y-116796829D02*
X115353642Y-116868257D01*
X115353642Y-116868257D02*
X115639357Y-116939686D01*
X115639357Y-116939686D02*
X115996500Y-116939686D01*
X115996500Y-116939686D02*
X116282214Y-116868257D01*
X116282214Y-116868257D02*
X116425071Y-116796829D01*
X116425071Y-116796829D02*
X116496500Y-116725400D01*
X116496500Y-116725400D02*
X116567928Y-116582543D01*
X116567928Y-116582543D02*
X116567928Y-116439686D01*
X116567928Y-116439686D02*
X116496500Y-116296829D01*
X116496500Y-116296829D02*
X116425071Y-116225400D01*
X116425071Y-116225400D02*
X116282214Y-116153971D01*
X116282214Y-116153971D02*
X115996500Y-116082543D01*
X115996500Y-116082543D02*
X115639357Y-116082543D01*
X115639357Y-116082543D02*
X115353642Y-116153971D01*
X115353642Y-116153971D02*
X115210785Y-116225400D01*
X115210785Y-116225400D02*
X115139357Y-116296829D01*
X115139357Y-116296829D02*
X115067928Y-116439686D01*
X115210785Y-117511114D02*
X115139357Y-117582542D01*
X115139357Y-117582542D02*
X115067928Y-117725400D01*
X115067928Y-117725400D02*
X115067928Y-118082542D01*
X115067928Y-118082542D02*
X115139357Y-118225400D01*
X115139357Y-118225400D02*
X115210785Y-118296828D01*
X115210785Y-118296828D02*
X115353642Y-118368257D01*
X115353642Y-118368257D02*
X115496500Y-118368257D01*
X115496500Y-118368257D02*
X115710785Y-118296828D01*
X115710785Y-118296828D02*
X116567928Y-117439685D01*
X116567928Y-117439685D02*
X116567928Y-118368257D01*
X115067928Y-118868256D02*
X115067928Y-119796828D01*
X115067928Y-119796828D02*
X115639357Y-119296828D01*
X115639357Y-119296828D02*
X115639357Y-119511113D01*
X115639357Y-119511113D02*
X115710785Y-119653971D01*
X115710785Y-119653971D02*
X115782214Y-119725399D01*
X115782214Y-119725399D02*
X115925071Y-119796828D01*
X115925071Y-119796828D02*
X116282214Y-119796828D01*
X116282214Y-119796828D02*
X116425071Y-119725399D01*
X116425071Y-119725399D02*
X116496500Y-119653971D01*
X116496500Y-119653971D02*
X116567928Y-119511113D01*
X116567928Y-119511113D02*
X116567928Y-119082542D01*
X116567928Y-119082542D02*
X116496500Y-118939685D01*
X116496500Y-118939685D02*
X116425071Y-118868256D01*
D12*
X117000000Y-92000000D03*
X165000000Y-92000000D03*
X165000000Y-128000000D03*
X117000000Y-124876800D03*
D13*
X156301800Y-96300000D03*
X131257400Y-96300000D03*
D14*
X147894400Y-95030000D03*
X145151200Y-95030000D03*
X142408000Y-95030000D03*
X139664800Y-95030000D03*
X149266000Y-97570000D03*
X146522800Y-97570000D03*
X143779600Y-97570000D03*
X141036400Y-97570000D03*
X138293200Y-97570000D03*
D15*
X123848600Y-108559400D03*
X123848600Y-113439400D03*
D16*
X139979600Y-106795400D03*
X158009600Y-125855400D03*
X135729600Y-106615400D03*
X145069600Y-122525400D03*
X140339400Y-109312700D03*
X128780800Y-103863500D03*
D17*
X135729600Y-106615400D02*
X139919600Y-106615400D01*
X139919600Y-106615400D02*
X139979600Y-106795400D01*
X145069600Y-122525400D02*
X154679600Y-122525400D01*
X139979600Y-106795400D02*
X139949600Y-106645400D01*
X154679600Y-122525400D02*
X158009600Y-125855400D01*
X132876900Y-109312700D02*
X140339400Y-109312700D01*
X128780800Y-105216600D02*
X132876900Y-109312700D01*
X128780800Y-103863500D02*
X128780800Y-105216600D01*
G04 #@! TA.AperFunction,Conductor*
G36*
X169916621Y-87045502D02*
G01*
X169963114Y-87099158D01*
X169974500Y-87151500D01*
X169974500Y-132848500D01*
X169954498Y-132916621D01*
X169900842Y-132963114D01*
X169848500Y-132974500D01*
X124284311Y-132974500D01*
X112151222Y-132947755D01*
X112083146Y-132927603D01*
X112036771Y-132873845D01*
X112025500Y-132821755D01*
X112025500Y-128000000D01*
X162136656Y-128000000D01*
X162156016Y-128332403D01*
X162156016Y-128332409D01*
X162156017Y-128332414D01*
X162213838Y-128660333D01*
X162309337Y-128979321D01*
X162309339Y-128979327D01*
X162309340Y-128979328D01*
X162441220Y-129285063D01*
X162441222Y-129285066D01*
X162607711Y-129573433D01*
X162607714Y-129573437D01*
X162806552Y-129840523D01*
X163035057Y-130082724D01*
X163290134Y-130296758D01*
X163568320Y-130479724D01*
X163568328Y-130479729D01*
X163865887Y-130629169D01*
X164022335Y-130686111D01*
X164178775Y-130743051D01*
X164178776Y-130743051D01*
X164178784Y-130743054D01*
X164502786Y-130819843D01*
X164691771Y-130841932D01*
X164833508Y-130858500D01*
X164833511Y-130858500D01*
X165166492Y-130858500D01*
X165290510Y-130844003D01*
X165497214Y-130819843D01*
X165821216Y-130743054D01*
X166134113Y-130629169D01*
X166431672Y-130479729D01*
X166709870Y-130296755D01*
X166964946Y-130082721D01*
X167193449Y-129840522D01*
X167392289Y-129573433D01*
X167558778Y-129285066D01*
X167690663Y-128979321D01*
X167786162Y-128660333D01*
X167843983Y-128332414D01*
X167863344Y-128000000D01*
X167843983Y-127667586D01*
X167786162Y-127339667D01*
X167690663Y-127020679D01*
X167558778Y-126714934D01*
X167392289Y-126426567D01*
X167193449Y-126159478D01*
X166964946Y-125917279D01*
X166964944Y-125917278D01*
X166964942Y-125917275D01*
X166709865Y-125703241D01*
X166431679Y-125520275D01*
X166431675Y-125520273D01*
X166431672Y-125520271D01*
X166134113Y-125370831D01*
X166134108Y-125370829D01*
X166134103Y-125370827D01*
X165821224Y-125256948D01*
X165821217Y-125256946D01*
X165821216Y-125256946D01*
X165619817Y-125209214D01*
X165497219Y-125180158D01*
X165497209Y-125180156D01*
X165166492Y-125141500D01*
X165166489Y-125141500D01*
X164833511Y-125141500D01*
X164833508Y-125141500D01*
X164502790Y-125180156D01*
X164502780Y-125180158D01*
X164178784Y-125256946D01*
X164178775Y-125256948D01*
X163865896Y-125370827D01*
X163865891Y-125370829D01*
X163568320Y-125520275D01*
X163290134Y-125703241D01*
X163035057Y-125917275D01*
X162806552Y-126159476D01*
X162607714Y-126426562D01*
X162607704Y-126426578D01*
X162441223Y-126714931D01*
X162441220Y-126714936D01*
X162309340Y-127020671D01*
X162309338Y-127020677D01*
X162213838Y-127339666D01*
X162156016Y-127667590D01*
X162156016Y-127667596D01*
X162136656Y-128000000D01*
X112025500Y-128000000D01*
X112025500Y-124876800D01*
X114136656Y-124876800D01*
X114156016Y-125209203D01*
X114156016Y-125209209D01*
X114156017Y-125209214D01*
X114213838Y-125537133D01*
X114309337Y-125856121D01*
X114309339Y-125856127D01*
X114309340Y-125856128D01*
X114441220Y-126161863D01*
X114441223Y-126161868D01*
X114594047Y-126426567D01*
X114607711Y-126450233D01*
X114607714Y-126450237D01*
X114806552Y-126717323D01*
X115035057Y-126959524D01*
X115290134Y-127173558D01*
X115568320Y-127356524D01*
X115568328Y-127356529D01*
X115865887Y-127505969D01*
X116022335Y-127562911D01*
X116178775Y-127619851D01*
X116178776Y-127619851D01*
X116178784Y-127619854D01*
X116502786Y-127696643D01*
X116691771Y-127718732D01*
X116833508Y-127735300D01*
X116833511Y-127735300D01*
X117166492Y-127735300D01*
X117290510Y-127720803D01*
X117497214Y-127696643D01*
X117821216Y-127619854D01*
X118134113Y-127505969D01*
X118431672Y-127356529D01*
X118709870Y-127173555D01*
X118964946Y-126959521D01*
X119193449Y-126717322D01*
X119392289Y-126450233D01*
X119558778Y-126161866D01*
X119690663Y-125856121D01*
X119786162Y-125537133D01*
X119843983Y-125209214D01*
X119863344Y-124876800D01*
X119843983Y-124544386D01*
X119786162Y-124216467D01*
X119690663Y-123897479D01*
X119558778Y-123591734D01*
X119392289Y-123303367D01*
X119193449Y-123036278D01*
X118964946Y-122794079D01*
X118964944Y-122794078D01*
X118964942Y-122794075D01*
X118709865Y-122580041D01*
X118431679Y-122397075D01*
X118431675Y-122397073D01*
X118431672Y-122397071D01*
X118134113Y-122247631D01*
X118134108Y-122247629D01*
X118134103Y-122247627D01*
X117821224Y-122133748D01*
X117821217Y-122133746D01*
X117821216Y-122133746D01*
X117639258Y-122090621D01*
X117497219Y-122056958D01*
X117497209Y-122056956D01*
X117166492Y-122018300D01*
X117166489Y-122018300D01*
X116833511Y-122018300D01*
X116833508Y-122018300D01*
X116502790Y-122056956D01*
X116502780Y-122056958D01*
X116178784Y-122133746D01*
X116178775Y-122133748D01*
X115865896Y-122247627D01*
X115865891Y-122247629D01*
X115568320Y-122397075D01*
X115290134Y-122580041D01*
X115035057Y-122794075D01*
X114806552Y-123036276D01*
X114607714Y-123303362D01*
X114607704Y-123303378D01*
X114441223Y-123591731D01*
X114441220Y-123591736D01*
X114309340Y-123897471D01*
X114309338Y-123897477D01*
X114213838Y-124216466D01*
X114156016Y-124544390D01*
X114156016Y-124544396D01*
X114136656Y-124876800D01*
X112025500Y-124876800D01*
X112025500Y-120462053D01*
X114402703Y-120462053D01*
X117233153Y-120462053D01*
X117233153Y-113439400D01*
X122585293Y-113439400D01*
X122604485Y-113658771D01*
X122661480Y-113871476D01*
X122754544Y-114071054D01*
X122880851Y-114251438D01*
X122880854Y-114251442D01*
X123036557Y-114407145D01*
X123036561Y-114407148D01*
X123036562Y-114407149D01*
X123216946Y-114533456D01*
X123416524Y-114626520D01*
X123629229Y-114683515D01*
X123848600Y-114702707D01*
X124067971Y-114683515D01*
X124280676Y-114626520D01*
X124480254Y-114533456D01*
X124660638Y-114407149D01*
X124816349Y-114251438D01*
X124942656Y-114071054D01*
X125035720Y-113871476D01*
X125092715Y-113658771D01*
X125111907Y-113439400D01*
X125092715Y-113220029D01*
X125035720Y-113007324D01*
X124942656Y-112807747D01*
X124816349Y-112627362D01*
X124660638Y-112471651D01*
X124480254Y-112345344D01*
X124480250Y-112345342D01*
X124280679Y-112252281D01*
X124280673Y-112252279D01*
X124190778Y-112228191D01*
X124067971Y-112195285D01*
X123848600Y-112176093D01*
X123629229Y-112195285D01*
X123416526Y-112252279D01*
X123416520Y-112252281D01*
X123216946Y-112345344D01*
X123036565Y-112471648D01*
X123036559Y-112471653D01*
X122880853Y-112627359D01*
X122880848Y-112627365D01*
X122754544Y-112807746D01*
X122661481Y-113007320D01*
X122661480Y-113007324D01*
X122604485Y-113220029D01*
X122585293Y-113439400D01*
X117233153Y-113439400D01*
X117233153Y-108559400D01*
X122585293Y-108559400D01*
X122604485Y-108778771D01*
X122661480Y-108991476D01*
X122754544Y-109191054D01*
X122839722Y-109312700D01*
X122880851Y-109371438D01*
X122880854Y-109371442D01*
X123036557Y-109527145D01*
X123036561Y-109527148D01*
X123036562Y-109527149D01*
X123216946Y-109653456D01*
X123416524Y-109746520D01*
X123629229Y-109803515D01*
X123848600Y-109822707D01*
X124067971Y-109803515D01*
X124280676Y-109746520D01*
X124480254Y-109653456D01*
X124660638Y-109527149D01*
X124816349Y-109371438D01*
X124942656Y-109191054D01*
X125035720Y-108991476D01*
X125092715Y-108778771D01*
X125111907Y-108559400D01*
X125092715Y-108340029D01*
X125035720Y-108127324D01*
X124942656Y-107927747D01*
X124816349Y-107747362D01*
X124660638Y-107591651D01*
X124480254Y-107465344D01*
X124480250Y-107465342D01*
X124280679Y-107372281D01*
X124280673Y-107372279D01*
X124190778Y-107348191D01*
X124067971Y-107315285D01*
X123848600Y-107296093D01*
X123629229Y-107315285D01*
X123416526Y-107372279D01*
X123416520Y-107372281D01*
X123216946Y-107465344D01*
X123036565Y-107591648D01*
X123036559Y-107591653D01*
X122880853Y-107747359D01*
X122880848Y-107747365D01*
X122754544Y-107927746D01*
X122661481Y-108127320D01*
X122661480Y-108127324D01*
X122604485Y-108340029D01*
X122585293Y-108559400D01*
X117233153Y-108559400D01*
X117233153Y-103863500D01*
X127867296Y-103863500D01*
X127887257Y-104053427D01*
X127917326Y-104145970D01*
X127946273Y-104235056D01*
X128041760Y-104400444D01*
X128114937Y-104481715D01*
X128145653Y-104545720D01*
X128147300Y-104566024D01*
X128147300Y-105154206D01*
X128147300Y-105278994D01*
X128171645Y-105401385D01*
X128219400Y-105516675D01*
X128288729Y-105620433D01*
X132473067Y-109804771D01*
X132576825Y-109874100D01*
X132692115Y-109921855D01*
X132814506Y-109946200D01*
X132939294Y-109946200D01*
X139631200Y-109946200D01*
X139699321Y-109966202D01*
X139724837Y-109987890D01*
X139728147Y-109991566D01*
X139882648Y-110103818D01*
X140057112Y-110181494D01*
X140243913Y-110221200D01*
X140434887Y-110221200D01*
X140621688Y-110181494D01*
X140796152Y-110103818D01*
X140950653Y-109991566D01*
X141078440Y-109849644D01*
X141173927Y-109684256D01*
X141232942Y-109502628D01*
X141252904Y-109312700D01*
X141232942Y-109122772D01*
X141173927Y-108941144D01*
X141078440Y-108775756D01*
X141078438Y-108775754D01*
X141078434Y-108775748D01*
X140950655Y-108633835D01*
X140796152Y-108521582D01*
X140621688Y-108443906D01*
X140434887Y-108404200D01*
X140243913Y-108404200D01*
X140057111Y-108443906D01*
X139882647Y-108521582D01*
X139728147Y-108633833D01*
X139724837Y-108637510D01*
X139664391Y-108674750D01*
X139631200Y-108679200D01*
X133191494Y-108679200D01*
X133123373Y-108659198D01*
X133102399Y-108642295D01*
X129451205Y-104991101D01*
X129417179Y-104928789D01*
X129414300Y-104902006D01*
X129414300Y-104566024D01*
X129434302Y-104497903D01*
X129446658Y-104481720D01*
X129519840Y-104400444D01*
X129615327Y-104235056D01*
X129674342Y-104053428D01*
X129694304Y-103863500D01*
X129674342Y-103673572D01*
X129615327Y-103491944D01*
X129519840Y-103326556D01*
X129519838Y-103326554D01*
X129519834Y-103326548D01*
X129392055Y-103184635D01*
X129237552Y-103072382D01*
X129063088Y-102994706D01*
X128876287Y-102955000D01*
X128685313Y-102955000D01*
X128498511Y-102994706D01*
X128324047Y-103072382D01*
X128169544Y-103184635D01*
X128041765Y-103326548D01*
X128041758Y-103326558D01*
X127946276Y-103491938D01*
X127946273Y-103491945D01*
X127887257Y-103673572D01*
X127867296Y-103863500D01*
X117233153Y-103863500D01*
X117233153Y-96300000D01*
X128204597Y-96300000D01*
X128223791Y-96641802D01*
X128281135Y-96979306D01*
X128375911Y-97308281D01*
X128506919Y-97624560D01*
X128506922Y-97624565D01*
X128672515Y-97924185D01*
X128870615Y-98203381D01*
X128870631Y-98203401D01*
X128929223Y-98268966D01*
X129924256Y-97273933D01*
X129998088Y-97375554D01*
X130181846Y-97559312D01*
X130283465Y-97633142D01*
X129288432Y-98628175D01*
X129353998Y-98686768D01*
X129354018Y-98686784D01*
X129633214Y-98884884D01*
X129932834Y-99050477D01*
X129932839Y-99050480D01*
X130249118Y-99181488D01*
X130578093Y-99276264D01*
X130915597Y-99333608D01*
X131257400Y-99352802D01*
X131599202Y-99333608D01*
X131936706Y-99276264D01*
X132265681Y-99181488D01*
X132581960Y-99050480D01*
X132581965Y-99050477D01*
X132881585Y-98884884D01*
X133160785Y-98686781D01*
X133160787Y-98686780D01*
X133226365Y-98628175D01*
X132231333Y-97633143D01*
X132332954Y-97559312D01*
X132516712Y-97375554D01*
X132590543Y-97273933D01*
X133585575Y-98268965D01*
X133644180Y-98203387D01*
X133644181Y-98203385D01*
X133842284Y-97924185D01*
X134007877Y-97624565D01*
X134007880Y-97624560D01*
X134030480Y-97570000D01*
X137017847Y-97570000D01*
X137037222Y-97791463D01*
X137079970Y-97951000D01*
X137094759Y-98006193D01*
X137094761Y-98006199D01*
X137188711Y-98207675D01*
X137188712Y-98207677D01*
X137316216Y-98389772D01*
X137316220Y-98389777D01*
X137316223Y-98389781D01*
X137473419Y-98546977D01*
X137473423Y-98546980D01*
X137473427Y-98546983D01*
X137577324Y-98619732D01*
X137655523Y-98674488D01*
X137857004Y-98768440D01*
X138071737Y-98825978D01*
X138293200Y-98845353D01*
X138514663Y-98825978D01*
X138729396Y-98768440D01*
X138930877Y-98674488D01*
X139112981Y-98546977D01*
X139270177Y-98389781D01*
X139397688Y-98207677D01*
X139491640Y-98006196D01*
X139543094Y-97814166D01*
X139580045Y-97753546D01*
X139643905Y-97722525D01*
X139714400Y-97730953D01*
X139769147Y-97776156D01*
X139786504Y-97814164D01*
X139820406Y-97940687D01*
X139837959Y-98006194D01*
X139837961Y-98006199D01*
X139931911Y-98207675D01*
X139931912Y-98207677D01*
X140059416Y-98389772D01*
X140059420Y-98389777D01*
X140059423Y-98389781D01*
X140216619Y-98546977D01*
X140216623Y-98546980D01*
X140216627Y-98546983D01*
X140320524Y-98619732D01*
X140398723Y-98674488D01*
X140600204Y-98768440D01*
X140814937Y-98825978D01*
X141036400Y-98845353D01*
X141257863Y-98825978D01*
X141472596Y-98768440D01*
X141674077Y-98674488D01*
X141856181Y-98546977D01*
X142013377Y-98389781D01*
X142140888Y-98207677D01*
X142234840Y-98006196D01*
X142286553Y-97813199D01*
X142323504Y-97752579D01*
X142387364Y-97721558D01*
X142457859Y-97729986D01*
X142512606Y-97775189D01*
X142529966Y-97813202D01*
X142581631Y-98006023D01*
X142581633Y-98006027D01*
X142675546Y-98207425D01*
X142719784Y-98270603D01*
X142719785Y-98270603D01*
X143288909Y-97701479D01*
X143306219Y-97766081D01*
X143373098Y-97881920D01*
X143467680Y-97976502D01*
X143583519Y-98043381D01*
X143648119Y-98060690D01*
X143078995Y-98629813D01*
X143078995Y-98629814D01*
X143142175Y-98674053D01*
X143142174Y-98674053D01*
X143343572Y-98767966D01*
X143343576Y-98767968D01*
X143558225Y-98825482D01*
X143779600Y-98844850D01*
X144000974Y-98825482D01*
X144215623Y-98767968D01*
X144215627Y-98767966D01*
X144417025Y-98674053D01*
X144417026Y-98674052D01*
X144480203Y-98629814D01*
X144480203Y-98629812D01*
X143911081Y-98060690D01*
X143975681Y-98043381D01*
X144091520Y-97976502D01*
X144186102Y-97881920D01*
X144252981Y-97766081D01*
X144270290Y-97701481D01*
X144839412Y-98270603D01*
X144839414Y-98270603D01*
X144883652Y-98207426D01*
X144883653Y-98207425D01*
X144977566Y-98006027D01*
X144977569Y-98006020D01*
X145029233Y-97813203D01*
X145066184Y-97752580D01*
X145130044Y-97721558D01*
X145200539Y-97729986D01*
X145255286Y-97775188D01*
X145272646Y-97813199D01*
X145309570Y-97951000D01*
X145324360Y-98006196D01*
X145324361Y-98006199D01*
X145418311Y-98207675D01*
X145418312Y-98207677D01*
X145545816Y-98389772D01*
X145545820Y-98389777D01*
X145545823Y-98389781D01*
X145703019Y-98546977D01*
X145703023Y-98546980D01*
X145703027Y-98546983D01*
X145806924Y-98619732D01*
X145885123Y-98674488D01*
X146086604Y-98768440D01*
X146301337Y-98825978D01*
X146522800Y-98845353D01*
X146744263Y-98825978D01*
X146958996Y-98768440D01*
X147160477Y-98674488D01*
X147342581Y-98546977D01*
X147499777Y-98389781D01*
X147627288Y-98207677D01*
X147721240Y-98006196D01*
X147772694Y-97814166D01*
X147809645Y-97753546D01*
X147873505Y-97722525D01*
X147944000Y-97730953D01*
X147998747Y-97776156D01*
X148016104Y-97814164D01*
X148050006Y-97940687D01*
X148067559Y-98006194D01*
X148067561Y-98006199D01*
X148161511Y-98207675D01*
X148161512Y-98207677D01*
X148289016Y-98389772D01*
X148289020Y-98389777D01*
X148289023Y-98389781D01*
X148446219Y-98546977D01*
X148446223Y-98546980D01*
X148446227Y-98546983D01*
X148550124Y-98619732D01*
X148628323Y-98674488D01*
X148829804Y-98768440D01*
X149044537Y-98825978D01*
X149266000Y-98845353D01*
X149487463Y-98825978D01*
X149702196Y-98768440D01*
X149903677Y-98674488D01*
X150085781Y-98546977D01*
X150242977Y-98389781D01*
X150370488Y-98207677D01*
X150464440Y-98006196D01*
X150521978Y-97791463D01*
X150541353Y-97570000D01*
X150521978Y-97348537D01*
X150464440Y-97133804D01*
X150370488Y-96932324D01*
X150242977Y-96750219D01*
X150085781Y-96593023D01*
X150085777Y-96593020D01*
X150085772Y-96593016D01*
X149903677Y-96465512D01*
X149903675Y-96465511D01*
X149702199Y-96371561D01*
X149702193Y-96371559D01*
X149660074Y-96360273D01*
X149487463Y-96314022D01*
X149327187Y-96300000D01*
X153248997Y-96300000D01*
X153268191Y-96641802D01*
X153325535Y-96979306D01*
X153420311Y-97308281D01*
X153551319Y-97624560D01*
X153551322Y-97624565D01*
X153716915Y-97924185D01*
X153915015Y-98203381D01*
X153915031Y-98203401D01*
X153973623Y-98268966D01*
X154968656Y-97273933D01*
X155042488Y-97375554D01*
X155226246Y-97559312D01*
X155327865Y-97633142D01*
X154332832Y-98628175D01*
X154398398Y-98686768D01*
X154398418Y-98686784D01*
X154677614Y-98884884D01*
X154977234Y-99050477D01*
X154977239Y-99050480D01*
X155293518Y-99181488D01*
X155622493Y-99276264D01*
X155959997Y-99333608D01*
X156301800Y-99352802D01*
X156643602Y-99333608D01*
X156981106Y-99276264D01*
X157310081Y-99181488D01*
X157626360Y-99050480D01*
X157626365Y-99050477D01*
X157925985Y-98884884D01*
X158205185Y-98686781D01*
X158205187Y-98686780D01*
X158270765Y-98628175D01*
X157275733Y-97633143D01*
X157377354Y-97559312D01*
X157561112Y-97375554D01*
X157634943Y-97273933D01*
X158629975Y-98268965D01*
X158688580Y-98203387D01*
X158688581Y-98203385D01*
X158886684Y-97924185D01*
X159052277Y-97624565D01*
X159052280Y-97624560D01*
X159183288Y-97308281D01*
X159278064Y-96979306D01*
X159335408Y-96641802D01*
X159354602Y-96300000D01*
X159335408Y-95958197D01*
X159278064Y-95620693D01*
X159183288Y-95291718D01*
X159052280Y-94975439D01*
X159052277Y-94975434D01*
X158886684Y-94675814D01*
X158688584Y-94396618D01*
X158688568Y-94396598D01*
X158629975Y-94331032D01*
X157634942Y-95326064D01*
X157561112Y-95224446D01*
X157377354Y-95040688D01*
X157275733Y-94966856D01*
X158270766Y-93971823D01*
X158205201Y-93913231D01*
X158205181Y-93913215D01*
X157925985Y-93715115D01*
X157626365Y-93549522D01*
X157626360Y-93549519D01*
X157310081Y-93418511D01*
X156981106Y-93323735D01*
X156643602Y-93266391D01*
X156301800Y-93247197D01*
X155959997Y-93266391D01*
X155622493Y-93323735D01*
X155293518Y-93418511D01*
X154977239Y-93549519D01*
X154977234Y-93549522D01*
X154677619Y-93715113D01*
X154398405Y-93913226D01*
X154332832Y-93971823D01*
X155327865Y-94966856D01*
X155226246Y-95040688D01*
X155042488Y-95224446D01*
X154968656Y-95326065D01*
X153973623Y-94331032D01*
X153915026Y-94396605D01*
X153716913Y-94675819D01*
X153551322Y-94975434D01*
X153551319Y-94975439D01*
X153420311Y-95291718D01*
X153325535Y-95620693D01*
X153268191Y-95958197D01*
X153248997Y-96300000D01*
X149327187Y-96300000D01*
X149266000Y-96294647D01*
X149044537Y-96314022D01*
X148929463Y-96344856D01*
X148829806Y-96371559D01*
X148829801Y-96371561D01*
X148628323Y-96465512D01*
X148446222Y-96593020D01*
X148446216Y-96593025D01*
X148289025Y-96750216D01*
X148289020Y-96750222D01*
X148161512Y-96932323D01*
X148067561Y-97133801D01*
X148067559Y-97133806D01*
X148067513Y-97133979D01*
X148016105Y-97325831D01*
X147979155Y-97386453D01*
X147915295Y-97417474D01*
X147844800Y-97409046D01*
X147790053Y-97363843D01*
X147772694Y-97325833D01*
X147721240Y-97133804D01*
X147627288Y-96932324D01*
X147499777Y-96750219D01*
X147342581Y-96593023D01*
X147342577Y-96593020D01*
X147342572Y-96593016D01*
X147160477Y-96465512D01*
X147160475Y-96465511D01*
X146958999Y-96371561D01*
X146958993Y-96371559D01*
X146916874Y-96360273D01*
X146744263Y-96314022D01*
X146522800Y-96294647D01*
X146301337Y-96314022D01*
X146186263Y-96344856D01*
X146086606Y-96371559D01*
X146086601Y-96371561D01*
X145885123Y-96465512D01*
X145703022Y-96593020D01*
X145703016Y-96593025D01*
X145545825Y-96750216D01*
X145545820Y-96750222D01*
X145418312Y-96932323D01*
X145324361Y-97133801D01*
X145324360Y-97133803D01*
X145272647Y-97326798D01*
X145235695Y-97387420D01*
X145171834Y-97418442D01*
X145101340Y-97410013D01*
X145046593Y-97364810D01*
X145029233Y-97326796D01*
X144977569Y-97133979D01*
X144977566Y-97133972D01*
X144883651Y-96932571D01*
X144839415Y-96869395D01*
X144839413Y-96869395D01*
X144270290Y-97438518D01*
X144252981Y-97373919D01*
X144186102Y-97258080D01*
X144091520Y-97163498D01*
X143975681Y-97096619D01*
X143911080Y-97079309D01*
X144480203Y-96510185D01*
X144480203Y-96510184D01*
X144417025Y-96465946D01*
X144215627Y-96372033D01*
X144215623Y-96372031D01*
X144000974Y-96314517D01*
X143779600Y-96295149D01*
X143558225Y-96314517D01*
X143343576Y-96372031D01*
X143343572Y-96372033D01*
X143142175Y-96465946D01*
X143078994Y-96510185D01*
X143648118Y-97079309D01*
X143583519Y-97096619D01*
X143467680Y-97163498D01*
X143373098Y-97258080D01*
X143306219Y-97373919D01*
X143288909Y-97438518D01*
X142719785Y-96869394D01*
X142675546Y-96932575D01*
X142581633Y-97133972D01*
X142581631Y-97133976D01*
X142529966Y-97326797D01*
X142493014Y-97387420D01*
X142429154Y-97418441D01*
X142358659Y-97410013D01*
X142303912Y-97364810D01*
X142286553Y-97326800D01*
X142234840Y-97133804D01*
X142140888Y-96932324D01*
X142013377Y-96750219D01*
X141856181Y-96593023D01*
X141856177Y-96593020D01*
X141856172Y-96593016D01*
X141674077Y-96465512D01*
X141674075Y-96465511D01*
X141472599Y-96371561D01*
X141472593Y-96371559D01*
X141430474Y-96360273D01*
X141257863Y-96314022D01*
X141036400Y-96294647D01*
X140814937Y-96314022D01*
X140699863Y-96344856D01*
X140600206Y-96371559D01*
X140600201Y-96371561D01*
X140398723Y-96465512D01*
X140216622Y-96593020D01*
X140216616Y-96593025D01*
X140059425Y-96750216D01*
X140059420Y-96750222D01*
X139931912Y-96932323D01*
X139837961Y-97133801D01*
X139837959Y-97133806D01*
X139837913Y-97133979D01*
X139786505Y-97325831D01*
X139749555Y-97386453D01*
X139685695Y-97417474D01*
X139615200Y-97409046D01*
X139560453Y-97363843D01*
X139543094Y-97325833D01*
X139491640Y-97133804D01*
X139397688Y-96932324D01*
X139270177Y-96750219D01*
X139112981Y-96593023D01*
X139112977Y-96593020D01*
X139112972Y-96593016D01*
X138930877Y-96465512D01*
X138930875Y-96465511D01*
X138729399Y-96371561D01*
X138729393Y-96371559D01*
X138687274Y-96360273D01*
X138514663Y-96314022D01*
X138293200Y-96294647D01*
X138071737Y-96314022D01*
X137956663Y-96344856D01*
X137857006Y-96371559D01*
X137857001Y-96371561D01*
X137655523Y-96465512D01*
X137473422Y-96593020D01*
X137473416Y-96593025D01*
X137316225Y-96750216D01*
X137316220Y-96750222D01*
X137188712Y-96932323D01*
X137094761Y-97133801D01*
X137094759Y-97133806D01*
X137094713Y-97133979D01*
X137037222Y-97348537D01*
X137017847Y-97570000D01*
X134030480Y-97570000D01*
X134138888Y-97308281D01*
X134233664Y-96979306D01*
X134291008Y-96641802D01*
X134310202Y-96300000D01*
X134291008Y-95958197D01*
X134233664Y-95620693D01*
X134138888Y-95291718D01*
X134030480Y-95030000D01*
X138389447Y-95030000D01*
X138408822Y-95251463D01*
X138455073Y-95424074D01*
X138466359Y-95466193D01*
X138466361Y-95466199D01*
X138560311Y-95667675D01*
X138560312Y-95667677D01*
X138687816Y-95849772D01*
X138687820Y-95849777D01*
X138687823Y-95849781D01*
X138845019Y-96006977D01*
X138845023Y-96006980D01*
X138845027Y-96006983D01*
X138921799Y-96060739D01*
X139027123Y-96134488D01*
X139228604Y-96228440D01*
X139443337Y-96285978D01*
X139664800Y-96305353D01*
X139886263Y-96285978D01*
X140100996Y-96228440D01*
X140302477Y-96134488D01*
X140484581Y-96006977D01*
X140641777Y-95849781D01*
X140769288Y-95667677D01*
X140863240Y-95466196D01*
X140914694Y-95274166D01*
X140951645Y-95213546D01*
X141015505Y-95182525D01*
X141086000Y-95190953D01*
X141140747Y-95236156D01*
X141158104Y-95274164D01*
X141192006Y-95400687D01*
X141209559Y-95466194D01*
X141209561Y-95466199D01*
X141303511Y-95667675D01*
X141303512Y-95667677D01*
X141431016Y-95849772D01*
X141431020Y-95849777D01*
X141431023Y-95849781D01*
X141588219Y-96006977D01*
X141588223Y-96006980D01*
X141588227Y-96006983D01*
X141664999Y-96060739D01*
X141770323Y-96134488D01*
X141971804Y-96228440D01*
X142186537Y-96285978D01*
X142408000Y-96305353D01*
X142629463Y-96285978D01*
X142844196Y-96228440D01*
X143045677Y-96134488D01*
X143227781Y-96006977D01*
X143384977Y-95849781D01*
X143512488Y-95667677D01*
X143606440Y-95466196D01*
X143657894Y-95274166D01*
X143694845Y-95213546D01*
X143758705Y-95182525D01*
X143829200Y-95190953D01*
X143883947Y-95236156D01*
X143901304Y-95274164D01*
X143935206Y-95400687D01*
X143952759Y-95466194D01*
X143952761Y-95466199D01*
X144046711Y-95667675D01*
X144046712Y-95667677D01*
X144174216Y-95849772D01*
X144174220Y-95849777D01*
X144174223Y-95849781D01*
X144331419Y-96006977D01*
X144331423Y-96006980D01*
X144331427Y-96006983D01*
X144408199Y-96060739D01*
X144513523Y-96134488D01*
X144715004Y-96228440D01*
X144929737Y-96285978D01*
X145151200Y-96305353D01*
X145372663Y-96285978D01*
X145587396Y-96228440D01*
X145788877Y-96134488D01*
X145970981Y-96006977D01*
X146128177Y-95849781D01*
X146255688Y-95667677D01*
X146349640Y-95466196D01*
X146401094Y-95274166D01*
X146438045Y-95213546D01*
X146501905Y-95182525D01*
X146572400Y-95190953D01*
X146627147Y-95236156D01*
X146644504Y-95274164D01*
X146678406Y-95400687D01*
X146695959Y-95466194D01*
X146695961Y-95466199D01*
X146789911Y-95667675D01*
X146789912Y-95667677D01*
X146917416Y-95849772D01*
X146917420Y-95849777D01*
X146917423Y-95849781D01*
X147074619Y-96006977D01*
X147074623Y-96006980D01*
X147074627Y-96006983D01*
X147151399Y-96060739D01*
X147256723Y-96134488D01*
X147458204Y-96228440D01*
X147672937Y-96285978D01*
X147894400Y-96305353D01*
X148115863Y-96285978D01*
X148330596Y-96228440D01*
X148532077Y-96134488D01*
X148714181Y-96006977D01*
X148871377Y-95849781D01*
X148998888Y-95667677D01*
X149092840Y-95466196D01*
X149150378Y-95251463D01*
X149169753Y-95030000D01*
X149150378Y-94808537D01*
X149092840Y-94593804D01*
X148998888Y-94392324D01*
X148871377Y-94210219D01*
X148714181Y-94053023D01*
X148714177Y-94053020D01*
X148714172Y-94053016D01*
X148532077Y-93925512D01*
X148532075Y-93925511D01*
X148330599Y-93831561D01*
X148330593Y-93831559D01*
X148288474Y-93820273D01*
X148115863Y-93774022D01*
X147894400Y-93754647D01*
X147672937Y-93774022D01*
X147557863Y-93804856D01*
X147458206Y-93831559D01*
X147458201Y-93831561D01*
X147256723Y-93925512D01*
X147074622Y-94053020D01*
X147074616Y-94053025D01*
X146917425Y-94210216D01*
X146917420Y-94210222D01*
X146789912Y-94392323D01*
X146695961Y-94593801D01*
X146695959Y-94593806D01*
X146686483Y-94629172D01*
X146644505Y-94785831D01*
X146607555Y-94846453D01*
X146543695Y-94877474D01*
X146473200Y-94869046D01*
X146418453Y-94823843D01*
X146401094Y-94785833D01*
X146349640Y-94593804D01*
X146255688Y-94392324D01*
X146128177Y-94210219D01*
X145970981Y-94053023D01*
X145970977Y-94053020D01*
X145970972Y-94053016D01*
X145788877Y-93925512D01*
X145788875Y-93925511D01*
X145587399Y-93831561D01*
X145587393Y-93831559D01*
X145545274Y-93820273D01*
X145372663Y-93774022D01*
X145151200Y-93754647D01*
X144929737Y-93774022D01*
X144814663Y-93804856D01*
X144715006Y-93831559D01*
X144715001Y-93831561D01*
X144513523Y-93925512D01*
X144331422Y-94053020D01*
X144331416Y-94053025D01*
X144174225Y-94210216D01*
X144174220Y-94210222D01*
X144046712Y-94392323D01*
X143952761Y-94593801D01*
X143952759Y-94593806D01*
X143943283Y-94629172D01*
X143901305Y-94785831D01*
X143864355Y-94846453D01*
X143800495Y-94877474D01*
X143730000Y-94869046D01*
X143675253Y-94823843D01*
X143657894Y-94785833D01*
X143606440Y-94593804D01*
X143512488Y-94392324D01*
X143384977Y-94210219D01*
X143227781Y-94053023D01*
X143227777Y-94053020D01*
X143227772Y-94053016D01*
X143045677Y-93925512D01*
X143045675Y-93925511D01*
X142844199Y-93831561D01*
X142844193Y-93831559D01*
X142802074Y-93820273D01*
X142629463Y-93774022D01*
X142408000Y-93754647D01*
X142186537Y-93774022D01*
X142071463Y-93804856D01*
X141971806Y-93831559D01*
X141971801Y-93831561D01*
X141770323Y-93925512D01*
X141588222Y-94053020D01*
X141588216Y-94053025D01*
X141431025Y-94210216D01*
X141431020Y-94210222D01*
X141303512Y-94392323D01*
X141209561Y-94593801D01*
X141209559Y-94593806D01*
X141200083Y-94629172D01*
X141158105Y-94785831D01*
X141121155Y-94846453D01*
X141057295Y-94877474D01*
X140986800Y-94869046D01*
X140932053Y-94823843D01*
X140914694Y-94785833D01*
X140863240Y-94593804D01*
X140769288Y-94392324D01*
X140641777Y-94210219D01*
X140484581Y-94053023D01*
X140484577Y-94053020D01*
X140484572Y-94053016D01*
X140302477Y-93925512D01*
X140302475Y-93925511D01*
X140100999Y-93831561D01*
X140100993Y-93831559D01*
X140058874Y-93820273D01*
X139886263Y-93774022D01*
X139664800Y-93754647D01*
X139443337Y-93774022D01*
X139328263Y-93804856D01*
X139228606Y-93831559D01*
X139228601Y-93831561D01*
X139027123Y-93925512D01*
X138845022Y-94053020D01*
X138845016Y-94053025D01*
X138687825Y-94210216D01*
X138687820Y-94210222D01*
X138560312Y-94392323D01*
X138466361Y-94593801D01*
X138466359Y-94593806D01*
X138456883Y-94629172D01*
X138408822Y-94808537D01*
X138389447Y-95030000D01*
X134030480Y-95030000D01*
X134007880Y-94975439D01*
X134007877Y-94975434D01*
X133842284Y-94675814D01*
X133644184Y-94396618D01*
X133644168Y-94396598D01*
X133585575Y-94331032D01*
X132590542Y-95326064D01*
X132516712Y-95224446D01*
X132332954Y-95040688D01*
X132231333Y-94966856D01*
X133226366Y-93971823D01*
X133160801Y-93913231D01*
X133160781Y-93913215D01*
X132881585Y-93715115D01*
X132581965Y-93549522D01*
X132581960Y-93549519D01*
X132265681Y-93418511D01*
X131936706Y-93323735D01*
X131599202Y-93266391D01*
X131257400Y-93247197D01*
X130915597Y-93266391D01*
X130578093Y-93323735D01*
X130249118Y-93418511D01*
X129932839Y-93549519D01*
X129932834Y-93549522D01*
X129633219Y-93715113D01*
X129354005Y-93913226D01*
X129288432Y-93971823D01*
X130283465Y-94966856D01*
X130181846Y-95040688D01*
X129998088Y-95224446D01*
X129924256Y-95326065D01*
X128929223Y-94331032D01*
X128870626Y-94396605D01*
X128672513Y-94675819D01*
X128506922Y-94975434D01*
X128506919Y-94975439D01*
X128375911Y-95291718D01*
X128281135Y-95620693D01*
X128223791Y-95958197D01*
X128204597Y-96300000D01*
X117233153Y-96300000D01*
X117233153Y-96060739D01*
X114402703Y-96060739D01*
X114402703Y-120462053D01*
X112025500Y-120462053D01*
X112025500Y-100314187D01*
X112034647Y-92000000D01*
X114136656Y-92000000D01*
X114156016Y-92332403D01*
X114156016Y-92332409D01*
X114156017Y-92332414D01*
X114213838Y-92660333D01*
X114309337Y-92979321D01*
X114309339Y-92979327D01*
X114309340Y-92979328D01*
X114441220Y-93285063D01*
X114441223Y-93285068D01*
X114593904Y-93549519D01*
X114607711Y-93573433D01*
X114806551Y-93840522D01*
X115007035Y-94053023D01*
X115035057Y-94082724D01*
X115290134Y-94296758D01*
X115441944Y-94396605D01*
X115568328Y-94479729D01*
X115865887Y-94629169D01*
X115994043Y-94675814D01*
X116178775Y-94743051D01*
X116178776Y-94743051D01*
X116178784Y-94743054D01*
X116502786Y-94819843D01*
X116691771Y-94841932D01*
X116833508Y-94858500D01*
X116833511Y-94858500D01*
X117166492Y-94858500D01*
X117290510Y-94844003D01*
X117497214Y-94819843D01*
X117821216Y-94743054D01*
X118134113Y-94629169D01*
X118431672Y-94479729D01*
X118709870Y-94296755D01*
X118964946Y-94082721D01*
X119193449Y-93840522D01*
X119392289Y-93573433D01*
X119558778Y-93285066D01*
X119690663Y-92979321D01*
X119786162Y-92660333D01*
X119843983Y-92332414D01*
X119863344Y-92000000D01*
X162136656Y-92000000D01*
X162156016Y-92332403D01*
X162156016Y-92332409D01*
X162156017Y-92332414D01*
X162213838Y-92660333D01*
X162309337Y-92979321D01*
X162309339Y-92979327D01*
X162309340Y-92979328D01*
X162441220Y-93285063D01*
X162441223Y-93285068D01*
X162593904Y-93549519D01*
X162607711Y-93573433D01*
X162806551Y-93840522D01*
X163007035Y-94053023D01*
X163035057Y-94082724D01*
X163290134Y-94296758D01*
X163441944Y-94396605D01*
X163568328Y-94479729D01*
X163865887Y-94629169D01*
X163994043Y-94675814D01*
X164178775Y-94743051D01*
X164178776Y-94743051D01*
X164178784Y-94743054D01*
X164502786Y-94819843D01*
X164691771Y-94841932D01*
X164833508Y-94858500D01*
X164833511Y-94858500D01*
X165166492Y-94858500D01*
X165290510Y-94844003D01*
X165497214Y-94819843D01*
X165821216Y-94743054D01*
X166134113Y-94629169D01*
X166431672Y-94479729D01*
X166709870Y-94296755D01*
X166964946Y-94082721D01*
X167193449Y-93840522D01*
X167392289Y-93573433D01*
X167558778Y-93285066D01*
X167690663Y-92979321D01*
X167786162Y-92660333D01*
X167843983Y-92332414D01*
X167863344Y-92000000D01*
X167843983Y-91667586D01*
X167786162Y-91339667D01*
X167690663Y-91020679D01*
X167558778Y-90714934D01*
X167392289Y-90426567D01*
X167193449Y-90159478D01*
X166964946Y-89917279D01*
X166964944Y-89917278D01*
X166964942Y-89917275D01*
X166709865Y-89703241D01*
X166431679Y-89520275D01*
X166431675Y-89520273D01*
X166431672Y-89520271D01*
X166134113Y-89370831D01*
X166134108Y-89370829D01*
X166134103Y-89370827D01*
X165821224Y-89256948D01*
X165821217Y-89256946D01*
X165821216Y-89256946D01*
X165639258Y-89213821D01*
X165497219Y-89180158D01*
X165497209Y-89180156D01*
X165166492Y-89141500D01*
X165166489Y-89141500D01*
X164833511Y-89141500D01*
X164833508Y-89141500D01*
X164502790Y-89180156D01*
X164502780Y-89180158D01*
X164178784Y-89256946D01*
X164178775Y-89256948D01*
X163865896Y-89370827D01*
X163865891Y-89370829D01*
X163568320Y-89520275D01*
X163290134Y-89703241D01*
X163035057Y-89917275D01*
X162806552Y-90159476D01*
X162607714Y-90426562D01*
X162607704Y-90426578D01*
X162441223Y-90714931D01*
X162441220Y-90714936D01*
X162309340Y-91020671D01*
X162309338Y-91020677D01*
X162213838Y-91339666D01*
X162156016Y-91667590D01*
X162156016Y-91667596D01*
X162136656Y-92000000D01*
X119863344Y-92000000D01*
X119843983Y-91667586D01*
X119786162Y-91339667D01*
X119690663Y-91020679D01*
X119558778Y-90714934D01*
X119392289Y-90426567D01*
X119193449Y-90159478D01*
X118964946Y-89917279D01*
X118964944Y-89917278D01*
X118964942Y-89917275D01*
X118709865Y-89703241D01*
X118431679Y-89520275D01*
X118431675Y-89520273D01*
X118431672Y-89520271D01*
X118134113Y-89370831D01*
X118134108Y-89370829D01*
X118134103Y-89370827D01*
X117821224Y-89256948D01*
X117821217Y-89256946D01*
X117821216Y-89256946D01*
X117639258Y-89213821D01*
X117497219Y-89180158D01*
X117497209Y-89180156D01*
X117166492Y-89141500D01*
X117166489Y-89141500D01*
X116833511Y-89141500D01*
X116833508Y-89141500D01*
X116502790Y-89180156D01*
X116502780Y-89180158D01*
X116178784Y-89256946D01*
X116178775Y-89256948D01*
X115865896Y-89370827D01*
X115865891Y-89370829D01*
X115568320Y-89520275D01*
X115290134Y-89703241D01*
X115035057Y-89917275D01*
X114806552Y-90159476D01*
X114607714Y-90426562D01*
X114607704Y-90426578D01*
X114441223Y-90714931D01*
X114441220Y-90714936D01*
X114309340Y-91020671D01*
X114309338Y-91020677D01*
X114213838Y-91339666D01*
X114156016Y-91667590D01*
X114156016Y-91667596D01*
X114136656Y-92000000D01*
X112034647Y-92000000D01*
X112039981Y-87151361D01*
X112060058Y-87083263D01*
X112113765Y-87036829D01*
X112165981Y-87025500D01*
X169848500Y-87025500D01*
X169916621Y-87045502D01*
G37*
G04 #@! TD.AperFunction*
M02*
