%TF.GenerationSoftware,KiCad,Pcbnew,8.0.6*%
%TF.CreationDate,2025-01-13T19:20:47-05:00*%
%TF.ProjectId,yy_CAN_board,79795f43-414e-45f6-926f-6172642e6b69,1.0*%
%TF.SameCoordinates,Original*%
%TF.FileFunction,Drillmap*%
%TF.FilePolarity,Positive*%
%FSLAX45Y45*%
G04 Gerber Fmt 4.5, Leading zero omitted, Abs format (unit mm)*
G04 Created by KiCad (PCBNEW 8.0.6) date 2025-01-13 19:20:47*
%MOMM*%
%LPD*%
G01*
G04 APERTURE LIST*
%ADD10C,0.150000*%
%ADD11C,0.200000*%
G04 APERTURE END LIST*
D10*
X11200000Y-13300000D02*
X17000000Y-13300000D01*
X11200000Y-13300000D02*
X11200000Y-8700000D01*
X17000000Y-13300000D02*
X17000000Y-8700000D01*
X11200000Y-8700000D02*
X17000000Y-8700000D01*
D11*
X11453277Y-13618984D02*
X11453277Y-13418984D01*
X11453277Y-13418984D02*
X11500896Y-13418984D01*
X11500896Y-13418984D02*
X11529467Y-13428508D01*
X11529467Y-13428508D02*
X11548515Y-13447555D01*
X11548515Y-13447555D02*
X11558039Y-13466603D01*
X11558039Y-13466603D02*
X11567562Y-13504698D01*
X11567562Y-13504698D02*
X11567562Y-13533269D01*
X11567562Y-13533269D02*
X11558039Y-13571365D01*
X11558039Y-13571365D02*
X11548515Y-13590412D01*
X11548515Y-13590412D02*
X11529467Y-13609460D01*
X11529467Y-13609460D02*
X11500896Y-13618984D01*
X11500896Y-13618984D02*
X11453277Y-13618984D01*
X11653277Y-13618984D02*
X11653277Y-13485650D01*
X11653277Y-13523746D02*
X11662801Y-13504698D01*
X11662801Y-13504698D02*
X11672324Y-13495174D01*
X11672324Y-13495174D02*
X11691372Y-13485650D01*
X11691372Y-13485650D02*
X11710420Y-13485650D01*
X11777086Y-13618984D02*
X11777086Y-13485650D01*
X11777086Y-13418984D02*
X11767562Y-13428508D01*
X11767562Y-13428508D02*
X11777086Y-13438031D01*
X11777086Y-13438031D02*
X11786610Y-13428508D01*
X11786610Y-13428508D02*
X11777086Y-13418984D01*
X11777086Y-13418984D02*
X11777086Y-13438031D01*
X11900896Y-13618984D02*
X11881848Y-13609460D01*
X11881848Y-13609460D02*
X11872324Y-13590412D01*
X11872324Y-13590412D02*
X11872324Y-13418984D01*
X12005658Y-13618984D02*
X11986610Y-13609460D01*
X11986610Y-13609460D02*
X11977086Y-13590412D01*
X11977086Y-13590412D02*
X11977086Y-13418984D01*
X12234229Y-13618984D02*
X12234229Y-13418984D01*
X12234229Y-13418984D02*
X12300896Y-13561841D01*
X12300896Y-13561841D02*
X12367562Y-13418984D01*
X12367562Y-13418984D02*
X12367562Y-13618984D01*
X12548515Y-13618984D02*
X12548515Y-13514222D01*
X12548515Y-13514222D02*
X12538991Y-13495174D01*
X12538991Y-13495174D02*
X12519943Y-13485650D01*
X12519943Y-13485650D02*
X12481848Y-13485650D01*
X12481848Y-13485650D02*
X12462801Y-13495174D01*
X12548515Y-13609460D02*
X12529467Y-13618984D01*
X12529467Y-13618984D02*
X12481848Y-13618984D01*
X12481848Y-13618984D02*
X12462801Y-13609460D01*
X12462801Y-13609460D02*
X12453277Y-13590412D01*
X12453277Y-13590412D02*
X12453277Y-13571365D01*
X12453277Y-13571365D02*
X12462801Y-13552317D01*
X12462801Y-13552317D02*
X12481848Y-13542793D01*
X12481848Y-13542793D02*
X12529467Y-13542793D01*
X12529467Y-13542793D02*
X12548515Y-13533269D01*
X12643753Y-13485650D02*
X12643753Y-13685650D01*
X12643753Y-13495174D02*
X12662801Y-13485650D01*
X12662801Y-13485650D02*
X12700896Y-13485650D01*
X12700896Y-13485650D02*
X12719943Y-13495174D01*
X12719943Y-13495174D02*
X12729467Y-13504698D01*
X12729467Y-13504698D02*
X12738991Y-13523746D01*
X12738991Y-13523746D02*
X12738991Y-13580888D01*
X12738991Y-13580888D02*
X12729467Y-13599936D01*
X12729467Y-13599936D02*
X12719943Y-13609460D01*
X12719943Y-13609460D02*
X12700896Y-13618984D01*
X12700896Y-13618984D02*
X12662801Y-13618984D01*
X12662801Y-13618984D02*
X12643753Y-13609460D01*
X12824705Y-13599936D02*
X12834229Y-13609460D01*
X12834229Y-13609460D02*
X12824705Y-13618984D01*
X12824705Y-13618984D02*
X12815182Y-13609460D01*
X12815182Y-13609460D02*
X12824705Y-13599936D01*
X12824705Y-13599936D02*
X12824705Y-13618984D01*
X12824705Y-13495174D02*
X12834229Y-13504698D01*
X12834229Y-13504698D02*
X12824705Y-13514222D01*
X12824705Y-13514222D02*
X12815182Y-13504698D01*
X12815182Y-13504698D02*
X12824705Y-13495174D01*
X12824705Y-13495174D02*
X12824705Y-13514222D01*
M02*
