G04 #@! TF.GenerationSoftware,KiCad,Pcbnew,8.0.6*
G04 #@! TF.CreationDate,2025-01-13T19:20:44-05:00*
G04 #@! TF.ProjectId,yy_CAN_board,79795f43-414e-45f6-926f-6172642e6b69,1.0*
G04 #@! TF.SameCoordinates,Original*
G04 #@! TF.FileFunction,Paste,Top*
G04 #@! TF.FilePolarity,Positive*
%FSLAX46Y46*%
G04 Gerber Fmt 4.6, Leading zero omitted, Abs format (unit mm)*
G04 Created by KiCad (PCBNEW 8.0.6) date 2025-01-13 19:20:44*
%MOMM*%
%LPD*%
G01*
G04 APERTURE LIST*
G04 Aperture macros list*
%AMRoundRect*
0 Rectangle with rounded corners*
0 $1 Rounding radius*
0 $2 $3 $4 $5 $6 $7 $8 $9 X,Y pos of 4 corners*
0 Add a 4 corners polygon primitive as box body*
4,1,4,$2,$3,$4,$5,$6,$7,$8,$9,$2,$3,0*
0 Add four circle primitives for the rounded corners*
1,1,$1+$1,$2,$3*
1,1,$1+$1,$4,$5*
1,1,$1+$1,$6,$7*
1,1,$1+$1,$8,$9*
0 Add four rect primitives between the rounded corners*
20,1,$1+$1,$2,$3,$4,$5,0*
20,1,$1+$1,$4,$5,$6,$7,0*
20,1,$1+$1,$6,$7,$8,$9,0*
20,1,$1+$1,$8,$9,$2,$3,0*%
G04 Aperture macros list end*
%ADD10RoundRect,0.250000X2.500000X-0.250000X2.500000X0.250000X-2.500000X0.250000X-2.500000X-0.250000X0*%
%ADD11RoundRect,0.250000X1.250000X-0.550000X1.250000X0.550000X-1.250000X0.550000X-1.250000X-0.550000X0*%
%ADD12RoundRect,0.250000X0.250000X2.500000X-0.250000X2.500000X-0.250000X-2.500000X0.250000X-2.500000X0*%
%ADD13RoundRect,0.250000X0.550000X1.250000X-0.550000X1.250000X-0.550000X-1.250000X0.550000X-1.250000X0*%
%ADD14RoundRect,0.250000X0.337500X0.475000X-0.337500X0.475000X-0.337500X-0.475000X0.337500X-0.475000X0*%
%ADD15RoundRect,0.042000X-0.943000X-0.258000X0.943000X-0.258000X0.943000X0.258000X-0.943000X0.258000X0*%
%ADD16RoundRect,0.250000X0.475000X-0.337500X0.475000X0.337500X-0.475000X0.337500X-0.475000X-0.337500X0*%
%ADD17RoundRect,0.250000X-0.337500X-0.475000X0.337500X-0.475000X0.337500X0.475000X-0.337500X0.475000X0*%
%ADD18R,1.397000X0.558800*%
G04 APERTURE END LIST*
D10*
X163629600Y-116285400D03*
X163629600Y-114285400D03*
X163629600Y-112285400D03*
X163629600Y-110285400D03*
X163629600Y-108285400D03*
X163629600Y-106285400D03*
D11*
X161379600Y-118685400D03*
X161379600Y-103885400D03*
D12*
X152250000Y-124400000D03*
X150250000Y-124400000D03*
X148250000Y-124400000D03*
D13*
X154650000Y-126650000D03*
X145850000Y-126650000D03*
D12*
X138500000Y-124400000D03*
X136500000Y-124400000D03*
X134500000Y-124400000D03*
X132500000Y-124400000D03*
X130500000Y-124400000D03*
X128500000Y-124400000D03*
D13*
X140900000Y-126650000D03*
X126100000Y-126650000D03*
D14*
X144197100Y-113935400D03*
X142122100Y-113935400D03*
D15*
X142404600Y-105960400D03*
X142404600Y-107230400D03*
X142404600Y-108500400D03*
X142404600Y-109770400D03*
X147344600Y-109770400D03*
X147344600Y-108500400D03*
X147344600Y-107230400D03*
X147344600Y-105960400D03*
D16*
X137310600Y-109418400D03*
X137310600Y-107343400D03*
D17*
X123319100Y-102517400D03*
X125394100Y-102517400D03*
D18*
X128674600Y-105819400D03*
X128674600Y-107089400D03*
X128674600Y-108359400D03*
X128674600Y-109629400D03*
X128674600Y-110899400D03*
X128674600Y-112169400D03*
X128674600Y-113439400D03*
X133983200Y-113439400D03*
X133983200Y-112169400D03*
X133983200Y-110899400D03*
X133983200Y-109629400D03*
X133983200Y-108359400D03*
X133983200Y-107089400D03*
X133983200Y-105819400D03*
D14*
X130982100Y-117249400D03*
X128907100Y-117249400D03*
M02*
