M48
; DRILL file {KiCad 8.0.6} date 2025-01-13T19:20:46-0500
; FORMAT={-:-/ absolute / inch / decimal}
; #@! TF.CreationDate,2025-01-13T19:20:46-05:00
; #@! TF.GenerationSoftware,Kicad,Pcbnew,8.0.6
; #@! TF.FileFunction,Plated,1,2,PTH
FMAT,2
INCH
; #@! TA.AperFunction,Plated,PTH,ViaDrill
T1C0.0157
; #@! TA.AperFunction,Plated,PTH,ComponentDrill
T2C0.0315
; #@! TA.AperFunction,Plated,PTH,ComponentDrill
T3C0.0400
; #@! TA.AperFunction,Plated,PTH,ComponentDrill
T4C0.1063
; #@! TA.AperFunction,Plated,PTH,ComponentDrill
T5C0.1300
%
G90
G05
T1
X5.0701Y-4.0891
X5.3437Y-4.1975
X5.511Y-4.2045
X5.5252Y-4.3036
X5.7114Y-4.8238
X6.2209Y-4.9549
T2
X4.8759Y-4.274
X4.8759Y-4.4661
T3
X5.4446Y-3.8413
X5.4986Y-3.7413
X5.5526Y-3.8413
X5.6066Y-3.7413
X5.6606Y-3.8413
X5.7146Y-3.7413
X5.7686Y-3.8413
X5.8226Y-3.7413
X5.8766Y-3.8413
T4
X4.6063Y-3.622
X4.6063Y-4.9164
X6.4961Y-3.622
X6.4961Y-5.0394
T5
X5.1676Y-3.7913
X6.1536Y-3.7913
M30
