<?xml version="1.0" standalone="no"?>
 <!DOCTYPE svg PUBLIC "-//W3C//DTD SVG 1.1//EN" 
 "http://www.w3.org/Graphics/SVG/1.1/DTD/svg11.dtd"> 
<svg
  xmlns:svg="http://www.w3.org/2000/svg"
  xmlns="http://www.w3.org/2000/svg"
  xmlns:xlink="http://www.w3.org/1999/xlink"
  version="1.1"
  width="108.7882mm" height="103.2510mm" viewBox="0.0000 0.0000 108.7882 103.2510">
<title>SVG Image created as RL78_F14_CAN-F_Paste.svg date 2024/12/18 10:30:13 </title>
  <desc>Image generated by PCBNEW </desc>
<g style="fill:#000000; fill-opacity:1.0000;stroke:#000000; stroke-opacity:1.0000;
stroke-linecap:round; stroke-linejoin:round;"
 transform="translate(0 0) scale(1 1)">
<path style="fill:#000000; fill-opacity:1.0000; stroke:none;fill-rule:evenodd;"
d="M 58.5800,10.4500
58.5610,10.5457
58.5068,10.6268
58.4257,10.6810
58.3300,10.7000
57.6550,10.7000
57.5593,10.6810
57.4782,10.6268
57.4240,10.5457
57.4050,10.4500
57.4050,9.5000
57.4240,9.4043
57.4782,9.3232
57.5593,9.2690
57.6550,9.2500
58.3300,9.2500
58.4257,9.2690
58.5068,9.3232
58.5610,9.4043
58.5800,9.5000
Z" /> 
<path style="fill:#000000; fill-opacity:1.0000; stroke:none;fill-rule:evenodd;"
d="M 56.5050,10.4500
56.4860,10.5457
56.4318,10.6268
56.3507,10.6810
56.2550,10.7000
55.5800,10.7000
55.4843,10.6810
55.4032,10.6268
55.3490,10.5457
55.3300,10.4500
55.3300,9.5000
55.3490,9.4043
55.4032,9.3232
55.4843,9.2690
55.5800,9.2500
56.2550,9.2500
56.3507,9.2690
56.4318,9.3232
56.4860,9.4043
56.5050,9.5000
Z" /> 
<path style="fill:#000000; fill-opacity:1.0000; stroke:none;fill-rule:evenodd;"
d="M 16.7000,44.7050
16.7190,44.6093
16.7732,44.5282
16.8543,44.4740
16.9500,44.4550
17.4750,44.4550
17.5707,44.4740
17.6518,44.5282
17.7060,44.6093
17.7250,44.7050
17.7250,45.6050
17.7060,45.7007
17.6518,45.7818
17.5707,45.8360
17.4750,45.8550
16.9500,45.8550
16.8543,45.8360
16.7732,45.7818
16.7190,45.7007
16.7000,45.6050
Z" /> 
<path style="fill:#000000; fill-opacity:1.0000; stroke:none;fill-rule:evenodd;"
d="M 18.5250,44.7050
18.5440,44.6093
18.5982,44.5282
18.6793,44.4740
18.7750,44.4550
19.3000,44.4550
19.3957,44.4740
19.4768,44.5282
19.5310,44.6093
19.5500,44.7050
19.5500,45.6050
19.5310,45.7007
19.4768,45.7818
19.3957,45.8360
19.3000,45.8550
18.7750,45.8550
18.6793,45.8360
18.5982,45.7818
18.5440,45.7007
18.5250,45.6050
Z" /> 
<path style="fill:#000000; fill-opacity:1.0000; stroke:none;fill-rule:evenodd;"
d="M 16.9750,23.4800
16.8793,23.4610
16.7982,23.4068
16.7440,23.3257
16.7250,23.2300
16.7250,22.5550
16.7440,22.4593
16.7982,22.3782
16.8793,22.3240
16.9750,22.3050
17.9250,22.3050
18.0207,22.3240
18.1018,22.3782
18.1560,22.4593
18.1750,22.5550
18.1750,23.2300
18.1560,23.3257
18.1018,23.4068
18.0207,23.4610
17.9250,23.4800
Z" /> 
<path style="fill:#000000; fill-opacity:1.0000; stroke:none;fill-rule:evenodd;"
d="M 16.9750,21.4050
16.8793,21.3860
16.7982,21.3318
16.7440,21.2507
16.7250,21.1550
16.7250,20.4800
16.7440,20.3843
16.7982,20.3032
16.8793,20.2490
16.9750,20.2300
17.9250,20.2300
18.0207,20.2490
18.1018,20.3032
18.1560,20.3843
18.1750,20.4800
18.1750,21.1550
18.1560,21.2507
18.1018,21.3318
18.0207,21.3860
17.9250,21.4050
Z" /> 
<path style="fill:#000000; fill-opacity:1.0000; stroke:none;fill-rule:evenodd;"
d="M 52.0450,39.0500
52.0640,38.9543
52.1182,38.8732
52.1993,38.8190
52.2950,38.8000
52.7950,38.8000
52.8907,38.8190
52.9718,38.8732
53.0260,38.9543
53.0450,39.0500
53.0450,39.5500
53.0260,39.6457
52.9718,39.7268
52.8907,39.7810
52.7950,39.8000
52.2950,39.8000
52.1993,39.7810
52.1182,39.7268
52.0640,39.6457
52.0450,39.5500
Z" /> 
<path style="fill:#000000; fill-opacity:1.0000; stroke:none;fill-rule:evenodd;"
d="M 52.0450,40.2900
52.0640,40.1943
52.1182,40.1132
52.1993,40.0590
52.2950,40.0400
52.7950,40.0400
52.8907,40.0590
52.9718,40.1132
53.0260,40.1943
53.0450,40.2900
53.0450,40.7900
53.0260,40.8857
52.9718,40.9668
52.8907,41.0210
52.7950,41.0400
52.2950,41.0400
52.1993,41.0210
52.1182,40.9668
52.0640,40.8857
52.0450,40.7900
Z" /> 
<path style="fill:#000000; fill-opacity:1.0000; stroke:none;fill-rule:evenodd;"
d="M 52.0450,41.5300
52.0640,41.4343
52.1182,41.3532
52.1993,41.2990
52.2950,41.2800
52.7950,41.2800
52.8907,41.2990
52.9718,41.3532
53.0260,41.4343
53.0450,41.5300
53.0450,42.0300
53.0260,42.1257
52.9718,42.2068
52.8907,42.2610
52.7950,42.2800
52.2950,42.2800
52.1993,42.2610
52.1182,42.2068
52.0640,42.1257
52.0450,42.0300
Z" /> 
<path style="fill:#000000; fill-opacity:1.0000; stroke:none;fill-rule:evenodd;"
d="M 52.0450,42.7700
52.0640,42.6743
52.1182,42.5932
52.1993,42.5390
52.2950,42.5200
52.7950,42.5200
52.8907,42.5390
52.9718,42.5932
53.0260,42.6743
53.0450,42.7700
53.0450,43.2700
53.0260,43.3657
52.9718,43.4468
52.8907,43.5010
52.7950,43.5200
52.2950,43.5200
52.1993,43.5010
52.1182,43.4468
52.0640,43.3657
52.0450,43.2700
Z" /> 
<path style="fill:#000000; fill-opacity:1.0000; stroke:none;fill-rule:evenodd;"
d="M 52.0450,44.0100
52.0640,43.9143
52.1182,43.8332
52.1993,43.7790
52.2950,43.7600
52.7950,43.7600
52.8907,43.7790
52.9718,43.8332
53.0260,43.9143
53.0450,44.0100
53.0450,44.5100
53.0260,44.6057
52.9718,44.6868
52.8907,44.7410
52.7950,44.7600
52.2950,44.7600
52.1993,44.7410
52.1182,44.6868
52.0640,44.6057
52.0450,44.5100
Z" /> 
<path style="fill:#000000; fill-opacity:1.0000; stroke:none;fill-rule:evenodd;"
d="M 53.2850,39.0500
53.3040,38.9543
53.3582,38.8732
53.4393,38.8190
53.5350,38.8000
54.0350,38.8000
54.1307,38.8190
54.2118,38.8732
54.2660,38.9543
54.2850,39.0500
54.2850,39.5500
54.2660,39.6457
54.2118,39.7268
54.1307,39.7810
54.0350,39.8000
53.5350,39.8000
53.4393,39.7810
53.3582,39.7268
53.3040,39.6457
53.2850,39.5500
Z" /> 
<path style="fill:#000000; fill-opacity:1.0000; stroke:none;fill-rule:evenodd;"
d="M 53.2850,40.2900
53.3040,40.1943
53.3582,40.1132
53.4393,40.0590
53.5350,40.0400
54.0350,40.0400
54.1307,40.0590
54.2118,40.1132
54.2660,40.1943
54.2850,40.2900
54.2850,40.7900
54.2660,40.8857
54.2118,40.9668
54.1307,41.0210
54.0350,41.0400
53.5350,41.0400
53.4393,41.0210
53.3582,40.9668
53.3040,40.8857
53.2850,40.7900
Z" /> 
<path style="fill:#000000; fill-opacity:1.0000; stroke:none;fill-rule:evenodd;"
d="M 53.2850,41.5300
53.3040,41.4343
53.3582,41.3532
53.4393,41.2990
53.5350,41.2800
54.0350,41.2800
54.1307,41.2990
54.2118,41.3532
54.2660,41.4343
54.2850,41.5300
54.2850,42.0300
54.2660,42.1257
54.2118,42.2068
54.1307,42.2610
54.0350,42.2800
53.5350,42.2800
53.4393,42.2610
53.3582,42.2068
53.3040,42.1257
53.2850,42.0300
Z" /> 
<path style="fill:#000000; fill-opacity:1.0000; stroke:none;fill-rule:evenodd;"
d="M 53.2850,42.7700
53.3040,42.6743
53.3582,42.5932
53.4393,42.5390
53.5350,42.5200
54.0350,42.5200
54.1307,42.5390
54.2118,42.5932
54.2660,42.6743
54.2850,42.7700
54.2850,43.2700
54.2660,43.3657
54.2118,43.4468
54.1307,43.5010
54.0350,43.5200
53.5350,43.5200
53.4393,43.5010
53.3582,43.4468
53.3040,43.3657
53.2850,43.2700
Z" /> 
<path style="fill:#000000; fill-opacity:1.0000; stroke:none;fill-rule:evenodd;"
d="M 53.2850,44.0100
53.3040,43.9143
53.3582,43.8332
53.4393,43.7790
53.5350,43.7600
54.0350,43.7600
54.1307,43.7790
54.2118,43.8332
54.2660,43.9143
54.2850,44.0100
54.2850,44.5100
54.2660,44.6057
54.2118,44.6868
54.1307,44.7410
54.0350,44.7600
53.5350,44.7600
53.4393,44.7410
53.3582,44.6868
53.3040,44.6057
53.2850,44.5100
Z" /> 
<path style="fill:#000000; fill-opacity:1.0000; stroke:none;fill-rule:evenodd;"
d="M 54.5250,39.0500
54.5440,38.9543
54.5982,38.8732
54.6793,38.8190
54.7750,38.8000
55.2750,38.8000
55.3707,38.8190
55.4518,38.8732
55.5060,38.9543
55.5250,39.0500
55.5250,39.5500
55.5060,39.6457
55.4518,39.7268
55.3707,39.7810
55.2750,39.8000
54.7750,39.8000
54.6793,39.7810
54.5982,39.7268
54.5440,39.6457
54.5250,39.5500
Z" /> 
<path style="fill:#000000; fill-opacity:1.0000; stroke:none;fill-rule:evenodd;"
d="M 54.5250,40.2900
54.5440,40.1943
54.5982,40.1132
54.6793,40.0590
54.7750,40.0400
55.2750,40.0400
55.3707,40.0590
55.4518,40.1132
55.5060,40.1943
55.5250,40.2900
55.5250,40.7900
55.5060,40.8857
55.4518,40.9668
55.3707,41.0210
55.2750,41.0400
54.7750,41.0400
54.6793,41.0210
54.5982,40.9668
54.5440,40.8857
54.5250,40.7900
Z" /> 
<path style="fill:#000000; fill-opacity:1.0000; stroke:none;fill-rule:evenodd;"
d="M 54.5250,41.5300
54.5440,41.4343
54.5982,41.3532
54.6793,41.2990
54.7750,41.2800
55.2750,41.2800
55.3707,41.2990
55.4518,41.3532
55.5060,41.4343
55.5250,41.5300
55.5250,42.0300
55.5060,42.1257
55.4518,42.2068
55.3707,42.2610
55.2750,42.2800
54.7750,42.2800
54.6793,42.2610
54.5982,42.2068
54.5440,42.1257
54.5250,42.0300
Z" /> 
<path style="fill:#000000; fill-opacity:1.0000; stroke:none;fill-rule:evenodd;"
d="M 54.5250,42.7700
54.5440,42.6743
54.5982,42.5932
54.6793,42.5390
54.7750,42.5200
55.2750,42.5200
55.3707,42.5390
55.4518,42.5932
55.5060,42.6743
55.5250,42.7700
55.5250,43.2700
55.5060,43.3657
55.4518,43.4468
55.3707,43.5010
55.2750,43.5200
54.7750,43.5200
54.6793,43.5010
54.5982,43.4468
54.5440,43.3657
54.5250,43.2700
Z" /> 
<path style="fill:#000000; fill-opacity:1.0000; stroke:none;fill-rule:evenodd;"
d="M 54.5250,44.0100
54.5440,43.9143
54.5982,43.8332
54.6793,43.7790
54.7750,43.7600
55.2750,43.7600
55.3707,43.7790
55.4518,43.8332
55.5060,43.9143
55.5250,44.0100
55.5250,44.5100
55.5060,44.6057
55.4518,44.6868
55.3707,44.7410
55.2750,44.7600
54.7750,44.7600
54.6793,44.7410
54.5982,44.6868
54.5440,44.6057
54.5250,44.5100
Z" /> 
<path style="fill:#000000; fill-opacity:1.0000; stroke:none;fill-rule:evenodd;"
d="M 55.7650,39.0500
55.7840,38.9543
55.8382,38.8732
55.9193,38.8190
56.0150,38.8000
56.5150,38.8000
56.6107,38.8190
56.6918,38.8732
56.7460,38.9543
56.7650,39.0500
56.7650,39.5500
56.7460,39.6457
56.6918,39.7268
56.6107,39.7810
56.5150,39.8000
56.0150,39.8000
55.9193,39.7810
55.8382,39.7268
55.7840,39.6457
55.7650,39.5500
Z" /> 
<path style="fill:#000000; fill-opacity:1.0000; stroke:none;fill-rule:evenodd;"
d="M 55.7650,40.2900
55.7840,40.1943
55.8382,40.1132
55.9193,40.0590
56.0150,40.0400
56.5150,40.0400
56.6107,40.0590
56.6918,40.1132
56.7460,40.1943
56.7650,40.2900
56.7650,40.7900
56.7460,40.8857
56.6918,40.9668
56.6107,41.0210
56.5150,41.0400
56.0150,41.0400
55.9193,41.0210
55.8382,40.9668
55.7840,40.8857
55.7650,40.7900
Z" /> 
<path style="fill:#000000; fill-opacity:1.0000; stroke:none;fill-rule:evenodd;"
d="M 55.7650,41.5300
55.7840,41.4343
55.8382,41.3532
55.9193,41.2990
56.0150,41.2800
56.5150,41.2800
56.6107,41.2990
56.6918,41.3532
56.7460,41.4343
56.7650,41.5300
56.7650,42.0300
56.7460,42.1257
56.6918,42.2068
56.6107,42.2610
56.5150,42.2800
56.0150,42.2800
55.9193,42.2610
55.8382,42.2068
55.7840,42.1257
55.7650,42.0300
Z" /> 
<path style="fill:#000000; fill-opacity:1.0000; stroke:none;fill-rule:evenodd;"
d="M 55.7650,42.7700
55.7840,42.6743
55.8382,42.5932
55.9193,42.5390
56.0150,42.5200
56.5150,42.5200
56.6107,42.5390
56.6918,42.5932
56.7460,42.6743
56.7650,42.7700
56.7650,43.2700
56.7460,43.3657
56.6918,43.4468
56.6107,43.5010
56.5150,43.5200
56.0150,43.5200
55.9193,43.5010
55.8382,43.4468
55.7840,43.3657
55.7650,43.2700
Z" /> 
<path style="fill:#000000; fill-opacity:1.0000; stroke:none;fill-rule:evenodd;"
d="M 55.7650,44.0100
55.7840,43.9143
55.8382,43.8332
55.9193,43.7790
56.0150,43.7600
56.5150,43.7600
56.6107,43.7790
56.6918,43.8332
56.7460,43.9143
56.7650,44.0100
56.7650,44.5100
56.7460,44.6057
56.6918,44.6868
56.6107,44.7410
56.5150,44.7600
56.0150,44.7600
55.9193,44.7410
55.8382,44.6868
55.7840,44.6057
55.7650,44.5100
Z" /> 
<path style="fill:#000000; fill-opacity:1.0000; stroke:none;fill-rule:evenodd;"
d="M 57.0050,39.0500
57.0240,38.9543
57.0782,38.8732
57.1593,38.8190
57.2550,38.8000
57.7550,38.8000
57.8507,38.8190
57.9318,38.8732
57.9860,38.9543
58.0050,39.0500
58.0050,39.5500
57.9860,39.6457
57.9318,39.7268
57.8507,39.7810
57.7550,39.8000
57.2550,39.8000
57.1593,39.7810
57.0782,39.7268
57.0240,39.6457
57.0050,39.5500
Z" /> 
<path style="fill:#000000; fill-opacity:1.0000; stroke:none;fill-rule:evenodd;"
d="M 57.0050,40.2900
57.0240,40.1943
57.0782,40.1132
57.1593,40.0590
57.2550,40.0400
57.7550,40.0400
57.8507,40.0590
57.9318,40.1132
57.9860,40.1943
58.0050,40.2900
58.0050,40.7900
57.9860,40.8857
57.9318,40.9668
57.8507,41.0210
57.7550,41.0400
57.2550,41.0400
57.1593,41.0210
57.0782,40.9668
57.0240,40.8857
57.0050,40.7900
Z" /> 
<path style="fill:#000000; fill-opacity:1.0000; stroke:none;fill-rule:evenodd;"
d="M 57.0050,41.5300
57.0240,41.4343
57.0782,41.3532
57.1593,41.2990
57.2550,41.2800
57.7550,41.2800
57.8507,41.2990
57.9318,41.3532
57.9860,41.4343
58.0050,41.5300
58.0050,42.0300
57.9860,42.1257
57.9318,42.2068
57.8507,42.2610
57.7550,42.2800
57.2550,42.2800
57.1593,42.2610
57.0782,42.2068
57.0240,42.1257
57.0050,42.0300
Z" /> 
<path style="fill:#000000; fill-opacity:1.0000; stroke:none;fill-rule:evenodd;"
d="M 57.0050,42.7700
57.0240,42.6743
57.0782,42.5932
57.1593,42.5390
57.2550,42.5200
57.7550,42.5200
57.8507,42.5390
57.9318,42.5932
57.9860,42.6743
58.0050,42.7700
58.0050,43.2700
57.9860,43.3657
57.9318,43.4468
57.8507,43.5010
57.7550,43.5200
57.2550,43.5200
57.1593,43.5010
57.0782,43.4468
57.0240,43.3657
57.0050,43.2700
Z" /> 
<path style="fill:#000000; fill-opacity:1.0000; stroke:none;fill-rule:evenodd;"
d="M 57.0050,44.0100
57.0240,43.9143
57.0782,43.8332
57.1593,43.7790
57.2550,43.7600
57.7550,43.7600
57.8507,43.7790
57.9318,43.8332
57.9860,43.9143
58.0050,44.0100
58.0050,44.5100
57.9860,44.6057
57.9318,44.6868
57.8507,44.7410
57.7550,44.7600
57.2550,44.7600
57.1593,44.7410
57.0782,44.6868
57.0240,44.6057
57.0050,44.5100
Z" /> 
<path style="fill:#000000; fill-opacity:1.0000; stroke:none;fill-rule:evenodd;"
d="M 50.6750,38.9675
50.6798,38.9436
50.6933,38.9233
50.7136,38.9098
50.7375,38.9050
51.5625,38.9050
51.5864,38.9098
51.6067,38.9233
51.6202,38.9436
51.6250,38.9675
51.6250,39.0925
51.6202,39.1164
51.6067,39.1367
51.5864,39.1502
51.5625,39.1550
50.7375,39.1550
50.7136,39.1502
50.6933,39.1367
50.6798,39.1164
50.6750,39.0925
Z" /> 
<path style="fill:#000000; fill-opacity:1.0000; stroke:none;fill-rule:evenodd;"
d="M 50.6750,39.4675
50.6798,39.4436
50.6933,39.4233
50.7136,39.4098
50.7375,39.4050
51.5625,39.4050
51.5864,39.4098
51.6067,39.4233
51.6202,39.4436
51.6250,39.4675
51.6250,39.5925
51.6202,39.6164
51.6067,39.6367
51.5864,39.6502
51.5625,39.6550
50.7375,39.6550
50.7136,39.6502
50.6933,39.6367
50.6798,39.6164
50.6750,39.5925
Z" /> 
<path style="fill:#000000; fill-opacity:1.0000; stroke:none;fill-rule:evenodd;"
d="M 50.6750,39.9675
50.6798,39.9436
50.6933,39.9233
50.7136,39.9098
50.7375,39.9050
51.5625,39.9050
51.5864,39.9098
51.6067,39.9233
51.6202,39.9436
51.6250,39.9675
51.6250,40.0925
51.6202,40.1164
51.6067,40.1367
51.5864,40.1502
51.5625,40.1550
50.7375,40.1550
50.7136,40.1502
50.6933,40.1367
50.6798,40.1164
50.6750,40.0925
Z" /> 
<path style="fill:#000000; fill-opacity:1.0000; stroke:none;fill-rule:evenodd;"
d="M 50.6750,40.4675
50.6798,40.4436
50.6933,40.4233
50.7136,40.4098
50.7375,40.4050
51.5625,40.4050
51.5864,40.4098
51.6067,40.4233
51.6202,40.4436
51.6250,40.4675
51.6250,40.5925
51.6202,40.6164
51.6067,40.6367
51.5864,40.6502
51.5625,40.6550
50.7375,40.6550
50.7136,40.6502
50.6933,40.6367
50.6798,40.6164
50.6750,40.5925
Z" /> 
<path style="fill:#000000; fill-opacity:1.0000; stroke:none;fill-rule:evenodd;"
d="M 50.6750,40.9675
50.6798,40.9436
50.6933,40.9233
50.7136,40.9098
50.7375,40.9050
51.5625,40.9050
51.5864,40.9098
51.6067,40.9233
51.6202,40.9436
51.6250,40.9675
51.6250,41.0925
51.6202,41.1164
51.6067,41.1367
51.5864,41.1502
51.5625,41.1550
50.7375,41.1550
50.7136,41.1502
50.6933,41.1367
50.6798,41.1164
50.6750,41.0925
Z" /> 
<path style="fill:#000000; fill-opacity:1.0000; stroke:none;fill-rule:evenodd;"
d="M 50.6750,41.4675
50.6798,41.4436
50.6933,41.4233
50.7136,41.4098
50.7375,41.4050
51.5625,41.4050
51.5864,41.4098
51.6067,41.4233
51.6202,41.4436
51.6250,41.4675
51.6250,41.5925
51.6202,41.6164
51.6067,41.6367
51.5864,41.6502
51.5625,41.6550
50.7375,41.6550
50.7136,41.6502
50.6933,41.6367
50.6798,41.6164
50.6750,41.5925
Z" /> 
<path style="fill:#000000; fill-opacity:1.0000; stroke:none;fill-rule:evenodd;"
d="M 50.6750,41.9675
50.6798,41.9436
50.6933,41.9233
50.7136,41.9098
50.7375,41.9050
51.5625,41.9050
51.5864,41.9098
51.6067,41.9233
51.6202,41.9436
51.6250,41.9675
51.6250,42.0925
51.6202,42.1164
51.6067,42.1367
51.5864,42.1502
51.5625,42.1550
50.7375,42.1550
50.7136,42.1502
50.6933,42.1367
50.6798,42.1164
50.6750,42.0925
Z" /> 
<path style="fill:#000000; fill-opacity:1.0000; stroke:none;fill-rule:evenodd;"
d="M 50.6750,42.4675
50.6798,42.4436
50.6933,42.4233
50.7136,42.4098
50.7375,42.4050
51.5625,42.4050
51.5864,42.4098
51.6067,42.4233
51.6202,42.4436
51.6250,42.4675
51.6250,42.5925
51.6202,42.6164
51.6067,42.6367
51.5864,42.6502
51.5625,42.6550
50.7375,42.6550
50.7136,42.6502
50.6933,42.6367
50.6798,42.6164
50.6750,42.5925
Z" /> 
<path style="fill:#000000; fill-opacity:1.0000; stroke:none;fill-rule:evenodd;"
d="M 50.6750,42.9675
50.6798,42.9436
50.6933,42.9233
50.7136,42.9098
50.7375,42.9050
51.5625,42.9050
51.5864,42.9098
51.6067,42.9233
51.6202,42.9436
51.6250,42.9675
51.6250,43.0925
51.6202,43.1164
51.6067,43.1367
51.5864,43.1502
51.5625,43.1550
50.7375,43.1550
50.7136,43.1502
50.6933,43.1367
50.6798,43.1164
50.6750,43.0925
Z" /> 
<path style="fill:#000000; fill-opacity:1.0000; stroke:none;fill-rule:evenodd;"
d="M 50.6750,43.4675
50.6798,43.4436
50.6933,43.4233
50.7136,43.4098
50.7375,43.4050
51.5625,43.4050
51.5864,43.4098
51.6067,43.4233
51.6202,43.4436
51.6250,43.4675
51.6250,43.5925
51.6202,43.6164
51.6067,43.6367
51.5864,43.6502
51.5625,43.6550
50.7375,43.6550
50.7136,43.6502
50.6933,43.6367
50.6798,43.6164
50.6750,43.5925
Z" /> 
<path style="fill:#000000; fill-opacity:1.0000; stroke:none;fill-rule:evenodd;"
d="M 50.6750,43.9675
50.6798,43.9436
50.6933,43.9233
50.7136,43.9098
50.7375,43.9050
51.5625,43.9050
51.5864,43.9098
51.6067,43.9233
51.6202,43.9436
51.6250,43.9675
51.6250,44.0925
51.6202,44.1164
51.6067,44.1367
51.5864,44.1502
51.5625,44.1550
50.7375,44.1550
50.7136,44.1502
50.6933,44.1367
50.6798,44.1164
50.6750,44.0925
Z" /> 
<path style="fill:#000000; fill-opacity:1.0000; stroke:none;fill-rule:evenodd;"
d="M 50.6750,44.4675
50.6798,44.4436
50.6933,44.4233
50.7136,44.4098
50.7375,44.4050
51.5625,44.4050
51.5864,44.4098
51.6067,44.4233
51.6202,44.4436
51.6250,44.4675
51.6250,44.5925
51.6202,44.6164
51.6067,44.6367
51.5864,44.6502
51.5625,44.6550
50.7375,44.6550
50.7136,44.6502
50.6933,44.6367
50.6798,44.6164
50.6750,44.5925
Z" /> 
<path style="fill:#000000; fill-opacity:1.0000; stroke:none;fill-rule:evenodd;"
d="M 52.1500,45.2425
52.1548,45.2186
52.1683,45.1983
52.1886,45.1848
52.2125,45.1800
52.3375,45.1800
52.3614,45.1848
52.3817,45.1983
52.3952,45.2186
52.4000,45.2425
52.4000,46.0675
52.3952,46.0914
52.3817,46.1117
52.3614,46.1252
52.3375,46.1300
52.2125,46.1300
52.1886,46.1252
52.1683,46.1117
52.1548,46.0914
52.1500,46.0675
Z" /> 
<path style="fill:#000000; fill-opacity:1.0000; stroke:none;fill-rule:evenodd;"
d="M 52.6500,45.2425
52.6548,45.2186
52.6683,45.1983
52.6886,45.1848
52.7125,45.1800
52.8375,45.1800
52.8614,45.1848
52.8817,45.1983
52.8952,45.2186
52.9000,45.2425
52.9000,46.0675
52.8952,46.0914
52.8817,46.1117
52.8614,46.1252
52.8375,46.1300
52.7125,46.1300
52.6886,46.1252
52.6683,46.1117
52.6548,46.0914
52.6500,46.0675
Z" /> 
<path style="fill:#000000; fill-opacity:1.0000; stroke:none;fill-rule:evenodd;"
d="M 53.1500,45.2425
53.1548,45.2186
53.1683,45.1983
53.1886,45.1848
53.2125,45.1800
53.3375,45.1800
53.3614,45.1848
53.3817,45.1983
53.3952,45.2186
53.4000,45.2425
53.4000,46.0675
53.3952,46.0914
53.3817,46.1117
53.3614,46.1252
53.3375,46.1300
53.2125,46.1300
53.1886,46.1252
53.1683,46.1117
53.1548,46.0914
53.1500,46.0675
Z" /> 
<path style="fill:#000000; fill-opacity:1.0000; stroke:none;fill-rule:evenodd;"
d="M 53.6500,45.2425
53.6548,45.2186
53.6683,45.1983
53.6886,45.1848
53.7125,45.1800
53.8375,45.1800
53.8614,45.1848
53.8817,45.1983
53.8952,45.2186
53.9000,45.2425
53.9000,46.0675
53.8952,46.0914
53.8817,46.1117
53.8614,46.1252
53.8375,46.1300
53.7125,46.1300
53.6886,46.1252
53.6683,46.1117
53.6548,46.0914
53.6500,46.0675
Z" /> 
<path style="fill:#000000; fill-opacity:1.0000; stroke:none;fill-rule:evenodd;"
d="M 54.1500,45.2425
54.1548,45.2186
54.1683,45.1983
54.1886,45.1848
54.2125,45.1800
54.3375,45.1800
54.3614,45.1848
54.3817,45.1983
54.3952,45.2186
54.4000,45.2425
54.4000,46.0675
54.3952,46.0914
54.3817,46.1117
54.3614,46.1252
54.3375,46.1300
54.2125,46.1300
54.1886,46.1252
54.1683,46.1117
54.1548,46.0914
54.1500,46.0675
Z" /> 
<path style="fill:#000000; fill-opacity:1.0000; stroke:none;fill-rule:evenodd;"
d="M 54.6500,45.2425
54.6548,45.2186
54.6683,45.1983
54.6886,45.1848
54.7125,45.1800
54.8375,45.1800
54.8614,45.1848
54.8817,45.1983
54.8952,45.2186
54.9000,45.2425
54.9000,46.0675
54.8952,46.0914
54.8817,46.1117
54.8614,46.1252
54.8375,46.1300
54.7125,46.1300
54.6886,46.1252
54.6683,46.1117
54.6548,46.0914
54.6500,46.0675
Z" /> 
<path style="fill:#000000; fill-opacity:1.0000; stroke:none;fill-rule:evenodd;"
d="M 55.1500,45.2425
55.1548,45.2186
55.1683,45.1983
55.1886,45.1848
55.2125,45.1800
55.3375,45.1800
55.3614,45.1848
55.3817,45.1983
55.3952,45.2186
55.4000,45.2425
55.4000,46.0675
55.3952,46.0914
55.3817,46.1117
55.3614,46.1252
55.3375,46.1300
55.2125,46.1300
55.1886,46.1252
55.1683,46.1117
55.1548,46.0914
55.1500,46.0675
Z" /> 
<path style="fill:#000000; fill-opacity:1.0000; stroke:none;fill-rule:evenodd;"
d="M 55.6500,45.2425
55.6548,45.2186
55.6683,45.1983
55.6886,45.1848
55.7125,45.1800
55.8375,45.1800
55.8614,45.1848
55.8817,45.1983
55.8952,45.2186
55.9000,45.2425
55.9000,46.0675
55.8952,46.0914
55.8817,46.1117
55.8614,46.1252
55.8375,46.1300
55.7125,46.1300
55.6886,46.1252
55.6683,46.1117
55.6548,46.0914
55.6500,46.0675
Z" /> 
<path style="fill:#000000; fill-opacity:1.0000; stroke:none;fill-rule:evenodd;"
d="M 56.1500,45.2425
56.1548,45.2186
56.1683,45.1983
56.1886,45.1848
56.2125,45.1800
56.3375,45.1800
56.3614,45.1848
56.3817,45.1983
56.3952,45.2186
56.4000,45.2425
56.4000,46.0675
56.3952,46.0914
56.3817,46.1117
56.3614,46.1252
56.3375,46.1300
56.2125,46.1300
56.1886,46.1252
56.1683,46.1117
56.1548,46.0914
56.1500,46.0675
Z" /> 
<path style="fill:#000000; fill-opacity:1.0000; stroke:none;fill-rule:evenodd;"
d="M 56.6500,45.2425
56.6548,45.2186
56.6683,45.1983
56.6886,45.1848
56.7125,45.1800
56.8375,45.1800
56.8614,45.1848
56.8817,45.1983
56.8952,45.2186
56.9000,45.2425
56.9000,46.0675
56.8952,46.0914
56.8817,46.1117
56.8614,46.1252
56.8375,46.1300
56.7125,46.1300
56.6886,46.1252
56.6683,46.1117
56.6548,46.0914
56.6500,46.0675
Z" /> 
<path style="fill:#000000; fill-opacity:1.0000; stroke:none;fill-rule:evenodd;"
d="M 57.1500,45.2425
57.1548,45.2186
57.1683,45.1983
57.1886,45.1848
57.2125,45.1800
57.3375,45.1800
57.3614,45.1848
57.3817,45.1983
57.3952,45.2186
57.4000,45.2425
57.4000,46.0675
57.3952,46.0914
57.3817,46.1117
57.3614,46.1252
57.3375,46.1300
57.2125,46.1300
57.1886,46.1252
57.1683,46.1117
57.1548,46.0914
57.1500,46.0675
Z" /> 
<path style="fill:#000000; fill-opacity:1.0000; stroke:none;fill-rule:evenodd;"
d="M 57.6500,45.2425
57.6548,45.2186
57.6683,45.1983
57.6886,45.1848
57.7125,45.1800
57.8375,45.1800
57.8614,45.1848
57.8817,45.1983
57.8952,45.2186
57.9000,45.2425
57.9000,46.0675
57.8952,46.0914
57.8817,46.1117
57.8614,46.1252
57.8375,46.1300
57.7125,46.1300
57.6886,46.1252
57.6683,46.1117
57.6548,46.0914
57.6500,46.0675
Z" /> 
<path style="fill:#000000; fill-opacity:1.0000; stroke:none;fill-rule:evenodd;"
d="M 58.4250,44.4675
58.4298,44.4436
58.4433,44.4233
58.4636,44.4098
58.4875,44.4050
59.3125,44.4050
59.3364,44.4098
59.3567,44.4233
59.3702,44.4436
59.3750,44.4675
59.3750,44.5925
59.3702,44.6164
59.3567,44.6367
59.3364,44.6502
59.3125,44.6550
58.4875,44.6550
58.4636,44.6502
58.4433,44.6367
58.4298,44.6164
58.4250,44.5925
Z" /> 
<path style="fill:#000000; fill-opacity:1.0000; stroke:none;fill-rule:evenodd;"
d="M 58.4250,43.9675
58.4298,43.9436
58.4433,43.9233
58.4636,43.9098
58.4875,43.9050
59.3125,43.9050
59.3364,43.9098
59.3567,43.9233
59.3702,43.9436
59.3750,43.9675
59.3750,44.0925
59.3702,44.1164
59.3567,44.1367
59.3364,44.1502
59.3125,44.1550
58.4875,44.1550
58.4636,44.1502
58.4433,44.1367
58.4298,44.1164
58.4250,44.0925
Z" /> 
<path style="fill:#000000; fill-opacity:1.0000; stroke:none;fill-rule:evenodd;"
d="M 58.4250,43.4675
58.4298,43.4436
58.4433,43.4233
58.4636,43.4098
58.4875,43.4050
59.3125,43.4050
59.3364,43.4098
59.3567,43.4233
59.3702,43.4436
59.3750,43.4675
59.3750,43.5925
59.3702,43.6164
59.3567,43.6367
59.3364,43.6502
59.3125,43.6550
58.4875,43.6550
58.4636,43.6502
58.4433,43.6367
58.4298,43.6164
58.4250,43.5925
Z" /> 
<path style="fill:#000000; fill-opacity:1.0000; stroke:none;fill-rule:evenodd;"
d="M 58.4250,42.9675
58.4298,42.9436
58.4433,42.9233
58.4636,42.9098
58.4875,42.9050
59.3125,42.9050
59.3364,42.9098
59.3567,42.9233
59.3702,42.9436
59.3750,42.9675
59.3750,43.0925
59.3702,43.1164
59.3567,43.1367
59.3364,43.1502
59.3125,43.1550
58.4875,43.1550
58.4636,43.1502
58.4433,43.1367
58.4298,43.1164
58.4250,43.0925
Z" /> 
<path style="fill:#000000; fill-opacity:1.0000; stroke:none;fill-rule:evenodd;"
d="M 58.4250,42.4675
58.4298,42.4436
58.4433,42.4233
58.4636,42.4098
58.4875,42.4050
59.3125,42.4050
59.3364,42.4098
59.3567,42.4233
59.3702,42.4436
59.3750,42.4675
59.3750,42.5925
59.3702,42.6164
59.3567,42.6367
59.3364,42.6502
59.3125,42.6550
58.4875,42.6550
58.4636,42.6502
58.4433,42.6367
58.4298,42.6164
58.4250,42.5925
Z" /> 
<path style="fill:#000000; fill-opacity:1.0000; stroke:none;fill-rule:evenodd;"
d="M 58.4250,41.9675
58.4298,41.9436
58.4433,41.9233
58.4636,41.9098
58.4875,41.9050
59.3125,41.9050
59.3364,41.9098
59.3567,41.9233
59.3702,41.9436
59.3750,41.9675
59.3750,42.0925
59.3702,42.1164
59.3567,42.1367
59.3364,42.1502
59.3125,42.1550
58.4875,42.1550
58.4636,42.1502
58.4433,42.1367
58.4298,42.1164
58.4250,42.0925
Z" /> 
<path style="fill:#000000; fill-opacity:1.0000; stroke:none;fill-rule:evenodd;"
d="M 58.4250,41.4675
58.4298,41.4436
58.4433,41.4233
58.4636,41.4098
58.4875,41.4050
59.3125,41.4050
59.3364,41.4098
59.3567,41.4233
59.3702,41.4436
59.3750,41.4675
59.3750,41.5925
59.3702,41.6164
59.3567,41.6367
59.3364,41.6502
59.3125,41.6550
58.4875,41.6550
58.4636,41.6502
58.4433,41.6367
58.4298,41.6164
58.4250,41.5925
Z" /> 
<path style="fill:#000000; fill-opacity:1.0000; stroke:none;fill-rule:evenodd;"
d="M 58.4250,40.9675
58.4298,40.9436
58.4433,40.9233
58.4636,40.9098
58.4875,40.9050
59.3125,40.9050
59.3364,40.9098
59.3567,40.9233
59.3702,40.9436
59.3750,40.9675
59.3750,41.0925
59.3702,41.1164
59.3567,41.1367
59.3364,41.1502
59.3125,41.1550
58.4875,41.1550
58.4636,41.1502
58.4433,41.1367
58.4298,41.1164
58.4250,41.0925
Z" /> 
<path style="fill:#000000; fill-opacity:1.0000; stroke:none;fill-rule:evenodd;"
d="M 58.4250,40.4675
58.4298,40.4436
58.4433,40.4233
58.4636,40.4098
58.4875,40.4050
59.3125,40.4050
59.3364,40.4098
59.3567,40.4233
59.3702,40.4436
59.3750,40.4675
59.3750,40.5925
59.3702,40.6164
59.3567,40.6367
59.3364,40.6502
59.3125,40.6550
58.4875,40.6550
58.4636,40.6502
58.4433,40.6367
58.4298,40.6164
58.4250,40.5925
Z" /> 
<path style="fill:#000000; fill-opacity:1.0000; stroke:none;fill-rule:evenodd;"
d="M 58.4250,39.9675
58.4298,39.9436
58.4433,39.9233
58.4636,39.9098
58.4875,39.9050
59.3125,39.9050
59.3364,39.9098
59.3567,39.9233
59.3702,39.9436
59.3750,39.9675
59.3750,40.0925
59.3702,40.1164
59.3567,40.1367
59.3364,40.1502
59.3125,40.1550
58.4875,40.1550
58.4636,40.1502
58.4433,40.1367
58.4298,40.1164
58.4250,40.0925
Z" /> 
<path style="fill:#000000; fill-opacity:1.0000; stroke:none;fill-rule:evenodd;"
d="M 58.4250,39.4675
58.4298,39.4436
58.4433,39.4233
58.4636,39.4098
58.4875,39.4050
59.3125,39.4050
59.3364,39.4098
59.3567,39.4233
59.3702,39.4436
59.3750,39.4675
59.3750,39.5925
59.3702,39.6164
59.3567,39.6367
59.3364,39.6502
59.3125,39.6550
58.4875,39.6550
58.4636,39.6502
58.4433,39.6367
58.4298,39.6164
58.4250,39.5925
Z" /> 
<path style="fill:#000000; fill-opacity:1.0000; stroke:none;fill-rule:evenodd;"
d="M 58.4250,38.9675
58.4298,38.9436
58.4433,38.9233
58.4636,38.9098
58.4875,38.9050
59.3125,38.9050
59.3364,38.9098
59.3567,38.9233
59.3702,38.9436
59.3750,38.9675
59.3750,39.0925
59.3702,39.1164
59.3567,39.1367
59.3364,39.1502
59.3125,39.1550
58.4875,39.1550
58.4636,39.1502
58.4433,39.1367
58.4298,39.1164
58.4250,39.0925
Z" /> 
<path style="fill:#000000; fill-opacity:1.0000; stroke:none;fill-rule:evenodd;"
d="M 57.6500,37.4925
57.6548,37.4686
57.6683,37.4483
57.6886,37.4348
57.7125,37.4300
57.8375,37.4300
57.8614,37.4348
57.8817,37.4483
57.8952,37.4686
57.9000,37.4925
57.9000,38.3175
57.8952,38.3414
57.8817,38.3617
57.8614,38.3752
57.8375,38.3800
57.7125,38.3800
57.6886,38.3752
57.6683,38.3617
57.6548,38.3414
57.6500,38.3175
Z" /> 
<path style="fill:#000000; fill-opacity:1.0000; stroke:none;fill-rule:evenodd;"
d="M 57.1500,37.4925
57.1548,37.4686
57.1683,37.4483
57.1886,37.4348
57.2125,37.4300
57.3375,37.4300
57.3614,37.4348
57.3817,37.4483
57.3952,37.4686
57.4000,37.4925
57.4000,38.3175
57.3952,38.3414
57.3817,38.3617
57.3614,38.3752
57.3375,38.3800
57.2125,38.3800
57.1886,38.3752
57.1683,38.3617
57.1548,38.3414
57.1500,38.3175
Z" /> 
<path style="fill:#000000; fill-opacity:1.0000; stroke:none;fill-rule:evenodd;"
d="M 56.6500,37.4925
56.6548,37.4686
56.6683,37.4483
56.6886,37.4348
56.7125,37.4300
56.8375,37.4300
56.8614,37.4348
56.8817,37.4483
56.8952,37.4686
56.9000,37.4925
56.9000,38.3175
56.8952,38.3414
56.8817,38.3617
56.8614,38.3752
56.8375,38.3800
56.7125,38.3800
56.6886,38.3752
56.6683,38.3617
56.6548,38.3414
56.6500,38.3175
Z" /> 
<path style="fill:#000000; fill-opacity:1.0000; stroke:none;fill-rule:evenodd;"
d="M 56.1500,37.4925
56.1548,37.4686
56.1683,37.4483
56.1886,37.4348
56.2125,37.4300
56.3375,37.4300
56.3614,37.4348
56.3817,37.4483
56.3952,37.4686
56.4000,37.4925
56.4000,38.3175
56.3952,38.3414
56.3817,38.3617
56.3614,38.3752
56.3375,38.3800
56.2125,38.3800
56.1886,38.3752
56.1683,38.3617
56.1548,38.3414
56.1500,38.3175
Z" /> 
<path style="fill:#000000; fill-opacity:1.0000; stroke:none;fill-rule:evenodd;"
d="M 55.6500,37.4925
55.6548,37.4686
55.6683,37.4483
55.6886,37.4348
55.7125,37.4300
55.8375,37.4300
55.8614,37.4348
55.8817,37.4483
55.8952,37.4686
55.9000,37.4925
55.9000,38.3175
55.8952,38.3414
55.8817,38.3617
55.8614,38.3752
55.8375,38.3800
55.7125,38.3800
55.6886,38.3752
55.6683,38.3617
55.6548,38.3414
55.6500,38.3175
Z" /> 
<path style="fill:#000000; fill-opacity:1.0000; stroke:none;fill-rule:evenodd;"
d="M 55.1500,37.4925
55.1548,37.4686
55.1683,37.4483
55.1886,37.4348
55.2125,37.4300
55.3375,37.4300
55.3614,37.4348
55.3817,37.4483
55.3952,37.4686
55.4000,37.4925
55.4000,38.3175
55.3952,38.3414
55.3817,38.3617
55.3614,38.3752
55.3375,38.3800
55.2125,38.3800
55.1886,38.3752
55.1683,38.3617
55.1548,38.3414
55.1500,38.3175
Z" /> 
<path style="fill:#000000; fill-opacity:1.0000; stroke:none;fill-rule:evenodd;"
d="M 54.6500,37.4925
54.6548,37.4686
54.6683,37.4483
54.6886,37.4348
54.7125,37.4300
54.8375,37.4300
54.8614,37.4348
54.8817,37.4483
54.8952,37.4686
54.9000,37.4925
54.9000,38.3175
54.8952,38.3414
54.8817,38.3617
54.8614,38.3752
54.8375,38.3800
54.7125,38.3800
54.6886,38.3752
54.6683,38.3617
54.6548,38.3414
54.6500,38.3175
Z" /> 
<path style="fill:#000000; fill-opacity:1.0000; stroke:none;fill-rule:evenodd;"
d="M 54.1500,37.4925
54.1548,37.4686
54.1683,37.4483
54.1886,37.4348
54.2125,37.4300
54.3375,37.4300
54.3614,37.4348
54.3817,37.4483
54.3952,37.4686
54.4000,37.4925
54.4000,38.3175
54.3952,38.3414
54.3817,38.3617
54.3614,38.3752
54.3375,38.3800
54.2125,38.3800
54.1886,38.3752
54.1683,38.3617
54.1548,38.3414
54.1500,38.3175
Z" /> 
<path style="fill:#000000; fill-opacity:1.0000; stroke:none;fill-rule:evenodd;"
d="M 53.6500,37.4925
53.6548,37.4686
53.6683,37.4483
53.6886,37.4348
53.7125,37.4300
53.8375,37.4300
53.8614,37.4348
53.8817,37.4483
53.8952,37.4686
53.9000,37.4925
53.9000,38.3175
53.8952,38.3414
53.8817,38.3617
53.8614,38.3752
53.8375,38.3800
53.7125,38.3800
53.6886,38.3752
53.6683,38.3617
53.6548,38.3414
53.6500,38.3175
Z" /> 
<path style="fill:#000000; fill-opacity:1.0000; stroke:none;fill-rule:evenodd;"
d="M 53.1500,37.4925
53.1548,37.4686
53.1683,37.4483
53.1886,37.4348
53.2125,37.4300
53.3375,37.4300
53.3614,37.4348
53.3817,37.4483
53.3952,37.4686
53.4000,37.4925
53.4000,38.3175
53.3952,38.3414
53.3817,38.3617
53.3614,38.3752
53.3375,38.3800
53.2125,38.3800
53.1886,38.3752
53.1683,38.3617
53.1548,38.3414
53.1500,38.3175
Z" /> 
<path style="fill:#000000; fill-opacity:1.0000; stroke:none;fill-rule:evenodd;"
d="M 52.6500,37.4925
52.6548,37.4686
52.6683,37.4483
52.6886,37.4348
52.7125,37.4300
52.8375,37.4300
52.8614,37.4348
52.8817,37.4483
52.8952,37.4686
52.9000,37.4925
52.9000,38.3175
52.8952,38.3414
52.8817,38.3617
52.8614,38.3752
52.8375,38.3800
52.7125,38.3800
52.6886,38.3752
52.6683,38.3617
52.6548,38.3414
52.6500,38.3175
Z" /> 
<path style="fill:#000000; fill-opacity:1.0000; stroke:none;fill-rule:evenodd;"
d="M 52.1500,37.4925
52.1548,37.4686
52.1683,37.4483
52.1886,37.4348
52.2125,37.4300
52.3375,37.4300
52.3614,37.4348
52.3817,37.4483
52.3952,37.4686
52.4000,37.4925
52.4000,38.3175
52.3952,38.3414
52.3817,38.3617
52.3614,38.3752
52.3375,38.3800
52.2125,38.3800
52.1886,38.3752
52.1683,38.3617
52.1548,38.3414
52.1500,38.3175
Z" /> 
<path style="fill:#000000; fill-opacity:1.0000; stroke:none;fill-rule:evenodd;"
d="M 12.4550,49.8100
12.5507,49.8290
12.6318,49.8832
12.6860,49.9643
12.7050,50.0600
12.7050,50.5850
12.6860,50.6807
12.6318,50.7618
12.5507,50.8160
12.4550,50.8350
11.5550,50.8350
11.4593,50.8160
11.3782,50.7618
11.3240,50.6807
11.3050,50.5850
11.3050,50.0600
11.3240,49.9643
11.3782,49.8832
11.4593,49.8290
11.5550,49.8100
Z" /> 
<path style="fill:#000000; fill-opacity:1.0000; stroke:none;fill-rule:evenodd;"
d="M 12.4550,51.6350
12.5507,51.6540
12.6318,51.7082
12.6860,51.7893
12.7050,51.8850
12.7050,52.4100
12.6860,52.5057
12.6318,52.5868
12.5507,52.6410
12.4550,52.6600
11.5550,52.6600
11.4593,52.6410
11.3782,52.5868
11.3240,52.5057
11.3050,52.4100
11.3050,51.8850
11.3240,51.7893
11.3782,51.7082
11.4593,51.6540
11.5550,51.6350
Z" /> 
<path style="fill:#000000; fill-opacity:1.0000; stroke:none;fill-rule:evenodd;"
d="M 29.2250,20.3300
29.2440,20.2343
29.2982,20.1532
29.3793,20.0990
29.4750,20.0800
30.1500,20.0800
30.2457,20.0990
30.3268,20.1532
30.3810,20.2343
30.4000,20.3300
30.4000,21.2800
30.3810,21.3757
30.3268,21.4568
30.2457,21.5110
30.1500,21.5300
29.4750,21.5300
29.3793,21.5110
29.2982,21.4568
29.2440,21.3757
29.2250,21.2800
Z" /> 
<path style="fill:#000000; fill-opacity:1.0000; stroke:none;fill-rule:evenodd;"
d="M 31.3000,20.3300
31.3190,20.2343
31.3732,20.1532
31.4543,20.0990
31.5500,20.0800
32.2250,20.0800
32.3207,20.0990
32.4018,20.1532
32.4560,20.2343
32.4750,20.3300
32.4750,21.2800
32.4560,21.3757
32.4018,21.4568
32.3207,21.5110
32.2250,21.5300
31.5500,21.5300
31.4543,21.5110
31.3732,21.4568
31.3190,21.3757
31.3000,21.2800
Z" /> 
<path style="fill:#000000; fill-opacity:1.0000; stroke:none;fill-rule:evenodd;"
d="M 14.1250,65.4550
14.0293,65.4360
13.9482,65.3818
13.8940,65.3007
13.8750,65.2050
13.8750,64.5050
13.8940,64.4093
13.9482,64.3282
14.0293,64.2740
14.1250,64.2550
15.0250,64.2550
15.1207,64.2740
15.2018,64.3282
15.2560,64.4093
15.2750,64.5050
15.2750,65.2050
15.2560,65.3007
15.2018,65.3818
15.1207,65.4360
15.0250,65.4550
Z" /> 
<path style="fill:#000000; fill-opacity:1.0000; stroke:none;fill-rule:evenodd;"
d="M 14.1250,63.4550
14.0293,63.4360
13.9482,63.3818
13.8940,63.3007
13.8750,63.2050
13.8750,62.5050
13.8940,62.4093
13.9482,62.3282
14.0293,62.2740
14.1250,62.2550
15.0250,62.2550
15.1207,62.2740
15.2018,62.3282
15.2560,62.4093
15.2750,62.5050
15.2750,63.2050
15.2560,63.3007
15.2018,63.3818
15.1207,63.4360
15.0250,63.4550
Z" /> 
<path style="fill:#000000; fill-opacity:1.0000; stroke:none;fill-rule:evenodd;"
d="M 74.9179,40.1144
74.9179,39.5556
76.3149,39.5556
76.3149,40.1144
Z" /> 
<path style="fill:#000000; fill-opacity:1.0000; stroke:none;fill-rule:evenodd;"
d="M 74.9179,41.3844
74.9179,40.8256
76.3149,40.8256
76.3149,41.3844
Z" /> 
<path style="fill:#000000; fill-opacity:1.0000; stroke:none;fill-rule:evenodd;"
d="M 74.9179,42.6544
74.9179,42.0956
76.3149,42.0956
76.3149,42.6544
Z" /> 
<path style="fill:#000000; fill-opacity:1.0000; stroke:none;fill-rule:evenodd;"
d="M 74.9179,43.9244
74.9179,43.3656
76.3149,43.3656
76.3149,43.9244
Z" /> 
<path style="fill:#000000; fill-opacity:1.0000; stroke:none;fill-rule:evenodd;"
d="M 74.9179,45.1944
74.9179,44.6356
76.3149,44.6356
76.3149,45.1944
Z" /> 
<path style="fill:#000000; fill-opacity:1.0000; stroke:none;fill-rule:evenodd;"
d="M 74.9179,46.4644
74.9179,45.9056
76.3149,45.9056
76.3149,46.4644
Z" /> 
<path style="fill:#000000; fill-opacity:1.0000; stroke:none;fill-rule:evenodd;"
d="M 74.9179,47.7344
74.9179,47.1756
76.3149,47.1756
76.3149,47.7344
Z" /> 
<path style="fill:#000000; fill-opacity:1.0000; stroke:none;fill-rule:evenodd;"
d="M 80.2265,47.7344
80.2265,47.1756
81.6235,47.1756
81.6235,47.7344
Z" /> 
<path style="fill:#000000; fill-opacity:1.0000; stroke:none;fill-rule:evenodd;"
d="M 80.2265,46.4644
80.2265,45.9056
81.6235,45.9056
81.6235,46.4644
Z" /> 
<path style="fill:#000000; fill-opacity:1.0000; stroke:none;fill-rule:evenodd;"
d="M 80.2265,45.1944
80.2265,44.6356
81.6235,44.6356
81.6235,45.1944
Z" /> 
<path style="fill:#000000; fill-opacity:1.0000; stroke:none;fill-rule:evenodd;"
d="M 80.2265,43.9244
80.2265,43.3656
81.6235,43.3656
81.6235,43.9244
Z" /> 
<path style="fill:#000000; fill-opacity:1.0000; stroke:none;fill-rule:evenodd;"
d="M 80.2265,42.6544
80.2265,42.0956
81.6235,42.0956
81.6235,42.6544
Z" /> 
<path style="fill:#000000; fill-opacity:1.0000; stroke:none;fill-rule:evenodd;"
d="M 80.2265,41.3844
80.2265,40.8256
81.6235,40.8256
81.6235,41.3844
Z" /> 
<path style="fill:#000000; fill-opacity:1.0000; stroke:none;fill-rule:evenodd;"
d="M 80.2265,40.1144
80.2265,39.5556
81.6235,39.5556
81.6235,40.1144
Z" /> 
<path style="fill:#000000; fill-opacity:1.0000; stroke:none;fill-rule:evenodd;"
d="M 24.7000,47.6550
24.7190,47.5593
24.7732,47.4782
24.8543,47.4240
24.9500,47.4050
25.4750,47.4050
25.5707,47.4240
25.6518,47.4782
25.7060,47.5593
25.7250,47.6550
25.7250,48.5550
25.7060,48.6507
25.6518,48.7318
25.5707,48.7860
25.4750,48.8050
24.9500,48.8050
24.8543,48.7860
24.7732,48.7318
24.7190,48.6507
24.7000,48.5550
Z" /> 
<path style="fill:#000000; fill-opacity:1.0000; stroke:none;fill-rule:evenodd;"
d="M 26.5250,47.6550
26.5440,47.5593
26.5982,47.4782
26.6793,47.4240
26.7750,47.4050
27.3000,47.4050
27.3957,47.4240
27.4768,47.4782
27.5310,47.5593
27.5500,47.6550
27.5500,48.5550
27.5310,48.6507
27.4768,48.7318
27.3957,48.7860
27.3000,48.8050
26.7750,48.8050
26.6793,48.7860
26.5982,48.7318
26.5440,48.6507
26.5250,48.5550
Z" /> 
<path style="fill:#000000; fill-opacity:1.0000; stroke:none;fill-rule:evenodd;"
d="M 16.7000,49.7050
16.7190,49.6093
16.7732,49.5282
16.8543,49.4740
16.9500,49.4550
17.4750,49.4550
17.5707,49.4740
17.6518,49.5282
17.7060,49.6093
17.7250,49.7050
17.7250,50.6050
17.7060,50.7007
17.6518,50.7818
17.5707,50.8360
17.4750,50.8550
16.9500,50.8550
16.8543,50.8360
16.7732,50.7818
16.7190,50.7007
16.7000,50.6050
Z" /> 
<path style="fill:#000000; fill-opacity:1.0000; stroke:none;fill-rule:evenodd;"
d="M 18.5250,49.7050
18.5440,49.6093
18.5982,49.5282
18.6793,49.4740
18.7750,49.4550
19.3000,49.4550
19.3957,49.4740
19.4768,49.5282
19.5310,49.6093
19.5500,49.7050
19.5500,50.6050
19.5310,50.7007
19.4768,50.7818
19.3957,50.8360
19.3000,50.8550
18.7750,50.8550
18.6793,50.8360
18.5982,50.7818
18.5440,50.7007
18.5250,50.6050
Z" /> 
<path style="fill:#000000; fill-opacity:1.0000; stroke:none;fill-rule:evenodd;"
d="M 63.5500,59.6050
63.5310,59.7007
63.4768,59.7818
63.3957,59.8360
63.3000,59.8550
62.7750,59.8550
62.6793,59.8360
62.5982,59.7818
62.5440,59.7007
62.5250,59.6050
62.5250,58.7050
62.5440,58.6093
62.5982,58.5282
62.6793,58.4740
62.7750,58.4550
63.3000,58.4550
63.3957,58.4740
63.4768,58.5282
63.5310,58.6093
63.5500,58.7050
Z" /> 
<path style="fill:#000000; fill-opacity:1.0000; stroke:none;fill-rule:evenodd;"
d="M 61.7250,59.6050
61.7060,59.7007
61.6518,59.7818
61.5707,59.8360
61.4750,59.8550
60.9500,59.8550
60.8543,59.8360
60.7732,59.7818
60.7190,59.7007
60.7000,59.6050
60.7000,58.7050
60.7190,58.6093
60.7732,58.5282
60.8543,58.4740
60.9500,58.4550
61.4750,58.4550
61.5707,58.4740
61.6518,58.5282
61.7060,58.6093
61.7250,58.7050
Z" /> 
<path style="fill:#000000; fill-opacity:1.0000; stroke:none;fill-rule:evenodd;"
d="M 69.3000,36.1800
69.3190,36.0843
69.3732,36.0032
69.4543,35.9490
69.5500,35.9300
70.2250,35.9300
70.3207,35.9490
70.4018,36.0032
70.4560,36.0843
70.4750,36.1800
70.4750,37.1300
70.4560,37.2257
70.4018,37.3068
70.3207,37.3610
70.2250,37.3800
69.5500,37.3800
69.4543,37.3610
69.3732,37.3068
69.3190,37.2257
69.3000,37.1300
Z" /> 
<path style="fill:#000000; fill-opacity:1.0000; stroke:none;fill-rule:evenodd;"
d="M 71.3750,36.1800
71.3940,36.0843
71.4482,36.0032
71.5293,35.9490
71.6250,35.9300
72.3000,35.9300
72.3957,35.9490
72.4768,36.0032
72.5310,36.0843
72.5500,36.1800
72.5500,37.1300
72.5310,37.2257
72.4768,37.3068
72.3957,37.3610
72.3000,37.3800
71.6250,37.3800
71.5293,37.3610
71.4482,37.3068
71.3940,37.2257
71.3750,37.1300
Z" /> 
<path style="fill:#000000; fill-opacity:1.0000; stroke:none;fill-rule:evenodd;"
d="M 92.5000,44.4800
92.5190,44.3843
92.5732,44.3032
92.6543,44.2490
92.7500,44.2300
93.4250,44.2300
93.5207,44.2490
93.6018,44.3032
93.6560,44.3843
93.6750,44.4800
93.6750,45.4300
93.6560,45.5257
93.6018,45.6068
93.5207,45.6610
93.4250,45.6800
92.7500,45.6800
92.6543,45.6610
92.5732,45.6068
92.5190,45.5257
92.5000,45.4300
Z" /> 
<path style="fill:#000000; fill-opacity:1.0000; stroke:none;fill-rule:evenodd;"
d="M 94.5750,44.4800
94.5940,44.3843
94.6482,44.3032
94.7293,44.2490
94.8250,44.2300
95.5000,44.2300
95.5957,44.2490
95.6768,44.3032
95.7310,44.3843
95.7500,44.4800
95.7500,45.4300
95.7310,45.5257
95.6768,45.6068
95.5957,45.6610
95.5000,45.6800
94.8250,45.6800
94.7293,45.6610
94.6482,45.6068
94.5940,45.5257
94.5750,45.4300
Z" /> 
<path style="fill:#000000; fill-opacity:1.0000; stroke:none;fill-rule:evenodd;"
d="M 47.1500,43.9300
47.2457,43.9490
47.3268,44.0032
47.3810,44.0843
47.4000,44.1800
47.4000,44.8550
47.3810,44.9507
47.3268,45.0318
47.2457,45.0860
47.1500,45.1050
46.2000,45.1050
46.1043,45.0860
46.0232,45.0318
45.9690,44.9507
45.9500,44.8550
45.9500,44.1800
45.9690,44.0843
46.0232,44.0032
46.1043,43.9490
46.2000,43.9300
Z" /> 
<path style="fill:#000000; fill-opacity:1.0000; stroke:none;fill-rule:evenodd;"
d="M 47.1500,46.0050
47.2457,46.0240
47.3268,46.0782
47.3810,46.1593
47.4000,46.2550
47.4000,46.9300
47.3810,47.0257
47.3268,47.1068
47.2457,47.1610
47.1500,47.1800
46.2000,47.1800
46.1043,47.1610
46.0232,47.1068
45.9690,47.0257
45.9500,46.9300
45.9500,46.2550
45.9690,46.1593
46.0232,46.0782
46.1043,46.0240
46.2000,46.0050
Z" /> 
<path style="fill:#000000; fill-opacity:1.0000; stroke:none;fill-rule:evenodd;"
d="M 63.5500,62.6050
63.5310,62.7007
63.4768,62.7818
63.3957,62.8360
63.3000,62.8550
62.7750,62.8550
62.6793,62.8360
62.5982,62.7818
62.5440,62.7007
62.5250,62.6050
62.5250,61.7050
62.5440,61.6093
62.5982,61.5282
62.6793,61.4740
62.7750,61.4550
63.3000,61.4550
63.3957,61.4740
63.4768,61.5282
63.5310,61.6093
63.5500,61.7050
Z" /> 
<path style="fill:#000000; fill-opacity:1.0000; stroke:none;fill-rule:evenodd;"
d="M 61.7250,62.6050
61.7060,62.7007
61.6518,62.7818
61.5707,62.8360
61.4750,62.8550
60.9500,62.8550
60.8543,62.8360
60.7732,62.7818
60.7190,62.7007
60.7000,62.6050
60.7000,61.7050
60.7190,61.6093
60.7732,61.5282
60.8543,61.4740
60.9500,61.4550
61.4750,61.4550
61.5707,61.4740
61.6518,61.5282
61.7060,61.6093
61.7250,61.7050
Z" /> 
<path style="fill:#000000; fill-opacity:1.0000; stroke:none;fill-rule:evenodd;"
d="M 82.2000,67.5300
82.2190,67.4343
82.2732,67.3532
82.3543,67.2990
82.4500,67.2800
83.1250,67.2800
83.2207,67.2990
83.3018,67.3532
83.3560,67.4343
83.3750,67.5300
83.3750,68.4800
83.3560,68.5757
83.3018,68.6568
83.2207,68.7110
83.1250,68.7300
82.4500,68.7300
82.3543,68.7110
82.2732,68.6568
82.2190,68.5757
82.2000,68.4800
Z" /> 
<path style="fill:#000000; fill-opacity:1.0000; stroke:none;fill-rule:evenodd;"
d="M 84.2750,67.5300
84.2940,67.4343
84.3482,67.3532
84.4293,67.2990
84.5250,67.2800
85.2000,67.2800
85.2957,67.2990
85.3768,67.3532
85.4310,67.4343
85.4500,67.5300
85.4500,68.4800
85.4310,68.5757
85.3768,68.6568
85.2957,68.7110
85.2000,68.7300
84.5250,68.7300
84.4293,68.7110
84.3482,68.6568
84.2940,68.5757
84.2750,68.4800
Z" /> 
<path style="fill:#000000; fill-opacity:1.0000; stroke:none;fill-rule:evenodd;"
d="M 95.3750,85.0800
95.3560,85.1757
95.3018,85.2568
95.2207,85.3110
95.1250,85.3300
94.2250,85.3300
94.1293,85.3110
94.0482,85.2568
93.9940,85.1757
93.9750,85.0800
93.9750,82.2300
93.9940,82.1343
94.0482,82.0532
94.1293,81.9990
94.2250,81.9800
95.1250,81.9800
95.2207,81.9990
95.3018,82.0532
95.3560,82.1343
95.3750,82.2300
Z" /> 
<path style="fill:#000000; fill-opacity:1.0000; stroke:none;fill-rule:evenodd;"
d="M 89.2750,85.0800
89.2560,85.1757
89.2018,85.2568
89.1207,85.3110
89.0250,85.3300
88.1250,85.3300
88.0293,85.3110
87.9482,85.2568
87.8940,85.1757
87.8750,85.0800
87.8750,82.2300
87.8940,82.1343
87.9482,82.0532
88.0293,81.9990
88.1250,81.9800
89.0250,81.9800
89.1207,81.9990
89.2018,82.0532
89.2560,82.1343
89.2750,82.2300
Z" /> 
<path style="fill:#000000; fill-opacity:1.0000; stroke:none;fill-rule:evenodd;"
d="M 13.8750,39.0550
13.8560,39.1507
13.8018,39.2318
13.7207,39.2860
13.6250,39.3050
12.9250,39.3050
12.8293,39.2860
12.7482,39.2318
12.6940,39.1507
12.6750,39.0550
12.6750,38.1550
12.6940,38.0593
12.7482,37.9782
12.8293,37.9240
12.9250,37.9050
13.6250,37.9050
13.7207,37.9240
13.8018,37.9782
13.8560,38.0593
13.8750,38.1550
Z" /> 
<path style="fill:#000000; fill-opacity:1.0000; stroke:none;fill-rule:evenodd;"
d="M 11.8750,39.0550
11.8560,39.1507
11.8018,39.2318
11.7207,39.2860
11.6250,39.3050
10.9250,39.3050
10.8293,39.2860
10.7482,39.2318
10.6940,39.1507
10.6750,39.0550
10.6750,38.1550
10.6940,38.0593
10.7482,37.9782
10.8293,37.9240
10.9250,37.9050
11.6250,37.9050
11.7207,37.9240
11.8018,37.9782
11.8560,38.0593
11.8750,38.1550
Z" /> 
<path style="fill:#000000; fill-opacity:1.0000; stroke:none;fill-rule:evenodd;"
d="M 52.5722,60.0913
52.5722,59.6087
53.7406,59.6087
53.7406,60.0913
Z" /> 
<path style="fill:#000000; fill-opacity:1.0000; stroke:none;fill-rule:evenodd;"
d="M 52.5722,61.3613
52.5722,60.8787
53.7406,60.8787
53.7406,61.3613
Z" /> 
<path style="fill:#000000; fill-opacity:1.0000; stroke:none;fill-rule:evenodd;"
d="M 52.5722,62.6313
52.5722,62.1487
53.7406,62.1487
53.7406,62.6313
Z" /> 
<path style="fill:#000000; fill-opacity:1.0000; stroke:none;fill-rule:evenodd;"
d="M 52.5722,63.9013
52.5722,63.4187
53.7406,63.4187
53.7406,63.9013
Z" /> 
<path style="fill:#000000; fill-opacity:1.0000; stroke:none;fill-rule:evenodd;"
d="M 58.1094,63.9013
58.1094,63.4187
59.2778,63.4187
59.2778,63.9013
Z" /> 
<path style="fill:#000000; fill-opacity:1.0000; stroke:none;fill-rule:evenodd;"
d="M 58.1094,62.6313
58.1094,62.1487
59.2778,62.1487
59.2778,62.6313
Z" /> 
<path style="fill:#000000; fill-opacity:1.0000; stroke:none;fill-rule:evenodd;"
d="M 58.1094,61.3613
58.1094,60.8787
59.2778,60.8787
59.2778,61.3613
Z" /> 
<path style="fill:#000000; fill-opacity:1.0000; stroke:none;fill-rule:evenodd;"
d="M 58.1094,60.0913
58.1094,59.6087
59.2778,59.6087
59.2778,60.0913
Z" /> 
<path style="fill:#000000; fill-opacity:1.0000; stroke:none;fill-rule:evenodd;"
d="M 21.1000,20.6850
21.1114,20.6276
21.1439,20.5789
21.1926,20.5464
21.2500,20.5350
22.9000,20.5350
22.9574,20.5464
23.0061,20.5789
23.0386,20.6276
23.0500,20.6850
23.0500,20.9850
23.0386,21.0424
23.0061,21.0911
22.9574,21.1236
22.9000,21.1350
21.2500,21.1350
21.1926,21.1236
21.1439,21.0911
21.1114,21.0424
21.1000,20.9850
Z" /> 
<path style="fill:#000000; fill-opacity:1.0000; stroke:none;fill-rule:evenodd;"
d="M 21.1000,21.9550
21.1114,21.8976
21.1439,21.8489
21.1926,21.8164
21.2500,21.8050
22.9000,21.8050
22.9574,21.8164
23.0061,21.8489
23.0386,21.8976
23.0500,21.9550
23.0500,22.2550
23.0386,22.3124
23.0061,22.3611
22.9574,22.3936
22.9000,22.4050
21.2500,22.4050
21.1926,22.3936
21.1439,22.3611
21.1114,22.3124
21.1000,22.2550
Z" /> 
<path style="fill:#000000; fill-opacity:1.0000; stroke:none;fill-rule:evenodd;"
d="M 21.1000,23.2250
21.1114,23.1676
21.1439,23.1189
21.1926,23.0864
21.2500,23.0750
22.9000,23.0750
22.9574,23.0864
23.0061,23.1189
23.0386,23.1676
23.0500,23.2250
23.0500,23.5250
23.0386,23.5824
23.0061,23.6311
22.9574,23.6636
22.9000,23.6750
21.2500,23.6750
21.1926,23.6636
21.1439,23.6311
21.1114,23.5824
21.1000,23.5250
Z" /> 
<path style="fill:#000000; fill-opacity:1.0000; stroke:none;fill-rule:evenodd;"
d="M 21.1000,24.4950
21.1114,24.4376
21.1439,24.3889
21.1926,24.3564
21.2500,24.3450
22.9000,24.3450
22.9574,24.3564
23.0061,24.3889
23.0386,24.4376
23.0500,24.4950
23.0500,24.7950
23.0386,24.8524
23.0061,24.9011
22.9574,24.9336
22.9000,24.9450
21.2500,24.9450
21.1926,24.9336
21.1439,24.9011
21.1114,24.8524
21.1000,24.7950
Z" /> 
<path style="fill:#000000; fill-opacity:1.0000; stroke:none;fill-rule:evenodd;"
d="M 21.1000,25.7650
21.1114,25.7076
21.1439,25.6589
21.1926,25.6264
21.2500,25.6150
22.9000,25.6150
22.9574,25.6264
23.0061,25.6589
23.0386,25.7076
23.0500,25.7650
23.0500,26.0650
23.0386,26.1224
23.0061,26.1711
22.9574,26.2036
22.9000,26.2150
21.2500,26.2150
21.1926,26.2036
21.1439,26.1711
21.1114,26.1224
21.1000,26.0650
Z" /> 
<path style="fill:#000000; fill-opacity:1.0000; stroke:none;fill-rule:evenodd;"
d="M 21.1000,27.0350
21.1114,26.9776
21.1439,26.9289
21.1926,26.8964
21.2500,26.8850
22.9000,26.8850
22.9574,26.8964
23.0061,26.9289
23.0386,26.9776
23.0500,27.0350
23.0500,27.3350
23.0386,27.3924
23.0061,27.4411
22.9574,27.4736
22.9000,27.4850
21.2500,27.4850
21.1926,27.4736
21.1439,27.4411
21.1114,27.3924
21.1000,27.3350
Z" /> 
<path style="fill:#000000; fill-opacity:1.0000; stroke:none;fill-rule:evenodd;"
d="M 21.1000,28.3050
21.1114,28.2476
21.1439,28.1989
21.1926,28.1664
21.2500,28.1550
22.9000,28.1550
22.9574,28.1664
23.0061,28.1989
23.0386,28.2476
23.0500,28.3050
23.0500,28.6050
23.0386,28.6624
23.0061,28.7111
22.9574,28.7436
22.9000,28.7550
21.2500,28.7550
21.1926,28.7436
21.1439,28.7111
21.1114,28.6624
21.1000,28.6050
Z" /> 
<path style="fill:#000000; fill-opacity:1.0000; stroke:none;fill-rule:evenodd;"
d="M 21.1000,29.5750
21.1114,29.5176
21.1439,29.4689
21.1926,29.4364
21.2500,29.4250
22.9000,29.4250
22.9574,29.4364
23.0061,29.4689
23.0386,29.5176
23.0500,29.5750
23.0500,29.8750
23.0386,29.9324
23.0061,29.9811
22.9574,30.0136
22.9000,30.0250
21.2500,30.0250
21.1926,30.0136
21.1439,29.9811
21.1114,29.9324
21.1000,29.8750
Z" /> 
<path style="fill:#000000; fill-opacity:1.0000; stroke:none;fill-rule:evenodd;"
d="M 26.0500,29.5750
26.0614,29.5176
26.0939,29.4689
26.1426,29.4364
26.2000,29.4250
27.8500,29.4250
27.9074,29.4364
27.9561,29.4689
27.9886,29.5176
28.0000,29.5750
28.0000,29.8750
27.9886,29.9324
27.9561,29.9811
27.9074,30.0136
27.8500,30.0250
26.2000,30.0250
26.1426,30.0136
26.0939,29.9811
26.0614,29.9324
26.0500,29.8750
Z" /> 
<path style="fill:#000000; fill-opacity:1.0000; stroke:none;fill-rule:evenodd;"
d="M 26.0500,28.3050
26.0614,28.2476
26.0939,28.1989
26.1426,28.1664
26.2000,28.1550
27.8500,28.1550
27.9074,28.1664
27.9561,28.1989
27.9886,28.2476
28.0000,28.3050
28.0000,28.6050
27.9886,28.6624
27.9561,28.7111
27.9074,28.7436
27.8500,28.7550
26.2000,28.7550
26.1426,28.7436
26.0939,28.7111
26.0614,28.6624
26.0500,28.6050
Z" /> 
<path style="fill:#000000; fill-opacity:1.0000; stroke:none;fill-rule:evenodd;"
d="M 26.0500,27.0350
26.0614,26.9776
26.0939,26.9289
26.1426,26.8964
26.2000,26.8850
27.8500,26.8850
27.9074,26.8964
27.9561,26.9289
27.9886,26.9776
28.0000,27.0350
28.0000,27.3350
27.9886,27.3924
27.9561,27.4411
27.9074,27.4736
27.8500,27.4850
26.2000,27.4850
26.1426,27.4736
26.0939,27.4411
26.0614,27.3924
26.0500,27.3350
Z" /> 
<path style="fill:#000000; fill-opacity:1.0000; stroke:none;fill-rule:evenodd;"
d="M 26.0500,25.7650
26.0614,25.7076
26.0939,25.6589
26.1426,25.6264
26.2000,25.6150
27.8500,25.6150
27.9074,25.6264
27.9561,25.6589
27.9886,25.7076
28.0000,25.7650
28.0000,26.0650
27.9886,26.1224
27.9561,26.1711
27.9074,26.2036
27.8500,26.2150
26.2000,26.2150
26.1426,26.2036
26.0939,26.1711
26.0614,26.1224
26.0500,26.0650
Z" /> 
<path style="fill:#000000; fill-opacity:1.0000; stroke:none;fill-rule:evenodd;"
d="M 26.0500,24.4950
26.0614,24.4376
26.0939,24.3889
26.1426,24.3564
26.2000,24.3450
27.8500,24.3450
27.9074,24.3564
27.9561,24.3889
27.9886,24.4376
28.0000,24.4950
28.0000,24.7950
27.9886,24.8524
27.9561,24.9011
27.9074,24.9336
27.8500,24.9450
26.2000,24.9450
26.1426,24.9336
26.0939,24.9011
26.0614,24.8524
26.0500,24.7950
Z" /> 
<path style="fill:#000000; fill-opacity:1.0000; stroke:none;fill-rule:evenodd;"
d="M 26.0500,23.2250
26.0614,23.1676
26.0939,23.1189
26.1426,23.0864
26.2000,23.0750
27.8500,23.0750
27.9074,23.0864
27.9561,23.1189
27.9886,23.1676
28.0000,23.2250
28.0000,23.5250
27.9886,23.5824
27.9561,23.6311
27.9074,23.6636
27.8500,23.6750
26.2000,23.6750
26.1426,23.6636
26.0939,23.6311
26.0614,23.5824
26.0500,23.5250
Z" /> 
<path style="fill:#000000; fill-opacity:1.0000; stroke:none;fill-rule:evenodd;"
d="M 26.0500,21.9550
26.0614,21.8976
26.0939,21.8489
26.1426,21.8164
26.2000,21.8050
27.8500,21.8050
27.9074,21.8164
27.9561,21.8489
27.9886,21.8976
28.0000,21.9550
28.0000,22.2550
27.9886,22.3124
27.9561,22.3611
27.9074,22.3936
27.8500,22.4050
26.2000,22.4050
26.1426,22.3936
26.0939,22.3611
26.0614,22.3124
26.0500,22.2550
Z" /> 
<path style="fill:#000000; fill-opacity:1.0000; stroke:none;fill-rule:evenodd;"
d="M 26.0500,20.6850
26.0614,20.6276
26.0939,20.5789
26.1426,20.5464
26.2000,20.5350
27.8500,20.5350
27.9074,20.5464
27.9561,20.5789
27.9886,20.6276
28.0000,20.6850
28.0000,20.9850
27.9886,21.0424
27.9561,21.0911
27.9074,21.1236
27.8500,21.1350
26.2000,21.1350
26.1426,21.1236
26.0939,21.0911
26.0614,21.0424
26.0500,20.9850
Z" /> 
<path style="fill:#000000; fill-opacity:1.0000; stroke:none;fill-rule:evenodd;"
d="M 80.4000,37.2300
80.4190,37.1343
80.4732,37.0532
80.5543,36.9990
80.6500,36.9800
81.3250,36.9800
81.4207,36.9990
81.5018,37.0532
81.5560,37.1343
81.5750,37.2300
81.5750,38.1800
81.5560,38.2757
81.5018,38.3568
81.4207,38.4110
81.3250,38.4300
80.6500,38.4300
80.5543,38.4110
80.4732,38.3568
80.4190,38.2757
80.4000,38.1800
Z" /> 
<path style="fill:#000000; fill-opacity:1.0000; stroke:none;fill-rule:evenodd;"
d="M 82.4750,37.2300
82.4940,37.1343
82.5482,37.0532
82.6293,36.9990
82.7250,36.9800
83.4000,36.9800
83.4957,36.9990
83.5768,37.0532
83.6310,37.1343
83.6500,37.2300
83.6500,38.1800
83.6310,38.2757
83.5768,38.3568
83.4957,38.4110
83.4000,38.4300
82.7250,38.4300
82.6293,38.4110
82.5482,38.3568
82.4940,38.2757
82.4750,38.1800
Z" /> 
<path style="fill:#000000; fill-opacity:1.0000; stroke:none;fill-rule:evenodd;"
d="M 57.7300,23.1300
57.8257,23.1490
57.9068,23.2032
57.9610,23.2843
57.9800,23.3800
57.9800,24.0550
57.9610,24.1507
57.9068,24.2318
57.8257,24.2860
57.7300,24.3050
56.7800,24.3050
56.6843,24.2860
56.6032,24.2318
56.5490,24.1507
56.5300,24.0550
56.5300,23.3800
56.5490,23.2843
56.6032,23.2032
56.6843,23.1490
56.7800,23.1300
Z" /> 
<path style="fill:#000000; fill-opacity:1.0000; stroke:none;fill-rule:evenodd;"
d="M 57.7300,25.2050
57.8257,25.2240
57.9068,25.2782
57.9610,25.3593
57.9800,25.4550
57.9800,26.1300
57.9610,26.2257
57.9068,26.3068
57.8257,26.3610
57.7300,26.3800
56.7800,26.3800
56.6843,26.3610
56.6032,26.3068
56.5490,26.2257
56.5300,26.1300
56.5300,25.4550
56.5490,25.3593
56.6032,25.2782
56.6843,25.2240
56.7800,25.2050
Z" /> 
<path style="fill:#000000; fill-opacity:1.0000; stroke:none;fill-rule:evenodd;"
d="M 15.7250,34.5300
15.7060,34.6257
15.6518,34.7068
15.5707,34.7610
15.4750,34.7800
14.8000,34.7800
14.7043,34.7610
14.6232,34.7068
14.5690,34.6257
14.5500,34.5300
14.5500,33.5800
14.5690,33.4843
14.6232,33.4032
14.7043,33.3490
14.8000,33.3300
15.4750,33.3300
15.5707,33.3490
15.6518,33.4032
15.7060,33.4843
15.7250,33.5800
Z" /> 
<path style="fill:#000000; fill-opacity:1.0000; stroke:none;fill-rule:evenodd;"
d="M 13.6500,34.5300
13.6310,34.6257
13.5768,34.7068
13.4957,34.7610
13.4000,34.7800
12.7250,34.7800
12.6293,34.7610
12.5482,34.7068
12.4940,34.6257
12.4750,34.5300
12.4750,33.5800
12.4940,33.4843
12.5482,33.4032
12.6293,33.3490
12.7250,33.3300
13.4000,33.3300
13.4957,33.3490
13.5768,33.4032
13.6310,33.4843
13.6500,33.5800
Z" /> 
<path style="fill:#000000; fill-opacity:1.0000; stroke:none;fill-rule:evenodd;"
d="M 9.4375,23.4300
9.4565,23.3343
9.5107,23.2532
9.5918,23.1990
9.6875,23.1800
10.3625,23.1800
10.4582,23.1990
10.5393,23.2532
10.5935,23.3343
10.6125,23.4300
10.6125,24.3800
10.5935,24.4757
10.5393,24.5568
10.4582,24.6110
10.3625,24.6300
9.6875,24.6300
9.5918,24.6110
9.5107,24.5568
9.4565,24.4757
9.4375,24.3800
Z" /> 
<path style="fill:#000000; fill-opacity:1.0000; stroke:none;fill-rule:evenodd;"
d="M 11.5125,23.4300
11.5315,23.3343
11.5857,23.2532
11.6668,23.1990
11.7625,23.1800
12.4375,23.1800
12.5332,23.1990
12.6143,23.2532
12.6685,23.3343
12.6875,23.4300
12.6875,24.3800
12.6685,24.4757
12.6143,24.5568
12.5332,24.6110
12.4375,24.6300
11.7625,24.6300
11.6668,24.6110
11.5857,24.5568
11.5315,24.4757
11.5125,24.3800
Z" /> 
<path style="fill:#000000; fill-opacity:1.0000; stroke:none;fill-rule:evenodd;"
d="M 12.3950,44.6100
12.4907,44.6290
12.5718,44.6832
12.6260,44.7643
12.6450,44.8600
12.6450,45.3850
12.6260,45.4807
12.5718,45.5618
12.4907,45.6160
12.3950,45.6350
11.4950,45.6350
11.3993,45.6160
11.3182,45.5618
11.2640,45.4807
11.2450,45.3850
11.2450,44.8600
11.2640,44.7643
11.3182,44.6832
11.3993,44.6290
11.4950,44.6100
Z" /> 
<path style="fill:#000000; fill-opacity:1.0000; stroke:none;fill-rule:evenodd;"
d="M 12.3950,46.4350
12.4907,46.4540
12.5718,46.5082
12.6260,46.5893
12.6450,46.6850
12.6450,47.2100
12.6260,47.3057
12.5718,47.3868
12.4907,47.4410
12.3950,47.4600
11.4950,47.4600
11.3993,47.4410
11.3182,47.3868
11.2640,47.3057
11.2450,47.2100
11.2450,46.6850
11.2640,46.5893
11.3182,46.5082
11.3993,46.4540
11.4950,46.4350
Z" /> 
<path style="fill:#000000; fill-opacity:1.0000; stroke:none;fill-rule:evenodd;"
d="M 77.6750,72.3300
77.6940,72.2343
77.7482,72.1532
77.8293,72.0990
77.9250,72.0800
78.8250,72.0800
78.9207,72.0990
79.0018,72.1532
79.0560,72.2343
79.0750,72.3300
79.0750,75.1800
79.0560,75.2757
79.0018,75.3568
78.9207,75.4110
78.8250,75.4300
77.9250,75.4300
77.8293,75.4110
77.7482,75.3568
77.6940,75.2757
77.6750,75.1800
Z" /> 
<path style="fill:#000000; fill-opacity:1.0000; stroke:none;fill-rule:evenodd;"
d="M 83.7750,72.3300
83.7940,72.2343
83.8482,72.1532
83.9293,72.0990
84.0250,72.0800
84.9250,72.0800
85.0207,72.0990
85.1018,72.1532
85.1560,72.2343
85.1750,72.3300
85.1750,75.1800
85.1560,75.2757
85.1018,75.3568
85.0207,75.4110
84.9250,75.4300
84.0250,75.4300
83.9293,75.4110
83.8482,75.3568
83.7940,75.2757
83.7750,75.1800
Z" /> 
<path style="fill:#000000; fill-opacity:1.0000; stroke:none;fill-rule:evenodd;"
d="M 63.0550,13.5075
63.0706,13.4005
63.1248,13.2896
63.2121,13.2023
63.3230,13.1481
63.4300,13.1325
64.6800,13.1325
64.7870,13.1481
64.8979,13.2023
64.9852,13.2896
65.0394,13.4005
65.0550,13.5075
65.0550,14.2575
65.0394,14.3645
64.9852,14.4754
64.8979,14.5627
64.7870,14.6169
64.6800,14.6325
63.4300,14.6325
63.3230,14.6169
63.2121,14.5627
63.1248,14.4754
63.0706,14.3645
63.0550,14.2575
Z" /> 
<path style="fill:#000000; fill-opacity:1.0000; stroke:none;fill-rule:evenodd;"
d="M 63.0550,15.8075
63.0706,15.7005
63.1248,15.5896
63.2121,15.5023
63.3230,15.4481
63.4300,15.4325
64.6800,15.4325
64.7870,15.4481
64.8979,15.5023
64.9852,15.5896
65.0394,15.7005
65.0550,15.8075
65.0550,16.5575
65.0394,16.6645
64.9852,16.7754
64.8979,16.8627
64.7870,16.9169
64.6800,16.9325
63.4300,16.9325
63.3230,16.9169
63.2121,16.8627
63.1248,16.7754
63.0706,16.6645
63.0550,16.5575
Z" /> 
<path style="fill:#000000; fill-opacity:1.0000; stroke:none;fill-rule:evenodd;"
d="M 69.3550,14.7825
69.3664,14.6762
69.4162,14.5429
69.5014,14.4289
69.6154,14.3437
69.7487,14.2939
69.8550,14.2825
70.8550,14.2825
70.9613,14.2939
71.0946,14.3437
71.2086,14.4289
71.2938,14.5429
71.3436,14.6762
71.3550,14.7825
71.3550,17.5825
71.3436,17.6888
71.2938,17.8221
71.2086,17.9361
71.0946,18.0213
70.9613,18.0711
70.8550,18.0825
69.8550,18.0825
69.7487,18.0711
69.6154,18.0213
69.5014,17.9361
69.4162,17.8221
69.3664,17.6888
69.3550,17.5825
Z" /> 
<path style="fill:#000000; fill-opacity:1.0000; stroke:none;fill-rule:evenodd;"
d="M 63.0550,18.1075
63.0706,18.0005
63.1248,17.8896
63.2121,17.8023
63.3230,17.7481
63.4300,17.7325
64.6800,17.7325
64.7870,17.7481
64.8979,17.8023
64.9852,17.8896
65.0394,18.0005
65.0550,18.1075
65.0550,18.8575
65.0394,18.9645
64.9852,19.0754
64.8979,19.1627
64.7870,19.2169
64.6800,19.2325
63.4300,19.2325
63.3230,19.2169
63.2121,19.1627
63.1248,19.0754
63.0706,18.9645
63.0550,18.8575
Z" /> 
<path style="fill:#000000; fill-opacity:1.0000; stroke:none;fill-rule:evenodd;"
d="M 51.7500,49.2300
51.7310,49.3257
51.6768,49.4068
51.5957,49.4610
51.5000,49.4800
50.8250,49.4800
50.7293,49.4610
50.6482,49.4068
50.5940,49.3257
50.5750,49.2300
50.5750,48.2800
50.5940,48.1843
50.6482,48.1032
50.7293,48.0490
50.8250,48.0300
51.5000,48.0300
51.5957,48.0490
51.6768,48.1032
51.7310,48.1843
51.7500,48.2800
Z" /> 
<path style="fill:#000000; fill-opacity:1.0000; stroke:none;fill-rule:evenodd;"
d="M 49.6750,49.2300
49.6560,49.3257
49.6018,49.4068
49.5207,49.4610
49.4250,49.4800
48.7500,49.4800
48.6543,49.4610
48.5732,49.4068
48.5190,49.3257
48.5000,49.2300
48.5000,48.2800
48.5190,48.1843
48.5732,48.1032
48.6543,48.0490
48.7500,48.0300
49.4250,48.0300
49.5207,48.0490
49.6018,48.1032
49.6560,48.1843
49.6750,48.2800
Z" /> 
<path style="fill:#000000; fill-opacity:1.0000; stroke:none;fill-rule:evenodd;"
d="M 24.8000,52.3050
24.8190,52.2093
24.8732,52.1282
24.9543,52.0740
25.0500,52.0550
25.5750,52.0550
25.6707,52.0740
25.7518,52.1282
25.8060,52.2093
25.8250,52.3050
25.8250,53.2050
25.8060,53.3007
25.7518,53.3818
25.6707,53.4360
25.5750,53.4550
25.0500,53.4550
24.9543,53.4360
24.8732,53.3818
24.8190,53.3007
24.8000,53.2050
Z" /> 
<path style="fill:#000000; fill-opacity:1.0000; stroke:none;fill-rule:evenodd;"
d="M 26.6250,52.3050
26.6440,52.2093
26.6982,52.1282
26.7793,52.0740
26.8750,52.0550
27.4000,52.0550
27.4957,52.0740
27.5768,52.1282
27.6310,52.2093
27.6500,52.3050
27.6500,53.2050
27.6310,53.3007
27.5768,53.3818
27.4957,53.4360
27.4000,53.4550
26.8750,53.4550
26.7793,53.4360
26.6982,53.3818
26.6440,53.3007
26.6250,53.2050
Z" /> 
<path style="fill:#000000; fill-opacity:1.0000; stroke:none;fill-rule:evenodd;"
d="M 69.3000,51.1300
69.3190,51.0343
69.3732,50.9532
69.4543,50.8990
69.5500,50.8800
70.2250,50.8800
70.3207,50.8990
70.4018,50.9532
70.4560,51.0343
70.4750,51.1300
70.4750,52.0800
70.4560,52.1757
70.4018,52.2568
70.3207,52.3110
70.2250,52.3300
69.5500,52.3300
69.4543,52.3110
69.3732,52.2568
69.3190,52.1757
69.3000,52.0800
Z" /> 
<path style="fill:#000000; fill-opacity:1.0000; stroke:none;fill-rule:evenodd;"
d="M 71.3750,51.1300
71.3940,51.0343
71.4482,50.9532
71.5293,50.8990
71.6250,50.8800
72.3000,50.8800
72.3957,50.8990
72.4768,50.9532
72.5310,51.0343
72.5500,51.1300
72.5500,52.0800
72.5310,52.1757
72.4768,52.2568
72.3957,52.3110
72.3000,52.3300
71.6250,52.3300
71.5293,52.3110
71.4482,52.2568
71.3940,52.1757
71.3750,52.0800
Z" /> 
<path style="fill:#000000; fill-opacity:1.0000; stroke:none;fill-rule:evenodd;"
d="M 63.5500,65.6050
63.5310,65.7007
63.4768,65.7818
63.3957,65.8360
63.3000,65.8550
62.7750,65.8550
62.6793,65.8360
62.5982,65.7818
62.5440,65.7007
62.5250,65.6050
62.5250,64.7050
62.5440,64.6093
62.5982,64.5282
62.6793,64.4740
62.7750,64.4550
63.3000,64.4550
63.3957,64.4740
63.4768,64.5282
63.5310,64.6093
63.5500,64.7050
Z" /> 
<path style="fill:#000000; fill-opacity:1.0000; stroke:none;fill-rule:evenodd;"
d="M 61.7250,65.6050
61.7060,65.7007
61.6518,65.7818
61.5707,65.8360
61.4750,65.8550
60.9500,65.8550
60.8543,65.8360
60.7732,65.7818
60.7190,65.7007
60.7000,65.6050
60.7000,64.7050
60.7190,64.6093
60.7732,64.5282
60.8543,64.4740
60.9500,64.4550
61.4750,64.4550
61.5707,64.4740
61.6518,64.5282
61.7060,64.6093
61.7250,64.7050
Z" /> 
</g>
<g style="fill:none; 
stroke:#000000; stroke-width:0.0500; stroke-opacity:1; 
stroke-linecap:round; stroke-linejoin:round;">
<path d="M0.1250 3.1550
L0.1250 103.1550
" />
<path d="M100.1250 3.1550
L100.1250 103.1550
" />
<path d="M0.1250 3.1550
L100.1250 3.1550
" />
<path d="M100.1250 103.1550
L0.1250 103.1550
" />
</g> 
</svg>
