<?xml version="1.0" standalone="no"?>
 <!DOCTYPE svg PUBLIC "-//W3C//DTD SVG 1.1//EN" 
 "http://www.w3.org/Graphics/SVG/1.1/DTD/svg11.dtd"> 
<svg
  xmlns:svg="http://www.w3.org/2000/svg"
  xmlns="http://www.w3.org/2000/svg"
  xmlns:xlink="http://www.w3.org/1999/xlink"
  version="1.1"
  width="80.6958mm" height="80.8990mm" viewBox="0.0000 0.0000 80.6958 80.8990">
<title>SVG Image created as board_stm8_rev2-F_Paste.svg date 2025/01/19 14:15:47 </title>
  <desc>Image generated by PCBNEW </desc>
<g style="fill:#000000; fill-opacity:1.0000;stroke:#000000; stroke-opacity:1.0000;
stroke-linecap:round; stroke-linejoin:round;"
 transform="translate(0 0) scale(1 1)">
<path style="fill:#000000; fill-opacity:1.0000; stroke:none;fill-rule:evenodd;"
d="M 55.2750,27.6375
55.3707,27.6565
55.4518,27.7107
55.5060,27.7918
55.5250,27.8875
55.5250,28.5625
55.5060,28.6582
55.4518,28.7393
55.3707,28.7935
55.2750,28.8125
54.3250,28.8125
54.2293,28.7935
54.1482,28.7393
54.0940,28.6582
54.0750,28.5625
54.0750,27.8875
54.0940,27.7918
54.1482,27.7107
54.2293,27.6565
54.3250,27.6375
Z" /> 
<path style="fill:#000000; fill-opacity:1.0000; stroke:none;fill-rule:evenodd;"
d="M 55.2750,29.7125
55.3707,29.7315
55.4518,29.7857
55.5060,29.8668
55.5250,29.9625
55.5250,30.6375
55.5060,30.7332
55.4518,30.8143
55.3707,30.8685
55.2750,30.8875
54.3250,30.8875
54.2293,30.8685
54.1482,30.8143
54.0940,30.7332
54.0750,30.6375
54.0750,29.9625
54.0940,29.8668
54.1482,29.7857
54.2293,29.7315
54.3250,29.7125
Z" /> 
<path style="fill:#000000; fill-opacity:1.0000; stroke:none;fill-rule:evenodd;"
d="M 49.5370,35.4250
49.5560,35.3293
49.6102,35.2482
49.6913,35.1940
49.7870,35.1750
50.4620,35.1750
50.5577,35.1940
50.6388,35.2482
50.6930,35.3293
50.7120,35.4250
50.7120,36.3750
50.6930,36.4707
50.6388,36.5518
50.5577,36.6060
50.4620,36.6250
49.7870,36.6250
49.6913,36.6060
49.6102,36.5518
49.5560,36.4707
49.5370,36.3750
Z" /> 
<path style="fill:#000000; fill-opacity:1.0000; stroke:none;fill-rule:evenodd;"
d="M 51.6120,35.4250
51.6310,35.3293
51.6852,35.2482
51.7663,35.1940
51.8620,35.1750
52.5370,35.1750
52.6327,35.1940
52.7138,35.2482
52.7680,35.3293
52.7870,35.4250
52.7870,36.3750
52.7680,36.4707
52.7138,36.5518
52.6327,36.6060
52.5370,36.6250
51.8620,36.6250
51.7663,36.6060
51.6852,36.5518
51.6310,36.4707
51.6120,36.3750
Z" /> 
<path style="fill:#000000; fill-opacity:1.0000; stroke:none;fill-rule:evenodd;"
d="M 49.0750,18.5250
49.0940,18.4293
49.1482,18.3482
49.2293,18.2940
49.3250,18.2750
50.0000,18.2750
50.0957,18.2940
50.1768,18.3482
50.2310,18.4293
50.2500,18.5250
50.2500,19.4750
50.2310,19.5707
50.1768,19.6518
50.0957,19.7060
50.0000,19.7250
49.3250,19.7250
49.2293,19.7060
49.1482,19.6518
49.0940,19.5707
49.0750,19.4750
Z" /> 
<path style="fill:#000000; fill-opacity:1.0000; stroke:none;fill-rule:evenodd;"
d="M 51.1500,18.5250
51.1690,18.4293
51.2232,18.3482
51.3043,18.2940
51.4000,18.2750
52.0750,18.2750
52.1707,18.2940
52.2518,18.3482
52.3060,18.4293
52.3250,18.5250
52.3250,19.4750
52.3060,19.5707
52.2518,19.6518
52.1707,19.7060
52.0750,19.7250
51.4000,19.7250
51.3043,19.7060
51.2232,19.6518
51.1690,19.5707
51.1500,19.4750
Z" /> 
<path style="fill:#000000; fill-opacity:1.0000; stroke:none;fill-rule:evenodd;"
d="M 62.5844,23.0528
62.5844,22.6972
64.0576,22.6972
64.0576,23.0528
Z" /> 
<path style="fill:#000000; fill-opacity:1.0000; stroke:none;fill-rule:evenodd;"
d="M 62.5844,23.7028
62.5844,23.3472
64.0576,23.3472
64.0576,23.7028
Z" /> 
<path style="fill:#000000; fill-opacity:1.0000; stroke:none;fill-rule:evenodd;"
d="M 62.5844,24.3528
62.5844,23.9972
64.0576,23.9972
64.0576,24.3528
Z" /> 
<path style="fill:#000000; fill-opacity:1.0000; stroke:none;fill-rule:evenodd;"
d="M 62.5844,25.0028
62.5844,24.6472
64.0576,24.6472
64.0576,25.0028
Z" /> 
<path style="fill:#000000; fill-opacity:1.0000; stroke:none;fill-rule:evenodd;"
d="M 62.5844,25.6528
62.5844,25.2972
64.0576,25.2972
64.0576,25.6528
Z" /> 
<path style="fill:#000000; fill-opacity:1.0000; stroke:none;fill-rule:evenodd;"
d="M 62.5844,26.3028
62.5844,25.9472
64.0576,25.9472
64.0576,26.3028
Z" /> 
<path style="fill:#000000; fill-opacity:1.0000; stroke:none;fill-rule:evenodd;"
d="M 62.5844,26.9528
62.5844,26.5972
64.0576,26.5972
64.0576,26.9528
Z" /> 
<path style="fill:#000000; fill-opacity:1.0000; stroke:none;fill-rule:evenodd;"
d="M 62.5844,27.6028
62.5844,27.2472
64.0576,27.2472
64.0576,27.6028
Z" /> 
<path style="fill:#000000; fill-opacity:1.0000; stroke:none;fill-rule:evenodd;"
d="M 62.5844,28.2528
62.5844,27.8972
64.0576,27.8972
64.0576,28.2528
Z" /> 
<path style="fill:#000000; fill-opacity:1.0000; stroke:none;fill-rule:evenodd;"
d="M 62.5844,28.9028
62.5844,28.5472
64.0576,28.5472
64.0576,28.9028
Z" /> 
<path style="fill:#000000; fill-opacity:1.0000; stroke:none;fill-rule:evenodd;"
d="M 56.7424,28.9028
56.7424,28.5472
58.2156,28.5472
58.2156,28.9028
Z" /> 
<path style="fill:#000000; fill-opacity:1.0000; stroke:none;fill-rule:evenodd;"
d="M 56.7424,28.2528
56.7424,27.8972
58.2156,27.8972
58.2156,28.2528
Z" /> 
<path style="fill:#000000; fill-opacity:1.0000; stroke:none;fill-rule:evenodd;"
d="M 56.7424,27.6028
56.7424,27.2472
58.2156,27.2472
58.2156,27.6028
Z" /> 
<path style="fill:#000000; fill-opacity:1.0000; stroke:none;fill-rule:evenodd;"
d="M 56.7424,26.9528
56.7424,26.5972
58.2156,26.5972
58.2156,26.9528
Z" /> 
<path style="fill:#000000; fill-opacity:1.0000; stroke:none;fill-rule:evenodd;"
d="M 56.7424,26.3028
56.7424,25.9472
58.2156,25.9472
58.2156,26.3028
Z" /> 
<path style="fill:#000000; fill-opacity:1.0000; stroke:none;fill-rule:evenodd;"
d="M 56.7424,25.6528
56.7424,25.2972
58.2156,25.2972
58.2156,25.6528
Z" /> 
<path style="fill:#000000; fill-opacity:1.0000; stroke:none;fill-rule:evenodd;"
d="M 56.7424,25.0028
56.7424,24.6472
58.2156,24.6472
58.2156,25.0028
Z" /> 
<path style="fill:#000000; fill-opacity:1.0000; stroke:none;fill-rule:evenodd;"
d="M 56.7424,24.3528
56.7424,23.9972
58.2156,23.9972
58.2156,24.3528
Z" /> 
<path style="fill:#000000; fill-opacity:1.0000; stroke:none;fill-rule:evenodd;"
d="M 56.7424,23.7028
56.7424,23.3472
58.2156,23.3472
58.2156,23.7028
Z" /> 
<path style="fill:#000000; fill-opacity:1.0000; stroke:none;fill-rule:evenodd;"
d="M 56.7424,23.0528
56.7424,22.6972
58.2156,22.6972
58.2156,23.0528
Z" /> 
<path style="fill:#000000; fill-opacity:1.0000; stroke:none;fill-rule:evenodd;"
d="M 26.9480,45.3440
26.9670,45.2483
27.0212,45.1672
27.1023,45.1130
27.1980,45.0940
27.8730,45.0940
27.9687,45.1130
28.0498,45.1672
28.1040,45.2483
28.1230,45.3440
28.1230,46.2940
28.1040,46.3897
28.0498,46.4708
27.9687,46.5250
27.8730,46.5440
27.1980,46.5440
27.1023,46.5250
27.0212,46.4708
26.9670,46.3897
26.9480,46.2940
Z" /> 
<path style="fill:#000000; fill-opacity:1.0000; stroke:none;fill-rule:evenodd;"
d="M 29.0230,45.3440
29.0420,45.2483
29.0962,45.1672
29.1773,45.1130
29.2730,45.0940
29.9480,45.0940
30.0437,45.1130
30.1248,45.1672
30.1790,45.2483
30.1980,45.3440
30.1980,46.2940
30.1790,46.3897
30.1248,46.4708
30.0437,46.5250
29.9480,46.5440
29.2730,46.5440
29.1773,46.5250
29.0962,46.4708
29.0420,46.3897
29.0230,46.2940
Z" /> 
<path style="fill:#000000; fill-opacity:1.0000; stroke:none;fill-rule:evenodd;"
d="M 32.2350,46.3040
32.2464,46.2466
32.2789,46.1979
32.3276,46.1654
32.3850,46.1540
34.0350,46.1540
34.0924,46.1654
34.1411,46.1979
34.1736,46.2466
34.1850,46.3040
34.1850,46.6040
34.1736,46.6614
34.1411,46.7101
34.0924,46.7426
34.0350,46.7540
32.3850,46.7540
32.3276,46.7426
32.2789,46.7101
32.2464,46.6614
32.2350,46.6040
Z" /> 
<path style="fill:#000000; fill-opacity:1.0000; stroke:none;fill-rule:evenodd;"
d="M 32.2350,47.5740
32.2464,47.5166
32.2789,47.4679
32.3276,47.4354
32.3850,47.4240
34.0350,47.4240
34.0924,47.4354
34.1411,47.4679
34.1736,47.5166
34.1850,47.5740
34.1850,47.8740
34.1736,47.9314
34.1411,47.9801
34.0924,48.0126
34.0350,48.0240
32.3850,48.0240
32.3276,48.0126
32.2789,47.9801
32.2464,47.9314
32.2350,47.8740
Z" /> 
<path style="fill:#000000; fill-opacity:1.0000; stroke:none;fill-rule:evenodd;"
d="M 32.2350,48.8440
32.2464,48.7866
32.2789,48.7379
32.3276,48.7054
32.3850,48.6940
34.0350,48.6940
34.0924,48.7054
34.1411,48.7379
34.1736,48.7866
34.1850,48.8440
34.1850,49.1440
34.1736,49.2014
34.1411,49.2501
34.0924,49.2826
34.0350,49.2940
32.3850,49.2940
32.3276,49.2826
32.2789,49.2501
32.2464,49.2014
32.2350,49.1440
Z" /> 
<path style="fill:#000000; fill-opacity:1.0000; stroke:none;fill-rule:evenodd;"
d="M 32.2350,50.1140
32.2464,50.0566
32.2789,50.0079
32.3276,49.9754
32.3850,49.9640
34.0350,49.9640
34.0924,49.9754
34.1411,50.0079
34.1736,50.0566
34.1850,50.1140
34.1850,50.4140
34.1736,50.4714
34.1411,50.5201
34.0924,50.5526
34.0350,50.5640
32.3850,50.5640
32.3276,50.5526
32.2789,50.5201
32.2464,50.4714
32.2350,50.4140
Z" /> 
<path style="fill:#000000; fill-opacity:1.0000; stroke:none;fill-rule:evenodd;"
d="M 32.2350,51.3840
32.2464,51.3266
32.2789,51.2779
32.3276,51.2454
32.3850,51.2340
34.0350,51.2340
34.0924,51.2454
34.1411,51.2779
34.1736,51.3266
34.1850,51.3840
34.1850,51.6840
34.1736,51.7414
34.1411,51.7901
34.0924,51.8226
34.0350,51.8340
32.3850,51.8340
32.3276,51.8226
32.2789,51.7901
32.2464,51.7414
32.2350,51.6840
Z" /> 
<path style="fill:#000000; fill-opacity:1.0000; stroke:none;fill-rule:evenodd;"
d="M 32.2350,52.6540
32.2464,52.5966
32.2789,52.5479
32.3276,52.5154
32.3850,52.5040
34.0350,52.5040
34.0924,52.5154
34.1411,52.5479
34.1736,52.5966
34.1850,52.6540
34.1850,52.9540
34.1736,53.0114
34.1411,53.0601
34.0924,53.0926
34.0350,53.1040
32.3850,53.1040
32.3276,53.0926
32.2789,53.0601
32.2464,53.0114
32.2350,52.9540
Z" /> 
<path style="fill:#000000; fill-opacity:1.0000; stroke:none;fill-rule:evenodd;"
d="M 32.2350,53.9240
32.2464,53.8666
32.2789,53.8179
32.3276,53.7854
32.3850,53.7740
34.0350,53.7740
34.0924,53.7854
34.1411,53.8179
34.1736,53.8666
34.1850,53.9240
34.1850,54.2240
34.1736,54.2814
34.1411,54.3301
34.0924,54.3626
34.0350,54.3740
32.3850,54.3740
32.3276,54.3626
32.2789,54.3301
32.2464,54.2814
32.2350,54.2240
Z" /> 
<path style="fill:#000000; fill-opacity:1.0000; stroke:none;fill-rule:evenodd;"
d="M 32.2350,55.1940
32.2464,55.1366
32.2789,55.0879
32.3276,55.0554
32.3850,55.0440
34.0350,55.0440
34.0924,55.0554
34.1411,55.0879
34.1736,55.1366
34.1850,55.1940
34.1850,55.4940
34.1736,55.5514
34.1411,55.6001
34.0924,55.6326
34.0350,55.6440
32.3850,55.6440
32.3276,55.6326
32.2789,55.6001
32.2464,55.5514
32.2350,55.4940
Z" /> 
<path style="fill:#000000; fill-opacity:1.0000; stroke:none;fill-rule:evenodd;"
d="M 37.1850,55.1940
37.1964,55.1366
37.2289,55.0879
37.2776,55.0554
37.3350,55.0440
38.9850,55.0440
39.0424,55.0554
39.0911,55.0879
39.1236,55.1366
39.1350,55.1940
39.1350,55.4940
39.1236,55.5514
39.0911,55.6001
39.0424,55.6326
38.9850,55.6440
37.3350,55.6440
37.2776,55.6326
37.2289,55.6001
37.1964,55.5514
37.1850,55.4940
Z" /> 
<path style="fill:#000000; fill-opacity:1.0000; stroke:none;fill-rule:evenodd;"
d="M 37.1850,53.9240
37.1964,53.8666
37.2289,53.8179
37.2776,53.7854
37.3350,53.7740
38.9850,53.7740
39.0424,53.7854
39.0911,53.8179
39.1236,53.8666
39.1350,53.9240
39.1350,54.2240
39.1236,54.2814
39.0911,54.3301
39.0424,54.3626
38.9850,54.3740
37.3350,54.3740
37.2776,54.3626
37.2289,54.3301
37.1964,54.2814
37.1850,54.2240
Z" /> 
<path style="fill:#000000; fill-opacity:1.0000; stroke:none;fill-rule:evenodd;"
d="M 37.1850,52.6540
37.1964,52.5966
37.2289,52.5479
37.2776,52.5154
37.3350,52.5040
38.9850,52.5040
39.0424,52.5154
39.0911,52.5479
39.1236,52.5966
39.1350,52.6540
39.1350,52.9540
39.1236,53.0114
39.0911,53.0601
39.0424,53.0926
38.9850,53.1040
37.3350,53.1040
37.2776,53.0926
37.2289,53.0601
37.1964,53.0114
37.1850,52.9540
Z" /> 
<path style="fill:#000000; fill-opacity:1.0000; stroke:none;fill-rule:evenodd;"
d="M 37.1850,51.3840
37.1964,51.3266
37.2289,51.2779
37.2776,51.2454
37.3350,51.2340
38.9850,51.2340
39.0424,51.2454
39.0911,51.2779
39.1236,51.3266
39.1350,51.3840
39.1350,51.6840
39.1236,51.7414
39.0911,51.7901
39.0424,51.8226
38.9850,51.8340
37.3350,51.8340
37.2776,51.8226
37.2289,51.7901
37.1964,51.7414
37.1850,51.6840
Z" /> 
<path style="fill:#000000; fill-opacity:1.0000; stroke:none;fill-rule:evenodd;"
d="M 37.1850,50.1140
37.1964,50.0566
37.2289,50.0079
37.2776,49.9754
37.3350,49.9640
38.9850,49.9640
39.0424,49.9754
39.0911,50.0079
39.1236,50.0566
39.1350,50.1140
39.1350,50.4140
39.1236,50.4714
39.0911,50.5201
39.0424,50.5526
38.9850,50.5640
37.3350,50.5640
37.2776,50.5526
37.2289,50.5201
37.1964,50.4714
37.1850,50.4140
Z" /> 
<path style="fill:#000000; fill-opacity:1.0000; stroke:none;fill-rule:evenodd;"
d="M 37.1850,48.8440
37.1964,48.7866
37.2289,48.7379
37.2776,48.7054
37.3350,48.6940
38.9850,48.6940
39.0424,48.7054
39.0911,48.7379
39.1236,48.7866
39.1350,48.8440
39.1350,49.1440
39.1236,49.2014
39.0911,49.2501
39.0424,49.2826
38.9850,49.2940
37.3350,49.2940
37.2776,49.2826
37.2289,49.2501
37.1964,49.2014
37.1850,49.1440
Z" /> 
<path style="fill:#000000; fill-opacity:1.0000; stroke:none;fill-rule:evenodd;"
d="M 37.1850,47.5740
37.1964,47.5166
37.2289,47.4679
37.2776,47.4354
37.3350,47.4240
38.9850,47.4240
39.0424,47.4354
39.0911,47.4679
39.1236,47.5166
39.1350,47.5740
39.1350,47.8740
39.1236,47.9314
39.0911,47.9801
39.0424,48.0126
38.9850,48.0240
37.3350,48.0240
37.2776,48.0126
37.2289,47.9801
37.1964,47.9314
37.1850,47.8740
Z" /> 
<path style="fill:#000000; fill-opacity:1.0000; stroke:none;fill-rule:evenodd;"
d="M 37.1850,46.3040
37.1964,46.2466
37.2289,46.1979
37.2776,46.1654
37.3350,46.1540
38.9850,46.1540
39.0424,46.1654
39.0911,46.1979
39.1236,46.2466
39.1350,46.3040
39.1350,46.6040
39.1236,46.6614
39.0911,46.7101
39.0424,46.7426
38.9850,46.7540
37.3350,46.7540
37.2776,46.7426
37.2289,46.7101
37.1964,46.6614
37.1850,46.6040
Z" /> 
<path style="fill:#000000; fill-opacity:1.0000; stroke:none;fill-rule:evenodd;"
d="M 38.5250,44.3750
38.5060,44.4707
38.4518,44.5518
38.3707,44.6060
38.2750,44.6250
37.6000,44.6250
37.5043,44.6060
37.4232,44.5518
37.3690,44.4707
37.3500,44.3750
37.3500,43.4250
37.3690,43.3293
37.4232,43.2482
37.5043,43.1940
37.6000,43.1750
38.2750,43.1750
38.3707,43.1940
38.4518,43.2482
38.5060,43.3293
38.5250,43.4250
Z" /> 
<path style="fill:#000000; fill-opacity:1.0000; stroke:none;fill-rule:evenodd;"
d="M 36.4500,44.3750
36.4310,44.4707
36.3768,44.5518
36.2957,44.6060
36.2000,44.6250
35.5250,44.6250
35.4293,44.6060
35.3482,44.5518
35.2940,44.4707
35.2750,44.3750
35.2750,43.4250
35.2940,43.3293
35.3482,43.2482
35.4293,43.1940
35.5250,43.1750
36.2000,43.1750
36.2957,43.1940
36.3768,43.2482
36.4310,43.3293
36.4500,43.4250
Z" /> 
<path style="fill:#000000; fill-opacity:1.0000; stroke:none;fill-rule:evenodd;"
d="M 32.4090,58.2980
32.4280,58.2023
32.4822,58.1212
32.5633,58.0670
32.6590,58.0480
33.3340,58.0480
33.4297,58.0670
33.5108,58.1212
33.5650,58.2023
33.5840,58.2980
33.5840,59.2480
33.5650,59.3437
33.5108,59.4248
33.4297,59.4790
33.3340,59.4980
32.6590,59.4980
32.5633,59.4790
32.4822,59.4248
32.4280,59.3437
32.4090,59.2480
Z" /> 
<path style="fill:#000000; fill-opacity:1.0000; stroke:none;fill-rule:evenodd;"
d="M 34.4840,58.2980
34.5030,58.2023
34.5572,58.1212
34.6383,58.0670
34.7340,58.0480
35.4090,58.0480
35.5047,58.0670
35.5858,58.1212
35.6400,58.2023
35.6590,58.2980
35.6590,59.2480
35.6400,59.3437
35.5858,59.4248
35.5047,59.4790
35.4090,59.4980
34.7340,59.4980
34.6383,59.4790
34.5572,59.4248
34.5030,59.3437
34.4840,59.2480
Z" /> 
<path style="fill:#000000; fill-opacity:1.0000; stroke:none;fill-rule:evenodd;"
d="M 23.8410,51.8140
23.9367,51.8330
24.0178,51.8872
24.0720,51.9683
24.0910,52.0640
24.0910,52.7390
24.0720,52.8347
24.0178,52.9158
23.9367,52.9700
23.8410,52.9890
22.8910,52.9890
22.7953,52.9700
22.7142,52.9158
22.6600,52.8347
22.6410,52.7390
22.6410,52.0640
22.6600,51.9683
22.7142,51.8872
22.7953,51.8330
22.8910,51.8140
Z" /> 
<path style="fill:#000000; fill-opacity:1.0000; stroke:none;fill-rule:evenodd;"
d="M 23.8410,53.8890
23.9367,53.9080
24.0178,53.9622
24.0720,54.0433
24.0910,54.1390
24.0910,54.8140
24.0720,54.9097
24.0178,54.9908
23.9367,55.0450
23.8410,55.0640
22.8910,55.0640
22.7953,55.0450
22.7142,54.9908
22.6600,54.9097
22.6410,54.8140
22.6410,54.1390
22.6600,54.0433
22.7142,53.9622
22.7953,53.9080
22.8910,53.8890
Z" /> 
</g>
<g style="fill:none; 
stroke:#000000; stroke-width:0.2540; stroke-opacity:1; 
stroke-linecap:round; stroke-linejoin:round;">
<path d="M0.3000 0.4000
L80.3000 0.4000
" />
<path d="M0.3000 80.4000
L80.3000 80.4000
" />
<path d="M0.3000 0.4000
L0.3000 80.4000
" />
<path d="M80.3000 80.4000
L80.3000 0.4000
" />
</g> 
</svg>
