G04 #@! TF.GenerationSoftware,KiCad,Pcbnew,8.0.6*
G04 #@! TF.CreationDate,2025-01-18T13:28:53-05:00*
G04 #@! TF.ProjectId,rl78_debug_adapter_rev5,726c3738-5f64-4656-9275-675f61646170,rev?*
G04 #@! TF.SameCoordinates,Original*
G04 #@! TF.FileFunction,Copper,L1,Top*
G04 #@! TF.FilePolarity,Positive*
%FSLAX46Y46*%
G04 Gerber Fmt 4.6, Leading zero omitted, Abs format (unit mm)*
G04 Created by KiCad (PCBNEW 8.0.6) date 2025-01-18 13:28:53*
%MOMM*%
%LPD*%
G01*
G04 APERTURE LIST*
G04 Aperture macros list*
%AMRoundRect*
0 Rectangle with rounded corners*
0 $1 Rounding radius*
0 $2 $3 $4 $5 $6 $7 $8 $9 X,Y pos of 4 corners*
0 Add a 4 corners polygon primitive as box body*
4,1,4,$2,$3,$4,$5,$6,$7,$8,$9,$2,$3,0*
0 Add four circle primitives for the rounded corners*
1,1,$1+$1,$2,$3*
1,1,$1+$1,$4,$5*
1,1,$1+$1,$6,$7*
1,1,$1+$1,$8,$9*
0 Add four rect primitives between the rounded corners*
20,1,$1+$1,$2,$3,$4,$5,0*
20,1,$1+$1,$4,$5,$6,$7,0*
20,1,$1+$1,$6,$7,$8,$9,0*
20,1,$1+$1,$8,$9,$2,$3,0*%
G04 Aperture macros list end*
%ADD10C,0.300000*%
G04 #@! TA.AperFunction,NonConductor*
%ADD11C,0.300000*%
G04 #@! TD*
G04 #@! TA.AperFunction,ComponentPad*
%ADD12RoundRect,0.250000X0.600000X0.600000X-0.600000X0.600000X-0.600000X-0.600000X0.600000X-0.600000X0*%
G04 #@! TD*
G04 #@! TA.AperFunction,ComponentPad*
%ADD13C,1.700000*%
G04 #@! TD*
G04 #@! TA.AperFunction,ComponentPad*
%ADD14R,1.700000X1.700000*%
G04 #@! TD*
G04 #@! TA.AperFunction,ComponentPad*
%ADD15O,1.700000X1.700000*%
G04 #@! TD*
G04 #@! TA.AperFunction,ComponentPad*
%ADD16C,2.400000*%
G04 #@! TD*
G04 #@! TA.AperFunction,ComponentPad*
%ADD17O,2.400000X2.400000*%
G04 #@! TD*
G04 #@! TA.AperFunction,ComponentPad*
%ADD18C,4.700000*%
G04 #@! TD*
G04 #@! TA.AperFunction,Conductor*
%ADD19C,0.250000*%
G04 #@! TD*
G04 APERTURE END LIST*
D10*
D11*
X106278571Y-50278328D02*
X106278571Y-48778328D01*
X106278571Y-48778328D02*
X106778571Y-49849757D01*
X106778571Y-49849757D02*
X107278571Y-48778328D01*
X107278571Y-48778328D02*
X107278571Y-50278328D01*
X107992857Y-50278328D02*
X107992857Y-49278328D01*
X107992857Y-48778328D02*
X107921429Y-48849757D01*
X107921429Y-48849757D02*
X107992857Y-48921185D01*
X107992857Y-48921185D02*
X108064286Y-48849757D01*
X108064286Y-48849757D02*
X107992857Y-48778328D01*
X107992857Y-48778328D02*
X107992857Y-48921185D01*
X109350001Y-50206900D02*
X109207143Y-50278328D01*
X109207143Y-50278328D02*
X108921429Y-50278328D01*
X108921429Y-50278328D02*
X108778572Y-50206900D01*
X108778572Y-50206900D02*
X108707143Y-50135471D01*
X108707143Y-50135471D02*
X108635715Y-49992614D01*
X108635715Y-49992614D02*
X108635715Y-49564042D01*
X108635715Y-49564042D02*
X108707143Y-49421185D01*
X108707143Y-49421185D02*
X108778572Y-49349757D01*
X108778572Y-49349757D02*
X108921429Y-49278328D01*
X108921429Y-49278328D02*
X109207143Y-49278328D01*
X109207143Y-49278328D02*
X109350001Y-49349757D01*
X109992857Y-50278328D02*
X109992857Y-48778328D01*
X110635715Y-50278328D02*
X110635715Y-49492614D01*
X110635715Y-49492614D02*
X110564286Y-49349757D01*
X110564286Y-49349757D02*
X110421429Y-49278328D01*
X110421429Y-49278328D02*
X110207143Y-49278328D01*
X110207143Y-49278328D02*
X110064286Y-49349757D01*
X110064286Y-49349757D02*
X109992857Y-49421185D01*
X111921429Y-50206900D02*
X111778572Y-50278328D01*
X111778572Y-50278328D02*
X111492858Y-50278328D01*
X111492858Y-50278328D02*
X111350000Y-50206900D01*
X111350000Y-50206900D02*
X111278572Y-50064042D01*
X111278572Y-50064042D02*
X111278572Y-49492614D01*
X111278572Y-49492614D02*
X111350000Y-49349757D01*
X111350000Y-49349757D02*
X111492858Y-49278328D01*
X111492858Y-49278328D02*
X111778572Y-49278328D01*
X111778572Y-49278328D02*
X111921429Y-49349757D01*
X111921429Y-49349757D02*
X111992858Y-49492614D01*
X111992858Y-49492614D02*
X111992858Y-49635471D01*
X111992858Y-49635471D02*
X111278572Y-49778328D01*
X112850000Y-50278328D02*
X112707143Y-50206900D01*
X112707143Y-50206900D02*
X112635714Y-50064042D01*
X112635714Y-50064042D02*
X112635714Y-48778328D01*
X115421428Y-50135471D02*
X115350000Y-50206900D01*
X115350000Y-50206900D02*
X115135714Y-50278328D01*
X115135714Y-50278328D02*
X114992857Y-50278328D01*
X114992857Y-50278328D02*
X114778571Y-50206900D01*
X114778571Y-50206900D02*
X114635714Y-50064042D01*
X114635714Y-50064042D02*
X114564285Y-49921185D01*
X114564285Y-49921185D02*
X114492857Y-49635471D01*
X114492857Y-49635471D02*
X114492857Y-49421185D01*
X114492857Y-49421185D02*
X114564285Y-49135471D01*
X114564285Y-49135471D02*
X114635714Y-48992614D01*
X114635714Y-48992614D02*
X114778571Y-48849757D01*
X114778571Y-48849757D02*
X114992857Y-48778328D01*
X114992857Y-48778328D02*
X115135714Y-48778328D01*
X115135714Y-48778328D02*
X115350000Y-48849757D01*
X115350000Y-48849757D02*
X115421428Y-48921185D01*
X116707143Y-50278328D02*
X116707143Y-49492614D01*
X116707143Y-49492614D02*
X116635714Y-49349757D01*
X116635714Y-49349757D02*
X116492857Y-49278328D01*
X116492857Y-49278328D02*
X116207143Y-49278328D01*
X116207143Y-49278328D02*
X116064285Y-49349757D01*
X116707143Y-50206900D02*
X116564285Y-50278328D01*
X116564285Y-50278328D02*
X116207143Y-50278328D01*
X116207143Y-50278328D02*
X116064285Y-50206900D01*
X116064285Y-50206900D02*
X115992857Y-50064042D01*
X115992857Y-50064042D02*
X115992857Y-49921185D01*
X115992857Y-49921185D02*
X116064285Y-49778328D01*
X116064285Y-49778328D02*
X116207143Y-49706900D01*
X116207143Y-49706900D02*
X116564285Y-49706900D01*
X116564285Y-49706900D02*
X116707143Y-49635471D01*
X117207143Y-49278328D02*
X117778571Y-49278328D01*
X117421428Y-48778328D02*
X117421428Y-50064042D01*
X117421428Y-50064042D02*
X117492857Y-50206900D01*
X117492857Y-50206900D02*
X117635714Y-50278328D01*
X117635714Y-50278328D02*
X117778571Y-50278328D01*
X118921429Y-49278328D02*
X118921429Y-50278328D01*
X118278571Y-49278328D02*
X118278571Y-50064042D01*
X118278571Y-50064042D02*
X118350000Y-50206900D01*
X118350000Y-50206900D02*
X118492857Y-50278328D01*
X118492857Y-50278328D02*
X118707143Y-50278328D01*
X118707143Y-50278328D02*
X118850000Y-50206900D01*
X118850000Y-50206900D02*
X118921429Y-50135471D01*
X120278572Y-50278328D02*
X120278572Y-48778328D01*
X120278572Y-50206900D02*
X120135714Y-50278328D01*
X120135714Y-50278328D02*
X119850000Y-50278328D01*
X119850000Y-50278328D02*
X119707143Y-50206900D01*
X119707143Y-50206900D02*
X119635714Y-50135471D01*
X119635714Y-50135471D02*
X119564286Y-49992614D01*
X119564286Y-49992614D02*
X119564286Y-49564042D01*
X119564286Y-49564042D02*
X119635714Y-49421185D01*
X119635714Y-49421185D02*
X119707143Y-49349757D01*
X119707143Y-49349757D02*
X119850000Y-49278328D01*
X119850000Y-49278328D02*
X120135714Y-49278328D01*
X120135714Y-49278328D02*
X120278572Y-49349757D01*
X121635715Y-50278328D02*
X121635715Y-49492614D01*
X121635715Y-49492614D02*
X121564286Y-49349757D01*
X121564286Y-49349757D02*
X121421429Y-49278328D01*
X121421429Y-49278328D02*
X121135715Y-49278328D01*
X121135715Y-49278328D02*
X120992857Y-49349757D01*
X121635715Y-50206900D02*
X121492857Y-50278328D01*
X121492857Y-50278328D02*
X121135715Y-50278328D01*
X121135715Y-50278328D02*
X120992857Y-50206900D01*
X120992857Y-50206900D02*
X120921429Y-50064042D01*
X120921429Y-50064042D02*
X120921429Y-49921185D01*
X120921429Y-49921185D02*
X120992857Y-49778328D01*
X120992857Y-49778328D02*
X121135715Y-49706900D01*
X121135715Y-49706900D02*
X121492857Y-49706900D01*
X121492857Y-49706900D02*
X121635715Y-49635471D01*
X122564286Y-50278328D02*
X122421429Y-50206900D01*
X122421429Y-50206900D02*
X122350000Y-50064042D01*
X122350000Y-50064042D02*
X122350000Y-48778328D01*
D10*
D11*
X105962257Y-59320928D02*
X105462257Y-58606642D01*
X105105114Y-59320928D02*
X105105114Y-57820928D01*
X105105114Y-57820928D02*
X105676543Y-57820928D01*
X105676543Y-57820928D02*
X105819400Y-57892357D01*
X105819400Y-57892357D02*
X105890829Y-57963785D01*
X105890829Y-57963785D02*
X105962257Y-58106642D01*
X105962257Y-58106642D02*
X105962257Y-58320928D01*
X105962257Y-58320928D02*
X105890829Y-58463785D01*
X105890829Y-58463785D02*
X105819400Y-58535214D01*
X105819400Y-58535214D02*
X105676543Y-58606642D01*
X105676543Y-58606642D02*
X105105114Y-58606642D01*
X107319400Y-59320928D02*
X106605114Y-59320928D01*
X106605114Y-59320928D02*
X106605114Y-57820928D01*
X107676543Y-57820928D02*
X108676543Y-57820928D01*
X108676543Y-57820928D02*
X108033686Y-59320928D01*
X109462257Y-58463785D02*
X109319400Y-58392357D01*
X109319400Y-58392357D02*
X109247971Y-58320928D01*
X109247971Y-58320928D02*
X109176543Y-58178071D01*
X109176543Y-58178071D02*
X109176543Y-58106642D01*
X109176543Y-58106642D02*
X109247971Y-57963785D01*
X109247971Y-57963785D02*
X109319400Y-57892357D01*
X109319400Y-57892357D02*
X109462257Y-57820928D01*
X109462257Y-57820928D02*
X109747971Y-57820928D01*
X109747971Y-57820928D02*
X109890829Y-57892357D01*
X109890829Y-57892357D02*
X109962257Y-57963785D01*
X109962257Y-57963785D02*
X110033686Y-58106642D01*
X110033686Y-58106642D02*
X110033686Y-58178071D01*
X110033686Y-58178071D02*
X109962257Y-58320928D01*
X109962257Y-58320928D02*
X109890829Y-58392357D01*
X109890829Y-58392357D02*
X109747971Y-58463785D01*
X109747971Y-58463785D02*
X109462257Y-58463785D01*
X109462257Y-58463785D02*
X109319400Y-58535214D01*
X109319400Y-58535214D02*
X109247971Y-58606642D01*
X109247971Y-58606642D02*
X109176543Y-58749500D01*
X109176543Y-58749500D02*
X109176543Y-59035214D01*
X109176543Y-59035214D02*
X109247971Y-59178071D01*
X109247971Y-59178071D02*
X109319400Y-59249500D01*
X109319400Y-59249500D02*
X109462257Y-59320928D01*
X109462257Y-59320928D02*
X109747971Y-59320928D01*
X109747971Y-59320928D02*
X109890829Y-59249500D01*
X109890829Y-59249500D02*
X109962257Y-59178071D01*
X109962257Y-59178071D02*
X110033686Y-59035214D01*
X110033686Y-59035214D02*
X110033686Y-58749500D01*
X110033686Y-58749500D02*
X109962257Y-58606642D01*
X109962257Y-58606642D02*
X109890829Y-58535214D01*
X109890829Y-58535214D02*
X109747971Y-58463785D01*
X111819399Y-59320928D02*
X111819399Y-57820928D01*
X111819399Y-57820928D02*
X112176542Y-57820928D01*
X112176542Y-57820928D02*
X112390828Y-57892357D01*
X112390828Y-57892357D02*
X112533685Y-58035214D01*
X112533685Y-58035214D02*
X112605114Y-58178071D01*
X112605114Y-58178071D02*
X112676542Y-58463785D01*
X112676542Y-58463785D02*
X112676542Y-58678071D01*
X112676542Y-58678071D02*
X112605114Y-58963785D01*
X112605114Y-58963785D02*
X112533685Y-59106642D01*
X112533685Y-59106642D02*
X112390828Y-59249500D01*
X112390828Y-59249500D02*
X112176542Y-59320928D01*
X112176542Y-59320928D02*
X111819399Y-59320928D01*
X113890828Y-59249500D02*
X113747971Y-59320928D01*
X113747971Y-59320928D02*
X113462257Y-59320928D01*
X113462257Y-59320928D02*
X113319399Y-59249500D01*
X113319399Y-59249500D02*
X113247971Y-59106642D01*
X113247971Y-59106642D02*
X113247971Y-58535214D01*
X113247971Y-58535214D02*
X113319399Y-58392357D01*
X113319399Y-58392357D02*
X113462257Y-58320928D01*
X113462257Y-58320928D02*
X113747971Y-58320928D01*
X113747971Y-58320928D02*
X113890828Y-58392357D01*
X113890828Y-58392357D02*
X113962257Y-58535214D01*
X113962257Y-58535214D02*
X113962257Y-58678071D01*
X113962257Y-58678071D02*
X113247971Y-58820928D01*
X114605113Y-59320928D02*
X114605113Y-57820928D01*
X114605113Y-58392357D02*
X114747971Y-58320928D01*
X114747971Y-58320928D02*
X115033685Y-58320928D01*
X115033685Y-58320928D02*
X115176542Y-58392357D01*
X115176542Y-58392357D02*
X115247971Y-58463785D01*
X115247971Y-58463785D02*
X115319399Y-58606642D01*
X115319399Y-58606642D02*
X115319399Y-59035214D01*
X115319399Y-59035214D02*
X115247971Y-59178071D01*
X115247971Y-59178071D02*
X115176542Y-59249500D01*
X115176542Y-59249500D02*
X115033685Y-59320928D01*
X115033685Y-59320928D02*
X114747971Y-59320928D01*
X114747971Y-59320928D02*
X114605113Y-59249500D01*
X116605114Y-58320928D02*
X116605114Y-59320928D01*
X115962256Y-58320928D02*
X115962256Y-59106642D01*
X115962256Y-59106642D02*
X116033685Y-59249500D01*
X116033685Y-59249500D02*
X116176542Y-59320928D01*
X116176542Y-59320928D02*
X116390828Y-59320928D01*
X116390828Y-59320928D02*
X116533685Y-59249500D01*
X116533685Y-59249500D02*
X116605114Y-59178071D01*
X117962257Y-58320928D02*
X117962257Y-59535214D01*
X117962257Y-59535214D02*
X117890828Y-59678071D01*
X117890828Y-59678071D02*
X117819399Y-59749500D01*
X117819399Y-59749500D02*
X117676542Y-59820928D01*
X117676542Y-59820928D02*
X117462257Y-59820928D01*
X117462257Y-59820928D02*
X117319399Y-59749500D01*
X117962257Y-59249500D02*
X117819399Y-59320928D01*
X117819399Y-59320928D02*
X117533685Y-59320928D01*
X117533685Y-59320928D02*
X117390828Y-59249500D01*
X117390828Y-59249500D02*
X117319399Y-59178071D01*
X117319399Y-59178071D02*
X117247971Y-59035214D01*
X117247971Y-59035214D02*
X117247971Y-58606642D01*
X117247971Y-58606642D02*
X117319399Y-58463785D01*
X117319399Y-58463785D02*
X117390828Y-58392357D01*
X117390828Y-58392357D02*
X117533685Y-58320928D01*
X117533685Y-58320928D02*
X117819399Y-58320928D01*
X117819399Y-58320928D02*
X117962257Y-58392357D01*
X119747971Y-58892357D02*
X120462257Y-58892357D01*
X119605114Y-59320928D02*
X120105114Y-57820928D01*
X120105114Y-57820928D02*
X120605114Y-59320928D01*
X121747971Y-59320928D02*
X121747971Y-57820928D01*
X121747971Y-59249500D02*
X121605113Y-59320928D01*
X121605113Y-59320928D02*
X121319399Y-59320928D01*
X121319399Y-59320928D02*
X121176542Y-59249500D01*
X121176542Y-59249500D02*
X121105113Y-59178071D01*
X121105113Y-59178071D02*
X121033685Y-59035214D01*
X121033685Y-59035214D02*
X121033685Y-58606642D01*
X121033685Y-58606642D02*
X121105113Y-58463785D01*
X121105113Y-58463785D02*
X121176542Y-58392357D01*
X121176542Y-58392357D02*
X121319399Y-58320928D01*
X121319399Y-58320928D02*
X121605113Y-58320928D01*
X121605113Y-58320928D02*
X121747971Y-58392357D01*
X123105114Y-59320928D02*
X123105114Y-58535214D01*
X123105114Y-58535214D02*
X123033685Y-58392357D01*
X123033685Y-58392357D02*
X122890828Y-58320928D01*
X122890828Y-58320928D02*
X122605114Y-58320928D01*
X122605114Y-58320928D02*
X122462256Y-58392357D01*
X123105114Y-59249500D02*
X122962256Y-59320928D01*
X122962256Y-59320928D02*
X122605114Y-59320928D01*
X122605114Y-59320928D02*
X122462256Y-59249500D01*
X122462256Y-59249500D02*
X122390828Y-59106642D01*
X122390828Y-59106642D02*
X122390828Y-58963785D01*
X122390828Y-58963785D02*
X122462256Y-58820928D01*
X122462256Y-58820928D02*
X122605114Y-58749500D01*
X122605114Y-58749500D02*
X122962256Y-58749500D01*
X122962256Y-58749500D02*
X123105114Y-58678071D01*
X123819399Y-58320928D02*
X123819399Y-59820928D01*
X123819399Y-58392357D02*
X123962257Y-58320928D01*
X123962257Y-58320928D02*
X124247971Y-58320928D01*
X124247971Y-58320928D02*
X124390828Y-58392357D01*
X124390828Y-58392357D02*
X124462257Y-58463785D01*
X124462257Y-58463785D02*
X124533685Y-58606642D01*
X124533685Y-58606642D02*
X124533685Y-59035214D01*
X124533685Y-59035214D02*
X124462257Y-59178071D01*
X124462257Y-59178071D02*
X124390828Y-59249500D01*
X124390828Y-59249500D02*
X124247971Y-59320928D01*
X124247971Y-59320928D02*
X123962257Y-59320928D01*
X123962257Y-59320928D02*
X123819399Y-59249500D01*
X124962257Y-58320928D02*
X125533685Y-58320928D01*
X125176542Y-57820928D02*
X125176542Y-59106642D01*
X125176542Y-59106642D02*
X125247971Y-59249500D01*
X125247971Y-59249500D02*
X125390828Y-59320928D01*
X125390828Y-59320928D02*
X125533685Y-59320928D01*
X126605114Y-59249500D02*
X126462257Y-59320928D01*
X126462257Y-59320928D02*
X126176543Y-59320928D01*
X126176543Y-59320928D02*
X126033685Y-59249500D01*
X126033685Y-59249500D02*
X125962257Y-59106642D01*
X125962257Y-59106642D02*
X125962257Y-58535214D01*
X125962257Y-58535214D02*
X126033685Y-58392357D01*
X126033685Y-58392357D02*
X126176543Y-58320928D01*
X126176543Y-58320928D02*
X126462257Y-58320928D01*
X126462257Y-58320928D02*
X126605114Y-58392357D01*
X126605114Y-58392357D02*
X126676543Y-58535214D01*
X126676543Y-58535214D02*
X126676543Y-58678071D01*
X126676543Y-58678071D02*
X125962257Y-58820928D01*
X127319399Y-59320928D02*
X127319399Y-58320928D01*
X127319399Y-58606642D02*
X127390828Y-58463785D01*
X127390828Y-58463785D02*
X127462257Y-58392357D01*
X127462257Y-58392357D02*
X127605114Y-58320928D01*
X127605114Y-58320928D02*
X127747971Y-58320928D01*
D10*
D11*
X112728572Y-51996185D02*
X112800000Y-51924757D01*
X112800000Y-51924757D02*
X112942858Y-51853328D01*
X112942858Y-51853328D02*
X113300000Y-51853328D01*
X113300000Y-51853328D02*
X113442858Y-51924757D01*
X113442858Y-51924757D02*
X113514286Y-51996185D01*
X113514286Y-51996185D02*
X113585715Y-52139042D01*
X113585715Y-52139042D02*
X113585715Y-52281900D01*
X113585715Y-52281900D02*
X113514286Y-52496185D01*
X113514286Y-52496185D02*
X112657143Y-53353328D01*
X112657143Y-53353328D02*
X113585715Y-53353328D01*
X114514286Y-51853328D02*
X114657143Y-51853328D01*
X114657143Y-51853328D02*
X114800000Y-51924757D01*
X114800000Y-51924757D02*
X114871429Y-51996185D01*
X114871429Y-51996185D02*
X114942857Y-52139042D01*
X114942857Y-52139042D02*
X115014286Y-52424757D01*
X115014286Y-52424757D02*
X115014286Y-52781900D01*
X115014286Y-52781900D02*
X114942857Y-53067614D01*
X114942857Y-53067614D02*
X114871429Y-53210471D01*
X114871429Y-53210471D02*
X114800000Y-53281900D01*
X114800000Y-53281900D02*
X114657143Y-53353328D01*
X114657143Y-53353328D02*
X114514286Y-53353328D01*
X114514286Y-53353328D02*
X114371429Y-53281900D01*
X114371429Y-53281900D02*
X114300000Y-53210471D01*
X114300000Y-53210471D02*
X114228571Y-53067614D01*
X114228571Y-53067614D02*
X114157143Y-52781900D01*
X114157143Y-52781900D02*
X114157143Y-52424757D01*
X114157143Y-52424757D02*
X114228571Y-52139042D01*
X114228571Y-52139042D02*
X114300000Y-51996185D01*
X114300000Y-51996185D02*
X114371429Y-51924757D01*
X114371429Y-51924757D02*
X114514286Y-51853328D01*
X115585714Y-51996185D02*
X115657142Y-51924757D01*
X115657142Y-51924757D02*
X115800000Y-51853328D01*
X115800000Y-51853328D02*
X116157142Y-51853328D01*
X116157142Y-51853328D02*
X116300000Y-51924757D01*
X116300000Y-51924757D02*
X116371428Y-51996185D01*
X116371428Y-51996185D02*
X116442857Y-52139042D01*
X116442857Y-52139042D02*
X116442857Y-52281900D01*
X116442857Y-52281900D02*
X116371428Y-52496185D01*
X116371428Y-52496185D02*
X115514285Y-53353328D01*
X115514285Y-53353328D02*
X116442857Y-53353328D01*
X117799999Y-51853328D02*
X117085713Y-51853328D01*
X117085713Y-51853328D02*
X117014285Y-52567614D01*
X117014285Y-52567614D02*
X117085713Y-52496185D01*
X117085713Y-52496185D02*
X117228571Y-52424757D01*
X117228571Y-52424757D02*
X117585713Y-52424757D01*
X117585713Y-52424757D02*
X117728571Y-52496185D01*
X117728571Y-52496185D02*
X117799999Y-52567614D01*
X117799999Y-52567614D02*
X117871428Y-52710471D01*
X117871428Y-52710471D02*
X117871428Y-53067614D01*
X117871428Y-53067614D02*
X117799999Y-53210471D01*
X117799999Y-53210471D02*
X117728571Y-53281900D01*
X117728571Y-53281900D02*
X117585713Y-53353328D01*
X117585713Y-53353328D02*
X117228571Y-53353328D01*
X117228571Y-53353328D02*
X117085713Y-53281900D01*
X117085713Y-53281900D02*
X117014285Y-53210471D01*
D12*
X74000000Y-65000000D03*
D13*
X71460000Y-65000000D03*
X74000000Y-62460000D03*
X71460000Y-62460000D03*
X74000000Y-59920000D03*
X71460000Y-59920000D03*
X74000000Y-57380000D03*
X71460000Y-57380000D03*
X74000000Y-54840000D03*
X71460000Y-54840000D03*
X74000000Y-52300000D03*
X71460000Y-52300000D03*
X74000000Y-49760000D03*
X71460000Y-49760000D03*
D14*
X81400000Y-84650000D03*
D15*
X83940000Y-84650000D03*
X86480000Y-84650000D03*
X89020000Y-84650000D03*
X91560000Y-84650000D03*
D16*
X90000000Y-50000000D03*
D17*
X90000000Y-65240000D03*
D16*
X83000000Y-50000000D03*
D17*
X83000000Y-65240000D03*
D16*
X97400000Y-49650000D03*
D17*
X97400000Y-64890000D03*
D18*
X125000000Y-85000000D03*
X65000000Y-35000000D03*
X65000000Y-85000000D03*
X125000000Y-35000000D03*
D19*
X74000000Y-54840000D02*
X71460000Y-57380000D01*
X83000000Y-50000000D02*
X90000000Y-50000000D01*
X83000000Y-50000000D02*
X78160000Y-54840000D01*
X78160000Y-54840000D02*
X74000000Y-54840000D01*
X83940000Y-72826700D02*
X83940000Y-84650000D01*
X90000000Y-65240000D02*
X90000000Y-66766700D01*
X90000000Y-66766700D02*
X83940000Y-72826700D01*
X81473300Y-65240000D02*
X77423300Y-61190000D01*
X83000000Y-65240000D02*
X84526700Y-65240000D01*
X97400000Y-64890000D02*
X95873300Y-64890000D01*
X83000000Y-65240000D02*
X81473300Y-65240000D01*
X72730000Y-61190000D02*
X71460000Y-59920000D01*
X77423300Y-61190000D02*
X72730000Y-61190000D01*
X94696600Y-63713300D02*
X86053400Y-63713300D01*
X95873300Y-64890000D02*
X94696600Y-63713300D01*
X86053400Y-63713300D02*
X84526700Y-65240000D01*
G04 #@! TA.AperFunction,Conductor*
G36*
X72813225Y-63135669D02*
G01*
X72835480Y-63161353D01*
X72848643Y-63181500D01*
X72924275Y-63297265D01*
X72924279Y-63297270D01*
X73076765Y-63462911D01*
X73111562Y-63489995D01*
X73153033Y-63547620D01*
X73156766Y-63618518D01*
X73121576Y-63680180D01*
X73083239Y-63703336D01*
X73083914Y-63704783D01*
X73077266Y-63707883D01*
X73077263Y-63707884D01*
X73077262Y-63707885D01*
X73050056Y-63724666D01*
X72926347Y-63800970D01*
X72926341Y-63800975D01*
X72800975Y-63926341D01*
X72800970Y-63926347D01*
X72709486Y-64074666D01*
X72707885Y-64077262D01*
X72684899Y-64146633D01*
X72684703Y-64147223D01*
X72644289Y-64205595D01*
X72591784Y-64227424D01*
X71944157Y-64875051D01*
X71925925Y-64807007D01*
X71860099Y-64692993D01*
X71767007Y-64599901D01*
X71652993Y-64534075D01*
X71584947Y-64515841D01*
X72225688Y-63875100D01*
X72225687Y-63875099D01*
X72205308Y-63859237D01*
X72205298Y-63859231D01*
X72171791Y-63841097D01*
X72121401Y-63791083D01*
X72106050Y-63721766D01*
X72130612Y-63655153D01*
X72171790Y-63619472D01*
X72205576Y-63601189D01*
X72383240Y-63462906D01*
X72535722Y-63297268D01*
X72624518Y-63161354D01*
X72678520Y-63115268D01*
X72748868Y-63105692D01*
X72813225Y-63135669D01*
G37*
G04 #@! TD.AperFunction*
G04 #@! TA.AperFunction,Conductor*
G36*
X72583077Y-53063866D02*
G01*
X72583078Y-53063866D01*
X72624217Y-53000899D01*
X72678221Y-52954810D01*
X72748568Y-52945235D01*
X72812926Y-52975212D01*
X72835183Y-53000898D01*
X72924279Y-53137270D01*
X73076762Y-53302908D01*
X73131331Y-53345381D01*
X73254424Y-53441189D01*
X73287155Y-53458902D01*
X73287680Y-53459186D01*
X73338071Y-53509200D01*
X73353423Y-53578516D01*
X73328862Y-53645129D01*
X73287680Y-53680813D01*
X73254426Y-53698810D01*
X73254424Y-53698811D01*
X73076762Y-53837091D01*
X72924279Y-54002729D01*
X72835483Y-54138643D01*
X72781479Y-54184731D01*
X72711131Y-54194306D01*
X72646774Y-54164329D01*
X72624517Y-54138643D01*
X72535720Y-54002729D01*
X72383237Y-53837091D01*
X72301382Y-53773381D01*
X72205576Y-53698811D01*
X72171792Y-53680528D01*
X72121402Y-53630516D01*
X72106050Y-53561199D01*
X72130610Y-53494586D01*
X72171795Y-53458900D01*
X72205298Y-53440769D01*
X72225688Y-53424898D01*
X71584947Y-52784157D01*
X71652993Y-52765925D01*
X71767007Y-52700099D01*
X71860099Y-52607007D01*
X71925925Y-52492993D01*
X71944158Y-52424947D01*
X72583077Y-53063866D01*
G37*
G04 #@! TD.AperFunction*
G04 #@! TA.AperFunction,Conductor*
G36*
X72583077Y-50523866D02*
G01*
X72583078Y-50523866D01*
X72624217Y-50460899D01*
X72678221Y-50414810D01*
X72748568Y-50405235D01*
X72812926Y-50435212D01*
X72835183Y-50460898D01*
X72924279Y-50597270D01*
X73076762Y-50762908D01*
X73131331Y-50805381D01*
X73254424Y-50901189D01*
X73287678Y-50919185D01*
X73287680Y-50919186D01*
X73338071Y-50969200D01*
X73353423Y-51038516D01*
X73328862Y-51105129D01*
X73287680Y-51140813D01*
X73254426Y-51158810D01*
X73254424Y-51158811D01*
X73076762Y-51297091D01*
X72924279Y-51462729D01*
X72835183Y-51599101D01*
X72781179Y-51645189D01*
X72710831Y-51654764D01*
X72646474Y-51624786D01*
X72624217Y-51599100D01*
X72583078Y-51536132D01*
X71944157Y-52175051D01*
X71925925Y-52107007D01*
X71860099Y-51992993D01*
X71767007Y-51899901D01*
X71652993Y-51834075D01*
X71584947Y-51815841D01*
X72225688Y-51175100D01*
X72225687Y-51175099D01*
X72205308Y-51159237D01*
X72205298Y-51159231D01*
X72171267Y-51140814D01*
X72120876Y-51090801D01*
X72105524Y-51021484D01*
X72130085Y-50954871D01*
X72171268Y-50919186D01*
X72205294Y-50900772D01*
X72205298Y-50900769D01*
X72225688Y-50884898D01*
X71584947Y-50244157D01*
X71652993Y-50225925D01*
X71767007Y-50160099D01*
X71860099Y-50067007D01*
X71925925Y-49952993D01*
X71944158Y-49884947D01*
X72583077Y-50523866D01*
G37*
G04 #@! TD.AperFunction*
G04 #@! TA.AperFunction,Conductor*
G36*
X129866621Y-30095502D02*
G01*
X129913114Y-30149158D01*
X129924500Y-30201500D01*
X129924500Y-89798500D01*
X129904498Y-89866621D01*
X129850842Y-89913114D01*
X129798500Y-89924500D01*
X60201500Y-89924500D01*
X60133379Y-89904498D01*
X60086886Y-89850842D01*
X60075500Y-89798500D01*
X60075500Y-85000000D01*
X62136656Y-85000000D01*
X62156016Y-85332403D01*
X62156016Y-85332409D01*
X62156017Y-85332414D01*
X62213838Y-85660333D01*
X62309337Y-85979321D01*
X62309339Y-85979327D01*
X62309340Y-85979328D01*
X62441220Y-86285063D01*
X62441222Y-86285066D01*
X62607711Y-86573433D01*
X62607714Y-86573437D01*
X62806552Y-86840523D01*
X63035057Y-87082724D01*
X63290134Y-87296758D01*
X63568320Y-87479724D01*
X63568328Y-87479729D01*
X63865887Y-87629169D01*
X64022335Y-87686111D01*
X64178775Y-87743051D01*
X64178776Y-87743051D01*
X64178784Y-87743054D01*
X64502786Y-87819843D01*
X64691771Y-87841932D01*
X64833508Y-87858500D01*
X64833511Y-87858500D01*
X65166492Y-87858500D01*
X65290510Y-87844003D01*
X65497214Y-87819843D01*
X65821216Y-87743054D01*
X66134113Y-87629169D01*
X66431672Y-87479729D01*
X66709870Y-87296755D01*
X66964946Y-87082721D01*
X67193449Y-86840522D01*
X67392289Y-86573433D01*
X67558778Y-86285066D01*
X67690663Y-85979321D01*
X67786162Y-85660333D01*
X67843983Y-85332414D01*
X67863344Y-85000000D01*
X67843983Y-84667586D01*
X67786162Y-84339667D01*
X67690663Y-84020679D01*
X67558778Y-83714934D01*
X67392289Y-83426567D01*
X67193449Y-83159478D01*
X66964946Y-82917279D01*
X66964944Y-82917278D01*
X66964942Y-82917275D01*
X66709865Y-82703241D01*
X66431679Y-82520275D01*
X66431675Y-82520273D01*
X66431672Y-82520271D01*
X66134113Y-82370831D01*
X66134108Y-82370829D01*
X66134103Y-82370827D01*
X65821224Y-82256948D01*
X65821217Y-82256946D01*
X65821216Y-82256946D01*
X65639258Y-82213821D01*
X65497219Y-82180158D01*
X65497209Y-82180156D01*
X65166492Y-82141500D01*
X65166489Y-82141500D01*
X64833511Y-82141500D01*
X64833508Y-82141500D01*
X64502790Y-82180156D01*
X64502780Y-82180158D01*
X64178784Y-82256946D01*
X64178775Y-82256948D01*
X63865896Y-82370827D01*
X63865891Y-82370829D01*
X63568320Y-82520275D01*
X63290134Y-82703241D01*
X63035057Y-82917275D01*
X62806552Y-83159476D01*
X62607714Y-83426562D01*
X62607704Y-83426578D01*
X62441223Y-83714931D01*
X62441220Y-83714936D01*
X62309340Y-84020671D01*
X62309338Y-84020677D01*
X62213838Y-84339666D01*
X62156016Y-84667590D01*
X62156016Y-84667596D01*
X62136656Y-85000000D01*
X60075500Y-85000000D01*
X60075500Y-54840000D01*
X70096844Y-54840000D01*
X70115437Y-55064375D01*
X70170702Y-55282612D01*
X70170703Y-55282613D01*
X70261141Y-55488793D01*
X70384275Y-55677265D01*
X70384279Y-55677270D01*
X70536762Y-55842908D01*
X70591331Y-55885381D01*
X70714424Y-55981189D01*
X70747680Y-55999186D01*
X70798071Y-56049200D01*
X70813423Y-56118516D01*
X70788862Y-56185129D01*
X70747680Y-56220813D01*
X70714426Y-56238810D01*
X70714424Y-56238811D01*
X70536762Y-56377091D01*
X70384279Y-56542729D01*
X70384275Y-56542734D01*
X70261141Y-56731206D01*
X70170703Y-56937386D01*
X70170702Y-56937387D01*
X70115437Y-57155624D01*
X70096844Y-57380000D01*
X70115437Y-57604375D01*
X70170702Y-57822612D01*
X70170703Y-57822613D01*
X70261141Y-58028793D01*
X70384275Y-58217265D01*
X70384279Y-58217270D01*
X70536762Y-58382908D01*
X70591331Y-58425381D01*
X70714424Y-58521189D01*
X70747680Y-58539186D01*
X70798071Y-58589200D01*
X70813423Y-58658516D01*
X70788862Y-58725129D01*
X70747680Y-58760813D01*
X70714426Y-58778810D01*
X70714424Y-58778811D01*
X70536762Y-58917091D01*
X70384279Y-59082729D01*
X70384275Y-59082734D01*
X70261141Y-59271206D01*
X70170703Y-59477386D01*
X70170702Y-59477387D01*
X70115437Y-59695624D01*
X70096844Y-59920000D01*
X70115437Y-60144375D01*
X70170702Y-60362612D01*
X70170703Y-60362613D01*
X70170704Y-60362616D01*
X70192615Y-60412568D01*
X70261141Y-60568793D01*
X70384275Y-60757265D01*
X70384279Y-60757270D01*
X70536762Y-60922908D01*
X70591331Y-60965381D01*
X70714424Y-61061189D01*
X70747680Y-61079186D01*
X70798071Y-61129200D01*
X70813423Y-61198516D01*
X70788862Y-61265129D01*
X70747680Y-61300814D01*
X70714426Y-61318810D01*
X70714424Y-61318811D01*
X70536762Y-61457091D01*
X70384279Y-61622729D01*
X70384275Y-61622734D01*
X70261141Y-61811206D01*
X70170703Y-62017386D01*
X70170702Y-62017387D01*
X70115437Y-62235624D01*
X70096844Y-62460000D01*
X70115437Y-62684375D01*
X70170702Y-62902612D01*
X70170703Y-62902613D01*
X70170704Y-62902616D01*
X70259102Y-63104145D01*
X70261141Y-63108793D01*
X70384275Y-63297265D01*
X70384279Y-63297270D01*
X70536762Y-63462908D01*
X70591331Y-63505381D01*
X70714424Y-63601189D01*
X70748205Y-63619470D01*
X70798596Y-63669482D01*
X70813949Y-63738799D01*
X70789389Y-63805412D01*
X70748208Y-63841097D01*
X70714700Y-63859230D01*
X70714693Y-63859235D01*
X70694311Y-63875099D01*
X70694310Y-63875100D01*
X71335052Y-64515842D01*
X71267007Y-64534075D01*
X71152993Y-64599901D01*
X71059901Y-64692993D01*
X70994075Y-64807007D01*
X70975842Y-64875052D01*
X70336921Y-64236131D01*
X70336920Y-64236132D01*
X70261586Y-64351439D01*
X70261579Y-64351453D01*
X70171179Y-64557543D01*
X70171176Y-64557550D01*
X70115932Y-64775707D01*
X70097346Y-65000000D01*
X70115932Y-65224292D01*
X70171176Y-65442449D01*
X70171179Y-65442456D01*
X70261580Y-65648548D01*
X70336921Y-65763866D01*
X70975841Y-65124946D01*
X70994075Y-65192993D01*
X71059901Y-65307007D01*
X71152993Y-65400099D01*
X71267007Y-65465925D01*
X71335051Y-65484157D01*
X70694310Y-66124898D01*
X70714697Y-66140766D01*
X70714701Y-66140768D01*
X70912628Y-66247882D01*
X70912630Y-66247883D01*
X71125483Y-66320955D01*
X71125490Y-66320957D01*
X71347477Y-66358000D01*
X71572523Y-66358000D01*
X71794509Y-66320957D01*
X71794516Y-66320955D01*
X72007369Y-66247883D01*
X72007371Y-66247881D01*
X72205298Y-66140769D01*
X72225688Y-66124898D01*
X71584947Y-65484157D01*
X71652993Y-65465925D01*
X71767007Y-65400099D01*
X71860099Y-65307007D01*
X71925925Y-65192993D01*
X71944158Y-65124947D01*
X72594016Y-65774804D01*
X72621919Y-65779947D01*
X72673699Y-65828520D01*
X72684701Y-65852774D01*
X72707883Y-65922734D01*
X72707884Y-65922736D01*
X72707885Y-65922738D01*
X72745280Y-65983364D01*
X72800970Y-66073652D01*
X72800975Y-66073658D01*
X72926341Y-66199024D01*
X72926347Y-66199029D01*
X72926348Y-66199030D01*
X73077262Y-66292115D01*
X73245574Y-66347887D01*
X73349455Y-66358500D01*
X74650544Y-66358499D01*
X74754426Y-66347887D01*
X74922738Y-66292115D01*
X75073652Y-66199030D01*
X75199030Y-66073652D01*
X75292115Y-65922738D01*
X75347887Y-65754426D01*
X75358500Y-65650545D01*
X75358499Y-64349456D01*
X75347887Y-64245574D01*
X75292115Y-64077262D01*
X75199030Y-63926348D01*
X75199029Y-63926347D01*
X75199024Y-63926341D01*
X75073658Y-63800975D01*
X75073652Y-63800970D01*
X75001151Y-63756251D01*
X74922738Y-63707885D01*
X74922734Y-63707883D01*
X74922733Y-63707883D01*
X74916086Y-63704783D01*
X74917055Y-63702704D01*
X74867819Y-63668611D01*
X74840567Y-63603053D01*
X74853085Y-63533168D01*
X74888438Y-63489994D01*
X74923235Y-63462910D01*
X74923237Y-63462908D01*
X74923240Y-63462906D01*
X75075722Y-63297268D01*
X75198860Y-63108791D01*
X75289296Y-62902616D01*
X75344564Y-62684368D01*
X75363156Y-62460000D01*
X75344564Y-62235632D01*
X75289296Y-62017384D01*
X75281721Y-62000114D01*
X75272674Y-61929696D01*
X75303134Y-61865566D01*
X75363431Y-61828084D01*
X75397108Y-61823500D01*
X77108706Y-61823500D01*
X77176827Y-61843502D01*
X77197801Y-61860405D01*
X80981229Y-65643833D01*
X81069467Y-65732071D01*
X81173225Y-65801400D01*
X81268730Y-65840960D01*
X81288512Y-65849154D01*
X81288513Y-65849154D01*
X81288515Y-65849155D01*
X81345910Y-65860571D01*
X81408819Y-65893479D01*
X81438618Y-65938118D01*
X81456375Y-65983364D01*
X81584410Y-66205127D01*
X81584412Y-66205130D01*
X81584413Y-66205131D01*
X81744069Y-66405334D01*
X81931781Y-66579505D01*
X81931787Y-66579509D01*
X82143345Y-66723748D01*
X82143352Y-66723752D01*
X82143355Y-66723754D01*
X82229014Y-66765005D01*
X82374060Y-66834856D01*
X82374073Y-66834861D01*
X82618746Y-66910332D01*
X82618748Y-66910332D01*
X82618757Y-66910335D01*
X82871966Y-66948500D01*
X82871970Y-66948500D01*
X83128030Y-66948500D01*
X83128034Y-66948500D01*
X83381243Y-66910335D01*
X83381253Y-66910332D01*
X83625929Y-66834860D01*
X83625930Y-66834859D01*
X83625935Y-66834858D01*
X83816086Y-66743286D01*
X83856640Y-66723757D01*
X83856640Y-66723756D01*
X83856646Y-66723754D01*
X84068219Y-66579505D01*
X84255931Y-66405334D01*
X84415587Y-66205131D01*
X84543622Y-65983369D01*
X84561381Y-65938118D01*
X84604885Y-65882014D01*
X84654087Y-65860571D01*
X84711485Y-65849155D01*
X84826775Y-65801400D01*
X84930533Y-65732071D01*
X86278899Y-64383705D01*
X86341211Y-64349679D01*
X86367994Y-64346800D01*
X88330374Y-64346800D01*
X88398495Y-64366802D01*
X88444988Y-64420458D01*
X88455092Y-64490732D01*
X88447664Y-64518833D01*
X88362827Y-64734994D01*
X88362826Y-64734997D01*
X88305845Y-64984643D01*
X88286709Y-65240000D01*
X88305845Y-65495356D01*
X88362826Y-65745002D01*
X88362827Y-65745005D01*
X88456374Y-65983362D01*
X88456376Y-65983366D01*
X88584410Y-66205127D01*
X88584412Y-66205130D01*
X88584413Y-66205131D01*
X88744069Y-66405334D01*
X88931781Y-66579505D01*
X89019896Y-66639581D01*
X89064912Y-66694482D01*
X89073101Y-66765005D01*
X89041862Y-66828759D01*
X89038012Y-66832782D01*
X83536167Y-72334629D01*
X83447931Y-72422864D01*
X83447926Y-72422871D01*
X83378601Y-72526623D01*
X83330846Y-72641912D01*
X83306500Y-72764303D01*
X83306500Y-83373078D01*
X83286498Y-83441199D01*
X83240471Y-83483891D01*
X83194426Y-83508810D01*
X83194424Y-83508811D01*
X83016762Y-83647091D01*
X82955754Y-83713363D01*
X82894901Y-83749933D01*
X82823936Y-83747798D01*
X82765391Y-83707636D01*
X82744999Y-83672057D01*
X82700889Y-83553797D01*
X82700887Y-83553792D01*
X82613261Y-83436738D01*
X82496207Y-83349112D01*
X82496202Y-83349110D01*
X82359204Y-83298011D01*
X82359196Y-83298009D01*
X82298649Y-83291500D01*
X82298638Y-83291500D01*
X80501362Y-83291500D01*
X80501350Y-83291500D01*
X80440803Y-83298009D01*
X80440795Y-83298011D01*
X80303797Y-83349110D01*
X80303792Y-83349112D01*
X80186738Y-83436738D01*
X80099112Y-83553792D01*
X80099110Y-83553797D01*
X80048011Y-83690795D01*
X80048009Y-83690803D01*
X80041500Y-83751350D01*
X80041500Y-85548649D01*
X80048009Y-85609196D01*
X80048011Y-85609204D01*
X80099110Y-85746202D01*
X80099112Y-85746207D01*
X80186738Y-85863261D01*
X80303792Y-85950887D01*
X80303794Y-85950888D01*
X80303796Y-85950889D01*
X80357600Y-85970957D01*
X80440795Y-86001988D01*
X80440803Y-86001990D01*
X80501350Y-86008499D01*
X80501355Y-86008499D01*
X80501362Y-86008500D01*
X80501368Y-86008500D01*
X82298632Y-86008500D01*
X82298638Y-86008500D01*
X82298645Y-86008499D01*
X82298649Y-86008499D01*
X82359196Y-86001990D01*
X82359199Y-86001989D01*
X82359201Y-86001989D01*
X82496204Y-85950889D01*
X82566399Y-85898342D01*
X82613261Y-85863261D01*
X82700886Y-85746208D01*
X82700885Y-85746208D01*
X82700889Y-85746204D01*
X82744999Y-85627939D01*
X82787545Y-85571107D01*
X82854066Y-85546296D01*
X82923440Y-85561388D01*
X82955753Y-85586635D01*
X82976529Y-85609204D01*
X83016762Y-85652908D01*
X83026302Y-85660333D01*
X83194424Y-85791189D01*
X83392426Y-85898342D01*
X83392427Y-85898342D01*
X83392428Y-85898343D01*
X83504227Y-85936723D01*
X83605365Y-85971444D01*
X83827431Y-86008500D01*
X83827435Y-86008500D01*
X84052565Y-86008500D01*
X84052569Y-86008500D01*
X84274635Y-85971444D01*
X84487574Y-85898342D01*
X84685576Y-85791189D01*
X84863240Y-85652906D01*
X85015722Y-85487268D01*
X85104518Y-85351354D01*
X85158520Y-85305268D01*
X85228868Y-85295692D01*
X85293225Y-85325669D01*
X85315480Y-85351353D01*
X85348607Y-85402058D01*
X85404275Y-85487265D01*
X85404279Y-85487270D01*
X85556762Y-85652908D01*
X85566302Y-85660333D01*
X85734424Y-85791189D01*
X85932426Y-85898342D01*
X85932427Y-85898342D01*
X85932428Y-85898343D01*
X86044227Y-85936723D01*
X86145365Y-85971444D01*
X86367431Y-86008500D01*
X86367435Y-86008500D01*
X86592565Y-86008500D01*
X86592569Y-86008500D01*
X86814635Y-85971444D01*
X87027574Y-85898342D01*
X87225576Y-85791189D01*
X87403240Y-85652906D01*
X87555722Y-85487268D01*
X87644518Y-85351354D01*
X87698520Y-85305268D01*
X87768868Y-85295692D01*
X87833225Y-85325669D01*
X87855480Y-85351353D01*
X87888607Y-85402058D01*
X87944275Y-85487265D01*
X87944279Y-85487270D01*
X88096762Y-85652908D01*
X88106302Y-85660333D01*
X88274424Y-85791189D01*
X88472426Y-85898342D01*
X88472427Y-85898342D01*
X88472428Y-85898343D01*
X88584227Y-85936723D01*
X88685365Y-85971444D01*
X88907431Y-86008500D01*
X88907435Y-86008500D01*
X89132565Y-86008500D01*
X89132569Y-86008500D01*
X89354635Y-85971444D01*
X89567574Y-85898342D01*
X89765576Y-85791189D01*
X89943240Y-85652906D01*
X90095722Y-85487268D01*
X90184816Y-85350898D01*
X90238819Y-85304810D01*
X90309167Y-85295235D01*
X90373524Y-85325212D01*
X90395782Y-85350898D01*
X90484674Y-85486958D01*
X90637097Y-85652534D01*
X90814698Y-85790767D01*
X90814699Y-85790768D01*
X91012628Y-85897882D01*
X91012630Y-85897883D01*
X91225483Y-85970955D01*
X91225492Y-85970957D01*
X91306000Y-85984391D01*
X91306000Y-85080702D01*
X91367007Y-85115925D01*
X91494174Y-85150000D01*
X91625826Y-85150000D01*
X91752993Y-85115925D01*
X91814000Y-85080702D01*
X91814000Y-85984390D01*
X91894507Y-85970957D01*
X91894516Y-85970955D01*
X92107369Y-85897883D01*
X92107371Y-85897882D01*
X92305300Y-85790768D01*
X92305301Y-85790767D01*
X92482902Y-85652534D01*
X92635325Y-85486958D01*
X92758419Y-85298548D01*
X92848820Y-85092456D01*
X92848823Y-85092449D01*
X92872234Y-85000000D01*
X122136656Y-85000000D01*
X122156016Y-85332403D01*
X122156016Y-85332409D01*
X122156017Y-85332414D01*
X122213838Y-85660333D01*
X122309337Y-85979321D01*
X122309339Y-85979327D01*
X122309340Y-85979328D01*
X122441220Y-86285063D01*
X122441222Y-86285066D01*
X122607711Y-86573433D01*
X122607714Y-86573437D01*
X122806552Y-86840523D01*
X123035057Y-87082724D01*
X123290134Y-87296758D01*
X123568320Y-87479724D01*
X123568328Y-87479729D01*
X123865887Y-87629169D01*
X124022335Y-87686111D01*
X124178775Y-87743051D01*
X124178776Y-87743051D01*
X124178784Y-87743054D01*
X124502786Y-87819843D01*
X124691771Y-87841932D01*
X124833508Y-87858500D01*
X124833511Y-87858500D01*
X125166492Y-87858500D01*
X125290510Y-87844003D01*
X125497214Y-87819843D01*
X125821216Y-87743054D01*
X126134113Y-87629169D01*
X126431672Y-87479729D01*
X126709870Y-87296755D01*
X126964946Y-87082721D01*
X127193449Y-86840522D01*
X127392289Y-86573433D01*
X127558778Y-86285066D01*
X127690663Y-85979321D01*
X127786162Y-85660333D01*
X127843983Y-85332414D01*
X127863344Y-85000000D01*
X127843983Y-84667586D01*
X127786162Y-84339667D01*
X127690663Y-84020679D01*
X127558778Y-83714934D01*
X127392289Y-83426567D01*
X127193449Y-83159478D01*
X126964946Y-82917279D01*
X126964944Y-82917278D01*
X126964942Y-82917275D01*
X126709865Y-82703241D01*
X126431679Y-82520275D01*
X126431675Y-82520273D01*
X126431672Y-82520271D01*
X126134113Y-82370831D01*
X126134108Y-82370829D01*
X126134103Y-82370827D01*
X125821224Y-82256948D01*
X125821217Y-82256946D01*
X125821216Y-82256946D01*
X125639258Y-82213821D01*
X125497219Y-82180158D01*
X125497209Y-82180156D01*
X125166492Y-82141500D01*
X125166489Y-82141500D01*
X124833511Y-82141500D01*
X124833508Y-82141500D01*
X124502790Y-82180156D01*
X124502780Y-82180158D01*
X124178784Y-82256946D01*
X124178775Y-82256948D01*
X123865896Y-82370827D01*
X123865891Y-82370829D01*
X123568320Y-82520275D01*
X123290134Y-82703241D01*
X123035057Y-82917275D01*
X122806552Y-83159476D01*
X122607714Y-83426562D01*
X122607704Y-83426578D01*
X122441223Y-83714931D01*
X122441220Y-83714936D01*
X122309340Y-84020671D01*
X122309338Y-84020677D01*
X122213838Y-84339666D01*
X122156016Y-84667590D01*
X122156016Y-84667596D01*
X122136656Y-85000000D01*
X92872234Y-85000000D01*
X92896544Y-84904000D01*
X91990703Y-84904000D01*
X92025925Y-84842993D01*
X92060000Y-84715826D01*
X92060000Y-84584174D01*
X92025925Y-84457007D01*
X91990703Y-84396000D01*
X92896544Y-84396000D01*
X92896544Y-84395999D01*
X92848823Y-84207550D01*
X92848820Y-84207543D01*
X92758419Y-84001451D01*
X92635325Y-83813041D01*
X92482902Y-83647465D01*
X92305301Y-83509232D01*
X92305300Y-83509231D01*
X92107371Y-83402117D01*
X92107369Y-83402116D01*
X91894512Y-83329043D01*
X91894501Y-83329040D01*
X91814000Y-83315606D01*
X91814000Y-84219297D01*
X91752993Y-84184075D01*
X91625826Y-84150000D01*
X91494174Y-84150000D01*
X91367007Y-84184075D01*
X91306000Y-84219297D01*
X91306000Y-83315607D01*
X91305999Y-83315606D01*
X91225498Y-83329040D01*
X91225487Y-83329043D01*
X91012630Y-83402116D01*
X91012628Y-83402117D01*
X90814699Y-83509231D01*
X90814698Y-83509232D01*
X90637097Y-83647465D01*
X90484670Y-83813045D01*
X90395780Y-83949101D01*
X90341776Y-83995189D01*
X90271428Y-84004764D01*
X90207071Y-83974786D01*
X90184816Y-83949101D01*
X90145884Y-83889511D01*
X90095724Y-83812734D01*
X90095720Y-83812729D01*
X89966220Y-83672057D01*
X89943240Y-83647094D01*
X89943239Y-83647093D01*
X89943237Y-83647091D01*
X89823367Y-83553792D01*
X89765576Y-83508811D01*
X89567574Y-83401658D01*
X89567572Y-83401657D01*
X89567571Y-83401656D01*
X89354639Y-83328557D01*
X89354630Y-83328555D01*
X89277029Y-83315606D01*
X89132569Y-83291500D01*
X88907431Y-83291500D01*
X88762971Y-83315606D01*
X88685369Y-83328555D01*
X88685360Y-83328557D01*
X88472428Y-83401656D01*
X88472426Y-83401658D01*
X88274426Y-83508810D01*
X88274424Y-83508811D01*
X88096762Y-83647091D01*
X87944279Y-83812729D01*
X87855483Y-83948643D01*
X87801479Y-83994731D01*
X87731131Y-84004306D01*
X87666774Y-83974329D01*
X87644517Y-83948643D01*
X87555720Y-83812729D01*
X87426220Y-83672057D01*
X87403240Y-83647094D01*
X87403239Y-83647093D01*
X87403237Y-83647091D01*
X87283367Y-83553792D01*
X87225576Y-83508811D01*
X87027574Y-83401658D01*
X87027572Y-83401657D01*
X87027571Y-83401656D01*
X86814639Y-83328557D01*
X86814630Y-83328555D01*
X86737029Y-83315606D01*
X86592569Y-83291500D01*
X86367431Y-83291500D01*
X86222971Y-83315606D01*
X86145369Y-83328555D01*
X86145360Y-83328557D01*
X85932428Y-83401656D01*
X85932426Y-83401658D01*
X85734426Y-83508810D01*
X85734424Y-83508811D01*
X85556762Y-83647091D01*
X85404279Y-83812729D01*
X85315483Y-83948643D01*
X85261479Y-83994731D01*
X85191131Y-84004306D01*
X85126774Y-83974329D01*
X85104517Y-83948643D01*
X85015720Y-83812729D01*
X84886220Y-83672057D01*
X84863240Y-83647094D01*
X84863239Y-83647093D01*
X84863237Y-83647091D01*
X84743367Y-83553792D01*
X84685576Y-83508811D01*
X84657620Y-83493681D01*
X84639529Y-83483891D01*
X84589139Y-83433877D01*
X84573500Y-83373078D01*
X84573500Y-73141294D01*
X84593502Y-73073173D01*
X84610405Y-73052199D01*
X85327975Y-72334629D01*
X90492071Y-67170533D01*
X90561400Y-67066775D01*
X90609155Y-66951485D01*
X90620768Y-66893099D01*
X90653673Y-66830192D01*
X90689671Y-66804163D01*
X90856646Y-66723754D01*
X91068219Y-66579505D01*
X91255931Y-66405334D01*
X91415587Y-66205131D01*
X91543622Y-65983369D01*
X91637174Y-65745001D01*
X91694155Y-65495353D01*
X91713291Y-65240000D01*
X91694155Y-64984647D01*
X91637174Y-64734999D01*
X91597789Y-64634647D01*
X91552336Y-64518833D01*
X91546068Y-64448113D01*
X91579029Y-64385232D01*
X91640754Y-64350153D01*
X91669626Y-64346800D01*
X94382006Y-64346800D01*
X94450127Y-64366802D01*
X94471101Y-64383705D01*
X95469467Y-65382071D01*
X95573225Y-65451400D01*
X95668730Y-65490960D01*
X95688512Y-65499154D01*
X95688513Y-65499154D01*
X95688515Y-65499155D01*
X95745910Y-65510571D01*
X95808819Y-65543479D01*
X95838618Y-65588118D01*
X95856375Y-65633364D01*
X95984410Y-65855127D01*
X95984412Y-65855130D01*
X95984413Y-65855131D01*
X96144069Y-66055334D01*
X96331781Y-66229505D01*
X96331787Y-66229509D01*
X96543345Y-66373748D01*
X96543352Y-66373752D01*
X96543355Y-66373754D01*
X96608932Y-66405334D01*
X96774060Y-66484856D01*
X96774073Y-66484861D01*
X97018746Y-66560332D01*
X97018748Y-66560332D01*
X97018757Y-66560335D01*
X97271966Y-66598500D01*
X97271970Y-66598500D01*
X97528030Y-66598500D01*
X97528034Y-66598500D01*
X97781243Y-66560335D01*
X97781253Y-66560332D01*
X98025929Y-66484860D01*
X98025930Y-66484859D01*
X98025935Y-66484858D01*
X98256646Y-66373754D01*
X98468219Y-66229505D01*
X98655931Y-66055334D01*
X98815587Y-65855131D01*
X98943622Y-65633369D01*
X99037174Y-65395001D01*
X99094155Y-65145353D01*
X99113291Y-64890000D01*
X99094155Y-64634647D01*
X99037174Y-64384999D01*
X99023312Y-64349679D01*
X98943625Y-64146637D01*
X98943623Y-64146633D01*
X98902074Y-64074669D01*
X98881596Y-64039199D01*
X98815589Y-63924872D01*
X98815587Y-63924869D01*
X98655931Y-63724666D01*
X98468219Y-63550495D01*
X98464002Y-63547620D01*
X98256647Y-63406247D01*
X98256646Y-63406246D01*
X98256643Y-63406245D01*
X98256641Y-63406243D01*
X98256640Y-63406242D01*
X98025936Y-63295142D01*
X98025929Y-63295139D01*
X97781253Y-63219667D01*
X97781245Y-63219665D01*
X97781243Y-63219665D01*
X97528034Y-63181500D01*
X97271966Y-63181500D01*
X97018757Y-63219665D01*
X97018755Y-63219665D01*
X97018746Y-63219667D01*
X96774073Y-63295138D01*
X96774060Y-63295143D01*
X96543352Y-63406247D01*
X96543345Y-63406251D01*
X96331787Y-63550490D01*
X96331782Y-63550494D01*
X96331781Y-63550495D01*
X96147195Y-63721766D01*
X96144066Y-63724669D01*
X95992309Y-63914965D01*
X95934199Y-63955753D01*
X95863261Y-63958648D01*
X95804704Y-63925500D01*
X95100435Y-63221231D01*
X95100433Y-63221229D01*
X94996675Y-63151900D01*
X94881385Y-63104145D01*
X94807686Y-63089485D01*
X94758996Y-63079800D01*
X94758994Y-63079800D01*
X86115794Y-63079800D01*
X85991006Y-63079800D01*
X85991003Y-63079800D01*
X85917968Y-63094328D01*
X85868615Y-63104145D01*
X85868613Y-63104145D01*
X85868612Y-63104146D01*
X85753323Y-63151901D01*
X85649571Y-63221226D01*
X85649569Y-63221227D01*
X84595294Y-64275501D01*
X84532982Y-64309526D01*
X84462166Y-64304461D01*
X84407688Y-64264964D01*
X84384695Y-64236132D01*
X84255931Y-64074666D01*
X84068219Y-63900495D01*
X83856646Y-63756246D01*
X83856643Y-63756245D01*
X83856641Y-63756243D01*
X83856640Y-63756242D01*
X83625936Y-63645142D01*
X83625929Y-63645139D01*
X83381253Y-63569667D01*
X83381245Y-63569665D01*
X83381243Y-63569665D01*
X83128034Y-63531500D01*
X82871966Y-63531500D01*
X82618757Y-63569665D01*
X82618755Y-63569665D01*
X82618746Y-63569667D01*
X82374073Y-63645138D01*
X82374060Y-63645143D01*
X82143352Y-63756247D01*
X82143345Y-63756251D01*
X81931787Y-63900490D01*
X81931782Y-63900494D01*
X81931781Y-63900495D01*
X81782294Y-64039199D01*
X81744066Y-64074669D01*
X81592309Y-64264965D01*
X81534199Y-64305753D01*
X81463261Y-64308648D01*
X81404704Y-64275500D01*
X77827135Y-60697931D01*
X77827133Y-60697929D01*
X77723375Y-60628600D01*
X77608085Y-60580845D01*
X77534386Y-60566185D01*
X77485696Y-60556500D01*
X77485694Y-60556500D01*
X75397108Y-60556500D01*
X75328987Y-60536498D01*
X75285363Y-60486153D01*
X104441614Y-60486153D01*
X128411471Y-60486153D01*
X128411471Y-57155703D01*
X104441614Y-57155703D01*
X104441614Y-60486153D01*
X75285363Y-60486153D01*
X75282494Y-60482842D01*
X75272390Y-60412568D01*
X75281721Y-60379886D01*
X75283964Y-60374769D01*
X75289296Y-60362616D01*
X75344564Y-60144368D01*
X75363156Y-59920000D01*
X75344564Y-59695632D01*
X75289296Y-59477384D01*
X75198860Y-59271209D01*
X75192140Y-59260924D01*
X75075724Y-59082734D01*
X75075720Y-59082729D01*
X74923237Y-58917091D01*
X74841382Y-58853381D01*
X74745576Y-58778811D01*
X74712319Y-58760813D01*
X74661929Y-58710802D01*
X74646576Y-58641485D01*
X74671136Y-58574872D01*
X74712320Y-58539186D01*
X74745576Y-58521189D01*
X74923240Y-58382906D01*
X75075722Y-58217268D01*
X75198860Y-58028791D01*
X75289296Y-57822616D01*
X75344564Y-57604368D01*
X75363156Y-57380000D01*
X75344564Y-57155632D01*
X75289296Y-56937384D01*
X75198860Y-56731209D01*
X75192140Y-56720924D01*
X75075724Y-56542734D01*
X75075720Y-56542729D01*
X74923237Y-56377091D01*
X74841382Y-56313381D01*
X74745576Y-56238811D01*
X74712319Y-56220813D01*
X74661929Y-56170802D01*
X74646576Y-56101485D01*
X74671136Y-56034872D01*
X74712320Y-55999186D01*
X74745576Y-55981189D01*
X74923240Y-55842906D01*
X75075722Y-55677268D01*
X75171555Y-55530585D01*
X75225558Y-55484496D01*
X75277038Y-55473500D01*
X78222393Y-55473500D01*
X78222394Y-55473500D01*
X78344785Y-55449155D01*
X78460075Y-55401400D01*
X78563833Y-55332071D01*
X82264575Y-51631327D01*
X82326885Y-51597304D01*
X82390806Y-51600021D01*
X82465039Y-51622919D01*
X82618746Y-51670332D01*
X82618748Y-51670332D01*
X82618757Y-51670335D01*
X82871966Y-51708500D01*
X82871970Y-51708500D01*
X83128030Y-51708500D01*
X83128034Y-51708500D01*
X83381243Y-51670335D01*
X83381253Y-51670332D01*
X83625929Y-51594860D01*
X83625930Y-51594859D01*
X83625935Y-51594858D01*
X83856646Y-51483754D01*
X84068219Y-51339505D01*
X84255931Y-51165334D01*
X84415587Y-50965131D01*
X84543622Y-50743369D01*
X84547688Y-50733010D01*
X84555358Y-50713467D01*
X84598865Y-50657362D01*
X84665798Y-50633686D01*
X84672648Y-50633500D01*
X88327352Y-50633500D01*
X88395473Y-50653502D01*
X88441966Y-50707158D01*
X88444642Y-50713467D01*
X88456376Y-50743366D01*
X88584410Y-50965127D01*
X88584412Y-50965130D01*
X88584413Y-50965131D01*
X88744069Y-51165334D01*
X88931781Y-51339505D01*
X88931787Y-51339509D01*
X89143345Y-51483748D01*
X89143352Y-51483752D01*
X89143355Y-51483754D01*
X89252117Y-51536131D01*
X89374060Y-51594856D01*
X89374073Y-51594861D01*
X89618746Y-51670332D01*
X89618748Y-51670332D01*
X89618757Y-51670335D01*
X89871966Y-51708500D01*
X89871970Y-51708500D01*
X90128030Y-51708500D01*
X90128034Y-51708500D01*
X90381243Y-51670335D01*
X90381253Y-51670332D01*
X90625929Y-51594860D01*
X90625930Y-51594859D01*
X90625935Y-51594858D01*
X90856646Y-51483754D01*
X91068219Y-51339505D01*
X91255931Y-51165334D01*
X91415587Y-50965131D01*
X91543622Y-50743369D01*
X91548287Y-50731484D01*
X91629770Y-50523866D01*
X91637174Y-50505001D01*
X91694155Y-50255353D01*
X91713291Y-50000000D01*
X91694155Y-49744647D01*
X91672552Y-49650000D01*
X95686709Y-49650000D01*
X95705845Y-49905356D01*
X95762826Y-50155002D01*
X95762827Y-50155005D01*
X95856374Y-50393362D01*
X95856376Y-50393366D01*
X95984410Y-50615127D01*
X95984412Y-50615130D01*
X95984413Y-50615131D01*
X96144069Y-50815334D01*
X96331781Y-50989505D01*
X96331787Y-50989509D01*
X96543345Y-51133748D01*
X96543352Y-51133752D01*
X96543355Y-51133754D01*
X96608932Y-51165334D01*
X96774060Y-51244856D01*
X96774073Y-51244861D01*
X97018746Y-51320332D01*
X97018748Y-51320332D01*
X97018757Y-51320335D01*
X97271966Y-51358500D01*
X97271970Y-51358500D01*
X97528030Y-51358500D01*
X97528034Y-51358500D01*
X97781243Y-51320335D01*
X97856599Y-51297091D01*
X98025929Y-51244860D01*
X98025930Y-51244859D01*
X98025935Y-51244858D01*
X98256646Y-51133754D01*
X98468219Y-50989505D01*
X98517744Y-50943553D01*
X105613910Y-50943553D01*
X111933528Y-50943553D01*
X112001649Y-50963555D01*
X112048142Y-51017211D01*
X112058246Y-51087485D01*
X112028752Y-51152065D01*
X112022623Y-51158648D01*
X111993643Y-51187628D01*
X111993643Y-51187629D01*
X111993643Y-54018553D01*
X118536653Y-54018553D01*
X118536653Y-51187628D01*
X118507673Y-51158648D01*
X118473647Y-51096336D01*
X118478712Y-51025521D01*
X118521259Y-50968685D01*
X118587779Y-50943874D01*
X118596768Y-50943553D01*
X123229511Y-50943553D01*
X123229511Y-48113103D01*
X105613910Y-48113103D01*
X105613910Y-50943553D01*
X98517744Y-50943553D01*
X98655931Y-50815334D01*
X98815587Y-50615131D01*
X98943622Y-50393369D01*
X99037174Y-50155001D01*
X99094155Y-49905353D01*
X99113291Y-49650000D01*
X99094155Y-49394647D01*
X99037174Y-49144999D01*
X99024003Y-49111439D01*
X98943625Y-48906637D01*
X98943623Y-48906633D01*
X98815589Y-48684872D01*
X98796149Y-48660495D01*
X98655931Y-48484666D01*
X98468219Y-48310495D01*
X98256646Y-48166246D01*
X98256643Y-48166245D01*
X98256641Y-48166243D01*
X98256640Y-48166242D01*
X98025936Y-48055142D01*
X98025929Y-48055139D01*
X97781253Y-47979667D01*
X97781245Y-47979665D01*
X97781243Y-47979665D01*
X97528034Y-47941500D01*
X97271966Y-47941500D01*
X97018757Y-47979665D01*
X97018755Y-47979665D01*
X97018746Y-47979667D01*
X96774073Y-48055138D01*
X96774060Y-48055143D01*
X96543352Y-48166247D01*
X96543345Y-48166251D01*
X96331787Y-48310490D01*
X96331782Y-48310494D01*
X96229775Y-48405143D01*
X96144069Y-48484666D01*
X96122178Y-48512117D01*
X95984410Y-48684872D01*
X95856376Y-48906633D01*
X95856374Y-48906637D01*
X95762827Y-49144994D01*
X95762826Y-49144997D01*
X95705845Y-49394643D01*
X95686709Y-49650000D01*
X91672552Y-49650000D01*
X91637174Y-49494999D01*
X91597789Y-49394647D01*
X91543625Y-49256637D01*
X91543623Y-49256633D01*
X91415589Y-49034872D01*
X91384695Y-48996132D01*
X91255931Y-48834666D01*
X91068219Y-48660495D01*
X90856646Y-48516246D01*
X90856643Y-48516245D01*
X90856641Y-48516243D01*
X90856640Y-48516242D01*
X90625936Y-48405142D01*
X90625929Y-48405139D01*
X90381253Y-48329667D01*
X90381245Y-48329665D01*
X90381243Y-48329665D01*
X90128034Y-48291500D01*
X89871966Y-48291500D01*
X89618757Y-48329665D01*
X89618755Y-48329665D01*
X89618746Y-48329667D01*
X89374073Y-48405138D01*
X89374060Y-48405143D01*
X89143352Y-48516247D01*
X89143345Y-48516251D01*
X88931787Y-48660490D01*
X88931782Y-48660494D01*
X88744070Y-48834665D01*
X88584410Y-49034872D01*
X88456376Y-49256633D01*
X88444642Y-49286533D01*
X88401135Y-49342638D01*
X88334202Y-49366314D01*
X88327352Y-49366500D01*
X84672648Y-49366500D01*
X84604527Y-49346498D01*
X84558034Y-49292842D01*
X84555358Y-49286533D01*
X84543623Y-49256633D01*
X84415589Y-49034872D01*
X84384695Y-48996132D01*
X84255931Y-48834666D01*
X84068219Y-48660495D01*
X83856646Y-48516246D01*
X83856643Y-48516245D01*
X83856641Y-48516243D01*
X83856640Y-48516242D01*
X83625936Y-48405142D01*
X83625929Y-48405139D01*
X83381253Y-48329667D01*
X83381245Y-48329665D01*
X83381243Y-48329665D01*
X83128034Y-48291500D01*
X82871966Y-48291500D01*
X82618757Y-48329665D01*
X82618755Y-48329665D01*
X82618746Y-48329667D01*
X82374073Y-48405138D01*
X82374060Y-48405143D01*
X82143352Y-48516247D01*
X82143345Y-48516251D01*
X81931787Y-48660490D01*
X81931782Y-48660494D01*
X81744070Y-48834665D01*
X81584410Y-49034872D01*
X81456376Y-49256633D01*
X81456374Y-49256637D01*
X81362827Y-49494994D01*
X81362826Y-49494997D01*
X81305845Y-49744643D01*
X81286709Y-50000000D01*
X81305845Y-50255356D01*
X81362826Y-50505002D01*
X81362828Y-50505009D01*
X81399278Y-50597883D01*
X81405546Y-50668602D01*
X81372585Y-50731484D01*
X81371083Y-50733010D01*
X77934501Y-54169595D01*
X77872189Y-54203620D01*
X77845406Y-54206500D01*
X75277038Y-54206500D01*
X75208917Y-54186498D01*
X75171555Y-54149415D01*
X75075724Y-54002734D01*
X75075720Y-54002729D01*
X74923237Y-53837091D01*
X74841382Y-53773381D01*
X74745576Y-53698811D01*
X74712319Y-53680813D01*
X74661929Y-53630802D01*
X74646576Y-53561485D01*
X74671136Y-53494872D01*
X74712320Y-53459186D01*
X74712845Y-53458902D01*
X74745576Y-53441189D01*
X74923240Y-53302906D01*
X75075722Y-53137268D01*
X75198860Y-52948791D01*
X75289296Y-52742616D01*
X75344564Y-52524368D01*
X75363156Y-52300000D01*
X75344564Y-52075632D01*
X75289338Y-51857550D01*
X75289297Y-51857387D01*
X75289296Y-51857386D01*
X75289296Y-51857384D01*
X75198860Y-51651209D01*
X75162046Y-51594861D01*
X75075724Y-51462734D01*
X75075720Y-51462729D01*
X74923237Y-51297091D01*
X74841382Y-51233381D01*
X74745576Y-51158811D01*
X74733110Y-51152065D01*
X74712320Y-51140814D01*
X74661929Y-51090802D01*
X74646576Y-51021485D01*
X74671136Y-50954872D01*
X74712320Y-50919186D01*
X74712322Y-50919185D01*
X74745576Y-50901189D01*
X74923240Y-50762906D01*
X75075722Y-50597268D01*
X75198860Y-50408791D01*
X75289296Y-50202616D01*
X75344564Y-49984368D01*
X75363156Y-49760000D01*
X75344564Y-49535632D01*
X75289338Y-49317550D01*
X75289297Y-49317387D01*
X75289296Y-49317386D01*
X75289296Y-49317384D01*
X75198860Y-49111209D01*
X75123676Y-48996131D01*
X75075724Y-48922734D01*
X75075720Y-48922729D01*
X74923237Y-48757091D01*
X74799131Y-48660495D01*
X74745576Y-48618811D01*
X74547574Y-48511658D01*
X74547572Y-48511657D01*
X74547571Y-48511656D01*
X74334639Y-48438557D01*
X74334630Y-48438555D01*
X74290476Y-48431187D01*
X74112569Y-48401500D01*
X73887431Y-48401500D01*
X73739211Y-48426233D01*
X73665369Y-48438555D01*
X73665360Y-48438557D01*
X73452428Y-48511656D01*
X73452426Y-48511658D01*
X73254426Y-48618810D01*
X73254424Y-48618811D01*
X73076762Y-48757091D01*
X72924279Y-48922729D01*
X72835183Y-49059101D01*
X72781179Y-49105189D01*
X72710831Y-49114764D01*
X72646474Y-49084786D01*
X72624217Y-49059100D01*
X72583078Y-48996132D01*
X71944157Y-49635051D01*
X71925925Y-49567007D01*
X71860099Y-49452993D01*
X71767007Y-49359901D01*
X71652993Y-49294075D01*
X71584947Y-49275841D01*
X72225688Y-48635100D01*
X72225687Y-48635099D01*
X72205308Y-48619237D01*
X72205298Y-48619231D01*
X72007371Y-48512117D01*
X72007369Y-48512116D01*
X71794516Y-48439044D01*
X71794509Y-48439042D01*
X71572523Y-48402000D01*
X71347477Y-48402000D01*
X71125490Y-48439042D01*
X71125483Y-48439044D01*
X70912630Y-48512116D01*
X70912628Y-48512118D01*
X70714700Y-48619230D01*
X70714693Y-48619235D01*
X70694311Y-48635099D01*
X70694310Y-48635100D01*
X71335052Y-49275842D01*
X71267007Y-49294075D01*
X71152993Y-49359901D01*
X71059901Y-49452993D01*
X70994075Y-49567007D01*
X70975842Y-49635052D01*
X70336921Y-48996131D01*
X70336920Y-48996132D01*
X70261586Y-49111439D01*
X70261579Y-49111453D01*
X70171179Y-49317543D01*
X70171176Y-49317550D01*
X70115932Y-49535707D01*
X70097346Y-49760000D01*
X70115932Y-49984292D01*
X70171176Y-50202449D01*
X70171179Y-50202456D01*
X70261580Y-50408548D01*
X70336921Y-50523866D01*
X70975841Y-49884946D01*
X70994075Y-49952993D01*
X71059901Y-50067007D01*
X71152993Y-50160099D01*
X71267007Y-50225925D01*
X71335051Y-50244157D01*
X70694310Y-50884898D01*
X70714697Y-50900766D01*
X70714705Y-50900771D01*
X70748731Y-50919185D01*
X70799122Y-50969197D01*
X70814475Y-51038514D01*
X70789915Y-51105127D01*
X70748735Y-51140811D01*
X70714705Y-51159227D01*
X70714693Y-51159235D01*
X70694311Y-51175099D01*
X70694310Y-51175100D01*
X71335052Y-51815842D01*
X71267007Y-51834075D01*
X71152993Y-51899901D01*
X71059901Y-51992993D01*
X70994075Y-52107007D01*
X70975842Y-52175052D01*
X70336921Y-51536131D01*
X70336920Y-51536132D01*
X70261586Y-51651439D01*
X70261579Y-51651453D01*
X70171179Y-51857543D01*
X70171176Y-51857550D01*
X70115932Y-52075707D01*
X70097346Y-52300000D01*
X70115932Y-52524292D01*
X70171176Y-52742449D01*
X70171179Y-52742456D01*
X70261580Y-52948548D01*
X70336921Y-53063866D01*
X70975841Y-52424946D01*
X70994075Y-52492993D01*
X71059901Y-52607007D01*
X71152993Y-52700099D01*
X71267007Y-52765925D01*
X71335051Y-52784157D01*
X70694310Y-53424898D01*
X70714697Y-53440766D01*
X70714705Y-53440771D01*
X70748207Y-53458902D01*
X70798597Y-53508915D01*
X70813949Y-53578232D01*
X70789388Y-53644845D01*
X70748207Y-53680528D01*
X70714430Y-53698807D01*
X70714424Y-53698811D01*
X70536762Y-53837091D01*
X70384279Y-54002729D01*
X70384275Y-54002734D01*
X70261141Y-54191206D01*
X70170703Y-54397386D01*
X70170702Y-54397387D01*
X70115437Y-54615624D01*
X70096844Y-54840000D01*
X60075500Y-54840000D01*
X60075500Y-35000000D01*
X62136656Y-35000000D01*
X62156016Y-35332403D01*
X62156016Y-35332409D01*
X62156017Y-35332414D01*
X62213838Y-35660333D01*
X62309337Y-35979321D01*
X62309339Y-35979327D01*
X62309340Y-35979328D01*
X62441220Y-36285063D01*
X62441222Y-36285066D01*
X62607711Y-36573433D01*
X62607714Y-36573437D01*
X62806552Y-36840523D01*
X63035057Y-37082724D01*
X63290134Y-37296758D01*
X63568320Y-37479724D01*
X63568328Y-37479729D01*
X63865887Y-37629169D01*
X64022335Y-37686111D01*
X64178775Y-37743051D01*
X64178776Y-37743051D01*
X64178784Y-37743054D01*
X64502786Y-37819843D01*
X64691771Y-37841932D01*
X64833508Y-37858500D01*
X64833511Y-37858500D01*
X65166492Y-37858500D01*
X65290510Y-37844003D01*
X65497214Y-37819843D01*
X65821216Y-37743054D01*
X66134113Y-37629169D01*
X66431672Y-37479729D01*
X66709870Y-37296755D01*
X66964946Y-37082721D01*
X67193449Y-36840522D01*
X67392289Y-36573433D01*
X67558778Y-36285066D01*
X67690663Y-35979321D01*
X67786162Y-35660333D01*
X67843983Y-35332414D01*
X67863344Y-35000000D01*
X122136656Y-35000000D01*
X122156016Y-35332403D01*
X122156016Y-35332409D01*
X122156017Y-35332414D01*
X122213838Y-35660333D01*
X122309337Y-35979321D01*
X122309339Y-35979327D01*
X122309340Y-35979328D01*
X122441220Y-36285063D01*
X122441222Y-36285066D01*
X122607711Y-36573433D01*
X122607714Y-36573437D01*
X122806552Y-36840523D01*
X123035057Y-37082724D01*
X123290134Y-37296758D01*
X123568320Y-37479724D01*
X123568328Y-37479729D01*
X123865887Y-37629169D01*
X124022335Y-37686111D01*
X124178775Y-37743051D01*
X124178776Y-37743051D01*
X124178784Y-37743054D01*
X124502786Y-37819843D01*
X124691771Y-37841932D01*
X124833508Y-37858500D01*
X124833511Y-37858500D01*
X125166492Y-37858500D01*
X125290510Y-37844003D01*
X125497214Y-37819843D01*
X125821216Y-37743054D01*
X126134113Y-37629169D01*
X126431672Y-37479729D01*
X126709870Y-37296755D01*
X126964946Y-37082721D01*
X127193449Y-36840522D01*
X127392289Y-36573433D01*
X127558778Y-36285066D01*
X127690663Y-35979321D01*
X127786162Y-35660333D01*
X127843983Y-35332414D01*
X127863344Y-35000000D01*
X127843983Y-34667586D01*
X127786162Y-34339667D01*
X127690663Y-34020679D01*
X127558778Y-33714934D01*
X127392289Y-33426567D01*
X127193449Y-33159478D01*
X126964946Y-32917279D01*
X126964944Y-32917278D01*
X126964942Y-32917275D01*
X126709865Y-32703241D01*
X126431679Y-32520275D01*
X126431675Y-32520273D01*
X126431672Y-32520271D01*
X126134113Y-32370831D01*
X126134108Y-32370829D01*
X126134103Y-32370827D01*
X125821224Y-32256948D01*
X125821217Y-32256946D01*
X125821216Y-32256946D01*
X125639258Y-32213821D01*
X125497219Y-32180158D01*
X125497209Y-32180156D01*
X125166492Y-32141500D01*
X125166489Y-32141500D01*
X124833511Y-32141500D01*
X124833508Y-32141500D01*
X124502790Y-32180156D01*
X124502780Y-32180158D01*
X124178784Y-32256946D01*
X124178775Y-32256948D01*
X123865896Y-32370827D01*
X123865891Y-32370829D01*
X123568320Y-32520275D01*
X123290134Y-32703241D01*
X123035057Y-32917275D01*
X122806552Y-33159476D01*
X122607714Y-33426562D01*
X122607704Y-33426578D01*
X122441223Y-33714931D01*
X122441220Y-33714936D01*
X122309340Y-34020671D01*
X122309338Y-34020677D01*
X122213838Y-34339666D01*
X122156016Y-34667590D01*
X122156016Y-34667596D01*
X122136656Y-35000000D01*
X67863344Y-35000000D01*
X67843983Y-34667586D01*
X67786162Y-34339667D01*
X67690663Y-34020679D01*
X67558778Y-33714934D01*
X67392289Y-33426567D01*
X67193449Y-33159478D01*
X66964946Y-32917279D01*
X66964944Y-32917278D01*
X66964942Y-32917275D01*
X66709865Y-32703241D01*
X66431679Y-32520275D01*
X66431675Y-32520273D01*
X66431672Y-32520271D01*
X66134113Y-32370831D01*
X66134108Y-32370829D01*
X66134103Y-32370827D01*
X65821224Y-32256948D01*
X65821217Y-32256946D01*
X65821216Y-32256946D01*
X65639258Y-32213821D01*
X65497219Y-32180158D01*
X65497209Y-32180156D01*
X65166492Y-32141500D01*
X65166489Y-32141500D01*
X64833511Y-32141500D01*
X64833508Y-32141500D01*
X64502790Y-32180156D01*
X64502780Y-32180158D01*
X64178784Y-32256946D01*
X64178775Y-32256948D01*
X63865896Y-32370827D01*
X63865891Y-32370829D01*
X63568320Y-32520275D01*
X63290134Y-32703241D01*
X63035057Y-32917275D01*
X62806552Y-33159476D01*
X62607714Y-33426562D01*
X62607704Y-33426578D01*
X62441223Y-33714931D01*
X62441220Y-33714936D01*
X62309340Y-34020671D01*
X62309338Y-34020677D01*
X62213838Y-34339666D01*
X62156016Y-34667590D01*
X62156016Y-34667596D01*
X62136656Y-35000000D01*
X60075500Y-35000000D01*
X60075500Y-30201500D01*
X60095502Y-30133379D01*
X60149158Y-30086886D01*
X60201500Y-30075500D01*
X129798500Y-30075500D01*
X129866621Y-30095502D01*
G37*
G04 #@! TD.AperFunction*
M02*
