M48
; DRILL file {KiCad 8.0.6} date 2025-01-18T13:28:56-0500
; FORMAT={-:-/ absolute / inch / decimal}
; #@! TF.CreationDate,2025-01-18T13:28:56-05:00
; #@! TF.GenerationSoftware,Kicad,Pcbnew,8.0.6
; #@! TF.FileFunction,Plated,1,2,PTH
FMAT,2
INCH
; #@! TA.AperFunction,Plated,PTH,ComponentDrill
T1C0.0394
; #@! TA.AperFunction,Plated,PTH,ComponentDrill
T2C0.0472
; #@! TA.AperFunction,Plated,PTH,ComponentDrill
T3C0.1063
%
G90
G05
T1
X2.8134Y-1.9591
X2.8134Y-2.0591
X2.8134Y-2.1591
X2.8134Y-2.2591
X2.8134Y-2.3591
X2.8134Y-2.4591
X2.8134Y-2.5591
X2.9134Y-1.9591
X2.9134Y-2.0591
X2.9134Y-2.1591
X2.9134Y-2.2591
X2.9134Y-2.3591
X2.9134Y-2.4591
X2.9134Y-2.5591
X3.2047Y-3.3327
X3.3047Y-3.3327
X3.4047Y-3.3327
X3.5047Y-3.3327
X3.6047Y-3.3327
T2
X3.2677Y-1.9685
X3.2677Y-2.5685
X3.5433Y-1.9685
X3.5433Y-2.5685
X3.8346Y-1.9547
X3.8346Y-2.5547
T3
X2.5591Y-1.378
X2.5591Y-3.3465
X4.9213Y-1.378
X4.9213Y-3.3465
M30
