G04 #@! TF.GenerationSoftware,KiCad,Pcbnew,8.0.6*
G04 #@! TF.CreationDate,2025-01-14T22:15:50-05:00*
G04 #@! TF.ProjectId,rl78_debug_adapter_rev5,726c3738-5f64-4656-9275-675f61646170,rev?*
G04 #@! TF.SameCoordinates,Original*
G04 #@! TF.FileFunction,Copper,L2,Bot*
G04 #@! TF.FilePolarity,Positive*
%FSLAX46Y46*%
G04 Gerber Fmt 4.6, Leading zero omitted, Abs format (unit mm)*
G04 Created by KiCad (PCBNEW 8.0.6) date 2025-01-14 22:15:50*
%MOMM*%
%LPD*%
G01*
G04 APERTURE LIST*
G04 Aperture macros list*
%AMRoundRect*
0 Rectangle with rounded corners*
0 $1 Rounding radius*
0 $2 $3 $4 $5 $6 $7 $8 $9 X,Y pos of 4 corners*
0 Add a 4 corners polygon primitive as box body*
4,1,4,$2,$3,$4,$5,$6,$7,$8,$9,$2,$3,0*
0 Add four circle primitives for the rounded corners*
1,1,$1+$1,$2,$3*
1,1,$1+$1,$4,$5*
1,1,$1+$1,$6,$7*
1,1,$1+$1,$8,$9*
0 Add four rect primitives between the rounded corners*
20,1,$1+$1,$2,$3,$4,$5,0*
20,1,$1+$1,$4,$5,$6,$7,0*
20,1,$1+$1,$6,$7,$8,$9,0*
20,1,$1+$1,$8,$9,$2,$3,0*%
G04 Aperture macros list end*
%ADD10C,0.300000*%
G04 #@! TA.AperFunction,NonConductor*
%ADD11C,0.300000*%
G04 #@! TD*
G04 #@! TA.AperFunction,ComponentPad*
%ADD12RoundRect,0.250000X0.600000X0.600000X-0.600000X0.600000X-0.600000X-0.600000X0.600000X-0.600000X0*%
G04 #@! TD*
G04 #@! TA.AperFunction,ComponentPad*
%ADD13C,1.700000*%
G04 #@! TD*
G04 #@! TA.AperFunction,ComponentPad*
%ADD14R,1.700000X1.700000*%
G04 #@! TD*
G04 #@! TA.AperFunction,ComponentPad*
%ADD15O,1.700000X1.700000*%
G04 #@! TD*
G04 #@! TA.AperFunction,ComponentPad*
%ADD16C,2.400000*%
G04 #@! TD*
G04 #@! TA.AperFunction,ComponentPad*
%ADD17O,2.400000X2.400000*%
G04 #@! TD*
G04 #@! TA.AperFunction,ComponentPad*
%ADD18C,4.700000*%
G04 #@! TD*
G04 #@! TA.AperFunction,Conductor*
%ADD19C,0.250000*%
G04 #@! TD*
G04 APERTURE END LIST*
D10*
D11*
X118021427Y-51771185D02*
X117949999Y-51699757D01*
X117949999Y-51699757D02*
X117807142Y-51628328D01*
X117807142Y-51628328D02*
X117449999Y-51628328D01*
X117449999Y-51628328D02*
X117307142Y-51699757D01*
X117307142Y-51699757D02*
X117235713Y-51771185D01*
X117235713Y-51771185D02*
X117164284Y-51914042D01*
X117164284Y-51914042D02*
X117164284Y-52056900D01*
X117164284Y-52056900D02*
X117235713Y-52271185D01*
X117235713Y-52271185D02*
X118092856Y-53128328D01*
X118092856Y-53128328D02*
X117164284Y-53128328D01*
X116235713Y-51628328D02*
X116092856Y-51628328D01*
X116092856Y-51628328D02*
X115949999Y-51699757D01*
X115949999Y-51699757D02*
X115878571Y-51771185D01*
X115878571Y-51771185D02*
X115807142Y-51914042D01*
X115807142Y-51914042D02*
X115735713Y-52199757D01*
X115735713Y-52199757D02*
X115735713Y-52556900D01*
X115735713Y-52556900D02*
X115807142Y-52842614D01*
X115807142Y-52842614D02*
X115878571Y-52985471D01*
X115878571Y-52985471D02*
X115949999Y-53056900D01*
X115949999Y-53056900D02*
X116092856Y-53128328D01*
X116092856Y-53128328D02*
X116235713Y-53128328D01*
X116235713Y-53128328D02*
X116378571Y-53056900D01*
X116378571Y-53056900D02*
X116449999Y-52985471D01*
X116449999Y-52985471D02*
X116521428Y-52842614D01*
X116521428Y-52842614D02*
X116592856Y-52556900D01*
X116592856Y-52556900D02*
X116592856Y-52199757D01*
X116592856Y-52199757D02*
X116521428Y-51914042D01*
X116521428Y-51914042D02*
X116449999Y-51771185D01*
X116449999Y-51771185D02*
X116378571Y-51699757D01*
X116378571Y-51699757D02*
X116235713Y-51628328D01*
X115164285Y-51771185D02*
X115092857Y-51699757D01*
X115092857Y-51699757D02*
X114950000Y-51628328D01*
X114950000Y-51628328D02*
X114592857Y-51628328D01*
X114592857Y-51628328D02*
X114450000Y-51699757D01*
X114450000Y-51699757D02*
X114378571Y-51771185D01*
X114378571Y-51771185D02*
X114307142Y-51914042D01*
X114307142Y-51914042D02*
X114307142Y-52056900D01*
X114307142Y-52056900D02*
X114378571Y-52271185D01*
X114378571Y-52271185D02*
X115235714Y-53128328D01*
X115235714Y-53128328D02*
X114307142Y-53128328D01*
X112950000Y-51628328D02*
X113664286Y-51628328D01*
X113664286Y-51628328D02*
X113735714Y-52342614D01*
X113735714Y-52342614D02*
X113664286Y-52271185D01*
X113664286Y-52271185D02*
X113521429Y-52199757D01*
X113521429Y-52199757D02*
X113164286Y-52199757D01*
X113164286Y-52199757D02*
X113021429Y-52271185D01*
X113021429Y-52271185D02*
X112950000Y-52342614D01*
X112950000Y-52342614D02*
X112878571Y-52485471D01*
X112878571Y-52485471D02*
X112878571Y-52842614D01*
X112878571Y-52842614D02*
X112950000Y-52985471D01*
X112950000Y-52985471D02*
X113021429Y-53056900D01*
X113021429Y-53056900D02*
X113164286Y-53128328D01*
X113164286Y-53128328D02*
X113521429Y-53128328D01*
X113521429Y-53128328D02*
X113664286Y-53056900D01*
X113664286Y-53056900D02*
X113735714Y-52985471D01*
D10*
D11*
X126751542Y-59395928D02*
X127251542Y-58681642D01*
X127608685Y-59395928D02*
X127608685Y-57895928D01*
X127608685Y-57895928D02*
X127037256Y-57895928D01*
X127037256Y-57895928D02*
X126894399Y-57967357D01*
X126894399Y-57967357D02*
X126822970Y-58038785D01*
X126822970Y-58038785D02*
X126751542Y-58181642D01*
X126751542Y-58181642D02*
X126751542Y-58395928D01*
X126751542Y-58395928D02*
X126822970Y-58538785D01*
X126822970Y-58538785D02*
X126894399Y-58610214D01*
X126894399Y-58610214D02*
X127037256Y-58681642D01*
X127037256Y-58681642D02*
X127608685Y-58681642D01*
X125394399Y-59395928D02*
X126108685Y-59395928D01*
X126108685Y-59395928D02*
X126108685Y-57895928D01*
X125037256Y-57895928D02*
X124037256Y-57895928D01*
X124037256Y-57895928D02*
X124680113Y-59395928D01*
X123251542Y-58538785D02*
X123394399Y-58467357D01*
X123394399Y-58467357D02*
X123465828Y-58395928D01*
X123465828Y-58395928D02*
X123537256Y-58253071D01*
X123537256Y-58253071D02*
X123537256Y-58181642D01*
X123537256Y-58181642D02*
X123465828Y-58038785D01*
X123465828Y-58038785D02*
X123394399Y-57967357D01*
X123394399Y-57967357D02*
X123251542Y-57895928D01*
X123251542Y-57895928D02*
X122965828Y-57895928D01*
X122965828Y-57895928D02*
X122822971Y-57967357D01*
X122822971Y-57967357D02*
X122751542Y-58038785D01*
X122751542Y-58038785D02*
X122680113Y-58181642D01*
X122680113Y-58181642D02*
X122680113Y-58253071D01*
X122680113Y-58253071D02*
X122751542Y-58395928D01*
X122751542Y-58395928D02*
X122822971Y-58467357D01*
X122822971Y-58467357D02*
X122965828Y-58538785D01*
X122965828Y-58538785D02*
X123251542Y-58538785D01*
X123251542Y-58538785D02*
X123394399Y-58610214D01*
X123394399Y-58610214D02*
X123465828Y-58681642D01*
X123465828Y-58681642D02*
X123537256Y-58824500D01*
X123537256Y-58824500D02*
X123537256Y-59110214D01*
X123537256Y-59110214D02*
X123465828Y-59253071D01*
X123465828Y-59253071D02*
X123394399Y-59324500D01*
X123394399Y-59324500D02*
X123251542Y-59395928D01*
X123251542Y-59395928D02*
X122965828Y-59395928D01*
X122965828Y-59395928D02*
X122822971Y-59324500D01*
X122822971Y-59324500D02*
X122751542Y-59253071D01*
X122751542Y-59253071D02*
X122680113Y-59110214D01*
X122680113Y-59110214D02*
X122680113Y-58824500D01*
X122680113Y-58824500D02*
X122751542Y-58681642D01*
X122751542Y-58681642D02*
X122822971Y-58610214D01*
X122822971Y-58610214D02*
X122965828Y-58538785D01*
X120894400Y-59395928D02*
X120894400Y-57895928D01*
X120894400Y-57895928D02*
X120537257Y-57895928D01*
X120537257Y-57895928D02*
X120322971Y-57967357D01*
X120322971Y-57967357D02*
X120180114Y-58110214D01*
X120180114Y-58110214D02*
X120108685Y-58253071D01*
X120108685Y-58253071D02*
X120037257Y-58538785D01*
X120037257Y-58538785D02*
X120037257Y-58753071D01*
X120037257Y-58753071D02*
X120108685Y-59038785D01*
X120108685Y-59038785D02*
X120180114Y-59181642D01*
X120180114Y-59181642D02*
X120322971Y-59324500D01*
X120322971Y-59324500D02*
X120537257Y-59395928D01*
X120537257Y-59395928D02*
X120894400Y-59395928D01*
X118822971Y-59324500D02*
X118965828Y-59395928D01*
X118965828Y-59395928D02*
X119251543Y-59395928D01*
X119251543Y-59395928D02*
X119394400Y-59324500D01*
X119394400Y-59324500D02*
X119465828Y-59181642D01*
X119465828Y-59181642D02*
X119465828Y-58610214D01*
X119465828Y-58610214D02*
X119394400Y-58467357D01*
X119394400Y-58467357D02*
X119251543Y-58395928D01*
X119251543Y-58395928D02*
X118965828Y-58395928D01*
X118965828Y-58395928D02*
X118822971Y-58467357D01*
X118822971Y-58467357D02*
X118751543Y-58610214D01*
X118751543Y-58610214D02*
X118751543Y-58753071D01*
X118751543Y-58753071D02*
X119465828Y-58895928D01*
X118108686Y-59395928D02*
X118108686Y-57895928D01*
X118108686Y-58467357D02*
X117965829Y-58395928D01*
X117965829Y-58395928D02*
X117680114Y-58395928D01*
X117680114Y-58395928D02*
X117537257Y-58467357D01*
X117537257Y-58467357D02*
X117465829Y-58538785D01*
X117465829Y-58538785D02*
X117394400Y-58681642D01*
X117394400Y-58681642D02*
X117394400Y-59110214D01*
X117394400Y-59110214D02*
X117465829Y-59253071D01*
X117465829Y-59253071D02*
X117537257Y-59324500D01*
X117537257Y-59324500D02*
X117680114Y-59395928D01*
X117680114Y-59395928D02*
X117965829Y-59395928D01*
X117965829Y-59395928D02*
X118108686Y-59324500D01*
X116108686Y-58395928D02*
X116108686Y-59395928D01*
X116751543Y-58395928D02*
X116751543Y-59181642D01*
X116751543Y-59181642D02*
X116680114Y-59324500D01*
X116680114Y-59324500D02*
X116537257Y-59395928D01*
X116537257Y-59395928D02*
X116322971Y-59395928D01*
X116322971Y-59395928D02*
X116180114Y-59324500D01*
X116180114Y-59324500D02*
X116108686Y-59253071D01*
X114751543Y-58395928D02*
X114751543Y-59610214D01*
X114751543Y-59610214D02*
X114822971Y-59753071D01*
X114822971Y-59753071D02*
X114894400Y-59824500D01*
X114894400Y-59824500D02*
X115037257Y-59895928D01*
X115037257Y-59895928D02*
X115251543Y-59895928D01*
X115251543Y-59895928D02*
X115394400Y-59824500D01*
X114751543Y-59324500D02*
X114894400Y-59395928D01*
X114894400Y-59395928D02*
X115180114Y-59395928D01*
X115180114Y-59395928D02*
X115322971Y-59324500D01*
X115322971Y-59324500D02*
X115394400Y-59253071D01*
X115394400Y-59253071D02*
X115465828Y-59110214D01*
X115465828Y-59110214D02*
X115465828Y-58681642D01*
X115465828Y-58681642D02*
X115394400Y-58538785D01*
X115394400Y-58538785D02*
X115322971Y-58467357D01*
X115322971Y-58467357D02*
X115180114Y-58395928D01*
X115180114Y-58395928D02*
X114894400Y-58395928D01*
X114894400Y-58395928D02*
X114751543Y-58467357D01*
X112965828Y-58967357D02*
X112251543Y-58967357D01*
X113108685Y-59395928D02*
X112608685Y-57895928D01*
X112608685Y-57895928D02*
X112108685Y-59395928D01*
X110965829Y-59395928D02*
X110965829Y-57895928D01*
X110965829Y-59324500D02*
X111108686Y-59395928D01*
X111108686Y-59395928D02*
X111394400Y-59395928D01*
X111394400Y-59395928D02*
X111537257Y-59324500D01*
X111537257Y-59324500D02*
X111608686Y-59253071D01*
X111608686Y-59253071D02*
X111680114Y-59110214D01*
X111680114Y-59110214D02*
X111680114Y-58681642D01*
X111680114Y-58681642D02*
X111608686Y-58538785D01*
X111608686Y-58538785D02*
X111537257Y-58467357D01*
X111537257Y-58467357D02*
X111394400Y-58395928D01*
X111394400Y-58395928D02*
X111108686Y-58395928D01*
X111108686Y-58395928D02*
X110965829Y-58467357D01*
X109608686Y-59395928D02*
X109608686Y-58610214D01*
X109608686Y-58610214D02*
X109680114Y-58467357D01*
X109680114Y-58467357D02*
X109822971Y-58395928D01*
X109822971Y-58395928D02*
X110108686Y-58395928D01*
X110108686Y-58395928D02*
X110251543Y-58467357D01*
X109608686Y-59324500D02*
X109751543Y-59395928D01*
X109751543Y-59395928D02*
X110108686Y-59395928D01*
X110108686Y-59395928D02*
X110251543Y-59324500D01*
X110251543Y-59324500D02*
X110322971Y-59181642D01*
X110322971Y-59181642D02*
X110322971Y-59038785D01*
X110322971Y-59038785D02*
X110251543Y-58895928D01*
X110251543Y-58895928D02*
X110108686Y-58824500D01*
X110108686Y-58824500D02*
X109751543Y-58824500D01*
X109751543Y-58824500D02*
X109608686Y-58753071D01*
X108894400Y-58395928D02*
X108894400Y-59895928D01*
X108894400Y-58467357D02*
X108751543Y-58395928D01*
X108751543Y-58395928D02*
X108465828Y-58395928D01*
X108465828Y-58395928D02*
X108322971Y-58467357D01*
X108322971Y-58467357D02*
X108251543Y-58538785D01*
X108251543Y-58538785D02*
X108180114Y-58681642D01*
X108180114Y-58681642D02*
X108180114Y-59110214D01*
X108180114Y-59110214D02*
X108251543Y-59253071D01*
X108251543Y-59253071D02*
X108322971Y-59324500D01*
X108322971Y-59324500D02*
X108465828Y-59395928D01*
X108465828Y-59395928D02*
X108751543Y-59395928D01*
X108751543Y-59395928D02*
X108894400Y-59324500D01*
X107751542Y-58395928D02*
X107180114Y-58395928D01*
X107537257Y-57895928D02*
X107537257Y-59181642D01*
X107537257Y-59181642D02*
X107465828Y-59324500D01*
X107465828Y-59324500D02*
X107322971Y-59395928D01*
X107322971Y-59395928D02*
X107180114Y-59395928D01*
X106108685Y-59324500D02*
X106251542Y-59395928D01*
X106251542Y-59395928D02*
X106537257Y-59395928D01*
X106537257Y-59395928D02*
X106680114Y-59324500D01*
X106680114Y-59324500D02*
X106751542Y-59181642D01*
X106751542Y-59181642D02*
X106751542Y-58610214D01*
X106751542Y-58610214D02*
X106680114Y-58467357D01*
X106680114Y-58467357D02*
X106537257Y-58395928D01*
X106537257Y-58395928D02*
X106251542Y-58395928D01*
X106251542Y-58395928D02*
X106108685Y-58467357D01*
X106108685Y-58467357D02*
X106037257Y-58610214D01*
X106037257Y-58610214D02*
X106037257Y-58753071D01*
X106037257Y-58753071D02*
X106751542Y-58895928D01*
X105394400Y-59395928D02*
X105394400Y-58395928D01*
X105394400Y-58681642D02*
X105322971Y-58538785D01*
X105322971Y-58538785D02*
X105251543Y-58467357D01*
X105251543Y-58467357D02*
X105108685Y-58395928D01*
X105108685Y-58395928D02*
X104965828Y-58395928D01*
D10*
D11*
X122796428Y-50278328D02*
X122796428Y-48778328D01*
X122796428Y-48778328D02*
X122296428Y-49849757D01*
X122296428Y-49849757D02*
X121796428Y-48778328D01*
X121796428Y-48778328D02*
X121796428Y-50278328D01*
X121082142Y-50278328D02*
X121082142Y-49278328D01*
X121082142Y-48778328D02*
X121153570Y-48849757D01*
X121153570Y-48849757D02*
X121082142Y-48921185D01*
X121082142Y-48921185D02*
X121010713Y-48849757D01*
X121010713Y-48849757D02*
X121082142Y-48778328D01*
X121082142Y-48778328D02*
X121082142Y-48921185D01*
X119724999Y-50206900D02*
X119867856Y-50278328D01*
X119867856Y-50278328D02*
X120153570Y-50278328D01*
X120153570Y-50278328D02*
X120296427Y-50206900D01*
X120296427Y-50206900D02*
X120367856Y-50135471D01*
X120367856Y-50135471D02*
X120439284Y-49992614D01*
X120439284Y-49992614D02*
X120439284Y-49564042D01*
X120439284Y-49564042D02*
X120367856Y-49421185D01*
X120367856Y-49421185D02*
X120296427Y-49349757D01*
X120296427Y-49349757D02*
X120153570Y-49278328D01*
X120153570Y-49278328D02*
X119867856Y-49278328D01*
X119867856Y-49278328D02*
X119724999Y-49349757D01*
X119082142Y-50278328D02*
X119082142Y-48778328D01*
X118439285Y-50278328D02*
X118439285Y-49492614D01*
X118439285Y-49492614D02*
X118510713Y-49349757D01*
X118510713Y-49349757D02*
X118653570Y-49278328D01*
X118653570Y-49278328D02*
X118867856Y-49278328D01*
X118867856Y-49278328D02*
X119010713Y-49349757D01*
X119010713Y-49349757D02*
X119082142Y-49421185D01*
X117153570Y-50206900D02*
X117296427Y-50278328D01*
X117296427Y-50278328D02*
X117582142Y-50278328D01*
X117582142Y-50278328D02*
X117724999Y-50206900D01*
X117724999Y-50206900D02*
X117796427Y-50064042D01*
X117796427Y-50064042D02*
X117796427Y-49492614D01*
X117796427Y-49492614D02*
X117724999Y-49349757D01*
X117724999Y-49349757D02*
X117582142Y-49278328D01*
X117582142Y-49278328D02*
X117296427Y-49278328D01*
X117296427Y-49278328D02*
X117153570Y-49349757D01*
X117153570Y-49349757D02*
X117082142Y-49492614D01*
X117082142Y-49492614D02*
X117082142Y-49635471D01*
X117082142Y-49635471D02*
X117796427Y-49778328D01*
X116224999Y-50278328D02*
X116367856Y-50206900D01*
X116367856Y-50206900D02*
X116439285Y-50064042D01*
X116439285Y-50064042D02*
X116439285Y-48778328D01*
X113653571Y-50135471D02*
X113724999Y-50206900D01*
X113724999Y-50206900D02*
X113939285Y-50278328D01*
X113939285Y-50278328D02*
X114082142Y-50278328D01*
X114082142Y-50278328D02*
X114296428Y-50206900D01*
X114296428Y-50206900D02*
X114439285Y-50064042D01*
X114439285Y-50064042D02*
X114510714Y-49921185D01*
X114510714Y-49921185D02*
X114582142Y-49635471D01*
X114582142Y-49635471D02*
X114582142Y-49421185D01*
X114582142Y-49421185D02*
X114510714Y-49135471D01*
X114510714Y-49135471D02*
X114439285Y-48992614D01*
X114439285Y-48992614D02*
X114296428Y-48849757D01*
X114296428Y-48849757D02*
X114082142Y-48778328D01*
X114082142Y-48778328D02*
X113939285Y-48778328D01*
X113939285Y-48778328D02*
X113724999Y-48849757D01*
X113724999Y-48849757D02*
X113653571Y-48921185D01*
X112367857Y-50278328D02*
X112367857Y-49492614D01*
X112367857Y-49492614D02*
X112439285Y-49349757D01*
X112439285Y-49349757D02*
X112582142Y-49278328D01*
X112582142Y-49278328D02*
X112867857Y-49278328D01*
X112867857Y-49278328D02*
X113010714Y-49349757D01*
X112367857Y-50206900D02*
X112510714Y-50278328D01*
X112510714Y-50278328D02*
X112867857Y-50278328D01*
X112867857Y-50278328D02*
X113010714Y-50206900D01*
X113010714Y-50206900D02*
X113082142Y-50064042D01*
X113082142Y-50064042D02*
X113082142Y-49921185D01*
X113082142Y-49921185D02*
X113010714Y-49778328D01*
X113010714Y-49778328D02*
X112867857Y-49706900D01*
X112867857Y-49706900D02*
X112510714Y-49706900D01*
X112510714Y-49706900D02*
X112367857Y-49635471D01*
X111867856Y-49278328D02*
X111296428Y-49278328D01*
X111653571Y-48778328D02*
X111653571Y-50064042D01*
X111653571Y-50064042D02*
X111582142Y-50206900D01*
X111582142Y-50206900D02*
X111439285Y-50278328D01*
X111439285Y-50278328D02*
X111296428Y-50278328D01*
X110153571Y-49278328D02*
X110153571Y-50278328D01*
X110796428Y-49278328D02*
X110796428Y-50064042D01*
X110796428Y-50064042D02*
X110724999Y-50206900D01*
X110724999Y-50206900D02*
X110582142Y-50278328D01*
X110582142Y-50278328D02*
X110367856Y-50278328D01*
X110367856Y-50278328D02*
X110224999Y-50206900D01*
X110224999Y-50206900D02*
X110153571Y-50135471D01*
X108796428Y-50278328D02*
X108796428Y-48778328D01*
X108796428Y-50206900D02*
X108939285Y-50278328D01*
X108939285Y-50278328D02*
X109224999Y-50278328D01*
X109224999Y-50278328D02*
X109367856Y-50206900D01*
X109367856Y-50206900D02*
X109439285Y-50135471D01*
X109439285Y-50135471D02*
X109510713Y-49992614D01*
X109510713Y-49992614D02*
X109510713Y-49564042D01*
X109510713Y-49564042D02*
X109439285Y-49421185D01*
X109439285Y-49421185D02*
X109367856Y-49349757D01*
X109367856Y-49349757D02*
X109224999Y-49278328D01*
X109224999Y-49278328D02*
X108939285Y-49278328D01*
X108939285Y-49278328D02*
X108796428Y-49349757D01*
X107439285Y-50278328D02*
X107439285Y-49492614D01*
X107439285Y-49492614D02*
X107510713Y-49349757D01*
X107510713Y-49349757D02*
X107653570Y-49278328D01*
X107653570Y-49278328D02*
X107939285Y-49278328D01*
X107939285Y-49278328D02*
X108082142Y-49349757D01*
X107439285Y-50206900D02*
X107582142Y-50278328D01*
X107582142Y-50278328D02*
X107939285Y-50278328D01*
X107939285Y-50278328D02*
X108082142Y-50206900D01*
X108082142Y-50206900D02*
X108153570Y-50064042D01*
X108153570Y-50064042D02*
X108153570Y-49921185D01*
X108153570Y-49921185D02*
X108082142Y-49778328D01*
X108082142Y-49778328D02*
X107939285Y-49706900D01*
X107939285Y-49706900D02*
X107582142Y-49706900D01*
X107582142Y-49706900D02*
X107439285Y-49635471D01*
X106510713Y-50278328D02*
X106653570Y-50206900D01*
X106653570Y-50206900D02*
X106724999Y-50064042D01*
X106724999Y-50064042D02*
X106724999Y-48778328D01*
D12*
X74000000Y-65000000D03*
D13*
X71460000Y-65000000D03*
X74000000Y-62460000D03*
X71460000Y-62460000D03*
X74000000Y-59920000D03*
X71460000Y-59920000D03*
X74000000Y-57380000D03*
X71460000Y-57380000D03*
X74000000Y-54840000D03*
X71460000Y-54840000D03*
X74000000Y-52300000D03*
X71460000Y-52300000D03*
X74000000Y-49760000D03*
X71460000Y-49760000D03*
D14*
X81400000Y-84650000D03*
D15*
X83940000Y-84650000D03*
X86480000Y-84650000D03*
X89020000Y-84650000D03*
X91560000Y-84650000D03*
D16*
X90000000Y-50000000D03*
D17*
X90000000Y-65240000D03*
D16*
X83000000Y-50000000D03*
D17*
X83000000Y-65240000D03*
D16*
X97400000Y-49650000D03*
D17*
X97400000Y-64890000D03*
D18*
X125000000Y-85000000D03*
X65000000Y-35000000D03*
X65000000Y-85000000D03*
X125000000Y-35000000D03*
D19*
X72730000Y-74803300D02*
X72730000Y-58650000D01*
X81400000Y-84650000D02*
X81400000Y-83473300D01*
X81400000Y-83473300D02*
X72730000Y-74803300D01*
X72730000Y-58650000D02*
X71460000Y-57380000D01*
X90000000Y-65240000D02*
X88473300Y-65240000D01*
X83153300Y-59920000D02*
X74000000Y-59920000D01*
X88473300Y-65240000D02*
X83153300Y-59920000D01*
X83000000Y-66766700D02*
X86480000Y-70246700D01*
X83000000Y-65240000D02*
X83000000Y-66766700D01*
X86480000Y-70246700D02*
X86480000Y-84650000D01*
X97400000Y-49650000D02*
X93525000Y-53525000D01*
X89020000Y-83473300D02*
X91554100Y-80939200D01*
X74000000Y-49760000D02*
X72730000Y-51030000D01*
X93525000Y-53525000D02*
X91554100Y-53525000D01*
X72730000Y-53570000D02*
X71460000Y-54840000D01*
X91554100Y-80939200D02*
X91554100Y-53525000D01*
X72730000Y-51030000D02*
X72730000Y-53570000D01*
X91554100Y-53525000D02*
X77765000Y-53525000D01*
X77765000Y-53525000D02*
X74000000Y-49760000D01*
X89020000Y-84650000D02*
X89020000Y-83473300D01*
G04 #@! TA.AperFunction,Conductor*
G36*
X129866621Y-30095502D02*
G01*
X129913114Y-30149158D01*
X129924500Y-30201500D01*
X129924500Y-89798500D01*
X129904498Y-89866621D01*
X129850842Y-89913114D01*
X129798500Y-89924500D01*
X60201500Y-89924500D01*
X60133379Y-89904498D01*
X60086886Y-89850842D01*
X60075500Y-89798500D01*
X60075500Y-85000000D01*
X62136656Y-85000000D01*
X62156016Y-85332403D01*
X62156016Y-85332409D01*
X62156017Y-85332414D01*
X62213838Y-85660333D01*
X62309337Y-85979321D01*
X62309339Y-85979327D01*
X62309340Y-85979328D01*
X62441220Y-86285063D01*
X62441222Y-86285066D01*
X62607711Y-86573433D01*
X62607714Y-86573437D01*
X62806552Y-86840523D01*
X63035057Y-87082724D01*
X63290134Y-87296758D01*
X63568320Y-87479724D01*
X63568328Y-87479729D01*
X63865887Y-87629169D01*
X64022335Y-87686111D01*
X64178775Y-87743051D01*
X64178776Y-87743051D01*
X64178784Y-87743054D01*
X64502786Y-87819843D01*
X64691771Y-87841932D01*
X64833508Y-87858500D01*
X64833511Y-87858500D01*
X65166492Y-87858500D01*
X65290510Y-87844003D01*
X65497214Y-87819843D01*
X65821216Y-87743054D01*
X66134113Y-87629169D01*
X66431672Y-87479729D01*
X66709870Y-87296755D01*
X66964946Y-87082721D01*
X67193449Y-86840522D01*
X67392289Y-86573433D01*
X67558778Y-86285066D01*
X67690663Y-85979321D01*
X67786162Y-85660333D01*
X67843983Y-85332414D01*
X67863344Y-85000000D01*
X67843983Y-84667586D01*
X67786162Y-84339667D01*
X67690663Y-84020679D01*
X67558778Y-83714934D01*
X67392289Y-83426567D01*
X67193449Y-83159478D01*
X66964946Y-82917279D01*
X66964944Y-82917278D01*
X66964942Y-82917275D01*
X66709865Y-82703241D01*
X66431679Y-82520275D01*
X66431675Y-82520273D01*
X66431672Y-82520271D01*
X66134113Y-82370831D01*
X66134108Y-82370829D01*
X66134103Y-82370827D01*
X65821224Y-82256948D01*
X65821217Y-82256946D01*
X65821216Y-82256946D01*
X65639258Y-82213821D01*
X65497219Y-82180158D01*
X65497209Y-82180156D01*
X65166492Y-82141500D01*
X65166489Y-82141500D01*
X64833511Y-82141500D01*
X64833508Y-82141500D01*
X64502790Y-82180156D01*
X64502780Y-82180158D01*
X64178784Y-82256946D01*
X64178775Y-82256948D01*
X63865896Y-82370827D01*
X63865891Y-82370829D01*
X63568320Y-82520275D01*
X63290134Y-82703241D01*
X63035057Y-82917275D01*
X62806552Y-83159476D01*
X62607714Y-83426562D01*
X62607704Y-83426578D01*
X62441223Y-83714931D01*
X62441220Y-83714936D01*
X62309340Y-84020671D01*
X62309338Y-84020677D01*
X62213838Y-84339666D01*
X62156016Y-84667590D01*
X62156016Y-84667596D01*
X62136656Y-85000000D01*
X60075500Y-85000000D01*
X60075500Y-54840000D01*
X70096844Y-54840000D01*
X70115437Y-55064375D01*
X70170702Y-55282612D01*
X70170703Y-55282613D01*
X70261141Y-55488793D01*
X70384275Y-55677265D01*
X70384279Y-55677270D01*
X70536762Y-55842908D01*
X70591331Y-55885381D01*
X70714424Y-55981189D01*
X70747680Y-55999186D01*
X70798071Y-56049200D01*
X70813423Y-56118516D01*
X70788862Y-56185129D01*
X70747680Y-56220813D01*
X70714426Y-56238810D01*
X70714424Y-56238811D01*
X70536762Y-56377091D01*
X70384279Y-56542729D01*
X70384275Y-56542734D01*
X70261141Y-56731206D01*
X70170703Y-56937386D01*
X70170702Y-56937387D01*
X70115437Y-57155624D01*
X70115436Y-57155630D01*
X70115436Y-57155632D01*
X70096844Y-57380000D01*
X70115437Y-57604375D01*
X70170702Y-57822612D01*
X70170703Y-57822613D01*
X70261141Y-58028793D01*
X70384275Y-58217265D01*
X70384279Y-58217270D01*
X70536762Y-58382908D01*
X70591331Y-58425381D01*
X70714424Y-58521189D01*
X70747680Y-58539186D01*
X70798071Y-58589200D01*
X70813423Y-58658516D01*
X70788862Y-58725129D01*
X70747680Y-58760813D01*
X70714426Y-58778810D01*
X70714424Y-58778811D01*
X70536762Y-58917091D01*
X70384279Y-59082729D01*
X70384275Y-59082734D01*
X70261141Y-59271206D01*
X70170703Y-59477386D01*
X70170702Y-59477387D01*
X70115437Y-59695624D01*
X70096844Y-59920000D01*
X70115437Y-60144375D01*
X70170702Y-60362612D01*
X70170703Y-60362613D01*
X70261141Y-60568793D01*
X70384275Y-60757265D01*
X70384279Y-60757270D01*
X70536762Y-60922908D01*
X70591331Y-60965381D01*
X70714424Y-61061189D01*
X70747680Y-61079186D01*
X70798071Y-61129200D01*
X70813423Y-61198516D01*
X70788862Y-61265129D01*
X70747680Y-61300813D01*
X70714426Y-61318810D01*
X70714424Y-61318811D01*
X70536762Y-61457091D01*
X70384279Y-61622729D01*
X70384275Y-61622734D01*
X70261141Y-61811206D01*
X70170703Y-62017386D01*
X70170702Y-62017387D01*
X70115437Y-62235624D01*
X70096844Y-62460000D01*
X70115437Y-62684375D01*
X70170702Y-62902612D01*
X70170703Y-62902613D01*
X70261141Y-63108793D01*
X70384275Y-63297265D01*
X70384279Y-63297270D01*
X70536762Y-63462908D01*
X70536765Y-63462910D01*
X70714424Y-63601189D01*
X70748205Y-63619470D01*
X70798596Y-63669482D01*
X70813949Y-63738799D01*
X70789389Y-63805412D01*
X70748208Y-63841097D01*
X70714700Y-63859230D01*
X70714693Y-63859235D01*
X70694311Y-63875099D01*
X70694310Y-63875100D01*
X71335052Y-64515842D01*
X71267007Y-64534075D01*
X71152993Y-64599901D01*
X71059901Y-64692993D01*
X70994075Y-64807007D01*
X70975842Y-64875052D01*
X70336921Y-64236131D01*
X70336920Y-64236132D01*
X70261586Y-64351439D01*
X70261579Y-64351453D01*
X70171179Y-64557543D01*
X70171176Y-64557550D01*
X70115932Y-64775707D01*
X70097346Y-65000000D01*
X70115932Y-65224292D01*
X70171176Y-65442449D01*
X70171179Y-65442456D01*
X70261580Y-65648548D01*
X70336921Y-65763866D01*
X70975841Y-65124946D01*
X70994075Y-65192993D01*
X71059901Y-65307007D01*
X71152993Y-65400099D01*
X71267007Y-65465925D01*
X71335050Y-65484157D01*
X70694310Y-66124898D01*
X70714697Y-66140766D01*
X70714701Y-66140768D01*
X70912628Y-66247882D01*
X70912630Y-66247883D01*
X71125483Y-66320955D01*
X71125490Y-66320957D01*
X71347477Y-66358000D01*
X71572523Y-66358000D01*
X71794509Y-66320957D01*
X71794516Y-66320955D01*
X71929588Y-66274585D01*
X72000512Y-66271385D01*
X72061908Y-66307037D01*
X72094282Y-66370222D01*
X72096500Y-66393758D01*
X72096500Y-74740906D01*
X72096500Y-74865694D01*
X72120845Y-74988085D01*
X72168600Y-75103375D01*
X72237929Y-75207133D01*
X72237931Y-75207135D01*
X80244501Y-83213705D01*
X80278527Y-83276017D01*
X80273462Y-83346832D01*
X80230916Y-83403667D01*
X80186739Y-83436737D01*
X80099112Y-83553792D01*
X80099110Y-83553797D01*
X80048011Y-83690795D01*
X80048009Y-83690803D01*
X80041500Y-83751350D01*
X80041500Y-85548649D01*
X80048009Y-85609196D01*
X80048011Y-85609204D01*
X80099110Y-85746202D01*
X80099112Y-85746207D01*
X80186738Y-85863261D01*
X80303792Y-85950887D01*
X80303794Y-85950888D01*
X80303796Y-85950889D01*
X80357600Y-85970957D01*
X80440795Y-86001988D01*
X80440803Y-86001990D01*
X80501350Y-86008499D01*
X80501355Y-86008499D01*
X80501362Y-86008500D01*
X80501368Y-86008500D01*
X82298632Y-86008500D01*
X82298638Y-86008500D01*
X82298645Y-86008499D01*
X82298649Y-86008499D01*
X82359196Y-86001990D01*
X82359199Y-86001989D01*
X82359201Y-86001989D01*
X82496204Y-85950889D01*
X82566399Y-85898342D01*
X82613261Y-85863261D01*
X82700886Y-85746208D01*
X82700885Y-85746208D01*
X82700889Y-85746204D01*
X82744999Y-85627939D01*
X82787545Y-85571107D01*
X82854066Y-85546296D01*
X82923440Y-85561388D01*
X82955753Y-85586635D01*
X82976529Y-85609204D01*
X83016762Y-85652908D01*
X83026302Y-85660333D01*
X83194424Y-85791189D01*
X83392426Y-85898342D01*
X83392427Y-85898342D01*
X83392428Y-85898343D01*
X83504227Y-85936723D01*
X83605365Y-85971444D01*
X83827431Y-86008500D01*
X83827435Y-86008500D01*
X84052565Y-86008500D01*
X84052569Y-86008500D01*
X84274635Y-85971444D01*
X84487574Y-85898342D01*
X84685576Y-85791189D01*
X84863240Y-85652906D01*
X85015722Y-85487268D01*
X85104518Y-85351354D01*
X85158520Y-85305268D01*
X85228868Y-85295692D01*
X85293225Y-85325669D01*
X85315480Y-85351353D01*
X85348607Y-85402058D01*
X85404275Y-85487265D01*
X85404279Y-85487270D01*
X85556762Y-85652908D01*
X85566302Y-85660333D01*
X85734424Y-85791189D01*
X85932426Y-85898342D01*
X85932427Y-85898342D01*
X85932428Y-85898343D01*
X86044227Y-85936723D01*
X86145365Y-85971444D01*
X86367431Y-86008500D01*
X86367435Y-86008500D01*
X86592565Y-86008500D01*
X86592569Y-86008500D01*
X86814635Y-85971444D01*
X87027574Y-85898342D01*
X87225576Y-85791189D01*
X87403240Y-85652906D01*
X87555722Y-85487268D01*
X87644518Y-85351354D01*
X87698520Y-85305268D01*
X87768868Y-85295692D01*
X87833225Y-85325669D01*
X87855480Y-85351353D01*
X87888607Y-85402058D01*
X87944275Y-85487265D01*
X87944279Y-85487270D01*
X88096762Y-85652908D01*
X88106302Y-85660333D01*
X88274424Y-85791189D01*
X88472426Y-85898342D01*
X88472427Y-85898342D01*
X88472428Y-85898343D01*
X88584227Y-85936723D01*
X88685365Y-85971444D01*
X88907431Y-86008500D01*
X88907435Y-86008500D01*
X89132565Y-86008500D01*
X89132569Y-86008500D01*
X89354635Y-85971444D01*
X89567574Y-85898342D01*
X89765576Y-85791189D01*
X89943240Y-85652906D01*
X90095722Y-85487268D01*
X90184816Y-85350898D01*
X90238819Y-85304810D01*
X90309167Y-85295235D01*
X90373524Y-85325212D01*
X90395782Y-85350898D01*
X90484674Y-85486958D01*
X90637097Y-85652534D01*
X90814698Y-85790767D01*
X90814699Y-85790768D01*
X91012628Y-85897882D01*
X91012630Y-85897883D01*
X91225483Y-85970955D01*
X91225492Y-85970957D01*
X91306000Y-85984391D01*
X91306000Y-85080702D01*
X91367007Y-85115925D01*
X91494174Y-85150000D01*
X91625826Y-85150000D01*
X91752993Y-85115925D01*
X91814000Y-85080702D01*
X91814000Y-85984390D01*
X91894507Y-85970957D01*
X91894516Y-85970955D01*
X92107369Y-85897883D01*
X92107371Y-85897882D01*
X92305300Y-85790768D01*
X92305301Y-85790767D01*
X92482902Y-85652534D01*
X92635325Y-85486958D01*
X92758419Y-85298548D01*
X92848820Y-85092456D01*
X92848823Y-85092449D01*
X92872234Y-85000000D01*
X122136656Y-85000000D01*
X122156016Y-85332403D01*
X122156016Y-85332409D01*
X122156017Y-85332414D01*
X122213838Y-85660333D01*
X122309337Y-85979321D01*
X122309339Y-85979327D01*
X122309340Y-85979328D01*
X122441220Y-86285063D01*
X122441222Y-86285066D01*
X122607711Y-86573433D01*
X122607714Y-86573437D01*
X122806552Y-86840523D01*
X123035057Y-87082724D01*
X123290134Y-87296758D01*
X123568320Y-87479724D01*
X123568328Y-87479729D01*
X123865887Y-87629169D01*
X124022335Y-87686111D01*
X124178775Y-87743051D01*
X124178776Y-87743051D01*
X124178784Y-87743054D01*
X124502786Y-87819843D01*
X124691771Y-87841932D01*
X124833508Y-87858500D01*
X124833511Y-87858500D01*
X125166492Y-87858500D01*
X125290510Y-87844003D01*
X125497214Y-87819843D01*
X125821216Y-87743054D01*
X126134113Y-87629169D01*
X126431672Y-87479729D01*
X126709870Y-87296755D01*
X126964946Y-87082721D01*
X127193449Y-86840522D01*
X127392289Y-86573433D01*
X127558778Y-86285066D01*
X127690663Y-85979321D01*
X127786162Y-85660333D01*
X127843983Y-85332414D01*
X127863344Y-85000000D01*
X127843983Y-84667586D01*
X127786162Y-84339667D01*
X127690663Y-84020679D01*
X127558778Y-83714934D01*
X127392289Y-83426567D01*
X127193449Y-83159478D01*
X126964946Y-82917279D01*
X126964944Y-82917278D01*
X126964942Y-82917275D01*
X126709865Y-82703241D01*
X126431679Y-82520275D01*
X126431675Y-82520273D01*
X126431672Y-82520271D01*
X126134113Y-82370831D01*
X126134108Y-82370829D01*
X126134103Y-82370827D01*
X125821224Y-82256948D01*
X125821217Y-82256946D01*
X125821216Y-82256946D01*
X125639258Y-82213821D01*
X125497219Y-82180158D01*
X125497209Y-82180156D01*
X125166492Y-82141500D01*
X125166489Y-82141500D01*
X124833511Y-82141500D01*
X124833508Y-82141500D01*
X124502790Y-82180156D01*
X124502780Y-82180158D01*
X124178784Y-82256946D01*
X124178775Y-82256948D01*
X123865896Y-82370827D01*
X123865891Y-82370829D01*
X123568320Y-82520275D01*
X123290134Y-82703241D01*
X123035057Y-82917275D01*
X122806552Y-83159476D01*
X122607714Y-83426562D01*
X122607704Y-83426578D01*
X122441223Y-83714931D01*
X122441220Y-83714936D01*
X122309340Y-84020671D01*
X122309338Y-84020677D01*
X122213838Y-84339666D01*
X122156016Y-84667590D01*
X122156016Y-84667596D01*
X122136656Y-85000000D01*
X92872234Y-85000000D01*
X92896544Y-84904000D01*
X91990703Y-84904000D01*
X92025925Y-84842993D01*
X92060000Y-84715826D01*
X92060000Y-84584174D01*
X92025925Y-84457007D01*
X91990703Y-84396000D01*
X92896544Y-84396000D01*
X92896544Y-84395999D01*
X92848823Y-84207550D01*
X92848820Y-84207543D01*
X92758419Y-84001451D01*
X92635325Y-83813041D01*
X92482902Y-83647465D01*
X92305301Y-83509232D01*
X92305300Y-83509231D01*
X92107371Y-83402117D01*
X92107369Y-83402116D01*
X91894512Y-83329043D01*
X91894501Y-83329040D01*
X91814000Y-83315606D01*
X91814000Y-84219297D01*
X91752993Y-84184075D01*
X91625826Y-84150000D01*
X91494174Y-84150000D01*
X91367007Y-84184075D01*
X91306000Y-84219297D01*
X91306000Y-83315607D01*
X91305999Y-83315606D01*
X91225498Y-83329040D01*
X91225487Y-83329043D01*
X91012630Y-83402116D01*
X91012628Y-83402117D01*
X90814699Y-83509231D01*
X90814698Y-83509232D01*
X90637097Y-83647465D01*
X90484670Y-83813045D01*
X90395780Y-83949101D01*
X90341776Y-83995189D01*
X90271428Y-84004764D01*
X90207071Y-83974786D01*
X90184816Y-83949101D01*
X90145884Y-83889511D01*
X90095724Y-83812734D01*
X90095719Y-83812729D01*
X89943246Y-83647100D01*
X89943243Y-83647098D01*
X89943240Y-83647094D01*
X89942731Y-83646698D01*
X89942578Y-83646485D01*
X89939412Y-83643571D01*
X89940011Y-83642919D01*
X89901261Y-83589073D01*
X89897529Y-83518174D01*
X89931026Y-83458176D01*
X92046172Y-81343033D01*
X92115501Y-81239275D01*
X92163255Y-81123984D01*
X92187600Y-81001593D01*
X92187600Y-80876806D01*
X92187600Y-64890000D01*
X95686709Y-64890000D01*
X95705845Y-65145356D01*
X95762826Y-65395002D01*
X95762827Y-65395005D01*
X95856374Y-65633362D01*
X95856376Y-65633366D01*
X95984410Y-65855127D01*
X95984412Y-65855130D01*
X95984413Y-65855131D01*
X96144069Y-66055334D01*
X96331781Y-66229505D01*
X96331787Y-66229509D01*
X96543345Y-66373748D01*
X96543352Y-66373752D01*
X96543355Y-66373754D01*
X96608932Y-66405334D01*
X96774060Y-66484856D01*
X96774073Y-66484861D01*
X97018746Y-66560332D01*
X97018748Y-66560332D01*
X97018757Y-66560335D01*
X97271966Y-66598500D01*
X97271970Y-66598500D01*
X97528030Y-66598500D01*
X97528034Y-66598500D01*
X97781243Y-66560335D01*
X97781253Y-66560332D01*
X98025929Y-66484860D01*
X98025930Y-66484859D01*
X98025935Y-66484858D01*
X98256646Y-66373754D01*
X98468219Y-66229505D01*
X98655931Y-66055334D01*
X98815587Y-65855131D01*
X98943622Y-65633369D01*
X99037174Y-65395001D01*
X99094155Y-65145353D01*
X99113291Y-64890000D01*
X99094155Y-64634647D01*
X99037174Y-64384999D01*
X99024003Y-64351439D01*
X98943625Y-64146637D01*
X98943623Y-64146633D01*
X98902074Y-64074669D01*
X98816441Y-63926348D01*
X98815589Y-63924872D01*
X98796149Y-63900495D01*
X98655931Y-63724666D01*
X98468219Y-63550495D01*
X98256646Y-63406246D01*
X98256643Y-63406245D01*
X98256641Y-63406243D01*
X98256640Y-63406242D01*
X98025936Y-63295142D01*
X98025929Y-63295139D01*
X97781253Y-63219667D01*
X97781245Y-63219665D01*
X97781243Y-63219665D01*
X97528034Y-63181500D01*
X97271966Y-63181500D01*
X97018757Y-63219665D01*
X97018755Y-63219665D01*
X97018746Y-63219667D01*
X96774073Y-63295138D01*
X96774060Y-63295143D01*
X96543352Y-63406247D01*
X96543345Y-63406251D01*
X96331787Y-63550490D01*
X96331782Y-63550494D01*
X96144070Y-63724665D01*
X95984410Y-63924872D01*
X95856376Y-64146633D01*
X95856374Y-64146637D01*
X95762827Y-64384994D01*
X95762826Y-64384997D01*
X95705845Y-64634643D01*
X95686709Y-64890000D01*
X92187600Y-64890000D01*
X92187600Y-60561153D01*
X104302328Y-60561153D01*
X128272185Y-60561153D01*
X128272185Y-57230703D01*
X104302328Y-57230703D01*
X104302328Y-60561153D01*
X92187600Y-60561153D01*
X92187600Y-54284500D01*
X92207602Y-54216379D01*
X92261258Y-54169886D01*
X92313600Y-54158500D01*
X93587393Y-54158500D01*
X93587394Y-54158500D01*
X93709785Y-54134155D01*
X93825075Y-54086400D01*
X93928833Y-54017071D01*
X96664576Y-51281326D01*
X96726885Y-51247304D01*
X96790806Y-51250021D01*
X96865039Y-51272919D01*
X97018746Y-51320332D01*
X97018748Y-51320332D01*
X97018757Y-51320335D01*
X97271966Y-51358500D01*
X97271970Y-51358500D01*
X97528030Y-51358500D01*
X97528034Y-51358500D01*
X97781243Y-51320335D01*
X97781253Y-51320332D01*
X98025929Y-51244860D01*
X98025930Y-51244859D01*
X98025935Y-51244858D01*
X98256646Y-51133754D01*
X98468219Y-50989505D01*
X98517744Y-50943553D01*
X105845488Y-50943553D01*
X112087346Y-50943553D01*
X112155467Y-50963555D01*
X112201960Y-51017211D01*
X112213346Y-51069553D01*
X112213346Y-53793553D01*
X118756356Y-53793553D01*
X118756356Y-51069553D01*
X118776358Y-51001432D01*
X118830014Y-50954939D01*
X118882356Y-50943553D01*
X123461089Y-50943553D01*
X123461089Y-48113103D01*
X105845488Y-48113103D01*
X105845488Y-50943553D01*
X98517744Y-50943553D01*
X98655931Y-50815334D01*
X98815587Y-50615131D01*
X98943622Y-50393369D01*
X98948287Y-50381484D01*
X99000721Y-50247883D01*
X99037174Y-50155001D01*
X99094155Y-49905353D01*
X99113291Y-49650000D01*
X99094155Y-49394647D01*
X99037174Y-49144999D01*
X99024003Y-49111439D01*
X98943625Y-48906637D01*
X98943623Y-48906633D01*
X98815589Y-48684872D01*
X98796149Y-48660495D01*
X98655931Y-48484666D01*
X98468219Y-48310495D01*
X98256646Y-48166246D01*
X98256643Y-48166245D01*
X98256641Y-48166243D01*
X98256640Y-48166242D01*
X98025936Y-48055142D01*
X98025929Y-48055139D01*
X97781253Y-47979667D01*
X97781245Y-47979665D01*
X97781243Y-47979665D01*
X97528034Y-47941500D01*
X97271966Y-47941500D01*
X97018757Y-47979665D01*
X97018755Y-47979665D01*
X97018746Y-47979667D01*
X96774073Y-48055138D01*
X96774060Y-48055143D01*
X96543352Y-48166247D01*
X96543345Y-48166251D01*
X96331787Y-48310490D01*
X96331782Y-48310494D01*
X96229775Y-48405143D01*
X96144069Y-48484666D01*
X96122178Y-48512117D01*
X95984410Y-48684872D01*
X95856376Y-48906633D01*
X95856374Y-48906637D01*
X95762827Y-49144994D01*
X95762826Y-49144997D01*
X95705845Y-49394643D01*
X95686709Y-49650000D01*
X95705845Y-49905356D01*
X95762826Y-50155002D01*
X95762828Y-50155009D01*
X95799278Y-50247883D01*
X95805546Y-50318602D01*
X95772585Y-50381484D01*
X95771084Y-50383010D01*
X93299499Y-52854596D01*
X93237189Y-52888620D01*
X93210406Y-52891500D01*
X78079594Y-52891500D01*
X78011473Y-52871498D01*
X77990499Y-52854595D01*
X75349866Y-50213962D01*
X75315840Y-50151650D01*
X75316816Y-50093937D01*
X75340605Y-50000000D01*
X81286709Y-50000000D01*
X81305845Y-50255356D01*
X81362826Y-50505002D01*
X81362827Y-50505005D01*
X81456374Y-50743362D01*
X81456376Y-50743366D01*
X81584410Y-50965127D01*
X81584412Y-50965130D01*
X81584413Y-50965131D01*
X81744069Y-51165334D01*
X81931781Y-51339505D01*
X81931787Y-51339509D01*
X82143345Y-51483748D01*
X82143352Y-51483752D01*
X82143355Y-51483754D01*
X82252117Y-51536131D01*
X82374060Y-51594856D01*
X82374073Y-51594861D01*
X82618746Y-51670332D01*
X82618748Y-51670332D01*
X82618757Y-51670335D01*
X82871966Y-51708500D01*
X82871970Y-51708500D01*
X83128030Y-51708500D01*
X83128034Y-51708500D01*
X83381243Y-51670335D01*
X83381253Y-51670332D01*
X83625929Y-51594860D01*
X83625930Y-51594859D01*
X83625935Y-51594858D01*
X83856646Y-51483754D01*
X84068219Y-51339505D01*
X84255931Y-51165334D01*
X84415587Y-50965131D01*
X84543622Y-50743369D01*
X84548899Y-50729925D01*
X84593953Y-50615127D01*
X84637174Y-50505001D01*
X84694155Y-50255353D01*
X84713291Y-50000000D01*
X88286709Y-50000000D01*
X88305845Y-50255356D01*
X88362826Y-50505002D01*
X88362827Y-50505005D01*
X88456374Y-50743362D01*
X88456376Y-50743366D01*
X88584410Y-50965127D01*
X88584412Y-50965130D01*
X88584413Y-50965131D01*
X88744069Y-51165334D01*
X88931781Y-51339505D01*
X88931787Y-51339509D01*
X89143345Y-51483748D01*
X89143352Y-51483752D01*
X89143355Y-51483754D01*
X89252117Y-51536131D01*
X89374060Y-51594856D01*
X89374073Y-51594861D01*
X89618746Y-51670332D01*
X89618748Y-51670332D01*
X89618757Y-51670335D01*
X89871966Y-51708500D01*
X89871970Y-51708500D01*
X90128030Y-51708500D01*
X90128034Y-51708500D01*
X90381243Y-51670335D01*
X90381253Y-51670332D01*
X90625929Y-51594860D01*
X90625930Y-51594859D01*
X90625935Y-51594858D01*
X90856646Y-51483754D01*
X91068219Y-51339505D01*
X91255931Y-51165334D01*
X91415587Y-50965131D01*
X91543622Y-50743369D01*
X91548899Y-50729925D01*
X91593953Y-50615127D01*
X91637174Y-50505001D01*
X91694155Y-50255353D01*
X91713291Y-50000000D01*
X91694155Y-49744647D01*
X91637174Y-49494999D01*
X91597789Y-49394647D01*
X91543625Y-49256637D01*
X91543623Y-49256633D01*
X91415589Y-49034872D01*
X91384695Y-48996132D01*
X91255931Y-48834666D01*
X91068219Y-48660495D01*
X90856646Y-48516246D01*
X90856643Y-48516245D01*
X90856641Y-48516243D01*
X90856640Y-48516242D01*
X90625936Y-48405142D01*
X90625929Y-48405139D01*
X90381253Y-48329667D01*
X90381245Y-48329665D01*
X90381243Y-48329665D01*
X90128034Y-48291500D01*
X89871966Y-48291500D01*
X89618757Y-48329665D01*
X89618755Y-48329665D01*
X89618746Y-48329667D01*
X89374073Y-48405138D01*
X89374060Y-48405143D01*
X89143352Y-48516247D01*
X89143345Y-48516251D01*
X88931787Y-48660490D01*
X88931782Y-48660494D01*
X88744070Y-48834665D01*
X88584410Y-49034872D01*
X88456376Y-49256633D01*
X88456374Y-49256637D01*
X88362827Y-49494994D01*
X88362826Y-49494997D01*
X88305845Y-49744643D01*
X88286709Y-50000000D01*
X84713291Y-50000000D01*
X84694155Y-49744647D01*
X84637174Y-49494999D01*
X84597789Y-49394647D01*
X84543625Y-49256637D01*
X84543623Y-49256633D01*
X84415589Y-49034872D01*
X84384695Y-48996132D01*
X84255931Y-48834666D01*
X84068219Y-48660495D01*
X83856646Y-48516246D01*
X83856643Y-48516245D01*
X83856641Y-48516243D01*
X83856640Y-48516242D01*
X83625936Y-48405142D01*
X83625929Y-48405139D01*
X83381253Y-48329667D01*
X83381245Y-48329665D01*
X83381243Y-48329665D01*
X83128034Y-48291500D01*
X82871966Y-48291500D01*
X82618757Y-48329665D01*
X82618755Y-48329665D01*
X82618746Y-48329667D01*
X82374073Y-48405138D01*
X82374060Y-48405143D01*
X82143352Y-48516247D01*
X82143345Y-48516251D01*
X81931787Y-48660490D01*
X81931782Y-48660494D01*
X81744070Y-48834665D01*
X81584410Y-49034872D01*
X81456376Y-49256633D01*
X81456374Y-49256637D01*
X81362827Y-49494994D01*
X81362826Y-49494997D01*
X81305845Y-49744643D01*
X81286709Y-50000000D01*
X75340605Y-50000000D01*
X75344564Y-49984368D01*
X75363156Y-49760000D01*
X75344564Y-49535632D01*
X75289338Y-49317550D01*
X75289297Y-49317387D01*
X75289296Y-49317386D01*
X75289296Y-49317384D01*
X75198860Y-49111209D01*
X75123676Y-48996131D01*
X75075724Y-48922734D01*
X75075720Y-48922729D01*
X74923237Y-48757091D01*
X74799131Y-48660495D01*
X74745576Y-48618811D01*
X74547574Y-48511658D01*
X74547572Y-48511657D01*
X74547571Y-48511656D01*
X74334639Y-48438557D01*
X74334630Y-48438555D01*
X74290476Y-48431187D01*
X74112569Y-48401500D01*
X73887431Y-48401500D01*
X73739211Y-48426233D01*
X73665369Y-48438555D01*
X73665360Y-48438557D01*
X73452428Y-48511656D01*
X73452426Y-48511658D01*
X73254426Y-48618810D01*
X73254424Y-48618811D01*
X73076762Y-48757091D01*
X72924279Y-48922729D01*
X72835183Y-49059101D01*
X72781179Y-49105189D01*
X72710831Y-49114764D01*
X72646474Y-49084786D01*
X72624217Y-49059100D01*
X72583077Y-48996132D01*
X71944157Y-49635051D01*
X71925925Y-49567007D01*
X71860099Y-49452993D01*
X71767007Y-49359901D01*
X71652993Y-49294075D01*
X71584947Y-49275841D01*
X72225688Y-48635100D01*
X72225687Y-48635099D01*
X72205308Y-48619237D01*
X72205298Y-48619231D01*
X72007371Y-48512117D01*
X72007369Y-48512116D01*
X71794516Y-48439044D01*
X71794509Y-48439042D01*
X71572523Y-48402000D01*
X71347477Y-48402000D01*
X71125490Y-48439042D01*
X71125483Y-48439044D01*
X70912630Y-48512116D01*
X70912628Y-48512118D01*
X70714700Y-48619230D01*
X70714693Y-48619235D01*
X70694311Y-48635099D01*
X70694310Y-48635100D01*
X71335052Y-49275842D01*
X71267007Y-49294075D01*
X71152993Y-49359901D01*
X71059901Y-49452993D01*
X70994075Y-49567007D01*
X70975842Y-49635052D01*
X70336921Y-48996131D01*
X70336920Y-48996132D01*
X70261586Y-49111439D01*
X70261579Y-49111453D01*
X70171179Y-49317543D01*
X70171176Y-49317550D01*
X70115932Y-49535707D01*
X70097346Y-49760000D01*
X70115932Y-49984292D01*
X70171176Y-50202449D01*
X70171179Y-50202456D01*
X70261580Y-50408548D01*
X70336921Y-50523866D01*
X70975841Y-49884946D01*
X70994075Y-49952993D01*
X71059901Y-50067007D01*
X71152993Y-50160099D01*
X71267007Y-50225925D01*
X71335052Y-50244158D01*
X70694311Y-50884898D01*
X70714697Y-50900766D01*
X70714705Y-50900771D01*
X70748731Y-50919185D01*
X70799122Y-50969197D01*
X70814475Y-51038514D01*
X70789915Y-51105127D01*
X70748735Y-51140811D01*
X70714705Y-51159227D01*
X70714693Y-51159235D01*
X70694311Y-51175099D01*
X70694310Y-51175100D01*
X71335052Y-51815842D01*
X71267007Y-51834075D01*
X71152993Y-51899901D01*
X71059901Y-51992993D01*
X70994075Y-52107007D01*
X70975842Y-52175052D01*
X70336921Y-51536131D01*
X70336920Y-51536132D01*
X70261586Y-51651439D01*
X70261579Y-51651453D01*
X70171179Y-51857543D01*
X70171176Y-51857550D01*
X70115932Y-52075707D01*
X70097346Y-52300000D01*
X70115932Y-52524292D01*
X70171176Y-52742449D01*
X70171179Y-52742456D01*
X70261580Y-52948548D01*
X70336921Y-53063866D01*
X70975841Y-52424946D01*
X70994075Y-52492993D01*
X71059901Y-52607007D01*
X71152993Y-52700099D01*
X71267007Y-52765925D01*
X71335050Y-52784157D01*
X70694310Y-53424898D01*
X70714697Y-53440766D01*
X70714705Y-53440771D01*
X70748207Y-53458902D01*
X70798597Y-53508915D01*
X70813949Y-53578232D01*
X70789388Y-53644845D01*
X70748207Y-53680528D01*
X70714430Y-53698807D01*
X70714424Y-53698811D01*
X70536762Y-53837091D01*
X70384279Y-54002729D01*
X70384275Y-54002734D01*
X70261141Y-54191206D01*
X70170703Y-54397386D01*
X70170702Y-54397387D01*
X70115437Y-54615624D01*
X70096844Y-54840000D01*
X60075500Y-54840000D01*
X60075500Y-35000000D01*
X62136656Y-35000000D01*
X62156016Y-35332403D01*
X62156016Y-35332409D01*
X62156017Y-35332414D01*
X62213838Y-35660333D01*
X62309337Y-35979321D01*
X62309339Y-35979327D01*
X62309340Y-35979328D01*
X62441220Y-36285063D01*
X62441222Y-36285066D01*
X62607711Y-36573433D01*
X62607714Y-36573437D01*
X62806552Y-36840523D01*
X63035057Y-37082724D01*
X63290134Y-37296758D01*
X63568320Y-37479724D01*
X63568328Y-37479729D01*
X63865887Y-37629169D01*
X64022335Y-37686111D01*
X64178775Y-37743051D01*
X64178776Y-37743051D01*
X64178784Y-37743054D01*
X64502786Y-37819843D01*
X64691771Y-37841932D01*
X64833508Y-37858500D01*
X64833511Y-37858500D01*
X65166492Y-37858500D01*
X65290510Y-37844003D01*
X65497214Y-37819843D01*
X65821216Y-37743054D01*
X66134113Y-37629169D01*
X66431672Y-37479729D01*
X66709870Y-37296755D01*
X66964946Y-37082721D01*
X67193449Y-36840522D01*
X67392289Y-36573433D01*
X67558778Y-36285066D01*
X67690663Y-35979321D01*
X67786162Y-35660333D01*
X67843983Y-35332414D01*
X67863344Y-35000000D01*
X122136656Y-35000000D01*
X122156016Y-35332403D01*
X122156016Y-35332409D01*
X122156017Y-35332414D01*
X122213838Y-35660333D01*
X122309337Y-35979321D01*
X122309339Y-35979327D01*
X122309340Y-35979328D01*
X122441220Y-36285063D01*
X122441222Y-36285066D01*
X122607711Y-36573433D01*
X122607714Y-36573437D01*
X122806552Y-36840523D01*
X123035057Y-37082724D01*
X123290134Y-37296758D01*
X123568320Y-37479724D01*
X123568328Y-37479729D01*
X123865887Y-37629169D01*
X124022335Y-37686111D01*
X124178775Y-37743051D01*
X124178776Y-37743051D01*
X124178784Y-37743054D01*
X124502786Y-37819843D01*
X124691771Y-37841932D01*
X124833508Y-37858500D01*
X124833511Y-37858500D01*
X125166492Y-37858500D01*
X125290510Y-37844003D01*
X125497214Y-37819843D01*
X125821216Y-37743054D01*
X126134113Y-37629169D01*
X126431672Y-37479729D01*
X126709870Y-37296755D01*
X126964946Y-37082721D01*
X127193449Y-36840522D01*
X127392289Y-36573433D01*
X127558778Y-36285066D01*
X127690663Y-35979321D01*
X127786162Y-35660333D01*
X127843983Y-35332414D01*
X127863344Y-35000000D01*
X127843983Y-34667586D01*
X127786162Y-34339667D01*
X127690663Y-34020679D01*
X127558778Y-33714934D01*
X127392289Y-33426567D01*
X127193449Y-33159478D01*
X126964946Y-32917279D01*
X126964944Y-32917278D01*
X126964942Y-32917275D01*
X126709865Y-32703241D01*
X126431679Y-32520275D01*
X126431675Y-32520273D01*
X126431672Y-32520271D01*
X126134113Y-32370831D01*
X126134108Y-32370829D01*
X126134103Y-32370827D01*
X125821224Y-32256948D01*
X125821217Y-32256946D01*
X125821216Y-32256946D01*
X125639258Y-32213821D01*
X125497219Y-32180158D01*
X125497209Y-32180156D01*
X125166492Y-32141500D01*
X125166489Y-32141500D01*
X124833511Y-32141500D01*
X124833508Y-32141500D01*
X124502790Y-32180156D01*
X124502780Y-32180158D01*
X124178784Y-32256946D01*
X124178775Y-32256948D01*
X123865896Y-32370827D01*
X123865891Y-32370829D01*
X123568320Y-32520275D01*
X123290134Y-32703241D01*
X123035057Y-32917275D01*
X122806552Y-33159476D01*
X122607714Y-33426562D01*
X122607704Y-33426578D01*
X122441223Y-33714931D01*
X122441220Y-33714936D01*
X122309340Y-34020671D01*
X122309338Y-34020677D01*
X122213838Y-34339666D01*
X122156016Y-34667590D01*
X122156016Y-34667596D01*
X122136656Y-35000000D01*
X67863344Y-35000000D01*
X67843983Y-34667586D01*
X67786162Y-34339667D01*
X67690663Y-34020679D01*
X67558778Y-33714934D01*
X67392289Y-33426567D01*
X67193449Y-33159478D01*
X66964946Y-32917279D01*
X66964944Y-32917278D01*
X66964942Y-32917275D01*
X66709865Y-32703241D01*
X66431679Y-32520275D01*
X66431675Y-32520273D01*
X66431672Y-32520271D01*
X66134113Y-32370831D01*
X66134108Y-32370829D01*
X66134103Y-32370827D01*
X65821224Y-32256948D01*
X65821217Y-32256946D01*
X65821216Y-32256946D01*
X65639258Y-32213821D01*
X65497219Y-32180158D01*
X65497209Y-32180156D01*
X65166492Y-32141500D01*
X65166489Y-32141500D01*
X64833511Y-32141500D01*
X64833508Y-32141500D01*
X64502790Y-32180156D01*
X64502780Y-32180158D01*
X64178784Y-32256946D01*
X64178775Y-32256948D01*
X63865896Y-32370827D01*
X63865891Y-32370829D01*
X63568320Y-32520275D01*
X63290134Y-32703241D01*
X63035057Y-32917275D01*
X62806552Y-33159476D01*
X62607714Y-33426562D01*
X62607704Y-33426578D01*
X62441223Y-33714931D01*
X62441220Y-33714936D01*
X62309340Y-34020671D01*
X62309338Y-34020677D01*
X62213838Y-34339666D01*
X62156016Y-34667590D01*
X62156016Y-34667596D01*
X62136656Y-35000000D01*
X60075500Y-35000000D01*
X60075500Y-30201500D01*
X60095502Y-30133379D01*
X60149158Y-30086886D01*
X60201500Y-30075500D01*
X129798500Y-30075500D01*
X129866621Y-30095502D01*
G37*
G04 #@! TD.AperFunction*
M02*
