<?xml version="1.0" standalone="no"?>
 <!DOCTYPE svg PUBLIC "-//W3C//DTD SVG 1.1//EN" 
 "http://www.w3.org/Graphics/SVG/1.1/DTD/svg11.dtd"> 
<svg
  xmlns:svg="http://www.w3.org/2000/svg"
  xmlns="http://www.w3.org/2000/svg"
  xmlns:xlink="http://www.w3.org/1999/xlink"
  version="1.1"
  width="108.7882mm" height="100.2792mm" viewBox="0.0000 0.0000 108.7882 100.2792">
<title>SVG Image created as RL78_F14_32p_Rev2-F_Paste.svg date 2025/01/15 22:04:58 </title>
  <desc>Image generated by PCBNEW </desc>
<g style="fill:#000000; fill-opacity:1.0000;stroke:#000000; stroke-opacity:1.0000;
stroke-linecap:round; stroke-linejoin:round;"
 transform="translate(0 0) scale(1 1)">
<path style="fill:#000000; fill-opacity:1.0000; stroke:none;fill-rule:evenodd;"
d="M 58.5800,7.4950
58.5610,7.5907
58.5068,7.6718
58.4257,7.7260
58.3300,7.7450
57.6550,7.7450
57.5593,7.7260
57.4782,7.6718
57.4240,7.5907
57.4050,7.4950
57.4050,6.5450
57.4240,6.4493
57.4782,6.3682
57.5593,6.3140
57.6550,6.2950
58.3300,6.2950
58.4257,6.3140
58.5068,6.3682
58.5610,6.4493
58.5800,6.5450
Z" /> 
<path style="fill:#000000; fill-opacity:1.0000; stroke:none;fill-rule:evenodd;"
d="M 56.5050,7.4950
56.4860,7.5907
56.4318,7.6718
56.3507,7.7260
56.2550,7.7450
55.5800,7.7450
55.4843,7.7260
55.4032,7.6718
55.3490,7.5907
55.3300,7.4950
55.3300,6.5450
55.3490,6.4493
55.4032,6.3682
55.4843,6.3140
55.5800,6.2950
56.2550,6.2950
56.3507,6.3140
56.4318,6.3682
56.4860,6.4493
56.5050,6.5450
Z" /> 
<path style="fill:#000000; fill-opacity:1.0000; stroke:none;fill-rule:evenodd;"
d="M 88.8750,25.2875
88.7793,25.2685
88.6982,25.2143
88.6440,25.1332
88.6250,25.0375
88.6250,24.5125
88.6440,24.4168
88.6982,24.3357
88.7793,24.2815
88.8750,24.2625
89.7750,24.2625
89.8707,24.2815
89.9518,24.3357
90.0060,24.4168
90.0250,24.5125
90.0250,25.0375
90.0060,25.1332
89.9518,25.2143
89.8707,25.2685
89.7750,25.2875
Z" /> 
<path style="fill:#000000; fill-opacity:1.0000; stroke:none;fill-rule:evenodd;"
d="M 88.8750,23.4625
88.7793,23.4435
88.6982,23.3893
88.6440,23.3082
88.6250,23.2125
88.6250,22.6875
88.6440,22.5918
88.6982,22.5107
88.7793,22.4565
88.8750,22.4375
89.7750,22.4375
89.8707,22.4565
89.9518,22.5107
90.0060,22.5918
90.0250,22.6875
90.0250,23.2125
90.0060,23.3082
89.9518,23.3893
89.8707,23.4435
89.7750,23.4625
Z" /> 
<path style="fill:#000000; fill-opacity:1.0000; stroke:none;fill-rule:evenodd;"
d="M 50.4500,22.2000
50.4690,22.1043
50.5232,22.0232
50.6043,21.9690
50.7000,21.9500
51.2250,21.9500
51.3207,21.9690
51.4018,22.0232
51.4560,22.1043
51.4750,22.2000
51.4750,23.1000
51.4560,23.1957
51.4018,23.2768
51.3207,23.3310
51.2250,23.3500
50.7000,23.3500
50.6043,23.3310
50.5232,23.2768
50.4690,23.1957
50.4500,23.1000
Z" /> 
<path style="fill:#000000; fill-opacity:1.0000; stroke:none;fill-rule:evenodd;"
d="M 52.2750,22.2000
52.2940,22.1043
52.3482,22.0232
52.4293,21.9690
52.5250,21.9500
53.0500,21.9500
53.1457,21.9690
53.2268,22.0232
53.2810,22.1043
53.3000,22.2000
53.3000,23.1000
53.2810,23.1957
53.2268,23.2768
53.1457,23.3310
53.0500,23.3500
52.5250,23.3500
52.4293,23.3310
52.3482,23.2768
52.2940,23.1957
52.2750,23.1000
Z" /> 
<path style="fill:#000000; fill-opacity:1.0000; stroke:none;fill-rule:evenodd;"
d="M 34.7250,4.1000
34.8207,4.1190
34.9018,4.1732
34.9560,4.2543
34.9750,4.3500
34.9750,5.0500
34.9560,5.1457
34.9018,5.2268
34.8207,5.2810
34.7250,5.3000
33.8250,5.3000
33.7293,5.2810
33.6482,5.2268
33.5940,5.1457
33.5750,5.0500
33.5750,4.3500
33.5940,4.2543
33.6482,4.1732
33.7293,4.1190
33.8250,4.1000
Z" /> 
<path style="fill:#000000; fill-opacity:1.0000; stroke:none;fill-rule:evenodd;"
d="M 34.7250,6.1000
34.8207,6.1190
34.9018,6.1732
34.9560,6.2543
34.9750,6.3500
34.9750,7.0500
34.9560,7.1457
34.9018,7.2268
34.8207,7.2810
34.7250,7.3000
33.8250,7.3000
33.7293,7.2810
33.6482,7.2268
33.5940,7.1457
33.5750,7.0500
33.5750,6.3500
33.5940,6.2543
33.6482,6.1732
33.7293,6.1190
33.8250,6.1000
Z" /> 
<path style="fill:#000000; fill-opacity:1.0000; stroke:none;fill-rule:evenodd;"
d="M 69.7500,34.7125
69.6543,34.6935
69.5732,34.6393
69.5190,34.5582
69.5000,34.4625
69.5000,33.7875
69.5190,33.6918
69.5732,33.6107
69.6543,33.5565
69.7500,33.5375
70.7000,33.5375
70.7957,33.5565
70.8768,33.6107
70.9310,33.6918
70.9500,33.7875
70.9500,34.4625
70.9310,34.5582
70.8768,34.6393
70.7957,34.6935
70.7000,34.7125
Z" /> 
<path style="fill:#000000; fill-opacity:1.0000; stroke:none;fill-rule:evenodd;"
d="M 69.7500,32.6375
69.6543,32.6185
69.5732,32.5643
69.5190,32.4832
69.5000,32.3875
69.5000,31.7125
69.5190,31.6168
69.5732,31.5357
69.6543,31.4815
69.7500,31.4625
70.7000,31.4625
70.7957,31.4815
70.8768,31.5357
70.9310,31.6168
70.9500,31.7125
70.9500,32.3875
70.9310,32.4832
70.8768,32.5643
70.7957,32.6185
70.7000,32.6375
Z" /> 
<path style="fill:#000000; fill-opacity:1.0000; stroke:none;fill-rule:evenodd;"
d="M 37.7000,21.2900
37.7190,21.1943
37.7732,21.1132
37.8543,21.0590
37.9500,21.0400
38.4750,21.0400
38.5707,21.0590
38.6518,21.1132
38.7060,21.1943
38.7250,21.2900
38.7250,22.1900
38.7060,22.2857
38.6518,22.3668
38.5707,22.4210
38.4750,22.4400
37.9500,22.4400
37.8543,22.4210
37.7732,22.3668
37.7190,22.2857
37.7000,22.1900
Z" /> 
<path style="fill:#000000; fill-opacity:1.0000; stroke:none;fill-rule:evenodd;"
d="M 39.5250,21.2900
39.5440,21.1943
39.5982,21.1132
39.6793,21.0590
39.7750,21.0400
40.3000,21.0400
40.3957,21.0590
40.4768,21.1132
40.5310,21.1943
40.5500,21.2900
40.5500,22.1900
40.5310,22.2857
40.4768,22.3668
40.3957,22.4210
40.3000,22.4400
39.7750,22.4400
39.6793,22.4210
39.5982,22.3668
39.5440,22.2857
39.5250,22.1900
Z" /> 
<path style="fill:#000000; fill-opacity:1.0000; stroke:none;fill-rule:evenodd;"
d="M 37.7000,18.7500
37.7190,18.6543
37.7732,18.5732
37.8543,18.5190
37.9500,18.5000
38.4750,18.5000
38.5707,18.5190
38.6518,18.5732
38.7060,18.6543
38.7250,18.7500
38.7250,19.6500
38.7060,19.7457
38.6518,19.8268
38.5707,19.8810
38.4750,19.9000
37.9500,19.9000
37.8543,19.8810
37.7732,19.8268
37.7190,19.7457
37.7000,19.6500
Z" /> 
<path style="fill:#000000; fill-opacity:1.0000; stroke:none;fill-rule:evenodd;"
d="M 39.5250,18.7500
39.5440,18.6543
39.5982,18.5732
39.6793,18.5190
39.7750,18.5000
40.3000,18.5000
40.3957,18.5190
40.4768,18.5732
40.5310,18.6543
40.5500,18.7500
40.5500,19.6500
40.5310,19.7457
40.4768,19.8268
40.3957,19.8810
40.3000,19.9000
39.7750,19.9000
39.6793,19.8810
39.5982,19.8268
39.5440,19.7457
39.5250,19.6500
Z" /> 
<path style="fill:#000000; fill-opacity:1.0000; stroke:none;fill-rule:evenodd;"
d="M 84.0000,54.6250
83.9043,54.6060
83.8232,54.5518
83.7690,54.4707
83.7500,54.3750
83.7500,53.7000
83.7690,53.6043
83.8232,53.5232
83.9043,53.4690
84.0000,53.4500
84.9500,53.4500
85.0457,53.4690
85.1268,53.5232
85.1810,53.6043
85.2000,53.7000
85.2000,54.3750
85.1810,54.4707
85.1268,54.5518
85.0457,54.6060
84.9500,54.6250
Z" /> 
<path style="fill:#000000; fill-opacity:1.0000; stroke:none;fill-rule:evenodd;"
d="M 84.0000,52.5500
83.9043,52.5310
83.8232,52.4768
83.7690,52.3957
83.7500,52.3000
83.7500,51.6250
83.7690,51.5293
83.8232,51.4482
83.9043,51.3940
84.0000,51.3750
84.9500,51.3750
85.0457,51.3940
85.1268,51.4482
85.1810,51.5293
85.2000,51.6250
85.2000,52.3000
85.1810,52.3957
85.1268,52.4768
85.0457,52.5310
84.9500,52.5500
Z" /> 
<path style="fill:#000000; fill-opacity:1.0000; stroke:none;fill-rule:evenodd;"
d="M 70.2500,52.3250
70.1543,52.3060
70.0732,52.2518
70.0190,52.1707
70.0000,52.0750
70.0000,51.4000
70.0190,51.3043
70.0732,51.2232
70.1543,51.1690
70.2500,51.1500
71.2000,51.1500
71.2957,51.1690
71.3768,51.2232
71.4310,51.3043
71.4500,51.4000
71.4500,52.0750
71.4310,52.1707
71.3768,52.2518
71.2957,52.3060
71.2000,52.3250
Z" /> 
<path style="fill:#000000; fill-opacity:1.0000; stroke:none;fill-rule:evenodd;"
d="M 70.2500,50.2500
70.1543,50.2310
70.0732,50.1768
70.0190,50.0957
70.0000,50.0000
70.0000,49.3250
70.0190,49.2293
70.0732,49.1482
70.1543,49.0940
70.2500,49.0750
71.2000,49.0750
71.2957,49.0940
71.3768,49.1482
71.4310,49.2293
71.4500,49.3250
71.4500,50.0000
71.4310,50.0957
71.3768,50.1768
71.2957,50.2310
71.2000,50.2500
Z" /> 
<path style="fill:#000000; fill-opacity:1.0000; stroke:none;fill-rule:evenodd;"
d="M 75.4575,31.4050
75.4761,31.3112
75.5293,31.2318
75.6087,31.1786
75.7025,31.1600
76.1925,31.1600
76.2863,31.1786
76.3657,31.2318
76.4188,31.3112
76.4375,31.4050
76.4375,31.8950
76.4188,31.9888
76.3657,32.0682
76.2863,32.1213
76.1925,32.1400
75.7025,32.1400
75.6087,32.1213
75.5293,32.0682
75.4761,31.9888
75.4575,31.8950
Z" /> 
<path style="fill:#000000; fill-opacity:1.0000; stroke:none;fill-rule:evenodd;"
d="M 75.4575,32.6250
75.4761,32.5312
75.5293,32.4518
75.6087,32.3986
75.7025,32.3800
76.1925,32.3800
76.2863,32.3986
76.3657,32.4518
76.4188,32.5312
76.4375,32.6250
76.4375,33.1150
76.4188,33.2088
76.3657,33.2882
76.2863,33.3413
76.1925,33.3600
75.7025,33.3600
75.6087,33.3413
75.5293,33.2882
75.4761,33.2088
75.4575,33.1150
Z" /> 
<path style="fill:#000000; fill-opacity:1.0000; stroke:none;fill-rule:evenodd;"
d="M 75.4575,33.8450
75.4761,33.7512
75.5293,33.6718
75.6087,33.6186
75.7025,33.6000
76.1925,33.6000
76.2863,33.6186
76.3657,33.6718
76.4188,33.7512
76.4375,33.8450
76.4375,34.3350
76.4188,34.4288
76.3657,34.5082
76.2863,34.5613
76.1925,34.5800
75.7025,34.5800
75.6087,34.5613
75.5293,34.5082
75.4761,34.4288
75.4575,34.3350
Z" /> 
<path style="fill:#000000; fill-opacity:1.0000; stroke:none;fill-rule:evenodd;"
d="M 76.6775,31.4050
76.6962,31.3112
76.7493,31.2318
76.8287,31.1786
76.9225,31.1600
77.4125,31.1600
77.5063,31.1786
77.5857,31.2318
77.6388,31.3112
77.6575,31.4050
77.6575,31.8950
77.6388,31.9888
77.5857,32.0682
77.5063,32.1213
77.4125,32.1400
76.9225,32.1400
76.8287,32.1213
76.7493,32.0682
76.6962,31.9888
76.6775,31.8950
Z" /> 
<path style="fill:#000000; fill-opacity:1.0000; stroke:none;fill-rule:evenodd;"
d="M 76.6775,32.6250
76.6962,32.5312
76.7493,32.4518
76.8287,32.3986
76.9225,32.3800
77.4125,32.3800
77.5063,32.3986
77.5857,32.4518
77.6388,32.5312
77.6575,32.6250
77.6575,33.1150
77.6388,33.2088
77.5857,33.2882
77.5063,33.3413
77.4125,33.3600
76.9225,33.3600
76.8287,33.3413
76.7493,33.2882
76.6962,33.2088
76.6775,33.1150
Z" /> 
<path style="fill:#000000; fill-opacity:1.0000; stroke:none;fill-rule:evenodd;"
d="M 76.6775,33.8450
76.6962,33.7512
76.7493,33.6718
76.8287,33.6186
76.9225,33.6000
77.4125,33.6000
77.5063,33.6186
77.5857,33.6718
77.6388,33.7512
77.6575,33.8450
77.6575,34.3350
77.6388,34.4288
77.5857,34.5082
77.5063,34.5613
77.4125,34.5800
76.9225,34.5800
76.8287,34.5613
76.7493,34.5082
76.6962,34.4288
76.6775,34.3350
Z" /> 
<path style="fill:#000000; fill-opacity:1.0000; stroke:none;fill-rule:evenodd;"
d="M 77.8975,31.4050
77.9162,31.3112
77.9693,31.2318
78.0487,31.1786
78.1425,31.1600
78.6325,31.1600
78.7263,31.1786
78.8057,31.2318
78.8588,31.3112
78.8775,31.4050
78.8775,31.8950
78.8588,31.9888
78.8057,32.0682
78.7263,32.1213
78.6325,32.1400
78.1425,32.1400
78.0487,32.1213
77.9693,32.0682
77.9162,31.9888
77.8975,31.8950
Z" /> 
<path style="fill:#000000; fill-opacity:1.0000; stroke:none;fill-rule:evenodd;"
d="M 77.8975,32.6250
77.9162,32.5312
77.9693,32.4518
78.0487,32.3986
78.1425,32.3800
78.6325,32.3800
78.7263,32.3986
78.8057,32.4518
78.8588,32.5312
78.8775,32.6250
78.8775,33.1150
78.8588,33.2088
78.8057,33.2882
78.7263,33.3413
78.6325,33.3600
78.1425,33.3600
78.0487,33.3413
77.9693,33.2882
77.9162,33.2088
77.8975,33.1150
Z" /> 
<path style="fill:#000000; fill-opacity:1.0000; stroke:none;fill-rule:evenodd;"
d="M 77.8975,33.8450
77.9162,33.7512
77.9693,33.6718
78.0487,33.6186
78.1425,33.6000
78.6325,33.6000
78.7263,33.6186
78.8057,33.6718
78.8588,33.7512
78.8775,33.8450
78.8775,34.3350
78.8588,34.4288
78.8057,34.5082
78.7263,34.5613
78.6325,34.5800
78.1425,34.5800
78.0487,34.5613
77.9693,34.5082
77.9162,34.4288
77.8975,34.3350
Z" /> 
<path style="fill:#000000; fill-opacity:1.0000; stroke:none;fill-rule:evenodd;"
d="M 74.3175,31.0575
74.3223,31.0336
74.3358,31.0133
74.3561,30.9998
74.3800,30.9950
75.0050,30.9950
75.0289,30.9998
75.0492,31.0133
75.0627,31.0336
75.0675,31.0575
75.0675,31.1825
75.0627,31.2064
75.0492,31.2267
75.0289,31.2402
75.0050,31.2450
74.3800,31.2450
74.3561,31.2402
74.3358,31.2267
74.3223,31.2064
74.3175,31.1825
Z" /> 
<path style="fill:#000000; fill-opacity:1.0000; stroke:none;fill-rule:evenodd;"
d="M 74.3175,31.5575
74.3223,31.5336
74.3358,31.5133
74.3561,31.4998
74.3800,31.4950
75.0050,31.4950
75.0289,31.4998
75.0492,31.5133
75.0627,31.5336
75.0675,31.5575
75.0675,31.6825
75.0627,31.7064
75.0492,31.7267
75.0289,31.7402
75.0050,31.7450
74.3800,31.7450
74.3561,31.7402
74.3358,31.7267
74.3223,31.7064
74.3175,31.6825
Z" /> 
<path style="fill:#000000; fill-opacity:1.0000; stroke:none;fill-rule:evenodd;"
d="M 74.3175,32.0575
74.3223,32.0336
74.3358,32.0133
74.3561,31.9998
74.3800,31.9950
75.0050,31.9950
75.0289,31.9998
75.0492,32.0133
75.0627,32.0336
75.0675,32.0575
75.0675,32.1825
75.0627,32.2064
75.0492,32.2267
75.0289,32.2402
75.0050,32.2450
74.3800,32.2450
74.3561,32.2402
74.3358,32.2267
74.3223,32.2064
74.3175,32.1825
Z" /> 
<path style="fill:#000000; fill-opacity:1.0000; stroke:none;fill-rule:evenodd;"
d="M 74.3175,32.5575
74.3223,32.5336
74.3358,32.5133
74.3561,32.4998
74.3800,32.4950
75.0050,32.4950
75.0289,32.4998
75.0492,32.5133
75.0627,32.5336
75.0675,32.5575
75.0675,32.6825
75.0627,32.7064
75.0492,32.7267
75.0289,32.7402
75.0050,32.7450
74.3800,32.7450
74.3561,32.7402
74.3358,32.7267
74.3223,32.7064
74.3175,32.6825
Z" /> 
<path style="fill:#000000; fill-opacity:1.0000; stroke:none;fill-rule:evenodd;"
d="M 74.3175,33.0575
74.3223,33.0336
74.3358,33.0133
74.3561,32.9998
74.3800,32.9950
75.0050,32.9950
75.0289,32.9998
75.0492,33.0133
75.0627,33.0336
75.0675,33.0575
75.0675,33.1825
75.0627,33.2064
75.0492,33.2267
75.0289,33.2402
75.0050,33.2450
74.3800,33.2450
74.3561,33.2402
74.3358,33.2267
74.3223,33.2064
74.3175,33.1825
Z" /> 
<path style="fill:#000000; fill-opacity:1.0000; stroke:none;fill-rule:evenodd;"
d="M 74.3175,33.5575
74.3223,33.5336
74.3358,33.5133
74.3561,33.4998
74.3800,33.4950
75.0050,33.4950
75.0289,33.4998
75.0492,33.5133
75.0627,33.5336
75.0675,33.5575
75.0675,33.6825
75.0627,33.7064
75.0492,33.7267
75.0289,33.7402
75.0050,33.7450
74.3800,33.7450
74.3561,33.7402
74.3358,33.7267
74.3223,33.7064
74.3175,33.6825
Z" /> 
<path style="fill:#000000; fill-opacity:1.0000; stroke:none;fill-rule:evenodd;"
d="M 74.3175,34.0575
74.3223,34.0336
74.3358,34.0133
74.3561,33.9998
74.3800,33.9950
75.0050,33.9950
75.0289,33.9998
75.0492,34.0133
75.0627,34.0336
75.0675,34.0575
75.0675,34.1825
75.0627,34.2064
75.0492,34.2267
75.0289,34.2402
75.0050,34.2450
74.3800,34.2450
74.3561,34.2402
74.3358,34.2267
74.3223,34.2064
74.3175,34.1825
Z" /> 
<path style="fill:#000000; fill-opacity:1.0000; stroke:none;fill-rule:evenodd;"
d="M 74.3175,34.5575
74.3223,34.5336
74.3358,34.5133
74.3561,34.4998
74.3800,34.4950
75.0050,34.4950
75.0289,34.4998
75.0492,34.5133
75.0627,34.5336
75.0675,34.5575
75.0675,34.6825
75.0627,34.7064
75.0492,34.7267
75.0289,34.7402
75.0050,34.7450
74.3800,34.7450
74.3561,34.7402
74.3358,34.7267
74.3223,34.7064
74.3175,34.6825
Z" /> 
<path style="fill:#000000; fill-opacity:1.0000; stroke:none;fill-rule:evenodd;"
d="M 75.2925,35.0325
75.2973,35.0086
75.3108,34.9883
75.3311,34.9748
75.3550,34.9700
75.4800,34.9700
75.5039,34.9748
75.5242,34.9883
75.5377,35.0086
75.5425,35.0325
75.5425,35.6575
75.5377,35.6814
75.5242,35.7017
75.5039,35.7152
75.4800,35.7200
75.3550,35.7200
75.3311,35.7152
75.3108,35.7017
75.2973,35.6814
75.2925,35.6575
Z" /> 
<path style="fill:#000000; fill-opacity:1.0000; stroke:none;fill-rule:evenodd;"
d="M 75.7925,35.0325
75.7973,35.0086
75.8108,34.9883
75.8311,34.9748
75.8550,34.9700
75.9800,34.9700
76.0039,34.9748
76.0242,34.9883
76.0377,35.0086
76.0425,35.0325
76.0425,35.6575
76.0377,35.6814
76.0242,35.7017
76.0039,35.7152
75.9800,35.7200
75.8550,35.7200
75.8311,35.7152
75.8108,35.7017
75.7973,35.6814
75.7925,35.6575
Z" /> 
<path style="fill:#000000; fill-opacity:1.0000; stroke:none;fill-rule:evenodd;"
d="M 76.2925,35.0325
76.2973,35.0086
76.3108,34.9883
76.3311,34.9748
76.3550,34.9700
76.4800,34.9700
76.5039,34.9748
76.5242,34.9883
76.5377,35.0086
76.5425,35.0325
76.5425,35.6575
76.5377,35.6814
76.5242,35.7017
76.5039,35.7152
76.4800,35.7200
76.3550,35.7200
76.3311,35.7152
76.3108,35.7017
76.2973,35.6814
76.2925,35.6575
Z" /> 
<path style="fill:#000000; fill-opacity:1.0000; stroke:none;fill-rule:evenodd;"
d="M 76.7925,35.0325
76.7973,35.0086
76.8108,34.9883
76.8311,34.9748
76.8550,34.9700
76.9800,34.9700
77.0039,34.9748
77.0242,34.9883
77.0377,35.0086
77.0425,35.0325
77.0425,35.6575
77.0377,35.6814
77.0242,35.7017
77.0039,35.7152
76.9800,35.7200
76.8550,35.7200
76.8311,35.7152
76.8108,35.7017
76.7973,35.6814
76.7925,35.6575
Z" /> 
<path style="fill:#000000; fill-opacity:1.0000; stroke:none;fill-rule:evenodd;"
d="M 77.2925,35.0325
77.2973,35.0086
77.3108,34.9883
77.3311,34.9748
77.3550,34.9700
77.4800,34.9700
77.5039,34.9748
77.5242,34.9883
77.5377,35.0086
77.5425,35.0325
77.5425,35.6575
77.5377,35.6814
77.5242,35.7017
77.5039,35.7152
77.4800,35.7200
77.3550,35.7200
77.3311,35.7152
77.3108,35.7017
77.2973,35.6814
77.2925,35.6575
Z" /> 
<path style="fill:#000000; fill-opacity:1.0000; stroke:none;fill-rule:evenodd;"
d="M 77.7925,35.0325
77.7973,35.0086
77.8108,34.9883
77.8311,34.9748
77.8550,34.9700
77.9800,34.9700
78.0039,34.9748
78.0242,34.9883
78.0377,35.0086
78.0425,35.0325
78.0425,35.6575
78.0377,35.6814
78.0242,35.7017
78.0039,35.7152
77.9800,35.7200
77.8550,35.7200
77.8311,35.7152
77.8108,35.7017
77.7973,35.6814
77.7925,35.6575
Z" /> 
<path style="fill:#000000; fill-opacity:1.0000; stroke:none;fill-rule:evenodd;"
d="M 78.2925,35.0325
78.2973,35.0086
78.3108,34.9883
78.3311,34.9748
78.3550,34.9700
78.4800,34.9700
78.5039,34.9748
78.5242,34.9883
78.5377,35.0086
78.5425,35.0325
78.5425,35.6575
78.5377,35.6814
78.5242,35.7017
78.5039,35.7152
78.4800,35.7200
78.3550,35.7200
78.3311,35.7152
78.3108,35.7017
78.2973,35.6814
78.2925,35.6575
Z" /> 
<path style="fill:#000000; fill-opacity:1.0000; stroke:none;fill-rule:evenodd;"
d="M 78.7925,35.0325
78.7973,35.0086
78.8108,34.9883
78.8311,34.9748
78.8550,34.9700
78.9800,34.9700
79.0039,34.9748
79.0242,34.9883
79.0377,35.0086
79.0425,35.0325
79.0425,35.6575
79.0377,35.6814
79.0242,35.7017
79.0039,35.7152
78.9800,35.7200
78.8550,35.7200
78.8311,35.7152
78.8108,35.7017
78.7973,35.6814
78.7925,35.6575
Z" /> 
<path style="fill:#000000; fill-opacity:1.0000; stroke:none;fill-rule:evenodd;"
d="M 79.2675,34.5575
79.2723,34.5336
79.2858,34.5133
79.3061,34.4998
79.3300,34.4950
79.9550,34.4950
79.9789,34.4998
79.9992,34.5133
80.0127,34.5336
80.0175,34.5575
80.0175,34.6825
80.0127,34.7064
79.9992,34.7267
79.9789,34.7402
79.9550,34.7450
79.3300,34.7450
79.3061,34.7402
79.2858,34.7267
79.2723,34.7064
79.2675,34.6825
Z" /> 
<path style="fill:#000000; fill-opacity:1.0000; stroke:none;fill-rule:evenodd;"
d="M 79.2675,34.0575
79.2723,34.0336
79.2858,34.0133
79.3061,33.9998
79.3300,33.9950
79.9550,33.9950
79.9789,33.9998
79.9992,34.0133
80.0127,34.0336
80.0175,34.0575
80.0175,34.1825
80.0127,34.2064
79.9992,34.2267
79.9789,34.2402
79.9550,34.2450
79.3300,34.2450
79.3061,34.2402
79.2858,34.2267
79.2723,34.2064
79.2675,34.1825
Z" /> 
<path style="fill:#000000; fill-opacity:1.0000; stroke:none;fill-rule:evenodd;"
d="M 79.2675,33.5575
79.2723,33.5336
79.2858,33.5133
79.3061,33.4998
79.3300,33.4950
79.9550,33.4950
79.9789,33.4998
79.9992,33.5133
80.0127,33.5336
80.0175,33.5575
80.0175,33.6825
80.0127,33.7064
79.9992,33.7267
79.9789,33.7402
79.9550,33.7450
79.3300,33.7450
79.3061,33.7402
79.2858,33.7267
79.2723,33.7064
79.2675,33.6825
Z" /> 
<path style="fill:#000000; fill-opacity:1.0000; stroke:none;fill-rule:evenodd;"
d="M 79.2675,33.0575
79.2723,33.0336
79.2858,33.0133
79.3061,32.9998
79.3300,32.9950
79.9550,32.9950
79.9789,32.9998
79.9992,33.0133
80.0127,33.0336
80.0175,33.0575
80.0175,33.1825
80.0127,33.2064
79.9992,33.2267
79.9789,33.2402
79.9550,33.2450
79.3300,33.2450
79.3061,33.2402
79.2858,33.2267
79.2723,33.2064
79.2675,33.1825
Z" /> 
<path style="fill:#000000; fill-opacity:1.0000; stroke:none;fill-rule:evenodd;"
d="M 79.2675,32.5575
79.2723,32.5336
79.2858,32.5133
79.3061,32.4998
79.3300,32.4950
79.9550,32.4950
79.9789,32.4998
79.9992,32.5133
80.0127,32.5336
80.0175,32.5575
80.0175,32.6825
80.0127,32.7064
79.9992,32.7267
79.9789,32.7402
79.9550,32.7450
79.3300,32.7450
79.3061,32.7402
79.2858,32.7267
79.2723,32.7064
79.2675,32.6825
Z" /> 
<path style="fill:#000000; fill-opacity:1.0000; stroke:none;fill-rule:evenodd;"
d="M 79.2675,32.0575
79.2723,32.0336
79.2858,32.0133
79.3061,31.9998
79.3300,31.9950
79.9550,31.9950
79.9789,31.9998
79.9992,32.0133
80.0127,32.0336
80.0175,32.0575
80.0175,32.1825
80.0127,32.2064
79.9992,32.2267
79.9789,32.2402
79.9550,32.2450
79.3300,32.2450
79.3061,32.2402
79.2858,32.2267
79.2723,32.2064
79.2675,32.1825
Z" /> 
<path style="fill:#000000; fill-opacity:1.0000; stroke:none;fill-rule:evenodd;"
d="M 79.2675,31.5575
79.2723,31.5336
79.2858,31.5133
79.3061,31.4998
79.3300,31.4950
79.9550,31.4950
79.9789,31.4998
79.9992,31.5133
80.0127,31.5336
80.0175,31.5575
80.0175,31.6825
80.0127,31.7064
79.9992,31.7267
79.9789,31.7402
79.9550,31.7450
79.3300,31.7450
79.3061,31.7402
79.2858,31.7267
79.2723,31.7064
79.2675,31.6825
Z" /> 
<path style="fill:#000000; fill-opacity:1.0000; stroke:none;fill-rule:evenodd;"
d="M 79.2675,31.0575
79.2723,31.0336
79.2858,31.0133
79.3061,30.9998
79.3300,30.9950
79.9550,30.9950
79.9789,30.9998
79.9992,31.0133
80.0127,31.0336
80.0175,31.0575
80.0175,31.1825
80.0127,31.2064
79.9992,31.2267
79.9789,31.2402
79.9550,31.2450
79.3300,31.2450
79.3061,31.2402
79.2858,31.2267
79.2723,31.2064
79.2675,31.1825
Z" /> 
<path style="fill:#000000; fill-opacity:1.0000; stroke:none;fill-rule:evenodd;"
d="M 78.7925,30.0825
78.7973,30.0586
78.8108,30.0383
78.8311,30.0248
78.8550,30.0200
78.9800,30.0200
79.0039,30.0248
79.0242,30.0383
79.0377,30.0586
79.0425,30.0825
79.0425,30.7075
79.0377,30.7314
79.0242,30.7517
79.0039,30.7652
78.9800,30.7700
78.8550,30.7700
78.8311,30.7652
78.8108,30.7517
78.7973,30.7314
78.7925,30.7075
Z" /> 
<path style="fill:#000000; fill-opacity:1.0000; stroke:none;fill-rule:evenodd;"
d="M 78.2925,30.0825
78.2973,30.0586
78.3108,30.0383
78.3311,30.0248
78.3550,30.0200
78.4800,30.0200
78.5039,30.0248
78.5242,30.0383
78.5377,30.0586
78.5425,30.0825
78.5425,30.7075
78.5377,30.7314
78.5242,30.7517
78.5039,30.7652
78.4800,30.7700
78.3550,30.7700
78.3311,30.7652
78.3108,30.7517
78.2973,30.7314
78.2925,30.7075
Z" /> 
<path style="fill:#000000; fill-opacity:1.0000; stroke:none;fill-rule:evenodd;"
d="M 77.7925,30.0825
77.7973,30.0586
77.8108,30.0383
77.8311,30.0248
77.8550,30.0200
77.9800,30.0200
78.0039,30.0248
78.0242,30.0383
78.0377,30.0586
78.0425,30.0825
78.0425,30.7075
78.0377,30.7314
78.0242,30.7517
78.0039,30.7652
77.9800,30.7700
77.8550,30.7700
77.8311,30.7652
77.8108,30.7517
77.7973,30.7314
77.7925,30.7075
Z" /> 
<path style="fill:#000000; fill-opacity:1.0000; stroke:none;fill-rule:evenodd;"
d="M 77.2925,30.0825
77.2973,30.0586
77.3108,30.0383
77.3311,30.0248
77.3550,30.0200
77.4800,30.0200
77.5039,30.0248
77.5242,30.0383
77.5377,30.0586
77.5425,30.0825
77.5425,30.7075
77.5377,30.7314
77.5242,30.7517
77.5039,30.7652
77.4800,30.7700
77.3550,30.7700
77.3311,30.7652
77.3108,30.7517
77.2973,30.7314
77.2925,30.7075
Z" /> 
<path style="fill:#000000; fill-opacity:1.0000; stroke:none;fill-rule:evenodd;"
d="M 76.7925,30.0825
76.7973,30.0586
76.8108,30.0383
76.8311,30.0248
76.8550,30.0200
76.9800,30.0200
77.0039,30.0248
77.0242,30.0383
77.0377,30.0586
77.0425,30.0825
77.0425,30.7075
77.0377,30.7314
77.0242,30.7517
77.0039,30.7652
76.9800,30.7700
76.8550,30.7700
76.8311,30.7652
76.8108,30.7517
76.7973,30.7314
76.7925,30.7075
Z" /> 
<path style="fill:#000000; fill-opacity:1.0000; stroke:none;fill-rule:evenodd;"
d="M 76.2925,30.0825
76.2973,30.0586
76.3108,30.0383
76.3311,30.0248
76.3550,30.0200
76.4800,30.0200
76.5039,30.0248
76.5242,30.0383
76.5377,30.0586
76.5425,30.0825
76.5425,30.7075
76.5377,30.7314
76.5242,30.7517
76.5039,30.7652
76.4800,30.7700
76.3550,30.7700
76.3311,30.7652
76.3108,30.7517
76.2973,30.7314
76.2925,30.7075
Z" /> 
<path style="fill:#000000; fill-opacity:1.0000; stroke:none;fill-rule:evenodd;"
d="M 75.7925,30.0825
75.7973,30.0586
75.8108,30.0383
75.8311,30.0248
75.8550,30.0200
75.9800,30.0200
76.0039,30.0248
76.0242,30.0383
76.0377,30.0586
76.0425,30.0825
76.0425,30.7075
76.0377,30.7314
76.0242,30.7517
76.0039,30.7652
75.9800,30.7700
75.8550,30.7700
75.8311,30.7652
75.8108,30.7517
75.7973,30.7314
75.7925,30.7075
Z" /> 
<path style="fill:#000000; fill-opacity:1.0000; stroke:none;fill-rule:evenodd;"
d="M 75.2925,30.0825
75.2973,30.0586
75.3108,30.0383
75.3311,30.0248
75.3550,30.0200
75.4800,30.0200
75.5039,30.0248
75.5242,30.0383
75.5377,30.0586
75.5425,30.0825
75.5425,30.7075
75.5377,30.7314
75.5242,30.7517
75.5039,30.7652
75.4800,30.7700
75.3550,30.7700
75.3311,30.7652
75.3108,30.7517
75.2973,30.7314
75.2925,30.7075
Z" /> 
<path style="fill:#000000; fill-opacity:1.0000; stroke:none;fill-rule:evenodd;"
d="M 58.7500,23.3250
58.6543,23.3060
58.5732,23.2518
58.5190,23.1707
58.5000,23.0750
58.5000,22.4000
58.5190,22.3043
58.5732,22.2232
58.6543,22.1690
58.7500,22.1500
59.7000,22.1500
59.7957,22.1690
59.8768,22.2232
59.9310,22.3043
59.9500,22.4000
59.9500,23.0750
59.9310,23.1707
59.8768,23.2518
59.7957,23.3060
59.7000,23.3250
Z" /> 
<path style="fill:#000000; fill-opacity:1.0000; stroke:none;fill-rule:evenodd;"
d="M 58.7500,21.2500
58.6543,21.2310
58.5732,21.1768
58.5190,21.0957
58.5000,21.0000
58.5000,20.3250
58.5190,20.2293
58.5732,20.1482
58.6543,20.0940
58.7500,20.0750
59.7000,20.0750
59.7957,20.0940
59.8768,20.1482
59.9310,20.2293
59.9500,20.3250
59.9500,21.0000
59.9310,21.0957
59.8768,21.1768
59.7957,21.2310
59.7000,21.2500
Z" /> 
<path style="fill:#000000; fill-opacity:1.0000; stroke:none;fill-rule:evenodd;"
d="M 88.9350,30.4875
88.8393,30.4685
88.7582,30.4143
88.7040,30.3332
88.6850,30.2375
88.6850,29.7125
88.7040,29.6168
88.7582,29.5357
88.8393,29.4815
88.9350,29.4625
89.8350,29.4625
89.9307,29.4815
90.0118,29.5357
90.0660,29.6168
90.0850,29.7125
90.0850,30.2375
90.0660,30.3332
90.0118,30.4143
89.9307,30.4685
89.8350,30.4875
Z" /> 
<path style="fill:#000000; fill-opacity:1.0000; stroke:none;fill-rule:evenodd;"
d="M 88.9350,28.6625
88.8393,28.6435
88.7582,28.5893
88.7040,28.5082
88.6850,28.4125
88.6850,27.8875
88.7040,27.7918
88.7582,27.7107
88.8393,27.6565
88.9350,27.6375
89.8350,27.6375
89.9307,27.6565
90.0118,27.7107
90.0660,27.7918
90.0850,27.8875
90.0850,28.4125
90.0660,28.5082
90.0118,28.5893
89.9307,28.6435
89.8350,28.6625
Z" /> 
<path style="fill:#000000; fill-opacity:1.0000; stroke:none;fill-rule:evenodd;"
d="M 76.1750,61.7250
76.1940,61.6293
76.2482,61.5482
76.3293,61.4940
76.4250,61.4750
77.3250,61.4750
77.4207,61.4940
77.5018,61.5482
77.5560,61.6293
77.5750,61.7250
77.5750,64.5750
77.5560,64.6707
77.5018,64.7518
77.4207,64.8060
77.3250,64.8250
76.4250,64.8250
76.3293,64.8060
76.2482,64.7518
76.1940,64.6707
76.1750,64.5750
Z" /> 
<path style="fill:#000000; fill-opacity:1.0000; stroke:none;fill-rule:evenodd;"
d="M 82.2750,61.7250
82.2940,61.6293
82.3482,61.5482
82.4293,61.4940
82.5250,61.4750
83.4250,61.4750
83.5207,61.4940
83.6018,61.5482
83.6560,61.6293
83.6750,61.7250
83.6750,64.5750
83.6560,64.6707
83.6018,64.7518
83.5207,64.8060
83.4250,64.8250
82.5250,64.8250
82.4293,64.8060
82.3482,64.7518
82.2940,64.6707
82.2750,64.5750
Z" /> 
<path style="fill:#000000; fill-opacity:1.0000; stroke:none;fill-rule:evenodd;"
d="M 37.7000,26.3700
37.7190,26.2743
37.7732,26.1932
37.8543,26.1390
37.9500,26.1200
38.4750,26.1200
38.5707,26.1390
38.6518,26.1932
38.7060,26.2743
38.7250,26.3700
38.7250,27.2700
38.7060,27.3657
38.6518,27.4468
38.5707,27.5010
38.4750,27.5200
37.9500,27.5200
37.8543,27.5010
37.7732,27.4468
37.7190,27.3657
37.7000,27.2700
Z" /> 
<path style="fill:#000000; fill-opacity:1.0000; stroke:none;fill-rule:evenodd;"
d="M 39.5250,26.3700
39.5440,26.2743
39.5982,26.1932
39.6793,26.1390
39.7750,26.1200
40.3000,26.1200
40.3957,26.1390
40.4768,26.1932
40.5310,26.2743
40.5500,26.3700
40.5500,27.2700
40.5310,27.3657
40.4768,27.4468
40.3957,27.5010
40.3000,27.5200
39.7750,27.5200
39.6793,27.5010
39.5982,27.4468
39.5440,27.3657
39.5250,27.2700
Z" /> 
<path style="fill:#000000; fill-opacity:1.0000; stroke:none;fill-rule:evenodd;"
d="M 37.7000,23.8300
37.7190,23.7343
37.7732,23.6532
37.8543,23.5990
37.9500,23.5800
38.4750,23.5800
38.5707,23.5990
38.6518,23.6532
38.7060,23.7343
38.7250,23.8300
38.7250,24.7300
38.7060,24.8257
38.6518,24.9068
38.5707,24.9610
38.4750,24.9800
37.9500,24.9800
37.8543,24.9610
37.7732,24.9068
37.7190,24.8257
37.7000,24.7300
Z" /> 
<path style="fill:#000000; fill-opacity:1.0000; stroke:none;fill-rule:evenodd;"
d="M 39.5250,23.8300
39.5440,23.7343
39.5982,23.6532
39.6793,23.5990
39.7750,23.5800
40.3000,23.5800
40.3957,23.5990
40.4768,23.6532
40.5310,23.7343
40.5500,23.8300
40.5500,24.7300
40.5310,24.8257
40.4768,24.9068
40.3957,24.9610
40.3000,24.9800
39.7750,24.9800
39.6793,24.9610
39.5982,24.9068
39.5440,24.8257
39.5250,24.7300
Z" /> 
<path style="fill:#000000; fill-opacity:1.0000; stroke:none;fill-rule:evenodd;"
d="M 63.0550,10.5525
63.0706,10.4455
63.1248,10.3346
63.2121,10.2473
63.3230,10.1931
63.4300,10.1775
64.6800,10.1775
64.7870,10.1931
64.8979,10.2473
64.9852,10.3346
65.0394,10.4455
65.0550,10.5525
65.0550,11.3025
65.0394,11.4095
64.9852,11.5204
64.8979,11.6077
64.7870,11.6619
64.6800,11.6775
63.4300,11.6775
63.3230,11.6619
63.2121,11.6077
63.1248,11.5204
63.0706,11.4095
63.0550,11.3025
Z" /> 
<path style="fill:#000000; fill-opacity:1.0000; stroke:none;fill-rule:evenodd;"
d="M 63.0550,12.8525
63.0706,12.7455
63.1248,12.6346
63.2121,12.5473
63.3230,12.4931
63.4300,12.4775
64.6800,12.4775
64.7870,12.4931
64.8979,12.5473
64.9852,12.6346
65.0394,12.7455
65.0550,12.8525
65.0550,13.6025
65.0394,13.7095
64.9852,13.8204
64.8979,13.9077
64.7870,13.9619
64.6800,13.9775
63.4300,13.9775
63.3230,13.9619
63.2121,13.9077
63.1248,13.8204
63.0706,13.7095
63.0550,13.6025
Z" /> 
<path style="fill:#000000; fill-opacity:1.0000; stroke:none;fill-rule:evenodd;"
d="M 69.3550,11.8275
69.3664,11.7212
69.4162,11.5879
69.5014,11.4739
69.6154,11.3887
69.7487,11.3389
69.8550,11.3275
70.8550,11.3275
70.9613,11.3389
71.0946,11.3887
71.2086,11.4739
71.2938,11.5879
71.3436,11.7212
71.3550,11.8275
71.3550,14.6275
71.3436,14.7338
71.2938,14.8671
71.2086,14.9811
71.0946,15.0663
70.9613,15.1161
70.8550,15.1275
69.8550,15.1275
69.7487,15.1161
69.6154,15.0663
69.5014,14.9811
69.4162,14.8671
69.3664,14.7338
69.3550,14.6275
Z" /> 
<path style="fill:#000000; fill-opacity:1.0000; stroke:none;fill-rule:evenodd;"
d="M 63.0550,15.1525
63.0706,15.0455
63.1248,14.9346
63.2121,14.8473
63.3230,14.7931
63.4300,14.7775
64.6800,14.7775
64.7870,14.7931
64.8979,14.8473
64.9852,14.9346
65.0394,15.0455
65.0550,15.1525
65.0550,15.9025
65.0394,16.0095
64.9852,16.1204
64.8979,16.2077
64.7870,16.2619
64.6800,16.2775
63.4300,16.2775
63.3230,16.2619
63.2121,16.2077
63.1248,16.1204
63.0706,16.0095
63.0550,15.9025
Z" /> 
<path style="fill:#000000; fill-opacity:1.0000; stroke:none;fill-rule:evenodd;"
d="M 75.6125,37.7750
75.5935,37.8707
75.5393,37.9518
75.4582,38.0060
75.3625,38.0250
74.6875,38.0250
74.5918,38.0060
74.5107,37.9518
74.4565,37.8707
74.4375,37.7750
74.4375,36.8250
74.4565,36.7293
74.5107,36.6482
74.5918,36.5940
74.6875,36.5750
75.3625,36.5750
75.4582,36.5940
75.5393,36.6482
75.5935,36.7293
75.6125,36.8250
Z" /> 
<path style="fill:#000000; fill-opacity:1.0000; stroke:none;fill-rule:evenodd;"
d="M 73.5375,37.7750
73.5185,37.8707
73.4643,37.9518
73.3832,38.0060
73.2875,38.0250
72.6125,38.0250
72.5168,38.0060
72.4357,37.9518
72.3815,37.8707
72.3625,37.7750
72.3625,36.8250
72.3815,36.7293
72.4357,36.6482
72.5168,36.5940
72.6125,36.5750
73.2875,36.5750
73.3832,36.5940
73.4643,36.6482
73.5185,36.7293
73.5375,36.8250
Z" /> 
</g>
<g style="fill:none; 
stroke:#000000; stroke-width:0.0500; stroke-opacity:1; 
stroke-linecap:round; stroke-linejoin:round;">
<path d="M0.1250 0.2000
L0.1250 100.2000
" />
<path d="M100.1250 0.2000
L100.1250 100.2000
" />
<path d="M0.1250 0.2000
L100.1250 0.2000
" />
<path d="M100.1250 100.2000
L0.1250 100.2000
" />
</g> 
</svg>
