%TF.GenerationSoftware,KiCad,Pcbnew,8.0.6*%
%TF.CreationDate,2024-12-29T09:41:23-05:00*%
%TF.ProjectId,Beagley-ai-3CAN,42656167-6c65-4792-9d61-692d3343414e,rev?*%
%TF.SameCoordinates,Original*%
%TF.FileFunction,Drillmap*%
%TF.FilePolarity,Positive*%
%FSLAX45Y45*%
G04 Gerber Fmt 4.5, Leading zero omitted, Abs format (unit mm)*
G04 Created by KiCad (PCBNEW 8.0.6) date 2024-12-29 09:41:23*
%MOMM*%
%LPD*%
G01*
G04 APERTURE LIST*
%ADD10C,0.150000*%
%ADD11C,0.200000*%
%ADD12C,0.100000*%
%ADD13C,0.101600*%
%ADD14C,0.330200*%
G04 APERTURE END LIST*
D10*
X12500000Y-14000000D02*
X12500000Y-5000000D01*
X18000000Y-14000000D02*
X12500000Y-14000000D01*
X18000000Y-5000000D02*
X12500000Y-5000000D01*
X18000000Y-5000000D02*
X18000000Y-14000000D01*
D11*
D12*
X14260000Y-7134000D02*
X14300000Y-7174000D01*
X14300000Y-7134000D02*
X14260000Y-7174000D01*
X14780000Y-8685000D02*
X14820000Y-8725000D01*
X14820000Y-8685000D02*
X14780000Y-8725000D01*
X14930000Y-6485000D02*
X14970000Y-6525000D01*
X14970000Y-6485000D02*
X14930000Y-6525000D01*
X15407250Y-6512250D02*
X15447250Y-6552250D01*
X15447250Y-6512250D02*
X15407250Y-6552250D01*
X15415000Y-7860000D02*
X15455000Y-7900000D01*
X15455000Y-7860000D02*
X15415000Y-7900000D01*
X14660000Y-9890000D02*
G75*
G02*
X14580000Y-9890000I-40000J0D01*
G01*
X14580000Y-9890000D02*
G75*
G02*
X14660000Y-9890000I40000J0D01*
G01*
X14660000Y-10090000D02*
G75*
G02*
X14580000Y-10090000I-40000J0D01*
G01*
X14580000Y-10090000D02*
G75*
G02*
X14660000Y-10090000I40000J0D01*
G01*
X14660000Y-10290000D02*
G75*
G02*
X14580000Y-10290000I-40000J0D01*
G01*
X14580000Y-10290000D02*
G75*
G02*
X14660000Y-10290000I40000J0D01*
G01*
X14660000Y-10490000D02*
G75*
G02*
X14580000Y-10490000I-40000J0D01*
G01*
X14580000Y-10490000D02*
G75*
G02*
X14660000Y-10490000I40000J0D01*
G01*
X13404000Y-6342000D02*
X13404000Y-6442000D01*
X13354000Y-6392000D02*
X13454000Y-6392000D01*
X13404000Y-6596000D02*
X13404000Y-6696000D01*
X13354000Y-6646000D02*
X13454000Y-6646000D01*
X13404000Y-6850000D02*
X13404000Y-6950000D01*
X13354000Y-6900000D02*
X13454000Y-6900000D01*
X13404000Y-7104000D02*
X13404000Y-7204000D01*
X13354000Y-7154000D02*
X13454000Y-7154000D01*
X13404000Y-7358000D02*
X13404000Y-7458000D01*
X13354000Y-7408000D02*
X13454000Y-7408000D01*
X13404000Y-7612000D02*
X13404000Y-7712000D01*
X13354000Y-7662000D02*
X13454000Y-7662000D01*
X13404000Y-7866000D02*
X13404000Y-7966000D01*
X13354000Y-7916000D02*
X13454000Y-7916000D01*
X13404000Y-8120000D02*
X13404000Y-8220000D01*
X13354000Y-8170000D02*
X13454000Y-8170000D01*
X13404000Y-8374000D02*
X13404000Y-8474000D01*
X13354000Y-8424000D02*
X13454000Y-8424000D01*
X13404000Y-8628000D02*
X13404000Y-8728000D01*
X13354000Y-8678000D02*
X13454000Y-8678000D01*
X13404000Y-8882000D02*
X13404000Y-8982000D01*
X13354000Y-8932000D02*
X13454000Y-8932000D01*
X13404000Y-10042000D02*
X13404000Y-10142000D01*
X13354000Y-10092000D02*
X13454000Y-10092000D01*
X13404000Y-10296000D02*
X13404000Y-10396000D01*
X13354000Y-10346000D02*
X13454000Y-10346000D01*
X13404000Y-10550000D02*
X13404000Y-10650000D01*
X13354000Y-10600000D02*
X13454000Y-10600000D01*
X13404000Y-10804000D02*
X13404000Y-10904000D01*
X13354000Y-10854000D02*
X13454000Y-10854000D01*
X13404000Y-11058000D02*
X13404000Y-11158000D01*
X13354000Y-11108000D02*
X13454000Y-11108000D01*
X13404000Y-11312000D02*
X13404000Y-11412000D01*
X13354000Y-11362000D02*
X13454000Y-11362000D01*
X13404000Y-11566000D02*
X13404000Y-11666000D01*
X13354000Y-11616000D02*
X13454000Y-11616000D01*
X13404000Y-11820000D02*
X13404000Y-11920000D01*
X13354000Y-11870000D02*
X13454000Y-11870000D01*
X13404000Y-12074000D02*
X13404000Y-12174000D01*
X13354000Y-12124000D02*
X13454000Y-12124000D01*
X13404000Y-12328000D02*
X13404000Y-12428000D01*
X13354000Y-12378000D02*
X13454000Y-12378000D01*
X13404000Y-12582000D02*
X13404000Y-12682000D01*
X13354000Y-12632000D02*
X13454000Y-12632000D01*
X13658000Y-6342000D02*
X13658000Y-6442000D01*
X13608000Y-6392000D02*
X13708000Y-6392000D01*
X13658000Y-6596000D02*
X13658000Y-6696000D01*
X13608000Y-6646000D02*
X13708000Y-6646000D01*
X13658000Y-6850000D02*
X13658000Y-6950000D01*
X13608000Y-6900000D02*
X13708000Y-6900000D01*
X13658000Y-7104000D02*
X13658000Y-7204000D01*
X13608000Y-7154000D02*
X13708000Y-7154000D01*
X13658000Y-7358000D02*
X13658000Y-7458000D01*
X13608000Y-7408000D02*
X13708000Y-7408000D01*
X13658000Y-7612000D02*
X13658000Y-7712000D01*
X13608000Y-7662000D02*
X13708000Y-7662000D01*
X13658000Y-7866000D02*
X13658000Y-7966000D01*
X13608000Y-7916000D02*
X13708000Y-7916000D01*
X13658000Y-8120000D02*
X13658000Y-8220000D01*
X13608000Y-8170000D02*
X13708000Y-8170000D01*
X13658000Y-8374000D02*
X13658000Y-8474000D01*
X13608000Y-8424000D02*
X13708000Y-8424000D01*
X13658000Y-8628000D02*
X13658000Y-8728000D01*
X13608000Y-8678000D02*
X13708000Y-8678000D01*
X13658000Y-8882000D02*
X13658000Y-8982000D01*
X13608000Y-8932000D02*
X13708000Y-8932000D01*
X13658000Y-10042000D02*
X13658000Y-10142000D01*
X13608000Y-10092000D02*
X13708000Y-10092000D01*
X13658000Y-10296000D02*
X13658000Y-10396000D01*
X13608000Y-10346000D02*
X13708000Y-10346000D01*
X13658000Y-10550000D02*
X13658000Y-10650000D01*
X13608000Y-10600000D02*
X13708000Y-10600000D01*
X13658000Y-10804000D02*
X13658000Y-10904000D01*
X13608000Y-10854000D02*
X13708000Y-10854000D01*
X13658000Y-11058000D02*
X13658000Y-11158000D01*
X13608000Y-11108000D02*
X13708000Y-11108000D01*
X13658000Y-11312000D02*
X13658000Y-11412000D01*
X13608000Y-11362000D02*
X13708000Y-11362000D01*
X13658000Y-11566000D02*
X13658000Y-11666000D01*
X13608000Y-11616000D02*
X13708000Y-11616000D01*
X13658000Y-11820000D02*
X13658000Y-11920000D01*
X13608000Y-11870000D02*
X13708000Y-11870000D01*
X13658000Y-12074000D02*
X13658000Y-12174000D01*
X13608000Y-12124000D02*
X13708000Y-12124000D01*
X13658000Y-12328000D02*
X13658000Y-12428000D01*
X13608000Y-12378000D02*
X13708000Y-12378000D01*
X13658000Y-12582000D02*
X13658000Y-12682000D01*
X13608000Y-12632000D02*
X13708000Y-12632000D01*
X16300000Y-6450000D02*
X16300000Y-6550000D01*
X16250000Y-6500000D02*
X16350000Y-6500000D01*
X16300000Y-6704000D02*
X16300000Y-6804000D01*
X16250000Y-6754000D02*
X16350000Y-6754000D01*
X16300000Y-8150000D02*
X16300000Y-8250000D01*
X16250000Y-8200000D02*
X16350000Y-8200000D01*
X16300000Y-8404000D02*
X16300000Y-8504000D01*
X16250000Y-8454000D02*
X16350000Y-8454000D01*
X16300000Y-11550000D02*
X16300000Y-11650000D01*
X16250000Y-11600000D02*
X16350000Y-11600000D01*
X16300000Y-11804000D02*
X16300000Y-11904000D01*
X16250000Y-11854000D02*
X16350000Y-11854000D01*
D13*
X16978921Y-6987281D02*
X16978921Y-6915439D01*
X16907079Y-6915439D01*
X16907079Y-6987281D01*
X16978921Y-6987281D01*
X16978921Y-7261601D02*
X16978921Y-7189759D01*
X16907079Y-7189759D01*
X16907079Y-7261601D01*
X16978921Y-7261601D01*
X16978921Y-7535921D02*
X16978921Y-7464079D01*
X16907079Y-7464079D01*
X16907079Y-7535921D01*
X16978921Y-7535921D01*
X16978921Y-7810241D02*
X16978921Y-7738399D01*
X16907079Y-7738399D01*
X16907079Y-7810241D01*
X16978921Y-7810241D01*
X16978921Y-8084561D02*
X16978921Y-8012719D01*
X16907079Y-8012719D01*
X16907079Y-8084561D01*
X16978921Y-8084561D01*
X16978921Y-11487281D02*
X16978921Y-11415439D01*
X16907079Y-11415439D01*
X16907079Y-11487281D01*
X16978921Y-11487281D01*
X16978921Y-11761601D02*
X16978921Y-11689759D01*
X16907079Y-11689759D01*
X16907079Y-11761601D01*
X16978921Y-11761601D01*
X16978921Y-12035921D02*
X16978921Y-11964079D01*
X16907079Y-11964079D01*
X16907079Y-12035921D01*
X16978921Y-12035921D01*
X16978921Y-12310241D02*
X16978921Y-12238399D01*
X16907079Y-12238399D01*
X16907079Y-12310241D01*
X16978921Y-12310241D01*
X16978921Y-12584561D02*
X16978921Y-12512719D01*
X16907079Y-12512719D01*
X16907079Y-12584561D01*
X16978921Y-12584561D01*
X17232921Y-7124441D02*
X17232921Y-7052599D01*
X17161079Y-7052599D01*
X17161079Y-7124441D01*
X17232921Y-7124441D01*
X17232921Y-7398761D02*
X17232921Y-7326919D01*
X17161079Y-7326919D01*
X17161079Y-7398761D01*
X17232921Y-7398761D01*
X17232921Y-7673081D02*
X17232921Y-7601239D01*
X17161079Y-7601239D01*
X17161079Y-7673081D01*
X17232921Y-7673081D01*
X17232921Y-7947401D02*
X17232921Y-7875559D01*
X17161079Y-7875559D01*
X17161079Y-7947401D01*
X17232921Y-7947401D01*
X17232921Y-11624441D02*
X17232921Y-11552599D01*
X17161079Y-11552599D01*
X17161079Y-11624441D01*
X17232921Y-11624441D01*
X17232921Y-11898761D02*
X17232921Y-11826919D01*
X17161079Y-11826919D01*
X17161079Y-11898761D01*
X17232921Y-11898761D01*
X17232921Y-12173081D02*
X17232921Y-12101239D01*
X17161079Y-12101239D01*
X17161079Y-12173081D01*
X17232921Y-12173081D01*
X17232921Y-12447401D02*
X17232921Y-12375559D01*
X17161079Y-12375559D01*
X17161079Y-12447401D01*
X17232921Y-12447401D01*
D14*
X17070000Y-6412880D02*
X17235100Y-6247780D01*
X17070000Y-6082680D01*
X16904900Y-6247780D01*
X17070000Y-6412880D01*
X17070000Y-8917320D02*
X17235100Y-8752220D01*
X17070000Y-8587120D01*
X16904900Y-8752220D01*
X17070000Y-8917320D01*
X17070000Y-10912880D02*
X17235100Y-10747780D01*
X17070000Y-10582680D01*
X16904900Y-10747780D01*
X17070000Y-10912880D01*
X17070000Y-13417320D02*
X17235100Y-13252220D01*
X17070000Y-13087120D01*
X16904900Y-13252220D01*
X17070000Y-13417320D01*
D11*
X12753277Y-14318984D02*
X12753277Y-14118984D01*
X12753277Y-14118984D02*
X12800896Y-14118984D01*
X12800896Y-14118984D02*
X12829467Y-14128508D01*
X12829467Y-14128508D02*
X12848515Y-14147555D01*
X12848515Y-14147555D02*
X12858039Y-14166603D01*
X12858039Y-14166603D02*
X12867562Y-14204698D01*
X12867562Y-14204698D02*
X12867562Y-14233269D01*
X12867562Y-14233269D02*
X12858039Y-14271365D01*
X12858039Y-14271365D02*
X12848515Y-14290412D01*
X12848515Y-14290412D02*
X12829467Y-14309460D01*
X12829467Y-14309460D02*
X12800896Y-14318984D01*
X12800896Y-14318984D02*
X12753277Y-14318984D01*
X12953277Y-14318984D02*
X12953277Y-14185650D01*
X12953277Y-14223746D02*
X12962801Y-14204698D01*
X12962801Y-14204698D02*
X12972324Y-14195174D01*
X12972324Y-14195174D02*
X12991372Y-14185650D01*
X12991372Y-14185650D02*
X13010420Y-14185650D01*
X13077086Y-14318984D02*
X13077086Y-14185650D01*
X13077086Y-14118984D02*
X13067562Y-14128508D01*
X13067562Y-14128508D02*
X13077086Y-14138031D01*
X13077086Y-14138031D02*
X13086610Y-14128508D01*
X13086610Y-14128508D02*
X13077086Y-14118984D01*
X13077086Y-14118984D02*
X13077086Y-14138031D01*
X13200896Y-14318984D02*
X13181848Y-14309460D01*
X13181848Y-14309460D02*
X13172324Y-14290412D01*
X13172324Y-14290412D02*
X13172324Y-14118984D01*
X13305658Y-14318984D02*
X13286610Y-14309460D01*
X13286610Y-14309460D02*
X13277086Y-14290412D01*
X13277086Y-14290412D02*
X13277086Y-14118984D01*
X13534229Y-14318984D02*
X13534229Y-14118984D01*
X13534229Y-14118984D02*
X13600896Y-14261841D01*
X13600896Y-14261841D02*
X13667562Y-14118984D01*
X13667562Y-14118984D02*
X13667562Y-14318984D01*
X13848515Y-14318984D02*
X13848515Y-14214222D01*
X13848515Y-14214222D02*
X13838991Y-14195174D01*
X13838991Y-14195174D02*
X13819943Y-14185650D01*
X13819943Y-14185650D02*
X13781848Y-14185650D01*
X13781848Y-14185650D02*
X13762801Y-14195174D01*
X13848515Y-14309460D02*
X13829467Y-14318984D01*
X13829467Y-14318984D02*
X13781848Y-14318984D01*
X13781848Y-14318984D02*
X13762801Y-14309460D01*
X13762801Y-14309460D02*
X13753277Y-14290412D01*
X13753277Y-14290412D02*
X13753277Y-14271365D01*
X13753277Y-14271365D02*
X13762801Y-14252317D01*
X13762801Y-14252317D02*
X13781848Y-14242793D01*
X13781848Y-14242793D02*
X13829467Y-14242793D01*
X13829467Y-14242793D02*
X13848515Y-14233269D01*
X13943753Y-14185650D02*
X13943753Y-14385650D01*
X13943753Y-14195174D02*
X13962801Y-14185650D01*
X13962801Y-14185650D02*
X14000896Y-14185650D01*
X14000896Y-14185650D02*
X14019943Y-14195174D01*
X14019943Y-14195174D02*
X14029467Y-14204698D01*
X14029467Y-14204698D02*
X14038991Y-14223746D01*
X14038991Y-14223746D02*
X14038991Y-14280888D01*
X14038991Y-14280888D02*
X14029467Y-14299936D01*
X14029467Y-14299936D02*
X14019943Y-14309460D01*
X14019943Y-14309460D02*
X14000896Y-14318984D01*
X14000896Y-14318984D02*
X13962801Y-14318984D01*
X13962801Y-14318984D02*
X13943753Y-14309460D01*
X14124705Y-14299936D02*
X14134229Y-14309460D01*
X14134229Y-14309460D02*
X14124705Y-14318984D01*
X14124705Y-14318984D02*
X14115182Y-14309460D01*
X14115182Y-14309460D02*
X14124705Y-14299936D01*
X14124705Y-14299936D02*
X14124705Y-14318984D01*
X14124705Y-14195174D02*
X14134229Y-14204698D01*
X14134229Y-14204698D02*
X14124705Y-14214222D01*
X14124705Y-14214222D02*
X14115182Y-14204698D01*
X14115182Y-14204698D02*
X14124705Y-14195174D01*
X14124705Y-14195174D02*
X14124705Y-14214222D01*
D12*
X12452500Y-14627500D02*
X12492500Y-14667500D01*
X12492500Y-14627500D02*
X12452500Y-14667500D01*
D11*
X12791372Y-14538984D02*
X12810420Y-14538984D01*
X12810420Y-14538984D02*
X12829467Y-14548508D01*
X12829467Y-14548508D02*
X12838991Y-14558031D01*
X12838991Y-14558031D02*
X12848515Y-14577079D01*
X12848515Y-14577079D02*
X12858039Y-14615174D01*
X12858039Y-14615174D02*
X12858039Y-14662793D01*
X12858039Y-14662793D02*
X12848515Y-14700888D01*
X12848515Y-14700888D02*
X12838991Y-14719936D01*
X12838991Y-14719936D02*
X12829467Y-14729460D01*
X12829467Y-14729460D02*
X12810420Y-14738984D01*
X12810420Y-14738984D02*
X12791372Y-14738984D01*
X12791372Y-14738984D02*
X12772324Y-14729460D01*
X12772324Y-14729460D02*
X12762801Y-14719936D01*
X12762801Y-14719936D02*
X12753277Y-14700888D01*
X12753277Y-14700888D02*
X12743753Y-14662793D01*
X12743753Y-14662793D02*
X12743753Y-14615174D01*
X12743753Y-14615174D02*
X12753277Y-14577079D01*
X12753277Y-14577079D02*
X12762801Y-14558031D01*
X12762801Y-14558031D02*
X12772324Y-14548508D01*
X12772324Y-14548508D02*
X12791372Y-14538984D01*
X12943753Y-14719936D02*
X12953277Y-14729460D01*
X12953277Y-14729460D02*
X12943753Y-14738984D01*
X12943753Y-14738984D02*
X12934229Y-14729460D01*
X12934229Y-14729460D02*
X12943753Y-14719936D01*
X12943753Y-14719936D02*
X12943753Y-14738984D01*
X13124705Y-14605650D02*
X13124705Y-14738984D01*
X13077086Y-14529460D02*
X13029467Y-14672317D01*
X13029467Y-14672317D02*
X13153277Y-14672317D01*
X13267562Y-14538984D02*
X13286610Y-14538984D01*
X13286610Y-14538984D02*
X13305658Y-14548508D01*
X13305658Y-14548508D02*
X13315182Y-14558031D01*
X13315182Y-14558031D02*
X13324705Y-14577079D01*
X13324705Y-14577079D02*
X13334229Y-14615174D01*
X13334229Y-14615174D02*
X13334229Y-14662793D01*
X13334229Y-14662793D02*
X13324705Y-14700888D01*
X13324705Y-14700888D02*
X13315182Y-14719936D01*
X13315182Y-14719936D02*
X13305658Y-14729460D01*
X13305658Y-14729460D02*
X13286610Y-14738984D01*
X13286610Y-14738984D02*
X13267562Y-14738984D01*
X13267562Y-14738984D02*
X13248515Y-14729460D01*
X13248515Y-14729460D02*
X13238991Y-14719936D01*
X13238991Y-14719936D02*
X13229467Y-14700888D01*
X13229467Y-14700888D02*
X13219943Y-14662793D01*
X13219943Y-14662793D02*
X13219943Y-14615174D01*
X13219943Y-14615174D02*
X13229467Y-14577079D01*
X13229467Y-14577079D02*
X13238991Y-14558031D01*
X13238991Y-14558031D02*
X13248515Y-14548508D01*
X13248515Y-14548508D02*
X13267562Y-14538984D01*
X13458039Y-14538984D02*
X13477086Y-14538984D01*
X13477086Y-14538984D02*
X13496134Y-14548508D01*
X13496134Y-14548508D02*
X13505658Y-14558031D01*
X13505658Y-14558031D02*
X13515182Y-14577079D01*
X13515182Y-14577079D02*
X13524705Y-14615174D01*
X13524705Y-14615174D02*
X13524705Y-14662793D01*
X13524705Y-14662793D02*
X13515182Y-14700888D01*
X13515182Y-14700888D02*
X13505658Y-14719936D01*
X13505658Y-14719936D02*
X13496134Y-14729460D01*
X13496134Y-14729460D02*
X13477086Y-14738984D01*
X13477086Y-14738984D02*
X13458039Y-14738984D01*
X13458039Y-14738984D02*
X13438991Y-14729460D01*
X13438991Y-14729460D02*
X13429467Y-14719936D01*
X13429467Y-14719936D02*
X13419943Y-14700888D01*
X13419943Y-14700888D02*
X13410420Y-14662793D01*
X13410420Y-14662793D02*
X13410420Y-14615174D01*
X13410420Y-14615174D02*
X13419943Y-14577079D01*
X13419943Y-14577079D02*
X13429467Y-14558031D01*
X13429467Y-14558031D02*
X13438991Y-14548508D01*
X13438991Y-14548508D02*
X13458039Y-14538984D01*
X13610420Y-14738984D02*
X13610420Y-14605650D01*
X13610420Y-14624698D02*
X13619943Y-14615174D01*
X13619943Y-14615174D02*
X13638991Y-14605650D01*
X13638991Y-14605650D02*
X13667563Y-14605650D01*
X13667563Y-14605650D02*
X13686610Y-14615174D01*
X13686610Y-14615174D02*
X13696134Y-14634222D01*
X13696134Y-14634222D02*
X13696134Y-14738984D01*
X13696134Y-14634222D02*
X13705658Y-14615174D01*
X13705658Y-14615174D02*
X13724705Y-14605650D01*
X13724705Y-14605650D02*
X13753277Y-14605650D01*
X13753277Y-14605650D02*
X13772324Y-14615174D01*
X13772324Y-14615174D02*
X13781848Y-14634222D01*
X13781848Y-14634222D02*
X13781848Y-14738984D01*
X13877086Y-14738984D02*
X13877086Y-14605650D01*
X13877086Y-14624698D02*
X13886610Y-14615174D01*
X13886610Y-14615174D02*
X13905658Y-14605650D01*
X13905658Y-14605650D02*
X13934229Y-14605650D01*
X13934229Y-14605650D02*
X13953277Y-14615174D01*
X13953277Y-14615174D02*
X13962801Y-14634222D01*
X13962801Y-14634222D02*
X13962801Y-14738984D01*
X13962801Y-14634222D02*
X13972324Y-14615174D01*
X13972324Y-14615174D02*
X13991372Y-14605650D01*
X13991372Y-14605650D02*
X14019943Y-14605650D01*
X14019943Y-14605650D02*
X14038991Y-14615174D01*
X14038991Y-14615174D02*
X14048515Y-14634222D01*
X14048515Y-14634222D02*
X14048515Y-14738984D01*
X14438991Y-14529460D02*
X14267563Y-14786603D01*
X14696134Y-14538984D02*
X14715182Y-14538984D01*
X14715182Y-14538984D02*
X14734229Y-14548508D01*
X14734229Y-14548508D02*
X14743753Y-14558031D01*
X14743753Y-14558031D02*
X14753277Y-14577079D01*
X14753277Y-14577079D02*
X14762801Y-14615174D01*
X14762801Y-14615174D02*
X14762801Y-14662793D01*
X14762801Y-14662793D02*
X14753277Y-14700888D01*
X14753277Y-14700888D02*
X14743753Y-14719936D01*
X14743753Y-14719936D02*
X14734229Y-14729460D01*
X14734229Y-14729460D02*
X14715182Y-14738984D01*
X14715182Y-14738984D02*
X14696134Y-14738984D01*
X14696134Y-14738984D02*
X14677086Y-14729460D01*
X14677086Y-14729460D02*
X14667563Y-14719936D01*
X14667563Y-14719936D02*
X14658039Y-14700888D01*
X14658039Y-14700888D02*
X14648515Y-14662793D01*
X14648515Y-14662793D02*
X14648515Y-14615174D01*
X14648515Y-14615174D02*
X14658039Y-14577079D01*
X14658039Y-14577079D02*
X14667563Y-14558031D01*
X14667563Y-14558031D02*
X14677086Y-14548508D01*
X14677086Y-14548508D02*
X14696134Y-14538984D01*
X14848515Y-14719936D02*
X14858039Y-14729460D01*
X14858039Y-14729460D02*
X14848515Y-14738984D01*
X14848515Y-14738984D02*
X14838991Y-14729460D01*
X14838991Y-14729460D02*
X14848515Y-14719936D01*
X14848515Y-14719936D02*
X14848515Y-14738984D01*
X14981848Y-14538984D02*
X15000896Y-14538984D01*
X15000896Y-14538984D02*
X15019944Y-14548508D01*
X15019944Y-14548508D02*
X15029467Y-14558031D01*
X15029467Y-14558031D02*
X15038991Y-14577079D01*
X15038991Y-14577079D02*
X15048515Y-14615174D01*
X15048515Y-14615174D02*
X15048515Y-14662793D01*
X15048515Y-14662793D02*
X15038991Y-14700888D01*
X15038991Y-14700888D02*
X15029467Y-14719936D01*
X15029467Y-14719936D02*
X15019944Y-14729460D01*
X15019944Y-14729460D02*
X15000896Y-14738984D01*
X15000896Y-14738984D02*
X14981848Y-14738984D01*
X14981848Y-14738984D02*
X14962801Y-14729460D01*
X14962801Y-14729460D02*
X14953277Y-14719936D01*
X14953277Y-14719936D02*
X14943753Y-14700888D01*
X14943753Y-14700888D02*
X14934229Y-14662793D01*
X14934229Y-14662793D02*
X14934229Y-14615174D01*
X14934229Y-14615174D02*
X14943753Y-14577079D01*
X14943753Y-14577079D02*
X14953277Y-14558031D01*
X14953277Y-14558031D02*
X14962801Y-14548508D01*
X14962801Y-14548508D02*
X14981848Y-14538984D01*
X15238991Y-14738984D02*
X15124706Y-14738984D01*
X15181848Y-14738984D02*
X15181848Y-14538984D01*
X15181848Y-14538984D02*
X15162801Y-14567555D01*
X15162801Y-14567555D02*
X15143753Y-14586603D01*
X15143753Y-14586603D02*
X15124706Y-14596127D01*
X15419944Y-14538984D02*
X15324706Y-14538984D01*
X15324706Y-14538984D02*
X15315182Y-14634222D01*
X15315182Y-14634222D02*
X15324706Y-14624698D01*
X15324706Y-14624698D02*
X15343753Y-14615174D01*
X15343753Y-14615174D02*
X15391372Y-14615174D01*
X15391372Y-14615174D02*
X15410420Y-14624698D01*
X15410420Y-14624698D02*
X15419944Y-14634222D01*
X15419944Y-14634222D02*
X15429467Y-14653269D01*
X15429467Y-14653269D02*
X15429467Y-14700888D01*
X15429467Y-14700888D02*
X15419944Y-14719936D01*
X15419944Y-14719936D02*
X15410420Y-14729460D01*
X15410420Y-14729460D02*
X15391372Y-14738984D01*
X15391372Y-14738984D02*
X15343753Y-14738984D01*
X15343753Y-14738984D02*
X15324706Y-14729460D01*
X15324706Y-14729460D02*
X15315182Y-14719936D01*
X15496134Y-14538984D02*
X15629467Y-14538984D01*
X15629467Y-14538984D02*
X15543753Y-14738984D01*
X15696134Y-14538984D02*
X15696134Y-14577079D01*
X15772325Y-14538984D02*
X15772325Y-14577079D01*
X16067563Y-14815174D02*
X16058039Y-14805650D01*
X16058039Y-14805650D02*
X16038991Y-14777079D01*
X16038991Y-14777079D02*
X16029468Y-14758031D01*
X16029468Y-14758031D02*
X16019944Y-14729460D01*
X16019944Y-14729460D02*
X16010420Y-14681841D01*
X16010420Y-14681841D02*
X16010420Y-14643746D01*
X16010420Y-14643746D02*
X16019944Y-14596127D01*
X16019944Y-14596127D02*
X16029468Y-14567555D01*
X16029468Y-14567555D02*
X16038991Y-14548508D01*
X16038991Y-14548508D02*
X16058039Y-14519936D01*
X16058039Y-14519936D02*
X16067563Y-14510412D01*
X16238991Y-14538984D02*
X16143753Y-14538984D01*
X16143753Y-14538984D02*
X16134229Y-14634222D01*
X16134229Y-14634222D02*
X16143753Y-14624698D01*
X16143753Y-14624698D02*
X16162801Y-14615174D01*
X16162801Y-14615174D02*
X16210420Y-14615174D01*
X16210420Y-14615174D02*
X16229468Y-14624698D01*
X16229468Y-14624698D02*
X16238991Y-14634222D01*
X16238991Y-14634222D02*
X16248515Y-14653269D01*
X16248515Y-14653269D02*
X16248515Y-14700888D01*
X16248515Y-14700888D02*
X16238991Y-14719936D01*
X16238991Y-14719936D02*
X16229468Y-14729460D01*
X16229468Y-14729460D02*
X16210420Y-14738984D01*
X16210420Y-14738984D02*
X16162801Y-14738984D01*
X16162801Y-14738984D02*
X16143753Y-14729460D01*
X16143753Y-14729460D02*
X16134229Y-14719936D01*
X16486610Y-14738984D02*
X16486610Y-14538984D01*
X16572325Y-14738984D02*
X16572325Y-14634222D01*
X16572325Y-14634222D02*
X16562801Y-14615174D01*
X16562801Y-14615174D02*
X16543753Y-14605650D01*
X16543753Y-14605650D02*
X16515182Y-14605650D01*
X16515182Y-14605650D02*
X16496134Y-14615174D01*
X16496134Y-14615174D02*
X16486610Y-14624698D01*
X16696134Y-14738984D02*
X16677087Y-14729460D01*
X16677087Y-14729460D02*
X16667563Y-14719936D01*
X16667563Y-14719936D02*
X16658039Y-14700888D01*
X16658039Y-14700888D02*
X16658039Y-14643746D01*
X16658039Y-14643746D02*
X16667563Y-14624698D01*
X16667563Y-14624698D02*
X16677087Y-14615174D01*
X16677087Y-14615174D02*
X16696134Y-14605650D01*
X16696134Y-14605650D02*
X16724706Y-14605650D01*
X16724706Y-14605650D02*
X16743753Y-14615174D01*
X16743753Y-14615174D02*
X16753277Y-14624698D01*
X16753277Y-14624698D02*
X16762801Y-14643746D01*
X16762801Y-14643746D02*
X16762801Y-14700888D01*
X16762801Y-14700888D02*
X16753277Y-14719936D01*
X16753277Y-14719936D02*
X16743753Y-14729460D01*
X16743753Y-14729460D02*
X16724706Y-14738984D01*
X16724706Y-14738984D02*
X16696134Y-14738984D01*
X16877087Y-14738984D02*
X16858039Y-14729460D01*
X16858039Y-14729460D02*
X16848515Y-14710412D01*
X16848515Y-14710412D02*
X16848515Y-14538984D01*
X17029468Y-14729460D02*
X17010420Y-14738984D01*
X17010420Y-14738984D02*
X16972325Y-14738984D01*
X16972325Y-14738984D02*
X16953277Y-14729460D01*
X16953277Y-14729460D02*
X16943753Y-14710412D01*
X16943753Y-14710412D02*
X16943753Y-14634222D01*
X16943753Y-14634222D02*
X16953277Y-14615174D01*
X16953277Y-14615174D02*
X16972325Y-14605650D01*
X16972325Y-14605650D02*
X17010420Y-14605650D01*
X17010420Y-14605650D02*
X17029468Y-14615174D01*
X17029468Y-14615174D02*
X17038992Y-14634222D01*
X17038992Y-14634222D02*
X17038992Y-14653269D01*
X17038992Y-14653269D02*
X16943753Y-14672317D01*
X17115182Y-14729460D02*
X17134230Y-14738984D01*
X17134230Y-14738984D02*
X17172325Y-14738984D01*
X17172325Y-14738984D02*
X17191373Y-14729460D01*
X17191373Y-14729460D02*
X17200896Y-14710412D01*
X17200896Y-14710412D02*
X17200896Y-14700888D01*
X17200896Y-14700888D02*
X17191373Y-14681841D01*
X17191373Y-14681841D02*
X17172325Y-14672317D01*
X17172325Y-14672317D02*
X17143753Y-14672317D01*
X17143753Y-14672317D02*
X17124706Y-14662793D01*
X17124706Y-14662793D02*
X17115182Y-14643746D01*
X17115182Y-14643746D02*
X17115182Y-14634222D01*
X17115182Y-14634222D02*
X17124706Y-14615174D01*
X17124706Y-14615174D02*
X17143753Y-14605650D01*
X17143753Y-14605650D02*
X17172325Y-14605650D01*
X17172325Y-14605650D02*
X17191373Y-14615174D01*
X17267563Y-14815174D02*
X17277087Y-14805650D01*
X17277087Y-14805650D02*
X17296134Y-14777079D01*
X17296134Y-14777079D02*
X17305658Y-14758031D01*
X17305658Y-14758031D02*
X17315182Y-14729460D01*
X17315182Y-14729460D02*
X17324706Y-14681841D01*
X17324706Y-14681841D02*
X17324706Y-14643746D01*
X17324706Y-14643746D02*
X17315182Y-14596127D01*
X17315182Y-14596127D02*
X17305658Y-14567555D01*
X17305658Y-14567555D02*
X17296134Y-14548508D01*
X17296134Y-14548508D02*
X17277087Y-14519936D01*
X17277087Y-14519936D02*
X17267563Y-14510412D01*
D12*
X12492500Y-14911500D02*
G75*
G02*
X12412500Y-14911500I-40000J0D01*
G01*
X12412500Y-14911500D02*
G75*
G02*
X12492500Y-14911500I40000J0D01*
G01*
D11*
X12791372Y-14802984D02*
X12810420Y-14802984D01*
X12810420Y-14802984D02*
X12829467Y-14812508D01*
X12829467Y-14812508D02*
X12838991Y-14822031D01*
X12838991Y-14822031D02*
X12848515Y-14841079D01*
X12848515Y-14841079D02*
X12858039Y-14879174D01*
X12858039Y-14879174D02*
X12858039Y-14926793D01*
X12858039Y-14926793D02*
X12848515Y-14964888D01*
X12848515Y-14964888D02*
X12838991Y-14983936D01*
X12838991Y-14983936D02*
X12829467Y-14993460D01*
X12829467Y-14993460D02*
X12810420Y-15002984D01*
X12810420Y-15002984D02*
X12791372Y-15002984D01*
X12791372Y-15002984D02*
X12772324Y-14993460D01*
X12772324Y-14993460D02*
X12762801Y-14983936D01*
X12762801Y-14983936D02*
X12753277Y-14964888D01*
X12753277Y-14964888D02*
X12743753Y-14926793D01*
X12743753Y-14926793D02*
X12743753Y-14879174D01*
X12743753Y-14879174D02*
X12753277Y-14841079D01*
X12753277Y-14841079D02*
X12762801Y-14822031D01*
X12762801Y-14822031D02*
X12772324Y-14812508D01*
X12772324Y-14812508D02*
X12791372Y-14802984D01*
X12943753Y-14983936D02*
X12953277Y-14993460D01*
X12953277Y-14993460D02*
X12943753Y-15002984D01*
X12943753Y-15002984D02*
X12934229Y-14993460D01*
X12934229Y-14993460D02*
X12943753Y-14983936D01*
X12943753Y-14983936D02*
X12943753Y-15002984D01*
X13067562Y-14888698D02*
X13048515Y-14879174D01*
X13048515Y-14879174D02*
X13038991Y-14869650D01*
X13038991Y-14869650D02*
X13029467Y-14850603D01*
X13029467Y-14850603D02*
X13029467Y-14841079D01*
X13029467Y-14841079D02*
X13038991Y-14822031D01*
X13038991Y-14822031D02*
X13048515Y-14812508D01*
X13048515Y-14812508D02*
X13067562Y-14802984D01*
X13067562Y-14802984D02*
X13105658Y-14802984D01*
X13105658Y-14802984D02*
X13124705Y-14812508D01*
X13124705Y-14812508D02*
X13134229Y-14822031D01*
X13134229Y-14822031D02*
X13143753Y-14841079D01*
X13143753Y-14841079D02*
X13143753Y-14850603D01*
X13143753Y-14850603D02*
X13134229Y-14869650D01*
X13134229Y-14869650D02*
X13124705Y-14879174D01*
X13124705Y-14879174D02*
X13105658Y-14888698D01*
X13105658Y-14888698D02*
X13067562Y-14888698D01*
X13067562Y-14888698D02*
X13048515Y-14898222D01*
X13048515Y-14898222D02*
X13038991Y-14907746D01*
X13038991Y-14907746D02*
X13029467Y-14926793D01*
X13029467Y-14926793D02*
X13029467Y-14964888D01*
X13029467Y-14964888D02*
X13038991Y-14983936D01*
X13038991Y-14983936D02*
X13048515Y-14993460D01*
X13048515Y-14993460D02*
X13067562Y-15002984D01*
X13067562Y-15002984D02*
X13105658Y-15002984D01*
X13105658Y-15002984D02*
X13124705Y-14993460D01*
X13124705Y-14993460D02*
X13134229Y-14983936D01*
X13134229Y-14983936D02*
X13143753Y-14964888D01*
X13143753Y-14964888D02*
X13143753Y-14926793D01*
X13143753Y-14926793D02*
X13134229Y-14907746D01*
X13134229Y-14907746D02*
X13124705Y-14898222D01*
X13124705Y-14898222D02*
X13105658Y-14888698D01*
X13267562Y-14802984D02*
X13286610Y-14802984D01*
X13286610Y-14802984D02*
X13305658Y-14812508D01*
X13305658Y-14812508D02*
X13315182Y-14822031D01*
X13315182Y-14822031D02*
X13324705Y-14841079D01*
X13324705Y-14841079D02*
X13334229Y-14879174D01*
X13334229Y-14879174D02*
X13334229Y-14926793D01*
X13334229Y-14926793D02*
X13324705Y-14964888D01*
X13324705Y-14964888D02*
X13315182Y-14983936D01*
X13315182Y-14983936D02*
X13305658Y-14993460D01*
X13305658Y-14993460D02*
X13286610Y-15002984D01*
X13286610Y-15002984D02*
X13267562Y-15002984D01*
X13267562Y-15002984D02*
X13248515Y-14993460D01*
X13248515Y-14993460D02*
X13238991Y-14983936D01*
X13238991Y-14983936D02*
X13229467Y-14964888D01*
X13229467Y-14964888D02*
X13219943Y-14926793D01*
X13219943Y-14926793D02*
X13219943Y-14879174D01*
X13219943Y-14879174D02*
X13229467Y-14841079D01*
X13229467Y-14841079D02*
X13238991Y-14822031D01*
X13238991Y-14822031D02*
X13248515Y-14812508D01*
X13248515Y-14812508D02*
X13267562Y-14802984D01*
X13458039Y-14802984D02*
X13477086Y-14802984D01*
X13477086Y-14802984D02*
X13496134Y-14812508D01*
X13496134Y-14812508D02*
X13505658Y-14822031D01*
X13505658Y-14822031D02*
X13515182Y-14841079D01*
X13515182Y-14841079D02*
X13524705Y-14879174D01*
X13524705Y-14879174D02*
X13524705Y-14926793D01*
X13524705Y-14926793D02*
X13515182Y-14964888D01*
X13515182Y-14964888D02*
X13505658Y-14983936D01*
X13505658Y-14983936D02*
X13496134Y-14993460D01*
X13496134Y-14993460D02*
X13477086Y-15002984D01*
X13477086Y-15002984D02*
X13458039Y-15002984D01*
X13458039Y-15002984D02*
X13438991Y-14993460D01*
X13438991Y-14993460D02*
X13429467Y-14983936D01*
X13429467Y-14983936D02*
X13419943Y-14964888D01*
X13419943Y-14964888D02*
X13410420Y-14926793D01*
X13410420Y-14926793D02*
X13410420Y-14879174D01*
X13410420Y-14879174D02*
X13419943Y-14841079D01*
X13419943Y-14841079D02*
X13429467Y-14822031D01*
X13429467Y-14822031D02*
X13438991Y-14812508D01*
X13438991Y-14812508D02*
X13458039Y-14802984D01*
X13610420Y-15002984D02*
X13610420Y-14869650D01*
X13610420Y-14888698D02*
X13619943Y-14879174D01*
X13619943Y-14879174D02*
X13638991Y-14869650D01*
X13638991Y-14869650D02*
X13667563Y-14869650D01*
X13667563Y-14869650D02*
X13686610Y-14879174D01*
X13686610Y-14879174D02*
X13696134Y-14898222D01*
X13696134Y-14898222D02*
X13696134Y-15002984D01*
X13696134Y-14898222D02*
X13705658Y-14879174D01*
X13705658Y-14879174D02*
X13724705Y-14869650D01*
X13724705Y-14869650D02*
X13753277Y-14869650D01*
X13753277Y-14869650D02*
X13772324Y-14879174D01*
X13772324Y-14879174D02*
X13781848Y-14898222D01*
X13781848Y-14898222D02*
X13781848Y-15002984D01*
X13877086Y-15002984D02*
X13877086Y-14869650D01*
X13877086Y-14888698D02*
X13886610Y-14879174D01*
X13886610Y-14879174D02*
X13905658Y-14869650D01*
X13905658Y-14869650D02*
X13934229Y-14869650D01*
X13934229Y-14869650D02*
X13953277Y-14879174D01*
X13953277Y-14879174D02*
X13962801Y-14898222D01*
X13962801Y-14898222D02*
X13962801Y-15002984D01*
X13962801Y-14898222D02*
X13972324Y-14879174D01*
X13972324Y-14879174D02*
X13991372Y-14869650D01*
X13991372Y-14869650D02*
X14019943Y-14869650D01*
X14019943Y-14869650D02*
X14038991Y-14879174D01*
X14038991Y-14879174D02*
X14048515Y-14898222D01*
X14048515Y-14898222D02*
X14048515Y-15002984D01*
X14438991Y-14793460D02*
X14267563Y-15050603D01*
X14696134Y-14802984D02*
X14715182Y-14802984D01*
X14715182Y-14802984D02*
X14734229Y-14812508D01*
X14734229Y-14812508D02*
X14743753Y-14822031D01*
X14743753Y-14822031D02*
X14753277Y-14841079D01*
X14753277Y-14841079D02*
X14762801Y-14879174D01*
X14762801Y-14879174D02*
X14762801Y-14926793D01*
X14762801Y-14926793D02*
X14753277Y-14964888D01*
X14753277Y-14964888D02*
X14743753Y-14983936D01*
X14743753Y-14983936D02*
X14734229Y-14993460D01*
X14734229Y-14993460D02*
X14715182Y-15002984D01*
X14715182Y-15002984D02*
X14696134Y-15002984D01*
X14696134Y-15002984D02*
X14677086Y-14993460D01*
X14677086Y-14993460D02*
X14667563Y-14983936D01*
X14667563Y-14983936D02*
X14658039Y-14964888D01*
X14658039Y-14964888D02*
X14648515Y-14926793D01*
X14648515Y-14926793D02*
X14648515Y-14879174D01*
X14648515Y-14879174D02*
X14658039Y-14841079D01*
X14658039Y-14841079D02*
X14667563Y-14822031D01*
X14667563Y-14822031D02*
X14677086Y-14812508D01*
X14677086Y-14812508D02*
X14696134Y-14802984D01*
X14848515Y-14983936D02*
X14858039Y-14993460D01*
X14858039Y-14993460D02*
X14848515Y-15002984D01*
X14848515Y-15002984D02*
X14838991Y-14993460D01*
X14838991Y-14993460D02*
X14848515Y-14983936D01*
X14848515Y-14983936D02*
X14848515Y-15002984D01*
X14981848Y-14802984D02*
X15000896Y-14802984D01*
X15000896Y-14802984D02*
X15019944Y-14812508D01*
X15019944Y-14812508D02*
X15029467Y-14822031D01*
X15029467Y-14822031D02*
X15038991Y-14841079D01*
X15038991Y-14841079D02*
X15048515Y-14879174D01*
X15048515Y-14879174D02*
X15048515Y-14926793D01*
X15048515Y-14926793D02*
X15038991Y-14964888D01*
X15038991Y-14964888D02*
X15029467Y-14983936D01*
X15029467Y-14983936D02*
X15019944Y-14993460D01*
X15019944Y-14993460D02*
X15000896Y-15002984D01*
X15000896Y-15002984D02*
X14981848Y-15002984D01*
X14981848Y-15002984D02*
X14962801Y-14993460D01*
X14962801Y-14993460D02*
X14953277Y-14983936D01*
X14953277Y-14983936D02*
X14943753Y-14964888D01*
X14943753Y-14964888D02*
X14934229Y-14926793D01*
X14934229Y-14926793D02*
X14934229Y-14879174D01*
X14934229Y-14879174D02*
X14943753Y-14841079D01*
X14943753Y-14841079D02*
X14953277Y-14822031D01*
X14953277Y-14822031D02*
X14962801Y-14812508D01*
X14962801Y-14812508D02*
X14981848Y-14802984D01*
X15115182Y-14802984D02*
X15238991Y-14802984D01*
X15238991Y-14802984D02*
X15172325Y-14879174D01*
X15172325Y-14879174D02*
X15200896Y-14879174D01*
X15200896Y-14879174D02*
X15219944Y-14888698D01*
X15219944Y-14888698D02*
X15229467Y-14898222D01*
X15229467Y-14898222D02*
X15238991Y-14917269D01*
X15238991Y-14917269D02*
X15238991Y-14964888D01*
X15238991Y-14964888D02*
X15229467Y-14983936D01*
X15229467Y-14983936D02*
X15219944Y-14993460D01*
X15219944Y-14993460D02*
X15200896Y-15002984D01*
X15200896Y-15002984D02*
X15143753Y-15002984D01*
X15143753Y-15002984D02*
X15124706Y-14993460D01*
X15124706Y-14993460D02*
X15115182Y-14983936D01*
X15429467Y-15002984D02*
X15315182Y-15002984D01*
X15372325Y-15002984D02*
X15372325Y-14802984D01*
X15372325Y-14802984D02*
X15353277Y-14831555D01*
X15353277Y-14831555D02*
X15334229Y-14850603D01*
X15334229Y-14850603D02*
X15315182Y-14860127D01*
X15610420Y-14802984D02*
X15515182Y-14802984D01*
X15515182Y-14802984D02*
X15505658Y-14898222D01*
X15505658Y-14898222D02*
X15515182Y-14888698D01*
X15515182Y-14888698D02*
X15534229Y-14879174D01*
X15534229Y-14879174D02*
X15581848Y-14879174D01*
X15581848Y-14879174D02*
X15600896Y-14888698D01*
X15600896Y-14888698D02*
X15610420Y-14898222D01*
X15610420Y-14898222D02*
X15619944Y-14917269D01*
X15619944Y-14917269D02*
X15619944Y-14964888D01*
X15619944Y-14964888D02*
X15610420Y-14983936D01*
X15610420Y-14983936D02*
X15600896Y-14993460D01*
X15600896Y-14993460D02*
X15581848Y-15002984D01*
X15581848Y-15002984D02*
X15534229Y-15002984D01*
X15534229Y-15002984D02*
X15515182Y-14993460D01*
X15515182Y-14993460D02*
X15505658Y-14983936D01*
X15696134Y-14802984D02*
X15696134Y-14841079D01*
X15772325Y-14802984D02*
X15772325Y-14841079D01*
X16067563Y-15079174D02*
X16058039Y-15069650D01*
X16058039Y-15069650D02*
X16038991Y-15041079D01*
X16038991Y-15041079D02*
X16029468Y-15022031D01*
X16029468Y-15022031D02*
X16019944Y-14993460D01*
X16019944Y-14993460D02*
X16010420Y-14945841D01*
X16010420Y-14945841D02*
X16010420Y-14907746D01*
X16010420Y-14907746D02*
X16019944Y-14860127D01*
X16019944Y-14860127D02*
X16029468Y-14831555D01*
X16029468Y-14831555D02*
X16038991Y-14812508D01*
X16038991Y-14812508D02*
X16058039Y-14783936D01*
X16058039Y-14783936D02*
X16067563Y-14774412D01*
X16229468Y-14869650D02*
X16229468Y-15002984D01*
X16181848Y-14793460D02*
X16134229Y-14936317D01*
X16134229Y-14936317D02*
X16258039Y-14936317D01*
X16486610Y-15002984D02*
X16486610Y-14802984D01*
X16572325Y-15002984D02*
X16572325Y-14898222D01*
X16572325Y-14898222D02*
X16562801Y-14879174D01*
X16562801Y-14879174D02*
X16543753Y-14869650D01*
X16543753Y-14869650D02*
X16515182Y-14869650D01*
X16515182Y-14869650D02*
X16496134Y-14879174D01*
X16496134Y-14879174D02*
X16486610Y-14888698D01*
X16696134Y-15002984D02*
X16677087Y-14993460D01*
X16677087Y-14993460D02*
X16667563Y-14983936D01*
X16667563Y-14983936D02*
X16658039Y-14964888D01*
X16658039Y-14964888D02*
X16658039Y-14907746D01*
X16658039Y-14907746D02*
X16667563Y-14888698D01*
X16667563Y-14888698D02*
X16677087Y-14879174D01*
X16677087Y-14879174D02*
X16696134Y-14869650D01*
X16696134Y-14869650D02*
X16724706Y-14869650D01*
X16724706Y-14869650D02*
X16743753Y-14879174D01*
X16743753Y-14879174D02*
X16753277Y-14888698D01*
X16753277Y-14888698D02*
X16762801Y-14907746D01*
X16762801Y-14907746D02*
X16762801Y-14964888D01*
X16762801Y-14964888D02*
X16753277Y-14983936D01*
X16753277Y-14983936D02*
X16743753Y-14993460D01*
X16743753Y-14993460D02*
X16724706Y-15002984D01*
X16724706Y-15002984D02*
X16696134Y-15002984D01*
X16877087Y-15002984D02*
X16858039Y-14993460D01*
X16858039Y-14993460D02*
X16848515Y-14974412D01*
X16848515Y-14974412D02*
X16848515Y-14802984D01*
X17029468Y-14993460D02*
X17010420Y-15002984D01*
X17010420Y-15002984D02*
X16972325Y-15002984D01*
X16972325Y-15002984D02*
X16953277Y-14993460D01*
X16953277Y-14993460D02*
X16943753Y-14974412D01*
X16943753Y-14974412D02*
X16943753Y-14898222D01*
X16943753Y-14898222D02*
X16953277Y-14879174D01*
X16953277Y-14879174D02*
X16972325Y-14869650D01*
X16972325Y-14869650D02*
X17010420Y-14869650D01*
X17010420Y-14869650D02*
X17029468Y-14879174D01*
X17029468Y-14879174D02*
X17038992Y-14898222D01*
X17038992Y-14898222D02*
X17038992Y-14917269D01*
X17038992Y-14917269D02*
X16943753Y-14936317D01*
X17115182Y-14993460D02*
X17134230Y-15002984D01*
X17134230Y-15002984D02*
X17172325Y-15002984D01*
X17172325Y-15002984D02*
X17191373Y-14993460D01*
X17191373Y-14993460D02*
X17200896Y-14974412D01*
X17200896Y-14974412D02*
X17200896Y-14964888D01*
X17200896Y-14964888D02*
X17191373Y-14945841D01*
X17191373Y-14945841D02*
X17172325Y-14936317D01*
X17172325Y-14936317D02*
X17143753Y-14936317D01*
X17143753Y-14936317D02*
X17124706Y-14926793D01*
X17124706Y-14926793D02*
X17115182Y-14907746D01*
X17115182Y-14907746D02*
X17115182Y-14898222D01*
X17115182Y-14898222D02*
X17124706Y-14879174D01*
X17124706Y-14879174D02*
X17143753Y-14869650D01*
X17143753Y-14869650D02*
X17172325Y-14869650D01*
X17172325Y-14869650D02*
X17191373Y-14879174D01*
X17267563Y-15079174D02*
X17277087Y-15069650D01*
X17277087Y-15069650D02*
X17296134Y-15041079D01*
X17296134Y-15041079D02*
X17305658Y-15022031D01*
X17305658Y-15022031D02*
X17315182Y-14993460D01*
X17315182Y-14993460D02*
X17324706Y-14945841D01*
X17324706Y-14945841D02*
X17324706Y-14907746D01*
X17324706Y-14907746D02*
X17315182Y-14860127D01*
X17315182Y-14860127D02*
X17305658Y-14831555D01*
X17305658Y-14831555D02*
X17296134Y-14812508D01*
X17296134Y-14812508D02*
X17277087Y-14783936D01*
X17277087Y-14783936D02*
X17267563Y-14774412D01*
D12*
X12442500Y-15125500D02*
X12442500Y-15225500D01*
X12392500Y-15175500D02*
X12492500Y-15175500D01*
D11*
X12858039Y-15266984D02*
X12743753Y-15266984D01*
X12800896Y-15266984D02*
X12800896Y-15066984D01*
X12800896Y-15066984D02*
X12781848Y-15095555D01*
X12781848Y-15095555D02*
X12762801Y-15114603D01*
X12762801Y-15114603D02*
X12743753Y-15124127D01*
X12943753Y-15247936D02*
X12953277Y-15257460D01*
X12953277Y-15257460D02*
X12943753Y-15266984D01*
X12943753Y-15266984D02*
X12934229Y-15257460D01*
X12934229Y-15257460D02*
X12943753Y-15247936D01*
X12943753Y-15247936D02*
X12943753Y-15266984D01*
X13077086Y-15066984D02*
X13096134Y-15066984D01*
X13096134Y-15066984D02*
X13115182Y-15076508D01*
X13115182Y-15076508D02*
X13124705Y-15086031D01*
X13124705Y-15086031D02*
X13134229Y-15105079D01*
X13134229Y-15105079D02*
X13143753Y-15143174D01*
X13143753Y-15143174D02*
X13143753Y-15190793D01*
X13143753Y-15190793D02*
X13134229Y-15228888D01*
X13134229Y-15228888D02*
X13124705Y-15247936D01*
X13124705Y-15247936D02*
X13115182Y-15257460D01*
X13115182Y-15257460D02*
X13096134Y-15266984D01*
X13096134Y-15266984D02*
X13077086Y-15266984D01*
X13077086Y-15266984D02*
X13058039Y-15257460D01*
X13058039Y-15257460D02*
X13048515Y-15247936D01*
X13048515Y-15247936D02*
X13038991Y-15228888D01*
X13038991Y-15228888D02*
X13029467Y-15190793D01*
X13029467Y-15190793D02*
X13029467Y-15143174D01*
X13029467Y-15143174D02*
X13038991Y-15105079D01*
X13038991Y-15105079D02*
X13048515Y-15086031D01*
X13048515Y-15086031D02*
X13058039Y-15076508D01*
X13058039Y-15076508D02*
X13077086Y-15066984D01*
X13267562Y-15066984D02*
X13286610Y-15066984D01*
X13286610Y-15066984D02*
X13305658Y-15076508D01*
X13305658Y-15076508D02*
X13315182Y-15086031D01*
X13315182Y-15086031D02*
X13324705Y-15105079D01*
X13324705Y-15105079D02*
X13334229Y-15143174D01*
X13334229Y-15143174D02*
X13334229Y-15190793D01*
X13334229Y-15190793D02*
X13324705Y-15228888D01*
X13324705Y-15228888D02*
X13315182Y-15247936D01*
X13315182Y-15247936D02*
X13305658Y-15257460D01*
X13305658Y-15257460D02*
X13286610Y-15266984D01*
X13286610Y-15266984D02*
X13267562Y-15266984D01*
X13267562Y-15266984D02*
X13248515Y-15257460D01*
X13248515Y-15257460D02*
X13238991Y-15247936D01*
X13238991Y-15247936D02*
X13229467Y-15228888D01*
X13229467Y-15228888D02*
X13219943Y-15190793D01*
X13219943Y-15190793D02*
X13219943Y-15143174D01*
X13219943Y-15143174D02*
X13229467Y-15105079D01*
X13229467Y-15105079D02*
X13238991Y-15086031D01*
X13238991Y-15086031D02*
X13248515Y-15076508D01*
X13248515Y-15076508D02*
X13267562Y-15066984D01*
X13458039Y-15066984D02*
X13477086Y-15066984D01*
X13477086Y-15066984D02*
X13496134Y-15076508D01*
X13496134Y-15076508D02*
X13505658Y-15086031D01*
X13505658Y-15086031D02*
X13515182Y-15105079D01*
X13515182Y-15105079D02*
X13524705Y-15143174D01*
X13524705Y-15143174D02*
X13524705Y-15190793D01*
X13524705Y-15190793D02*
X13515182Y-15228888D01*
X13515182Y-15228888D02*
X13505658Y-15247936D01*
X13505658Y-15247936D02*
X13496134Y-15257460D01*
X13496134Y-15257460D02*
X13477086Y-15266984D01*
X13477086Y-15266984D02*
X13458039Y-15266984D01*
X13458039Y-15266984D02*
X13438991Y-15257460D01*
X13438991Y-15257460D02*
X13429467Y-15247936D01*
X13429467Y-15247936D02*
X13419943Y-15228888D01*
X13419943Y-15228888D02*
X13410420Y-15190793D01*
X13410420Y-15190793D02*
X13410420Y-15143174D01*
X13410420Y-15143174D02*
X13419943Y-15105079D01*
X13419943Y-15105079D02*
X13429467Y-15086031D01*
X13429467Y-15086031D02*
X13438991Y-15076508D01*
X13438991Y-15076508D02*
X13458039Y-15066984D01*
X13610420Y-15266984D02*
X13610420Y-15133650D01*
X13610420Y-15152698D02*
X13619943Y-15143174D01*
X13619943Y-15143174D02*
X13638991Y-15133650D01*
X13638991Y-15133650D02*
X13667563Y-15133650D01*
X13667563Y-15133650D02*
X13686610Y-15143174D01*
X13686610Y-15143174D02*
X13696134Y-15162222D01*
X13696134Y-15162222D02*
X13696134Y-15266984D01*
X13696134Y-15162222D02*
X13705658Y-15143174D01*
X13705658Y-15143174D02*
X13724705Y-15133650D01*
X13724705Y-15133650D02*
X13753277Y-15133650D01*
X13753277Y-15133650D02*
X13772324Y-15143174D01*
X13772324Y-15143174D02*
X13781848Y-15162222D01*
X13781848Y-15162222D02*
X13781848Y-15266984D01*
X13877086Y-15266984D02*
X13877086Y-15133650D01*
X13877086Y-15152698D02*
X13886610Y-15143174D01*
X13886610Y-15143174D02*
X13905658Y-15133650D01*
X13905658Y-15133650D02*
X13934229Y-15133650D01*
X13934229Y-15133650D02*
X13953277Y-15143174D01*
X13953277Y-15143174D02*
X13962801Y-15162222D01*
X13962801Y-15162222D02*
X13962801Y-15266984D01*
X13962801Y-15162222D02*
X13972324Y-15143174D01*
X13972324Y-15143174D02*
X13991372Y-15133650D01*
X13991372Y-15133650D02*
X14019943Y-15133650D01*
X14019943Y-15133650D02*
X14038991Y-15143174D01*
X14038991Y-15143174D02*
X14048515Y-15162222D01*
X14048515Y-15162222D02*
X14048515Y-15266984D01*
X14438991Y-15057460D02*
X14267563Y-15314603D01*
X14696134Y-15066984D02*
X14715182Y-15066984D01*
X14715182Y-15066984D02*
X14734229Y-15076508D01*
X14734229Y-15076508D02*
X14743753Y-15086031D01*
X14743753Y-15086031D02*
X14753277Y-15105079D01*
X14753277Y-15105079D02*
X14762801Y-15143174D01*
X14762801Y-15143174D02*
X14762801Y-15190793D01*
X14762801Y-15190793D02*
X14753277Y-15228888D01*
X14753277Y-15228888D02*
X14743753Y-15247936D01*
X14743753Y-15247936D02*
X14734229Y-15257460D01*
X14734229Y-15257460D02*
X14715182Y-15266984D01*
X14715182Y-15266984D02*
X14696134Y-15266984D01*
X14696134Y-15266984D02*
X14677086Y-15257460D01*
X14677086Y-15257460D02*
X14667563Y-15247936D01*
X14667563Y-15247936D02*
X14658039Y-15228888D01*
X14658039Y-15228888D02*
X14648515Y-15190793D01*
X14648515Y-15190793D02*
X14648515Y-15143174D01*
X14648515Y-15143174D02*
X14658039Y-15105079D01*
X14658039Y-15105079D02*
X14667563Y-15086031D01*
X14667563Y-15086031D02*
X14677086Y-15076508D01*
X14677086Y-15076508D02*
X14696134Y-15066984D01*
X14848515Y-15247936D02*
X14858039Y-15257460D01*
X14858039Y-15257460D02*
X14848515Y-15266984D01*
X14848515Y-15266984D02*
X14838991Y-15257460D01*
X14838991Y-15257460D02*
X14848515Y-15247936D01*
X14848515Y-15247936D02*
X14848515Y-15266984D01*
X14981848Y-15066984D02*
X15000896Y-15066984D01*
X15000896Y-15066984D02*
X15019944Y-15076508D01*
X15019944Y-15076508D02*
X15029467Y-15086031D01*
X15029467Y-15086031D02*
X15038991Y-15105079D01*
X15038991Y-15105079D02*
X15048515Y-15143174D01*
X15048515Y-15143174D02*
X15048515Y-15190793D01*
X15048515Y-15190793D02*
X15038991Y-15228888D01*
X15038991Y-15228888D02*
X15029467Y-15247936D01*
X15029467Y-15247936D02*
X15019944Y-15257460D01*
X15019944Y-15257460D02*
X15000896Y-15266984D01*
X15000896Y-15266984D02*
X14981848Y-15266984D01*
X14981848Y-15266984D02*
X14962801Y-15257460D01*
X14962801Y-15257460D02*
X14953277Y-15247936D01*
X14953277Y-15247936D02*
X14943753Y-15228888D01*
X14943753Y-15228888D02*
X14934229Y-15190793D01*
X14934229Y-15190793D02*
X14934229Y-15143174D01*
X14934229Y-15143174D02*
X14943753Y-15105079D01*
X14943753Y-15105079D02*
X14953277Y-15086031D01*
X14953277Y-15086031D02*
X14962801Y-15076508D01*
X14962801Y-15076508D02*
X14981848Y-15066984D01*
X15115182Y-15066984D02*
X15238991Y-15066984D01*
X15238991Y-15066984D02*
X15172325Y-15143174D01*
X15172325Y-15143174D02*
X15200896Y-15143174D01*
X15200896Y-15143174D02*
X15219944Y-15152698D01*
X15219944Y-15152698D02*
X15229467Y-15162222D01*
X15229467Y-15162222D02*
X15238991Y-15181269D01*
X15238991Y-15181269D02*
X15238991Y-15228888D01*
X15238991Y-15228888D02*
X15229467Y-15247936D01*
X15229467Y-15247936D02*
X15219944Y-15257460D01*
X15219944Y-15257460D02*
X15200896Y-15266984D01*
X15200896Y-15266984D02*
X15143753Y-15266984D01*
X15143753Y-15266984D02*
X15124706Y-15257460D01*
X15124706Y-15257460D02*
X15115182Y-15247936D01*
X15334229Y-15266984D02*
X15372325Y-15266984D01*
X15372325Y-15266984D02*
X15391372Y-15257460D01*
X15391372Y-15257460D02*
X15400896Y-15247936D01*
X15400896Y-15247936D02*
X15419944Y-15219365D01*
X15419944Y-15219365D02*
X15429467Y-15181269D01*
X15429467Y-15181269D02*
X15429467Y-15105079D01*
X15429467Y-15105079D02*
X15419944Y-15086031D01*
X15419944Y-15086031D02*
X15410420Y-15076508D01*
X15410420Y-15076508D02*
X15391372Y-15066984D01*
X15391372Y-15066984D02*
X15353277Y-15066984D01*
X15353277Y-15066984D02*
X15334229Y-15076508D01*
X15334229Y-15076508D02*
X15324706Y-15086031D01*
X15324706Y-15086031D02*
X15315182Y-15105079D01*
X15315182Y-15105079D02*
X15315182Y-15152698D01*
X15315182Y-15152698D02*
X15324706Y-15171746D01*
X15324706Y-15171746D02*
X15334229Y-15181269D01*
X15334229Y-15181269D02*
X15353277Y-15190793D01*
X15353277Y-15190793D02*
X15391372Y-15190793D01*
X15391372Y-15190793D02*
X15410420Y-15181269D01*
X15410420Y-15181269D02*
X15419944Y-15171746D01*
X15419944Y-15171746D02*
X15429467Y-15152698D01*
X15600896Y-15133650D02*
X15600896Y-15266984D01*
X15553277Y-15057460D02*
X15505658Y-15200317D01*
X15505658Y-15200317D02*
X15629467Y-15200317D01*
X15696134Y-15066984D02*
X15696134Y-15105079D01*
X15772325Y-15066984D02*
X15772325Y-15105079D01*
X16067563Y-15343174D02*
X16058039Y-15333650D01*
X16058039Y-15333650D02*
X16038991Y-15305079D01*
X16038991Y-15305079D02*
X16029468Y-15286031D01*
X16029468Y-15286031D02*
X16019944Y-15257460D01*
X16019944Y-15257460D02*
X16010420Y-15209841D01*
X16010420Y-15209841D02*
X16010420Y-15171746D01*
X16010420Y-15171746D02*
X16019944Y-15124127D01*
X16019944Y-15124127D02*
X16029468Y-15095555D01*
X16029468Y-15095555D02*
X16038991Y-15076508D01*
X16038991Y-15076508D02*
X16058039Y-15047936D01*
X16058039Y-15047936D02*
X16067563Y-15038412D01*
X16238991Y-15066984D02*
X16143753Y-15066984D01*
X16143753Y-15066984D02*
X16134229Y-15162222D01*
X16134229Y-15162222D02*
X16143753Y-15152698D01*
X16143753Y-15152698D02*
X16162801Y-15143174D01*
X16162801Y-15143174D02*
X16210420Y-15143174D01*
X16210420Y-15143174D02*
X16229468Y-15152698D01*
X16229468Y-15152698D02*
X16238991Y-15162222D01*
X16238991Y-15162222D02*
X16248515Y-15181269D01*
X16248515Y-15181269D02*
X16248515Y-15228888D01*
X16248515Y-15228888D02*
X16238991Y-15247936D01*
X16238991Y-15247936D02*
X16229468Y-15257460D01*
X16229468Y-15257460D02*
X16210420Y-15266984D01*
X16210420Y-15266984D02*
X16162801Y-15266984D01*
X16162801Y-15266984D02*
X16143753Y-15257460D01*
X16143753Y-15257460D02*
X16134229Y-15247936D01*
X16372325Y-15066984D02*
X16391372Y-15066984D01*
X16391372Y-15066984D02*
X16410420Y-15076508D01*
X16410420Y-15076508D02*
X16419944Y-15086031D01*
X16419944Y-15086031D02*
X16429468Y-15105079D01*
X16429468Y-15105079D02*
X16438991Y-15143174D01*
X16438991Y-15143174D02*
X16438991Y-15190793D01*
X16438991Y-15190793D02*
X16429468Y-15228888D01*
X16429468Y-15228888D02*
X16419944Y-15247936D01*
X16419944Y-15247936D02*
X16410420Y-15257460D01*
X16410420Y-15257460D02*
X16391372Y-15266984D01*
X16391372Y-15266984D02*
X16372325Y-15266984D01*
X16372325Y-15266984D02*
X16353277Y-15257460D01*
X16353277Y-15257460D02*
X16343753Y-15247936D01*
X16343753Y-15247936D02*
X16334229Y-15228888D01*
X16334229Y-15228888D02*
X16324706Y-15190793D01*
X16324706Y-15190793D02*
X16324706Y-15143174D01*
X16324706Y-15143174D02*
X16334229Y-15105079D01*
X16334229Y-15105079D02*
X16343753Y-15086031D01*
X16343753Y-15086031D02*
X16353277Y-15076508D01*
X16353277Y-15076508D02*
X16372325Y-15066984D01*
X16677087Y-15266984D02*
X16677087Y-15066984D01*
X16762801Y-15266984D02*
X16762801Y-15162222D01*
X16762801Y-15162222D02*
X16753277Y-15143174D01*
X16753277Y-15143174D02*
X16734230Y-15133650D01*
X16734230Y-15133650D02*
X16705658Y-15133650D01*
X16705658Y-15133650D02*
X16686610Y-15143174D01*
X16686610Y-15143174D02*
X16677087Y-15152698D01*
X16886611Y-15266984D02*
X16867563Y-15257460D01*
X16867563Y-15257460D02*
X16858039Y-15247936D01*
X16858039Y-15247936D02*
X16848515Y-15228888D01*
X16848515Y-15228888D02*
X16848515Y-15171746D01*
X16848515Y-15171746D02*
X16858039Y-15152698D01*
X16858039Y-15152698D02*
X16867563Y-15143174D01*
X16867563Y-15143174D02*
X16886611Y-15133650D01*
X16886611Y-15133650D02*
X16915182Y-15133650D01*
X16915182Y-15133650D02*
X16934230Y-15143174D01*
X16934230Y-15143174D02*
X16943753Y-15152698D01*
X16943753Y-15152698D02*
X16953277Y-15171746D01*
X16953277Y-15171746D02*
X16953277Y-15228888D01*
X16953277Y-15228888D02*
X16943753Y-15247936D01*
X16943753Y-15247936D02*
X16934230Y-15257460D01*
X16934230Y-15257460D02*
X16915182Y-15266984D01*
X16915182Y-15266984D02*
X16886611Y-15266984D01*
X17067563Y-15266984D02*
X17048515Y-15257460D01*
X17048515Y-15257460D02*
X17038992Y-15238412D01*
X17038992Y-15238412D02*
X17038992Y-15066984D01*
X17219944Y-15257460D02*
X17200896Y-15266984D01*
X17200896Y-15266984D02*
X17162801Y-15266984D01*
X17162801Y-15266984D02*
X17143753Y-15257460D01*
X17143753Y-15257460D02*
X17134230Y-15238412D01*
X17134230Y-15238412D02*
X17134230Y-15162222D01*
X17134230Y-15162222D02*
X17143753Y-15143174D01*
X17143753Y-15143174D02*
X17162801Y-15133650D01*
X17162801Y-15133650D02*
X17200896Y-15133650D01*
X17200896Y-15133650D02*
X17219944Y-15143174D01*
X17219944Y-15143174D02*
X17229468Y-15162222D01*
X17229468Y-15162222D02*
X17229468Y-15181269D01*
X17229468Y-15181269D02*
X17134230Y-15200317D01*
X17305658Y-15257460D02*
X17324706Y-15266984D01*
X17324706Y-15266984D02*
X17362801Y-15266984D01*
X17362801Y-15266984D02*
X17381849Y-15257460D01*
X17381849Y-15257460D02*
X17391373Y-15238412D01*
X17391373Y-15238412D02*
X17391373Y-15228888D01*
X17391373Y-15228888D02*
X17381849Y-15209841D01*
X17381849Y-15209841D02*
X17362801Y-15200317D01*
X17362801Y-15200317D02*
X17334230Y-15200317D01*
X17334230Y-15200317D02*
X17315182Y-15190793D01*
X17315182Y-15190793D02*
X17305658Y-15171746D01*
X17305658Y-15171746D02*
X17305658Y-15162222D01*
X17305658Y-15162222D02*
X17315182Y-15143174D01*
X17315182Y-15143174D02*
X17334230Y-15133650D01*
X17334230Y-15133650D02*
X17362801Y-15133650D01*
X17362801Y-15133650D02*
X17381849Y-15143174D01*
X17458039Y-15343174D02*
X17467563Y-15333650D01*
X17467563Y-15333650D02*
X17486611Y-15305079D01*
X17486611Y-15305079D02*
X17496134Y-15286031D01*
X17496134Y-15286031D02*
X17505658Y-15257460D01*
X17505658Y-15257460D02*
X17515182Y-15209841D01*
X17515182Y-15209841D02*
X17515182Y-15171746D01*
X17515182Y-15171746D02*
X17505658Y-15124127D01*
X17505658Y-15124127D02*
X17496134Y-15095555D01*
X17496134Y-15095555D02*
X17486611Y-15076508D01*
X17486611Y-15076508D02*
X17467563Y-15047936D01*
X17467563Y-15047936D02*
X17458039Y-15038412D01*
D13*
X12477621Y-15475421D02*
X12477621Y-15403579D01*
X12405779Y-15403579D01*
X12405779Y-15475421D01*
X12477621Y-15475421D01*
D11*
X12858039Y-15530984D02*
X12743753Y-15530984D01*
X12800896Y-15530984D02*
X12800896Y-15330984D01*
X12800896Y-15330984D02*
X12781848Y-15359555D01*
X12781848Y-15359555D02*
X12762801Y-15378603D01*
X12762801Y-15378603D02*
X12743753Y-15388127D01*
X12943753Y-15511936D02*
X12953277Y-15521460D01*
X12953277Y-15521460D02*
X12943753Y-15530984D01*
X12943753Y-15530984D02*
X12934229Y-15521460D01*
X12934229Y-15521460D02*
X12943753Y-15511936D01*
X12943753Y-15511936D02*
X12943753Y-15530984D01*
X13077086Y-15330984D02*
X13096134Y-15330984D01*
X13096134Y-15330984D02*
X13115182Y-15340508D01*
X13115182Y-15340508D02*
X13124705Y-15350031D01*
X13124705Y-15350031D02*
X13134229Y-15369079D01*
X13134229Y-15369079D02*
X13143753Y-15407174D01*
X13143753Y-15407174D02*
X13143753Y-15454793D01*
X13143753Y-15454793D02*
X13134229Y-15492888D01*
X13134229Y-15492888D02*
X13124705Y-15511936D01*
X13124705Y-15511936D02*
X13115182Y-15521460D01*
X13115182Y-15521460D02*
X13096134Y-15530984D01*
X13096134Y-15530984D02*
X13077086Y-15530984D01*
X13077086Y-15530984D02*
X13058039Y-15521460D01*
X13058039Y-15521460D02*
X13048515Y-15511936D01*
X13048515Y-15511936D02*
X13038991Y-15492888D01*
X13038991Y-15492888D02*
X13029467Y-15454793D01*
X13029467Y-15454793D02*
X13029467Y-15407174D01*
X13029467Y-15407174D02*
X13038991Y-15369079D01*
X13038991Y-15369079D02*
X13048515Y-15350031D01*
X13048515Y-15350031D02*
X13058039Y-15340508D01*
X13058039Y-15340508D02*
X13077086Y-15330984D01*
X13334229Y-15530984D02*
X13219943Y-15530984D01*
X13277086Y-15530984D02*
X13277086Y-15330984D01*
X13277086Y-15330984D02*
X13258039Y-15359555D01*
X13258039Y-15359555D02*
X13238991Y-15378603D01*
X13238991Y-15378603D02*
X13219943Y-15388127D01*
X13505658Y-15330984D02*
X13467562Y-15330984D01*
X13467562Y-15330984D02*
X13448515Y-15340508D01*
X13448515Y-15340508D02*
X13438991Y-15350031D01*
X13438991Y-15350031D02*
X13419943Y-15378603D01*
X13419943Y-15378603D02*
X13410420Y-15416698D01*
X13410420Y-15416698D02*
X13410420Y-15492888D01*
X13410420Y-15492888D02*
X13419943Y-15511936D01*
X13419943Y-15511936D02*
X13429467Y-15521460D01*
X13429467Y-15521460D02*
X13448515Y-15530984D01*
X13448515Y-15530984D02*
X13486610Y-15530984D01*
X13486610Y-15530984D02*
X13505658Y-15521460D01*
X13505658Y-15521460D02*
X13515182Y-15511936D01*
X13515182Y-15511936D02*
X13524705Y-15492888D01*
X13524705Y-15492888D02*
X13524705Y-15445269D01*
X13524705Y-15445269D02*
X13515182Y-15426222D01*
X13515182Y-15426222D02*
X13505658Y-15416698D01*
X13505658Y-15416698D02*
X13486610Y-15407174D01*
X13486610Y-15407174D02*
X13448515Y-15407174D01*
X13448515Y-15407174D02*
X13429467Y-15416698D01*
X13429467Y-15416698D02*
X13419943Y-15426222D01*
X13419943Y-15426222D02*
X13410420Y-15445269D01*
X13610420Y-15530984D02*
X13610420Y-15397650D01*
X13610420Y-15416698D02*
X13619943Y-15407174D01*
X13619943Y-15407174D02*
X13638991Y-15397650D01*
X13638991Y-15397650D02*
X13667563Y-15397650D01*
X13667563Y-15397650D02*
X13686610Y-15407174D01*
X13686610Y-15407174D02*
X13696134Y-15426222D01*
X13696134Y-15426222D02*
X13696134Y-15530984D01*
X13696134Y-15426222D02*
X13705658Y-15407174D01*
X13705658Y-15407174D02*
X13724705Y-15397650D01*
X13724705Y-15397650D02*
X13753277Y-15397650D01*
X13753277Y-15397650D02*
X13772324Y-15407174D01*
X13772324Y-15407174D02*
X13781848Y-15426222D01*
X13781848Y-15426222D02*
X13781848Y-15530984D01*
X13877086Y-15530984D02*
X13877086Y-15397650D01*
X13877086Y-15416698D02*
X13886610Y-15407174D01*
X13886610Y-15407174D02*
X13905658Y-15397650D01*
X13905658Y-15397650D02*
X13934229Y-15397650D01*
X13934229Y-15397650D02*
X13953277Y-15407174D01*
X13953277Y-15407174D02*
X13962801Y-15426222D01*
X13962801Y-15426222D02*
X13962801Y-15530984D01*
X13962801Y-15426222D02*
X13972324Y-15407174D01*
X13972324Y-15407174D02*
X13991372Y-15397650D01*
X13991372Y-15397650D02*
X14019943Y-15397650D01*
X14019943Y-15397650D02*
X14038991Y-15407174D01*
X14038991Y-15407174D02*
X14048515Y-15426222D01*
X14048515Y-15426222D02*
X14048515Y-15530984D01*
X14438991Y-15321460D02*
X14267563Y-15578603D01*
X14696134Y-15330984D02*
X14715182Y-15330984D01*
X14715182Y-15330984D02*
X14734229Y-15340508D01*
X14734229Y-15340508D02*
X14743753Y-15350031D01*
X14743753Y-15350031D02*
X14753277Y-15369079D01*
X14753277Y-15369079D02*
X14762801Y-15407174D01*
X14762801Y-15407174D02*
X14762801Y-15454793D01*
X14762801Y-15454793D02*
X14753277Y-15492888D01*
X14753277Y-15492888D02*
X14743753Y-15511936D01*
X14743753Y-15511936D02*
X14734229Y-15521460D01*
X14734229Y-15521460D02*
X14715182Y-15530984D01*
X14715182Y-15530984D02*
X14696134Y-15530984D01*
X14696134Y-15530984D02*
X14677086Y-15521460D01*
X14677086Y-15521460D02*
X14667563Y-15511936D01*
X14667563Y-15511936D02*
X14658039Y-15492888D01*
X14658039Y-15492888D02*
X14648515Y-15454793D01*
X14648515Y-15454793D02*
X14648515Y-15407174D01*
X14648515Y-15407174D02*
X14658039Y-15369079D01*
X14658039Y-15369079D02*
X14667563Y-15350031D01*
X14667563Y-15350031D02*
X14677086Y-15340508D01*
X14677086Y-15340508D02*
X14696134Y-15330984D01*
X14848515Y-15511936D02*
X14858039Y-15521460D01*
X14858039Y-15521460D02*
X14848515Y-15530984D01*
X14848515Y-15530984D02*
X14838991Y-15521460D01*
X14838991Y-15521460D02*
X14848515Y-15511936D01*
X14848515Y-15511936D02*
X14848515Y-15530984D01*
X14981848Y-15330984D02*
X15000896Y-15330984D01*
X15000896Y-15330984D02*
X15019944Y-15340508D01*
X15019944Y-15340508D02*
X15029467Y-15350031D01*
X15029467Y-15350031D02*
X15038991Y-15369079D01*
X15038991Y-15369079D02*
X15048515Y-15407174D01*
X15048515Y-15407174D02*
X15048515Y-15454793D01*
X15048515Y-15454793D02*
X15038991Y-15492888D01*
X15038991Y-15492888D02*
X15029467Y-15511936D01*
X15029467Y-15511936D02*
X15019944Y-15521460D01*
X15019944Y-15521460D02*
X15000896Y-15530984D01*
X15000896Y-15530984D02*
X14981848Y-15530984D01*
X14981848Y-15530984D02*
X14962801Y-15521460D01*
X14962801Y-15521460D02*
X14953277Y-15511936D01*
X14953277Y-15511936D02*
X14943753Y-15492888D01*
X14943753Y-15492888D02*
X14934229Y-15454793D01*
X14934229Y-15454793D02*
X14934229Y-15407174D01*
X14934229Y-15407174D02*
X14943753Y-15369079D01*
X14943753Y-15369079D02*
X14953277Y-15350031D01*
X14953277Y-15350031D02*
X14962801Y-15340508D01*
X14962801Y-15340508D02*
X14981848Y-15330984D01*
X15219944Y-15397650D02*
X15219944Y-15530984D01*
X15172325Y-15321460D02*
X15124706Y-15464317D01*
X15124706Y-15464317D02*
X15248515Y-15464317D01*
X15362801Y-15330984D02*
X15381848Y-15330984D01*
X15381848Y-15330984D02*
X15400896Y-15340508D01*
X15400896Y-15340508D02*
X15410420Y-15350031D01*
X15410420Y-15350031D02*
X15419944Y-15369079D01*
X15419944Y-15369079D02*
X15429467Y-15407174D01*
X15429467Y-15407174D02*
X15429467Y-15454793D01*
X15429467Y-15454793D02*
X15419944Y-15492888D01*
X15419944Y-15492888D02*
X15410420Y-15511936D01*
X15410420Y-15511936D02*
X15400896Y-15521460D01*
X15400896Y-15521460D02*
X15381848Y-15530984D01*
X15381848Y-15530984D02*
X15362801Y-15530984D01*
X15362801Y-15530984D02*
X15343753Y-15521460D01*
X15343753Y-15521460D02*
X15334229Y-15511936D01*
X15334229Y-15511936D02*
X15324706Y-15492888D01*
X15324706Y-15492888D02*
X15315182Y-15454793D01*
X15315182Y-15454793D02*
X15315182Y-15407174D01*
X15315182Y-15407174D02*
X15324706Y-15369079D01*
X15324706Y-15369079D02*
X15334229Y-15350031D01*
X15334229Y-15350031D02*
X15343753Y-15340508D01*
X15343753Y-15340508D02*
X15362801Y-15330984D01*
X15553277Y-15330984D02*
X15572325Y-15330984D01*
X15572325Y-15330984D02*
X15591372Y-15340508D01*
X15591372Y-15340508D02*
X15600896Y-15350031D01*
X15600896Y-15350031D02*
X15610420Y-15369079D01*
X15610420Y-15369079D02*
X15619944Y-15407174D01*
X15619944Y-15407174D02*
X15619944Y-15454793D01*
X15619944Y-15454793D02*
X15610420Y-15492888D01*
X15610420Y-15492888D02*
X15600896Y-15511936D01*
X15600896Y-15511936D02*
X15591372Y-15521460D01*
X15591372Y-15521460D02*
X15572325Y-15530984D01*
X15572325Y-15530984D02*
X15553277Y-15530984D01*
X15553277Y-15530984D02*
X15534229Y-15521460D01*
X15534229Y-15521460D02*
X15524706Y-15511936D01*
X15524706Y-15511936D02*
X15515182Y-15492888D01*
X15515182Y-15492888D02*
X15505658Y-15454793D01*
X15505658Y-15454793D02*
X15505658Y-15407174D01*
X15505658Y-15407174D02*
X15515182Y-15369079D01*
X15515182Y-15369079D02*
X15524706Y-15350031D01*
X15524706Y-15350031D02*
X15534229Y-15340508D01*
X15534229Y-15340508D02*
X15553277Y-15330984D01*
X15696134Y-15330984D02*
X15696134Y-15369079D01*
X15772325Y-15330984D02*
X15772325Y-15369079D01*
X16067563Y-15607174D02*
X16058039Y-15597650D01*
X16058039Y-15597650D02*
X16038991Y-15569079D01*
X16038991Y-15569079D02*
X16029468Y-15550031D01*
X16029468Y-15550031D02*
X16019944Y-15521460D01*
X16019944Y-15521460D02*
X16010420Y-15473841D01*
X16010420Y-15473841D02*
X16010420Y-15435746D01*
X16010420Y-15435746D02*
X16019944Y-15388127D01*
X16019944Y-15388127D02*
X16029468Y-15359555D01*
X16029468Y-15359555D02*
X16038991Y-15340508D01*
X16038991Y-15340508D02*
X16058039Y-15311936D01*
X16058039Y-15311936D02*
X16067563Y-15302412D01*
X16248515Y-15530984D02*
X16134229Y-15530984D01*
X16191372Y-15530984D02*
X16191372Y-15330984D01*
X16191372Y-15330984D02*
X16172325Y-15359555D01*
X16172325Y-15359555D02*
X16153277Y-15378603D01*
X16153277Y-15378603D02*
X16134229Y-15388127D01*
X16362801Y-15416698D02*
X16343753Y-15407174D01*
X16343753Y-15407174D02*
X16334229Y-15397650D01*
X16334229Y-15397650D02*
X16324706Y-15378603D01*
X16324706Y-15378603D02*
X16324706Y-15369079D01*
X16324706Y-15369079D02*
X16334229Y-15350031D01*
X16334229Y-15350031D02*
X16343753Y-15340508D01*
X16343753Y-15340508D02*
X16362801Y-15330984D01*
X16362801Y-15330984D02*
X16400896Y-15330984D01*
X16400896Y-15330984D02*
X16419944Y-15340508D01*
X16419944Y-15340508D02*
X16429468Y-15350031D01*
X16429468Y-15350031D02*
X16438991Y-15369079D01*
X16438991Y-15369079D02*
X16438991Y-15378603D01*
X16438991Y-15378603D02*
X16429468Y-15397650D01*
X16429468Y-15397650D02*
X16419944Y-15407174D01*
X16419944Y-15407174D02*
X16400896Y-15416698D01*
X16400896Y-15416698D02*
X16362801Y-15416698D01*
X16362801Y-15416698D02*
X16343753Y-15426222D01*
X16343753Y-15426222D02*
X16334229Y-15435746D01*
X16334229Y-15435746D02*
X16324706Y-15454793D01*
X16324706Y-15454793D02*
X16324706Y-15492888D01*
X16324706Y-15492888D02*
X16334229Y-15511936D01*
X16334229Y-15511936D02*
X16343753Y-15521460D01*
X16343753Y-15521460D02*
X16362801Y-15530984D01*
X16362801Y-15530984D02*
X16400896Y-15530984D01*
X16400896Y-15530984D02*
X16419944Y-15521460D01*
X16419944Y-15521460D02*
X16429468Y-15511936D01*
X16429468Y-15511936D02*
X16438991Y-15492888D01*
X16438991Y-15492888D02*
X16438991Y-15454793D01*
X16438991Y-15454793D02*
X16429468Y-15435746D01*
X16429468Y-15435746D02*
X16419944Y-15426222D01*
X16419944Y-15426222D02*
X16400896Y-15416698D01*
X16677087Y-15530984D02*
X16677087Y-15330984D01*
X16762801Y-15530984D02*
X16762801Y-15426222D01*
X16762801Y-15426222D02*
X16753277Y-15407174D01*
X16753277Y-15407174D02*
X16734230Y-15397650D01*
X16734230Y-15397650D02*
X16705658Y-15397650D01*
X16705658Y-15397650D02*
X16686610Y-15407174D01*
X16686610Y-15407174D02*
X16677087Y-15416698D01*
X16886611Y-15530984D02*
X16867563Y-15521460D01*
X16867563Y-15521460D02*
X16858039Y-15511936D01*
X16858039Y-15511936D02*
X16848515Y-15492888D01*
X16848515Y-15492888D02*
X16848515Y-15435746D01*
X16848515Y-15435746D02*
X16858039Y-15416698D01*
X16858039Y-15416698D02*
X16867563Y-15407174D01*
X16867563Y-15407174D02*
X16886611Y-15397650D01*
X16886611Y-15397650D02*
X16915182Y-15397650D01*
X16915182Y-15397650D02*
X16934230Y-15407174D01*
X16934230Y-15407174D02*
X16943753Y-15416698D01*
X16943753Y-15416698D02*
X16953277Y-15435746D01*
X16953277Y-15435746D02*
X16953277Y-15492888D01*
X16953277Y-15492888D02*
X16943753Y-15511936D01*
X16943753Y-15511936D02*
X16934230Y-15521460D01*
X16934230Y-15521460D02*
X16915182Y-15530984D01*
X16915182Y-15530984D02*
X16886611Y-15530984D01*
X17067563Y-15530984D02*
X17048515Y-15521460D01*
X17048515Y-15521460D02*
X17038992Y-15502412D01*
X17038992Y-15502412D02*
X17038992Y-15330984D01*
X17219944Y-15521460D02*
X17200896Y-15530984D01*
X17200896Y-15530984D02*
X17162801Y-15530984D01*
X17162801Y-15530984D02*
X17143753Y-15521460D01*
X17143753Y-15521460D02*
X17134230Y-15502412D01*
X17134230Y-15502412D02*
X17134230Y-15426222D01*
X17134230Y-15426222D02*
X17143753Y-15407174D01*
X17143753Y-15407174D02*
X17162801Y-15397650D01*
X17162801Y-15397650D02*
X17200896Y-15397650D01*
X17200896Y-15397650D02*
X17219944Y-15407174D01*
X17219944Y-15407174D02*
X17229468Y-15426222D01*
X17229468Y-15426222D02*
X17229468Y-15445269D01*
X17229468Y-15445269D02*
X17134230Y-15464317D01*
X17305658Y-15521460D02*
X17324706Y-15530984D01*
X17324706Y-15530984D02*
X17362801Y-15530984D01*
X17362801Y-15530984D02*
X17381849Y-15521460D01*
X17381849Y-15521460D02*
X17391373Y-15502412D01*
X17391373Y-15502412D02*
X17391373Y-15492888D01*
X17391373Y-15492888D02*
X17381849Y-15473841D01*
X17381849Y-15473841D02*
X17362801Y-15464317D01*
X17362801Y-15464317D02*
X17334230Y-15464317D01*
X17334230Y-15464317D02*
X17315182Y-15454793D01*
X17315182Y-15454793D02*
X17305658Y-15435746D01*
X17305658Y-15435746D02*
X17305658Y-15426222D01*
X17305658Y-15426222D02*
X17315182Y-15407174D01*
X17315182Y-15407174D02*
X17334230Y-15397650D01*
X17334230Y-15397650D02*
X17362801Y-15397650D01*
X17362801Y-15397650D02*
X17381849Y-15407174D01*
X17458039Y-15607174D02*
X17467563Y-15597650D01*
X17467563Y-15597650D02*
X17486611Y-15569079D01*
X17486611Y-15569079D02*
X17496134Y-15550031D01*
X17496134Y-15550031D02*
X17505658Y-15521460D01*
X17505658Y-15521460D02*
X17515182Y-15473841D01*
X17515182Y-15473841D02*
X17515182Y-15435746D01*
X17515182Y-15435746D02*
X17505658Y-15388127D01*
X17505658Y-15388127D02*
X17496134Y-15359555D01*
X17496134Y-15359555D02*
X17486611Y-15340508D01*
X17486611Y-15340508D02*
X17467563Y-15311936D01*
X17467563Y-15311936D02*
X17458039Y-15302412D01*
X12392500Y-15803500D02*
X12492500Y-15703500D01*
X12392500Y-15603500D01*
X12292500Y-15703500D01*
X12392500Y-15803500D01*
X12734229Y-15594984D02*
X12858039Y-15594984D01*
X12858039Y-15594984D02*
X12791372Y-15671174D01*
X12791372Y-15671174D02*
X12819943Y-15671174D01*
X12819943Y-15671174D02*
X12838991Y-15680698D01*
X12838991Y-15680698D02*
X12848515Y-15690222D01*
X12848515Y-15690222D02*
X12858039Y-15709269D01*
X12858039Y-15709269D02*
X12858039Y-15756888D01*
X12858039Y-15756888D02*
X12848515Y-15775936D01*
X12848515Y-15775936D02*
X12838991Y-15785460D01*
X12838991Y-15785460D02*
X12819943Y-15794984D01*
X12819943Y-15794984D02*
X12762801Y-15794984D01*
X12762801Y-15794984D02*
X12743753Y-15785460D01*
X12743753Y-15785460D02*
X12734229Y-15775936D01*
X12943753Y-15775936D02*
X12953277Y-15785460D01*
X12953277Y-15785460D02*
X12943753Y-15794984D01*
X12943753Y-15794984D02*
X12934229Y-15785460D01*
X12934229Y-15785460D02*
X12943753Y-15775936D01*
X12943753Y-15775936D02*
X12943753Y-15794984D01*
X13019943Y-15594984D02*
X13143753Y-15594984D01*
X13143753Y-15594984D02*
X13077086Y-15671174D01*
X13077086Y-15671174D02*
X13105658Y-15671174D01*
X13105658Y-15671174D02*
X13124705Y-15680698D01*
X13124705Y-15680698D02*
X13134229Y-15690222D01*
X13134229Y-15690222D02*
X13143753Y-15709269D01*
X13143753Y-15709269D02*
X13143753Y-15756888D01*
X13143753Y-15756888D02*
X13134229Y-15775936D01*
X13134229Y-15775936D02*
X13124705Y-15785460D01*
X13124705Y-15785460D02*
X13105658Y-15794984D01*
X13105658Y-15794984D02*
X13048515Y-15794984D01*
X13048515Y-15794984D02*
X13029467Y-15785460D01*
X13029467Y-15785460D02*
X13019943Y-15775936D01*
X13267562Y-15594984D02*
X13286610Y-15594984D01*
X13286610Y-15594984D02*
X13305658Y-15604508D01*
X13305658Y-15604508D02*
X13315182Y-15614031D01*
X13315182Y-15614031D02*
X13324705Y-15633079D01*
X13324705Y-15633079D02*
X13334229Y-15671174D01*
X13334229Y-15671174D02*
X13334229Y-15718793D01*
X13334229Y-15718793D02*
X13324705Y-15756888D01*
X13324705Y-15756888D02*
X13315182Y-15775936D01*
X13315182Y-15775936D02*
X13305658Y-15785460D01*
X13305658Y-15785460D02*
X13286610Y-15794984D01*
X13286610Y-15794984D02*
X13267562Y-15794984D01*
X13267562Y-15794984D02*
X13248515Y-15785460D01*
X13248515Y-15785460D02*
X13238991Y-15775936D01*
X13238991Y-15775936D02*
X13229467Y-15756888D01*
X13229467Y-15756888D02*
X13219943Y-15718793D01*
X13219943Y-15718793D02*
X13219943Y-15671174D01*
X13219943Y-15671174D02*
X13229467Y-15633079D01*
X13229467Y-15633079D02*
X13238991Y-15614031D01*
X13238991Y-15614031D02*
X13248515Y-15604508D01*
X13248515Y-15604508D02*
X13267562Y-15594984D01*
X13410420Y-15614031D02*
X13419943Y-15604508D01*
X13419943Y-15604508D02*
X13438991Y-15594984D01*
X13438991Y-15594984D02*
X13486610Y-15594984D01*
X13486610Y-15594984D02*
X13505658Y-15604508D01*
X13505658Y-15604508D02*
X13515182Y-15614031D01*
X13515182Y-15614031D02*
X13524705Y-15633079D01*
X13524705Y-15633079D02*
X13524705Y-15652127D01*
X13524705Y-15652127D02*
X13515182Y-15680698D01*
X13515182Y-15680698D02*
X13400896Y-15794984D01*
X13400896Y-15794984D02*
X13524705Y-15794984D01*
X13610420Y-15794984D02*
X13610420Y-15661650D01*
X13610420Y-15680698D02*
X13619943Y-15671174D01*
X13619943Y-15671174D02*
X13638991Y-15661650D01*
X13638991Y-15661650D02*
X13667563Y-15661650D01*
X13667563Y-15661650D02*
X13686610Y-15671174D01*
X13686610Y-15671174D02*
X13696134Y-15690222D01*
X13696134Y-15690222D02*
X13696134Y-15794984D01*
X13696134Y-15690222D02*
X13705658Y-15671174D01*
X13705658Y-15671174D02*
X13724705Y-15661650D01*
X13724705Y-15661650D02*
X13753277Y-15661650D01*
X13753277Y-15661650D02*
X13772324Y-15671174D01*
X13772324Y-15671174D02*
X13781848Y-15690222D01*
X13781848Y-15690222D02*
X13781848Y-15794984D01*
X13877086Y-15794984D02*
X13877086Y-15661650D01*
X13877086Y-15680698D02*
X13886610Y-15671174D01*
X13886610Y-15671174D02*
X13905658Y-15661650D01*
X13905658Y-15661650D02*
X13934229Y-15661650D01*
X13934229Y-15661650D02*
X13953277Y-15671174D01*
X13953277Y-15671174D02*
X13962801Y-15690222D01*
X13962801Y-15690222D02*
X13962801Y-15794984D01*
X13962801Y-15690222D02*
X13972324Y-15671174D01*
X13972324Y-15671174D02*
X13991372Y-15661650D01*
X13991372Y-15661650D02*
X14019943Y-15661650D01*
X14019943Y-15661650D02*
X14038991Y-15671174D01*
X14038991Y-15671174D02*
X14048515Y-15690222D01*
X14048515Y-15690222D02*
X14048515Y-15794984D01*
X14438991Y-15585460D02*
X14267563Y-15842603D01*
X14696134Y-15594984D02*
X14715182Y-15594984D01*
X14715182Y-15594984D02*
X14734229Y-15604508D01*
X14734229Y-15604508D02*
X14743753Y-15614031D01*
X14743753Y-15614031D02*
X14753277Y-15633079D01*
X14753277Y-15633079D02*
X14762801Y-15671174D01*
X14762801Y-15671174D02*
X14762801Y-15718793D01*
X14762801Y-15718793D02*
X14753277Y-15756888D01*
X14753277Y-15756888D02*
X14743753Y-15775936D01*
X14743753Y-15775936D02*
X14734229Y-15785460D01*
X14734229Y-15785460D02*
X14715182Y-15794984D01*
X14715182Y-15794984D02*
X14696134Y-15794984D01*
X14696134Y-15794984D02*
X14677086Y-15785460D01*
X14677086Y-15785460D02*
X14667563Y-15775936D01*
X14667563Y-15775936D02*
X14658039Y-15756888D01*
X14658039Y-15756888D02*
X14648515Y-15718793D01*
X14648515Y-15718793D02*
X14648515Y-15671174D01*
X14648515Y-15671174D02*
X14658039Y-15633079D01*
X14658039Y-15633079D02*
X14667563Y-15614031D01*
X14667563Y-15614031D02*
X14677086Y-15604508D01*
X14677086Y-15604508D02*
X14696134Y-15594984D01*
X14848515Y-15775936D02*
X14858039Y-15785460D01*
X14858039Y-15785460D02*
X14848515Y-15794984D01*
X14848515Y-15794984D02*
X14838991Y-15785460D01*
X14838991Y-15785460D02*
X14848515Y-15775936D01*
X14848515Y-15775936D02*
X14848515Y-15794984D01*
X15048515Y-15794984D02*
X14934229Y-15794984D01*
X14991372Y-15794984D02*
X14991372Y-15594984D01*
X14991372Y-15594984D02*
X14972325Y-15623555D01*
X14972325Y-15623555D02*
X14953277Y-15642603D01*
X14953277Y-15642603D02*
X14934229Y-15652127D01*
X15115182Y-15594984D02*
X15238991Y-15594984D01*
X15238991Y-15594984D02*
X15172325Y-15671174D01*
X15172325Y-15671174D02*
X15200896Y-15671174D01*
X15200896Y-15671174D02*
X15219944Y-15680698D01*
X15219944Y-15680698D02*
X15229467Y-15690222D01*
X15229467Y-15690222D02*
X15238991Y-15709269D01*
X15238991Y-15709269D02*
X15238991Y-15756888D01*
X15238991Y-15756888D02*
X15229467Y-15775936D01*
X15229467Y-15775936D02*
X15219944Y-15785460D01*
X15219944Y-15785460D02*
X15200896Y-15794984D01*
X15200896Y-15794984D02*
X15143753Y-15794984D01*
X15143753Y-15794984D02*
X15124706Y-15785460D01*
X15124706Y-15785460D02*
X15115182Y-15775936D01*
X15362801Y-15594984D02*
X15381848Y-15594984D01*
X15381848Y-15594984D02*
X15400896Y-15604508D01*
X15400896Y-15604508D02*
X15410420Y-15614031D01*
X15410420Y-15614031D02*
X15419944Y-15633079D01*
X15419944Y-15633079D02*
X15429467Y-15671174D01*
X15429467Y-15671174D02*
X15429467Y-15718793D01*
X15429467Y-15718793D02*
X15419944Y-15756888D01*
X15419944Y-15756888D02*
X15410420Y-15775936D01*
X15410420Y-15775936D02*
X15400896Y-15785460D01*
X15400896Y-15785460D02*
X15381848Y-15794984D01*
X15381848Y-15794984D02*
X15362801Y-15794984D01*
X15362801Y-15794984D02*
X15343753Y-15785460D01*
X15343753Y-15785460D02*
X15334229Y-15775936D01*
X15334229Y-15775936D02*
X15324706Y-15756888D01*
X15324706Y-15756888D02*
X15315182Y-15718793D01*
X15315182Y-15718793D02*
X15315182Y-15671174D01*
X15315182Y-15671174D02*
X15324706Y-15633079D01*
X15324706Y-15633079D02*
X15334229Y-15614031D01*
X15334229Y-15614031D02*
X15343753Y-15604508D01*
X15343753Y-15604508D02*
X15362801Y-15594984D01*
X15553277Y-15594984D02*
X15572325Y-15594984D01*
X15572325Y-15594984D02*
X15591372Y-15604508D01*
X15591372Y-15604508D02*
X15600896Y-15614031D01*
X15600896Y-15614031D02*
X15610420Y-15633079D01*
X15610420Y-15633079D02*
X15619944Y-15671174D01*
X15619944Y-15671174D02*
X15619944Y-15718793D01*
X15619944Y-15718793D02*
X15610420Y-15756888D01*
X15610420Y-15756888D02*
X15600896Y-15775936D01*
X15600896Y-15775936D02*
X15591372Y-15785460D01*
X15591372Y-15785460D02*
X15572325Y-15794984D01*
X15572325Y-15794984D02*
X15553277Y-15794984D01*
X15553277Y-15794984D02*
X15534229Y-15785460D01*
X15534229Y-15785460D02*
X15524706Y-15775936D01*
X15524706Y-15775936D02*
X15515182Y-15756888D01*
X15515182Y-15756888D02*
X15505658Y-15718793D01*
X15505658Y-15718793D02*
X15505658Y-15671174D01*
X15505658Y-15671174D02*
X15515182Y-15633079D01*
X15515182Y-15633079D02*
X15524706Y-15614031D01*
X15524706Y-15614031D02*
X15534229Y-15604508D01*
X15534229Y-15604508D02*
X15553277Y-15594984D01*
X15696134Y-15594984D02*
X15696134Y-15633079D01*
X15772325Y-15594984D02*
X15772325Y-15633079D01*
X16067563Y-15871174D02*
X16058039Y-15861650D01*
X16058039Y-15861650D02*
X16038991Y-15833079D01*
X16038991Y-15833079D02*
X16029468Y-15814031D01*
X16029468Y-15814031D02*
X16019944Y-15785460D01*
X16019944Y-15785460D02*
X16010420Y-15737841D01*
X16010420Y-15737841D02*
X16010420Y-15699746D01*
X16010420Y-15699746D02*
X16019944Y-15652127D01*
X16019944Y-15652127D02*
X16029468Y-15623555D01*
X16029468Y-15623555D02*
X16038991Y-15604508D01*
X16038991Y-15604508D02*
X16058039Y-15575936D01*
X16058039Y-15575936D02*
X16067563Y-15566412D01*
X16229468Y-15661650D02*
X16229468Y-15794984D01*
X16181848Y-15585460D02*
X16134229Y-15728317D01*
X16134229Y-15728317D02*
X16258039Y-15728317D01*
X16486610Y-15794984D02*
X16486610Y-15594984D01*
X16572325Y-15794984D02*
X16572325Y-15690222D01*
X16572325Y-15690222D02*
X16562801Y-15671174D01*
X16562801Y-15671174D02*
X16543753Y-15661650D01*
X16543753Y-15661650D02*
X16515182Y-15661650D01*
X16515182Y-15661650D02*
X16496134Y-15671174D01*
X16496134Y-15671174D02*
X16486610Y-15680698D01*
X16696134Y-15794984D02*
X16677087Y-15785460D01*
X16677087Y-15785460D02*
X16667563Y-15775936D01*
X16667563Y-15775936D02*
X16658039Y-15756888D01*
X16658039Y-15756888D02*
X16658039Y-15699746D01*
X16658039Y-15699746D02*
X16667563Y-15680698D01*
X16667563Y-15680698D02*
X16677087Y-15671174D01*
X16677087Y-15671174D02*
X16696134Y-15661650D01*
X16696134Y-15661650D02*
X16724706Y-15661650D01*
X16724706Y-15661650D02*
X16743753Y-15671174D01*
X16743753Y-15671174D02*
X16753277Y-15680698D01*
X16753277Y-15680698D02*
X16762801Y-15699746D01*
X16762801Y-15699746D02*
X16762801Y-15756888D01*
X16762801Y-15756888D02*
X16753277Y-15775936D01*
X16753277Y-15775936D02*
X16743753Y-15785460D01*
X16743753Y-15785460D02*
X16724706Y-15794984D01*
X16724706Y-15794984D02*
X16696134Y-15794984D01*
X16877087Y-15794984D02*
X16858039Y-15785460D01*
X16858039Y-15785460D02*
X16848515Y-15766412D01*
X16848515Y-15766412D02*
X16848515Y-15594984D01*
X17029468Y-15785460D02*
X17010420Y-15794984D01*
X17010420Y-15794984D02*
X16972325Y-15794984D01*
X16972325Y-15794984D02*
X16953277Y-15785460D01*
X16953277Y-15785460D02*
X16943753Y-15766412D01*
X16943753Y-15766412D02*
X16943753Y-15690222D01*
X16943753Y-15690222D02*
X16953277Y-15671174D01*
X16953277Y-15671174D02*
X16972325Y-15661650D01*
X16972325Y-15661650D02*
X17010420Y-15661650D01*
X17010420Y-15661650D02*
X17029468Y-15671174D01*
X17029468Y-15671174D02*
X17038992Y-15690222D01*
X17038992Y-15690222D02*
X17038992Y-15709269D01*
X17038992Y-15709269D02*
X16943753Y-15728317D01*
X17115182Y-15785460D02*
X17134230Y-15794984D01*
X17134230Y-15794984D02*
X17172325Y-15794984D01*
X17172325Y-15794984D02*
X17191373Y-15785460D01*
X17191373Y-15785460D02*
X17200896Y-15766412D01*
X17200896Y-15766412D02*
X17200896Y-15756888D01*
X17200896Y-15756888D02*
X17191373Y-15737841D01*
X17191373Y-15737841D02*
X17172325Y-15728317D01*
X17172325Y-15728317D02*
X17143753Y-15728317D01*
X17143753Y-15728317D02*
X17124706Y-15718793D01*
X17124706Y-15718793D02*
X17115182Y-15699746D01*
X17115182Y-15699746D02*
X17115182Y-15690222D01*
X17115182Y-15690222D02*
X17124706Y-15671174D01*
X17124706Y-15671174D02*
X17143753Y-15661650D01*
X17143753Y-15661650D02*
X17172325Y-15661650D01*
X17172325Y-15661650D02*
X17191373Y-15671174D01*
X17267563Y-15871174D02*
X17277087Y-15861650D01*
X17277087Y-15861650D02*
X17296134Y-15833079D01*
X17296134Y-15833079D02*
X17305658Y-15814031D01*
X17305658Y-15814031D02*
X17315182Y-15785460D01*
X17315182Y-15785460D02*
X17324706Y-15737841D01*
X17324706Y-15737841D02*
X17324706Y-15699746D01*
X17324706Y-15699746D02*
X17315182Y-15652127D01*
X17315182Y-15652127D02*
X17305658Y-15623555D01*
X17305658Y-15623555D02*
X17296134Y-15604508D01*
X17296134Y-15604508D02*
X17277087Y-15575936D01*
X17277087Y-15575936D02*
X17267563Y-15566412D01*
M02*
