G04 #@! TF.GenerationSoftware,KiCad,Pcbnew,8.0.6*
G04 #@! TF.CreationDate,2024-12-29T09:41:19-05:00*
G04 #@! TF.ProjectId,Beagley-ai-3CAN,42656167-6c65-4792-9d61-692d3343414e,rev?*
G04 #@! TF.SameCoordinates,Original*
G04 #@! TF.FileFunction,Soldermask,Bot*
G04 #@! TF.FilePolarity,Negative*
%FSLAX46Y46*%
G04 Gerber Fmt 4.6, Leading zero omitted, Abs format (unit mm)*
G04 Created by KiCad (PCBNEW 8.0.6) date 2024-12-29 09:41:19*
%MOMM*%
%LPD*%
G01*
G04 APERTURE LIST*
%ADD10R,1.700000X1.700000*%
%ADD11O,1.700000X1.700000*%
%ADD12R,1.350000X1.350000*%
%ADD13O,1.350000X1.350000*%
%ADD14C,1.625600*%
%ADD15C,5.181600*%
G04 APERTURE END LIST*
D10*
X134040000Y-89320000D03*
D11*
X136580000Y-89320000D03*
X134040000Y-86780000D03*
X136580000Y-86780000D03*
X134040000Y-84240000D03*
X136580000Y-84240000D03*
X134040000Y-81700000D03*
X136580000Y-81700000D03*
X134040000Y-79160000D03*
X136580000Y-79160000D03*
X134040000Y-76620000D03*
X136580000Y-76620000D03*
X134040000Y-74080000D03*
X136580000Y-74080000D03*
X134040000Y-71540000D03*
X136580000Y-71540000D03*
X134040000Y-69000000D03*
X136580000Y-69000000D03*
X134040000Y-66460000D03*
X136580000Y-66460000D03*
X134040000Y-63920000D03*
X136580000Y-63920000D03*
D10*
X134040000Y-126320000D03*
D11*
X136580000Y-126320000D03*
X134040000Y-123780000D03*
X136580000Y-123780000D03*
X134040000Y-121240000D03*
X136580000Y-121240000D03*
X134040000Y-118700000D03*
X136580000Y-118700000D03*
X134040000Y-116160000D03*
X136580000Y-116160000D03*
X134040000Y-113620000D03*
X136580000Y-113620000D03*
X134040000Y-111080000D03*
X136580000Y-111080000D03*
X134040000Y-108540000D03*
X136580000Y-108540000D03*
X134040000Y-106000000D03*
X136580000Y-106000000D03*
X134040000Y-103460000D03*
X136580000Y-103460000D03*
X134040000Y-100920000D03*
X136580000Y-100920000D03*
D10*
X163000000Y-82000000D03*
D11*
X163000000Y-84540000D03*
D12*
X146200000Y-104900000D03*
D13*
X146200000Y-102900000D03*
X146200000Y-100900000D03*
X146200000Y-98900000D03*
D14*
X169430000Y-69513600D03*
X169430000Y-72256800D03*
X169430000Y-75000000D03*
X169430000Y-77743200D03*
X169430000Y-80486400D03*
X171970000Y-70885200D03*
X171970000Y-73628400D03*
X171970000Y-76371600D03*
X171970000Y-79114800D03*
D15*
X170700000Y-62477800D03*
X170700000Y-87522200D03*
D14*
X169430000Y-114513600D03*
X169430000Y-117256800D03*
X169430000Y-120000000D03*
X169430000Y-122743200D03*
X169430000Y-125486400D03*
X171970000Y-115885200D03*
X171970000Y-118628400D03*
X171970000Y-121371600D03*
X171970000Y-124114800D03*
D15*
X170700000Y-107477800D03*
X170700000Y-132522200D03*
D10*
X163000000Y-116000000D03*
D11*
X163000000Y-118540000D03*
D10*
X163000000Y-65000000D03*
D11*
X163000000Y-67540000D03*
M02*
