M48
; DRILL file {KiCad 8.0.6} date 2024-12-29T09:41:22-0500
; FORMAT={-:-/ absolute / inch / decimal}
; #@! TF.CreationDate,2024-12-29T09:41:22-05:00
; #@! TF.GenerationSoftware,Kicad,Pcbnew,8.0.6
; #@! TF.FileFunction,Plated,1,2,PTH
FMAT,2
INCH
; #@! TA.AperFunction,Plated,PTH,ViaDrill
T1C0.0157
; #@! TA.AperFunction,Plated,PTH,ComponentDrill
T2C0.0315
; #@! TA.AperFunction,Plated,PTH,ComponentDrill
T3C0.0394
; #@! TA.AperFunction,Plated,PTH,ComponentDrill
T4C0.0400
; #@! TA.AperFunction,Plated,PTH,ComponentDrill
T5C0.1300
%
G90
G05
T1
X5.622Y-2.8165
X5.8268Y-3.4272
X5.8858Y-2.561
X6.0737Y-2.5718
X6.0768Y-3.1024
T2
X5.7559Y-3.8937
X5.7559Y-3.9724
X5.7559Y-4.0512
X5.7559Y-4.1299
T3
X5.2772Y-2.5165
X5.2772Y-2.6165
X5.2772Y-2.7165
X5.2772Y-2.8165
X5.2772Y-2.9165
X5.2772Y-3.0165
X5.2772Y-3.1165
X5.2772Y-3.2165
X5.2772Y-3.3165
X5.2772Y-3.4165
X5.2772Y-3.5165
X5.2772Y-3.9732
X5.2772Y-4.0732
X5.2772Y-4.1732
X5.2772Y-4.2732
X5.2772Y-4.3732
X5.2772Y-4.4732
X5.2772Y-4.5732
X5.2772Y-4.6732
X5.2772Y-4.7732
X5.2772Y-4.8732
X5.2772Y-4.9732
X5.3772Y-2.5165
X5.3772Y-2.6165
X5.3772Y-2.7165
X5.3772Y-2.8165
X5.3772Y-2.9165
X5.3772Y-3.0165
X5.3772Y-3.1165
X5.3772Y-3.2165
X5.3772Y-3.3165
X5.3772Y-3.4165
X5.3772Y-3.5165
X5.3772Y-3.9732
X5.3772Y-4.0732
X5.3772Y-4.1732
X5.3772Y-4.2732
X5.3772Y-4.3732
X5.3772Y-4.4732
X5.3772Y-4.5732
X5.3772Y-4.6732
X5.3772Y-4.7732
X5.3772Y-4.8732
X5.3772Y-4.9732
X6.4173Y-2.5591
X6.4173Y-2.6591
X6.4173Y-3.2283
X6.4173Y-3.3283
X6.4173Y-4.5669
X6.4173Y-4.6669
T4
X6.6705Y-2.7368
X6.6705Y-2.8448
X6.6705Y-2.9528
X6.6705Y-3.0608
X6.6705Y-3.1688
X6.6705Y-4.5084
X6.6705Y-4.6164
X6.6705Y-4.7244
X6.6705Y-4.8324
X6.6705Y-4.9404
X6.7705Y-2.7908
X6.7705Y-2.8988
X6.7705Y-3.0068
X6.7705Y-3.1148
X6.7705Y-4.5624
X6.7705Y-4.6704
X6.7705Y-4.7784
X6.7705Y-4.8864
T5
X6.7205Y-2.4598
X6.7205Y-3.4458
X6.7205Y-4.2314
X6.7205Y-5.2174
M30
