G04 #@! TF.GenerationSoftware,KiCad,Pcbnew,8.0.6*
G04 #@! TF.CreationDate,2024-12-29T09:41:19-05:00*
G04 #@! TF.ProjectId,Beagley-ai-3CAN,42656167-6c65-4792-9d61-692d3343414e,rev?*
G04 #@! TF.SameCoordinates,Original*
G04 #@! TF.FileFunction,Copper,L2,Bot*
G04 #@! TF.FilePolarity,Positive*
%FSLAX46Y46*%
G04 Gerber Fmt 4.6, Leading zero omitted, Abs format (unit mm)*
G04 Created by KiCad (PCBNEW 8.0.6) date 2024-12-29 09:41:19*
%MOMM*%
%LPD*%
G01*
G04 APERTURE LIST*
%ADD10C,0.300000*%
G04 #@! TA.AperFunction,NonConductor*
%ADD11C,0.300000*%
G04 #@! TD*
G04 #@! TA.AperFunction,ComponentPad*
%ADD12R,1.700000X1.700000*%
G04 #@! TD*
G04 #@! TA.AperFunction,ComponentPad*
%ADD13O,1.700000X1.700000*%
G04 #@! TD*
G04 #@! TA.AperFunction,ComponentPad*
%ADD14R,1.350000X1.350000*%
G04 #@! TD*
G04 #@! TA.AperFunction,ComponentPad*
%ADD15O,1.350000X1.350000*%
G04 #@! TD*
G04 #@! TA.AperFunction,ComponentPad*
%ADD16C,1.524000*%
G04 #@! TD*
G04 #@! TA.AperFunction,ComponentPad*
%ADD17C,5.080000*%
G04 #@! TD*
G04 #@! TA.AperFunction,ViaPad*
%ADD18C,0.800000*%
G04 #@! TD*
G04 #@! TA.AperFunction,Conductor*
%ADD19C,0.250000*%
G04 #@! TD*
G04 APERTURE END LIST*
D10*
D11*
X165221427Y-98421185D02*
X165149999Y-98349757D01*
X165149999Y-98349757D02*
X165007142Y-98278328D01*
X165007142Y-98278328D02*
X164649999Y-98278328D01*
X164649999Y-98278328D02*
X164507142Y-98349757D01*
X164507142Y-98349757D02*
X164435713Y-98421185D01*
X164435713Y-98421185D02*
X164364284Y-98564042D01*
X164364284Y-98564042D02*
X164364284Y-98706900D01*
X164364284Y-98706900D02*
X164435713Y-98921185D01*
X164435713Y-98921185D02*
X165292856Y-99778328D01*
X165292856Y-99778328D02*
X164364284Y-99778328D01*
X163435713Y-98278328D02*
X163292856Y-98278328D01*
X163292856Y-98278328D02*
X163149999Y-98349757D01*
X163149999Y-98349757D02*
X163078571Y-98421185D01*
X163078571Y-98421185D02*
X163007142Y-98564042D01*
X163007142Y-98564042D02*
X162935713Y-98849757D01*
X162935713Y-98849757D02*
X162935713Y-99206900D01*
X162935713Y-99206900D02*
X163007142Y-99492614D01*
X163007142Y-99492614D02*
X163078571Y-99635471D01*
X163078571Y-99635471D02*
X163149999Y-99706900D01*
X163149999Y-99706900D02*
X163292856Y-99778328D01*
X163292856Y-99778328D02*
X163435713Y-99778328D01*
X163435713Y-99778328D02*
X163578571Y-99706900D01*
X163578571Y-99706900D02*
X163649999Y-99635471D01*
X163649999Y-99635471D02*
X163721428Y-99492614D01*
X163721428Y-99492614D02*
X163792856Y-99206900D01*
X163792856Y-99206900D02*
X163792856Y-98849757D01*
X163792856Y-98849757D02*
X163721428Y-98564042D01*
X163721428Y-98564042D02*
X163649999Y-98421185D01*
X163649999Y-98421185D02*
X163578571Y-98349757D01*
X163578571Y-98349757D02*
X163435713Y-98278328D01*
X162364285Y-98421185D02*
X162292857Y-98349757D01*
X162292857Y-98349757D02*
X162150000Y-98278328D01*
X162150000Y-98278328D02*
X161792857Y-98278328D01*
X161792857Y-98278328D02*
X161650000Y-98349757D01*
X161650000Y-98349757D02*
X161578571Y-98421185D01*
X161578571Y-98421185D02*
X161507142Y-98564042D01*
X161507142Y-98564042D02*
X161507142Y-98706900D01*
X161507142Y-98706900D02*
X161578571Y-98921185D01*
X161578571Y-98921185D02*
X162435714Y-99778328D01*
X162435714Y-99778328D02*
X161507142Y-99778328D01*
X160150000Y-98278328D02*
X160864286Y-98278328D01*
X160864286Y-98278328D02*
X160935714Y-98992614D01*
X160935714Y-98992614D02*
X160864286Y-98921185D01*
X160864286Y-98921185D02*
X160721429Y-98849757D01*
X160721429Y-98849757D02*
X160364286Y-98849757D01*
X160364286Y-98849757D02*
X160221429Y-98921185D01*
X160221429Y-98921185D02*
X160150000Y-98992614D01*
X160150000Y-98992614D02*
X160078571Y-99135471D01*
X160078571Y-99135471D02*
X160078571Y-99492614D01*
X160078571Y-99492614D02*
X160150000Y-99635471D01*
X160150000Y-99635471D02*
X160221429Y-99706900D01*
X160221429Y-99706900D02*
X160364286Y-99778328D01*
X160364286Y-99778328D02*
X160721429Y-99778328D01*
X160721429Y-99778328D02*
X160864286Y-99706900D01*
X160864286Y-99706900D02*
X160935714Y-99635471D01*
D10*
D11*
X167971428Y-96478328D02*
X167971428Y-94978328D01*
X167971428Y-94978328D02*
X167471428Y-96049757D01*
X167471428Y-96049757D02*
X166971428Y-94978328D01*
X166971428Y-94978328D02*
X166971428Y-96478328D01*
X166257142Y-96478328D02*
X166257142Y-95478328D01*
X166257142Y-94978328D02*
X166328570Y-95049757D01*
X166328570Y-95049757D02*
X166257142Y-95121185D01*
X166257142Y-95121185D02*
X166185713Y-95049757D01*
X166185713Y-95049757D02*
X166257142Y-94978328D01*
X166257142Y-94978328D02*
X166257142Y-95121185D01*
X164899999Y-96406900D02*
X165042856Y-96478328D01*
X165042856Y-96478328D02*
X165328570Y-96478328D01*
X165328570Y-96478328D02*
X165471427Y-96406900D01*
X165471427Y-96406900D02*
X165542856Y-96335471D01*
X165542856Y-96335471D02*
X165614284Y-96192614D01*
X165614284Y-96192614D02*
X165614284Y-95764042D01*
X165614284Y-95764042D02*
X165542856Y-95621185D01*
X165542856Y-95621185D02*
X165471427Y-95549757D01*
X165471427Y-95549757D02*
X165328570Y-95478328D01*
X165328570Y-95478328D02*
X165042856Y-95478328D01*
X165042856Y-95478328D02*
X164899999Y-95549757D01*
X164257142Y-96478328D02*
X164257142Y-94978328D01*
X163614285Y-96478328D02*
X163614285Y-95692614D01*
X163614285Y-95692614D02*
X163685713Y-95549757D01*
X163685713Y-95549757D02*
X163828570Y-95478328D01*
X163828570Y-95478328D02*
X164042856Y-95478328D01*
X164042856Y-95478328D02*
X164185713Y-95549757D01*
X164185713Y-95549757D02*
X164257142Y-95621185D01*
X162328570Y-96406900D02*
X162471427Y-96478328D01*
X162471427Y-96478328D02*
X162757142Y-96478328D01*
X162757142Y-96478328D02*
X162899999Y-96406900D01*
X162899999Y-96406900D02*
X162971427Y-96264042D01*
X162971427Y-96264042D02*
X162971427Y-95692614D01*
X162971427Y-95692614D02*
X162899999Y-95549757D01*
X162899999Y-95549757D02*
X162757142Y-95478328D01*
X162757142Y-95478328D02*
X162471427Y-95478328D01*
X162471427Y-95478328D02*
X162328570Y-95549757D01*
X162328570Y-95549757D02*
X162257142Y-95692614D01*
X162257142Y-95692614D02*
X162257142Y-95835471D01*
X162257142Y-95835471D02*
X162971427Y-95978328D01*
X161399999Y-96478328D02*
X161542856Y-96406900D01*
X161542856Y-96406900D02*
X161614285Y-96264042D01*
X161614285Y-96264042D02*
X161614285Y-94978328D01*
X158828571Y-96335471D02*
X158899999Y-96406900D01*
X158899999Y-96406900D02*
X159114285Y-96478328D01*
X159114285Y-96478328D02*
X159257142Y-96478328D01*
X159257142Y-96478328D02*
X159471428Y-96406900D01*
X159471428Y-96406900D02*
X159614285Y-96264042D01*
X159614285Y-96264042D02*
X159685714Y-96121185D01*
X159685714Y-96121185D02*
X159757142Y-95835471D01*
X159757142Y-95835471D02*
X159757142Y-95621185D01*
X159757142Y-95621185D02*
X159685714Y-95335471D01*
X159685714Y-95335471D02*
X159614285Y-95192614D01*
X159614285Y-95192614D02*
X159471428Y-95049757D01*
X159471428Y-95049757D02*
X159257142Y-94978328D01*
X159257142Y-94978328D02*
X159114285Y-94978328D01*
X159114285Y-94978328D02*
X158899999Y-95049757D01*
X158899999Y-95049757D02*
X158828571Y-95121185D01*
X157542857Y-96478328D02*
X157542857Y-95692614D01*
X157542857Y-95692614D02*
X157614285Y-95549757D01*
X157614285Y-95549757D02*
X157757142Y-95478328D01*
X157757142Y-95478328D02*
X158042857Y-95478328D01*
X158042857Y-95478328D02*
X158185714Y-95549757D01*
X157542857Y-96406900D02*
X157685714Y-96478328D01*
X157685714Y-96478328D02*
X158042857Y-96478328D01*
X158042857Y-96478328D02*
X158185714Y-96406900D01*
X158185714Y-96406900D02*
X158257142Y-96264042D01*
X158257142Y-96264042D02*
X158257142Y-96121185D01*
X158257142Y-96121185D02*
X158185714Y-95978328D01*
X158185714Y-95978328D02*
X158042857Y-95906900D01*
X158042857Y-95906900D02*
X157685714Y-95906900D01*
X157685714Y-95906900D02*
X157542857Y-95835471D01*
X157042856Y-95478328D02*
X156471428Y-95478328D01*
X156828571Y-94978328D02*
X156828571Y-96264042D01*
X156828571Y-96264042D02*
X156757142Y-96406900D01*
X156757142Y-96406900D02*
X156614285Y-96478328D01*
X156614285Y-96478328D02*
X156471428Y-96478328D01*
X155328571Y-95478328D02*
X155328571Y-96478328D01*
X155971428Y-95478328D02*
X155971428Y-96264042D01*
X155971428Y-96264042D02*
X155899999Y-96406900D01*
X155899999Y-96406900D02*
X155757142Y-96478328D01*
X155757142Y-96478328D02*
X155542856Y-96478328D01*
X155542856Y-96478328D02*
X155399999Y-96406900D01*
X155399999Y-96406900D02*
X155328571Y-96335471D01*
X153971428Y-96478328D02*
X153971428Y-94978328D01*
X153971428Y-96406900D02*
X154114285Y-96478328D01*
X154114285Y-96478328D02*
X154399999Y-96478328D01*
X154399999Y-96478328D02*
X154542856Y-96406900D01*
X154542856Y-96406900D02*
X154614285Y-96335471D01*
X154614285Y-96335471D02*
X154685713Y-96192614D01*
X154685713Y-96192614D02*
X154685713Y-95764042D01*
X154685713Y-95764042D02*
X154614285Y-95621185D01*
X154614285Y-95621185D02*
X154542856Y-95549757D01*
X154542856Y-95549757D02*
X154399999Y-95478328D01*
X154399999Y-95478328D02*
X154114285Y-95478328D01*
X154114285Y-95478328D02*
X153971428Y-95549757D01*
X152614285Y-96478328D02*
X152614285Y-95692614D01*
X152614285Y-95692614D02*
X152685713Y-95549757D01*
X152685713Y-95549757D02*
X152828570Y-95478328D01*
X152828570Y-95478328D02*
X153114285Y-95478328D01*
X153114285Y-95478328D02*
X153257142Y-95549757D01*
X152614285Y-96406900D02*
X152757142Y-96478328D01*
X152757142Y-96478328D02*
X153114285Y-96478328D01*
X153114285Y-96478328D02*
X153257142Y-96406900D01*
X153257142Y-96406900D02*
X153328570Y-96264042D01*
X153328570Y-96264042D02*
X153328570Y-96121185D01*
X153328570Y-96121185D02*
X153257142Y-95978328D01*
X153257142Y-95978328D02*
X153114285Y-95906900D01*
X153114285Y-95906900D02*
X152757142Y-95906900D01*
X152757142Y-95906900D02*
X152614285Y-95835471D01*
X151685713Y-96478328D02*
X151828570Y-96406900D01*
X151828570Y-96406900D02*
X151899999Y-96264042D01*
X151899999Y-96264042D02*
X151899999Y-94978328D01*
D12*
X134040000Y-89320000D03*
D13*
X136580000Y-89320000D03*
X134040000Y-86780000D03*
X136580000Y-86780000D03*
X134040000Y-84240000D03*
X136580000Y-84240000D03*
X134040000Y-81700000D03*
X136580000Y-81700000D03*
X134040000Y-79160000D03*
X136580000Y-79160000D03*
X134040000Y-76620000D03*
X136580000Y-76620000D03*
X134040000Y-74080000D03*
X136580000Y-74080000D03*
X134040000Y-71540000D03*
X136580000Y-71540000D03*
X134040000Y-69000000D03*
X136580000Y-69000000D03*
X134040000Y-66460000D03*
X136580000Y-66460000D03*
X134040000Y-63920000D03*
X136580000Y-63920000D03*
D12*
X134040000Y-126320000D03*
D13*
X136580000Y-126320000D03*
X134040000Y-123780000D03*
X136580000Y-123780000D03*
X134040000Y-121240000D03*
X136580000Y-121240000D03*
X134040000Y-118700000D03*
X136580000Y-118700000D03*
X134040000Y-116160000D03*
X136580000Y-116160000D03*
X134040000Y-113620000D03*
X136580000Y-113620000D03*
X134040000Y-111080000D03*
X136580000Y-111080000D03*
X134040000Y-108540000D03*
X136580000Y-108540000D03*
X134040000Y-106000000D03*
X136580000Y-106000000D03*
X134040000Y-103460000D03*
X136580000Y-103460000D03*
X134040000Y-100920000D03*
X136580000Y-100920000D03*
D12*
X163000000Y-82000000D03*
D13*
X163000000Y-84540000D03*
D14*
X146200000Y-104900000D03*
D15*
X146200000Y-102900000D03*
X146200000Y-100900000D03*
X146200000Y-98900000D03*
D16*
X169430000Y-69513600D03*
X169430000Y-72256800D03*
X169430000Y-75000000D03*
X169430000Y-77743200D03*
X169430000Y-80486400D03*
X171970000Y-70885200D03*
X171970000Y-73628400D03*
X171970000Y-76371600D03*
X171970000Y-79114800D03*
D17*
X170700000Y-62477800D03*
X170700000Y-87522200D03*
D16*
X169430000Y-114513600D03*
X169430000Y-117256800D03*
X169430000Y-120000000D03*
X169430000Y-122743200D03*
X169430000Y-125486400D03*
X171970000Y-115885200D03*
X171970000Y-118628400D03*
X171970000Y-121371600D03*
X171970000Y-124114800D03*
D17*
X170700000Y-107477800D03*
X170700000Y-132522200D03*
D12*
X163000000Y-116000000D03*
D13*
X163000000Y-118540000D03*
D12*
X163000000Y-65000000D03*
D13*
X163000000Y-67540000D03*
D18*
X154272500Y-65322500D03*
X142800000Y-71540000D03*
X149500000Y-65050000D03*
X148000000Y-87050000D03*
X154350000Y-78800000D03*
D19*
X170700000Y-76270000D02*
X170700000Y-87522200D01*
X135215000Y-70175000D02*
X136580000Y-71540000D01*
X134040000Y-66460000D02*
X135215000Y-67635000D01*
X169430000Y-75000000D02*
X169430000Y-73922370D01*
X142800000Y-71540000D02*
X136580000Y-71540000D01*
X171970000Y-71382370D02*
X171970000Y-70885200D01*
X149500000Y-65050000D02*
X154000000Y-65050000D01*
X134040000Y-74080000D02*
X136580000Y-71540000D01*
X135215000Y-67635000D02*
X135215000Y-70175000D01*
X169430000Y-73922370D02*
X171970000Y-71382370D01*
X154000000Y-65050000D02*
X154272500Y-65322500D01*
X169430000Y-75000000D02*
X170700000Y-76270000D01*
X145550000Y-87000000D02*
X145750000Y-87000000D01*
X136580000Y-63920000D02*
X145200000Y-72540000D01*
X145200000Y-72540000D02*
X145200000Y-86650000D01*
X145750000Y-87000000D02*
X145800000Y-87050000D01*
X145800000Y-87050000D02*
X148000000Y-87050000D01*
X148000000Y-87050000D02*
X148050000Y-87100000D01*
X145200000Y-86650000D02*
X145550000Y-87000000D01*
X148050000Y-87100000D02*
X148050000Y-103050000D01*
X148050000Y-103050000D02*
X146200000Y-104900000D01*
X160893200Y-72256800D02*
X169430000Y-72256800D01*
X154350000Y-78800000D02*
X160893200Y-72256800D01*
G04 #@! TA.AperFunction,Conductor*
G36*
X135393524Y-72215212D02*
G01*
X135415782Y-72240898D01*
X135504674Y-72376958D01*
X135657097Y-72542534D01*
X135834698Y-72680767D01*
X135834704Y-72680771D01*
X135868207Y-72698902D01*
X135918597Y-72748915D01*
X135933949Y-72818232D01*
X135909388Y-72884845D01*
X135868207Y-72920528D01*
X135834430Y-72938807D01*
X135834424Y-72938811D01*
X135656762Y-73077091D01*
X135504279Y-73242729D01*
X135415183Y-73379101D01*
X135361179Y-73425189D01*
X135290831Y-73434764D01*
X135226474Y-73404786D01*
X135204217Y-73379100D01*
X135115327Y-73243044D01*
X134962902Y-73077465D01*
X134785301Y-72939232D01*
X134785300Y-72939231D01*
X134751791Y-72921097D01*
X134701401Y-72871083D01*
X134686050Y-72801766D01*
X134710612Y-72735153D01*
X134751790Y-72699472D01*
X134785576Y-72681189D01*
X134963240Y-72542906D01*
X135115722Y-72377268D01*
X135204816Y-72240898D01*
X135258819Y-72194810D01*
X135329167Y-72185235D01*
X135393524Y-72215212D01*
G37*
G04 #@! TD.AperFunction*
G04 #@! TA.AperFunction,Conductor*
G36*
X135393225Y-69675669D02*
G01*
X135415480Y-69701353D01*
X135437502Y-69735060D01*
X135504275Y-69837265D01*
X135504279Y-69837270D01*
X135656762Y-70002908D01*
X135711331Y-70045381D01*
X135834424Y-70141189D01*
X135868205Y-70159470D01*
X135918596Y-70209482D01*
X135933949Y-70278799D01*
X135909389Y-70345412D01*
X135868209Y-70381096D01*
X135834704Y-70399228D01*
X135834698Y-70399232D01*
X135657097Y-70537465D01*
X135504670Y-70703045D01*
X135415780Y-70839101D01*
X135361776Y-70885189D01*
X135291428Y-70894764D01*
X135227071Y-70864786D01*
X135204816Y-70839101D01*
X135155419Y-70763493D01*
X135115724Y-70702734D01*
X135115720Y-70702729D01*
X134996552Y-70573280D01*
X134963240Y-70537094D01*
X134963239Y-70537093D01*
X134963237Y-70537091D01*
X134802288Y-70411819D01*
X134785576Y-70398811D01*
X134752319Y-70380813D01*
X134701929Y-70330802D01*
X134686576Y-70261485D01*
X134711136Y-70194872D01*
X134752320Y-70159186D01*
X134785576Y-70141189D01*
X134963240Y-70002906D01*
X135115722Y-69837268D01*
X135204518Y-69701354D01*
X135258520Y-69655268D01*
X135328868Y-69645692D01*
X135393225Y-69675669D01*
G37*
G04 #@! TD.AperFunction*
G04 #@! TA.AperFunction,Conductor*
G36*
X135392925Y-67135212D02*
G01*
X135415183Y-67160898D01*
X135504279Y-67297270D01*
X135656762Y-67462908D01*
X135711331Y-67505381D01*
X135834424Y-67601189D01*
X135867153Y-67618901D01*
X135867680Y-67619186D01*
X135918071Y-67669200D01*
X135933423Y-67738516D01*
X135908862Y-67805129D01*
X135867680Y-67840813D01*
X135834426Y-67858810D01*
X135834424Y-67858811D01*
X135656762Y-67997091D01*
X135504279Y-68162729D01*
X135415483Y-68298643D01*
X135361479Y-68344731D01*
X135291131Y-68354306D01*
X135226774Y-68324329D01*
X135204517Y-68298643D01*
X135115720Y-68162729D01*
X134963237Y-67997091D01*
X134881382Y-67933381D01*
X134785576Y-67858811D01*
X134751792Y-67840528D01*
X134701402Y-67790516D01*
X134686050Y-67721199D01*
X134710610Y-67654586D01*
X134751793Y-67618901D01*
X134785300Y-67600767D01*
X134785301Y-67600767D01*
X134962902Y-67462534D01*
X135115327Y-67296955D01*
X135204217Y-67160899D01*
X135258220Y-67114810D01*
X135328568Y-67105235D01*
X135392925Y-67135212D01*
G37*
G04 #@! TD.AperFunction*
G04 #@! TA.AperFunction,Conductor*
G36*
X179866621Y-50095502D02*
G01*
X179913114Y-50149158D01*
X179924500Y-50201500D01*
X179924500Y-139798500D01*
X179904498Y-139866621D01*
X179850842Y-139913114D01*
X179798500Y-139924500D01*
X125201500Y-139924500D01*
X125133379Y-139904498D01*
X125086886Y-139850842D01*
X125075500Y-139798500D01*
X125075500Y-132522200D01*
X167647197Y-132522200D01*
X167666391Y-132864002D01*
X167723735Y-133201506D01*
X167818511Y-133530481D01*
X167949519Y-133846760D01*
X167949522Y-133846765D01*
X168115115Y-134146385D01*
X168313215Y-134425581D01*
X168313231Y-134425601D01*
X168371823Y-134491166D01*
X169366856Y-133496133D01*
X169440688Y-133597754D01*
X169624446Y-133781512D01*
X169726065Y-133855342D01*
X168731032Y-134850375D01*
X168796598Y-134908968D01*
X168796618Y-134908984D01*
X169075814Y-135107084D01*
X169375434Y-135272677D01*
X169375439Y-135272680D01*
X169691718Y-135403688D01*
X170020693Y-135498464D01*
X170358197Y-135555808D01*
X170700000Y-135575002D01*
X171041802Y-135555808D01*
X171379306Y-135498464D01*
X171708281Y-135403688D01*
X172024560Y-135272680D01*
X172024565Y-135272677D01*
X172324185Y-135107084D01*
X172603385Y-134908981D01*
X172603387Y-134908980D01*
X172668965Y-134850375D01*
X171673933Y-133855343D01*
X171775554Y-133781512D01*
X171959312Y-133597754D01*
X172033143Y-133496133D01*
X173028175Y-134491165D01*
X173086780Y-134425587D01*
X173086781Y-134425585D01*
X173284884Y-134146385D01*
X173450477Y-133846765D01*
X173450480Y-133846760D01*
X173581488Y-133530481D01*
X173676264Y-133201506D01*
X173733608Y-132864002D01*
X173752802Y-132522200D01*
X173733608Y-132180397D01*
X173676264Y-131842893D01*
X173581488Y-131513918D01*
X173450480Y-131197639D01*
X173450477Y-131197634D01*
X173284884Y-130898014D01*
X173086784Y-130618818D01*
X173086768Y-130618798D01*
X173028175Y-130553232D01*
X172033142Y-131548264D01*
X171959312Y-131446646D01*
X171775554Y-131262888D01*
X171673933Y-131189056D01*
X172668966Y-130194023D01*
X172603401Y-130135431D01*
X172603381Y-130135415D01*
X172324185Y-129937315D01*
X172024565Y-129771722D01*
X172024560Y-129771719D01*
X171708281Y-129640711D01*
X171379306Y-129545935D01*
X171041802Y-129488591D01*
X170700000Y-129469397D01*
X170358197Y-129488591D01*
X170020693Y-129545935D01*
X169691718Y-129640711D01*
X169375439Y-129771719D01*
X169375434Y-129771722D01*
X169075819Y-129937313D01*
X168796605Y-130135426D01*
X168731032Y-130194023D01*
X169726065Y-131189056D01*
X169624446Y-131262888D01*
X169440688Y-131446646D01*
X169366856Y-131548265D01*
X168371823Y-130553232D01*
X168313226Y-130618805D01*
X168115113Y-130898019D01*
X167949522Y-131197634D01*
X167949519Y-131197639D01*
X167818511Y-131513918D01*
X167723735Y-131842893D01*
X167666391Y-132180397D01*
X167647197Y-132522200D01*
X125075500Y-132522200D01*
X125075500Y-100920000D01*
X132676844Y-100920000D01*
X132695437Y-101144375D01*
X132750702Y-101362612D01*
X132750703Y-101362613D01*
X132750704Y-101362616D01*
X132815643Y-101510663D01*
X132841141Y-101568793D01*
X132964275Y-101757265D01*
X132964279Y-101757270D01*
X133116762Y-101922908D01*
X133153498Y-101951501D01*
X133294424Y-102061189D01*
X133328205Y-102079470D01*
X133378596Y-102129482D01*
X133393949Y-102198799D01*
X133369389Y-102265412D01*
X133328209Y-102301096D01*
X133294704Y-102319228D01*
X133294698Y-102319232D01*
X133117097Y-102457465D01*
X132964674Y-102623041D01*
X132841580Y-102811451D01*
X132751179Y-103017543D01*
X132751176Y-103017550D01*
X132703455Y-103205999D01*
X132703456Y-103206000D01*
X133609297Y-103206000D01*
X133574075Y-103267007D01*
X133540000Y-103394174D01*
X133540000Y-103525826D01*
X133574075Y-103652993D01*
X133609297Y-103714000D01*
X132703455Y-103714000D01*
X132751176Y-103902449D01*
X132751179Y-103902456D01*
X132841580Y-104108548D01*
X132964674Y-104296958D01*
X133117097Y-104462534D01*
X133294698Y-104600767D01*
X133294704Y-104600771D01*
X133328207Y-104618902D01*
X133378597Y-104668915D01*
X133393949Y-104738232D01*
X133369388Y-104804845D01*
X133328207Y-104840528D01*
X133294430Y-104858807D01*
X133294424Y-104858811D01*
X133116762Y-104997091D01*
X132964279Y-105162729D01*
X132964275Y-105162734D01*
X132841141Y-105351206D01*
X132750703Y-105557386D01*
X132750702Y-105557387D01*
X132695437Y-105775624D01*
X132695436Y-105775630D01*
X132695436Y-105775632D01*
X132681960Y-105938261D01*
X132676844Y-106000000D01*
X132695437Y-106224375D01*
X132750702Y-106442612D01*
X132750703Y-106442613D01*
X132750704Y-106442616D01*
X132770000Y-106486606D01*
X132841141Y-106648793D01*
X132964275Y-106837265D01*
X132964279Y-106837270D01*
X133116762Y-107002908D01*
X133171331Y-107045381D01*
X133294424Y-107141189D01*
X133327680Y-107159186D01*
X133378071Y-107209200D01*
X133393423Y-107278516D01*
X133368862Y-107345129D01*
X133327680Y-107380813D01*
X133294426Y-107398810D01*
X133294424Y-107398811D01*
X133116762Y-107537091D01*
X132964279Y-107702729D01*
X132964275Y-107702734D01*
X132841141Y-107891206D01*
X132750703Y-108097386D01*
X132750702Y-108097387D01*
X132695437Y-108315624D01*
X132695436Y-108315630D01*
X132695436Y-108315632D01*
X132676844Y-108540000D01*
X132693177Y-108737112D01*
X132695437Y-108764375D01*
X132750702Y-108982612D01*
X132750703Y-108982613D01*
X132750704Y-108982616D01*
X132841140Y-109188791D01*
X132841141Y-109188793D01*
X132964275Y-109377265D01*
X132964279Y-109377270D01*
X133116762Y-109542908D01*
X133171331Y-109585381D01*
X133294424Y-109681189D01*
X133328205Y-109699470D01*
X133378596Y-109749482D01*
X133393949Y-109818799D01*
X133369389Y-109885412D01*
X133328209Y-109921096D01*
X133294704Y-109939228D01*
X133294698Y-109939232D01*
X133117097Y-110077465D01*
X132964674Y-110243041D01*
X132841580Y-110431451D01*
X132751179Y-110637543D01*
X132751176Y-110637550D01*
X132703455Y-110825999D01*
X132703456Y-110826000D01*
X133609297Y-110826000D01*
X133574075Y-110887007D01*
X133540000Y-111014174D01*
X133540000Y-111145826D01*
X133574075Y-111272993D01*
X133609297Y-111334000D01*
X132703455Y-111334000D01*
X132751176Y-111522449D01*
X132751179Y-111522456D01*
X132841580Y-111728548D01*
X132964674Y-111916958D01*
X133117097Y-112082534D01*
X133294698Y-112220767D01*
X133294704Y-112220771D01*
X133328207Y-112238902D01*
X133378597Y-112288915D01*
X133393949Y-112358232D01*
X133369388Y-112424845D01*
X133328207Y-112460528D01*
X133294430Y-112478807D01*
X133294424Y-112478811D01*
X133116762Y-112617091D01*
X132964279Y-112782729D01*
X132964275Y-112782734D01*
X132841141Y-112971206D01*
X132750703Y-113177386D01*
X132750702Y-113177387D01*
X132695437Y-113395624D01*
X132676844Y-113620000D01*
X132695437Y-113844375D01*
X132750702Y-114062612D01*
X132750703Y-114062613D01*
X132750704Y-114062616D01*
X132770000Y-114106606D01*
X132841141Y-114268793D01*
X132964275Y-114457265D01*
X132964279Y-114457270D01*
X133116762Y-114622908D01*
X133171331Y-114665381D01*
X133294424Y-114761189D01*
X133327680Y-114779186D01*
X133378071Y-114829200D01*
X133393423Y-114898516D01*
X133368862Y-114965129D01*
X133327680Y-115000813D01*
X133294426Y-115018810D01*
X133294424Y-115018811D01*
X133116762Y-115157091D01*
X132964279Y-115322729D01*
X132964275Y-115322734D01*
X132841141Y-115511206D01*
X132750703Y-115717386D01*
X132750702Y-115717387D01*
X132695437Y-115935624D01*
X132695436Y-115935630D01*
X132695436Y-115935632D01*
X132676844Y-116160000D01*
X132692836Y-116352993D01*
X132695437Y-116384375D01*
X132750702Y-116602612D01*
X132750703Y-116602613D01*
X132750704Y-116602616D01*
X132841140Y-116808791D01*
X132841141Y-116808793D01*
X132964275Y-116997265D01*
X132964279Y-116997270D01*
X133116762Y-117162908D01*
X133171331Y-117205381D01*
X133294424Y-117301189D01*
X133328205Y-117319470D01*
X133378596Y-117369482D01*
X133393949Y-117438799D01*
X133369389Y-117505412D01*
X133328209Y-117541096D01*
X133294704Y-117559228D01*
X133294698Y-117559232D01*
X133117097Y-117697465D01*
X132964674Y-117863041D01*
X132841580Y-118051451D01*
X132751179Y-118257543D01*
X132751176Y-118257550D01*
X132703455Y-118445999D01*
X132703456Y-118446000D01*
X133609297Y-118446000D01*
X133574075Y-118507007D01*
X133540000Y-118634174D01*
X133540000Y-118765826D01*
X133574075Y-118892993D01*
X133609297Y-118954000D01*
X132703455Y-118954000D01*
X132751176Y-119142449D01*
X132751179Y-119142456D01*
X132841580Y-119348548D01*
X132964674Y-119536958D01*
X133117097Y-119702534D01*
X133294698Y-119840767D01*
X133294704Y-119840771D01*
X133328207Y-119858902D01*
X133378597Y-119908915D01*
X133393949Y-119978232D01*
X133369388Y-120044845D01*
X133328207Y-120080528D01*
X133294430Y-120098807D01*
X133294424Y-120098811D01*
X133116762Y-120237091D01*
X132964279Y-120402729D01*
X132964275Y-120402734D01*
X132841141Y-120591206D01*
X132750703Y-120797386D01*
X132750702Y-120797387D01*
X132695437Y-121015624D01*
X132695436Y-121015630D01*
X132695436Y-121015632D01*
X132676844Y-121240000D01*
X132694750Y-121456095D01*
X132695437Y-121464375D01*
X132750702Y-121682612D01*
X132750703Y-121682613D01*
X132841141Y-121888793D01*
X132964275Y-122077265D01*
X132964279Y-122077270D01*
X133116762Y-122242908D01*
X133171331Y-122285381D01*
X133294424Y-122381189D01*
X133327680Y-122399186D01*
X133378071Y-122449200D01*
X133393423Y-122518516D01*
X133368862Y-122585129D01*
X133327680Y-122620813D01*
X133294426Y-122638810D01*
X133294424Y-122638811D01*
X133116762Y-122777091D01*
X132964279Y-122942729D01*
X132964275Y-122942734D01*
X132841141Y-123131206D01*
X132750703Y-123337386D01*
X132750702Y-123337387D01*
X132695437Y-123555624D01*
X132695436Y-123555630D01*
X132695436Y-123555632D01*
X132676844Y-123780000D01*
X132692836Y-123972993D01*
X132695437Y-124004375D01*
X132750702Y-124222612D01*
X132750703Y-124222613D01*
X132750704Y-124222616D01*
X132841140Y-124428791D01*
X132841141Y-124428793D01*
X132964275Y-124617265D01*
X132964279Y-124617270D01*
X133107841Y-124773217D01*
X133139262Y-124836882D01*
X133131276Y-124907428D01*
X133086417Y-124962457D01*
X133059173Y-124976610D01*
X132944039Y-125019553D01*
X132944034Y-125019555D01*
X132827095Y-125107095D01*
X132739555Y-125224034D01*
X132739555Y-125224035D01*
X132688505Y-125360906D01*
X132682000Y-125421402D01*
X132682000Y-126066000D01*
X133609297Y-126066000D01*
X133574075Y-126127007D01*
X133540000Y-126254174D01*
X133540000Y-126385826D01*
X133574075Y-126512993D01*
X133609297Y-126574000D01*
X132682000Y-126574000D01*
X132682000Y-127218597D01*
X132688505Y-127279093D01*
X132739555Y-127415964D01*
X132739555Y-127415965D01*
X132827095Y-127532904D01*
X132944034Y-127620444D01*
X133080906Y-127671494D01*
X133141402Y-127677999D01*
X133141415Y-127678000D01*
X133786000Y-127678000D01*
X133786000Y-126750702D01*
X133847007Y-126785925D01*
X133974174Y-126820000D01*
X134105826Y-126820000D01*
X134232993Y-126785925D01*
X134294000Y-126750702D01*
X134294000Y-127678000D01*
X134938585Y-127678000D01*
X134938597Y-127677999D01*
X134999093Y-127671494D01*
X135135964Y-127620444D01*
X135135965Y-127620444D01*
X135252904Y-127532904D01*
X135340444Y-127415965D01*
X135384618Y-127297530D01*
X135427165Y-127240694D01*
X135493685Y-127215883D01*
X135563059Y-127230974D01*
X135595372Y-127256222D01*
X135616427Y-127279093D01*
X135656762Y-127322908D01*
X135711331Y-127365381D01*
X135834424Y-127461189D01*
X136032426Y-127568342D01*
X136032427Y-127568342D01*
X136032428Y-127568343D01*
X136144227Y-127606723D01*
X136245365Y-127641444D01*
X136467431Y-127678500D01*
X136467435Y-127678500D01*
X136692565Y-127678500D01*
X136692569Y-127678500D01*
X136914635Y-127641444D01*
X137127574Y-127568342D01*
X137325576Y-127461189D01*
X137503240Y-127322906D01*
X137655722Y-127157268D01*
X137778860Y-126968791D01*
X137869296Y-126762616D01*
X137924564Y-126544368D01*
X137943156Y-126320000D01*
X137924564Y-126095632D01*
X137880745Y-125922596D01*
X137869297Y-125877387D01*
X137869296Y-125877386D01*
X137869296Y-125877384D01*
X137778860Y-125671209D01*
X137772140Y-125660924D01*
X137655724Y-125482734D01*
X137655720Y-125482729D01*
X137503237Y-125317091D01*
X137383679Y-125224035D01*
X137325576Y-125178811D01*
X137291792Y-125160528D01*
X137241402Y-125110516D01*
X137226050Y-125041199D01*
X137250610Y-124974586D01*
X137291793Y-124938901D01*
X137325300Y-124920767D01*
X137325301Y-124920767D01*
X137502902Y-124782534D01*
X137655325Y-124616958D01*
X137778419Y-124428548D01*
X137868820Y-124222456D01*
X137868823Y-124222449D01*
X137916544Y-124034000D01*
X137010703Y-124034000D01*
X137045925Y-123972993D01*
X137080000Y-123845826D01*
X137080000Y-123714174D01*
X137045925Y-123587007D01*
X137010703Y-123526000D01*
X137916544Y-123526000D01*
X137916544Y-123525999D01*
X137868823Y-123337550D01*
X137868820Y-123337543D01*
X137778419Y-123131451D01*
X137655325Y-122943041D01*
X137502902Y-122777465D01*
X137325301Y-122639232D01*
X137325300Y-122639231D01*
X137291791Y-122621097D01*
X137241401Y-122571083D01*
X137226050Y-122501766D01*
X137250612Y-122435153D01*
X137291790Y-122399472D01*
X137325576Y-122381189D01*
X137503240Y-122242906D01*
X137655722Y-122077268D01*
X137778860Y-121888791D01*
X137869296Y-121682616D01*
X137924564Y-121464368D01*
X137943156Y-121240000D01*
X137924564Y-121015632D01*
X137904248Y-120935406D01*
X137869297Y-120797387D01*
X137869296Y-120797386D01*
X137869296Y-120797384D01*
X137778860Y-120591209D01*
X137772140Y-120580924D01*
X137655724Y-120402734D01*
X137655720Y-120402729D01*
X137503237Y-120237091D01*
X137354992Y-120121707D01*
X137325576Y-120098811D01*
X137292319Y-120080813D01*
X137241929Y-120030802D01*
X137226576Y-119961485D01*
X137251136Y-119894872D01*
X137292320Y-119859186D01*
X137292847Y-119858901D01*
X137325576Y-119841189D01*
X137503240Y-119702906D01*
X137655722Y-119537268D01*
X137655927Y-119536955D01*
X137744816Y-119400899D01*
X137778860Y-119348791D01*
X137869296Y-119142616D01*
X137924564Y-118924368D01*
X137943156Y-118700000D01*
X137929898Y-118540000D01*
X161636844Y-118540000D01*
X161652837Y-118733006D01*
X161655437Y-118764375D01*
X161710702Y-118982612D01*
X161710703Y-118982613D01*
X161710704Y-118982616D01*
X161780813Y-119142449D01*
X161801141Y-119188793D01*
X161924275Y-119377265D01*
X161924279Y-119377270D01*
X161989560Y-119448183D01*
X162071284Y-119536958D01*
X162076762Y-119542908D01*
X162103825Y-119563972D01*
X162254424Y-119681189D01*
X162452426Y-119788342D01*
X162452427Y-119788342D01*
X162452428Y-119788343D01*
X162497800Y-119803919D01*
X162665365Y-119861444D01*
X162887431Y-119898500D01*
X162887435Y-119898500D01*
X163112565Y-119898500D01*
X163112569Y-119898500D01*
X163334635Y-119861444D01*
X163547574Y-119788342D01*
X163745576Y-119681189D01*
X163923240Y-119542906D01*
X164075722Y-119377268D01*
X164198860Y-119188791D01*
X164289296Y-118982616D01*
X164344564Y-118764368D01*
X164363156Y-118540000D01*
X164344564Y-118315632D01*
X164323837Y-118233783D01*
X164289297Y-118097387D01*
X164289296Y-118097386D01*
X164289296Y-118097384D01*
X164198860Y-117891209D01*
X164180253Y-117862729D01*
X164075724Y-117702734D01*
X164075719Y-117702729D01*
X164066756Y-117692993D01*
X163932524Y-117547179D01*
X163901103Y-117483514D01*
X163909090Y-117412968D01*
X163953948Y-117357939D01*
X163981183Y-117343789D01*
X164096204Y-117300889D01*
X164127188Y-117277695D01*
X164213261Y-117213261D01*
X164300887Y-117096207D01*
X164300887Y-117096206D01*
X164300889Y-117096204D01*
X164351989Y-116959201D01*
X164358500Y-116898638D01*
X164358500Y-115101362D01*
X164358499Y-115101350D01*
X164351990Y-115040803D01*
X164351988Y-115040795D01*
X164318526Y-114951083D01*
X164300889Y-114903796D01*
X164300888Y-114903794D01*
X164300887Y-114903792D01*
X164213261Y-114786738D01*
X164096207Y-114699112D01*
X164096202Y-114699110D01*
X163959204Y-114648011D01*
X163959196Y-114648009D01*
X163898649Y-114641500D01*
X163898638Y-114641500D01*
X162101362Y-114641500D01*
X162101350Y-114641500D01*
X162040803Y-114648009D01*
X162040795Y-114648011D01*
X161903797Y-114699110D01*
X161903792Y-114699112D01*
X161786738Y-114786738D01*
X161699112Y-114903792D01*
X161699110Y-114903797D01*
X161648011Y-115040795D01*
X161648009Y-115040803D01*
X161641500Y-115101350D01*
X161641500Y-116898649D01*
X161648009Y-116959196D01*
X161648011Y-116959204D01*
X161699110Y-117096202D01*
X161699112Y-117096207D01*
X161786738Y-117213261D01*
X161903791Y-117300886D01*
X161903792Y-117300886D01*
X161903796Y-117300889D01*
X162018810Y-117343787D01*
X162075642Y-117386332D01*
X162100453Y-117452852D01*
X162085362Y-117522226D01*
X162067475Y-117547179D01*
X161924280Y-117702729D01*
X161924275Y-117702734D01*
X161801141Y-117891206D01*
X161710703Y-118097386D01*
X161710702Y-118097387D01*
X161655437Y-118315624D01*
X161655436Y-118315630D01*
X161655436Y-118315632D01*
X161636844Y-118540000D01*
X137929898Y-118540000D01*
X137924564Y-118475632D01*
X137895608Y-118361287D01*
X137869297Y-118257387D01*
X137869296Y-118257386D01*
X137869296Y-118257384D01*
X137778860Y-118051209D01*
X137739343Y-117990723D01*
X137655724Y-117862734D01*
X137655720Y-117862729D01*
X137508427Y-117702729D01*
X137503240Y-117697094D01*
X137503239Y-117697093D01*
X137503237Y-117697091D01*
X137421382Y-117633381D01*
X137325576Y-117558811D01*
X137291792Y-117540528D01*
X137241402Y-117490516D01*
X137226050Y-117421199D01*
X137250610Y-117354586D01*
X137291793Y-117318901D01*
X137325300Y-117300767D01*
X137325301Y-117300767D01*
X137502902Y-117162534D01*
X137655325Y-116996958D01*
X137778419Y-116808548D01*
X137868820Y-116602456D01*
X137868823Y-116602449D01*
X137916544Y-116414000D01*
X137010703Y-116414000D01*
X137045925Y-116352993D01*
X137080000Y-116225826D01*
X137080000Y-116094174D01*
X137045925Y-115967007D01*
X137010703Y-115906000D01*
X137916544Y-115906000D01*
X137916544Y-115905999D01*
X137868823Y-115717550D01*
X137868820Y-115717543D01*
X137778419Y-115511451D01*
X137655325Y-115323041D01*
X137502902Y-115157465D01*
X137325301Y-115019232D01*
X137325300Y-115019231D01*
X137291791Y-115001097D01*
X137241401Y-114951083D01*
X137226050Y-114881766D01*
X137250612Y-114815153D01*
X137291790Y-114779472D01*
X137325576Y-114761189D01*
X137503240Y-114622906D01*
X137603864Y-114513600D01*
X168154647Y-114513600D01*
X168174022Y-114735063D01*
X168199322Y-114829482D01*
X168231559Y-114949793D01*
X168231561Y-114949799D01*
X168325511Y-115151275D01*
X168325512Y-115151277D01*
X168453016Y-115333372D01*
X168453020Y-115333377D01*
X168453023Y-115333381D01*
X168610219Y-115490577D01*
X168610223Y-115490580D01*
X168610227Y-115490583D01*
X168714124Y-115563332D01*
X168792323Y-115618088D01*
X168993804Y-115712040D01*
X169185831Y-115763494D01*
X169246453Y-115800445D01*
X169277474Y-115864305D01*
X169269046Y-115934800D01*
X169223843Y-115989547D01*
X169185833Y-116006905D01*
X169092180Y-116032000D01*
X168993806Y-116058359D01*
X168993801Y-116058361D01*
X168792323Y-116152312D01*
X168610222Y-116279820D01*
X168610216Y-116279825D01*
X168453025Y-116437016D01*
X168453020Y-116437022D01*
X168325512Y-116619123D01*
X168231561Y-116820601D01*
X168231559Y-116820606D01*
X168220763Y-116860898D01*
X168174022Y-117035337D01*
X168154647Y-117256800D01*
X168174022Y-117478263D01*
X168195718Y-117559232D01*
X168231559Y-117692993D01*
X168231561Y-117692999D01*
X168325511Y-117894475D01*
X168325512Y-117894477D01*
X168453016Y-118076572D01*
X168453020Y-118076577D01*
X168453023Y-118076581D01*
X168610219Y-118233777D01*
X168610223Y-118233780D01*
X168610227Y-118233783D01*
X168643933Y-118257384D01*
X168792323Y-118361288D01*
X168993804Y-118455240D01*
X169186799Y-118506953D01*
X169247420Y-118543904D01*
X169278441Y-118607764D01*
X169270013Y-118678259D01*
X169224810Y-118733006D01*
X169186797Y-118750366D01*
X168993976Y-118802031D01*
X168993972Y-118802033D01*
X168792575Y-118895946D01*
X168729394Y-118940185D01*
X169298518Y-119509309D01*
X169233919Y-119526619D01*
X169118080Y-119593498D01*
X169023498Y-119688080D01*
X168956619Y-119803919D01*
X168939309Y-119868518D01*
X168370185Y-119299394D01*
X168325946Y-119362575D01*
X168232033Y-119563972D01*
X168232031Y-119563976D01*
X168174517Y-119778625D01*
X168155149Y-120000000D01*
X168174517Y-120221374D01*
X168232031Y-120436023D01*
X168232033Y-120436027D01*
X168325946Y-120637425D01*
X168370184Y-120700603D01*
X168370185Y-120700603D01*
X168939309Y-120131479D01*
X168956619Y-120196081D01*
X169023498Y-120311920D01*
X169118080Y-120406502D01*
X169233919Y-120473381D01*
X169298519Y-120490690D01*
X168729395Y-121059813D01*
X168729395Y-121059814D01*
X168792575Y-121104053D01*
X168792574Y-121104053D01*
X168993972Y-121197966D01*
X168993979Y-121197969D01*
X169186796Y-121249633D01*
X169247419Y-121286584D01*
X169278441Y-121350445D01*
X169270013Y-121420939D01*
X169224811Y-121475686D01*
X169186798Y-121493047D01*
X168993803Y-121544760D01*
X168993801Y-121544761D01*
X168792323Y-121638712D01*
X168610222Y-121766220D01*
X168610216Y-121766225D01*
X168453025Y-121923416D01*
X168453020Y-121923422D01*
X168325512Y-122105523D01*
X168231561Y-122307001D01*
X168231560Y-122307004D01*
X168174022Y-122521737D01*
X168154647Y-122743200D01*
X168174022Y-122964663D01*
X168186254Y-123010312D01*
X168231559Y-123179393D01*
X168231561Y-123179399D01*
X168325511Y-123380875D01*
X168325512Y-123380877D01*
X168453016Y-123562972D01*
X168453020Y-123562977D01*
X168453023Y-123562981D01*
X168610219Y-123720177D01*
X168610223Y-123720180D01*
X168610227Y-123720183D01*
X168695655Y-123780000D01*
X168792323Y-123847688D01*
X168993804Y-123941640D01*
X169185831Y-123993094D01*
X169246453Y-124030045D01*
X169277474Y-124093905D01*
X169269046Y-124164400D01*
X169223843Y-124219147D01*
X169185833Y-124236505D01*
X169075378Y-124266102D01*
X168993806Y-124287959D01*
X168993801Y-124287961D01*
X168792323Y-124381912D01*
X168610222Y-124509420D01*
X168610216Y-124509425D01*
X168453025Y-124666616D01*
X168453020Y-124666622D01*
X168325512Y-124848723D01*
X168231561Y-125050201D01*
X168231559Y-125050206D01*
X168225811Y-125071658D01*
X168174022Y-125264937D01*
X168154647Y-125486400D01*
X168174022Y-125707863D01*
X168213200Y-125854075D01*
X168231559Y-125922593D01*
X168231561Y-125922599D01*
X168325511Y-126124075D01*
X168325512Y-126124077D01*
X168453016Y-126306172D01*
X168453020Y-126306177D01*
X168453023Y-126306181D01*
X168610219Y-126463377D01*
X168610223Y-126463380D01*
X168610227Y-126463383D01*
X168681078Y-126512993D01*
X168792323Y-126590888D01*
X168993804Y-126684840D01*
X169208537Y-126742378D01*
X169430000Y-126761753D01*
X169651463Y-126742378D01*
X169866196Y-126684840D01*
X170067677Y-126590888D01*
X170249781Y-126463377D01*
X170406977Y-126306181D01*
X170534488Y-126124077D01*
X170628440Y-125922596D01*
X170685978Y-125707863D01*
X170705353Y-125486400D01*
X170685978Y-125264937D01*
X170628440Y-125050204D01*
X170534488Y-124848724D01*
X170406977Y-124666619D01*
X170249781Y-124509423D01*
X170249777Y-124509420D01*
X170249772Y-124509416D01*
X170067677Y-124381912D01*
X170067675Y-124381911D01*
X169866199Y-124287961D01*
X169866194Y-124287959D01*
X169800687Y-124270406D01*
X169674166Y-124236505D01*
X169613546Y-124199555D01*
X169582525Y-124135695D01*
X169590953Y-124065200D01*
X169636156Y-124010453D01*
X169674164Y-123993095D01*
X169866196Y-123941640D01*
X170067677Y-123847688D01*
X170249781Y-123720177D01*
X170406977Y-123562981D01*
X170534488Y-123380877D01*
X170628440Y-123179396D01*
X170685978Y-122964663D01*
X170705353Y-122743200D01*
X170685978Y-122521737D01*
X170628440Y-122307004D01*
X170534488Y-122105524D01*
X170406977Y-121923419D01*
X170249781Y-121766223D01*
X170249777Y-121766220D01*
X170249772Y-121766216D01*
X170067677Y-121638712D01*
X170067675Y-121638711D01*
X169866199Y-121544761D01*
X169866196Y-121544760D01*
X169673200Y-121493046D01*
X169612579Y-121456095D01*
X169581557Y-121392234D01*
X169589986Y-121321740D01*
X169635189Y-121266993D01*
X169673203Y-121249633D01*
X169866020Y-121197969D01*
X169866027Y-121197966D01*
X170067425Y-121104053D01*
X170067426Y-121104052D01*
X170130603Y-121059814D01*
X170130603Y-121059812D01*
X169561481Y-120490690D01*
X169626081Y-120473381D01*
X169741920Y-120406502D01*
X169836502Y-120311920D01*
X169903381Y-120196081D01*
X169920690Y-120131481D01*
X170489812Y-120700603D01*
X170489814Y-120700603D01*
X170534052Y-120637426D01*
X170534053Y-120637425D01*
X170627966Y-120436027D01*
X170627968Y-120436023D01*
X170685482Y-120221374D01*
X170704850Y-120000000D01*
X170685482Y-119778625D01*
X170627968Y-119563976D01*
X170627966Y-119563972D01*
X170534051Y-119362571D01*
X170489815Y-119299395D01*
X170489813Y-119299395D01*
X169920690Y-119868518D01*
X169903381Y-119803919D01*
X169836502Y-119688080D01*
X169741920Y-119593498D01*
X169626081Y-119526619D01*
X169561480Y-119509309D01*
X170130603Y-118940185D01*
X170130603Y-118940184D01*
X170067425Y-118895946D01*
X169866027Y-118802033D01*
X169866023Y-118802031D01*
X169673202Y-118750366D01*
X169612579Y-118713414D01*
X169581558Y-118649554D01*
X169589986Y-118579059D01*
X169635189Y-118524312D01*
X169673196Y-118506954D01*
X169866196Y-118455240D01*
X170067677Y-118361288D01*
X170249781Y-118233777D01*
X170406977Y-118076581D01*
X170534488Y-117894477D01*
X170628440Y-117692996D01*
X170685978Y-117478263D01*
X170705353Y-117256800D01*
X170685978Y-117035337D01*
X170628440Y-116820604D01*
X170534488Y-116619124D01*
X170406977Y-116437019D01*
X170249781Y-116279823D01*
X170249777Y-116279820D01*
X170249772Y-116279816D01*
X170067677Y-116152312D01*
X170067675Y-116152311D01*
X169866199Y-116058361D01*
X169866194Y-116058359D01*
X169800687Y-116040806D01*
X169674166Y-116006905D01*
X169613546Y-115969955D01*
X169582525Y-115906095D01*
X169585023Y-115885200D01*
X170694647Y-115885200D01*
X170714022Y-116106663D01*
X170726254Y-116152312D01*
X170771559Y-116321393D01*
X170771561Y-116321399D01*
X170865511Y-116522875D01*
X170865512Y-116522877D01*
X170993016Y-116704972D01*
X170993020Y-116704977D01*
X170993023Y-116704981D01*
X171150219Y-116862177D01*
X171150223Y-116862180D01*
X171150227Y-116862183D01*
X171202306Y-116898649D01*
X171332323Y-116989688D01*
X171533804Y-117083640D01*
X171725831Y-117135094D01*
X171786453Y-117172045D01*
X171817474Y-117235905D01*
X171809046Y-117306400D01*
X171763843Y-117361147D01*
X171725833Y-117378505D01*
X171650053Y-117398811D01*
X171533806Y-117429959D01*
X171533801Y-117429961D01*
X171332323Y-117523912D01*
X171150222Y-117651420D01*
X171150216Y-117651425D01*
X170993025Y-117808616D01*
X170993020Y-117808622D01*
X170865512Y-117990723D01*
X170771561Y-118192201D01*
X170771559Y-118192206D01*
X170754095Y-118257384D01*
X170714022Y-118406937D01*
X170694647Y-118628400D01*
X170714022Y-118849863D01*
X170756129Y-119007007D01*
X170771559Y-119064593D01*
X170771561Y-119064599D01*
X170865511Y-119266075D01*
X170865512Y-119266077D01*
X170993016Y-119448172D01*
X170993020Y-119448177D01*
X170993023Y-119448181D01*
X171150219Y-119605377D01*
X171150223Y-119605380D01*
X171150227Y-119605383D01*
X171200794Y-119640790D01*
X171332323Y-119732888D01*
X171533804Y-119826840D01*
X171725831Y-119878294D01*
X171786453Y-119915245D01*
X171817474Y-119979105D01*
X171809046Y-120049600D01*
X171763843Y-120104347D01*
X171725833Y-120121705D01*
X171615378Y-120151302D01*
X171533806Y-120173159D01*
X171533801Y-120173161D01*
X171332323Y-120267112D01*
X171150222Y-120394620D01*
X171150216Y-120394625D01*
X170993025Y-120551816D01*
X170993020Y-120551822D01*
X170865512Y-120733923D01*
X170771561Y-120935401D01*
X170771560Y-120935404D01*
X170714022Y-121150137D01*
X170694647Y-121371600D01*
X170714022Y-121593063D01*
X170726254Y-121638712D01*
X170771559Y-121807793D01*
X170771561Y-121807799D01*
X170865511Y-122009275D01*
X170865512Y-122009277D01*
X170993016Y-122191372D01*
X170993020Y-122191377D01*
X170993023Y-122191381D01*
X171150219Y-122348577D01*
X171150223Y-122348580D01*
X171150227Y-122348583D01*
X171254124Y-122421332D01*
X171332323Y-122476088D01*
X171533804Y-122570040D01*
X171725831Y-122621494D01*
X171786453Y-122658445D01*
X171817474Y-122722305D01*
X171809046Y-122792800D01*
X171763843Y-122847547D01*
X171725833Y-122864905D01*
X171615378Y-122894502D01*
X171533806Y-122916359D01*
X171533801Y-122916361D01*
X171332323Y-123010312D01*
X171150222Y-123137820D01*
X171150216Y-123137825D01*
X170993025Y-123295016D01*
X170993020Y-123295022D01*
X170865512Y-123477123D01*
X170771561Y-123678601D01*
X170771560Y-123678604D01*
X170714022Y-123893337D01*
X170694647Y-124114800D01*
X170714022Y-124336263D01*
X170760273Y-124508874D01*
X170771559Y-124550993D01*
X170771561Y-124550999D01*
X170865511Y-124752475D01*
X170865512Y-124752477D01*
X170993016Y-124934572D01*
X170993020Y-124934577D01*
X170993023Y-124934581D01*
X171150219Y-125091777D01*
X171150223Y-125091780D01*
X171150227Y-125091783D01*
X171172095Y-125107095D01*
X171332323Y-125219288D01*
X171533804Y-125313240D01*
X171748537Y-125370778D01*
X171970000Y-125390153D01*
X172191463Y-125370778D01*
X172406196Y-125313240D01*
X172607677Y-125219288D01*
X172789781Y-125091777D01*
X172946977Y-124934581D01*
X173074488Y-124752477D01*
X173168440Y-124550996D01*
X173225978Y-124336263D01*
X173245353Y-124114800D01*
X173225978Y-123893337D01*
X173168440Y-123678604D01*
X173074488Y-123477124D01*
X172946977Y-123295019D01*
X172789781Y-123137823D01*
X172789777Y-123137820D01*
X172789772Y-123137816D01*
X172607677Y-123010312D01*
X172607675Y-123010311D01*
X172406199Y-122916361D01*
X172406194Y-122916359D01*
X172340687Y-122898806D01*
X172214166Y-122864905D01*
X172153546Y-122827955D01*
X172122525Y-122764095D01*
X172130953Y-122693600D01*
X172176156Y-122638853D01*
X172214164Y-122621495D01*
X172406196Y-122570040D01*
X172607677Y-122476088D01*
X172789781Y-122348577D01*
X172946977Y-122191381D01*
X173074488Y-122009277D01*
X173168440Y-121807796D01*
X173225978Y-121593063D01*
X173245353Y-121371600D01*
X173225978Y-121150137D01*
X173168440Y-120935404D01*
X173074488Y-120733924D01*
X172946977Y-120551819D01*
X172789781Y-120394623D01*
X172789777Y-120394620D01*
X172789772Y-120394616D01*
X172607677Y-120267112D01*
X172607675Y-120267111D01*
X172406199Y-120173161D01*
X172406194Y-120173159D01*
X172340687Y-120155606D01*
X172214166Y-120121705D01*
X172153546Y-120084755D01*
X172122525Y-120020895D01*
X172130953Y-119950400D01*
X172176156Y-119895653D01*
X172214164Y-119878295D01*
X172406196Y-119826840D01*
X172607677Y-119732888D01*
X172789781Y-119605377D01*
X172946977Y-119448181D01*
X173074488Y-119266077D01*
X173168440Y-119064596D01*
X173225978Y-118849863D01*
X173245353Y-118628400D01*
X173225978Y-118406937D01*
X173168440Y-118192204D01*
X173074488Y-117990724D01*
X172946977Y-117808619D01*
X172789781Y-117651423D01*
X172789777Y-117651420D01*
X172789772Y-117651416D01*
X172607677Y-117523912D01*
X172607675Y-117523911D01*
X172406199Y-117429961D01*
X172406194Y-117429959D01*
X172325517Y-117408342D01*
X172214166Y-117378505D01*
X172153546Y-117341555D01*
X172122525Y-117277695D01*
X172130953Y-117207200D01*
X172176156Y-117152453D01*
X172214164Y-117135095D01*
X172406196Y-117083640D01*
X172607677Y-116989688D01*
X172789781Y-116862177D01*
X172946977Y-116704981D01*
X173074488Y-116522877D01*
X173168440Y-116321396D01*
X173225978Y-116106663D01*
X173245353Y-115885200D01*
X173225978Y-115663737D01*
X173168440Y-115449004D01*
X173074488Y-115247524D01*
X172946977Y-115065419D01*
X172789781Y-114908223D01*
X172789777Y-114908220D01*
X172789772Y-114908216D01*
X172607677Y-114780712D01*
X172607675Y-114780711D01*
X172406199Y-114686761D01*
X172406193Y-114686759D01*
X172364074Y-114675473D01*
X172191463Y-114629222D01*
X171970000Y-114609847D01*
X171748537Y-114629222D01*
X171633463Y-114660056D01*
X171533806Y-114686759D01*
X171533801Y-114686761D01*
X171332323Y-114780712D01*
X171150222Y-114908220D01*
X171150216Y-114908225D01*
X170993025Y-115065416D01*
X170993020Y-115065422D01*
X170865512Y-115247523D01*
X170771561Y-115449001D01*
X170771559Y-115449006D01*
X170744856Y-115548663D01*
X170714022Y-115663737D01*
X170694647Y-115885200D01*
X169585023Y-115885200D01*
X169590953Y-115835600D01*
X169636156Y-115780853D01*
X169674164Y-115763495D01*
X169866196Y-115712040D01*
X170067677Y-115618088D01*
X170249781Y-115490577D01*
X170406977Y-115333381D01*
X170534488Y-115151277D01*
X170628440Y-114949796D01*
X170685978Y-114735063D01*
X170705353Y-114513600D01*
X170685978Y-114292137D01*
X170628440Y-114077404D01*
X170534488Y-113875924D01*
X170406977Y-113693819D01*
X170249781Y-113536623D01*
X170249777Y-113536620D01*
X170249772Y-113536616D01*
X170067677Y-113409112D01*
X170067675Y-113409111D01*
X169866199Y-113315161D01*
X169866193Y-113315159D01*
X169824074Y-113303873D01*
X169651463Y-113257622D01*
X169430000Y-113238247D01*
X169208537Y-113257622D01*
X169093463Y-113288456D01*
X168993806Y-113315159D01*
X168993801Y-113315161D01*
X168792323Y-113409112D01*
X168610222Y-113536620D01*
X168610216Y-113536625D01*
X168453025Y-113693816D01*
X168453020Y-113693822D01*
X168325512Y-113875923D01*
X168231561Y-114077401D01*
X168231560Y-114077404D01*
X168174022Y-114292137D01*
X168154647Y-114513600D01*
X137603864Y-114513600D01*
X137655722Y-114457268D01*
X137778860Y-114268791D01*
X137869296Y-114062616D01*
X137924564Y-113844368D01*
X137943156Y-113620000D01*
X137924564Y-113395632D01*
X137904186Y-113315160D01*
X137869297Y-113177387D01*
X137869296Y-113177386D01*
X137869296Y-113177384D01*
X137778860Y-112971209D01*
X137772140Y-112960924D01*
X137655724Y-112782734D01*
X137655720Y-112782729D01*
X137503237Y-112617091D01*
X137421382Y-112553381D01*
X137325576Y-112478811D01*
X137292319Y-112460813D01*
X137241929Y-112410802D01*
X137226576Y-112341485D01*
X137251136Y-112274872D01*
X137292320Y-112239186D01*
X137292847Y-112238901D01*
X137325576Y-112221189D01*
X137503240Y-112082906D01*
X137655722Y-111917268D01*
X137655927Y-111916955D01*
X137744816Y-111780899D01*
X137778860Y-111728791D01*
X137869296Y-111522616D01*
X137924564Y-111304368D01*
X137943156Y-111080000D01*
X137924564Y-110855632D01*
X137869338Y-110637550D01*
X137869297Y-110637387D01*
X137869296Y-110637386D01*
X137869296Y-110637384D01*
X137778860Y-110431209D01*
X137731872Y-110359288D01*
X137655724Y-110242734D01*
X137655720Y-110242729D01*
X137539570Y-110116559D01*
X137503240Y-110077094D01*
X137503239Y-110077093D01*
X137503237Y-110077091D01*
X137421382Y-110013381D01*
X137325576Y-109938811D01*
X137291792Y-109920528D01*
X137241402Y-109870516D01*
X137226050Y-109801199D01*
X137250610Y-109734586D01*
X137291793Y-109698901D01*
X137325300Y-109680767D01*
X137325301Y-109680767D01*
X137502902Y-109542534D01*
X137655325Y-109376958D01*
X137778419Y-109188548D01*
X137868820Y-108982456D01*
X137868823Y-108982449D01*
X137916544Y-108794000D01*
X137010703Y-108794000D01*
X137045925Y-108732993D01*
X137080000Y-108605826D01*
X137080000Y-108474174D01*
X137045925Y-108347007D01*
X137010703Y-108286000D01*
X137916544Y-108286000D01*
X137916544Y-108285999D01*
X137868823Y-108097550D01*
X137868820Y-108097543D01*
X137778419Y-107891451D01*
X137655325Y-107703041D01*
X137502902Y-107537465D01*
X137426245Y-107477800D01*
X167647197Y-107477800D01*
X167666391Y-107819602D01*
X167723735Y-108157106D01*
X167818511Y-108486081D01*
X167949519Y-108802360D01*
X167949522Y-108802365D01*
X168115115Y-109101985D01*
X168313215Y-109381181D01*
X168313231Y-109381201D01*
X168371823Y-109446766D01*
X169366856Y-108451733D01*
X169440688Y-108553354D01*
X169624446Y-108737112D01*
X169726065Y-108810942D01*
X168731032Y-109805975D01*
X168796598Y-109864568D01*
X168796618Y-109864584D01*
X169075814Y-110062684D01*
X169375434Y-110228277D01*
X169375439Y-110228280D01*
X169691718Y-110359288D01*
X170020693Y-110454064D01*
X170358197Y-110511408D01*
X170700000Y-110530602D01*
X171041802Y-110511408D01*
X171379306Y-110454064D01*
X171708281Y-110359288D01*
X172024560Y-110228280D01*
X172024565Y-110228277D01*
X172324185Y-110062684D01*
X172603385Y-109864581D01*
X172603387Y-109864580D01*
X172668965Y-109805975D01*
X171673933Y-108810943D01*
X171775554Y-108737112D01*
X171959312Y-108553354D01*
X172033143Y-108451733D01*
X173028175Y-109446765D01*
X173086780Y-109381187D01*
X173086781Y-109381185D01*
X173284884Y-109101985D01*
X173450477Y-108802365D01*
X173450480Y-108802360D01*
X173581488Y-108486081D01*
X173676264Y-108157106D01*
X173733608Y-107819602D01*
X173752802Y-107477800D01*
X173733608Y-107135997D01*
X173676264Y-106798493D01*
X173581488Y-106469518D01*
X173450480Y-106153239D01*
X173450477Y-106153234D01*
X173284884Y-105853614D01*
X173086784Y-105574418D01*
X173086768Y-105574398D01*
X173028175Y-105508832D01*
X172033142Y-106503864D01*
X171959312Y-106402246D01*
X171775554Y-106218488D01*
X171673933Y-106144656D01*
X172668966Y-105149623D01*
X172603401Y-105091031D01*
X172603381Y-105091015D01*
X172324185Y-104892915D01*
X172024565Y-104727322D01*
X172024560Y-104727319D01*
X171708281Y-104596311D01*
X171379306Y-104501535D01*
X171041802Y-104444191D01*
X170700000Y-104424997D01*
X170358197Y-104444191D01*
X170020693Y-104501535D01*
X169691718Y-104596311D01*
X169375439Y-104727319D01*
X169375434Y-104727322D01*
X169075819Y-104892913D01*
X168796605Y-105091026D01*
X168731032Y-105149623D01*
X169726065Y-106144656D01*
X169624446Y-106218488D01*
X169440688Y-106402246D01*
X169366856Y-106503865D01*
X168371823Y-105508832D01*
X168313226Y-105574405D01*
X168115113Y-105853619D01*
X167949522Y-106153234D01*
X167949519Y-106153239D01*
X167818511Y-106469518D01*
X167723735Y-106798493D01*
X167666391Y-107135997D01*
X167647197Y-107477800D01*
X137426245Y-107477800D01*
X137325301Y-107399232D01*
X137325300Y-107399231D01*
X137291791Y-107381097D01*
X137241401Y-107331083D01*
X137226050Y-107261766D01*
X137250612Y-107195153D01*
X137291790Y-107159472D01*
X137325576Y-107141189D01*
X137503240Y-107002906D01*
X137655722Y-106837268D01*
X137778860Y-106648791D01*
X137869296Y-106442616D01*
X137924564Y-106224368D01*
X137943156Y-106000000D01*
X137924564Y-105775632D01*
X137901411Y-105684204D01*
X137869297Y-105557387D01*
X137869296Y-105557386D01*
X137869296Y-105557384D01*
X137778860Y-105351209D01*
X137772140Y-105340924D01*
X137655724Y-105162734D01*
X137655720Y-105162729D01*
X137503237Y-104997091D01*
X137369392Y-104892915D01*
X137325576Y-104858811D01*
X137292319Y-104840813D01*
X137241929Y-104790802D01*
X137226576Y-104721485D01*
X137251136Y-104654872D01*
X137292320Y-104619186D01*
X137304852Y-104612404D01*
X137325576Y-104601189D01*
X137503240Y-104462906D01*
X137655722Y-104297268D01*
X137655927Y-104296955D01*
X137662441Y-104286983D01*
X137778860Y-104108791D01*
X137869296Y-103902616D01*
X137924564Y-103684368D01*
X137943156Y-103460000D01*
X137924564Y-103235632D01*
X137869338Y-103017550D01*
X137869297Y-103017387D01*
X137869296Y-103017386D01*
X137869296Y-103017384D01*
X137778860Y-102811209D01*
X137744816Y-102759100D01*
X137655724Y-102622734D01*
X137655720Y-102622729D01*
X137539570Y-102496559D01*
X137503240Y-102457094D01*
X137503239Y-102457093D01*
X137503237Y-102457091D01*
X137421382Y-102393381D01*
X137325576Y-102318811D01*
X137292319Y-102300813D01*
X137241929Y-102250802D01*
X137226576Y-102181485D01*
X137251136Y-102114872D01*
X137292320Y-102079186D01*
X137325576Y-102061189D01*
X137503240Y-101922906D01*
X137655722Y-101757268D01*
X137778860Y-101568791D01*
X137869296Y-101362616D01*
X137924564Y-101144368D01*
X137943156Y-100920000D01*
X137924564Y-100695632D01*
X137869296Y-100477384D01*
X137778860Y-100271209D01*
X137763062Y-100247029D01*
X137655724Y-100082734D01*
X137655720Y-100082729D01*
X137503237Y-99917091D01*
X137399098Y-99836036D01*
X137325576Y-99778811D01*
X137127574Y-99671658D01*
X137127572Y-99671657D01*
X137127571Y-99671656D01*
X136914639Y-99598557D01*
X136914630Y-99598555D01*
X136870476Y-99591187D01*
X136692569Y-99561500D01*
X136467431Y-99561500D01*
X136319211Y-99586233D01*
X136245369Y-99598555D01*
X136245360Y-99598557D01*
X136032428Y-99671656D01*
X136032426Y-99671658D01*
X135834426Y-99778810D01*
X135834424Y-99778811D01*
X135656762Y-99917091D01*
X135504279Y-100082729D01*
X135415483Y-100218643D01*
X135361479Y-100264731D01*
X135291131Y-100274306D01*
X135226774Y-100244329D01*
X135204517Y-100218643D01*
X135115720Y-100082729D01*
X134963237Y-99917091D01*
X134859098Y-99836036D01*
X134785576Y-99778811D01*
X134587574Y-99671658D01*
X134587572Y-99671657D01*
X134587571Y-99671656D01*
X134374639Y-99598557D01*
X134374630Y-99598555D01*
X134330476Y-99591187D01*
X134152569Y-99561500D01*
X133927431Y-99561500D01*
X133779211Y-99586233D01*
X133705369Y-99598555D01*
X133705360Y-99598557D01*
X133492428Y-99671656D01*
X133492426Y-99671658D01*
X133294426Y-99778810D01*
X133294424Y-99778811D01*
X133116762Y-99917091D01*
X132964279Y-100082729D01*
X132964275Y-100082734D01*
X132841141Y-100271206D01*
X132750703Y-100477386D01*
X132750702Y-100477387D01*
X132695437Y-100695624D01*
X132676844Y-100920000D01*
X125075500Y-100920000D01*
X125075500Y-63920000D01*
X132676844Y-63920000D01*
X132691872Y-64101362D01*
X132695437Y-64144375D01*
X132750702Y-64362612D01*
X132750703Y-64362613D01*
X132750704Y-64362616D01*
X132839781Y-64565692D01*
X132841141Y-64568793D01*
X132964275Y-64757265D01*
X132964279Y-64757270D01*
X133116762Y-64922908D01*
X133171331Y-64965381D01*
X133294424Y-65061189D01*
X133328205Y-65079470D01*
X133378596Y-65129482D01*
X133393949Y-65198799D01*
X133369389Y-65265412D01*
X133328209Y-65301096D01*
X133294704Y-65319228D01*
X133294698Y-65319232D01*
X133117097Y-65457465D01*
X132964674Y-65623041D01*
X132841580Y-65811451D01*
X132751179Y-66017543D01*
X132751176Y-66017550D01*
X132703455Y-66205999D01*
X132703456Y-66206000D01*
X133609297Y-66206000D01*
X133574075Y-66267007D01*
X133540000Y-66394174D01*
X133540000Y-66525826D01*
X133574075Y-66652993D01*
X133609297Y-66714000D01*
X132703455Y-66714000D01*
X132751176Y-66902449D01*
X132751179Y-66902456D01*
X132841580Y-67108548D01*
X132964674Y-67296958D01*
X133117097Y-67462534D01*
X133294698Y-67600767D01*
X133294704Y-67600771D01*
X133328207Y-67618902D01*
X133378597Y-67668915D01*
X133393949Y-67738232D01*
X133369388Y-67804845D01*
X133328207Y-67840528D01*
X133294430Y-67858807D01*
X133294424Y-67858811D01*
X133116762Y-67997091D01*
X132964279Y-68162729D01*
X132964275Y-68162734D01*
X132841141Y-68351206D01*
X132750703Y-68557386D01*
X132750702Y-68557387D01*
X132695437Y-68775624D01*
X132695436Y-68775630D01*
X132695436Y-68775632D01*
X132685255Y-68898500D01*
X132676844Y-69000000D01*
X132695437Y-69224375D01*
X132750702Y-69442612D01*
X132750703Y-69442613D01*
X132750704Y-69442616D01*
X132839781Y-69645692D01*
X132841141Y-69648793D01*
X132964275Y-69837265D01*
X132964279Y-69837270D01*
X133116762Y-70002908D01*
X133171331Y-70045381D01*
X133294424Y-70141189D01*
X133327680Y-70159186D01*
X133378071Y-70209200D01*
X133393423Y-70278516D01*
X133368862Y-70345129D01*
X133327680Y-70380813D01*
X133294426Y-70398810D01*
X133294424Y-70398811D01*
X133116762Y-70537091D01*
X132964279Y-70702729D01*
X132964275Y-70702734D01*
X132841141Y-70891206D01*
X132750703Y-71097386D01*
X132750702Y-71097387D01*
X132695437Y-71315624D01*
X132695436Y-71315630D01*
X132695436Y-71315632D01*
X132676844Y-71540000D01*
X132692836Y-71732993D01*
X132695437Y-71764375D01*
X132750702Y-71982612D01*
X132750703Y-71982613D01*
X132750704Y-71982616D01*
X132841140Y-72188791D01*
X132841141Y-72188793D01*
X132964275Y-72377265D01*
X132964279Y-72377270D01*
X133116762Y-72542908D01*
X133171331Y-72585381D01*
X133294424Y-72681189D01*
X133328205Y-72699470D01*
X133378596Y-72749482D01*
X133393949Y-72818799D01*
X133369389Y-72885412D01*
X133328209Y-72921096D01*
X133294704Y-72939228D01*
X133294698Y-72939232D01*
X133117097Y-73077465D01*
X132964674Y-73243041D01*
X132841580Y-73431451D01*
X132751179Y-73637543D01*
X132751176Y-73637550D01*
X132703455Y-73825999D01*
X132703456Y-73826000D01*
X133609297Y-73826000D01*
X133574075Y-73887007D01*
X133540000Y-74014174D01*
X133540000Y-74145826D01*
X133574075Y-74272993D01*
X133609297Y-74334000D01*
X132703455Y-74334000D01*
X132751176Y-74522449D01*
X132751179Y-74522456D01*
X132841580Y-74728548D01*
X132964674Y-74916958D01*
X133117097Y-75082534D01*
X133294698Y-75220767D01*
X133294704Y-75220771D01*
X133328207Y-75238902D01*
X133378597Y-75288915D01*
X133393949Y-75358232D01*
X133369388Y-75424845D01*
X133328207Y-75460528D01*
X133294430Y-75478807D01*
X133294424Y-75478811D01*
X133116762Y-75617091D01*
X132964279Y-75782729D01*
X132964275Y-75782734D01*
X132841141Y-75971206D01*
X132750703Y-76177386D01*
X132750702Y-76177387D01*
X132695437Y-76395624D01*
X132695436Y-76395630D01*
X132695436Y-76395632D01*
X132676844Y-76620000D01*
X132692405Y-76807793D01*
X132695437Y-76844375D01*
X132750702Y-77062612D01*
X132750703Y-77062613D01*
X132841141Y-77268793D01*
X132964275Y-77457265D01*
X132964279Y-77457270D01*
X133116762Y-77622908D01*
X133137248Y-77638853D01*
X133294424Y-77761189D01*
X133327680Y-77779186D01*
X133378071Y-77829200D01*
X133393423Y-77898516D01*
X133368862Y-77965129D01*
X133327680Y-78000813D01*
X133294426Y-78018810D01*
X133294424Y-78018811D01*
X133116762Y-78157091D01*
X132964279Y-78322729D01*
X132964275Y-78322734D01*
X132841141Y-78511206D01*
X132750703Y-78717386D01*
X132750702Y-78717387D01*
X132695437Y-78935624D01*
X132695436Y-78935630D01*
X132695436Y-78935632D01*
X132676844Y-79160000D01*
X132695232Y-79381912D01*
X132695437Y-79384375D01*
X132750702Y-79602612D01*
X132750703Y-79602613D01*
X132750704Y-79602616D01*
X132841140Y-79808791D01*
X132841141Y-79808793D01*
X132964275Y-79997265D01*
X132964279Y-79997270D01*
X133116762Y-80162908D01*
X133171331Y-80205381D01*
X133294424Y-80301189D01*
X133328205Y-80319470D01*
X133378596Y-80369482D01*
X133393949Y-80438799D01*
X133369389Y-80505412D01*
X133328209Y-80541096D01*
X133294704Y-80559228D01*
X133294698Y-80559232D01*
X133117097Y-80697465D01*
X132964674Y-80863041D01*
X132841580Y-81051451D01*
X132751179Y-81257543D01*
X132751176Y-81257550D01*
X132703455Y-81445999D01*
X132703456Y-81446000D01*
X133609297Y-81446000D01*
X133574075Y-81507007D01*
X133540000Y-81634174D01*
X133540000Y-81765826D01*
X133574075Y-81892993D01*
X133609297Y-81954000D01*
X132703455Y-81954000D01*
X132751176Y-82142449D01*
X132751179Y-82142456D01*
X132841580Y-82348548D01*
X132964674Y-82536958D01*
X133117097Y-82702534D01*
X133294698Y-82840767D01*
X133294704Y-82840771D01*
X133328207Y-82858902D01*
X133378597Y-82908915D01*
X133393949Y-82978232D01*
X133369388Y-83044845D01*
X133328207Y-83080528D01*
X133294430Y-83098807D01*
X133294424Y-83098811D01*
X133116762Y-83237091D01*
X132964279Y-83402729D01*
X132964275Y-83402734D01*
X132841141Y-83591206D01*
X132750703Y-83797386D01*
X132750702Y-83797387D01*
X132695437Y-84015624D01*
X132695436Y-84015630D01*
X132695436Y-84015632D01*
X132676844Y-84240000D01*
X132683110Y-84315624D01*
X132695437Y-84464375D01*
X132750702Y-84682612D01*
X132750703Y-84682613D01*
X132750704Y-84682616D01*
X132786567Y-84764375D01*
X132841141Y-84888793D01*
X132964275Y-85077265D01*
X132964279Y-85077270D01*
X133116762Y-85242908D01*
X133171331Y-85285381D01*
X133294424Y-85381189D01*
X133327680Y-85399186D01*
X133378071Y-85449200D01*
X133393423Y-85518516D01*
X133368862Y-85585129D01*
X133327680Y-85620813D01*
X133294426Y-85638810D01*
X133294424Y-85638811D01*
X133116762Y-85777091D01*
X132964279Y-85942729D01*
X132964275Y-85942734D01*
X132841141Y-86131206D01*
X132750703Y-86337386D01*
X132750702Y-86337387D01*
X132695437Y-86555624D01*
X132695436Y-86555630D01*
X132695436Y-86555632D01*
X132676844Y-86780000D01*
X132692836Y-86972993D01*
X132695437Y-87004375D01*
X132750702Y-87222612D01*
X132750703Y-87222613D01*
X132750704Y-87222616D01*
X132841140Y-87428791D01*
X132841141Y-87428793D01*
X132964275Y-87617265D01*
X132964279Y-87617270D01*
X133107841Y-87773217D01*
X133139262Y-87836882D01*
X133131276Y-87907428D01*
X133086417Y-87962457D01*
X133059173Y-87976610D01*
X132944039Y-88019553D01*
X132944034Y-88019555D01*
X132827095Y-88107095D01*
X132739555Y-88224034D01*
X132739555Y-88224035D01*
X132688505Y-88360906D01*
X132682000Y-88421402D01*
X132682000Y-89066000D01*
X133609297Y-89066000D01*
X133574075Y-89127007D01*
X133540000Y-89254174D01*
X133540000Y-89385826D01*
X133574075Y-89512993D01*
X133609297Y-89574000D01*
X132682000Y-89574000D01*
X132682000Y-90218597D01*
X132688505Y-90279093D01*
X132739555Y-90415964D01*
X132739555Y-90415965D01*
X132827095Y-90532904D01*
X132944034Y-90620444D01*
X133080906Y-90671494D01*
X133141402Y-90677999D01*
X133141415Y-90678000D01*
X133786000Y-90678000D01*
X133786000Y-89750702D01*
X133847007Y-89785925D01*
X133974174Y-89820000D01*
X134105826Y-89820000D01*
X134232993Y-89785925D01*
X134294000Y-89750702D01*
X134294000Y-90678000D01*
X134938585Y-90678000D01*
X134938597Y-90677999D01*
X134999093Y-90671494D01*
X135135964Y-90620444D01*
X135135965Y-90620444D01*
X135252904Y-90532904D01*
X135340444Y-90415965D01*
X135384618Y-90297530D01*
X135427165Y-90240694D01*
X135493685Y-90215883D01*
X135563059Y-90230974D01*
X135595372Y-90256222D01*
X135616427Y-90279093D01*
X135656762Y-90322908D01*
X135711331Y-90365381D01*
X135834424Y-90461189D01*
X136032426Y-90568342D01*
X136032427Y-90568342D01*
X136032428Y-90568343D01*
X136144227Y-90606723D01*
X136245365Y-90641444D01*
X136467431Y-90678500D01*
X136467435Y-90678500D01*
X136692565Y-90678500D01*
X136692569Y-90678500D01*
X136914635Y-90641444D01*
X137127574Y-90568342D01*
X137325576Y-90461189D01*
X137503240Y-90322906D01*
X137655722Y-90157268D01*
X137778860Y-89968791D01*
X137869296Y-89762616D01*
X137924564Y-89544368D01*
X137943156Y-89320000D01*
X137924564Y-89095632D01*
X137903637Y-89012993D01*
X137869297Y-88877387D01*
X137869296Y-88877386D01*
X137869296Y-88877384D01*
X137778860Y-88671209D01*
X137686918Y-88530481D01*
X137655724Y-88482734D01*
X137655720Y-88482729D01*
X137503237Y-88317091D01*
X137383679Y-88224035D01*
X137325576Y-88178811D01*
X137291792Y-88160528D01*
X137241402Y-88110516D01*
X137226050Y-88041199D01*
X137250610Y-87974586D01*
X137291793Y-87938901D01*
X137325300Y-87920767D01*
X137325301Y-87920767D01*
X137502902Y-87782534D01*
X137655325Y-87616958D01*
X137778419Y-87428548D01*
X137868820Y-87222456D01*
X137868823Y-87222449D01*
X137916544Y-87034000D01*
X137010703Y-87034000D01*
X137045925Y-86972993D01*
X137080000Y-86845826D01*
X137080000Y-86714174D01*
X137045925Y-86587007D01*
X137010703Y-86526000D01*
X137916544Y-86526000D01*
X137916544Y-86525999D01*
X137868823Y-86337550D01*
X137868820Y-86337543D01*
X137778419Y-86131451D01*
X137655325Y-85943041D01*
X137502902Y-85777465D01*
X137325301Y-85639232D01*
X137325300Y-85639231D01*
X137291791Y-85621097D01*
X137241401Y-85571083D01*
X137226050Y-85501766D01*
X137250612Y-85435153D01*
X137291790Y-85399472D01*
X137325576Y-85381189D01*
X137503240Y-85242906D01*
X137655722Y-85077268D01*
X137778860Y-84888791D01*
X137869296Y-84682616D01*
X137924564Y-84464368D01*
X137943156Y-84240000D01*
X137924564Y-84015632D01*
X137869296Y-83797384D01*
X137778860Y-83591209D01*
X137772140Y-83580924D01*
X137655724Y-83402734D01*
X137655720Y-83402729D01*
X137503237Y-83237091D01*
X137421382Y-83173381D01*
X137325576Y-83098811D01*
X137292319Y-83080813D01*
X137241929Y-83030802D01*
X137226576Y-82961485D01*
X137251136Y-82894872D01*
X137292320Y-82859186D01*
X137292847Y-82858901D01*
X137325576Y-82841189D01*
X137503240Y-82702906D01*
X137655722Y-82537268D01*
X137655927Y-82536955D01*
X137744816Y-82400899D01*
X137778860Y-82348791D01*
X137869296Y-82142616D01*
X137924564Y-81924368D01*
X137943156Y-81700000D01*
X137924564Y-81475632D01*
X137869338Y-81257550D01*
X137869297Y-81257387D01*
X137869296Y-81257386D01*
X137869296Y-81257384D01*
X137778860Y-81051209D01*
X137694835Y-80922599D01*
X137655724Y-80862734D01*
X137655720Y-80862729D01*
X137539570Y-80736559D01*
X137503240Y-80697094D01*
X137503239Y-80697093D01*
X137503237Y-80697091D01*
X137421382Y-80633381D01*
X137325576Y-80558811D01*
X137291792Y-80540528D01*
X137241402Y-80490516D01*
X137226050Y-80421199D01*
X137250610Y-80354586D01*
X137291793Y-80318901D01*
X137325300Y-80300767D01*
X137325301Y-80300767D01*
X137502902Y-80162534D01*
X137655325Y-79996958D01*
X137778419Y-79808548D01*
X137868820Y-79602456D01*
X137868823Y-79602449D01*
X137916544Y-79414000D01*
X137010703Y-79414000D01*
X137045925Y-79352993D01*
X137080000Y-79225826D01*
X137080000Y-79094174D01*
X137045925Y-78967007D01*
X137010703Y-78906000D01*
X137916544Y-78906000D01*
X137916544Y-78905999D01*
X137868823Y-78717550D01*
X137868820Y-78717543D01*
X137778419Y-78511451D01*
X137655325Y-78323041D01*
X137502902Y-78157465D01*
X137325301Y-78019232D01*
X137325300Y-78019231D01*
X137291791Y-78001097D01*
X137241401Y-77951083D01*
X137226050Y-77881766D01*
X137250612Y-77815153D01*
X137291790Y-77779472D01*
X137325576Y-77761189D01*
X137503240Y-77622906D01*
X137655722Y-77457268D01*
X137778860Y-77268791D01*
X137869296Y-77062616D01*
X137924564Y-76844368D01*
X137943156Y-76620000D01*
X137924564Y-76395632D01*
X137869296Y-76177384D01*
X137778860Y-75971209D01*
X137772140Y-75960924D01*
X137655724Y-75782734D01*
X137655720Y-75782729D01*
X137503237Y-75617091D01*
X137419372Y-75551816D01*
X137325576Y-75478811D01*
X137292319Y-75460813D01*
X137241929Y-75410802D01*
X137226576Y-75341485D01*
X137251136Y-75274872D01*
X137292320Y-75239186D01*
X137292847Y-75238901D01*
X137325576Y-75221189D01*
X137503240Y-75082906D01*
X137655722Y-74917268D01*
X137655927Y-74916955D01*
X137677210Y-74884378D01*
X137778860Y-74728791D01*
X137869296Y-74522616D01*
X137924564Y-74304368D01*
X137943156Y-74080000D01*
X137924564Y-73855632D01*
X137893511Y-73733006D01*
X137869297Y-73637387D01*
X137869296Y-73637386D01*
X137869296Y-73637384D01*
X137778860Y-73431209D01*
X137744816Y-73379100D01*
X137655724Y-73242734D01*
X137655720Y-73242729D01*
X137539570Y-73116559D01*
X137503240Y-73077094D01*
X137503239Y-73077093D01*
X137503237Y-73077091D01*
X137392273Y-72990724D01*
X137325576Y-72938811D01*
X137291792Y-72920528D01*
X137241402Y-72870516D01*
X137226050Y-72801199D01*
X137250610Y-72734586D01*
X137291793Y-72698901D01*
X137325300Y-72680767D01*
X137325301Y-72680767D01*
X137502902Y-72542534D01*
X137655325Y-72376958D01*
X137778419Y-72188548D01*
X137868820Y-71982456D01*
X137868823Y-71982449D01*
X137916544Y-71794000D01*
X137010703Y-71794000D01*
X137045925Y-71732993D01*
X137080000Y-71605826D01*
X137080000Y-71474174D01*
X137045925Y-71347007D01*
X137010703Y-71286000D01*
X137916544Y-71286000D01*
X137916544Y-71285999D01*
X137868823Y-71097550D01*
X137868820Y-71097543D01*
X137778419Y-70891451D01*
X137655325Y-70703041D01*
X137502902Y-70537465D01*
X137325301Y-70399232D01*
X137325300Y-70399231D01*
X137291791Y-70381097D01*
X137241401Y-70331083D01*
X137226050Y-70261766D01*
X137250612Y-70195153D01*
X137291790Y-70159472D01*
X137325576Y-70141189D01*
X137503240Y-70002906D01*
X137655722Y-69837268D01*
X137778860Y-69648791D01*
X137869296Y-69442616D01*
X137924564Y-69224368D01*
X137943156Y-69000000D01*
X137924564Y-68775632D01*
X137900648Y-68681189D01*
X137869297Y-68557387D01*
X137869296Y-68557386D01*
X137869296Y-68557384D01*
X137778860Y-68351209D01*
X137772140Y-68340924D01*
X137655724Y-68162734D01*
X137655720Y-68162729D01*
X137503237Y-67997091D01*
X137421382Y-67933381D01*
X137325576Y-67858811D01*
X137292319Y-67840813D01*
X137241929Y-67790802D01*
X137226576Y-67721485D01*
X137251136Y-67654872D01*
X137292320Y-67619186D01*
X137292847Y-67618901D01*
X137325576Y-67601189D01*
X137503240Y-67462906D01*
X137655722Y-67297268D01*
X137655927Y-67296955D01*
X137744816Y-67160899D01*
X137778860Y-67108791D01*
X137869296Y-66902616D01*
X137924564Y-66684368D01*
X137942206Y-66471460D01*
X137967764Y-66405228D01*
X138025076Y-66363324D01*
X138095944Y-66359058D01*
X138156870Y-66392774D01*
X144529595Y-72765499D01*
X144563621Y-72827811D01*
X144566500Y-72854594D01*
X144566500Y-86587606D01*
X144566500Y-86712394D01*
X144590845Y-86834785D01*
X144638600Y-86950075D01*
X144707929Y-87053833D01*
X145146167Y-87492072D01*
X145249925Y-87561401D01*
X145365215Y-87609155D01*
X145487606Y-87633500D01*
X145528215Y-87633500D01*
X145576432Y-87643090D01*
X145615215Y-87659155D01*
X145737606Y-87683500D01*
X145737607Y-87683500D01*
X145862394Y-87683500D01*
X147290500Y-87683500D01*
X147358621Y-87703502D01*
X147405114Y-87757158D01*
X147416500Y-87809500D01*
X147416500Y-98171926D01*
X147396498Y-98240047D01*
X147342842Y-98286540D01*
X147272568Y-98296644D01*
X147207988Y-98267150D01*
X147189950Y-98247858D01*
X147077994Y-98099604D01*
X146915973Y-97951902D01*
X146729567Y-97836485D01*
X146729560Y-97836482D01*
X146525136Y-97757287D01*
X146454000Y-97743989D01*
X146454000Y-98588314D01*
X146445606Y-98579920D01*
X146354394Y-98527259D01*
X146252661Y-98500000D01*
X146147339Y-98500000D01*
X146045606Y-98527259D01*
X145954394Y-98579920D01*
X145946000Y-98588314D01*
X145946000Y-97743989D01*
X145874863Y-97757287D01*
X145670439Y-97836482D01*
X145670432Y-97836485D01*
X145484026Y-97951902D01*
X145322005Y-98099604D01*
X145189885Y-98274561D01*
X145092160Y-98470820D01*
X145092158Y-98470825D01*
X145042317Y-98646000D01*
X145888314Y-98646000D01*
X145879920Y-98654394D01*
X145827259Y-98745606D01*
X145800000Y-98847339D01*
X145800000Y-98952661D01*
X145827259Y-99054394D01*
X145879920Y-99145606D01*
X145888314Y-99154000D01*
X145042317Y-99154000D01*
X145092158Y-99329174D01*
X145092160Y-99329179D01*
X145189885Y-99525438D01*
X145322005Y-99700395D01*
X145438448Y-99806547D01*
X145475314Y-99867221D01*
X145473525Y-99938196D01*
X145438448Y-99992777D01*
X145321634Y-100099266D01*
X145189458Y-100274297D01*
X145091691Y-100470639D01*
X145091688Y-100470646D01*
X145031667Y-100681602D01*
X145031667Y-100681606D01*
X145011430Y-100899995D01*
X145011430Y-100900004D01*
X145031667Y-101118393D01*
X145031667Y-101118397D01*
X145091688Y-101329353D01*
X145091690Y-101329358D01*
X145091691Y-101329361D01*
X145189457Y-101525701D01*
X145189458Y-101525702D01*
X145321634Y-101700733D01*
X145438077Y-101806885D01*
X145474943Y-101867559D01*
X145473154Y-101938534D01*
X145438077Y-101993115D01*
X145321634Y-102099266D01*
X145189458Y-102274297D01*
X145091691Y-102470639D01*
X145091688Y-102470646D01*
X145031667Y-102681602D01*
X145031667Y-102681606D01*
X145011430Y-102899995D01*
X145011430Y-102900004D01*
X145031667Y-103118393D01*
X145031667Y-103118397D01*
X145091688Y-103329353D01*
X145091690Y-103329358D01*
X145091691Y-103329361D01*
X145189457Y-103525701D01*
X145209399Y-103552108D01*
X145265312Y-103626150D01*
X145290402Y-103692566D01*
X145275602Y-103762003D01*
X145240271Y-103802950D01*
X145161738Y-103861738D01*
X145074112Y-103978792D01*
X145074110Y-103978797D01*
X145023011Y-104115795D01*
X145023009Y-104115803D01*
X145016500Y-104176350D01*
X145016500Y-105623649D01*
X145023009Y-105684196D01*
X145023011Y-105684204D01*
X145074110Y-105821202D01*
X145074112Y-105821207D01*
X145161738Y-105938261D01*
X145278792Y-106025887D01*
X145278794Y-106025888D01*
X145278796Y-106025889D01*
X145337875Y-106047924D01*
X145415795Y-106076988D01*
X145415803Y-106076990D01*
X145476350Y-106083499D01*
X145476355Y-106083499D01*
X145476362Y-106083500D01*
X145476368Y-106083500D01*
X146923632Y-106083500D01*
X146923638Y-106083500D01*
X146923645Y-106083499D01*
X146923649Y-106083499D01*
X146984196Y-106076990D01*
X146984199Y-106076989D01*
X146984201Y-106076989D01*
X147121204Y-106025889D01*
X147238261Y-105938261D01*
X147291267Y-105867453D01*
X147325887Y-105821207D01*
X147325887Y-105821206D01*
X147325889Y-105821204D01*
X147376989Y-105684201D01*
X147383500Y-105623638D01*
X147383500Y-104664594D01*
X147403502Y-104596473D01*
X147420405Y-104575499D01*
X147890669Y-104105235D01*
X148542071Y-103453833D01*
X148611400Y-103350075D01*
X148659155Y-103234785D01*
X148683500Y-103112394D01*
X148683500Y-102987606D01*
X148683500Y-100443553D01*
X159413346Y-100443553D01*
X165956356Y-100443553D01*
X165956356Y-97612629D01*
X159413346Y-97612629D01*
X159413346Y-100443553D01*
X148683500Y-100443553D01*
X148683500Y-97143553D01*
X151020488Y-97143553D01*
X168636089Y-97143553D01*
X168636089Y-94313103D01*
X151020488Y-94313103D01*
X151020488Y-97143553D01*
X148683500Y-97143553D01*
X148683500Y-87696994D01*
X148703502Y-87628873D01*
X148715864Y-87612683D01*
X148719041Y-87609155D01*
X148739040Y-87586944D01*
X148776420Y-87522200D01*
X167647197Y-87522200D01*
X167666391Y-87864002D01*
X167723735Y-88201506D01*
X167818511Y-88530481D01*
X167949519Y-88846760D01*
X167949522Y-88846765D01*
X168115115Y-89146385D01*
X168313215Y-89425581D01*
X168313231Y-89425601D01*
X168371823Y-89491166D01*
X169366856Y-88496133D01*
X169440688Y-88597754D01*
X169624446Y-88781512D01*
X169726065Y-88855342D01*
X168731032Y-89850375D01*
X168796598Y-89908968D01*
X168796618Y-89908984D01*
X169075814Y-90107084D01*
X169375434Y-90272677D01*
X169375439Y-90272680D01*
X169691718Y-90403688D01*
X170020693Y-90498464D01*
X170358197Y-90555808D01*
X170700000Y-90575002D01*
X171041802Y-90555808D01*
X171379306Y-90498464D01*
X171708281Y-90403688D01*
X172024560Y-90272680D01*
X172024565Y-90272677D01*
X172324185Y-90107084D01*
X172603385Y-89908981D01*
X172603387Y-89908980D01*
X172668965Y-89850375D01*
X171673933Y-88855343D01*
X171775554Y-88781512D01*
X171959312Y-88597754D01*
X172033143Y-88496133D01*
X173028175Y-89491165D01*
X173086780Y-89425587D01*
X173086781Y-89425585D01*
X173284884Y-89146385D01*
X173450477Y-88846765D01*
X173450480Y-88846760D01*
X173581488Y-88530481D01*
X173676264Y-88201506D01*
X173733608Y-87864002D01*
X173752802Y-87522200D01*
X173733608Y-87180397D01*
X173676264Y-86842893D01*
X173581488Y-86513918D01*
X173450480Y-86197639D01*
X173450477Y-86197634D01*
X173284884Y-85898014D01*
X173086784Y-85618818D01*
X173086768Y-85618798D01*
X173028175Y-85553232D01*
X172033142Y-86548264D01*
X171959312Y-86446646D01*
X171775554Y-86262888D01*
X171673933Y-86189056D01*
X172668966Y-85194023D01*
X172603401Y-85135431D01*
X172603381Y-85135415D01*
X172324185Y-84937315D01*
X172024565Y-84771722D01*
X172024560Y-84771719D01*
X171708281Y-84640711D01*
X171379306Y-84545935D01*
X171041802Y-84488591D01*
X170700000Y-84469397D01*
X170358197Y-84488591D01*
X170020693Y-84545935D01*
X169691718Y-84640711D01*
X169375439Y-84771719D01*
X169375434Y-84771722D01*
X169075819Y-84937313D01*
X168796605Y-85135426D01*
X168731032Y-85194023D01*
X169726065Y-86189056D01*
X169624446Y-86262888D01*
X169440688Y-86446646D01*
X169366856Y-86548265D01*
X168371823Y-85553232D01*
X168313226Y-85618805D01*
X168115113Y-85898019D01*
X167949522Y-86197634D01*
X167949519Y-86197639D01*
X167818511Y-86513918D01*
X167723735Y-86842893D01*
X167666391Y-87180397D01*
X167647197Y-87522200D01*
X148776420Y-87522200D01*
X148834527Y-87421556D01*
X148893542Y-87239928D01*
X148913504Y-87050000D01*
X148893542Y-86860072D01*
X148834527Y-86678444D01*
X148739040Y-86513056D01*
X148739038Y-86513054D01*
X148739034Y-86513048D01*
X148611255Y-86371135D01*
X148456752Y-86258882D01*
X148282288Y-86181206D01*
X148095487Y-86141500D01*
X147904513Y-86141500D01*
X147717711Y-86181206D01*
X147543247Y-86258882D01*
X147388747Y-86371133D01*
X147385437Y-86374810D01*
X147324991Y-86412050D01*
X147291800Y-86416500D01*
X146021785Y-86416500D01*
X145973568Y-86406909D01*
X145934789Y-86390846D01*
X145928860Y-86389048D01*
X145929211Y-86387890D01*
X145871996Y-86357951D01*
X145836873Y-86296251D01*
X145833500Y-86267292D01*
X145833500Y-84540000D01*
X161636844Y-84540000D01*
X161648661Y-84682613D01*
X161655437Y-84764375D01*
X161710702Y-84982612D01*
X161710703Y-84982613D01*
X161801141Y-85188793D01*
X161924275Y-85377265D01*
X161924279Y-85377270D01*
X162076762Y-85542908D01*
X162131331Y-85585381D01*
X162254424Y-85681189D01*
X162452426Y-85788342D01*
X162452427Y-85788342D01*
X162452428Y-85788343D01*
X162564227Y-85826723D01*
X162665365Y-85861444D01*
X162887431Y-85898500D01*
X162887435Y-85898500D01*
X163112565Y-85898500D01*
X163112569Y-85898500D01*
X163334635Y-85861444D01*
X163547574Y-85788342D01*
X163745576Y-85681189D01*
X163923240Y-85542906D01*
X164075722Y-85377268D01*
X164198860Y-85188791D01*
X164289296Y-84982616D01*
X164344564Y-84764368D01*
X164363156Y-84540000D01*
X164344564Y-84315632D01*
X164289296Y-84097384D01*
X164198860Y-83891209D01*
X164137563Y-83797387D01*
X164075724Y-83702734D01*
X164075719Y-83702729D01*
X163932524Y-83547179D01*
X163901103Y-83483514D01*
X163909090Y-83412968D01*
X163953948Y-83357939D01*
X163981183Y-83343789D01*
X164096204Y-83300889D01*
X164213261Y-83213261D01*
X164300887Y-83096207D01*
X164300887Y-83096206D01*
X164300889Y-83096204D01*
X164351989Y-82959201D01*
X164353157Y-82948342D01*
X164358499Y-82898649D01*
X164358500Y-82898632D01*
X164358500Y-81101367D01*
X164358499Y-81101350D01*
X164351990Y-81040803D01*
X164351988Y-81040795D01*
X164300889Y-80903797D01*
X164300887Y-80903792D01*
X164213261Y-80786738D01*
X164096207Y-80699112D01*
X164096202Y-80699110D01*
X163959204Y-80648011D01*
X163959196Y-80648009D01*
X163898649Y-80641500D01*
X163898638Y-80641500D01*
X162101362Y-80641500D01*
X162101350Y-80641500D01*
X162040803Y-80648009D01*
X162040795Y-80648011D01*
X161903797Y-80699110D01*
X161903792Y-80699112D01*
X161786738Y-80786738D01*
X161699112Y-80903792D01*
X161699110Y-80903797D01*
X161648011Y-81040795D01*
X161648009Y-81040803D01*
X161641500Y-81101350D01*
X161641500Y-82898649D01*
X161648009Y-82959196D01*
X161648011Y-82959204D01*
X161699110Y-83096202D01*
X161699112Y-83096207D01*
X161786738Y-83213261D01*
X161903791Y-83300886D01*
X161903792Y-83300886D01*
X161903796Y-83300889D01*
X162018810Y-83343787D01*
X162075642Y-83386332D01*
X162100453Y-83452852D01*
X162085362Y-83522226D01*
X162067475Y-83547179D01*
X161924280Y-83702729D01*
X161924275Y-83702734D01*
X161801141Y-83891206D01*
X161710703Y-84097386D01*
X161710702Y-84097387D01*
X161655437Y-84315624D01*
X161655436Y-84315630D01*
X161655436Y-84315632D01*
X161636844Y-84540000D01*
X145833500Y-84540000D01*
X145833500Y-78800000D01*
X153436496Y-78800000D01*
X153456457Y-78989927D01*
X153486526Y-79082470D01*
X153515473Y-79171556D01*
X153515476Y-79171561D01*
X153610958Y-79336941D01*
X153610965Y-79336951D01*
X153738744Y-79478864D01*
X153738747Y-79478866D01*
X153893248Y-79591118D01*
X154067712Y-79668794D01*
X154254513Y-79708500D01*
X154445487Y-79708500D01*
X154632288Y-79668794D01*
X154806752Y-79591118D01*
X154961253Y-79478866D01*
X155019659Y-79414000D01*
X155089034Y-79336951D01*
X155089035Y-79336949D01*
X155089040Y-79336944D01*
X155184527Y-79171556D01*
X155243542Y-78989928D01*
X155260907Y-78824703D01*
X155287920Y-78759048D01*
X155297113Y-78748789D01*
X161118699Y-72927205D01*
X161181011Y-72893179D01*
X161207794Y-72890300D01*
X168256995Y-72890300D01*
X168325116Y-72910302D01*
X168360208Y-72944029D01*
X168453020Y-73076577D01*
X168453023Y-73076581D01*
X168610219Y-73233777D01*
X168610223Y-73233780D01*
X168610227Y-73233783D01*
X168714124Y-73306532D01*
X168792323Y-73361288D01*
X168993804Y-73455240D01*
X169186799Y-73506953D01*
X169247420Y-73543904D01*
X169278441Y-73607764D01*
X169270013Y-73678259D01*
X169224810Y-73733006D01*
X169186797Y-73750366D01*
X168993976Y-73802031D01*
X168993972Y-73802033D01*
X168792575Y-73895946D01*
X168729394Y-73940185D01*
X169298518Y-74509309D01*
X169233919Y-74526619D01*
X169118080Y-74593498D01*
X169023498Y-74688080D01*
X168956619Y-74803919D01*
X168939309Y-74868518D01*
X168370185Y-74299394D01*
X168325946Y-74362575D01*
X168232033Y-74563972D01*
X168232031Y-74563976D01*
X168174517Y-74778625D01*
X168155149Y-75000000D01*
X168174517Y-75221374D01*
X168232031Y-75436023D01*
X168232033Y-75436027D01*
X168325946Y-75637425D01*
X168370184Y-75700603D01*
X168370185Y-75700603D01*
X168939309Y-75131479D01*
X168956619Y-75196081D01*
X169023498Y-75311920D01*
X169118080Y-75406502D01*
X169233919Y-75473381D01*
X169298519Y-75490690D01*
X168729395Y-76059813D01*
X168729395Y-76059814D01*
X168792575Y-76104053D01*
X168792574Y-76104053D01*
X168993972Y-76197966D01*
X168993979Y-76197969D01*
X169186796Y-76249633D01*
X169247419Y-76286584D01*
X169278441Y-76350445D01*
X169270013Y-76420939D01*
X169224811Y-76475686D01*
X169186798Y-76493047D01*
X168993803Y-76544760D01*
X168993801Y-76544761D01*
X168792323Y-76638712D01*
X168610222Y-76766220D01*
X168610216Y-76766225D01*
X168453025Y-76923416D01*
X168453020Y-76923422D01*
X168325512Y-77105523D01*
X168231561Y-77307001D01*
X168231560Y-77307004D01*
X168174022Y-77521737D01*
X168154647Y-77743200D01*
X168174022Y-77964663D01*
X168188643Y-78019228D01*
X168231559Y-78179393D01*
X168231561Y-78179399D01*
X168325511Y-78380875D01*
X168325512Y-78380877D01*
X168453016Y-78562972D01*
X168453020Y-78562977D01*
X168453023Y-78562981D01*
X168610219Y-78720177D01*
X168610223Y-78720180D01*
X168610227Y-78720183D01*
X168701472Y-78784073D01*
X168792323Y-78847688D01*
X168993804Y-78941640D01*
X169185831Y-78993094D01*
X169246453Y-79030045D01*
X169277474Y-79093905D01*
X169269046Y-79164400D01*
X169223843Y-79219147D01*
X169185833Y-79236505D01*
X169075378Y-79266102D01*
X168993806Y-79287959D01*
X168993801Y-79287961D01*
X168792323Y-79381912D01*
X168610222Y-79509420D01*
X168610216Y-79509425D01*
X168453025Y-79666616D01*
X168453020Y-79666622D01*
X168325512Y-79848723D01*
X168231561Y-80050201D01*
X168231560Y-80050204D01*
X168174022Y-80264937D01*
X168154647Y-80486400D01*
X168174022Y-80707863D01*
X168195157Y-80786738D01*
X168231559Y-80922593D01*
X168231561Y-80922599D01*
X168325511Y-81124075D01*
X168325512Y-81124077D01*
X168453016Y-81306172D01*
X168453020Y-81306177D01*
X168453023Y-81306181D01*
X168610219Y-81463377D01*
X168610223Y-81463380D01*
X168610227Y-81463383D01*
X168672529Y-81507007D01*
X168792323Y-81590888D01*
X168993804Y-81684840D01*
X169208537Y-81742378D01*
X169430000Y-81761753D01*
X169651463Y-81742378D01*
X169866196Y-81684840D01*
X170067677Y-81590888D01*
X170249781Y-81463377D01*
X170406977Y-81306181D01*
X170534488Y-81124077D01*
X170628440Y-80922596D01*
X170685978Y-80707863D01*
X170705353Y-80486400D01*
X170685978Y-80264937D01*
X170628440Y-80050204D01*
X170534488Y-79848724D01*
X170406977Y-79666619D01*
X170249781Y-79509423D01*
X170249777Y-79509420D01*
X170249772Y-79509416D01*
X170067677Y-79381912D01*
X170067675Y-79381911D01*
X169866199Y-79287961D01*
X169866194Y-79287959D01*
X169800687Y-79270406D01*
X169674166Y-79236505D01*
X169613546Y-79199555D01*
X169582525Y-79135695D01*
X169590953Y-79065200D01*
X169636156Y-79010453D01*
X169674164Y-78993095D01*
X169866196Y-78941640D01*
X170067677Y-78847688D01*
X170249781Y-78720177D01*
X170406977Y-78562981D01*
X170534488Y-78380877D01*
X170628440Y-78179396D01*
X170685978Y-77964663D01*
X170705353Y-77743200D01*
X170685978Y-77521737D01*
X170628440Y-77307004D01*
X170534488Y-77105524D01*
X170406977Y-76923419D01*
X170249781Y-76766223D01*
X170249777Y-76766220D01*
X170249772Y-76766216D01*
X170067677Y-76638712D01*
X170067675Y-76638711D01*
X169866199Y-76544761D01*
X169866196Y-76544760D01*
X169673200Y-76493046D01*
X169612579Y-76456095D01*
X169581557Y-76392234D01*
X169589986Y-76321740D01*
X169635189Y-76266993D01*
X169673203Y-76249633D01*
X169866020Y-76197969D01*
X169866027Y-76197966D01*
X170067425Y-76104053D01*
X170067426Y-76104052D01*
X170130603Y-76059814D01*
X170130603Y-76059812D01*
X169561481Y-75490690D01*
X169626081Y-75473381D01*
X169741920Y-75406502D01*
X169836502Y-75311920D01*
X169903381Y-75196081D01*
X169920690Y-75131481D01*
X170489812Y-75700603D01*
X170489814Y-75700603D01*
X170534052Y-75637426D01*
X170534053Y-75637425D01*
X170627966Y-75436027D01*
X170627968Y-75436023D01*
X170685482Y-75221374D01*
X170704850Y-75000000D01*
X170685482Y-74778625D01*
X170627968Y-74563976D01*
X170627966Y-74563972D01*
X170534051Y-74362571D01*
X170489815Y-74299395D01*
X170489813Y-74299395D01*
X169920690Y-74868518D01*
X169903381Y-74803919D01*
X169836502Y-74688080D01*
X169741920Y-74593498D01*
X169626081Y-74526619D01*
X169561480Y-74509309D01*
X170130603Y-73940185D01*
X170130603Y-73940184D01*
X170067425Y-73895946D01*
X169866027Y-73802033D01*
X169866023Y-73802031D01*
X169673202Y-73750366D01*
X169612579Y-73713414D01*
X169581558Y-73649554D01*
X169584087Y-73628400D01*
X170694647Y-73628400D01*
X170714022Y-73849863D01*
X170727365Y-73899658D01*
X170771559Y-74064593D01*
X170771561Y-74064599D01*
X170865511Y-74266075D01*
X170865512Y-74266077D01*
X170993016Y-74448172D01*
X170993020Y-74448177D01*
X170993023Y-74448181D01*
X171150219Y-74605377D01*
X171150223Y-74605380D01*
X171150227Y-74605383D01*
X171200794Y-74640790D01*
X171332323Y-74732888D01*
X171533804Y-74826840D01*
X171725831Y-74878294D01*
X171786453Y-74915245D01*
X171817474Y-74979105D01*
X171809046Y-75049600D01*
X171763843Y-75104347D01*
X171725833Y-75121705D01*
X171615378Y-75151302D01*
X171533806Y-75173159D01*
X171533801Y-75173161D01*
X171332323Y-75267112D01*
X171150222Y-75394620D01*
X171150216Y-75394625D01*
X170993025Y-75551816D01*
X170993020Y-75551822D01*
X170865512Y-75733923D01*
X170771561Y-75935401D01*
X170771559Y-75935406D01*
X170761967Y-75971206D01*
X170714022Y-76150137D01*
X170694647Y-76371600D01*
X170714022Y-76593063D01*
X170726254Y-76638712D01*
X170771559Y-76807793D01*
X170771561Y-76807799D01*
X170865511Y-77009275D01*
X170865512Y-77009277D01*
X170993016Y-77191372D01*
X170993020Y-77191377D01*
X170993023Y-77191381D01*
X171150219Y-77348577D01*
X171150223Y-77348580D01*
X171150227Y-77348583D01*
X171254124Y-77421332D01*
X171332323Y-77476088D01*
X171533804Y-77570040D01*
X171725831Y-77621494D01*
X171786453Y-77658445D01*
X171817474Y-77722305D01*
X171809046Y-77792800D01*
X171763843Y-77847547D01*
X171725833Y-77864905D01*
X171637327Y-77888621D01*
X171533806Y-77916359D01*
X171533801Y-77916361D01*
X171332323Y-78010312D01*
X171150222Y-78137820D01*
X171150216Y-78137825D01*
X170993025Y-78295016D01*
X170993020Y-78295022D01*
X170865512Y-78477123D01*
X170771561Y-78678601D01*
X170771559Y-78678606D01*
X170761169Y-78717384D01*
X170714022Y-78893337D01*
X170694647Y-79114800D01*
X170714022Y-79336263D01*
X170734852Y-79414000D01*
X170771559Y-79550993D01*
X170771561Y-79550999D01*
X170865511Y-79752475D01*
X170865512Y-79752477D01*
X170993016Y-79934572D01*
X170993020Y-79934577D01*
X170993023Y-79934581D01*
X171150219Y-80091777D01*
X171150223Y-80091780D01*
X171150227Y-80091783D01*
X171251270Y-80162534D01*
X171332323Y-80219288D01*
X171533804Y-80313240D01*
X171748537Y-80370778D01*
X171970000Y-80390153D01*
X172191463Y-80370778D01*
X172406196Y-80313240D01*
X172607677Y-80219288D01*
X172789781Y-80091777D01*
X172946977Y-79934581D01*
X173074488Y-79752477D01*
X173168440Y-79550996D01*
X173225978Y-79336263D01*
X173245353Y-79114800D01*
X173225978Y-78893337D01*
X173168440Y-78678604D01*
X173074488Y-78477124D01*
X172946977Y-78295019D01*
X172789781Y-78137823D01*
X172789777Y-78137820D01*
X172789772Y-78137816D01*
X172607677Y-78010312D01*
X172607675Y-78010311D01*
X172406199Y-77916361D01*
X172406194Y-77916359D01*
X172339602Y-77898516D01*
X172214166Y-77864905D01*
X172153546Y-77827955D01*
X172122525Y-77764095D01*
X172130953Y-77693600D01*
X172176156Y-77638853D01*
X172214164Y-77621495D01*
X172406196Y-77570040D01*
X172607677Y-77476088D01*
X172789781Y-77348577D01*
X172946977Y-77191381D01*
X173074488Y-77009277D01*
X173168440Y-76807796D01*
X173225978Y-76593063D01*
X173245353Y-76371600D01*
X173225978Y-76150137D01*
X173168440Y-75935404D01*
X173074488Y-75733924D01*
X172946977Y-75551819D01*
X172789781Y-75394623D01*
X172789777Y-75394620D01*
X172789772Y-75394616D01*
X172607677Y-75267112D01*
X172607675Y-75267111D01*
X172406199Y-75173161D01*
X172406194Y-75173159D01*
X172340687Y-75155606D01*
X172214166Y-75121705D01*
X172153546Y-75084755D01*
X172122525Y-75020895D01*
X172130953Y-74950400D01*
X172176156Y-74895653D01*
X172214164Y-74878295D01*
X172406196Y-74826840D01*
X172607677Y-74732888D01*
X172789781Y-74605377D01*
X172946977Y-74448181D01*
X173074488Y-74266077D01*
X173168440Y-74064596D01*
X173225978Y-73849863D01*
X173245353Y-73628400D01*
X173225978Y-73406937D01*
X173168440Y-73192204D01*
X173074488Y-72990724D01*
X172946977Y-72808619D01*
X172789781Y-72651423D01*
X172789777Y-72651420D01*
X172789772Y-72651416D01*
X172607677Y-72523912D01*
X172607675Y-72523911D01*
X172406199Y-72429961D01*
X172406196Y-72429960D01*
X172213200Y-72378246D01*
X172152579Y-72341295D01*
X172121557Y-72277434D01*
X172129986Y-72206940D01*
X172175189Y-72152193D01*
X172213203Y-72134833D01*
X172406020Y-72083169D01*
X172406027Y-72083166D01*
X172607425Y-71989253D01*
X172607426Y-71989252D01*
X172670603Y-71945014D01*
X172670603Y-71945012D01*
X172101481Y-71375890D01*
X172166081Y-71358581D01*
X172281920Y-71291702D01*
X172376502Y-71197120D01*
X172443381Y-71081281D01*
X172460690Y-71016681D01*
X173029812Y-71585803D01*
X173029814Y-71585803D01*
X173074052Y-71522626D01*
X173074053Y-71522625D01*
X173167966Y-71321227D01*
X173167968Y-71321223D01*
X173225482Y-71106574D01*
X173244850Y-70885200D01*
X173225482Y-70663825D01*
X173167968Y-70449176D01*
X173167966Y-70449172D01*
X173074051Y-70247771D01*
X173029815Y-70184595D01*
X173029813Y-70184595D01*
X172460690Y-70753718D01*
X172443381Y-70689119D01*
X172376502Y-70573280D01*
X172281920Y-70478698D01*
X172166081Y-70411819D01*
X172101480Y-70394509D01*
X172670603Y-69825385D01*
X172670603Y-69825384D01*
X172607425Y-69781146D01*
X172406027Y-69687233D01*
X172406023Y-69687231D01*
X172191374Y-69629717D01*
X171970000Y-69610349D01*
X171748625Y-69629717D01*
X171533976Y-69687231D01*
X171533972Y-69687233D01*
X171332575Y-69781146D01*
X171269394Y-69825385D01*
X171838518Y-70394509D01*
X171773919Y-70411819D01*
X171658080Y-70478698D01*
X171563498Y-70573280D01*
X171496619Y-70689119D01*
X171479309Y-70753718D01*
X170910185Y-70184594D01*
X170865946Y-70247775D01*
X170772033Y-70449172D01*
X170772031Y-70449176D01*
X170714517Y-70663825D01*
X170695149Y-70885200D01*
X170714517Y-71106574D01*
X170772031Y-71321223D01*
X170772033Y-71321227D01*
X170865946Y-71522625D01*
X170910184Y-71585803D01*
X170910185Y-71585803D01*
X171479309Y-71016679D01*
X171496619Y-71081281D01*
X171563498Y-71197120D01*
X171658080Y-71291702D01*
X171773919Y-71358581D01*
X171838519Y-71375890D01*
X171269395Y-71945013D01*
X171269395Y-71945014D01*
X171332575Y-71989253D01*
X171332574Y-71989253D01*
X171533972Y-72083166D01*
X171533979Y-72083169D01*
X171726796Y-72134833D01*
X171787419Y-72171784D01*
X171818441Y-72235645D01*
X171810013Y-72306139D01*
X171764811Y-72360886D01*
X171726798Y-72378247D01*
X171533803Y-72429960D01*
X171533801Y-72429961D01*
X171332323Y-72523912D01*
X171150222Y-72651420D01*
X171150216Y-72651425D01*
X170993025Y-72808616D01*
X170993020Y-72808622D01*
X170865512Y-72990723D01*
X170771561Y-73192201D01*
X170771560Y-73192204D01*
X170714022Y-73406937D01*
X170694647Y-73628400D01*
X169584087Y-73628400D01*
X169589986Y-73579059D01*
X169635189Y-73524312D01*
X169673196Y-73506954D01*
X169866196Y-73455240D01*
X170067677Y-73361288D01*
X170249781Y-73233777D01*
X170406977Y-73076581D01*
X170534488Y-72894477D01*
X170628440Y-72692996D01*
X170685978Y-72478263D01*
X170705353Y-72256800D01*
X170685978Y-72035337D01*
X170628440Y-71820604D01*
X170534488Y-71619124D01*
X170406977Y-71437019D01*
X170249781Y-71279823D01*
X170249777Y-71279820D01*
X170249772Y-71279816D01*
X170067677Y-71152312D01*
X170067675Y-71152311D01*
X169866199Y-71058361D01*
X169866194Y-71058359D01*
X169797676Y-71040000D01*
X169674166Y-71006905D01*
X169613546Y-70969955D01*
X169582525Y-70906095D01*
X169590953Y-70835600D01*
X169636156Y-70780853D01*
X169674164Y-70763495D01*
X169866196Y-70712040D01*
X170067677Y-70618088D01*
X170249781Y-70490577D01*
X170406977Y-70333381D01*
X170534488Y-70151277D01*
X170628440Y-69949796D01*
X170685978Y-69735063D01*
X170705353Y-69513600D01*
X170685978Y-69292137D01*
X170628440Y-69077404D01*
X170534488Y-68875924D01*
X170406977Y-68693819D01*
X170249781Y-68536623D01*
X170249777Y-68536620D01*
X170249772Y-68536616D01*
X170067677Y-68409112D01*
X170067675Y-68409111D01*
X169866199Y-68315161D01*
X169866193Y-68315159D01*
X169804554Y-68298643D01*
X169651463Y-68257622D01*
X169430000Y-68238247D01*
X169208537Y-68257622D01*
X169093463Y-68288456D01*
X168993806Y-68315159D01*
X168993801Y-68315161D01*
X168792323Y-68409112D01*
X168610222Y-68536620D01*
X168610216Y-68536625D01*
X168453025Y-68693816D01*
X168453020Y-68693822D01*
X168325512Y-68875923D01*
X168267654Y-69000000D01*
X168231560Y-69077404D01*
X168174022Y-69292137D01*
X168154647Y-69513600D01*
X168174022Y-69735063D01*
X168198224Y-69825384D01*
X168231559Y-69949793D01*
X168231561Y-69949799D01*
X168325511Y-70151275D01*
X168325512Y-70151277D01*
X168453016Y-70333372D01*
X168453020Y-70333377D01*
X168453023Y-70333381D01*
X168610219Y-70490577D01*
X168610223Y-70490580D01*
X168610227Y-70490583D01*
X168676652Y-70537094D01*
X168792323Y-70618088D01*
X168993804Y-70712040D01*
X169185831Y-70763494D01*
X169246453Y-70800445D01*
X169277474Y-70864305D01*
X169269046Y-70934800D01*
X169223843Y-70989547D01*
X169185833Y-71006905D01*
X169075378Y-71036502D01*
X168993806Y-71058359D01*
X168993801Y-71058361D01*
X168792323Y-71152312D01*
X168610222Y-71279820D01*
X168610216Y-71279825D01*
X168453025Y-71437016D01*
X168453020Y-71437022D01*
X168360209Y-71569571D01*
X168304752Y-71613899D01*
X168256996Y-71623300D01*
X160830803Y-71623300D01*
X160757768Y-71637828D01*
X160708415Y-71647645D01*
X160708413Y-71647645D01*
X160708412Y-71647646D01*
X160593123Y-71695401D01*
X160489371Y-71764726D01*
X160489364Y-71764731D01*
X154399501Y-77854595D01*
X154337189Y-77888621D01*
X154310406Y-77891500D01*
X154254513Y-77891500D01*
X154067711Y-77931206D01*
X153893247Y-78008882D01*
X153738744Y-78121135D01*
X153610965Y-78263048D01*
X153610958Y-78263058D01*
X153515476Y-78428438D01*
X153515473Y-78428445D01*
X153456457Y-78610072D01*
X153436496Y-78800000D01*
X145833500Y-78800000D01*
X145833500Y-72477607D01*
X145833499Y-72477603D01*
X145809155Y-72355215D01*
X145761400Y-72239925D01*
X145692071Y-72136167D01*
X145603833Y-72047929D01*
X141095904Y-67540000D01*
X161636844Y-67540000D01*
X161653270Y-67738232D01*
X161655437Y-67764375D01*
X161710702Y-67982612D01*
X161710703Y-67982613D01*
X161710704Y-67982616D01*
X161801140Y-68188791D01*
X161801141Y-68188793D01*
X161924275Y-68377265D01*
X161924279Y-68377270D01*
X162076762Y-68542908D01*
X162095365Y-68557387D01*
X162254424Y-68681189D01*
X162452426Y-68788342D01*
X162452427Y-68788342D01*
X162452428Y-68788343D01*
X162564227Y-68826723D01*
X162665365Y-68861444D01*
X162887431Y-68898500D01*
X162887435Y-68898500D01*
X163112565Y-68898500D01*
X163112569Y-68898500D01*
X163334635Y-68861444D01*
X163547574Y-68788342D01*
X163745576Y-68681189D01*
X163923240Y-68542906D01*
X164075722Y-68377268D01*
X164198860Y-68188791D01*
X164289296Y-67982616D01*
X164344564Y-67764368D01*
X164363156Y-67540000D01*
X164344564Y-67315632D01*
X164305380Y-67160898D01*
X164289297Y-67097387D01*
X164289296Y-67097386D01*
X164289296Y-67097384D01*
X164198860Y-66891209D01*
X164083084Y-66714000D01*
X164075724Y-66702734D01*
X164075719Y-66702729D01*
X164058816Y-66684368D01*
X163932524Y-66547179D01*
X163901103Y-66483514D01*
X163909090Y-66412968D01*
X163953948Y-66357939D01*
X163981183Y-66343789D01*
X164096204Y-66300889D01*
X164213261Y-66213261D01*
X164300889Y-66096204D01*
X164351989Y-65959201D01*
X164358500Y-65898638D01*
X164358500Y-64101362D01*
X164358499Y-64101350D01*
X164351990Y-64040803D01*
X164351988Y-64040795D01*
X164300889Y-63903797D01*
X164300887Y-63903792D01*
X164213261Y-63786738D01*
X164096207Y-63699112D01*
X164096202Y-63699110D01*
X163959204Y-63648011D01*
X163959196Y-63648009D01*
X163898649Y-63641500D01*
X163898638Y-63641500D01*
X162101362Y-63641500D01*
X162101350Y-63641500D01*
X162040803Y-63648009D01*
X162040795Y-63648011D01*
X161903797Y-63699110D01*
X161903792Y-63699112D01*
X161786738Y-63786738D01*
X161699112Y-63903792D01*
X161699110Y-63903797D01*
X161648011Y-64040795D01*
X161648009Y-64040803D01*
X161641500Y-64101350D01*
X161641500Y-65898649D01*
X161648009Y-65959196D01*
X161648011Y-65959204D01*
X161699110Y-66096202D01*
X161699112Y-66096207D01*
X161786738Y-66213261D01*
X161903791Y-66300886D01*
X161903792Y-66300886D01*
X161903796Y-66300889D01*
X162018810Y-66343787D01*
X162075642Y-66386332D01*
X162100453Y-66452852D01*
X162085362Y-66522226D01*
X162067475Y-66547179D01*
X161924280Y-66702729D01*
X161924275Y-66702734D01*
X161801141Y-66891206D01*
X161710703Y-67097386D01*
X161710702Y-67097387D01*
X161655437Y-67315624D01*
X161655436Y-67315630D01*
X161655436Y-67315632D01*
X161636844Y-67540000D01*
X141095904Y-67540000D01*
X137929866Y-64373962D01*
X137895840Y-64311650D01*
X137896816Y-64253937D01*
X137924564Y-64144368D01*
X137943156Y-63920000D01*
X137924564Y-63695632D01*
X137888534Y-63553354D01*
X137869297Y-63477387D01*
X137869296Y-63477386D01*
X137869296Y-63477384D01*
X137778860Y-63271209D01*
X137772140Y-63260924D01*
X137655724Y-63082734D01*
X137655720Y-63082729D01*
X137503237Y-62917091D01*
X137400349Y-62837010D01*
X137325576Y-62778811D01*
X137127574Y-62671658D01*
X137127572Y-62671657D01*
X137127571Y-62671656D01*
X136914639Y-62598557D01*
X136914630Y-62598555D01*
X136870476Y-62591187D01*
X136692569Y-62561500D01*
X136467431Y-62561500D01*
X136319211Y-62586233D01*
X136245369Y-62598555D01*
X136245360Y-62598557D01*
X136032428Y-62671656D01*
X136032426Y-62671658D01*
X135834426Y-62778810D01*
X135834424Y-62778811D01*
X135656762Y-62917091D01*
X135504279Y-63082729D01*
X135415483Y-63218643D01*
X135361479Y-63264731D01*
X135291131Y-63274306D01*
X135226774Y-63244329D01*
X135204517Y-63218643D01*
X135115720Y-63082729D01*
X134963237Y-62917091D01*
X134860349Y-62837010D01*
X134785576Y-62778811D01*
X134587574Y-62671658D01*
X134587572Y-62671657D01*
X134587571Y-62671656D01*
X134374639Y-62598557D01*
X134374630Y-62598555D01*
X134330476Y-62591187D01*
X134152569Y-62561500D01*
X133927431Y-62561500D01*
X133779211Y-62586233D01*
X133705369Y-62598555D01*
X133705360Y-62598557D01*
X133492428Y-62671656D01*
X133492426Y-62671658D01*
X133294426Y-62778810D01*
X133294424Y-62778811D01*
X133116762Y-62917091D01*
X132964279Y-63082729D01*
X132964275Y-63082734D01*
X132841141Y-63271206D01*
X132750703Y-63477386D01*
X132750702Y-63477387D01*
X132695437Y-63695624D01*
X132695436Y-63695630D01*
X132695436Y-63695632D01*
X132676844Y-63920000D01*
X125075500Y-63920000D01*
X125075500Y-62477800D01*
X167647197Y-62477800D01*
X167666391Y-62819602D01*
X167723735Y-63157106D01*
X167818511Y-63486081D01*
X167949519Y-63802360D01*
X167949522Y-63802365D01*
X168115115Y-64101985D01*
X168313215Y-64381181D01*
X168313231Y-64381201D01*
X168371823Y-64446766D01*
X169366856Y-63451733D01*
X169440688Y-63553354D01*
X169624446Y-63737112D01*
X169726065Y-63810942D01*
X168731032Y-64805975D01*
X168796598Y-64864568D01*
X168796618Y-64864584D01*
X169075814Y-65062684D01*
X169375434Y-65228277D01*
X169375439Y-65228280D01*
X169691718Y-65359288D01*
X170020693Y-65454064D01*
X170358197Y-65511408D01*
X170700000Y-65530602D01*
X171041802Y-65511408D01*
X171379306Y-65454064D01*
X171708281Y-65359288D01*
X172024560Y-65228280D01*
X172024565Y-65228277D01*
X172324185Y-65062684D01*
X172603385Y-64864581D01*
X172603387Y-64864580D01*
X172668965Y-64805975D01*
X171673933Y-63810943D01*
X171775554Y-63737112D01*
X171959312Y-63553354D01*
X172033143Y-63451733D01*
X173028175Y-64446765D01*
X173086780Y-64381187D01*
X173086781Y-64381185D01*
X173284884Y-64101985D01*
X173450477Y-63802365D01*
X173450480Y-63802360D01*
X173581488Y-63486081D01*
X173676264Y-63157106D01*
X173733608Y-62819602D01*
X173752802Y-62477800D01*
X173733608Y-62135997D01*
X173676264Y-61798493D01*
X173581488Y-61469518D01*
X173450480Y-61153239D01*
X173450477Y-61153234D01*
X173284884Y-60853614D01*
X173086784Y-60574418D01*
X173086768Y-60574398D01*
X173028175Y-60508832D01*
X172033142Y-61503864D01*
X171959312Y-61402246D01*
X171775554Y-61218488D01*
X171673933Y-61144656D01*
X172668966Y-60149623D01*
X172603401Y-60091031D01*
X172603381Y-60091015D01*
X172324185Y-59892915D01*
X172024565Y-59727322D01*
X172024560Y-59727319D01*
X171708281Y-59596311D01*
X171379306Y-59501535D01*
X171041802Y-59444191D01*
X170700000Y-59424997D01*
X170358197Y-59444191D01*
X170020693Y-59501535D01*
X169691718Y-59596311D01*
X169375439Y-59727319D01*
X169375434Y-59727322D01*
X169075819Y-59892913D01*
X168796605Y-60091026D01*
X168731032Y-60149623D01*
X169726065Y-61144656D01*
X169624446Y-61218488D01*
X169440688Y-61402246D01*
X169366856Y-61503865D01*
X168371823Y-60508832D01*
X168313226Y-60574405D01*
X168115113Y-60853619D01*
X167949522Y-61153234D01*
X167949519Y-61153239D01*
X167818511Y-61469518D01*
X167723735Y-61798493D01*
X167666391Y-62135997D01*
X167647197Y-62477800D01*
X125075500Y-62477800D01*
X125075500Y-50201500D01*
X125095502Y-50133379D01*
X125149158Y-50086886D01*
X125201500Y-50075500D01*
X179798500Y-50075500D01*
X179866621Y-50095502D01*
G37*
G04 #@! TD.AperFunction*
M02*
