%TF.GenerationSoftware,KiCad,Pcbnew,8.0.6*%
%TF.CreationDate,2024-12-29T09:41:23-05:00*%
%TF.ProjectId,Beagley-ai-3CAN,42656167-6c65-4792-9d61-692d3343414e,rev?*%
%TF.SameCoordinates,Original*%
%TF.FileFunction,Drillmap*%
%TF.FilePolarity,Positive*%
%FSLAX45Y45*%
G04 Gerber Fmt 4.5, Leading zero omitted, Abs format (unit mm)*
G04 Created by KiCad (PCBNEW 8.0.6) date 2024-12-29 09:41:23*
%MOMM*%
%LPD*%
G01*
G04 APERTURE LIST*
%ADD10C,0.150000*%
%ADD11C,0.200000*%
G04 APERTURE END LIST*
D10*
X12500000Y-14000000D02*
X12500000Y-5000000D01*
X18000000Y-14000000D02*
X12500000Y-14000000D01*
X18000000Y-5000000D02*
X12500000Y-5000000D01*
X18000000Y-5000000D02*
X18000000Y-14000000D01*
D11*
X12753277Y-14318984D02*
X12753277Y-14118984D01*
X12753277Y-14118984D02*
X12800896Y-14118984D01*
X12800896Y-14118984D02*
X12829467Y-14128508D01*
X12829467Y-14128508D02*
X12848515Y-14147555D01*
X12848515Y-14147555D02*
X12858039Y-14166603D01*
X12858039Y-14166603D02*
X12867562Y-14204698D01*
X12867562Y-14204698D02*
X12867562Y-14233269D01*
X12867562Y-14233269D02*
X12858039Y-14271365D01*
X12858039Y-14271365D02*
X12848515Y-14290412D01*
X12848515Y-14290412D02*
X12829467Y-14309460D01*
X12829467Y-14309460D02*
X12800896Y-14318984D01*
X12800896Y-14318984D02*
X12753277Y-14318984D01*
X12953277Y-14318984D02*
X12953277Y-14185650D01*
X12953277Y-14223746D02*
X12962801Y-14204698D01*
X12962801Y-14204698D02*
X12972324Y-14195174D01*
X12972324Y-14195174D02*
X12991372Y-14185650D01*
X12991372Y-14185650D02*
X13010420Y-14185650D01*
X13077086Y-14318984D02*
X13077086Y-14185650D01*
X13077086Y-14118984D02*
X13067562Y-14128508D01*
X13067562Y-14128508D02*
X13077086Y-14138031D01*
X13077086Y-14138031D02*
X13086610Y-14128508D01*
X13086610Y-14128508D02*
X13077086Y-14118984D01*
X13077086Y-14118984D02*
X13077086Y-14138031D01*
X13200896Y-14318984D02*
X13181848Y-14309460D01*
X13181848Y-14309460D02*
X13172324Y-14290412D01*
X13172324Y-14290412D02*
X13172324Y-14118984D01*
X13305658Y-14318984D02*
X13286610Y-14309460D01*
X13286610Y-14309460D02*
X13277086Y-14290412D01*
X13277086Y-14290412D02*
X13277086Y-14118984D01*
X13534229Y-14318984D02*
X13534229Y-14118984D01*
X13534229Y-14118984D02*
X13600896Y-14261841D01*
X13600896Y-14261841D02*
X13667562Y-14118984D01*
X13667562Y-14118984D02*
X13667562Y-14318984D01*
X13848515Y-14318984D02*
X13848515Y-14214222D01*
X13848515Y-14214222D02*
X13838991Y-14195174D01*
X13838991Y-14195174D02*
X13819943Y-14185650D01*
X13819943Y-14185650D02*
X13781848Y-14185650D01*
X13781848Y-14185650D02*
X13762801Y-14195174D01*
X13848515Y-14309460D02*
X13829467Y-14318984D01*
X13829467Y-14318984D02*
X13781848Y-14318984D01*
X13781848Y-14318984D02*
X13762801Y-14309460D01*
X13762801Y-14309460D02*
X13753277Y-14290412D01*
X13753277Y-14290412D02*
X13753277Y-14271365D01*
X13753277Y-14271365D02*
X13762801Y-14252317D01*
X13762801Y-14252317D02*
X13781848Y-14242793D01*
X13781848Y-14242793D02*
X13829467Y-14242793D01*
X13829467Y-14242793D02*
X13848515Y-14233269D01*
X13943753Y-14185650D02*
X13943753Y-14385650D01*
X13943753Y-14195174D02*
X13962801Y-14185650D01*
X13962801Y-14185650D02*
X14000896Y-14185650D01*
X14000896Y-14185650D02*
X14019943Y-14195174D01*
X14019943Y-14195174D02*
X14029467Y-14204698D01*
X14029467Y-14204698D02*
X14038991Y-14223746D01*
X14038991Y-14223746D02*
X14038991Y-14280888D01*
X14038991Y-14280888D02*
X14029467Y-14299936D01*
X14029467Y-14299936D02*
X14019943Y-14309460D01*
X14019943Y-14309460D02*
X14000896Y-14318984D01*
X14000896Y-14318984D02*
X13962801Y-14318984D01*
X13962801Y-14318984D02*
X13943753Y-14309460D01*
X14124705Y-14299936D02*
X14134229Y-14309460D01*
X14134229Y-14309460D02*
X14124705Y-14318984D01*
X14124705Y-14318984D02*
X14115182Y-14309460D01*
X14115182Y-14309460D02*
X14124705Y-14299936D01*
X14124705Y-14299936D02*
X14124705Y-14318984D01*
X14124705Y-14195174D02*
X14134229Y-14204698D01*
X14134229Y-14204698D02*
X14124705Y-14214222D01*
X14124705Y-14214222D02*
X14115182Y-14204698D01*
X14115182Y-14204698D02*
X14124705Y-14195174D01*
X14124705Y-14195174D02*
X14124705Y-14214222D01*
M02*
