<?xml version="1.0" standalone="no"?>
 <!DOCTYPE svg PUBLIC "-//W3C//DTD SVG 1.1//EN" 
 "http://www.w3.org/Graphics/SVG/1.1/DTD/svg11.dtd"> 
<svg
  xmlns:svg="http://www.w3.org/2000/svg"
  xmlns="http://www.w3.org/2000/svg"
  xmlns:xlink="http://www.w3.org/1999/xlink"
  version="1.1"
  width="60.1980mm" height="50.2920mm" viewBox="0.0000 0.0000 60.1980 50.2920">
<title>SVG Image created as usb_lin-F_Paste.svg date 2025/01/14 12:06:42 </title>
  <desc>Image generated by PCBNEW </desc>
<g style="fill:#000000; fill-opacity:1.0000;stroke:#000000; stroke-opacity:1.0000;
stroke-linecap:round; stroke-linejoin:round;"
 transform="translate(0 0) scale(1 1)">
<path style="fill:#000000; fill-opacity:1.0000; stroke:none;fill-rule:evenodd;"
d="M 21.9750,18.3250
21.9940,18.2293
22.0482,18.1482
22.1293,18.0940
22.2250,18.0750
22.9000,18.0750
22.9957,18.0940
23.0768,18.1482
23.1310,18.2293
23.1500,18.3250
23.1500,19.2750
23.1310,19.3707
23.0768,19.4518
22.9957,19.5060
22.9000,19.5250
22.2250,19.5250
22.1293,19.5060
22.0482,19.4518
21.9940,19.3707
21.9750,19.2750
Z" /> 
<path style="fill:#000000; fill-opacity:1.0000; stroke:none;fill-rule:evenodd;"
d="M 24.0500,18.3250
24.0690,18.2293
24.1232,18.1482
24.2043,18.0940
24.3000,18.0750
24.9750,18.0750
25.0707,18.0940
25.1518,18.1482
25.2060,18.2293
25.2250,18.3250
25.2250,19.2750
25.2060,19.3707
25.1518,19.4518
25.0707,19.5060
24.9750,19.5250
24.3000,19.5250
24.2043,19.5060
24.1232,19.4518
24.0690,19.3707
24.0500,19.2750
Z" /> 
<path style="fill:#000000; fill-opacity:1.0000; stroke:none;fill-rule:evenodd;"
d="M 28.2750,33.3750
28.2940,33.2793
28.3482,33.1982
28.4293,33.1440
28.5250,33.1250
29.2000,33.1250
29.2957,33.1440
29.3768,33.1982
29.4310,33.2793
29.4500,33.3750
29.4500,34.3250
29.4310,34.4207
29.3768,34.5018
29.2957,34.5560
29.2000,34.5750
28.5250,34.5750
28.4293,34.5560
28.3482,34.5018
28.2940,34.4207
28.2750,34.3250
Z" /> 
<path style="fill:#000000; fill-opacity:1.0000; stroke:none;fill-rule:evenodd;"
d="M 30.3500,33.3750
30.3690,33.2793
30.4232,33.1982
30.5043,33.1440
30.6000,33.1250
31.2750,33.1250
31.3707,33.1440
31.4518,33.1982
31.5060,33.2793
31.5250,33.3750
31.5250,34.3250
31.5060,34.4207
31.4518,34.5018
31.3707,34.5560
31.2750,34.5750
30.6000,34.5750
30.5043,34.5560
30.4232,34.5018
30.3690,34.4207
30.3500,34.3250
Z" /> 
<path style="fill:#000000; fill-opacity:1.0000; stroke:none;fill-rule:evenodd;"
d="M 29.9500,18.2750
29.9690,18.1793
30.0232,18.0982
30.1043,18.0440
30.2000,18.0250
30.8750,18.0250
30.9707,18.0440
31.0518,18.0982
31.1060,18.1793
31.1250,18.2750
31.1250,19.2250
31.1060,19.3207
31.0518,19.4018
30.9707,19.4560
30.8750,19.4750
30.2000,19.4750
30.1043,19.4560
30.0232,19.4018
29.9690,19.3207
29.9500,19.2250
Z" /> 
<path style="fill:#000000; fill-opacity:1.0000; stroke:none;fill-rule:evenodd;"
d="M 32.0250,18.2750
32.0440,18.1793
32.0982,18.0982
32.1793,18.0440
32.2750,18.0250
32.9500,18.0250
33.0457,18.0440
33.1268,18.0982
33.1810,18.1793
33.2000,18.2750
33.2000,19.2250
33.1810,19.3207
33.1268,19.4018
33.0457,19.4560
32.9500,19.4750
32.2750,19.4750
32.1793,19.4560
32.0982,19.4018
32.0440,19.3207
32.0250,19.2250
Z" /> 
<path style="fill:#000000; fill-opacity:1.0000; stroke:none;fill-rule:evenodd;"
d="M 27.2250,19.5250
27.1293,19.5060
27.0482,19.4518
26.9940,19.3707
26.9750,19.2750
26.9750,18.6000
26.9940,18.5043
27.0482,18.4232
27.1293,18.3690
27.2250,18.3500
28.1750,18.3500
28.2707,18.3690
28.3518,18.4232
28.4060,18.5043
28.4250,18.6000
28.4250,19.2750
28.4060,19.3707
28.3518,19.4518
28.2707,19.5060
28.1750,19.5250
Z" /> 
<path style="fill:#000000; fill-opacity:1.0000; stroke:none;fill-rule:evenodd;"
d="M 27.2250,17.4500
27.1293,17.4310
27.0482,17.3768
26.9940,17.2957
26.9750,17.2000
26.9750,16.5250
26.9940,16.4293
27.0482,16.3482
27.1293,16.2940
27.2250,16.2750
28.1750,16.2750
28.2707,16.2940
28.3518,16.3482
28.4060,16.4293
28.4250,16.5250
28.4250,17.2000
28.4060,17.2957
28.3518,17.3768
28.2707,17.4310
28.1750,17.4500
Z" /> 
<path style="fill:#000000; fill-opacity:1.0000; stroke:none;fill-rule:evenodd;"
d="M 28.1500,21.2050
28.1614,21.1476
28.1939,21.0989
28.2426,21.0664
28.3000,21.0550
29.9500,21.0550
30.0074,21.0664
30.0561,21.0989
30.0886,21.1476
30.1000,21.2050
30.1000,21.5050
30.0886,21.5624
30.0561,21.6111
30.0074,21.6436
29.9500,21.6550
28.3000,21.6550
28.2426,21.6436
28.1939,21.6111
28.1614,21.5624
28.1500,21.5050
Z" /> 
<path style="fill:#000000; fill-opacity:1.0000; stroke:none;fill-rule:evenodd;"
d="M 28.1500,22.4750
28.1614,22.4176
28.1939,22.3689
28.2426,22.3364
28.3000,22.3250
29.9500,22.3250
30.0074,22.3364
30.0561,22.3689
30.0886,22.4176
30.1000,22.4750
30.1000,22.7750
30.0886,22.8324
30.0561,22.8811
30.0074,22.9136
29.9500,22.9250
28.3000,22.9250
28.2426,22.9136
28.1939,22.8811
28.1614,22.8324
28.1500,22.7750
Z" /> 
<path style="fill:#000000; fill-opacity:1.0000; stroke:none;fill-rule:evenodd;"
d="M 28.1500,23.7450
28.1614,23.6876
28.1939,23.6389
28.2426,23.6064
28.3000,23.5950
29.9500,23.5950
30.0074,23.6064
30.0561,23.6389
30.0886,23.6876
30.1000,23.7450
30.1000,24.0450
30.0886,24.1024
30.0561,24.1511
30.0074,24.1836
29.9500,24.1950
28.3000,24.1950
28.2426,24.1836
28.1939,24.1511
28.1614,24.1024
28.1500,24.0450
Z" /> 
<path style="fill:#000000; fill-opacity:1.0000; stroke:none;fill-rule:evenodd;"
d="M 28.1500,25.0150
28.1614,24.9576
28.1939,24.9089
28.2426,24.8764
28.3000,24.8650
29.9500,24.8650
30.0074,24.8764
30.0561,24.9089
30.0886,24.9576
30.1000,25.0150
30.1000,25.3150
30.0886,25.3724
30.0561,25.4211
30.0074,25.4536
29.9500,25.4650
28.3000,25.4650
28.2426,25.4536
28.1939,25.4211
28.1614,25.3724
28.1500,25.3150
Z" /> 
<path style="fill:#000000; fill-opacity:1.0000; stroke:none;fill-rule:evenodd;"
d="M 28.1500,26.2850
28.1614,26.2276
28.1939,26.1789
28.2426,26.1464
28.3000,26.1350
29.9500,26.1350
30.0074,26.1464
30.0561,26.1789
30.0886,26.2276
30.1000,26.2850
30.1000,26.5850
30.0886,26.6424
30.0561,26.6911
30.0074,26.7236
29.9500,26.7350
28.3000,26.7350
28.2426,26.7236
28.1939,26.6911
28.1614,26.6424
28.1500,26.5850
Z" /> 
<path style="fill:#000000; fill-opacity:1.0000; stroke:none;fill-rule:evenodd;"
d="M 28.1500,27.5550
28.1614,27.4976
28.1939,27.4489
28.2426,27.4164
28.3000,27.4050
29.9500,27.4050
30.0074,27.4164
30.0561,27.4489
30.0886,27.4976
30.1000,27.5550
30.1000,27.8550
30.0886,27.9124
30.0561,27.9611
30.0074,27.9936
29.9500,28.0050
28.3000,28.0050
28.2426,27.9936
28.1939,27.9611
28.1614,27.9124
28.1500,27.8550
Z" /> 
<path style="fill:#000000; fill-opacity:1.0000; stroke:none;fill-rule:evenodd;"
d="M 28.1500,28.8250
28.1614,28.7676
28.1939,28.7189
28.2426,28.6864
28.3000,28.6750
29.9500,28.6750
30.0074,28.6864
30.0561,28.7189
30.0886,28.7676
30.1000,28.8250
30.1000,29.1250
30.0886,29.1824
30.0561,29.2311
30.0074,29.2636
29.9500,29.2750
28.3000,29.2750
28.2426,29.2636
28.1939,29.2311
28.1614,29.1824
28.1500,29.1250
Z" /> 
<path style="fill:#000000; fill-opacity:1.0000; stroke:none;fill-rule:evenodd;"
d="M 28.1500,30.0950
28.1614,30.0376
28.1939,29.9889
28.2426,29.9564
28.3000,29.9450
29.9500,29.9450
30.0074,29.9564
30.0561,29.9889
30.0886,30.0376
30.1000,30.0950
30.1000,30.3950
30.0886,30.4524
30.0561,30.5011
30.0074,30.5336
29.9500,30.5450
28.3000,30.5450
28.2426,30.5336
28.1939,30.5011
28.1614,30.4524
28.1500,30.3950
Z" /> 
<path style="fill:#000000; fill-opacity:1.0000; stroke:none;fill-rule:evenodd;"
d="M 33.1000,30.0950
33.1114,30.0376
33.1439,29.9889
33.1926,29.9564
33.2500,29.9450
34.9000,29.9450
34.9574,29.9564
35.0061,29.9889
35.0386,30.0376
35.0500,30.0950
35.0500,30.3950
35.0386,30.4524
35.0061,30.5011
34.9574,30.5336
34.9000,30.5450
33.2500,30.5450
33.1926,30.5336
33.1439,30.5011
33.1114,30.4524
33.1000,30.3950
Z" /> 
<path style="fill:#000000; fill-opacity:1.0000; stroke:none;fill-rule:evenodd;"
d="M 33.1000,28.8250
33.1114,28.7676
33.1439,28.7189
33.1926,28.6864
33.2500,28.6750
34.9000,28.6750
34.9574,28.6864
35.0061,28.7189
35.0386,28.7676
35.0500,28.8250
35.0500,29.1250
35.0386,29.1824
35.0061,29.2311
34.9574,29.2636
34.9000,29.2750
33.2500,29.2750
33.1926,29.2636
33.1439,29.2311
33.1114,29.1824
33.1000,29.1250
Z" /> 
<path style="fill:#000000; fill-opacity:1.0000; stroke:none;fill-rule:evenodd;"
d="M 33.1000,27.5550
33.1114,27.4976
33.1439,27.4489
33.1926,27.4164
33.2500,27.4050
34.9000,27.4050
34.9574,27.4164
35.0061,27.4489
35.0386,27.4976
35.0500,27.5550
35.0500,27.8550
35.0386,27.9124
35.0061,27.9611
34.9574,27.9936
34.9000,28.0050
33.2500,28.0050
33.1926,27.9936
33.1439,27.9611
33.1114,27.9124
33.1000,27.8550
Z" /> 
<path style="fill:#000000; fill-opacity:1.0000; stroke:none;fill-rule:evenodd;"
d="M 33.1000,26.2850
33.1114,26.2276
33.1439,26.1789
33.1926,26.1464
33.2500,26.1350
34.9000,26.1350
34.9574,26.1464
35.0061,26.1789
35.0386,26.2276
35.0500,26.2850
35.0500,26.5850
35.0386,26.6424
35.0061,26.6911
34.9574,26.7236
34.9000,26.7350
33.2500,26.7350
33.1926,26.7236
33.1439,26.6911
33.1114,26.6424
33.1000,26.5850
Z" /> 
<path style="fill:#000000; fill-opacity:1.0000; stroke:none;fill-rule:evenodd;"
d="M 33.1000,25.0150
33.1114,24.9576
33.1439,24.9089
33.1926,24.8764
33.2500,24.8650
34.9000,24.8650
34.9574,24.8764
35.0061,24.9089
35.0386,24.9576
35.0500,25.0150
35.0500,25.3150
35.0386,25.3724
35.0061,25.4211
34.9574,25.4536
34.9000,25.4650
33.2500,25.4650
33.1926,25.4536
33.1439,25.4211
33.1114,25.3724
33.1000,25.3150
Z" /> 
<path style="fill:#000000; fill-opacity:1.0000; stroke:none;fill-rule:evenodd;"
d="M 33.1000,23.7450
33.1114,23.6876
33.1439,23.6389
33.1926,23.6064
33.2500,23.5950
34.9000,23.5950
34.9574,23.6064
35.0061,23.6389
35.0386,23.6876
35.0500,23.7450
35.0500,24.0450
35.0386,24.1024
35.0061,24.1511
34.9574,24.1836
34.9000,24.1950
33.2500,24.1950
33.1926,24.1836
33.1439,24.1511
33.1114,24.1024
33.1000,24.0450
Z" /> 
<path style="fill:#000000; fill-opacity:1.0000; stroke:none;fill-rule:evenodd;"
d="M 33.1000,22.4750
33.1114,22.4176
33.1439,22.3689
33.1926,22.3364
33.2500,22.3250
34.9000,22.3250
34.9574,22.3364
35.0061,22.3689
35.0386,22.4176
35.0500,22.4750
35.0500,22.7750
35.0386,22.8324
35.0061,22.8811
34.9574,22.9136
34.9000,22.9250
33.2500,22.9250
33.1926,22.9136
33.1439,22.8811
33.1114,22.8324
33.1000,22.7750
Z" /> 
<path style="fill:#000000; fill-opacity:1.0000; stroke:none;fill-rule:evenodd;"
d="M 33.1000,21.2050
33.1114,21.1476
33.1439,21.0989
33.1926,21.0664
33.2500,21.0550
34.9000,21.0550
34.9574,21.0664
35.0061,21.0989
35.0386,21.1476
35.0500,21.2050
35.0500,21.5050
35.0386,21.5624
35.0061,21.6111
34.9574,21.6436
34.9000,21.6550
33.2500,21.6550
33.1926,21.6436
33.1439,21.6111
33.1114,21.5624
33.1000,21.5050
Z" /> 
<path style="fill:#000000; fill-opacity:1.0000; stroke:none;fill-rule:evenodd;"
d="M 52.0250,21.5500
52.1207,21.5690
52.2018,21.6232
52.2560,21.7043
52.2750,21.8000
52.2750,22.6000
52.2560,22.6957
52.2018,22.7768
52.1207,22.8310
52.0250,22.8500
50.7750,22.8500
50.6793,22.8310
50.5982,22.7768
50.5440,22.6957
50.5250,22.6000
50.5250,21.8000
50.5440,21.7043
50.5982,21.6232
50.6793,21.5690
50.7750,21.5500
Z" /> 
<path style="fill:#000000; fill-opacity:1.0000; stroke:none;fill-rule:evenodd;"
d="M 52.0250,24.6500
52.1207,24.6690
52.2018,24.7232
52.2560,24.8043
52.2750,24.9000
52.2750,25.7000
52.2560,25.7957
52.2018,25.8768
52.1207,25.9310
52.0250,25.9500
50.7750,25.9500
50.6793,25.9310
50.5982,25.8768
50.5440,25.7957
50.5250,25.7000
50.5250,24.9000
50.5440,24.8043
50.5982,24.7232
50.6793,24.6690
50.7750,24.6500
Z" /> 
<path style="fill:#000000; fill-opacity:1.0000; stroke:none;fill-rule:evenodd;"
d="M 41.4094,23.2594
41.4094,22.7006
43.3906,22.7006
43.3906,23.2594
Z" /> 
<path style="fill:#000000; fill-opacity:1.0000; stroke:none;fill-rule:evenodd;"
d="M 41.4094,24.5294
41.4094,23.9706
43.3906,23.9706
43.3906,24.5294
Z" /> 
<path style="fill:#000000; fill-opacity:1.0000; stroke:none;fill-rule:evenodd;"
d="M 41.4094,25.7994
41.4094,25.2406
43.3906,25.2406
43.3906,25.7994
Z" /> 
<path style="fill:#000000; fill-opacity:1.0000; stroke:none;fill-rule:evenodd;"
d="M 41.4094,27.0694
41.4094,26.5106
43.3906,26.5106
43.3906,27.0694
Z" /> 
<path style="fill:#000000; fill-opacity:1.0000; stroke:none;fill-rule:evenodd;"
d="M 46.3370,27.0694
46.3370,26.5106
48.3182,26.5106
48.3182,27.0694
Z" /> 
<path style="fill:#000000; fill-opacity:1.0000; stroke:none;fill-rule:evenodd;"
d="M 46.3370,25.7994
46.3370,25.2406
48.3182,25.2406
48.3182,25.7994
Z" /> 
<path style="fill:#000000; fill-opacity:1.0000; stroke:none;fill-rule:evenodd;"
d="M 46.3370,24.5294
46.3370,23.9706
48.3182,23.9706
48.3182,24.5294
Z" /> 
<path style="fill:#000000; fill-opacity:1.0000; stroke:none;fill-rule:evenodd;"
d="M 46.3370,23.2594
46.3370,22.7006
48.3182,22.7006
48.3182,23.2594
Z" /> 
<path style="fill:#000000; fill-opacity:1.0000; stroke:none;fill-rule:evenodd;"
d="M 54.5750,19.0750
54.5940,18.9793
54.6482,18.8982
54.7293,18.8440
54.8250,18.8250
55.5000,18.8250
55.5957,18.8440
55.6768,18.8982
55.7310,18.9793
55.7500,19.0750
55.7500,20.0250
55.7310,20.1207
55.6768,20.2018
55.5957,20.2560
55.5000,20.2750
54.8250,20.2750
54.7293,20.2560
54.6482,20.2018
54.5940,20.1207
54.5750,20.0250
Z" /> 
<path style="fill:#000000; fill-opacity:1.0000; stroke:none;fill-rule:evenodd;"
d="M 56.6500,19.0750
56.6690,18.9793
56.7232,18.8982
56.8043,18.8440
56.9000,18.8250
57.5750,18.8250
57.6707,18.8440
57.7518,18.8982
57.8060,18.9793
57.8250,19.0750
57.8250,20.0250
57.8060,20.1207
57.7518,20.2018
57.6707,20.2560
57.5750,20.2750
56.9000,20.2750
56.8043,20.2560
56.7232,20.2018
56.6690,20.1207
56.6500,20.0250
Z" /> 
<path style="fill:#000000; fill-opacity:1.0000; stroke:none;fill-rule:evenodd;"
d="M 47.9000,21.1500
47.8810,21.2457
47.8268,21.3268
47.7457,21.3810
47.6500,21.4000
46.9500,21.4000
46.8543,21.3810
46.7732,21.3268
46.7190,21.2457
46.7000,21.1500
46.7000,20.2500
46.7190,20.1543
46.7732,20.0732
46.8543,20.0190
46.9500,20.0000
47.6500,20.0000
47.7457,20.0190
47.8268,20.0732
47.8810,20.1543
47.9000,20.2500
Z" /> 
<path style="fill:#000000; fill-opacity:1.0000; stroke:none;fill-rule:evenodd;"
d="M 45.9000,21.1500
45.8810,21.2457
45.8268,21.3268
45.7457,21.3810
45.6500,21.4000
44.9500,21.4000
44.8543,21.3810
44.7732,21.3268
44.7190,21.2457
44.7000,21.1500
44.7000,20.2500
44.7190,20.1543
44.7732,20.0732
44.8543,20.0190
44.9500,20.0000
45.6500,20.0000
45.7457,20.0190
45.8268,20.0732
45.8810,20.1543
45.9000,20.2500
Z" /> 
</g>
<g style="fill:none; 
stroke:#000000; stroke-width:0.1500; stroke-opacity:1; 
stroke-linecap:round; stroke-linejoin:round;">
<path d="M60.1000 0.2000
L0.1000 0.2000
" />
<path d="M0.1000 0.2000
L0.1000 50.2000
" />
<path d="M0.1000 50.2000
L60.1000 50.2000
" />
<path d="M60.1000 50.2000
L60.1000 0.2000
" />
</g> 
</svg>
