<?xml version="1.0" standalone="no"?>
 <!DOCTYPE svg PUBLIC "-//W3C//DTD SVG 1.1//EN" 
 "http://www.w3.org/Graphics/SVG/1.1/DTD/svg11.dtd"> 
<svg
  xmlns:svg="http://www.w3.org/2000/svg"
  xmlns="http://www.w3.org/2000/svg"
  xmlns:xlink="http://www.w3.org/1999/xlink"
  version="1.1"
  width="92.0750mm" height="70.2818mm" viewBox="0.0000 0.0000 92.0750 70.2818">
<title>SVG Image created as RA2E1-CAN-Rev2-F_Paste.svg date 2025/01/19 13:02:58 </title>
  <desc>Image generated by PCBNEW </desc>
<g style="fill:#000000; fill-opacity:1.0000;stroke:#000000; stroke-opacity:1.0000;
stroke-linecap:round; stroke-linejoin:round;"
 transform="translate(0 0) scale(1 1)">
<path style="fill:#000000; fill-opacity:1.0000; stroke:none;fill-rule:evenodd;"
d="M 53.9262,12.7305
53.9262,12.1717
55.3232,12.1717
55.3232,12.7305
Z" /> 
<path style="fill:#000000; fill-opacity:1.0000; stroke:none;fill-rule:evenodd;"
d="M 53.9262,14.0005
53.9262,13.4417
55.3232,13.4417
55.3232,14.0005
Z" /> 
<path style="fill:#000000; fill-opacity:1.0000; stroke:none;fill-rule:evenodd;"
d="M 53.9262,15.2705
53.9262,14.7117
55.3232,14.7117
55.3232,15.2705
Z" /> 
<path style="fill:#000000; fill-opacity:1.0000; stroke:none;fill-rule:evenodd;"
d="M 53.9262,16.5405
53.9262,15.9817
55.3232,15.9817
55.3232,16.5405
Z" /> 
<path style="fill:#000000; fill-opacity:1.0000; stroke:none;fill-rule:evenodd;"
d="M 53.9262,17.8105
53.9262,17.2517
55.3232,17.2517
55.3232,17.8105
Z" /> 
<path style="fill:#000000; fill-opacity:1.0000; stroke:none;fill-rule:evenodd;"
d="M 53.9262,19.0805
53.9262,18.5217
55.3232,18.5217
55.3232,19.0805
Z" /> 
<path style="fill:#000000; fill-opacity:1.0000; stroke:none;fill-rule:evenodd;"
d="M 53.9262,20.3505
53.9262,19.7917
55.3232,19.7917
55.3232,20.3505
Z" /> 
<path style="fill:#000000; fill-opacity:1.0000; stroke:none;fill-rule:evenodd;"
d="M 59.2348,20.3505
59.2348,19.7917
60.6318,19.7917
60.6318,20.3505
Z" /> 
<path style="fill:#000000; fill-opacity:1.0000; stroke:none;fill-rule:evenodd;"
d="M 59.2348,19.0805
59.2348,18.5217
60.6318,18.5217
60.6318,19.0805
Z" /> 
<path style="fill:#000000; fill-opacity:1.0000; stroke:none;fill-rule:evenodd;"
d="M 59.2348,17.8105
59.2348,17.2517
60.6318,17.2517
60.6318,17.8105
Z" /> 
<path style="fill:#000000; fill-opacity:1.0000; stroke:none;fill-rule:evenodd;"
d="M 59.2348,16.5405
59.2348,15.9817
60.6318,15.9817
60.6318,16.5405
Z" /> 
<path style="fill:#000000; fill-opacity:1.0000; stroke:none;fill-rule:evenodd;"
d="M 59.2348,15.2705
59.2348,14.7117
60.6318,14.7117
60.6318,15.2705
Z" /> 
<path style="fill:#000000; fill-opacity:1.0000; stroke:none;fill-rule:evenodd;"
d="M 59.2348,14.0005
59.2348,13.4417
60.6318,13.4417
60.6318,14.0005
Z" /> 
<path style="fill:#000000; fill-opacity:1.0000; stroke:none;fill-rule:evenodd;"
d="M 59.2348,12.7305
59.2348,12.1717
60.6318,12.1717
60.6318,12.7305
Z" /> 
<path style="fill:#000000; fill-opacity:1.0000; stroke:none;fill-rule:evenodd;"
d="M 59.8520,3.7611
59.8710,3.6654
59.9252,3.5843
60.0063,3.5301
60.1020,3.5111
61.0020,3.5111
61.0977,3.5301
61.1788,3.5843
61.2330,3.6654
61.2520,3.7611
61.2520,6.6111
61.2330,6.7068
61.1788,6.7879
61.0977,6.8420
61.0020,6.8611
60.1020,6.8611
60.0063,6.8420
59.9252,6.7879
59.8710,6.7068
59.8520,6.6111
Z" /> 
<path style="fill:#000000; fill-opacity:1.0000; stroke:none;fill-rule:evenodd;"
d="M 65.9520,3.7611
65.9710,3.6654
66.0252,3.5843
66.1063,3.5301
66.2020,3.5111
67.1020,3.5111
67.1977,3.5301
67.2788,3.5843
67.3330,3.6654
67.3520,3.7611
67.3520,6.6111
67.3330,6.7068
67.2788,6.7879
67.1977,6.8420
67.1020,6.8611
66.2020,6.8611
66.1063,6.8420
66.0252,6.7879
65.9710,6.7068
65.9520,6.6111
Z" /> 
<path style="fill:#000000; fill-opacity:1.0000; stroke:none;fill-rule:evenodd;"
d="M 37.6750,36.3631
37.6750,35.1631
38.1750,35.1631
38.1750,36.3631
Z" /> 
<path style="fill:#000000; fill-opacity:1.0000; stroke:none;fill-rule:evenodd;"
d="M 38.4750,36.3631
38.4750,35.1631
38.9750,35.1631
38.9750,36.3631
Z" /> 
<path style="fill:#000000; fill-opacity:1.0000; stroke:none;fill-rule:evenodd;"
d="M 39.2750,36.3631
39.2750,35.1631
39.7750,35.1631
39.7750,36.3631
Z" /> 
<path style="fill:#000000; fill-opacity:1.0000; stroke:none;fill-rule:evenodd;"
d="M 40.0750,36.3631
40.0750,35.1631
40.5750,35.1631
40.5750,36.3631
Z" /> 
<path style="fill:#000000; fill-opacity:1.0000; stroke:none;fill-rule:evenodd;"
d="M 40.8750,36.3631
40.8750,35.1631
41.3750,35.1631
41.3750,36.3631
Z" /> 
<path style="fill:#000000; fill-opacity:1.0000; stroke:none;fill-rule:evenodd;"
d="M 41.6750,36.3631
41.6750,35.1631
42.1750,35.1631
42.1750,36.3631
Z" /> 
<path style="fill:#000000; fill-opacity:1.0000; stroke:none;fill-rule:evenodd;"
d="M 42.4750,36.3631
42.4750,35.1631
42.9750,35.1631
42.9750,36.3631
Z" /> 
<path style="fill:#000000; fill-opacity:1.0000; stroke:none;fill-rule:evenodd;"
d="M 43.2750,36.3631
43.2750,35.1631
43.7750,35.1631
43.7750,36.3631
Z" /> 
<path style="fill:#000000; fill-opacity:1.0000; stroke:none;fill-rule:evenodd;"
d="M 44.3750,34.5631
44.3750,34.0631
45.5750,34.0631
45.5750,34.5631
Z" /> 
<path style="fill:#000000; fill-opacity:1.0000; stroke:none;fill-rule:evenodd;"
d="M 44.3750,33.7631
44.3750,33.2631
45.5750,33.2631
45.5750,33.7631
Z" /> 
<path style="fill:#000000; fill-opacity:1.0000; stroke:none;fill-rule:evenodd;"
d="M 44.3750,32.9631
44.3750,32.4631
45.5750,32.4631
45.5750,32.9631
Z" /> 
<path style="fill:#000000; fill-opacity:1.0000; stroke:none;fill-rule:evenodd;"
d="M 44.3750,32.1631
44.3750,31.6631
45.5750,31.6631
45.5750,32.1631
Z" /> 
<path style="fill:#000000; fill-opacity:1.0000; stroke:none;fill-rule:evenodd;"
d="M 44.3750,31.3631
44.3750,30.8631
45.5750,30.8631
45.5750,31.3631
Z" /> 
<path style="fill:#000000; fill-opacity:1.0000; stroke:none;fill-rule:evenodd;"
d="M 44.3750,30.5631
44.3750,30.0631
45.5750,30.0631
45.5750,30.5631
Z" /> 
<path style="fill:#000000; fill-opacity:1.0000; stroke:none;fill-rule:evenodd;"
d="M 44.3750,29.7631
44.3750,29.2631
45.5750,29.2631
45.5750,29.7631
Z" /> 
<path style="fill:#000000; fill-opacity:1.0000; stroke:none;fill-rule:evenodd;"
d="M 44.3750,28.9631
44.3750,28.4631
45.5750,28.4631
45.5750,28.9631
Z" /> 
<path style="fill:#000000; fill-opacity:1.0000; stroke:none;fill-rule:evenodd;"
d="M 43.2750,27.8631
43.2750,26.6631
43.7750,26.6631
43.7750,27.8631
Z" /> 
<path style="fill:#000000; fill-opacity:1.0000; stroke:none;fill-rule:evenodd;"
d="M 42.4750,27.8631
42.4750,26.6631
42.9750,26.6631
42.9750,27.8631
Z" /> 
<path style="fill:#000000; fill-opacity:1.0000; stroke:none;fill-rule:evenodd;"
d="M 41.6750,27.8631
41.6750,26.6631
42.1750,26.6631
42.1750,27.8631
Z" /> 
<path style="fill:#000000; fill-opacity:1.0000; stroke:none;fill-rule:evenodd;"
d="M 40.8750,27.8631
40.8750,26.6631
41.3750,26.6631
41.3750,27.8631
Z" /> 
<path style="fill:#000000; fill-opacity:1.0000; stroke:none;fill-rule:evenodd;"
d="M 40.0750,27.8631
40.0750,26.6631
40.5750,26.6631
40.5750,27.8631
Z" /> 
<path style="fill:#000000; fill-opacity:1.0000; stroke:none;fill-rule:evenodd;"
d="M 39.2750,27.8631
39.2750,26.6631
39.7750,26.6631
39.7750,27.8631
Z" /> 
<path style="fill:#000000; fill-opacity:1.0000; stroke:none;fill-rule:evenodd;"
d="M 38.4750,27.8631
38.4750,26.6631
38.9750,26.6631
38.9750,27.8631
Z" /> 
<path style="fill:#000000; fill-opacity:1.0000; stroke:none;fill-rule:evenodd;"
d="M 37.6750,27.8631
37.6750,26.6631
38.1750,26.6631
38.1750,27.8631
Z" /> 
<path style="fill:#000000; fill-opacity:1.0000; stroke:none;fill-rule:evenodd;"
d="M 35.8750,28.9631
35.8750,28.4631
37.0750,28.4631
37.0750,28.9631
Z" /> 
<path style="fill:#000000; fill-opacity:1.0000; stroke:none;fill-rule:evenodd;"
d="M 35.8750,29.7631
35.8750,29.2631
37.0750,29.2631
37.0750,29.7631
Z" /> 
<path style="fill:#000000; fill-opacity:1.0000; stroke:none;fill-rule:evenodd;"
d="M 35.8750,30.5631
35.8750,30.0631
37.0750,30.0631
37.0750,30.5631
Z" /> 
<path style="fill:#000000; fill-opacity:1.0000; stroke:none;fill-rule:evenodd;"
d="M 35.8750,31.3631
35.8750,30.8631
37.0750,30.8631
37.0750,31.3631
Z" /> 
<path style="fill:#000000; fill-opacity:1.0000; stroke:none;fill-rule:evenodd;"
d="M 35.8750,32.1631
35.8750,31.6631
37.0750,31.6631
37.0750,32.1631
Z" /> 
<path style="fill:#000000; fill-opacity:1.0000; stroke:none;fill-rule:evenodd;"
d="M 35.8750,32.9631
35.8750,32.4631
37.0750,32.4631
37.0750,32.9631
Z" /> 
<path style="fill:#000000; fill-opacity:1.0000; stroke:none;fill-rule:evenodd;"
d="M 35.8750,33.7631
35.8750,33.2631
37.0750,33.2631
37.0750,33.7631
Z" /> 
<path style="fill:#000000; fill-opacity:1.0000; stroke:none;fill-rule:evenodd;"
d="M 35.8750,34.5631
35.8750,34.0631
37.0750,34.0631
37.0750,34.5631
Z" /> 
<path style="fill:#000000; fill-opacity:1.0000; stroke:none;fill-rule:evenodd;"
d="M 50.9250,30.5131
51.0207,30.5321
51.1018,30.5863
51.1560,30.6674
51.1750,30.7631
51.1750,31.4631
51.1560,31.5588
51.1018,31.6399
51.0207,31.6940
50.9250,31.7131
50.0250,31.7131
49.9293,31.6940
49.8482,31.6399
49.7940,31.5588
49.7750,31.4631
49.7750,30.7631
49.7940,30.6674
49.8482,30.5863
49.9293,30.5321
50.0250,30.5131
Z" /> 
<path style="fill:#000000; fill-opacity:1.0000; stroke:none;fill-rule:evenodd;"
d="M 50.9250,32.5131
51.0207,32.5321
51.1018,32.5863
51.1560,32.6674
51.1750,32.7631
51.1750,33.4631
51.1560,33.5588
51.1018,33.6399
51.0207,33.6940
50.9250,33.7131
50.0250,33.7131
49.9293,33.6940
49.8482,33.6399
49.7940,33.5588
49.7750,33.4631
49.7750,32.7631
49.7940,32.6674
49.8482,32.5863
49.9293,32.5321
50.0250,32.5131
Z" /> 
<path style="fill:#000000; fill-opacity:1.0000; stroke:none;fill-rule:evenodd;"
d="M 41.8500,38.2381
41.8690,38.1424
41.9232,38.0613
42.0043,38.0071
42.1000,37.9881
42.7750,37.9881
42.8707,38.0071
42.9518,38.0613
43.0060,38.1424
43.0250,38.2381
43.0250,39.1881
43.0060,39.2838
42.9518,39.3649
42.8707,39.4190
42.7750,39.4381
42.1000,39.4381
42.0043,39.4190
41.9232,39.3649
41.8690,39.2838
41.8500,39.1881
Z" /> 
<path style="fill:#000000; fill-opacity:1.0000; stroke:none;fill-rule:evenodd;"
d="M 43.9250,38.2381
43.9440,38.1424
43.9982,38.0613
44.0793,38.0071
44.1750,37.9881
44.8500,37.9881
44.9457,38.0071
45.0268,38.0613
45.0810,38.1424
45.1000,38.2381
45.1000,39.1881
45.0810,39.2838
45.0268,39.3649
44.9457,39.4190
44.8500,39.4381
44.1750,39.4381
44.0793,39.4190
43.9982,39.3649
43.9440,39.2838
43.9250,39.1881
Z" /> 
<path style="fill:#000000; fill-opacity:1.0000; stroke:none;fill-rule:evenodd;"
d="M 53.3680,22.3901
53.3870,22.2944
53.4412,22.2133
53.5223,22.1591
53.6180,22.1401
54.2930,22.1401
54.3887,22.1591
54.4698,22.2133
54.5240,22.2944
54.5430,22.3901
54.5430,23.3401
54.5240,23.4358
54.4698,23.5169
54.3887,23.5710
54.2930,23.5901
53.6180,23.5901
53.5223,23.5710
53.4412,23.5169
53.3870,23.4358
53.3680,23.3401
Z" /> 
<path style="fill:#000000; fill-opacity:1.0000; stroke:none;fill-rule:evenodd;"
d="M 55.4430,22.3901
55.4620,22.2944
55.5162,22.2133
55.5973,22.1591
55.6930,22.1401
56.3680,22.1401
56.4637,22.1591
56.5448,22.2133
56.5990,22.2944
56.6180,22.3901
56.6180,23.3401
56.5990,23.4358
56.5448,23.5169
56.4637,23.5710
56.3680,23.5901
55.6930,23.5901
55.5973,23.5710
55.5162,23.5169
55.4620,23.4358
55.4430,23.3401
Z" /> 
<path style="fill:#000000; fill-opacity:1.0000; stroke:none;fill-rule:evenodd;"
d="M 9.7324,15.4381
9.7324,17.1881
8.7824,17.1881
8.7824,15.4381
Z" /> 
<path style="fill:#000000; fill-opacity:1.0000; stroke:none;fill-rule:evenodd;"
d="M 12.0324,15.4381
12.0324,17.1881
11.0824,17.1881
11.0824,15.4381
Z" /> 
<path style="fill:#000000; fill-opacity:1.0000; stroke:none;fill-rule:evenodd;"
d="M 14.3324,15.4381
14.3324,17.1881
13.3824,17.1881
13.3824,15.4381
Z" /> 
<path style="fill:#000000; fill-opacity:1.0000; stroke:none;fill-rule:evenodd;"
d="M 13.1574,10.8881
9.9574,10.8881
9.9574,9.1381
13.1574,9.1381
Z" /> 
<path style="fill:#000000; fill-opacity:1.0000; stroke:none;fill-rule:evenodd;"
d="M 77.6320,21.4421
77.5363,21.4230
77.4552,21.3689
77.4010,21.2878
77.3820,21.1921
77.3820,20.5171
77.4010,20.4214
77.4552,20.3403
77.5363,20.2861
77.6320,20.2671
78.5820,20.2671
78.6777,20.2861
78.7588,20.3403
78.8130,20.4214
78.8320,20.5171
78.8320,21.1921
78.8130,21.2878
78.7588,21.3689
78.6777,21.4230
78.5820,21.4421
Z" /> 
<path style="fill:#000000; fill-opacity:1.0000; stroke:none;fill-rule:evenodd;"
d="M 77.6320,19.3671
77.5363,19.3481
77.4552,19.2939
77.4010,19.2128
77.3820,19.1171
77.3820,18.4421
77.4010,18.3464
77.4552,18.2653
77.5363,18.2111
77.6320,18.1921
78.5820,18.1921
78.6777,18.2111
78.7588,18.2653
78.8130,18.3464
78.8320,18.4421
78.8320,19.1171
78.8130,19.2128
78.7588,19.2939
78.6777,19.3481
78.5820,19.3671
Z" /> 
<path style="fill:#000000; fill-opacity:1.0000; stroke:none;fill-rule:evenodd;"
d="M 18.4324,8.3881
18.4514,8.2924
18.5056,8.2113
18.5867,8.1571
18.6824,8.1381
19.3574,8.1381
19.4531,8.1571
19.5342,8.2113
19.5884,8.2924
19.6074,8.3881
19.6074,9.3381
19.5884,9.4338
19.5342,9.5149
19.4531,9.5690
19.3574,9.5881
18.6824,9.5881
18.5867,9.5690
18.5056,9.5149
18.4514,9.4338
18.4324,9.3381
Z" /> 
<path style="fill:#000000; fill-opacity:1.0000; stroke:none;fill-rule:evenodd;"
d="M 20.5074,8.3881
20.5264,8.2924
20.5806,8.2113
20.6617,8.1571
20.7574,8.1381
21.4324,8.1381
21.5281,8.1571
21.6092,8.2113
21.6634,8.2924
21.6824,8.3881
21.6824,9.3381
21.6634,9.4338
21.6092,9.5149
21.5281,9.5690
21.4324,9.5881
20.7574,9.5881
20.6617,9.5690
20.5806,9.5149
20.5264,9.4338
20.5074,9.3381
Z" /> 
<path style="fill:#000000; fill-opacity:1.0000; stroke:none;fill-rule:evenodd;"
d="M 39.4350,3.5131
40.1750,3.5131
40.1750,5.9131
39.4350,5.9131
Z" /> 
<path style="fill:#000000; fill-opacity:1.0000; stroke:none;fill-rule:evenodd;"
d="M 39.4350,7.4131
40.1750,7.4131
40.1750,9.8131
39.4350,9.8131
Z" /> 
<path style="fill:#000000; fill-opacity:1.0000; stroke:none;fill-rule:evenodd;"
d="M 38.1650,3.5131
38.9050,3.5131
38.9050,5.9131
38.1650,5.9131
Z" /> 
<path style="fill:#000000; fill-opacity:1.0000; stroke:none;fill-rule:evenodd;"
d="M 38.1650,7.4131
38.9050,7.4131
38.9050,9.8131
38.1650,9.8131
Z" /> 
<path style="fill:#000000; fill-opacity:1.0000; stroke:none;fill-rule:evenodd;"
d="M 36.8950,3.5131
37.6350,3.5131
37.6350,5.9131
36.8950,5.9131
Z" /> 
<path style="fill:#000000; fill-opacity:1.0000; stroke:none;fill-rule:evenodd;"
d="M 36.8950,7.4131
37.6350,7.4131
37.6350,9.8131
36.8950,9.8131
Z" /> 
<path style="fill:#000000; fill-opacity:1.0000; stroke:none;fill-rule:evenodd;"
d="M 35.6250,3.5131
36.3650,3.5131
36.3650,5.9131
35.6250,5.9131
Z" /> 
<path style="fill:#000000; fill-opacity:1.0000; stroke:none;fill-rule:evenodd;"
d="M 35.6250,7.4131
36.3650,7.4131
36.3650,9.8131
35.6250,9.8131
Z" /> 
<path style="fill:#000000; fill-opacity:1.0000; stroke:none;fill-rule:evenodd;"
d="M 34.3550,3.5131
35.0950,3.5131
35.0950,5.9131
34.3550,5.9131
Z" /> 
<path style="fill:#000000; fill-opacity:1.0000; stroke:none;fill-rule:evenodd;"
d="M 34.3550,7.4131
35.0950,7.4131
35.0950,9.8131
34.3550,9.8131
Z" /> 
<path style="fill:#000000; fill-opacity:1.0000; stroke:none;fill-rule:evenodd;"
d="M 33.0850,3.5131
33.8250,3.5131
33.8250,5.9131
33.0850,5.9131
Z" /> 
<path style="fill:#000000; fill-opacity:1.0000; stroke:none;fill-rule:evenodd;"
d="M 33.0850,7.4131
33.8250,7.4131
33.8250,9.8131
33.0850,9.8131
Z" /> 
<path style="fill:#000000; fill-opacity:1.0000; stroke:none;fill-rule:evenodd;"
d="M 31.8150,3.5131
32.5550,3.5131
32.5550,5.9131
31.8150,5.9131
Z" /> 
<path style="fill:#000000; fill-opacity:1.0000; stroke:none;fill-rule:evenodd;"
d="M 31.8150,7.4131
32.5550,7.4131
32.5550,9.8131
31.8150,9.8131
Z" /> 
<path style="fill:#000000; fill-opacity:1.0000; stroke:none;fill-rule:evenodd;"
d="M 30.5450,3.5131
31.2850,3.5131
31.2850,5.9131
30.5450,5.9131
Z" /> 
<path style="fill:#000000; fill-opacity:1.0000; stroke:none;fill-rule:evenodd;"
d="M 30.5450,7.4131
31.2850,7.4131
31.2850,9.8131
30.5450,9.8131
Z" /> 
<path style="fill:#000000; fill-opacity:1.0000; stroke:none;fill-rule:evenodd;"
d="M 29.2750,3.5131
30.0150,3.5131
30.0150,5.9131
29.2750,5.9131
Z" /> 
<path style="fill:#000000; fill-opacity:1.0000; stroke:none;fill-rule:evenodd;"
d="M 29.2750,7.4131
30.0150,7.4131
30.0150,9.8131
29.2750,9.8131
Z" /> 
<path style="fill:#000000; fill-opacity:1.0000; stroke:none;fill-rule:evenodd;"
d="M 28.0050,3.5131
28.7450,3.5131
28.7450,5.9131
28.0050,5.9131
Z" /> 
<path style="fill:#000000; fill-opacity:1.0000; stroke:none;fill-rule:evenodd;"
d="M 28.0050,7.4131
28.7450,7.4131
28.7450,9.8131
28.0050,9.8131
Z" /> 
<path style="fill:#000000; fill-opacity:1.0000; stroke:none;fill-rule:evenodd;"
d="M 63.5960,17.1761
63.6917,17.1951
63.7728,17.2493
63.8270,17.3304
63.8460,17.4261
63.8460,18.1011
63.8270,18.1968
63.7728,18.2779
63.6917,18.3320
63.5960,18.3511
62.6460,18.3511
62.5503,18.3320
62.4692,18.2779
62.4150,18.1968
62.3960,18.1011
62.3960,17.4261
62.4150,17.3304
62.4692,17.2493
62.5503,17.1951
62.6460,17.1761
Z" /> 
<path style="fill:#000000; fill-opacity:1.0000; stroke:none;fill-rule:evenodd;"
d="M 63.5960,19.2511
63.6917,19.2701
63.7728,19.3243
63.8270,19.4054
63.8460,19.5011
63.8460,20.1761
63.8270,20.2718
63.7728,20.3529
63.6917,20.4070
63.5960,20.4261
62.6460,20.4261
62.5503,20.4070
62.4692,20.3529
62.4150,20.2718
62.3960,20.1761
62.3960,19.5011
62.4150,19.4054
62.4692,19.3243
62.5503,19.2701
62.6460,19.2511
Z" /> 
<path style="fill:#000000; fill-opacity:1.0000; stroke:none;fill-rule:evenodd;"
d="M 47.2720,9.4361
47.2910,9.3404
47.3452,9.2593
47.4263,9.2051
47.5220,9.1861
48.1970,9.1861
48.2927,9.2051
48.3738,9.2593
48.4280,9.3404
48.4470,9.4361
48.4470,10.3861
48.4280,10.4818
48.3738,10.5629
48.2927,10.6170
48.1970,10.6361
47.5220,10.6361
47.4263,10.6170
47.3452,10.5629
47.2910,10.4818
47.2720,10.3861
Z" /> 
<path style="fill:#000000; fill-opacity:1.0000; stroke:none;fill-rule:evenodd;"
d="M 49.3470,9.4361
49.3660,9.3404
49.4202,9.2593
49.5013,9.2051
49.5970,9.1861
50.2720,9.1861
50.3677,9.2051
50.4488,9.2593
50.5030,9.3404
50.5220,9.4361
50.5220,10.3861
50.5030,10.4818
50.4488,10.5629
50.3677,10.6170
50.2720,10.6361
49.5970,10.6361
49.5013,10.6170
49.4202,10.5629
49.3660,10.4818
49.3470,10.3861
Z" /> 
<path style="fill:#000000; fill-opacity:1.0000; stroke:none;fill-rule:evenodd;"
d="M 63.5960,11.8421
63.6917,11.8611
63.7728,11.9153
63.8270,11.9964
63.8460,12.0921
63.8460,12.7671
63.8270,12.8628
63.7728,12.9439
63.6917,12.9980
63.5960,13.0171
62.6460,13.0171
62.5503,12.9980
62.4692,12.9439
62.4150,12.8628
62.3960,12.7671
62.3960,12.0921
62.4150,11.9964
62.4692,11.9153
62.5503,11.8611
62.6460,11.8421
Z" /> 
<path style="fill:#000000; fill-opacity:1.0000; stroke:none;fill-rule:evenodd;"
d="M 63.5960,13.9171
63.6917,13.9361
63.7728,13.9903
63.8270,14.0714
63.8460,14.1671
63.8460,14.8421
63.8270,14.9378
63.7728,15.0189
63.6917,15.0730
63.5960,15.0921
62.6460,15.0921
62.5503,15.0730
62.4692,15.0189
62.4150,14.9378
62.3960,14.8421
62.3960,14.1671
62.4150,14.0714
62.4692,13.9903
62.5503,13.9361
62.6460,13.9171
Z" /> 
<path style="fill:#000000; fill-opacity:1.0000; stroke:none;fill-rule:evenodd;"
d="M 21.3000,28.1881
21.3190,28.0924
21.3732,28.0113
21.4543,27.9571
21.5500,27.9381
22.2250,27.9381
22.3207,27.9571
22.4018,28.0113
22.4560,28.0924
22.4750,28.1881
22.4750,29.1381
22.4560,29.2338
22.4018,29.3149
22.3207,29.3690
22.2250,29.3881
21.5500,29.3881
21.4543,29.3690
21.3732,29.3149
21.3190,29.2338
21.3000,29.1381
Z" /> 
<path style="fill:#000000; fill-opacity:1.0000; stroke:none;fill-rule:evenodd;"
d="M 23.3750,28.1881
23.3940,28.0924
23.4482,28.0113
23.5293,27.9571
23.6250,27.9381
24.3000,27.9381
24.3957,27.9571
24.4768,28.0113
24.5310,28.0924
24.5500,28.1881
24.5500,29.1381
24.5310,29.2338
24.4768,29.3149
24.3957,29.3690
24.3000,29.3881
23.6250,29.3881
23.5293,29.3690
23.4482,29.3149
23.3940,29.2338
23.3750,29.1381
Z" /> 
<path style="fill:#000000; fill-opacity:1.0000; stroke:none;fill-rule:evenodd;"
d="M 37.4500,38.2381
37.4690,38.1424
37.5232,38.0613
37.6043,38.0071
37.7000,37.9881
38.3750,37.9881
38.4707,38.0071
38.5518,38.0613
38.6060,38.1424
38.6250,38.2381
38.6250,39.1881
38.6060,39.2838
38.5518,39.3649
38.4707,39.4190
38.3750,39.4381
37.7000,39.4381
37.6043,39.4190
37.5232,39.3649
37.4690,39.2838
37.4500,39.1881
Z" /> 
<path style="fill:#000000; fill-opacity:1.0000; stroke:none;fill-rule:evenodd;"
d="M 39.5250,38.2381
39.5440,38.1424
39.5982,38.0613
39.6793,38.0071
39.7750,37.9881
40.4500,37.9881
40.5457,38.0071
40.6268,38.0613
40.6810,38.1424
40.7000,38.2381
40.7000,39.1881
40.6810,39.2838
40.6268,39.3649
40.5457,39.4190
40.4500,39.4381
39.7750,39.4381
39.6793,39.4190
39.5982,39.3649
39.5440,39.2838
39.5250,39.1881
Z" /> 
</g>
<g style="fill:none; 
stroke:#000000; stroke-width:0.0500; stroke-opacity:1; 
stroke-linecap:round; stroke-linejoin:round;">
<path d="M0.0250 0.2631
L0.0250 70.2631
" />
<path d="M92.0250 0.2631
L92.0250 70.2631
" />
<path d="M92.0250 70.2631
L0.0250 70.2631
" />
<path d="M0.0250 0.2631
L92.0250 0.2631
" />
</g> 
</svg>
