%TF.GenerationSoftware,KiCad,Pcbnew,9.0.0*%
%TF.CreationDate,2025-04-10T11:28:11-04:00*%
%TF.ProjectId,Arduino_LCD,41726475-696e-46f5-9f4c-43442e6b6963,rev?*%
%TF.SameCoordinates,Original*%
%TF.FileFunction,Soldermask,Bot*%
%TF.FilePolarity,Negative*%
%FSLAX46Y46*%
G04 Gerber Fmt 4.6, Leading zero omitted, Abs format (unit mm)*
G04 Created by KiCad (PCBNEW 9.0.0) date 2025-04-10 11:28:11*
%MOMM*%
%LPD*%
G01*
G04 APERTURE LIST*
%ADD10R,1.350000X1.350000*%
%ADD11O,1.350000X1.350000*%
%ADD12O,1.727200X1.727200*%
%ADD13R,1.727200X1.727200*%
%ADD14O,1.700000X1.700000*%
%ADD15R,1.700000X1.700000*%
G04 APERTURE END LIST*
D10*
%TO.C,P5*%
X120000000Y-89300000D03*
D11*
X120000000Y-91300000D03*
X120000000Y-93300000D03*
X120000000Y-95300000D03*
X120000000Y-97300000D03*
X120000000Y-99300000D03*
X120000000Y-101300000D03*
X120000000Y-103300000D03*
%TD*%
D10*
%TO.C,P4*%
X120000000Y-112550000D03*
D11*
X120000000Y-114550000D03*
X120000000Y-116550000D03*
X120000000Y-118550000D03*
%TD*%
D10*
%TO.C,P3*%
X156000000Y-96100000D03*
D11*
X156000000Y-94100000D03*
X156000000Y-92100000D03*
X156000000Y-90100000D03*
X156000000Y-88100000D03*
%TD*%
D12*
%TO.C,P2*%
X113700000Y-85600000D03*
X113700000Y-88140000D03*
X113700000Y-90680000D03*
X113700000Y-93220000D03*
X113700000Y-95760000D03*
X113700000Y-98300000D03*
X113700000Y-100840000D03*
X113700000Y-103380000D03*
X113700000Y-107444000D03*
X113700000Y-109984000D03*
X113700000Y-112524000D03*
X113700000Y-115064000D03*
X113700000Y-117604000D03*
X113700000Y-120144000D03*
D13*
X113700000Y-122684000D03*
D12*
X113700000Y-125224000D03*
X161960000Y-116080000D03*
X161960000Y-113540000D03*
X161960000Y-111000000D03*
D13*
X161960000Y-108460000D03*
X161960000Y-105920000D03*
D12*
X161960000Y-103380000D03*
X161960000Y-98300000D03*
X161960000Y-95760000D03*
X161960000Y-93220000D03*
X161960000Y-90680000D03*
X161960000Y-88140000D03*
X161960000Y-85600000D03*
%TD*%
D14*
%TO.C,P8*%
X156000000Y-105910000D03*
X156000000Y-108450000D03*
D15*
X156000000Y-110990000D03*
%TD*%
M02*
