M48
; DRILL file {KiCad 8.0.6} date 2025-01-12T23:32:54-0500
; FORMAT={-:-/ absolute / inch / decimal}
; #@! TF.CreationDate,2025-01-12T23:32:54-05:00
; #@! TF.GenerationSoftware,Kicad,Pcbnew,8.0.6
; #@! TF.FileFunction,Plated,1,2,PTH
FMAT,2
INCH
; #@! TA.AperFunction,Plated,PTH,ViaDrill
T1C0.0157
; #@! TA.AperFunction,Plated,PTH,ComponentDrill
T2C0.0394
; #@! TA.AperFunction,Plated,PTH,ComponentDrill
T3C0.1063
%
G90
G05
T1
X2.1732Y-2.0185
X2.3031Y-2.0933
X2.6969Y-2.3354
X2.8248Y-1.8118
T2
X1.1969Y-2.113
X1.1969Y-2.213
X1.4614Y-1.7295
X1.4614Y-1.8295
X1.5614Y-1.7295
X1.5614Y-1.8295
X1.6614Y-1.7295
X1.6614Y-1.8295
X1.7614Y-1.7295
X1.7614Y-1.8295
X1.8614Y-1.7295
X1.8614Y-1.8295
X1.9614Y-1.7295
X1.9614Y-1.8295
X2.0614Y-1.7295
X2.0614Y-1.8295
X2.1614Y-1.7295
X2.1614Y-1.8295
X2.2614Y-1.7295
X2.2614Y-1.8295
X2.3614Y-1.7295
X2.3614Y-1.8295
X2.4614Y-1.7295
X2.4614Y-1.8295
X2.5614Y-1.7295
X2.5614Y-1.8295
X2.6614Y-1.7295
X2.6614Y-1.8295
X2.9291Y-1.798
X2.9291Y-1.898
X2.9291Y-1.998
X2.9291Y-2.098
X2.9291Y-2.198
X2.9291Y-2.298
X3.126Y-1.798
X3.126Y-1.898
X3.126Y-1.998
X3.126Y-2.098
X3.126Y-2.198
X3.126Y-2.298
X3.126Y-2.398
X3.126Y-2.498
T3
X1.1811Y-1.7717
X1.1811Y-3.7402
X4.7244Y-1.7717
X4.7244Y-3.7402
M30
