%TF.GenerationSoftware,KiCad,Pcbnew,8.0.6*%
%TF.CreationDate,2025-01-12T23:32:56-05:00*%
%TF.ProjectId,lcd_adapter,6c63645f-6164-4617-9074-65722e6b6963,rev?*%
%TF.SameCoordinates,Original*%
%TF.FileFunction,Drillmap*%
%TF.FilePolarity,Positive*%
%FSLAX45Y45*%
G04 Gerber Fmt 4.5, Leading zero omitted, Abs format (unit mm)*
G04 Created by KiCad (PCBNEW 8.0.6) date 2025-01-12 23:32:56*
%MOMM*%
%LPD*%
G01*
G04 APERTURE LIST*
%ADD10C,0.050000*%
%ADD11C,0.200000*%
G04 APERTURE END LIST*
D10*
X2500000Y-4000000D02*
X2500000Y-10000000D01*
X12500000Y-4000000D02*
X12500000Y-10000000D01*
X2500000Y-4000000D02*
X12500000Y-4000000D01*
X12500000Y-10000000D02*
X2500000Y-10000000D01*
D11*
X2758277Y-10313984D02*
X2758277Y-10113984D01*
X2758277Y-10113984D02*
X2805896Y-10113984D01*
X2805896Y-10113984D02*
X2834467Y-10123508D01*
X2834467Y-10123508D02*
X2853515Y-10142555D01*
X2853515Y-10142555D02*
X2863039Y-10161603D01*
X2863039Y-10161603D02*
X2872562Y-10199698D01*
X2872562Y-10199698D02*
X2872562Y-10228270D01*
X2872562Y-10228270D02*
X2863039Y-10266365D01*
X2863039Y-10266365D02*
X2853515Y-10285412D01*
X2853515Y-10285412D02*
X2834467Y-10304460D01*
X2834467Y-10304460D02*
X2805896Y-10313984D01*
X2805896Y-10313984D02*
X2758277Y-10313984D01*
X2958277Y-10313984D02*
X2958277Y-10180650D01*
X2958277Y-10218746D02*
X2967801Y-10199698D01*
X2967801Y-10199698D02*
X2977324Y-10190174D01*
X2977324Y-10190174D02*
X2996372Y-10180650D01*
X2996372Y-10180650D02*
X3015420Y-10180650D01*
X3082086Y-10313984D02*
X3082086Y-10180650D01*
X3082086Y-10113984D02*
X3072562Y-10123508D01*
X3072562Y-10123508D02*
X3082086Y-10133031D01*
X3082086Y-10133031D02*
X3091610Y-10123508D01*
X3091610Y-10123508D02*
X3082086Y-10113984D01*
X3082086Y-10113984D02*
X3082086Y-10133031D01*
X3205896Y-10313984D02*
X3186848Y-10304460D01*
X3186848Y-10304460D02*
X3177324Y-10285412D01*
X3177324Y-10285412D02*
X3177324Y-10113984D01*
X3310658Y-10313984D02*
X3291610Y-10304460D01*
X3291610Y-10304460D02*
X3282086Y-10285412D01*
X3282086Y-10285412D02*
X3282086Y-10113984D01*
X3539229Y-10313984D02*
X3539229Y-10113984D01*
X3539229Y-10113984D02*
X3605896Y-10256841D01*
X3605896Y-10256841D02*
X3672562Y-10113984D01*
X3672562Y-10113984D02*
X3672562Y-10313984D01*
X3853515Y-10313984D02*
X3853515Y-10209222D01*
X3853515Y-10209222D02*
X3843991Y-10190174D01*
X3843991Y-10190174D02*
X3824943Y-10180650D01*
X3824943Y-10180650D02*
X3786848Y-10180650D01*
X3786848Y-10180650D02*
X3767801Y-10190174D01*
X3853515Y-10304460D02*
X3834467Y-10313984D01*
X3834467Y-10313984D02*
X3786848Y-10313984D01*
X3786848Y-10313984D02*
X3767801Y-10304460D01*
X3767801Y-10304460D02*
X3758277Y-10285412D01*
X3758277Y-10285412D02*
X3758277Y-10266365D01*
X3758277Y-10266365D02*
X3767801Y-10247317D01*
X3767801Y-10247317D02*
X3786848Y-10237793D01*
X3786848Y-10237793D02*
X3834467Y-10237793D01*
X3834467Y-10237793D02*
X3853515Y-10228270D01*
X3948753Y-10180650D02*
X3948753Y-10380650D01*
X3948753Y-10190174D02*
X3967801Y-10180650D01*
X3967801Y-10180650D02*
X4005896Y-10180650D01*
X4005896Y-10180650D02*
X4024943Y-10190174D01*
X4024943Y-10190174D02*
X4034467Y-10199698D01*
X4034467Y-10199698D02*
X4043991Y-10218746D01*
X4043991Y-10218746D02*
X4043991Y-10275889D01*
X4043991Y-10275889D02*
X4034467Y-10294936D01*
X4034467Y-10294936D02*
X4024943Y-10304460D01*
X4024943Y-10304460D02*
X4005896Y-10313984D01*
X4005896Y-10313984D02*
X3967801Y-10313984D01*
X3967801Y-10313984D02*
X3948753Y-10304460D01*
X4129705Y-10294936D02*
X4139229Y-10304460D01*
X4139229Y-10304460D02*
X4129705Y-10313984D01*
X4129705Y-10313984D02*
X4120182Y-10304460D01*
X4120182Y-10304460D02*
X4129705Y-10294936D01*
X4129705Y-10294936D02*
X4129705Y-10313984D01*
X4129705Y-10190174D02*
X4139229Y-10199698D01*
X4139229Y-10199698D02*
X4129705Y-10209222D01*
X4129705Y-10209222D02*
X4120182Y-10199698D01*
X4120182Y-10199698D02*
X4129705Y-10190174D01*
X4129705Y-10190174D02*
X4129705Y-10209222D01*
M02*
