G04 #@! TF.GenerationSoftware,KiCad,Pcbnew,8.0.6*
G04 #@! TF.CreationDate,2025-01-12T23:32:50-05:00*
G04 #@! TF.ProjectId,lcd_adapter,6c63645f-6164-4617-9074-65722e6b6963,rev?*
G04 #@! TF.SameCoordinates,Original*
G04 #@! TF.FileFunction,Legend,Top*
G04 #@! TF.FilePolarity,Positive*
%FSLAX46Y46*%
G04 Gerber Fmt 4.6, Leading zero omitted, Abs format (unit mm)*
G04 Created by KiCad (PCBNEW 8.0.6) date 2025-01-12 23:32:50*
%MOMM*%
%LPD*%
G01*
G04 APERTURE LIST*
%ADD10C,0.150000*%
%ADD11C,0.120000*%
G04 APERTURE END LIST*
D10*
X73661905Y-43794819D02*
X73661905Y-42794819D01*
X73661905Y-42794819D02*
X74042857Y-42794819D01*
X74042857Y-42794819D02*
X74138095Y-42842438D01*
X74138095Y-42842438D02*
X74185714Y-42890057D01*
X74185714Y-42890057D02*
X74233333Y-42985295D01*
X74233333Y-42985295D02*
X74233333Y-43128152D01*
X74233333Y-43128152D02*
X74185714Y-43223390D01*
X74185714Y-43223390D02*
X74138095Y-43271009D01*
X74138095Y-43271009D02*
X74042857Y-43318628D01*
X74042857Y-43318628D02*
X73661905Y-43318628D01*
X75185714Y-43794819D02*
X74614286Y-43794819D01*
X74900000Y-43794819D02*
X74900000Y-42794819D01*
X74900000Y-42794819D02*
X74804762Y-42937676D01*
X74804762Y-42937676D02*
X74709524Y-43032914D01*
X74709524Y-43032914D02*
X74614286Y-43080533D01*
D11*
X29070000Y-52340000D02*
X30400000Y-52340000D01*
X29070000Y-53670000D02*
X29070000Y-52340000D01*
X29070000Y-54940000D02*
X29070000Y-57540000D01*
X29070000Y-54940000D02*
X31730000Y-54940000D01*
X29070000Y-57540000D02*
X31730000Y-57540000D01*
X31730000Y-54940000D02*
X31730000Y-57540000D01*
X80730000Y-46940000D02*
X80730000Y-64780000D01*
X78070000Y-64780000D02*
X80730000Y-64780000D01*
X78070000Y-46940000D02*
X80730000Y-46940000D01*
X78070000Y-46940000D02*
X78070000Y-64780000D01*
X78070000Y-45670000D02*
X78070000Y-44340000D01*
X78070000Y-44340000D02*
X79400000Y-44340000D01*
X73070000Y-44340000D02*
X74400000Y-44340000D01*
X73070000Y-45670000D02*
X73070000Y-44340000D01*
X73070000Y-46940000D02*
X73070000Y-59700000D01*
X73070000Y-46940000D02*
X75730000Y-46940000D01*
X73070000Y-59700000D02*
X75730000Y-59700000D01*
X75730000Y-46940000D02*
X75730000Y-59700000D01*
M02*
