G04 #@! TF.GenerationSoftware,KiCad,Pcbnew,8.0.6*
G04 #@! TF.CreationDate,2025-01-12T23:32:50-05:00*
G04 #@! TF.ProjectId,lcd_adapter,6c63645f-6164-4617-9074-65722e6b6963,rev?*
G04 #@! TF.SameCoordinates,Original*
G04 #@! TF.FileFunction,Copper,L2,Bot*
G04 #@! TF.FilePolarity,Positive*
%FSLAX46Y46*%
G04 Gerber Fmt 4.6, Leading zero omitted, Abs format (unit mm)*
G04 Created by KiCad (PCBNEW 8.0.6) date 2025-01-12 23:32:50*
%MOMM*%
%LPD*%
G01*
G04 APERTURE LIST*
%ADD10C,0.300000*%
G04 #@! TA.AperFunction,NonConductor*
%ADD11C,0.300000*%
G04 #@! TD*
G04 #@! TA.AperFunction,ComponentPad*
%ADD12R,1.700000X1.700000*%
G04 #@! TD*
G04 #@! TA.AperFunction,ComponentPad*
%ADD13O,1.700000X1.700000*%
G04 #@! TD*
G04 #@! TA.AperFunction,ComponentPad*
%ADD14C,4.700000*%
G04 #@! TD*
G04 #@! TA.AperFunction,ViaPad*
%ADD15C,0.800000*%
G04 #@! TD*
G04 #@! TA.AperFunction,Conductor*
%ADD16C,0.250000*%
G04 #@! TD*
G04 APERTURE END LIST*
D10*
D11*
X66599999Y-65723328D02*
X66599999Y-64223328D01*
X66599999Y-64223328D02*
X66099999Y-65294757D01*
X66099999Y-65294757D02*
X65599999Y-64223328D01*
X65599999Y-64223328D02*
X65599999Y-65723328D01*
X64885713Y-65723328D02*
X64885713Y-64723328D01*
X64885713Y-64223328D02*
X64957141Y-64294757D01*
X64957141Y-64294757D02*
X64885713Y-64366185D01*
X64885713Y-64366185D02*
X64814284Y-64294757D01*
X64814284Y-64294757D02*
X64885713Y-64223328D01*
X64885713Y-64223328D02*
X64885713Y-64366185D01*
X63528570Y-65651900D02*
X63671427Y-65723328D01*
X63671427Y-65723328D02*
X63957141Y-65723328D01*
X63957141Y-65723328D02*
X64099998Y-65651900D01*
X64099998Y-65651900D02*
X64171427Y-65580471D01*
X64171427Y-65580471D02*
X64242855Y-65437614D01*
X64242855Y-65437614D02*
X64242855Y-65009042D01*
X64242855Y-65009042D02*
X64171427Y-64866185D01*
X64171427Y-64866185D02*
X64099998Y-64794757D01*
X64099998Y-64794757D02*
X63957141Y-64723328D01*
X63957141Y-64723328D02*
X63671427Y-64723328D01*
X63671427Y-64723328D02*
X63528570Y-64794757D01*
X62885713Y-65723328D02*
X62885713Y-64223328D01*
X62242856Y-65723328D02*
X62242856Y-64937614D01*
X62242856Y-64937614D02*
X62314284Y-64794757D01*
X62314284Y-64794757D02*
X62457141Y-64723328D01*
X62457141Y-64723328D02*
X62671427Y-64723328D01*
X62671427Y-64723328D02*
X62814284Y-64794757D01*
X62814284Y-64794757D02*
X62885713Y-64866185D01*
X60957141Y-65651900D02*
X61099998Y-65723328D01*
X61099998Y-65723328D02*
X61385713Y-65723328D01*
X61385713Y-65723328D02*
X61528570Y-65651900D01*
X61528570Y-65651900D02*
X61599998Y-65509042D01*
X61599998Y-65509042D02*
X61599998Y-64937614D01*
X61599998Y-64937614D02*
X61528570Y-64794757D01*
X61528570Y-64794757D02*
X61385713Y-64723328D01*
X61385713Y-64723328D02*
X61099998Y-64723328D01*
X61099998Y-64723328D02*
X60957141Y-64794757D01*
X60957141Y-64794757D02*
X60885713Y-64937614D01*
X60885713Y-64937614D02*
X60885713Y-65080471D01*
X60885713Y-65080471D02*
X61599998Y-65223328D01*
X60028570Y-65723328D02*
X60171427Y-65651900D01*
X60171427Y-65651900D02*
X60242856Y-65509042D01*
X60242856Y-65509042D02*
X60242856Y-64223328D01*
X57457142Y-65580471D02*
X57528570Y-65651900D01*
X57528570Y-65651900D02*
X57742856Y-65723328D01*
X57742856Y-65723328D02*
X57885713Y-65723328D01*
X57885713Y-65723328D02*
X58099999Y-65651900D01*
X58099999Y-65651900D02*
X58242856Y-65509042D01*
X58242856Y-65509042D02*
X58314285Y-65366185D01*
X58314285Y-65366185D02*
X58385713Y-65080471D01*
X58385713Y-65080471D02*
X58385713Y-64866185D01*
X58385713Y-64866185D02*
X58314285Y-64580471D01*
X58314285Y-64580471D02*
X58242856Y-64437614D01*
X58242856Y-64437614D02*
X58099999Y-64294757D01*
X58099999Y-64294757D02*
X57885713Y-64223328D01*
X57885713Y-64223328D02*
X57742856Y-64223328D01*
X57742856Y-64223328D02*
X57528570Y-64294757D01*
X57528570Y-64294757D02*
X57457142Y-64366185D01*
X56171428Y-65723328D02*
X56171428Y-64937614D01*
X56171428Y-64937614D02*
X56242856Y-64794757D01*
X56242856Y-64794757D02*
X56385713Y-64723328D01*
X56385713Y-64723328D02*
X56671428Y-64723328D01*
X56671428Y-64723328D02*
X56814285Y-64794757D01*
X56171428Y-65651900D02*
X56314285Y-65723328D01*
X56314285Y-65723328D02*
X56671428Y-65723328D01*
X56671428Y-65723328D02*
X56814285Y-65651900D01*
X56814285Y-65651900D02*
X56885713Y-65509042D01*
X56885713Y-65509042D02*
X56885713Y-65366185D01*
X56885713Y-65366185D02*
X56814285Y-65223328D01*
X56814285Y-65223328D02*
X56671428Y-65151900D01*
X56671428Y-65151900D02*
X56314285Y-65151900D01*
X56314285Y-65151900D02*
X56171428Y-65080471D01*
X55671427Y-64723328D02*
X55099999Y-64723328D01*
X55457142Y-64223328D02*
X55457142Y-65509042D01*
X55457142Y-65509042D02*
X55385713Y-65651900D01*
X55385713Y-65651900D02*
X55242856Y-65723328D01*
X55242856Y-65723328D02*
X55099999Y-65723328D01*
X53957142Y-64723328D02*
X53957142Y-65723328D01*
X54599999Y-64723328D02*
X54599999Y-65509042D01*
X54599999Y-65509042D02*
X54528570Y-65651900D01*
X54528570Y-65651900D02*
X54385713Y-65723328D01*
X54385713Y-65723328D02*
X54171427Y-65723328D01*
X54171427Y-65723328D02*
X54028570Y-65651900D01*
X54028570Y-65651900D02*
X53957142Y-65580471D01*
X52599999Y-65723328D02*
X52599999Y-64223328D01*
X52599999Y-65651900D02*
X52742856Y-65723328D01*
X52742856Y-65723328D02*
X53028570Y-65723328D01*
X53028570Y-65723328D02*
X53171427Y-65651900D01*
X53171427Y-65651900D02*
X53242856Y-65580471D01*
X53242856Y-65580471D02*
X53314284Y-65437614D01*
X53314284Y-65437614D02*
X53314284Y-65009042D01*
X53314284Y-65009042D02*
X53242856Y-64866185D01*
X53242856Y-64866185D02*
X53171427Y-64794757D01*
X53171427Y-64794757D02*
X53028570Y-64723328D01*
X53028570Y-64723328D02*
X52742856Y-64723328D01*
X52742856Y-64723328D02*
X52599999Y-64794757D01*
X51242856Y-65723328D02*
X51242856Y-64937614D01*
X51242856Y-64937614D02*
X51314284Y-64794757D01*
X51314284Y-64794757D02*
X51457141Y-64723328D01*
X51457141Y-64723328D02*
X51742856Y-64723328D01*
X51742856Y-64723328D02*
X51885713Y-64794757D01*
X51242856Y-65651900D02*
X51385713Y-65723328D01*
X51385713Y-65723328D02*
X51742856Y-65723328D01*
X51742856Y-65723328D02*
X51885713Y-65651900D01*
X51885713Y-65651900D02*
X51957141Y-65509042D01*
X51957141Y-65509042D02*
X51957141Y-65366185D01*
X51957141Y-65366185D02*
X51885713Y-65223328D01*
X51885713Y-65223328D02*
X51742856Y-65151900D01*
X51742856Y-65151900D02*
X51385713Y-65151900D01*
X51385713Y-65151900D02*
X51242856Y-65080471D01*
X50314284Y-65723328D02*
X50457141Y-65651900D01*
X50457141Y-65651900D02*
X50528570Y-65509042D01*
X50528570Y-65509042D02*
X50528570Y-64223328D01*
X48671427Y-64366185D02*
X48599999Y-64294757D01*
X48599999Y-64294757D02*
X48457142Y-64223328D01*
X48457142Y-64223328D02*
X48099999Y-64223328D01*
X48099999Y-64223328D02*
X47957142Y-64294757D01*
X47957142Y-64294757D02*
X47885713Y-64366185D01*
X47885713Y-64366185D02*
X47814284Y-64509042D01*
X47814284Y-64509042D02*
X47814284Y-64651900D01*
X47814284Y-64651900D02*
X47885713Y-64866185D01*
X47885713Y-64866185D02*
X48742856Y-65723328D01*
X48742856Y-65723328D02*
X47814284Y-65723328D01*
X46885713Y-64223328D02*
X46742856Y-64223328D01*
X46742856Y-64223328D02*
X46599999Y-64294757D01*
X46599999Y-64294757D02*
X46528571Y-64366185D01*
X46528571Y-64366185D02*
X46457142Y-64509042D01*
X46457142Y-64509042D02*
X46385713Y-64794757D01*
X46385713Y-64794757D02*
X46385713Y-65151900D01*
X46385713Y-65151900D02*
X46457142Y-65437614D01*
X46457142Y-65437614D02*
X46528571Y-65580471D01*
X46528571Y-65580471D02*
X46599999Y-65651900D01*
X46599999Y-65651900D02*
X46742856Y-65723328D01*
X46742856Y-65723328D02*
X46885713Y-65723328D01*
X46885713Y-65723328D02*
X47028571Y-65651900D01*
X47028571Y-65651900D02*
X47099999Y-65580471D01*
X47099999Y-65580471D02*
X47171428Y-65437614D01*
X47171428Y-65437614D02*
X47242856Y-65151900D01*
X47242856Y-65151900D02*
X47242856Y-64794757D01*
X47242856Y-64794757D02*
X47171428Y-64509042D01*
X47171428Y-64509042D02*
X47099999Y-64366185D01*
X47099999Y-64366185D02*
X47028571Y-64294757D01*
X47028571Y-64294757D02*
X46885713Y-64223328D01*
X45814285Y-64366185D02*
X45742857Y-64294757D01*
X45742857Y-64294757D02*
X45600000Y-64223328D01*
X45600000Y-64223328D02*
X45242857Y-64223328D01*
X45242857Y-64223328D02*
X45100000Y-64294757D01*
X45100000Y-64294757D02*
X45028571Y-64366185D01*
X45028571Y-64366185D02*
X44957142Y-64509042D01*
X44957142Y-64509042D02*
X44957142Y-64651900D01*
X44957142Y-64651900D02*
X45028571Y-64866185D01*
X45028571Y-64866185D02*
X45885714Y-65723328D01*
X45885714Y-65723328D02*
X44957142Y-65723328D01*
X43600000Y-64223328D02*
X44314286Y-64223328D01*
X44314286Y-64223328D02*
X44385714Y-64937614D01*
X44385714Y-64937614D02*
X44314286Y-64866185D01*
X44314286Y-64866185D02*
X44171429Y-64794757D01*
X44171429Y-64794757D02*
X43814286Y-64794757D01*
X43814286Y-64794757D02*
X43671429Y-64866185D01*
X43671429Y-64866185D02*
X43600000Y-64937614D01*
X43600000Y-64937614D02*
X43528571Y-65080471D01*
X43528571Y-65080471D02*
X43528571Y-65437614D01*
X43528571Y-65437614D02*
X43600000Y-65580471D01*
X43600000Y-65580471D02*
X43671429Y-65651900D01*
X43671429Y-65651900D02*
X43814286Y-65723328D01*
X43814286Y-65723328D02*
X44171429Y-65723328D01*
X44171429Y-65723328D02*
X44314286Y-65651900D01*
X44314286Y-65651900D02*
X44385714Y-65580471D01*
D12*
X30400000Y-53670000D03*
D13*
X30400000Y-56210000D03*
X67600000Y-43930000D03*
X67600000Y-46470000D03*
X65060000Y-43930000D03*
X65060000Y-46470000D03*
X62520000Y-43930000D03*
X62520000Y-46470000D03*
X59980000Y-43930000D03*
X59980000Y-46470000D03*
X57440000Y-43930000D03*
X57440000Y-46470000D03*
X54900000Y-43930000D03*
X54900000Y-46470000D03*
X52360000Y-43930000D03*
X52360000Y-46470000D03*
X49820000Y-43930000D03*
X49820000Y-46470000D03*
X47280000Y-43930000D03*
X47280000Y-46470000D03*
X44740000Y-43930000D03*
X44740000Y-46470000D03*
X42200000Y-43930000D03*
X42200000Y-46470000D03*
X39660000Y-43930000D03*
X39660000Y-46470000D03*
X37120000Y-43930000D03*
D12*
X37120000Y-46470000D03*
D13*
X79400000Y-63450000D03*
X79400000Y-60910000D03*
X79400000Y-58370000D03*
X79400000Y-55830000D03*
X79400000Y-53290000D03*
X79400000Y-50750000D03*
X79400000Y-48210000D03*
D12*
X79400000Y-45670000D03*
X74400000Y-45670000D03*
D13*
X74400000Y-48210000D03*
X74400000Y-50750000D03*
X74400000Y-53290000D03*
X74400000Y-55830000D03*
X74400000Y-58370000D03*
D14*
X30000000Y-45000000D03*
X120000000Y-45000000D03*
X30000000Y-95000000D03*
X120000000Y-95000000D03*
D15*
X58500000Y-53170000D03*
X55200000Y-51270000D03*
X68500000Y-59320000D03*
X71750000Y-46020000D03*
D16*
X58500000Y-53170000D02*
X58500000Y-49420000D01*
X58500000Y-49420000D02*
X57440000Y-48360000D01*
X57440000Y-48360000D02*
X57440000Y-46470000D01*
X55150000Y-51270000D02*
X55200000Y-51270000D01*
X53300000Y-49420000D02*
X55150000Y-51270000D01*
X54900000Y-43930000D02*
X56265000Y-45295000D01*
X56265000Y-45295000D02*
X56265000Y-58685000D01*
X56265000Y-58685000D02*
X56900000Y-59320000D01*
X56900000Y-59320000D02*
X68500000Y-59320000D01*
X40070000Y-49420000D02*
X53300000Y-49420000D01*
X37120000Y-46470000D02*
X40070000Y-49420000D01*
X59980000Y-43930000D02*
X61155000Y-42755000D01*
X69435000Y-42755000D02*
X71750000Y-45070000D01*
X61155000Y-42755000D02*
X69435000Y-42755000D01*
X71750000Y-45070000D02*
X71750000Y-46020000D01*
X67600000Y-43930000D02*
X68060000Y-43930000D01*
X68060000Y-43930000D02*
X71069900Y-46939900D01*
X71069900Y-46939900D02*
X74798900Y-46939900D01*
X74798900Y-46939900D02*
X78223300Y-50364300D01*
X78223300Y-50364300D02*
X78223300Y-52113300D01*
X78223300Y-52113300D02*
X79400000Y-53290000D01*
X65060000Y-43930000D02*
X65710000Y-43930000D01*
X65710000Y-43930000D02*
X66886700Y-45106700D01*
X76086200Y-50767900D02*
X76086200Y-55874800D01*
X66886700Y-45106700D02*
X68086700Y-45106700D01*
X76086200Y-55874800D02*
X74400000Y-57561000D01*
X74400000Y-57561000D02*
X74400000Y-58370000D01*
X68086700Y-45106700D02*
X72460000Y-49480000D01*
X72460000Y-49480000D02*
X74798300Y-49480000D01*
X74798300Y-49480000D02*
X76086200Y-50767900D01*
X52360000Y-43930000D02*
X53535000Y-42755000D01*
X53535000Y-42755000D02*
X58805000Y-42755000D01*
X58805000Y-42755000D02*
X59980000Y-43930000D01*
X67600000Y-46470000D02*
X71880000Y-50750000D01*
X71880000Y-50750000D02*
X74400000Y-50750000D01*
X47280000Y-46470000D02*
X48455000Y-45295000D01*
X48455000Y-45295000D02*
X50995000Y-45295000D01*
X50995000Y-45295000D02*
X52360000Y-43930000D01*
X79400000Y-63450000D02*
X79400000Y-62641000D01*
X79400000Y-62641000D02*
X80656300Y-61384700D01*
X80656300Y-61384700D02*
X80656300Y-60424800D01*
X79960700Y-59729200D02*
X74093800Y-59729200D01*
X80656300Y-60424800D02*
X79960700Y-59729200D01*
X74093800Y-59729200D02*
X61343300Y-46978700D01*
X61343300Y-46978700D02*
X61343300Y-45915600D01*
X61343300Y-45915600D02*
X62520000Y-44738900D01*
X62520000Y-44738900D02*
X62520000Y-43930000D01*
X65060000Y-46470000D02*
X70610000Y-52020000D01*
X70610000Y-52020000D02*
X74825600Y-52020000D01*
X74825600Y-52020000D02*
X75598000Y-52792400D01*
X75598000Y-52792400D02*
X75598000Y-53823000D01*
X75598000Y-53823000D02*
X74400000Y-55021000D01*
X74400000Y-55021000D02*
X74400000Y-55830000D01*
X74400000Y-53290000D02*
X70149000Y-53290000D01*
X63329000Y-46470000D02*
X62520000Y-46470000D01*
X70149000Y-53290000D02*
X63329000Y-46470000D01*
X57440000Y-43930000D02*
X57440000Y-44738900D01*
X57440000Y-44738900D02*
X58616700Y-45915600D01*
X58616700Y-45915600D02*
X58616700Y-46811100D01*
X58616700Y-46811100D02*
X72715600Y-60910000D01*
X72715600Y-60910000D02*
X79400000Y-60910000D01*
X37120000Y-43930000D02*
X37120000Y-44297700D01*
X37120000Y-44297700D02*
X30400000Y-51017700D01*
X30400000Y-51017700D02*
X30400000Y-53670000D01*
G04 #@! TA.AperFunction,Conductor*
G36*
X67854000Y-47804390D02*
G01*
X67934507Y-47790957D01*
X67934516Y-47790955D01*
X68147369Y-47717883D01*
X68147371Y-47717882D01*
X68345300Y-47610768D01*
X68345301Y-47610767D01*
X68522902Y-47472534D01*
X68675325Y-47306958D01*
X68798417Y-47118551D01*
X68847587Y-47006456D01*
X68893268Y-46952107D01*
X68961081Y-46931083D01*
X69029494Y-46950059D01*
X69052070Y-46967974D01*
X71967929Y-49883833D01*
X72056167Y-49972071D01*
X72159925Y-50041400D01*
X72275215Y-50089155D01*
X72397606Y-50113500D01*
X73003438Y-50113500D01*
X73071559Y-50133502D01*
X73118052Y-50187158D01*
X73128156Y-50257432D01*
X73118824Y-50290116D01*
X73111179Y-50307543D01*
X73111176Y-50307550D01*
X73063455Y-50495999D01*
X73063456Y-50496000D01*
X73969297Y-50496000D01*
X73934075Y-50557007D01*
X73900000Y-50684174D01*
X73900000Y-50815826D01*
X73934075Y-50942993D01*
X73969297Y-51004000D01*
X73063455Y-51004000D01*
X73111176Y-51192449D01*
X73111179Y-51192456D01*
X73118824Y-51209884D01*
X73127872Y-51280302D01*
X73097413Y-51344433D01*
X73037118Y-51381915D01*
X73003438Y-51386500D01*
X70924594Y-51386500D01*
X70856473Y-51366498D01*
X70835499Y-51349595D01*
X67382905Y-47897001D01*
X67348879Y-47834689D01*
X67346000Y-47807906D01*
X67346000Y-46900702D01*
X67407007Y-46935925D01*
X67534174Y-46970000D01*
X67665826Y-46970000D01*
X67792993Y-46935925D01*
X67854000Y-46900702D01*
X67854000Y-47804390D01*
G37*
G04 #@! TD.AperFunction*
G04 #@! TA.AperFunction,Conductor*
G36*
X47534000Y-47804390D02*
G01*
X47614507Y-47790957D01*
X47614516Y-47790955D01*
X47827369Y-47717883D01*
X47827371Y-47717882D01*
X48025300Y-47610768D01*
X48025301Y-47610767D01*
X48202902Y-47472534D01*
X48355327Y-47306955D01*
X48444217Y-47170899D01*
X48498220Y-47124810D01*
X48568568Y-47115235D01*
X48632925Y-47145212D01*
X48655183Y-47170898D01*
X48744279Y-47307270D01*
X48896762Y-47472908D01*
X48905526Y-47479729D01*
X49074424Y-47611189D01*
X49272426Y-47718342D01*
X49272427Y-47718342D01*
X49272428Y-47718343D01*
X49352621Y-47745873D01*
X49485365Y-47791444D01*
X49707431Y-47828500D01*
X49707435Y-47828500D01*
X49932565Y-47828500D01*
X49932569Y-47828500D01*
X50154635Y-47791444D01*
X50367574Y-47718342D01*
X50565576Y-47611189D01*
X50743240Y-47472906D01*
X50895722Y-47307268D01*
X50895927Y-47306955D01*
X50954580Y-47217179D01*
X50984518Y-47171354D01*
X51038520Y-47125268D01*
X51108868Y-47115692D01*
X51173225Y-47145669D01*
X51195480Y-47171353D01*
X51218831Y-47207094D01*
X51284275Y-47307265D01*
X51284279Y-47307270D01*
X51436762Y-47472908D01*
X51445526Y-47479729D01*
X51614424Y-47611189D01*
X51812426Y-47718342D01*
X51812427Y-47718342D01*
X51812428Y-47718343D01*
X51892621Y-47745873D01*
X52025365Y-47791444D01*
X52247431Y-47828500D01*
X52247435Y-47828500D01*
X52472565Y-47828500D01*
X52472569Y-47828500D01*
X52694635Y-47791444D01*
X52907574Y-47718342D01*
X53105576Y-47611189D01*
X53283240Y-47472906D01*
X53435722Y-47307268D01*
X53435927Y-47306955D01*
X53494580Y-47217179D01*
X53524518Y-47171354D01*
X53578520Y-47125268D01*
X53648868Y-47115692D01*
X53713225Y-47145669D01*
X53735480Y-47171353D01*
X53758831Y-47207094D01*
X53824275Y-47307265D01*
X53824279Y-47307270D01*
X53976762Y-47472908D01*
X53985526Y-47479729D01*
X54154424Y-47611189D01*
X54352426Y-47718342D01*
X54352427Y-47718342D01*
X54352428Y-47718343D01*
X54432621Y-47745873D01*
X54565365Y-47791444D01*
X54787431Y-47828500D01*
X54787435Y-47828500D01*
X55012565Y-47828500D01*
X55012569Y-47828500D01*
X55234635Y-47791444D01*
X55447574Y-47718342D01*
X55447577Y-47718340D01*
X55452345Y-47716249D01*
X55453045Y-47717845D01*
X55514945Y-47704615D01*
X55581375Y-47729668D01*
X55623715Y-47786657D01*
X55631500Y-47830261D01*
X55631500Y-50277324D01*
X55611498Y-50345445D01*
X55557842Y-50391938D01*
X55487568Y-50402042D01*
X55479303Y-50400571D01*
X55295487Y-50361500D01*
X55189594Y-50361500D01*
X55121473Y-50341498D01*
X55100499Y-50324595D01*
X53703835Y-48927931D01*
X53703833Y-48927929D01*
X53600075Y-48858600D01*
X53484785Y-48810845D01*
X53411086Y-48796185D01*
X53362396Y-48786500D01*
X53362394Y-48786500D01*
X40384594Y-48786500D01*
X40316473Y-48766498D01*
X40295499Y-48749595D01*
X39589499Y-48043595D01*
X39555473Y-47981283D01*
X39560538Y-47910468D01*
X39603085Y-47853632D01*
X39669605Y-47828821D01*
X39678594Y-47828500D01*
X39772565Y-47828500D01*
X39772569Y-47828500D01*
X39994635Y-47791444D01*
X40207574Y-47718342D01*
X40405576Y-47611189D01*
X40583240Y-47472906D01*
X40735722Y-47307268D01*
X40735927Y-47306955D01*
X40794580Y-47217179D01*
X40824518Y-47171354D01*
X40878520Y-47125268D01*
X40948868Y-47115692D01*
X41013225Y-47145669D01*
X41035480Y-47171353D01*
X41058831Y-47207094D01*
X41124275Y-47307265D01*
X41124279Y-47307270D01*
X41276762Y-47472908D01*
X41285526Y-47479729D01*
X41454424Y-47611189D01*
X41652426Y-47718342D01*
X41652427Y-47718342D01*
X41652428Y-47718343D01*
X41732621Y-47745873D01*
X41865365Y-47791444D01*
X42087431Y-47828500D01*
X42087435Y-47828500D01*
X42312565Y-47828500D01*
X42312569Y-47828500D01*
X42534635Y-47791444D01*
X42747574Y-47718342D01*
X42945576Y-47611189D01*
X43123240Y-47472906D01*
X43275722Y-47307268D01*
X43275927Y-47306955D01*
X43334580Y-47217179D01*
X43364518Y-47171354D01*
X43418520Y-47125268D01*
X43488868Y-47115692D01*
X43553225Y-47145669D01*
X43575480Y-47171353D01*
X43598831Y-47207094D01*
X43664275Y-47307265D01*
X43664279Y-47307270D01*
X43816762Y-47472908D01*
X43825526Y-47479729D01*
X43994424Y-47611189D01*
X44192426Y-47718342D01*
X44192427Y-47718342D01*
X44192428Y-47718343D01*
X44272621Y-47745873D01*
X44405365Y-47791444D01*
X44627431Y-47828500D01*
X44627435Y-47828500D01*
X44852565Y-47828500D01*
X44852569Y-47828500D01*
X45074635Y-47791444D01*
X45287574Y-47718342D01*
X45485576Y-47611189D01*
X45663240Y-47472906D01*
X45815722Y-47307268D01*
X45815927Y-47306955D01*
X45881169Y-47207094D01*
X45904816Y-47170898D01*
X45958819Y-47124810D01*
X46029167Y-47115235D01*
X46093524Y-47145212D01*
X46115782Y-47170898D01*
X46204674Y-47306958D01*
X46357097Y-47472534D01*
X46534698Y-47610767D01*
X46534699Y-47610768D01*
X46732628Y-47717882D01*
X46732630Y-47717883D01*
X46945483Y-47790955D01*
X46945492Y-47790957D01*
X47026000Y-47804391D01*
X47026000Y-46900702D01*
X47087007Y-46935925D01*
X47214174Y-46970000D01*
X47345826Y-46970000D01*
X47472993Y-46935925D01*
X47534000Y-46900702D01*
X47534000Y-47804390D01*
G37*
G04 #@! TD.AperFunction*
G04 #@! TA.AperFunction,Conductor*
G36*
X48633225Y-44605669D02*
G01*
X48655480Y-44631353D01*
X48667468Y-44649701D01*
X48744275Y-44767265D01*
X48744279Y-44767270D01*
X48896762Y-44932908D01*
X48951331Y-44975381D01*
X49074424Y-45071189D01*
X49107153Y-45088901D01*
X49107680Y-45089186D01*
X49158071Y-45139200D01*
X49173423Y-45208516D01*
X49148862Y-45275129D01*
X49107680Y-45310813D01*
X49074426Y-45328810D01*
X49074424Y-45328811D01*
X48896762Y-45467091D01*
X48744279Y-45632729D01*
X48655183Y-45769101D01*
X48601179Y-45815189D01*
X48530831Y-45824764D01*
X48466474Y-45794786D01*
X48444217Y-45769100D01*
X48355327Y-45633044D01*
X48202902Y-45467465D01*
X48025301Y-45329232D01*
X48025300Y-45329231D01*
X47991791Y-45311097D01*
X47941401Y-45261083D01*
X47926050Y-45191766D01*
X47950612Y-45125153D01*
X47991790Y-45089472D01*
X48025576Y-45071189D01*
X48203240Y-44932906D01*
X48355722Y-44767268D01*
X48355927Y-44766955D01*
X48392615Y-44710799D01*
X48444518Y-44631354D01*
X48498520Y-44585268D01*
X48568868Y-44575692D01*
X48633225Y-44605669D01*
G37*
G04 #@! TD.AperFunction*
G04 #@! TA.AperFunction,Conductor*
G36*
X51173524Y-44605212D02*
G01*
X51195782Y-44630898D01*
X51284674Y-44766958D01*
X51437097Y-44932534D01*
X51614698Y-45070767D01*
X51614704Y-45070771D01*
X51648207Y-45088902D01*
X51698597Y-45138915D01*
X51713949Y-45208232D01*
X51689388Y-45274845D01*
X51648207Y-45310528D01*
X51614430Y-45328807D01*
X51614424Y-45328811D01*
X51436762Y-45467091D01*
X51284279Y-45632729D01*
X51195483Y-45768643D01*
X51141479Y-45814731D01*
X51071131Y-45824306D01*
X51006774Y-45794329D01*
X50984517Y-45768643D01*
X50895720Y-45632729D01*
X50766220Y-45492057D01*
X50743240Y-45467094D01*
X50743239Y-45467093D01*
X50743237Y-45467091D01*
X50623367Y-45373792D01*
X50565576Y-45328811D01*
X50532319Y-45310813D01*
X50481929Y-45260802D01*
X50466576Y-45191485D01*
X50491136Y-45124872D01*
X50532320Y-45089186D01*
X50532847Y-45088901D01*
X50565576Y-45071189D01*
X50743240Y-44932906D01*
X50895722Y-44767268D01*
X50895927Y-44766955D01*
X50972532Y-44649701D01*
X50984816Y-44630898D01*
X51038819Y-44584810D01*
X51109167Y-44575235D01*
X51173524Y-44605212D01*
G37*
G04 #@! TD.AperFunction*
G04 #@! TA.AperFunction,Conductor*
G36*
X124916515Y-40070085D02*
G01*
X124963061Y-40123694D01*
X124974500Y-40176151D01*
X124974500Y-99848500D01*
X124954498Y-99916621D01*
X124900842Y-99963114D01*
X124848500Y-99974500D01*
X25225832Y-99974500D01*
X25157711Y-99954498D01*
X25111218Y-99900842D01*
X25099832Y-99848605D01*
X25095785Y-95000000D01*
X27136656Y-95000000D01*
X27156016Y-95332403D01*
X27156016Y-95332409D01*
X27156017Y-95332414D01*
X27213838Y-95660333D01*
X27309337Y-95979321D01*
X27309339Y-95979327D01*
X27309340Y-95979328D01*
X27441220Y-96285063D01*
X27441222Y-96285066D01*
X27607711Y-96573433D01*
X27607714Y-96573437D01*
X27806552Y-96840523D01*
X28035057Y-97082724D01*
X28290134Y-97296758D01*
X28568320Y-97479724D01*
X28568328Y-97479729D01*
X28865887Y-97629169D01*
X29022335Y-97686111D01*
X29178775Y-97743051D01*
X29178776Y-97743051D01*
X29178784Y-97743054D01*
X29502786Y-97819843D01*
X29691771Y-97841932D01*
X29833508Y-97858500D01*
X29833511Y-97858500D01*
X30166492Y-97858500D01*
X30290510Y-97844003D01*
X30497214Y-97819843D01*
X30821216Y-97743054D01*
X31134113Y-97629169D01*
X31431672Y-97479729D01*
X31709870Y-97296755D01*
X31964946Y-97082721D01*
X32193449Y-96840522D01*
X32392289Y-96573433D01*
X32558778Y-96285066D01*
X32690663Y-95979321D01*
X32786162Y-95660333D01*
X32843983Y-95332414D01*
X32863344Y-95000000D01*
X117136656Y-95000000D01*
X117156016Y-95332403D01*
X117156016Y-95332409D01*
X117156017Y-95332414D01*
X117213838Y-95660333D01*
X117309337Y-95979321D01*
X117309339Y-95979327D01*
X117309340Y-95979328D01*
X117441220Y-96285063D01*
X117441222Y-96285066D01*
X117607711Y-96573433D01*
X117607714Y-96573437D01*
X117806552Y-96840523D01*
X118035057Y-97082724D01*
X118290134Y-97296758D01*
X118568320Y-97479724D01*
X118568328Y-97479729D01*
X118865887Y-97629169D01*
X119022335Y-97686111D01*
X119178775Y-97743051D01*
X119178776Y-97743051D01*
X119178784Y-97743054D01*
X119502786Y-97819843D01*
X119691771Y-97841932D01*
X119833508Y-97858500D01*
X119833511Y-97858500D01*
X120166492Y-97858500D01*
X120290510Y-97844003D01*
X120497214Y-97819843D01*
X120821216Y-97743054D01*
X121134113Y-97629169D01*
X121431672Y-97479729D01*
X121709870Y-97296755D01*
X121964946Y-97082721D01*
X122193449Y-96840522D01*
X122392289Y-96573433D01*
X122558778Y-96285066D01*
X122690663Y-95979321D01*
X122786162Y-95660333D01*
X122843983Y-95332414D01*
X122863344Y-95000000D01*
X122843983Y-94667586D01*
X122786162Y-94339667D01*
X122690663Y-94020679D01*
X122558778Y-93714934D01*
X122392289Y-93426567D01*
X122193449Y-93159478D01*
X121964946Y-92917279D01*
X121964944Y-92917278D01*
X121964942Y-92917275D01*
X121709865Y-92703241D01*
X121431679Y-92520275D01*
X121431675Y-92520273D01*
X121431672Y-92520271D01*
X121134113Y-92370831D01*
X121134108Y-92370829D01*
X121134103Y-92370827D01*
X120821224Y-92256948D01*
X120821217Y-92256946D01*
X120821216Y-92256946D01*
X120639258Y-92213821D01*
X120497219Y-92180158D01*
X120497209Y-92180156D01*
X120166492Y-92141500D01*
X120166489Y-92141500D01*
X119833511Y-92141500D01*
X119833508Y-92141500D01*
X119502790Y-92180156D01*
X119502780Y-92180158D01*
X119178784Y-92256946D01*
X119178775Y-92256948D01*
X118865896Y-92370827D01*
X118865891Y-92370829D01*
X118568320Y-92520275D01*
X118290134Y-92703241D01*
X118035057Y-92917275D01*
X117806552Y-93159476D01*
X117607714Y-93426562D01*
X117607704Y-93426578D01*
X117441223Y-93714931D01*
X117441220Y-93714936D01*
X117309340Y-94020671D01*
X117309338Y-94020677D01*
X117213838Y-94339666D01*
X117156016Y-94667590D01*
X117156016Y-94667596D01*
X117136656Y-95000000D01*
X32863344Y-95000000D01*
X32843983Y-94667586D01*
X32786162Y-94339667D01*
X32690663Y-94020679D01*
X32558778Y-93714934D01*
X32392289Y-93426567D01*
X32193449Y-93159478D01*
X31964946Y-92917279D01*
X31964944Y-92917278D01*
X31964942Y-92917275D01*
X31709865Y-92703241D01*
X31431679Y-92520275D01*
X31431675Y-92520273D01*
X31431672Y-92520271D01*
X31134113Y-92370831D01*
X31134108Y-92370829D01*
X31134103Y-92370827D01*
X30821224Y-92256948D01*
X30821217Y-92256946D01*
X30821216Y-92256946D01*
X30639258Y-92213821D01*
X30497219Y-92180158D01*
X30497209Y-92180156D01*
X30166492Y-92141500D01*
X30166489Y-92141500D01*
X29833511Y-92141500D01*
X29833508Y-92141500D01*
X29502790Y-92180156D01*
X29502780Y-92180158D01*
X29178784Y-92256946D01*
X29178775Y-92256948D01*
X28865896Y-92370827D01*
X28865891Y-92370829D01*
X28568320Y-92520275D01*
X28290134Y-92703241D01*
X28035057Y-92917275D01*
X27806552Y-93159476D01*
X27607714Y-93426562D01*
X27607704Y-93426578D01*
X27441223Y-93714931D01*
X27441220Y-93714936D01*
X27309340Y-94020671D01*
X27309338Y-94020677D01*
X27213838Y-94339666D01*
X27156016Y-94667590D01*
X27156016Y-94667596D01*
X27136656Y-95000000D01*
X25095785Y-95000000D01*
X25071902Y-66388553D01*
X42863346Y-66388553D01*
X67264660Y-66388553D01*
X67264660Y-63557629D01*
X42863346Y-63557629D01*
X42863346Y-66388553D01*
X25071902Y-66388553D01*
X25062390Y-54992734D01*
X25060536Y-52771350D01*
X29041500Y-52771350D01*
X29041500Y-54568649D01*
X29048009Y-54629196D01*
X29048011Y-54629204D01*
X29099110Y-54766202D01*
X29099112Y-54766207D01*
X29186738Y-54883261D01*
X29303792Y-54970887D01*
X29303796Y-54970889D01*
X29419312Y-55013975D01*
X29476148Y-55056522D01*
X29500958Y-55123042D01*
X29485866Y-55192416D01*
X29467981Y-55217367D01*
X29324674Y-55373041D01*
X29201580Y-55561451D01*
X29111179Y-55767543D01*
X29111176Y-55767550D01*
X29063455Y-55955999D01*
X29063456Y-55956000D01*
X29969297Y-55956000D01*
X29934075Y-56017007D01*
X29900000Y-56144174D01*
X29900000Y-56275826D01*
X29934075Y-56402993D01*
X29969297Y-56464000D01*
X29063455Y-56464000D01*
X29111176Y-56652449D01*
X29111179Y-56652456D01*
X29201580Y-56858548D01*
X29324674Y-57046958D01*
X29477097Y-57212534D01*
X29654698Y-57350767D01*
X29654699Y-57350768D01*
X29852628Y-57457882D01*
X29852630Y-57457883D01*
X30065483Y-57530955D01*
X30065492Y-57530957D01*
X30146000Y-57544391D01*
X30146000Y-56640702D01*
X30207007Y-56675925D01*
X30334174Y-56710000D01*
X30465826Y-56710000D01*
X30592993Y-56675925D01*
X30654000Y-56640702D01*
X30654000Y-57544390D01*
X30734507Y-57530957D01*
X30734516Y-57530955D01*
X30947369Y-57457883D01*
X30947371Y-57457882D01*
X31145300Y-57350768D01*
X31145301Y-57350767D01*
X31322902Y-57212534D01*
X31475325Y-57046958D01*
X31598419Y-56858548D01*
X31688820Y-56652456D01*
X31688823Y-56652449D01*
X31736544Y-56464000D01*
X30830703Y-56464000D01*
X30865925Y-56402993D01*
X30900000Y-56275826D01*
X30900000Y-56144174D01*
X30865925Y-56017007D01*
X30830703Y-55956000D01*
X31736544Y-55956000D01*
X31736544Y-55955999D01*
X31688823Y-55767550D01*
X31688820Y-55767543D01*
X31598419Y-55561451D01*
X31475325Y-55373041D01*
X31332018Y-55217367D01*
X31300598Y-55153702D01*
X31308585Y-55083156D01*
X31353444Y-55028127D01*
X31380679Y-55013977D01*
X31496204Y-54970889D01*
X31613261Y-54883261D01*
X31655307Y-54827094D01*
X31700887Y-54766207D01*
X31700887Y-54766206D01*
X31700889Y-54766204D01*
X31751989Y-54629201D01*
X31758500Y-54568638D01*
X31758500Y-52771362D01*
X31758499Y-52771350D01*
X31751990Y-52710803D01*
X31751988Y-52710795D01*
X31700889Y-52573797D01*
X31700887Y-52573792D01*
X31613261Y-52456738D01*
X31496207Y-52369112D01*
X31496202Y-52369110D01*
X31359204Y-52318011D01*
X31359196Y-52318009D01*
X31298649Y-52311500D01*
X31298638Y-52311500D01*
X31159500Y-52311500D01*
X31091379Y-52291498D01*
X31044886Y-52237842D01*
X31033500Y-52185500D01*
X31033500Y-51332294D01*
X31053502Y-51264173D01*
X31070405Y-51243199D01*
X35546405Y-46767199D01*
X35608717Y-46733173D01*
X35679532Y-46738238D01*
X35736368Y-46780785D01*
X35761179Y-46847305D01*
X35761500Y-46856294D01*
X35761500Y-47368649D01*
X35768009Y-47429196D01*
X35768011Y-47429204D01*
X35819110Y-47566202D01*
X35819112Y-47566207D01*
X35906738Y-47683261D01*
X36023792Y-47770887D01*
X36023794Y-47770888D01*
X36023796Y-47770889D01*
X36077600Y-47790957D01*
X36160795Y-47821988D01*
X36160803Y-47821990D01*
X36221350Y-47828499D01*
X36221355Y-47828499D01*
X36221362Y-47828500D01*
X37530406Y-47828500D01*
X37598527Y-47848502D01*
X37619501Y-47865405D01*
X39666167Y-49912071D01*
X39769925Y-49981400D01*
X39885215Y-50029155D01*
X40007606Y-50053500D01*
X40132394Y-50053500D01*
X52985406Y-50053500D01*
X53053527Y-50073502D01*
X53074501Y-50090405D01*
X54258749Y-51274653D01*
X54292775Y-51336965D01*
X54294964Y-51350577D01*
X54306457Y-51459927D01*
X54328553Y-51527929D01*
X54365473Y-51641556D01*
X54365476Y-51641561D01*
X54460958Y-51806941D01*
X54460965Y-51806951D01*
X54588744Y-51948864D01*
X54588747Y-51948866D01*
X54743248Y-52061118D01*
X54917712Y-52138794D01*
X55104513Y-52178500D01*
X55295492Y-52178500D01*
X55479303Y-52139429D01*
X55550093Y-52144830D01*
X55606726Y-52187647D01*
X55631220Y-52254284D01*
X55631500Y-52262675D01*
X55631500Y-58747396D01*
X55638594Y-58783058D01*
X55655845Y-58869785D01*
X55703600Y-58985075D01*
X55772929Y-59088833D01*
X56496167Y-59812072D01*
X56599925Y-59881401D01*
X56661955Y-59907094D01*
X56715215Y-59929155D01*
X56837606Y-59953500D01*
X56837607Y-59953500D01*
X56962394Y-59953500D01*
X67791800Y-59953500D01*
X67859921Y-59973502D01*
X67885437Y-59995190D01*
X67888747Y-59998866D01*
X68043248Y-60111118D01*
X68217712Y-60188794D01*
X68404513Y-60228500D01*
X68595487Y-60228500D01*
X68782288Y-60188794D01*
X68956752Y-60111118D01*
X69111253Y-59998866D01*
X69239040Y-59856944D01*
X69334527Y-59691556D01*
X69393542Y-59509928D01*
X69413504Y-59320000D01*
X69393542Y-59130072D01*
X69334527Y-58948444D01*
X69239040Y-58783056D01*
X69239038Y-58783054D01*
X69239034Y-58783048D01*
X69111255Y-58641135D01*
X68956752Y-58528882D01*
X68782288Y-58451206D01*
X68595487Y-58411500D01*
X68404513Y-58411500D01*
X68217711Y-58451206D01*
X68043247Y-58528882D01*
X67888747Y-58641133D01*
X67885437Y-58644810D01*
X67824991Y-58682050D01*
X67791800Y-58686500D01*
X57214595Y-58686500D01*
X57146474Y-58666498D01*
X57125500Y-58649595D01*
X56935405Y-58459500D01*
X56901379Y-58397188D01*
X56898500Y-58370405D01*
X56898500Y-49018594D01*
X56918502Y-48950473D01*
X56972158Y-48903980D01*
X57042432Y-48893876D01*
X57107012Y-48923370D01*
X57113595Y-48929499D01*
X57829595Y-49645499D01*
X57863621Y-49707811D01*
X57866500Y-49734594D01*
X57866500Y-52467474D01*
X57846498Y-52535595D01*
X57834137Y-52551784D01*
X57760957Y-52633059D01*
X57665476Y-52798438D01*
X57665473Y-52798445D01*
X57606457Y-52980072D01*
X57586496Y-53170000D01*
X57606457Y-53359927D01*
X57636526Y-53452470D01*
X57665473Y-53541556D01*
X57665476Y-53541561D01*
X57760958Y-53706941D01*
X57760965Y-53706951D01*
X57888744Y-53848864D01*
X57888747Y-53848866D01*
X58043248Y-53961118D01*
X58217712Y-54038794D01*
X58404513Y-54078500D01*
X58595487Y-54078500D01*
X58782288Y-54038794D01*
X58956752Y-53961118D01*
X59111253Y-53848866D01*
X59171394Y-53782073D01*
X59239034Y-53706951D01*
X59239035Y-53706949D01*
X59239040Y-53706944D01*
X59334527Y-53541556D01*
X59393542Y-53359928D01*
X59413504Y-53170000D01*
X59393542Y-52980072D01*
X59334527Y-52798444D01*
X59270869Y-52688185D01*
X59239042Y-52633059D01*
X59239041Y-52633058D01*
X59239040Y-52633056D01*
X59165863Y-52551784D01*
X59135146Y-52487776D01*
X59133500Y-52467474D01*
X59133500Y-49357607D01*
X59133499Y-49357603D01*
X59132224Y-49351192D01*
X59109155Y-49235215D01*
X59061400Y-49119925D01*
X58992071Y-49016167D01*
X58903833Y-48927929D01*
X58110405Y-48134501D01*
X58076379Y-48072189D01*
X58073500Y-48045406D01*
X58073500Y-47746920D01*
X58093502Y-47678799D01*
X58139527Y-47636108D01*
X58185576Y-47611189D01*
X58286322Y-47532774D01*
X58352362Y-47506718D01*
X58422008Y-47520503D01*
X58452806Y-47543110D01*
X72311767Y-61402072D01*
X72415525Y-61471401D01*
X72497047Y-61505168D01*
X72530815Y-61519155D01*
X72653206Y-61543500D01*
X72653207Y-61543500D01*
X72777994Y-61543500D01*
X78122962Y-61543500D01*
X78191083Y-61563502D01*
X78228445Y-61600585D01*
X78324275Y-61747265D01*
X78324279Y-61747270D01*
X78476762Y-61912908D01*
X78531331Y-61955381D01*
X78654424Y-62051189D01*
X78687680Y-62069186D01*
X78738071Y-62119200D01*
X78753423Y-62188516D01*
X78728862Y-62255129D01*
X78687680Y-62290814D01*
X78654426Y-62308810D01*
X78654424Y-62308811D01*
X78476762Y-62447091D01*
X78324279Y-62612729D01*
X78324275Y-62612734D01*
X78201141Y-62801206D01*
X78110703Y-63007386D01*
X78110702Y-63007387D01*
X78055437Y-63225624D01*
X78036844Y-63450000D01*
X78055437Y-63674375D01*
X78110702Y-63892612D01*
X78110703Y-63892613D01*
X78201141Y-64098793D01*
X78324275Y-64287265D01*
X78324279Y-64287270D01*
X78476762Y-64452908D01*
X78531331Y-64495381D01*
X78654424Y-64591189D01*
X78852426Y-64698342D01*
X78852427Y-64698342D01*
X78852428Y-64698343D01*
X78964227Y-64736723D01*
X79065365Y-64771444D01*
X79287431Y-64808500D01*
X79287435Y-64808500D01*
X79512565Y-64808500D01*
X79512569Y-64808500D01*
X79734635Y-64771444D01*
X79947574Y-64698342D01*
X80145576Y-64591189D01*
X80323240Y-64452906D01*
X80475722Y-64287268D01*
X80598860Y-64098791D01*
X80689296Y-63892616D01*
X80744564Y-63674368D01*
X80763156Y-63450000D01*
X80744564Y-63225632D01*
X80689296Y-63007384D01*
X80598860Y-62801209D01*
X80589280Y-62786546D01*
X80472872Y-62608369D01*
X80474562Y-62607264D01*
X80451680Y-62549300D01*
X80465452Y-62479652D01*
X80488067Y-62448835D01*
X81148371Y-61788533D01*
X81217700Y-61684775D01*
X81265455Y-61569485D01*
X81289800Y-61447094D01*
X81289800Y-60362406D01*
X81265455Y-60240015D01*
X81217700Y-60124725D01*
X81148371Y-60020967D01*
X81060133Y-59932729D01*
X80492336Y-59364932D01*
X80458310Y-59302620D01*
X80463375Y-59231805D01*
X80475948Y-59206922D01*
X80598860Y-59018791D01*
X80689296Y-58812616D01*
X80744564Y-58594368D01*
X80763156Y-58370000D01*
X80744564Y-58145632D01*
X80689296Y-57927384D01*
X80598860Y-57721209D01*
X80592140Y-57710924D01*
X80475724Y-57532734D01*
X80475720Y-57532729D01*
X80323237Y-57367091D01*
X80241382Y-57303381D01*
X80145576Y-57228811D01*
X80112319Y-57210813D01*
X80061929Y-57160802D01*
X80046576Y-57091485D01*
X80071136Y-57024872D01*
X80112320Y-56989186D01*
X80145576Y-56971189D01*
X80323240Y-56832906D01*
X80475722Y-56667268D01*
X80598860Y-56478791D01*
X80689296Y-56272616D01*
X80744564Y-56054368D01*
X80763156Y-55830000D01*
X80744564Y-55605632D01*
X80689296Y-55387384D01*
X80598860Y-55181209D01*
X80517398Y-55056522D01*
X80475724Y-54992734D01*
X80475720Y-54992729D01*
X80323237Y-54827091D01*
X80241382Y-54763381D01*
X80145576Y-54688811D01*
X80112319Y-54670813D01*
X80061929Y-54620802D01*
X80046576Y-54551485D01*
X80071136Y-54484872D01*
X80112320Y-54449186D01*
X80145576Y-54431189D01*
X80323240Y-54292906D01*
X80475722Y-54127268D01*
X80598860Y-53938791D01*
X80689296Y-53732616D01*
X80744564Y-53514368D01*
X80763156Y-53290000D01*
X80744564Y-53065632D01*
X80702202Y-52898348D01*
X80689297Y-52847387D01*
X80689296Y-52847386D01*
X80689296Y-52847384D01*
X80598860Y-52641209D01*
X80554817Y-52573796D01*
X80475724Y-52452734D01*
X80475720Y-52452729D01*
X80351701Y-52318011D01*
X80323240Y-52287094D01*
X80323239Y-52287093D01*
X80323237Y-52287091D01*
X80241382Y-52223381D01*
X80145576Y-52148811D01*
X80112319Y-52130813D01*
X80061929Y-52080802D01*
X80046576Y-52011485D01*
X80071136Y-51944872D01*
X80112320Y-51909186D01*
X80145576Y-51891189D01*
X80323240Y-51752906D01*
X80475722Y-51587268D01*
X80598860Y-51398791D01*
X80689296Y-51192616D01*
X80744564Y-50974368D01*
X80763156Y-50750000D01*
X80744564Y-50525632D01*
X80700063Y-50349901D01*
X80689297Y-50307387D01*
X80689296Y-50307386D01*
X80689296Y-50307384D01*
X80598860Y-50101209D01*
X80520584Y-49981398D01*
X80475724Y-49912734D01*
X80475720Y-49912729D01*
X80323237Y-49747091D01*
X80192712Y-49645499D01*
X80145576Y-49608811D01*
X80112319Y-49590813D01*
X80061929Y-49540802D01*
X80046576Y-49471485D01*
X80071136Y-49404872D01*
X80112320Y-49369186D01*
X80145576Y-49351189D01*
X80323240Y-49212906D01*
X80475722Y-49047268D01*
X80598860Y-48858791D01*
X80689296Y-48652616D01*
X80744564Y-48434368D01*
X80763156Y-48210000D01*
X80744564Y-47985632D01*
X80716714Y-47875654D01*
X80689297Y-47767387D01*
X80689296Y-47767386D01*
X80689296Y-47767384D01*
X80598860Y-47561209D01*
X80574850Y-47524459D01*
X80475724Y-47372734D01*
X80475719Y-47372729D01*
X80415457Y-47307268D01*
X80332524Y-47217179D01*
X80301103Y-47153514D01*
X80309090Y-47082968D01*
X80353948Y-47027939D01*
X80381183Y-47013789D01*
X80496204Y-46970889D01*
X80542911Y-46935925D01*
X80613261Y-46883261D01*
X80700887Y-46766207D01*
X80700887Y-46766206D01*
X80700889Y-46766204D01*
X80751989Y-46629201D01*
X80757985Y-46573433D01*
X80758499Y-46568649D01*
X80758500Y-46568632D01*
X80758500Y-45000000D01*
X117136656Y-45000000D01*
X117156016Y-45332403D01*
X117156016Y-45332409D01*
X117171324Y-45419227D01*
X117213838Y-45660333D01*
X117309337Y-45979321D01*
X117309339Y-45979327D01*
X117309340Y-45979328D01*
X117441220Y-46285063D01*
X117441223Y-46285068D01*
X117595397Y-46552104D01*
X117607711Y-46573433D01*
X117806551Y-46840522D01*
X117834455Y-46870099D01*
X118035057Y-47082724D01*
X118290134Y-47296758D01*
X118557954Y-47472906D01*
X118568328Y-47479729D01*
X118865887Y-47629169D01*
X118983128Y-47671841D01*
X119178775Y-47743051D01*
X119178776Y-47743051D01*
X119178784Y-47743054D01*
X119502786Y-47819843D01*
X119691771Y-47841932D01*
X119833508Y-47858500D01*
X119833511Y-47858500D01*
X120166492Y-47858500D01*
X120290510Y-47844003D01*
X120497214Y-47819843D01*
X120821216Y-47743054D01*
X121134113Y-47629169D01*
X121431672Y-47479729D01*
X121709870Y-47296755D01*
X121964946Y-47082721D01*
X122193449Y-46840522D01*
X122392289Y-46573433D01*
X122558778Y-46285066D01*
X122690663Y-45979321D01*
X122786162Y-45660333D01*
X122843983Y-45332414D01*
X122863344Y-45000000D01*
X122843983Y-44667586D01*
X122786162Y-44339667D01*
X122690663Y-44020679D01*
X122558778Y-43714934D01*
X122392289Y-43426567D01*
X122193449Y-43159478D01*
X121964946Y-42917279D01*
X121964944Y-42917278D01*
X121964942Y-42917275D01*
X121709865Y-42703241D01*
X121431679Y-42520275D01*
X121431675Y-42520273D01*
X121431672Y-42520271D01*
X121134113Y-42370831D01*
X121134108Y-42370829D01*
X121134103Y-42370827D01*
X120821224Y-42256948D01*
X120821217Y-42256946D01*
X120821216Y-42256946D01*
X120639258Y-42213821D01*
X120497219Y-42180158D01*
X120497209Y-42180156D01*
X120166492Y-42141500D01*
X120166489Y-42141500D01*
X119833511Y-42141500D01*
X119833508Y-42141500D01*
X119502790Y-42180156D01*
X119502780Y-42180158D01*
X119178784Y-42256946D01*
X119178775Y-42256948D01*
X118865896Y-42370827D01*
X118865891Y-42370829D01*
X118568320Y-42520275D01*
X118290134Y-42703241D01*
X118035057Y-42917275D01*
X117806552Y-43159476D01*
X117607714Y-43426562D01*
X117607704Y-43426578D01*
X117441223Y-43714931D01*
X117441220Y-43714936D01*
X117309340Y-44020671D01*
X117309338Y-44020677D01*
X117213838Y-44339666D01*
X117156016Y-44667590D01*
X117156016Y-44667596D01*
X117136656Y-45000000D01*
X80758500Y-45000000D01*
X80758500Y-44771367D01*
X80758499Y-44771350D01*
X80751990Y-44710803D01*
X80751988Y-44710795D01*
X80701596Y-44575692D01*
X80700889Y-44573796D01*
X80700888Y-44573794D01*
X80700887Y-44573792D01*
X80613261Y-44456738D01*
X80496207Y-44369112D01*
X80496202Y-44369110D01*
X80359204Y-44318011D01*
X80359196Y-44318009D01*
X80298649Y-44311500D01*
X80298638Y-44311500D01*
X78501362Y-44311500D01*
X78501350Y-44311500D01*
X78440803Y-44318009D01*
X78440795Y-44318011D01*
X78303797Y-44369110D01*
X78303792Y-44369112D01*
X78186738Y-44456738D01*
X78099112Y-44573792D01*
X78099110Y-44573797D01*
X78048011Y-44710795D01*
X78048009Y-44710803D01*
X78041500Y-44771350D01*
X78041500Y-46568649D01*
X78048009Y-46629196D01*
X78048011Y-46629204D01*
X78099110Y-46766202D01*
X78099112Y-46766207D01*
X78186738Y-46883261D01*
X78303791Y-46970886D01*
X78303792Y-46970886D01*
X78303796Y-46970889D01*
X78418810Y-47013787D01*
X78475642Y-47056332D01*
X78500453Y-47122852D01*
X78485362Y-47192226D01*
X78467475Y-47217179D01*
X78324280Y-47372729D01*
X78324275Y-47372734D01*
X78201141Y-47561206D01*
X78110703Y-47767386D01*
X78110702Y-47767387D01*
X78055437Y-47985624D01*
X78036844Y-48210000D01*
X78055437Y-48434375D01*
X78110702Y-48652612D01*
X78110703Y-48652613D01*
X78110704Y-48652616D01*
X78174007Y-48796933D01*
X78201141Y-48858793D01*
X78324275Y-49047265D01*
X78324279Y-49047270D01*
X78476762Y-49212908D01*
X78505418Y-49235212D01*
X78654424Y-49351189D01*
X78687680Y-49369186D01*
X78738071Y-49419200D01*
X78753423Y-49488516D01*
X78728862Y-49555129D01*
X78687680Y-49590814D01*
X78654424Y-49608810D01*
X78654416Y-49608816D01*
X78578756Y-49667704D01*
X78512713Y-49693760D01*
X78443068Y-49679974D01*
X78412271Y-49657367D01*
X75701124Y-46946220D01*
X75667098Y-46883908D01*
X75672163Y-46813093D01*
X75689350Y-46781616D01*
X75700889Y-46766204D01*
X75751989Y-46629201D01*
X75757985Y-46573433D01*
X75758499Y-46568649D01*
X75758500Y-46568632D01*
X75758500Y-44771367D01*
X75758499Y-44771350D01*
X75751990Y-44710803D01*
X75751988Y-44710795D01*
X75701596Y-44575692D01*
X75700889Y-44573796D01*
X75700888Y-44573794D01*
X75700887Y-44573792D01*
X75613261Y-44456738D01*
X75496207Y-44369112D01*
X75496202Y-44369110D01*
X75359204Y-44318011D01*
X75359196Y-44318009D01*
X75298649Y-44311500D01*
X75298638Y-44311500D01*
X73501362Y-44311500D01*
X73501350Y-44311500D01*
X73440803Y-44318009D01*
X73440795Y-44318011D01*
X73303797Y-44369110D01*
X73303792Y-44369112D01*
X73186738Y-44456738D01*
X73099112Y-44573792D01*
X73099110Y-44573797D01*
X73048011Y-44710795D01*
X73048009Y-44710803D01*
X73041500Y-44771350D01*
X73041500Y-46180400D01*
X73021498Y-46248521D01*
X72967842Y-46295014D01*
X72915500Y-46306400D01*
X71384494Y-46306400D01*
X71316373Y-46286398D01*
X71295399Y-46269495D01*
X68996471Y-43970567D01*
X68962445Y-43908255D01*
X68959998Y-43891891D01*
X68944564Y-43705632D01*
X68889296Y-43487384D01*
X68798860Y-43281209D01*
X68781597Y-43254786D01*
X68675724Y-43092734D01*
X68675720Y-43092729D01*
X68559570Y-42966559D01*
X68523240Y-42927094D01*
X68523239Y-42927093D01*
X68523237Y-42927091D01*
X68441382Y-42863381D01*
X68345576Y-42788811D01*
X68147574Y-42681658D01*
X68147572Y-42681657D01*
X68147571Y-42681656D01*
X67934639Y-42608557D01*
X67934630Y-42608555D01*
X67857029Y-42595606D01*
X67712569Y-42571500D01*
X67487431Y-42571500D01*
X67342971Y-42595606D01*
X67265369Y-42608555D01*
X67265360Y-42608557D01*
X67052428Y-42681656D01*
X67052426Y-42681658D01*
X66854426Y-42788810D01*
X66854424Y-42788811D01*
X66676762Y-42927091D01*
X66524279Y-43092729D01*
X66435483Y-43228643D01*
X66381479Y-43274731D01*
X66311131Y-43284306D01*
X66246774Y-43254329D01*
X66224517Y-43228643D01*
X66135720Y-43092729D01*
X66019570Y-42966559D01*
X65983240Y-42927094D01*
X65983239Y-42927093D01*
X65983237Y-42927091D01*
X65901382Y-42863381D01*
X65805576Y-42788811D01*
X65607574Y-42681658D01*
X65607572Y-42681657D01*
X65607571Y-42681656D01*
X65394639Y-42608557D01*
X65394630Y-42608555D01*
X65317029Y-42595606D01*
X65172569Y-42571500D01*
X64947431Y-42571500D01*
X64802971Y-42595606D01*
X64725369Y-42608555D01*
X64725360Y-42608557D01*
X64512428Y-42681656D01*
X64512426Y-42681658D01*
X64314426Y-42788810D01*
X64314424Y-42788811D01*
X64136762Y-42927091D01*
X63984279Y-43092729D01*
X63895483Y-43228643D01*
X63841479Y-43274731D01*
X63771131Y-43284306D01*
X63706774Y-43254329D01*
X63684517Y-43228643D01*
X63595720Y-43092729D01*
X63479570Y-42966559D01*
X63443240Y-42927094D01*
X63443239Y-42927093D01*
X63443237Y-42927091D01*
X63361382Y-42863381D01*
X63265576Y-42788811D01*
X63067574Y-42681658D01*
X63067572Y-42681657D01*
X63067571Y-42681656D01*
X62854639Y-42608557D01*
X62854630Y-42608555D01*
X62777029Y-42595606D01*
X62632569Y-42571500D01*
X62407431Y-42571500D01*
X62262971Y-42595606D01*
X62185369Y-42608555D01*
X62185360Y-42608557D01*
X61972428Y-42681656D01*
X61972426Y-42681658D01*
X61774426Y-42788810D01*
X61774424Y-42788811D01*
X61596762Y-42927091D01*
X61444279Y-43092729D01*
X61355183Y-43229101D01*
X61301179Y-43275189D01*
X61230831Y-43284764D01*
X61166474Y-43254786D01*
X61144217Y-43229100D01*
X61055327Y-43093044D01*
X60902902Y-42927465D01*
X60725301Y-42789232D01*
X60725300Y-42789231D01*
X60527371Y-42682117D01*
X60527369Y-42682116D01*
X60314512Y-42609043D01*
X60314501Y-42609040D01*
X60234000Y-42595606D01*
X60234000Y-43499297D01*
X60172993Y-43464075D01*
X60045826Y-43430000D01*
X59914174Y-43430000D01*
X59787007Y-43464075D01*
X59726000Y-43499297D01*
X59726000Y-42595607D01*
X59725999Y-42595606D01*
X59645498Y-42609040D01*
X59645487Y-42609043D01*
X59432630Y-42682116D01*
X59432628Y-42682117D01*
X59234699Y-42789231D01*
X59234698Y-42789232D01*
X59057097Y-42927465D01*
X58904670Y-43093045D01*
X58815780Y-43229101D01*
X58761776Y-43275189D01*
X58691428Y-43284764D01*
X58627071Y-43254786D01*
X58604816Y-43229101D01*
X58559328Y-43159476D01*
X58515724Y-43092734D01*
X58515720Y-43092729D01*
X58399570Y-42966559D01*
X58363240Y-42927094D01*
X58363239Y-42927093D01*
X58363237Y-42927091D01*
X58281382Y-42863381D01*
X58185576Y-42788811D01*
X57987574Y-42681658D01*
X57987572Y-42681657D01*
X57987571Y-42681656D01*
X57774639Y-42608557D01*
X57774630Y-42608555D01*
X57697029Y-42595606D01*
X57552569Y-42571500D01*
X57327431Y-42571500D01*
X57182971Y-42595606D01*
X57105369Y-42608555D01*
X57105360Y-42608557D01*
X56892428Y-42681656D01*
X56892426Y-42681658D01*
X56694426Y-42788810D01*
X56694424Y-42788811D01*
X56516762Y-42927091D01*
X56364279Y-43092729D01*
X56275483Y-43228643D01*
X56221479Y-43274731D01*
X56151131Y-43284306D01*
X56086774Y-43254329D01*
X56064517Y-43228643D01*
X55975720Y-43092729D01*
X55859570Y-42966559D01*
X55823240Y-42927094D01*
X55823239Y-42927093D01*
X55823237Y-42927091D01*
X55741382Y-42863381D01*
X55645576Y-42788811D01*
X55447574Y-42681658D01*
X55447572Y-42681657D01*
X55447571Y-42681656D01*
X55234639Y-42608557D01*
X55234630Y-42608555D01*
X55157029Y-42595606D01*
X55012569Y-42571500D01*
X54787431Y-42571500D01*
X54642971Y-42595606D01*
X54565369Y-42608555D01*
X54565360Y-42608557D01*
X54352428Y-42681656D01*
X54352426Y-42681658D01*
X54154426Y-42788810D01*
X54154424Y-42788811D01*
X53976762Y-42927091D01*
X53824279Y-43092729D01*
X53735183Y-43229101D01*
X53681179Y-43275189D01*
X53610831Y-43284764D01*
X53546474Y-43254786D01*
X53524217Y-43229100D01*
X53435327Y-43093044D01*
X53282902Y-42927465D01*
X53105301Y-42789232D01*
X53105300Y-42789231D01*
X52907371Y-42682117D01*
X52907369Y-42682116D01*
X52694512Y-42609043D01*
X52694501Y-42609040D01*
X52614000Y-42595606D01*
X52614000Y-43499297D01*
X52552993Y-43464075D01*
X52425826Y-43430000D01*
X52294174Y-43430000D01*
X52167007Y-43464075D01*
X52106000Y-43499297D01*
X52106000Y-42595607D01*
X52105999Y-42595606D01*
X52025498Y-42609040D01*
X52025487Y-42609043D01*
X51812630Y-42682116D01*
X51812628Y-42682117D01*
X51614699Y-42789231D01*
X51614698Y-42789232D01*
X51437097Y-42927465D01*
X51284670Y-43093045D01*
X51195780Y-43229101D01*
X51141776Y-43275189D01*
X51071428Y-43284764D01*
X51007071Y-43254786D01*
X50984816Y-43229101D01*
X50939328Y-43159476D01*
X50895724Y-43092734D01*
X50895720Y-43092729D01*
X50779570Y-42966559D01*
X50743240Y-42927094D01*
X50743239Y-42927093D01*
X50743237Y-42927091D01*
X50661382Y-42863381D01*
X50565576Y-42788811D01*
X50367574Y-42681658D01*
X50367572Y-42681657D01*
X50367571Y-42681656D01*
X50154639Y-42608557D01*
X50154630Y-42608555D01*
X50077029Y-42595606D01*
X49932569Y-42571500D01*
X49707431Y-42571500D01*
X49562971Y-42595606D01*
X49485369Y-42608555D01*
X49485360Y-42608557D01*
X49272428Y-42681656D01*
X49272426Y-42681658D01*
X49074426Y-42788810D01*
X49074424Y-42788811D01*
X48896762Y-42927091D01*
X48744279Y-43092729D01*
X48655483Y-43228643D01*
X48601479Y-43274731D01*
X48531131Y-43284306D01*
X48466774Y-43254329D01*
X48444517Y-43228643D01*
X48355720Y-43092729D01*
X48239570Y-42966559D01*
X48203240Y-42927094D01*
X48203239Y-42927093D01*
X48203237Y-42927091D01*
X48121382Y-42863381D01*
X48025576Y-42788811D01*
X47827574Y-42681658D01*
X47827572Y-42681657D01*
X47827571Y-42681656D01*
X47614639Y-42608557D01*
X47614630Y-42608555D01*
X47537029Y-42595606D01*
X47392569Y-42571500D01*
X47167431Y-42571500D01*
X47022971Y-42595606D01*
X46945369Y-42608555D01*
X46945360Y-42608557D01*
X46732428Y-42681656D01*
X46732426Y-42681658D01*
X46534426Y-42788810D01*
X46534424Y-42788811D01*
X46356762Y-42927091D01*
X46204279Y-43092729D01*
X46115483Y-43228643D01*
X46061479Y-43274731D01*
X45991131Y-43284306D01*
X45926774Y-43254329D01*
X45904517Y-43228643D01*
X45815720Y-43092729D01*
X45699570Y-42966559D01*
X45663240Y-42927094D01*
X45663239Y-42927093D01*
X45663237Y-42927091D01*
X45581382Y-42863381D01*
X45485576Y-42788811D01*
X45287574Y-42681658D01*
X45287572Y-42681657D01*
X45287571Y-42681656D01*
X45074639Y-42608557D01*
X45074630Y-42608555D01*
X44997029Y-42595606D01*
X44852569Y-42571500D01*
X44627431Y-42571500D01*
X44482971Y-42595606D01*
X44405369Y-42608555D01*
X44405360Y-42608557D01*
X44192428Y-42681656D01*
X44192426Y-42681658D01*
X43994426Y-42788810D01*
X43994424Y-42788811D01*
X43816762Y-42927091D01*
X43664279Y-43092729D01*
X43575183Y-43229101D01*
X43521179Y-43275189D01*
X43450831Y-43284764D01*
X43386474Y-43254786D01*
X43364217Y-43229100D01*
X43275327Y-43093044D01*
X43122902Y-42927465D01*
X42945301Y-42789232D01*
X42945300Y-42789231D01*
X42747371Y-42682117D01*
X42747369Y-42682116D01*
X42534512Y-42609043D01*
X42534501Y-42609040D01*
X42454000Y-42595606D01*
X42454000Y-43499297D01*
X42392993Y-43464075D01*
X42265826Y-43430000D01*
X42134174Y-43430000D01*
X42007007Y-43464075D01*
X41946000Y-43499297D01*
X41946000Y-42595607D01*
X41945999Y-42595606D01*
X41865498Y-42609040D01*
X41865487Y-42609043D01*
X41652630Y-42682116D01*
X41652628Y-42682117D01*
X41454699Y-42789231D01*
X41454698Y-42789232D01*
X41277097Y-42927465D01*
X41124670Y-43093045D01*
X41035780Y-43229101D01*
X40981776Y-43275189D01*
X40911428Y-43284764D01*
X40847071Y-43254786D01*
X40824816Y-43229101D01*
X40779328Y-43159476D01*
X40735724Y-43092734D01*
X40735720Y-43092729D01*
X40619570Y-42966559D01*
X40583240Y-42927094D01*
X40583239Y-42927093D01*
X40583237Y-42927091D01*
X40501382Y-42863381D01*
X40405576Y-42788811D01*
X40207574Y-42681658D01*
X40207572Y-42681657D01*
X40207571Y-42681656D01*
X39994639Y-42608557D01*
X39994630Y-42608555D01*
X39917029Y-42595606D01*
X39772569Y-42571500D01*
X39547431Y-42571500D01*
X39402971Y-42595606D01*
X39325369Y-42608555D01*
X39325360Y-42608557D01*
X39112428Y-42681656D01*
X39112426Y-42681658D01*
X38914426Y-42788810D01*
X38914424Y-42788811D01*
X38736762Y-42927091D01*
X38584279Y-43092729D01*
X38495483Y-43228643D01*
X38441479Y-43274731D01*
X38371131Y-43284306D01*
X38306774Y-43254329D01*
X38284517Y-43228643D01*
X38195720Y-43092729D01*
X38079570Y-42966559D01*
X38043240Y-42927094D01*
X38043239Y-42927093D01*
X38043237Y-42927091D01*
X37961382Y-42863381D01*
X37865576Y-42788811D01*
X37667574Y-42681658D01*
X37667572Y-42681657D01*
X37667571Y-42681656D01*
X37454639Y-42608557D01*
X37454630Y-42608555D01*
X37377029Y-42595606D01*
X37232569Y-42571500D01*
X37007431Y-42571500D01*
X36862971Y-42595606D01*
X36785369Y-42608555D01*
X36785360Y-42608557D01*
X36572428Y-42681656D01*
X36572426Y-42681658D01*
X36374426Y-42788810D01*
X36374424Y-42788811D01*
X36196762Y-42927091D01*
X36044279Y-43092729D01*
X36044275Y-43092734D01*
X35921141Y-43281206D01*
X35830703Y-43487386D01*
X35830702Y-43487387D01*
X35775437Y-43705624D01*
X35775436Y-43705630D01*
X35775436Y-43705632D01*
X35756844Y-43930000D01*
X35773095Y-44126121D01*
X35775437Y-44154375D01*
X35830702Y-44372612D01*
X35830703Y-44372613D01*
X35830704Y-44372616D01*
X35890664Y-44509314D01*
X35893226Y-44515153D01*
X35902272Y-44585571D01*
X35871811Y-44649701D01*
X35866933Y-44654861D01*
X29996167Y-50525629D01*
X29907931Y-50613864D01*
X29907926Y-50613871D01*
X29838601Y-50717623D01*
X29790846Y-50832912D01*
X29766500Y-50955303D01*
X29766500Y-52185500D01*
X29746498Y-52253621D01*
X29692842Y-52300114D01*
X29640500Y-52311500D01*
X29501350Y-52311500D01*
X29440803Y-52318009D01*
X29440795Y-52318011D01*
X29303797Y-52369110D01*
X29303792Y-52369112D01*
X29186738Y-52456738D01*
X29099112Y-52573792D01*
X29099110Y-52573797D01*
X29048011Y-52710795D01*
X29048009Y-52710803D01*
X29041500Y-52771350D01*
X25060536Y-52771350D01*
X25054048Y-45000000D01*
X27136656Y-45000000D01*
X27156016Y-45332403D01*
X27156016Y-45332409D01*
X27171324Y-45419227D01*
X27213838Y-45660333D01*
X27309337Y-45979321D01*
X27309339Y-45979327D01*
X27309340Y-45979328D01*
X27441220Y-46285063D01*
X27441223Y-46285068D01*
X27595397Y-46552104D01*
X27607711Y-46573433D01*
X27806551Y-46840522D01*
X27834455Y-46870099D01*
X28035057Y-47082724D01*
X28290134Y-47296758D01*
X28557954Y-47472906D01*
X28568328Y-47479729D01*
X28865887Y-47629169D01*
X28983128Y-47671841D01*
X29178775Y-47743051D01*
X29178776Y-47743051D01*
X29178784Y-47743054D01*
X29502786Y-47819843D01*
X29691771Y-47841932D01*
X29833508Y-47858500D01*
X29833511Y-47858500D01*
X30166492Y-47858500D01*
X30290510Y-47844003D01*
X30497214Y-47819843D01*
X30821216Y-47743054D01*
X31134113Y-47629169D01*
X31431672Y-47479729D01*
X31709870Y-47296755D01*
X31964946Y-47082721D01*
X32193449Y-46840522D01*
X32392289Y-46573433D01*
X32558778Y-46285066D01*
X32690663Y-45979321D01*
X32786162Y-45660333D01*
X32843983Y-45332414D01*
X32863344Y-45000000D01*
X32843983Y-44667586D01*
X32786162Y-44339667D01*
X32690663Y-44020679D01*
X32558778Y-43714934D01*
X32392289Y-43426567D01*
X32193449Y-43159478D01*
X31964946Y-42917279D01*
X31964944Y-42917278D01*
X31964942Y-42917275D01*
X31709865Y-42703241D01*
X31431679Y-42520275D01*
X31431675Y-42520273D01*
X31431672Y-42520271D01*
X31134113Y-42370831D01*
X31134108Y-42370829D01*
X31134103Y-42370827D01*
X30821224Y-42256948D01*
X30821217Y-42256946D01*
X30821216Y-42256946D01*
X30639258Y-42213821D01*
X30497219Y-42180158D01*
X30497209Y-42180156D01*
X30166492Y-42141500D01*
X30166489Y-42141500D01*
X29833511Y-42141500D01*
X29833508Y-42141500D01*
X29502790Y-42180156D01*
X29502780Y-42180158D01*
X29178784Y-42256946D01*
X29178775Y-42256948D01*
X28865896Y-42370827D01*
X28865891Y-42370829D01*
X28568320Y-42520275D01*
X28290134Y-42703241D01*
X28035057Y-42917275D01*
X27806552Y-43159476D01*
X27607714Y-43426562D01*
X27607704Y-43426578D01*
X27441223Y-43714931D01*
X27441220Y-43714936D01*
X27309340Y-44020671D01*
X27309338Y-44020677D01*
X27213838Y-44339666D01*
X27156016Y-44667590D01*
X27156016Y-44667596D01*
X27136656Y-45000000D01*
X25054048Y-45000000D01*
X25050105Y-40275977D01*
X25070050Y-40207841D01*
X25123667Y-40161303D01*
X25175974Y-40149873D01*
X124848376Y-40050151D01*
X124916515Y-40070085D01*
G37*
G04 #@! TD.AperFunction*
M02*
