<?xml version="1.0" standalone="no"?>
 <!DOCTYPE svg PUBLIC "-//W3C//DTD SVG 1.1//EN" 
 "http://www.w3.org/Graphics/SVG/1.1/DTD/svg11.dtd"> 
<svg
  xmlns:svg="http://www.w3.org/2000/svg"
  xmlns="http://www.w3.org/2000/svg"
  xmlns:xlink="http://www.w3.org/1999/xlink"
  version="1.1"
  width="105.8926mm" height="57.1500mm" viewBox="0.0000 0.0000 105.8926 57.1500">
<title>SVG Image created as RL78_G23_Arduino-F_Paste.svg date 2025/01/18 20:27:26 </title>
  <desc>Image generated by PCBNEW </desc>
<g style="fill:#000000; fill-opacity:1.0000;stroke:#000000; stroke-opacity:1.0000;
stroke-linecap:round; stroke-linejoin:round;"
 transform="translate(0 0) scale(1 1)">
<path style="fill:#000000; fill-opacity:1.0000; stroke:none;fill-rule:evenodd;"
d="M 39.4120,14.1500
39.4310,14.0543
39.4852,13.9732
39.5663,13.9190
39.6620,13.9000
40.1870,13.9000
40.2827,13.9190
40.3638,13.9732
40.4180,14.0543
40.4370,14.1500
40.4370,15.0500
40.4180,15.1457
40.3638,15.2268
40.2827,15.2810
40.1870,15.3000
39.6620,15.3000
39.5663,15.2810
39.4852,15.2268
39.4310,15.1457
39.4120,15.0500
Z" /> 
<path style="fill:#000000; fill-opacity:1.0000; stroke:none;fill-rule:evenodd;"
d="M 41.2370,14.1500
41.2560,14.0543
41.3102,13.9732
41.3913,13.9190
41.4870,13.9000
42.0120,13.9000
42.1077,13.9190
42.1888,13.9732
42.2430,14.0543
42.2620,14.1500
42.2620,15.0500
42.2430,15.1457
42.1888,15.2268
42.1077,15.2810
42.0120,15.3000
41.4870,15.3000
41.3913,15.2810
41.3102,15.2268
41.2560,15.1457
41.2370,15.0500
Z" /> 
<path style="fill:#000000; fill-opacity:1.0000; stroke:none;fill-rule:evenodd;"
d="M 25.2120,14.7250
25.2310,14.6293
25.2852,14.5482
25.3663,14.4940
25.4620,14.4750
26.1370,14.4750
26.2327,14.4940
26.3138,14.5482
26.3680,14.6293
26.3870,14.7250
26.3870,15.6750
26.3680,15.7707
26.3138,15.8518
26.2327,15.9060
26.1370,15.9250
25.4620,15.9250
25.3663,15.9060
25.2852,15.8518
25.2310,15.7707
25.2120,15.6750
Z" /> 
<path style="fill:#000000; fill-opacity:1.0000; stroke:none;fill-rule:evenodd;"
d="M 27.2870,14.7250
27.3060,14.6293
27.3602,14.5482
27.4413,14.4940
27.5370,14.4750
28.2120,14.4750
28.3077,14.4940
28.3888,14.5482
28.4430,14.6293
28.4620,14.7250
28.4620,15.6750
28.4430,15.7707
28.3888,15.8518
28.3077,15.9060
28.2120,15.9250
27.5370,15.9250
27.4413,15.9060
27.3602,15.8518
27.3060,15.7707
27.2870,15.6750
Z" /> 
<path style="fill:#000000; fill-opacity:1.0000; stroke:none;fill-rule:evenodd;"
d="M 42.2314,37.8683
42.2314,36.1665
42.9426,36.1665
42.9426,37.8683
Z" /> 
<path style="fill:#000000; fill-opacity:1.0000; stroke:none;fill-rule:evenodd;"
d="M 41.5088,35.1505
41.5088,27.1495
48.2652,27.1495
48.2652,35.1505
Z" /> 
<path style="fill:#000000; fill-opacity:1.0000; stroke:none;fill-rule:evenodd;"
d="M 46.8314,37.8683
46.8314,36.1665
47.5426,36.1665
47.5426,37.8683
Z" /> 
<path style="fill:#000000; fill-opacity:1.0000; stroke:none;fill-rule:evenodd;"
d="M 70.0240,24.8250
70.1197,24.8440
70.2008,24.8982
70.2550,24.9793
70.2740,25.0750
70.2740,25.7500
70.2550,25.8457
70.2008,25.9268
70.1197,25.9810
70.0240,26.0000
69.0740,26.0000
68.9783,25.9810
68.8972,25.9268
68.8430,25.8457
68.8240,25.7500
68.8240,25.0750
68.8430,24.9793
68.8972,24.8982
68.9783,24.8440
69.0740,24.8250
Z" /> 
<path style="fill:#000000; fill-opacity:1.0000; stroke:none;fill-rule:evenodd;"
d="M 70.0240,26.9000
70.1197,26.9190
70.2008,26.9732
70.2550,27.0543
70.2740,27.1500
70.2740,27.8250
70.2550,27.9207
70.2008,28.0018
70.1197,28.0560
70.0240,28.0750
69.0740,28.0750
68.9783,28.0560
68.8972,28.0018
68.8430,27.9207
68.8240,27.8250
68.8240,27.1500
68.8430,27.0543
68.8972,26.9732
68.9783,26.9190
69.0740,26.9000
Z" /> 
<path style="fill:#000000; fill-opacity:1.0000; stroke:none;fill-rule:evenodd;"
d="M 11.5370,37.5500
11.5560,37.4543
11.6102,37.3732
11.6913,37.3190
11.7870,37.3000
12.4870,37.3000
12.5827,37.3190
12.6638,37.3732
12.7180,37.4543
12.7370,37.5500
12.7370,38.4500
12.7180,38.5457
12.6638,38.6268
12.5827,38.6810
12.4870,38.7000
11.7870,38.7000
11.6913,38.6810
11.6102,38.6268
11.5560,38.5457
11.5370,38.4500
Z" /> 
<path style="fill:#000000; fill-opacity:1.0000; stroke:none;fill-rule:evenodd;"
d="M 13.5370,37.5500
13.5560,37.4543
13.6102,37.3732
13.6913,37.3190
13.7870,37.3000
14.4870,37.3000
14.5827,37.3190
14.6638,37.3732
14.7180,37.4543
14.7370,37.5500
14.7370,38.4500
14.7180,38.5457
14.6638,38.6268
14.5827,38.6810
14.4870,38.7000
13.7870,38.7000
13.6913,38.6810
13.6102,38.6268
13.5560,38.5457
13.5370,38.4500
Z" /> 
<path style="fill:#000000; fill-opacity:1.0000; stroke:none;fill-rule:evenodd;"
d="M 37.3620,11.4250
37.3810,11.3293
37.4352,11.2482
37.5163,11.1940
37.6120,11.1750
38.2870,11.1750
38.3827,11.1940
38.4638,11.2482
38.5180,11.3293
38.5370,11.4250
38.5370,12.3750
38.5180,12.4707
38.4638,12.5518
38.3827,12.6060
38.2870,12.6250
37.6120,12.6250
37.5163,12.6060
37.4352,12.5518
37.3810,12.4707
37.3620,12.3750
Z" /> 
<path style="fill:#000000; fill-opacity:1.0000; stroke:none;fill-rule:evenodd;"
d="M 39.4370,11.4250
39.4560,11.3293
39.5102,11.2482
39.5913,11.1940
39.6870,11.1750
40.3620,11.1750
40.4577,11.1940
40.5388,11.2482
40.5930,11.3293
40.6120,11.4250
40.6120,12.3750
40.5930,12.4707
40.5388,12.5518
40.4577,12.6060
40.3620,12.6250
39.6870,12.6250
39.5913,12.6060
39.5102,12.5518
39.4560,12.4707
39.4370,12.3750
Z" /> 
<path style="fill:#000000; fill-opacity:1.0000; stroke:none;fill-rule:evenodd;"
d="M 30.4120,26.4250
30.4310,26.3293
30.4852,26.2482
30.5663,26.1940
30.6620,26.1750
31.3370,26.1750
31.4327,26.1940
31.5138,26.2482
31.5680,26.3293
31.5870,26.4250
31.5870,27.3750
31.5680,27.4707
31.5138,27.5518
31.4327,27.6060
31.3370,27.6250
30.6620,27.6250
30.5663,27.6060
30.4852,27.5518
30.4310,27.4707
30.4120,27.3750
Z" /> 
<path style="fill:#000000; fill-opacity:1.0000; stroke:none;fill-rule:evenodd;"
d="M 32.4870,26.4250
32.5060,26.3293
32.5602,26.2482
32.6413,26.1940
32.7370,26.1750
33.4120,26.1750
33.5077,26.1940
33.5888,26.2482
33.6430,26.3293
33.6620,26.4250
33.6620,27.3750
33.6430,27.4707
33.5888,27.5518
33.5077,27.6060
33.4120,27.6250
32.7370,27.6250
32.6413,27.6060
32.5602,27.5518
32.5060,27.4707
32.4870,27.3750
Z" /> 
<path style="fill:#000000; fill-opacity:1.0000; stroke:none;fill-rule:evenodd;"
d="M 42.2620,18.7500
42.2430,18.8457
42.1888,18.9268
42.1077,18.9810
42.0120,19.0000
41.4870,19.0000
41.3913,18.9810
41.3102,18.9268
41.2560,18.8457
41.2370,18.7500
41.2370,17.8500
41.2560,17.7543
41.3102,17.6732
41.3913,17.6190
41.4870,17.6000
42.0120,17.6000
42.1077,17.6190
42.1888,17.6732
42.2430,17.7543
42.2620,17.8500
Z" /> 
<path style="fill:#000000; fill-opacity:1.0000; stroke:none;fill-rule:evenodd;"
d="M 40.4370,18.7500
40.4180,18.8457
40.3638,18.9268
40.2827,18.9810
40.1870,19.0000
39.6620,19.0000
39.5663,18.9810
39.4852,18.9268
39.4310,18.8457
39.4120,18.7500
39.4120,17.8500
39.4310,17.7543
39.4852,17.6732
39.5663,17.6190
39.6620,17.6000
40.1870,17.6000
40.2827,17.6190
40.3638,17.6732
40.4180,17.7543
40.4370,17.8500
Z" /> 
<path style="fill:#000000; fill-opacity:1.0000; stroke:none;fill-rule:evenodd;"
d="M 73.7485,21.1500
72.2735,21.1500
72.2735,20.8500
73.7485,20.8500
Z" /> 
<path style="fill:#000000; fill-opacity:1.0000; stroke:none;fill-rule:evenodd;"
d="M 73.7485,21.6500
72.2735,21.6500
72.2735,21.3500
73.7485,21.3500
Z" /> 
<path style="fill:#000000; fill-opacity:1.0000; stroke:none;fill-rule:evenodd;"
d="M 73.7485,22.1500
72.2735,22.1500
72.2735,21.8500
73.7485,21.8500
Z" /> 
<path style="fill:#000000; fill-opacity:1.0000; stroke:none;fill-rule:evenodd;"
d="M 73.7485,22.6500
72.2735,22.6500
72.2735,22.3500
73.7485,22.3500
Z" /> 
<path style="fill:#000000; fill-opacity:1.0000; stroke:none;fill-rule:evenodd;"
d="M 73.7485,23.1500
72.2735,23.1500
72.2735,22.8500
73.7485,22.8500
Z" /> 
<path style="fill:#000000; fill-opacity:1.0000; stroke:none;fill-rule:evenodd;"
d="M 73.7485,23.6500
72.2735,23.6500
72.2735,23.3500
73.7485,23.3500
Z" /> 
<path style="fill:#000000; fill-opacity:1.0000; stroke:none;fill-rule:evenodd;"
d="M 73.7485,24.1500
72.2735,24.1500
72.2735,23.8500
73.7485,23.8500
Z" /> 
<path style="fill:#000000; fill-opacity:1.0000; stroke:none;fill-rule:evenodd;"
d="M 73.7485,24.6500
72.2735,24.6500
72.2735,24.3500
73.7485,24.3500
Z" /> 
<path style="fill:#000000; fill-opacity:1.0000; stroke:none;fill-rule:evenodd;"
d="M 73.7485,25.1500
72.2735,25.1500
72.2735,24.8500
73.7485,24.8500
Z" /> 
<path style="fill:#000000; fill-opacity:1.0000; stroke:none;fill-rule:evenodd;"
d="M 73.7485,25.6500
72.2735,25.6500
72.2735,25.3500
73.7485,25.3500
Z" /> 
<path style="fill:#000000; fill-opacity:1.0000; stroke:none;fill-rule:evenodd;"
d="M 73.7485,26.1500
72.2735,26.1500
72.2735,25.8500
73.7485,25.8500
Z" /> 
<path style="fill:#000000; fill-opacity:1.0000; stroke:none;fill-rule:evenodd;"
d="M 73.7485,26.6500
72.2735,26.6500
72.2735,26.3500
73.7485,26.3500
Z" /> 
<path style="fill:#000000; fill-opacity:1.0000; stroke:none;fill-rule:evenodd;"
d="M 73.7485,27.1500
72.2735,27.1500
72.2735,26.8500
73.7485,26.8500
Z" /> 
<path style="fill:#000000; fill-opacity:1.0000; stroke:none;fill-rule:evenodd;"
d="M 73.7485,27.6500
72.2735,27.6500
72.2735,27.3500
73.7485,27.3500
Z" /> 
<path style="fill:#000000; fill-opacity:1.0000; stroke:none;fill-rule:evenodd;"
d="M 73.7485,28.1500
72.2735,28.1500
72.2735,27.8500
73.7485,27.8500
Z" /> 
<path style="fill:#000000; fill-opacity:1.0000; stroke:none;fill-rule:evenodd;"
d="M 73.7485,28.6500
72.2735,28.6500
72.2735,28.3500
73.7485,28.3500
Z" /> 
<path style="fill:#000000; fill-opacity:1.0000; stroke:none;fill-rule:evenodd;"
d="M 74.8490,31.2255
74.8490,29.7505
75.1490,29.7505
75.1490,31.2255
Z" /> 
<path style="fill:#000000; fill-opacity:1.0000; stroke:none;fill-rule:evenodd;"
d="M 75.3490,31.2255
75.3490,29.7505
75.6490,29.7505
75.6490,31.2255
Z" /> 
<path style="fill:#000000; fill-opacity:1.0000; stroke:none;fill-rule:evenodd;"
d="M 75.8490,31.2255
75.8490,29.7505
76.1490,29.7505
76.1490,31.2255
Z" /> 
<path style="fill:#000000; fill-opacity:1.0000; stroke:none;fill-rule:evenodd;"
d="M 76.3490,31.2255
76.3490,29.7505
76.6490,29.7505
76.6490,31.2255
Z" /> 
<path style="fill:#000000; fill-opacity:1.0000; stroke:none;fill-rule:evenodd;"
d="M 76.8490,31.2255
76.8490,29.7505
77.1490,29.7505
77.1490,31.2255
Z" /> 
<path style="fill:#000000; fill-opacity:1.0000; stroke:none;fill-rule:evenodd;"
d="M 77.3490,31.2255
77.3490,29.7505
77.6490,29.7505
77.6490,31.2255
Z" /> 
<path style="fill:#000000; fill-opacity:1.0000; stroke:none;fill-rule:evenodd;"
d="M 77.8490,31.2255
77.8490,29.7505
78.1490,29.7505
78.1490,31.2255
Z" /> 
<path style="fill:#000000; fill-opacity:1.0000; stroke:none;fill-rule:evenodd;"
d="M 78.3490,31.2255
78.3490,29.7505
78.6490,29.7505
78.6490,31.2255
Z" /> 
<path style="fill:#000000; fill-opacity:1.0000; stroke:none;fill-rule:evenodd;"
d="M 78.8490,31.2255
78.8490,29.7505
79.1490,29.7505
79.1490,31.2255
Z" /> 
<path style="fill:#000000; fill-opacity:1.0000; stroke:none;fill-rule:evenodd;"
d="M 79.3490,31.2255
79.3490,29.7505
79.6490,29.7505
79.6490,31.2255
Z" /> 
<path style="fill:#000000; fill-opacity:1.0000; stroke:none;fill-rule:evenodd;"
d="M 79.8490,31.2255
79.8490,29.7505
80.1490,29.7505
80.1490,31.2255
Z" /> 
<path style="fill:#000000; fill-opacity:1.0000; stroke:none;fill-rule:evenodd;"
d="M 80.3490,31.2255
80.3490,29.7505
80.6490,29.7505
80.6490,31.2255
Z" /> 
<path style="fill:#000000; fill-opacity:1.0000; stroke:none;fill-rule:evenodd;"
d="M 80.8490,31.2255
80.8490,29.7505
81.1490,29.7505
81.1490,31.2255
Z" /> 
<path style="fill:#000000; fill-opacity:1.0000; stroke:none;fill-rule:evenodd;"
d="M 81.3490,31.2255
81.3490,29.7505
81.6490,29.7505
81.6490,31.2255
Z" /> 
<path style="fill:#000000; fill-opacity:1.0000; stroke:none;fill-rule:evenodd;"
d="M 81.8490,31.2255
81.8490,29.7505
82.1490,29.7505
82.1490,31.2255
Z" /> 
<path style="fill:#000000; fill-opacity:1.0000; stroke:none;fill-rule:evenodd;"
d="M 82.3490,31.2255
82.3490,29.7505
82.6490,29.7505
82.6490,31.2255
Z" /> 
<path style="fill:#000000; fill-opacity:1.0000; stroke:none;fill-rule:evenodd;"
d="M 85.2245,28.6500
83.7495,28.6500
83.7495,28.3500
85.2245,28.3500
Z" /> 
<path style="fill:#000000; fill-opacity:1.0000; stroke:none;fill-rule:evenodd;"
d="M 85.2245,28.1500
83.7495,28.1500
83.7495,27.8500
85.2245,27.8500
Z" /> 
<path style="fill:#000000; fill-opacity:1.0000; stroke:none;fill-rule:evenodd;"
d="M 85.2245,27.6500
83.7495,27.6500
83.7495,27.3500
85.2245,27.3500
Z" /> 
<path style="fill:#000000; fill-opacity:1.0000; stroke:none;fill-rule:evenodd;"
d="M 85.2245,27.1500
83.7495,27.1500
83.7495,26.8500
85.2245,26.8500
Z" /> 
<path style="fill:#000000; fill-opacity:1.0000; stroke:none;fill-rule:evenodd;"
d="M 85.2245,26.6500
83.7495,26.6500
83.7495,26.3500
85.2245,26.3500
Z" /> 
<path style="fill:#000000; fill-opacity:1.0000; stroke:none;fill-rule:evenodd;"
d="M 85.2245,26.1500
83.7495,26.1500
83.7495,25.8500
85.2245,25.8500
Z" /> 
<path style="fill:#000000; fill-opacity:1.0000; stroke:none;fill-rule:evenodd;"
d="M 85.2245,25.6500
83.7495,25.6500
83.7495,25.3500
85.2245,25.3500
Z" /> 
<path style="fill:#000000; fill-opacity:1.0000; stroke:none;fill-rule:evenodd;"
d="M 85.2245,25.1500
83.7495,25.1500
83.7495,24.8500
85.2245,24.8500
Z" /> 
<path style="fill:#000000; fill-opacity:1.0000; stroke:none;fill-rule:evenodd;"
d="M 85.2245,24.6500
83.7495,24.6500
83.7495,24.3500
85.2245,24.3500
Z" /> 
<path style="fill:#000000; fill-opacity:1.0000; stroke:none;fill-rule:evenodd;"
d="M 85.2245,24.1500
83.7495,24.1500
83.7495,23.8500
85.2245,23.8500
Z" /> 
<path style="fill:#000000; fill-opacity:1.0000; stroke:none;fill-rule:evenodd;"
d="M 85.2245,23.6500
83.7495,23.6500
83.7495,23.3500
85.2245,23.3500
Z" /> 
<path style="fill:#000000; fill-opacity:1.0000; stroke:none;fill-rule:evenodd;"
d="M 85.2245,23.1500
83.7495,23.1500
83.7495,22.8500
85.2245,22.8500
Z" /> 
<path style="fill:#000000; fill-opacity:1.0000; stroke:none;fill-rule:evenodd;"
d="M 85.2245,22.6500
83.7495,22.6500
83.7495,22.3500
85.2245,22.3500
Z" /> 
<path style="fill:#000000; fill-opacity:1.0000; stroke:none;fill-rule:evenodd;"
d="M 85.2245,22.1500
83.7495,22.1500
83.7495,21.8500
85.2245,21.8500
Z" /> 
<path style="fill:#000000; fill-opacity:1.0000; stroke:none;fill-rule:evenodd;"
d="M 85.2245,21.6500
83.7495,21.6500
83.7495,21.3500
85.2245,21.3500
Z" /> 
<path style="fill:#000000; fill-opacity:1.0000; stroke:none;fill-rule:evenodd;"
d="M 85.2245,21.1500
83.7495,21.1500
83.7495,20.8500
85.2245,20.8500
Z" /> 
<path style="fill:#000000; fill-opacity:1.0000; stroke:none;fill-rule:evenodd;"
d="M 82.3490,19.7495
82.3490,18.2745
82.6490,18.2745
82.6490,19.7495
Z" /> 
<path style="fill:#000000; fill-opacity:1.0000; stroke:none;fill-rule:evenodd;"
d="M 81.8490,19.7495
81.8490,18.2745
82.1490,18.2745
82.1490,19.7495
Z" /> 
<path style="fill:#000000; fill-opacity:1.0000; stroke:none;fill-rule:evenodd;"
d="M 81.3490,19.7495
81.3490,18.2745
81.6490,18.2745
81.6490,19.7495
Z" /> 
<path style="fill:#000000; fill-opacity:1.0000; stroke:none;fill-rule:evenodd;"
d="M 80.8490,19.7495
80.8490,18.2745
81.1490,18.2745
81.1490,19.7495
Z" /> 
<path style="fill:#000000; fill-opacity:1.0000; stroke:none;fill-rule:evenodd;"
d="M 80.3490,19.7495
80.3490,18.2745
80.6490,18.2745
80.6490,19.7495
Z" /> 
<path style="fill:#000000; fill-opacity:1.0000; stroke:none;fill-rule:evenodd;"
d="M 79.8490,19.7495
79.8490,18.2745
80.1490,18.2745
80.1490,19.7495
Z" /> 
<path style="fill:#000000; fill-opacity:1.0000; stroke:none;fill-rule:evenodd;"
d="M 79.3490,19.7495
79.3490,18.2745
79.6490,18.2745
79.6490,19.7495
Z" /> 
<path style="fill:#000000; fill-opacity:1.0000; stroke:none;fill-rule:evenodd;"
d="M 78.8490,19.7495
78.8490,18.2745
79.1490,18.2745
79.1490,19.7495
Z" /> 
<path style="fill:#000000; fill-opacity:1.0000; stroke:none;fill-rule:evenodd;"
d="M 78.3490,19.7495
78.3490,18.2745
78.6490,18.2745
78.6490,19.7495
Z" /> 
<path style="fill:#000000; fill-opacity:1.0000; stroke:none;fill-rule:evenodd;"
d="M 77.8490,19.7495
77.8490,18.2745
78.1490,18.2745
78.1490,19.7495
Z" /> 
<path style="fill:#000000; fill-opacity:1.0000; stroke:none;fill-rule:evenodd;"
d="M 77.3490,19.7495
77.3490,18.2745
77.6490,18.2745
77.6490,19.7495
Z" /> 
<path style="fill:#000000; fill-opacity:1.0000; stroke:none;fill-rule:evenodd;"
d="M 76.8490,19.7495
76.8490,18.2745
77.1490,18.2745
77.1490,19.7495
Z" /> 
<path style="fill:#000000; fill-opacity:1.0000; stroke:none;fill-rule:evenodd;"
d="M 76.3490,19.7495
76.3490,18.2745
76.6490,18.2745
76.6490,19.7495
Z" /> 
<path style="fill:#000000; fill-opacity:1.0000; stroke:none;fill-rule:evenodd;"
d="M 75.8490,19.7495
75.8490,18.2745
76.1490,18.2745
76.1490,19.7495
Z" /> 
<path style="fill:#000000; fill-opacity:1.0000; stroke:none;fill-rule:evenodd;"
d="M 75.3490,19.7495
75.3490,18.2745
75.6490,18.2745
75.6490,19.7495
Z" /> 
<path style="fill:#000000; fill-opacity:1.0000; stroke:none;fill-rule:evenodd;"
d="M 74.8490,19.7495
74.8490,18.2745
75.1490,18.2745
75.1490,19.7495
Z" /> 
<path style="fill:#000000; fill-opacity:1.0000; stroke:none;fill-rule:evenodd;"
d="M 51.0620,28.6750
51.0810,28.5793
51.1352,28.4982
51.2163,28.4440
51.3120,28.4250
51.9870,28.4250
52.0827,28.4440
52.1638,28.4982
52.2180,28.5793
52.2370,28.6750
52.2370,29.6250
52.2180,29.7207
52.1638,29.8018
52.0827,29.8560
51.9870,29.8750
51.3120,29.8750
51.2163,29.8560
51.1352,29.8018
51.0810,29.7207
51.0620,29.6250
Z" /> 
<path style="fill:#000000; fill-opacity:1.0000; stroke:none;fill-rule:evenodd;"
d="M 53.1370,28.6750
53.1560,28.5793
53.2102,28.4982
53.2913,28.4440
53.3870,28.4250
54.0620,28.4250
54.1577,28.4440
54.2388,28.4982
54.2930,28.5793
54.3120,28.6750
54.3120,29.6250
54.2930,29.7207
54.2388,29.8018
54.1577,29.8560
54.0620,29.8750
53.3870,29.8750
53.2913,29.8560
53.2102,29.8018
53.1560,29.7207
53.1370,29.6250
Z" /> 
<path style="fill:#000000; fill-opacity:1.0000; stroke:none;fill-rule:evenodd;"
d="M 70.8740,31.3750
70.8550,31.4707
70.8008,31.5518
70.7197,31.6060
70.6240,31.6250
69.9490,31.6250
69.8533,31.6060
69.7722,31.5518
69.7180,31.4707
69.6990,31.3750
69.6990,30.4250
69.7180,30.3293
69.7722,30.2482
69.8533,30.1940
69.9490,30.1750
70.6240,30.1750
70.7197,30.1940
70.8008,30.2482
70.8550,30.3293
70.8740,30.4250
Z" /> 
<path style="fill:#000000; fill-opacity:1.0000; stroke:none;fill-rule:evenodd;"
d="M 68.7990,31.3750
68.7800,31.4707
68.7258,31.5518
68.6447,31.6060
68.5490,31.6250
67.8740,31.6250
67.7783,31.6060
67.6972,31.5518
67.6430,31.4707
67.6240,31.3750
67.6240,30.4250
67.6430,30.3293
67.6972,30.2482
67.7783,30.1940
67.8740,30.1750
68.5490,30.1750
68.6447,30.1940
68.7258,30.2482
68.7800,30.3293
68.7990,30.4250
Z" /> 
<path style="fill:#000000; fill-opacity:1.0000; stroke:none;fill-rule:evenodd;"
d="M 31.4370,14.3400
31.4484,14.2826
31.4809,14.2339
31.5296,14.2014
31.5870,14.1900
33.2370,14.1900
33.2944,14.2014
33.3431,14.2339
33.3756,14.2826
33.3870,14.3400
33.3870,14.6400
33.3756,14.6974
33.3431,14.7461
33.2944,14.7786
33.2370,14.7900
31.5870,14.7900
31.5296,14.7786
31.4809,14.7461
31.4484,14.6974
31.4370,14.6400
Z" /> 
<path style="fill:#000000; fill-opacity:1.0000; stroke:none;fill-rule:evenodd;"
d="M 31.4370,15.6100
31.4484,15.5526
31.4809,15.5039
31.5296,15.4714
31.5870,15.4600
33.2370,15.4600
33.2944,15.4714
33.3431,15.5039
33.3756,15.5526
33.3870,15.6100
33.3870,15.9100
33.3756,15.9674
33.3431,16.0161
33.2944,16.0486
33.2370,16.0600
31.5870,16.0600
31.5296,16.0486
31.4809,16.0161
31.4484,15.9674
31.4370,15.9100
Z" /> 
<path style="fill:#000000; fill-opacity:1.0000; stroke:none;fill-rule:evenodd;"
d="M 31.4370,16.8800
31.4484,16.8226
31.4809,16.7739
31.5296,16.7414
31.5870,16.7300
33.2370,16.7300
33.2944,16.7414
33.3431,16.7739
33.3756,16.8226
33.3870,16.8800
33.3870,17.1800
33.3756,17.2374
33.3431,17.2861
33.2944,17.3186
33.2370,17.3300
31.5870,17.3300
31.5296,17.3186
31.4809,17.2861
31.4484,17.2374
31.4370,17.1800
Z" /> 
<path style="fill:#000000; fill-opacity:1.0000; stroke:none;fill-rule:evenodd;"
d="M 31.4370,18.1500
31.4484,18.0926
31.4809,18.0439
31.5296,18.0114
31.5870,18.0000
33.2370,18.0000
33.2944,18.0114
33.3431,18.0439
33.3756,18.0926
33.3870,18.1500
33.3870,18.4500
33.3756,18.5074
33.3431,18.5561
33.2944,18.5886
33.2370,18.6000
31.5870,18.6000
31.5296,18.5886
31.4809,18.5561
31.4484,18.5074
31.4370,18.4500
Z" /> 
<path style="fill:#000000; fill-opacity:1.0000; stroke:none;fill-rule:evenodd;"
d="M 31.4370,19.4200
31.4484,19.3626
31.4809,19.3139
31.5296,19.2814
31.5870,19.2700
33.2370,19.2700
33.2944,19.2814
33.3431,19.3139
33.3756,19.3626
33.3870,19.4200
33.3870,19.7200
33.3756,19.7774
33.3431,19.8261
33.2944,19.8586
33.2370,19.8700
31.5870,19.8700
31.5296,19.8586
31.4809,19.8261
31.4484,19.7774
31.4370,19.7200
Z" /> 
<path style="fill:#000000; fill-opacity:1.0000; stroke:none;fill-rule:evenodd;"
d="M 31.4370,20.6900
31.4484,20.6326
31.4809,20.5839
31.5296,20.5514
31.5870,20.5400
33.2370,20.5400
33.2944,20.5514
33.3431,20.5839
33.3756,20.6326
33.3870,20.6900
33.3870,20.9900
33.3756,21.0474
33.3431,21.0961
33.2944,21.1286
33.2370,21.1400
31.5870,21.1400
31.5296,21.1286
31.4809,21.0961
31.4484,21.0474
31.4370,20.9900
Z" /> 
<path style="fill:#000000; fill-opacity:1.0000; stroke:none;fill-rule:evenodd;"
d="M 31.4370,21.9600
31.4484,21.9026
31.4809,21.8539
31.5296,21.8214
31.5870,21.8100
33.2370,21.8100
33.2944,21.8214
33.3431,21.8539
33.3756,21.9026
33.3870,21.9600
33.3870,22.2600
33.3756,22.3174
33.3431,22.3661
33.2944,22.3986
33.2370,22.4100
31.5870,22.4100
31.5296,22.3986
31.4809,22.3661
31.4484,22.3174
31.4370,22.2600
Z" /> 
<path style="fill:#000000; fill-opacity:1.0000; stroke:none;fill-rule:evenodd;"
d="M 31.4370,23.2300
31.4484,23.1726
31.4809,23.1239
31.5296,23.0914
31.5870,23.0800
33.2370,23.0800
33.2944,23.0914
33.3431,23.1239
33.3756,23.1726
33.3870,23.2300
33.3870,23.5300
33.3756,23.5874
33.3431,23.6361
33.2944,23.6686
33.2370,23.6800
31.5870,23.6800
31.5296,23.6686
31.4809,23.6361
31.4484,23.5874
31.4370,23.5300
Z" /> 
<path style="fill:#000000; fill-opacity:1.0000; stroke:none;fill-rule:evenodd;"
d="M 36.3870,23.2300
36.3984,23.1726
36.4309,23.1239
36.4796,23.0914
36.5370,23.0800
38.1870,23.0800
38.2444,23.0914
38.2931,23.1239
38.3256,23.1726
38.3370,23.2300
38.3370,23.5300
38.3256,23.5874
38.2931,23.6361
38.2444,23.6686
38.1870,23.6800
36.5370,23.6800
36.4796,23.6686
36.4309,23.6361
36.3984,23.5874
36.3870,23.5300
Z" /> 
<path style="fill:#000000; fill-opacity:1.0000; stroke:none;fill-rule:evenodd;"
d="M 36.3870,21.9600
36.3984,21.9026
36.4309,21.8539
36.4796,21.8214
36.5370,21.8100
38.1870,21.8100
38.2444,21.8214
38.2931,21.8539
38.3256,21.9026
38.3370,21.9600
38.3370,22.2600
38.3256,22.3174
38.2931,22.3661
38.2444,22.3986
38.1870,22.4100
36.5370,22.4100
36.4796,22.3986
36.4309,22.3661
36.3984,22.3174
36.3870,22.2600
Z" /> 
<path style="fill:#000000; fill-opacity:1.0000; stroke:none;fill-rule:evenodd;"
d="M 36.3870,20.6900
36.3984,20.6326
36.4309,20.5839
36.4796,20.5514
36.5370,20.5400
38.1870,20.5400
38.2444,20.5514
38.2931,20.5839
38.3256,20.6326
38.3370,20.6900
38.3370,20.9900
38.3256,21.0474
38.2931,21.0961
38.2444,21.1286
38.1870,21.1400
36.5370,21.1400
36.4796,21.1286
36.4309,21.0961
36.3984,21.0474
36.3870,20.9900
Z" /> 
<path style="fill:#000000; fill-opacity:1.0000; stroke:none;fill-rule:evenodd;"
d="M 36.3870,19.4200
36.3984,19.3626
36.4309,19.3139
36.4796,19.2814
36.5370,19.2700
38.1870,19.2700
38.2444,19.2814
38.2931,19.3139
38.3256,19.3626
38.3370,19.4200
38.3370,19.7200
38.3256,19.7774
38.2931,19.8261
38.2444,19.8586
38.1870,19.8700
36.5370,19.8700
36.4796,19.8586
36.4309,19.8261
36.3984,19.7774
36.3870,19.7200
Z" /> 
<path style="fill:#000000; fill-opacity:1.0000; stroke:none;fill-rule:evenodd;"
d="M 36.3870,18.1500
36.3984,18.0926
36.4309,18.0439
36.4796,18.0114
36.5370,18.0000
38.1870,18.0000
38.2444,18.0114
38.2931,18.0439
38.3256,18.0926
38.3370,18.1500
38.3370,18.4500
38.3256,18.5074
38.2931,18.5561
38.2444,18.5886
38.1870,18.6000
36.5370,18.6000
36.4796,18.5886
36.4309,18.5561
36.3984,18.5074
36.3870,18.4500
Z" /> 
<path style="fill:#000000; fill-opacity:1.0000; stroke:none;fill-rule:evenodd;"
d="M 36.3870,16.8800
36.3984,16.8226
36.4309,16.7739
36.4796,16.7414
36.5370,16.7300
38.1870,16.7300
38.2444,16.7414
38.2931,16.7739
38.3256,16.8226
38.3370,16.8800
38.3370,17.1800
38.3256,17.2374
38.2931,17.2861
38.2444,17.3186
38.1870,17.3300
36.5370,17.3300
36.4796,17.3186
36.4309,17.2861
36.3984,17.2374
36.3870,17.1800
Z" /> 
<path style="fill:#000000; fill-opacity:1.0000; stroke:none;fill-rule:evenodd;"
d="M 36.3870,15.6100
36.3984,15.5526
36.4309,15.5039
36.4796,15.4714
36.5370,15.4600
38.1870,15.4600
38.2444,15.4714
38.2931,15.5039
38.3256,15.5526
38.3370,15.6100
38.3370,15.9100
38.3256,15.9674
38.2931,16.0161
38.2444,16.0486
38.1870,16.0600
36.5370,16.0600
36.4796,16.0486
36.4309,16.0161
36.3984,15.9674
36.3870,15.9100
Z" /> 
<path style="fill:#000000; fill-opacity:1.0000; stroke:none;fill-rule:evenodd;"
d="M 36.3870,14.3400
36.3984,14.2826
36.4309,14.2339
36.4796,14.2014
36.5370,14.1900
38.1870,14.1900
38.2444,14.2014
38.2931,14.2339
38.3256,14.2826
38.3370,14.3400
38.3370,14.6400
38.3256,14.6974
38.2931,14.7461
38.2444,14.7786
38.1870,14.7900
36.5370,14.7900
36.4796,14.7786
36.4309,14.7461
36.3984,14.6974
36.3870,14.6400
Z" /> 
<path style="fill:#000000; fill-opacity:1.0000; stroke:none;fill-rule:evenodd;"
d="M 38.3620,37.6375
38.2663,37.6185
38.1852,37.5643
38.1310,37.4832
38.1120,37.3875
38.1120,36.7125
38.1310,36.6168
38.1852,36.5357
38.2663,36.4815
38.3620,36.4625
39.3120,36.4625
39.4077,36.4815
39.4888,36.5357
39.5430,36.6168
39.5620,36.7125
39.5620,37.3875
39.5430,37.4832
39.4888,37.5643
39.4077,37.6185
39.3120,37.6375
Z" /> 
<path style="fill:#000000; fill-opacity:1.0000; stroke:none;fill-rule:evenodd;"
d="M 38.3620,35.5625
38.2663,35.5435
38.1852,35.4893
38.1310,35.4082
38.1120,35.3125
38.1120,34.6375
38.1310,34.5418
38.1852,34.4607
38.2663,34.4065
38.3620,34.3875
39.3120,34.3875
39.4077,34.4065
39.4888,34.4607
39.5430,34.5418
39.5620,34.6375
39.5620,35.3125
39.5430,35.4082
39.4888,35.4893
39.4077,35.5435
39.3120,35.5625
Z" /> 
<path style="fill:#000000; fill-opacity:1.0000; stroke:none;fill-rule:evenodd;"
d="M 60.1620,36.6750
60.1810,36.5793
60.2352,36.4982
60.3163,36.4440
60.4120,36.4250
61.0870,36.4250
61.1827,36.4440
61.2638,36.4982
61.3180,36.5793
61.3370,36.6750
61.3370,37.6250
61.3180,37.7207
61.2638,37.8018
61.1827,37.8560
61.0870,37.8750
60.4120,37.8750
60.3163,37.8560
60.2352,37.8018
60.1810,37.7207
60.1620,37.6250
Z" /> 
<path style="fill:#000000; fill-opacity:1.0000; stroke:none;fill-rule:evenodd;"
d="M 62.2370,36.6750
62.2560,36.5793
62.3102,36.4982
62.3913,36.4440
62.4870,36.4250
63.1620,36.4250
63.2577,36.4440
63.3388,36.4982
63.3930,36.5793
63.4120,36.6750
63.4120,37.6250
63.3930,37.7207
63.3388,37.8018
63.2577,37.8560
63.1620,37.8750
62.4870,37.8750
62.3913,37.8560
62.3102,37.8018
62.2560,37.7207
62.2370,37.6250
Z" /> 
<path style="fill:#000000; fill-opacity:1.0000; stroke:none;fill-rule:evenodd;"
d="M 52.5120,32.7250
50.7620,32.7250
50.7620,31.7750
52.5120,31.7750
Z" /> 
<path style="fill:#000000; fill-opacity:1.0000; stroke:none;fill-rule:evenodd;"
d="M 52.5120,35.0250
50.7620,35.0250
50.7620,34.0750
52.5120,34.0750
Z" /> 
<path style="fill:#000000; fill-opacity:1.0000; stroke:none;fill-rule:evenodd;"
d="M 52.5120,37.3250
50.7620,37.3250
50.7620,36.3750
52.5120,36.3750
Z" /> 
<path style="fill:#000000; fill-opacity:1.0000; stroke:none;fill-rule:evenodd;"
d="M 57.0620,36.1500
57.0620,32.9500
58.8120,32.9500
58.8120,36.1500
Z" /> 
<path style="fill:#000000; fill-opacity:1.0000; stroke:none;fill-rule:evenodd;"
d="M 27.1120,10.8250
27.1310,10.7293
27.1852,10.6482
27.2663,10.5940
27.3620,10.5750
28.0370,10.5750
28.1327,10.5940
28.2138,10.6482
28.2680,10.7293
28.2870,10.8250
28.2870,11.7750
28.2680,11.8707
28.2138,11.9518
28.1327,12.0060
28.0370,12.0250
27.3620,12.0250
27.2663,12.0060
27.1852,11.9518
27.1310,11.8707
27.1120,11.7750
Z" /> 
<path style="fill:#000000; fill-opacity:1.0000; stroke:none;fill-rule:evenodd;"
d="M 29.1870,10.8250
29.2060,10.7293
29.2602,10.6482
29.3413,10.5940
29.4370,10.5750
30.1120,10.5750
30.2077,10.5940
30.2888,10.6482
30.3430,10.7293
30.3620,10.8250
30.3620,11.7750
30.3430,11.8707
30.2888,11.9518
30.2077,12.0060
30.1120,12.0250
29.4370,12.0250
29.3413,12.0060
29.2602,11.9518
29.2060,11.8707
29.1870,11.7750
Z" /> 
<path style="fill:#000000; fill-opacity:1.0000; stroke:none;fill-rule:evenodd;"
d="M 34.6620,11.7500
34.6430,11.8457
34.5888,11.9268
34.5077,11.9810
34.4120,12.0000
33.8870,12.0000
33.7913,11.9810
33.7102,11.9268
33.6560,11.8457
33.6370,11.7500
33.6370,10.8500
33.6560,10.7543
33.7102,10.6732
33.7913,10.6190
33.8870,10.6000
34.4120,10.6000
34.5077,10.6190
34.5888,10.6732
34.6430,10.7543
34.6620,10.8500
Z" /> 
<path style="fill:#000000; fill-opacity:1.0000; stroke:none;fill-rule:evenodd;"
d="M 32.8370,11.7500
32.8180,11.8457
32.7638,11.9268
32.6827,11.9810
32.5870,12.0000
32.0620,12.0000
31.9663,11.9810
31.8852,11.9268
31.8310,11.8457
31.8120,11.7500
31.8120,10.8500
31.8310,10.7543
31.8852,10.6732
31.9663,10.6190
32.0620,10.6000
32.5870,10.6000
32.6827,10.6190
32.7638,10.6732
32.8180,10.7543
32.8370,10.8500
Z" /> 
</g>
<g style="fill:none; 
stroke:#000000; stroke-width:0.1500; stroke-opacity:1; 
stroke-linecap:round; stroke-linejoin:round;">
<path d="M5.8350 57.1000
L5.8350 0.1000
" />
<path d="M105.8350 57.1000
L5.8350 57.1000
" />
<path d="M5.8350 0.1000
L105.8350 0.1000
" />
<path d="M105.8350 0.1000
L105.8350 57.1000
" />
</g> 
</svg>
