G04 #@! TF.GenerationSoftware,KiCad,Pcbnew,8.0.6*
G04 #@! TF.CreationDate,2025-01-14T22:14:51-05:00*
G04 #@! TF.ProjectId,RL78_G24_Rev3,524c3738-5f47-4323-945f-526576332e6b,rev?*
G04 #@! TF.SameCoordinates,Original*
G04 #@! TF.FileFunction,Paste,Top*
G04 #@! TF.FilePolarity,Positive*
%FSLAX46Y46*%
G04 Gerber Fmt 4.6, Leading zero omitted, Abs format (unit mm)*
G04 Created by KiCad (PCBNEW 8.0.6) date 2025-01-14 22:14:51*
%MOMM*%
%LPD*%
G01*
G04 APERTURE LIST*
G04 Aperture macros list*
%AMRoundRect*
0 Rectangle with rounded corners*
0 $1 Rounding radius*
0 $2 $3 $4 $5 $6 $7 $8 $9 X,Y pos of 4 corners*
0 Add a 4 corners polygon primitive as box body*
4,1,4,$2,$3,$4,$5,$6,$7,$8,$9,$2,$3,0*
0 Add four circle primitives for the rounded corners*
1,1,$1+$1,$2,$3*
1,1,$1+$1,$4,$5*
1,1,$1+$1,$6,$7*
1,1,$1+$1,$8,$9*
0 Add four rect primitives between the rounded corners*
20,1,$1+$1,$2,$3,$4,$5,0*
20,1,$1+$1,$4,$5,$6,$7,0*
20,1,$1+$1,$6,$7,$8,$9,0*
20,1,$1+$1,$8,$9,$2,$3,0*%
G04 Aperture macros list end*
%ADD10RoundRect,0.250000X0.337500X0.475000X-0.337500X0.475000X-0.337500X-0.475000X0.337500X-0.475000X0*%
%ADD11RoundRect,0.249999X-0.450001X-1.425001X0.450001X-1.425001X0.450001X1.425001X-0.450001X1.425001X0*%
%ADD12RoundRect,0.250000X-0.337500X-0.475000X0.337500X-0.475000X0.337500X0.475000X-0.337500X0.475000X0*%
%ADD13RoundRect,0.250000X-0.262500X-0.450000X0.262500X-0.450000X0.262500X0.450000X-0.262500X0.450000X0*%
%ADD14RoundRect,0.250000X0.350000X0.450000X-0.350000X0.450000X-0.350000X-0.450000X0.350000X-0.450000X0*%
%ADD15RoundRect,0.250000X0.450000X-0.262500X0.450000X0.262500X-0.450000X0.262500X-0.450000X-0.262500X0*%
%ADD16RoundRect,0.375000X-0.625000X-0.375000X0.625000X-0.375000X0.625000X0.375000X-0.625000X0.375000X0*%
%ADD17RoundRect,0.500000X-0.500000X-1.400000X0.500000X-1.400000X0.500000X1.400000X-0.500000X1.400000X0*%
%ADD18RoundRect,0.250000X0.475000X-0.337500X0.475000X0.337500X-0.475000X0.337500X-0.475000X-0.337500X0*%
%ADD19RoundRect,0.250000X-0.350000X-0.450000X0.350000X-0.450000X0.350000X0.450000X-0.350000X0.450000X0*%
%ADD20R,1.397000X0.558800*%
%ADD21R,0.500000X1.200000*%
%ADD22R,1.200000X0.500000*%
%ADD23RoundRect,0.250000X-0.450000X0.350000X-0.450000X-0.350000X0.450000X-0.350000X0.450000X0.350000X0*%
G04 APERTURE END LIST*
D10*
X129037500Y-82350000D03*
X126962500Y-82350000D03*
D11*
X143600000Y-103500000D03*
X149700000Y-103500000D03*
D12*
X147112500Y-81600000D03*
X149187500Y-81600000D03*
D13*
X160337500Y-139360000D03*
X162162500Y-139360000D03*
D14*
X143800000Y-141250000D03*
X141800000Y-141250000D03*
D15*
X159086800Y-83600700D03*
X159086800Y-81775700D03*
D14*
X143800000Y-138800000D03*
X141800000Y-138800000D03*
D15*
X159137600Y-90585700D03*
X159137600Y-88760700D03*
D12*
X115862500Y-119600000D03*
X117937500Y-119600000D03*
X110862500Y-122260000D03*
X112937500Y-122260000D03*
D16*
X134700000Y-73250000D03*
X134700000Y-75550000D03*
D17*
X141000000Y-75550000D03*
D16*
X134700000Y-77850000D03*
D10*
X109612500Y-92825000D03*
X107537500Y-92825000D03*
D12*
X114625000Y-102775000D03*
X116700000Y-102775000D03*
D18*
X129325000Y-91062500D03*
X129325000Y-88987500D03*
D19*
X120300000Y-119500000D03*
X122300000Y-119500000D03*
D18*
X136750000Y-133537500D03*
X136750000Y-131462500D03*
D20*
X121170700Y-91165000D03*
X121170700Y-92435000D03*
X121170700Y-93705000D03*
X121170700Y-94975000D03*
X121170700Y-96245000D03*
X121170700Y-97515000D03*
X121170700Y-98785000D03*
X126479300Y-98785000D03*
X126479300Y-97515000D03*
X126479300Y-96245000D03*
X126479300Y-94975000D03*
X126479300Y-93705000D03*
X126479300Y-92435000D03*
X126479300Y-91165000D03*
D13*
X160337500Y-134280000D03*
X162162500Y-134280000D03*
X160337500Y-136820000D03*
X162162500Y-136820000D03*
D21*
X106640000Y-119800000D03*
X107440000Y-119800000D03*
X108240000Y-119800000D03*
X109040000Y-119800000D03*
X109840000Y-119800000D03*
X110640000Y-119800000D03*
X111440000Y-119800000D03*
X112240000Y-119800000D03*
D22*
X113690000Y-118350000D03*
X113690000Y-117550000D03*
X113690000Y-116750000D03*
X113690000Y-115950000D03*
X113690000Y-115150000D03*
X113690000Y-114350000D03*
X113690000Y-113550000D03*
X113690000Y-112750000D03*
D21*
X112240000Y-111300000D03*
X111440000Y-111300000D03*
X110640000Y-111300000D03*
X109840000Y-111300000D03*
X109040000Y-111300000D03*
X108240000Y-111300000D03*
X107440000Y-111300000D03*
X106640000Y-111300000D03*
D22*
X105190000Y-112750000D03*
X105190000Y-113550000D03*
X105190000Y-114350000D03*
X105190000Y-115150000D03*
X105190000Y-115950000D03*
X105190000Y-116750000D03*
X105190000Y-117550000D03*
X105190000Y-118350000D03*
D18*
X144325000Y-98587500D03*
X144325000Y-96512500D03*
D23*
X100250000Y-72000000D03*
X100250000Y-74000000D03*
D13*
X160337500Y-131740000D03*
X162162500Y-131740000D03*
M02*
