M48
; DRILL file {KiCad 8.0.6} date 2025-01-18T13:33:20-0500
; FORMAT={-:-/ absolute / inch / decimal}
; #@! TF.CreationDate,2025-01-18T13:33:20-05:00
; #@! TF.GenerationSoftware,Kicad,Pcbnew,8.0.6
; #@! TF.FileFunction,Plated,1,2,PTH
FMAT,2
INCH
; #@! TA.AperFunction,Plated,PTH,ViaDrill
T1C0.0157
; #@! TA.AperFunction,Plated,PTH,ComponentDrill
T2C0.0315
; #@! TA.AperFunction,Plated,PTH,ComponentDrill
T3C0.0394
; #@! TA.AperFunction,Plated,PTH,ComponentDrill
T4C0.0400
; #@! TA.AperFunction,Plated,PTH,ComponentDrill
T5C0.1063
; #@! TA.AperFunction,Plated,PTH,ComponentDrill
T6C0.1180
; #@! TA.AperFunction,Plated,PTH,ComponentDrill
T7C0.1300
%
G90
G05
T1
X3.1939Y-5.2605
X3.5002Y-4.2345
X4.0042Y-4.5595
X4.0313Y-4.6616
X4.0764Y-4.6562
X4.0967Y-4.6963
X4.1937Y-4.3331
X4.1969Y-3.4646
X4.2157Y-4.6425
X4.2321Y-4.479
X4.2341Y-4.2856
X4.2786Y-4.5897
X4.2852Y-4.3034
X4.3326Y-4.454
X4.3592Y-4.6478
X4.3768Y-4.4454
X4.4122Y-4.4991
X4.4968Y-3.7446
X4.5254Y-4.5965
X4.5312Y-4.501
X4.5332Y-4.4495
X4.7762Y-4.794
X4.8467Y-4.0429
X4.8506Y-3.8581
X4.9048Y-3.753
X4.9087Y-3.6786
X4.9469Y-4.1496
X4.9843Y-3.5118
X4.9862Y-3.3189
X5.2972Y-5.0984
X5.4055Y-5.0551
X5.752Y-5.1496
T2
X3.0217Y-3.3098
X3.0217Y-4.1098
X3.1217Y-3.3098
X3.1217Y-4.1098
X3.2217Y-3.3098
X3.2217Y-4.1098
X3.3217Y-3.3098
X3.3217Y-4.1098
X3.4217Y-3.3098
X3.4217Y-4.1098
X3.5217Y-3.3098
X3.5217Y-4.1098
X4.3169Y-3.8287
X4.5091Y-3.8287
X4.9803Y-2.9528
X5.0787Y-2.9528
X5.2628Y-3.5817
X5.2628Y-3.6817
X5.2628Y-3.7817
X5.2628Y-3.8817
X5.5628Y-3.5817
X5.5628Y-3.6817
X5.5628Y-3.7817
X5.5628Y-3.8817
X5.7874Y-2.9528
X5.8858Y-2.9528
X5.9055Y-5.5748
X5.9055Y-5.6772
X5.9055Y-5.7795
X5.9055Y-5.8819
X5.9055Y-5.9843
X6.2055Y-5.5748
X6.2055Y-5.6772
X6.2055Y-5.7795
X6.2055Y-5.8819
X6.2055Y-5.9843
T3
X2.9134Y-5.0787
X2.9134Y-5.1787
X2.9134Y-5.2787
X2.9134Y-5.3787
X2.9134Y-5.4787
X2.9134Y-5.5787
X2.9134Y-5.6787
X2.9134Y-5.7787
X5.0Y-5.2787
X5.0Y-5.3787
X5.0Y-5.4787
X5.0Y-5.5787
X5.5661Y-4.4756
X5.5661Y-4.5756
X5.5661Y-4.6756
X5.5661Y-4.7756
X5.5661Y-4.8756
X5.5661Y-4.9756
X5.5661Y-5.0756
X5.5661Y-5.1756
X5.5661Y-5.2756
X5.8661Y-4.4756
X5.8661Y-4.5756
X5.8661Y-4.6756
X5.8661Y-4.7756
X5.8661Y-4.8756
X5.8661Y-4.9756
X5.8661Y-5.0756
X5.8661Y-5.1756
X5.8661Y-5.2756
X6.1093Y-3.9724
X6.1093Y-4.0724
X6.4469Y-3.1654
X6.4469Y-3.2654
X6.4469Y-3.3654
X6.4469Y-3.4654
X6.4469Y-3.5654
X6.5276Y-5.1866
X6.5276Y-5.2866
X6.5276Y-5.3866
X6.5276Y-5.4866
X6.5276Y-5.5866
X6.5276Y-5.6866
X6.5276Y-5.7866
X6.5276Y-5.8866
X6.5276Y-5.9866
T4
X3.5098Y-2.8397
X3.5098Y-3.0177
X3.7658Y-2.8397
X3.7658Y-3.0177
X6.2768Y-4.1541
X6.2768Y-4.2621
X6.2768Y-4.3701
X6.2768Y-4.4781
X6.2768Y-4.5861
X6.3768Y-4.2081
X6.3768Y-4.3161
X6.3768Y-4.4241
X6.3768Y-4.5321
T5
X3.0709Y-2.874
X3.0709Y-6.1811
X6.2991Y-6.167
X6.378Y-2.874
T6
X4.4035Y-2.9823
X4.5886Y-2.8642
X4.5886Y-3.1004
T7
X6.3268Y-3.8771
X6.3268Y-4.8631
M30
