%TF.GenerationSoftware,KiCad,Pcbnew,8.0.6*%
%TF.CreationDate,2025-01-18T20:08:40-05:00*%
%TF.ProjectId,RL78_G14_Arduino_48p,524c3738-5f47-4313-945f-41726475696e,rev?*%
%TF.SameCoordinates,Original*%
%TF.FileFunction,Copper,L2,Bot*%
%TF.FilePolarity,Positive*%
%FSLAX46Y46*%
G04 Gerber Fmt 4.6, Leading zero omitted, Abs format (unit mm)*
G04 Created by KiCad (PCBNEW 8.0.6) date 2025-01-18 20:08:40*
%MOMM*%
%LPD*%
G01*
G04 APERTURE LIST*
%ADD10C,0.300000*%
%TA.AperFunction,NonConductor*%
%ADD11C,0.300000*%
%TD*%
%TA.AperFunction,ComponentPad*%
%ADD12R,1.700000X1.700000*%
%TD*%
%TA.AperFunction,ComponentPad*%
%ADD13O,1.700000X1.700000*%
%TD*%
%TA.AperFunction,ComponentPad*%
%ADD14R,1.600000X1.600000*%
%TD*%
%TA.AperFunction,ComponentPad*%
%ADD15C,1.600000*%
%TD*%
%TA.AperFunction,ComponentPad*%
%ADD16O,3.048000X1.524000*%
%TD*%
%TA.AperFunction,ComponentPad*%
%ADD17C,4.318000*%
%TD*%
%TA.AperFunction,ViaPad*%
%ADD18C,0.600000*%
%TD*%
%TA.AperFunction,ViaPad*%
%ADD19C,0.900000*%
%TD*%
%TA.AperFunction,Conductor*%
%ADD20C,0.500000*%
%TD*%
%TA.AperFunction,Conductor*%
%ADD21C,0.250000*%
%TD*%
G04 APERTURE END LIST*
D10*
D11*
X147850828Y-58454510D02*
X146350828Y-58454510D01*
X146350828Y-58454510D02*
X147422257Y-58954510D01*
X147422257Y-58954510D02*
X146350828Y-59454510D01*
X146350828Y-59454510D02*
X147850828Y-59454510D01*
X147850828Y-60168796D02*
X146850828Y-60168796D01*
X146350828Y-60168796D02*
X146422257Y-60097368D01*
X146422257Y-60097368D02*
X146493685Y-60168796D01*
X146493685Y-60168796D02*
X146422257Y-60240225D01*
X146422257Y-60240225D02*
X146350828Y-60168796D01*
X146350828Y-60168796D02*
X146493685Y-60168796D01*
X147779400Y-61525940D02*
X147850828Y-61383082D01*
X147850828Y-61383082D02*
X147850828Y-61097368D01*
X147850828Y-61097368D02*
X147779400Y-60954511D01*
X147779400Y-60954511D02*
X147707971Y-60883082D01*
X147707971Y-60883082D02*
X147565114Y-60811654D01*
X147565114Y-60811654D02*
X147136542Y-60811654D01*
X147136542Y-60811654D02*
X146993685Y-60883082D01*
X146993685Y-60883082D02*
X146922257Y-60954511D01*
X146922257Y-60954511D02*
X146850828Y-61097368D01*
X146850828Y-61097368D02*
X146850828Y-61383082D01*
X146850828Y-61383082D02*
X146922257Y-61525940D01*
X147850828Y-62168796D02*
X146350828Y-62168796D01*
X147850828Y-62811654D02*
X147065114Y-62811654D01*
X147065114Y-62811654D02*
X146922257Y-62740225D01*
X146922257Y-62740225D02*
X146850828Y-62597368D01*
X146850828Y-62597368D02*
X146850828Y-62383082D01*
X146850828Y-62383082D02*
X146922257Y-62240225D01*
X146922257Y-62240225D02*
X146993685Y-62168796D01*
X147779400Y-64097368D02*
X147850828Y-63954511D01*
X147850828Y-63954511D02*
X147850828Y-63668797D01*
X147850828Y-63668797D02*
X147779400Y-63525939D01*
X147779400Y-63525939D02*
X147636542Y-63454511D01*
X147636542Y-63454511D02*
X147065114Y-63454511D01*
X147065114Y-63454511D02*
X146922257Y-63525939D01*
X146922257Y-63525939D02*
X146850828Y-63668797D01*
X146850828Y-63668797D02*
X146850828Y-63954511D01*
X146850828Y-63954511D02*
X146922257Y-64097368D01*
X146922257Y-64097368D02*
X147065114Y-64168797D01*
X147065114Y-64168797D02*
X147207971Y-64168797D01*
X147207971Y-64168797D02*
X147350828Y-63454511D01*
X147850828Y-65025939D02*
X147779400Y-64883082D01*
X147779400Y-64883082D02*
X147636542Y-64811653D01*
X147636542Y-64811653D02*
X146350828Y-64811653D01*
X147707971Y-67597367D02*
X147779400Y-67525939D01*
X147779400Y-67525939D02*
X147850828Y-67311653D01*
X147850828Y-67311653D02*
X147850828Y-67168796D01*
X147850828Y-67168796D02*
X147779400Y-66954510D01*
X147779400Y-66954510D02*
X147636542Y-66811653D01*
X147636542Y-66811653D02*
X147493685Y-66740224D01*
X147493685Y-66740224D02*
X147207971Y-66668796D01*
X147207971Y-66668796D02*
X146993685Y-66668796D01*
X146993685Y-66668796D02*
X146707971Y-66740224D01*
X146707971Y-66740224D02*
X146565114Y-66811653D01*
X146565114Y-66811653D02*
X146422257Y-66954510D01*
X146422257Y-66954510D02*
X146350828Y-67168796D01*
X146350828Y-67168796D02*
X146350828Y-67311653D01*
X146350828Y-67311653D02*
X146422257Y-67525939D01*
X146422257Y-67525939D02*
X146493685Y-67597367D01*
X147850828Y-68883082D02*
X147065114Y-68883082D01*
X147065114Y-68883082D02*
X146922257Y-68811653D01*
X146922257Y-68811653D02*
X146850828Y-68668796D01*
X146850828Y-68668796D02*
X146850828Y-68383082D01*
X146850828Y-68383082D02*
X146922257Y-68240224D01*
X147779400Y-68883082D02*
X147850828Y-68740224D01*
X147850828Y-68740224D02*
X147850828Y-68383082D01*
X147850828Y-68383082D02*
X147779400Y-68240224D01*
X147779400Y-68240224D02*
X147636542Y-68168796D01*
X147636542Y-68168796D02*
X147493685Y-68168796D01*
X147493685Y-68168796D02*
X147350828Y-68240224D01*
X147350828Y-68240224D02*
X147279400Y-68383082D01*
X147279400Y-68383082D02*
X147279400Y-68740224D01*
X147279400Y-68740224D02*
X147207971Y-68883082D01*
X146850828Y-69383082D02*
X146850828Y-69954510D01*
X146350828Y-69597367D02*
X147636542Y-69597367D01*
X147636542Y-69597367D02*
X147779400Y-69668796D01*
X147779400Y-69668796D02*
X147850828Y-69811653D01*
X147850828Y-69811653D02*
X147850828Y-69954510D01*
X146850828Y-71097368D02*
X147850828Y-71097368D01*
X146850828Y-70454510D02*
X147636542Y-70454510D01*
X147636542Y-70454510D02*
X147779400Y-70525939D01*
X147779400Y-70525939D02*
X147850828Y-70668796D01*
X147850828Y-70668796D02*
X147850828Y-70883082D01*
X147850828Y-70883082D02*
X147779400Y-71025939D01*
X147779400Y-71025939D02*
X147707971Y-71097368D01*
X147850828Y-72454511D02*
X146350828Y-72454511D01*
X147779400Y-72454511D02*
X147850828Y-72311653D01*
X147850828Y-72311653D02*
X147850828Y-72025939D01*
X147850828Y-72025939D02*
X147779400Y-71883082D01*
X147779400Y-71883082D02*
X147707971Y-71811653D01*
X147707971Y-71811653D02*
X147565114Y-71740225D01*
X147565114Y-71740225D02*
X147136542Y-71740225D01*
X147136542Y-71740225D02*
X146993685Y-71811653D01*
X146993685Y-71811653D02*
X146922257Y-71883082D01*
X146922257Y-71883082D02*
X146850828Y-72025939D01*
X146850828Y-72025939D02*
X146850828Y-72311653D01*
X146850828Y-72311653D02*
X146922257Y-72454511D01*
X147850828Y-73811654D02*
X147065114Y-73811654D01*
X147065114Y-73811654D02*
X146922257Y-73740225D01*
X146922257Y-73740225D02*
X146850828Y-73597368D01*
X146850828Y-73597368D02*
X146850828Y-73311654D01*
X146850828Y-73311654D02*
X146922257Y-73168796D01*
X147779400Y-73811654D02*
X147850828Y-73668796D01*
X147850828Y-73668796D02*
X147850828Y-73311654D01*
X147850828Y-73311654D02*
X147779400Y-73168796D01*
X147779400Y-73168796D02*
X147636542Y-73097368D01*
X147636542Y-73097368D02*
X147493685Y-73097368D01*
X147493685Y-73097368D02*
X147350828Y-73168796D01*
X147350828Y-73168796D02*
X147279400Y-73311654D01*
X147279400Y-73311654D02*
X147279400Y-73668796D01*
X147279400Y-73668796D02*
X147207971Y-73811654D01*
X147850828Y-74740225D02*
X147779400Y-74597368D01*
X147779400Y-74597368D02*
X147636542Y-74525939D01*
X147636542Y-74525939D02*
X146350828Y-74525939D01*
D10*
D11*
X147566917Y-31293685D02*
X147495489Y-31222257D01*
X147495489Y-31222257D02*
X147352632Y-31150828D01*
X147352632Y-31150828D02*
X146995489Y-31150828D01*
X146995489Y-31150828D02*
X146852632Y-31222257D01*
X146852632Y-31222257D02*
X146781203Y-31293685D01*
X146781203Y-31293685D02*
X146709774Y-31436542D01*
X146709774Y-31436542D02*
X146709774Y-31579400D01*
X146709774Y-31579400D02*
X146781203Y-31793685D01*
X146781203Y-31793685D02*
X147638346Y-32650828D01*
X147638346Y-32650828D02*
X146709774Y-32650828D01*
X145781203Y-31150828D02*
X145638346Y-31150828D01*
X145638346Y-31150828D02*
X145495489Y-31222257D01*
X145495489Y-31222257D02*
X145424061Y-31293685D01*
X145424061Y-31293685D02*
X145352632Y-31436542D01*
X145352632Y-31436542D02*
X145281203Y-31722257D01*
X145281203Y-31722257D02*
X145281203Y-32079400D01*
X145281203Y-32079400D02*
X145352632Y-32365114D01*
X145352632Y-32365114D02*
X145424061Y-32507971D01*
X145424061Y-32507971D02*
X145495489Y-32579400D01*
X145495489Y-32579400D02*
X145638346Y-32650828D01*
X145638346Y-32650828D02*
X145781203Y-32650828D01*
X145781203Y-32650828D02*
X145924061Y-32579400D01*
X145924061Y-32579400D02*
X145995489Y-32507971D01*
X145995489Y-32507971D02*
X146066918Y-32365114D01*
X146066918Y-32365114D02*
X146138346Y-32079400D01*
X146138346Y-32079400D02*
X146138346Y-31722257D01*
X146138346Y-31722257D02*
X146066918Y-31436542D01*
X146066918Y-31436542D02*
X145995489Y-31293685D01*
X145995489Y-31293685D02*
X145924061Y-31222257D01*
X145924061Y-31222257D02*
X145781203Y-31150828D01*
X144709775Y-31293685D02*
X144638347Y-31222257D01*
X144638347Y-31222257D02*
X144495490Y-31150828D01*
X144495490Y-31150828D02*
X144138347Y-31150828D01*
X144138347Y-31150828D02*
X143995490Y-31222257D01*
X143995490Y-31222257D02*
X143924061Y-31293685D01*
X143924061Y-31293685D02*
X143852632Y-31436542D01*
X143852632Y-31436542D02*
X143852632Y-31579400D01*
X143852632Y-31579400D02*
X143924061Y-31793685D01*
X143924061Y-31793685D02*
X144781204Y-32650828D01*
X144781204Y-32650828D02*
X143852632Y-32650828D01*
X142495490Y-31150828D02*
X143209776Y-31150828D01*
X143209776Y-31150828D02*
X143281204Y-31865114D01*
X143281204Y-31865114D02*
X143209776Y-31793685D01*
X143209776Y-31793685D02*
X143066919Y-31722257D01*
X143066919Y-31722257D02*
X142709776Y-31722257D01*
X142709776Y-31722257D02*
X142566919Y-31793685D01*
X142566919Y-31793685D02*
X142495490Y-31865114D01*
X142495490Y-31865114D02*
X142424061Y-32007971D01*
X142424061Y-32007971D02*
X142424061Y-32365114D01*
X142424061Y-32365114D02*
X142495490Y-32507971D01*
X142495490Y-32507971D02*
X142566919Y-32579400D01*
X142566919Y-32579400D02*
X142709776Y-32650828D01*
X142709776Y-32650828D02*
X143066919Y-32650828D01*
X143066919Y-32650828D02*
X143209776Y-32579400D01*
X143209776Y-32579400D02*
X143281204Y-32507971D01*
D12*
%TO.P,J3,1,Pin_1*%
%TO.N,Net-(J3-Pin_1)*%
X101802000Y-77260000D03*
D13*
%TO.P,J3,2,Pin_2*%
%TO.N,Net-(J3-Pin_2)*%
X104342000Y-77260000D03*
%TO.P,J3,3,Pin_3*%
%TO.N,Net-(J3-Pin_3)*%
X106882000Y-77260000D03*
%TO.P,J3,4,Pin_4*%
%TO.N,Net-(J3-Pin_4)*%
X109422000Y-77260000D03*
%TO.P,J3,5,Pin_5*%
%TO.N,Net-(J3-Pin_5)*%
X111962000Y-77260000D03*
%TO.P,J3,6,Pin_6*%
%TO.N,Net-(J3-Pin_6)*%
X114502000Y-77260000D03*
%TO.P,J3,7,Pin_7*%
%TO.N,Net-(J3-Pin_7)*%
X117042000Y-77260000D03*
%TO.P,J3,8,Pin_8*%
%TO.N,Net-(J3-Pin_8)*%
X119582000Y-77260000D03*
%TD*%
D12*
%TO.P,J2,1,Pin_1*%
%TO.N,/SCL*%
X69798000Y-29000000D03*
D13*
%TO.P,J2,2,Pin_2*%
%TO.N,/SDA*%
X72338000Y-29000000D03*
%TO.P,J2,3,Pin_3*%
%TO.N,VCC*%
X74878000Y-29000000D03*
%TO.P,J2,4,Pin_4*%
%TO.N,GND*%
X77418000Y-29000000D03*
%TO.P,J2,5,Pin_5*%
%TO.N,Net-(J2-Pin_5)*%
X79958000Y-29000000D03*
%TO.P,J2,6,Pin_6*%
%TO.N,Net-(J2-Pin_6)*%
X82498000Y-29000000D03*
%TO.P,J2,7,Pin_7*%
%TO.N,/P73*%
X85038000Y-29000000D03*
%TO.P,J2,8,Pin_8*%
%TO.N,/P74*%
X87578000Y-29000000D03*
%TO.P,J2,9,Pin_9*%
%TO.N,/P16*%
X90118000Y-29000000D03*
%TO.P,J2,10,Pin_10*%
%TO.N,/P17*%
X92658000Y-29000000D03*
%TD*%
D12*
%TO.P,J4,1,Pin_1*%
%TO.N,Net-(J4-Pin_1)*%
X96722000Y-29000000D03*
D13*
%TO.P,J4,2,Pin_2*%
%TO.N,Net-(J4-Pin_2)*%
X99262000Y-29000000D03*
%TO.P,J4,3,Pin_3*%
%TO.N,Net-(J4-Pin_3)*%
X101802000Y-29000000D03*
%TO.P,J4,4,Pin_4*%
%TO.N,Net-(J4-Pin_4)*%
X104342000Y-29000000D03*
%TO.P,J4,5,Pin_5*%
%TO.N,Net-(J4-Pin_5)*%
X106882000Y-29000000D03*
%TO.P,J4,6,Pin_6*%
%TO.N,Net-(J4-Pin_6)*%
X109422000Y-29000000D03*
%TO.P,J4,7,Pin_7*%
%TO.N,Net-(J4-Pin_7)*%
X111962000Y-29000000D03*
%TO.P,J4,8,Pin_8*%
%TO.N,Net-(J4-Pin_8)*%
X114502000Y-29000000D03*
%TD*%
D12*
%TO.P,J6,1,Pin_1*%
%TO.N,/SCK_21*%
X119582000Y-29000000D03*
D13*
%TO.P,J6,2,Pin_2*%
%TO.N,/MISO_21*%
X122122000Y-29000000D03*
%TO.P,J6,3,Pin_3*%
%TO.N,/MOSI_21*%
X124662000Y-29000000D03*
%TO.P,J6,4,Pin_4*%
%TO.N,/CS_21*%
X127202000Y-29000000D03*
%TO.P,J6,5,Pin_5*%
%TO.N,/SCK_11*%
X129742000Y-29000000D03*
%TO.P,J6,6,Pin_6*%
%TO.N,/MISO_11*%
X132282000Y-29000000D03*
%TO.P,J6,7,Pin_7*%
%TO.N,/MOSI_11*%
X134822000Y-29000000D03*
%TO.P,J6,8,Pin_8*%
%TO.N,/CS_11*%
X137362000Y-29000000D03*
%TD*%
D14*
%TO.P,C4,1*%
%TO.N,+5V*%
X93102000Y-67400000D03*
D15*
%TO.P,C4,2*%
%TO.N,GND*%
X95602000Y-67400000D03*
%TD*%
D12*
%TO.P,J7,1,Pin_1*%
%TO.N,+5V*%
X145850000Y-38300000D03*
D13*
%TO.P,J7,2,Pin_2*%
%TO.N,VCC*%
X145850000Y-40840000D03*
%TO.P,J7,3,Pin_3*%
%TO.N,+3.3V*%
X145850000Y-43380000D03*
%TO.P,J7,4,Pin_4*%
%TO.N,Net-(J7-Pin_4)*%
X145850000Y-45920000D03*
%TO.P,J7,5,Pin_5*%
%TO.N,/P121*%
X145850000Y-48460000D03*
%TO.P,J7,6,Pin_6*%
%TO.N,/P122*%
X145850000Y-51000000D03*
%TO.P,J7,7,Pin_7*%
%TO.N,GND*%
X145850000Y-53540000D03*
%TD*%
D16*
%TO.P,S1,1,S*%
%TO.N,Net-(S1-S)*%
X54350800Y-55539400D03*
%TO.P,S1,2,S1*%
X60853200Y-55539400D03*
%TO.P,S1,3,P*%
%TO.N,GND*%
X54350800Y-60060600D03*
%TO.P,S1,4,P1*%
X60853200Y-60060600D03*
%TD*%
D14*
%TO.P,C2,1*%
%TO.N,/Vin*%
X83002000Y-67400000D03*
D15*
%TO.P,C2,2*%
%TO.N,GND*%
X85502000Y-67400000D03*
%TD*%
D12*
%TO.P,J1,1,Pin_1*%
%TO.N,unconnected-(J1-Pin_1-Pad1)*%
X78942000Y-77260000D03*
D13*
%TO.P,J1,2,Pin_2*%
%TO.N,VCC*%
X81482000Y-77260000D03*
%TO.P,J1,3,Pin_3*%
%TO.N,/~{RESET}*%
X84022000Y-77260000D03*
%TO.P,J1,4,Pin_4*%
%TO.N,+3.3V*%
X86562000Y-77260000D03*
%TO.P,J1,5,Pin_5*%
%TO.N,+5V*%
X89102000Y-77260000D03*
%TO.P,J1,6,Pin_6*%
%TO.N,GND*%
X91642000Y-77260000D03*
%TO.P,J1,7,Pin_7*%
X94182000Y-77260000D03*
%TO.P,J1,8,Pin_8*%
%TO.N,/Vin*%
X96722000Y-77260000D03*
%TD*%
D17*
%TO.P,P2,GND,GND*%
%TO.N,GND*%
X55700000Y-72400000D03*
%TO.P,P2,GNDBREAK,GNDBREAK*%
X58700000Y-77100000D03*
%TO.P,P2,PWR,PWR*%
%TO.N,/Vin*%
X61700000Y-72400000D03*
%TD*%
D14*
%TO.P,C6,1*%
%TO.N,+3.3V*%
X103402000Y-67400000D03*
D15*
%TO.P,C6,2*%
%TO.N,GND*%
X105902000Y-67400000D03*
%TD*%
D12*
%TO.P,JP1,1,A*%
%TO.N,+3.3V*%
X67052000Y-58960000D03*
D13*
%TO.P,JP1,2,C*%
%TO.N,VCC*%
X67052000Y-61500000D03*
%TO.P,JP1,3,B*%
%TO.N,+5V*%
X67052000Y-64040000D03*
%TD*%
D12*
%TO.P,P3,1,Pin_1*%
%TO.N,VCC*%
X55000000Y-34500000D03*
D13*
%TO.P,P3,2,Pin_2*%
%TO.N,Net-(P3-Pin_2)*%
X55000000Y-37040000D03*
%TO.P,P3,3,Pin_3*%
%TO.N,Net-(P3-Pin_3)*%
X55000000Y-39580000D03*
%TO.P,P3,4,Pin_4*%
%TO.N,/~{RESET}*%
X55000000Y-42120000D03*
%TO.P,P3,5,Pin_5*%
%TO.N,GND*%
X55000000Y-44660000D03*
%TD*%
D12*
%TO.P,J5,1,Pin_1*%
%TO.N,/SCK_20*%
X124700000Y-77260000D03*
D13*
%TO.P,J5,2,Pin_2*%
%TO.N,/MISO_20*%
X127240000Y-77260000D03*
%TO.P,J5,3,Pin_3*%
%TO.N,/MOSI_20*%
X129780000Y-77260000D03*
%TO.P,J5,4,Pin_4*%
%TO.N,/CS_20*%
X132320000Y-77260000D03*
%TO.P,J5,5,Pin_5*%
%TO.N,/SCK_00*%
X134860000Y-77260000D03*
%TO.P,J5,6,Pin_6*%
%TO.N,/MISO_00*%
X137400000Y-77260000D03*
%TO.P,J5,7,Pin_7*%
%TO.N,/MOSI_00*%
X139940000Y-77260000D03*
%TO.P,J5,8,Pin_8*%
%TO.N,/CS_00*%
X142480000Y-77260000D03*
%TD*%
D18*
%TO.N,GND*%
X100000000Y-53700000D03*
D19*
X99150000Y-59650000D03*
D18*
X89550000Y-66200000D03*
X107700000Y-32000000D03*
X103300000Y-34650000D03*
%TO.N,/P122*%
X120912500Y-48076900D03*
X147064700Y-47645900D03*
X119115500Y-40789500D03*
%TO.N,+3.3V*%
X115863600Y-43284400D03*
%TO.N,/P121*%
X121145000Y-45736500D03*
X122847400Y-43685500D03*
%TO.N,Net-(J4-Pin_3)*%
X119156900Y-26350000D03*
X126802700Y-45366600D03*
%TO.N,Net-(J4-Pin_4)*%
X113262700Y-25617500D03*
X127428000Y-48302600D03*
%TO.N,/MISO_00*%
X137509700Y-65948000D03*
%TO.N,/MOSI_20*%
X121544900Y-54016800D03*
%TO.N,/MISO_21*%
X117643000Y-32059000D03*
X114500000Y-52825300D03*
%TO.N,/SCK_21*%
X105050000Y-53500000D03*
X113262700Y-32048400D03*
%TO.N,/CS_20*%
X130152200Y-74951600D03*
X124686700Y-51214500D03*
%TO.N,/MOSI_21*%
X107450000Y-44500000D03*
X126900000Y-36100000D03*
X110750000Y-37350000D03*
X103000000Y-52700000D03*
X110750000Y-42250000D03*
%TO.N,/SCK_20*%
X122327200Y-58236900D03*
%TO.N,/MISO_20*%
X120619400Y-54361200D03*
%TO.N,Net-(J4-Pin_2)*%
X110847100Y-34562100D03*
X135054900Y-42694600D03*
X132161600Y-55332000D03*
X112463400Y-41129200D03*
%TO.N,/SCK_00*%
X122845800Y-53884900D03*
%TO.N,Net-(J4-Pin_8)*%
X115514500Y-41505600D03*
X129240100Y-41428000D03*
X128856000Y-46107000D03*
%TO.N,/CS_00*%
X134929300Y-53043400D03*
%TO.N,/MOSI_11*%
X118204800Y-55855700D03*
%TO.N,Net-(J4-Pin_1)*%
X125361700Y-47363700D03*
%TO.N,Net-(J4-Pin_7)*%
X128221400Y-45514100D03*
X128883400Y-31945400D03*
%TO.N,/CS_11*%
X109085800Y-49308200D03*
X109355200Y-35518600D03*
%TO.N,/MISO_11*%
X120299600Y-51016600D03*
%TO.N,+5V*%
X107061700Y-43350700D03*
X139628600Y-37927900D03*
%TO.N,Net-(J3-Pin_3)*%
X134677500Y-54008300D03*
%TO.N,Net-(J3-Pin_2)*%
X128446400Y-51965100D03*
X133237200Y-63510000D03*
%TO.N,Net-(J3-Pin_4)*%
X121397600Y-52093400D03*
%TO.N,Net-(J3-Pin_6)*%
X134670300Y-54951400D03*
X134037200Y-69230000D03*
%TO.N,/SCK_11*%
X103947600Y-55136200D03*
X112511400Y-32776700D03*
X125126300Y-31747400D03*
%TO.N,Net-(P3-Pin_2)*%
X127205700Y-47030600D03*
X128018500Y-37770000D03*
%TO.N,Net-(J3-Pin_7)*%
X119307000Y-54412900D03*
%TO.N,Net-(J3-Pin_5)*%
X126022600Y-71814500D03*
X124452300Y-52469700D03*
%TO.N,Net-(J3-Pin_1)*%
X121853800Y-50347400D03*
%TO.N,Net-(J3-Pin_8)*%
X131638900Y-74175500D03*
X125898000Y-54746700D03*
%TO.N,Net-(S1-S)*%
X115368900Y-54317300D03*
X121989600Y-48443900D03*
%TO.N,VCC*%
X118192700Y-46383200D03*
X115300000Y-36143600D03*
X133889200Y-66370000D03*
%TO.N,/~{RESET}*%
X87493700Y-76161700D03*
X125536700Y-45424000D03*
%TO.N,/P17*%
X96496600Y-55555300D03*
%TO.N,/P74*%
X89685900Y-51290900D03*
%TO.N,/P16*%
X119883500Y-60650000D03*
X120781000Y-56890400D03*
X95498600Y-60496800D03*
%TO.N,/P73*%
X90945100Y-51292900D03*
%TO.N,Net-(J4-Pin_6)*%
X123067900Y-48402700D03*
%TO.N,Net-(J4-Pin_5)*%
X116385900Y-34644600D03*
X122378800Y-45354100D03*
%TD*%
D20*
%TO.N,+3.3V*%
X88375000Y-66675000D02*
X88375000Y-67675000D01*
D21*
%TO.N,VCC*%
X67052000Y-61500000D02*
X67052000Y-61132300D01*
X55000000Y-35309000D02*
X55000000Y-34500000D01*
X67052000Y-61132300D02*
X65875300Y-59955600D01*
X65875300Y-59955600D02*
X65875300Y-46184300D01*
X65875300Y-46184300D02*
X55000000Y-35309000D01*
D20*
%TO.N,/Vin*%
X96450000Y-79350000D02*
X96800000Y-79000000D01*
X96800000Y-79000000D02*
X96722000Y-78922000D01*
X83002000Y-68526700D02*
X77642000Y-73886700D01*
X77642000Y-73886700D02*
X77642000Y-78560000D01*
X77642000Y-78560000D02*
X78432000Y-79350000D01*
X78432000Y-79350000D02*
X96450000Y-79350000D01*
X96722000Y-78922000D02*
X96722000Y-77260000D01*
%TO.N,+3.3V*%
X67052000Y-58960000D02*
X80660000Y-58960000D01*
X80660000Y-58960000D02*
X88375000Y-66675000D01*
X88375000Y-67675000D02*
X91100000Y-70400000D01*
X88375000Y-67675000D02*
X86562000Y-69488000D01*
X86562000Y-69488000D02*
X86562000Y-77260000D01*
X91100000Y-70400000D02*
X100402000Y-70400000D01*
X100402000Y-70400000D02*
X103402000Y-67400000D01*
%TO.N,GND*%
X95602000Y-63198000D02*
X99150000Y-59650000D01*
X95602000Y-67400000D02*
X95602000Y-63198000D01*
D21*
%TO.N,/P122*%
X120912500Y-48076900D02*
X119115500Y-46279900D01*
X147064700Y-47645900D02*
X147064700Y-48976300D01*
X145850000Y-50191000D02*
X145850000Y-51000000D01*
X147064700Y-48976300D02*
X145850000Y-50191000D01*
X119115500Y-46279900D02*
X119115500Y-40789500D01*
%TO.N,+3.3V*%
X103402000Y-67400000D02*
X103402000Y-56568100D01*
X115863600Y-44106500D02*
X115863600Y-43284400D01*
X103402000Y-56568100D02*
X115863600Y-44106500D01*
%TO.N,/P121*%
X121145000Y-45387900D02*
X122847400Y-43685500D01*
X121145000Y-45736500D02*
X121145000Y-45387900D01*
%TO.N,Net-(J4-Pin_3)*%
X120852000Y-30152100D02*
X120850000Y-30154100D01*
X120850000Y-31500000D02*
X126802700Y-37452700D01*
X119156900Y-26350000D02*
X120852000Y-28045100D01*
X120852000Y-28045100D02*
X120852000Y-30152100D01*
X120850000Y-30154100D02*
X120850000Y-31500000D01*
X126802700Y-37452700D02*
X126802700Y-45366600D01*
%TO.N,Net-(J4-Pin_4)*%
X127546700Y-48302600D02*
X130919700Y-44929600D01*
X130919700Y-28458900D02*
X128078300Y-25617500D01*
X130919700Y-44929600D02*
X130919700Y-28458900D01*
X127428000Y-48302600D02*
X127546700Y-48302600D01*
X128078300Y-25617500D02*
X113262700Y-25617500D01*
%TO.N,/MISO_00*%
X137509700Y-65948000D02*
X137400000Y-66057700D01*
X137400000Y-66057700D02*
X137400000Y-77260000D01*
%TO.N,/MOSI_20*%
X123908000Y-56379900D02*
X121544900Y-54016800D01*
X129780000Y-77260000D02*
X129780000Y-76524600D01*
X129780000Y-76524600D02*
X123908000Y-70652600D01*
X123908000Y-70652600D02*
X123908000Y-56379900D01*
%TO.N,/MISO_21*%
X114479300Y-35222700D02*
X117643000Y-32059000D01*
X114500000Y-50425300D02*
X116491100Y-48434200D01*
X116491100Y-41122300D02*
X114479300Y-39110500D01*
X114500000Y-52825300D02*
X114500000Y-50425300D01*
X114479300Y-39110500D02*
X114479300Y-35222700D01*
X116491100Y-48434200D02*
X116491100Y-41122300D01*
%TO.N,/SCK_21*%
X105050000Y-53500000D02*
X105780300Y-53500000D01*
X105780300Y-53500000D02*
X113262700Y-46017600D01*
X113262700Y-46017600D02*
X113262700Y-32048400D01*
%TO.N,/CS_20*%
X130152200Y-74951600D02*
X125147500Y-69946900D01*
X125147500Y-69946900D02*
X125147500Y-51675300D01*
X125147500Y-51675300D02*
X124686700Y-51214500D01*
%TO.N,/MOSI_21*%
X110750000Y-42250000D02*
X110750000Y-37350000D01*
X103000000Y-52700000D02*
X103000000Y-48950000D01*
X103000000Y-48950000D02*
X107450000Y-44500000D01*
X124501300Y-29160700D02*
X124662000Y-29000000D01*
X126900000Y-36100000D02*
X124501300Y-33701300D01*
X124501300Y-33701300D02*
X124501300Y-29160700D01*
%TO.N,/SCK_20*%
X122327200Y-58236900D02*
X122327200Y-73710500D01*
X122327200Y-73710500D02*
X124700000Y-76083300D01*
X124700000Y-77260000D02*
X124700000Y-76083300D01*
%TO.N,/MISO_20*%
X127240000Y-77260000D02*
X127240000Y-76083300D01*
X123045200Y-71888500D02*
X127240000Y-76083300D01*
X123045200Y-56787000D02*
X123045200Y-71888500D01*
X120619400Y-54361200D02*
X123045200Y-56787000D01*
%TO.N,Net-(J4-Pin_2)*%
X110847100Y-34562100D02*
X112463400Y-36178400D01*
X135054900Y-49823200D02*
X132161600Y-52716500D01*
X135054900Y-42694600D02*
X135054900Y-49823200D01*
X112463400Y-36178400D02*
X112463400Y-41129200D01*
X132161600Y-52716500D02*
X132161600Y-55332000D01*
%TO.N,/SCK_00*%
X132583500Y-73806800D02*
X134860000Y-76083300D01*
X132583500Y-58209500D02*
X132583500Y-73806800D01*
X122845800Y-53884900D02*
X122932300Y-53798400D01*
X122932300Y-52055600D02*
X124415600Y-50572300D01*
X124415600Y-50572300D02*
X124946300Y-50572300D01*
X122932300Y-53798400D02*
X122932300Y-52055600D01*
X134860000Y-77260000D02*
X134860000Y-76083300D01*
X124946300Y-50572300D02*
X132583500Y-58209500D01*
%TO.N,Net-(J4-Pin_8)*%
X114502000Y-29000000D02*
X114502000Y-30176700D01*
X129240100Y-41428000D02*
X129240100Y-45722900D01*
X114026100Y-30652600D02*
X114026100Y-40017200D01*
X114502000Y-30176700D02*
X114026100Y-30652600D01*
X129240100Y-45722900D02*
X128856000Y-46107000D01*
X114026100Y-40017200D02*
X115514500Y-41505600D01*
%TO.N,/CS_00*%
X142480000Y-60594100D02*
X134929300Y-53043400D01*
X142480000Y-77260000D02*
X142480000Y-60594100D01*
%TO.N,/MOSI_11*%
X134822000Y-29000000D02*
X134822000Y-30176700D01*
X118204800Y-54592700D02*
X118204800Y-55855700D01*
X119183900Y-53613600D02*
X118204800Y-54592700D01*
X120782900Y-53613600D02*
X119183900Y-53613600D01*
X122480600Y-51915900D02*
X120782900Y-53613600D01*
X134822000Y-30176700D02*
X134428200Y-30570500D01*
X134428200Y-30570500D02*
X134428200Y-42867400D01*
X124204400Y-50079900D02*
X122480600Y-51803700D01*
X134428200Y-42867400D02*
X127215700Y-50079900D01*
X127215700Y-50079900D02*
X124204400Y-50079900D01*
X122480600Y-51803700D02*
X122480600Y-51915900D01*
%TO.N,Net-(J4-Pin_1)*%
X125361700Y-47363700D02*
X124877400Y-46879400D01*
X99199600Y-27331400D02*
X97531000Y-29000000D01*
X97531000Y-29000000D02*
X96722000Y-29000000D01*
X124877400Y-37026100D02*
X115182700Y-27331400D01*
X124877400Y-46879400D02*
X124877400Y-37026100D01*
X115182700Y-27331400D02*
X99199600Y-27331400D01*
%TO.N,Net-(J4-Pin_7)*%
X128883400Y-31945400D02*
X128883400Y-40898500D01*
X128883400Y-40898500D02*
X128221400Y-41560500D01*
X128221400Y-41560500D02*
X128221400Y-45514100D01*
%TO.N,/CS_11*%
X109085800Y-35788000D02*
X109085800Y-49308200D01*
X109355200Y-35518600D02*
X109085800Y-35788000D01*
%TO.N,/MISO_11*%
X121729100Y-49585900D02*
X120299600Y-51015400D01*
X127041400Y-49585900D02*
X121729100Y-49585900D01*
X132282000Y-44345300D02*
X127041400Y-49585900D01*
X132282000Y-29000000D02*
X132282000Y-44345300D01*
X120299600Y-51015400D02*
X120299600Y-51016600D01*
%TO.N,+5V*%
X96500000Y-61179900D02*
X96500000Y-60700000D01*
X101151700Y-49260700D02*
X107061700Y-43350700D01*
X93102000Y-64577900D02*
X96500000Y-61179900D01*
X96500000Y-60700000D02*
X101151700Y-56048300D01*
X101151700Y-56048300D02*
X101151700Y-49260700D01*
X144301200Y-37927900D02*
X144673300Y-38300000D01*
X139628600Y-37927900D02*
X144301200Y-37927900D01*
X93102000Y-67400000D02*
X93102000Y-64577900D01*
X145850000Y-38300000D02*
X144673300Y-38300000D01*
%TO.N,Net-(J3-Pin_3)*%
X136045800Y-55376600D02*
X134677500Y-54008300D01*
X108063400Y-78441400D02*
X135368600Y-78441400D01*
X136045800Y-77764200D02*
X136045800Y-55376600D01*
X106882000Y-77260000D02*
X108063400Y-78441400D01*
X135368600Y-78441400D02*
X136045800Y-77764200D01*
%TO.N,Net-(J3-Pin_2)*%
X128446400Y-52503000D02*
X133237200Y-57293800D01*
X128446400Y-51965100D02*
X128446400Y-52503000D01*
X133237200Y-57293800D02*
X133237200Y-63510000D01*
%TO.N,Net-(J3-Pin_4)*%
X116742200Y-68763100D02*
X109422000Y-76083300D01*
X121397600Y-52093400D02*
X121249300Y-52241700D01*
X109422000Y-77260000D02*
X109422000Y-76083300D01*
X121249300Y-52241700D02*
X119883300Y-52241700D01*
X119883300Y-52241700D02*
X116742200Y-55382800D01*
X116742200Y-55382800D02*
X116742200Y-68763100D01*
%TO.N,Net-(J3-Pin_6)*%
X134037200Y-69230000D02*
X134670300Y-68596900D01*
X134670300Y-68596900D02*
X134670300Y-54951400D01*
%TO.N,/SCK_11*%
X103947600Y-55136200D02*
X103947600Y-53506400D01*
X129742000Y-29000000D02*
X128933000Y-29000000D01*
X108322000Y-49132000D02*
X108322000Y-35637900D01*
X128933000Y-29000000D02*
X126185600Y-31747400D01*
X111183200Y-32776700D02*
X112511400Y-32776700D01*
X103947600Y-53506400D02*
X108322000Y-49132000D01*
X108322000Y-35637900D02*
X111183200Y-32776700D01*
X126185600Y-31747400D02*
X125126300Y-31747400D01*
%TO.N,Net-(P3-Pin_2)*%
X127429400Y-38359100D02*
X128018500Y-37770000D01*
X127205700Y-47030600D02*
X127429400Y-46806900D01*
X127429400Y-46806900D02*
X127429400Y-38359100D01*
%TO.N,Net-(J3-Pin_7)*%
X119256800Y-73868500D02*
X117042000Y-76083300D01*
X119256800Y-54463100D02*
X119256800Y-73868500D01*
X119307000Y-54412900D02*
X119256800Y-54463100D01*
X117042000Y-77260000D02*
X117042000Y-76083300D01*
%TO.N,Net-(J3-Pin_5)*%
X126022600Y-71814500D02*
X124452300Y-70244200D01*
X124452300Y-70244200D02*
X124452300Y-52469700D01*
%TO.N,Net-(J3-Pin_1)*%
X115838700Y-62046600D02*
X115838700Y-55612800D01*
X101802000Y-76083300D02*
X115838700Y-62046600D01*
X115838700Y-55612800D02*
X119661500Y-51790000D01*
X121853800Y-50349000D02*
X121853800Y-50347400D01*
X119661500Y-51790000D02*
X120412800Y-51790000D01*
X120412800Y-51790000D02*
X121853800Y-50349000D01*
X101802000Y-77260000D02*
X101802000Y-76083300D01*
%TO.N,Net-(J3-Pin_8)*%
X131638900Y-74175500D02*
X131638900Y-60487600D01*
X131638900Y-60487600D02*
X125898000Y-54746700D01*
D20*
%TO.N,/Vin*%
X66700000Y-67400000D02*
X83002000Y-67400000D01*
X83002000Y-68526700D02*
X83002000Y-67400000D01*
X61700000Y-72400000D02*
X66700000Y-67400000D01*
D21*
%TO.N,Net-(S1-S)*%
X120982600Y-48703600D02*
X121172100Y-48703600D01*
X115368900Y-54317300D02*
X120982600Y-48703600D01*
X60853200Y-55539400D02*
X54350800Y-55539400D01*
X121172100Y-48703600D02*
X121431800Y-48443900D01*
X121431800Y-48443900D02*
X121989600Y-48443900D01*
%TO.N,VCC*%
X115300000Y-36143600D02*
X115300000Y-39019800D01*
X118192700Y-41912500D02*
X118192700Y-46383200D01*
X144900000Y-41790000D02*
X144900000Y-41800000D01*
X144900000Y-41800000D02*
X133889200Y-52810800D01*
X133889200Y-52810800D02*
X133889200Y-66370000D01*
X115300000Y-39019800D02*
X118192700Y-41912500D01*
X145850000Y-40840000D02*
X144900000Y-41790000D01*
%TO.N,/~{RESET}*%
X66644700Y-62770000D02*
X80479900Y-62770000D01*
X87493700Y-76161700D02*
X87572100Y-76083300D01*
X84022000Y-76083300D02*
X84022000Y-77260000D01*
X84139500Y-66429600D02*
X84139500Y-75965800D01*
X84139500Y-75965800D02*
X84022000Y-76083300D01*
X55000000Y-42120000D02*
X55000000Y-42929000D01*
X121265700Y-49155300D02*
X121359200Y-49155300D01*
X104652000Y-68216100D02*
X104652000Y-65922100D01*
X104652000Y-65922100D02*
X116172900Y-54401200D01*
X96784800Y-76083300D02*
X104652000Y-68216100D01*
X55000000Y-42929000D02*
X62703900Y-50632900D01*
X125988500Y-45875800D02*
X125536700Y-45424000D01*
X121359200Y-49155300D02*
X121443900Y-49070600D01*
X124629900Y-49070600D02*
X125988500Y-47712000D01*
X87572100Y-76083300D02*
X96784800Y-76083300D01*
X116172900Y-54248100D02*
X121265700Y-49155300D01*
X62703900Y-58829200D02*
X66644700Y-62770000D01*
X116172900Y-54401200D02*
X116172900Y-54248100D01*
X125988500Y-47712000D02*
X125988500Y-45875800D01*
X80479900Y-62770000D02*
X84139500Y-66429600D01*
X121443900Y-49070600D02*
X124629900Y-49070600D01*
X62703900Y-50632900D02*
X62703900Y-58829200D01*
%TO.N,/P17*%
X92658000Y-51716700D02*
X96496600Y-55555300D01*
X92658000Y-29000000D02*
X92658000Y-51716700D01*
%TO.N,/P74*%
X87578000Y-29000000D02*
X87578000Y-49183000D01*
X87578000Y-49183000D02*
X89685900Y-51290900D01*
%TO.N,/P16*%
X90118000Y-30176700D02*
X90320100Y-30378800D01*
X90320100Y-30378800D02*
X90320100Y-51551784D01*
X90118000Y-29000000D02*
X90118000Y-30176700D01*
X95250000Y-56481684D02*
X95250000Y-60248200D01*
X119883500Y-57787900D02*
X120781000Y-56890400D01*
X90320100Y-51551784D02*
X95250000Y-56481684D01*
X119883500Y-60650000D02*
X119883500Y-57787900D01*
X95250000Y-60248200D02*
X95498600Y-60496800D01*
%TO.N,/P73*%
X87031900Y-27815100D02*
X90627400Y-27815100D01*
X85038000Y-29000000D02*
X85847000Y-29000000D01*
X85847000Y-29000000D02*
X87031900Y-27815100D01*
X90627400Y-27815100D02*
X91332600Y-28520300D01*
X91332600Y-50905400D02*
X90945100Y-51292900D01*
X91332600Y-28520300D02*
X91332600Y-50905400D01*
%TO.N,Net-(J4-Pin_6)*%
X123474100Y-36296600D02*
X114990600Y-27813100D01*
X123474100Y-47996500D02*
X123474100Y-36296600D01*
X123067900Y-48402700D02*
X123474100Y-47996500D01*
X110608900Y-27813100D02*
X109422000Y-29000000D01*
X114990600Y-27813100D02*
X110608900Y-27813100D01*
%TO.N,Net-(J4-Pin_5)*%
X116385900Y-34644600D02*
X120518300Y-38777000D01*
X122378800Y-45436400D02*
X122378800Y-45354100D01*
X120890500Y-46398100D02*
X121417100Y-46398100D01*
X121417100Y-46398100D02*
X122378800Y-45436400D01*
X120518300Y-38777000D02*
X120518300Y-46025900D01*
X120518300Y-46025900D02*
X120890500Y-46398100D01*
%TD*%
%TA.AperFunction,Conductor*%
%TO.N,GND*%
G36*
X112491082Y-25095185D02*
G01*
X112536837Y-25147989D01*
X112546781Y-25217147D01*
X112531848Y-25257809D01*
X112532679Y-25258209D01*
X112529658Y-25264480D01*
X112469482Y-25436453D01*
X112469481Y-25436458D01*
X112449084Y-25617496D01*
X112449084Y-25617503D01*
X112469481Y-25798541D01*
X112469482Y-25798546D01*
X112510649Y-25916193D01*
X112529657Y-25970515D01*
X112626589Y-26124781D01*
X112755419Y-26253611D01*
X112909685Y-26350543D01*
X113081653Y-26410717D01*
X113081658Y-26410718D01*
X113262696Y-26431116D01*
X113262700Y-26431116D01*
X113262704Y-26431116D01*
X113443741Y-26410718D01*
X113443744Y-26410717D01*
X113443747Y-26410717D01*
X113615715Y-26350543D01*
X113615717Y-26350541D01*
X113615719Y-26350541D01*
X113615722Y-26350539D01*
X113743888Y-26270007D01*
X113809860Y-26251000D01*
X118221316Y-26251000D01*
X118288355Y-26270685D01*
X118334110Y-26323489D01*
X118344536Y-26361117D01*
X118363681Y-26531041D01*
X118363682Y-26531046D01*
X118423858Y-26703017D01*
X118465948Y-26770003D01*
X118520789Y-26857281D01*
X118649619Y-26986111D01*
X118803885Y-27083043D01*
X118975853Y-27143217D01*
X119021047Y-27148309D01*
X119085459Y-27175374D01*
X119094844Y-27183848D01*
X119340815Y-27429819D01*
X119374300Y-27491142D01*
X119369316Y-27560834D01*
X119327444Y-27616767D01*
X119261980Y-27641184D01*
X119253134Y-27641500D01*
X118683345Y-27641500D01*
X118622797Y-27648011D01*
X118622795Y-27648011D01*
X118485795Y-27699111D01*
X118368739Y-27786739D01*
X118281111Y-27903795D01*
X118230011Y-28040795D01*
X118230011Y-28040797D01*
X118223500Y-28101345D01*
X118223500Y-29176933D01*
X118203815Y-29243972D01*
X118151011Y-29289727D01*
X118081853Y-29299671D01*
X118018297Y-29270646D01*
X118011819Y-29264614D01*
X115586536Y-26839331D01*
X115586532Y-26839328D01*
X115482781Y-26770003D01*
X115482772Y-26769998D01*
X115367485Y-26722245D01*
X115367477Y-26722243D01*
X115245098Y-26697900D01*
X115245094Y-26697900D01*
X99261994Y-26697900D01*
X99137206Y-26697900D01*
X99137201Y-26697900D01*
X99014822Y-26722242D01*
X99014813Y-26722245D01*
X98899524Y-26769999D01*
X98899521Y-26770000D01*
X98795767Y-26839327D01*
X98795763Y-26839330D01*
X97960022Y-27675072D01*
X97898699Y-27708557D01*
X97829007Y-27703573D01*
X97823843Y-27701214D01*
X97681203Y-27648011D01*
X97620654Y-27641500D01*
X97620638Y-27641500D01*
X95823362Y-27641500D01*
X95823345Y-27641500D01*
X95762797Y-27648011D01*
X95762795Y-27648011D01*
X95625795Y-27699111D01*
X95508739Y-27786739D01*
X95421111Y-27903795D01*
X95370011Y-28040795D01*
X95370011Y-28040797D01*
X95363500Y-28101345D01*
X95363500Y-29898654D01*
X95370011Y-29959202D01*
X95370011Y-29959204D01*
X95408130Y-30061402D01*
X95421111Y-30096204D01*
X95508739Y-30213261D01*
X95625796Y-30300889D01*
X95762799Y-30351989D01*
X95790050Y-30354918D01*
X95823345Y-30358499D01*
X95823362Y-30358500D01*
X97620638Y-30358500D01*
X97620654Y-30358499D01*
X97647692Y-30355591D01*
X97681201Y-30351989D01*
X97818204Y-30300889D01*
X97935261Y-30213261D01*
X98022889Y-30096204D01*
X98068138Y-29974887D01*
X98110009Y-29918956D01*
X98175474Y-29894539D01*
X98243746Y-29909391D01*
X98275545Y-29934236D01*
X98338760Y-30002906D01*
X98516424Y-30141189D01*
X98516425Y-30141189D01*
X98516427Y-30141191D01*
X98628499Y-30201841D01*
X98714426Y-30248342D01*
X98927365Y-30321444D01*
X99149431Y-30358500D01*
X99374569Y-30358500D01*
X99596635Y-30321444D01*
X99809574Y-30248342D01*
X100007576Y-30141189D01*
X100185240Y-30002906D01*
X100306594Y-29871082D01*
X100337715Y-29837276D01*
X100337715Y-29837275D01*
X100337722Y-29837268D01*
X100428193Y-29698790D01*
X100481338Y-29653437D01*
X100550569Y-29644013D01*
X100613905Y-29673515D01*
X100635804Y-29698787D01*
X100726278Y-29837268D01*
X100726283Y-29837273D01*
X100726284Y-29837276D01*
X100878756Y-30002902D01*
X100878761Y-30002907D01*
X100881053Y-30004691D01*
X101056424Y-30141189D01*
X101056425Y-30141189D01*
X101056427Y-30141191D01*
X101168499Y-30201841D01*
X101254426Y-30248342D01*
X101467365Y-30321444D01*
X101689431Y-30358500D01*
X101914569Y-30358500D01*
X102136635Y-30321444D01*
X102349574Y-30248342D01*
X102547576Y-30141189D01*
X102725240Y-30002906D01*
X102846594Y-29871082D01*
X102877715Y-29837276D01*
X102877715Y-29837275D01*
X102877722Y-29837268D01*
X102968193Y-29698790D01*
X103021338Y-29653437D01*
X103090569Y-29644013D01*
X103153905Y-29673515D01*
X103175804Y-29698787D01*
X103266278Y-29837268D01*
X103266283Y-29837273D01*
X103266284Y-29837276D01*
X103418756Y-30002902D01*
X103418761Y-30002907D01*
X103421053Y-30004691D01*
X103596424Y-30141189D01*
X103596425Y-30141189D01*
X103596427Y-30141191D01*
X103708499Y-30201841D01*
X103794426Y-30248342D01*
X104007365Y-30321444D01*
X104229431Y-30358500D01*
X104454569Y-30358500D01*
X104676635Y-30321444D01*
X104889574Y-30248342D01*
X105087576Y-30141189D01*
X105265240Y-30002906D01*
X105386594Y-29871082D01*
X105417715Y-29837276D01*
X105417715Y-29837275D01*
X105417722Y-29837268D01*
X105508193Y-29698790D01*
X105561338Y-29653437D01*
X105630569Y-29644013D01*
X105693905Y-29673515D01*
X105715804Y-29698787D01*
X105806278Y-29837268D01*
X105806283Y-29837273D01*
X105806284Y-29837276D01*
X105958756Y-30002902D01*
X105958761Y-30002907D01*
X105961053Y-30004691D01*
X106136424Y-30141189D01*
X106136425Y-30141189D01*
X106136427Y-30141191D01*
X106248499Y-30201841D01*
X106334426Y-30248342D01*
X106547365Y-30321444D01*
X106769431Y-30358500D01*
X106994569Y-30358500D01*
X107216635Y-30321444D01*
X107429574Y-30248342D01*
X107627576Y-30141189D01*
X107805240Y-30002906D01*
X107926594Y-29871082D01*
X107957715Y-29837276D01*
X107957715Y-29837275D01*
X107957722Y-29837268D01*
X108048193Y-29698790D01*
X108101338Y-29653437D01*
X108170569Y-29644013D01*
X108233905Y-29673515D01*
X108255804Y-29698787D01*
X108346278Y-29837268D01*
X108346283Y-29837273D01*
X108346284Y-29837276D01*
X108498756Y-30002902D01*
X108498761Y-30002907D01*
X108501053Y-30004691D01*
X108676424Y-30141189D01*
X108676425Y-30141189D01*
X108676427Y-30141191D01*
X108788499Y-30201841D01*
X108874426Y-30248342D01*
X109087365Y-30321444D01*
X109309431Y-30358500D01*
X109534569Y-30358500D01*
X109756635Y-30321444D01*
X109969574Y-30248342D01*
X110167576Y-30141189D01*
X110345240Y-30002906D01*
X110466594Y-29871082D01*
X110497715Y-29837276D01*
X110497715Y-29837275D01*
X110497722Y-29837268D01*
X110588193Y-29698790D01*
X110641338Y-29653437D01*
X110710569Y-29644013D01*
X110773905Y-29673515D01*
X110795804Y-29698787D01*
X110886278Y-29837268D01*
X110886283Y-29837273D01*
X110886284Y-29837276D01*
X111038756Y-30002902D01*
X111038761Y-30002907D01*
X111041053Y-30004691D01*
X111216424Y-30141189D01*
X111216425Y-30141189D01*
X111216427Y-30141191D01*
X111328499Y-30201841D01*
X111414426Y-30248342D01*
X111627365Y-30321444D01*
X111849431Y-30358500D01*
X112074569Y-30358500D01*
X112296635Y-30321444D01*
X112509574Y-30248342D01*
X112707576Y-30141189D01*
X112885240Y-30002906D01*
X113006594Y-29871082D01*
X113037715Y-29837276D01*
X113037715Y-29837275D01*
X113037722Y-29837268D01*
X113128193Y-29698790D01*
X113181338Y-29653437D01*
X113250569Y-29644013D01*
X113313905Y-29673515D01*
X113335804Y-29698787D01*
X113426278Y-29837268D01*
X113426283Y-29837273D01*
X113426284Y-29837276D01*
X113552968Y-29974889D01*
X113578760Y-30002906D01*
X113578763Y-30002908D01*
X113581053Y-30004691D01*
X113581747Y-30005656D01*
X113582536Y-30006382D01*
X113582386Y-30006544D01*
X113621865Y-30061402D01*
X113625538Y-30131175D01*
X113592571Y-30190224D01*
X113534028Y-30248767D01*
X113464703Y-30352518D01*
X113464698Y-30352527D01*
X113416945Y-30467814D01*
X113416943Y-30467822D01*
X113392600Y-30590201D01*
X113392600Y-31110784D01*
X113372915Y-31177823D01*
X113320111Y-31223578D01*
X113268600Y-31234784D01*
X113262696Y-31234784D01*
X113081658Y-31255181D01*
X113081653Y-31255182D01*
X112909682Y-31315358D01*
X112755418Y-31412289D01*
X112626589Y-31541118D01*
X112529658Y-31695382D01*
X112469482Y-31867355D01*
X112469090Y-31870835D01*
X112468209Y-31872931D01*
X112467933Y-31874141D01*
X112467721Y-31874092D01*
X112442022Y-31935248D01*
X112384426Y-31974802D01*
X112359756Y-31980169D01*
X112330358Y-31983481D01*
X112158383Y-32043657D01*
X112158377Y-32043660D01*
X112030212Y-32124193D01*
X111964240Y-32143200D01*
X111120801Y-32143200D01*
X110998422Y-32167543D01*
X110998414Y-32167545D01*
X110883127Y-32215298D01*
X110883118Y-32215303D01*
X110779367Y-32284628D01*
X110779363Y-32284631D01*
X108625275Y-34438721D01*
X107918167Y-35145829D01*
X107887806Y-35176190D01*
X107829927Y-35234068D01*
X107760603Y-35337818D01*
X107760598Y-35337827D01*
X107712845Y-35453114D01*
X107712843Y-35453122D01*
X107688500Y-35575501D01*
X107688500Y-42565326D01*
X107668815Y-42632365D01*
X107616011Y-42678120D01*
X107546853Y-42688064D01*
X107498528Y-42670320D01*
X107414717Y-42617658D01*
X107414716Y-42617657D01*
X107414715Y-42617657D01*
X107360393Y-42598649D01*
X107242746Y-42557482D01*
X107242741Y-42557481D01*
X107061704Y-42537084D01*
X107061696Y-42537084D01*
X106880658Y-42557481D01*
X106880653Y-42557482D01*
X106708682Y-42617658D01*
X106554418Y-42714589D01*
X106425589Y-42843418D01*
X106328657Y-42997683D01*
X106268483Y-43169653D01*
X106263390Y-43214849D01*
X106236322Y-43279262D01*
X106227851Y-43288643D01*
X102090740Y-47425756D01*
X100747867Y-48768629D01*
X100706615Y-48809881D01*
X100659627Y-48856868D01*
X100590303Y-48960618D01*
X100590298Y-48960627D01*
X100542545Y-49075914D01*
X100542543Y-49075922D01*
X100518200Y-49198301D01*
X100518200Y-55734533D01*
X100498515Y-55801572D01*
X100481881Y-55822214D01*
X96312324Y-59991770D01*
X96251001Y-60025255D01*
X96181309Y-60020271D01*
X96136962Y-59991770D01*
X96005879Y-59860687D01*
X96005877Y-59860686D01*
X95941527Y-59820251D01*
X95895236Y-59767916D01*
X95883500Y-59715258D01*
X95883500Y-56419289D01*
X95878475Y-56394027D01*
X95872744Y-56365216D01*
X95878971Y-56295627D01*
X95921833Y-56240449D01*
X95987723Y-56217204D01*
X96055720Y-56233271D01*
X96060333Y-56236033D01*
X96143577Y-56288339D01*
X96143580Y-56288341D01*
X96143584Y-56288342D01*
X96143585Y-56288343D01*
X96310120Y-56346616D01*
X96315553Y-56348517D01*
X96315558Y-56348518D01*
X96496596Y-56368916D01*
X96496600Y-56368916D01*
X96496604Y-56368916D01*
X96677641Y-56348518D01*
X96677644Y-56348517D01*
X96677647Y-56348517D01*
X96849615Y-56288343D01*
X97003881Y-56191411D01*
X97132711Y-56062581D01*
X97229643Y-55908315D01*
X97289817Y-55736347D01*
X97289818Y-55736341D01*
X97310216Y-55555303D01*
X97310216Y-55555296D01*
X97289818Y-55374258D01*
X97289817Y-55374253D01*
X97275032Y-55332000D01*
X97229643Y-55202285D01*
X97132711Y-55048019D01*
X97003881Y-54919189D01*
X96969285Y-54897451D01*
X96849616Y-54822257D01*
X96737953Y-54783185D01*
X96677647Y-54762083D01*
X96657681Y-54759833D01*
X96632450Y-54756990D01*
X96568037Y-54729922D01*
X96558655Y-54721451D01*
X93327819Y-51490615D01*
X93294334Y-51429292D01*
X93291500Y-51402934D01*
X93291500Y-30275729D01*
X93311185Y-30208690D01*
X93356484Y-30166674D01*
X93403566Y-30141195D01*
X93403572Y-30141191D01*
X93403576Y-30141189D01*
X93581240Y-30002906D01*
X93702594Y-29871082D01*
X93733715Y-29837276D01*
X93733719Y-29837271D01*
X93733722Y-29837268D01*
X93856860Y-29648791D01*
X93947296Y-29442616D01*
X94002564Y-29224368D01*
X94006495Y-29176933D01*
X94021156Y-29000005D01*
X94021156Y-28999994D01*
X94002565Y-28775640D01*
X94002563Y-28775628D01*
X93947296Y-28557385D01*
X93937071Y-28534075D01*
X93856860Y-28351209D01*
X93840706Y-28326484D01*
X93733723Y-28162734D01*
X93733715Y-28162723D01*
X93581243Y-27997097D01*
X93581238Y-27997092D01*
X93403582Y-27858816D01*
X93403576Y-27858811D01*
X93403575Y-27858810D01*
X93403572Y-27858808D01*
X93205580Y-27751661D01*
X93205577Y-27751659D01*
X93205574Y-27751658D01*
X93205571Y-27751657D01*
X93205569Y-27751656D01*
X92992637Y-27678556D01*
X92770569Y-27641500D01*
X92545431Y-27641500D01*
X92323362Y-27678556D01*
X92110430Y-27751656D01*
X92110419Y-27751661D01*
X91912427Y-27858808D01*
X91912415Y-27858816D01*
X91804605Y-27942729D01*
X91739611Y-27968372D01*
X91671071Y-27954806D01*
X91640762Y-27932557D01*
X91031236Y-27323031D01*
X91031232Y-27323028D01*
X90927481Y-27253703D01*
X90927472Y-27253698D01*
X90812185Y-27205945D01*
X90812177Y-27205943D01*
X90689798Y-27181600D01*
X90689794Y-27181600D01*
X86969506Y-27181600D01*
X86969502Y-27181600D01*
X86847119Y-27205943D01*
X86847114Y-27205945D01*
X86813348Y-27219929D01*
X86813349Y-27219930D01*
X86731826Y-27253698D01*
X86731822Y-27253700D01*
X86628071Y-27323024D01*
X86628063Y-27323030D01*
X86034599Y-27916494D01*
X85973276Y-27949979D01*
X85903584Y-27944995D01*
X85870756Y-27926666D01*
X85783579Y-27858813D01*
X85783570Y-27858807D01*
X85585580Y-27751661D01*
X85585577Y-27751659D01*
X85585574Y-27751658D01*
X85585571Y-27751657D01*
X85585569Y-27751656D01*
X85372637Y-27678556D01*
X85150569Y-27641500D01*
X84925431Y-27641500D01*
X84703362Y-27678556D01*
X84490430Y-27751656D01*
X84490419Y-27751661D01*
X84292427Y-27858808D01*
X84292422Y-27858812D01*
X84114761Y-27997092D01*
X84114756Y-27997097D01*
X83962284Y-28162723D01*
X83962276Y-28162734D01*
X83871808Y-28301206D01*
X83818662Y-28346562D01*
X83749431Y-28355986D01*
X83686095Y-28326484D01*
X83664192Y-28301206D01*
X83573723Y-28162734D01*
X83573715Y-28162723D01*
X83421243Y-27997097D01*
X83421238Y-27997092D01*
X83243582Y-27858816D01*
X83243576Y-27858811D01*
X83243575Y-27858810D01*
X83243572Y-27858808D01*
X83045580Y-27751661D01*
X83045577Y-27751659D01*
X83045574Y-27751658D01*
X83045571Y-27751657D01*
X83045569Y-27751656D01*
X82832637Y-27678556D01*
X82610569Y-27641500D01*
X82385431Y-27641500D01*
X82163362Y-27678556D01*
X81950430Y-27751656D01*
X81950419Y-27751661D01*
X81752427Y-27858808D01*
X81752422Y-27858812D01*
X81574761Y-27997092D01*
X81574756Y-27997097D01*
X81422284Y-28162723D01*
X81422276Y-28162734D01*
X81331808Y-28301206D01*
X81278662Y-28346562D01*
X81209431Y-28355986D01*
X81146095Y-28326484D01*
X81124192Y-28301206D01*
X81033723Y-28162734D01*
X81033715Y-28162723D01*
X80881243Y-27997097D01*
X80881238Y-27997092D01*
X80703582Y-27858816D01*
X80703576Y-27858811D01*
X80703575Y-27858810D01*
X80703572Y-27858808D01*
X80505580Y-27751661D01*
X80505577Y-27751659D01*
X80505574Y-27751658D01*
X80505571Y-27751657D01*
X80505569Y-27751656D01*
X80292637Y-27678556D01*
X80070569Y-27641500D01*
X79845431Y-27641500D01*
X79623362Y-27678556D01*
X79410430Y-27751656D01*
X79410419Y-27751661D01*
X79212427Y-27858808D01*
X79212422Y-27858812D01*
X79034761Y-27997092D01*
X79034756Y-27997097D01*
X78882284Y-28162723D01*
X78882276Y-28162734D01*
X78788251Y-28306650D01*
X78735105Y-28352007D01*
X78665873Y-28361430D01*
X78602538Y-28331928D01*
X78582868Y-28309951D01*
X78456113Y-28128926D01*
X78456108Y-28128920D01*
X78289082Y-27961894D01*
X78095578Y-27826399D01*
X77881492Y-27726570D01*
X77881486Y-27726567D01*
X77668000Y-27669364D01*
X77668000Y-28566988D01*
X77610993Y-28534075D01*
X77483826Y-28500000D01*
X77352174Y-28500000D01*
X77225007Y-28534075D01*
X77168000Y-28566988D01*
X77168000Y-27669364D01*
X77167999Y-27669364D01*
X76954513Y-27726567D01*
X76954507Y-27726570D01*
X76740422Y-27826399D01*
X76740420Y-27826400D01*
X76546926Y-27961886D01*
X76546920Y-27961891D01*
X76379891Y-28128920D01*
X76379890Y-28128922D01*
X76253131Y-28309952D01*
X76198554Y-28353577D01*
X76129055Y-28360769D01*
X76066701Y-28329247D01*
X76047752Y-28306656D01*
X75953722Y-28162732D01*
X75953715Y-28162725D01*
X75953715Y-28162723D01*
X75801243Y-27997097D01*
X75801238Y-27997092D01*
X75623582Y-27858816D01*
X75623576Y-27858811D01*
X75623575Y-27858810D01*
X75623572Y-27858808D01*
X75425580Y-27751661D01*
X75425577Y-27751659D01*
X75425574Y-27751658D01*
X75425571Y-27751657D01*
X75425569Y-27751656D01*
X75212637Y-27678556D01*
X74990569Y-27641500D01*
X74765431Y-27641500D01*
X74543362Y-27678556D01*
X74330430Y-27751656D01*
X74330419Y-27751661D01*
X74132427Y-27858808D01*
X74132422Y-27858812D01*
X73954761Y-27997092D01*
X73954756Y-27997097D01*
X73802284Y-28162723D01*
X73802276Y-28162734D01*
X73711808Y-28301206D01*
X73658662Y-28346562D01*
X73589431Y-28355986D01*
X73526095Y-28326484D01*
X73504192Y-28301206D01*
X73413723Y-28162734D01*
X73413715Y-28162723D01*
X73261243Y-27997097D01*
X73261238Y-27997092D01*
X73083582Y-27858816D01*
X73083576Y-27858811D01*
X73083575Y-27858810D01*
X73083572Y-27858808D01*
X72885580Y-27751661D01*
X72885577Y-27751659D01*
X72885574Y-27751658D01*
X72885571Y-27751657D01*
X72885569Y-27751656D01*
X72672637Y-27678556D01*
X72450569Y-27641500D01*
X72225431Y-27641500D01*
X72003362Y-27678556D01*
X71790430Y-27751656D01*
X71790419Y-27751661D01*
X71592427Y-27858808D01*
X71592422Y-27858812D01*
X71414761Y-27997092D01*
X71351548Y-28065760D01*
X71291661Y-28101750D01*
X71221823Y-28099649D01*
X71164207Y-28060124D01*
X71144138Y-28025110D01*
X71098889Y-27903796D01*
X71065214Y-27858812D01*
X71011261Y-27786739D01*
X70894204Y-27699111D01*
X70757203Y-27648011D01*
X70696654Y-27641500D01*
X70696638Y-27641500D01*
X68899362Y-27641500D01*
X68899345Y-27641500D01*
X68838797Y-27648011D01*
X68838795Y-27648011D01*
X68701795Y-27699111D01*
X68584739Y-27786739D01*
X68497111Y-27903795D01*
X68446011Y-28040795D01*
X68446011Y-28040797D01*
X68439500Y-28101345D01*
X68439500Y-29898654D01*
X68446011Y-29959202D01*
X68446011Y-29959204D01*
X68484130Y-30061402D01*
X68497111Y-30096204D01*
X68584739Y-30213261D01*
X68701796Y-30300889D01*
X68838799Y-30351989D01*
X68866050Y-30354918D01*
X68899345Y-30358499D01*
X68899362Y-30358500D01*
X70696638Y-30358500D01*
X70696654Y-30358499D01*
X70723692Y-30355591D01*
X70757201Y-30351989D01*
X70894204Y-30300889D01*
X71011261Y-30213261D01*
X71098889Y-30096204D01*
X71144138Y-29974887D01*
X71186009Y-29918956D01*
X71251474Y-29894539D01*
X71319746Y-29909391D01*
X71351545Y-29934236D01*
X71414760Y-30002906D01*
X71592424Y-30141189D01*
X71592425Y-30141189D01*
X71592427Y-30141191D01*
X71704499Y-30201841D01*
X71790426Y-30248342D01*
X72003365Y-30321444D01*
X72225431Y-30358500D01*
X72450569Y-30358500D01*
X72672635Y-30321444D01*
X72885574Y-30248342D01*
X73083576Y-30141189D01*
X73261240Y-30002906D01*
X73382594Y-29871082D01*
X73413715Y-29837276D01*
X73413715Y-29837275D01*
X73413722Y-29837268D01*
X73504193Y-29698790D01*
X73557338Y-29653437D01*
X73626569Y-29644013D01*
X73689905Y-29673515D01*
X73711804Y-29698787D01*
X73802278Y-29837268D01*
X73802283Y-29837273D01*
X73802284Y-29837276D01*
X73954756Y-30002902D01*
X73954761Y-30002907D01*
X73957053Y-30004691D01*
X74132424Y-30141189D01*
X74132425Y-30141189D01*
X74132427Y-30141191D01*
X74244499Y-30201841D01*
X74330426Y-30248342D01*
X74543365Y-30321444D01*
X74765431Y-30358500D01*
X74990569Y-30358500D01*
X75212635Y-30321444D01*
X75425574Y-30248342D01*
X75623576Y-30141189D01*
X75801240Y-30002906D01*
X75922594Y-29871082D01*
X75953715Y-29837276D01*
X75953715Y-29837275D01*
X75953722Y-29837268D01*
X76047749Y-29693347D01*
X76100894Y-29647994D01*
X76170125Y-29638570D01*
X76233461Y-29668072D01*
X76253130Y-29690048D01*
X76379890Y-29871078D01*
X76546917Y-30038105D01*
X76740421Y-30173600D01*
X76954507Y-30273429D01*
X76954516Y-30273433D01*
X77168000Y-30330634D01*
X77168000Y-29433012D01*
X77225007Y-29465925D01*
X77352174Y-29500000D01*
X77483826Y-29500000D01*
X77610993Y-29465925D01*
X77668000Y-29433012D01*
X77668000Y-30330633D01*
X77881483Y-30273433D01*
X77881492Y-30273429D01*
X78095578Y-30173600D01*
X78289082Y-30038105D01*
X78456105Y-29871082D01*
X78582868Y-29690048D01*
X78637445Y-29646423D01*
X78706944Y-29639231D01*
X78769298Y-29670753D01*
X78788251Y-29693350D01*
X78882276Y-29837265D01*
X78882284Y-29837276D01*
X79034756Y-30002902D01*
X79034761Y-30002907D01*
X79037053Y-30004691D01*
X79212424Y-30141189D01*
X79212425Y-30141189D01*
X79212427Y-30141191D01*
X79324499Y-30201841D01*
X79410426Y-30248342D01*
X79623365Y-30321444D01*
X79845431Y-30358500D01*
X80070569Y-30358500D01*
X80292635Y-30321444D01*
X80505574Y-30248342D01*
X80703576Y-30141189D01*
X80881240Y-30002906D01*
X81002594Y-29871082D01*
X81033715Y-29837276D01*
X81033715Y-29837275D01*
X81033722Y-29837268D01*
X81124193Y-29698790D01*
X81177338Y-29653437D01*
X81246569Y-29644013D01*
X81309905Y-29673515D01*
X81331804Y-29698787D01*
X81422278Y-29837268D01*
X81422283Y-29837273D01*
X81422284Y-29837276D01*
X81574756Y-30002902D01*
X81574761Y-30002907D01*
X81577053Y-30004691D01*
X81752424Y-30141189D01*
X81752425Y-30141189D01*
X81752427Y-30141191D01*
X81864499Y-30201841D01*
X81950426Y-30248342D01*
X82163365Y-30321444D01*
X82385431Y-30358500D01*
X82610569Y-30358500D01*
X82832635Y-30321444D01*
X83045574Y-30248342D01*
X83243576Y-30141189D01*
X83421240Y-30002906D01*
X83542594Y-29871082D01*
X83573715Y-29837276D01*
X83573715Y-29837275D01*
X83573722Y-29837268D01*
X83664193Y-29698790D01*
X83717338Y-29653437D01*
X83786569Y-29644013D01*
X83849905Y-29673515D01*
X83871804Y-29698787D01*
X83962278Y-29837268D01*
X83962283Y-29837273D01*
X83962284Y-29837276D01*
X84114756Y-30002902D01*
X84114761Y-30002907D01*
X84117053Y-30004691D01*
X84292424Y-30141189D01*
X84292425Y-30141189D01*
X84292427Y-30141191D01*
X84404499Y-30201841D01*
X84490426Y-30248342D01*
X84703365Y-30321444D01*
X84925431Y-30358500D01*
X85150569Y-30358500D01*
X85372635Y-30321444D01*
X85585574Y-30248342D01*
X85783576Y-30141189D01*
X85961240Y-30002906D01*
X86082594Y-29871082D01*
X86113715Y-29837276D01*
X86113715Y-29837275D01*
X86113722Y-29837268D01*
X86204193Y-29698790D01*
X86257338Y-29653437D01*
X86326569Y-29644013D01*
X86389905Y-29673515D01*
X86411804Y-29698787D01*
X86502278Y-29837268D01*
X86502283Y-29837273D01*
X86502284Y-29837276D01*
X86628968Y-29974889D01*
X86654760Y-30002906D01*
X86832424Y-30141189D01*
X86832426Y-30141190D01*
X86832433Y-30141195D01*
X86879516Y-30166674D01*
X86929107Y-30215892D01*
X86944500Y-30275729D01*
X86944500Y-49245398D01*
X86968843Y-49367777D01*
X86968845Y-49367785D01*
X87016598Y-49483072D01*
X87016603Y-49483081D01*
X87085928Y-49586832D01*
X87085931Y-49586836D01*
X88852051Y-51352956D01*
X88885536Y-51414279D01*
X88887590Y-51426751D01*
X88889378Y-51442614D01*
X88892683Y-51471947D01*
X88932799Y-51586592D01*
X88952857Y-51643916D01*
X88955921Y-51648792D01*
X89049789Y-51798181D01*
X89178619Y-51927011D01*
X89332885Y-52023943D01*
X89500866Y-52082722D01*
X89504853Y-52084117D01*
X89504858Y-52084118D01*
X89685896Y-52104516D01*
X89685900Y-52104516D01*
X89685904Y-52104516D01*
X89866935Y-52084119D01*
X89866940Y-52084117D01*
X89866947Y-52084117D01*
X89866953Y-52084114D01*
X89873053Y-52082722D01*
X89942792Y-52086987D01*
X89988341Y-52115929D01*
X94580181Y-56707769D01*
X94613666Y-56769092D01*
X94616500Y-56795450D01*
X94616500Y-60310598D01*
X94640843Y-60432977D01*
X94640846Y-60432989D01*
X94684899Y-60539343D01*
X94693558Y-60572910D01*
X94705381Y-60677841D01*
X94765557Y-60849816D01*
X94861819Y-61003015D01*
X94862489Y-61004081D01*
X94991319Y-61132911D01*
X95145585Y-61229843D01*
X95181177Y-61242297D01*
X95261974Y-61270569D01*
X95318750Y-61311291D01*
X95344498Y-61376244D01*
X95331042Y-61444805D01*
X95308701Y-61475292D01*
X92968368Y-63815628D01*
X92698167Y-64085829D01*
X92654047Y-64129949D01*
X92609927Y-64174068D01*
X92540603Y-64277818D01*
X92540598Y-64277827D01*
X92492845Y-64393114D01*
X92492843Y-64393122D01*
X92468500Y-64515501D01*
X92468500Y-65967500D01*
X92448815Y-66034539D01*
X92396011Y-66080294D01*
X92344500Y-66091500D01*
X92253345Y-66091500D01*
X92192797Y-66098011D01*
X92192795Y-66098011D01*
X92055795Y-66149111D01*
X91938739Y-66236739D01*
X91851111Y-66353795D01*
X91800011Y-66490795D01*
X91800011Y-66490797D01*
X91793500Y-66551345D01*
X91793500Y-68248654D01*
X91800011Y-68309202D01*
X91800011Y-68309204D01*
X91847597Y-68436783D01*
X91851111Y-68446204D01*
X91938739Y-68563261D01*
X92055796Y-68650889D01*
X92192799Y-68701989D01*
X92220050Y-68704918D01*
X92253345Y-68708499D01*
X92253362Y-68708500D01*
X93950638Y-68708500D01*
X93950654Y-68708499D01*
X93977692Y-68705591D01*
X94011201Y-68701989D01*
X94148204Y-68650889D01*
X94265261Y-68563261D01*
X94352889Y-68446204D01*
X94403989Y-68309201D01*
X94408285Y-68269245D01*
X94410499Y-68248654D01*
X94410677Y-68245331D01*
X94410855Y-68245340D01*
X94410856Y-68245335D01*
X94410959Y-68245346D01*
X94412128Y-68245408D01*
X94430185Y-68183915D01*
X94482989Y-68138160D01*
X94515967Y-68132479D01*
X95202000Y-67446446D01*
X95202000Y-67452661D01*
X95229259Y-67554394D01*
X95281920Y-67645606D01*
X95356394Y-67720080D01*
X95447606Y-67772741D01*
X95549339Y-67800000D01*
X95555553Y-67800000D01*
X94876526Y-68479025D01*
X94949513Y-68530132D01*
X94949521Y-68530136D01*
X95155668Y-68626264D01*
X95155682Y-68626269D01*
X95375389Y-68685139D01*
X95375400Y-68685141D01*
X95601998Y-68704966D01*
X95602002Y-68704966D01*
X95828599Y-68685141D01*
X95828610Y-68685139D01*
X96048317Y-68626269D01*
X96048331Y-68626264D01*
X96254478Y-68530136D01*
X96327471Y-68479024D01*
X95648447Y-67800000D01*
X95654661Y-67800000D01*
X95756394Y-67772741D01*
X95847606Y-67720080D01*
X95922080Y-67645606D01*
X95974741Y-67554394D01*
X96002000Y-67452661D01*
X96002000Y-67446447D01*
X96681024Y-68125471D01*
X96732136Y-68052478D01*
X96828264Y-67846331D01*
X96828269Y-67846317D01*
X96887139Y-67626610D01*
X96887141Y-67626599D01*
X96906966Y-67400002D01*
X96906966Y-67399997D01*
X96887141Y-67173400D01*
X96887139Y-67173389D01*
X96828269Y-66953682D01*
X96828264Y-66953668D01*
X96732136Y-66747521D01*
X96732132Y-66747513D01*
X96681025Y-66674526D01*
X96002000Y-67353551D01*
X96002000Y-67347339D01*
X95974741Y-67245606D01*
X95922080Y-67154394D01*
X95847606Y-67079920D01*
X95756394Y-67027259D01*
X95654661Y-67000000D01*
X95648448Y-67000000D01*
X96327472Y-66320974D01*
X96254478Y-66269863D01*
X96048331Y-66173735D01*
X96048317Y-66173730D01*
X95828610Y-66114860D01*
X95828599Y-66114858D01*
X95602002Y-66095034D01*
X95601998Y-66095034D01*
X95375400Y-66114858D01*
X95375389Y-66114860D01*
X95155682Y-66173730D01*
X95155673Y-66173734D01*
X94949516Y-66269866D01*
X94949512Y-66269868D01*
X94876526Y-66320973D01*
X94876526Y-66320974D01*
X95555553Y-67000000D01*
X95549339Y-67000000D01*
X95447606Y-67027259D01*
X95356394Y-67079920D01*
X95281920Y-67154394D01*
X95229259Y-67245606D01*
X95202000Y-67347339D01*
X95202000Y-67353552D01*
X94514910Y-66666463D01*
X94476805Y-66658804D01*
X94426623Y-66610188D01*
X94411965Y-66554600D01*
X94410959Y-66554653D01*
X94410856Y-66554665D01*
X94410855Y-66554659D01*
X94410677Y-66554669D01*
X94410499Y-66551345D01*
X94407157Y-66520270D01*
X94403989Y-66490799D01*
X94390741Y-66455281D01*
X94381522Y-66430564D01*
X94352889Y-66353796D01*
X94265261Y-66236739D01*
X94148204Y-66149111D01*
X94011203Y-66098011D01*
X93950654Y-66091500D01*
X93950638Y-66091500D01*
X93859500Y-66091500D01*
X93792461Y-66071815D01*
X93746706Y-66019011D01*
X93735500Y-65967500D01*
X93735500Y-64891666D01*
X93755185Y-64824627D01*
X93771819Y-64803985D01*
X95373071Y-63202734D01*
X96992072Y-61583733D01*
X97061401Y-61479975D01*
X97109155Y-61364684D01*
X97117527Y-61322600D01*
X97120201Y-61309155D01*
X97124008Y-61290017D01*
X97133500Y-61242294D01*
X97133500Y-61013766D01*
X97153185Y-60946727D01*
X97169819Y-60926085D01*
X101643768Y-56452136D01*
X101643771Y-56452133D01*
X101713100Y-56348375D01*
X101760855Y-56233085D01*
X101785200Y-56110694D01*
X101785200Y-55985906D01*
X101785200Y-49574466D01*
X101804885Y-49507427D01*
X101821519Y-49486785D01*
X102154819Y-49153485D01*
X102216142Y-49120000D01*
X102285834Y-49124984D01*
X102341767Y-49166856D01*
X102366184Y-49232320D01*
X102366500Y-49241166D01*
X102366500Y-52152839D01*
X102347494Y-52218811D01*
X102266958Y-52346982D01*
X102206782Y-52518953D01*
X102206781Y-52518958D01*
X102186384Y-52699996D01*
X102186384Y-52700003D01*
X102206781Y-52881041D01*
X102206782Y-52881046D01*
X102241265Y-52979592D01*
X102266957Y-53053015D01*
X102363889Y-53207281D01*
X102492719Y-53336111D01*
X102646985Y-53433043D01*
X102771173Y-53476498D01*
X102818953Y-53493217D01*
X102818958Y-53493218D01*
X102999996Y-53513616D01*
X103000000Y-53513616D01*
X103000003Y-53513616D01*
X103090471Y-53503422D01*
X103176217Y-53493761D01*
X103245038Y-53505815D01*
X103296418Y-53553164D01*
X103314100Y-53616981D01*
X103314100Y-54589039D01*
X103295094Y-54655011D01*
X103214558Y-54783182D01*
X103154382Y-54955153D01*
X103154381Y-54955158D01*
X103133984Y-55136196D01*
X103133984Y-55136203D01*
X103154381Y-55317241D01*
X103154382Y-55317246D01*
X103214558Y-55489217D01*
X103304884Y-55632969D01*
X103323884Y-55700205D01*
X103303516Y-55767041D01*
X103287572Y-55786622D01*
X103237285Y-55836910D01*
X102998167Y-56076029D01*
X102963502Y-56110694D01*
X102909927Y-56164268D01*
X102840603Y-56268018D01*
X102840598Y-56268027D01*
X102792845Y-56383314D01*
X102792843Y-56383322D01*
X102768500Y-56505701D01*
X102768500Y-65967500D01*
X102748815Y-66034539D01*
X102696011Y-66080294D01*
X102644500Y-66091500D01*
X102553345Y-66091500D01*
X102492797Y-66098011D01*
X102492795Y-66098011D01*
X102355795Y-66149111D01*
X102238739Y-66236739D01*
X102151111Y-66353795D01*
X102100011Y-66490795D01*
X102100011Y-66490797D01*
X102093500Y-66551345D01*
X102093500Y-67584457D01*
X102073815Y-67651496D01*
X102057181Y-67672138D01*
X100124138Y-69605181D01*
X100062815Y-69638666D01*
X100036457Y-69641500D01*
X91465543Y-69641500D01*
X91398504Y-69621815D01*
X91377862Y-69605181D01*
X89169819Y-67397138D01*
X89136334Y-67335815D01*
X89133500Y-67309457D01*
X89133500Y-66600291D01*
X89104352Y-66453759D01*
X89104351Y-66453758D01*
X89104351Y-66453754D01*
X89047174Y-66315716D01*
X88998243Y-66242485D01*
X88964166Y-66191485D01*
X88964163Y-66191481D01*
X81143517Y-58370835D01*
X81081399Y-58329330D01*
X81019284Y-58287826D01*
X80881247Y-58230649D01*
X80881239Y-58230647D01*
X80807976Y-58216074D01*
X80734709Y-58201500D01*
X80734706Y-58201500D01*
X68534500Y-58201500D01*
X68467461Y-58181815D01*
X68421706Y-58129011D01*
X68410500Y-58077500D01*
X68410500Y-58061362D01*
X68410499Y-58061345D01*
X68407157Y-58030270D01*
X68403989Y-58000799D01*
X68352889Y-57863796D01*
X68265261Y-57746739D01*
X68148204Y-57659111D01*
X68011203Y-57608011D01*
X67950654Y-57601500D01*
X67950638Y-57601500D01*
X66632800Y-57601500D01*
X66565761Y-57581815D01*
X66520006Y-57529011D01*
X66508800Y-57477500D01*
X66508800Y-46121905D01*
X66508799Y-46121901D01*
X66501885Y-46087143D01*
X66484455Y-45999515D01*
X66474613Y-45975755D01*
X66436701Y-45884225D01*
X66431151Y-45875919D01*
X66367372Y-45780466D01*
X66367369Y-45780463D01*
X56324927Y-35738023D01*
X56291442Y-35676700D01*
X56296426Y-35607008D01*
X56298787Y-35601839D01*
X56351987Y-35459207D01*
X56351988Y-35459204D01*
X56351989Y-35459201D01*
X56357219Y-35410557D01*
X56358499Y-35398654D01*
X56358500Y-35398637D01*
X56358500Y-33601362D01*
X56358499Y-33601345D01*
X56355119Y-33569917D01*
X56351989Y-33540799D01*
X56300889Y-33403796D01*
X56213261Y-33286739D01*
X56096204Y-33199111D01*
X55959203Y-33148011D01*
X55898654Y-33141500D01*
X55898638Y-33141500D01*
X54101362Y-33141500D01*
X54101345Y-33141500D01*
X54040797Y-33148011D01*
X54040795Y-33148011D01*
X53903795Y-33199111D01*
X53786739Y-33286739D01*
X53699111Y-33403795D01*
X53648011Y-33540795D01*
X53648011Y-33540797D01*
X53641500Y-33601345D01*
X53641500Y-35398654D01*
X53648011Y-35459202D01*
X53648011Y-35459204D01*
X53691389Y-35575501D01*
X53699111Y-35596204D01*
X53786739Y-35713261D01*
X53903796Y-35800889D01*
X53955737Y-35820262D01*
X54021595Y-35844827D01*
X54077528Y-35886699D01*
X54101944Y-35952163D01*
X54087092Y-36020436D01*
X54069490Y-36044991D01*
X53924279Y-36202730D01*
X53924276Y-36202734D01*
X53801140Y-36391207D01*
X53710703Y-36597385D01*
X53655436Y-36815628D01*
X53655434Y-36815640D01*
X53636844Y-37039994D01*
X53636844Y-37040005D01*
X53655434Y-37264359D01*
X53655436Y-37264371D01*
X53710703Y-37482614D01*
X53801140Y-37688792D01*
X53924276Y-37877265D01*
X53924284Y-37877276D01*
X54076756Y-38042902D01*
X54076760Y-38042906D01*
X54254424Y-38181189D01*
X54254429Y-38181191D01*
X54254431Y-38181193D01*
X54290930Y-38200946D01*
X54340520Y-38250165D01*
X54355628Y-38318382D01*
X54331457Y-38383937D01*
X54290930Y-38419054D01*
X54254431Y-38438806D01*
X54254422Y-38438812D01*
X54076761Y-38577092D01*
X54076756Y-38577097D01*
X53924284Y-38742723D01*
X53924276Y-38742734D01*
X53801140Y-38931207D01*
X53710703Y-39137385D01*
X53655436Y-39355628D01*
X53655434Y-39355640D01*
X53636844Y-39579994D01*
X53636844Y-39580005D01*
X53655434Y-39804359D01*
X53655436Y-39804371D01*
X53710703Y-40022614D01*
X53801140Y-40228792D01*
X53924276Y-40417265D01*
X53924284Y-40417276D01*
X54074397Y-40580339D01*
X54076760Y-40582906D01*
X54254424Y-40721189D01*
X54254429Y-40721191D01*
X54254431Y-40721193D01*
X54290930Y-40740946D01*
X54340520Y-40790165D01*
X54355628Y-40858382D01*
X54331457Y-40923937D01*
X54290930Y-40959054D01*
X54254431Y-40978806D01*
X54254422Y-40978812D01*
X54076761Y-41117092D01*
X54076756Y-41117097D01*
X53924284Y-41282723D01*
X53924276Y-41282734D01*
X53801140Y-41471207D01*
X53710703Y-41677385D01*
X53655436Y-41895628D01*
X53655434Y-41895640D01*
X53636844Y-42119994D01*
X53636844Y-42120005D01*
X53655434Y-42344359D01*
X53655436Y-42344371D01*
X53710703Y-42562614D01*
X53801140Y-42768792D01*
X53924276Y-42957265D01*
X53924284Y-42957276D01*
X54074009Y-43119918D01*
X54076760Y-43122906D01*
X54254424Y-43261189D01*
X54275353Y-43272515D01*
X54297695Y-43284606D01*
X54347286Y-43333825D01*
X54362394Y-43402042D01*
X54338224Y-43467597D01*
X54309802Y-43495236D01*
X54128922Y-43621890D01*
X54128920Y-43621891D01*
X53961891Y-43788920D01*
X53961886Y-43788926D01*
X53826400Y-43982420D01*
X53826399Y-43982422D01*
X53726570Y-44196507D01*
X53726567Y-44196513D01*
X53669364Y-44409999D01*
X53669364Y-44410000D01*
X54566988Y-44410000D01*
X54534075Y-44467007D01*
X54500000Y-44594174D01*
X54500000Y-44725826D01*
X54534075Y-44852993D01*
X54566988Y-44910000D01*
X53669364Y-44910000D01*
X53726567Y-45123486D01*
X53726570Y-45123492D01*
X53826399Y-45337578D01*
X53961894Y-45531082D01*
X54128917Y-45698105D01*
X54322421Y-45833600D01*
X54536507Y-45933429D01*
X54536516Y-45933433D01*
X54750000Y-45990634D01*
X54750000Y-45093012D01*
X54807007Y-45125925D01*
X54934174Y-45160000D01*
X55065826Y-45160000D01*
X55192993Y-45125925D01*
X55250000Y-45093012D01*
X55250000Y-45990633D01*
X55463483Y-45933433D01*
X55463492Y-45933429D01*
X55677578Y-45833600D01*
X55871082Y-45698105D01*
X56038105Y-45531082D01*
X56173600Y-45337577D01*
X56173601Y-45337575D01*
X56206589Y-45266833D01*
X56252761Y-45214393D01*
X56319954Y-45195241D01*
X56386835Y-45215456D01*
X56406652Y-45231556D01*
X62034081Y-50858985D01*
X62067566Y-50920308D01*
X62070400Y-50946666D01*
X62070400Y-54180748D01*
X62050715Y-54247787D01*
X61997911Y-54293542D01*
X61928753Y-54303486D01*
X61926015Y-54303061D01*
X61926009Y-54303060D01*
X61917453Y-54301322D01*
X61912713Y-54300184D01*
X61764570Y-54276721D01*
X61715191Y-54268900D01*
X59991209Y-54268900D01*
X59925369Y-54279328D01*
X59793688Y-54300184D01*
X59603499Y-54361979D01*
X59425312Y-54452771D01*
X59362591Y-54498341D01*
X59263525Y-54570317D01*
X59263523Y-54570319D01*
X59263522Y-54570319D01*
X59122119Y-54711722D01*
X59122119Y-54711723D01*
X59122117Y-54711725D01*
X59070198Y-54783185D01*
X59018177Y-54854786D01*
X58962847Y-54897451D01*
X58917859Y-54905900D01*
X56286141Y-54905900D01*
X56219102Y-54886215D01*
X56185823Y-54854786D01*
X56163978Y-54824719D01*
X56081883Y-54711725D01*
X55940475Y-54570317D01*
X55778687Y-54452771D01*
X55600500Y-54361979D01*
X55410311Y-54300184D01*
X55295305Y-54281969D01*
X55212791Y-54268900D01*
X53488809Y-54268900D01*
X53422969Y-54279328D01*
X53291288Y-54300184D01*
X53101099Y-54361979D01*
X52922912Y-54452771D01*
X52860191Y-54498341D01*
X52761125Y-54570317D01*
X52761123Y-54570319D01*
X52761122Y-54570319D01*
X52619719Y-54711722D01*
X52619719Y-54711723D01*
X52619717Y-54711725D01*
X52606496Y-54729922D01*
X52502171Y-54873512D01*
X52411379Y-55051699D01*
X52349584Y-55241888D01*
X52335312Y-55332000D01*
X52318300Y-55439409D01*
X52318300Y-55639391D01*
X52326498Y-55691152D01*
X52349584Y-55836911D01*
X52411379Y-56027100D01*
X52453975Y-56110698D01*
X52502171Y-56205287D01*
X52619717Y-56367075D01*
X52761125Y-56508483D01*
X52922913Y-56626029D01*
X53007868Y-56669316D01*
X53101099Y-56716820D01*
X53174257Y-56740590D01*
X53291290Y-56778616D01*
X53488809Y-56809900D01*
X53488810Y-56809900D01*
X55212790Y-56809900D01*
X55212791Y-56809900D01*
X55410310Y-56778616D01*
X55600503Y-56716819D01*
X55778687Y-56626029D01*
X55940475Y-56508483D01*
X56081883Y-56367075D01*
X56185823Y-56224013D01*
X56241153Y-56181349D01*
X56286141Y-56172900D01*
X58917859Y-56172900D01*
X58984898Y-56192585D01*
X59018176Y-56224013D01*
X59122117Y-56367075D01*
X59263525Y-56508483D01*
X59425313Y-56626029D01*
X59510268Y-56669316D01*
X59603499Y-56716820D01*
X59676657Y-56740590D01*
X59793690Y-56778616D01*
X59991209Y-56809900D01*
X59991210Y-56809900D01*
X61715190Y-56809900D01*
X61715191Y-56809900D01*
X61912710Y-56778616D01*
X61912718Y-56778613D01*
X61917445Y-56777479D01*
X61918339Y-56781206D01*
X61969903Y-56776298D01*
X62031996Y-56808332D01*
X62066913Y-56868851D01*
X62070400Y-56898050D01*
X62070400Y-58710886D01*
X62050715Y-58777925D01*
X61997911Y-58823680D01*
X61928753Y-58833624D01*
X61915524Y-58830550D01*
X61915462Y-58830813D01*
X61910722Y-58829675D01*
X61714521Y-58798600D01*
X61103200Y-58798600D01*
X61103200Y-59618348D01*
X61049281Y-59587219D01*
X60920080Y-59552600D01*
X60786320Y-59552600D01*
X60657119Y-59587219D01*
X60603200Y-59618348D01*
X60603200Y-58798600D01*
X59991879Y-58798600D01*
X59795679Y-58829675D01*
X59795676Y-58829675D01*
X59606762Y-58891057D01*
X59429767Y-58981241D01*
X59269060Y-59098003D01*
X59269059Y-59098003D01*
X59128603Y-59238459D01*
X59128603Y-59238460D01*
X59011841Y-59399167D01*
X58921656Y-59576164D01*
X58860274Y-59765082D01*
X58853065Y-59810599D01*
X58853065Y-59810600D01*
X60410949Y-59810600D01*
X60379819Y-59864519D01*
X60345200Y-59993720D01*
X60345200Y-60127480D01*
X60379819Y-60256681D01*
X60410949Y-60310600D01*
X58853065Y-60310600D01*
X58860274Y-60356117D01*
X58921656Y-60545035D01*
X59011841Y-60722032D01*
X59128603Y-60882739D01*
X59128603Y-60882740D01*
X59269059Y-61023196D01*
X59429767Y-61139958D01*
X59606762Y-61230142D01*
X59795677Y-61291524D01*
X59991879Y-61322600D01*
X60603200Y-61322600D01*
X60603200Y-60502851D01*
X60657119Y-60533981D01*
X60786320Y-60568600D01*
X60920080Y-60568600D01*
X61049281Y-60533981D01*
X61103200Y-60502851D01*
X61103200Y-61322600D01*
X61714521Y-61322600D01*
X61910720Y-61291524D01*
X61910723Y-61291524D01*
X62099637Y-61230142D01*
X62276632Y-61139958D01*
X62437339Y-61023196D01*
X62437340Y-61023196D01*
X62577796Y-60882740D01*
X62577796Y-60882739D01*
X62694558Y-60722032D01*
X62784742Y-60545037D01*
X62846124Y-60356123D01*
X62846124Y-60356120D01*
X62874886Y-60174527D01*
X62904815Y-60111393D01*
X62964126Y-60074461D01*
X63033989Y-60075459D01*
X63085039Y-60106243D01*
X64552457Y-61573662D01*
X65990528Y-63011733D01*
X66024013Y-63073056D01*
X66019029Y-63142748D01*
X65994078Y-63183396D01*
X65976275Y-63202734D01*
X65853139Y-63391209D01*
X65762703Y-63597385D01*
X65707436Y-63815628D01*
X65707434Y-63815640D01*
X65688844Y-64039994D01*
X65688844Y-64040005D01*
X65707434Y-64264359D01*
X65707436Y-64264371D01*
X65762703Y-64482614D01*
X65853140Y-64688792D01*
X65976276Y-64877265D01*
X65976284Y-64877276D01*
X66128756Y-65042902D01*
X66128760Y-65042906D01*
X66306424Y-65181189D01*
X66306425Y-65181189D01*
X66306427Y-65181191D01*
X66433135Y-65249761D01*
X66504426Y-65288342D01*
X66717365Y-65361444D01*
X66939431Y-65398500D01*
X67164569Y-65398500D01*
X67386635Y-65361444D01*
X67599574Y-65288342D01*
X67797576Y-65181189D01*
X67975240Y-65042906D01*
X68127722Y-64877268D01*
X68250860Y-64688791D01*
X68341296Y-64482616D01*
X68396564Y-64264368D01*
X68404047Y-64174067D01*
X68415156Y-64040005D01*
X68415156Y-64039994D01*
X68396565Y-63815640D01*
X68396563Y-63815628D01*
X68395186Y-63810191D01*
X68341296Y-63597384D01*
X68332490Y-63577308D01*
X68323589Y-63508008D01*
X68353567Y-63444896D01*
X68412907Y-63408011D01*
X68446047Y-63403500D01*
X80166134Y-63403500D01*
X80233173Y-63423185D01*
X80253815Y-63439819D01*
X82693815Y-65879819D01*
X82727300Y-65941142D01*
X82722316Y-66010834D01*
X82680444Y-66066767D01*
X82614980Y-66091184D01*
X82606134Y-66091500D01*
X82153345Y-66091500D01*
X82092797Y-66098011D01*
X82092795Y-66098011D01*
X81955795Y-66149111D01*
X81838739Y-66236739D01*
X81751111Y-66353795D01*
X81700011Y-66490795D01*
X81700010Y-66490798D01*
X81695715Y-66530755D01*
X81668977Y-66595306D01*
X81611585Y-66635155D01*
X81572426Y-66641500D01*
X66625290Y-66641500D01*
X66552024Y-66656074D01*
X66478760Y-66670647D01*
X66478752Y-66670649D01*
X66340717Y-66727825D01*
X66216482Y-66810835D01*
X63038072Y-69989245D01*
X62976749Y-70022730D01*
X62907057Y-70017746D01*
X62899500Y-70014639D01*
X62647649Y-69901289D01*
X62647620Y-69901278D01*
X62339540Y-69805277D01*
X62022114Y-69747108D01*
X61700000Y-69727624D01*
X61377885Y-69747108D01*
X61060459Y-69805277D01*
X60752379Y-69901278D01*
X60752364Y-69901284D01*
X60458089Y-70033726D01*
X60458087Y-70033728D01*
X60181918Y-70200676D01*
X60181910Y-70200682D01*
X59927883Y-70399700D01*
X59699700Y-70627883D01*
X59500682Y-70881910D01*
X59500676Y-70881918D01*
X59385664Y-71072174D01*
X59351101Y-71129349D01*
X59333728Y-71158087D01*
X59333726Y-71158089D01*
X59201284Y-71452364D01*
X59201278Y-71452379D01*
X59105277Y-71760459D01*
X59047108Y-72077885D01*
X59027624Y-72400000D01*
X59047108Y-72722114D01*
X59105277Y-73039540D01*
X59201278Y-73347620D01*
X59201284Y-73347635D01*
X59201285Y-73347638D01*
X59226285Y-73403185D01*
X59333726Y-73641910D01*
X59333727Y-73641911D01*
X59333729Y-73641915D01*
X59370189Y-73702227D01*
X59500676Y-73918081D01*
X59500682Y-73918089D01*
X59699700Y-74172116D01*
X59927883Y-74400299D01*
X60184866Y-74601633D01*
X60184073Y-74602644D01*
X60224693Y-74652763D01*
X60229981Y-74700689D01*
X60253895Y-74686410D01*
X60323727Y-74688708D01*
X60349044Y-74700353D01*
X60458085Y-74766271D01*
X60752362Y-74898715D01*
X60752371Y-74898717D01*
X60752379Y-74898721D01*
X60977009Y-74968718D01*
X61060459Y-74994722D01*
X61377881Y-75052891D01*
X61700000Y-75072376D01*
X62022119Y-75052891D01*
X62339541Y-74994722D01*
X62500070Y-74944699D01*
X62647620Y-74898721D01*
X62647624Y-74898719D01*
X62647638Y-74898715D01*
X62941915Y-74766271D01*
X63218083Y-74599322D01*
X63472113Y-74400302D01*
X63700302Y-74172113D01*
X63899322Y-73918083D01*
X64066271Y-73641915D01*
X64198715Y-73347638D01*
X64294722Y-73039541D01*
X64352891Y-72722119D01*
X64372376Y-72400000D01*
X64352891Y-72077881D01*
X64294722Y-71760459D01*
X64199662Y-71455400D01*
X64198721Y-71452379D01*
X64198717Y-71452371D01*
X64198715Y-71452362D01*
X64085358Y-71200496D01*
X64075796Y-71131285D01*
X64105169Y-71067890D01*
X64110738Y-71061941D01*
X66977862Y-68194819D01*
X67039185Y-68161334D01*
X67065543Y-68158500D01*
X81572426Y-68158500D01*
X81639465Y-68178185D01*
X81685220Y-68230989D01*
X81695715Y-68269245D01*
X81700010Y-68309201D01*
X81700011Y-68309204D01*
X81747597Y-68436783D01*
X81751111Y-68446204D01*
X81791903Y-68500696D01*
X81797474Y-68508137D01*
X81821891Y-68573601D01*
X81807039Y-68641874D01*
X81785888Y-68670129D01*
X77052835Y-73403182D01*
X76969825Y-73527417D01*
X76912649Y-73665452D01*
X76912647Y-73665460D01*
X76905334Y-73702226D01*
X76905334Y-73702227D01*
X76883500Y-73811991D01*
X76883500Y-78634707D01*
X76892077Y-78677825D01*
X76892077Y-78677826D01*
X76912154Y-78778762D01*
X76912649Y-78781247D01*
X76969826Y-78919284D01*
X77011330Y-78981399D01*
X77052835Y-79043517D01*
X77052836Y-79043518D01*
X77468050Y-79458731D01*
X77842834Y-79833515D01*
X77842835Y-79833516D01*
X77948484Y-79939165D01*
X77948485Y-79939166D01*
X78072709Y-80022170D01*
X78072722Y-80022177D01*
X78210749Y-80079349D01*
X78210754Y-80079351D01*
X78210758Y-80079351D01*
X78210759Y-80079352D01*
X78357291Y-80108500D01*
X78357294Y-80108500D01*
X96524706Y-80108500D01*
X96597976Y-80093925D01*
X96597977Y-80093925D01*
X96616419Y-80090256D01*
X96671247Y-80079351D01*
X96809284Y-80022174D01*
X96933515Y-79939166D01*
X97283512Y-79589168D01*
X97283516Y-79589166D01*
X97389166Y-79483516D01*
X97472174Y-79359285D01*
X97529351Y-79221247D01*
X97558500Y-79074705D01*
X97558500Y-78925295D01*
X97558500Y-78925292D01*
X97558499Y-78925290D01*
X97529353Y-78778762D01*
X97529350Y-78778752D01*
X97489939Y-78683603D01*
X97480500Y-78636151D01*
X97480500Y-78451748D01*
X97500185Y-78384709D01*
X97528338Y-78353895D01*
X97577813Y-78315387D01*
X97645240Y-78262906D01*
X97766594Y-78131082D01*
X97797715Y-78097276D01*
X97797717Y-78097273D01*
X97797722Y-78097268D01*
X97920860Y-77908791D01*
X98011296Y-77702616D01*
X98066564Y-77484368D01*
X98066565Y-77484359D01*
X98085156Y-77260005D01*
X98085156Y-77259994D01*
X98066565Y-77035640D01*
X98066563Y-77035628D01*
X98011296Y-76817385D01*
X98001071Y-76794075D01*
X97920860Y-76611209D01*
X97904706Y-76586484D01*
X97823696Y-76462488D01*
X97797722Y-76422732D01*
X97741584Y-76361750D01*
X97659516Y-76272601D01*
X97628594Y-76209947D01*
X97636454Y-76140520D01*
X97663062Y-76100940D01*
X105144071Y-68619933D01*
X105155769Y-68602426D01*
X105209380Y-68557620D01*
X105278705Y-68548911D01*
X105311277Y-68558933D01*
X105455673Y-68626265D01*
X105455682Y-68626269D01*
X105675389Y-68685139D01*
X105675400Y-68685141D01*
X105901998Y-68704966D01*
X105902002Y-68704966D01*
X106128599Y-68685141D01*
X106128610Y-68685139D01*
X106348317Y-68626269D01*
X106348331Y-68626264D01*
X106554478Y-68530136D01*
X106627471Y-68479024D01*
X105948447Y-67800000D01*
X105954661Y-67800000D01*
X106056394Y-67772741D01*
X106147606Y-67720080D01*
X106222080Y-67645606D01*
X106274741Y-67554394D01*
X106302000Y-67452661D01*
X106302000Y-67446447D01*
X106981024Y-68125471D01*
X107032136Y-68052478D01*
X107128264Y-67846331D01*
X107128269Y-67846317D01*
X107187139Y-67626610D01*
X107187141Y-67626599D01*
X107206966Y-67400002D01*
X107206966Y-67399997D01*
X107187141Y-67173400D01*
X107187139Y-67173389D01*
X107128269Y-66953682D01*
X107128264Y-66953668D01*
X107032136Y-66747521D01*
X107032132Y-66747513D01*
X106981025Y-66674526D01*
X106302000Y-67353551D01*
X106302000Y-67347339D01*
X106274741Y-67245606D01*
X106222080Y-67154394D01*
X106147606Y-67079920D01*
X106056394Y-67027259D01*
X105954661Y-67000000D01*
X105948447Y-67000000D01*
X106627472Y-66320974D01*
X106554478Y-66269863D01*
X106348331Y-66173735D01*
X106348317Y-66173730D01*
X106128610Y-66114860D01*
X106128599Y-66114858D01*
X105902002Y-66095034D01*
X105901998Y-66095034D01*
X105675393Y-66114859D01*
X105673880Y-66115126D01*
X105673205Y-66115050D01*
X105670001Y-66115331D01*
X105669944Y-66114686D01*
X105604441Y-66107376D01*
X105550216Y-66063315D01*
X105528419Y-65996933D01*
X105545972Y-65929304D01*
X105564672Y-65905331D01*
X114993519Y-56476485D01*
X115054842Y-56443000D01*
X115124534Y-56447984D01*
X115180467Y-56489856D01*
X115204884Y-56555320D01*
X115205200Y-56564166D01*
X115205200Y-61732833D01*
X115185515Y-61799872D01*
X115168881Y-61820514D01*
X108280897Y-68708499D01*
X101398167Y-75591229D01*
X101354047Y-75635349D01*
X101309927Y-75679468D01*
X101240603Y-75783218D01*
X101240596Y-75783230D01*
X101223316Y-75824952D01*
X101179476Y-75879356D01*
X101113182Y-75901421D01*
X101108755Y-75901500D01*
X100903345Y-75901500D01*
X100842797Y-75908011D01*
X100842795Y-75908011D01*
X100705795Y-75959111D01*
X100588739Y-76046739D01*
X100501111Y-76163795D01*
X100450011Y-76300795D01*
X100450011Y-76300797D01*
X100443500Y-76361345D01*
X100443500Y-78158654D01*
X100450011Y-78219202D01*
X100450011Y-78219204D01*
X100485887Y-78315387D01*
X100501111Y-78356204D01*
X100588739Y-78473261D01*
X100705796Y-78560889D01*
X100842799Y-78611989D01*
X100870050Y-78614918D01*
X100903345Y-78618499D01*
X100903362Y-78618500D01*
X102700638Y-78618500D01*
X102700654Y-78618499D01*
X102727692Y-78615591D01*
X102761201Y-78611989D01*
X102898204Y-78560889D01*
X103015261Y-78473261D01*
X103102889Y-78356204D01*
X103148138Y-78234887D01*
X103190009Y-78178956D01*
X103255474Y-78154539D01*
X103323746Y-78169391D01*
X103355545Y-78194236D01*
X103418760Y-78262906D01*
X103596424Y-78401189D01*
X103596425Y-78401189D01*
X103596427Y-78401191D01*
X103613823Y-78410605D01*
X103794426Y-78508342D01*
X104007365Y-78581444D01*
X104229431Y-78618500D01*
X104454569Y-78618500D01*
X104676635Y-78581444D01*
X104889574Y-78508342D01*
X105087576Y-78401189D01*
X105265240Y-78262906D01*
X105386594Y-78131082D01*
X105417715Y-78097276D01*
X105417715Y-78097275D01*
X105417722Y-78097268D01*
X105508193Y-77958790D01*
X105561338Y-77913437D01*
X105630569Y-77904013D01*
X105693905Y-77933515D01*
X105715804Y-77958787D01*
X105806278Y-78097268D01*
X105806283Y-78097273D01*
X105806284Y-78097276D01*
X105942576Y-78245326D01*
X105958760Y-78262906D01*
X106136424Y-78401189D01*
X106136425Y-78401189D01*
X106136427Y-78401191D01*
X106153823Y-78410605D01*
X106334426Y-78508342D01*
X106547365Y-78581444D01*
X106769431Y-78618500D01*
X106994569Y-78618500D01*
X107216630Y-78581445D01*
X107216631Y-78581444D01*
X107216635Y-78581444D01*
X107216637Y-78581442D01*
X107220849Y-78580376D01*
X107290669Y-78582988D01*
X107338991Y-78612895D01*
X107659563Y-78933468D01*
X107659567Y-78933471D01*
X107763318Y-79002796D01*
X107763324Y-79002799D01*
X107763325Y-79002800D01*
X107878615Y-79050555D01*
X108000026Y-79074705D01*
X108001001Y-79074899D01*
X108001005Y-79074900D01*
X108001006Y-79074900D01*
X135430995Y-79074900D01*
X135430996Y-79074899D01*
X135553385Y-79050555D01*
X135668675Y-79002800D01*
X135772433Y-78933471D01*
X136380345Y-78325557D01*
X136441666Y-78292074D01*
X136511357Y-78297058D01*
X136544186Y-78315386D01*
X136654424Y-78401189D01*
X136654425Y-78401189D01*
X136654427Y-78401191D01*
X136671823Y-78410605D01*
X136852426Y-78508342D01*
X137065365Y-78581444D01*
X137287431Y-78618500D01*
X137512569Y-78618500D01*
X137734635Y-78581444D01*
X137947574Y-78508342D01*
X138145576Y-78401189D01*
X138323240Y-78262906D01*
X138444594Y-78131082D01*
X138475715Y-78097276D01*
X138475715Y-78097275D01*
X138475722Y-78097268D01*
X138566193Y-77958790D01*
X138619338Y-77913437D01*
X138688569Y-77904013D01*
X138751905Y-77933515D01*
X138773804Y-77958787D01*
X138864278Y-78097268D01*
X138864283Y-78097273D01*
X138864284Y-78097276D01*
X139000576Y-78245326D01*
X139016760Y-78262906D01*
X139194424Y-78401189D01*
X139194425Y-78401189D01*
X139194427Y-78401191D01*
X139211823Y-78410605D01*
X139392426Y-78508342D01*
X139605365Y-78581444D01*
X139827431Y-78618500D01*
X140052569Y-78618500D01*
X140274635Y-78581444D01*
X140487574Y-78508342D01*
X140685576Y-78401189D01*
X140863240Y-78262906D01*
X140984594Y-78131082D01*
X141015715Y-78097276D01*
X141015715Y-78097275D01*
X141015722Y-78097268D01*
X141106193Y-77958790D01*
X141159338Y-77913437D01*
X141228569Y-77904013D01*
X141291905Y-77933515D01*
X141313804Y-77958787D01*
X141404278Y-78097268D01*
X141404283Y-78097273D01*
X141404284Y-78097276D01*
X141540576Y-78245326D01*
X141556760Y-78262906D01*
X141734424Y-78401189D01*
X141734425Y-78401189D01*
X141734427Y-78401191D01*
X141751823Y-78410605D01*
X141932426Y-78508342D01*
X142145365Y-78581444D01*
X142367431Y-78618500D01*
X142592569Y-78618500D01*
X142814635Y-78581444D01*
X143027574Y-78508342D01*
X143225576Y-78401189D01*
X143403240Y-78262906D01*
X143524594Y-78131082D01*
X143555715Y-78097276D01*
X143555717Y-78097273D01*
X143555722Y-78097268D01*
X143678860Y-77908791D01*
X143769296Y-77702616D01*
X143824564Y-77484368D01*
X143824565Y-77484359D01*
X143843156Y-77260005D01*
X143843156Y-77259994D01*
X143824565Y-77035640D01*
X143824563Y-77035628D01*
X143769296Y-76817385D01*
X143759071Y-76794075D01*
X143678860Y-76611209D01*
X143662706Y-76586484D01*
X143581696Y-76462488D01*
X143555722Y-76422732D01*
X143555719Y-76422729D01*
X143555715Y-76422723D01*
X143403243Y-76257097D01*
X143403238Y-76257092D01*
X143241362Y-76131098D01*
X143225577Y-76118811D01*
X143178480Y-76093323D01*
X143128891Y-76044102D01*
X143113500Y-75984269D01*
X143113500Y-75405450D01*
X145685603Y-75405450D01*
X148516053Y-75405450D01*
X148516053Y-57789849D01*
X145685603Y-57789849D01*
X145685603Y-75405450D01*
X143113500Y-75405450D01*
X143113500Y-60531705D01*
X143113499Y-60531701D01*
X143106615Y-60497094D01*
X143089155Y-60409315D01*
X143041400Y-60294025D01*
X143041399Y-60294024D01*
X143041396Y-60294018D01*
X142972072Y-60190268D01*
X142950615Y-60168811D01*
X142883833Y-60102029D01*
X135763148Y-52981344D01*
X135729663Y-52920021D01*
X135727610Y-52907561D01*
X135722517Y-52862353D01*
X135662343Y-52690385D01*
X135565411Y-52536119D01*
X135436581Y-52407289D01*
X135436578Y-52407286D01*
X135415957Y-52394330D01*
X135369665Y-52341996D01*
X135359016Y-52272943D01*
X135387391Y-52209094D01*
X135394235Y-52201667D01*
X144276947Y-43318956D01*
X144338268Y-43285473D01*
X144407960Y-43290457D01*
X144463893Y-43332329D01*
X144488202Y-43396399D01*
X144505434Y-43604359D01*
X144505436Y-43604371D01*
X144560703Y-43822614D01*
X144651140Y-44028792D01*
X144774276Y-44217265D01*
X144774284Y-44217276D01*
X144926756Y-44382902D01*
X144926760Y-44382906D01*
X145104424Y-44521189D01*
X145104429Y-44521191D01*
X145104431Y-44521193D01*
X145140930Y-44540946D01*
X145190520Y-44590165D01*
X145205628Y-44658382D01*
X145181457Y-44723937D01*
X145140930Y-44759054D01*
X145104431Y-44778806D01*
X145104422Y-44778812D01*
X144926761Y-44917092D01*
X144926756Y-44917097D01*
X144774284Y-45082723D01*
X144774276Y-45082734D01*
X144651140Y-45271207D01*
X144560703Y-45477385D01*
X144505436Y-45695628D01*
X144505434Y-45695640D01*
X144486844Y-45919994D01*
X144486844Y-45920005D01*
X144505434Y-46144359D01*
X144505436Y-46144371D01*
X144560703Y-46362614D01*
X144651140Y-46568792D01*
X144774276Y-46757265D01*
X144774284Y-46757276D01*
X144926756Y-46922902D01*
X144926761Y-46922907D01*
X144960257Y-46948978D01*
X145104424Y-47061189D01*
X145104429Y-47061191D01*
X145104431Y-47061193D01*
X145140930Y-47080946D01*
X145190520Y-47130165D01*
X145205628Y-47198382D01*
X145181457Y-47263937D01*
X145140930Y-47299054D01*
X145104431Y-47318806D01*
X145104422Y-47318812D01*
X144926761Y-47457092D01*
X144926756Y-47457097D01*
X144774284Y-47622723D01*
X144774276Y-47622734D01*
X144651140Y-47811207D01*
X144560703Y-48017385D01*
X144505436Y-48235628D01*
X144505434Y-48235640D01*
X144486844Y-48459994D01*
X144486844Y-48460005D01*
X144505434Y-48684359D01*
X144505436Y-48684371D01*
X144560703Y-48902614D01*
X144651140Y-49108792D01*
X144774276Y-49297265D01*
X144774284Y-49297276D01*
X144926756Y-49462902D01*
X144926761Y-49462907D01*
X144957439Y-49486785D01*
X145104424Y-49601189D01*
X145104429Y-49601191D01*
X145104431Y-49601193D01*
X145140930Y-49620946D01*
X145190520Y-49670165D01*
X145205628Y-49738382D01*
X145181457Y-49803937D01*
X145140930Y-49839054D01*
X145104431Y-49858806D01*
X145104422Y-49858812D01*
X144926761Y-49997092D01*
X144926756Y-49997097D01*
X144774284Y-50162723D01*
X144774276Y-50162734D01*
X144651140Y-50351207D01*
X144560703Y-50557385D01*
X144505436Y-50775628D01*
X144505434Y-50775640D01*
X144486844Y-50999994D01*
X144486844Y-51000005D01*
X144505434Y-51224359D01*
X144505436Y-51224371D01*
X144560703Y-51442614D01*
X144651140Y-51648792D01*
X144774276Y-51837265D01*
X144774284Y-51837276D01*
X144926756Y-52002902D01*
X144926761Y-52002907D01*
X144944586Y-52016781D01*
X145104424Y-52141189D01*
X145144378Y-52162811D01*
X145147695Y-52164606D01*
X145197286Y-52213825D01*
X145212394Y-52282042D01*
X145188224Y-52347597D01*
X145159802Y-52375236D01*
X144978922Y-52501890D01*
X144978920Y-52501891D01*
X144811891Y-52668920D01*
X144811886Y-52668926D01*
X144676400Y-52862420D01*
X144676399Y-52862422D01*
X144576570Y-53076507D01*
X144576567Y-53076513D01*
X144519364Y-53289999D01*
X144519364Y-53290000D01*
X145416988Y-53290000D01*
X145384075Y-53347007D01*
X145350000Y-53474174D01*
X145350000Y-53605826D01*
X145384075Y-53732993D01*
X145416988Y-53790000D01*
X144519364Y-53790000D01*
X144576567Y-54003486D01*
X144576570Y-54003492D01*
X144676399Y-54217578D01*
X144811894Y-54411082D01*
X144978917Y-54578105D01*
X145172421Y-54713600D01*
X145386507Y-54813429D01*
X145386516Y-54813433D01*
X145600000Y-54870634D01*
X145600000Y-53973012D01*
X145657007Y-54005925D01*
X145784174Y-54040000D01*
X145915826Y-54040000D01*
X146042993Y-54005925D01*
X146100000Y-53973012D01*
X146100000Y-54870633D01*
X146313483Y-54813433D01*
X146313492Y-54813429D01*
X146527578Y-54713600D01*
X146721082Y-54578105D01*
X146888105Y-54411082D01*
X147023600Y-54217578D01*
X147123429Y-54003492D01*
X147123432Y-54003486D01*
X147180636Y-53790000D01*
X146283012Y-53790000D01*
X146315925Y-53732993D01*
X146350000Y-53605826D01*
X146350000Y-53474174D01*
X146315925Y-53347007D01*
X146283012Y-53290000D01*
X147180636Y-53290000D01*
X147180635Y-53289999D01*
X147123432Y-53076513D01*
X147123429Y-53076507D01*
X147023600Y-52862422D01*
X147023599Y-52862420D01*
X146888113Y-52668926D01*
X146888108Y-52668920D01*
X146721082Y-52501894D01*
X146540197Y-52375236D01*
X146496572Y-52320659D01*
X146489380Y-52251160D01*
X146520902Y-52188806D01*
X146552300Y-52164608D01*
X146595576Y-52141189D01*
X146773240Y-52002906D01*
X146925722Y-51837268D01*
X147048860Y-51648791D01*
X147139296Y-51442616D01*
X147194564Y-51224368D01*
X147198913Y-51171882D01*
X147213156Y-51000005D01*
X147213156Y-50999994D01*
X147194565Y-50775640D01*
X147194563Y-50775628D01*
X147172639Y-50689054D01*
X147139296Y-50557384D01*
X147048860Y-50351209D01*
X147046371Y-50347400D01*
X146922917Y-50158439D01*
X146924163Y-50157624D01*
X146901007Y-50098927D01*
X146914575Y-50030387D01*
X146936822Y-50000081D01*
X147206904Y-49730000D01*
X147556771Y-49380133D01*
X147626100Y-49276375D01*
X147673855Y-49161085D01*
X147698200Y-49038694D01*
X147698200Y-48913906D01*
X147698200Y-48193060D01*
X147717207Y-48127088D01*
X147797739Y-47998922D01*
X147797741Y-47998919D01*
X147797741Y-47998917D01*
X147797743Y-47998915D01*
X147857917Y-47826947D01*
X147858806Y-47819058D01*
X147878316Y-47645903D01*
X147878316Y-47645896D01*
X147857918Y-47464858D01*
X147857917Y-47464853D01*
X147844236Y-47425756D01*
X147797743Y-47292885D01*
X147700811Y-47138619D01*
X147571981Y-47009789D01*
X147520560Y-46977479D01*
X147417717Y-46912858D01*
X147417716Y-46912857D01*
X147417715Y-46912857D01*
X147352882Y-46890171D01*
X147245746Y-46852682D01*
X147245742Y-46852681D01*
X147089615Y-46835090D01*
X147025201Y-46808023D01*
X146985646Y-46750428D01*
X146983509Y-46680591D01*
X146999687Y-46644055D01*
X147048860Y-46568791D01*
X147139296Y-46362616D01*
X147194564Y-46144368D01*
X147194565Y-46144359D01*
X147213156Y-45920005D01*
X147213156Y-45919994D01*
X147194565Y-45695640D01*
X147194563Y-45695628D01*
X147139296Y-45477385D01*
X147130251Y-45456765D01*
X147048860Y-45271209D01*
X147022953Y-45231556D01*
X146925723Y-45082734D01*
X146925715Y-45082723D01*
X146773243Y-44917097D01*
X146773238Y-44917092D01*
X146595577Y-44778812D01*
X146595578Y-44778812D01*
X146595576Y-44778811D01*
X146559070Y-44759055D01*
X146509479Y-44709836D01*
X146494371Y-44641619D01*
X146518541Y-44576064D01*
X146559070Y-44540945D01*
X146559084Y-44540936D01*
X146595576Y-44521189D01*
X146773240Y-44382906D01*
X146873943Y-44273514D01*
X146925715Y-44217276D01*
X146925716Y-44217274D01*
X146925722Y-44217268D01*
X147048860Y-44028791D01*
X147139296Y-43822616D01*
X147194564Y-43604368D01*
X147195526Y-43592763D01*
X147213156Y-43380005D01*
X147213156Y-43379994D01*
X147194565Y-43155640D01*
X147194563Y-43155628D01*
X147169991Y-43058595D01*
X147139296Y-42937384D01*
X147048860Y-42731209D01*
X146925722Y-42542732D01*
X146925719Y-42542729D01*
X146925715Y-42542723D01*
X146773243Y-42377097D01*
X146773238Y-42377092D01*
X146595577Y-42238812D01*
X146595578Y-42238812D01*
X146595576Y-42238811D01*
X146559070Y-42219055D01*
X146509479Y-42169836D01*
X146494371Y-42101619D01*
X146518541Y-42036064D01*
X146559070Y-42000945D01*
X146562533Y-41999071D01*
X146595576Y-41981189D01*
X146773240Y-41842906D01*
X146917089Y-41686646D01*
X146925715Y-41677276D01*
X146925716Y-41677274D01*
X146925722Y-41677268D01*
X147048860Y-41488791D01*
X147139296Y-41282616D01*
X147194564Y-41064368D01*
X147200322Y-40994885D01*
X147213156Y-40840005D01*
X147213156Y-40839994D01*
X147194565Y-40615640D01*
X147194563Y-40615628D01*
X147144331Y-40417268D01*
X147139296Y-40397384D01*
X147048860Y-40191209D01*
X147043552Y-40183085D01*
X146938713Y-40022616D01*
X146925722Y-40002732D01*
X146925719Y-40002729D01*
X146925715Y-40002723D01*
X146780510Y-39844991D01*
X146749587Y-39782337D01*
X146757447Y-39712911D01*
X146801594Y-39658755D01*
X146828405Y-39644827D01*
X146908584Y-39614920D01*
X146946204Y-39600889D01*
X147063261Y-39513261D01*
X147150889Y-39396204D01*
X147201989Y-39259201D01*
X147205591Y-39225692D01*
X147208499Y-39198654D01*
X147208500Y-39198637D01*
X147208500Y-37401362D01*
X147208499Y-37401345D01*
X147203641Y-37356166D01*
X147201989Y-37340799D01*
X147196473Y-37326011D01*
X147175017Y-37268485D01*
X147150889Y-37203796D01*
X147063261Y-37086739D01*
X146946204Y-36999111D01*
X146933579Y-36994402D01*
X146809203Y-36948011D01*
X146748654Y-36941500D01*
X146748638Y-36941500D01*
X144951362Y-36941500D01*
X144951345Y-36941500D01*
X144890797Y-36948011D01*
X144890795Y-36948011D01*
X144753795Y-36999111D01*
X144636739Y-37086739D01*
X144549111Y-37203795D01*
X144549110Y-37203796D01*
X144541714Y-37223627D01*
X144499841Y-37279560D01*
X144434376Y-37303975D01*
X144401342Y-37301908D01*
X144363598Y-37294400D01*
X144363594Y-37294400D01*
X140175760Y-37294400D01*
X140109788Y-37275393D01*
X139981622Y-37194860D01*
X139981619Y-37194858D01*
X139809646Y-37134682D01*
X139809641Y-37134681D01*
X139628604Y-37114284D01*
X139628596Y-37114284D01*
X139447558Y-37134681D01*
X139447553Y-37134682D01*
X139275582Y-37194858D01*
X139121318Y-37291789D01*
X138992489Y-37420618D01*
X138895558Y-37574882D01*
X138835382Y-37746853D01*
X138835381Y-37746858D01*
X138814984Y-37927896D01*
X138814984Y-37927903D01*
X138835381Y-38108941D01*
X138835382Y-38108946D01*
X138895558Y-38280917D01*
X138960290Y-38383937D01*
X138992489Y-38435181D01*
X139121319Y-38564011D01*
X139275585Y-38660943D01*
X139428943Y-38714605D01*
X139447553Y-38721117D01*
X139447558Y-38721118D01*
X139628596Y-38741516D01*
X139628600Y-38741516D01*
X139628604Y-38741516D01*
X139809641Y-38721118D01*
X139809644Y-38721117D01*
X139809647Y-38721117D01*
X139981615Y-38660943D01*
X139981617Y-38660941D01*
X139981619Y-38660941D01*
X139981622Y-38660939D01*
X140109788Y-38580407D01*
X140175760Y-38561400D01*
X143987434Y-38561400D01*
X144054473Y-38581085D01*
X144075115Y-38597719D01*
X144181229Y-38703833D01*
X144234791Y-38757395D01*
X144269468Y-38792072D01*
X144373218Y-38861396D01*
X144373230Y-38861403D01*
X144414952Y-38878684D01*
X144469356Y-38922524D01*
X144491421Y-38988818D01*
X144491500Y-38993245D01*
X144491500Y-39198654D01*
X144498011Y-39259202D01*
X144498011Y-39259204D01*
X144533978Y-39355632D01*
X144549111Y-39396204D01*
X144636739Y-39513261D01*
X144753796Y-39600889D01*
X144805737Y-39620262D01*
X144871595Y-39644827D01*
X144927528Y-39686699D01*
X144951944Y-39752163D01*
X144937092Y-39820436D01*
X144919490Y-39844991D01*
X144774279Y-40002730D01*
X144774276Y-40002734D01*
X144651140Y-40191207D01*
X144560703Y-40397385D01*
X144505436Y-40615628D01*
X144505434Y-40615640D01*
X144486844Y-40839994D01*
X144486844Y-40840005D01*
X144505435Y-41064364D01*
X144533461Y-41175038D01*
X144530835Y-41244859D01*
X144500945Y-41293150D01*
X144496176Y-41297920D01*
X144496167Y-41297929D01*
X144407931Y-41386164D01*
X144407924Y-41386173D01*
X144394575Y-41406150D01*
X144379157Y-41424936D01*
X135900081Y-49904014D01*
X135838758Y-49937499D01*
X135769066Y-49932515D01*
X135713133Y-49890643D01*
X135688716Y-49825179D01*
X135688400Y-49816333D01*
X135688400Y-43241760D01*
X135707407Y-43175788D01*
X135787939Y-43047622D01*
X135787941Y-43047619D01*
X135787941Y-43047617D01*
X135787943Y-43047615D01*
X135848117Y-42875647D01*
X135848455Y-42872650D01*
X135868516Y-42694603D01*
X135868516Y-42694596D01*
X135848118Y-42513558D01*
X135848117Y-42513553D01*
X135833388Y-42471460D01*
X135787943Y-42341585D01*
X135691011Y-42187319D01*
X135562181Y-42058489D01*
X135407917Y-41961558D01*
X135407916Y-41961557D01*
X135407915Y-41961557D01*
X135340284Y-41937892D01*
X135235943Y-41901381D01*
X135171816Y-41894156D01*
X135107402Y-41867089D01*
X135067847Y-41809494D01*
X135061700Y-41770936D01*
X135061700Y-33316053D01*
X141758836Y-33316053D01*
X148301846Y-33316053D01*
X148301846Y-30485129D01*
X141758836Y-30485129D01*
X141758836Y-33316053D01*
X135061700Y-33316053D01*
X135061700Y-30884266D01*
X135081385Y-30817227D01*
X135098019Y-30796585D01*
X135314068Y-30580536D01*
X135314071Y-30580533D01*
X135383400Y-30476775D01*
X135431155Y-30361485D01*
X135448555Y-30274011D01*
X135452439Y-30254484D01*
X135484823Y-30192573D01*
X135515040Y-30169620D01*
X135567566Y-30141195D01*
X135567572Y-30141191D01*
X135567576Y-30141189D01*
X135745240Y-30002906D01*
X135866594Y-29871082D01*
X135897715Y-29837276D01*
X135897715Y-29837275D01*
X135897722Y-29837268D01*
X135988193Y-29698790D01*
X136041338Y-29653437D01*
X136110569Y-29644013D01*
X136173905Y-29673515D01*
X136195804Y-29698787D01*
X136286278Y-29837268D01*
X136286283Y-29837273D01*
X136286284Y-29837276D01*
X136438756Y-30002902D01*
X136438761Y-30002907D01*
X136441053Y-30004691D01*
X136616424Y-30141189D01*
X136616425Y-30141189D01*
X136616427Y-30141191D01*
X136728499Y-30201841D01*
X136814426Y-30248342D01*
X137027365Y-30321444D01*
X137249431Y-30358500D01*
X137474569Y-30358500D01*
X137696635Y-30321444D01*
X137909574Y-30248342D01*
X138107576Y-30141189D01*
X138285240Y-30002906D01*
X138406594Y-29871082D01*
X138437715Y-29837276D01*
X138437719Y-29837271D01*
X138437722Y-29837268D01*
X138560860Y-29648791D01*
X138651296Y-29442616D01*
X138706564Y-29224368D01*
X138710495Y-29176933D01*
X138725156Y-29000005D01*
X138725156Y-28999994D01*
X138706565Y-28775640D01*
X138706563Y-28775628D01*
X138651296Y-28557385D01*
X138641071Y-28534075D01*
X138560860Y-28351209D01*
X138544706Y-28326484D01*
X138437723Y-28162734D01*
X138437715Y-28162723D01*
X138285243Y-27997097D01*
X138285238Y-27997092D01*
X138107582Y-27858816D01*
X138107576Y-27858811D01*
X138107575Y-27858810D01*
X138107572Y-27858808D01*
X137909580Y-27751661D01*
X137909577Y-27751659D01*
X137909574Y-27751658D01*
X137909571Y-27751657D01*
X137909569Y-27751656D01*
X137696637Y-27678556D01*
X137474569Y-27641500D01*
X137249431Y-27641500D01*
X137027362Y-27678556D01*
X136814430Y-27751656D01*
X136814419Y-27751661D01*
X136616427Y-27858808D01*
X136616422Y-27858812D01*
X136438761Y-27997092D01*
X136438756Y-27997097D01*
X136286284Y-28162723D01*
X136286276Y-28162734D01*
X136195808Y-28301206D01*
X136142662Y-28346562D01*
X136073431Y-28355986D01*
X136010095Y-28326484D01*
X135988192Y-28301206D01*
X135897723Y-28162734D01*
X135897715Y-28162723D01*
X135745243Y-27997097D01*
X135745238Y-27997092D01*
X135567582Y-27858816D01*
X135567576Y-27858811D01*
X135567575Y-27858810D01*
X135567572Y-27858808D01*
X135369580Y-27751661D01*
X135369577Y-27751659D01*
X135369574Y-27751658D01*
X135369571Y-27751657D01*
X135369569Y-27751656D01*
X135156637Y-27678556D01*
X134934569Y-27641500D01*
X134709431Y-27641500D01*
X134487362Y-27678556D01*
X134274430Y-27751656D01*
X134274419Y-27751661D01*
X134076427Y-27858808D01*
X134076422Y-27858812D01*
X133898761Y-27997092D01*
X133898756Y-27997097D01*
X133746284Y-28162723D01*
X133746276Y-28162734D01*
X133655808Y-28301206D01*
X133602662Y-28346562D01*
X133533431Y-28355986D01*
X133470095Y-28326484D01*
X133448192Y-28301206D01*
X133357723Y-28162734D01*
X133357715Y-28162723D01*
X133205243Y-27997097D01*
X133205238Y-27997092D01*
X133027582Y-27858816D01*
X133027576Y-27858811D01*
X133027575Y-27858810D01*
X133027572Y-27858808D01*
X132829580Y-27751661D01*
X132829577Y-27751659D01*
X132829574Y-27751658D01*
X132829571Y-27751657D01*
X132829569Y-27751656D01*
X132616637Y-27678556D01*
X132394569Y-27641500D01*
X132169431Y-27641500D01*
X131947362Y-27678556D01*
X131734430Y-27751656D01*
X131734419Y-27751661D01*
X131536427Y-27858808D01*
X131536423Y-27858811D01*
X131442381Y-27932007D01*
X131377387Y-27957649D01*
X131308847Y-27944082D01*
X131278538Y-27921834D01*
X128643886Y-25287181D01*
X128610401Y-25225858D01*
X128615385Y-25156166D01*
X128657257Y-25100233D01*
X128722721Y-25075816D01*
X128731567Y-25075500D01*
X149800500Y-25075500D01*
X149867539Y-25095185D01*
X149913294Y-25147989D01*
X149924500Y-25199500D01*
X149924500Y-81800500D01*
X149904815Y-81867539D01*
X149852011Y-81913294D01*
X149800500Y-81924500D01*
X50199500Y-81924500D01*
X50132461Y-81904815D01*
X50086706Y-81852011D01*
X50075500Y-81800500D01*
X50075500Y-77100000D01*
X56036140Y-77100000D01*
X56055562Y-77421087D01*
X56113549Y-77737511D01*
X56209241Y-78044599D01*
X56209245Y-78044610D01*
X56341267Y-78337952D01*
X56341268Y-78337954D01*
X56507685Y-78613243D01*
X56507690Y-78613251D01*
X56650681Y-78795764D01*
X57478342Y-77968102D01*
X57556932Y-78076272D01*
X57723728Y-78243068D01*
X57831895Y-78321656D01*
X57004234Y-79149317D01*
X57004234Y-79149318D01*
X57186748Y-79292309D01*
X57186756Y-79292314D01*
X57462045Y-79458731D01*
X57462047Y-79458732D01*
X57755389Y-79590754D01*
X57755400Y-79590758D01*
X58062488Y-79686450D01*
X58378912Y-79744437D01*
X58700000Y-79763859D01*
X59021087Y-79744437D01*
X59337511Y-79686450D01*
X59644599Y-79590758D01*
X59644610Y-79590754D01*
X59937952Y-79458732D01*
X59937954Y-79458731D01*
X60213243Y-79292314D01*
X60213251Y-79292308D01*
X60395764Y-79149318D01*
X60395764Y-79149317D01*
X59568104Y-78321657D01*
X59676272Y-78243068D01*
X59843068Y-78076272D01*
X59921657Y-77968104D01*
X60749317Y-78795764D01*
X60749318Y-78795764D01*
X60892308Y-78613251D01*
X60892314Y-78613243D01*
X61058731Y-78337954D01*
X61058732Y-78337952D01*
X61190754Y-78044610D01*
X61190758Y-78044599D01*
X61286450Y-77737511D01*
X61344437Y-77421087D01*
X61363859Y-77100000D01*
X61344437Y-76778912D01*
X61286450Y-76462488D01*
X61190758Y-76155400D01*
X61190754Y-76155389D01*
X61058732Y-75862047D01*
X61058731Y-75862045D01*
X60892314Y-75586756D01*
X60892309Y-75586748D01*
X60749317Y-75404234D01*
X59921656Y-76231895D01*
X59843068Y-76123728D01*
X59676272Y-75956932D01*
X59568103Y-75878342D01*
X60395764Y-75050681D01*
X60395764Y-75050680D01*
X60210296Y-74905375D01*
X60211088Y-74904363D01*
X60170469Y-74854245D01*
X60165180Y-74806318D01*
X60141267Y-74820598D01*
X60071435Y-74818300D01*
X60046115Y-74806653D01*
X59937954Y-74741268D01*
X59937952Y-74741267D01*
X59644610Y-74609245D01*
X59644599Y-74609241D01*
X59337511Y-74513549D01*
X59021087Y-74455562D01*
X58700000Y-74436140D01*
X58378912Y-74455562D01*
X58062488Y-74513549D01*
X57755400Y-74609241D01*
X57755389Y-74609245D01*
X57462047Y-74741267D01*
X57462045Y-74741268D01*
X57186756Y-74907685D01*
X57004234Y-75050681D01*
X57831895Y-75878342D01*
X57723728Y-75956932D01*
X57556932Y-76123728D01*
X57478342Y-76231895D01*
X56650681Y-75404234D01*
X56507685Y-75586756D01*
X56341268Y-75862045D01*
X56341267Y-75862047D01*
X56209245Y-76155389D01*
X56209241Y-76155400D01*
X56113549Y-76462488D01*
X56055562Y-76778912D01*
X56036140Y-77100000D01*
X50075500Y-77100000D01*
X50075500Y-72400000D01*
X53036140Y-72400000D01*
X53055562Y-72721087D01*
X53113549Y-73037511D01*
X53209241Y-73344599D01*
X53209245Y-73344610D01*
X53341267Y-73637952D01*
X53341268Y-73637954D01*
X53507685Y-73913243D01*
X53507690Y-73913251D01*
X53650681Y-74095764D01*
X54478342Y-73268103D01*
X54556932Y-73376272D01*
X54723728Y-73543068D01*
X54831895Y-73621656D01*
X54004234Y-74449317D01*
X54004234Y-74449318D01*
X54186748Y-74592309D01*
X54186756Y-74592314D01*
X54462045Y-74758731D01*
X54462047Y-74758732D01*
X54755389Y-74890754D01*
X54755400Y-74890758D01*
X55062488Y-74986450D01*
X55378912Y-75044437D01*
X55700000Y-75063859D01*
X56021087Y-75044437D01*
X56337511Y-74986450D01*
X56644599Y-74890758D01*
X56644610Y-74890754D01*
X56937952Y-74758732D01*
X56937954Y-74758731D01*
X57213243Y-74592314D01*
X57213251Y-74592308D01*
X57395764Y-74449318D01*
X57395764Y-74449317D01*
X56568104Y-73621657D01*
X56676272Y-73543068D01*
X56843068Y-73376272D01*
X56921657Y-73268104D01*
X57749317Y-74095764D01*
X57749318Y-74095764D01*
X57892308Y-73913251D01*
X57892314Y-73913243D01*
X58058731Y-73637954D01*
X58058732Y-73637952D01*
X58190754Y-73344610D01*
X58190758Y-73344599D01*
X58286450Y-73037511D01*
X58344437Y-72721087D01*
X58363859Y-72400000D01*
X58344437Y-72078912D01*
X58286450Y-71762488D01*
X58190758Y-71455400D01*
X58190754Y-71455389D01*
X58058732Y-71162047D01*
X58058731Y-71162045D01*
X57892314Y-70886756D01*
X57892309Y-70886748D01*
X57749317Y-70704234D01*
X56921656Y-71531895D01*
X56843068Y-71423728D01*
X56676272Y-71256932D01*
X56568103Y-71178342D01*
X57395764Y-70350681D01*
X57395764Y-70350680D01*
X57213251Y-70207690D01*
X57213243Y-70207685D01*
X56937954Y-70041268D01*
X56937952Y-70041267D01*
X56644610Y-69909245D01*
X56644599Y-69909241D01*
X56337511Y-69813549D01*
X56021087Y-69755562D01*
X55700000Y-69736140D01*
X55378912Y-69755562D01*
X55062488Y-69813549D01*
X54755400Y-69909241D01*
X54755389Y-69909245D01*
X54462047Y-70041267D01*
X54462045Y-70041268D01*
X54186756Y-70207685D01*
X54004234Y-70350681D01*
X54831895Y-71178342D01*
X54723728Y-71256932D01*
X54556932Y-71423728D01*
X54478342Y-71531895D01*
X53650681Y-70704234D01*
X53507685Y-70886756D01*
X53341268Y-71162045D01*
X53341267Y-71162047D01*
X53209245Y-71455389D01*
X53209241Y-71455400D01*
X53113549Y-71762488D01*
X53055562Y-72078912D01*
X53036140Y-72400000D01*
X50075500Y-72400000D01*
X50075500Y-59810599D01*
X52350665Y-59810599D01*
X52350665Y-59810600D01*
X53908549Y-59810600D01*
X53877419Y-59864519D01*
X53842800Y-59993720D01*
X53842800Y-60127480D01*
X53877419Y-60256681D01*
X53908549Y-60310600D01*
X52350665Y-60310600D01*
X52357874Y-60356117D01*
X52419256Y-60545035D01*
X52509441Y-60722032D01*
X52626203Y-60882739D01*
X52626203Y-60882740D01*
X52766659Y-61023196D01*
X52927367Y-61139958D01*
X53104362Y-61230142D01*
X53293277Y-61291524D01*
X53489479Y-61322600D01*
X54100800Y-61322600D01*
X54100800Y-60502851D01*
X54154719Y-60533981D01*
X54283920Y-60568600D01*
X54417680Y-60568600D01*
X54546881Y-60533981D01*
X54600800Y-60502851D01*
X54600800Y-61322600D01*
X55212121Y-61322600D01*
X55408320Y-61291524D01*
X55408323Y-61291524D01*
X55597237Y-61230142D01*
X55774232Y-61139958D01*
X55934939Y-61023196D01*
X55934940Y-61023196D01*
X56075396Y-60882740D01*
X56075396Y-60882739D01*
X56192158Y-60722032D01*
X56282343Y-60545035D01*
X56343725Y-60356117D01*
X56350934Y-60310600D01*
X54793051Y-60310600D01*
X54824181Y-60256681D01*
X54858800Y-60127480D01*
X54858800Y-59993720D01*
X54824181Y-59864519D01*
X54793051Y-59810600D01*
X56350935Y-59810600D01*
X56350934Y-59810599D01*
X56343725Y-59765082D01*
X56282343Y-59576164D01*
X56192158Y-59399167D01*
X56075396Y-59238460D01*
X56075396Y-59238459D01*
X55934940Y-59098003D01*
X55774232Y-58981241D01*
X55597237Y-58891057D01*
X55408322Y-58829675D01*
X55212121Y-58798600D01*
X54600800Y-58798600D01*
X54600800Y-59618348D01*
X54546881Y-59587219D01*
X54417680Y-59552600D01*
X54283920Y-59552600D01*
X54154719Y-59587219D01*
X54100800Y-59618348D01*
X54100800Y-58798600D01*
X53489479Y-58798600D01*
X53293279Y-58829675D01*
X53293276Y-58829675D01*
X53104362Y-58891057D01*
X52927367Y-58981241D01*
X52766660Y-59098003D01*
X52766659Y-59098003D01*
X52626203Y-59238459D01*
X52626203Y-59238460D01*
X52509441Y-59399167D01*
X52419256Y-59576164D01*
X52357874Y-59765082D01*
X52350665Y-59810599D01*
X50075500Y-59810599D01*
X50075500Y-25199500D01*
X50095185Y-25132461D01*
X50147989Y-25086706D01*
X50199500Y-25075500D01*
X112424043Y-25075500D01*
X112491082Y-25095185D01*
G37*
%TD.AperFunction*%
%TA.AperFunction,Conductor*%
G36*
X93716075Y-77067007D02*
G01*
X93682000Y-77194174D01*
X93682000Y-77325826D01*
X93716075Y-77452993D01*
X93748988Y-77510000D01*
X92075012Y-77510000D01*
X92107925Y-77452993D01*
X92142000Y-77325826D01*
X92142000Y-77194174D01*
X92107925Y-77067007D01*
X92075012Y-77010000D01*
X93748988Y-77010000D01*
X93716075Y-77067007D01*
G37*
%TD.AperFunction*%
%TA.AperFunction,Conductor*%
G36*
X80361496Y-59738185D02*
G01*
X80382138Y-59754819D01*
X87580181Y-66952862D01*
X87613666Y-67014185D01*
X87616500Y-67040543D01*
X87616500Y-67309456D01*
X87596815Y-67376495D01*
X87580181Y-67397137D01*
X86873653Y-68103665D01*
X86812330Y-68137150D01*
X86742638Y-68132166D01*
X86686705Y-68090294D01*
X86662288Y-68024830D01*
X86673590Y-67963579D01*
X86728265Y-67846326D01*
X86728269Y-67846317D01*
X86787139Y-67626610D01*
X86787141Y-67626599D01*
X86806966Y-67400002D01*
X86806966Y-67399997D01*
X86787141Y-67173400D01*
X86787139Y-67173389D01*
X86728269Y-66953682D01*
X86728264Y-66953668D01*
X86632136Y-66747521D01*
X86632132Y-66747513D01*
X86581025Y-66674526D01*
X85902000Y-67353551D01*
X85902000Y-67347339D01*
X85874741Y-67245606D01*
X85822080Y-67154394D01*
X85747606Y-67079920D01*
X85656394Y-67027259D01*
X85554661Y-67000000D01*
X85548447Y-67000000D01*
X86227472Y-66320974D01*
X86154478Y-66269863D01*
X85948331Y-66173735D01*
X85948317Y-66173730D01*
X85728610Y-66114860D01*
X85728599Y-66114858D01*
X85502002Y-66095034D01*
X85501998Y-66095034D01*
X85275400Y-66114858D01*
X85275389Y-66114860D01*
X85055682Y-66173730D01*
X85055668Y-66173735D01*
X84891074Y-66250487D01*
X84821997Y-66260979D01*
X84758213Y-66232459D01*
X84724110Y-66185559D01*
X84700900Y-66129525D01*
X84700896Y-66129518D01*
X84631572Y-66025768D01*
X84602737Y-65996933D01*
X84543333Y-65937529D01*
X82779871Y-64174067D01*
X80883736Y-62277931D01*
X80883732Y-62277928D01*
X80779981Y-62208603D01*
X80779972Y-62208598D01*
X80664685Y-62160845D01*
X80664677Y-62160843D01*
X80542298Y-62136500D01*
X80542294Y-62136500D01*
X68446047Y-62136500D01*
X68379008Y-62116815D01*
X68333253Y-62064011D01*
X68323309Y-61994853D01*
X68332490Y-61962692D01*
X68333157Y-61961170D01*
X68341296Y-61942616D01*
X68396564Y-61724368D01*
X68396565Y-61724359D01*
X68415156Y-61500005D01*
X68415156Y-61499994D01*
X68396565Y-61275640D01*
X68396563Y-61275628D01*
X68366593Y-61157281D01*
X68341296Y-61057384D01*
X68250860Y-60851209D01*
X68249949Y-60849815D01*
X68184740Y-60750004D01*
X68127722Y-60662732D01*
X68127719Y-60662729D01*
X68127715Y-60662723D01*
X67982510Y-60504991D01*
X67951587Y-60442337D01*
X67959447Y-60372911D01*
X68003594Y-60318755D01*
X68030405Y-60304827D01*
X68110584Y-60274920D01*
X68148204Y-60260889D01*
X68265261Y-60173261D01*
X68352889Y-60056204D01*
X68403989Y-59919201D01*
X68410280Y-59860686D01*
X68410499Y-59858654D01*
X68410500Y-59858637D01*
X68410500Y-59842500D01*
X68430185Y-59775461D01*
X68482989Y-59729706D01*
X68534500Y-59718500D01*
X80294457Y-59718500D01*
X80361496Y-59738185D01*
G37*
%TD.AperFunction*%
%TD*%
M02*
