M48
; DRILL file {KiCad 8.0.6} date 2025-01-18T20:08:43-0500
; FORMAT={-:-/ absolute / inch / decimal}
; #@! TF.CreationDate,2025-01-18T20:08:43-05:00
; #@! TF.GenerationSoftware,Kicad,Pcbnew,8.0.6
; #@! TF.FileFunction,Plated,1,2,PTH
FMAT,2
INCH
; #@! TA.AperFunction,Plated,PTH,ViaDrill
T1C0.0157
; #@! TA.AperFunction,Plated,PTH,ViaDrill
T2C0.0197
; #@! TA.AperFunction,Plated,PTH,ComponentDrill
T3C0.0315
; #@! TA.AperFunction,Plated,PTH,ComponentDrill
T4C0.0394
; #@! TA.AperFunction,Plated,PTH,ComponentDrill
T5C0.0400
; #@! TA.AperFunction,Plated,PTH,ComponentDrill
T6C0.1180
%
G90
G05
T1
X3.4446Y-2.9985
X3.5256Y-2.6063
X3.5309Y-2.0193
X3.5805Y-2.0194
X3.7598Y-2.3818
X3.7991Y-2.1872
X3.937Y-2.1142
X4.0551Y-2.0748
X4.0669Y-1.3642
X4.0924Y-2.1707
X4.1358Y-2.1063
X4.215Y-1.7067
X4.2303Y-1.752
X4.2402Y-1.2598
X4.2947Y-1.9413
X4.3053Y-1.3984
X4.3602Y-1.4705
X4.3602Y-1.6634
X4.3641Y-1.3607
X4.4277Y-1.6193
X4.4296Y-1.2904
X4.4592Y-1.0086
X4.4592Y-1.2617
X4.5079Y-2.0797
X4.5394Y-1.423
X4.5421Y-2.1385
X4.5478Y-1.6341
X4.5616Y-1.7041
X4.5821Y-1.364
X4.6316Y-1.2622
X4.6533Y-1.8261
X4.6537Y-2.199
X4.6896Y-1.6059
X4.6912Y-1.0374
X4.6971Y-2.1422
X4.7198Y-2.3878
X4.7362Y-2.0085
X4.7488Y-2.1402
X4.7552Y-2.2398
X4.7603Y-1.8928
X4.7695Y-1.8006
X4.7794Y-2.0509
X4.7852Y-2.1266
X4.7974Y-1.9822
X4.8027Y-1.9072
X4.816Y-2.2928
X4.8181Y-1.7856
X4.8364Y-2.1215
X4.8365Y-1.7199
X4.8452Y-1.9056
X4.8997Y-2.0657
X4.9089Y-2.0163
X4.9262Y-1.2499
X4.9355Y-1.8647
X4.9424Y-1.7883
X4.9566Y-2.1554
X4.9615Y-2.8273
X4.9922Y-1.7861
X4.9961Y-1.4213
X5.0081Y-1.8516
X5.0169Y-1.9017
X5.0401Y-1.487
X5.0481Y-1.7919
X5.0569Y-2.0459
X5.0731Y-1.8152
X5.0741Y-1.2577
X5.0882Y-1.631
X5.1241Y-2.9509
X5.1826Y-2.9203
X5.2032Y-2.1784
X5.2456Y-2.5004
X5.2712Y-2.613
X5.2771Y-2.7256
X5.302Y-2.1634
X5.3023Y-2.1263
X5.3122Y-2.0883
X5.3171Y-1.6809
X5.4138Y-2.5964
X5.4972Y-1.4932
X5.7899Y-1.8758
T2
X3.9035Y-2.3484
T3
X3.2678Y-2.6535
X3.3662Y-2.6535
X3.6654Y-2.6535
X3.7639Y-2.6535
X4.0709Y-2.6535
X4.1694Y-2.6535
T4
X2.1654Y-1.3583
X2.1654Y-1.4583
X2.1654Y-1.5583
X2.1654Y-1.6583
X2.1654Y-1.7583
X2.6398Y-2.3213
X2.6398Y-2.4213
X2.6398Y-2.5213
X2.748Y-1.1417
X2.848Y-1.1417
X2.948Y-1.1417
X3.048Y-1.1417
X3.108Y-3.0417
X3.148Y-1.1417
X3.208Y-3.0417
X3.248Y-1.1417
X3.308Y-3.0417
X3.348Y-1.1417
X3.408Y-3.0417
X3.448Y-1.1417
X3.508Y-3.0417
X3.548Y-1.1417
X3.608Y-3.0417
X3.648Y-1.1417
X3.708Y-3.0417
X3.808Y-1.1417
X3.808Y-3.0417
X3.908Y-1.1417
X4.008Y-1.1417
X4.008Y-3.0417
X4.108Y-1.1417
X4.108Y-3.0417
X4.208Y-1.1417
X4.208Y-3.0417
X4.308Y-1.1417
X4.308Y-3.0417
X4.408Y-1.1417
X4.408Y-3.0417
X4.508Y-1.1417
X4.508Y-3.0417
X4.608Y-3.0417
X4.708Y-1.1417
X4.708Y-3.0417
X4.808Y-1.1417
X4.908Y-1.1417
X4.9094Y-3.0417
X5.008Y-1.1417
X5.0094Y-3.0417
X5.108Y-1.1417
X5.1094Y-3.0417
X5.208Y-1.1417
X5.2094Y-3.0417
X5.308Y-1.1417
X5.3094Y-3.0417
X5.408Y-1.1417
X5.4094Y-3.0417
X5.5094Y-3.0417
X5.6094Y-3.0417
X5.7421Y-1.5079
X5.7421Y-1.6079
X5.7421Y-1.7079
X5.7421Y-1.8079
X5.7421Y-1.9079
X5.7421Y-2.0079
X5.7421Y-2.1079
T5
X2.1398Y-2.1866
X2.1398Y-2.3646
X2.3958Y-2.1866
X2.3958Y-2.3646
T6
X2.1929Y-2.8504
X2.311Y-3.0354
X2.4291Y-2.8504
M30
