%TF.GenerationSoftware,KiCad,Pcbnew,9.0.0*%
%TF.CreationDate,2025-04-10T12:41:04-04:00*%
%TF.ProjectId,PocketBeagle2Cape_rev1,506f636b-6574-4426-9561-676c65324361,rev?*%
%TF.SameCoordinates,Original*%
%TF.FileFunction,Legend,Top*%
%TF.FilePolarity,Positive*%
%FSLAX46Y46*%
G04 Gerber Fmt 4.6, Leading zero omitted, Abs format (unit mm)*
G04 Created by KiCad (PCBNEW 9.0.0) date 2025-04-10 12:41:04*
%MOMM*%
%LPD*%
G01*
G04 APERTURE LIST*
%ADD10C,0.800000*%
%ADD11C,0.150000*%
%ADD12C,0.127000*%
%ADD13C,0.198120*%
%ADD14C,0.120000*%
%ADD15C,0.203200*%
%ADD16C,0.152400*%
%ADD17C,0.050800*%
%ADD18C,0.000000*%
G04 APERTURE END LIST*
D10*
X97001100Y-78298600D02*
G75*
G02*
X93921100Y-81378600I0J-3080000D01*
G01*
X193921100Y-81378600D02*
G75*
G02*
X190901100Y-78358600I-3020000J0D01*
G01*
X93921100Y-128628600D02*
G75*
G02*
X97001100Y-131708600I3080000J0D01*
G01*
X190901100Y-131708600D02*
X190901100Y-131708600D01*
X93921100Y-81378600D02*
G75*
G02*
X97001100Y-78298600I3080000J0D01*
G01*
X190901100Y-78298600D02*
G75*
G02*
X193981100Y-81378600I0J-3080000D01*
G01*
X190901100Y-131708600D02*
G75*
G02*
X193981100Y-128628600I0J3080000D01*
G01*
X193921100Y-128628600D02*
G75*
G02*
X190901100Y-131648600I-3020000J0D01*
G01*
X97001100Y-131708600D02*
G75*
G02*
X93921100Y-128628600I0J3080000D01*
G01*
D11*
X172383333Y-123609580D02*
X172335714Y-123657200D01*
X172335714Y-123657200D02*
X172192857Y-123704819D01*
X172192857Y-123704819D02*
X172097619Y-123704819D01*
X172097619Y-123704819D02*
X171954762Y-123657200D01*
X171954762Y-123657200D02*
X171859524Y-123561961D01*
X171859524Y-123561961D02*
X171811905Y-123466723D01*
X171811905Y-123466723D02*
X171764286Y-123276247D01*
X171764286Y-123276247D02*
X171764286Y-123133390D01*
X171764286Y-123133390D02*
X171811905Y-122942914D01*
X171811905Y-122942914D02*
X171859524Y-122847676D01*
X171859524Y-122847676D02*
X171954762Y-122752438D01*
X171954762Y-122752438D02*
X172097619Y-122704819D01*
X172097619Y-122704819D02*
X172192857Y-122704819D01*
X172192857Y-122704819D02*
X172335714Y-122752438D01*
X172335714Y-122752438D02*
X172383333Y-122800057D01*
X173240476Y-122704819D02*
X173050000Y-122704819D01*
X173050000Y-122704819D02*
X172954762Y-122752438D01*
X172954762Y-122752438D02*
X172907143Y-122800057D01*
X172907143Y-122800057D02*
X172811905Y-122942914D01*
X172811905Y-122942914D02*
X172764286Y-123133390D01*
X172764286Y-123133390D02*
X172764286Y-123514342D01*
X172764286Y-123514342D02*
X172811905Y-123609580D01*
X172811905Y-123609580D02*
X172859524Y-123657200D01*
X172859524Y-123657200D02*
X172954762Y-123704819D01*
X172954762Y-123704819D02*
X173145238Y-123704819D01*
X173145238Y-123704819D02*
X173240476Y-123657200D01*
X173240476Y-123657200D02*
X173288095Y-123609580D01*
X173288095Y-123609580D02*
X173335714Y-123514342D01*
X173335714Y-123514342D02*
X173335714Y-123276247D01*
X173335714Y-123276247D02*
X173288095Y-123181009D01*
X173288095Y-123181009D02*
X173240476Y-123133390D01*
X173240476Y-123133390D02*
X173145238Y-123085771D01*
X173145238Y-123085771D02*
X172954762Y-123085771D01*
X172954762Y-123085771D02*
X172859524Y-123133390D01*
X172859524Y-123133390D02*
X172811905Y-123181009D01*
X172811905Y-123181009D02*
X172764286Y-123276247D01*
X118736905Y-81919819D02*
X118736905Y-80919819D01*
X118736905Y-80919819D02*
X119117857Y-80919819D01*
X119117857Y-80919819D02*
X119213095Y-80967438D01*
X119213095Y-80967438D02*
X119260714Y-81015057D01*
X119260714Y-81015057D02*
X119308333Y-81110295D01*
X119308333Y-81110295D02*
X119308333Y-81253152D01*
X119308333Y-81253152D02*
X119260714Y-81348390D01*
X119260714Y-81348390D02*
X119213095Y-81396009D01*
X119213095Y-81396009D02*
X119117857Y-81443628D01*
X119117857Y-81443628D02*
X118736905Y-81443628D01*
X119879762Y-81348390D02*
X119784524Y-81300771D01*
X119784524Y-81300771D02*
X119736905Y-81253152D01*
X119736905Y-81253152D02*
X119689286Y-81157914D01*
X119689286Y-81157914D02*
X119689286Y-81110295D01*
X119689286Y-81110295D02*
X119736905Y-81015057D01*
X119736905Y-81015057D02*
X119784524Y-80967438D01*
X119784524Y-80967438D02*
X119879762Y-80919819D01*
X119879762Y-80919819D02*
X120070238Y-80919819D01*
X120070238Y-80919819D02*
X120165476Y-80967438D01*
X120165476Y-80967438D02*
X120213095Y-81015057D01*
X120213095Y-81015057D02*
X120260714Y-81110295D01*
X120260714Y-81110295D02*
X120260714Y-81157914D01*
X120260714Y-81157914D02*
X120213095Y-81253152D01*
X120213095Y-81253152D02*
X120165476Y-81300771D01*
X120165476Y-81300771D02*
X120070238Y-81348390D01*
X120070238Y-81348390D02*
X119879762Y-81348390D01*
X119879762Y-81348390D02*
X119784524Y-81396009D01*
X119784524Y-81396009D02*
X119736905Y-81443628D01*
X119736905Y-81443628D02*
X119689286Y-81538866D01*
X119689286Y-81538866D02*
X119689286Y-81729342D01*
X119689286Y-81729342D02*
X119736905Y-81824580D01*
X119736905Y-81824580D02*
X119784524Y-81872200D01*
X119784524Y-81872200D02*
X119879762Y-81919819D01*
X119879762Y-81919819D02*
X120070238Y-81919819D01*
X120070238Y-81919819D02*
X120165476Y-81872200D01*
X120165476Y-81872200D02*
X120213095Y-81824580D01*
X120213095Y-81824580D02*
X120260714Y-81729342D01*
X120260714Y-81729342D02*
X120260714Y-81538866D01*
X120260714Y-81538866D02*
X120213095Y-81443628D01*
X120213095Y-81443628D02*
X120165476Y-81396009D01*
X120165476Y-81396009D02*
X120070238Y-81348390D01*
X116688095Y-109504819D02*
X116688095Y-110314342D01*
X116688095Y-110314342D02*
X116735714Y-110409580D01*
X116735714Y-110409580D02*
X116783333Y-110457200D01*
X116783333Y-110457200D02*
X116878571Y-110504819D01*
X116878571Y-110504819D02*
X117069047Y-110504819D01*
X117069047Y-110504819D02*
X117164285Y-110457200D01*
X117164285Y-110457200D02*
X117211904Y-110409580D01*
X117211904Y-110409580D02*
X117259523Y-110314342D01*
X117259523Y-110314342D02*
X117259523Y-109504819D01*
X117688095Y-109600057D02*
X117735714Y-109552438D01*
X117735714Y-109552438D02*
X117830952Y-109504819D01*
X117830952Y-109504819D02*
X118069047Y-109504819D01*
X118069047Y-109504819D02*
X118164285Y-109552438D01*
X118164285Y-109552438D02*
X118211904Y-109600057D01*
X118211904Y-109600057D02*
X118259523Y-109695295D01*
X118259523Y-109695295D02*
X118259523Y-109790533D01*
X118259523Y-109790533D02*
X118211904Y-109933390D01*
X118211904Y-109933390D02*
X117640476Y-110504819D01*
X117640476Y-110504819D02*
X118259523Y-110504819D01*
X135471905Y-83494819D02*
X135471905Y-82494819D01*
X135471905Y-82494819D02*
X135852857Y-82494819D01*
X135852857Y-82494819D02*
X135948095Y-82542438D01*
X135948095Y-82542438D02*
X135995714Y-82590057D01*
X135995714Y-82590057D02*
X136043333Y-82685295D01*
X136043333Y-82685295D02*
X136043333Y-82828152D01*
X136043333Y-82828152D02*
X135995714Y-82923390D01*
X135995714Y-82923390D02*
X135948095Y-82971009D01*
X135948095Y-82971009D02*
X135852857Y-83018628D01*
X135852857Y-83018628D02*
X135471905Y-83018628D01*
X136519524Y-83494819D02*
X136710000Y-83494819D01*
X136710000Y-83494819D02*
X136805238Y-83447200D01*
X136805238Y-83447200D02*
X136852857Y-83399580D01*
X136852857Y-83399580D02*
X136948095Y-83256723D01*
X136948095Y-83256723D02*
X136995714Y-83066247D01*
X136995714Y-83066247D02*
X136995714Y-82685295D01*
X136995714Y-82685295D02*
X136948095Y-82590057D01*
X136948095Y-82590057D02*
X136900476Y-82542438D01*
X136900476Y-82542438D02*
X136805238Y-82494819D01*
X136805238Y-82494819D02*
X136614762Y-82494819D01*
X136614762Y-82494819D02*
X136519524Y-82542438D01*
X136519524Y-82542438D02*
X136471905Y-82590057D01*
X136471905Y-82590057D02*
X136424286Y-82685295D01*
X136424286Y-82685295D02*
X136424286Y-82923390D01*
X136424286Y-82923390D02*
X136471905Y-83018628D01*
X136471905Y-83018628D02*
X136519524Y-83066247D01*
X136519524Y-83066247D02*
X136614762Y-83113866D01*
X136614762Y-83113866D02*
X136805238Y-83113866D01*
X136805238Y-83113866D02*
X136900476Y-83066247D01*
X136900476Y-83066247D02*
X136948095Y-83018628D01*
X136948095Y-83018628D02*
X136995714Y-82923390D01*
X148671905Y-112794819D02*
X148671905Y-111794819D01*
X148671905Y-111794819D02*
X149052857Y-111794819D01*
X149052857Y-111794819D02*
X149148095Y-111842438D01*
X149148095Y-111842438D02*
X149195714Y-111890057D01*
X149195714Y-111890057D02*
X149243333Y-111985295D01*
X149243333Y-111985295D02*
X149243333Y-112128152D01*
X149243333Y-112128152D02*
X149195714Y-112223390D01*
X149195714Y-112223390D02*
X149148095Y-112271009D01*
X149148095Y-112271009D02*
X149052857Y-112318628D01*
X149052857Y-112318628D02*
X148671905Y-112318628D01*
X149576667Y-111794819D02*
X150195714Y-111794819D01*
X150195714Y-111794819D02*
X149862381Y-112175771D01*
X149862381Y-112175771D02*
X150005238Y-112175771D01*
X150005238Y-112175771D02*
X150100476Y-112223390D01*
X150100476Y-112223390D02*
X150148095Y-112271009D01*
X150148095Y-112271009D02*
X150195714Y-112366247D01*
X150195714Y-112366247D02*
X150195714Y-112604342D01*
X150195714Y-112604342D02*
X150148095Y-112699580D01*
X150148095Y-112699580D02*
X150100476Y-112747200D01*
X150100476Y-112747200D02*
X150005238Y-112794819D01*
X150005238Y-112794819D02*
X149719524Y-112794819D01*
X149719524Y-112794819D02*
X149624286Y-112747200D01*
X149624286Y-112747200D02*
X149576667Y-112699580D01*
D12*
X112965361Y-120655291D02*
X113137718Y-120712743D01*
X113137718Y-120712743D02*
X113424980Y-120712743D01*
X113424980Y-120712743D02*
X113539885Y-120655291D01*
X113539885Y-120655291D02*
X113597337Y-120597838D01*
X113597337Y-120597838D02*
X113654790Y-120482933D01*
X113654790Y-120482933D02*
X113654790Y-120368029D01*
X113654790Y-120368029D02*
X113597337Y-120253124D01*
X113597337Y-120253124D02*
X113539885Y-120195671D01*
X113539885Y-120195671D02*
X113424980Y-120138219D01*
X113424980Y-120138219D02*
X113195171Y-120080767D01*
X113195171Y-120080767D02*
X113080266Y-120023314D01*
X113080266Y-120023314D02*
X113022813Y-119965862D01*
X113022813Y-119965862D02*
X112965361Y-119850957D01*
X112965361Y-119850957D02*
X112965361Y-119736052D01*
X112965361Y-119736052D02*
X113022813Y-119621148D01*
X113022813Y-119621148D02*
X113080266Y-119563695D01*
X113080266Y-119563695D02*
X113195171Y-119506243D01*
X113195171Y-119506243D02*
X113482432Y-119506243D01*
X113482432Y-119506243D02*
X113654790Y-119563695D01*
X114803838Y-120712743D02*
X114114409Y-120712743D01*
X114459123Y-120712743D02*
X114459123Y-119506243D01*
X114459123Y-119506243D02*
X114344219Y-119678600D01*
X114344219Y-119678600D02*
X114229314Y-119793505D01*
X114229314Y-119793505D02*
X114114409Y-119850957D01*
D11*
X135211905Y-102244819D02*
X135211905Y-101244819D01*
X135211905Y-101244819D02*
X135592857Y-101244819D01*
X135592857Y-101244819D02*
X135688095Y-101292438D01*
X135688095Y-101292438D02*
X135735714Y-101340057D01*
X135735714Y-101340057D02*
X135783333Y-101435295D01*
X135783333Y-101435295D02*
X135783333Y-101578152D01*
X135783333Y-101578152D02*
X135735714Y-101673390D01*
X135735714Y-101673390D02*
X135688095Y-101721009D01*
X135688095Y-101721009D02*
X135592857Y-101768628D01*
X135592857Y-101768628D02*
X135211905Y-101768628D01*
X136116667Y-101244819D02*
X136783333Y-101244819D01*
X136783333Y-101244819D02*
X136354762Y-102244819D01*
X172683333Y-121459580D02*
X172635714Y-121507200D01*
X172635714Y-121507200D02*
X172492857Y-121554819D01*
X172492857Y-121554819D02*
X172397619Y-121554819D01*
X172397619Y-121554819D02*
X172254762Y-121507200D01*
X172254762Y-121507200D02*
X172159524Y-121411961D01*
X172159524Y-121411961D02*
X172111905Y-121316723D01*
X172111905Y-121316723D02*
X172064286Y-121126247D01*
X172064286Y-121126247D02*
X172064286Y-120983390D01*
X172064286Y-120983390D02*
X172111905Y-120792914D01*
X172111905Y-120792914D02*
X172159524Y-120697676D01*
X172159524Y-120697676D02*
X172254762Y-120602438D01*
X172254762Y-120602438D02*
X172397619Y-120554819D01*
X172397619Y-120554819D02*
X172492857Y-120554819D01*
X172492857Y-120554819D02*
X172635714Y-120602438D01*
X172635714Y-120602438D02*
X172683333Y-120650057D01*
X173588095Y-120554819D02*
X173111905Y-120554819D01*
X173111905Y-120554819D02*
X173064286Y-121031009D01*
X173064286Y-121031009D02*
X173111905Y-120983390D01*
X173111905Y-120983390D02*
X173207143Y-120935771D01*
X173207143Y-120935771D02*
X173445238Y-120935771D01*
X173445238Y-120935771D02*
X173540476Y-120983390D01*
X173540476Y-120983390D02*
X173588095Y-121031009D01*
X173588095Y-121031009D02*
X173635714Y-121126247D01*
X173635714Y-121126247D02*
X173635714Y-121364342D01*
X173635714Y-121364342D02*
X173588095Y-121459580D01*
X173588095Y-121459580D02*
X173540476Y-121507200D01*
X173540476Y-121507200D02*
X173445238Y-121554819D01*
X173445238Y-121554819D02*
X173207143Y-121554819D01*
X173207143Y-121554819D02*
X173111905Y-121507200D01*
X173111905Y-121507200D02*
X173064286Y-121459580D01*
X111083333Y-111159580D02*
X111035714Y-111207200D01*
X111035714Y-111207200D02*
X110892857Y-111254819D01*
X110892857Y-111254819D02*
X110797619Y-111254819D01*
X110797619Y-111254819D02*
X110654762Y-111207200D01*
X110654762Y-111207200D02*
X110559524Y-111111961D01*
X110559524Y-111111961D02*
X110511905Y-111016723D01*
X110511905Y-111016723D02*
X110464286Y-110826247D01*
X110464286Y-110826247D02*
X110464286Y-110683390D01*
X110464286Y-110683390D02*
X110511905Y-110492914D01*
X110511905Y-110492914D02*
X110559524Y-110397676D01*
X110559524Y-110397676D02*
X110654762Y-110302438D01*
X110654762Y-110302438D02*
X110797619Y-110254819D01*
X110797619Y-110254819D02*
X110892857Y-110254819D01*
X110892857Y-110254819D02*
X111035714Y-110302438D01*
X111035714Y-110302438D02*
X111083333Y-110350057D01*
X111940476Y-110588152D02*
X111940476Y-111254819D01*
X111702381Y-110207200D02*
X111464286Y-110921485D01*
X111464286Y-110921485D02*
X112083333Y-110921485D01*
X162633333Y-82004819D02*
X162300000Y-81528628D01*
X162061905Y-82004819D02*
X162061905Y-81004819D01*
X162061905Y-81004819D02*
X162442857Y-81004819D01*
X162442857Y-81004819D02*
X162538095Y-81052438D01*
X162538095Y-81052438D02*
X162585714Y-81100057D01*
X162585714Y-81100057D02*
X162633333Y-81195295D01*
X162633333Y-81195295D02*
X162633333Y-81338152D01*
X162633333Y-81338152D02*
X162585714Y-81433390D01*
X162585714Y-81433390D02*
X162538095Y-81481009D01*
X162538095Y-81481009D02*
X162442857Y-81528628D01*
X162442857Y-81528628D02*
X162061905Y-81528628D01*
X163585714Y-82004819D02*
X163014286Y-82004819D01*
X163300000Y-82004819D02*
X163300000Y-81004819D01*
X163300000Y-81004819D02*
X163204762Y-81147676D01*
X163204762Y-81147676D02*
X163109524Y-81242914D01*
X163109524Y-81242914D02*
X163014286Y-81290533D01*
X124833333Y-106959580D02*
X124785714Y-107007200D01*
X124785714Y-107007200D02*
X124642857Y-107054819D01*
X124642857Y-107054819D02*
X124547619Y-107054819D01*
X124547619Y-107054819D02*
X124404762Y-107007200D01*
X124404762Y-107007200D02*
X124309524Y-106911961D01*
X124309524Y-106911961D02*
X124261905Y-106816723D01*
X124261905Y-106816723D02*
X124214286Y-106626247D01*
X124214286Y-106626247D02*
X124214286Y-106483390D01*
X124214286Y-106483390D02*
X124261905Y-106292914D01*
X124261905Y-106292914D02*
X124309524Y-106197676D01*
X124309524Y-106197676D02*
X124404762Y-106102438D01*
X124404762Y-106102438D02*
X124547619Y-106054819D01*
X124547619Y-106054819D02*
X124642857Y-106054819D01*
X124642857Y-106054819D02*
X124785714Y-106102438D01*
X124785714Y-106102438D02*
X124833333Y-106150057D01*
X125166667Y-106054819D02*
X125833333Y-106054819D01*
X125833333Y-106054819D02*
X125404762Y-107054819D01*
X141515714Y-110044819D02*
X141515714Y-109044819D01*
X141515714Y-109044819D02*
X141896666Y-109044819D01*
X141896666Y-109044819D02*
X141991904Y-109092438D01*
X141991904Y-109092438D02*
X142039523Y-109140057D01*
X142039523Y-109140057D02*
X142087142Y-109235295D01*
X142087142Y-109235295D02*
X142087142Y-109378152D01*
X142087142Y-109378152D02*
X142039523Y-109473390D01*
X142039523Y-109473390D02*
X141991904Y-109521009D01*
X141991904Y-109521009D02*
X141896666Y-109568628D01*
X141896666Y-109568628D02*
X141515714Y-109568628D01*
X143039523Y-110044819D02*
X142468095Y-110044819D01*
X142753809Y-110044819D02*
X142753809Y-109044819D01*
X142753809Y-109044819D02*
X142658571Y-109187676D01*
X142658571Y-109187676D02*
X142563333Y-109282914D01*
X142563333Y-109282914D02*
X142468095Y-109330533D01*
X143658571Y-109044819D02*
X143753809Y-109044819D01*
X143753809Y-109044819D02*
X143849047Y-109092438D01*
X143849047Y-109092438D02*
X143896666Y-109140057D01*
X143896666Y-109140057D02*
X143944285Y-109235295D01*
X143944285Y-109235295D02*
X143991904Y-109425771D01*
X143991904Y-109425771D02*
X143991904Y-109663866D01*
X143991904Y-109663866D02*
X143944285Y-109854342D01*
X143944285Y-109854342D02*
X143896666Y-109949580D01*
X143896666Y-109949580D02*
X143849047Y-109997200D01*
X143849047Y-109997200D02*
X143753809Y-110044819D01*
X143753809Y-110044819D02*
X143658571Y-110044819D01*
X143658571Y-110044819D02*
X143563333Y-109997200D01*
X143563333Y-109997200D02*
X143515714Y-109949580D01*
X143515714Y-109949580D02*
X143468095Y-109854342D01*
X143468095Y-109854342D02*
X143420476Y-109663866D01*
X143420476Y-109663866D02*
X143420476Y-109425771D01*
X143420476Y-109425771D02*
X143468095Y-109235295D01*
X143468095Y-109235295D02*
X143515714Y-109140057D01*
X143515714Y-109140057D02*
X143563333Y-109092438D01*
X143563333Y-109092438D02*
X143658571Y-109044819D01*
X116688095Y-100704819D02*
X116688095Y-101514342D01*
X116688095Y-101514342D02*
X116735714Y-101609580D01*
X116735714Y-101609580D02*
X116783333Y-101657200D01*
X116783333Y-101657200D02*
X116878571Y-101704819D01*
X116878571Y-101704819D02*
X117069047Y-101704819D01*
X117069047Y-101704819D02*
X117164285Y-101657200D01*
X117164285Y-101657200D02*
X117211904Y-101609580D01*
X117211904Y-101609580D02*
X117259523Y-101514342D01*
X117259523Y-101514342D02*
X117259523Y-100704819D01*
X117640476Y-100704819D02*
X118259523Y-100704819D01*
X118259523Y-100704819D02*
X117926190Y-101085771D01*
X117926190Y-101085771D02*
X118069047Y-101085771D01*
X118069047Y-101085771D02*
X118164285Y-101133390D01*
X118164285Y-101133390D02*
X118211904Y-101181009D01*
X118211904Y-101181009D02*
X118259523Y-101276247D01*
X118259523Y-101276247D02*
X118259523Y-101514342D01*
X118259523Y-101514342D02*
X118211904Y-101609580D01*
X118211904Y-101609580D02*
X118164285Y-101657200D01*
X118164285Y-101657200D02*
X118069047Y-101704819D01*
X118069047Y-101704819D02*
X117783333Y-101704819D01*
X117783333Y-101704819D02*
X117688095Y-101657200D01*
X117688095Y-101657200D02*
X117640476Y-101609580D01*
X111185714Y-82034819D02*
X111185714Y-81034819D01*
X111185714Y-81034819D02*
X111566666Y-81034819D01*
X111566666Y-81034819D02*
X111661904Y-81082438D01*
X111661904Y-81082438D02*
X111709523Y-81130057D01*
X111709523Y-81130057D02*
X111757142Y-81225295D01*
X111757142Y-81225295D02*
X111757142Y-81368152D01*
X111757142Y-81368152D02*
X111709523Y-81463390D01*
X111709523Y-81463390D02*
X111661904Y-81511009D01*
X111661904Y-81511009D02*
X111566666Y-81558628D01*
X111566666Y-81558628D02*
X111185714Y-81558628D01*
X112709523Y-82034819D02*
X112138095Y-82034819D01*
X112423809Y-82034819D02*
X112423809Y-81034819D01*
X112423809Y-81034819D02*
X112328571Y-81177676D01*
X112328571Y-81177676D02*
X112233333Y-81272914D01*
X112233333Y-81272914D02*
X112138095Y-81320533D01*
X113661904Y-82034819D02*
X113090476Y-82034819D01*
X113376190Y-82034819D02*
X113376190Y-81034819D01*
X113376190Y-81034819D02*
X113280952Y-81177676D01*
X113280952Y-81177676D02*
X113185714Y-81272914D01*
X113185714Y-81272914D02*
X113090476Y-81320533D01*
X111083333Y-102259580D02*
X111035714Y-102307200D01*
X111035714Y-102307200D02*
X110892857Y-102354819D01*
X110892857Y-102354819D02*
X110797619Y-102354819D01*
X110797619Y-102354819D02*
X110654762Y-102307200D01*
X110654762Y-102307200D02*
X110559524Y-102211961D01*
X110559524Y-102211961D02*
X110511905Y-102116723D01*
X110511905Y-102116723D02*
X110464286Y-101926247D01*
X110464286Y-101926247D02*
X110464286Y-101783390D01*
X110464286Y-101783390D02*
X110511905Y-101592914D01*
X110511905Y-101592914D02*
X110559524Y-101497676D01*
X110559524Y-101497676D02*
X110654762Y-101402438D01*
X110654762Y-101402438D02*
X110797619Y-101354819D01*
X110797619Y-101354819D02*
X110892857Y-101354819D01*
X110892857Y-101354819D02*
X111035714Y-101402438D01*
X111035714Y-101402438D02*
X111083333Y-101450057D01*
X111416667Y-101354819D02*
X112035714Y-101354819D01*
X112035714Y-101354819D02*
X111702381Y-101735771D01*
X111702381Y-101735771D02*
X111845238Y-101735771D01*
X111845238Y-101735771D02*
X111940476Y-101783390D01*
X111940476Y-101783390D02*
X111988095Y-101831009D01*
X111988095Y-101831009D02*
X112035714Y-101926247D01*
X112035714Y-101926247D02*
X112035714Y-102164342D01*
X112035714Y-102164342D02*
X111988095Y-102259580D01*
X111988095Y-102259580D02*
X111940476Y-102307200D01*
X111940476Y-102307200D02*
X111845238Y-102354819D01*
X111845238Y-102354819D02*
X111559524Y-102354819D01*
X111559524Y-102354819D02*
X111464286Y-102307200D01*
X111464286Y-102307200D02*
X111416667Y-102259580D01*
X162811905Y-104444819D02*
X162811905Y-103444819D01*
X162811905Y-103444819D02*
X163192857Y-103444819D01*
X163192857Y-103444819D02*
X163288095Y-103492438D01*
X163288095Y-103492438D02*
X163335714Y-103540057D01*
X163335714Y-103540057D02*
X163383333Y-103635295D01*
X163383333Y-103635295D02*
X163383333Y-103778152D01*
X163383333Y-103778152D02*
X163335714Y-103873390D01*
X163335714Y-103873390D02*
X163288095Y-103921009D01*
X163288095Y-103921009D02*
X163192857Y-103968628D01*
X163192857Y-103968628D02*
X162811905Y-103968628D01*
X164240476Y-103778152D02*
X164240476Y-104444819D01*
X164002381Y-103397200D02*
X163764286Y-104111485D01*
X163764286Y-104111485D02*
X164383333Y-104111485D01*
X136061905Y-119544819D02*
X136061905Y-118544819D01*
X136061905Y-118544819D02*
X136442857Y-118544819D01*
X136442857Y-118544819D02*
X136538095Y-118592438D01*
X136538095Y-118592438D02*
X136585714Y-118640057D01*
X136585714Y-118640057D02*
X136633333Y-118735295D01*
X136633333Y-118735295D02*
X136633333Y-118878152D01*
X136633333Y-118878152D02*
X136585714Y-118973390D01*
X136585714Y-118973390D02*
X136538095Y-119021009D01*
X136538095Y-119021009D02*
X136442857Y-119068628D01*
X136442857Y-119068628D02*
X136061905Y-119068628D01*
X137538095Y-118544819D02*
X137061905Y-118544819D01*
X137061905Y-118544819D02*
X137014286Y-119021009D01*
X137014286Y-119021009D02*
X137061905Y-118973390D01*
X137061905Y-118973390D02*
X137157143Y-118925771D01*
X137157143Y-118925771D02*
X137395238Y-118925771D01*
X137395238Y-118925771D02*
X137490476Y-118973390D01*
X137490476Y-118973390D02*
X137538095Y-119021009D01*
X137538095Y-119021009D02*
X137585714Y-119116247D01*
X137585714Y-119116247D02*
X137585714Y-119354342D01*
X137585714Y-119354342D02*
X137538095Y-119449580D01*
X137538095Y-119449580D02*
X137490476Y-119497200D01*
X137490476Y-119497200D02*
X137395238Y-119544819D01*
X137395238Y-119544819D02*
X137157143Y-119544819D01*
X137157143Y-119544819D02*
X137061905Y-119497200D01*
X137061905Y-119497200D02*
X137014286Y-119449580D01*
X166983333Y-92659580D02*
X166935714Y-92707200D01*
X166935714Y-92707200D02*
X166792857Y-92754819D01*
X166792857Y-92754819D02*
X166697619Y-92754819D01*
X166697619Y-92754819D02*
X166554762Y-92707200D01*
X166554762Y-92707200D02*
X166459524Y-92611961D01*
X166459524Y-92611961D02*
X166411905Y-92516723D01*
X166411905Y-92516723D02*
X166364286Y-92326247D01*
X166364286Y-92326247D02*
X166364286Y-92183390D01*
X166364286Y-92183390D02*
X166411905Y-91992914D01*
X166411905Y-91992914D02*
X166459524Y-91897676D01*
X166459524Y-91897676D02*
X166554762Y-91802438D01*
X166554762Y-91802438D02*
X166697619Y-91754819D01*
X166697619Y-91754819D02*
X166792857Y-91754819D01*
X166792857Y-91754819D02*
X166935714Y-91802438D01*
X166935714Y-91802438D02*
X166983333Y-91850057D01*
X167459524Y-92754819D02*
X167650000Y-92754819D01*
X167650000Y-92754819D02*
X167745238Y-92707200D01*
X167745238Y-92707200D02*
X167792857Y-92659580D01*
X167792857Y-92659580D02*
X167888095Y-92516723D01*
X167888095Y-92516723D02*
X167935714Y-92326247D01*
X167935714Y-92326247D02*
X167935714Y-91945295D01*
X167935714Y-91945295D02*
X167888095Y-91850057D01*
X167888095Y-91850057D02*
X167840476Y-91802438D01*
X167840476Y-91802438D02*
X167745238Y-91754819D01*
X167745238Y-91754819D02*
X167554762Y-91754819D01*
X167554762Y-91754819D02*
X167459524Y-91802438D01*
X167459524Y-91802438D02*
X167411905Y-91850057D01*
X167411905Y-91850057D02*
X167364286Y-91945295D01*
X167364286Y-91945295D02*
X167364286Y-92183390D01*
X167364286Y-92183390D02*
X167411905Y-92278628D01*
X167411905Y-92278628D02*
X167459524Y-92326247D01*
X167459524Y-92326247D02*
X167554762Y-92373866D01*
X167554762Y-92373866D02*
X167745238Y-92373866D01*
X167745238Y-92373866D02*
X167840476Y-92326247D01*
X167840476Y-92326247D02*
X167888095Y-92278628D01*
X167888095Y-92278628D02*
X167935714Y-92183390D01*
X162338095Y-88454819D02*
X162338095Y-89264342D01*
X162338095Y-89264342D02*
X162385714Y-89359580D01*
X162385714Y-89359580D02*
X162433333Y-89407200D01*
X162433333Y-89407200D02*
X162528571Y-89454819D01*
X162528571Y-89454819D02*
X162719047Y-89454819D01*
X162719047Y-89454819D02*
X162814285Y-89407200D01*
X162814285Y-89407200D02*
X162861904Y-89359580D01*
X162861904Y-89359580D02*
X162909523Y-89264342D01*
X162909523Y-89264342D02*
X162909523Y-88454819D01*
X163814285Y-88788152D02*
X163814285Y-89454819D01*
X163576190Y-88407200D02*
X163338095Y-89121485D01*
X163338095Y-89121485D02*
X163957142Y-89121485D01*
D12*
X175465361Y-80955291D02*
X175637718Y-81012743D01*
X175637718Y-81012743D02*
X175924980Y-81012743D01*
X175924980Y-81012743D02*
X176039885Y-80955291D01*
X176039885Y-80955291D02*
X176097337Y-80897838D01*
X176097337Y-80897838D02*
X176154790Y-80782933D01*
X176154790Y-80782933D02*
X176154790Y-80668029D01*
X176154790Y-80668029D02*
X176097337Y-80553124D01*
X176097337Y-80553124D02*
X176039885Y-80495671D01*
X176039885Y-80495671D02*
X175924980Y-80438219D01*
X175924980Y-80438219D02*
X175695171Y-80380767D01*
X175695171Y-80380767D02*
X175580266Y-80323314D01*
X175580266Y-80323314D02*
X175522813Y-80265862D01*
X175522813Y-80265862D02*
X175465361Y-80150957D01*
X175465361Y-80150957D02*
X175465361Y-80036052D01*
X175465361Y-80036052D02*
X175522813Y-79921148D01*
X175522813Y-79921148D02*
X175580266Y-79863695D01*
X175580266Y-79863695D02*
X175695171Y-79806243D01*
X175695171Y-79806243D02*
X175982432Y-79806243D01*
X175982432Y-79806243D02*
X176154790Y-79863695D01*
X176614409Y-79921148D02*
X176671861Y-79863695D01*
X176671861Y-79863695D02*
X176786766Y-79806243D01*
X176786766Y-79806243D02*
X177074028Y-79806243D01*
X177074028Y-79806243D02*
X177188933Y-79863695D01*
X177188933Y-79863695D02*
X177246385Y-79921148D01*
X177246385Y-79921148D02*
X177303838Y-80036052D01*
X177303838Y-80036052D02*
X177303838Y-80150957D01*
X177303838Y-80150957D02*
X177246385Y-80323314D01*
X177246385Y-80323314D02*
X176556957Y-81012743D01*
X176556957Y-81012743D02*
X177303838Y-81012743D01*
D11*
X122861905Y-81644819D02*
X122861905Y-80644819D01*
X122861905Y-80644819D02*
X123242857Y-80644819D01*
X123242857Y-80644819D02*
X123338095Y-80692438D01*
X123338095Y-80692438D02*
X123385714Y-80740057D01*
X123385714Y-80740057D02*
X123433333Y-80835295D01*
X123433333Y-80835295D02*
X123433333Y-80978152D01*
X123433333Y-80978152D02*
X123385714Y-81073390D01*
X123385714Y-81073390D02*
X123338095Y-81121009D01*
X123338095Y-81121009D02*
X123242857Y-81168628D01*
X123242857Y-81168628D02*
X122861905Y-81168628D01*
X124290476Y-80644819D02*
X124100000Y-80644819D01*
X124100000Y-80644819D02*
X124004762Y-80692438D01*
X124004762Y-80692438D02*
X123957143Y-80740057D01*
X123957143Y-80740057D02*
X123861905Y-80882914D01*
X123861905Y-80882914D02*
X123814286Y-81073390D01*
X123814286Y-81073390D02*
X123814286Y-81454342D01*
X123814286Y-81454342D02*
X123861905Y-81549580D01*
X123861905Y-81549580D02*
X123909524Y-81597200D01*
X123909524Y-81597200D02*
X124004762Y-81644819D01*
X124004762Y-81644819D02*
X124195238Y-81644819D01*
X124195238Y-81644819D02*
X124290476Y-81597200D01*
X124290476Y-81597200D02*
X124338095Y-81549580D01*
X124338095Y-81549580D02*
X124385714Y-81454342D01*
X124385714Y-81454342D02*
X124385714Y-81216247D01*
X124385714Y-81216247D02*
X124338095Y-81121009D01*
X124338095Y-81121009D02*
X124290476Y-81073390D01*
X124290476Y-81073390D02*
X124195238Y-81025771D01*
X124195238Y-81025771D02*
X124004762Y-81025771D01*
X124004762Y-81025771D02*
X123909524Y-81073390D01*
X123909524Y-81073390D02*
X123861905Y-81121009D01*
X123861905Y-81121009D02*
X123814286Y-81216247D01*
X124833333Y-115809580D02*
X124785714Y-115857200D01*
X124785714Y-115857200D02*
X124642857Y-115904819D01*
X124642857Y-115904819D02*
X124547619Y-115904819D01*
X124547619Y-115904819D02*
X124404762Y-115857200D01*
X124404762Y-115857200D02*
X124309524Y-115761961D01*
X124309524Y-115761961D02*
X124261905Y-115666723D01*
X124261905Y-115666723D02*
X124214286Y-115476247D01*
X124214286Y-115476247D02*
X124214286Y-115333390D01*
X124214286Y-115333390D02*
X124261905Y-115142914D01*
X124261905Y-115142914D02*
X124309524Y-115047676D01*
X124309524Y-115047676D02*
X124404762Y-114952438D01*
X124404762Y-114952438D02*
X124547619Y-114904819D01*
X124547619Y-114904819D02*
X124642857Y-114904819D01*
X124642857Y-114904819D02*
X124785714Y-114952438D01*
X124785714Y-114952438D02*
X124833333Y-115000057D01*
X125404762Y-115333390D02*
X125309524Y-115285771D01*
X125309524Y-115285771D02*
X125261905Y-115238152D01*
X125261905Y-115238152D02*
X125214286Y-115142914D01*
X125214286Y-115142914D02*
X125214286Y-115095295D01*
X125214286Y-115095295D02*
X125261905Y-115000057D01*
X125261905Y-115000057D02*
X125309524Y-114952438D01*
X125309524Y-114952438D02*
X125404762Y-114904819D01*
X125404762Y-114904819D02*
X125595238Y-114904819D01*
X125595238Y-114904819D02*
X125690476Y-114952438D01*
X125690476Y-114952438D02*
X125738095Y-115000057D01*
X125738095Y-115000057D02*
X125785714Y-115095295D01*
X125785714Y-115095295D02*
X125785714Y-115142914D01*
X125785714Y-115142914D02*
X125738095Y-115238152D01*
X125738095Y-115238152D02*
X125690476Y-115285771D01*
X125690476Y-115285771D02*
X125595238Y-115333390D01*
X125595238Y-115333390D02*
X125404762Y-115333390D01*
X125404762Y-115333390D02*
X125309524Y-115381009D01*
X125309524Y-115381009D02*
X125261905Y-115428628D01*
X125261905Y-115428628D02*
X125214286Y-115523866D01*
X125214286Y-115523866D02*
X125214286Y-115714342D01*
X125214286Y-115714342D02*
X125261905Y-115809580D01*
X125261905Y-115809580D02*
X125309524Y-115857200D01*
X125309524Y-115857200D02*
X125404762Y-115904819D01*
X125404762Y-115904819D02*
X125595238Y-115904819D01*
X125595238Y-115904819D02*
X125690476Y-115857200D01*
X125690476Y-115857200D02*
X125738095Y-115809580D01*
X125738095Y-115809580D02*
X125785714Y-115714342D01*
X125785714Y-115714342D02*
X125785714Y-115523866D01*
X125785714Y-115523866D02*
X125738095Y-115428628D01*
X125738095Y-115428628D02*
X125690476Y-115381009D01*
X125690476Y-115381009D02*
X125595238Y-115333390D01*
D12*
X102431843Y-95036733D02*
X102431843Y-94806924D01*
X102431843Y-94806924D02*
X102374391Y-94692019D01*
X102374391Y-94692019D02*
X102316938Y-94634567D01*
X102316938Y-94634567D02*
X102144581Y-94519662D01*
X102144581Y-94519662D02*
X101914771Y-94462209D01*
X101914771Y-94462209D02*
X101455152Y-94462209D01*
X101455152Y-94462209D02*
X101340248Y-94519662D01*
X101340248Y-94519662D02*
X101282795Y-94577114D01*
X101282795Y-94577114D02*
X101225343Y-94692019D01*
X101225343Y-94692019D02*
X101225343Y-94921828D01*
X101225343Y-94921828D02*
X101282795Y-95036733D01*
X101282795Y-95036733D02*
X101340248Y-95094186D01*
X101340248Y-95094186D02*
X101455152Y-95151638D01*
X101455152Y-95151638D02*
X101742414Y-95151638D01*
X101742414Y-95151638D02*
X101857319Y-95094186D01*
X101857319Y-95094186D02*
X101914771Y-95036733D01*
X101914771Y-95036733D02*
X101972224Y-94921828D01*
X101972224Y-94921828D02*
X101972224Y-94692019D01*
X101972224Y-94692019D02*
X101914771Y-94577114D01*
X101914771Y-94577114D02*
X101857319Y-94519662D01*
X101857319Y-94519662D02*
X101742414Y-94462209D01*
X96805689Y-87629753D02*
X96863141Y-87572300D01*
X96863141Y-87572300D02*
X96978046Y-87514848D01*
X96978046Y-87514848D02*
X97265308Y-87514848D01*
X97265308Y-87514848D02*
X97380213Y-87572300D01*
X97380213Y-87572300D02*
X97437665Y-87629753D01*
X97437665Y-87629753D02*
X97495118Y-87744657D01*
X97495118Y-87744657D02*
X97495118Y-87859562D01*
X97495118Y-87859562D02*
X97437665Y-88031919D01*
X97437665Y-88031919D02*
X96748237Y-88721348D01*
X96748237Y-88721348D02*
X97495118Y-88721348D01*
X98069642Y-88663896D02*
X98069642Y-88721348D01*
X98069642Y-88721348D02*
X98012189Y-88836253D01*
X98012189Y-88836253D02*
X97954737Y-88893705D01*
X99161237Y-87514848D02*
X98586713Y-87514848D01*
X98586713Y-87514848D02*
X98529261Y-88089372D01*
X98529261Y-88089372D02*
X98586713Y-88031919D01*
X98586713Y-88031919D02*
X98701618Y-87974467D01*
X98701618Y-87974467D02*
X98988880Y-87974467D01*
X98988880Y-87974467D02*
X99103785Y-88031919D01*
X99103785Y-88031919D02*
X99161237Y-88089372D01*
X99161237Y-88089372D02*
X99218690Y-88204276D01*
X99218690Y-88204276D02*
X99218690Y-88491538D01*
X99218690Y-88491538D02*
X99161237Y-88606443D01*
X99161237Y-88606443D02*
X99103785Y-88663896D01*
X99103785Y-88663896D02*
X98988880Y-88721348D01*
X98988880Y-88721348D02*
X98701618Y-88721348D01*
X98701618Y-88721348D02*
X98586713Y-88663896D01*
X98586713Y-88663896D02*
X98529261Y-88606443D01*
X100252833Y-87917015D02*
X100252833Y-88721348D01*
X99965571Y-87457396D02*
X99678309Y-88319181D01*
X99678309Y-88319181D02*
X100425190Y-88319181D01*
X101225343Y-109182114D02*
X101225343Y-109411924D01*
X101225343Y-109411924D02*
X101282795Y-109526828D01*
X101282795Y-109526828D02*
X101340248Y-109584281D01*
X101340248Y-109584281D02*
X101512605Y-109699186D01*
X101512605Y-109699186D02*
X101742414Y-109756638D01*
X101742414Y-109756638D02*
X102202033Y-109756638D01*
X102202033Y-109756638D02*
X102316938Y-109699186D01*
X102316938Y-109699186D02*
X102374391Y-109641733D01*
X102374391Y-109641733D02*
X102431843Y-109526828D01*
X102431843Y-109526828D02*
X102431843Y-109297019D01*
X102431843Y-109297019D02*
X102374391Y-109182114D01*
X102374391Y-109182114D02*
X102316938Y-109124662D01*
X102316938Y-109124662D02*
X102202033Y-109067209D01*
X102202033Y-109067209D02*
X101914771Y-109067209D01*
X101914771Y-109067209D02*
X101799867Y-109124662D01*
X101799867Y-109124662D02*
X101742414Y-109182114D01*
X101742414Y-109182114D02*
X101684962Y-109297019D01*
X101684962Y-109297019D02*
X101684962Y-109526828D01*
X101684962Y-109526828D02*
X101742414Y-109641733D01*
X101742414Y-109641733D02*
X101799867Y-109699186D01*
X101799867Y-109699186D02*
X101914771Y-109756638D01*
X103765343Y-94519662D02*
X103765343Y-95094186D01*
X103765343Y-95094186D02*
X104339867Y-95151638D01*
X104339867Y-95151638D02*
X104282414Y-95094186D01*
X104282414Y-95094186D02*
X104224962Y-94979281D01*
X104224962Y-94979281D02*
X104224962Y-94692019D01*
X104224962Y-94692019D02*
X104282414Y-94577114D01*
X104282414Y-94577114D02*
X104339867Y-94519662D01*
X104339867Y-94519662D02*
X104454771Y-94462209D01*
X104454771Y-94462209D02*
X104742033Y-94462209D01*
X104742033Y-94462209D02*
X104856938Y-94519662D01*
X104856938Y-94519662D02*
X104914391Y-94577114D01*
X104914391Y-94577114D02*
X104971843Y-94692019D01*
X104971843Y-94692019D02*
X104971843Y-94979281D01*
X104971843Y-94979281D02*
X104914391Y-95094186D01*
X104914391Y-95094186D02*
X104856938Y-95151638D01*
X104971843Y-109067209D02*
X104971843Y-109756638D01*
X104971843Y-109411924D02*
X103765343Y-109411924D01*
X103765343Y-109411924D02*
X103937700Y-109526828D01*
X103937700Y-109526828D02*
X104052605Y-109641733D01*
X104052605Y-109641733D02*
X104110057Y-109756638D01*
X93925867Y-109297019D02*
X93925867Y-109699186D01*
X94557843Y-109699186D02*
X93351343Y-109699186D01*
X93351343Y-109699186D02*
X93351343Y-109124662D01*
X93351343Y-108435233D02*
X93351343Y-108320328D01*
X93351343Y-108320328D02*
X93408795Y-108205424D01*
X93408795Y-108205424D02*
X93466248Y-108147971D01*
X93466248Y-108147971D02*
X93581152Y-108090519D01*
X93581152Y-108090519D02*
X93810962Y-108033066D01*
X93810962Y-108033066D02*
X94098224Y-108033066D01*
X94098224Y-108033066D02*
X94328033Y-108090519D01*
X94328033Y-108090519D02*
X94442938Y-108147971D01*
X94442938Y-108147971D02*
X94500391Y-108205424D01*
X94500391Y-108205424D02*
X94557843Y-108320328D01*
X94557843Y-108320328D02*
X94557843Y-108435233D01*
X94557843Y-108435233D02*
X94500391Y-108550138D01*
X94500391Y-108550138D02*
X94442938Y-108607590D01*
X94442938Y-108607590D02*
X94328033Y-108665043D01*
X94328033Y-108665043D02*
X94098224Y-108722495D01*
X94098224Y-108722495D02*
X93810962Y-108722495D01*
X93810962Y-108722495D02*
X93581152Y-108665043D01*
X93581152Y-108665043D02*
X93466248Y-108607590D01*
X93466248Y-108607590D02*
X93408795Y-108550138D01*
X93408795Y-108550138D02*
X93351343Y-108435233D01*
X94557843Y-107458542D02*
X94557843Y-107228733D01*
X94557843Y-107228733D02*
X94500391Y-107113828D01*
X94500391Y-107113828D02*
X94442938Y-107056376D01*
X94442938Y-107056376D02*
X94270581Y-106941471D01*
X94270581Y-106941471D02*
X94040771Y-106884018D01*
X94040771Y-106884018D02*
X93581152Y-106884018D01*
X93581152Y-106884018D02*
X93466248Y-106941471D01*
X93466248Y-106941471D02*
X93408795Y-106998923D01*
X93408795Y-106998923D02*
X93351343Y-107113828D01*
X93351343Y-107113828D02*
X93351343Y-107343637D01*
X93351343Y-107343637D02*
X93408795Y-107458542D01*
X93408795Y-107458542D02*
X93466248Y-107515995D01*
X93466248Y-107515995D02*
X93581152Y-107573447D01*
X93581152Y-107573447D02*
X93868414Y-107573447D01*
X93868414Y-107573447D02*
X93983319Y-107515995D01*
X93983319Y-107515995D02*
X94040771Y-107458542D01*
X94040771Y-107458542D02*
X94098224Y-107343637D01*
X94098224Y-107343637D02*
X94098224Y-107113828D01*
X94098224Y-107113828D02*
X94040771Y-106998923D01*
X94040771Y-106998923D02*
X93983319Y-106941471D01*
X93983319Y-106941471D02*
X93868414Y-106884018D01*
D11*
X174316666Y-99731009D02*
X173983333Y-99731009D01*
X173983333Y-100254819D02*
X173983333Y-99254819D01*
X173983333Y-99254819D02*
X174459523Y-99254819D01*
X175173809Y-99731009D02*
X175316666Y-99778628D01*
X175316666Y-99778628D02*
X175364285Y-99826247D01*
X175364285Y-99826247D02*
X175411904Y-99921485D01*
X175411904Y-99921485D02*
X175411904Y-100064342D01*
X175411904Y-100064342D02*
X175364285Y-100159580D01*
X175364285Y-100159580D02*
X175316666Y-100207200D01*
X175316666Y-100207200D02*
X175221428Y-100254819D01*
X175221428Y-100254819D02*
X174840476Y-100254819D01*
X174840476Y-100254819D02*
X174840476Y-99254819D01*
X174840476Y-99254819D02*
X175173809Y-99254819D01*
X175173809Y-99254819D02*
X175269047Y-99302438D01*
X175269047Y-99302438D02*
X175316666Y-99350057D01*
X175316666Y-99350057D02*
X175364285Y-99445295D01*
X175364285Y-99445295D02*
X175364285Y-99540533D01*
X175364285Y-99540533D02*
X175316666Y-99635771D01*
X175316666Y-99635771D02*
X175269047Y-99683390D01*
X175269047Y-99683390D02*
X175173809Y-99731009D01*
X175173809Y-99731009D02*
X174840476Y-99731009D01*
X176364285Y-100254819D02*
X175792857Y-100254819D01*
X176078571Y-100254819D02*
X176078571Y-99254819D01*
X176078571Y-99254819D02*
X175983333Y-99397676D01*
X175983333Y-99397676D02*
X175888095Y-99492914D01*
X175888095Y-99492914D02*
X175792857Y-99540533D01*
D13*
X154402334Y-81882835D02*
X154402334Y-80314385D01*
X154402334Y-80314385D02*
X154999839Y-80314385D01*
X154999839Y-80314385D02*
X155149215Y-80389073D01*
X155149215Y-80389073D02*
X155223903Y-80463761D01*
X155223903Y-80463761D02*
X155298591Y-80613137D01*
X155298591Y-80613137D02*
X155298591Y-80837201D01*
X155298591Y-80837201D02*
X155223903Y-80986577D01*
X155223903Y-80986577D02*
X155149215Y-81061266D01*
X155149215Y-81061266D02*
X154999839Y-81135954D01*
X154999839Y-81135954D02*
X154402334Y-81135954D01*
X156792353Y-81882835D02*
X155896096Y-81882835D01*
X156344224Y-81882835D02*
X156344224Y-80314385D01*
X156344224Y-80314385D02*
X156194848Y-80538449D01*
X156194848Y-80538449D02*
X156045472Y-80687825D01*
X156045472Y-80687825D02*
X155896096Y-80762513D01*
X128740886Y-81932835D02*
X128740886Y-80364385D01*
X128740886Y-80364385D02*
X129338391Y-80364385D01*
X129338391Y-80364385D02*
X129487767Y-80439073D01*
X129487767Y-80439073D02*
X129562455Y-80513761D01*
X129562455Y-80513761D02*
X129637143Y-80663137D01*
X129637143Y-80663137D02*
X129637143Y-80887201D01*
X129637143Y-80887201D02*
X129562455Y-81036577D01*
X129562455Y-81036577D02*
X129487767Y-81111266D01*
X129487767Y-81111266D02*
X129338391Y-81185954D01*
X129338391Y-81185954D02*
X128740886Y-81185954D01*
X130234648Y-80513761D02*
X130309336Y-80439073D01*
X130309336Y-80439073D02*
X130458712Y-80364385D01*
X130458712Y-80364385D02*
X130832153Y-80364385D01*
X130832153Y-80364385D02*
X130981529Y-80439073D01*
X130981529Y-80439073D02*
X131056217Y-80513761D01*
X131056217Y-80513761D02*
X131130905Y-80663137D01*
X131130905Y-80663137D02*
X131130905Y-80812513D01*
X131130905Y-80812513D02*
X131056217Y-81036577D01*
X131056217Y-81036577D02*
X130159960Y-81932835D01*
X130159960Y-81932835D02*
X131130905Y-81932835D01*
D14*
%TO.C,C6*%
X175811252Y-122565000D02*
X175288748Y-122565000D01*
X175811252Y-124035000D02*
X175288748Y-124035000D01*
%TO.C,P8*%
X118415000Y-82465000D02*
X119475000Y-82465000D01*
X118415000Y-83525000D02*
X118415000Y-82465000D01*
X118415000Y-84525000D02*
X118415000Y-94585000D01*
X118415000Y-84525000D02*
X120535000Y-84525000D01*
X118415000Y-94585000D02*
X120535000Y-94585000D01*
X120535000Y-84525000D02*
X120535000Y-94585000D01*
%TO.C,U2*%
X117450000Y-110890000D02*
X115500000Y-110890000D01*
X117450000Y-110890000D02*
X119400000Y-110890000D01*
X117450000Y-116010000D02*
X115500000Y-116010000D01*
X117450000Y-116010000D02*
X119400000Y-116010000D01*
X114750000Y-110985000D02*
X114510000Y-110655000D01*
X114990000Y-110655000D01*
X114750000Y-110985000D01*
G36*
X114750000Y-110985000D02*
G01*
X114510000Y-110655000D01*
X114990000Y-110655000D01*
X114750000Y-110985000D01*
G37*
%TO.C,P9*%
X135150000Y-84040000D02*
X136210000Y-84040000D01*
X135150000Y-85100000D02*
X135150000Y-84040000D01*
X135150000Y-86100000D02*
X135150000Y-98160000D01*
X135150000Y-86100000D02*
X137270000Y-86100000D01*
X135150000Y-98160000D02*
X137270000Y-98160000D01*
X137270000Y-86100000D02*
X137270000Y-98160000D01*
%TO.C,P3*%
X148350000Y-113340000D02*
X149410000Y-113340000D01*
X148350000Y-114400000D02*
X148350000Y-113340000D01*
X148350000Y-115400000D02*
X148350000Y-123460000D01*
X148350000Y-115400000D02*
X150470000Y-115400000D01*
X148350000Y-123460000D02*
X150470000Y-123460000D01*
X150470000Y-115400000D02*
X150470000Y-123460000D01*
D15*
%TO.C,P1*%
X187310200Y-107600000D02*
X186310200Y-107600000D01*
X187310200Y-107600000D02*
X187310200Y-95600000D01*
X183310200Y-97600000D02*
X183310200Y-105600000D01*
X187310200Y-95600000D02*
X186310200Y-95600000D01*
D16*
%TO.C,S1*%
X112398000Y-123788000D02*
X112398000Y-125312000D01*
X112398000Y-123788000D02*
X112652000Y-123788000D01*
X112652000Y-123788000D02*
X112652000Y-123534000D01*
X112652000Y-125312000D02*
X112398000Y-125312000D01*
X112652000Y-125312000D02*
X112652000Y-125566000D01*
X113541000Y-127598000D02*
X114430000Y-127598000D01*
X114430000Y-121502000D02*
X113541000Y-121502000D01*
D17*
X114430000Y-121502000D02*
X114430000Y-121756000D01*
X114430000Y-127344000D02*
X114430000Y-127598000D01*
D16*
X114430000Y-127598000D02*
X116843000Y-127598000D01*
D17*
X116843000Y-127344000D02*
X114430000Y-127344000D01*
X116843000Y-127344000D02*
X116843000Y-127598000D01*
D16*
X116843000Y-127598000D02*
X117859000Y-127598000D01*
X116970000Y-121502000D02*
X114430000Y-121502000D01*
D17*
X116970000Y-121756000D02*
X114430000Y-121756000D01*
X116970000Y-121756000D02*
X116970000Y-121502000D01*
D16*
X117859000Y-121502000D02*
X116970000Y-121502000D01*
X118748000Y-123788000D02*
X118748000Y-123534000D01*
X118748000Y-123788000D02*
X119002000Y-123788000D01*
X118748000Y-125312000D02*
X118748000Y-125566000D01*
X119002000Y-125312000D02*
X118748000Y-125312000D01*
X119002000Y-125312000D02*
X119002000Y-123788000D01*
X115954000Y-124550000D02*
G75*
G02*
X115446000Y-124550000I-254000J0D01*
G01*
X115446000Y-124550000D02*
G75*
G02*
X115954000Y-124550000I254000J0D01*
G01*
X117478000Y-124550000D02*
G75*
G02*
X113922000Y-124550000I-1778000J0D01*
G01*
X113922000Y-124550000D02*
G75*
G02*
X117478000Y-124550000I1778000J0D01*
G01*
D14*
%TO.C,P7*%
X134890000Y-102790000D02*
X135950000Y-102790000D01*
X134890000Y-103850000D02*
X134890000Y-102790000D01*
X134890000Y-104850000D02*
X134890000Y-114910000D01*
X134890000Y-104850000D02*
X137010000Y-104850000D01*
X134890000Y-114910000D02*
X137010000Y-114910000D01*
X137010000Y-104850000D02*
X137010000Y-114910000D01*
%TO.C,C5*%
X171311000Y-120150241D02*
X171311000Y-119520241D01*
X170996000Y-119835241D02*
X171626000Y-119835241D01*
X169920000Y-116650000D02*
X176380000Y-116650000D01*
X169920000Y-116610000D02*
X176380000Y-116610000D01*
X169920000Y-116570000D02*
X176380000Y-116570000D01*
X169922000Y-116530000D02*
X176378000Y-116530000D01*
X169923000Y-116490000D02*
X176377000Y-116490000D01*
X169926000Y-116450000D02*
X176374000Y-116450000D01*
X169928000Y-116410000D02*
X172110000Y-116410000D01*
X174190000Y-116410000D02*
X176372000Y-116410000D01*
X169932000Y-116370000D02*
X172110000Y-116370000D01*
X174190000Y-116370000D02*
X176368000Y-116370000D01*
X169935000Y-116330000D02*
X172110000Y-116330000D01*
X174190000Y-116330000D02*
X176365000Y-116330000D01*
X169939000Y-116290000D02*
X172110000Y-116290000D01*
X174190000Y-116290000D02*
X176361000Y-116290000D01*
X169944000Y-116250000D02*
X172110000Y-116250000D01*
X174190000Y-116250000D02*
X176356000Y-116250000D01*
X169949000Y-116210000D02*
X172110000Y-116210000D01*
X174190000Y-116210000D02*
X176351000Y-116210000D01*
X169955000Y-116170000D02*
X172110000Y-116170000D01*
X174190000Y-116170000D02*
X176345000Y-116170000D01*
X169961000Y-116130000D02*
X172110000Y-116130000D01*
X174190000Y-116130000D02*
X176339000Y-116130000D01*
X169968000Y-116090000D02*
X172110000Y-116090000D01*
X174190000Y-116090000D02*
X176332000Y-116090000D01*
X169975000Y-116050000D02*
X172110000Y-116050000D01*
X174190000Y-116050000D02*
X176325000Y-116050000D01*
X169983000Y-116010000D02*
X172110000Y-116010000D01*
X174190000Y-116010000D02*
X176317000Y-116010000D01*
X169991000Y-115970000D02*
X172110000Y-115970000D01*
X174190000Y-115970000D02*
X176309000Y-115970000D01*
X170000000Y-115929000D02*
X172110000Y-115929000D01*
X174190000Y-115929000D02*
X176300000Y-115929000D01*
X170009000Y-115889000D02*
X172110000Y-115889000D01*
X174190000Y-115889000D02*
X176291000Y-115889000D01*
X170019000Y-115849000D02*
X172110000Y-115849000D01*
X174190000Y-115849000D02*
X176281000Y-115849000D01*
X170029000Y-115809000D02*
X172110000Y-115809000D01*
X174190000Y-115809000D02*
X176271000Y-115809000D01*
X170040000Y-115769000D02*
X172110000Y-115769000D01*
X174190000Y-115769000D02*
X176260000Y-115769000D01*
X170052000Y-115729000D02*
X172110000Y-115729000D01*
X174190000Y-115729000D02*
X176248000Y-115729000D01*
X170064000Y-115689000D02*
X172110000Y-115689000D01*
X174190000Y-115689000D02*
X176236000Y-115689000D01*
X170076000Y-115649000D02*
X172110000Y-115649000D01*
X174190000Y-115649000D02*
X176224000Y-115649000D01*
X170089000Y-115609000D02*
X172110000Y-115609000D01*
X174190000Y-115609000D02*
X176211000Y-115609000D01*
X170103000Y-115569000D02*
X172110000Y-115569000D01*
X174190000Y-115569000D02*
X176197000Y-115569000D01*
X170117000Y-115529000D02*
X172110000Y-115529000D01*
X174190000Y-115529000D02*
X176183000Y-115529000D01*
X170132000Y-115489000D02*
X172110000Y-115489000D01*
X174190000Y-115489000D02*
X176168000Y-115489000D01*
X170148000Y-115449000D02*
X172110000Y-115449000D01*
X174190000Y-115449000D02*
X176152000Y-115449000D01*
X170164000Y-115409000D02*
X172110000Y-115409000D01*
X174190000Y-115409000D02*
X176136000Y-115409000D01*
X170180000Y-115369000D02*
X172110000Y-115369000D01*
X174190000Y-115369000D02*
X176120000Y-115369000D01*
X170198000Y-115329000D02*
X172110000Y-115329000D01*
X174190000Y-115329000D02*
X176102000Y-115329000D01*
X170216000Y-115289000D02*
X172110000Y-115289000D01*
X174190000Y-115289000D02*
X176084000Y-115289000D01*
X170234000Y-115249000D02*
X172110000Y-115249000D01*
X174190000Y-115249000D02*
X176066000Y-115249000D01*
X170254000Y-115209000D02*
X172110000Y-115209000D01*
X174190000Y-115209000D02*
X176046000Y-115209000D01*
X170274000Y-115169000D02*
X172110000Y-115169000D01*
X174190000Y-115169000D02*
X176026000Y-115169000D01*
X170294000Y-115129000D02*
X172110000Y-115129000D01*
X174190000Y-115129000D02*
X176006000Y-115129000D01*
X170316000Y-115089000D02*
X172110000Y-115089000D01*
X174190000Y-115089000D02*
X175984000Y-115089000D01*
X170338000Y-115049000D02*
X172110000Y-115049000D01*
X174190000Y-115049000D02*
X175962000Y-115049000D01*
X170360000Y-115009000D02*
X172110000Y-115009000D01*
X174190000Y-115009000D02*
X175940000Y-115009000D01*
X170384000Y-114969000D02*
X172110000Y-114969000D01*
X174190000Y-114969000D02*
X175916000Y-114969000D01*
X170408000Y-114929000D02*
X172110000Y-114929000D01*
X174190000Y-114929000D02*
X175892000Y-114929000D01*
X170434000Y-114889000D02*
X172110000Y-114889000D01*
X174190000Y-114889000D02*
X175866000Y-114889000D01*
X170460000Y-114849000D02*
X172110000Y-114849000D01*
X174190000Y-114849000D02*
X175840000Y-114849000D01*
X170486000Y-114809000D02*
X172110000Y-114809000D01*
X174190000Y-114809000D02*
X175814000Y-114809000D01*
X170514000Y-114769000D02*
X172110000Y-114769000D01*
X174190000Y-114769000D02*
X175786000Y-114769000D01*
X170543000Y-114729000D02*
X172110000Y-114729000D01*
X174190000Y-114729000D02*
X175757000Y-114729000D01*
X170572000Y-114689000D02*
X172110000Y-114689000D01*
X174190000Y-114689000D02*
X175728000Y-114689000D01*
X170602000Y-114649000D02*
X172110000Y-114649000D01*
X174190000Y-114649000D02*
X175698000Y-114649000D01*
X170634000Y-114609000D02*
X172110000Y-114609000D01*
X174190000Y-114609000D02*
X175666000Y-114609000D01*
X170666000Y-114569000D02*
X172110000Y-114569000D01*
X174190000Y-114569000D02*
X175634000Y-114569000D01*
X170700000Y-114529000D02*
X172110000Y-114529000D01*
X174190000Y-114529000D02*
X175600000Y-114529000D01*
X170734000Y-114489000D02*
X172110000Y-114489000D01*
X174190000Y-114489000D02*
X175566000Y-114489000D01*
X170770000Y-114449000D02*
X172110000Y-114449000D01*
X174190000Y-114449000D02*
X175530000Y-114449000D01*
X170807000Y-114409000D02*
X172110000Y-114409000D01*
X174190000Y-114409000D02*
X175493000Y-114409000D01*
X170845000Y-114369000D02*
X172110000Y-114369000D01*
X174190000Y-114369000D02*
X175455000Y-114369000D01*
X170885000Y-114329000D02*
X175415000Y-114329000D01*
X170926000Y-114289000D02*
X175374000Y-114289000D01*
X170968000Y-114249000D02*
X175332000Y-114249000D01*
X171013000Y-114209000D02*
X175287000Y-114209000D01*
X171058000Y-114169000D02*
X175242000Y-114169000D01*
X171106000Y-114129000D02*
X175194000Y-114129000D01*
X171155000Y-114089000D02*
X175145000Y-114089000D01*
X171206000Y-114049000D02*
X175094000Y-114049000D01*
X171260000Y-114009000D02*
X175040000Y-114009000D01*
X171316000Y-113969000D02*
X174984000Y-113969000D01*
X171374000Y-113929000D02*
X174926000Y-113929000D01*
X171436000Y-113889000D02*
X174864000Y-113889000D01*
X171500000Y-113849000D02*
X174800000Y-113849000D01*
X171569000Y-113809000D02*
X174731000Y-113809000D01*
X171641000Y-113769000D02*
X174659000Y-113769000D01*
X171718000Y-113729000D02*
X174582000Y-113729000D01*
X171800000Y-113689000D02*
X174500000Y-113689000D01*
X171888000Y-113649000D02*
X174412000Y-113649000D01*
X171985000Y-113609000D02*
X174315000Y-113609000D01*
X172091000Y-113569000D02*
X174209000Y-113569000D01*
X172210000Y-113529000D02*
X174090000Y-113529000D01*
X172348000Y-113489000D02*
X173952000Y-113489000D01*
X172517000Y-113449000D02*
X173783000Y-113449000D01*
X172748000Y-113409000D02*
X173552000Y-113409000D01*
X176420000Y-116650000D02*
G75*
G02*
X169880000Y-116650000I-3270000J0D01*
G01*
X169880000Y-116650000D02*
G75*
G02*
X176420000Y-116650000I3270000J0D01*
G01*
%TO.C,C4*%
X110715000Y-113411252D02*
X110715000Y-112888748D01*
X112185000Y-113411252D02*
X112185000Y-112888748D01*
D15*
%TO.C,P2*%
X190871100Y-113628700D02*
X185571100Y-113628700D01*
X180171100Y-113628700D02*
X180871100Y-113628700D01*
X180171100Y-113628700D02*
X180171100Y-115728700D01*
X190871100Y-122628700D02*
X190871100Y-113628700D01*
X190871100Y-122628700D02*
X180171100Y-122628700D01*
X180171100Y-122628700D02*
X180171100Y-120528700D01*
D14*
%TO.C,R1*%
X162572936Y-82465000D02*
X163027064Y-82465000D01*
X162572936Y-83935000D02*
X163027064Y-83935000D01*
%TO.C,C7*%
X122215000Y-105811252D02*
X122215000Y-105288748D01*
X123685000Y-105811252D02*
X123685000Y-105288748D01*
%TO.C,P10*%
X141670000Y-110590000D02*
X142730000Y-110590000D01*
X141670000Y-111650000D02*
X141670000Y-110590000D01*
X141670000Y-112650000D02*
X141670000Y-122710000D01*
X141670000Y-112650000D02*
X143790000Y-112650000D01*
X141670000Y-122710000D02*
X143790000Y-122710000D01*
X143790000Y-112650000D02*
X143790000Y-122710000D01*
%TO.C,U3*%
X117450000Y-102090000D02*
X115500000Y-102090000D01*
X117450000Y-102090000D02*
X119400000Y-102090000D01*
X117450000Y-107210000D02*
X115500000Y-107210000D01*
X117450000Y-107210000D02*
X119400000Y-107210000D01*
X114750000Y-102185000D02*
X114510000Y-101855000D01*
X114990000Y-101855000D01*
X114750000Y-102185000D01*
G36*
X114750000Y-102185000D02*
G01*
X114510000Y-101855000D01*
X114990000Y-101855000D01*
X114750000Y-102185000D01*
G37*
%TO.C,P11*%
X111070000Y-85620000D02*
X111070000Y-90760000D01*
X111070000Y-85620000D02*
X113730000Y-85620000D01*
X111070000Y-90760000D02*
X113730000Y-90760000D01*
X112400000Y-83020000D02*
X113730000Y-83020000D01*
X113730000Y-83020000D02*
X113730000Y-84350000D01*
X113730000Y-85620000D02*
X113730000Y-90760000D01*
%TO.C,C3*%
X110715000Y-104611252D02*
X110715000Y-104088748D01*
X112185000Y-104611252D02*
X112185000Y-104088748D01*
%TO.C,P4*%
X162490000Y-104990000D02*
X163550000Y-104990000D01*
X162490000Y-106050000D02*
X162490000Y-104990000D01*
X162490000Y-107050000D02*
X162490000Y-121110000D01*
X162490000Y-107050000D02*
X164610000Y-107050000D01*
X162490000Y-121110000D02*
X164610000Y-121110000D01*
X164610000Y-107050000D02*
X164610000Y-121110000D01*
%TO.C,P5*%
X135740000Y-120090000D02*
X136800000Y-120090000D01*
X135740000Y-121150000D02*
X135740000Y-120090000D01*
X135740000Y-122150000D02*
X135740000Y-128210000D01*
X135740000Y-122150000D02*
X137860000Y-122150000D01*
X135740000Y-128210000D02*
X137860000Y-128210000D01*
X137860000Y-122150000D02*
X137860000Y-128210000D01*
%TO.C,C9*%
X161145225Y-92925000D02*
X161645225Y-92925000D01*
X161395225Y-92675000D02*
X161395225Y-93175000D01*
X163950000Y-91820000D02*
X163950000Y-96980000D01*
X163990000Y-91820000D02*
X163990000Y-96980000D01*
X164030000Y-91821000D02*
X164030000Y-96979000D01*
X164070000Y-91822000D02*
X164070000Y-96978000D01*
X164110000Y-91824000D02*
X164110000Y-96976000D01*
X164150000Y-91827000D02*
X164150000Y-96973000D01*
X164190000Y-91831000D02*
X164190000Y-93360000D01*
X164190000Y-95440000D02*
X164190000Y-96969000D01*
X164230000Y-91835000D02*
X164230000Y-93360000D01*
X164230000Y-95440000D02*
X164230000Y-96965000D01*
X164270000Y-91839000D02*
X164270000Y-93360000D01*
X164270000Y-95440000D02*
X164270000Y-96961000D01*
X164310000Y-91844000D02*
X164310000Y-93360000D01*
X164310000Y-95440000D02*
X164310000Y-96956000D01*
X164350000Y-91850000D02*
X164350000Y-93360000D01*
X164350000Y-95440000D02*
X164350000Y-96950000D01*
X164390000Y-91857000D02*
X164390000Y-93360000D01*
X164390000Y-95440000D02*
X164390000Y-96943000D01*
X164430000Y-91864000D02*
X164430000Y-93360000D01*
X164430000Y-95440000D02*
X164430000Y-96936000D01*
X164470000Y-91872000D02*
X164470000Y-93360000D01*
X164470000Y-95440000D02*
X164470000Y-96928000D01*
X164510000Y-91880000D02*
X164510000Y-93360000D01*
X164510000Y-95440000D02*
X164510000Y-96920000D01*
X164550000Y-91889000D02*
X164550000Y-93360000D01*
X164550000Y-95440000D02*
X164550000Y-96911000D01*
X164590000Y-91899000D02*
X164590000Y-93360000D01*
X164590000Y-95440000D02*
X164590000Y-96901000D01*
X164630000Y-91909000D02*
X164630000Y-93360000D01*
X164630000Y-95440000D02*
X164630000Y-96891000D01*
X164671000Y-91920000D02*
X164671000Y-93360000D01*
X164671000Y-95440000D02*
X164671000Y-96880000D01*
X164711000Y-91932000D02*
X164711000Y-93360000D01*
X164711000Y-95440000D02*
X164711000Y-96868000D01*
X164751000Y-91945000D02*
X164751000Y-93360000D01*
X164751000Y-95440000D02*
X164751000Y-96855000D01*
X164791000Y-91958000D02*
X164791000Y-93360000D01*
X164791000Y-95440000D02*
X164791000Y-96842000D01*
X164831000Y-91972000D02*
X164831000Y-93360000D01*
X164831000Y-95440000D02*
X164831000Y-96828000D01*
X164871000Y-91986000D02*
X164871000Y-93360000D01*
X164871000Y-95440000D02*
X164871000Y-96814000D01*
X164911000Y-92002000D02*
X164911000Y-93360000D01*
X164911000Y-95440000D02*
X164911000Y-96798000D01*
X164951000Y-92018000D02*
X164951000Y-93360000D01*
X164951000Y-95440000D02*
X164951000Y-96782000D01*
X164991000Y-92035000D02*
X164991000Y-93360000D01*
X164991000Y-95440000D02*
X164991000Y-96765000D01*
X165031000Y-92052000D02*
X165031000Y-93360000D01*
X165031000Y-95440000D02*
X165031000Y-96748000D01*
X165071000Y-92071000D02*
X165071000Y-93360000D01*
X165071000Y-95440000D02*
X165071000Y-96729000D01*
X165111000Y-92090000D02*
X165111000Y-93360000D01*
X165111000Y-95440000D02*
X165111000Y-96710000D01*
X165151000Y-92110000D02*
X165151000Y-93360000D01*
X165151000Y-95440000D02*
X165151000Y-96690000D01*
X165191000Y-92132000D02*
X165191000Y-93360000D01*
X165191000Y-95440000D02*
X165191000Y-96668000D01*
X165231000Y-92153000D02*
X165231000Y-93360000D01*
X165231000Y-95440000D02*
X165231000Y-96647000D01*
X165271000Y-92176000D02*
X165271000Y-93360000D01*
X165271000Y-95440000D02*
X165271000Y-96624000D01*
X165311000Y-92200000D02*
X165311000Y-93360000D01*
X165311000Y-95440000D02*
X165311000Y-96600000D01*
X165351000Y-92225000D02*
X165351000Y-93360000D01*
X165351000Y-95440000D02*
X165351000Y-96575000D01*
X165391000Y-92251000D02*
X165391000Y-93360000D01*
X165391000Y-95440000D02*
X165391000Y-96549000D01*
X165431000Y-92278000D02*
X165431000Y-93360000D01*
X165431000Y-95440000D02*
X165431000Y-96522000D01*
X165471000Y-92305000D02*
X165471000Y-93360000D01*
X165471000Y-95440000D02*
X165471000Y-96495000D01*
X165511000Y-92335000D02*
X165511000Y-93360000D01*
X165511000Y-95440000D02*
X165511000Y-96465000D01*
X165551000Y-92365000D02*
X165551000Y-93360000D01*
X165551000Y-95440000D02*
X165551000Y-96435000D01*
X165591000Y-92396000D02*
X165591000Y-93360000D01*
X165591000Y-95440000D02*
X165591000Y-96404000D01*
X165631000Y-92429000D02*
X165631000Y-93360000D01*
X165631000Y-95440000D02*
X165631000Y-96371000D01*
X165671000Y-92463000D02*
X165671000Y-93360000D01*
X165671000Y-95440000D02*
X165671000Y-96337000D01*
X165711000Y-92499000D02*
X165711000Y-93360000D01*
X165711000Y-95440000D02*
X165711000Y-96301000D01*
X165751000Y-92536000D02*
X165751000Y-93360000D01*
X165751000Y-95440000D02*
X165751000Y-96264000D01*
X165791000Y-92574000D02*
X165791000Y-93360000D01*
X165791000Y-95440000D02*
X165791000Y-96226000D01*
X165831000Y-92615000D02*
X165831000Y-93360000D01*
X165831000Y-95440000D02*
X165831000Y-96185000D01*
X165871000Y-92657000D02*
X165871000Y-93360000D01*
X165871000Y-95440000D02*
X165871000Y-96143000D01*
X165911000Y-92701000D02*
X165911000Y-93360000D01*
X165911000Y-95440000D02*
X165911000Y-96099000D01*
X165951000Y-92747000D02*
X165951000Y-93360000D01*
X165951000Y-95440000D02*
X165951000Y-96053000D01*
X165991000Y-92795000D02*
X165991000Y-93360000D01*
X165991000Y-95440000D02*
X165991000Y-96005000D01*
X166031000Y-92846000D02*
X166031000Y-93360000D01*
X166031000Y-95440000D02*
X166031000Y-95954000D01*
X166071000Y-92900000D02*
X166071000Y-93360000D01*
X166071000Y-95440000D02*
X166071000Y-95900000D01*
X166111000Y-92957000D02*
X166111000Y-93360000D01*
X166111000Y-95440000D02*
X166111000Y-95843000D01*
X166151000Y-93017000D02*
X166151000Y-93360000D01*
X166151000Y-95440000D02*
X166151000Y-95783000D01*
X166191000Y-93081000D02*
X166191000Y-93360000D01*
X166191000Y-95440000D02*
X166191000Y-95719000D01*
X166231000Y-93149000D02*
X166231000Y-93360000D01*
X166231000Y-95440000D02*
X166231000Y-95651000D01*
X166271000Y-93222000D02*
X166271000Y-95578000D01*
X166311000Y-93302000D02*
X166311000Y-95498000D01*
X166351000Y-93389000D02*
X166351000Y-95411000D01*
X166391000Y-93485000D02*
X166391000Y-95315000D01*
X166431000Y-93595000D02*
X166431000Y-95205000D01*
X166471000Y-93723000D02*
X166471000Y-95077000D01*
X166511000Y-93882000D02*
X166511000Y-94918000D01*
X166551000Y-94116000D02*
X166551000Y-94684000D01*
X166570000Y-94400000D02*
G75*
G02*
X161330000Y-94400000I-2620000J0D01*
G01*
X161330000Y-94400000D02*
G75*
G02*
X166570000Y-94400000I2620000J0D01*
G01*
%TO.C,U4*%
X163100000Y-85040000D02*
X162300000Y-85040000D01*
X163100000Y-85040000D02*
X163900000Y-85040000D01*
X163100000Y-88160000D02*
X162300000Y-88160000D01*
X163100000Y-88160000D02*
X163900000Y-88160000D01*
X164640000Y-88440000D02*
X164160000Y-88440000D01*
X164400000Y-88110000D01*
X164640000Y-88440000D01*
G36*
X164640000Y-88440000D02*
G01*
X164160000Y-88440000D01*
X164400000Y-88110000D01*
X164640000Y-88440000D01*
G37*
D16*
%TO.C,S2*%
X174898000Y-84088000D02*
X174898000Y-85612000D01*
X174898000Y-84088000D02*
X175152000Y-84088000D01*
X175152000Y-84088000D02*
X175152000Y-83834000D01*
X175152000Y-85612000D02*
X174898000Y-85612000D01*
X175152000Y-85612000D02*
X175152000Y-85866000D01*
X176041000Y-87898000D02*
X176930000Y-87898000D01*
X176930000Y-81802000D02*
X176041000Y-81802000D01*
D17*
X176930000Y-81802000D02*
X176930000Y-82056000D01*
X176930000Y-87644000D02*
X176930000Y-87898000D01*
D16*
X176930000Y-87898000D02*
X179343000Y-87898000D01*
D17*
X179343000Y-87644000D02*
X176930000Y-87644000D01*
X179343000Y-87644000D02*
X179343000Y-87898000D01*
D16*
X179343000Y-87898000D02*
X180359000Y-87898000D01*
X179470000Y-81802000D02*
X176930000Y-81802000D01*
D17*
X179470000Y-82056000D02*
X176930000Y-82056000D01*
X179470000Y-82056000D02*
X179470000Y-81802000D01*
D16*
X180359000Y-81802000D02*
X179470000Y-81802000D01*
X181248000Y-84088000D02*
X181248000Y-83834000D01*
X181248000Y-84088000D02*
X181502000Y-84088000D01*
X181248000Y-85612000D02*
X181248000Y-85866000D01*
X181502000Y-85612000D02*
X181248000Y-85612000D01*
X181502000Y-85612000D02*
X181502000Y-84088000D01*
X178454000Y-84850000D02*
G75*
G02*
X177946000Y-84850000I-254000J0D01*
G01*
X177946000Y-84850000D02*
G75*
G02*
X178454000Y-84850000I254000J0D01*
G01*
X179978000Y-84850000D02*
G75*
G02*
X176422000Y-84850000I-1778000J0D01*
G01*
X176422000Y-84850000D02*
G75*
G02*
X179978000Y-84850000I1778000J0D01*
G01*
D14*
%TO.C,P6*%
X122540000Y-82190000D02*
X123600000Y-82190000D01*
X122540000Y-83250000D02*
X122540000Y-82190000D01*
X122540000Y-84250000D02*
X122540000Y-96310000D01*
X122540000Y-84250000D02*
X124660000Y-84250000D01*
X122540000Y-96310000D02*
X124660000Y-96310000D01*
X124660000Y-84250000D02*
X124660000Y-96310000D01*
%TO.C,C8*%
X122215000Y-114661252D02*
X122215000Y-114138748D01*
X123685000Y-114661252D02*
X123685000Y-114138748D01*
D16*
%TO.C,P12*%
X85314100Y-95084000D02*
X85314100Y-94830000D01*
X85314100Y-109816000D02*
X85314100Y-95084000D01*
X85314100Y-110070000D02*
X85314100Y-109816000D01*
X90902100Y-94322000D02*
X85822100Y-94322000D01*
X90902100Y-110578000D02*
X85822100Y-110578000D01*
X91537100Y-86956000D02*
X92045100Y-86956000D01*
X91537100Y-94703000D02*
X91537100Y-86956000D01*
X91537100Y-110197000D02*
X91537100Y-94703000D01*
X91537100Y-117944000D02*
X91537100Y-110197000D01*
X92045100Y-86956000D02*
X92553100Y-86956000D01*
X92045100Y-89496000D02*
X92045100Y-86956000D01*
X92045100Y-92036000D02*
X92045100Y-89496000D01*
X92045100Y-112864000D02*
X92045100Y-92036000D01*
X92045100Y-115404000D02*
X92045100Y-112864000D01*
X92045100Y-117944000D02*
X91537100Y-117944000D01*
X92045100Y-117944000D02*
X92045100Y-115404000D01*
X92553100Y-86956000D02*
X95601100Y-86956000D01*
X92553100Y-92036000D02*
X92045100Y-92036000D01*
X92553100Y-92163000D02*
X92553100Y-92036000D01*
X92553100Y-112864000D02*
X92045100Y-112864000D01*
X92553100Y-112864000D02*
X92553100Y-112737000D01*
X92553100Y-117944000D02*
X92045100Y-117944000D01*
X94966100Y-92163000D02*
X92553100Y-92163000D01*
X94966100Y-112737000D02*
X92553100Y-112737000D01*
X95601100Y-86956000D02*
X95728100Y-86956000D01*
X95601100Y-92036000D02*
X95601100Y-86956000D01*
X95601100Y-92925000D02*
X95601100Y-92036000D01*
X95601100Y-93179000D02*
X95601100Y-92925000D01*
X95601100Y-93179000D02*
X96363100Y-93179000D01*
X95601100Y-111721000D02*
X95601100Y-93179000D01*
X95601100Y-111721000D02*
X96363100Y-111721000D01*
X95601100Y-111975000D02*
X95601100Y-111721000D01*
X95601100Y-112864000D02*
X95601100Y-111975000D01*
X95601100Y-117944000D02*
X92553100Y-117944000D01*
X95601100Y-117944000D02*
X95601100Y-112864000D01*
X95601100Y-117944000D02*
X95728100Y-117944000D01*
X96363100Y-111721000D02*
X96363100Y-93179000D01*
X105761100Y-117944000D02*
X95728100Y-117944000D01*
X105888100Y-86956000D02*
X95728100Y-86956000D01*
X105888100Y-92925000D02*
X95601100Y-92925000D01*
X105888100Y-92925000D02*
X106396100Y-92417000D01*
X105888100Y-111975000D02*
X95601100Y-111975000D01*
X106396100Y-87464000D02*
X105888100Y-86956000D01*
X106396100Y-92417000D02*
X106396100Y-87464000D01*
X106396100Y-112483000D02*
X105888100Y-111975000D01*
X106396100Y-112483000D02*
X106396100Y-117309000D01*
X106396100Y-117309000D02*
X105761100Y-117944000D01*
X85314100Y-94830000D02*
G75*
G02*
X85822100Y-94322000I508000J0D01*
G01*
X85822100Y-110578000D02*
G75*
G02*
X85314100Y-110070000I1J508001D01*
G01*
X90902100Y-110578000D02*
G75*
G02*
X91537100Y-111213000I1J-634999D01*
G01*
X91537100Y-93687000D02*
G75*
G02*
X90902100Y-94322000I-635000J0D01*
G01*
X94966100Y-92163000D02*
G75*
G02*
X95601100Y-92798000I0J-635000D01*
G01*
X95601100Y-112102000D02*
G75*
G02*
X94966100Y-112737000I-634999J-1D01*
G01*
X104872100Y-89927800D02*
G75*
G02*
X101570100Y-89927800I-1651000J0D01*
G01*
X101570100Y-89927800D02*
G75*
G02*
X104872100Y-89927800I1651000J0D01*
G01*
X104872100Y-114972200D02*
G75*
G02*
X101570100Y-114972200I-1651000J0D01*
G01*
X101570100Y-114972200D02*
G75*
G02*
X104872100Y-114972200I1651000J0D01*
G01*
D18*
G36*
X92045100Y-117944000D02*
G01*
X91537100Y-117944000D01*
X91537100Y-86956000D01*
X92045100Y-86956000D01*
X92045100Y-117944000D01*
G37*
G36*
X96363100Y-111721000D02*
G01*
X95601100Y-111721000D01*
X95601100Y-93179000D01*
X96363100Y-93179000D01*
X96363100Y-111721000D01*
G37*
G36*
X101062100Y-98741600D02*
G01*
X96363100Y-98741600D01*
X96363100Y-97928800D01*
X101062100Y-97928800D01*
X101062100Y-98741600D01*
G37*
G36*
X101062100Y-101510200D02*
G01*
X96363100Y-101510200D01*
X96363100Y-100697400D01*
X101062100Y-100697400D01*
X101062100Y-101510200D01*
G37*
G36*
X101062100Y-104228000D02*
G01*
X96363100Y-104228000D01*
X96363100Y-103415200D01*
X101062100Y-103415200D01*
X101062100Y-104228000D01*
G37*
G36*
X101062100Y-106971200D02*
G01*
X96363100Y-106971200D01*
X96363100Y-106158400D01*
X101062100Y-106158400D01*
X101062100Y-106971200D01*
G37*
G36*
X103602100Y-97370000D02*
G01*
X96363100Y-97370000D01*
X96363100Y-96557200D01*
X103602100Y-96557200D01*
X103602100Y-97370000D01*
G37*
G36*
X103602100Y-100113200D02*
G01*
X96363100Y-100113200D01*
X96363100Y-99300400D01*
X103602100Y-99300400D01*
X103602100Y-100113200D01*
G37*
G36*
X103602100Y-102881800D02*
G01*
X96363100Y-102881800D01*
X96363100Y-102069000D01*
X103602100Y-102069000D01*
X103602100Y-102881800D01*
G37*
G36*
X103602100Y-105599600D02*
G01*
X96363100Y-105599600D01*
X96363100Y-104786800D01*
X103602100Y-104786800D01*
X103602100Y-105599600D01*
G37*
G36*
X103602100Y-108342800D02*
G01*
X96363100Y-108342800D01*
X96363100Y-107530000D01*
X103602100Y-107530000D01*
X103602100Y-108342800D01*
G37*
D14*
%TO.C,FB1*%
X174150000Y-99110000D02*
X176835000Y-99110000D01*
X176835000Y-97190000D02*
X174150000Y-97190000D01*
X176835000Y-99110000D02*
X176835000Y-97190000D01*
%TD*%
M02*
