%TF.GenerationSoftware,KiCad,Pcbnew,8.0.6*%
%TF.CreationDate,2025-01-18T19:56:56-05:00*%
%TF.ProjectId,RL78_G14_Arduino_32p,524c3738-5f47-4313-945f-41726475696e,rev?*%
%TF.SameCoordinates,Original*%
%TF.FileFunction,Copper,L1,Top*%
%TF.FilePolarity,Positive*%
%FSLAX46Y46*%
G04 Gerber Fmt 4.6, Leading zero omitted, Abs format (unit mm)*
G04 Created by KiCad (PCBNEW 8.0.6) date 2025-01-18 19:56:56*
%MOMM*%
%LPD*%
G01*
G04 APERTURE LIST*
G04 Aperture macros list*
%AMRoundRect*
0 Rectangle with rounded corners*
0 $1 Rounding radius*
0 $2 $3 $4 $5 $6 $7 $8 $9 X,Y pos of 4 corners*
0 Add a 4 corners polygon primitive as box body*
4,1,4,$2,$3,$4,$5,$6,$7,$8,$9,$2,$3,0*
0 Add four circle primitives for the rounded corners*
1,1,$1+$1,$2,$3*
1,1,$1+$1,$4,$5*
1,1,$1+$1,$6,$7*
1,1,$1+$1,$8,$9*
0 Add four rect primitives between the rounded corners*
20,1,$1+$1,$2,$3,$4,$5,0*
20,1,$1+$1,$4,$5,$6,$7,0*
20,1,$1+$1,$6,$7,$8,$9,0*
20,1,$1+$1,$8,$9,$2,$3,0*%
G04 Aperture macros list end*
%TA.AperFunction,SMDPad,CuDef*%
%ADD10R,1.200000X0.500000*%
%TD*%
%TA.AperFunction,SMDPad,CuDef*%
%ADD11R,0.500000X1.200000*%
%TD*%
%TA.AperFunction,SMDPad,CuDef*%
%ADD12RoundRect,0.250000X0.450000X-0.262500X0.450000X0.262500X-0.450000X0.262500X-0.450000X-0.262500X0*%
%TD*%
%TA.AperFunction,ComponentPad*%
%ADD13R,1.700000X1.700000*%
%TD*%
%TA.AperFunction,ComponentPad*%
%ADD14O,1.700000X1.700000*%
%TD*%
%TA.AperFunction,ComponentPad*%
%ADD15R,1.600000X1.600000*%
%TD*%
%TA.AperFunction,ComponentPad*%
%ADD16C,1.600000*%
%TD*%
%TA.AperFunction,SMDPad,CuDef*%
%ADD17RoundRect,0.250000X-0.337500X-0.475000X0.337500X-0.475000X0.337500X0.475000X-0.337500X0.475000X0*%
%TD*%
%TA.AperFunction,SMDPad,CuDef*%
%ADD18RoundRect,0.250000X-0.450000X0.262500X-0.450000X-0.262500X0.450000X-0.262500X0.450000X0.262500X0*%
%TD*%
%TA.AperFunction,ComponentPad*%
%ADD19O,3.048000X1.524000*%
%TD*%
%TA.AperFunction,SMDPad,CuDef*%
%ADD20R,0.711200X1.701800*%
%TD*%
%TA.AperFunction,SMDPad,CuDef*%
%ADD21R,6.756400X8.001000*%
%TD*%
%TA.AperFunction,SMDPad,CuDef*%
%ADD22RoundRect,0.250000X-0.350000X-0.450000X0.350000X-0.450000X0.350000X0.450000X-0.350000X0.450000X0*%
%TD*%
%TA.AperFunction,ComponentPad*%
%ADD23C,4.318000*%
%TD*%
%TA.AperFunction,SMDPad,CuDef*%
%ADD24RoundRect,0.250000X0.475000X-0.337500X0.475000X0.337500X-0.475000X0.337500X-0.475000X-0.337500X0*%
%TD*%
%TA.AperFunction,SMDPad,CuDef*%
%ADD25R,1.750000X0.950000*%
%TD*%
%TA.AperFunction,SMDPad,CuDef*%
%ADD26R,1.750000X3.200000*%
%TD*%
%TA.AperFunction,ViaPad*%
%ADD27C,0.600000*%
%TD*%
%TA.AperFunction,Conductor*%
%ADD28C,0.500000*%
%TD*%
%TA.AperFunction,Conductor*%
%ADD29C,0.250000*%
%TD*%
G04 APERTURE END LIST*
D10*
%TO.P,U4,32,P120/ANI19/VCOUT0*%
%TO.N,/CS_11*%
X116450000Y-52400000D03*
%TO.P,U4,31,P00/ANI17/TI00/TxD1/TRGDCLKA/(TRJO0)*%
%TO.N,Net-(J3-Pin_6)*%
X116450000Y-51600000D03*
%TO.P,U4,30,P01/ANI16/TO00/RxD1/TRGCLKB/TRJOP0*%
%TO.N,Net-(J3-Pin_5)*%
X116450000Y-50800000D03*
%TO.P,U4,29,P20/ANI0/AVREFP*%
%TO.N,Net-(J3-Pin_1)*%
X116450000Y-50000000D03*
%TO.P,U4,28,P21/ANI1/AVREFM*%
%TO.N,Net-(J3-Pin_2)*%
X116450000Y-49200000D03*
%TO.P,U4,27,P22/ANI2/ANO0*%
%TO.N,Net-(J3-Pin_3)*%
X116450000Y-48400000D03*
%TO.P,U4,26,P23/ANI3/AN01*%
%TO.N,Net-(J3-Pin_4)*%
X116450000Y-47600000D03*
D11*
%TO.P,U4,24,P10/SCK11/SCL11/TRDIOD1*%
%TO.N,/SCK_11*%
X117900000Y-45350000D03*
%TO.P,U4,23,P11/SI11/SDA11/TRDIOC1*%
%TO.N,/MISO_11*%
X118700000Y-45350000D03*
%TO.P,U4,22,P12/SO11/TRDIOB1/IVREF1*%
%TO.N,/MOSI_11*%
X119500000Y-45350000D03*
%TO.P,U4,21,P13/TxD2/SO20/TRDIOA1/VCMP1*%
%TO.N,/MOSI_20*%
X120300000Y-45350000D03*
%TO.P,U4,20,P14/RxD2/SI20/SDA20/TRDIOD0/(SCLA0)*%
%TO.N,/MISO_20*%
X121100000Y-45350000D03*
%TO.P,U4,19,P15/PCLBUZ1/SCK20/SCL20/TRDIOB0/(SDAA0)*%
%TO.N,/SCK_20*%
X121900000Y-45350000D03*
%TO.P,U4,18,P16/TI01/TO01/INTP5/TRDIOC0/VREF0/(RxD0)*%
%TO.N,Net-(J4-Pin_7)*%
X122700000Y-45350000D03*
D10*
%TO.P,U4,16,P51/INTP2/SO00/TxD0/TOOLTxD/TRGIOB*%
%TO.N,/MOSI_00*%
X124950000Y-46800000D03*
%TO.P,U4,15,P50/INTP1/SI00/RxD0//TOOLRxD/SDA00/TRGIOA/(TRJO0)*%
%TO.N,/MISO_00*%
X124950000Y-47600000D03*
%TO.P,U4,14,P30/INTP3/SCK00/SCL00/TRJO0*%
%TO.N,/SCK_00*%
X124950000Y-48400000D03*
%TO.P,U4,13,P70*%
%TO.N,Net-(J2-Pin_10)*%
X124950000Y-49200000D03*
%TO.P,U4,12,P31/TI03/TO03/INTP4/PCLBUZ0/(TRJO0)*%
%TO.N,Net-(J2-Pin_9)*%
X124950000Y-50000000D03*
%TO.P,U4,11,P62/~{SSI00}*%
%TO.N,/CS_00*%
X124950000Y-50800000D03*
%TO.P,U4,10,P61/SDAA0*%
%TO.N,/SDA*%
X124950000Y-51600000D03*
D11*
%TO.P,U4,8,VDD*%
%TO.N,VCC*%
X123500000Y-53850000D03*
%TO.P,U4,7,GND*%
%TO.N,GND*%
X122700000Y-53850000D03*
%TO.P,U4,6,REGC*%
%TO.N,Net-(U4-REGC)*%
X121900000Y-53850000D03*
%TO.P,U4,5,P121/X1*%
%TO.N,/P121*%
X121100000Y-53850000D03*
%TO.P,U4,4,P122/X2/EXCLK*%
%TO.N,/P122*%
X120300000Y-53850000D03*
%TO.P,U4,3,P137/INTP0*%
%TO.N,Net-(S1-S)*%
X119500000Y-53850000D03*
%TO.P,U4,2,~{RESET}*%
%TO.N,/~{RESET}*%
X118700000Y-53850000D03*
%TO.P,U4,1,P40/TOOL0*%
%TO.N,Net-(P3-Pin_2)*%
X117900000Y-53850000D03*
D10*
%TO.P,U4,9,P60/SCLAA0*%
%TO.N,/SCL*%
X124950000Y-52400000D03*
D11*
%TO.P,U4,17,P17/TI02/TO02/TRDIOA0/TRDCLK/VCMP0/(TxD0)*%
%TO.N,Net-(J4-Pin_8)*%
X123500000Y-45350000D03*
D10*
%TO.P,U4,25,P147/ANI18/VCOUT1*%
%TO.N,/CS_20*%
X116450000Y-46800000D03*
%TD*%
D12*
%TO.P,R8,1*%
%TO.N,VCC*%
X87578000Y-33712500D03*
%TO.P,R8,2*%
%TO.N,/CS_00*%
X87578000Y-31887500D03*
%TD*%
D13*
%TO.P,J5,1,Pin_1*%
%TO.N,+5V*%
X124000000Y-77260000D03*
D14*
%TO.P,J5,2,Pin_2*%
%TO.N,VCC*%
X126540000Y-77260000D03*
%TO.P,J5,3,Pin_3*%
%TO.N,+3.3V*%
X129080000Y-77260000D03*
%TO.P,J5,4,Pin_4*%
%TO.N,/SCK_20*%
X131620000Y-77260000D03*
%TO.P,J5,5,Pin_5*%
%TO.N,/MISO_20*%
X134160000Y-77260000D03*
%TO.P,J5,6,Pin_6*%
%TO.N,/MOSI_20*%
X136700000Y-77260000D03*
%TO.P,J5,7,Pin_7*%
%TO.N,/CS_20*%
X139240000Y-77260000D03*
%TO.P,J5,8,Pin_8*%
%TO.N,GND*%
X141780000Y-77260000D03*
%TD*%
D13*
%TO.P,J3,1,Pin_1*%
%TO.N,Net-(J3-Pin_1)*%
X101802000Y-77260000D03*
D14*
%TO.P,J3,2,Pin_2*%
%TO.N,Net-(J3-Pin_2)*%
X104342000Y-77260000D03*
%TO.P,J3,3,Pin_3*%
%TO.N,Net-(J3-Pin_3)*%
X106882000Y-77260000D03*
%TO.P,J3,4,Pin_4*%
%TO.N,Net-(J3-Pin_4)*%
X109422000Y-77260000D03*
%TO.P,J3,5,Pin_5*%
%TO.N,Net-(J3-Pin_5)*%
X111962000Y-77260000D03*
%TO.P,J3,6,Pin_6*%
%TO.N,Net-(J3-Pin_6)*%
X114502000Y-77260000D03*
%TD*%
D13*
%TO.P,J2,1,Pin_1*%
%TO.N,/SCL*%
X69798000Y-29000000D03*
D14*
%TO.P,J2,2,Pin_2*%
%TO.N,/SDA*%
X72338000Y-29000000D03*
%TO.P,J2,3,Pin_3*%
%TO.N,VCC*%
X74878000Y-29000000D03*
%TO.P,J2,4,Pin_4*%
%TO.N,GND*%
X77418000Y-29000000D03*
%TO.P,J2,5,Pin_5*%
%TO.N,/SCK_00*%
X79958000Y-29000000D03*
%TO.P,J2,6,Pin_6*%
%TO.N,/MISO_00*%
X82498000Y-29000000D03*
%TO.P,J2,7,Pin_7*%
%TO.N,/MOSI_00*%
X85038000Y-29000000D03*
%TO.P,J2,8,Pin_8*%
%TO.N,/CS_00*%
X87578000Y-29000000D03*
%TO.P,J2,9,Pin_9*%
%TO.N,Net-(J2-Pin_9)*%
X90118000Y-29000000D03*
%TO.P,J2,10,Pin_10*%
%TO.N,Net-(J2-Pin_10)*%
X92658000Y-29000000D03*
%TD*%
D13*
%TO.P,J4,1,Pin_1*%
%TO.N,/SCK_11*%
X96722000Y-29000000D03*
D14*
%TO.P,J4,2,Pin_2*%
%TO.N,/MISO_11*%
X99262000Y-29000000D03*
%TO.P,J4,3,Pin_3*%
%TO.N,/MOSI_11*%
X101802000Y-29000000D03*
%TO.P,J4,4,Pin_4*%
%TO.N,/CS_11*%
X104342000Y-29000000D03*
%TO.P,J4,5,Pin_5*%
%TO.N,/P121*%
X106882000Y-29000000D03*
%TO.P,J4,6,Pin_6*%
%TO.N,/P122*%
X109422000Y-29000000D03*
%TO.P,J4,7,Pin_7*%
%TO.N,Net-(J4-Pin_7)*%
X111962000Y-29000000D03*
%TO.P,J4,8,Pin_8*%
%TO.N,Net-(J4-Pin_8)*%
X114502000Y-29000000D03*
%TD*%
D15*
%TO.P,C4,1*%
%TO.N,+5V*%
X93102000Y-67400000D03*
D16*
%TO.P,C4,2*%
%TO.N,GND*%
X95602000Y-67400000D03*
%TD*%
D17*
%TO.P,C8,1*%
%TO.N,Net-(U4-REGC)*%
X123562500Y-58500000D03*
%TO.P,C8,2*%
%TO.N,GND*%
X125637500Y-58500000D03*
%TD*%
D18*
%TO.P,R1,1*%
%TO.N,VCC*%
X58400000Y-37737500D03*
%TO.P,R1,2*%
%TO.N,Net-(P3-Pin_3)*%
X58400000Y-39562500D03*
%TD*%
D19*
%TO.P,S1,1,S*%
%TO.N,Net-(S1-S)*%
X54350800Y-55539400D03*
%TO.P,S1,2,S1*%
X60853200Y-55539400D03*
%TO.P,S1,3,P*%
%TO.N,GND*%
X54350800Y-60060600D03*
%TO.P,S1,4,P1*%
X60853200Y-60060600D03*
%TD*%
D15*
%TO.P,C2,1*%
%TO.N,/Vin*%
X83002000Y-67400000D03*
D16*
%TO.P,C2,2*%
%TO.N,GND*%
X85502000Y-67400000D03*
%TD*%
D13*
%TO.P,J1,1,Pin_1*%
%TO.N,unconnected-(J1-Pin_1-Pad1)*%
X78942000Y-77260000D03*
D14*
%TO.P,J1,2,Pin_2*%
%TO.N,VCC*%
X81482000Y-77260000D03*
%TO.P,J1,3,Pin_3*%
%TO.N,/~{RESET}*%
X84022000Y-77260000D03*
%TO.P,J1,4,Pin_4*%
%TO.N,+3.3V*%
X86562000Y-77260000D03*
%TO.P,J1,5,Pin_5*%
%TO.N,+5V*%
X89102000Y-77260000D03*
%TO.P,J1,6,Pin_6*%
%TO.N,GND*%
X91642000Y-77260000D03*
%TO.P,J1,7,Pin_7*%
X94182000Y-77260000D03*
%TO.P,J1,8,Pin_8*%
%TO.N,/Vin*%
X96722000Y-77260000D03*
%TD*%
D20*
%TO.P,U2,1,VCC*%
%TO.N,/Vin*%
X87049999Y-62850000D03*
D21*
%TO.P,U2,2,GND*%
%TO.N,GND*%
X89350000Y-56982600D03*
D20*
%TO.P,U2,3,OUT*%
%TO.N,+5V*%
X91650001Y-62850000D03*
%TD*%
D22*
%TO.P,R3,1*%
%TO.N,Net-(S1-S)*%
X54350000Y-52550000D03*
%TO.P,R3,2*%
%TO.N,VCC*%
X56350000Y-52550000D03*
%TD*%
D23*
%TO.P,P2,GND,GND*%
%TO.N,GND*%
X55700000Y-72400000D03*
%TO.P,P2,GNDBREAK,GNDBREAK*%
X58700000Y-77100000D03*
%TO.P,P2,PWR,PWR*%
%TO.N,/Vin*%
X61700000Y-72400000D03*
%TD*%
D12*
%TO.P,R5,1*%
%TO.N,VCC*%
X72338000Y-33712500D03*
%TO.P,R5,2*%
%TO.N,/SDA*%
X72338000Y-31887500D03*
%TD*%
D15*
%TO.P,C6,1*%
%TO.N,+3.3V*%
X103402000Y-67400000D03*
D16*
%TO.P,C6,2*%
%TO.N,GND*%
X105902000Y-67400000D03*
%TD*%
D12*
%TO.P,R4,1*%
%TO.N,VCC*%
X69798000Y-33712500D03*
%TO.P,R4,2*%
%TO.N,/SCL*%
X69798000Y-31887500D03*
%TD*%
D17*
%TO.P,C3,1*%
%TO.N,+5V*%
X95814500Y-54050000D03*
%TO.P,C3,2*%
%TO.N,GND*%
X97889500Y-54050000D03*
%TD*%
%TO.P,C7,1*%
%TO.N,VCC*%
X123562500Y-56100000D03*
%TO.P,C7,2*%
%TO.N,GND*%
X125637500Y-56100000D03*
%TD*%
D13*
%TO.P,JP1,1,A*%
%TO.N,+3.3V*%
X67052000Y-58960000D03*
D14*
%TO.P,JP1,2,C*%
%TO.N,VCC*%
X67052000Y-61500000D03*
%TO.P,JP1,3,B*%
%TO.N,+5V*%
X67052000Y-64040000D03*
%TD*%
D18*
%TO.P,R2,1*%
%TO.N,Net-(P3-Pin_3)*%
X58450000Y-41537500D03*
%TO.P,R2,2*%
%TO.N,/~{RESET}*%
X58450000Y-43362500D03*
%TD*%
D13*
%TO.P,P3,1,Pin_1*%
%TO.N,VCC*%
X55000000Y-34500000D03*
D14*
%TO.P,P3,2,Pin_2*%
%TO.N,Net-(P3-Pin_2)*%
X55000000Y-37040000D03*
%TO.P,P3,3,Pin_3*%
%TO.N,Net-(P3-Pin_3)*%
X55000000Y-39580000D03*
%TO.P,P3,4,Pin_4*%
%TO.N,/~{RESET}*%
X55000000Y-42120000D03*
%TO.P,P3,5,Pin_5*%
%TO.N,GND*%
X55000000Y-44660000D03*
%TD*%
D24*
%TO.P,C1,1*%
%TO.N,/Vin*%
X83002000Y-61950000D03*
%TO.P,C1,2*%
%TO.N,GND*%
X83002000Y-59875000D03*
%TD*%
D17*
%TO.P,C5,1*%
%TO.N,+3.3V*%
X104914500Y-62050000D03*
%TO.P,C5,2*%
%TO.N,GND*%
X106989500Y-62050000D03*
%TD*%
D25*
%TO.P,U3,1,IN*%
%TO.N,+5V*%
X95802000Y-57150000D03*
%TO.P,U3,2,GND_1*%
%TO.N,GND*%
X95802000Y-59450000D03*
%TO.P,U3,3,OUT*%
%TO.N,+3.3V*%
X95802000Y-61750000D03*
D26*
%TO.P,U3,4,GND_2*%
%TO.N,GND*%
X102102000Y-59450000D03*
%TD*%
D27*
%TO.N,GND*%
X73650000Y-42800000D03*
%TO.N,VCC*%
X89600000Y-33950000D03*
X103750000Y-56850000D03*
X57846200Y-52070000D03*
%TO.N,Net-(S1-S)*%
X102800000Y-55350000D03*
%TO.N,Net-(J3-Pin_1)*%
X113262700Y-50023000D03*
%TO.N,Net-(J3-Pin_5)*%
X114951000Y-53301900D03*
%TO.N,Net-(J3-Pin_6)*%
X115294700Y-51662500D03*
%TO.N,Net-(J3-Pin_4)*%
X112274500Y-47509300D03*
%TO.N,Net-(J3-Pin_2)*%
X109195300Y-49281000D03*
%TO.N,Net-(J3-Pin_3)*%
X111003400Y-48270400D03*
%TO.N,/CS_11*%
X117612400Y-51995600D03*
%TO.N,/MOSI_00*%
X122389100Y-47103000D03*
%TO.N,/CS_00*%
X115292700Y-46738800D03*
X122862900Y-50448400D03*
%TO.N,/SCK_00*%
X122586200Y-48265600D03*
%TO.N,/MISO_20*%
X125137300Y-45735000D03*
%TO.N,/SCK_20*%
X122083900Y-44043600D03*
%TO.N,/CS_20*%
X118109800Y-47353500D03*
%TO.N,/MOSI_20*%
X121262500Y-43840700D03*
%TO.N,Net-(J2-Pin_9)*%
X112160200Y-45015700D03*
X117665600Y-50441200D03*
%TO.N,/P121*%
X121202700Y-55405000D03*
%TO.N,/P122*%
X120258300Y-50763300D03*
%TO.N,/SDA*%
X126078400Y-51219200D03*
%TD*%
D28*
%TO.N,GND*%
X97889500Y-54050000D02*
X96714500Y-52875000D01*
X96714500Y-52875000D02*
X93457600Y-52875000D01*
X93457600Y-52875000D02*
X89350000Y-56982600D01*
X97950000Y-59450000D02*
X102102000Y-59450000D01*
X95802000Y-59450000D02*
X97950000Y-59450000D01*
X97950000Y-59450000D02*
X97950000Y-59200000D01*
X97950000Y-59200000D02*
X97889500Y-59139500D01*
X97889500Y-59139500D02*
X97889500Y-54050000D01*
D29*
%TO.N,Net-(S1-S)*%
X102800000Y-55350000D02*
X103018000Y-55568000D01*
X118708700Y-55568000D02*
X119500000Y-54776700D01*
X103018000Y-55568000D02*
X118708700Y-55568000D01*
X119500000Y-54776700D02*
X119500000Y-53850000D01*
%TO.N,VCC*%
X89600000Y-33950000D02*
X87815500Y-33950000D01*
X87815500Y-33950000D02*
X87578000Y-33712500D01*
X107100000Y-60200000D02*
X103750000Y-56850000D01*
X124600000Y-60200000D02*
X107100000Y-60200000D01*
X124600000Y-57137500D02*
X124600000Y-60200000D01*
X124600000Y-60200000D02*
X124600000Y-69020400D01*
%TO.N,/~{RESET}*%
X84022000Y-77260000D02*
X83211100Y-77260000D01*
X83211100Y-77260000D02*
X82012400Y-78458700D01*
X52471200Y-52736000D02*
X53785500Y-51421700D01*
X82012400Y-78458700D02*
X75937700Y-78458700D01*
X75937700Y-78458700D02*
X66068700Y-68589700D01*
X52471200Y-60485600D02*
X52471200Y-52736000D01*
X66068700Y-68589700D02*
X60575300Y-68589700D01*
X60575300Y-68589700D02*
X52471200Y-60485600D01*
X53785500Y-51421700D02*
X57419200Y-51421700D01*
%TO.N,+5V*%
X89102000Y-77260000D02*
X89911000Y-77260000D01*
X89911000Y-77260000D02*
X91087700Y-78436700D01*
X91087700Y-78436700D02*
X121646600Y-78436700D01*
X121646600Y-78436700D02*
X122823300Y-77260000D01*
X122823300Y-77260000D02*
X124000000Y-77260000D01*
%TO.N,+3.3V*%
X129080000Y-77260000D02*
X128271100Y-77260000D01*
X128271100Y-77260000D02*
X119537800Y-68526700D01*
X119537800Y-68526700D02*
X107046100Y-68526700D01*
%TO.N,/MOSI_11*%
X101802000Y-29000000D02*
X102610900Y-29000000D01*
X102610900Y-29000000D02*
X103787600Y-30176700D01*
X103787600Y-30176700D02*
X105253400Y-30176700D01*
X105253400Y-30176700D02*
X119500000Y-44423300D01*
X119500000Y-44423300D02*
X119500000Y-45350000D01*
%TO.N,/MISO_11*%
X118700000Y-45350000D02*
X118700000Y-44423300D01*
X112078000Y-40990000D02*
X100088000Y-29000000D01*
X118700000Y-44423300D02*
X115266700Y-40990000D01*
X115266700Y-40990000D02*
X112078000Y-40990000D01*
X100088000Y-29000000D02*
X99262000Y-29000000D01*
%TO.N,/SCK_11*%
X96722000Y-29000000D02*
X97531000Y-29000000D01*
X97531000Y-29000000D02*
X110774500Y-42243500D01*
X110774500Y-42243500D02*
X115720200Y-42243500D01*
X115720200Y-42243500D02*
X117900000Y-44423300D01*
X117900000Y-44423300D02*
X117900000Y-45350000D01*
%TO.N,Net-(J2-Pin_9)*%
X90118000Y-29000000D02*
X90927000Y-29000000D01*
X90927000Y-29000000D02*
X106942700Y-45015700D01*
X106942700Y-45015700D02*
X112160200Y-45015700D01*
%TO.N,/MISO_00*%
X124950000Y-47600000D02*
X125876700Y-47600000D01*
X125876700Y-47600000D02*
X125876700Y-38663300D01*
X125876700Y-38663300D02*
X115036700Y-27823300D01*
X115036700Y-27823300D02*
X84483600Y-27823300D01*
X84483600Y-27823300D02*
X83306900Y-29000000D01*
X83306900Y-29000000D02*
X82498000Y-29000000D01*
%TO.N,/SCL*%
X124950000Y-52400000D02*
X125876700Y-52400000D01*
X125876700Y-52400000D02*
X126705100Y-51571600D01*
X126705100Y-51571600D02*
X126705100Y-38796900D01*
X126705100Y-38796900D02*
X115277100Y-27368900D01*
X115277100Y-27368900D02*
X72238100Y-27368900D01*
X72238100Y-27368900D02*
X70607000Y-29000000D01*
X70607000Y-29000000D02*
X69798000Y-29000000D01*
%TO.N,/~{RESET}*%
X55000000Y-42120000D02*
X56176700Y-42120000D01*
X56176700Y-42120000D02*
X57419200Y-43362500D01*
X57419200Y-43362500D02*
X58450000Y-43362500D01*
X118700000Y-53850000D02*
X118700000Y-54776700D01*
X57419200Y-43362500D02*
X57419200Y-51421700D01*
X109094500Y-54776700D02*
X118700000Y-54776700D01*
X105739500Y-51421700D02*
X109094500Y-54776700D01*
X57419200Y-51421700D02*
X105739500Y-51421700D01*
%TO.N,VCC*%
X123500000Y-56037500D02*
X123562000Y-56100000D01*
X123500000Y-53850000D02*
X123500000Y-56037500D01*
X69010500Y-34500000D02*
X69798000Y-33712500D01*
X55000000Y-34500000D02*
X69010500Y-34500000D01*
X69798000Y-33712500D02*
X72338000Y-33712500D01*
X67052000Y-61500000D02*
X67052000Y-62676700D01*
X68075400Y-62676700D02*
X81482000Y-76083300D01*
X67052000Y-62676700D02*
X68075400Y-62676700D01*
X56830000Y-52070000D02*
X56350000Y-52550000D01*
X57846200Y-52070000D02*
X56830000Y-52070000D01*
X77418000Y-33712500D02*
X74878000Y-31172500D01*
X87578000Y-33712500D02*
X77418000Y-33712500D01*
X74878000Y-29000000D02*
X74878000Y-31172500D01*
X74878000Y-31172500D02*
X72338000Y-33712500D01*
X123562000Y-56100000D02*
X123562500Y-56100000D01*
X54632200Y-35676700D02*
X55000000Y-35676700D01*
X53823300Y-36485600D02*
X54632200Y-35676700D01*
X53823300Y-37553900D02*
X53823300Y-36485600D01*
X54507800Y-38238400D02*
X53823300Y-37553900D01*
X57899100Y-38238400D02*
X54507800Y-38238400D01*
X58400000Y-37737500D02*
X57899100Y-38238400D01*
X55000000Y-34500000D02*
X55000000Y-35676700D01*
X127716700Y-78436700D02*
X126540000Y-77260000D01*
X129581700Y-78436700D02*
X127716700Y-78436700D01*
X130293800Y-77724600D02*
X129581700Y-78436700D01*
X130293800Y-74714200D02*
X130293800Y-77724600D01*
X124600000Y-69020400D02*
X130293800Y-74714200D01*
X123562500Y-56100000D02*
X124600000Y-57137500D01*
X81482000Y-77260000D02*
X81482000Y-76083300D01*
%TO.N,Net-(S1-S)*%
X60853200Y-55539400D02*
X59002500Y-55539400D01*
X54350800Y-55539400D02*
X59002500Y-55539400D01*
X54350000Y-55538600D02*
X54350800Y-55539400D01*
X54350000Y-52550000D02*
X54350000Y-55538600D01*
D28*
%TO.N,/Vin*%
X83002000Y-61950000D02*
X83002000Y-67400000D01*
X86150000Y-61950000D02*
X87050000Y-62850000D01*
X83002000Y-61950000D02*
X86150000Y-61950000D01*
D29*
%TO.N,Net-(J3-Pin_1)*%
X115500300Y-50023000D02*
X115523300Y-50000000D01*
X113262700Y-50023000D02*
X115500300Y-50023000D01*
X116450000Y-50000000D02*
X115523300Y-50000000D01*
%TO.N,Net-(J3-Pin_5)*%
X114667900Y-53018800D02*
X114951000Y-53301900D01*
X114667900Y-51356900D02*
X114667900Y-53018800D01*
X115224800Y-50800000D02*
X114667900Y-51356900D01*
X116450000Y-50800000D02*
X115224800Y-50800000D01*
%TO.N,Net-(P3-Pin_3)*%
X58450000Y-39647500D02*
X58382500Y-39580000D01*
X58450000Y-41537500D02*
X58450000Y-39647500D01*
X55000000Y-39580000D02*
X58382500Y-39580000D01*
X58382500Y-39580000D02*
X58400000Y-39562500D01*
%TO.N,Net-(P3-Pin_2)*%
X117805800Y-53944200D02*
X117900000Y-53850000D01*
X109981300Y-53944200D02*
X117805800Y-53944200D01*
X92899400Y-36862300D02*
X109981300Y-53944200D01*
X56354400Y-36862300D02*
X92899400Y-36862300D01*
X56176700Y-37040000D02*
X56354400Y-36862300D01*
X55000000Y-37040000D02*
X56176700Y-37040000D01*
%TO.N,Net-(J3-Pin_6)*%
X116450000Y-51600000D02*
X115523300Y-51600000D01*
X115460800Y-51662500D02*
X115523300Y-51600000D01*
X115294700Y-51662500D02*
X115460800Y-51662500D01*
%TO.N,Net-(J3-Pin_4)*%
X116450000Y-47600000D02*
X115523300Y-47600000D01*
X115432600Y-47509300D02*
X112274500Y-47509300D01*
X115523300Y-47600000D02*
X115432600Y-47509300D01*
%TO.N,Net-(J3-Pin_2)*%
X115442300Y-49281000D02*
X115523300Y-49200000D01*
X109195300Y-49281000D02*
X115442300Y-49281000D01*
X116450000Y-49200000D02*
X115523300Y-49200000D01*
%TO.N,Net-(J3-Pin_3)*%
X115393700Y-48270400D02*
X115523300Y-48400000D01*
X111003400Y-48270400D02*
X115393700Y-48270400D01*
X116450000Y-48400000D02*
X115523300Y-48400000D01*
D28*
%TO.N,+5V*%
X93102000Y-64602000D02*
X93102000Y-67400000D01*
X91650000Y-63150000D02*
X93102000Y-64602000D01*
X91650000Y-62850000D02*
X91650000Y-63150000D01*
X94400000Y-57150000D02*
X95802000Y-57150000D01*
X93650000Y-57900000D02*
X94400000Y-57150000D01*
X93650000Y-62250000D02*
X93650000Y-57900000D01*
X93050000Y-62850000D02*
X93650000Y-62250000D01*
X91650000Y-62850000D02*
X93050000Y-62850000D01*
D29*
X95814500Y-57137500D02*
X95802000Y-57150000D01*
X95814500Y-54050000D02*
X95814500Y-57137500D01*
D28*
X89102000Y-69802000D02*
X89102000Y-77260000D01*
X91504000Y-67400000D02*
X89102000Y-69802000D01*
X93102000Y-67400000D02*
X91504000Y-67400000D01*
D29*
%TO.N,/CS_11*%
X117376700Y-52231300D02*
X117376700Y-52400000D01*
X117612400Y-51995600D02*
X117376700Y-52231300D01*
X116450000Y-52400000D02*
X117376700Y-52400000D01*
%TO.N,Net-(J4-Pin_7)*%
X122730300Y-44393000D02*
X122700000Y-44423300D01*
X122730300Y-40945000D02*
X122730300Y-44393000D01*
X111962000Y-30176700D02*
X122730300Y-40945000D01*
X111962000Y-29000000D02*
X111962000Y-30176700D01*
X122700000Y-45350000D02*
X122700000Y-44423300D01*
%TO.N,/MOSI_00*%
X122692100Y-46800000D02*
X124950000Y-46800000D01*
X122389100Y-47103000D02*
X122692100Y-46800000D01*
%TO.N,/CS_00*%
X87578000Y-29000000D02*
X87578000Y-31887500D01*
X123214500Y-50800000D02*
X122862900Y-50448400D01*
X124950000Y-50800000D02*
X123214500Y-50800000D01*
X104899400Y-46738800D02*
X115292700Y-46738800D01*
X90048100Y-31887500D02*
X104899400Y-46738800D01*
X87578000Y-31887500D02*
X90048100Y-31887500D01*
%TO.N,Net-(J4-Pin_8)*%
X123500000Y-39174700D02*
X123500000Y-45350000D01*
X114502000Y-30176700D02*
X123500000Y-39174700D01*
X114502000Y-29000000D02*
X114502000Y-30176700D01*
%TO.N,/SCK_00*%
X123888900Y-48265600D02*
X124023300Y-48400000D01*
X122586200Y-48265600D02*
X123888900Y-48265600D01*
X124950000Y-48400000D02*
X124023300Y-48400000D01*
%TO.N,/MISO_20*%
X123885400Y-46276700D02*
X121100000Y-46276700D01*
X124427100Y-45735000D02*
X123885400Y-46276700D01*
X125137300Y-45735000D02*
X124427100Y-45735000D01*
X121100000Y-45350000D02*
X121100000Y-46276700D01*
%TO.N,/SCK_20*%
X121900000Y-44227500D02*
X121900000Y-45350000D01*
X122083900Y-44043600D02*
X121900000Y-44227500D01*
%TO.N,/CS_20*%
X117515600Y-47353500D02*
X118109800Y-47353500D01*
X116962100Y-46800000D02*
X117515600Y-47353500D01*
X116450000Y-46800000D02*
X116962100Y-46800000D01*
%TO.N,/MOSI_20*%
X120679900Y-44423300D02*
X120300000Y-44423300D01*
X121262500Y-43840700D02*
X120679900Y-44423300D01*
X120300000Y-45350000D02*
X120300000Y-44423300D01*
%TO.N,Net-(J2-Pin_9)*%
X123840500Y-49817200D02*
X124023300Y-50000000D01*
X118289600Y-49817200D02*
X123840500Y-49817200D01*
X117665600Y-50441200D02*
X118289600Y-49817200D01*
X124950000Y-50000000D02*
X124023300Y-50000000D01*
%TO.N,Net-(J2-Pin_10)*%
X92658000Y-29000000D02*
X93834700Y-29000000D01*
X124950000Y-49200000D02*
X124023300Y-49200000D01*
X108650300Y-43815600D02*
X93834700Y-29000000D01*
X115029700Y-43815600D02*
X108650300Y-43815600D01*
X117787200Y-46573100D02*
X115029700Y-43815600D01*
X118215700Y-46573100D02*
X117787200Y-46573100D01*
X120842600Y-49200000D02*
X118215700Y-46573100D01*
X124023300Y-49200000D02*
X120842600Y-49200000D01*
%TO.N,/P121*%
X121100000Y-55302300D02*
X121100000Y-53850000D01*
X121202700Y-55405000D02*
X121100000Y-55302300D01*
D28*
%TO.N,+3.3V*%
X68262000Y-58960000D02*
X86562000Y-77260000D01*
X67052000Y-58960000D02*
X68262000Y-58960000D01*
X97752000Y-61750000D02*
X103402000Y-67400000D01*
X95802000Y-61750000D02*
X97752000Y-61750000D01*
D29*
X103402000Y-67400000D02*
X104528700Y-67400000D01*
X107046100Y-64181600D02*
X104914500Y-62050000D01*
X107046100Y-68526700D02*
X107046100Y-64181600D01*
X104528700Y-67681800D02*
X104528700Y-67400000D01*
X105373600Y-68526700D02*
X104528700Y-67681800D01*
X107046100Y-68526700D02*
X105373600Y-68526700D01*
%TO.N,/P122*%
X120300000Y-50805000D02*
X120300000Y-53850000D01*
X120258300Y-50763300D02*
X120300000Y-50805000D01*
%TO.N,/SCL*%
X69798000Y-31887500D02*
X69798000Y-29000000D01*
%TO.N,/SDA*%
X125876700Y-51420900D02*
X125876700Y-51600000D01*
X126078400Y-51219200D02*
X125876700Y-51420900D01*
X124950000Y-51600000D02*
X125876700Y-51600000D01*
X72338000Y-31887500D02*
X72338000Y-29000000D01*
%TO.N,Net-(U4-REGC)*%
X123562000Y-58500000D02*
X122775200Y-57713000D01*
X122775500Y-57713000D02*
X123562500Y-58500000D01*
X122775200Y-57713000D02*
X122775500Y-57713000D01*
X121900000Y-56837500D02*
X121900000Y-53850000D01*
X122775200Y-57713000D02*
X121900000Y-56837500D01*
D28*
%TO.N,GND*%
X63253800Y-57660000D02*
X60853200Y-60060600D01*
X80787000Y-57660000D02*
X63253800Y-57660000D01*
X83002000Y-59875000D02*
X80787000Y-57660000D01*
X94182000Y-74318000D02*
X94182000Y-77260000D01*
X95602000Y-72898000D02*
X94182000Y-74318000D01*
X95602000Y-67400000D02*
X95602000Y-72898000D01*
X102102000Y-63600000D02*
X105902000Y-67400000D01*
X102102000Y-59450000D02*
X102102000Y-63600000D01*
D29*
X104390000Y-59450000D02*
X106990000Y-62050000D01*
X102102000Y-59450000D02*
X104390000Y-59450000D01*
D28*
X83002000Y-59875000D02*
X86457600Y-59875000D01*
D29*
X86457600Y-59875000D02*
X89350000Y-56982600D01*
X122700000Y-53000000D02*
X122700000Y-53850000D01*
X122800000Y-52900000D02*
X122700000Y-53000000D01*
X124050000Y-52900000D02*
X122800000Y-52900000D01*
X125638000Y-54487500D02*
X124050000Y-52900000D01*
X125638000Y-58500000D02*
X125638000Y-54487500D01*
X140600000Y-58500000D02*
X125638000Y-58500000D01*
X141780000Y-59680000D02*
X140600000Y-58500000D01*
X141780000Y-77260000D02*
X141780000Y-59680000D01*
%TD*%
%TA.AperFunction,Conductor*%
%TO.N,GND*%
G36*
X105492773Y-52074885D02*
G01*
X105513415Y-52091519D01*
X108144714Y-54722819D01*
X108178199Y-54784142D01*
X108173215Y-54853834D01*
X108131343Y-54909767D01*
X108065879Y-54934184D01*
X108057033Y-54934500D01*
X103562313Y-54934500D01*
X103495274Y-54914815D01*
X103457319Y-54876472D01*
X103456394Y-54875000D01*
X103436111Y-54842719D01*
X103307281Y-54713889D01*
X103153015Y-54616957D01*
X103098693Y-54597949D01*
X102981046Y-54556782D01*
X102981041Y-54556781D01*
X102800004Y-54536384D01*
X102799996Y-54536384D01*
X102618958Y-54556781D01*
X102618953Y-54556782D01*
X102446982Y-54616958D01*
X102292718Y-54713889D01*
X102163889Y-54842718D01*
X102066958Y-54996982D01*
X102006782Y-55168953D01*
X102006781Y-55168958D01*
X101986384Y-55349996D01*
X101986384Y-55350003D01*
X102006781Y-55531041D01*
X102006782Y-55531046D01*
X102026026Y-55586041D01*
X102066957Y-55703015D01*
X102163889Y-55857281D01*
X102292719Y-55986111D01*
X102446985Y-56083043D01*
X102604161Y-56138041D01*
X102618953Y-56143217D01*
X102618958Y-56143218D01*
X102783330Y-56161738D01*
X102816899Y-56170397D01*
X102833210Y-56177153D01*
X102833215Y-56177155D01*
X102955601Y-56201499D01*
X102955605Y-56201500D01*
X102955606Y-56201500D01*
X102955607Y-56201500D01*
X102978261Y-56201500D01*
X103045300Y-56221185D01*
X103091055Y-56273989D01*
X103100999Y-56343147D01*
X103083255Y-56391472D01*
X103016958Y-56496982D01*
X102956782Y-56668953D01*
X102956781Y-56668958D01*
X102936384Y-56849996D01*
X102936384Y-56850003D01*
X102956781Y-57031041D01*
X102956783Y-57031049D01*
X103010669Y-57185046D01*
X103014230Y-57254824D01*
X102979501Y-57315452D01*
X102917508Y-57347679D01*
X102893627Y-57350000D01*
X102352000Y-57350000D01*
X102352000Y-59200000D01*
X103477000Y-59200000D01*
X103477000Y-57802172D01*
X103476999Y-57802168D01*
X103475108Y-57784580D01*
X103487510Y-57715820D01*
X103535118Y-57664680D01*
X103602817Y-57647398D01*
X103612264Y-57648097D01*
X103612985Y-57648178D01*
X103614130Y-57648307D01*
X103678548Y-57675365D01*
X103687944Y-57683848D01*
X106623530Y-60619434D01*
X106657015Y-60680757D01*
X106652031Y-60750449D01*
X106610159Y-60806382D01*
X106548451Y-60830473D01*
X106499303Y-60835494D01*
X106332880Y-60890641D01*
X106332875Y-60890643D01*
X106183654Y-60982684D01*
X106059683Y-61106655D01*
X106055202Y-61112323D01*
X106053021Y-61110598D01*
X106010556Y-61148775D01*
X105941591Y-61159980D01*
X105877516Y-61132121D01*
X105855663Y-61106894D01*
X105855511Y-61107015D01*
X105852816Y-61103606D01*
X105851451Y-61102031D01*
X105851029Y-61101347D01*
X105725653Y-60975971D01*
X105725652Y-60975970D01*
X105587316Y-60890643D01*
X105574740Y-60882886D01*
X105574735Y-60882884D01*
X105406427Y-60827113D01*
X105302546Y-60816500D01*
X104526462Y-60816500D01*
X104526446Y-60816501D01*
X104422572Y-60827113D01*
X104254264Y-60882884D01*
X104254259Y-60882886D01*
X104103346Y-60975971D01*
X103977971Y-61101346D01*
X103884886Y-61252259D01*
X103884884Y-61252264D01*
X103829113Y-61420572D01*
X103818500Y-61524447D01*
X103818500Y-62575537D01*
X103818501Y-62575553D01*
X103829113Y-62679427D01*
X103883686Y-62844119D01*
X103884885Y-62847738D01*
X103977970Y-62998652D01*
X104103348Y-63124030D01*
X104254262Y-63217115D01*
X104422574Y-63272887D01*
X104526455Y-63283500D01*
X105200732Y-63283499D01*
X105267771Y-63303183D01*
X105288413Y-63319818D01*
X106376281Y-64407685D01*
X106409766Y-64469008D01*
X106412600Y-64495366D01*
X106412600Y-66029355D01*
X106392915Y-66096394D01*
X106340111Y-66142149D01*
X106270953Y-66152093D01*
X106256507Y-66149130D01*
X106128610Y-66114860D01*
X106128599Y-66114858D01*
X105902002Y-66095034D01*
X105901998Y-66095034D01*
X105675400Y-66114858D01*
X105675389Y-66114860D01*
X105455682Y-66173730D01*
X105455673Y-66173734D01*
X105249516Y-66269866D01*
X105249512Y-66269868D01*
X105176526Y-66320973D01*
X105176526Y-66320974D01*
X105855552Y-67000000D01*
X105849339Y-67000000D01*
X105747606Y-67027259D01*
X105656394Y-67079920D01*
X105581920Y-67154394D01*
X105529259Y-67245606D01*
X105502000Y-67347339D01*
X105502000Y-67353552D01*
X104814911Y-66666463D01*
X104776805Y-66658804D01*
X104726623Y-66610188D01*
X104711965Y-66554600D01*
X104710959Y-66554653D01*
X104710856Y-66554665D01*
X104710855Y-66554659D01*
X104710677Y-66554669D01*
X104710499Y-66551345D01*
X104707157Y-66520270D01*
X104703989Y-66490799D01*
X104652889Y-66353796D01*
X104565261Y-66236739D01*
X104448204Y-66149111D01*
X104311203Y-66098011D01*
X104250654Y-66091500D01*
X104250638Y-66091500D01*
X103217543Y-66091500D01*
X103150504Y-66071815D01*
X103129862Y-66055181D01*
X98235518Y-61160836D01*
X98235517Y-61160835D01*
X98154969Y-61107015D01*
X98141243Y-61097844D01*
X100727000Y-61097844D01*
X100733401Y-61157372D01*
X100733403Y-61157379D01*
X100783645Y-61292086D01*
X100783649Y-61292093D01*
X100869809Y-61407187D01*
X100869812Y-61407190D01*
X100984906Y-61493350D01*
X100984913Y-61493354D01*
X101119620Y-61543596D01*
X101119627Y-61543598D01*
X101179155Y-61549999D01*
X101179172Y-61550000D01*
X101852000Y-61550000D01*
X102352000Y-61550000D01*
X103024828Y-61550000D01*
X103024844Y-61549999D01*
X103084372Y-61543598D01*
X103084379Y-61543596D01*
X103219086Y-61493354D01*
X103219093Y-61493350D01*
X103334187Y-61407190D01*
X103334190Y-61407187D01*
X103420350Y-61292093D01*
X103420354Y-61292086D01*
X103470596Y-61157379D01*
X103470598Y-61157372D01*
X103476999Y-61097844D01*
X103477000Y-61097827D01*
X103477000Y-59700000D01*
X102352000Y-59700000D01*
X102352000Y-61550000D01*
X101852000Y-61550000D01*
X101852000Y-59700000D01*
X100727000Y-59700000D01*
X100727000Y-61097844D01*
X98141243Y-61097844D01*
X98111284Y-61077826D01*
X98061935Y-61057385D01*
X97973247Y-61020649D01*
X97973239Y-61020647D01*
X97899976Y-61006074D01*
X97826709Y-60991500D01*
X97826706Y-60991500D01*
X97162039Y-60991500D01*
X97095000Y-60971815D01*
X97062771Y-60941809D01*
X97040264Y-60911743D01*
X97040263Y-60911742D01*
X97040261Y-60911739D01*
X96923204Y-60824111D01*
X96902801Y-60816501D01*
X96786203Y-60773011D01*
X96725654Y-60766500D01*
X96725638Y-60766500D01*
X94878362Y-60766500D01*
X94878345Y-60766500D01*
X94817797Y-60773011D01*
X94817795Y-60773011D01*
X94680795Y-60824111D01*
X94660030Y-60839656D01*
X94606809Y-60879496D01*
X94541347Y-60903913D01*
X94473074Y-60889061D01*
X94423668Y-60839656D01*
X94408500Y-60780229D01*
X94408500Y-60409153D01*
X94428185Y-60342114D01*
X94480989Y-60296359D01*
X94550147Y-60286415D01*
X94606812Y-60309887D01*
X94684910Y-60368352D01*
X94684913Y-60368354D01*
X94819620Y-60418596D01*
X94819627Y-60418598D01*
X94879155Y-60424999D01*
X94879172Y-60425000D01*
X95552000Y-60425000D01*
X96052000Y-60425000D01*
X96724828Y-60425000D01*
X96724844Y-60424999D01*
X96784372Y-60418598D01*
X96784379Y-60418596D01*
X96919086Y-60368354D01*
X96919093Y-60368350D01*
X97034187Y-60282190D01*
X97034190Y-60282187D01*
X97120350Y-60167093D01*
X97120354Y-60167086D01*
X97170596Y-60032379D01*
X97170598Y-60032372D01*
X97176999Y-59972844D01*
X97177000Y-59972827D01*
X97177000Y-59700000D01*
X96052000Y-59700000D01*
X96052000Y-60425000D01*
X95552000Y-60425000D01*
X95552000Y-59200000D01*
X96052000Y-59200000D01*
X97177000Y-59200000D01*
X97177000Y-58927172D01*
X97176999Y-58927155D01*
X97170598Y-58867627D01*
X97170596Y-58867620D01*
X97120354Y-58732913D01*
X97120350Y-58732906D01*
X97034190Y-58617812D01*
X97034187Y-58617809D01*
X96919093Y-58531649D01*
X96919086Y-58531645D01*
X96784379Y-58481403D01*
X96784372Y-58481401D01*
X96724844Y-58475000D01*
X96052000Y-58475000D01*
X96052000Y-59200000D01*
X95552000Y-59200000D01*
X95552000Y-58475000D01*
X94879155Y-58475000D01*
X94819627Y-58481401D01*
X94819620Y-58481403D01*
X94684913Y-58531645D01*
X94684911Y-58531646D01*
X94606811Y-58590113D01*
X94541347Y-58614530D01*
X94473074Y-58599679D01*
X94423668Y-58550274D01*
X94408500Y-58490846D01*
X94408500Y-58265542D01*
X94428185Y-58198503D01*
X94444813Y-58177866D01*
X94528485Y-58094194D01*
X94589804Y-58060712D01*
X94659496Y-58065696D01*
X94675589Y-58073046D01*
X94680794Y-58075887D01*
X94680796Y-58075889D01*
X94817799Y-58126989D01*
X94845050Y-58129918D01*
X94878345Y-58133499D01*
X94878362Y-58133500D01*
X96725638Y-58133500D01*
X96725654Y-58133499D01*
X96752692Y-58130591D01*
X96786201Y-58126989D01*
X96923204Y-58075889D01*
X97040261Y-57988261D01*
X97127889Y-57871204D01*
X97153643Y-57802155D01*
X100727000Y-57802155D01*
X100727000Y-59200000D01*
X101852000Y-59200000D01*
X101852000Y-57350000D01*
X101179155Y-57350000D01*
X101119627Y-57356401D01*
X101119620Y-57356403D01*
X100984913Y-57406645D01*
X100984906Y-57406649D01*
X100869812Y-57492809D01*
X100869809Y-57492812D01*
X100783649Y-57607906D01*
X100783645Y-57607913D01*
X100733403Y-57742620D01*
X100733401Y-57742627D01*
X100727000Y-57802155D01*
X97153643Y-57802155D01*
X97178989Y-57734201D01*
X97182591Y-57700692D01*
X97185499Y-57673654D01*
X97185500Y-57673637D01*
X97185500Y-56626362D01*
X97185499Y-56626345D01*
X97182157Y-56595270D01*
X97178989Y-56565799D01*
X97127889Y-56428796D01*
X97040261Y-56311739D01*
X96923204Y-56224111D01*
X96915359Y-56221185D01*
X96786203Y-56173011D01*
X96725654Y-56166500D01*
X96725638Y-56166500D01*
X96572000Y-56166500D01*
X96504961Y-56146815D01*
X96459206Y-56094011D01*
X96448000Y-56042500D01*
X96448000Y-55302814D01*
X96467685Y-55235775D01*
X96506903Y-55197276D01*
X96581364Y-55151347D01*
X96625652Y-55124030D01*
X96751030Y-54998652D01*
X96751449Y-54997971D01*
X96751859Y-54997602D01*
X96755511Y-54992985D01*
X96756299Y-54993608D01*
X96803389Y-54951244D01*
X96872350Y-54940014D01*
X96936436Y-54967850D01*
X96954261Y-54988420D01*
X96955202Y-54987677D01*
X96959683Y-54993344D01*
X97083654Y-55117315D01*
X97232875Y-55209356D01*
X97232880Y-55209358D01*
X97399302Y-55264505D01*
X97399309Y-55264506D01*
X97502019Y-55274999D01*
X97639499Y-55274999D01*
X98139500Y-55274999D01*
X98276972Y-55274999D01*
X98276986Y-55274998D01*
X98379697Y-55264505D01*
X98546119Y-55209358D01*
X98546124Y-55209356D01*
X98695345Y-55117315D01*
X98819315Y-54993345D01*
X98911356Y-54844124D01*
X98911358Y-54844119D01*
X98966505Y-54677697D01*
X98966506Y-54677690D01*
X98976999Y-54574986D01*
X98977000Y-54574973D01*
X98977000Y-54300000D01*
X98139500Y-54300000D01*
X98139500Y-55274999D01*
X97639499Y-55274999D01*
X97639500Y-55274998D01*
X97639500Y-53800000D01*
X98139500Y-53800000D01*
X98976999Y-53800000D01*
X98976999Y-53525028D01*
X98976998Y-53525013D01*
X98966505Y-53422302D01*
X98911358Y-53255880D01*
X98911356Y-53255875D01*
X98819315Y-53106654D01*
X98695345Y-52982684D01*
X98546124Y-52890643D01*
X98546119Y-52890641D01*
X98379697Y-52835494D01*
X98379690Y-52835493D01*
X98276986Y-52825000D01*
X98139500Y-52825000D01*
X98139500Y-53800000D01*
X97639500Y-53800000D01*
X97639500Y-52825000D01*
X97502027Y-52825000D01*
X97502012Y-52825001D01*
X97399302Y-52835494D01*
X97232880Y-52890641D01*
X97232875Y-52890643D01*
X97083654Y-52982684D01*
X96959683Y-53106655D01*
X96955202Y-53112323D01*
X96953021Y-53110598D01*
X96910556Y-53148775D01*
X96841591Y-53159980D01*
X96777516Y-53132121D01*
X96755663Y-53106894D01*
X96755511Y-53107015D01*
X96752816Y-53103606D01*
X96751451Y-53102031D01*
X96751029Y-53101347D01*
X96625653Y-52975971D01*
X96625652Y-52975970D01*
X96487316Y-52890643D01*
X96474740Y-52882886D01*
X96474735Y-52882884D01*
X96306427Y-52827113D01*
X96202546Y-52816500D01*
X95426462Y-52816500D01*
X95426446Y-52816501D01*
X95322572Y-52827113D01*
X95154264Y-52882884D01*
X95154259Y-52882886D01*
X95003346Y-52975971D01*
X94877971Y-53101346D01*
X94784886Y-53252259D01*
X94784884Y-53252264D01*
X94729113Y-53420572D01*
X94718500Y-53524447D01*
X94718500Y-54575537D01*
X94718501Y-54575553D01*
X94729113Y-54679427D01*
X94784884Y-54847735D01*
X94784886Y-54847740D01*
X94800783Y-54873513D01*
X94877322Y-54997602D01*
X94877971Y-54998653D01*
X95003347Y-55124029D01*
X95003351Y-55124032D01*
X95122097Y-55197276D01*
X95168822Y-55249224D01*
X95181000Y-55302814D01*
X95181000Y-56042500D01*
X95161315Y-56109539D01*
X95108511Y-56155294D01*
X95057000Y-56166500D01*
X94878345Y-56166500D01*
X94817797Y-56173011D01*
X94817795Y-56173011D01*
X94680795Y-56224111D01*
X94563738Y-56311740D01*
X94563735Y-56311743D01*
X94541229Y-56341809D01*
X94485296Y-56383681D01*
X94441961Y-56391500D01*
X94325293Y-56391500D01*
X94298079Y-56396913D01*
X94270864Y-56402327D01*
X94270863Y-56402327D01*
X94178759Y-56420647D01*
X94178749Y-56420650D01*
X94159084Y-56428796D01*
X94040719Y-56477824D01*
X94040709Y-56477829D01*
X93916485Y-56560833D01*
X93863660Y-56613658D01*
X93810835Y-56666484D01*
X93281038Y-57196281D01*
X93219715Y-57229766D01*
X93193357Y-57232600D01*
X89600000Y-57232600D01*
X89600000Y-61483100D01*
X90797759Y-61483100D01*
X90864798Y-61502785D01*
X90910553Y-61555589D01*
X90920497Y-61624747D01*
X90897027Y-61681408D01*
X90868409Y-61719637D01*
X90843512Y-61752895D01*
X90792412Y-61889895D01*
X90792412Y-61889897D01*
X90785901Y-61950445D01*
X90785901Y-63749554D01*
X90792412Y-63810102D01*
X90792412Y-63810104D01*
X90826251Y-63900827D01*
X90843512Y-63947104D01*
X90931140Y-64064161D01*
X91048197Y-64151789D01*
X91185200Y-64202889D01*
X91212451Y-64205818D01*
X91245746Y-64209399D01*
X91245763Y-64209400D01*
X91585357Y-64209400D01*
X91652396Y-64229085D01*
X91673038Y-64245719D01*
X92307181Y-64879862D01*
X92340666Y-64941185D01*
X92343500Y-64967543D01*
X92343500Y-65970425D01*
X92323815Y-66037464D01*
X92271011Y-66083219D01*
X92232758Y-66093714D01*
X92192796Y-66098011D01*
X92192795Y-66098011D01*
X92055795Y-66149111D01*
X91938739Y-66236739D01*
X91851111Y-66353795D01*
X91800011Y-66490795D01*
X91800010Y-66490798D01*
X91795715Y-66530755D01*
X91768977Y-66595306D01*
X91711585Y-66635155D01*
X91672426Y-66641500D01*
X91429290Y-66641500D01*
X91356024Y-66656074D01*
X91282760Y-66670647D01*
X91282752Y-66670649D01*
X91144717Y-66727825D01*
X91020482Y-66810835D01*
X88512835Y-69318482D01*
X88429828Y-69442712D01*
X88429822Y-69442723D01*
X88400933Y-69512470D01*
X88400933Y-69512471D01*
X88372649Y-69580753D01*
X88372647Y-69580759D01*
X88343500Y-69727291D01*
X88343500Y-76068250D01*
X88323815Y-76135289D01*
X88295663Y-76166103D01*
X88178761Y-76257092D01*
X88178756Y-76257097D01*
X88026284Y-76422723D01*
X88026276Y-76422734D01*
X87935808Y-76561206D01*
X87882662Y-76606562D01*
X87813431Y-76615986D01*
X87750095Y-76586484D01*
X87728192Y-76561206D01*
X87637723Y-76422734D01*
X87637715Y-76422723D01*
X87485243Y-76257097D01*
X87485238Y-76257092D01*
X87323362Y-76131098D01*
X87307576Y-76118811D01*
X87307575Y-76118810D01*
X87307572Y-76118808D01*
X87109580Y-76011661D01*
X87109577Y-76011659D01*
X87109574Y-76011658D01*
X87109571Y-76011657D01*
X87109569Y-76011656D01*
X86896637Y-75938556D01*
X86674569Y-75901500D01*
X86449431Y-75901500D01*
X86449430Y-75901500D01*
X86363910Y-75915769D01*
X86294545Y-75907386D01*
X86255822Y-75881141D01*
X76926027Y-66551345D01*
X81693500Y-66551345D01*
X81693500Y-68248654D01*
X81700011Y-68309202D01*
X81700011Y-68309204D01*
X81714895Y-68349107D01*
X81751111Y-68446204D01*
X81838739Y-68563261D01*
X81955796Y-68650889D01*
X82070949Y-68693839D01*
X82092793Y-68701987D01*
X82092799Y-68701989D01*
X82120050Y-68704918D01*
X82153345Y-68708499D01*
X82153362Y-68708500D01*
X83850638Y-68708500D01*
X83850654Y-68708499D01*
X83877692Y-68705591D01*
X83911201Y-68701989D01*
X83911207Y-68701987D01*
X83925768Y-68696555D01*
X84048204Y-68650889D01*
X84165261Y-68563261D01*
X84252889Y-68446204D01*
X84303989Y-68309201D01*
X84307591Y-68275692D01*
X84310499Y-68248654D01*
X84310677Y-68245331D01*
X84310855Y-68245340D01*
X84310856Y-68245335D01*
X84310959Y-68245346D01*
X84312128Y-68245408D01*
X84330185Y-68183915D01*
X84382989Y-68138160D01*
X84415967Y-68132479D01*
X85102000Y-67446446D01*
X85102000Y-67452661D01*
X85129259Y-67554394D01*
X85181920Y-67645606D01*
X85256394Y-67720080D01*
X85347606Y-67772741D01*
X85449339Y-67800000D01*
X85455553Y-67800000D01*
X84776526Y-68479025D01*
X84849513Y-68530132D01*
X84849521Y-68530136D01*
X85055668Y-68626264D01*
X85055682Y-68626269D01*
X85275389Y-68685139D01*
X85275400Y-68685141D01*
X85501998Y-68704966D01*
X85502002Y-68704966D01*
X85728599Y-68685141D01*
X85728610Y-68685139D01*
X85948317Y-68626269D01*
X85948331Y-68626264D01*
X86154478Y-68530136D01*
X86227471Y-68479024D01*
X85548447Y-67800000D01*
X85554661Y-67800000D01*
X85656394Y-67772741D01*
X85747606Y-67720080D01*
X85822080Y-67645606D01*
X85874741Y-67554394D01*
X85902000Y-67452661D01*
X85902000Y-67446447D01*
X86581024Y-68125471D01*
X86632136Y-68052478D01*
X86728264Y-67846331D01*
X86728269Y-67846317D01*
X86787139Y-67626610D01*
X86787141Y-67626599D01*
X86806966Y-67400002D01*
X86806966Y-67399997D01*
X86787141Y-67173400D01*
X86787139Y-67173389D01*
X86728269Y-66953682D01*
X86728264Y-66953668D01*
X86632136Y-66747521D01*
X86632132Y-66747513D01*
X86581025Y-66674526D01*
X85902000Y-67353551D01*
X85902000Y-67347339D01*
X85874741Y-67245606D01*
X85822080Y-67154394D01*
X85747606Y-67079920D01*
X85656394Y-67027259D01*
X85554661Y-67000000D01*
X85548448Y-67000000D01*
X86227472Y-66320974D01*
X86154478Y-66269863D01*
X85948331Y-66173735D01*
X85948317Y-66173730D01*
X85728610Y-66114860D01*
X85728599Y-66114858D01*
X85502002Y-66095034D01*
X85501998Y-66095034D01*
X85275400Y-66114858D01*
X85275389Y-66114860D01*
X85055682Y-66173730D01*
X85055673Y-66173734D01*
X84849516Y-66269866D01*
X84849512Y-66269868D01*
X84776526Y-66320973D01*
X84776526Y-66320974D01*
X85455553Y-67000000D01*
X85449339Y-67000000D01*
X85347606Y-67027259D01*
X85256394Y-67079920D01*
X85181920Y-67154394D01*
X85129259Y-67245606D01*
X85102000Y-67347339D01*
X85102000Y-67353552D01*
X84414910Y-66666463D01*
X84376805Y-66658804D01*
X84326623Y-66610188D01*
X84311965Y-66554600D01*
X84310959Y-66554653D01*
X84310856Y-66554665D01*
X84310855Y-66554659D01*
X84310677Y-66554669D01*
X84310499Y-66551345D01*
X84307157Y-66520270D01*
X84303989Y-66490799D01*
X84252889Y-66353796D01*
X84165261Y-66236739D01*
X84048204Y-66149111D01*
X83911203Y-66098011D01*
X83871242Y-66093714D01*
X83806692Y-66066975D01*
X83766845Y-66009581D01*
X83760500Y-65970425D01*
X83760500Y-63073023D01*
X83780185Y-63005984D01*
X83819401Y-62967486D01*
X83950652Y-62886530D01*
X84076030Y-62761152D01*
X84076035Y-62761143D01*
X84080430Y-62755587D01*
X84137453Y-62715212D01*
X84177695Y-62708500D01*
X85784457Y-62708500D01*
X85851496Y-62728185D01*
X85872138Y-62744819D01*
X86149580Y-63022261D01*
X86183065Y-63083584D01*
X86185899Y-63109942D01*
X86185899Y-63749554D01*
X86192410Y-63810102D01*
X86192410Y-63810104D01*
X86226249Y-63900827D01*
X86243510Y-63947104D01*
X86331138Y-64064161D01*
X86448195Y-64151789D01*
X86585198Y-64202889D01*
X86612449Y-64205818D01*
X86645744Y-64209399D01*
X86645761Y-64209400D01*
X87454237Y-64209400D01*
X87454253Y-64209399D01*
X87481291Y-64206491D01*
X87514800Y-64202889D01*
X87651803Y-64151789D01*
X87768860Y-64064161D01*
X87856488Y-63947104D01*
X87907588Y-63810101D01*
X87911190Y-63776592D01*
X87914098Y-63749554D01*
X87914099Y-63749537D01*
X87914099Y-61950462D01*
X87914098Y-61950445D01*
X87910756Y-61919370D01*
X87907588Y-61889899D01*
X87905558Y-61884457D01*
X87874057Y-61800000D01*
X87856488Y-61752896D01*
X87802973Y-61681408D01*
X87778557Y-61615947D01*
X87793408Y-61547674D01*
X87842813Y-61498268D01*
X87902241Y-61483100D01*
X89100000Y-61483100D01*
X89100000Y-57232600D01*
X85471800Y-57232600D01*
X85471800Y-61030944D01*
X85474306Y-61054244D01*
X85461901Y-61123004D01*
X85414291Y-61174141D01*
X85351017Y-61191500D01*
X84177695Y-61191500D01*
X84110656Y-61171815D01*
X84080430Y-61144413D01*
X84076032Y-61138851D01*
X84076030Y-61138848D01*
X83950652Y-61013470D01*
X83950651Y-61013469D01*
X83949963Y-61013045D01*
X83949590Y-61012630D01*
X83944985Y-61008989D01*
X83945607Y-61008202D01*
X83903238Y-60961098D01*
X83892015Y-60892135D01*
X83919858Y-60828053D01*
X83940423Y-60810242D01*
X83939677Y-60809298D01*
X83945344Y-60804816D01*
X84069315Y-60680845D01*
X84161356Y-60531624D01*
X84161358Y-60531619D01*
X84216505Y-60365197D01*
X84216506Y-60365190D01*
X84226999Y-60262486D01*
X84227000Y-60262473D01*
X84227000Y-60125000D01*
X81777001Y-60125000D01*
X81777001Y-60262486D01*
X81787494Y-60365197D01*
X81842641Y-60531619D01*
X81842643Y-60531624D01*
X81934684Y-60680845D01*
X82058655Y-60804816D01*
X82064323Y-60809298D01*
X82062592Y-60811486D01*
X82100749Y-60853890D01*
X82111987Y-60922850D01*
X82084158Y-60986938D01*
X82058894Y-61008836D01*
X82059015Y-61008989D01*
X82055627Y-61011667D01*
X82054043Y-61013041D01*
X82053350Y-61013468D01*
X82053347Y-61013470D01*
X81927971Y-61138846D01*
X81834886Y-61289759D01*
X81834884Y-61289764D01*
X81779113Y-61458072D01*
X81768500Y-61561947D01*
X81768500Y-62338037D01*
X81768501Y-62338053D01*
X81779113Y-62441927D01*
X81834884Y-62610235D01*
X81834886Y-62610240D01*
X81853976Y-62641189D01*
X81927970Y-62761152D01*
X82053348Y-62886530D01*
X82184597Y-62967485D01*
X82231321Y-63019432D01*
X82243500Y-63073023D01*
X82243500Y-65970425D01*
X82223815Y-66037464D01*
X82171011Y-66083219D01*
X82132758Y-66093714D01*
X82092796Y-66098011D01*
X82092795Y-66098011D01*
X81955795Y-66149111D01*
X81838739Y-66236739D01*
X81751111Y-66353795D01*
X81700011Y-66490795D01*
X81700011Y-66490797D01*
X81693500Y-66551345D01*
X76926027Y-66551345D01*
X69862195Y-59487513D01*
X81777000Y-59487513D01*
X81777000Y-59625000D01*
X82752000Y-59625000D01*
X83252000Y-59625000D01*
X84226999Y-59625000D01*
X84226999Y-59487528D01*
X84226998Y-59487513D01*
X84216505Y-59384802D01*
X84161358Y-59218380D01*
X84161356Y-59218375D01*
X84069315Y-59069154D01*
X83945345Y-58945184D01*
X83796124Y-58853143D01*
X83796119Y-58853141D01*
X83629697Y-58797994D01*
X83629690Y-58797993D01*
X83526986Y-58787500D01*
X83252000Y-58787500D01*
X83252000Y-59625000D01*
X82752000Y-59625000D01*
X82752000Y-58787500D01*
X82477029Y-58787500D01*
X82477012Y-58787501D01*
X82374302Y-58797994D01*
X82207880Y-58853141D01*
X82207875Y-58853143D01*
X82058654Y-58945184D01*
X81934684Y-59069154D01*
X81842643Y-59218375D01*
X81842641Y-59218380D01*
X81787494Y-59384802D01*
X81787493Y-59384809D01*
X81777000Y-59487513D01*
X69862195Y-59487513D01*
X68745518Y-58370836D01*
X68745517Y-58370835D01*
X68639861Y-58300239D01*
X68621284Y-58287826D01*
X68487047Y-58232223D01*
X68432644Y-58188382D01*
X68410579Y-58122088D01*
X68410500Y-58117662D01*
X68410500Y-58061362D01*
X68410499Y-58061345D01*
X68405894Y-58018520D01*
X68403989Y-58000799D01*
X68399312Y-57988260D01*
X68381522Y-57940564D01*
X68352889Y-57863796D01*
X68265261Y-57746739D01*
X68148204Y-57659111D01*
X68116801Y-57647398D01*
X68011203Y-57608011D01*
X67950654Y-57601500D01*
X67950638Y-57601500D01*
X66153362Y-57601500D01*
X66153345Y-57601500D01*
X66092797Y-57608011D01*
X66092795Y-57608011D01*
X65955795Y-57659111D01*
X65838739Y-57746739D01*
X65751111Y-57863795D01*
X65700011Y-58000795D01*
X65700011Y-58000797D01*
X65693500Y-58061345D01*
X65693500Y-59858654D01*
X65700011Y-59919202D01*
X65700011Y-59919204D01*
X65751111Y-60056204D01*
X65838739Y-60173261D01*
X65955796Y-60260889D01*
X66007737Y-60280262D01*
X66073595Y-60304827D01*
X66129528Y-60346699D01*
X66153944Y-60412163D01*
X66139092Y-60480436D01*
X66121490Y-60504991D01*
X65976279Y-60662730D01*
X65976276Y-60662734D01*
X65853140Y-60851207D01*
X65762703Y-61057385D01*
X65707436Y-61275628D01*
X65707434Y-61275640D01*
X65688844Y-61499994D01*
X65688844Y-61500005D01*
X65707434Y-61724359D01*
X65707436Y-61724371D01*
X65762703Y-61942614D01*
X65853140Y-62148792D01*
X65976276Y-62337265D01*
X65976284Y-62337276D01*
X66118642Y-62491915D01*
X66128760Y-62502906D01*
X66306424Y-62641189D01*
X66342929Y-62660944D01*
X66392519Y-62710162D01*
X66407629Y-62778378D01*
X66383459Y-62843934D01*
X66342932Y-62879052D01*
X66306432Y-62898805D01*
X66306422Y-62898812D01*
X66128761Y-63037092D01*
X66128756Y-63037097D01*
X65976284Y-63202723D01*
X65976276Y-63202734D01*
X65853140Y-63391207D01*
X65762703Y-63597385D01*
X65707436Y-63815628D01*
X65707434Y-63815640D01*
X65688844Y-64039994D01*
X65688844Y-64040005D01*
X65707434Y-64264359D01*
X65707436Y-64264371D01*
X65762703Y-64482614D01*
X65853140Y-64688792D01*
X65976276Y-64877265D01*
X65976284Y-64877276D01*
X66128756Y-65042902D01*
X66128760Y-65042906D01*
X66306424Y-65181189D01*
X66306425Y-65181189D01*
X66306427Y-65181191D01*
X66433135Y-65249761D01*
X66504426Y-65288342D01*
X66717365Y-65361444D01*
X66939431Y-65398500D01*
X67164569Y-65398500D01*
X67386635Y-65361444D01*
X67599574Y-65288342D01*
X67797576Y-65181189D01*
X67975240Y-65042906D01*
X68127722Y-64877268D01*
X68250860Y-64688791D01*
X68341296Y-64482616D01*
X68396564Y-64264368D01*
X68402831Y-64188729D01*
X68427983Y-64123549D01*
X68484385Y-64082311D01*
X68554128Y-64078111D01*
X68614087Y-64111291D01*
X74603299Y-70100504D01*
X80572570Y-76069775D01*
X80606055Y-76131098D01*
X80601071Y-76200790D01*
X80562403Y-76253474D01*
X80562536Y-76253618D01*
X80561802Y-76254292D01*
X80561063Y-76255301D01*
X80558762Y-76257092D01*
X80558760Y-76257093D01*
X80558760Y-76257094D01*
X80500736Y-76320124D01*
X80495548Y-76325760D01*
X80435661Y-76361750D01*
X80365823Y-76359649D01*
X80308207Y-76320124D01*
X80288138Y-76285110D01*
X80242889Y-76163796D01*
X80221549Y-76135289D01*
X80155261Y-76046739D01*
X80038204Y-75959111D01*
X80032362Y-75956932D01*
X79901203Y-75908011D01*
X79840654Y-75901500D01*
X79840638Y-75901500D01*
X78043362Y-75901500D01*
X78043345Y-75901500D01*
X77982797Y-75908011D01*
X77982795Y-75908011D01*
X77845795Y-75959111D01*
X77728739Y-76046739D01*
X77641111Y-76163795D01*
X77590011Y-76300795D01*
X77590011Y-76300797D01*
X77583500Y-76361345D01*
X77583500Y-77701200D01*
X77563815Y-77768239D01*
X77511011Y-77813994D01*
X77459500Y-77825200D01*
X76251467Y-77825200D01*
X76184428Y-77805515D01*
X76163786Y-77788881D01*
X66472536Y-68097631D01*
X66472532Y-68097628D01*
X66368781Y-68028303D01*
X66368772Y-68028298D01*
X66253485Y-67980545D01*
X66253477Y-67980543D01*
X66131098Y-67956200D01*
X66131094Y-67956200D01*
X60889066Y-67956200D01*
X60822027Y-67936515D01*
X60801385Y-67919881D01*
X54415785Y-61534281D01*
X54382300Y-61472958D01*
X54387284Y-61403266D01*
X54429156Y-61347333D01*
X54494620Y-61322916D01*
X54503466Y-61322600D01*
X55212121Y-61322600D01*
X55408320Y-61291524D01*
X55408323Y-61291524D01*
X55597237Y-61230142D01*
X55774232Y-61139958D01*
X55934939Y-61023196D01*
X55934940Y-61023196D01*
X56075396Y-60882740D01*
X56075396Y-60882739D01*
X56192158Y-60722032D01*
X56282343Y-60545035D01*
X56343725Y-60356117D01*
X56350934Y-60310600D01*
X54793051Y-60310600D01*
X54824181Y-60256681D01*
X54858800Y-60127480D01*
X54858800Y-59993720D01*
X54824181Y-59864519D01*
X54793051Y-59810600D01*
X56350935Y-59810600D01*
X56350934Y-59810599D01*
X58853065Y-59810599D01*
X58853065Y-59810600D01*
X60410949Y-59810600D01*
X60379819Y-59864519D01*
X60345200Y-59993720D01*
X60345200Y-60127480D01*
X60379819Y-60256681D01*
X60410949Y-60310600D01*
X58853065Y-60310600D01*
X58860274Y-60356117D01*
X58921656Y-60545035D01*
X59011841Y-60722032D01*
X59128603Y-60882739D01*
X59128603Y-60882740D01*
X59269059Y-61023196D01*
X59429767Y-61139958D01*
X59606762Y-61230142D01*
X59795677Y-61291524D01*
X59991879Y-61322600D01*
X60603200Y-61322600D01*
X60603200Y-60502851D01*
X60657119Y-60533981D01*
X60786320Y-60568600D01*
X60920080Y-60568600D01*
X61049281Y-60533981D01*
X61103200Y-60502851D01*
X61103200Y-61322600D01*
X61714521Y-61322600D01*
X61910720Y-61291524D01*
X61910723Y-61291524D01*
X62099637Y-61230142D01*
X62276632Y-61139958D01*
X62437339Y-61023196D01*
X62437340Y-61023196D01*
X62577796Y-60882740D01*
X62577796Y-60882739D01*
X62694558Y-60722032D01*
X62784743Y-60545035D01*
X62846125Y-60356117D01*
X62853334Y-60310600D01*
X61295451Y-60310600D01*
X61326581Y-60256681D01*
X61361200Y-60127480D01*
X61361200Y-59993720D01*
X61326581Y-59864519D01*
X61295451Y-59810600D01*
X62853335Y-59810600D01*
X62853334Y-59810599D01*
X62846125Y-59765082D01*
X62784743Y-59576164D01*
X62694558Y-59399167D01*
X62577796Y-59238460D01*
X62577796Y-59238459D01*
X62437340Y-59098003D01*
X62276632Y-58981241D01*
X62099637Y-58891057D01*
X61910722Y-58829675D01*
X61714521Y-58798600D01*
X61103200Y-58798600D01*
X61103200Y-59618348D01*
X61049281Y-59587219D01*
X60920080Y-59552600D01*
X60786320Y-59552600D01*
X60657119Y-59587219D01*
X60603200Y-59618348D01*
X60603200Y-58798600D01*
X59991879Y-58798600D01*
X59795679Y-58829675D01*
X59795676Y-58829675D01*
X59606762Y-58891057D01*
X59429767Y-58981241D01*
X59269060Y-59098003D01*
X59269059Y-59098003D01*
X59128603Y-59238459D01*
X59128603Y-59238460D01*
X59011841Y-59399167D01*
X58921656Y-59576164D01*
X58860274Y-59765082D01*
X58853065Y-59810599D01*
X56350934Y-59810599D01*
X56343725Y-59765082D01*
X56282343Y-59576164D01*
X56192158Y-59399167D01*
X56075396Y-59238460D01*
X56075396Y-59238459D01*
X55934940Y-59098003D01*
X55774232Y-58981241D01*
X55597237Y-58891057D01*
X55408322Y-58829675D01*
X55212121Y-58798600D01*
X54600800Y-58798600D01*
X54600800Y-59618348D01*
X54546881Y-59587219D01*
X54417680Y-59552600D01*
X54283920Y-59552600D01*
X54154719Y-59587219D01*
X54100800Y-59618348D01*
X54100800Y-58798600D01*
X53489479Y-58798600D01*
X53293279Y-58829675D01*
X53267015Y-58838208D01*
X53197173Y-58840201D01*
X53137342Y-58804119D01*
X53106515Y-58741417D01*
X53104700Y-58720276D01*
X53104700Y-56888661D01*
X53124385Y-56821622D01*
X53177189Y-56775867D01*
X53246347Y-56765923D01*
X53267020Y-56770730D01*
X53291290Y-56778616D01*
X53488809Y-56809900D01*
X53488810Y-56809900D01*
X55212790Y-56809900D01*
X55212791Y-56809900D01*
X55410310Y-56778616D01*
X55600503Y-56716819D01*
X55778687Y-56626029D01*
X55940475Y-56508483D01*
X56081883Y-56367075D01*
X56185823Y-56224013D01*
X56241153Y-56181349D01*
X56286141Y-56172900D01*
X58917859Y-56172900D01*
X58984898Y-56192585D01*
X59018176Y-56224013D01*
X59122117Y-56367075D01*
X59263525Y-56508483D01*
X59425313Y-56626029D01*
X59598249Y-56714145D01*
X59603499Y-56716820D01*
X59636976Y-56727697D01*
X59793690Y-56778616D01*
X59991209Y-56809900D01*
X59991210Y-56809900D01*
X61715190Y-56809900D01*
X61715191Y-56809900D01*
X61912710Y-56778616D01*
X62102903Y-56716819D01*
X62281087Y-56626029D01*
X62442875Y-56508483D01*
X62584283Y-56367075D01*
X62701829Y-56205287D01*
X62792619Y-56027103D01*
X62854416Y-55836910D01*
X62885700Y-55639391D01*
X62885700Y-55439409D01*
X62854416Y-55241890D01*
X62816121Y-55124029D01*
X62792620Y-55051699D01*
X62765592Y-54998654D01*
X62701829Y-54873513D01*
X62584283Y-54711725D01*
X62442875Y-54570317D01*
X62281087Y-54452771D01*
X62102900Y-54361979D01*
X61912711Y-54300184D01*
X61813950Y-54284542D01*
X61715191Y-54268900D01*
X59991209Y-54268900D01*
X59959110Y-54273984D01*
X59793688Y-54300184D01*
X59603499Y-54361979D01*
X59425312Y-54452771D01*
X59333006Y-54519835D01*
X59263525Y-54570317D01*
X59263523Y-54570319D01*
X59263522Y-54570319D01*
X59122119Y-54711722D01*
X59122119Y-54711723D01*
X59122117Y-54711725D01*
X59036243Y-54829920D01*
X59018177Y-54854786D01*
X58962847Y-54897451D01*
X58917859Y-54905900D01*
X56286141Y-54905900D01*
X56219102Y-54886215D01*
X56185823Y-54854786D01*
X56180700Y-54847735D01*
X56081883Y-54711725D01*
X55940475Y-54570317D01*
X55778687Y-54452771D01*
X55600500Y-54361979D01*
X55410311Y-54300184D01*
X55311550Y-54284542D01*
X55212791Y-54268900D01*
X55212790Y-54268900D01*
X55107500Y-54268900D01*
X55040461Y-54249215D01*
X54994706Y-54196411D01*
X54983500Y-54144900D01*
X54983500Y-53785523D01*
X55003185Y-53718484D01*
X55042401Y-53679986D01*
X55173652Y-53599030D01*
X55262319Y-53510363D01*
X55323642Y-53476878D01*
X55393334Y-53481862D01*
X55437681Y-53510363D01*
X55526348Y-53599030D01*
X55677262Y-53692115D01*
X55845574Y-53747887D01*
X55949455Y-53758500D01*
X56750544Y-53758499D01*
X56854426Y-53747887D01*
X57022738Y-53692115D01*
X57173652Y-53599030D01*
X57299030Y-53473652D01*
X57392115Y-53322738D01*
X57447887Y-53154426D01*
X57458500Y-53050545D01*
X57458499Y-52965666D01*
X57467722Y-52934255D01*
X85471800Y-52934255D01*
X85471800Y-56732600D01*
X89100000Y-56732600D01*
X89600000Y-56732600D01*
X93228200Y-56732600D01*
X93228200Y-52934272D01*
X93228199Y-52934255D01*
X93221798Y-52874727D01*
X93221796Y-52874720D01*
X93171554Y-52740013D01*
X93171550Y-52740006D01*
X93085390Y-52624912D01*
X93085387Y-52624909D01*
X92970293Y-52538749D01*
X92970286Y-52538745D01*
X92835579Y-52488503D01*
X92835572Y-52488501D01*
X92776044Y-52482100D01*
X89600000Y-52482100D01*
X89600000Y-56732600D01*
X89100000Y-56732600D01*
X89100000Y-52482100D01*
X85923955Y-52482100D01*
X85864427Y-52488501D01*
X85864420Y-52488503D01*
X85729713Y-52538745D01*
X85729706Y-52538749D01*
X85614612Y-52624909D01*
X85614609Y-52624912D01*
X85528449Y-52740006D01*
X85528445Y-52740013D01*
X85478203Y-52874720D01*
X85478201Y-52874727D01*
X85471800Y-52934255D01*
X57467722Y-52934255D01*
X57478183Y-52898630D01*
X57530986Y-52852874D01*
X57600145Y-52842930D01*
X57623453Y-52848626D01*
X57660540Y-52861603D01*
X57665153Y-52863217D01*
X57665154Y-52863217D01*
X57665158Y-52863218D01*
X57846196Y-52883616D01*
X57846200Y-52883616D01*
X57846204Y-52883616D01*
X58027241Y-52863218D01*
X58027244Y-52863217D01*
X58027247Y-52863217D01*
X58199215Y-52803043D01*
X58353481Y-52706111D01*
X58482311Y-52577281D01*
X58579243Y-52423015D01*
X58639417Y-52251047D01*
X58647801Y-52176641D01*
X58649077Y-52165317D01*
X58676143Y-52100903D01*
X58733738Y-52061347D01*
X58772297Y-52055200D01*
X105425734Y-52055200D01*
X105492773Y-52074885D01*
G37*
%TD.AperFunction*%
%TA.AperFunction,Conductor*%
G36*
X97453496Y-62528185D02*
G01*
X97474138Y-62544819D01*
X102057181Y-67127862D01*
X102090666Y-67189185D01*
X102093500Y-67215543D01*
X102093500Y-68248654D01*
X102100011Y-68309202D01*
X102100011Y-68309204D01*
X102114895Y-68349107D01*
X102151111Y-68446204D01*
X102238739Y-68563261D01*
X102355796Y-68650889D01*
X102470949Y-68693839D01*
X102492793Y-68701987D01*
X102492799Y-68701989D01*
X102520050Y-68704918D01*
X102553345Y-68708499D01*
X102553362Y-68708500D01*
X104250638Y-68708500D01*
X104250654Y-68708499D01*
X104277692Y-68705591D01*
X104311201Y-68701989D01*
X104311205Y-68701987D01*
X104311207Y-68701987D01*
X104448199Y-68650891D01*
X104448199Y-68650890D01*
X104448204Y-68650889D01*
X104450067Y-68649494D01*
X104452249Y-68648680D01*
X104455989Y-68646638D01*
X104456282Y-68647175D01*
X104515526Y-68625070D01*
X104583801Y-68639914D01*
X104612068Y-68661072D01*
X104881529Y-68930533D01*
X104969767Y-69018771D01*
X104969768Y-69018772D01*
X105073518Y-69088096D01*
X105073524Y-69088099D01*
X105073525Y-69088100D01*
X105188815Y-69135855D01*
X105311201Y-69160199D01*
X105311205Y-69160200D01*
X105311206Y-69160200D01*
X106983706Y-69160200D01*
X107108494Y-69160200D01*
X119224034Y-69160200D01*
X119291073Y-69179885D01*
X119311715Y-69196519D01*
X125962061Y-75846865D01*
X125995546Y-75908188D01*
X125990562Y-75977880D01*
X125948690Y-76033813D01*
X125933398Y-76043600D01*
X125794431Y-76118805D01*
X125794422Y-76118812D01*
X125616761Y-76257092D01*
X125553548Y-76325760D01*
X125493661Y-76361750D01*
X125423823Y-76359649D01*
X125366207Y-76320124D01*
X125346138Y-76285110D01*
X125300889Y-76163796D01*
X125279549Y-76135289D01*
X125213261Y-76046739D01*
X125096204Y-75959111D01*
X125090362Y-75956932D01*
X124959203Y-75908011D01*
X124898654Y-75901500D01*
X124898638Y-75901500D01*
X123101362Y-75901500D01*
X123101345Y-75901500D01*
X123040797Y-75908011D01*
X123040795Y-75908011D01*
X122903795Y-75959111D01*
X122786739Y-76046739D01*
X122699111Y-76163795D01*
X122648011Y-76300795D01*
X122648011Y-76300797D01*
X122641500Y-76361345D01*
X122641500Y-76566754D01*
X122621815Y-76633793D01*
X122569011Y-76679548D01*
X122564954Y-76681315D01*
X122523225Y-76698600D01*
X122523218Y-76698603D01*
X122419467Y-76767928D01*
X122419463Y-76767931D01*
X121420515Y-77766881D01*
X121359192Y-77800366D01*
X121332834Y-77803200D01*
X115925140Y-77803200D01*
X115858101Y-77783515D01*
X115812346Y-77730711D01*
X115802402Y-77661553D01*
X115804934Y-77648759D01*
X115846564Y-77484368D01*
X115846565Y-77484359D01*
X115865156Y-77260005D01*
X115865156Y-77259994D01*
X115846565Y-77035640D01*
X115846563Y-77035628D01*
X115791296Y-76817385D01*
X115782138Y-76796507D01*
X115700860Y-76611209D01*
X115684706Y-76586484D01*
X115577723Y-76422734D01*
X115577715Y-76422723D01*
X115425243Y-76257097D01*
X115425238Y-76257092D01*
X115263362Y-76131098D01*
X115247576Y-76118811D01*
X115247575Y-76118810D01*
X115247572Y-76118808D01*
X115049580Y-76011661D01*
X115049577Y-76011659D01*
X115049574Y-76011658D01*
X115049571Y-76011657D01*
X115049569Y-76011656D01*
X114836637Y-75938556D01*
X114614569Y-75901500D01*
X114389431Y-75901500D01*
X114167362Y-75938556D01*
X113954430Y-76011656D01*
X113954419Y-76011661D01*
X113756427Y-76118808D01*
X113756422Y-76118812D01*
X113578761Y-76257092D01*
X113578756Y-76257097D01*
X113426284Y-76422723D01*
X113426276Y-76422734D01*
X113335808Y-76561206D01*
X113282662Y-76606562D01*
X113213431Y-76615986D01*
X113150095Y-76586484D01*
X113128192Y-76561206D01*
X113037723Y-76422734D01*
X113037715Y-76422723D01*
X112885243Y-76257097D01*
X112885238Y-76257092D01*
X112723362Y-76131098D01*
X112707576Y-76118811D01*
X112707575Y-76118810D01*
X112707572Y-76118808D01*
X112509580Y-76011661D01*
X112509577Y-76011659D01*
X112509574Y-76011658D01*
X112509571Y-76011657D01*
X112509569Y-76011656D01*
X112296637Y-75938556D01*
X112074569Y-75901500D01*
X111849431Y-75901500D01*
X111627362Y-75938556D01*
X111414430Y-76011656D01*
X111414419Y-76011661D01*
X111216427Y-76118808D01*
X111216422Y-76118812D01*
X111038761Y-76257092D01*
X111038756Y-76257097D01*
X110886284Y-76422723D01*
X110886276Y-76422734D01*
X110795808Y-76561206D01*
X110742662Y-76606562D01*
X110673431Y-76615986D01*
X110610095Y-76586484D01*
X110588192Y-76561206D01*
X110497723Y-76422734D01*
X110497715Y-76422723D01*
X110345243Y-76257097D01*
X110345238Y-76257092D01*
X110183362Y-76131098D01*
X110167576Y-76118811D01*
X110167575Y-76118810D01*
X110167572Y-76118808D01*
X109969580Y-76011661D01*
X109969577Y-76011659D01*
X109969574Y-76011658D01*
X109969571Y-76011657D01*
X109969569Y-76011656D01*
X109756637Y-75938556D01*
X109534569Y-75901500D01*
X109309431Y-75901500D01*
X109087362Y-75938556D01*
X108874430Y-76011656D01*
X108874419Y-76011661D01*
X108676427Y-76118808D01*
X108676422Y-76118812D01*
X108498761Y-76257092D01*
X108498756Y-76257097D01*
X108346284Y-76422723D01*
X108346276Y-76422734D01*
X108255808Y-76561206D01*
X108202662Y-76606562D01*
X108133431Y-76615986D01*
X108070095Y-76586484D01*
X108048192Y-76561206D01*
X107957723Y-76422734D01*
X107957715Y-76422723D01*
X107805243Y-76257097D01*
X107805238Y-76257092D01*
X107643362Y-76131098D01*
X107627576Y-76118811D01*
X107627575Y-76118810D01*
X107627572Y-76118808D01*
X107429580Y-76011661D01*
X107429577Y-76011659D01*
X107429574Y-76011658D01*
X107429571Y-76011657D01*
X107429569Y-76011656D01*
X107216637Y-75938556D01*
X106994569Y-75901500D01*
X106769431Y-75901500D01*
X106547362Y-75938556D01*
X106334430Y-76011656D01*
X106334419Y-76011661D01*
X106136427Y-76118808D01*
X106136422Y-76118812D01*
X105958761Y-76257092D01*
X105958756Y-76257097D01*
X105806284Y-76422723D01*
X105806276Y-76422734D01*
X105715808Y-76561206D01*
X105662662Y-76606562D01*
X105593431Y-76615986D01*
X105530095Y-76586484D01*
X105508192Y-76561206D01*
X105417723Y-76422734D01*
X105417715Y-76422723D01*
X105265243Y-76257097D01*
X105265238Y-76257092D01*
X105103362Y-76131098D01*
X105087576Y-76118811D01*
X105087575Y-76118810D01*
X105087572Y-76118808D01*
X104889580Y-76011661D01*
X104889577Y-76011659D01*
X104889574Y-76011658D01*
X104889571Y-76011657D01*
X104889569Y-76011656D01*
X104676637Y-75938556D01*
X104454569Y-75901500D01*
X104229431Y-75901500D01*
X104007362Y-75938556D01*
X103794430Y-76011656D01*
X103794419Y-76011661D01*
X103596427Y-76118808D01*
X103596422Y-76118812D01*
X103418761Y-76257092D01*
X103355548Y-76325760D01*
X103295661Y-76361750D01*
X103225823Y-76359649D01*
X103168207Y-76320124D01*
X103148138Y-76285110D01*
X103102889Y-76163796D01*
X103081549Y-76135289D01*
X103015261Y-76046739D01*
X102898204Y-75959111D01*
X102892362Y-75956932D01*
X102761203Y-75908011D01*
X102700654Y-75901500D01*
X102700638Y-75901500D01*
X100903362Y-75901500D01*
X100903345Y-75901500D01*
X100842797Y-75908011D01*
X100842795Y-75908011D01*
X100705795Y-75959111D01*
X100588739Y-76046739D01*
X100501111Y-76163795D01*
X100450011Y-76300795D01*
X100450011Y-76300797D01*
X100443500Y-76361345D01*
X100443500Y-77679200D01*
X100423815Y-77746239D01*
X100371011Y-77791994D01*
X100319500Y-77803200D01*
X98145140Y-77803200D01*
X98078101Y-77783515D01*
X98032346Y-77730711D01*
X98022402Y-77661553D01*
X98024934Y-77648759D01*
X98066564Y-77484368D01*
X98066565Y-77484359D01*
X98085156Y-77260005D01*
X98085156Y-77259994D01*
X98066565Y-77035640D01*
X98066563Y-77035628D01*
X98011296Y-76817385D01*
X98002138Y-76796507D01*
X97920860Y-76611209D01*
X97904706Y-76586484D01*
X97797723Y-76422734D01*
X97797715Y-76422723D01*
X97645243Y-76257097D01*
X97645238Y-76257092D01*
X97483362Y-76131098D01*
X97467576Y-76118811D01*
X97467575Y-76118810D01*
X97467572Y-76118808D01*
X97269580Y-76011661D01*
X97269577Y-76011659D01*
X97269574Y-76011658D01*
X97269571Y-76011657D01*
X97269569Y-76011656D01*
X97056637Y-75938556D01*
X96834569Y-75901500D01*
X96609431Y-75901500D01*
X96387362Y-75938556D01*
X96174430Y-76011656D01*
X96174419Y-76011661D01*
X95976427Y-76118808D01*
X95976422Y-76118812D01*
X95798761Y-76257092D01*
X95798756Y-76257097D01*
X95646284Y-76422723D01*
X95646276Y-76422734D01*
X95552251Y-76566650D01*
X95499105Y-76612007D01*
X95429873Y-76621430D01*
X95366538Y-76591928D01*
X95346868Y-76569951D01*
X95220113Y-76388926D01*
X95220108Y-76388920D01*
X95053082Y-76221894D01*
X94859578Y-76086399D01*
X94645492Y-75986570D01*
X94645486Y-75986567D01*
X94432000Y-75929364D01*
X94432000Y-76826988D01*
X94374993Y-76794075D01*
X94247826Y-76760000D01*
X94116174Y-76760000D01*
X93989007Y-76794075D01*
X93932000Y-76826988D01*
X93932000Y-75929364D01*
X93931999Y-75929364D01*
X93718513Y-75986567D01*
X93718507Y-75986570D01*
X93504422Y-76086399D01*
X93504420Y-76086400D01*
X93310926Y-76221886D01*
X93310920Y-76221891D01*
X93143891Y-76388920D01*
X93143890Y-76388922D01*
X93013575Y-76575031D01*
X92958998Y-76618655D01*
X92889499Y-76625848D01*
X92827145Y-76594326D01*
X92810425Y-76575031D01*
X92680109Y-76388922D01*
X92680108Y-76388920D01*
X92513082Y-76221894D01*
X92319578Y-76086399D01*
X92105492Y-75986570D01*
X92105486Y-75986567D01*
X91892000Y-75929364D01*
X91892000Y-76826988D01*
X91834993Y-76794075D01*
X91707826Y-76760000D01*
X91576174Y-76760000D01*
X91449007Y-76794075D01*
X91392000Y-76826988D01*
X91392000Y-75929364D01*
X91391999Y-75929364D01*
X91178513Y-75986567D01*
X91178507Y-75986570D01*
X90964422Y-76086399D01*
X90964420Y-76086400D01*
X90770926Y-76221886D01*
X90770920Y-76221891D01*
X90603891Y-76388920D01*
X90603890Y-76388922D01*
X90477131Y-76569952D01*
X90422554Y-76613577D01*
X90353055Y-76620769D01*
X90290701Y-76589247D01*
X90271752Y-76566656D01*
X90177722Y-76422732D01*
X90177715Y-76422725D01*
X90177715Y-76422723D01*
X90025243Y-76257097D01*
X90025238Y-76257092D01*
X89908337Y-76166103D01*
X89867524Y-76109392D01*
X89860500Y-76068250D01*
X89860500Y-70167543D01*
X89880185Y-70100504D01*
X89896819Y-70079862D01*
X90753482Y-69223199D01*
X91627575Y-68349105D01*
X91688896Y-68315622D01*
X91758588Y-68320606D01*
X91814521Y-68362478D01*
X91831435Y-68393452D01*
X91851111Y-68446205D01*
X91894925Y-68504732D01*
X91938739Y-68563261D01*
X92055796Y-68650889D01*
X92170949Y-68693839D01*
X92192793Y-68701987D01*
X92192799Y-68701989D01*
X92220050Y-68704918D01*
X92253345Y-68708499D01*
X92253362Y-68708500D01*
X93950638Y-68708500D01*
X93950654Y-68708499D01*
X93977692Y-68705591D01*
X94011201Y-68701989D01*
X94011207Y-68701987D01*
X94025768Y-68696555D01*
X94148204Y-68650889D01*
X94265261Y-68563261D01*
X94352889Y-68446204D01*
X94403989Y-68309201D01*
X94407591Y-68275692D01*
X94410499Y-68248654D01*
X94410677Y-68245331D01*
X94410855Y-68245340D01*
X94410856Y-68245335D01*
X94410959Y-68245346D01*
X94412128Y-68245408D01*
X94430185Y-68183915D01*
X94482989Y-68138160D01*
X94515967Y-68132479D01*
X95202000Y-67446446D01*
X95202000Y-67452661D01*
X95229259Y-67554394D01*
X95281920Y-67645606D01*
X95356394Y-67720080D01*
X95447606Y-67772741D01*
X95549339Y-67800000D01*
X95555553Y-67800000D01*
X94876526Y-68479025D01*
X94949513Y-68530132D01*
X94949521Y-68530136D01*
X95155668Y-68626264D01*
X95155682Y-68626269D01*
X95375389Y-68685139D01*
X95375400Y-68685141D01*
X95601998Y-68704966D01*
X95602002Y-68704966D01*
X95828599Y-68685141D01*
X95828610Y-68685139D01*
X96048317Y-68626269D01*
X96048331Y-68626264D01*
X96254478Y-68530136D01*
X96327471Y-68479024D01*
X95648447Y-67800000D01*
X95654661Y-67800000D01*
X95756394Y-67772741D01*
X95847606Y-67720080D01*
X95922080Y-67645606D01*
X95974741Y-67554394D01*
X96002000Y-67452661D01*
X96002000Y-67446447D01*
X96681024Y-68125471D01*
X96732136Y-68052478D01*
X96828264Y-67846331D01*
X96828269Y-67846317D01*
X96887139Y-67626610D01*
X96887141Y-67626599D01*
X96906966Y-67400002D01*
X96906966Y-67399997D01*
X96887141Y-67173400D01*
X96887139Y-67173389D01*
X96828269Y-66953682D01*
X96828264Y-66953668D01*
X96732136Y-66747521D01*
X96732132Y-66747513D01*
X96681025Y-66674526D01*
X96002000Y-67353551D01*
X96002000Y-67347339D01*
X95974741Y-67245606D01*
X95922080Y-67154394D01*
X95847606Y-67079920D01*
X95756394Y-67027259D01*
X95654661Y-67000000D01*
X95648448Y-67000000D01*
X96327472Y-66320974D01*
X96254478Y-66269863D01*
X96048331Y-66173735D01*
X96048317Y-66173730D01*
X95828610Y-66114860D01*
X95828599Y-66114858D01*
X95602002Y-66095034D01*
X95601998Y-66095034D01*
X95375400Y-66114858D01*
X95375389Y-66114860D01*
X95155682Y-66173730D01*
X95155673Y-66173734D01*
X94949516Y-66269866D01*
X94949512Y-66269868D01*
X94876526Y-66320973D01*
X94876526Y-66320974D01*
X95555553Y-67000000D01*
X95549339Y-67000000D01*
X95447606Y-67027259D01*
X95356394Y-67079920D01*
X95281920Y-67154394D01*
X95229259Y-67245606D01*
X95202000Y-67347339D01*
X95202000Y-67353552D01*
X94514910Y-66666463D01*
X94476805Y-66658804D01*
X94426623Y-66610188D01*
X94411965Y-66554600D01*
X94410959Y-66554653D01*
X94410856Y-66554665D01*
X94410855Y-66554659D01*
X94410677Y-66554669D01*
X94410499Y-66551345D01*
X94407157Y-66520270D01*
X94403989Y-66490799D01*
X94352889Y-66353796D01*
X94265261Y-66236739D01*
X94148204Y-66149111D01*
X94011203Y-66098011D01*
X93971242Y-66093714D01*
X93906692Y-66066975D01*
X93866845Y-66009581D01*
X93860500Y-65970425D01*
X93860500Y-64527291D01*
X93831351Y-64380756D01*
X93831351Y-64380754D01*
X93825400Y-64366385D01*
X93774174Y-64242715D01*
X93774173Y-64242714D01*
X93774170Y-64242708D01*
X93691166Y-64118485D01*
X93691163Y-64118481D01*
X93318173Y-63745492D01*
X93284688Y-63684169D01*
X93289672Y-63614478D01*
X93331543Y-63558544D01*
X93358394Y-63543252D01*
X93409284Y-63522174D01*
X93533515Y-63439166D01*
X94239166Y-62733515D01*
X94300856Y-62641189D01*
X94322174Y-62609284D01*
X94330498Y-62589186D01*
X94374335Y-62534785D01*
X94440629Y-62512718D01*
X94508329Y-62529995D01*
X94544325Y-62562328D01*
X94563736Y-62588258D01*
X94563737Y-62588259D01*
X94563739Y-62588261D01*
X94680796Y-62675889D01*
X94817799Y-62726989D01*
X94845050Y-62729918D01*
X94878345Y-62733499D01*
X94878362Y-62733500D01*
X96725638Y-62733500D01*
X96725654Y-62733499D01*
X96752692Y-62730591D01*
X96786201Y-62726989D01*
X96923204Y-62675889D01*
X97040261Y-62588261D01*
X97062771Y-62558191D01*
X97118704Y-62516319D01*
X97162039Y-62508500D01*
X97386457Y-62508500D01*
X97453496Y-62528185D01*
G37*
%TD.AperFunction*%
%TA.AperFunction,Conductor*%
G36*
X93716075Y-77067007D02*
G01*
X93682000Y-77194174D01*
X93682000Y-77325826D01*
X93716075Y-77452993D01*
X93748988Y-77510000D01*
X92075012Y-77510000D01*
X92107925Y-77452993D01*
X92142000Y-77325826D01*
X92142000Y-77194174D01*
X92107925Y-77067007D01*
X92075012Y-77010000D01*
X93748988Y-77010000D01*
X93716075Y-77067007D01*
G37*
%TD.AperFunction*%
%TA.AperFunction,Conductor*%
G36*
X123909539Y-60853185D02*
G01*
X123955294Y-60905989D01*
X123966500Y-60957500D01*
X123966500Y-69082798D01*
X123990843Y-69205177D01*
X123990845Y-69205185D01*
X124038598Y-69320472D01*
X124038603Y-69320481D01*
X124107928Y-69424232D01*
X124107931Y-69424236D01*
X129623981Y-74940285D01*
X129657466Y-75001608D01*
X129660300Y-75027966D01*
X129660300Y-75849219D01*
X129640615Y-75916258D01*
X129587811Y-75962013D01*
X129518653Y-75971957D01*
X129496038Y-75966501D01*
X129414634Y-75938555D01*
X129192569Y-75901500D01*
X128967431Y-75901500D01*
X128745362Y-75938556D01*
X128532430Y-76011656D01*
X128532419Y-76011661D01*
X128334429Y-76118807D01*
X128334427Y-76118808D01*
X128247298Y-76186624D01*
X128182304Y-76212266D01*
X128113764Y-76198699D01*
X128083455Y-76176451D01*
X119941636Y-68034631D01*
X119941632Y-68034628D01*
X119837881Y-67965303D01*
X119837872Y-67965298D01*
X119722585Y-67917545D01*
X119722577Y-67917543D01*
X119600198Y-67893200D01*
X119600194Y-67893200D01*
X107803600Y-67893200D01*
X107736561Y-67873515D01*
X107690806Y-67820711D01*
X107679600Y-67769200D01*
X107679600Y-64119205D01*
X107679599Y-64119201D01*
X107655256Y-63996822D01*
X107655255Y-63996815D01*
X107634664Y-63947104D01*
X107607501Y-63881525D01*
X107559777Y-63810101D01*
X107538172Y-63777766D01*
X107538169Y-63777763D01*
X107247085Y-63486680D01*
X107213600Y-63425357D01*
X107218584Y-63355666D01*
X107260455Y-63299732D01*
X107325920Y-63275315D01*
X107334766Y-63274999D01*
X107376972Y-63274999D01*
X107376986Y-63274998D01*
X107479697Y-63264505D01*
X107646119Y-63209358D01*
X107646124Y-63209356D01*
X107795345Y-63117315D01*
X107919315Y-62993345D01*
X108011356Y-62844124D01*
X108011358Y-62844119D01*
X108066505Y-62677697D01*
X108066506Y-62677690D01*
X108076999Y-62574986D01*
X108077000Y-62574973D01*
X108077000Y-62300000D01*
X106863500Y-62300000D01*
X106796461Y-62280315D01*
X106750706Y-62227511D01*
X106739500Y-62176000D01*
X106739500Y-61924000D01*
X106759185Y-61856961D01*
X106811989Y-61811206D01*
X106863500Y-61800000D01*
X108076999Y-61800000D01*
X108076999Y-61525028D01*
X108076998Y-61525013D01*
X108066505Y-61422302D01*
X108011358Y-61255880D01*
X108011356Y-61255875D01*
X107919315Y-61106654D01*
X107857842Y-61045181D01*
X107824357Y-60983858D01*
X107829341Y-60914166D01*
X107871213Y-60858233D01*
X107936677Y-60833816D01*
X107945523Y-60833500D01*
X123842500Y-60833500D01*
X123909539Y-60853185D01*
G37*
%TD.AperFunction*%
%TA.AperFunction,Conductor*%
G36*
X122005769Y-50470385D02*
G01*
X122051524Y-50523189D01*
X122061950Y-50560817D01*
X122069681Y-50629441D01*
X122069682Y-50629446D01*
X122085800Y-50675507D01*
X122128713Y-50798147D01*
X122129858Y-50801417D01*
X122210419Y-50929628D01*
X122226789Y-50955681D01*
X122355619Y-51084511D01*
X122509885Y-51181443D01*
X122681853Y-51241617D01*
X122681858Y-51241618D01*
X122727044Y-51246709D01*
X122791458Y-51273775D01*
X122800843Y-51282248D01*
X122810663Y-51292068D01*
X122810667Y-51292071D01*
X122914418Y-51361396D01*
X122914427Y-51361401D01*
X122940543Y-51372218D01*
X123029715Y-51409155D01*
X123152101Y-51433499D01*
X123152105Y-51433500D01*
X123152106Y-51433500D01*
X123717500Y-51433500D01*
X123784539Y-51453185D01*
X123830294Y-51505989D01*
X123841500Y-51557500D01*
X123841500Y-51898654D01*
X123848010Y-51959197D01*
X123849796Y-51966755D01*
X123847822Y-51967221D01*
X123852046Y-52026374D01*
X123848839Y-52037291D01*
X123848010Y-52040802D01*
X123841500Y-52101345D01*
X123841500Y-52617500D01*
X123821815Y-52684539D01*
X123769011Y-52730294D01*
X123717500Y-52741500D01*
X123201345Y-52741500D01*
X123140802Y-52748010D01*
X123140792Y-52748012D01*
X123129911Y-52752071D01*
X123065143Y-52756700D01*
X123065087Y-52757231D01*
X123062148Y-52756915D01*
X123060219Y-52757053D01*
X123058074Y-52756567D01*
X123057374Y-52756401D01*
X122997844Y-52750000D01*
X122950000Y-52750000D01*
X122950000Y-52777312D01*
X122930315Y-52844351D01*
X122900313Y-52876577D01*
X122886740Y-52886737D01*
X122799267Y-53003587D01*
X122743333Y-53045458D01*
X122673641Y-53050442D01*
X122612318Y-53016957D01*
X122600733Y-53003587D01*
X122548831Y-52934255D01*
X122513261Y-52886739D01*
X122513259Y-52886738D01*
X122513259Y-52886737D01*
X122499687Y-52876577D01*
X122457817Y-52820642D01*
X122450000Y-52777312D01*
X122450000Y-52750000D01*
X122402155Y-52750000D01*
X122342617Y-52756402D01*
X122341917Y-52756568D01*
X122341358Y-52756537D01*
X122334913Y-52757231D01*
X122334800Y-52756185D01*
X122272148Y-52752819D01*
X122270087Y-52752071D01*
X122259201Y-52748011D01*
X122259199Y-52748010D01*
X122198654Y-52741500D01*
X122198638Y-52741500D01*
X121601362Y-52741500D01*
X121601345Y-52741500D01*
X121540802Y-52748010D01*
X121533245Y-52749796D01*
X121532778Y-52747822D01*
X121473626Y-52752046D01*
X121462708Y-52748839D01*
X121459197Y-52748010D01*
X121398654Y-52741500D01*
X121398638Y-52741500D01*
X121057500Y-52741500D01*
X120990461Y-52721815D01*
X120944706Y-52669011D01*
X120933500Y-52617500D01*
X120933500Y-51244095D01*
X120952507Y-51178122D01*
X120967116Y-51154871D01*
X120991343Y-51116315D01*
X121051517Y-50944347D01*
X121053175Y-50929631D01*
X121071916Y-50763303D01*
X121071916Y-50763296D01*
X121052231Y-50588583D01*
X121064286Y-50519761D01*
X121111635Y-50468382D01*
X121175451Y-50450700D01*
X121938730Y-50450700D01*
X122005769Y-50470385D01*
G37*
%TD.AperFunction*%
%TA.AperFunction,Conductor*%
G36*
X92652673Y-37515485D02*
G01*
X92673315Y-37532119D01*
X105717714Y-50576519D01*
X105751199Y-50637842D01*
X105746215Y-50707534D01*
X105704343Y-50763467D01*
X105638879Y-50787884D01*
X105630033Y-50788200D01*
X58176700Y-50788200D01*
X58109661Y-50768515D01*
X58063906Y-50715711D01*
X58052700Y-50664200D01*
X58052700Y-44507499D01*
X58072385Y-44440460D01*
X58125189Y-44394705D01*
X58176700Y-44383499D01*
X58950537Y-44383499D01*
X58950544Y-44383499D01*
X59054426Y-44372887D01*
X59222738Y-44317115D01*
X59373652Y-44224030D01*
X59499030Y-44098652D01*
X59592115Y-43947738D01*
X59647887Y-43779426D01*
X59658500Y-43675545D01*
X59658499Y-43049456D01*
X59647887Y-42945574D01*
X59592115Y-42777262D01*
X59499030Y-42626348D01*
X59410363Y-42537681D01*
X59376878Y-42476358D01*
X59381862Y-42406666D01*
X59410363Y-42362319D01*
X59428323Y-42344359D01*
X59499030Y-42273652D01*
X59592115Y-42122738D01*
X59647887Y-41954426D01*
X59658500Y-41850545D01*
X59658499Y-41224456D01*
X59647887Y-41120574D01*
X59592115Y-40952262D01*
X59499030Y-40801348D01*
X59373652Y-40675970D01*
X59373651Y-40675969D01*
X59315526Y-40640117D01*
X59268802Y-40588169D01*
X59257581Y-40519206D01*
X59285424Y-40455124D01*
X59315529Y-40429040D01*
X59323652Y-40424030D01*
X59449030Y-40298652D01*
X59542115Y-40147738D01*
X59597887Y-39979426D01*
X59608500Y-39875545D01*
X59608499Y-39249456D01*
X59597887Y-39145574D01*
X59542115Y-38977262D01*
X59449030Y-38826348D01*
X59360363Y-38737681D01*
X59326878Y-38676358D01*
X59331862Y-38606666D01*
X59360363Y-38562319D01*
X59364025Y-38558657D01*
X59449030Y-38473652D01*
X59542115Y-38322738D01*
X59597887Y-38154426D01*
X59608500Y-38050545D01*
X59608499Y-37619799D01*
X59628183Y-37552761D01*
X59680987Y-37507006D01*
X59732499Y-37495800D01*
X92585634Y-37495800D01*
X92652673Y-37515485D01*
G37*
%TD.AperFunction*%
%TA.AperFunction,Conductor*%
G36*
X77668000Y-30330633D02*
G01*
X77881483Y-30273433D01*
X77881492Y-30273429D01*
X78095578Y-30173600D01*
X78289082Y-30038105D01*
X78456105Y-29871082D01*
X78582868Y-29690048D01*
X78637445Y-29646423D01*
X78706944Y-29639231D01*
X78769298Y-29670753D01*
X78788251Y-29693350D01*
X78882276Y-29837265D01*
X78882284Y-29837276D01*
X79034755Y-30002901D01*
X79034760Y-30002906D01*
X79212424Y-30141189D01*
X79212425Y-30141189D01*
X79212427Y-30141191D01*
X79259516Y-30166674D01*
X79410426Y-30248342D01*
X79623365Y-30321444D01*
X79845431Y-30358500D01*
X80070569Y-30358500D01*
X80292635Y-30321444D01*
X80505574Y-30248342D01*
X80703576Y-30141189D01*
X80881240Y-30002906D01*
X81002594Y-29871082D01*
X81033715Y-29837276D01*
X81033715Y-29837275D01*
X81033722Y-29837268D01*
X81124193Y-29698790D01*
X81177338Y-29653437D01*
X81246569Y-29644013D01*
X81309905Y-29673515D01*
X81331804Y-29698787D01*
X81422278Y-29837268D01*
X81422283Y-29837273D01*
X81422284Y-29837276D01*
X81574755Y-30002901D01*
X81574760Y-30002906D01*
X81752424Y-30141189D01*
X81752425Y-30141189D01*
X81752427Y-30141191D01*
X81799516Y-30166674D01*
X81950426Y-30248342D01*
X82163365Y-30321444D01*
X82385431Y-30358500D01*
X82610569Y-30358500D01*
X82832635Y-30321444D01*
X83045574Y-30248342D01*
X83243576Y-30141189D01*
X83421240Y-30002906D01*
X83542594Y-29871082D01*
X83573715Y-29837276D01*
X83573715Y-29837275D01*
X83573722Y-29837268D01*
X83664193Y-29698790D01*
X83717338Y-29653437D01*
X83786569Y-29644013D01*
X83849905Y-29673515D01*
X83871804Y-29698787D01*
X83962278Y-29837268D01*
X83962283Y-29837273D01*
X83962284Y-29837276D01*
X84114755Y-30002901D01*
X84114760Y-30002906D01*
X84292424Y-30141189D01*
X84292425Y-30141189D01*
X84292427Y-30141191D01*
X84339516Y-30166674D01*
X84490426Y-30248342D01*
X84703365Y-30321444D01*
X84925431Y-30358500D01*
X85150569Y-30358500D01*
X85372635Y-30321444D01*
X85585574Y-30248342D01*
X85783576Y-30141189D01*
X85961240Y-30002906D01*
X86082594Y-29871082D01*
X86113715Y-29837276D01*
X86113715Y-29837275D01*
X86113722Y-29837268D01*
X86204193Y-29698790D01*
X86257338Y-29653437D01*
X86326569Y-29644013D01*
X86389905Y-29673515D01*
X86411804Y-29698787D01*
X86502278Y-29837268D01*
X86502283Y-29837273D01*
X86502284Y-29837276D01*
X86654755Y-30002901D01*
X86654760Y-30002906D01*
X86832424Y-30141189D01*
X86832426Y-30141190D01*
X86832433Y-30141195D01*
X86879516Y-30166674D01*
X86929107Y-30215892D01*
X86944500Y-30275729D01*
X86944500Y-30797205D01*
X86924815Y-30864244D01*
X86872011Y-30909999D01*
X86859511Y-30914908D01*
X86826728Y-30925772D01*
X86805262Y-30932885D01*
X86805259Y-30932886D01*
X86654346Y-31025971D01*
X86528971Y-31151346D01*
X86435886Y-31302259D01*
X86435884Y-31302264D01*
X86380113Y-31470572D01*
X86369500Y-31574447D01*
X86369500Y-32200537D01*
X86369501Y-32200553D01*
X86380113Y-32304427D01*
X86435884Y-32472735D01*
X86435886Y-32472740D01*
X86528971Y-32623653D01*
X86617637Y-32712319D01*
X86651122Y-32773642D01*
X86646138Y-32843334D01*
X86617637Y-32887681D01*
X86528971Y-32976346D01*
X86528970Y-32976348D01*
X86501983Y-33020098D01*
X86450038Y-33066821D01*
X86396447Y-33079000D01*
X77731766Y-33079000D01*
X77664727Y-33059315D01*
X77644085Y-33042681D01*
X75547819Y-30946415D01*
X75514334Y-30885092D01*
X75511500Y-30858734D01*
X75511500Y-30275729D01*
X75531185Y-30208690D01*
X75576484Y-30166674D01*
X75623566Y-30141195D01*
X75623572Y-30141191D01*
X75623576Y-30141189D01*
X75801240Y-30002906D01*
X75922594Y-29871082D01*
X75953715Y-29837276D01*
X75953715Y-29837275D01*
X75953722Y-29837268D01*
X76047749Y-29693347D01*
X76100894Y-29647994D01*
X76170125Y-29638570D01*
X76233461Y-29668072D01*
X76253130Y-29690048D01*
X76379890Y-29871078D01*
X76546917Y-30038105D01*
X76740421Y-30173600D01*
X76954507Y-30273429D01*
X76954516Y-30273433D01*
X77168000Y-30330634D01*
X77168000Y-29433012D01*
X77225007Y-29465925D01*
X77352174Y-29500000D01*
X77483826Y-29500000D01*
X77610993Y-29465925D01*
X77668000Y-29433012D01*
X77668000Y-30330633D01*
G37*
%TD.AperFunction*%
%TA.AperFunction,Conductor*%
G36*
X149867539Y-25095185D02*
G01*
X149913294Y-25147989D01*
X149924500Y-25199500D01*
X149924500Y-81800500D01*
X149904815Y-81867539D01*
X149852011Y-81913294D01*
X149800500Y-81924500D01*
X50199500Y-81924500D01*
X50132461Y-81904815D01*
X50086706Y-81852011D01*
X50075500Y-81800500D01*
X50075500Y-77100000D01*
X56036140Y-77100000D01*
X56055562Y-77421087D01*
X56113549Y-77737511D01*
X56209241Y-78044599D01*
X56209245Y-78044610D01*
X56341267Y-78337952D01*
X56341268Y-78337954D01*
X56507685Y-78613243D01*
X56507690Y-78613251D01*
X56650681Y-78795764D01*
X57478342Y-77968102D01*
X57556932Y-78076272D01*
X57723728Y-78243068D01*
X57831895Y-78321656D01*
X57004234Y-79149317D01*
X57004234Y-79149318D01*
X57186748Y-79292309D01*
X57186756Y-79292314D01*
X57462045Y-79458731D01*
X57462047Y-79458732D01*
X57755389Y-79590754D01*
X57755400Y-79590758D01*
X58062488Y-79686450D01*
X58378912Y-79744437D01*
X58700000Y-79763859D01*
X59021087Y-79744437D01*
X59337511Y-79686450D01*
X59644599Y-79590758D01*
X59644610Y-79590754D01*
X59937952Y-79458732D01*
X59937954Y-79458731D01*
X60213243Y-79292314D01*
X60213251Y-79292308D01*
X60395764Y-79149318D01*
X60395764Y-79149317D01*
X59568104Y-78321657D01*
X59676272Y-78243068D01*
X59843068Y-78076272D01*
X59921657Y-77968104D01*
X60749317Y-78795764D01*
X60749318Y-78795764D01*
X60892308Y-78613251D01*
X60892314Y-78613243D01*
X61058731Y-78337954D01*
X61058732Y-78337952D01*
X61190754Y-78044610D01*
X61190758Y-78044599D01*
X61286450Y-77737511D01*
X61344437Y-77421087D01*
X61363859Y-77100000D01*
X61344437Y-76778912D01*
X61286450Y-76462488D01*
X61190758Y-76155400D01*
X61190754Y-76155389D01*
X61058732Y-75862047D01*
X61058731Y-75862045D01*
X60892314Y-75586756D01*
X60892309Y-75586748D01*
X60749317Y-75404234D01*
X59921656Y-76231895D01*
X59843068Y-76123728D01*
X59676272Y-75956932D01*
X59568103Y-75878342D01*
X60395764Y-75050681D01*
X60395764Y-75050680D01*
X60210296Y-74905375D01*
X60211088Y-74904363D01*
X60170469Y-74854245D01*
X60165180Y-74806318D01*
X60141267Y-74820598D01*
X60071435Y-74818300D01*
X60046115Y-74806653D01*
X59937954Y-74741268D01*
X59937952Y-74741267D01*
X59644610Y-74609245D01*
X59644599Y-74609241D01*
X59337511Y-74513549D01*
X59021087Y-74455562D01*
X58700000Y-74436140D01*
X58378912Y-74455562D01*
X58062488Y-74513549D01*
X57755400Y-74609241D01*
X57755389Y-74609245D01*
X57462047Y-74741267D01*
X57462045Y-74741268D01*
X57186756Y-74907685D01*
X57004234Y-75050681D01*
X57831895Y-75878342D01*
X57723728Y-75956932D01*
X57556932Y-76123728D01*
X57478342Y-76231895D01*
X56650681Y-75404234D01*
X56507685Y-75586756D01*
X56341268Y-75862045D01*
X56341267Y-75862047D01*
X56209245Y-76155389D01*
X56209241Y-76155400D01*
X56113549Y-76462488D01*
X56055562Y-76778912D01*
X56036140Y-77100000D01*
X50075500Y-77100000D01*
X50075500Y-72400000D01*
X53036140Y-72400000D01*
X53055562Y-72721087D01*
X53113549Y-73037511D01*
X53209241Y-73344599D01*
X53209245Y-73344610D01*
X53341267Y-73637952D01*
X53341268Y-73637954D01*
X53507685Y-73913243D01*
X53507690Y-73913251D01*
X53650681Y-74095764D01*
X54478342Y-73268103D01*
X54556932Y-73376272D01*
X54723728Y-73543068D01*
X54831895Y-73621656D01*
X54004234Y-74449317D01*
X54004234Y-74449318D01*
X54186748Y-74592309D01*
X54186756Y-74592314D01*
X54462045Y-74758731D01*
X54462047Y-74758732D01*
X54755389Y-74890754D01*
X54755400Y-74890758D01*
X55062488Y-74986450D01*
X55378912Y-75044437D01*
X55700000Y-75063859D01*
X56021087Y-75044437D01*
X56337511Y-74986450D01*
X56644599Y-74890758D01*
X56644610Y-74890754D01*
X56937952Y-74758732D01*
X56937954Y-74758731D01*
X57213243Y-74592314D01*
X57213251Y-74592308D01*
X57395764Y-74449318D01*
X57395764Y-74449317D01*
X56568104Y-73621657D01*
X56676272Y-73543068D01*
X56843068Y-73376272D01*
X56921657Y-73268104D01*
X57749317Y-74095764D01*
X57749318Y-74095764D01*
X57892308Y-73913251D01*
X57892314Y-73913243D01*
X58058731Y-73637954D01*
X58058732Y-73637952D01*
X58190754Y-73344610D01*
X58190758Y-73344599D01*
X58286450Y-73037511D01*
X58344437Y-72721087D01*
X58363859Y-72400000D01*
X59027624Y-72400000D01*
X59047108Y-72722114D01*
X59105277Y-73039540D01*
X59201278Y-73347620D01*
X59201284Y-73347635D01*
X59333726Y-73641910D01*
X59333727Y-73641911D01*
X59333729Y-73641915D01*
X59357791Y-73681718D01*
X59500676Y-73918081D01*
X59500682Y-73918089D01*
X59699700Y-74172116D01*
X59927883Y-74400299D01*
X60184866Y-74601633D01*
X60184073Y-74602644D01*
X60224693Y-74652763D01*
X60229981Y-74700689D01*
X60253895Y-74686410D01*
X60323727Y-74688708D01*
X60349044Y-74700353D01*
X60458085Y-74766271D01*
X60752362Y-74898715D01*
X60752371Y-74898717D01*
X60752379Y-74898721D01*
X61002316Y-74976604D01*
X61060459Y-74994722D01*
X61377881Y-75052891D01*
X61700000Y-75072376D01*
X62022119Y-75052891D01*
X62339541Y-74994722D01*
X62476181Y-74952143D01*
X62647620Y-74898721D01*
X62647624Y-74898719D01*
X62647638Y-74898715D01*
X62941915Y-74766271D01*
X63218083Y-74599322D01*
X63472113Y-74400302D01*
X63700302Y-74172113D01*
X63899322Y-73918083D01*
X64066271Y-73641915D01*
X64198715Y-73347638D01*
X64294722Y-73039541D01*
X64352891Y-72722119D01*
X64372376Y-72400000D01*
X64352891Y-72077881D01*
X64294722Y-71760459D01*
X64199662Y-71455400D01*
X64198721Y-71452379D01*
X64198717Y-71452371D01*
X64198715Y-71452362D01*
X64066271Y-71158085D01*
X63911100Y-70901400D01*
X63899323Y-70881918D01*
X63899317Y-70881910D01*
X63700299Y-70627883D01*
X63472116Y-70399700D01*
X63218089Y-70200682D01*
X63218081Y-70200676D01*
X63078308Y-70116181D01*
X62941915Y-70033729D01*
X62941911Y-70033727D01*
X62941910Y-70033726D01*
X62665315Y-69909241D01*
X62647638Y-69901285D01*
X62647635Y-69901284D01*
X62647620Y-69901278D01*
X62339540Y-69805277D01*
X62022114Y-69747108D01*
X61700000Y-69727624D01*
X61377885Y-69747108D01*
X61060459Y-69805277D01*
X60752379Y-69901278D01*
X60752364Y-69901284D01*
X60458089Y-70033726D01*
X60458087Y-70033728D01*
X60181918Y-70200676D01*
X60181910Y-70200682D01*
X59927883Y-70399700D01*
X59699700Y-70627883D01*
X59500682Y-70881910D01*
X59500676Y-70881918D01*
X59333728Y-71158087D01*
X59333726Y-71158089D01*
X59201284Y-71452364D01*
X59201278Y-71452379D01*
X59105277Y-71760459D01*
X59047108Y-72077885D01*
X59027624Y-72400000D01*
X58363859Y-72400000D01*
X58344437Y-72078912D01*
X58286450Y-71762488D01*
X58190758Y-71455400D01*
X58190754Y-71455389D01*
X58058732Y-71162047D01*
X58058731Y-71162045D01*
X57892314Y-70886756D01*
X57892309Y-70886748D01*
X57749317Y-70704234D01*
X56921656Y-71531895D01*
X56843068Y-71423728D01*
X56676272Y-71256932D01*
X56568103Y-71178342D01*
X57395764Y-70350681D01*
X57395764Y-70350680D01*
X57213251Y-70207690D01*
X57213243Y-70207685D01*
X56937954Y-70041268D01*
X56937952Y-70041267D01*
X56644610Y-69909245D01*
X56644599Y-69909241D01*
X56337511Y-69813549D01*
X56021087Y-69755562D01*
X55700000Y-69736140D01*
X55378912Y-69755562D01*
X55062488Y-69813549D01*
X54755400Y-69909241D01*
X54755389Y-69909245D01*
X54462047Y-70041267D01*
X54462045Y-70041268D01*
X54186756Y-70207685D01*
X54004234Y-70350681D01*
X54831895Y-71178342D01*
X54723728Y-71256932D01*
X54556932Y-71423728D01*
X54478342Y-71531895D01*
X53650681Y-70704234D01*
X53507685Y-70886756D01*
X53341268Y-71162045D01*
X53341267Y-71162047D01*
X53209245Y-71455389D01*
X53209241Y-71455400D01*
X53113549Y-71762488D01*
X53055562Y-72078912D01*
X53036140Y-72400000D01*
X50075500Y-72400000D01*
X50075500Y-57517668D01*
X50075501Y-57517286D01*
X50075576Y-57492812D01*
X50090407Y-52673601D01*
X51837700Y-52673601D01*
X51837700Y-60547998D01*
X51862043Y-60670377D01*
X51862045Y-60670385D01*
X51909798Y-60785672D01*
X51909803Y-60785681D01*
X51979128Y-60889432D01*
X51979131Y-60889436D01*
X60171463Y-69081768D01*
X60171467Y-69081771D01*
X60275218Y-69151096D01*
X60275224Y-69151099D01*
X60275225Y-69151100D01*
X60390515Y-69198855D01*
X60512901Y-69223199D01*
X60512905Y-69223200D01*
X60512906Y-69223200D01*
X60637694Y-69223200D01*
X65754934Y-69223200D01*
X65821973Y-69242885D01*
X65842615Y-69259519D01*
X75533863Y-78950769D01*
X75533867Y-78950772D01*
X75637621Y-79020099D01*
X75637623Y-79020099D01*
X75637625Y-79020101D01*
X75719147Y-79053868D01*
X75752915Y-79067855D01*
X75752917Y-79067855D01*
X75752922Y-79067857D01*
X75875301Y-79092199D01*
X75875305Y-79092200D01*
X75875306Y-79092200D01*
X82074795Y-79092200D01*
X82074796Y-79092199D01*
X82197185Y-79067855D01*
X82312475Y-79020100D01*
X82416233Y-78950771D01*
X83024332Y-78342670D01*
X83085653Y-78309187D01*
X83155344Y-78314171D01*
X83188171Y-78332498D01*
X83276424Y-78401189D01*
X83276426Y-78401190D01*
X83276429Y-78401192D01*
X83299847Y-78413865D01*
X83474426Y-78508342D01*
X83687365Y-78581444D01*
X83909431Y-78618500D01*
X84134569Y-78618500D01*
X84356635Y-78581444D01*
X84569574Y-78508342D01*
X84767576Y-78401189D01*
X84945240Y-78262906D01*
X85066594Y-78131082D01*
X85097715Y-78097276D01*
X85097715Y-78097275D01*
X85097722Y-78097268D01*
X85188193Y-77958790D01*
X85241338Y-77913437D01*
X85310569Y-77904013D01*
X85373905Y-77933515D01*
X85395804Y-77958787D01*
X85486278Y-78097268D01*
X85486283Y-78097273D01*
X85486284Y-78097276D01*
X85638756Y-78262902D01*
X85638760Y-78262906D01*
X85816424Y-78401189D01*
X85816425Y-78401189D01*
X85816427Y-78401191D01*
X85839847Y-78413865D01*
X86014426Y-78508342D01*
X86227365Y-78581444D01*
X86449431Y-78618500D01*
X86674569Y-78618500D01*
X86896635Y-78581444D01*
X87109574Y-78508342D01*
X87307576Y-78401189D01*
X87485240Y-78262906D01*
X87606594Y-78131082D01*
X87637715Y-78097276D01*
X87637715Y-78097275D01*
X87637722Y-78097268D01*
X87728193Y-77958790D01*
X87781338Y-77913437D01*
X87850569Y-77904013D01*
X87913905Y-77933515D01*
X87935804Y-77958787D01*
X88026278Y-78097268D01*
X88026283Y-78097273D01*
X88026284Y-78097276D01*
X88178756Y-78262902D01*
X88178760Y-78262906D01*
X88356424Y-78401189D01*
X88356425Y-78401189D01*
X88356427Y-78401191D01*
X88379847Y-78413865D01*
X88554426Y-78508342D01*
X88767365Y-78581444D01*
X88989431Y-78618500D01*
X89214569Y-78618500D01*
X89436635Y-78581444D01*
X89649574Y-78508342D01*
X89847576Y-78401189D01*
X89934755Y-78333332D01*
X89999749Y-78307689D01*
X90068289Y-78321255D01*
X90098600Y-78343504D01*
X90595629Y-78840533D01*
X90683864Y-78928768D01*
X90683868Y-78928772D01*
X90787618Y-78998096D01*
X90787624Y-78998099D01*
X90787625Y-78998100D01*
X90902915Y-79045855D01*
X91013512Y-79067854D01*
X91025301Y-79070199D01*
X91025305Y-79070200D01*
X91025306Y-79070200D01*
X121708995Y-79070200D01*
X121708996Y-79070199D01*
X121831385Y-79045855D01*
X121946675Y-78998100D01*
X122050433Y-78928771D01*
X122565339Y-78413863D01*
X122626660Y-78380380D01*
X122696351Y-78385364D01*
X122752283Y-78427233D01*
X122786739Y-78473261D01*
X122903796Y-78560889D01*
X123040799Y-78611989D01*
X123068050Y-78614918D01*
X123101345Y-78618499D01*
X123101362Y-78618500D01*
X124898638Y-78618500D01*
X124898654Y-78618499D01*
X124925692Y-78615591D01*
X124959201Y-78611989D01*
X125096204Y-78560889D01*
X125213261Y-78473261D01*
X125300889Y-78356204D01*
X125346138Y-78234887D01*
X125388009Y-78178956D01*
X125453474Y-78154539D01*
X125521746Y-78169391D01*
X125553545Y-78194236D01*
X125616760Y-78262906D01*
X125794424Y-78401189D01*
X125794425Y-78401189D01*
X125794427Y-78401191D01*
X125817847Y-78413865D01*
X125992426Y-78508342D01*
X126205365Y-78581444D01*
X126427431Y-78618500D01*
X126652569Y-78618500D01*
X126874630Y-78581445D01*
X126874631Y-78581444D01*
X126874635Y-78581444D01*
X126874637Y-78581442D01*
X126878849Y-78580376D01*
X126948669Y-78582988D01*
X126996991Y-78612895D01*
X127224629Y-78840533D01*
X127312864Y-78928768D01*
X127312868Y-78928772D01*
X127416618Y-78998096D01*
X127416624Y-78998099D01*
X127416625Y-78998100D01*
X127531915Y-79045855D01*
X127642512Y-79067854D01*
X127654301Y-79070199D01*
X127654305Y-79070200D01*
X127654306Y-79070200D01*
X129644095Y-79070200D01*
X129644096Y-79070199D01*
X129766485Y-79045855D01*
X129881775Y-78998100D01*
X129985533Y-78928771D01*
X130593822Y-78320480D01*
X130655143Y-78286997D01*
X130724834Y-78291981D01*
X130757663Y-78310309D01*
X130874424Y-78401189D01*
X130874425Y-78401189D01*
X130874427Y-78401191D01*
X130897847Y-78413865D01*
X131072426Y-78508342D01*
X131285365Y-78581444D01*
X131507431Y-78618500D01*
X131732569Y-78618500D01*
X131954635Y-78581444D01*
X132167574Y-78508342D01*
X132365576Y-78401189D01*
X132543240Y-78262906D01*
X132664594Y-78131082D01*
X132695715Y-78097276D01*
X132695715Y-78097275D01*
X132695722Y-78097268D01*
X132786193Y-77958790D01*
X132839338Y-77913437D01*
X132908569Y-77904013D01*
X132971905Y-77933515D01*
X132993804Y-77958787D01*
X133084278Y-78097268D01*
X133084283Y-78097273D01*
X133084284Y-78097276D01*
X133236756Y-78262902D01*
X133236760Y-78262906D01*
X133414424Y-78401189D01*
X133414425Y-78401189D01*
X133414427Y-78401191D01*
X133437847Y-78413865D01*
X133612426Y-78508342D01*
X133825365Y-78581444D01*
X134047431Y-78618500D01*
X134272569Y-78618500D01*
X134494635Y-78581444D01*
X134707574Y-78508342D01*
X134905576Y-78401189D01*
X135083240Y-78262906D01*
X135204594Y-78131082D01*
X135235715Y-78097276D01*
X135235715Y-78097275D01*
X135235722Y-78097268D01*
X135326193Y-77958790D01*
X135379338Y-77913437D01*
X135448569Y-77904013D01*
X135511905Y-77933515D01*
X135533804Y-77958787D01*
X135624278Y-78097268D01*
X135624283Y-78097273D01*
X135624284Y-78097276D01*
X135776756Y-78262902D01*
X135776760Y-78262906D01*
X135954424Y-78401189D01*
X135954425Y-78401189D01*
X135954427Y-78401191D01*
X135977847Y-78413865D01*
X136152426Y-78508342D01*
X136365365Y-78581444D01*
X136587431Y-78618500D01*
X136812569Y-78618500D01*
X137034635Y-78581444D01*
X137247574Y-78508342D01*
X137445576Y-78401189D01*
X137623240Y-78262906D01*
X137744594Y-78131082D01*
X137775715Y-78097276D01*
X137775715Y-78097275D01*
X137775722Y-78097268D01*
X137866193Y-77958790D01*
X137919338Y-77913437D01*
X137988569Y-77904013D01*
X138051905Y-77933515D01*
X138073804Y-77958787D01*
X138164278Y-78097268D01*
X138164283Y-78097273D01*
X138164284Y-78097276D01*
X138316756Y-78262902D01*
X138316760Y-78262906D01*
X138494424Y-78401189D01*
X138494425Y-78401189D01*
X138494427Y-78401191D01*
X138517847Y-78413865D01*
X138692426Y-78508342D01*
X138905365Y-78581444D01*
X139127431Y-78618500D01*
X139352569Y-78618500D01*
X139574635Y-78581444D01*
X139787574Y-78508342D01*
X139985576Y-78401189D01*
X140163240Y-78262906D01*
X140284594Y-78131082D01*
X140315715Y-78097276D01*
X140315715Y-78097275D01*
X140315722Y-78097268D01*
X140409749Y-77953347D01*
X140462894Y-77907994D01*
X140532125Y-77898570D01*
X140595461Y-77928072D01*
X140615130Y-77950048D01*
X140741890Y-78131078D01*
X140908917Y-78298105D01*
X141102421Y-78433600D01*
X141316507Y-78533429D01*
X141316516Y-78533433D01*
X141530000Y-78590634D01*
X141530000Y-77693012D01*
X141587007Y-77725925D01*
X141714174Y-77760000D01*
X141845826Y-77760000D01*
X141972993Y-77725925D01*
X142030000Y-77693012D01*
X142030000Y-78590633D01*
X142243483Y-78533433D01*
X142243492Y-78533429D01*
X142457578Y-78433600D01*
X142651082Y-78298105D01*
X142818105Y-78131082D01*
X142953600Y-77937578D01*
X143053429Y-77723492D01*
X143053432Y-77723486D01*
X143110636Y-77510000D01*
X142213012Y-77510000D01*
X142245925Y-77452993D01*
X142280000Y-77325826D01*
X142280000Y-77194174D01*
X142245925Y-77067007D01*
X142213012Y-77010000D01*
X143110636Y-77010000D01*
X143110635Y-77009999D01*
X143053432Y-76796513D01*
X143053429Y-76796507D01*
X142953600Y-76582422D01*
X142953599Y-76582420D01*
X142818113Y-76388926D01*
X142818108Y-76388920D01*
X142651082Y-76221894D01*
X142457578Y-76086399D01*
X142243492Y-75986570D01*
X142243486Y-75986567D01*
X142030000Y-75929364D01*
X142030000Y-76826988D01*
X141972993Y-76794075D01*
X141845826Y-76760000D01*
X141714174Y-76760000D01*
X141587007Y-76794075D01*
X141530000Y-76826988D01*
X141530000Y-75929364D01*
X141529999Y-75929364D01*
X141316513Y-75986567D01*
X141316507Y-75986570D01*
X141102422Y-76086399D01*
X141102420Y-76086400D01*
X140908926Y-76221886D01*
X140908920Y-76221891D01*
X140741891Y-76388920D01*
X140741890Y-76388922D01*
X140615131Y-76569952D01*
X140560554Y-76613577D01*
X140491055Y-76620769D01*
X140428701Y-76589247D01*
X140409752Y-76566656D01*
X140315722Y-76422732D01*
X140315715Y-76422725D01*
X140315715Y-76422723D01*
X140163243Y-76257097D01*
X140163238Y-76257092D01*
X140001362Y-76131098D01*
X139985576Y-76118811D01*
X139985575Y-76118810D01*
X139985572Y-76118808D01*
X139787580Y-76011661D01*
X139787577Y-76011659D01*
X139787574Y-76011658D01*
X139787571Y-76011657D01*
X139787569Y-76011656D01*
X139574637Y-75938556D01*
X139352569Y-75901500D01*
X139127431Y-75901500D01*
X138905362Y-75938556D01*
X138692430Y-76011656D01*
X138692419Y-76011661D01*
X138494427Y-76118808D01*
X138494422Y-76118812D01*
X138316761Y-76257092D01*
X138316756Y-76257097D01*
X138164284Y-76422723D01*
X138164276Y-76422734D01*
X138073808Y-76561206D01*
X138020662Y-76606562D01*
X137951431Y-76615986D01*
X137888095Y-76586484D01*
X137866192Y-76561206D01*
X137775723Y-76422734D01*
X137775715Y-76422723D01*
X137623243Y-76257097D01*
X137623238Y-76257092D01*
X137461362Y-76131098D01*
X137445576Y-76118811D01*
X137445575Y-76118810D01*
X137445572Y-76118808D01*
X137247580Y-76011661D01*
X137247577Y-76011659D01*
X137247574Y-76011658D01*
X137247571Y-76011657D01*
X137247569Y-76011656D01*
X137034637Y-75938556D01*
X136812569Y-75901500D01*
X136587431Y-75901500D01*
X136365362Y-75938556D01*
X136152430Y-76011656D01*
X136152419Y-76011661D01*
X135954427Y-76118808D01*
X135954422Y-76118812D01*
X135776761Y-76257092D01*
X135776756Y-76257097D01*
X135624284Y-76422723D01*
X135624276Y-76422734D01*
X135533808Y-76561206D01*
X135480662Y-76606562D01*
X135411431Y-76615986D01*
X135348095Y-76586484D01*
X135326192Y-76561206D01*
X135235723Y-76422734D01*
X135235715Y-76422723D01*
X135083243Y-76257097D01*
X135083238Y-76257092D01*
X134921362Y-76131098D01*
X134905576Y-76118811D01*
X134905575Y-76118810D01*
X134905572Y-76118808D01*
X134707580Y-76011661D01*
X134707577Y-76011659D01*
X134707574Y-76011658D01*
X134707571Y-76011657D01*
X134707569Y-76011656D01*
X134494637Y-75938556D01*
X134272569Y-75901500D01*
X134047431Y-75901500D01*
X133825362Y-75938556D01*
X133612430Y-76011656D01*
X133612419Y-76011661D01*
X133414427Y-76118808D01*
X133414422Y-76118812D01*
X133236761Y-76257092D01*
X133236756Y-76257097D01*
X133084284Y-76422723D01*
X133084276Y-76422734D01*
X132993808Y-76561206D01*
X132940662Y-76606562D01*
X132871431Y-76615986D01*
X132808095Y-76586484D01*
X132786192Y-76561206D01*
X132695723Y-76422734D01*
X132695715Y-76422723D01*
X132543243Y-76257097D01*
X132543238Y-76257092D01*
X132381362Y-76131098D01*
X132365576Y-76118811D01*
X132365575Y-76118810D01*
X132365572Y-76118808D01*
X132167580Y-76011661D01*
X132167577Y-76011659D01*
X132167574Y-76011658D01*
X132167571Y-76011657D01*
X132167569Y-76011656D01*
X131954637Y-75938556D01*
X131732569Y-75901500D01*
X131507431Y-75901500D01*
X131285362Y-75938556D01*
X131091563Y-76005088D01*
X131021764Y-76008238D01*
X130961343Y-75973152D01*
X130929482Y-75910969D01*
X130927300Y-75887807D01*
X130927300Y-74651805D01*
X130927299Y-74651801D01*
X130917320Y-74601633D01*
X130902955Y-74529415D01*
X130855200Y-74414125D01*
X130855199Y-74414124D01*
X130855196Y-74414118D01*
X130785872Y-74310368D01*
X130785871Y-74310367D01*
X130697633Y-74222129D01*
X125269819Y-68794315D01*
X125236334Y-68732992D01*
X125233500Y-68706634D01*
X125233500Y-59848999D01*
X125253185Y-59781960D01*
X125305989Y-59736205D01*
X125357500Y-59724999D01*
X125387499Y-59724999D01*
X125887500Y-59724999D01*
X126024972Y-59724999D01*
X126024986Y-59724998D01*
X126127697Y-59714505D01*
X126294119Y-59659358D01*
X126294124Y-59659356D01*
X126443345Y-59567315D01*
X126567315Y-59443345D01*
X126659356Y-59294124D01*
X126659358Y-59294119D01*
X126714505Y-59127697D01*
X126714506Y-59127690D01*
X126724999Y-59024986D01*
X126725000Y-59024973D01*
X126725000Y-58750000D01*
X125887500Y-58750000D01*
X125887500Y-59724999D01*
X125387499Y-59724999D01*
X125387500Y-59724998D01*
X125387500Y-58250000D01*
X125887500Y-58250000D01*
X126724999Y-58250000D01*
X126724999Y-57975028D01*
X126724998Y-57975013D01*
X126714505Y-57872302D01*
X126659358Y-57705880D01*
X126659356Y-57705875D01*
X126567315Y-57556654D01*
X126443343Y-57432682D01*
X126399336Y-57405539D01*
X126352611Y-57353592D01*
X126341388Y-57284629D01*
X126369231Y-57220547D01*
X126399336Y-57194461D01*
X126443343Y-57167317D01*
X126567315Y-57043345D01*
X126659356Y-56894124D01*
X126659358Y-56894119D01*
X126714505Y-56727697D01*
X126714506Y-56727690D01*
X126724999Y-56624986D01*
X126725000Y-56624973D01*
X126725000Y-56350000D01*
X125887500Y-56350000D01*
X125887500Y-58250000D01*
X125387500Y-58250000D01*
X125387500Y-55850000D01*
X125887500Y-55850000D01*
X126724999Y-55850000D01*
X126724999Y-55575028D01*
X126724998Y-55575013D01*
X126714505Y-55472302D01*
X126659358Y-55305880D01*
X126659356Y-55305875D01*
X126567315Y-55156654D01*
X126443345Y-55032684D01*
X126294124Y-54940643D01*
X126294119Y-54940641D01*
X126127697Y-54885494D01*
X126127690Y-54885493D01*
X126024986Y-54875000D01*
X125887500Y-54875000D01*
X125887500Y-55850000D01*
X125387500Y-55850000D01*
X125387500Y-54875000D01*
X125250027Y-54875000D01*
X125250012Y-54875001D01*
X125147302Y-54885494D01*
X124980880Y-54940641D01*
X124980875Y-54940643D01*
X124831654Y-55032684D01*
X124707683Y-55156655D01*
X124703202Y-55162323D01*
X124701021Y-55160598D01*
X124658556Y-55198775D01*
X124589591Y-55209980D01*
X124525516Y-55182121D01*
X124503663Y-55156894D01*
X124503511Y-55157015D01*
X124500816Y-55153606D01*
X124499451Y-55152031D01*
X124499029Y-55151347D01*
X124373653Y-55025971D01*
X124373652Y-55025970D01*
X124235316Y-54940643D01*
X124222740Y-54932886D01*
X124216195Y-54929835D01*
X124217224Y-54927627D01*
X124169282Y-54894435D01*
X124142458Y-54829920D01*
X124154772Y-54761144D01*
X124166461Y-54742193D01*
X124200889Y-54696204D01*
X124207792Y-54677697D01*
X124251987Y-54559207D01*
X124251987Y-54559205D01*
X124251989Y-54559201D01*
X124255591Y-54525692D01*
X124258499Y-54498654D01*
X124258500Y-54498637D01*
X124258500Y-53282500D01*
X124278185Y-53215461D01*
X124330989Y-53169706D01*
X124382500Y-53158500D01*
X125598638Y-53158500D01*
X125598654Y-53158499D01*
X125625692Y-53155591D01*
X125659201Y-53151989D01*
X125796204Y-53100889D01*
X125796204Y-53100888D01*
X125796206Y-53100888D01*
X125796206Y-53100887D01*
X125822508Y-53081198D01*
X125853187Y-53058233D01*
X125918651Y-53033816D01*
X125927497Y-53033500D01*
X125939095Y-53033500D01*
X125939096Y-53033499D01*
X126061485Y-53009155D01*
X126176775Y-52961400D01*
X126280533Y-52892071D01*
X127197172Y-51975433D01*
X127266501Y-51871675D01*
X127305607Y-51777262D01*
X127314255Y-51756385D01*
X127338600Y-51633994D01*
X127338600Y-38734506D01*
X127314255Y-38612115D01*
X127294965Y-38565545D01*
X127266501Y-38496825D01*
X127251017Y-38473652D01*
X127197172Y-38393066D01*
X127197169Y-38393063D01*
X115680936Y-26876831D01*
X115680932Y-26876828D01*
X115577181Y-26807503D01*
X115577172Y-26807498D01*
X115461885Y-26759745D01*
X115461877Y-26759743D01*
X115339498Y-26735400D01*
X115339494Y-26735400D01*
X72175706Y-26735400D01*
X72175702Y-26735400D01*
X72053319Y-26759743D01*
X72053314Y-26759745D01*
X72019548Y-26773729D01*
X72019549Y-26773730D01*
X71938026Y-26807498D01*
X71938022Y-26807500D01*
X71834271Y-26876824D01*
X71834263Y-26876830D01*
X71036022Y-27675072D01*
X70974699Y-27708557D01*
X70905007Y-27703573D01*
X70899843Y-27701214D01*
X70757203Y-27648011D01*
X70696654Y-27641500D01*
X70696638Y-27641500D01*
X68899362Y-27641500D01*
X68899345Y-27641500D01*
X68838797Y-27648011D01*
X68838795Y-27648011D01*
X68701795Y-27699111D01*
X68584739Y-27786739D01*
X68497111Y-27903795D01*
X68446011Y-28040795D01*
X68446011Y-28040797D01*
X68439500Y-28101345D01*
X68439500Y-29898654D01*
X68446011Y-29959202D01*
X68446011Y-29959204D01*
X68495146Y-30090936D01*
X68497111Y-30096204D01*
X68584739Y-30213261D01*
X68701796Y-30300889D01*
X68791682Y-30334415D01*
X68838793Y-30351987D01*
X68838799Y-30351989D01*
X68866050Y-30354918D01*
X68899345Y-30358499D01*
X68899362Y-30358500D01*
X69040500Y-30358500D01*
X69107539Y-30378185D01*
X69153294Y-30430989D01*
X69164500Y-30482500D01*
X69164500Y-30797205D01*
X69144815Y-30864244D01*
X69092011Y-30909999D01*
X69079511Y-30914908D01*
X69046728Y-30925772D01*
X69025262Y-30932885D01*
X69025259Y-30932886D01*
X68874346Y-31025971D01*
X68748971Y-31151346D01*
X68655886Y-31302259D01*
X68655884Y-31302264D01*
X68600113Y-31470572D01*
X68589500Y-31574447D01*
X68589500Y-32200537D01*
X68589501Y-32200553D01*
X68600113Y-32304427D01*
X68655884Y-32472735D01*
X68655886Y-32472740D01*
X68748971Y-32623653D01*
X68837637Y-32712319D01*
X68871122Y-32773642D01*
X68866138Y-32843334D01*
X68837637Y-32887681D01*
X68748971Y-32976346D01*
X68655886Y-33127259D01*
X68655884Y-33127264D01*
X68600113Y-33295572D01*
X68589500Y-33399447D01*
X68589500Y-33399455D01*
X68589500Y-33601362D01*
X68589501Y-33742500D01*
X68569817Y-33809539D01*
X68517013Y-33855294D01*
X68465501Y-33866500D01*
X56482500Y-33866500D01*
X56415461Y-33846815D01*
X56369706Y-33794011D01*
X56358500Y-33742500D01*
X56358500Y-33601362D01*
X56358499Y-33601345D01*
X56355157Y-33570270D01*
X56351989Y-33540799D01*
X56300889Y-33403796D01*
X56213261Y-33286739D01*
X56096204Y-33199111D01*
X55959203Y-33148011D01*
X55898654Y-33141500D01*
X55898638Y-33141500D01*
X54101362Y-33141500D01*
X54101345Y-33141500D01*
X54040797Y-33148011D01*
X54040795Y-33148011D01*
X53903795Y-33199111D01*
X53786739Y-33286739D01*
X53699111Y-33403795D01*
X53648011Y-33540795D01*
X53648011Y-33540797D01*
X53641500Y-33601345D01*
X53641500Y-35398654D01*
X53648011Y-35459202D01*
X53648011Y-35459204D01*
X53702210Y-35604512D01*
X53699393Y-35605562D01*
X53711037Y-35659158D01*
X53686601Y-35724615D01*
X53675037Y-35737958D01*
X53419467Y-35993529D01*
X53375902Y-36037094D01*
X53331227Y-36081768D01*
X53261903Y-36185518D01*
X53261898Y-36185527D01*
X53214145Y-36300814D01*
X53214143Y-36300822D01*
X53189800Y-36423201D01*
X53189800Y-37616298D01*
X53214143Y-37738677D01*
X53214145Y-37738685D01*
X53261898Y-37853972D01*
X53261903Y-37853981D01*
X53331228Y-37957732D01*
X53331231Y-37957736D01*
X53932153Y-38558657D01*
X53965638Y-38619980D01*
X53960654Y-38689671D01*
X53935706Y-38730317D01*
X53924276Y-38742734D01*
X53801139Y-38931209D01*
X53710703Y-39137385D01*
X53655436Y-39355628D01*
X53655434Y-39355640D01*
X53636844Y-39579994D01*
X53636844Y-39580005D01*
X53655434Y-39804359D01*
X53655436Y-39804371D01*
X53710703Y-40022614D01*
X53801140Y-40228792D01*
X53924276Y-40417265D01*
X53924284Y-40417276D01*
X54076756Y-40582902D01*
X54076760Y-40582906D01*
X54254424Y-40721189D01*
X54254429Y-40721191D01*
X54254431Y-40721193D01*
X54290930Y-40740946D01*
X54340520Y-40790165D01*
X54355628Y-40858382D01*
X54331457Y-40923937D01*
X54290930Y-40959054D01*
X54254431Y-40978806D01*
X54254422Y-40978812D01*
X54076761Y-41117092D01*
X54076756Y-41117097D01*
X53924284Y-41282723D01*
X53924276Y-41282734D01*
X53801140Y-41471207D01*
X53710703Y-41677385D01*
X53655436Y-41895628D01*
X53655434Y-41895640D01*
X53636844Y-42119994D01*
X53636844Y-42120005D01*
X53655434Y-42344359D01*
X53655436Y-42344371D01*
X53710703Y-42562614D01*
X53801140Y-42768792D01*
X53924276Y-42957265D01*
X53924284Y-42957276D01*
X54009149Y-43049462D01*
X54076760Y-43122906D01*
X54254424Y-43261189D01*
X54297693Y-43284605D01*
X54297695Y-43284606D01*
X54347286Y-43333825D01*
X54362394Y-43402042D01*
X54338224Y-43467597D01*
X54309802Y-43495236D01*
X54128922Y-43621890D01*
X54128920Y-43621891D01*
X53961891Y-43788920D01*
X53961886Y-43788926D01*
X53826400Y-43982420D01*
X53826399Y-43982422D01*
X53726570Y-44196507D01*
X53726567Y-44196513D01*
X53669364Y-44409999D01*
X53669364Y-44410000D01*
X54566988Y-44410000D01*
X54534075Y-44467007D01*
X54500000Y-44594174D01*
X54500000Y-44725826D01*
X54534075Y-44852993D01*
X54566988Y-44910000D01*
X53669364Y-44910000D01*
X53726567Y-45123486D01*
X53726570Y-45123492D01*
X53826399Y-45337578D01*
X53961894Y-45531082D01*
X54128917Y-45698105D01*
X54322421Y-45833600D01*
X54536507Y-45933429D01*
X54536516Y-45933433D01*
X54750000Y-45990634D01*
X54750000Y-45093012D01*
X54807007Y-45125925D01*
X54934174Y-45160000D01*
X55065826Y-45160000D01*
X55192993Y-45125925D01*
X55250000Y-45093012D01*
X55250000Y-45990633D01*
X55463483Y-45933433D01*
X55463492Y-45933429D01*
X55677578Y-45833600D01*
X55871082Y-45698105D01*
X56038105Y-45531082D01*
X56173600Y-45337578D01*
X56273429Y-45123492D01*
X56273432Y-45123486D01*
X56330636Y-44910000D01*
X55433012Y-44910000D01*
X55465925Y-44852993D01*
X55500000Y-44725826D01*
X55500000Y-44594174D01*
X55465925Y-44467007D01*
X55433012Y-44410000D01*
X56330636Y-44410000D01*
X56330635Y-44409999D01*
X56273432Y-44196513D01*
X56273429Y-44196507D01*
X56173600Y-43982422D01*
X56173599Y-43982420D01*
X56038113Y-43788926D01*
X56038108Y-43788920D01*
X55871082Y-43621894D01*
X55690197Y-43495236D01*
X55646572Y-43440659D01*
X55639380Y-43371160D01*
X55670902Y-43308806D01*
X55702300Y-43284608D01*
X55745576Y-43261189D01*
X55923240Y-43122906D01*
X56008491Y-43030298D01*
X56068375Y-42994311D01*
X56138213Y-42996411D01*
X56187399Y-43026603D01*
X56749381Y-43588585D01*
X56782866Y-43649908D01*
X56785700Y-43676266D01*
X56785700Y-50664200D01*
X56766015Y-50731239D01*
X56713211Y-50776994D01*
X56661700Y-50788200D01*
X53723101Y-50788200D01*
X53600722Y-50812543D01*
X53600714Y-50812545D01*
X53485427Y-50860298D01*
X53485418Y-50860303D01*
X53381667Y-50929628D01*
X53381663Y-50929631D01*
X52352099Y-51959197D01*
X52067367Y-52243929D01*
X52023247Y-52288049D01*
X51979127Y-52332168D01*
X51909803Y-52435918D01*
X51909798Y-52435927D01*
X51862045Y-52551214D01*
X51862043Y-52551222D01*
X51837700Y-52673601D01*
X50090407Y-52673601D01*
X50174805Y-25250213D01*
X50194695Y-25183236D01*
X50247640Y-25137644D01*
X50298581Y-25126596D01*
X79160713Y-25075500D01*
X149800500Y-25075500D01*
X149867539Y-25095185D01*
G37*
%TD.AperFunction*%
%TD*%
M02*
