%TF.GenerationSoftware,KiCad,Pcbnew,8.0.6*%
%TF.CreationDate,2025-01-19T14:16:09-05:00*%
%TF.ProjectId,board_stm8_rev2,626f6172-645f-4737-946d-385f72657632,rev?*%
%TF.SameCoordinates,Original*%
%TF.FileFunction,Drillmap*%
%TF.FilePolarity,Positive*%
%FSLAX45Y45*%
G04 Gerber Fmt 4.5, Leading zero omitted, Abs format (unit mm)*
G04 Created by KiCad (PCBNEW 8.0.6) date 2025-01-19 14:16:09*
%MOMM*%
%LPD*%
G01*
G04 APERTURE LIST*
%ADD10C,0.254000*%
%ADD11C,0.200000*%
%ADD12C,0.100000*%
%ADD13C,0.102000*%
%ADD14C,0.230000*%
%ADD15C,0.270000*%
G04 APERTURE END LIST*
D10*
X13000000Y-7000000D02*
X21000000Y-7000000D01*
X13000000Y-15000000D02*
X21000000Y-15000000D01*
X13000000Y-7000000D02*
X13000000Y-15000000D01*
X21000000Y-15000000D02*
X21000000Y-7000000D01*
D11*
D12*
X15340000Y-11845000D02*
X15380000Y-11885000D01*
X15380000Y-11845000D02*
X15340000Y-11885000D01*
X16099360Y-12257890D02*
X16139360Y-12297890D01*
X16139360Y-12257890D02*
X16099360Y-12297890D01*
X18285770Y-9817210D02*
X18325770Y-9857210D01*
X18325770Y-9817210D02*
X18285770Y-9857210D01*
X18294940Y-10064760D02*
X18334940Y-10104760D01*
X18334940Y-10064760D02*
X18294940Y-10104760D01*
X18498450Y-9386750D02*
X18538450Y-9426750D01*
X18538450Y-9386750D02*
X18498450Y-9426750D01*
X19026900Y-9850930D02*
X19066900Y-9890930D01*
X19066900Y-9850930D02*
X19026900Y-9890930D01*
X19111540Y-9761530D02*
X19151540Y-9801530D01*
X19151540Y-9761530D02*
X19111540Y-9801530D01*
X19217790Y-9990980D02*
X19257790Y-10030980D01*
X19257790Y-9990980D02*
X19217790Y-10030980D01*
X18650000Y-10380000D02*
G75*
G02*
X18590000Y-10380000I-30000J0D01*
G01*
X18590000Y-10380000D02*
G75*
G02*
X18650000Y-10380000I30000J0D01*
G01*
X18850000Y-10380000D02*
G75*
G02*
X18790000Y-10380000I-30000J0D01*
G01*
X18790000Y-10380000D02*
G75*
G02*
X18850000Y-10380000I30000J0D01*
G01*
X15789200Y-12156900D02*
X15789200Y-12236900D01*
X15749200Y-12196900D02*
X15829200Y-12196900D01*
X15789200Y-12644900D02*
X15789200Y-12724900D01*
X15749200Y-12684900D02*
X15829200Y-12684900D01*
X17970000Y-9400000D02*
X17970000Y-9480000D01*
X17930000Y-9440000D02*
X18010000Y-9440000D01*
X17970000Y-9888000D02*
X17970000Y-9968000D01*
X17930000Y-9928000D02*
X18010000Y-9928000D01*
X14721431Y-8681431D02*
X14721431Y-8618569D01*
X14658569Y-8618569D01*
X14658569Y-8681431D01*
X14721431Y-8681431D01*
X14721431Y-8935431D02*
X14721431Y-8872569D01*
X14658569Y-8872569D01*
X14658569Y-8935431D01*
X14721431Y-8935431D01*
X14721431Y-9189431D02*
X14721431Y-9126569D01*
X14658569Y-9126569D01*
X14658569Y-9189431D01*
X14721431Y-9189431D01*
X14721431Y-9443431D02*
X14721431Y-9380569D01*
X14658569Y-9380569D01*
X14658569Y-9443431D01*
X14721431Y-9443431D01*
X14721431Y-9697431D02*
X14721431Y-9634569D01*
X14658569Y-9634569D01*
X14658569Y-9697431D01*
X14721431Y-9697431D01*
X14721431Y-9951431D02*
X14721431Y-9888569D01*
X14658569Y-9888569D01*
X14658569Y-9951431D01*
X14721431Y-9951431D01*
X14721431Y-10205431D02*
X14721431Y-10142569D01*
X14658569Y-10142569D01*
X14658569Y-10205431D01*
X14721431Y-10205431D01*
X14721431Y-10459431D02*
X14721431Y-10396569D01*
X14658569Y-10396569D01*
X14658569Y-10459431D01*
X14721431Y-10459431D01*
X17007431Y-8681431D02*
X17007431Y-8618569D01*
X16944569Y-8618569D01*
X16944569Y-8681431D01*
X17007431Y-8681431D01*
X17007431Y-8935431D02*
X17007431Y-8872569D01*
X16944569Y-8872569D01*
X16944569Y-8935431D01*
X17007431Y-8935431D01*
X17007431Y-9189431D02*
X17007431Y-9126569D01*
X16944569Y-9126569D01*
X16944569Y-9189431D01*
X17007431Y-9189431D01*
X17007431Y-9443431D02*
X17007431Y-9380569D01*
X16944569Y-9380569D01*
X16944569Y-9443431D01*
X17007431Y-9443431D01*
X17007431Y-9697431D02*
X17007431Y-9634569D01*
X16944569Y-9634569D01*
X16944569Y-9697431D01*
X17007431Y-9697431D01*
X17007431Y-9951431D02*
X17007431Y-9888569D01*
X16944569Y-9888569D01*
X16944569Y-9951431D01*
X17007431Y-9951431D01*
X17007431Y-10205431D02*
X17007431Y-10142569D01*
X16944569Y-10142569D01*
X16944569Y-10205431D01*
X17007431Y-10205431D01*
X17007431Y-10459431D02*
X17007431Y-10396569D01*
X16944569Y-10396569D01*
X16944569Y-10459431D01*
X17007431Y-10459431D01*
X14395400Y-12241100D02*
X14442900Y-12193600D01*
X14395400Y-12146100D01*
X14347900Y-12193600D01*
X14395400Y-12241100D01*
X14395400Y-12491100D02*
X14442900Y-12443600D01*
X14395400Y-12396100D01*
X14347900Y-12443600D01*
X14395400Y-12491100D01*
X14595400Y-12241100D02*
X14642900Y-12193600D01*
X14595400Y-12146100D01*
X14547900Y-12193600D01*
X14595400Y-12241100D01*
X14595400Y-12491100D02*
X14642900Y-12443600D01*
X14595400Y-12396100D01*
X14547900Y-12443600D01*
X14595400Y-12491100D01*
D13*
X18537000Y-7779000D02*
X18639000Y-7881000D01*
X18639000Y-7779000D02*
X18537000Y-7881000D01*
X18639000Y-7830000D02*
G75*
G02*
X18537000Y-7830000I-51000J0D01*
G01*
X18537000Y-7830000D02*
G75*
G02*
X18639000Y-7830000I51000J0D01*
G01*
X18791000Y-7779000D02*
X18893000Y-7881000D01*
X18893000Y-7779000D02*
X18791000Y-7881000D01*
X18893000Y-7830000D02*
G75*
G02*
X18791000Y-7830000I-51000J0D01*
G01*
X18791000Y-7830000D02*
G75*
G02*
X18893000Y-7830000I51000J0D01*
G01*
X19045000Y-7779000D02*
X19147000Y-7881000D01*
X19147000Y-7779000D02*
X19045000Y-7881000D01*
X19147000Y-7830000D02*
G75*
G02*
X19045000Y-7830000I-51000J0D01*
G01*
X19045000Y-7830000D02*
G75*
G02*
X19147000Y-7830000I51000J0D01*
G01*
X19299000Y-7779000D02*
X19401000Y-7881000D01*
X19401000Y-7779000D02*
X19299000Y-7881000D01*
X19401000Y-7830000D02*
G75*
G02*
X19299000Y-7830000I-51000J0D01*
G01*
X19299000Y-7830000D02*
G75*
G02*
X19401000Y-7830000I51000J0D01*
G01*
D14*
X13994400Y-11603600D02*
X14224400Y-11833600D01*
X14224400Y-11603600D02*
X13994400Y-11833600D01*
X14109400Y-11603600D02*
X14109400Y-11833600D01*
X13994400Y-11718600D02*
X14224400Y-11718600D01*
X13994400Y-12803600D02*
X14224400Y-13033600D01*
X14224400Y-12803600D02*
X13994400Y-13033600D01*
X14109400Y-12803600D02*
X14109400Y-13033600D01*
X13994400Y-12918600D02*
X14224400Y-12918600D01*
D15*
X13365000Y-7365000D02*
X13635000Y-7635000D01*
X13635000Y-7365000D02*
X13365000Y-7635000D01*
X13595460Y-7595460D02*
X13595460Y-7404540D01*
X13404540Y-7404540D01*
X13404540Y-7595460D01*
X13595460Y-7595460D01*
X13365000Y-14365000D02*
X13635000Y-14635000D01*
X13635000Y-14365000D02*
X13365000Y-14635000D01*
X13595460Y-14595460D02*
X13595460Y-14404540D01*
X13404540Y-14404540D01*
X13404540Y-14595460D01*
X13595460Y-14595460D01*
X20365000Y-7365000D02*
X20635000Y-7635000D01*
X20635000Y-7365000D02*
X20365000Y-7635000D01*
X20595460Y-7595460D02*
X20595460Y-7404540D01*
X20404540Y-7404540D01*
X20404540Y-7595460D01*
X20595460Y-7595460D01*
X20365000Y-14365000D02*
X20635000Y-14635000D01*
X20635000Y-14365000D02*
X20365000Y-14635000D01*
X20595460Y-14595460D02*
X20595460Y-14404540D01*
X20404540Y-14404540D01*
X20404540Y-14595460D01*
X20595460Y-14595460D01*
D11*
X13248077Y-15324184D02*
X13248077Y-15124184D01*
X13248077Y-15124184D02*
X13295696Y-15124184D01*
X13295696Y-15124184D02*
X13324267Y-15133708D01*
X13324267Y-15133708D02*
X13343315Y-15152755D01*
X13343315Y-15152755D02*
X13352839Y-15171803D01*
X13352839Y-15171803D02*
X13362362Y-15209898D01*
X13362362Y-15209898D02*
X13362362Y-15238469D01*
X13362362Y-15238469D02*
X13352839Y-15276565D01*
X13352839Y-15276565D02*
X13343315Y-15295612D01*
X13343315Y-15295612D02*
X13324267Y-15314660D01*
X13324267Y-15314660D02*
X13295696Y-15324184D01*
X13295696Y-15324184D02*
X13248077Y-15324184D01*
X13448077Y-15324184D02*
X13448077Y-15190850D01*
X13448077Y-15228946D02*
X13457601Y-15209898D01*
X13457601Y-15209898D02*
X13467124Y-15200374D01*
X13467124Y-15200374D02*
X13486172Y-15190850D01*
X13486172Y-15190850D02*
X13505220Y-15190850D01*
X13571886Y-15324184D02*
X13571886Y-15190850D01*
X13571886Y-15124184D02*
X13562362Y-15133708D01*
X13562362Y-15133708D02*
X13571886Y-15143231D01*
X13571886Y-15143231D02*
X13581410Y-15133708D01*
X13581410Y-15133708D02*
X13571886Y-15124184D01*
X13571886Y-15124184D02*
X13571886Y-15143231D01*
X13695696Y-15324184D02*
X13676648Y-15314660D01*
X13676648Y-15314660D02*
X13667124Y-15295612D01*
X13667124Y-15295612D02*
X13667124Y-15124184D01*
X13800458Y-15324184D02*
X13781410Y-15314660D01*
X13781410Y-15314660D02*
X13771886Y-15295612D01*
X13771886Y-15295612D02*
X13771886Y-15124184D01*
X14029029Y-15324184D02*
X14029029Y-15124184D01*
X14029029Y-15124184D02*
X14095696Y-15267041D01*
X14095696Y-15267041D02*
X14162362Y-15124184D01*
X14162362Y-15124184D02*
X14162362Y-15324184D01*
X14343315Y-15324184D02*
X14343315Y-15219422D01*
X14343315Y-15219422D02*
X14333791Y-15200374D01*
X14333791Y-15200374D02*
X14314743Y-15190850D01*
X14314743Y-15190850D02*
X14276648Y-15190850D01*
X14276648Y-15190850D02*
X14257601Y-15200374D01*
X14343315Y-15314660D02*
X14324267Y-15324184D01*
X14324267Y-15324184D02*
X14276648Y-15324184D01*
X14276648Y-15324184D02*
X14257601Y-15314660D01*
X14257601Y-15314660D02*
X14248077Y-15295612D01*
X14248077Y-15295612D02*
X14248077Y-15276565D01*
X14248077Y-15276565D02*
X14257601Y-15257517D01*
X14257601Y-15257517D02*
X14276648Y-15247993D01*
X14276648Y-15247993D02*
X14324267Y-15247993D01*
X14324267Y-15247993D02*
X14343315Y-15238469D01*
X14438553Y-15190850D02*
X14438553Y-15390850D01*
X14438553Y-15200374D02*
X14457601Y-15190850D01*
X14457601Y-15190850D02*
X14495696Y-15190850D01*
X14495696Y-15190850D02*
X14514743Y-15200374D01*
X14514743Y-15200374D02*
X14524267Y-15209898D01*
X14524267Y-15209898D02*
X14533791Y-15228946D01*
X14533791Y-15228946D02*
X14533791Y-15286088D01*
X14533791Y-15286088D02*
X14524267Y-15305136D01*
X14524267Y-15305136D02*
X14514743Y-15314660D01*
X14514743Y-15314660D02*
X14495696Y-15324184D01*
X14495696Y-15324184D02*
X14457601Y-15324184D01*
X14457601Y-15324184D02*
X14438553Y-15314660D01*
X14619505Y-15305136D02*
X14629029Y-15314660D01*
X14629029Y-15314660D02*
X14619505Y-15324184D01*
X14619505Y-15324184D02*
X14609982Y-15314660D01*
X14609982Y-15314660D02*
X14619505Y-15305136D01*
X14619505Y-15305136D02*
X14619505Y-15324184D01*
X14619505Y-15200374D02*
X14629029Y-15209898D01*
X14629029Y-15209898D02*
X14619505Y-15219422D01*
X14619505Y-15219422D02*
X14609982Y-15209898D01*
X14609982Y-15209898D02*
X14619505Y-15200374D01*
X14619505Y-15200374D02*
X14619505Y-15219422D01*
D12*
X12947300Y-15632700D02*
X12987300Y-15672700D01*
X12987300Y-15632700D02*
X12947300Y-15672700D01*
D11*
X13286172Y-15544184D02*
X13305220Y-15544184D01*
X13305220Y-15544184D02*
X13324267Y-15553708D01*
X13324267Y-15553708D02*
X13333791Y-15563231D01*
X13333791Y-15563231D02*
X13343315Y-15582279D01*
X13343315Y-15582279D02*
X13352839Y-15620374D01*
X13352839Y-15620374D02*
X13352839Y-15667993D01*
X13352839Y-15667993D02*
X13343315Y-15706088D01*
X13343315Y-15706088D02*
X13333791Y-15725136D01*
X13333791Y-15725136D02*
X13324267Y-15734660D01*
X13324267Y-15734660D02*
X13305220Y-15744184D01*
X13305220Y-15744184D02*
X13286172Y-15744184D01*
X13286172Y-15744184D02*
X13267124Y-15734660D01*
X13267124Y-15734660D02*
X13257601Y-15725136D01*
X13257601Y-15725136D02*
X13248077Y-15706088D01*
X13248077Y-15706088D02*
X13238553Y-15667993D01*
X13238553Y-15667993D02*
X13238553Y-15620374D01*
X13238553Y-15620374D02*
X13248077Y-15582279D01*
X13248077Y-15582279D02*
X13257601Y-15563231D01*
X13257601Y-15563231D02*
X13267124Y-15553708D01*
X13267124Y-15553708D02*
X13286172Y-15544184D01*
X13438553Y-15725136D02*
X13448077Y-15734660D01*
X13448077Y-15734660D02*
X13438553Y-15744184D01*
X13438553Y-15744184D02*
X13429029Y-15734660D01*
X13429029Y-15734660D02*
X13438553Y-15725136D01*
X13438553Y-15725136D02*
X13438553Y-15744184D01*
X13619505Y-15610850D02*
X13619505Y-15744184D01*
X13571886Y-15534660D02*
X13524267Y-15677517D01*
X13524267Y-15677517D02*
X13648077Y-15677517D01*
X13762362Y-15544184D02*
X13781410Y-15544184D01*
X13781410Y-15544184D02*
X13800458Y-15553708D01*
X13800458Y-15553708D02*
X13809982Y-15563231D01*
X13809982Y-15563231D02*
X13819505Y-15582279D01*
X13819505Y-15582279D02*
X13829029Y-15620374D01*
X13829029Y-15620374D02*
X13829029Y-15667993D01*
X13829029Y-15667993D02*
X13819505Y-15706088D01*
X13819505Y-15706088D02*
X13809982Y-15725136D01*
X13809982Y-15725136D02*
X13800458Y-15734660D01*
X13800458Y-15734660D02*
X13781410Y-15744184D01*
X13781410Y-15744184D02*
X13762362Y-15744184D01*
X13762362Y-15744184D02*
X13743315Y-15734660D01*
X13743315Y-15734660D02*
X13733791Y-15725136D01*
X13733791Y-15725136D02*
X13724267Y-15706088D01*
X13724267Y-15706088D02*
X13714743Y-15667993D01*
X13714743Y-15667993D02*
X13714743Y-15620374D01*
X13714743Y-15620374D02*
X13724267Y-15582279D01*
X13724267Y-15582279D02*
X13733791Y-15563231D01*
X13733791Y-15563231D02*
X13743315Y-15553708D01*
X13743315Y-15553708D02*
X13762362Y-15544184D01*
X13952839Y-15544184D02*
X13971886Y-15544184D01*
X13971886Y-15544184D02*
X13990934Y-15553708D01*
X13990934Y-15553708D02*
X14000458Y-15563231D01*
X14000458Y-15563231D02*
X14009982Y-15582279D01*
X14009982Y-15582279D02*
X14019505Y-15620374D01*
X14019505Y-15620374D02*
X14019505Y-15667993D01*
X14019505Y-15667993D02*
X14009982Y-15706088D01*
X14009982Y-15706088D02*
X14000458Y-15725136D01*
X14000458Y-15725136D02*
X13990934Y-15734660D01*
X13990934Y-15734660D02*
X13971886Y-15744184D01*
X13971886Y-15744184D02*
X13952839Y-15744184D01*
X13952839Y-15744184D02*
X13933791Y-15734660D01*
X13933791Y-15734660D02*
X13924267Y-15725136D01*
X13924267Y-15725136D02*
X13914743Y-15706088D01*
X13914743Y-15706088D02*
X13905220Y-15667993D01*
X13905220Y-15667993D02*
X13905220Y-15620374D01*
X13905220Y-15620374D02*
X13914743Y-15582279D01*
X13914743Y-15582279D02*
X13924267Y-15563231D01*
X13924267Y-15563231D02*
X13933791Y-15553708D01*
X13933791Y-15553708D02*
X13952839Y-15544184D01*
X14105220Y-15744184D02*
X14105220Y-15610850D01*
X14105220Y-15629898D02*
X14114743Y-15620374D01*
X14114743Y-15620374D02*
X14133791Y-15610850D01*
X14133791Y-15610850D02*
X14162363Y-15610850D01*
X14162363Y-15610850D02*
X14181410Y-15620374D01*
X14181410Y-15620374D02*
X14190934Y-15639422D01*
X14190934Y-15639422D02*
X14190934Y-15744184D01*
X14190934Y-15639422D02*
X14200458Y-15620374D01*
X14200458Y-15620374D02*
X14219505Y-15610850D01*
X14219505Y-15610850D02*
X14248077Y-15610850D01*
X14248077Y-15610850D02*
X14267124Y-15620374D01*
X14267124Y-15620374D02*
X14276648Y-15639422D01*
X14276648Y-15639422D02*
X14276648Y-15744184D01*
X14371886Y-15744184D02*
X14371886Y-15610850D01*
X14371886Y-15629898D02*
X14381410Y-15620374D01*
X14381410Y-15620374D02*
X14400458Y-15610850D01*
X14400458Y-15610850D02*
X14429029Y-15610850D01*
X14429029Y-15610850D02*
X14448077Y-15620374D01*
X14448077Y-15620374D02*
X14457601Y-15639422D01*
X14457601Y-15639422D02*
X14457601Y-15744184D01*
X14457601Y-15639422D02*
X14467124Y-15620374D01*
X14467124Y-15620374D02*
X14486172Y-15610850D01*
X14486172Y-15610850D02*
X14514743Y-15610850D01*
X14514743Y-15610850D02*
X14533791Y-15620374D01*
X14533791Y-15620374D02*
X14543315Y-15639422D01*
X14543315Y-15639422D02*
X14543315Y-15744184D01*
X14933791Y-15534660D02*
X14762363Y-15791803D01*
X15190934Y-15544184D02*
X15209982Y-15544184D01*
X15209982Y-15544184D02*
X15229029Y-15553708D01*
X15229029Y-15553708D02*
X15238553Y-15563231D01*
X15238553Y-15563231D02*
X15248077Y-15582279D01*
X15248077Y-15582279D02*
X15257601Y-15620374D01*
X15257601Y-15620374D02*
X15257601Y-15667993D01*
X15257601Y-15667993D02*
X15248077Y-15706088D01*
X15248077Y-15706088D02*
X15238553Y-15725136D01*
X15238553Y-15725136D02*
X15229029Y-15734660D01*
X15229029Y-15734660D02*
X15209982Y-15744184D01*
X15209982Y-15744184D02*
X15190934Y-15744184D01*
X15190934Y-15744184D02*
X15171886Y-15734660D01*
X15171886Y-15734660D02*
X15162363Y-15725136D01*
X15162363Y-15725136D02*
X15152839Y-15706088D01*
X15152839Y-15706088D02*
X15143315Y-15667993D01*
X15143315Y-15667993D02*
X15143315Y-15620374D01*
X15143315Y-15620374D02*
X15152839Y-15582279D01*
X15152839Y-15582279D02*
X15162363Y-15563231D01*
X15162363Y-15563231D02*
X15171886Y-15553708D01*
X15171886Y-15553708D02*
X15190934Y-15544184D01*
X15343315Y-15725136D02*
X15352839Y-15734660D01*
X15352839Y-15734660D02*
X15343315Y-15744184D01*
X15343315Y-15744184D02*
X15333791Y-15734660D01*
X15333791Y-15734660D02*
X15343315Y-15725136D01*
X15343315Y-15725136D02*
X15343315Y-15744184D01*
X15476648Y-15544184D02*
X15495696Y-15544184D01*
X15495696Y-15544184D02*
X15514744Y-15553708D01*
X15514744Y-15553708D02*
X15524267Y-15563231D01*
X15524267Y-15563231D02*
X15533791Y-15582279D01*
X15533791Y-15582279D02*
X15543315Y-15620374D01*
X15543315Y-15620374D02*
X15543315Y-15667993D01*
X15543315Y-15667993D02*
X15533791Y-15706088D01*
X15533791Y-15706088D02*
X15524267Y-15725136D01*
X15524267Y-15725136D02*
X15514744Y-15734660D01*
X15514744Y-15734660D02*
X15495696Y-15744184D01*
X15495696Y-15744184D02*
X15476648Y-15744184D01*
X15476648Y-15744184D02*
X15457601Y-15734660D01*
X15457601Y-15734660D02*
X15448077Y-15725136D01*
X15448077Y-15725136D02*
X15438553Y-15706088D01*
X15438553Y-15706088D02*
X15429029Y-15667993D01*
X15429029Y-15667993D02*
X15429029Y-15620374D01*
X15429029Y-15620374D02*
X15438553Y-15582279D01*
X15438553Y-15582279D02*
X15448077Y-15563231D01*
X15448077Y-15563231D02*
X15457601Y-15553708D01*
X15457601Y-15553708D02*
X15476648Y-15544184D01*
X15733791Y-15744184D02*
X15619506Y-15744184D01*
X15676648Y-15744184D02*
X15676648Y-15544184D01*
X15676648Y-15544184D02*
X15657601Y-15572755D01*
X15657601Y-15572755D02*
X15638553Y-15591803D01*
X15638553Y-15591803D02*
X15619506Y-15601327D01*
X15914744Y-15544184D02*
X15819506Y-15544184D01*
X15819506Y-15544184D02*
X15809982Y-15639422D01*
X15809982Y-15639422D02*
X15819506Y-15629898D01*
X15819506Y-15629898D02*
X15838553Y-15620374D01*
X15838553Y-15620374D02*
X15886172Y-15620374D01*
X15886172Y-15620374D02*
X15905220Y-15629898D01*
X15905220Y-15629898D02*
X15914744Y-15639422D01*
X15914744Y-15639422D02*
X15924267Y-15658469D01*
X15924267Y-15658469D02*
X15924267Y-15706088D01*
X15924267Y-15706088D02*
X15914744Y-15725136D01*
X15914744Y-15725136D02*
X15905220Y-15734660D01*
X15905220Y-15734660D02*
X15886172Y-15744184D01*
X15886172Y-15744184D02*
X15838553Y-15744184D01*
X15838553Y-15744184D02*
X15819506Y-15734660D01*
X15819506Y-15734660D02*
X15809982Y-15725136D01*
X15990934Y-15544184D02*
X16124267Y-15544184D01*
X16124267Y-15544184D02*
X16038553Y-15744184D01*
X16190934Y-15544184D02*
X16190934Y-15582279D01*
X16267125Y-15544184D02*
X16267125Y-15582279D01*
X16562363Y-15820374D02*
X16552839Y-15810850D01*
X16552839Y-15810850D02*
X16533791Y-15782279D01*
X16533791Y-15782279D02*
X16524268Y-15763231D01*
X16524268Y-15763231D02*
X16514744Y-15734660D01*
X16514744Y-15734660D02*
X16505220Y-15687041D01*
X16505220Y-15687041D02*
X16505220Y-15648946D01*
X16505220Y-15648946D02*
X16514744Y-15601327D01*
X16514744Y-15601327D02*
X16524268Y-15572755D01*
X16524268Y-15572755D02*
X16533791Y-15553708D01*
X16533791Y-15553708D02*
X16552839Y-15525136D01*
X16552839Y-15525136D02*
X16562363Y-15515612D01*
X16667125Y-15629898D02*
X16648077Y-15620374D01*
X16648077Y-15620374D02*
X16638553Y-15610850D01*
X16638553Y-15610850D02*
X16629029Y-15591803D01*
X16629029Y-15591803D02*
X16629029Y-15582279D01*
X16629029Y-15582279D02*
X16638553Y-15563231D01*
X16638553Y-15563231D02*
X16648077Y-15553708D01*
X16648077Y-15553708D02*
X16667125Y-15544184D01*
X16667125Y-15544184D02*
X16705220Y-15544184D01*
X16705220Y-15544184D02*
X16724268Y-15553708D01*
X16724268Y-15553708D02*
X16733791Y-15563231D01*
X16733791Y-15563231D02*
X16743315Y-15582279D01*
X16743315Y-15582279D02*
X16743315Y-15591803D01*
X16743315Y-15591803D02*
X16733791Y-15610850D01*
X16733791Y-15610850D02*
X16724268Y-15620374D01*
X16724268Y-15620374D02*
X16705220Y-15629898D01*
X16705220Y-15629898D02*
X16667125Y-15629898D01*
X16667125Y-15629898D02*
X16648077Y-15639422D01*
X16648077Y-15639422D02*
X16638553Y-15648946D01*
X16638553Y-15648946D02*
X16629029Y-15667993D01*
X16629029Y-15667993D02*
X16629029Y-15706088D01*
X16629029Y-15706088D02*
X16638553Y-15725136D01*
X16638553Y-15725136D02*
X16648077Y-15734660D01*
X16648077Y-15734660D02*
X16667125Y-15744184D01*
X16667125Y-15744184D02*
X16705220Y-15744184D01*
X16705220Y-15744184D02*
X16724268Y-15734660D01*
X16724268Y-15734660D02*
X16733791Y-15725136D01*
X16733791Y-15725136D02*
X16743315Y-15706088D01*
X16743315Y-15706088D02*
X16743315Y-15667993D01*
X16743315Y-15667993D02*
X16733791Y-15648946D01*
X16733791Y-15648946D02*
X16724268Y-15639422D01*
X16724268Y-15639422D02*
X16705220Y-15629898D01*
X16981411Y-15744184D02*
X16981411Y-15544184D01*
X17067125Y-15744184D02*
X17067125Y-15639422D01*
X17067125Y-15639422D02*
X17057601Y-15620374D01*
X17057601Y-15620374D02*
X17038553Y-15610850D01*
X17038553Y-15610850D02*
X17009982Y-15610850D01*
X17009982Y-15610850D02*
X16990934Y-15620374D01*
X16990934Y-15620374D02*
X16981411Y-15629898D01*
X17190934Y-15744184D02*
X17171887Y-15734660D01*
X17171887Y-15734660D02*
X17162363Y-15725136D01*
X17162363Y-15725136D02*
X17152839Y-15706088D01*
X17152839Y-15706088D02*
X17152839Y-15648946D01*
X17152839Y-15648946D02*
X17162363Y-15629898D01*
X17162363Y-15629898D02*
X17171887Y-15620374D01*
X17171887Y-15620374D02*
X17190934Y-15610850D01*
X17190934Y-15610850D02*
X17219506Y-15610850D01*
X17219506Y-15610850D02*
X17238553Y-15620374D01*
X17238553Y-15620374D02*
X17248077Y-15629898D01*
X17248077Y-15629898D02*
X17257601Y-15648946D01*
X17257601Y-15648946D02*
X17257601Y-15706088D01*
X17257601Y-15706088D02*
X17248077Y-15725136D01*
X17248077Y-15725136D02*
X17238553Y-15734660D01*
X17238553Y-15734660D02*
X17219506Y-15744184D01*
X17219506Y-15744184D02*
X17190934Y-15744184D01*
X17371887Y-15744184D02*
X17352839Y-15734660D01*
X17352839Y-15734660D02*
X17343315Y-15715612D01*
X17343315Y-15715612D02*
X17343315Y-15544184D01*
X17524268Y-15734660D02*
X17505220Y-15744184D01*
X17505220Y-15744184D02*
X17467125Y-15744184D01*
X17467125Y-15744184D02*
X17448077Y-15734660D01*
X17448077Y-15734660D02*
X17438553Y-15715612D01*
X17438553Y-15715612D02*
X17438553Y-15639422D01*
X17438553Y-15639422D02*
X17448077Y-15620374D01*
X17448077Y-15620374D02*
X17467125Y-15610850D01*
X17467125Y-15610850D02*
X17505220Y-15610850D01*
X17505220Y-15610850D02*
X17524268Y-15620374D01*
X17524268Y-15620374D02*
X17533792Y-15639422D01*
X17533792Y-15639422D02*
X17533792Y-15658469D01*
X17533792Y-15658469D02*
X17438553Y-15677517D01*
X17609982Y-15734660D02*
X17629030Y-15744184D01*
X17629030Y-15744184D02*
X17667125Y-15744184D01*
X17667125Y-15744184D02*
X17686173Y-15734660D01*
X17686173Y-15734660D02*
X17695696Y-15715612D01*
X17695696Y-15715612D02*
X17695696Y-15706088D01*
X17695696Y-15706088D02*
X17686173Y-15687041D01*
X17686173Y-15687041D02*
X17667125Y-15677517D01*
X17667125Y-15677517D02*
X17638553Y-15677517D01*
X17638553Y-15677517D02*
X17619506Y-15667993D01*
X17619506Y-15667993D02*
X17609982Y-15648946D01*
X17609982Y-15648946D02*
X17609982Y-15639422D01*
X17609982Y-15639422D02*
X17619506Y-15620374D01*
X17619506Y-15620374D02*
X17638553Y-15610850D01*
X17638553Y-15610850D02*
X17667125Y-15610850D01*
X17667125Y-15610850D02*
X17686173Y-15620374D01*
X17762363Y-15820374D02*
X17771887Y-15810850D01*
X17771887Y-15810850D02*
X17790934Y-15782279D01*
X17790934Y-15782279D02*
X17800458Y-15763231D01*
X17800458Y-15763231D02*
X17809982Y-15734660D01*
X17809982Y-15734660D02*
X17819506Y-15687041D01*
X17819506Y-15687041D02*
X17819506Y-15648946D01*
X17819506Y-15648946D02*
X17809982Y-15601327D01*
X17809982Y-15601327D02*
X17800458Y-15572755D01*
X17800458Y-15572755D02*
X17790934Y-15553708D01*
X17790934Y-15553708D02*
X17771887Y-15525136D01*
X17771887Y-15525136D02*
X17762363Y-15515612D01*
D12*
X12987300Y-15916700D02*
G75*
G02*
X12927300Y-15916700I-30000J0D01*
G01*
X12927300Y-15916700D02*
G75*
G02*
X12987300Y-15916700I30000J0D01*
G01*
D11*
X13286172Y-15808184D02*
X13305220Y-15808184D01*
X13305220Y-15808184D02*
X13324267Y-15817708D01*
X13324267Y-15817708D02*
X13333791Y-15827231D01*
X13333791Y-15827231D02*
X13343315Y-15846279D01*
X13343315Y-15846279D02*
X13352839Y-15884374D01*
X13352839Y-15884374D02*
X13352839Y-15931993D01*
X13352839Y-15931993D02*
X13343315Y-15970088D01*
X13343315Y-15970088D02*
X13333791Y-15989136D01*
X13333791Y-15989136D02*
X13324267Y-15998660D01*
X13324267Y-15998660D02*
X13305220Y-16008184D01*
X13305220Y-16008184D02*
X13286172Y-16008184D01*
X13286172Y-16008184D02*
X13267124Y-15998660D01*
X13267124Y-15998660D02*
X13257601Y-15989136D01*
X13257601Y-15989136D02*
X13248077Y-15970088D01*
X13248077Y-15970088D02*
X13238553Y-15931993D01*
X13238553Y-15931993D02*
X13238553Y-15884374D01*
X13238553Y-15884374D02*
X13248077Y-15846279D01*
X13248077Y-15846279D02*
X13257601Y-15827231D01*
X13257601Y-15827231D02*
X13267124Y-15817708D01*
X13267124Y-15817708D02*
X13286172Y-15808184D01*
X13438553Y-15989136D02*
X13448077Y-15998660D01*
X13448077Y-15998660D02*
X13438553Y-16008184D01*
X13438553Y-16008184D02*
X13429029Y-15998660D01*
X13429029Y-15998660D02*
X13438553Y-15989136D01*
X13438553Y-15989136D02*
X13438553Y-16008184D01*
X13619505Y-15808184D02*
X13581410Y-15808184D01*
X13581410Y-15808184D02*
X13562362Y-15817708D01*
X13562362Y-15817708D02*
X13552839Y-15827231D01*
X13552839Y-15827231D02*
X13533791Y-15855803D01*
X13533791Y-15855803D02*
X13524267Y-15893898D01*
X13524267Y-15893898D02*
X13524267Y-15970088D01*
X13524267Y-15970088D02*
X13533791Y-15989136D01*
X13533791Y-15989136D02*
X13543315Y-15998660D01*
X13543315Y-15998660D02*
X13562362Y-16008184D01*
X13562362Y-16008184D02*
X13600458Y-16008184D01*
X13600458Y-16008184D02*
X13619505Y-15998660D01*
X13619505Y-15998660D02*
X13629029Y-15989136D01*
X13629029Y-15989136D02*
X13638553Y-15970088D01*
X13638553Y-15970088D02*
X13638553Y-15922469D01*
X13638553Y-15922469D02*
X13629029Y-15903422D01*
X13629029Y-15903422D02*
X13619505Y-15893898D01*
X13619505Y-15893898D02*
X13600458Y-15884374D01*
X13600458Y-15884374D02*
X13562362Y-15884374D01*
X13562362Y-15884374D02*
X13543315Y-15893898D01*
X13543315Y-15893898D02*
X13533791Y-15903422D01*
X13533791Y-15903422D02*
X13524267Y-15922469D01*
X13762362Y-15808184D02*
X13781410Y-15808184D01*
X13781410Y-15808184D02*
X13800458Y-15817708D01*
X13800458Y-15817708D02*
X13809982Y-15827231D01*
X13809982Y-15827231D02*
X13819505Y-15846279D01*
X13819505Y-15846279D02*
X13829029Y-15884374D01*
X13829029Y-15884374D02*
X13829029Y-15931993D01*
X13829029Y-15931993D02*
X13819505Y-15970088D01*
X13819505Y-15970088D02*
X13809982Y-15989136D01*
X13809982Y-15989136D02*
X13800458Y-15998660D01*
X13800458Y-15998660D02*
X13781410Y-16008184D01*
X13781410Y-16008184D02*
X13762362Y-16008184D01*
X13762362Y-16008184D02*
X13743315Y-15998660D01*
X13743315Y-15998660D02*
X13733791Y-15989136D01*
X13733791Y-15989136D02*
X13724267Y-15970088D01*
X13724267Y-15970088D02*
X13714743Y-15931993D01*
X13714743Y-15931993D02*
X13714743Y-15884374D01*
X13714743Y-15884374D02*
X13724267Y-15846279D01*
X13724267Y-15846279D02*
X13733791Y-15827231D01*
X13733791Y-15827231D02*
X13743315Y-15817708D01*
X13743315Y-15817708D02*
X13762362Y-15808184D01*
X13952839Y-15808184D02*
X13971886Y-15808184D01*
X13971886Y-15808184D02*
X13990934Y-15817708D01*
X13990934Y-15817708D02*
X14000458Y-15827231D01*
X14000458Y-15827231D02*
X14009982Y-15846279D01*
X14009982Y-15846279D02*
X14019505Y-15884374D01*
X14019505Y-15884374D02*
X14019505Y-15931993D01*
X14019505Y-15931993D02*
X14009982Y-15970088D01*
X14009982Y-15970088D02*
X14000458Y-15989136D01*
X14000458Y-15989136D02*
X13990934Y-15998660D01*
X13990934Y-15998660D02*
X13971886Y-16008184D01*
X13971886Y-16008184D02*
X13952839Y-16008184D01*
X13952839Y-16008184D02*
X13933791Y-15998660D01*
X13933791Y-15998660D02*
X13924267Y-15989136D01*
X13924267Y-15989136D02*
X13914743Y-15970088D01*
X13914743Y-15970088D02*
X13905220Y-15931993D01*
X13905220Y-15931993D02*
X13905220Y-15884374D01*
X13905220Y-15884374D02*
X13914743Y-15846279D01*
X13914743Y-15846279D02*
X13924267Y-15827231D01*
X13924267Y-15827231D02*
X13933791Y-15817708D01*
X13933791Y-15817708D02*
X13952839Y-15808184D01*
X14105220Y-16008184D02*
X14105220Y-15874850D01*
X14105220Y-15893898D02*
X14114743Y-15884374D01*
X14114743Y-15884374D02*
X14133791Y-15874850D01*
X14133791Y-15874850D02*
X14162363Y-15874850D01*
X14162363Y-15874850D02*
X14181410Y-15884374D01*
X14181410Y-15884374D02*
X14190934Y-15903422D01*
X14190934Y-15903422D02*
X14190934Y-16008184D01*
X14190934Y-15903422D02*
X14200458Y-15884374D01*
X14200458Y-15884374D02*
X14219505Y-15874850D01*
X14219505Y-15874850D02*
X14248077Y-15874850D01*
X14248077Y-15874850D02*
X14267124Y-15884374D01*
X14267124Y-15884374D02*
X14276648Y-15903422D01*
X14276648Y-15903422D02*
X14276648Y-16008184D01*
X14371886Y-16008184D02*
X14371886Y-15874850D01*
X14371886Y-15893898D02*
X14381410Y-15884374D01*
X14381410Y-15884374D02*
X14400458Y-15874850D01*
X14400458Y-15874850D02*
X14429029Y-15874850D01*
X14429029Y-15874850D02*
X14448077Y-15884374D01*
X14448077Y-15884374D02*
X14457601Y-15903422D01*
X14457601Y-15903422D02*
X14457601Y-16008184D01*
X14457601Y-15903422D02*
X14467124Y-15884374D01*
X14467124Y-15884374D02*
X14486172Y-15874850D01*
X14486172Y-15874850D02*
X14514743Y-15874850D01*
X14514743Y-15874850D02*
X14533791Y-15884374D01*
X14533791Y-15884374D02*
X14543315Y-15903422D01*
X14543315Y-15903422D02*
X14543315Y-16008184D01*
X14933791Y-15798660D02*
X14762363Y-16055803D01*
X15190934Y-15808184D02*
X15209982Y-15808184D01*
X15209982Y-15808184D02*
X15229029Y-15817708D01*
X15229029Y-15817708D02*
X15238553Y-15827231D01*
X15238553Y-15827231D02*
X15248077Y-15846279D01*
X15248077Y-15846279D02*
X15257601Y-15884374D01*
X15257601Y-15884374D02*
X15257601Y-15931993D01*
X15257601Y-15931993D02*
X15248077Y-15970088D01*
X15248077Y-15970088D02*
X15238553Y-15989136D01*
X15238553Y-15989136D02*
X15229029Y-15998660D01*
X15229029Y-15998660D02*
X15209982Y-16008184D01*
X15209982Y-16008184D02*
X15190934Y-16008184D01*
X15190934Y-16008184D02*
X15171886Y-15998660D01*
X15171886Y-15998660D02*
X15162363Y-15989136D01*
X15162363Y-15989136D02*
X15152839Y-15970088D01*
X15152839Y-15970088D02*
X15143315Y-15931993D01*
X15143315Y-15931993D02*
X15143315Y-15884374D01*
X15143315Y-15884374D02*
X15152839Y-15846279D01*
X15152839Y-15846279D02*
X15162363Y-15827231D01*
X15162363Y-15827231D02*
X15171886Y-15817708D01*
X15171886Y-15817708D02*
X15190934Y-15808184D01*
X15343315Y-15989136D02*
X15352839Y-15998660D01*
X15352839Y-15998660D02*
X15343315Y-16008184D01*
X15343315Y-16008184D02*
X15333791Y-15998660D01*
X15333791Y-15998660D02*
X15343315Y-15989136D01*
X15343315Y-15989136D02*
X15343315Y-16008184D01*
X15476648Y-15808184D02*
X15495696Y-15808184D01*
X15495696Y-15808184D02*
X15514744Y-15817708D01*
X15514744Y-15817708D02*
X15524267Y-15827231D01*
X15524267Y-15827231D02*
X15533791Y-15846279D01*
X15533791Y-15846279D02*
X15543315Y-15884374D01*
X15543315Y-15884374D02*
X15543315Y-15931993D01*
X15543315Y-15931993D02*
X15533791Y-15970088D01*
X15533791Y-15970088D02*
X15524267Y-15989136D01*
X15524267Y-15989136D02*
X15514744Y-15998660D01*
X15514744Y-15998660D02*
X15495696Y-16008184D01*
X15495696Y-16008184D02*
X15476648Y-16008184D01*
X15476648Y-16008184D02*
X15457601Y-15998660D01*
X15457601Y-15998660D02*
X15448077Y-15989136D01*
X15448077Y-15989136D02*
X15438553Y-15970088D01*
X15438553Y-15970088D02*
X15429029Y-15931993D01*
X15429029Y-15931993D02*
X15429029Y-15884374D01*
X15429029Y-15884374D02*
X15438553Y-15846279D01*
X15438553Y-15846279D02*
X15448077Y-15827231D01*
X15448077Y-15827231D02*
X15457601Y-15817708D01*
X15457601Y-15817708D02*
X15476648Y-15808184D01*
X15619506Y-15827231D02*
X15629029Y-15817708D01*
X15629029Y-15817708D02*
X15648077Y-15808184D01*
X15648077Y-15808184D02*
X15695696Y-15808184D01*
X15695696Y-15808184D02*
X15714744Y-15817708D01*
X15714744Y-15817708D02*
X15724267Y-15827231D01*
X15724267Y-15827231D02*
X15733791Y-15846279D01*
X15733791Y-15846279D02*
X15733791Y-15865327D01*
X15733791Y-15865327D02*
X15724267Y-15893898D01*
X15724267Y-15893898D02*
X15609982Y-16008184D01*
X15609982Y-16008184D02*
X15733791Y-16008184D01*
X15800458Y-15808184D02*
X15924267Y-15808184D01*
X15924267Y-15808184D02*
X15857601Y-15884374D01*
X15857601Y-15884374D02*
X15886172Y-15884374D01*
X15886172Y-15884374D02*
X15905220Y-15893898D01*
X15905220Y-15893898D02*
X15914744Y-15903422D01*
X15914744Y-15903422D02*
X15924267Y-15922469D01*
X15924267Y-15922469D02*
X15924267Y-15970088D01*
X15924267Y-15970088D02*
X15914744Y-15989136D01*
X15914744Y-15989136D02*
X15905220Y-15998660D01*
X15905220Y-15998660D02*
X15886172Y-16008184D01*
X15886172Y-16008184D02*
X15829029Y-16008184D01*
X15829029Y-16008184D02*
X15809982Y-15998660D01*
X15809982Y-15998660D02*
X15800458Y-15989136D01*
X16095696Y-15808184D02*
X16057601Y-15808184D01*
X16057601Y-15808184D02*
X16038553Y-15817708D01*
X16038553Y-15817708D02*
X16029029Y-15827231D01*
X16029029Y-15827231D02*
X16009982Y-15855803D01*
X16009982Y-15855803D02*
X16000458Y-15893898D01*
X16000458Y-15893898D02*
X16000458Y-15970088D01*
X16000458Y-15970088D02*
X16009982Y-15989136D01*
X16009982Y-15989136D02*
X16019506Y-15998660D01*
X16019506Y-15998660D02*
X16038553Y-16008184D01*
X16038553Y-16008184D02*
X16076648Y-16008184D01*
X16076648Y-16008184D02*
X16095696Y-15998660D01*
X16095696Y-15998660D02*
X16105220Y-15989136D01*
X16105220Y-15989136D02*
X16114744Y-15970088D01*
X16114744Y-15970088D02*
X16114744Y-15922469D01*
X16114744Y-15922469D02*
X16105220Y-15903422D01*
X16105220Y-15903422D02*
X16095696Y-15893898D01*
X16095696Y-15893898D02*
X16076648Y-15884374D01*
X16076648Y-15884374D02*
X16038553Y-15884374D01*
X16038553Y-15884374D02*
X16019506Y-15893898D01*
X16019506Y-15893898D02*
X16009982Y-15903422D01*
X16009982Y-15903422D02*
X16000458Y-15922469D01*
X16190934Y-15808184D02*
X16190934Y-15846279D01*
X16267125Y-15808184D02*
X16267125Y-15846279D01*
X16562363Y-16084374D02*
X16552839Y-16074850D01*
X16552839Y-16074850D02*
X16533791Y-16046279D01*
X16533791Y-16046279D02*
X16524268Y-16027231D01*
X16524268Y-16027231D02*
X16514744Y-15998660D01*
X16514744Y-15998660D02*
X16505220Y-15951041D01*
X16505220Y-15951041D02*
X16505220Y-15912946D01*
X16505220Y-15912946D02*
X16514744Y-15865327D01*
X16514744Y-15865327D02*
X16524268Y-15836755D01*
X16524268Y-15836755D02*
X16533791Y-15817708D01*
X16533791Y-15817708D02*
X16552839Y-15789136D01*
X16552839Y-15789136D02*
X16562363Y-15779612D01*
X16629029Y-15827231D02*
X16638553Y-15817708D01*
X16638553Y-15817708D02*
X16657601Y-15808184D01*
X16657601Y-15808184D02*
X16705220Y-15808184D01*
X16705220Y-15808184D02*
X16724268Y-15817708D01*
X16724268Y-15817708D02*
X16733791Y-15827231D01*
X16733791Y-15827231D02*
X16743315Y-15846279D01*
X16743315Y-15846279D02*
X16743315Y-15865327D01*
X16743315Y-15865327D02*
X16733791Y-15893898D01*
X16733791Y-15893898D02*
X16619506Y-16008184D01*
X16619506Y-16008184D02*
X16743315Y-16008184D01*
X16981411Y-16008184D02*
X16981411Y-15808184D01*
X17067125Y-16008184D02*
X17067125Y-15903422D01*
X17067125Y-15903422D02*
X17057601Y-15884374D01*
X17057601Y-15884374D02*
X17038553Y-15874850D01*
X17038553Y-15874850D02*
X17009982Y-15874850D01*
X17009982Y-15874850D02*
X16990934Y-15884374D01*
X16990934Y-15884374D02*
X16981411Y-15893898D01*
X17190934Y-16008184D02*
X17171887Y-15998660D01*
X17171887Y-15998660D02*
X17162363Y-15989136D01*
X17162363Y-15989136D02*
X17152839Y-15970088D01*
X17152839Y-15970088D02*
X17152839Y-15912946D01*
X17152839Y-15912946D02*
X17162363Y-15893898D01*
X17162363Y-15893898D02*
X17171887Y-15884374D01*
X17171887Y-15884374D02*
X17190934Y-15874850D01*
X17190934Y-15874850D02*
X17219506Y-15874850D01*
X17219506Y-15874850D02*
X17238553Y-15884374D01*
X17238553Y-15884374D02*
X17248077Y-15893898D01*
X17248077Y-15893898D02*
X17257601Y-15912946D01*
X17257601Y-15912946D02*
X17257601Y-15970088D01*
X17257601Y-15970088D02*
X17248077Y-15989136D01*
X17248077Y-15989136D02*
X17238553Y-15998660D01*
X17238553Y-15998660D02*
X17219506Y-16008184D01*
X17219506Y-16008184D02*
X17190934Y-16008184D01*
X17371887Y-16008184D02*
X17352839Y-15998660D01*
X17352839Y-15998660D02*
X17343315Y-15979612D01*
X17343315Y-15979612D02*
X17343315Y-15808184D01*
X17524268Y-15998660D02*
X17505220Y-16008184D01*
X17505220Y-16008184D02*
X17467125Y-16008184D01*
X17467125Y-16008184D02*
X17448077Y-15998660D01*
X17448077Y-15998660D02*
X17438553Y-15979612D01*
X17438553Y-15979612D02*
X17438553Y-15903422D01*
X17438553Y-15903422D02*
X17448077Y-15884374D01*
X17448077Y-15884374D02*
X17467125Y-15874850D01*
X17467125Y-15874850D02*
X17505220Y-15874850D01*
X17505220Y-15874850D02*
X17524268Y-15884374D01*
X17524268Y-15884374D02*
X17533792Y-15903422D01*
X17533792Y-15903422D02*
X17533792Y-15922469D01*
X17533792Y-15922469D02*
X17438553Y-15941517D01*
X17609982Y-15998660D02*
X17629030Y-16008184D01*
X17629030Y-16008184D02*
X17667125Y-16008184D01*
X17667125Y-16008184D02*
X17686173Y-15998660D01*
X17686173Y-15998660D02*
X17695696Y-15979612D01*
X17695696Y-15979612D02*
X17695696Y-15970088D01*
X17695696Y-15970088D02*
X17686173Y-15951041D01*
X17686173Y-15951041D02*
X17667125Y-15941517D01*
X17667125Y-15941517D02*
X17638553Y-15941517D01*
X17638553Y-15941517D02*
X17619506Y-15931993D01*
X17619506Y-15931993D02*
X17609982Y-15912946D01*
X17609982Y-15912946D02*
X17609982Y-15903422D01*
X17609982Y-15903422D02*
X17619506Y-15884374D01*
X17619506Y-15884374D02*
X17638553Y-15874850D01*
X17638553Y-15874850D02*
X17667125Y-15874850D01*
X17667125Y-15874850D02*
X17686173Y-15884374D01*
X17762363Y-16084374D02*
X17771887Y-16074850D01*
X17771887Y-16074850D02*
X17790934Y-16046279D01*
X17790934Y-16046279D02*
X17800458Y-16027231D01*
X17800458Y-16027231D02*
X17809982Y-15998660D01*
X17809982Y-15998660D02*
X17819506Y-15951041D01*
X17819506Y-15951041D02*
X17819506Y-15912946D01*
X17819506Y-15912946D02*
X17809982Y-15865327D01*
X17809982Y-15865327D02*
X17800458Y-15836755D01*
X17800458Y-15836755D02*
X17790934Y-15817708D01*
X17790934Y-15817708D02*
X17771887Y-15789136D01*
X17771887Y-15789136D02*
X17762363Y-15779612D01*
D12*
X12947300Y-16140700D02*
X12947300Y-16220700D01*
X12907300Y-16180700D02*
X12987300Y-16180700D01*
D11*
X13286172Y-16072184D02*
X13305220Y-16072184D01*
X13305220Y-16072184D02*
X13324267Y-16081708D01*
X13324267Y-16081708D02*
X13333791Y-16091231D01*
X13333791Y-16091231D02*
X13343315Y-16110279D01*
X13343315Y-16110279D02*
X13352839Y-16148374D01*
X13352839Y-16148374D02*
X13352839Y-16195993D01*
X13352839Y-16195993D02*
X13343315Y-16234088D01*
X13343315Y-16234088D02*
X13333791Y-16253136D01*
X13333791Y-16253136D02*
X13324267Y-16262660D01*
X13324267Y-16262660D02*
X13305220Y-16272184D01*
X13305220Y-16272184D02*
X13286172Y-16272184D01*
X13286172Y-16272184D02*
X13267124Y-16262660D01*
X13267124Y-16262660D02*
X13257601Y-16253136D01*
X13257601Y-16253136D02*
X13248077Y-16234088D01*
X13248077Y-16234088D02*
X13238553Y-16195993D01*
X13238553Y-16195993D02*
X13238553Y-16148374D01*
X13238553Y-16148374D02*
X13248077Y-16110279D01*
X13248077Y-16110279D02*
X13257601Y-16091231D01*
X13257601Y-16091231D02*
X13267124Y-16081708D01*
X13267124Y-16081708D02*
X13286172Y-16072184D01*
X13438553Y-16253136D02*
X13448077Y-16262660D01*
X13448077Y-16262660D02*
X13438553Y-16272184D01*
X13438553Y-16272184D02*
X13429029Y-16262660D01*
X13429029Y-16262660D02*
X13438553Y-16253136D01*
X13438553Y-16253136D02*
X13438553Y-16272184D01*
X13562362Y-16157898D02*
X13543315Y-16148374D01*
X13543315Y-16148374D02*
X13533791Y-16138850D01*
X13533791Y-16138850D02*
X13524267Y-16119803D01*
X13524267Y-16119803D02*
X13524267Y-16110279D01*
X13524267Y-16110279D02*
X13533791Y-16091231D01*
X13533791Y-16091231D02*
X13543315Y-16081708D01*
X13543315Y-16081708D02*
X13562362Y-16072184D01*
X13562362Y-16072184D02*
X13600458Y-16072184D01*
X13600458Y-16072184D02*
X13619505Y-16081708D01*
X13619505Y-16081708D02*
X13629029Y-16091231D01*
X13629029Y-16091231D02*
X13638553Y-16110279D01*
X13638553Y-16110279D02*
X13638553Y-16119803D01*
X13638553Y-16119803D02*
X13629029Y-16138850D01*
X13629029Y-16138850D02*
X13619505Y-16148374D01*
X13619505Y-16148374D02*
X13600458Y-16157898D01*
X13600458Y-16157898D02*
X13562362Y-16157898D01*
X13562362Y-16157898D02*
X13543315Y-16167422D01*
X13543315Y-16167422D02*
X13533791Y-16176946D01*
X13533791Y-16176946D02*
X13524267Y-16195993D01*
X13524267Y-16195993D02*
X13524267Y-16234088D01*
X13524267Y-16234088D02*
X13533791Y-16253136D01*
X13533791Y-16253136D02*
X13543315Y-16262660D01*
X13543315Y-16262660D02*
X13562362Y-16272184D01*
X13562362Y-16272184D02*
X13600458Y-16272184D01*
X13600458Y-16272184D02*
X13619505Y-16262660D01*
X13619505Y-16262660D02*
X13629029Y-16253136D01*
X13629029Y-16253136D02*
X13638553Y-16234088D01*
X13638553Y-16234088D02*
X13638553Y-16195993D01*
X13638553Y-16195993D02*
X13629029Y-16176946D01*
X13629029Y-16176946D02*
X13619505Y-16167422D01*
X13619505Y-16167422D02*
X13600458Y-16157898D01*
X13762362Y-16072184D02*
X13781410Y-16072184D01*
X13781410Y-16072184D02*
X13800458Y-16081708D01*
X13800458Y-16081708D02*
X13809982Y-16091231D01*
X13809982Y-16091231D02*
X13819505Y-16110279D01*
X13819505Y-16110279D02*
X13829029Y-16148374D01*
X13829029Y-16148374D02*
X13829029Y-16195993D01*
X13829029Y-16195993D02*
X13819505Y-16234088D01*
X13819505Y-16234088D02*
X13809982Y-16253136D01*
X13809982Y-16253136D02*
X13800458Y-16262660D01*
X13800458Y-16262660D02*
X13781410Y-16272184D01*
X13781410Y-16272184D02*
X13762362Y-16272184D01*
X13762362Y-16272184D02*
X13743315Y-16262660D01*
X13743315Y-16262660D02*
X13733791Y-16253136D01*
X13733791Y-16253136D02*
X13724267Y-16234088D01*
X13724267Y-16234088D02*
X13714743Y-16195993D01*
X13714743Y-16195993D02*
X13714743Y-16148374D01*
X13714743Y-16148374D02*
X13724267Y-16110279D01*
X13724267Y-16110279D02*
X13733791Y-16091231D01*
X13733791Y-16091231D02*
X13743315Y-16081708D01*
X13743315Y-16081708D02*
X13762362Y-16072184D01*
X13952839Y-16072184D02*
X13971886Y-16072184D01*
X13971886Y-16072184D02*
X13990934Y-16081708D01*
X13990934Y-16081708D02*
X14000458Y-16091231D01*
X14000458Y-16091231D02*
X14009982Y-16110279D01*
X14009982Y-16110279D02*
X14019505Y-16148374D01*
X14019505Y-16148374D02*
X14019505Y-16195993D01*
X14019505Y-16195993D02*
X14009982Y-16234088D01*
X14009982Y-16234088D02*
X14000458Y-16253136D01*
X14000458Y-16253136D02*
X13990934Y-16262660D01*
X13990934Y-16262660D02*
X13971886Y-16272184D01*
X13971886Y-16272184D02*
X13952839Y-16272184D01*
X13952839Y-16272184D02*
X13933791Y-16262660D01*
X13933791Y-16262660D02*
X13924267Y-16253136D01*
X13924267Y-16253136D02*
X13914743Y-16234088D01*
X13914743Y-16234088D02*
X13905220Y-16195993D01*
X13905220Y-16195993D02*
X13905220Y-16148374D01*
X13905220Y-16148374D02*
X13914743Y-16110279D01*
X13914743Y-16110279D02*
X13924267Y-16091231D01*
X13924267Y-16091231D02*
X13933791Y-16081708D01*
X13933791Y-16081708D02*
X13952839Y-16072184D01*
X14105220Y-16272184D02*
X14105220Y-16138850D01*
X14105220Y-16157898D02*
X14114743Y-16148374D01*
X14114743Y-16148374D02*
X14133791Y-16138850D01*
X14133791Y-16138850D02*
X14162363Y-16138850D01*
X14162363Y-16138850D02*
X14181410Y-16148374D01*
X14181410Y-16148374D02*
X14190934Y-16167422D01*
X14190934Y-16167422D02*
X14190934Y-16272184D01*
X14190934Y-16167422D02*
X14200458Y-16148374D01*
X14200458Y-16148374D02*
X14219505Y-16138850D01*
X14219505Y-16138850D02*
X14248077Y-16138850D01*
X14248077Y-16138850D02*
X14267124Y-16148374D01*
X14267124Y-16148374D02*
X14276648Y-16167422D01*
X14276648Y-16167422D02*
X14276648Y-16272184D01*
X14371886Y-16272184D02*
X14371886Y-16138850D01*
X14371886Y-16157898D02*
X14381410Y-16148374D01*
X14381410Y-16148374D02*
X14400458Y-16138850D01*
X14400458Y-16138850D02*
X14429029Y-16138850D01*
X14429029Y-16138850D02*
X14448077Y-16148374D01*
X14448077Y-16148374D02*
X14457601Y-16167422D01*
X14457601Y-16167422D02*
X14457601Y-16272184D01*
X14457601Y-16167422D02*
X14467124Y-16148374D01*
X14467124Y-16148374D02*
X14486172Y-16138850D01*
X14486172Y-16138850D02*
X14514743Y-16138850D01*
X14514743Y-16138850D02*
X14533791Y-16148374D01*
X14533791Y-16148374D02*
X14543315Y-16167422D01*
X14543315Y-16167422D02*
X14543315Y-16272184D01*
X14933791Y-16062660D02*
X14762363Y-16319803D01*
X15190934Y-16072184D02*
X15209982Y-16072184D01*
X15209982Y-16072184D02*
X15229029Y-16081708D01*
X15229029Y-16081708D02*
X15238553Y-16091231D01*
X15238553Y-16091231D02*
X15248077Y-16110279D01*
X15248077Y-16110279D02*
X15257601Y-16148374D01*
X15257601Y-16148374D02*
X15257601Y-16195993D01*
X15257601Y-16195993D02*
X15248077Y-16234088D01*
X15248077Y-16234088D02*
X15238553Y-16253136D01*
X15238553Y-16253136D02*
X15229029Y-16262660D01*
X15229029Y-16262660D02*
X15209982Y-16272184D01*
X15209982Y-16272184D02*
X15190934Y-16272184D01*
X15190934Y-16272184D02*
X15171886Y-16262660D01*
X15171886Y-16262660D02*
X15162363Y-16253136D01*
X15162363Y-16253136D02*
X15152839Y-16234088D01*
X15152839Y-16234088D02*
X15143315Y-16195993D01*
X15143315Y-16195993D02*
X15143315Y-16148374D01*
X15143315Y-16148374D02*
X15152839Y-16110279D01*
X15152839Y-16110279D02*
X15162363Y-16091231D01*
X15162363Y-16091231D02*
X15171886Y-16081708D01*
X15171886Y-16081708D02*
X15190934Y-16072184D01*
X15343315Y-16253136D02*
X15352839Y-16262660D01*
X15352839Y-16262660D02*
X15343315Y-16272184D01*
X15343315Y-16272184D02*
X15333791Y-16262660D01*
X15333791Y-16262660D02*
X15343315Y-16253136D01*
X15343315Y-16253136D02*
X15343315Y-16272184D01*
X15476648Y-16072184D02*
X15495696Y-16072184D01*
X15495696Y-16072184D02*
X15514744Y-16081708D01*
X15514744Y-16081708D02*
X15524267Y-16091231D01*
X15524267Y-16091231D02*
X15533791Y-16110279D01*
X15533791Y-16110279D02*
X15543315Y-16148374D01*
X15543315Y-16148374D02*
X15543315Y-16195993D01*
X15543315Y-16195993D02*
X15533791Y-16234088D01*
X15533791Y-16234088D02*
X15524267Y-16253136D01*
X15524267Y-16253136D02*
X15514744Y-16262660D01*
X15514744Y-16262660D02*
X15495696Y-16272184D01*
X15495696Y-16272184D02*
X15476648Y-16272184D01*
X15476648Y-16272184D02*
X15457601Y-16262660D01*
X15457601Y-16262660D02*
X15448077Y-16253136D01*
X15448077Y-16253136D02*
X15438553Y-16234088D01*
X15438553Y-16234088D02*
X15429029Y-16195993D01*
X15429029Y-16195993D02*
X15429029Y-16148374D01*
X15429029Y-16148374D02*
X15438553Y-16110279D01*
X15438553Y-16110279D02*
X15448077Y-16091231D01*
X15448077Y-16091231D02*
X15457601Y-16081708D01*
X15457601Y-16081708D02*
X15476648Y-16072184D01*
X15609982Y-16072184D02*
X15733791Y-16072184D01*
X15733791Y-16072184D02*
X15667125Y-16148374D01*
X15667125Y-16148374D02*
X15695696Y-16148374D01*
X15695696Y-16148374D02*
X15714744Y-16157898D01*
X15714744Y-16157898D02*
X15724267Y-16167422D01*
X15724267Y-16167422D02*
X15733791Y-16186469D01*
X15733791Y-16186469D02*
X15733791Y-16234088D01*
X15733791Y-16234088D02*
X15724267Y-16253136D01*
X15724267Y-16253136D02*
X15714744Y-16262660D01*
X15714744Y-16262660D02*
X15695696Y-16272184D01*
X15695696Y-16272184D02*
X15638553Y-16272184D01*
X15638553Y-16272184D02*
X15619506Y-16262660D01*
X15619506Y-16262660D02*
X15609982Y-16253136D01*
X15924267Y-16272184D02*
X15809982Y-16272184D01*
X15867125Y-16272184D02*
X15867125Y-16072184D01*
X15867125Y-16072184D02*
X15848077Y-16100755D01*
X15848077Y-16100755D02*
X15829029Y-16119803D01*
X15829029Y-16119803D02*
X15809982Y-16129327D01*
X16105220Y-16072184D02*
X16009982Y-16072184D01*
X16009982Y-16072184D02*
X16000458Y-16167422D01*
X16000458Y-16167422D02*
X16009982Y-16157898D01*
X16009982Y-16157898D02*
X16029029Y-16148374D01*
X16029029Y-16148374D02*
X16076648Y-16148374D01*
X16076648Y-16148374D02*
X16095696Y-16157898D01*
X16095696Y-16157898D02*
X16105220Y-16167422D01*
X16105220Y-16167422D02*
X16114744Y-16186469D01*
X16114744Y-16186469D02*
X16114744Y-16234088D01*
X16114744Y-16234088D02*
X16105220Y-16253136D01*
X16105220Y-16253136D02*
X16095696Y-16262660D01*
X16095696Y-16262660D02*
X16076648Y-16272184D01*
X16076648Y-16272184D02*
X16029029Y-16272184D01*
X16029029Y-16272184D02*
X16009982Y-16262660D01*
X16009982Y-16262660D02*
X16000458Y-16253136D01*
X16190934Y-16072184D02*
X16190934Y-16110279D01*
X16267125Y-16072184D02*
X16267125Y-16110279D01*
X16562363Y-16348374D02*
X16552839Y-16338850D01*
X16552839Y-16338850D02*
X16533791Y-16310279D01*
X16533791Y-16310279D02*
X16524268Y-16291231D01*
X16524268Y-16291231D02*
X16514744Y-16262660D01*
X16514744Y-16262660D02*
X16505220Y-16215041D01*
X16505220Y-16215041D02*
X16505220Y-16176946D01*
X16505220Y-16176946D02*
X16514744Y-16129327D01*
X16514744Y-16129327D02*
X16524268Y-16100755D01*
X16524268Y-16100755D02*
X16533791Y-16081708D01*
X16533791Y-16081708D02*
X16552839Y-16053136D01*
X16552839Y-16053136D02*
X16562363Y-16043612D01*
X16724268Y-16138850D02*
X16724268Y-16272184D01*
X16676648Y-16062660D02*
X16629029Y-16205517D01*
X16629029Y-16205517D02*
X16752839Y-16205517D01*
X16981411Y-16272184D02*
X16981411Y-16072184D01*
X17067125Y-16272184D02*
X17067125Y-16167422D01*
X17067125Y-16167422D02*
X17057601Y-16148374D01*
X17057601Y-16148374D02*
X17038553Y-16138850D01*
X17038553Y-16138850D02*
X17009982Y-16138850D01*
X17009982Y-16138850D02*
X16990934Y-16148374D01*
X16990934Y-16148374D02*
X16981411Y-16157898D01*
X17190934Y-16272184D02*
X17171887Y-16262660D01*
X17171887Y-16262660D02*
X17162363Y-16253136D01*
X17162363Y-16253136D02*
X17152839Y-16234088D01*
X17152839Y-16234088D02*
X17152839Y-16176946D01*
X17152839Y-16176946D02*
X17162363Y-16157898D01*
X17162363Y-16157898D02*
X17171887Y-16148374D01*
X17171887Y-16148374D02*
X17190934Y-16138850D01*
X17190934Y-16138850D02*
X17219506Y-16138850D01*
X17219506Y-16138850D02*
X17238553Y-16148374D01*
X17238553Y-16148374D02*
X17248077Y-16157898D01*
X17248077Y-16157898D02*
X17257601Y-16176946D01*
X17257601Y-16176946D02*
X17257601Y-16234088D01*
X17257601Y-16234088D02*
X17248077Y-16253136D01*
X17248077Y-16253136D02*
X17238553Y-16262660D01*
X17238553Y-16262660D02*
X17219506Y-16272184D01*
X17219506Y-16272184D02*
X17190934Y-16272184D01*
X17371887Y-16272184D02*
X17352839Y-16262660D01*
X17352839Y-16262660D02*
X17343315Y-16243612D01*
X17343315Y-16243612D02*
X17343315Y-16072184D01*
X17524268Y-16262660D02*
X17505220Y-16272184D01*
X17505220Y-16272184D02*
X17467125Y-16272184D01*
X17467125Y-16272184D02*
X17448077Y-16262660D01*
X17448077Y-16262660D02*
X17438553Y-16243612D01*
X17438553Y-16243612D02*
X17438553Y-16167422D01*
X17438553Y-16167422D02*
X17448077Y-16148374D01*
X17448077Y-16148374D02*
X17467125Y-16138850D01*
X17467125Y-16138850D02*
X17505220Y-16138850D01*
X17505220Y-16138850D02*
X17524268Y-16148374D01*
X17524268Y-16148374D02*
X17533792Y-16167422D01*
X17533792Y-16167422D02*
X17533792Y-16186469D01*
X17533792Y-16186469D02*
X17438553Y-16205517D01*
X17609982Y-16262660D02*
X17629030Y-16272184D01*
X17629030Y-16272184D02*
X17667125Y-16272184D01*
X17667125Y-16272184D02*
X17686173Y-16262660D01*
X17686173Y-16262660D02*
X17695696Y-16243612D01*
X17695696Y-16243612D02*
X17695696Y-16234088D01*
X17695696Y-16234088D02*
X17686173Y-16215041D01*
X17686173Y-16215041D02*
X17667125Y-16205517D01*
X17667125Y-16205517D02*
X17638553Y-16205517D01*
X17638553Y-16205517D02*
X17619506Y-16195993D01*
X17619506Y-16195993D02*
X17609982Y-16176946D01*
X17609982Y-16176946D02*
X17609982Y-16167422D01*
X17609982Y-16167422D02*
X17619506Y-16148374D01*
X17619506Y-16148374D02*
X17638553Y-16138850D01*
X17638553Y-16138850D02*
X17667125Y-16138850D01*
X17667125Y-16138850D02*
X17686173Y-16148374D01*
X17762363Y-16348374D02*
X17771887Y-16338850D01*
X17771887Y-16338850D02*
X17790934Y-16310279D01*
X17790934Y-16310279D02*
X17800458Y-16291231D01*
X17800458Y-16291231D02*
X17809982Y-16262660D01*
X17809982Y-16262660D02*
X17819506Y-16215041D01*
X17819506Y-16215041D02*
X17819506Y-16176946D01*
X17819506Y-16176946D02*
X17809982Y-16129327D01*
X17809982Y-16129327D02*
X17800458Y-16100755D01*
X17800458Y-16100755D02*
X17790934Y-16081708D01*
X17790934Y-16081708D02*
X17771887Y-16053136D01*
X17771887Y-16053136D02*
X17762363Y-16043612D01*
D12*
X12974281Y-16476131D02*
X12974281Y-16413269D01*
X12911419Y-16413269D01*
X12911419Y-16476131D01*
X12974281Y-16476131D01*
D11*
X13286172Y-16336184D02*
X13305220Y-16336184D01*
X13305220Y-16336184D02*
X13324267Y-16345708D01*
X13324267Y-16345708D02*
X13333791Y-16355231D01*
X13333791Y-16355231D02*
X13343315Y-16374279D01*
X13343315Y-16374279D02*
X13352839Y-16412374D01*
X13352839Y-16412374D02*
X13352839Y-16459993D01*
X13352839Y-16459993D02*
X13343315Y-16498088D01*
X13343315Y-16498088D02*
X13333791Y-16517136D01*
X13333791Y-16517136D02*
X13324267Y-16526660D01*
X13324267Y-16526660D02*
X13305220Y-16536184D01*
X13305220Y-16536184D02*
X13286172Y-16536184D01*
X13286172Y-16536184D02*
X13267124Y-16526660D01*
X13267124Y-16526660D02*
X13257601Y-16517136D01*
X13257601Y-16517136D02*
X13248077Y-16498088D01*
X13248077Y-16498088D02*
X13238553Y-16459993D01*
X13238553Y-16459993D02*
X13238553Y-16412374D01*
X13238553Y-16412374D02*
X13248077Y-16374279D01*
X13248077Y-16374279D02*
X13257601Y-16355231D01*
X13257601Y-16355231D02*
X13267124Y-16345708D01*
X13267124Y-16345708D02*
X13286172Y-16336184D01*
X13438553Y-16517136D02*
X13448077Y-16526660D01*
X13448077Y-16526660D02*
X13438553Y-16536184D01*
X13438553Y-16536184D02*
X13429029Y-16526660D01*
X13429029Y-16526660D02*
X13438553Y-16517136D01*
X13438553Y-16517136D02*
X13438553Y-16536184D01*
X13562362Y-16421898D02*
X13543315Y-16412374D01*
X13543315Y-16412374D02*
X13533791Y-16402850D01*
X13533791Y-16402850D02*
X13524267Y-16383803D01*
X13524267Y-16383803D02*
X13524267Y-16374279D01*
X13524267Y-16374279D02*
X13533791Y-16355231D01*
X13533791Y-16355231D02*
X13543315Y-16345708D01*
X13543315Y-16345708D02*
X13562362Y-16336184D01*
X13562362Y-16336184D02*
X13600458Y-16336184D01*
X13600458Y-16336184D02*
X13619505Y-16345708D01*
X13619505Y-16345708D02*
X13629029Y-16355231D01*
X13629029Y-16355231D02*
X13638553Y-16374279D01*
X13638553Y-16374279D02*
X13638553Y-16383803D01*
X13638553Y-16383803D02*
X13629029Y-16402850D01*
X13629029Y-16402850D02*
X13619505Y-16412374D01*
X13619505Y-16412374D02*
X13600458Y-16421898D01*
X13600458Y-16421898D02*
X13562362Y-16421898D01*
X13562362Y-16421898D02*
X13543315Y-16431422D01*
X13543315Y-16431422D02*
X13533791Y-16440946D01*
X13533791Y-16440946D02*
X13524267Y-16459993D01*
X13524267Y-16459993D02*
X13524267Y-16498088D01*
X13524267Y-16498088D02*
X13533791Y-16517136D01*
X13533791Y-16517136D02*
X13543315Y-16526660D01*
X13543315Y-16526660D02*
X13562362Y-16536184D01*
X13562362Y-16536184D02*
X13600458Y-16536184D01*
X13600458Y-16536184D02*
X13619505Y-16526660D01*
X13619505Y-16526660D02*
X13629029Y-16517136D01*
X13629029Y-16517136D02*
X13638553Y-16498088D01*
X13638553Y-16498088D02*
X13638553Y-16459993D01*
X13638553Y-16459993D02*
X13629029Y-16440946D01*
X13629029Y-16440946D02*
X13619505Y-16431422D01*
X13619505Y-16431422D02*
X13600458Y-16421898D01*
X13752839Y-16421898D02*
X13733791Y-16412374D01*
X13733791Y-16412374D02*
X13724267Y-16402850D01*
X13724267Y-16402850D02*
X13714743Y-16383803D01*
X13714743Y-16383803D02*
X13714743Y-16374279D01*
X13714743Y-16374279D02*
X13724267Y-16355231D01*
X13724267Y-16355231D02*
X13733791Y-16345708D01*
X13733791Y-16345708D02*
X13752839Y-16336184D01*
X13752839Y-16336184D02*
X13790934Y-16336184D01*
X13790934Y-16336184D02*
X13809982Y-16345708D01*
X13809982Y-16345708D02*
X13819505Y-16355231D01*
X13819505Y-16355231D02*
X13829029Y-16374279D01*
X13829029Y-16374279D02*
X13829029Y-16383803D01*
X13829029Y-16383803D02*
X13819505Y-16402850D01*
X13819505Y-16402850D02*
X13809982Y-16412374D01*
X13809982Y-16412374D02*
X13790934Y-16421898D01*
X13790934Y-16421898D02*
X13752839Y-16421898D01*
X13752839Y-16421898D02*
X13733791Y-16431422D01*
X13733791Y-16431422D02*
X13724267Y-16440946D01*
X13724267Y-16440946D02*
X13714743Y-16459993D01*
X13714743Y-16459993D02*
X13714743Y-16498088D01*
X13714743Y-16498088D02*
X13724267Y-16517136D01*
X13724267Y-16517136D02*
X13733791Y-16526660D01*
X13733791Y-16526660D02*
X13752839Y-16536184D01*
X13752839Y-16536184D02*
X13790934Y-16536184D01*
X13790934Y-16536184D02*
X13809982Y-16526660D01*
X13809982Y-16526660D02*
X13819505Y-16517136D01*
X13819505Y-16517136D02*
X13829029Y-16498088D01*
X13829029Y-16498088D02*
X13829029Y-16459993D01*
X13829029Y-16459993D02*
X13819505Y-16440946D01*
X13819505Y-16440946D02*
X13809982Y-16431422D01*
X13809982Y-16431422D02*
X13790934Y-16421898D01*
X13924267Y-16536184D02*
X13962362Y-16536184D01*
X13962362Y-16536184D02*
X13981410Y-16526660D01*
X13981410Y-16526660D02*
X13990934Y-16517136D01*
X13990934Y-16517136D02*
X14009982Y-16488565D01*
X14009982Y-16488565D02*
X14019505Y-16450469D01*
X14019505Y-16450469D02*
X14019505Y-16374279D01*
X14019505Y-16374279D02*
X14009982Y-16355231D01*
X14009982Y-16355231D02*
X14000458Y-16345708D01*
X14000458Y-16345708D02*
X13981410Y-16336184D01*
X13981410Y-16336184D02*
X13943315Y-16336184D01*
X13943315Y-16336184D02*
X13924267Y-16345708D01*
X13924267Y-16345708D02*
X13914743Y-16355231D01*
X13914743Y-16355231D02*
X13905220Y-16374279D01*
X13905220Y-16374279D02*
X13905220Y-16421898D01*
X13905220Y-16421898D02*
X13914743Y-16440946D01*
X13914743Y-16440946D02*
X13924267Y-16450469D01*
X13924267Y-16450469D02*
X13943315Y-16459993D01*
X13943315Y-16459993D02*
X13981410Y-16459993D01*
X13981410Y-16459993D02*
X14000458Y-16450469D01*
X14000458Y-16450469D02*
X14009982Y-16440946D01*
X14009982Y-16440946D02*
X14019505Y-16421898D01*
X14105220Y-16536184D02*
X14105220Y-16402850D01*
X14105220Y-16421898D02*
X14114743Y-16412374D01*
X14114743Y-16412374D02*
X14133791Y-16402850D01*
X14133791Y-16402850D02*
X14162363Y-16402850D01*
X14162363Y-16402850D02*
X14181410Y-16412374D01*
X14181410Y-16412374D02*
X14190934Y-16431422D01*
X14190934Y-16431422D02*
X14190934Y-16536184D01*
X14190934Y-16431422D02*
X14200458Y-16412374D01*
X14200458Y-16412374D02*
X14219505Y-16402850D01*
X14219505Y-16402850D02*
X14248077Y-16402850D01*
X14248077Y-16402850D02*
X14267124Y-16412374D01*
X14267124Y-16412374D02*
X14276648Y-16431422D01*
X14276648Y-16431422D02*
X14276648Y-16536184D01*
X14371886Y-16536184D02*
X14371886Y-16402850D01*
X14371886Y-16421898D02*
X14381410Y-16412374D01*
X14381410Y-16412374D02*
X14400458Y-16402850D01*
X14400458Y-16402850D02*
X14429029Y-16402850D01*
X14429029Y-16402850D02*
X14448077Y-16412374D01*
X14448077Y-16412374D02*
X14457601Y-16431422D01*
X14457601Y-16431422D02*
X14457601Y-16536184D01*
X14457601Y-16431422D02*
X14467124Y-16412374D01*
X14467124Y-16412374D02*
X14486172Y-16402850D01*
X14486172Y-16402850D02*
X14514743Y-16402850D01*
X14514743Y-16402850D02*
X14533791Y-16412374D01*
X14533791Y-16412374D02*
X14543315Y-16431422D01*
X14543315Y-16431422D02*
X14543315Y-16536184D01*
X14933791Y-16326660D02*
X14762363Y-16583803D01*
X15190934Y-16336184D02*
X15209982Y-16336184D01*
X15209982Y-16336184D02*
X15229029Y-16345708D01*
X15229029Y-16345708D02*
X15238553Y-16355231D01*
X15238553Y-16355231D02*
X15248077Y-16374279D01*
X15248077Y-16374279D02*
X15257601Y-16412374D01*
X15257601Y-16412374D02*
X15257601Y-16459993D01*
X15257601Y-16459993D02*
X15248077Y-16498088D01*
X15248077Y-16498088D02*
X15238553Y-16517136D01*
X15238553Y-16517136D02*
X15229029Y-16526660D01*
X15229029Y-16526660D02*
X15209982Y-16536184D01*
X15209982Y-16536184D02*
X15190934Y-16536184D01*
X15190934Y-16536184D02*
X15171886Y-16526660D01*
X15171886Y-16526660D02*
X15162363Y-16517136D01*
X15162363Y-16517136D02*
X15152839Y-16498088D01*
X15152839Y-16498088D02*
X15143315Y-16459993D01*
X15143315Y-16459993D02*
X15143315Y-16412374D01*
X15143315Y-16412374D02*
X15152839Y-16374279D01*
X15152839Y-16374279D02*
X15162363Y-16355231D01*
X15162363Y-16355231D02*
X15171886Y-16345708D01*
X15171886Y-16345708D02*
X15190934Y-16336184D01*
X15343315Y-16517136D02*
X15352839Y-16526660D01*
X15352839Y-16526660D02*
X15343315Y-16536184D01*
X15343315Y-16536184D02*
X15333791Y-16526660D01*
X15333791Y-16526660D02*
X15343315Y-16517136D01*
X15343315Y-16517136D02*
X15343315Y-16536184D01*
X15476648Y-16336184D02*
X15495696Y-16336184D01*
X15495696Y-16336184D02*
X15514744Y-16345708D01*
X15514744Y-16345708D02*
X15524267Y-16355231D01*
X15524267Y-16355231D02*
X15533791Y-16374279D01*
X15533791Y-16374279D02*
X15543315Y-16412374D01*
X15543315Y-16412374D02*
X15543315Y-16459993D01*
X15543315Y-16459993D02*
X15533791Y-16498088D01*
X15533791Y-16498088D02*
X15524267Y-16517136D01*
X15524267Y-16517136D02*
X15514744Y-16526660D01*
X15514744Y-16526660D02*
X15495696Y-16536184D01*
X15495696Y-16536184D02*
X15476648Y-16536184D01*
X15476648Y-16536184D02*
X15457601Y-16526660D01*
X15457601Y-16526660D02*
X15448077Y-16517136D01*
X15448077Y-16517136D02*
X15438553Y-16498088D01*
X15438553Y-16498088D02*
X15429029Y-16459993D01*
X15429029Y-16459993D02*
X15429029Y-16412374D01*
X15429029Y-16412374D02*
X15438553Y-16374279D01*
X15438553Y-16374279D02*
X15448077Y-16355231D01*
X15448077Y-16355231D02*
X15457601Y-16345708D01*
X15457601Y-16345708D02*
X15476648Y-16336184D01*
X15609982Y-16336184D02*
X15733791Y-16336184D01*
X15733791Y-16336184D02*
X15667125Y-16412374D01*
X15667125Y-16412374D02*
X15695696Y-16412374D01*
X15695696Y-16412374D02*
X15714744Y-16421898D01*
X15714744Y-16421898D02*
X15724267Y-16431422D01*
X15724267Y-16431422D02*
X15733791Y-16450469D01*
X15733791Y-16450469D02*
X15733791Y-16498088D01*
X15733791Y-16498088D02*
X15724267Y-16517136D01*
X15724267Y-16517136D02*
X15714744Y-16526660D01*
X15714744Y-16526660D02*
X15695696Y-16536184D01*
X15695696Y-16536184D02*
X15638553Y-16536184D01*
X15638553Y-16536184D02*
X15619506Y-16526660D01*
X15619506Y-16526660D02*
X15609982Y-16517136D01*
X15914744Y-16336184D02*
X15819506Y-16336184D01*
X15819506Y-16336184D02*
X15809982Y-16431422D01*
X15809982Y-16431422D02*
X15819506Y-16421898D01*
X15819506Y-16421898D02*
X15838553Y-16412374D01*
X15838553Y-16412374D02*
X15886172Y-16412374D01*
X15886172Y-16412374D02*
X15905220Y-16421898D01*
X15905220Y-16421898D02*
X15914744Y-16431422D01*
X15914744Y-16431422D02*
X15924267Y-16450469D01*
X15924267Y-16450469D02*
X15924267Y-16498088D01*
X15924267Y-16498088D02*
X15914744Y-16517136D01*
X15914744Y-16517136D02*
X15905220Y-16526660D01*
X15905220Y-16526660D02*
X15886172Y-16536184D01*
X15886172Y-16536184D02*
X15838553Y-16536184D01*
X15838553Y-16536184D02*
X15819506Y-16526660D01*
X15819506Y-16526660D02*
X15809982Y-16517136D01*
X16048077Y-16336184D02*
X16067125Y-16336184D01*
X16067125Y-16336184D02*
X16086172Y-16345708D01*
X16086172Y-16345708D02*
X16095696Y-16355231D01*
X16095696Y-16355231D02*
X16105220Y-16374279D01*
X16105220Y-16374279D02*
X16114744Y-16412374D01*
X16114744Y-16412374D02*
X16114744Y-16459993D01*
X16114744Y-16459993D02*
X16105220Y-16498088D01*
X16105220Y-16498088D02*
X16095696Y-16517136D01*
X16095696Y-16517136D02*
X16086172Y-16526660D01*
X16086172Y-16526660D02*
X16067125Y-16536184D01*
X16067125Y-16536184D02*
X16048077Y-16536184D01*
X16048077Y-16536184D02*
X16029029Y-16526660D01*
X16029029Y-16526660D02*
X16019506Y-16517136D01*
X16019506Y-16517136D02*
X16009982Y-16498088D01*
X16009982Y-16498088D02*
X16000458Y-16459993D01*
X16000458Y-16459993D02*
X16000458Y-16412374D01*
X16000458Y-16412374D02*
X16009982Y-16374279D01*
X16009982Y-16374279D02*
X16019506Y-16355231D01*
X16019506Y-16355231D02*
X16029029Y-16345708D01*
X16029029Y-16345708D02*
X16048077Y-16336184D01*
X16190934Y-16336184D02*
X16190934Y-16374279D01*
X16267125Y-16336184D02*
X16267125Y-16374279D01*
X16562363Y-16612374D02*
X16552839Y-16602850D01*
X16552839Y-16602850D02*
X16533791Y-16574279D01*
X16533791Y-16574279D02*
X16524268Y-16555231D01*
X16524268Y-16555231D02*
X16514744Y-16526660D01*
X16514744Y-16526660D02*
X16505220Y-16479041D01*
X16505220Y-16479041D02*
X16505220Y-16440946D01*
X16505220Y-16440946D02*
X16514744Y-16393327D01*
X16514744Y-16393327D02*
X16524268Y-16364755D01*
X16524268Y-16364755D02*
X16533791Y-16345708D01*
X16533791Y-16345708D02*
X16552839Y-16317136D01*
X16552839Y-16317136D02*
X16562363Y-16307612D01*
X16743315Y-16536184D02*
X16629029Y-16536184D01*
X16686172Y-16536184D02*
X16686172Y-16336184D01*
X16686172Y-16336184D02*
X16667125Y-16364755D01*
X16667125Y-16364755D02*
X16648077Y-16383803D01*
X16648077Y-16383803D02*
X16629029Y-16393327D01*
X16914744Y-16336184D02*
X16876649Y-16336184D01*
X16876649Y-16336184D02*
X16857601Y-16345708D01*
X16857601Y-16345708D02*
X16848077Y-16355231D01*
X16848077Y-16355231D02*
X16829030Y-16383803D01*
X16829030Y-16383803D02*
X16819506Y-16421898D01*
X16819506Y-16421898D02*
X16819506Y-16498088D01*
X16819506Y-16498088D02*
X16829030Y-16517136D01*
X16829030Y-16517136D02*
X16838553Y-16526660D01*
X16838553Y-16526660D02*
X16857601Y-16536184D01*
X16857601Y-16536184D02*
X16895696Y-16536184D01*
X16895696Y-16536184D02*
X16914744Y-16526660D01*
X16914744Y-16526660D02*
X16924268Y-16517136D01*
X16924268Y-16517136D02*
X16933791Y-16498088D01*
X16933791Y-16498088D02*
X16933791Y-16450469D01*
X16933791Y-16450469D02*
X16924268Y-16431422D01*
X16924268Y-16431422D02*
X16914744Y-16421898D01*
X16914744Y-16421898D02*
X16895696Y-16412374D01*
X16895696Y-16412374D02*
X16857601Y-16412374D01*
X16857601Y-16412374D02*
X16838553Y-16421898D01*
X16838553Y-16421898D02*
X16829030Y-16431422D01*
X16829030Y-16431422D02*
X16819506Y-16450469D01*
X17171887Y-16536184D02*
X17171887Y-16336184D01*
X17257601Y-16536184D02*
X17257601Y-16431422D01*
X17257601Y-16431422D02*
X17248077Y-16412374D01*
X17248077Y-16412374D02*
X17229030Y-16402850D01*
X17229030Y-16402850D02*
X17200458Y-16402850D01*
X17200458Y-16402850D02*
X17181411Y-16412374D01*
X17181411Y-16412374D02*
X17171887Y-16421898D01*
X17381411Y-16536184D02*
X17362363Y-16526660D01*
X17362363Y-16526660D02*
X17352839Y-16517136D01*
X17352839Y-16517136D02*
X17343315Y-16498088D01*
X17343315Y-16498088D02*
X17343315Y-16440946D01*
X17343315Y-16440946D02*
X17352839Y-16421898D01*
X17352839Y-16421898D02*
X17362363Y-16412374D01*
X17362363Y-16412374D02*
X17381411Y-16402850D01*
X17381411Y-16402850D02*
X17409982Y-16402850D01*
X17409982Y-16402850D02*
X17429030Y-16412374D01*
X17429030Y-16412374D02*
X17438553Y-16421898D01*
X17438553Y-16421898D02*
X17448077Y-16440946D01*
X17448077Y-16440946D02*
X17448077Y-16498088D01*
X17448077Y-16498088D02*
X17438553Y-16517136D01*
X17438553Y-16517136D02*
X17429030Y-16526660D01*
X17429030Y-16526660D02*
X17409982Y-16536184D01*
X17409982Y-16536184D02*
X17381411Y-16536184D01*
X17562363Y-16536184D02*
X17543315Y-16526660D01*
X17543315Y-16526660D02*
X17533792Y-16507612D01*
X17533792Y-16507612D02*
X17533792Y-16336184D01*
X17714744Y-16526660D02*
X17695696Y-16536184D01*
X17695696Y-16536184D02*
X17657601Y-16536184D01*
X17657601Y-16536184D02*
X17638553Y-16526660D01*
X17638553Y-16526660D02*
X17629030Y-16507612D01*
X17629030Y-16507612D02*
X17629030Y-16431422D01*
X17629030Y-16431422D02*
X17638553Y-16412374D01*
X17638553Y-16412374D02*
X17657601Y-16402850D01*
X17657601Y-16402850D02*
X17695696Y-16402850D01*
X17695696Y-16402850D02*
X17714744Y-16412374D01*
X17714744Y-16412374D02*
X17724268Y-16431422D01*
X17724268Y-16431422D02*
X17724268Y-16450469D01*
X17724268Y-16450469D02*
X17629030Y-16469517D01*
X17800458Y-16526660D02*
X17819506Y-16536184D01*
X17819506Y-16536184D02*
X17857601Y-16536184D01*
X17857601Y-16536184D02*
X17876649Y-16526660D01*
X17876649Y-16526660D02*
X17886173Y-16507612D01*
X17886173Y-16507612D02*
X17886173Y-16498088D01*
X17886173Y-16498088D02*
X17876649Y-16479041D01*
X17876649Y-16479041D02*
X17857601Y-16469517D01*
X17857601Y-16469517D02*
X17829030Y-16469517D01*
X17829030Y-16469517D02*
X17809982Y-16459993D01*
X17809982Y-16459993D02*
X17800458Y-16440946D01*
X17800458Y-16440946D02*
X17800458Y-16431422D01*
X17800458Y-16431422D02*
X17809982Y-16412374D01*
X17809982Y-16412374D02*
X17829030Y-16402850D01*
X17829030Y-16402850D02*
X17857601Y-16402850D01*
X17857601Y-16402850D02*
X17876649Y-16412374D01*
X17952839Y-16612374D02*
X17962363Y-16602850D01*
X17962363Y-16602850D02*
X17981411Y-16574279D01*
X17981411Y-16574279D02*
X17990934Y-16555231D01*
X17990934Y-16555231D02*
X18000458Y-16526660D01*
X18000458Y-16526660D02*
X18009982Y-16479041D01*
X18009982Y-16479041D02*
X18009982Y-16440946D01*
X18009982Y-16440946D02*
X18000458Y-16393327D01*
X18000458Y-16393327D02*
X17990934Y-16364755D01*
X17990934Y-16364755D02*
X17981411Y-16345708D01*
X17981411Y-16345708D02*
X17962363Y-16317136D01*
X17962363Y-16317136D02*
X17952839Y-16307612D01*
D12*
X12939800Y-16756200D02*
X12987300Y-16708700D01*
X12939800Y-16661200D01*
X12892300Y-16708700D01*
X12939800Y-16756200D01*
D11*
X13286172Y-16600184D02*
X13305220Y-16600184D01*
X13305220Y-16600184D02*
X13324267Y-16609708D01*
X13324267Y-16609708D02*
X13333791Y-16619231D01*
X13333791Y-16619231D02*
X13343315Y-16638279D01*
X13343315Y-16638279D02*
X13352839Y-16676374D01*
X13352839Y-16676374D02*
X13352839Y-16723993D01*
X13352839Y-16723993D02*
X13343315Y-16762088D01*
X13343315Y-16762088D02*
X13333791Y-16781136D01*
X13333791Y-16781136D02*
X13324267Y-16790660D01*
X13324267Y-16790660D02*
X13305220Y-16800184D01*
X13305220Y-16800184D02*
X13286172Y-16800184D01*
X13286172Y-16800184D02*
X13267124Y-16790660D01*
X13267124Y-16790660D02*
X13257601Y-16781136D01*
X13257601Y-16781136D02*
X13248077Y-16762088D01*
X13248077Y-16762088D02*
X13238553Y-16723993D01*
X13238553Y-16723993D02*
X13238553Y-16676374D01*
X13238553Y-16676374D02*
X13248077Y-16638279D01*
X13248077Y-16638279D02*
X13257601Y-16619231D01*
X13257601Y-16619231D02*
X13267124Y-16609708D01*
X13267124Y-16609708D02*
X13286172Y-16600184D01*
X13438553Y-16781136D02*
X13448077Y-16790660D01*
X13448077Y-16790660D02*
X13438553Y-16800184D01*
X13438553Y-16800184D02*
X13429029Y-16790660D01*
X13429029Y-16790660D02*
X13438553Y-16781136D01*
X13438553Y-16781136D02*
X13438553Y-16800184D01*
X13543315Y-16800184D02*
X13581410Y-16800184D01*
X13581410Y-16800184D02*
X13600458Y-16790660D01*
X13600458Y-16790660D02*
X13609982Y-16781136D01*
X13609982Y-16781136D02*
X13629029Y-16752565D01*
X13629029Y-16752565D02*
X13638553Y-16714469D01*
X13638553Y-16714469D02*
X13638553Y-16638279D01*
X13638553Y-16638279D02*
X13629029Y-16619231D01*
X13629029Y-16619231D02*
X13619505Y-16609708D01*
X13619505Y-16609708D02*
X13600458Y-16600184D01*
X13600458Y-16600184D02*
X13562362Y-16600184D01*
X13562362Y-16600184D02*
X13543315Y-16609708D01*
X13543315Y-16609708D02*
X13533791Y-16619231D01*
X13533791Y-16619231D02*
X13524267Y-16638279D01*
X13524267Y-16638279D02*
X13524267Y-16685898D01*
X13524267Y-16685898D02*
X13533791Y-16704946D01*
X13533791Y-16704946D02*
X13543315Y-16714469D01*
X13543315Y-16714469D02*
X13562362Y-16723993D01*
X13562362Y-16723993D02*
X13600458Y-16723993D01*
X13600458Y-16723993D02*
X13619505Y-16714469D01*
X13619505Y-16714469D02*
X13629029Y-16704946D01*
X13629029Y-16704946D02*
X13638553Y-16685898D01*
X13819505Y-16600184D02*
X13724267Y-16600184D01*
X13724267Y-16600184D02*
X13714743Y-16695422D01*
X13714743Y-16695422D02*
X13724267Y-16685898D01*
X13724267Y-16685898D02*
X13743315Y-16676374D01*
X13743315Y-16676374D02*
X13790934Y-16676374D01*
X13790934Y-16676374D02*
X13809982Y-16685898D01*
X13809982Y-16685898D02*
X13819505Y-16695422D01*
X13819505Y-16695422D02*
X13829029Y-16714469D01*
X13829029Y-16714469D02*
X13829029Y-16762088D01*
X13829029Y-16762088D02*
X13819505Y-16781136D01*
X13819505Y-16781136D02*
X13809982Y-16790660D01*
X13809982Y-16790660D02*
X13790934Y-16800184D01*
X13790934Y-16800184D02*
X13743315Y-16800184D01*
X13743315Y-16800184D02*
X13724267Y-16790660D01*
X13724267Y-16790660D02*
X13714743Y-16781136D01*
X13952839Y-16600184D02*
X13971886Y-16600184D01*
X13971886Y-16600184D02*
X13990934Y-16609708D01*
X13990934Y-16609708D02*
X14000458Y-16619231D01*
X14000458Y-16619231D02*
X14009982Y-16638279D01*
X14009982Y-16638279D02*
X14019505Y-16676374D01*
X14019505Y-16676374D02*
X14019505Y-16723993D01*
X14019505Y-16723993D02*
X14009982Y-16762088D01*
X14009982Y-16762088D02*
X14000458Y-16781136D01*
X14000458Y-16781136D02*
X13990934Y-16790660D01*
X13990934Y-16790660D02*
X13971886Y-16800184D01*
X13971886Y-16800184D02*
X13952839Y-16800184D01*
X13952839Y-16800184D02*
X13933791Y-16790660D01*
X13933791Y-16790660D02*
X13924267Y-16781136D01*
X13924267Y-16781136D02*
X13914743Y-16762088D01*
X13914743Y-16762088D02*
X13905220Y-16723993D01*
X13905220Y-16723993D02*
X13905220Y-16676374D01*
X13905220Y-16676374D02*
X13914743Y-16638279D01*
X13914743Y-16638279D02*
X13924267Y-16619231D01*
X13924267Y-16619231D02*
X13933791Y-16609708D01*
X13933791Y-16609708D02*
X13952839Y-16600184D01*
X14105220Y-16800184D02*
X14105220Y-16666850D01*
X14105220Y-16685898D02*
X14114743Y-16676374D01*
X14114743Y-16676374D02*
X14133791Y-16666850D01*
X14133791Y-16666850D02*
X14162363Y-16666850D01*
X14162363Y-16666850D02*
X14181410Y-16676374D01*
X14181410Y-16676374D02*
X14190934Y-16695422D01*
X14190934Y-16695422D02*
X14190934Y-16800184D01*
X14190934Y-16695422D02*
X14200458Y-16676374D01*
X14200458Y-16676374D02*
X14219505Y-16666850D01*
X14219505Y-16666850D02*
X14248077Y-16666850D01*
X14248077Y-16666850D02*
X14267124Y-16676374D01*
X14267124Y-16676374D02*
X14276648Y-16695422D01*
X14276648Y-16695422D02*
X14276648Y-16800184D01*
X14371886Y-16800184D02*
X14371886Y-16666850D01*
X14371886Y-16685898D02*
X14381410Y-16676374D01*
X14381410Y-16676374D02*
X14400458Y-16666850D01*
X14400458Y-16666850D02*
X14429029Y-16666850D01*
X14429029Y-16666850D02*
X14448077Y-16676374D01*
X14448077Y-16676374D02*
X14457601Y-16695422D01*
X14457601Y-16695422D02*
X14457601Y-16800184D01*
X14457601Y-16695422D02*
X14467124Y-16676374D01*
X14467124Y-16676374D02*
X14486172Y-16666850D01*
X14486172Y-16666850D02*
X14514743Y-16666850D01*
X14514743Y-16666850D02*
X14533791Y-16676374D01*
X14533791Y-16676374D02*
X14543315Y-16695422D01*
X14543315Y-16695422D02*
X14543315Y-16800184D01*
X14933791Y-16590660D02*
X14762363Y-16847803D01*
X15190934Y-16600184D02*
X15209982Y-16600184D01*
X15209982Y-16600184D02*
X15229029Y-16609708D01*
X15229029Y-16609708D02*
X15238553Y-16619231D01*
X15238553Y-16619231D02*
X15248077Y-16638279D01*
X15248077Y-16638279D02*
X15257601Y-16676374D01*
X15257601Y-16676374D02*
X15257601Y-16723993D01*
X15257601Y-16723993D02*
X15248077Y-16762088D01*
X15248077Y-16762088D02*
X15238553Y-16781136D01*
X15238553Y-16781136D02*
X15229029Y-16790660D01*
X15229029Y-16790660D02*
X15209982Y-16800184D01*
X15209982Y-16800184D02*
X15190934Y-16800184D01*
X15190934Y-16800184D02*
X15171886Y-16790660D01*
X15171886Y-16790660D02*
X15162363Y-16781136D01*
X15162363Y-16781136D02*
X15152839Y-16762088D01*
X15152839Y-16762088D02*
X15143315Y-16723993D01*
X15143315Y-16723993D02*
X15143315Y-16676374D01*
X15143315Y-16676374D02*
X15152839Y-16638279D01*
X15152839Y-16638279D02*
X15162363Y-16619231D01*
X15162363Y-16619231D02*
X15171886Y-16609708D01*
X15171886Y-16609708D02*
X15190934Y-16600184D01*
X15343315Y-16781136D02*
X15352839Y-16790660D01*
X15352839Y-16790660D02*
X15343315Y-16800184D01*
X15343315Y-16800184D02*
X15333791Y-16790660D01*
X15333791Y-16790660D02*
X15343315Y-16781136D01*
X15343315Y-16781136D02*
X15343315Y-16800184D01*
X15476648Y-16600184D02*
X15495696Y-16600184D01*
X15495696Y-16600184D02*
X15514744Y-16609708D01*
X15514744Y-16609708D02*
X15524267Y-16619231D01*
X15524267Y-16619231D02*
X15533791Y-16638279D01*
X15533791Y-16638279D02*
X15543315Y-16676374D01*
X15543315Y-16676374D02*
X15543315Y-16723993D01*
X15543315Y-16723993D02*
X15533791Y-16762088D01*
X15533791Y-16762088D02*
X15524267Y-16781136D01*
X15524267Y-16781136D02*
X15514744Y-16790660D01*
X15514744Y-16790660D02*
X15495696Y-16800184D01*
X15495696Y-16800184D02*
X15476648Y-16800184D01*
X15476648Y-16800184D02*
X15457601Y-16790660D01*
X15457601Y-16790660D02*
X15448077Y-16781136D01*
X15448077Y-16781136D02*
X15438553Y-16762088D01*
X15438553Y-16762088D02*
X15429029Y-16723993D01*
X15429029Y-16723993D02*
X15429029Y-16676374D01*
X15429029Y-16676374D02*
X15438553Y-16638279D01*
X15438553Y-16638279D02*
X15448077Y-16619231D01*
X15448077Y-16619231D02*
X15457601Y-16609708D01*
X15457601Y-16609708D02*
X15476648Y-16600184D01*
X15609982Y-16600184D02*
X15733791Y-16600184D01*
X15733791Y-16600184D02*
X15667125Y-16676374D01*
X15667125Y-16676374D02*
X15695696Y-16676374D01*
X15695696Y-16676374D02*
X15714744Y-16685898D01*
X15714744Y-16685898D02*
X15724267Y-16695422D01*
X15724267Y-16695422D02*
X15733791Y-16714469D01*
X15733791Y-16714469D02*
X15733791Y-16762088D01*
X15733791Y-16762088D02*
X15724267Y-16781136D01*
X15724267Y-16781136D02*
X15714744Y-16790660D01*
X15714744Y-16790660D02*
X15695696Y-16800184D01*
X15695696Y-16800184D02*
X15638553Y-16800184D01*
X15638553Y-16800184D02*
X15619506Y-16790660D01*
X15619506Y-16790660D02*
X15609982Y-16781136D01*
X15800458Y-16600184D02*
X15933791Y-16600184D01*
X15933791Y-16600184D02*
X15848077Y-16800184D01*
X16095696Y-16666850D02*
X16095696Y-16800184D01*
X16048077Y-16590660D02*
X16000458Y-16733517D01*
X16000458Y-16733517D02*
X16124267Y-16733517D01*
X16190934Y-16600184D02*
X16190934Y-16638279D01*
X16267125Y-16600184D02*
X16267125Y-16638279D01*
X16562363Y-16876374D02*
X16552839Y-16866850D01*
X16552839Y-16866850D02*
X16533791Y-16838279D01*
X16533791Y-16838279D02*
X16524268Y-16819231D01*
X16524268Y-16819231D02*
X16514744Y-16790660D01*
X16514744Y-16790660D02*
X16505220Y-16743041D01*
X16505220Y-16743041D02*
X16505220Y-16704946D01*
X16505220Y-16704946D02*
X16514744Y-16657327D01*
X16514744Y-16657327D02*
X16524268Y-16628755D01*
X16524268Y-16628755D02*
X16533791Y-16609708D01*
X16533791Y-16609708D02*
X16552839Y-16581136D01*
X16552839Y-16581136D02*
X16562363Y-16571612D01*
X16724268Y-16666850D02*
X16724268Y-16800184D01*
X16676648Y-16590660D02*
X16629029Y-16733517D01*
X16629029Y-16733517D02*
X16752839Y-16733517D01*
X16981411Y-16800184D02*
X16981411Y-16600184D01*
X17067125Y-16800184D02*
X17067125Y-16695422D01*
X17067125Y-16695422D02*
X17057601Y-16676374D01*
X17057601Y-16676374D02*
X17038553Y-16666850D01*
X17038553Y-16666850D02*
X17009982Y-16666850D01*
X17009982Y-16666850D02*
X16990934Y-16676374D01*
X16990934Y-16676374D02*
X16981411Y-16685898D01*
X17190934Y-16800184D02*
X17171887Y-16790660D01*
X17171887Y-16790660D02*
X17162363Y-16781136D01*
X17162363Y-16781136D02*
X17152839Y-16762088D01*
X17152839Y-16762088D02*
X17152839Y-16704946D01*
X17152839Y-16704946D02*
X17162363Y-16685898D01*
X17162363Y-16685898D02*
X17171887Y-16676374D01*
X17171887Y-16676374D02*
X17190934Y-16666850D01*
X17190934Y-16666850D02*
X17219506Y-16666850D01*
X17219506Y-16666850D02*
X17238553Y-16676374D01*
X17238553Y-16676374D02*
X17248077Y-16685898D01*
X17248077Y-16685898D02*
X17257601Y-16704946D01*
X17257601Y-16704946D02*
X17257601Y-16762088D01*
X17257601Y-16762088D02*
X17248077Y-16781136D01*
X17248077Y-16781136D02*
X17238553Y-16790660D01*
X17238553Y-16790660D02*
X17219506Y-16800184D01*
X17219506Y-16800184D02*
X17190934Y-16800184D01*
X17371887Y-16800184D02*
X17352839Y-16790660D01*
X17352839Y-16790660D02*
X17343315Y-16771612D01*
X17343315Y-16771612D02*
X17343315Y-16600184D01*
X17524268Y-16790660D02*
X17505220Y-16800184D01*
X17505220Y-16800184D02*
X17467125Y-16800184D01*
X17467125Y-16800184D02*
X17448077Y-16790660D01*
X17448077Y-16790660D02*
X17438553Y-16771612D01*
X17438553Y-16771612D02*
X17438553Y-16695422D01*
X17438553Y-16695422D02*
X17448077Y-16676374D01*
X17448077Y-16676374D02*
X17467125Y-16666850D01*
X17467125Y-16666850D02*
X17505220Y-16666850D01*
X17505220Y-16666850D02*
X17524268Y-16676374D01*
X17524268Y-16676374D02*
X17533792Y-16695422D01*
X17533792Y-16695422D02*
X17533792Y-16714469D01*
X17533792Y-16714469D02*
X17438553Y-16733517D01*
X17609982Y-16790660D02*
X17629030Y-16800184D01*
X17629030Y-16800184D02*
X17667125Y-16800184D01*
X17667125Y-16800184D02*
X17686173Y-16790660D01*
X17686173Y-16790660D02*
X17695696Y-16771612D01*
X17695696Y-16771612D02*
X17695696Y-16762088D01*
X17695696Y-16762088D02*
X17686173Y-16743041D01*
X17686173Y-16743041D02*
X17667125Y-16733517D01*
X17667125Y-16733517D02*
X17638553Y-16733517D01*
X17638553Y-16733517D02*
X17619506Y-16723993D01*
X17619506Y-16723993D02*
X17609982Y-16704946D01*
X17609982Y-16704946D02*
X17609982Y-16695422D01*
X17609982Y-16695422D02*
X17619506Y-16676374D01*
X17619506Y-16676374D02*
X17638553Y-16666850D01*
X17638553Y-16666850D02*
X17667125Y-16666850D01*
X17667125Y-16666850D02*
X17686173Y-16676374D01*
X17762363Y-16876374D02*
X17771887Y-16866850D01*
X17771887Y-16866850D02*
X17790934Y-16838279D01*
X17790934Y-16838279D02*
X17800458Y-16819231D01*
X17800458Y-16819231D02*
X17809982Y-16790660D01*
X17809982Y-16790660D02*
X17819506Y-16743041D01*
X17819506Y-16743041D02*
X17819506Y-16704946D01*
X17819506Y-16704946D02*
X17809982Y-16657327D01*
X17809982Y-16657327D02*
X17800458Y-16628755D01*
X17800458Y-16628755D02*
X17790934Y-16609708D01*
X17790934Y-16609708D02*
X17771887Y-16581136D01*
X17771887Y-16581136D02*
X17762363Y-16571612D01*
D13*
X12885300Y-16921700D02*
X12987300Y-17023700D01*
X12987300Y-16921700D02*
X12885300Y-17023700D01*
X12987300Y-16972700D02*
G75*
G02*
X12885300Y-16972700I-51000J0D01*
G01*
X12885300Y-16972700D02*
G75*
G02*
X12987300Y-16972700I51000J0D01*
G01*
D11*
X13352839Y-17064184D02*
X13238553Y-17064184D01*
X13295696Y-17064184D02*
X13295696Y-16864184D01*
X13295696Y-16864184D02*
X13276648Y-16892755D01*
X13276648Y-16892755D02*
X13257601Y-16911803D01*
X13257601Y-16911803D02*
X13238553Y-16921327D01*
X13438553Y-17045136D02*
X13448077Y-17054660D01*
X13448077Y-17054660D02*
X13438553Y-17064184D01*
X13438553Y-17064184D02*
X13429029Y-17054660D01*
X13429029Y-17054660D02*
X13438553Y-17045136D01*
X13438553Y-17045136D02*
X13438553Y-17064184D01*
X13571886Y-16864184D02*
X13590934Y-16864184D01*
X13590934Y-16864184D02*
X13609982Y-16873708D01*
X13609982Y-16873708D02*
X13619505Y-16883231D01*
X13619505Y-16883231D02*
X13629029Y-16902279D01*
X13629029Y-16902279D02*
X13638553Y-16940374D01*
X13638553Y-16940374D02*
X13638553Y-16987993D01*
X13638553Y-16987993D02*
X13629029Y-17026089D01*
X13629029Y-17026089D02*
X13619505Y-17045136D01*
X13619505Y-17045136D02*
X13609982Y-17054660D01*
X13609982Y-17054660D02*
X13590934Y-17064184D01*
X13590934Y-17064184D02*
X13571886Y-17064184D01*
X13571886Y-17064184D02*
X13552839Y-17054660D01*
X13552839Y-17054660D02*
X13543315Y-17045136D01*
X13543315Y-17045136D02*
X13533791Y-17026089D01*
X13533791Y-17026089D02*
X13524267Y-16987993D01*
X13524267Y-16987993D02*
X13524267Y-16940374D01*
X13524267Y-16940374D02*
X13533791Y-16902279D01*
X13533791Y-16902279D02*
X13543315Y-16883231D01*
X13543315Y-16883231D02*
X13552839Y-16873708D01*
X13552839Y-16873708D02*
X13571886Y-16864184D01*
X13714743Y-16883231D02*
X13724267Y-16873708D01*
X13724267Y-16873708D02*
X13743315Y-16864184D01*
X13743315Y-16864184D02*
X13790934Y-16864184D01*
X13790934Y-16864184D02*
X13809982Y-16873708D01*
X13809982Y-16873708D02*
X13819505Y-16883231D01*
X13819505Y-16883231D02*
X13829029Y-16902279D01*
X13829029Y-16902279D02*
X13829029Y-16921327D01*
X13829029Y-16921327D02*
X13819505Y-16949898D01*
X13819505Y-16949898D02*
X13705220Y-17064184D01*
X13705220Y-17064184D02*
X13829029Y-17064184D01*
X13952839Y-16864184D02*
X13971886Y-16864184D01*
X13971886Y-16864184D02*
X13990934Y-16873708D01*
X13990934Y-16873708D02*
X14000458Y-16883231D01*
X14000458Y-16883231D02*
X14009982Y-16902279D01*
X14009982Y-16902279D02*
X14019505Y-16940374D01*
X14019505Y-16940374D02*
X14019505Y-16987993D01*
X14019505Y-16987993D02*
X14009982Y-17026089D01*
X14009982Y-17026089D02*
X14000458Y-17045136D01*
X14000458Y-17045136D02*
X13990934Y-17054660D01*
X13990934Y-17054660D02*
X13971886Y-17064184D01*
X13971886Y-17064184D02*
X13952839Y-17064184D01*
X13952839Y-17064184D02*
X13933791Y-17054660D01*
X13933791Y-17054660D02*
X13924267Y-17045136D01*
X13924267Y-17045136D02*
X13914743Y-17026089D01*
X13914743Y-17026089D02*
X13905220Y-16987993D01*
X13905220Y-16987993D02*
X13905220Y-16940374D01*
X13905220Y-16940374D02*
X13914743Y-16902279D01*
X13914743Y-16902279D02*
X13924267Y-16883231D01*
X13924267Y-16883231D02*
X13933791Y-16873708D01*
X13933791Y-16873708D02*
X13952839Y-16864184D01*
X14105220Y-17064184D02*
X14105220Y-16930850D01*
X14105220Y-16949898D02*
X14114743Y-16940374D01*
X14114743Y-16940374D02*
X14133791Y-16930850D01*
X14133791Y-16930850D02*
X14162363Y-16930850D01*
X14162363Y-16930850D02*
X14181410Y-16940374D01*
X14181410Y-16940374D02*
X14190934Y-16959422D01*
X14190934Y-16959422D02*
X14190934Y-17064184D01*
X14190934Y-16959422D02*
X14200458Y-16940374D01*
X14200458Y-16940374D02*
X14219505Y-16930850D01*
X14219505Y-16930850D02*
X14248077Y-16930850D01*
X14248077Y-16930850D02*
X14267124Y-16940374D01*
X14267124Y-16940374D02*
X14276648Y-16959422D01*
X14276648Y-16959422D02*
X14276648Y-17064184D01*
X14371886Y-17064184D02*
X14371886Y-16930850D01*
X14371886Y-16949898D02*
X14381410Y-16940374D01*
X14381410Y-16940374D02*
X14400458Y-16930850D01*
X14400458Y-16930850D02*
X14429029Y-16930850D01*
X14429029Y-16930850D02*
X14448077Y-16940374D01*
X14448077Y-16940374D02*
X14457601Y-16959422D01*
X14457601Y-16959422D02*
X14457601Y-17064184D01*
X14457601Y-16959422D02*
X14467124Y-16940374D01*
X14467124Y-16940374D02*
X14486172Y-16930850D01*
X14486172Y-16930850D02*
X14514743Y-16930850D01*
X14514743Y-16930850D02*
X14533791Y-16940374D01*
X14533791Y-16940374D02*
X14543315Y-16959422D01*
X14543315Y-16959422D02*
X14543315Y-17064184D01*
X14933791Y-16854660D02*
X14762363Y-17111803D01*
X15190934Y-16864184D02*
X15209982Y-16864184D01*
X15209982Y-16864184D02*
X15229029Y-16873708D01*
X15229029Y-16873708D02*
X15238553Y-16883231D01*
X15238553Y-16883231D02*
X15248077Y-16902279D01*
X15248077Y-16902279D02*
X15257601Y-16940374D01*
X15257601Y-16940374D02*
X15257601Y-16987993D01*
X15257601Y-16987993D02*
X15248077Y-17026089D01*
X15248077Y-17026089D02*
X15238553Y-17045136D01*
X15238553Y-17045136D02*
X15229029Y-17054660D01*
X15229029Y-17054660D02*
X15209982Y-17064184D01*
X15209982Y-17064184D02*
X15190934Y-17064184D01*
X15190934Y-17064184D02*
X15171886Y-17054660D01*
X15171886Y-17054660D02*
X15162363Y-17045136D01*
X15162363Y-17045136D02*
X15152839Y-17026089D01*
X15152839Y-17026089D02*
X15143315Y-16987993D01*
X15143315Y-16987993D02*
X15143315Y-16940374D01*
X15143315Y-16940374D02*
X15152839Y-16902279D01*
X15152839Y-16902279D02*
X15162363Y-16883231D01*
X15162363Y-16883231D02*
X15171886Y-16873708D01*
X15171886Y-16873708D02*
X15190934Y-16864184D01*
X15343315Y-17045136D02*
X15352839Y-17054660D01*
X15352839Y-17054660D02*
X15343315Y-17064184D01*
X15343315Y-17064184D02*
X15333791Y-17054660D01*
X15333791Y-17054660D02*
X15343315Y-17045136D01*
X15343315Y-17045136D02*
X15343315Y-17064184D01*
X15476648Y-16864184D02*
X15495696Y-16864184D01*
X15495696Y-16864184D02*
X15514744Y-16873708D01*
X15514744Y-16873708D02*
X15524267Y-16883231D01*
X15524267Y-16883231D02*
X15533791Y-16902279D01*
X15533791Y-16902279D02*
X15543315Y-16940374D01*
X15543315Y-16940374D02*
X15543315Y-16987993D01*
X15543315Y-16987993D02*
X15533791Y-17026089D01*
X15533791Y-17026089D02*
X15524267Y-17045136D01*
X15524267Y-17045136D02*
X15514744Y-17054660D01*
X15514744Y-17054660D02*
X15495696Y-17064184D01*
X15495696Y-17064184D02*
X15476648Y-17064184D01*
X15476648Y-17064184D02*
X15457601Y-17054660D01*
X15457601Y-17054660D02*
X15448077Y-17045136D01*
X15448077Y-17045136D02*
X15438553Y-17026089D01*
X15438553Y-17026089D02*
X15429029Y-16987993D01*
X15429029Y-16987993D02*
X15429029Y-16940374D01*
X15429029Y-16940374D02*
X15438553Y-16902279D01*
X15438553Y-16902279D02*
X15448077Y-16883231D01*
X15448077Y-16883231D02*
X15457601Y-16873708D01*
X15457601Y-16873708D02*
X15476648Y-16864184D01*
X15714744Y-16930850D02*
X15714744Y-17064184D01*
X15667125Y-16854660D02*
X15619506Y-16997517D01*
X15619506Y-16997517D02*
X15743315Y-16997517D01*
X15857601Y-16864184D02*
X15876648Y-16864184D01*
X15876648Y-16864184D02*
X15895696Y-16873708D01*
X15895696Y-16873708D02*
X15905220Y-16883231D01*
X15905220Y-16883231D02*
X15914744Y-16902279D01*
X15914744Y-16902279D02*
X15924267Y-16940374D01*
X15924267Y-16940374D02*
X15924267Y-16987993D01*
X15924267Y-16987993D02*
X15914744Y-17026089D01*
X15914744Y-17026089D02*
X15905220Y-17045136D01*
X15905220Y-17045136D02*
X15895696Y-17054660D01*
X15895696Y-17054660D02*
X15876648Y-17064184D01*
X15876648Y-17064184D02*
X15857601Y-17064184D01*
X15857601Y-17064184D02*
X15838553Y-17054660D01*
X15838553Y-17054660D02*
X15829029Y-17045136D01*
X15829029Y-17045136D02*
X15819506Y-17026089D01*
X15819506Y-17026089D02*
X15809982Y-16987993D01*
X15809982Y-16987993D02*
X15809982Y-16940374D01*
X15809982Y-16940374D02*
X15819506Y-16902279D01*
X15819506Y-16902279D02*
X15829029Y-16883231D01*
X15829029Y-16883231D02*
X15838553Y-16873708D01*
X15838553Y-16873708D02*
X15857601Y-16864184D01*
X16000458Y-16883231D02*
X16009982Y-16873708D01*
X16009982Y-16873708D02*
X16029029Y-16864184D01*
X16029029Y-16864184D02*
X16076648Y-16864184D01*
X16076648Y-16864184D02*
X16095696Y-16873708D01*
X16095696Y-16873708D02*
X16105220Y-16883231D01*
X16105220Y-16883231D02*
X16114744Y-16902279D01*
X16114744Y-16902279D02*
X16114744Y-16921327D01*
X16114744Y-16921327D02*
X16105220Y-16949898D01*
X16105220Y-16949898D02*
X15990934Y-17064184D01*
X15990934Y-17064184D02*
X16114744Y-17064184D01*
X16190934Y-16864184D02*
X16190934Y-16902279D01*
X16267125Y-16864184D02*
X16267125Y-16902279D01*
X16562363Y-17140374D02*
X16552839Y-17130850D01*
X16552839Y-17130850D02*
X16533791Y-17102279D01*
X16533791Y-17102279D02*
X16524268Y-17083231D01*
X16524268Y-17083231D02*
X16514744Y-17054660D01*
X16514744Y-17054660D02*
X16505220Y-17007041D01*
X16505220Y-17007041D02*
X16505220Y-16968946D01*
X16505220Y-16968946D02*
X16514744Y-16921327D01*
X16514744Y-16921327D02*
X16524268Y-16892755D01*
X16524268Y-16892755D02*
X16533791Y-16873708D01*
X16533791Y-16873708D02*
X16552839Y-16845136D01*
X16552839Y-16845136D02*
X16562363Y-16835612D01*
X16724268Y-16930850D02*
X16724268Y-17064184D01*
X16676648Y-16854660D02*
X16629029Y-16997517D01*
X16629029Y-16997517D02*
X16752839Y-16997517D01*
X16981411Y-17064184D02*
X16981411Y-16864184D01*
X17067125Y-17064184D02*
X17067125Y-16959422D01*
X17067125Y-16959422D02*
X17057601Y-16940374D01*
X17057601Y-16940374D02*
X17038553Y-16930850D01*
X17038553Y-16930850D02*
X17009982Y-16930850D01*
X17009982Y-16930850D02*
X16990934Y-16940374D01*
X16990934Y-16940374D02*
X16981411Y-16949898D01*
X17190934Y-17064184D02*
X17171887Y-17054660D01*
X17171887Y-17054660D02*
X17162363Y-17045136D01*
X17162363Y-17045136D02*
X17152839Y-17026089D01*
X17152839Y-17026089D02*
X17152839Y-16968946D01*
X17152839Y-16968946D02*
X17162363Y-16949898D01*
X17162363Y-16949898D02*
X17171887Y-16940374D01*
X17171887Y-16940374D02*
X17190934Y-16930850D01*
X17190934Y-16930850D02*
X17219506Y-16930850D01*
X17219506Y-16930850D02*
X17238553Y-16940374D01*
X17238553Y-16940374D02*
X17248077Y-16949898D01*
X17248077Y-16949898D02*
X17257601Y-16968946D01*
X17257601Y-16968946D02*
X17257601Y-17026089D01*
X17257601Y-17026089D02*
X17248077Y-17045136D01*
X17248077Y-17045136D02*
X17238553Y-17054660D01*
X17238553Y-17054660D02*
X17219506Y-17064184D01*
X17219506Y-17064184D02*
X17190934Y-17064184D01*
X17371887Y-17064184D02*
X17352839Y-17054660D01*
X17352839Y-17054660D02*
X17343315Y-17035612D01*
X17343315Y-17035612D02*
X17343315Y-16864184D01*
X17524268Y-17054660D02*
X17505220Y-17064184D01*
X17505220Y-17064184D02*
X17467125Y-17064184D01*
X17467125Y-17064184D02*
X17448077Y-17054660D01*
X17448077Y-17054660D02*
X17438553Y-17035612D01*
X17438553Y-17035612D02*
X17438553Y-16959422D01*
X17438553Y-16959422D02*
X17448077Y-16940374D01*
X17448077Y-16940374D02*
X17467125Y-16930850D01*
X17467125Y-16930850D02*
X17505220Y-16930850D01*
X17505220Y-16930850D02*
X17524268Y-16940374D01*
X17524268Y-16940374D02*
X17533792Y-16959422D01*
X17533792Y-16959422D02*
X17533792Y-16978470D01*
X17533792Y-16978470D02*
X17438553Y-16997517D01*
X17609982Y-17054660D02*
X17629030Y-17064184D01*
X17629030Y-17064184D02*
X17667125Y-17064184D01*
X17667125Y-17064184D02*
X17686173Y-17054660D01*
X17686173Y-17054660D02*
X17695696Y-17035612D01*
X17695696Y-17035612D02*
X17695696Y-17026089D01*
X17695696Y-17026089D02*
X17686173Y-17007041D01*
X17686173Y-17007041D02*
X17667125Y-16997517D01*
X17667125Y-16997517D02*
X17638553Y-16997517D01*
X17638553Y-16997517D02*
X17619506Y-16987993D01*
X17619506Y-16987993D02*
X17609982Y-16968946D01*
X17609982Y-16968946D02*
X17609982Y-16959422D01*
X17609982Y-16959422D02*
X17619506Y-16940374D01*
X17619506Y-16940374D02*
X17638553Y-16930850D01*
X17638553Y-16930850D02*
X17667125Y-16930850D01*
X17667125Y-16930850D02*
X17686173Y-16940374D01*
X17762363Y-17140374D02*
X17771887Y-17130850D01*
X17771887Y-17130850D02*
X17790934Y-17102279D01*
X17790934Y-17102279D02*
X17800458Y-17083231D01*
X17800458Y-17083231D02*
X17809982Y-17054660D01*
X17809982Y-17054660D02*
X17819506Y-17007041D01*
X17819506Y-17007041D02*
X17819506Y-16968946D01*
X17819506Y-16968946D02*
X17809982Y-16921327D01*
X17809982Y-16921327D02*
X17800458Y-16892755D01*
X17800458Y-16892755D02*
X17790934Y-16873708D01*
X17790934Y-16873708D02*
X17771887Y-16845136D01*
X17771887Y-16845136D02*
X17762363Y-16835612D01*
X12787300Y-17136700D02*
X12987300Y-17336700D01*
X12987300Y-17136700D02*
X12787300Y-17336700D01*
X12887300Y-17136700D02*
X12887300Y-17336700D01*
X12787300Y-17236700D02*
X12987300Y-17236700D01*
X13238553Y-17147231D02*
X13248077Y-17137708D01*
X13248077Y-17137708D02*
X13267124Y-17128184D01*
X13267124Y-17128184D02*
X13314743Y-17128184D01*
X13314743Y-17128184D02*
X13333791Y-17137708D01*
X13333791Y-17137708D02*
X13343315Y-17147231D01*
X13343315Y-17147231D02*
X13352839Y-17166279D01*
X13352839Y-17166279D02*
X13352839Y-17185327D01*
X13352839Y-17185327D02*
X13343315Y-17213898D01*
X13343315Y-17213898D02*
X13229029Y-17328184D01*
X13229029Y-17328184D02*
X13352839Y-17328184D01*
X13438553Y-17309136D02*
X13448077Y-17318660D01*
X13448077Y-17318660D02*
X13438553Y-17328184D01*
X13438553Y-17328184D02*
X13429029Y-17318660D01*
X13429029Y-17318660D02*
X13438553Y-17309136D01*
X13438553Y-17309136D02*
X13438553Y-17328184D01*
X13514743Y-17128184D02*
X13638553Y-17128184D01*
X13638553Y-17128184D02*
X13571886Y-17204374D01*
X13571886Y-17204374D02*
X13600458Y-17204374D01*
X13600458Y-17204374D02*
X13619505Y-17213898D01*
X13619505Y-17213898D02*
X13629029Y-17223422D01*
X13629029Y-17223422D02*
X13638553Y-17242470D01*
X13638553Y-17242470D02*
X13638553Y-17290089D01*
X13638553Y-17290089D02*
X13629029Y-17309136D01*
X13629029Y-17309136D02*
X13619505Y-17318660D01*
X13619505Y-17318660D02*
X13600458Y-17328184D01*
X13600458Y-17328184D02*
X13543315Y-17328184D01*
X13543315Y-17328184D02*
X13524267Y-17318660D01*
X13524267Y-17318660D02*
X13514743Y-17309136D01*
X13762362Y-17128184D02*
X13781410Y-17128184D01*
X13781410Y-17128184D02*
X13800458Y-17137708D01*
X13800458Y-17137708D02*
X13809982Y-17147231D01*
X13809982Y-17147231D02*
X13819505Y-17166279D01*
X13819505Y-17166279D02*
X13829029Y-17204374D01*
X13829029Y-17204374D02*
X13829029Y-17251993D01*
X13829029Y-17251993D02*
X13819505Y-17290089D01*
X13819505Y-17290089D02*
X13809982Y-17309136D01*
X13809982Y-17309136D02*
X13800458Y-17318660D01*
X13800458Y-17318660D02*
X13781410Y-17328184D01*
X13781410Y-17328184D02*
X13762362Y-17328184D01*
X13762362Y-17328184D02*
X13743315Y-17318660D01*
X13743315Y-17318660D02*
X13733791Y-17309136D01*
X13733791Y-17309136D02*
X13724267Y-17290089D01*
X13724267Y-17290089D02*
X13714743Y-17251993D01*
X13714743Y-17251993D02*
X13714743Y-17204374D01*
X13714743Y-17204374D02*
X13724267Y-17166279D01*
X13724267Y-17166279D02*
X13733791Y-17147231D01*
X13733791Y-17147231D02*
X13743315Y-17137708D01*
X13743315Y-17137708D02*
X13762362Y-17128184D01*
X13952839Y-17128184D02*
X13971886Y-17128184D01*
X13971886Y-17128184D02*
X13990934Y-17137708D01*
X13990934Y-17137708D02*
X14000458Y-17147231D01*
X14000458Y-17147231D02*
X14009982Y-17166279D01*
X14009982Y-17166279D02*
X14019505Y-17204374D01*
X14019505Y-17204374D02*
X14019505Y-17251993D01*
X14019505Y-17251993D02*
X14009982Y-17290089D01*
X14009982Y-17290089D02*
X14000458Y-17309136D01*
X14000458Y-17309136D02*
X13990934Y-17318660D01*
X13990934Y-17318660D02*
X13971886Y-17328184D01*
X13971886Y-17328184D02*
X13952839Y-17328184D01*
X13952839Y-17328184D02*
X13933791Y-17318660D01*
X13933791Y-17318660D02*
X13924267Y-17309136D01*
X13924267Y-17309136D02*
X13914743Y-17290089D01*
X13914743Y-17290089D02*
X13905220Y-17251993D01*
X13905220Y-17251993D02*
X13905220Y-17204374D01*
X13905220Y-17204374D02*
X13914743Y-17166279D01*
X13914743Y-17166279D02*
X13924267Y-17147231D01*
X13924267Y-17147231D02*
X13933791Y-17137708D01*
X13933791Y-17137708D02*
X13952839Y-17128184D01*
X14105220Y-17328184D02*
X14105220Y-17194850D01*
X14105220Y-17213898D02*
X14114743Y-17204374D01*
X14114743Y-17204374D02*
X14133791Y-17194850D01*
X14133791Y-17194850D02*
X14162363Y-17194850D01*
X14162363Y-17194850D02*
X14181410Y-17204374D01*
X14181410Y-17204374D02*
X14190934Y-17223422D01*
X14190934Y-17223422D02*
X14190934Y-17328184D01*
X14190934Y-17223422D02*
X14200458Y-17204374D01*
X14200458Y-17204374D02*
X14219505Y-17194850D01*
X14219505Y-17194850D02*
X14248077Y-17194850D01*
X14248077Y-17194850D02*
X14267124Y-17204374D01*
X14267124Y-17204374D02*
X14276648Y-17223422D01*
X14276648Y-17223422D02*
X14276648Y-17328184D01*
X14371886Y-17328184D02*
X14371886Y-17194850D01*
X14371886Y-17213898D02*
X14381410Y-17204374D01*
X14381410Y-17204374D02*
X14400458Y-17194850D01*
X14400458Y-17194850D02*
X14429029Y-17194850D01*
X14429029Y-17194850D02*
X14448077Y-17204374D01*
X14448077Y-17204374D02*
X14457601Y-17223422D01*
X14457601Y-17223422D02*
X14457601Y-17328184D01*
X14457601Y-17223422D02*
X14467124Y-17204374D01*
X14467124Y-17204374D02*
X14486172Y-17194850D01*
X14486172Y-17194850D02*
X14514743Y-17194850D01*
X14514743Y-17194850D02*
X14533791Y-17204374D01*
X14533791Y-17204374D02*
X14543315Y-17223422D01*
X14543315Y-17223422D02*
X14543315Y-17328184D01*
X14933791Y-17118660D02*
X14762363Y-17375803D01*
X15190934Y-17128184D02*
X15209982Y-17128184D01*
X15209982Y-17128184D02*
X15229029Y-17137708D01*
X15229029Y-17137708D02*
X15238553Y-17147231D01*
X15238553Y-17147231D02*
X15248077Y-17166279D01*
X15248077Y-17166279D02*
X15257601Y-17204374D01*
X15257601Y-17204374D02*
X15257601Y-17251993D01*
X15257601Y-17251993D02*
X15248077Y-17290089D01*
X15248077Y-17290089D02*
X15238553Y-17309136D01*
X15238553Y-17309136D02*
X15229029Y-17318660D01*
X15229029Y-17318660D02*
X15209982Y-17328184D01*
X15209982Y-17328184D02*
X15190934Y-17328184D01*
X15190934Y-17328184D02*
X15171886Y-17318660D01*
X15171886Y-17318660D02*
X15162363Y-17309136D01*
X15162363Y-17309136D02*
X15152839Y-17290089D01*
X15152839Y-17290089D02*
X15143315Y-17251993D01*
X15143315Y-17251993D02*
X15143315Y-17204374D01*
X15143315Y-17204374D02*
X15152839Y-17166279D01*
X15152839Y-17166279D02*
X15162363Y-17147231D01*
X15162363Y-17147231D02*
X15171886Y-17137708D01*
X15171886Y-17137708D02*
X15190934Y-17128184D01*
X15343315Y-17309136D02*
X15352839Y-17318660D01*
X15352839Y-17318660D02*
X15343315Y-17328184D01*
X15343315Y-17328184D02*
X15333791Y-17318660D01*
X15333791Y-17318660D02*
X15343315Y-17309136D01*
X15343315Y-17309136D02*
X15343315Y-17328184D01*
X15476648Y-17128184D02*
X15495696Y-17128184D01*
X15495696Y-17128184D02*
X15514744Y-17137708D01*
X15514744Y-17137708D02*
X15524267Y-17147231D01*
X15524267Y-17147231D02*
X15533791Y-17166279D01*
X15533791Y-17166279D02*
X15543315Y-17204374D01*
X15543315Y-17204374D02*
X15543315Y-17251993D01*
X15543315Y-17251993D02*
X15533791Y-17290089D01*
X15533791Y-17290089D02*
X15524267Y-17309136D01*
X15524267Y-17309136D02*
X15514744Y-17318660D01*
X15514744Y-17318660D02*
X15495696Y-17328184D01*
X15495696Y-17328184D02*
X15476648Y-17328184D01*
X15476648Y-17328184D02*
X15457601Y-17318660D01*
X15457601Y-17318660D02*
X15448077Y-17309136D01*
X15448077Y-17309136D02*
X15438553Y-17290089D01*
X15438553Y-17290089D02*
X15429029Y-17251993D01*
X15429029Y-17251993D02*
X15429029Y-17204374D01*
X15429029Y-17204374D02*
X15438553Y-17166279D01*
X15438553Y-17166279D02*
X15448077Y-17147231D01*
X15448077Y-17147231D02*
X15457601Y-17137708D01*
X15457601Y-17137708D02*
X15476648Y-17128184D01*
X15638553Y-17328184D02*
X15676648Y-17328184D01*
X15676648Y-17328184D02*
X15695696Y-17318660D01*
X15695696Y-17318660D02*
X15705220Y-17309136D01*
X15705220Y-17309136D02*
X15724267Y-17280565D01*
X15724267Y-17280565D02*
X15733791Y-17242470D01*
X15733791Y-17242470D02*
X15733791Y-17166279D01*
X15733791Y-17166279D02*
X15724267Y-17147231D01*
X15724267Y-17147231D02*
X15714744Y-17137708D01*
X15714744Y-17137708D02*
X15695696Y-17128184D01*
X15695696Y-17128184D02*
X15657601Y-17128184D01*
X15657601Y-17128184D02*
X15638553Y-17137708D01*
X15638553Y-17137708D02*
X15629029Y-17147231D01*
X15629029Y-17147231D02*
X15619506Y-17166279D01*
X15619506Y-17166279D02*
X15619506Y-17213898D01*
X15619506Y-17213898D02*
X15629029Y-17232946D01*
X15629029Y-17232946D02*
X15638553Y-17242470D01*
X15638553Y-17242470D02*
X15657601Y-17251993D01*
X15657601Y-17251993D02*
X15695696Y-17251993D01*
X15695696Y-17251993D02*
X15714744Y-17242470D01*
X15714744Y-17242470D02*
X15724267Y-17232946D01*
X15724267Y-17232946D02*
X15733791Y-17213898D01*
X15857601Y-17128184D02*
X15876648Y-17128184D01*
X15876648Y-17128184D02*
X15895696Y-17137708D01*
X15895696Y-17137708D02*
X15905220Y-17147231D01*
X15905220Y-17147231D02*
X15914744Y-17166279D01*
X15914744Y-17166279D02*
X15924267Y-17204374D01*
X15924267Y-17204374D02*
X15924267Y-17251993D01*
X15924267Y-17251993D02*
X15914744Y-17290089D01*
X15914744Y-17290089D02*
X15905220Y-17309136D01*
X15905220Y-17309136D02*
X15895696Y-17318660D01*
X15895696Y-17318660D02*
X15876648Y-17328184D01*
X15876648Y-17328184D02*
X15857601Y-17328184D01*
X15857601Y-17328184D02*
X15838553Y-17318660D01*
X15838553Y-17318660D02*
X15829029Y-17309136D01*
X15829029Y-17309136D02*
X15819506Y-17290089D01*
X15819506Y-17290089D02*
X15809982Y-17251993D01*
X15809982Y-17251993D02*
X15809982Y-17204374D01*
X15809982Y-17204374D02*
X15819506Y-17166279D01*
X15819506Y-17166279D02*
X15829029Y-17147231D01*
X15829029Y-17147231D02*
X15838553Y-17137708D01*
X15838553Y-17137708D02*
X15857601Y-17128184D01*
X16095696Y-17128184D02*
X16057601Y-17128184D01*
X16057601Y-17128184D02*
X16038553Y-17137708D01*
X16038553Y-17137708D02*
X16029029Y-17147231D01*
X16029029Y-17147231D02*
X16009982Y-17175803D01*
X16009982Y-17175803D02*
X16000458Y-17213898D01*
X16000458Y-17213898D02*
X16000458Y-17290089D01*
X16000458Y-17290089D02*
X16009982Y-17309136D01*
X16009982Y-17309136D02*
X16019506Y-17318660D01*
X16019506Y-17318660D02*
X16038553Y-17328184D01*
X16038553Y-17328184D02*
X16076648Y-17328184D01*
X16076648Y-17328184D02*
X16095696Y-17318660D01*
X16095696Y-17318660D02*
X16105220Y-17309136D01*
X16105220Y-17309136D02*
X16114744Y-17290089D01*
X16114744Y-17290089D02*
X16114744Y-17242470D01*
X16114744Y-17242470D02*
X16105220Y-17223422D01*
X16105220Y-17223422D02*
X16095696Y-17213898D01*
X16095696Y-17213898D02*
X16076648Y-17204374D01*
X16076648Y-17204374D02*
X16038553Y-17204374D01*
X16038553Y-17204374D02*
X16019506Y-17213898D01*
X16019506Y-17213898D02*
X16009982Y-17223422D01*
X16009982Y-17223422D02*
X16000458Y-17242470D01*
X16190934Y-17128184D02*
X16190934Y-17166279D01*
X16267125Y-17128184D02*
X16267125Y-17166279D01*
X16562363Y-17404374D02*
X16552839Y-17394850D01*
X16552839Y-17394850D02*
X16533791Y-17366279D01*
X16533791Y-17366279D02*
X16524268Y-17347231D01*
X16524268Y-17347231D02*
X16514744Y-17318660D01*
X16514744Y-17318660D02*
X16505220Y-17271041D01*
X16505220Y-17271041D02*
X16505220Y-17232946D01*
X16505220Y-17232946D02*
X16514744Y-17185327D01*
X16514744Y-17185327D02*
X16524268Y-17156755D01*
X16524268Y-17156755D02*
X16533791Y-17137708D01*
X16533791Y-17137708D02*
X16552839Y-17109136D01*
X16552839Y-17109136D02*
X16562363Y-17099612D01*
X16629029Y-17147231D02*
X16638553Y-17137708D01*
X16638553Y-17137708D02*
X16657601Y-17128184D01*
X16657601Y-17128184D02*
X16705220Y-17128184D01*
X16705220Y-17128184D02*
X16724268Y-17137708D01*
X16724268Y-17137708D02*
X16733791Y-17147231D01*
X16733791Y-17147231D02*
X16743315Y-17166279D01*
X16743315Y-17166279D02*
X16743315Y-17185327D01*
X16743315Y-17185327D02*
X16733791Y-17213898D01*
X16733791Y-17213898D02*
X16619506Y-17328184D01*
X16619506Y-17328184D02*
X16743315Y-17328184D01*
X16981411Y-17328184D02*
X16981411Y-17128184D01*
X17067125Y-17328184D02*
X17067125Y-17223422D01*
X17067125Y-17223422D02*
X17057601Y-17204374D01*
X17057601Y-17204374D02*
X17038553Y-17194850D01*
X17038553Y-17194850D02*
X17009982Y-17194850D01*
X17009982Y-17194850D02*
X16990934Y-17204374D01*
X16990934Y-17204374D02*
X16981411Y-17213898D01*
X17190934Y-17328184D02*
X17171887Y-17318660D01*
X17171887Y-17318660D02*
X17162363Y-17309136D01*
X17162363Y-17309136D02*
X17152839Y-17290089D01*
X17152839Y-17290089D02*
X17152839Y-17232946D01*
X17152839Y-17232946D02*
X17162363Y-17213898D01*
X17162363Y-17213898D02*
X17171887Y-17204374D01*
X17171887Y-17204374D02*
X17190934Y-17194850D01*
X17190934Y-17194850D02*
X17219506Y-17194850D01*
X17219506Y-17194850D02*
X17238553Y-17204374D01*
X17238553Y-17204374D02*
X17248077Y-17213898D01*
X17248077Y-17213898D02*
X17257601Y-17232946D01*
X17257601Y-17232946D02*
X17257601Y-17290089D01*
X17257601Y-17290089D02*
X17248077Y-17309136D01*
X17248077Y-17309136D02*
X17238553Y-17318660D01*
X17238553Y-17318660D02*
X17219506Y-17328184D01*
X17219506Y-17328184D02*
X17190934Y-17328184D01*
X17371887Y-17328184D02*
X17352839Y-17318660D01*
X17352839Y-17318660D02*
X17343315Y-17299612D01*
X17343315Y-17299612D02*
X17343315Y-17128184D01*
X17524268Y-17318660D02*
X17505220Y-17328184D01*
X17505220Y-17328184D02*
X17467125Y-17328184D01*
X17467125Y-17328184D02*
X17448077Y-17318660D01*
X17448077Y-17318660D02*
X17438553Y-17299612D01*
X17438553Y-17299612D02*
X17438553Y-17223422D01*
X17438553Y-17223422D02*
X17448077Y-17204374D01*
X17448077Y-17204374D02*
X17467125Y-17194850D01*
X17467125Y-17194850D02*
X17505220Y-17194850D01*
X17505220Y-17194850D02*
X17524268Y-17204374D01*
X17524268Y-17204374D02*
X17533792Y-17223422D01*
X17533792Y-17223422D02*
X17533792Y-17242470D01*
X17533792Y-17242470D02*
X17438553Y-17261517D01*
X17609982Y-17318660D02*
X17629030Y-17328184D01*
X17629030Y-17328184D02*
X17667125Y-17328184D01*
X17667125Y-17328184D02*
X17686173Y-17318660D01*
X17686173Y-17318660D02*
X17695696Y-17299612D01*
X17695696Y-17299612D02*
X17695696Y-17290089D01*
X17695696Y-17290089D02*
X17686173Y-17271041D01*
X17686173Y-17271041D02*
X17667125Y-17261517D01*
X17667125Y-17261517D02*
X17638553Y-17261517D01*
X17638553Y-17261517D02*
X17619506Y-17251993D01*
X17619506Y-17251993D02*
X17609982Y-17232946D01*
X17609982Y-17232946D02*
X17609982Y-17223422D01*
X17609982Y-17223422D02*
X17619506Y-17204374D01*
X17619506Y-17204374D02*
X17638553Y-17194850D01*
X17638553Y-17194850D02*
X17667125Y-17194850D01*
X17667125Y-17194850D02*
X17686173Y-17204374D01*
X17762363Y-17404374D02*
X17771887Y-17394850D01*
X17771887Y-17394850D02*
X17790934Y-17366279D01*
X17790934Y-17366279D02*
X17800458Y-17347231D01*
X17800458Y-17347231D02*
X17809982Y-17318660D01*
X17809982Y-17318660D02*
X17819506Y-17271041D01*
X17819506Y-17271041D02*
X17819506Y-17232946D01*
X17819506Y-17232946D02*
X17809982Y-17185327D01*
X17809982Y-17185327D02*
X17800458Y-17156755D01*
X17800458Y-17156755D02*
X17790934Y-17137708D01*
X17790934Y-17137708D02*
X17771887Y-17109136D01*
X17771887Y-17109136D02*
X17762363Y-17099612D01*
X12787300Y-17456700D02*
X12987300Y-17656700D01*
X12987300Y-17456700D02*
X12787300Y-17656700D01*
X12958011Y-17627411D02*
X12958011Y-17485989D01*
X12816589Y-17485989D01*
X12816589Y-17627411D01*
X12958011Y-17627411D01*
X13238553Y-17467231D02*
X13248077Y-17457708D01*
X13248077Y-17457708D02*
X13267124Y-17448184D01*
X13267124Y-17448184D02*
X13314743Y-17448184D01*
X13314743Y-17448184D02*
X13333791Y-17457708D01*
X13333791Y-17457708D02*
X13343315Y-17467231D01*
X13343315Y-17467231D02*
X13352839Y-17486279D01*
X13352839Y-17486279D02*
X13352839Y-17505327D01*
X13352839Y-17505327D02*
X13343315Y-17533898D01*
X13343315Y-17533898D02*
X13229029Y-17648184D01*
X13229029Y-17648184D02*
X13352839Y-17648184D01*
X13438553Y-17629136D02*
X13448077Y-17638660D01*
X13448077Y-17638660D02*
X13438553Y-17648184D01*
X13438553Y-17648184D02*
X13429029Y-17638660D01*
X13429029Y-17638660D02*
X13438553Y-17629136D01*
X13438553Y-17629136D02*
X13438553Y-17648184D01*
X13514743Y-17448184D02*
X13648077Y-17448184D01*
X13648077Y-17448184D02*
X13562362Y-17648184D01*
X13762362Y-17448184D02*
X13781410Y-17448184D01*
X13781410Y-17448184D02*
X13800458Y-17457708D01*
X13800458Y-17457708D02*
X13809982Y-17467231D01*
X13809982Y-17467231D02*
X13819505Y-17486279D01*
X13819505Y-17486279D02*
X13829029Y-17524374D01*
X13829029Y-17524374D02*
X13829029Y-17571993D01*
X13829029Y-17571993D02*
X13819505Y-17610089D01*
X13819505Y-17610089D02*
X13809982Y-17629136D01*
X13809982Y-17629136D02*
X13800458Y-17638660D01*
X13800458Y-17638660D02*
X13781410Y-17648184D01*
X13781410Y-17648184D02*
X13762362Y-17648184D01*
X13762362Y-17648184D02*
X13743315Y-17638660D01*
X13743315Y-17638660D02*
X13733791Y-17629136D01*
X13733791Y-17629136D02*
X13724267Y-17610089D01*
X13724267Y-17610089D02*
X13714743Y-17571993D01*
X13714743Y-17571993D02*
X13714743Y-17524374D01*
X13714743Y-17524374D02*
X13724267Y-17486279D01*
X13724267Y-17486279D02*
X13733791Y-17467231D01*
X13733791Y-17467231D02*
X13743315Y-17457708D01*
X13743315Y-17457708D02*
X13762362Y-17448184D01*
X13952839Y-17448184D02*
X13971886Y-17448184D01*
X13971886Y-17448184D02*
X13990934Y-17457708D01*
X13990934Y-17457708D02*
X14000458Y-17467231D01*
X14000458Y-17467231D02*
X14009982Y-17486279D01*
X14009982Y-17486279D02*
X14019505Y-17524374D01*
X14019505Y-17524374D02*
X14019505Y-17571993D01*
X14019505Y-17571993D02*
X14009982Y-17610089D01*
X14009982Y-17610089D02*
X14000458Y-17629136D01*
X14000458Y-17629136D02*
X13990934Y-17638660D01*
X13990934Y-17638660D02*
X13971886Y-17648184D01*
X13971886Y-17648184D02*
X13952839Y-17648184D01*
X13952839Y-17648184D02*
X13933791Y-17638660D01*
X13933791Y-17638660D02*
X13924267Y-17629136D01*
X13924267Y-17629136D02*
X13914743Y-17610089D01*
X13914743Y-17610089D02*
X13905220Y-17571993D01*
X13905220Y-17571993D02*
X13905220Y-17524374D01*
X13905220Y-17524374D02*
X13914743Y-17486279D01*
X13914743Y-17486279D02*
X13924267Y-17467231D01*
X13924267Y-17467231D02*
X13933791Y-17457708D01*
X13933791Y-17457708D02*
X13952839Y-17448184D01*
X14105220Y-17648184D02*
X14105220Y-17514850D01*
X14105220Y-17533898D02*
X14114743Y-17524374D01*
X14114743Y-17524374D02*
X14133791Y-17514850D01*
X14133791Y-17514850D02*
X14162363Y-17514850D01*
X14162363Y-17514850D02*
X14181410Y-17524374D01*
X14181410Y-17524374D02*
X14190934Y-17543422D01*
X14190934Y-17543422D02*
X14190934Y-17648184D01*
X14190934Y-17543422D02*
X14200458Y-17524374D01*
X14200458Y-17524374D02*
X14219505Y-17514850D01*
X14219505Y-17514850D02*
X14248077Y-17514850D01*
X14248077Y-17514850D02*
X14267124Y-17524374D01*
X14267124Y-17524374D02*
X14276648Y-17543422D01*
X14276648Y-17543422D02*
X14276648Y-17648184D01*
X14371886Y-17648184D02*
X14371886Y-17514850D01*
X14371886Y-17533898D02*
X14381410Y-17524374D01*
X14381410Y-17524374D02*
X14400458Y-17514850D01*
X14400458Y-17514850D02*
X14429029Y-17514850D01*
X14429029Y-17514850D02*
X14448077Y-17524374D01*
X14448077Y-17524374D02*
X14457601Y-17543422D01*
X14457601Y-17543422D02*
X14457601Y-17648184D01*
X14457601Y-17543422D02*
X14467124Y-17524374D01*
X14467124Y-17524374D02*
X14486172Y-17514850D01*
X14486172Y-17514850D02*
X14514743Y-17514850D01*
X14514743Y-17514850D02*
X14533791Y-17524374D01*
X14533791Y-17524374D02*
X14543315Y-17543422D01*
X14543315Y-17543422D02*
X14543315Y-17648184D01*
X14933791Y-17438660D02*
X14762363Y-17695803D01*
X15190934Y-17448184D02*
X15209982Y-17448184D01*
X15209982Y-17448184D02*
X15229029Y-17457708D01*
X15229029Y-17457708D02*
X15238553Y-17467231D01*
X15238553Y-17467231D02*
X15248077Y-17486279D01*
X15248077Y-17486279D02*
X15257601Y-17524374D01*
X15257601Y-17524374D02*
X15257601Y-17571993D01*
X15257601Y-17571993D02*
X15248077Y-17610089D01*
X15248077Y-17610089D02*
X15238553Y-17629136D01*
X15238553Y-17629136D02*
X15229029Y-17638660D01*
X15229029Y-17638660D02*
X15209982Y-17648184D01*
X15209982Y-17648184D02*
X15190934Y-17648184D01*
X15190934Y-17648184D02*
X15171886Y-17638660D01*
X15171886Y-17638660D02*
X15162363Y-17629136D01*
X15162363Y-17629136D02*
X15152839Y-17610089D01*
X15152839Y-17610089D02*
X15143315Y-17571993D01*
X15143315Y-17571993D02*
X15143315Y-17524374D01*
X15143315Y-17524374D02*
X15152839Y-17486279D01*
X15152839Y-17486279D02*
X15162363Y-17467231D01*
X15162363Y-17467231D02*
X15171886Y-17457708D01*
X15171886Y-17457708D02*
X15190934Y-17448184D01*
X15343315Y-17629136D02*
X15352839Y-17638660D01*
X15352839Y-17638660D02*
X15343315Y-17648184D01*
X15343315Y-17648184D02*
X15333791Y-17638660D01*
X15333791Y-17638660D02*
X15343315Y-17629136D01*
X15343315Y-17629136D02*
X15343315Y-17648184D01*
X15543315Y-17648184D02*
X15429029Y-17648184D01*
X15486172Y-17648184D02*
X15486172Y-17448184D01*
X15486172Y-17448184D02*
X15467125Y-17476755D01*
X15467125Y-17476755D02*
X15448077Y-17495803D01*
X15448077Y-17495803D02*
X15429029Y-17505327D01*
X15667125Y-17448184D02*
X15686172Y-17448184D01*
X15686172Y-17448184D02*
X15705220Y-17457708D01*
X15705220Y-17457708D02*
X15714744Y-17467231D01*
X15714744Y-17467231D02*
X15724267Y-17486279D01*
X15724267Y-17486279D02*
X15733791Y-17524374D01*
X15733791Y-17524374D02*
X15733791Y-17571993D01*
X15733791Y-17571993D02*
X15724267Y-17610089D01*
X15724267Y-17610089D02*
X15714744Y-17629136D01*
X15714744Y-17629136D02*
X15705220Y-17638660D01*
X15705220Y-17638660D02*
X15686172Y-17648184D01*
X15686172Y-17648184D02*
X15667125Y-17648184D01*
X15667125Y-17648184D02*
X15648077Y-17638660D01*
X15648077Y-17638660D02*
X15638553Y-17629136D01*
X15638553Y-17629136D02*
X15629029Y-17610089D01*
X15629029Y-17610089D02*
X15619506Y-17571993D01*
X15619506Y-17571993D02*
X15619506Y-17524374D01*
X15619506Y-17524374D02*
X15629029Y-17486279D01*
X15629029Y-17486279D02*
X15638553Y-17467231D01*
X15638553Y-17467231D02*
X15648077Y-17457708D01*
X15648077Y-17457708D02*
X15667125Y-17448184D01*
X15905220Y-17448184D02*
X15867125Y-17448184D01*
X15867125Y-17448184D02*
X15848077Y-17457708D01*
X15848077Y-17457708D02*
X15838553Y-17467231D01*
X15838553Y-17467231D02*
X15819506Y-17495803D01*
X15819506Y-17495803D02*
X15809982Y-17533898D01*
X15809982Y-17533898D02*
X15809982Y-17610089D01*
X15809982Y-17610089D02*
X15819506Y-17629136D01*
X15819506Y-17629136D02*
X15829029Y-17638660D01*
X15829029Y-17638660D02*
X15848077Y-17648184D01*
X15848077Y-17648184D02*
X15886172Y-17648184D01*
X15886172Y-17648184D02*
X15905220Y-17638660D01*
X15905220Y-17638660D02*
X15914744Y-17629136D01*
X15914744Y-17629136D02*
X15924267Y-17610089D01*
X15924267Y-17610089D02*
X15924267Y-17562470D01*
X15924267Y-17562470D02*
X15914744Y-17543422D01*
X15914744Y-17543422D02*
X15905220Y-17533898D01*
X15905220Y-17533898D02*
X15886172Y-17524374D01*
X15886172Y-17524374D02*
X15848077Y-17524374D01*
X15848077Y-17524374D02*
X15829029Y-17533898D01*
X15829029Y-17533898D02*
X15819506Y-17543422D01*
X15819506Y-17543422D02*
X15809982Y-17562470D01*
X15990934Y-17448184D02*
X16114744Y-17448184D01*
X16114744Y-17448184D02*
X16048077Y-17524374D01*
X16048077Y-17524374D02*
X16076648Y-17524374D01*
X16076648Y-17524374D02*
X16095696Y-17533898D01*
X16095696Y-17533898D02*
X16105220Y-17543422D01*
X16105220Y-17543422D02*
X16114744Y-17562470D01*
X16114744Y-17562470D02*
X16114744Y-17610089D01*
X16114744Y-17610089D02*
X16105220Y-17629136D01*
X16105220Y-17629136D02*
X16095696Y-17638660D01*
X16095696Y-17638660D02*
X16076648Y-17648184D01*
X16076648Y-17648184D02*
X16019506Y-17648184D01*
X16019506Y-17648184D02*
X16000458Y-17638660D01*
X16000458Y-17638660D02*
X15990934Y-17629136D01*
X16190934Y-17448184D02*
X16190934Y-17486279D01*
X16267125Y-17448184D02*
X16267125Y-17486279D01*
X16562363Y-17724374D02*
X16552839Y-17714850D01*
X16552839Y-17714850D02*
X16533791Y-17686279D01*
X16533791Y-17686279D02*
X16524268Y-17667231D01*
X16524268Y-17667231D02*
X16514744Y-17638660D01*
X16514744Y-17638660D02*
X16505220Y-17591041D01*
X16505220Y-17591041D02*
X16505220Y-17552946D01*
X16505220Y-17552946D02*
X16514744Y-17505327D01*
X16514744Y-17505327D02*
X16524268Y-17476755D01*
X16524268Y-17476755D02*
X16533791Y-17457708D01*
X16533791Y-17457708D02*
X16552839Y-17429136D01*
X16552839Y-17429136D02*
X16562363Y-17419612D01*
X16724268Y-17514850D02*
X16724268Y-17648184D01*
X16676648Y-17438660D02*
X16629029Y-17581517D01*
X16629029Y-17581517D02*
X16752839Y-17581517D01*
X16981411Y-17648184D02*
X16981411Y-17448184D01*
X17067125Y-17648184D02*
X17067125Y-17543422D01*
X17067125Y-17543422D02*
X17057601Y-17524374D01*
X17057601Y-17524374D02*
X17038553Y-17514850D01*
X17038553Y-17514850D02*
X17009982Y-17514850D01*
X17009982Y-17514850D02*
X16990934Y-17524374D01*
X16990934Y-17524374D02*
X16981411Y-17533898D01*
X17190934Y-17648184D02*
X17171887Y-17638660D01*
X17171887Y-17638660D02*
X17162363Y-17629136D01*
X17162363Y-17629136D02*
X17152839Y-17610089D01*
X17152839Y-17610089D02*
X17152839Y-17552946D01*
X17152839Y-17552946D02*
X17162363Y-17533898D01*
X17162363Y-17533898D02*
X17171887Y-17524374D01*
X17171887Y-17524374D02*
X17190934Y-17514850D01*
X17190934Y-17514850D02*
X17219506Y-17514850D01*
X17219506Y-17514850D02*
X17238553Y-17524374D01*
X17238553Y-17524374D02*
X17248077Y-17533898D01*
X17248077Y-17533898D02*
X17257601Y-17552946D01*
X17257601Y-17552946D02*
X17257601Y-17610089D01*
X17257601Y-17610089D02*
X17248077Y-17629136D01*
X17248077Y-17629136D02*
X17238553Y-17638660D01*
X17238553Y-17638660D02*
X17219506Y-17648184D01*
X17219506Y-17648184D02*
X17190934Y-17648184D01*
X17371887Y-17648184D02*
X17352839Y-17638660D01*
X17352839Y-17638660D02*
X17343315Y-17619612D01*
X17343315Y-17619612D02*
X17343315Y-17448184D01*
X17524268Y-17638660D02*
X17505220Y-17648184D01*
X17505220Y-17648184D02*
X17467125Y-17648184D01*
X17467125Y-17648184D02*
X17448077Y-17638660D01*
X17448077Y-17638660D02*
X17438553Y-17619612D01*
X17438553Y-17619612D02*
X17438553Y-17543422D01*
X17438553Y-17543422D02*
X17448077Y-17524374D01*
X17448077Y-17524374D02*
X17467125Y-17514850D01*
X17467125Y-17514850D02*
X17505220Y-17514850D01*
X17505220Y-17514850D02*
X17524268Y-17524374D01*
X17524268Y-17524374D02*
X17533792Y-17543422D01*
X17533792Y-17543422D02*
X17533792Y-17562470D01*
X17533792Y-17562470D02*
X17438553Y-17581517D01*
X17609982Y-17638660D02*
X17629030Y-17648184D01*
X17629030Y-17648184D02*
X17667125Y-17648184D01*
X17667125Y-17648184D02*
X17686173Y-17638660D01*
X17686173Y-17638660D02*
X17695696Y-17619612D01*
X17695696Y-17619612D02*
X17695696Y-17610089D01*
X17695696Y-17610089D02*
X17686173Y-17591041D01*
X17686173Y-17591041D02*
X17667125Y-17581517D01*
X17667125Y-17581517D02*
X17638553Y-17581517D01*
X17638553Y-17581517D02*
X17619506Y-17571993D01*
X17619506Y-17571993D02*
X17609982Y-17552946D01*
X17609982Y-17552946D02*
X17609982Y-17543422D01*
X17609982Y-17543422D02*
X17619506Y-17524374D01*
X17619506Y-17524374D02*
X17638553Y-17514850D01*
X17638553Y-17514850D02*
X17667125Y-17514850D01*
X17667125Y-17514850D02*
X17686173Y-17524374D01*
X17762363Y-17724374D02*
X17771887Y-17714850D01*
X17771887Y-17714850D02*
X17790934Y-17686279D01*
X17790934Y-17686279D02*
X17800458Y-17667231D01*
X17800458Y-17667231D02*
X17809982Y-17638660D01*
X17809982Y-17638660D02*
X17819506Y-17591041D01*
X17819506Y-17591041D02*
X17819506Y-17552946D01*
X17819506Y-17552946D02*
X17809982Y-17505327D01*
X17809982Y-17505327D02*
X17800458Y-17476755D01*
X17800458Y-17476755D02*
X17790934Y-17457708D01*
X17790934Y-17457708D02*
X17771887Y-17429136D01*
X17771887Y-17429136D02*
X17762363Y-17419612D01*
M02*
