M48
; DRILL file {KiCad 8.0.6} date 2025-01-19T14:16:08-0500
; FORMAT={-:-/ absolute / inch / decimal}
; #@! TF.CreationDate,2025-01-19T14:16:08-05:00
; #@! TF.GenerationSoftware,Kicad,Pcbnew,8.0.6
; #@! TF.FileFunction,Plated,1,2,PTH
FMAT,2
INCH
; #@! TA.AperFunction,Plated,PTH,ViaDrill
T1C0.0157
; #@! TA.AperFunction,Plated,PTH,ComponentDrill
T2C0.0236
; #@! TA.AperFunction,Plated,PTH,ComponentDrill
T3C0.0315
; #@! TA.AperFunction,Plated,PTH,ComponentDrill
T4C0.0350
; #@! TA.AperFunction,Plated,PTH,ComponentDrill
T5C0.0374
; #@! TA.AperFunction,Plated,PTH,ComponentDrill
T6C0.0402
; #@! TA.AperFunction,Plated,PTH,ComponentDrill
T7C0.0906
; #@! TA.AperFunction,Plated,PTH,ComponentDrill
T8C0.1063
%
G90
G05
T1
X6.0472Y-4.6713
X6.3462Y-4.8338
X7.207Y-3.8729
X7.2106Y-3.9704
X7.2907Y-3.7034
X7.4988Y-3.8862
X7.5321Y-3.851
X7.5739Y-3.9413
T2
X7.3307Y-4.0866
X7.4094Y-4.0866
T3
X6.2162Y-4.8019
X6.2162Y-4.9941
X7.0748Y-3.7165
X7.0748Y-3.9087
T4
X5.7835Y-3.4055
X5.7835Y-3.5055
X5.7835Y-3.6055
X5.7835Y-3.7055
X5.7835Y-3.8055
X5.7835Y-3.9055
X5.7835Y-4.0055
X5.7835Y-4.1055
X6.6835Y-3.4055
X6.6835Y-3.5055
X6.6835Y-3.6055
X6.6835Y-3.7055
X6.6835Y-3.8055
X6.6835Y-3.9055
X6.6835Y-4.0055
X6.6835Y-4.1055
T5
X5.6675Y-4.8006
X5.6675Y-4.8991
X5.7462Y-4.8006
X5.7462Y-4.8991
T6
X7.3181Y-3.0827
X7.4181Y-3.0827
X7.5181Y-3.0827
X7.6181Y-3.0827
T7
X5.5549Y-4.6136
X5.5549Y-5.0861
T8
X5.315Y-2.9528
X5.315Y-5.7087
X8.0709Y-2.9528
X8.0709Y-5.7087
M30
