G04 #@! TF.GenerationSoftware,KiCad,Pcbnew,8.0.6*
G04 #@! TF.CreationDate,2025-01-19T14:16:04-05:00*
G04 #@! TF.ProjectId,board_stm8_rev2,626f6172-645f-4737-946d-385f72657632,rev?*
G04 #@! TF.SameCoordinates,Original*
G04 #@! TF.FileFunction,Copper,L1,Top*
G04 #@! TF.FilePolarity,Positive*
%FSLAX46Y46*%
G04 Gerber Fmt 4.6, Leading zero omitted, Abs format (unit mm)*
G04 Created by KiCad (PCBNEW 8.0.6) date 2025-01-19 14:16:04*
%MOMM*%
%LPD*%
G01*
G04 APERTURE LIST*
G04 Aperture macros list*
%AMRoundRect*
0 Rectangle with rounded corners*
0 $1 Rounding radius*
0 $2 $3 $4 $5 $6 $7 $8 $9 X,Y pos of 4 corners*
0 Add a 4 corners polygon primitive as box body*
4,1,4,$2,$3,$4,$5,$6,$7,$8,$9,$2,$3,0*
0 Add four circle primitives for the rounded corners*
1,1,$1+$1,$2,$3*
1,1,$1+$1,$4,$5*
1,1,$1+$1,$6,$7*
1,1,$1+$1,$8,$9*
0 Add four rect primitives between the rounded corners*
20,1,$1+$1,$2,$3,$4,$5,0*
20,1,$1+$1,$4,$5,$6,$7,0*
20,1,$1+$1,$6,$7,$8,$9,0*
20,1,$1+$1,$8,$9,$2,$3,0*%
G04 Aperture macros list end*
G04 #@! TA.AperFunction,ComponentPad*
%ADD10R,1.676400X1.676400*%
G04 #@! TD*
G04 #@! TA.AperFunction,ComponentPad*
%ADD11C,1.524000*%
G04 #@! TD*
G04 #@! TA.AperFunction,ComponentPad*
%ADD12R,1.524000X1.524000*%
G04 #@! TD*
G04 #@! TA.AperFunction,SMDPad,CuDef*
%ADD13RoundRect,0.250000X-0.475000X0.337500X-0.475000X-0.337500X0.475000X-0.337500X0.475000X0.337500X0*%
G04 #@! TD*
G04 #@! TA.AperFunction,ComponentPad*
%ADD14C,1.200000*%
G04 #@! TD*
G04 #@! TA.AperFunction,SMDPad,CuDef*
%ADD15RoundRect,0.250000X-0.337500X-0.475000X0.337500X-0.475000X0.337500X0.475000X-0.337500X0.475000X0*%
G04 #@! TD*
G04 #@! TA.AperFunction,ComponentPad*
%ADD16C,1.500000*%
G04 #@! TD*
G04 #@! TA.AperFunction,ComponentPad*
%ADD17C,2.020000*%
G04 #@! TD*
G04 #@! TA.AperFunction,SMDPad,CuDef*
%ADD18R,1.473200X0.355600*%
G04 #@! TD*
G04 #@! TA.AperFunction,SMDPad,CuDef*
%ADD19RoundRect,0.150000X-0.825000X-0.150000X0.825000X-0.150000X0.825000X0.150000X-0.825000X0.150000X0*%
G04 #@! TD*
G04 #@! TA.AperFunction,SMDPad,CuDef*
%ADD20RoundRect,0.250000X0.337500X0.475000X-0.337500X0.475000X-0.337500X-0.475000X0.337500X-0.475000X0*%
G04 #@! TD*
G04 #@! TA.AperFunction,ComponentPad*
%ADD21R,1.600000X1.600000*%
G04 #@! TD*
G04 #@! TA.AperFunction,ComponentPad*
%ADD22C,1.600000*%
G04 #@! TD*
G04 #@! TA.AperFunction,ComponentPad*
%ADD23C,4.000000*%
G04 #@! TD*
G04 #@! TA.AperFunction,ComponentPad*
%ADD24C,4.700000*%
G04 #@! TD*
G04 #@! TA.AperFunction,ViaPad*
%ADD25C,0.800000*%
G04 #@! TD*
G04 #@! TA.AperFunction,Conductor*
%ADD26C,0.250000*%
G04 #@! TD*
G04 APERTURE END LIST*
D10*
X146900000Y-86500000D03*
D11*
X146900000Y-89040000D03*
X146900000Y-91580000D03*
X146900000Y-94120000D03*
X146900000Y-96660000D03*
X146900000Y-99200000D03*
X146900000Y-101740000D03*
X146900000Y-104280000D03*
X169760000Y-104280000D03*
X169760000Y-101740000D03*
X169760000Y-99200000D03*
X169760000Y-96660000D03*
X169760000Y-94120000D03*
X169760000Y-91580000D03*
X169760000Y-89040000D03*
D12*
X169760000Y-86500000D03*
D13*
X184500000Y-97825000D03*
X184500000Y-99900000D03*
D14*
X188200000Y-103800000D03*
X186200000Y-103800000D03*
D15*
X179824500Y-105500000D03*
X181899500Y-105500000D03*
X179362500Y-88600000D03*
X181437500Y-88600000D03*
D16*
X179700000Y-94400000D03*
X179700000Y-99280000D03*
D17*
X193500000Y-78300000D03*
X190960000Y-78300000D03*
X188420000Y-78300000D03*
X185880000Y-78300000D03*
D18*
X193021000Y-92475002D03*
X193021000Y-93125001D03*
X193021000Y-93775002D03*
X193021000Y-94425001D03*
X193021000Y-95075002D03*
X193021000Y-95725001D03*
X193021000Y-96375002D03*
X193021000Y-97025001D03*
X193021000Y-97675002D03*
X193021000Y-98325000D03*
X187179000Y-98324998D03*
X187179000Y-97674999D03*
X187179000Y-97024998D03*
X187179000Y-96374999D03*
X187179000Y-95724998D03*
X187179000Y-95074999D03*
X187179000Y-94425001D03*
X187179000Y-93774999D03*
X187179000Y-93125001D03*
X187179000Y-92475000D03*
D15*
X157235500Y-115419000D03*
X159310500Y-115419000D03*
D19*
X162910000Y-116054000D03*
X162910000Y-117324000D03*
X162910000Y-118594000D03*
X162910000Y-119864000D03*
X162910000Y-121134000D03*
X162910000Y-122404000D03*
X162910000Y-123674000D03*
X162910000Y-124944000D03*
X167860000Y-124944000D03*
X167860000Y-123674000D03*
X167860000Y-122404000D03*
X167860000Y-121134000D03*
X167860000Y-119864000D03*
X167860000Y-118594000D03*
X167860000Y-117324000D03*
X167860000Y-116054000D03*
D16*
X157892000Y-126849000D03*
X157892000Y-121969000D03*
D20*
X167637500Y-113500000D03*
X165562500Y-113500000D03*
D15*
X162696500Y-128373000D03*
X164771500Y-128373000D03*
D13*
X153066000Y-122001500D03*
X153066000Y-124076500D03*
D21*
X145954000Y-124436000D03*
D22*
X145954000Y-121936000D03*
X143954000Y-121936000D03*
X143954000Y-124436000D03*
D23*
X141094000Y-129186000D03*
X141094000Y-117186000D03*
D24*
X135000000Y-75000000D03*
X205000000Y-75000000D03*
X205000000Y-145000000D03*
X135000000Y-145000000D03*
D25*
X185184500Y-94067500D03*
X190469000Y-98709300D03*
X192377900Y-100109800D03*
X191315400Y-97815300D03*
X183149400Y-100847600D03*
X161193600Y-122778900D03*
X153600000Y-118650000D03*
X183057700Y-98372100D03*
D26*
X153600000Y-118650000D02*
X153750000Y-118500000D01*
X158955604Y-118500000D02*
X161589604Y-121134000D01*
X153750000Y-118500000D02*
X158955604Y-118500000D01*
X161589604Y-121134000D02*
X162910000Y-121134000D01*
X188293600Y-93125000D02*
X187179000Y-93125000D01*
X189706800Y-94538200D02*
X188293600Y-93125000D01*
X189706800Y-104281200D02*
X189706800Y-94538200D01*
X176028900Y-117959100D02*
X189706800Y-104281200D01*
X163544900Y-117959100D02*
X176028900Y-117959100D01*
X162910000Y-118594000D02*
X163544900Y-117959100D01*
X187179000Y-93775000D02*
X188242300Y-93775000D01*
X163545000Y-116689000D02*
X162910000Y-117324000D01*
X176645900Y-116689000D02*
X163545000Y-116689000D01*
X189255100Y-104079800D02*
X176645900Y-116689000D01*
X189255100Y-94787800D02*
X189255100Y-104079800D01*
X188242300Y-93775000D02*
X189255100Y-94787800D01*
X185542000Y-94425000D02*
X185184500Y-94067500D01*
X187179000Y-94425000D02*
X185542000Y-94425000D01*
X194084300Y-81424300D02*
X190960000Y-78300000D01*
X194084300Y-93775000D02*
X194084300Y-81424300D01*
X193021000Y-93775000D02*
X194084300Y-93775000D01*
X193021000Y-98325000D02*
X191957700Y-98325000D01*
X191573400Y-98709300D02*
X191957700Y-98325000D01*
X190469000Y-98709300D02*
X191573400Y-98709300D01*
X146900000Y-86500000D02*
X148064900Y-86500000D01*
X193021000Y-92475000D02*
X191957700Y-92475000D01*
X150572400Y-83992500D02*
X148064900Y-86500000D01*
X183475200Y-83992500D02*
X150572400Y-83992500D01*
X191957700Y-92475000D02*
X183475200Y-83992500D01*
X193021000Y-96375000D02*
X194084300Y-96375000D01*
X194084300Y-98641500D02*
X194084300Y-96375000D01*
X192616000Y-100109800D02*
X194084300Y-98641500D01*
X192377900Y-100109800D02*
X192616000Y-100109800D01*
X191455700Y-97675000D02*
X191315400Y-97815300D01*
X193021000Y-97675000D02*
X191455700Y-97675000D01*
X154013800Y-84466200D02*
X146900000Y-91580000D01*
X183199100Y-84466200D02*
X154013800Y-84466200D01*
X191857900Y-93125000D02*
X183199100Y-84466200D01*
X193021000Y-93125000D02*
X191857900Y-93125000D01*
X193021000Y-94425000D02*
X191957700Y-94425000D01*
X182472600Y-84939900D02*
X191957700Y-94425000D01*
X158620100Y-84939900D02*
X182472600Y-84939900D01*
X146900000Y-96660000D02*
X158620100Y-84939900D01*
X193021000Y-95725000D02*
X194084300Y-95725000D01*
X194888800Y-94920500D02*
X194084300Y-95725000D01*
X194888800Y-77725300D02*
X194888800Y-94920500D01*
X194104700Y-76941200D02*
X194888800Y-77725300D01*
X154290600Y-76941200D02*
X194104700Y-76941200D01*
X145719600Y-85512200D02*
X154290600Y-76941200D01*
X145719600Y-92939600D02*
X145719600Y-85512200D01*
X146900000Y-94120000D02*
X145719600Y-92939600D01*
X185212600Y-100847600D02*
X183149400Y-100847600D01*
X186115700Y-99944500D02*
X185212600Y-100847600D01*
X186115700Y-98325000D02*
X186115700Y-99944500D01*
X187179000Y-98325000D02*
X186115700Y-98325000D01*
X193021000Y-97025000D02*
X191957700Y-97025000D01*
X172194200Y-86605800D02*
X169760000Y-89040000D01*
X182690500Y-86605800D02*
X172194200Y-86605800D01*
X191957700Y-95873000D02*
X182690500Y-86605800D01*
X191957700Y-97025000D02*
X191957700Y-95873000D01*
X187179000Y-92475000D02*
X186115700Y-92475000D01*
X186115700Y-91544600D02*
X186115700Y-92475000D01*
X181634000Y-87062900D02*
X186115700Y-91544600D01*
X174277100Y-87062900D02*
X181634000Y-87062900D01*
X169760000Y-91580000D02*
X174277100Y-87062900D01*
X193021000Y-95075000D02*
X191957700Y-95075000D01*
X160701200Y-85398800D02*
X146900000Y-99200000D01*
X182281500Y-85398800D02*
X160701200Y-85398800D01*
X191957700Y-95075000D02*
X182281500Y-85398800D01*
X162535100Y-122778900D02*
X162910000Y-122404000D01*
X161193600Y-122778900D02*
X162535100Y-122778900D01*
X188093000Y-97025000D02*
X187179000Y-97025000D01*
X188800000Y-97731600D02*
X188093000Y-97025000D01*
X188800000Y-103200000D02*
X188800000Y-97731600D01*
X188200000Y-103800000D02*
X188800000Y-103200000D01*
X180425000Y-95075000D02*
X187179000Y-95075000D01*
X179750000Y-94400000D02*
X180425000Y-95075000D01*
X179700000Y-94400000D02*
X179750000Y-94400000D01*
X179362000Y-88600000D02*
X179362000Y-91331200D01*
X179362000Y-94062500D02*
X179700000Y-94400000D01*
X179362000Y-91331200D02*
X179362000Y-94062500D01*
X179362500Y-91330700D02*
X179362500Y-88600000D01*
X179362000Y-91331200D02*
X179362500Y-91330700D01*
X183255000Y-95725000D02*
X187179000Y-95725000D01*
X179700000Y-99280000D02*
X183255000Y-95725000D01*
X179700000Y-105376000D02*
X179762000Y-105438000D01*
X179700000Y-99280000D02*
X179700000Y-105376000D01*
X179762000Y-105438000D02*
X179824000Y-105500000D01*
X179762500Y-105438000D02*
X179824500Y-105500000D01*
X179762000Y-105438000D02*
X179762500Y-105438000D01*
X157236000Y-115419000D02*
X157236000Y-115781500D01*
X160956000Y-119864000D02*
X162910000Y-119864000D01*
X157236000Y-116144000D02*
X160956000Y-119864000D01*
X157236000Y-115781500D02*
X157236000Y-116144000D01*
X157235500Y-115781000D02*
X157235500Y-115419000D01*
X157236000Y-115781500D02*
X157235500Y-115781000D01*
X167638000Y-115832000D02*
X167860000Y-116054000D01*
X167638000Y-113500000D02*
X167638000Y-115832000D01*
X184650000Y-97675000D02*
X187179000Y-97675000D01*
X184500000Y-97825000D02*
X184650000Y-97675000D01*
X183952900Y-98372100D02*
X184500000Y-97825000D01*
X183057700Y-98372100D02*
X183952900Y-98372100D01*
X167637500Y-103862500D02*
X169760000Y-101740000D01*
X167637500Y-106989400D02*
X167637500Y-103862500D01*
X147059600Y-123309300D02*
X145954000Y-123309300D01*
X163379500Y-106989400D02*
X147059600Y-123309300D01*
X167637500Y-106989400D02*
X163379500Y-106989400D01*
X145954000Y-124436000D02*
X145954000Y-123309300D01*
X167637500Y-113500000D02*
X167637500Y-106989400D01*
X167637500Y-113500000D02*
X167638000Y-113500000D01*
X161253500Y-123674000D02*
X161253500Y-124944000D01*
X159797000Y-124944000D02*
X161253500Y-124944000D01*
X157892000Y-126849000D02*
X159797000Y-124944000D01*
X161253500Y-124944000D02*
X162910000Y-124944000D01*
X159597000Y-123674000D02*
X161253500Y-123674000D01*
X157892000Y-121969000D02*
X159597000Y-123674000D01*
X161253500Y-123674000D02*
X162910000Y-123674000D01*
X153066000Y-122002000D02*
X153066500Y-122002000D01*
X157860000Y-122002000D02*
X157892000Y-121969000D01*
X153066500Y-122002000D02*
X157860000Y-122002000D01*
X153066500Y-122002000D02*
X153066000Y-122001500D01*
X162696000Y-128373000D02*
X162696000Y-126765500D01*
X162696000Y-125158000D02*
X162910000Y-124944000D01*
X162696000Y-126765500D02*
X162696000Y-125158000D01*
X162696500Y-126766000D02*
X162696500Y-128373000D01*
X162696000Y-126765500D02*
X162696500Y-126766000D01*
X182000000Y-99900000D02*
X181900000Y-99800000D01*
X184500000Y-99900000D02*
X182000000Y-99900000D01*
X176700000Y-89629900D02*
X176700000Y-107050000D01*
X178780000Y-87550000D02*
X176700000Y-89629900D01*
X180388000Y-87550000D02*
X178780000Y-87550000D01*
X181438000Y-88600000D02*
X180388000Y-87550000D01*
X184500000Y-105500000D02*
X181900000Y-105500000D01*
X186200000Y-103800000D02*
X184500000Y-105500000D01*
X165464000Y-113500000D02*
X162910000Y-116054000D01*
X165562000Y-113500000D02*
X165464000Y-113500000D01*
X164772000Y-129228000D02*
X164772000Y-128373000D01*
X163500000Y-130500000D02*
X164772000Y-129228000D01*
X157916000Y-130500000D02*
X163500000Y-130500000D01*
X153066000Y-125650000D02*
X157916000Y-130500000D01*
X153066000Y-125784000D02*
X153066000Y-125650000D01*
X152650000Y-126200000D02*
X153066000Y-125784000D01*
X144350000Y-126200000D02*
X152650000Y-126200000D01*
X143954000Y-125804000D02*
X144350000Y-126200000D01*
X143954000Y-124436000D02*
X143954000Y-125804000D01*
X153066000Y-125650000D02*
X153066000Y-124076500D01*
X172530000Y-107050000D02*
X176700000Y-107050000D01*
X169760000Y-104280000D02*
X172530000Y-107050000D01*
X181900000Y-106600000D02*
X181900000Y-105500000D01*
X181450000Y-107050000D02*
X181900000Y-106600000D01*
X176700000Y-107050000D02*
X181450000Y-107050000D01*
X181900000Y-105500000D02*
X181900000Y-99800000D01*
X183475000Y-96375000D02*
X187179000Y-96375000D01*
X181900000Y-97950500D02*
X183475000Y-96375000D01*
X181900000Y-99800000D02*
X181900000Y-97950500D01*
X159310000Y-115419000D02*
X159310500Y-115419000D01*
X158260000Y-114369000D02*
X159310000Y-115419000D01*
X156653000Y-114369000D02*
X158260000Y-114369000D01*
X152016000Y-119006000D02*
X156653000Y-114369000D01*
X152016000Y-123026000D02*
X152016000Y-119006000D01*
X153066000Y-124076000D02*
X152016000Y-123026000D01*
X153066000Y-124076500D02*
X153066000Y-124076000D01*
X162275000Y-115419000D02*
X162910000Y-116054000D01*
X159310500Y-115419000D02*
X162275000Y-115419000D01*
G04 #@! TA.AperFunction,Conductor*
G36*
X167131500Y-107439984D02*
G01*
X167186916Y-107495400D01*
X167207200Y-107571100D01*
X167207200Y-112361634D01*
X167186916Y-112437334D01*
X167131500Y-112492750D01*
X167111342Y-112502478D01*
X167025282Y-112536415D01*
X166903651Y-112628652D01*
X166903650Y-112628653D01*
X166839992Y-112712598D01*
X166778089Y-112760659D01*
X166700448Y-112771330D01*
X166627874Y-112741750D01*
X166590497Y-112700595D01*
X166498634Y-112551661D01*
X166498633Y-112551659D01*
X166373340Y-112426366D01*
X166373336Y-112426363D01*
X166222524Y-112333341D01*
X166222518Y-112333339D01*
X166054324Y-112277606D01*
X166054323Y-112277605D01*
X165950511Y-112267000D01*
X165816500Y-112267000D01*
X165816500Y-114733000D01*
X165950511Y-114733000D01*
X166054323Y-114722394D01*
X166054324Y-114722393D01*
X166222518Y-114666660D01*
X166222524Y-114666658D01*
X166373336Y-114573636D01*
X166373340Y-114573633D01*
X166498634Y-114448339D01*
X166590497Y-114299404D01*
X166647501Y-114245622D01*
X166723759Y-114227548D01*
X166798837Y-114250024D01*
X166839993Y-114287402D01*
X166903651Y-114371347D01*
X167025283Y-114463584D01*
X167111841Y-114497718D01*
X167174822Y-114544358D01*
X167206045Y-114616240D01*
X167207700Y-114638562D01*
X167207700Y-115297300D01*
X167187416Y-115373000D01*
X167132000Y-115428416D01*
X167056300Y-115448700D01*
X166980154Y-115448700D01*
X166975653Y-115449121D01*
X166949397Y-115451583D01*
X166819852Y-115496913D01*
X166819851Y-115496913D01*
X166709418Y-115578418D01*
X166627913Y-115688851D01*
X166627913Y-115688852D01*
X166582583Y-115818397D01*
X166579700Y-115849156D01*
X166579700Y-116107300D01*
X166559416Y-116183000D01*
X166504000Y-116238416D01*
X166428300Y-116258700D01*
X163488347Y-116258700D01*
X163378912Y-116288023D01*
X163369738Y-116291823D01*
X163369176Y-116290466D01*
X163303742Y-116308000D01*
X161430007Y-116308000D01*
X161476316Y-116467396D01*
X161476317Y-116467399D01*
X161560942Y-116610493D01*
X161560946Y-116610498D01*
X161684039Y-116733592D01*
X161723224Y-116801463D01*
X161723224Y-116879834D01*
X161698799Y-116930553D01*
X161677914Y-116958850D01*
X161677913Y-116958852D01*
X161632583Y-117088397D01*
X161629700Y-117119156D01*
X161629700Y-117528843D01*
X161632583Y-117559602D01*
X161677913Y-117689147D01*
X161677913Y-117689148D01*
X161759418Y-117799582D01*
X161810367Y-117837185D01*
X161859229Y-117898458D01*
X161870909Y-117975953D01*
X161842276Y-118048906D01*
X161810367Y-118080815D01*
X161759418Y-118118417D01*
X161677913Y-118228851D01*
X161677913Y-118228852D01*
X161632583Y-118358397D01*
X161629700Y-118389156D01*
X161629700Y-118798843D01*
X161632583Y-118829602D01*
X161677913Y-118959147D01*
X161677913Y-118959148D01*
X161677914Y-118959150D01*
X161677915Y-118959151D01*
X161759417Y-119069581D01*
X161759418Y-119069582D01*
X161810367Y-119107185D01*
X161859229Y-119168458D01*
X161870909Y-119245953D01*
X161842276Y-119318906D01*
X161810367Y-119350815D01*
X161759421Y-119388415D01*
X161758487Y-119389350D01*
X161756962Y-119390230D01*
X161750290Y-119395155D01*
X161749735Y-119394403D01*
X161690618Y-119428539D01*
X161651425Y-119433700D01*
X161196948Y-119433700D01*
X161121248Y-119413416D01*
X161089892Y-119389356D01*
X158557368Y-116856832D01*
X158518183Y-116788961D01*
X158518183Y-116710591D01*
X158557368Y-116642720D01*
X158625239Y-116603535D01*
X158703609Y-116603535D01*
X158712046Y-116606061D01*
X158818675Y-116641393D01*
X158818676Y-116641394D01*
X158922489Y-116652000D01*
X159056500Y-116652000D01*
X159564500Y-116652000D01*
X159698511Y-116652000D01*
X159802323Y-116641394D01*
X159802324Y-116641393D01*
X159970518Y-116585660D01*
X159970524Y-116585658D01*
X160121336Y-116492636D01*
X160121340Y-116492633D01*
X160246633Y-116367340D01*
X160246636Y-116367336D01*
X160339658Y-116216524D01*
X160339660Y-116216518D01*
X160395393Y-116048324D01*
X160395394Y-116048323D01*
X160406000Y-115944510D01*
X160406000Y-115799999D01*
X161430007Y-115799999D01*
X161430007Y-115800000D01*
X162656000Y-115800000D01*
X163164000Y-115800000D01*
X164389993Y-115800000D01*
X164389992Y-115799999D01*
X164343683Y-115640603D01*
X164343682Y-115640600D01*
X164259057Y-115497506D01*
X164259054Y-115497502D01*
X164141497Y-115379945D01*
X164141493Y-115379942D01*
X163998399Y-115295317D01*
X163998395Y-115295316D01*
X163838759Y-115248936D01*
X163838752Y-115248935D01*
X163801470Y-115246000D01*
X163164000Y-115246000D01*
X163164000Y-115800000D01*
X162656000Y-115800000D01*
X162656000Y-115246000D01*
X162018550Y-115246000D01*
X162018540Y-115246001D01*
X161981246Y-115248935D01*
X161981243Y-115248935D01*
X161821604Y-115295316D01*
X161821600Y-115295317D01*
X161678506Y-115379942D01*
X161678502Y-115379945D01*
X161560945Y-115497502D01*
X161560942Y-115497506D01*
X161476317Y-115640600D01*
X161476316Y-115640603D01*
X161430007Y-115799999D01*
X160406000Y-115799999D01*
X160406000Y-115673000D01*
X159564500Y-115673000D01*
X159564500Y-116652000D01*
X159056500Y-116652000D01*
X159056500Y-115165000D01*
X159564500Y-115165000D01*
X160406000Y-115165000D01*
X160406000Y-114893489D01*
X160395394Y-114789676D01*
X160395393Y-114789675D01*
X160339660Y-114621481D01*
X160339658Y-114621475D01*
X160246636Y-114470663D01*
X160246633Y-114470659D01*
X160121340Y-114345366D01*
X160121336Y-114345363D01*
X159970524Y-114252341D01*
X159970518Y-114252339D01*
X159802324Y-114196606D01*
X159802323Y-114196605D01*
X159698511Y-114186000D01*
X159564500Y-114186000D01*
X159564500Y-115165000D01*
X159056500Y-115165000D01*
X159056500Y-114186000D01*
X158922489Y-114186000D01*
X158818676Y-114196605D01*
X158818675Y-114196606D01*
X158650481Y-114252339D01*
X158650475Y-114252341D01*
X158499663Y-114345363D01*
X158499659Y-114345366D01*
X158374366Y-114470659D01*
X158374363Y-114470663D01*
X158282501Y-114619596D01*
X158225497Y-114673377D01*
X158149239Y-114691451D01*
X158074161Y-114668974D01*
X158033006Y-114631597D01*
X157969348Y-114547652D01*
X157847717Y-114455415D01*
X157705708Y-114399415D01*
X157705711Y-114399415D01*
X157616480Y-114388700D01*
X157616476Y-114388700D01*
X156954248Y-114388700D01*
X156878548Y-114368416D01*
X156823132Y-114313000D01*
X156802848Y-114237300D01*
X156823132Y-114161600D01*
X156847192Y-114130244D01*
X156951926Y-114025510D01*
X164467000Y-114025510D01*
X164477605Y-114129323D01*
X164477606Y-114129324D01*
X164533339Y-114297518D01*
X164533341Y-114297524D01*
X164626363Y-114448336D01*
X164626366Y-114448340D01*
X164751659Y-114573633D01*
X164751663Y-114573636D01*
X164902475Y-114666658D01*
X164902481Y-114666660D01*
X165070675Y-114722393D01*
X165070676Y-114722394D01*
X165174489Y-114733000D01*
X165308500Y-114733000D01*
X165308500Y-113754000D01*
X164467000Y-113754000D01*
X164467000Y-114025510D01*
X156951926Y-114025510D01*
X158002947Y-112974489D01*
X164467000Y-112974489D01*
X164467000Y-113246000D01*
X165308500Y-113246000D01*
X165308500Y-112267000D01*
X165174489Y-112267000D01*
X165070676Y-112277605D01*
X165070675Y-112277606D01*
X164902481Y-112333339D01*
X164902475Y-112333341D01*
X164751663Y-112426363D01*
X164751659Y-112426366D01*
X164626366Y-112551659D01*
X164626363Y-112551663D01*
X164533341Y-112702475D01*
X164533339Y-112702481D01*
X164477606Y-112870675D01*
X164477605Y-112870676D01*
X164467000Y-112974489D01*
X158002947Y-112974489D01*
X163513392Y-107464044D01*
X163581263Y-107424859D01*
X163620448Y-107419700D01*
X167055800Y-107419700D01*
X167131500Y-107439984D01*
G37*
G04 #@! TD.AperFunction*
G04 #@! TA.AperFunction,Conductor*
G36*
X156298356Y-114893192D02*
G01*
X156337541Y-114961063D01*
X156342700Y-115000248D01*
X156342700Y-115937479D01*
X156353415Y-116026710D01*
X156409415Y-116168717D01*
X156445669Y-116216524D01*
X156501652Y-116290348D01*
X156570825Y-116342804D01*
X156623282Y-116382584D01*
X156670618Y-116401250D01*
X156765289Y-116438584D01*
X156765288Y-116438584D01*
X156854520Y-116449300D01*
X156854524Y-116449300D01*
X156870052Y-116449300D01*
X156945752Y-116469584D01*
X156977108Y-116493644D01*
X158294708Y-117811244D01*
X158333893Y-117879115D01*
X158333893Y-117957485D01*
X158294708Y-118025356D01*
X158226837Y-118064541D01*
X158187652Y-118069700D01*
X154049326Y-118069700D01*
X153978968Y-118052358D01*
X153851947Y-117985693D01*
X153851940Y-117985690D01*
X153685639Y-117944700D01*
X153514361Y-117944700D01*
X153465202Y-117956816D01*
X153402512Y-117972268D01*
X153324157Y-117970689D01*
X153257089Y-117930145D01*
X153219279Y-117861499D01*
X153220858Y-117783144D01*
X153259222Y-117718213D01*
X156084244Y-114893192D01*
X156152115Y-114854007D01*
X156230485Y-114854007D01*
X156298356Y-114893192D01*
G37*
G04 #@! TD.AperFunction*
G04 #@! TA.AperFunction,Conductor*
G36*
X181615800Y-88366284D02*
G01*
X181671216Y-88421700D01*
X181691500Y-88497400D01*
X181691500Y-89833000D01*
X181825511Y-89833000D01*
X181929323Y-89822394D01*
X181929324Y-89822393D01*
X182097518Y-89766660D01*
X182097524Y-89766658D01*
X182248336Y-89673636D01*
X182248340Y-89673633D01*
X182373633Y-89548340D01*
X182373636Y-89548336D01*
X182466658Y-89397524D01*
X182466660Y-89397518D01*
X182522393Y-89229324D01*
X182522394Y-89229323D01*
X182533000Y-89125510D01*
X182533000Y-88935948D01*
X182553284Y-88860248D01*
X182608700Y-88804832D01*
X182684400Y-88784548D01*
X182760100Y-88804832D01*
X182791456Y-88828892D01*
X185641056Y-91678492D01*
X185680241Y-91746363D01*
X185685400Y-91785548D01*
X185685400Y-92531652D01*
X185712250Y-92631857D01*
X185714724Y-92641090D01*
X185771374Y-92739210D01*
X185851490Y-92819326D01*
X185949610Y-92875976D01*
X185994047Y-92887882D01*
X186024885Y-92896146D01*
X186092756Y-92935331D01*
X186131941Y-93003202D01*
X186137100Y-93042387D01*
X186137100Y-93348381D01*
X186140062Y-93373912D01*
X186140062Y-93373914D01*
X186146657Y-93388850D01*
X186158677Y-93466293D01*
X186146658Y-93511148D01*
X186140062Y-93526087D01*
X186140061Y-93526090D01*
X186137100Y-93551618D01*
X186137100Y-93764163D01*
X186116816Y-93839863D01*
X186061400Y-93895279D01*
X185985700Y-93915563D01*
X185910000Y-93895279D01*
X185854584Y-93839863D01*
X185844141Y-93817858D01*
X185813599Y-93737323D01*
X185813596Y-93737319D01*
X185813595Y-93737316D01*
X185716304Y-93596367D01*
X185716301Y-93596364D01*
X185588099Y-93482786D01*
X185588098Y-93482785D01*
X185436444Y-93403192D01*
X185436440Y-93403190D01*
X185270139Y-93362200D01*
X185098861Y-93362200D01*
X184990739Y-93388850D01*
X184932559Y-93403190D01*
X184932555Y-93403192D01*
X184780901Y-93482785D01*
X184780900Y-93482786D01*
X184652698Y-93596364D01*
X184652695Y-93596367D01*
X184555404Y-93737316D01*
X184555401Y-93737323D01*
X184494664Y-93897472D01*
X184474020Y-94067498D01*
X184474020Y-94067501D01*
X184494664Y-94237527D01*
X184494665Y-94237529D01*
X184555401Y-94397677D01*
X184562041Y-94407296D01*
X184588349Y-94481119D01*
X184574222Y-94558205D01*
X184523444Y-94617901D01*
X184449621Y-94644209D01*
X184437440Y-94644700D01*
X180903349Y-94644700D01*
X180827649Y-94624416D01*
X180772233Y-94569000D01*
X180751949Y-94493300D01*
X180752677Y-94478470D01*
X180760406Y-94400000D01*
X180740031Y-94193125D01*
X180679687Y-93994200D01*
X180582960Y-93813236D01*
X180581696Y-93810871D01*
X180561643Y-93786437D01*
X180449820Y-93650180D01*
X180337995Y-93558407D01*
X180289128Y-93518303D01*
X180105800Y-93420313D01*
X180105798Y-93420312D01*
X179899758Y-93357810D01*
X179899941Y-93357203D01*
X179834892Y-93318202D01*
X179796832Y-93249694D01*
X179792300Y-93212927D01*
X179792300Y-91401071D01*
X179792800Y-91393445D01*
X179792800Y-89738365D01*
X179813084Y-89662665D01*
X179868500Y-89607249D01*
X179888659Y-89597521D01*
X179901277Y-89592544D01*
X179974717Y-89563584D01*
X180096348Y-89471348D01*
X180160006Y-89387403D01*
X180221908Y-89339341D01*
X180299549Y-89328669D01*
X180372123Y-89358248D01*
X180409502Y-89399403D01*
X180501367Y-89548341D01*
X180626659Y-89673633D01*
X180626663Y-89673636D01*
X180777475Y-89766658D01*
X180777481Y-89766660D01*
X180945675Y-89822393D01*
X180945676Y-89822394D01*
X181049489Y-89833000D01*
X181183500Y-89833000D01*
X181183500Y-88497400D01*
X181203784Y-88421700D01*
X181259200Y-88366284D01*
X181334900Y-88346000D01*
X181540100Y-88346000D01*
X181615800Y-88366284D01*
G37*
G04 #@! TD.AperFunction*
G04 #@! TA.AperFunction,Conductor*
G36*
X184709321Y-77391784D02*
G01*
X184764737Y-77447200D01*
X184785021Y-77522900D01*
X184764737Y-77598600D01*
X184757641Y-77609738D01*
X184736573Y-77639826D01*
X184736567Y-77639835D01*
X184639302Y-77848419D01*
X184639300Y-77848426D01*
X184579734Y-78070728D01*
X184559676Y-78300000D01*
X184579734Y-78529271D01*
X184639300Y-78751573D01*
X184639302Y-78751580D01*
X184666544Y-78810000D01*
X184736566Y-78960162D01*
X184868573Y-79148688D01*
X185031312Y-79311427D01*
X185219838Y-79443434D01*
X185428423Y-79540699D01*
X185650728Y-79600265D01*
X185650727Y-79600265D01*
X185669172Y-79601878D01*
X185880000Y-79620324D01*
X186109272Y-79600265D01*
X186331577Y-79540699D01*
X186540162Y-79443434D01*
X186728688Y-79311427D01*
X186891427Y-79148688D01*
X186902052Y-79133512D01*
X186962083Y-79083138D01*
X187039263Y-79069527D01*
X187112908Y-79096329D01*
X187155162Y-79141244D01*
X187179625Y-79181163D01*
X187927675Y-78433112D01*
X187944755Y-78496853D01*
X188011898Y-78613147D01*
X188106853Y-78708102D01*
X188223147Y-78775245D01*
X188286886Y-78792323D01*
X187538835Y-79540373D01*
X187728714Y-79656731D01*
X187949449Y-79748163D01*
X187949459Y-79748167D01*
X188181806Y-79803948D01*
X188419996Y-79822694D01*
X188420004Y-79822694D01*
X188658193Y-79803948D01*
X188890540Y-79748167D01*
X188890550Y-79748163D01*
X189111287Y-79656731D01*
X189301163Y-79540374D01*
X189301163Y-79540373D01*
X188553113Y-78792323D01*
X188616853Y-78775245D01*
X188733147Y-78708102D01*
X188828102Y-78613147D01*
X188895245Y-78496853D01*
X188912323Y-78433113D01*
X189660373Y-79181163D01*
X189684836Y-79141244D01*
X189741684Y-79087297D01*
X189817889Y-79069002D01*
X189893032Y-79091260D01*
X189937943Y-79133507D01*
X189948573Y-79148688D01*
X190111312Y-79311427D01*
X190299838Y-79443434D01*
X190508423Y-79540699D01*
X190730728Y-79600265D01*
X190730727Y-79600265D01*
X190749172Y-79601878D01*
X190960000Y-79620324D01*
X191189272Y-79600265D01*
X191411577Y-79540699D01*
X191438652Y-79528073D01*
X191515827Y-79514462D01*
X191589473Y-79541263D01*
X191609694Y-79558230D01*
X193609656Y-81558192D01*
X193648841Y-81626063D01*
X193654000Y-81665248D01*
X193654000Y-91840502D01*
X193633716Y-91916202D01*
X193578300Y-91971618D01*
X193502600Y-91991902D01*
X192238819Y-91991902D01*
X192213290Y-91994863D01*
X192202305Y-91997853D01*
X192201474Y-91994800D01*
X192142451Y-92003948D01*
X192069380Y-91975619D01*
X192051723Y-91960487D01*
X183739412Y-83648176D01*
X183739410Y-83648174D01*
X183641290Y-83591524D01*
X183641287Y-83591522D01*
X183586571Y-83576862D01*
X183586570Y-83576862D01*
X183531851Y-83562200D01*
X183531850Y-83562200D01*
X150629051Y-83562200D01*
X150515750Y-83562200D01*
X150515746Y-83562200D01*
X150406314Y-83591521D01*
X150406307Y-83591524D01*
X150308191Y-83648173D01*
X150308187Y-83648176D01*
X148294684Y-85661678D01*
X148226813Y-85700863D01*
X148148443Y-85700863D01*
X148080572Y-85661678D01*
X148045385Y-85601000D01*
X148045138Y-85601110D01*
X148044147Y-85598867D01*
X148041538Y-85594367D01*
X148040538Y-85590693D01*
X148040538Y-85590691D01*
X147994434Y-85486275D01*
X147913725Y-85405566D01*
X147809310Y-85359462D01*
X147809304Y-85359461D01*
X147783781Y-85356500D01*
X147783779Y-85356500D01*
X146849347Y-85356500D01*
X146773647Y-85336216D01*
X146718231Y-85280800D01*
X146697947Y-85205100D01*
X146718231Y-85129400D01*
X146742291Y-85098044D01*
X154424492Y-77415844D01*
X154492363Y-77376659D01*
X154531548Y-77371500D01*
X184633621Y-77371500D01*
X184709321Y-77391784D01*
G37*
G04 #@! TD.AperFunction*
G04 #@! TA.AperFunction,Conductor*
G36*
X209796800Y-70147784D02*
G01*
X209852216Y-70203200D01*
X209872500Y-70278900D01*
X209872500Y-149452802D01*
X209852216Y-149528502D01*
X209796800Y-149583918D01*
X209722038Y-149604199D01*
X166418968Y-149872497D01*
X166418030Y-149872500D01*
X130278900Y-149872500D01*
X130203200Y-149852216D01*
X130147784Y-149796800D01*
X130127500Y-149721100D01*
X130127500Y-145000000D01*
X132339847Y-145000000D01*
X132359242Y-145320646D01*
X132399169Y-145538522D01*
X132417146Y-145636616D01*
X132512714Y-145943303D01*
X132590851Y-146116919D01*
X132644550Y-146236234D01*
X132644556Y-146236243D01*
X132810740Y-146511144D01*
X133008846Y-146764007D01*
X133235992Y-146991153D01*
X133488855Y-147189259D01*
X133488858Y-147189261D01*
X133488861Y-147189263D01*
X133763765Y-147355449D01*
X134056697Y-147487286D01*
X134363384Y-147582854D01*
X134639426Y-147633440D01*
X134679353Y-147640757D01*
X134679352Y-147640757D01*
X134713957Y-147642850D01*
X135000000Y-147660153D01*
X135320646Y-147640757D01*
X135636616Y-147582854D01*
X135943303Y-147487286D01*
X136236235Y-147355449D01*
X136511139Y-147189263D01*
X136764008Y-146991153D01*
X136991153Y-146764008D01*
X137189263Y-146511139D01*
X137355449Y-146236235D01*
X137487286Y-145943303D01*
X137582854Y-145636616D01*
X137640757Y-145320646D01*
X137660153Y-145000000D01*
X202339847Y-145000000D01*
X202359242Y-145320646D01*
X202399169Y-145538522D01*
X202417146Y-145636616D01*
X202512714Y-145943303D01*
X202590851Y-146116919D01*
X202644550Y-146236234D01*
X202644556Y-146236243D01*
X202810740Y-146511144D01*
X203008846Y-146764007D01*
X203235992Y-146991153D01*
X203488855Y-147189259D01*
X203488858Y-147189261D01*
X203488861Y-147189263D01*
X203763765Y-147355449D01*
X204056697Y-147487286D01*
X204363384Y-147582854D01*
X204639426Y-147633440D01*
X204679353Y-147640757D01*
X204679352Y-147640757D01*
X204713957Y-147642850D01*
X205000000Y-147660153D01*
X205320646Y-147640757D01*
X205636616Y-147582854D01*
X205943303Y-147487286D01*
X206236235Y-147355449D01*
X206511139Y-147189263D01*
X206764008Y-146991153D01*
X206991153Y-146764008D01*
X207189263Y-146511139D01*
X207355449Y-146236235D01*
X207487286Y-145943303D01*
X207582854Y-145636616D01*
X207640757Y-145320646D01*
X207660153Y-145000000D01*
X207640757Y-144679354D01*
X207582854Y-144363384D01*
X207487286Y-144056697D01*
X207355449Y-143763765D01*
X207189263Y-143488861D01*
X207189261Y-143488858D01*
X207189259Y-143488855D01*
X206991153Y-143235992D01*
X206764007Y-143008846D01*
X206511144Y-142810740D01*
X206236243Y-142644556D01*
X206236234Y-142644550D01*
X206116919Y-142590851D01*
X205943303Y-142512714D01*
X205943296Y-142512711D01*
X205943294Y-142512711D01*
X205636619Y-142417147D01*
X205636616Y-142417146D01*
X205538522Y-142399169D01*
X205320646Y-142359242D01*
X205320647Y-142359242D01*
X205000000Y-142339847D01*
X204679353Y-142359242D01*
X204421549Y-142406486D01*
X204363384Y-142417146D01*
X204363381Y-142417146D01*
X204363380Y-142417147D01*
X204056705Y-142512711D01*
X204056699Y-142512713D01*
X204056697Y-142512714D01*
X203980724Y-142546906D01*
X203763765Y-142644550D01*
X203763756Y-142644556D01*
X203488855Y-142810740D01*
X203235992Y-143008846D01*
X203008846Y-143235992D01*
X202810740Y-143488855D01*
X202644556Y-143763756D01*
X202644550Y-143763765D01*
X202512713Y-144056700D01*
X202512711Y-144056705D01*
X202417147Y-144363380D01*
X202359242Y-144679353D01*
X202339847Y-145000000D01*
X137660153Y-145000000D01*
X137640757Y-144679354D01*
X137582854Y-144363384D01*
X137487286Y-144056697D01*
X137355449Y-143763765D01*
X137189263Y-143488861D01*
X137189261Y-143488858D01*
X137189259Y-143488855D01*
X136991153Y-143235992D01*
X136764007Y-143008846D01*
X136511144Y-142810740D01*
X136236243Y-142644556D01*
X136236234Y-142644550D01*
X136116919Y-142590851D01*
X135943303Y-142512714D01*
X135943296Y-142512711D01*
X135943294Y-142512711D01*
X135636619Y-142417147D01*
X135636616Y-142417146D01*
X135538522Y-142399169D01*
X135320646Y-142359242D01*
X135320647Y-142359242D01*
X135000000Y-142339847D01*
X134679353Y-142359242D01*
X134421549Y-142406486D01*
X134363384Y-142417146D01*
X134363381Y-142417146D01*
X134363380Y-142417147D01*
X134056705Y-142512711D01*
X134056699Y-142512713D01*
X134056697Y-142512714D01*
X133980724Y-142546906D01*
X133763765Y-142644550D01*
X133763756Y-142644556D01*
X133488855Y-142810740D01*
X133235992Y-143008846D01*
X133008846Y-143235992D01*
X132810740Y-143488855D01*
X132644556Y-143763756D01*
X132644550Y-143763765D01*
X132512713Y-144056700D01*
X132512711Y-144056705D01*
X132417147Y-144363380D01*
X132359242Y-144679353D01*
X132339847Y-145000000D01*
X130127500Y-145000000D01*
X130127500Y-129185995D01*
X138581041Y-129185995D01*
X138581041Y-129186004D01*
X138600854Y-129500941D01*
X138600857Y-129500965D01*
X138659987Y-129810934D01*
X138659991Y-129810949D01*
X138757509Y-130111081D01*
X138891875Y-130396623D01*
X138891885Y-130396641D01*
X139060972Y-130663079D01*
X139150042Y-130770746D01*
X140119531Y-129801255D01*
X140216829Y-129935175D01*
X140344825Y-130063171D01*
X140478742Y-130160467D01*
X139506521Y-131132688D01*
X139747488Y-131307761D01*
X140024035Y-131459793D01*
X140024039Y-131459795D01*
X140317451Y-131575965D01*
X140623118Y-131654448D01*
X140623114Y-131654448D01*
X140936198Y-131693999D01*
X140936210Y-131694000D01*
X141251790Y-131694000D01*
X141251801Y-131693999D01*
X141564883Y-131654448D01*
X141870548Y-131575965D01*
X142163960Y-131459795D01*
X142163964Y-131459793D01*
X142440511Y-131307761D01*
X142681477Y-131132688D01*
X141709257Y-130160467D01*
X141843175Y-130063171D01*
X141971171Y-129935175D01*
X142068467Y-129801256D01*
X143037956Y-130770745D01*
X143127031Y-130663073D01*
X143127034Y-130663070D01*
X143296114Y-130396641D01*
X143296124Y-130396623D01*
X143430490Y-130111081D01*
X143528008Y-129810949D01*
X143528012Y-129810934D01*
X143587142Y-129500965D01*
X143587145Y-129500941D01*
X143606959Y-129186004D01*
X143606959Y-129185995D01*
X143587145Y-128871058D01*
X143587142Y-128871034D01*
X143528012Y-128561065D01*
X143528008Y-128561050D01*
X143430490Y-128260918D01*
X143296124Y-127975376D01*
X143296114Y-127975358D01*
X143127032Y-127708928D01*
X143127028Y-127708922D01*
X143037956Y-127601253D01*
X142068466Y-128570742D01*
X141971171Y-128436825D01*
X141843175Y-128308829D01*
X141709255Y-128211531D01*
X142681476Y-127239310D01*
X142440507Y-127064236D01*
X142163964Y-126912206D01*
X142163960Y-126912204D01*
X141870548Y-126796034D01*
X141564881Y-126717551D01*
X141564885Y-126717551D01*
X141251801Y-126678000D01*
X140936198Y-126678000D01*
X140623116Y-126717551D01*
X140317451Y-126796034D01*
X140024039Y-126912204D01*
X140024035Y-126912206D01*
X139747490Y-127064237D01*
X139747486Y-127064240D01*
X139506521Y-127239310D01*
X140478743Y-128211532D01*
X140344825Y-128308829D01*
X140216829Y-128436825D01*
X140119532Y-128570743D01*
X139150042Y-127601253D01*
X139150041Y-127601253D01*
X139060976Y-127708915D01*
X139060969Y-127708925D01*
X138891885Y-127975358D01*
X138891875Y-127975376D01*
X138757509Y-128260918D01*
X138659991Y-128561050D01*
X138659987Y-128561065D01*
X138600857Y-128871034D01*
X138600854Y-128871058D01*
X138581041Y-129185995D01*
X130127500Y-129185995D01*
X130127500Y-124436000D01*
X142641004Y-124436000D01*
X142660950Y-124663999D01*
X142720187Y-124885073D01*
X142816913Y-125092498D01*
X142816913Y-125092499D01*
X142866900Y-125163888D01*
X143490253Y-124540534D01*
X143511370Y-124619343D01*
X143573905Y-124727657D01*
X143662343Y-124816095D01*
X143770657Y-124878630D01*
X143849462Y-124899745D01*
X143226109Y-125523098D01*
X143297501Y-125573086D01*
X143504927Y-125669812D01*
X143504926Y-125669812D01*
X143726000Y-125729049D01*
X143954000Y-125748995D01*
X144181999Y-125729049D01*
X144403073Y-125669812D01*
X144610500Y-125573086D01*
X144610505Y-125573083D01*
X144770418Y-125461110D01*
X144844062Y-125434305D01*
X144921242Y-125447914D01*
X144964314Y-125478073D01*
X144978475Y-125492234D01*
X145082891Y-125538338D01*
X145108421Y-125541300D01*
X146799578Y-125541299D01*
X146799580Y-125541299D01*
X146812343Y-125539818D01*
X146825109Y-125538338D01*
X146929525Y-125492234D01*
X147010234Y-125411525D01*
X147056338Y-125307109D01*
X147059300Y-125281579D01*
X147059299Y-124464510D01*
X151833000Y-124464510D01*
X151843605Y-124568323D01*
X151843606Y-124568324D01*
X151899339Y-124736518D01*
X151899341Y-124736524D01*
X151992363Y-124887336D01*
X151992366Y-124887340D01*
X152117659Y-125012633D01*
X152117663Y-125012636D01*
X152268475Y-125105658D01*
X152268481Y-125105660D01*
X152436675Y-125161393D01*
X152436676Y-125161394D01*
X152540489Y-125172000D01*
X152812000Y-125172000D01*
X153320000Y-125172000D01*
X153591511Y-125172000D01*
X153695323Y-125161394D01*
X153695324Y-125161393D01*
X153863518Y-125105660D01*
X153863524Y-125105658D01*
X154014336Y-125012636D01*
X154014340Y-125012633D01*
X154139633Y-124887340D01*
X154139636Y-124887336D01*
X154232658Y-124736524D01*
X154232660Y-124736518D01*
X154288393Y-124568324D01*
X154288394Y-124568323D01*
X154299000Y-124464510D01*
X154299000Y-124330500D01*
X153320000Y-124330500D01*
X153320000Y-125172000D01*
X152812000Y-125172000D01*
X152812000Y-124330500D01*
X151833000Y-124330500D01*
X151833000Y-124464510D01*
X147059299Y-124464510D01*
X147059299Y-123871032D01*
X147079583Y-123795333D01*
X147134999Y-123739917D01*
X147171508Y-123724793D01*
X147225690Y-123710276D01*
X147323810Y-123653626D01*
X147403926Y-123573510D01*
X152663589Y-118313846D01*
X152731458Y-118274663D01*
X152809828Y-118274663D01*
X152877699Y-118313848D01*
X152916884Y-118381719D01*
X152916884Y-118460089D01*
X152912207Y-118474583D01*
X152910166Y-118479962D01*
X152910165Y-118479969D01*
X152889520Y-118649998D01*
X152889520Y-118650001D01*
X152910164Y-118820027D01*
X152933793Y-118882332D01*
X152962925Y-118959147D01*
X152970901Y-118980176D01*
X152970904Y-118980183D01*
X153068195Y-119121132D01*
X153068198Y-119121135D01*
X153196401Y-119234714D01*
X153348060Y-119314310D01*
X153514361Y-119355300D01*
X153514364Y-119355300D01*
X153685636Y-119355300D01*
X153685639Y-119355300D01*
X153851940Y-119314310D01*
X154003599Y-119234714D01*
X154131802Y-119121135D01*
X154183013Y-119046943D01*
X154218389Y-118995694D01*
X154278085Y-118944917D01*
X154342988Y-118930300D01*
X158714656Y-118930300D01*
X158790356Y-118950584D01*
X158821712Y-118974644D01*
X161325394Y-121478326D01*
X161389274Y-121515208D01*
X161423511Y-121534975D01*
X161423513Y-121534975D01*
X161423515Y-121534977D01*
X161423516Y-121534977D01*
X161423518Y-121534978D01*
X161532950Y-121564299D01*
X161532952Y-121564300D01*
X161532954Y-121564300D01*
X161651425Y-121564300D01*
X161727125Y-121584584D01*
X161758487Y-121608650D01*
X161759415Y-121609578D01*
X161759418Y-121609582D01*
X161759421Y-121609584D01*
X161810367Y-121647185D01*
X161859229Y-121708458D01*
X161870909Y-121785953D01*
X161842276Y-121858906D01*
X161810367Y-121890815D01*
X161759418Y-121928417D01*
X161677913Y-122038851D01*
X161677909Y-122038858D01*
X161677402Y-122040310D01*
X161676249Y-122041999D01*
X161672611Y-122048884D01*
X161671835Y-122048473D01*
X161633250Y-122105059D01*
X161562638Y-122139058D01*
X161484487Y-122133195D01*
X161464145Y-122124354D01*
X161445545Y-122114592D01*
X161445540Y-122114590D01*
X161279239Y-122073600D01*
X161107961Y-122073600D01*
X160983235Y-122104342D01*
X160941659Y-122114590D01*
X160941655Y-122114592D01*
X160790001Y-122194185D01*
X160790000Y-122194186D01*
X160661798Y-122307764D01*
X160661795Y-122307767D01*
X160564504Y-122448716D01*
X160564501Y-122448723D01*
X160503764Y-122608872D01*
X160483120Y-122778898D01*
X160483120Y-122778901D01*
X160503764Y-122948927D01*
X160506731Y-122956751D01*
X160531495Y-123022048D01*
X160537778Y-123038613D01*
X160545655Y-123116586D01*
X160513491Y-123188052D01*
X160449903Y-123233862D01*
X160396216Y-123243700D01*
X159837949Y-123243700D01*
X159762249Y-123223416D01*
X159730893Y-123199356D01*
X159353362Y-122821825D01*
X158943917Y-122412381D01*
X158904733Y-122344511D01*
X158904733Y-122266141D01*
X158906094Y-122261375D01*
X158932031Y-122175875D01*
X158952406Y-121969000D01*
X158932031Y-121762125D01*
X158871687Y-121563200D01*
X158818965Y-121464564D01*
X158773696Y-121379871D01*
X158704610Y-121295690D01*
X158641820Y-121219180D01*
X158481130Y-121087305D01*
X158481131Y-121087305D01*
X158481128Y-121087303D01*
X158297800Y-120989313D01*
X158297798Y-120989312D01*
X158098874Y-120928968D01*
X157892001Y-120908594D01*
X157891999Y-120908594D01*
X157685125Y-120928968D01*
X157486201Y-120989312D01*
X157486199Y-120989313D01*
X157302871Y-121087303D01*
X157142180Y-121219180D01*
X157010303Y-121379871D01*
X156950547Y-121491669D01*
X156896974Y-121548869D01*
X156821978Y-121571619D01*
X156817024Y-121571700D01*
X154204563Y-121571700D01*
X154128863Y-121551416D01*
X154073447Y-121496000D01*
X154063719Y-121475842D01*
X154029584Y-121389282D01*
X153980929Y-121325122D01*
X153937348Y-121267652D01*
X153884890Y-121227872D01*
X153815717Y-121175415D01*
X153673708Y-121119415D01*
X153673711Y-121119415D01*
X153584480Y-121108700D01*
X153584476Y-121108700D01*
X152547524Y-121108700D01*
X152547520Y-121108700D01*
X152458289Y-121119415D01*
X152316282Y-121175415D01*
X152194652Y-121267652D01*
X152102415Y-121389282D01*
X152046415Y-121531289D01*
X152035700Y-121620520D01*
X152035700Y-122382479D01*
X152046415Y-122471710D01*
X152102415Y-122613717D01*
X152194652Y-122735348D01*
X152278597Y-122799006D01*
X152326659Y-122860909D01*
X152337330Y-122938550D01*
X152307751Y-123011124D01*
X152266596Y-123048501D01*
X152117663Y-123140363D01*
X152117659Y-123140366D01*
X151992366Y-123265659D01*
X151992363Y-123265663D01*
X151899341Y-123416475D01*
X151899339Y-123416481D01*
X151843606Y-123584675D01*
X151843605Y-123584676D01*
X151833000Y-123688489D01*
X151833000Y-123822500D01*
X154299000Y-123822500D01*
X154299000Y-123688489D01*
X154288394Y-123584676D01*
X154288393Y-123584675D01*
X154232660Y-123416481D01*
X154232658Y-123416475D01*
X154139636Y-123265663D01*
X154139633Y-123265659D01*
X154014341Y-123140367D01*
X153865403Y-123048502D01*
X153811622Y-122991497D01*
X153793548Y-122915239D01*
X153816024Y-122840161D01*
X153853403Y-122799006D01*
X153937345Y-122735350D01*
X153937348Y-122735348D01*
X154029584Y-122613717D01*
X154051505Y-122558130D01*
X154063324Y-122528159D01*
X154109964Y-122465178D01*
X154181846Y-122433955D01*
X154204168Y-122432300D01*
X156852301Y-122432300D01*
X156928001Y-122452584D01*
X156983417Y-122508000D01*
X156985823Y-122512329D01*
X157010303Y-122558128D01*
X157010305Y-122558130D01*
X157142180Y-122718820D01*
X157215388Y-122778900D01*
X157302871Y-122850696D01*
X157364401Y-122883584D01*
X157486200Y-122948687D01*
X157627324Y-122991497D01*
X157685125Y-123009031D01*
X157891999Y-123029406D01*
X157892000Y-123029406D01*
X157892001Y-123029406D01*
X157912376Y-123027399D01*
X158098875Y-123009031D01*
X158184375Y-122983093D01*
X158262703Y-122980529D01*
X158331820Y-123017471D01*
X158335382Y-123020918D01*
X159332789Y-124018326D01*
X159430910Y-124074976D01*
X159540347Y-124104300D01*
X159540349Y-124104300D01*
X159540350Y-124104300D01*
X160671800Y-124104300D01*
X160747500Y-124124584D01*
X160802916Y-124180000D01*
X160823200Y-124255700D01*
X160823200Y-124362300D01*
X160802916Y-124438000D01*
X160747500Y-124493416D01*
X160671800Y-124513700D01*
X159740347Y-124513700D01*
X159630912Y-124543023D01*
X159630908Y-124543024D01*
X159568860Y-124578849D01*
X159568859Y-124578849D01*
X159532793Y-124599671D01*
X159532790Y-124599673D01*
X158335382Y-125797080D01*
X158267511Y-125836265D01*
X158189141Y-125836265D01*
X158184378Y-125834905D01*
X158098876Y-125808969D01*
X157892001Y-125788594D01*
X157891999Y-125788594D01*
X157685125Y-125808968D01*
X157486201Y-125869312D01*
X157486199Y-125869313D01*
X157302871Y-125967303D01*
X157142180Y-126099180D01*
X157010303Y-126259871D01*
X156912313Y-126443199D01*
X156912312Y-126443201D01*
X156851968Y-126642125D01*
X156831594Y-126848999D01*
X156831594Y-126849000D01*
X156851968Y-127055874D01*
X156912312Y-127254798D01*
X156912313Y-127254800D01*
X157010303Y-127438128D01*
X157010305Y-127438130D01*
X157142180Y-127598820D01*
X157276331Y-127708915D01*
X157302871Y-127730696D01*
X157367591Y-127765289D01*
X157486200Y-127828687D01*
X157685125Y-127889031D01*
X157891999Y-127909406D01*
X157892000Y-127909406D01*
X157892001Y-127909406D01*
X157995437Y-127899218D01*
X158098875Y-127889031D01*
X158297800Y-127828687D01*
X158481130Y-127730695D01*
X158641820Y-127598820D01*
X158773695Y-127438130D01*
X158871687Y-127254800D01*
X158932031Y-127055875D01*
X158952406Y-126849000D01*
X158932031Y-126642125D01*
X158932030Y-126642121D01*
X158906094Y-126556622D01*
X158903529Y-126478294D01*
X158940472Y-126409177D01*
X158943886Y-126405648D01*
X159930892Y-125418644D01*
X159998763Y-125379459D01*
X160037948Y-125374300D01*
X161196850Y-125374300D01*
X161651425Y-125374300D01*
X161727125Y-125394584D01*
X161758487Y-125418650D01*
X161759415Y-125419578D01*
X161759418Y-125419582D01*
X161869849Y-125501085D01*
X161869850Y-125501085D01*
X161869851Y-125501086D01*
X161999397Y-125546416D01*
X162009650Y-125547377D01*
X162030154Y-125549300D01*
X162114300Y-125549300D01*
X162190000Y-125569584D01*
X162245416Y-125625000D01*
X162265700Y-125700700D01*
X162265700Y-127234831D01*
X162245416Y-127310531D01*
X162190000Y-127365947D01*
X162169843Y-127375675D01*
X162084281Y-127409416D01*
X161962652Y-127501652D01*
X161870415Y-127623282D01*
X161814415Y-127765289D01*
X161803700Y-127854520D01*
X161803700Y-128891479D01*
X161814415Y-128980710D01*
X161870415Y-129122717D01*
X161906669Y-129170524D01*
X161962652Y-129244348D01*
X162005060Y-129276507D01*
X162084282Y-129336584D01*
X162131618Y-129355250D01*
X162226289Y-129392584D01*
X162226288Y-129392584D01*
X162315520Y-129403300D01*
X162315524Y-129403300D01*
X163077480Y-129403300D01*
X163148864Y-129394727D01*
X163166711Y-129392584D01*
X163308717Y-129336584D01*
X163430348Y-129244348D01*
X163494006Y-129160403D01*
X163555908Y-129112341D01*
X163633549Y-129101669D01*
X163706123Y-129131248D01*
X163743502Y-129172403D01*
X163835367Y-129321341D01*
X163960659Y-129446633D01*
X163960663Y-129446636D01*
X164111475Y-129539658D01*
X164111481Y-129539660D01*
X164279675Y-129595393D01*
X164279676Y-129595394D01*
X164383489Y-129606000D01*
X164517500Y-129606000D01*
X165025500Y-129606000D01*
X165159511Y-129606000D01*
X165263323Y-129595394D01*
X165263324Y-129595393D01*
X165431518Y-129539660D01*
X165431524Y-129539658D01*
X165582336Y-129446636D01*
X165582340Y-129446633D01*
X165707633Y-129321340D01*
X165707636Y-129321336D01*
X165800658Y-129170524D01*
X165800660Y-129170518D01*
X165856393Y-129002324D01*
X165856394Y-129002323D01*
X165867000Y-128898510D01*
X165867000Y-128627000D01*
X165025500Y-128627000D01*
X165025500Y-129606000D01*
X164517500Y-129606000D01*
X164517500Y-128119000D01*
X165025500Y-128119000D01*
X165867000Y-128119000D01*
X165867000Y-127847489D01*
X165856394Y-127743676D01*
X165856393Y-127743675D01*
X165800660Y-127575481D01*
X165800658Y-127575475D01*
X165707636Y-127424663D01*
X165707633Y-127424659D01*
X165582340Y-127299366D01*
X165582336Y-127299363D01*
X165431524Y-127206341D01*
X165431518Y-127206339D01*
X165263324Y-127150606D01*
X165263323Y-127150605D01*
X165159511Y-127140000D01*
X165025500Y-127140000D01*
X165025500Y-128119000D01*
X164517500Y-128119000D01*
X164517500Y-127140000D01*
X164383489Y-127140000D01*
X164279676Y-127150605D01*
X164279675Y-127150606D01*
X164111481Y-127206339D01*
X164111475Y-127206341D01*
X163960663Y-127299363D01*
X163960659Y-127299366D01*
X163835366Y-127424659D01*
X163835363Y-127424663D01*
X163743501Y-127573596D01*
X163686497Y-127627377D01*
X163610239Y-127645451D01*
X163535161Y-127622974D01*
X163494006Y-127585597D01*
X163430348Y-127501652D01*
X163308717Y-127409415D01*
X163222658Y-127375478D01*
X163159677Y-127328837D01*
X163128454Y-127256955D01*
X163126800Y-127234634D01*
X163126800Y-126703263D01*
X163126300Y-126695632D01*
X163126300Y-125700700D01*
X163146584Y-125625000D01*
X163202000Y-125569584D01*
X163277700Y-125549300D01*
X163789844Y-125549300D01*
X163789846Y-125549300D01*
X163820602Y-125546416D01*
X163950151Y-125501085D01*
X164060582Y-125419582D01*
X164142085Y-125309151D01*
X164187416Y-125179602D01*
X164190300Y-125148846D01*
X164190300Y-124739154D01*
X164187416Y-124708398D01*
X164142085Y-124578849D01*
X164060582Y-124468418D01*
X164009631Y-124430814D01*
X163960770Y-124369543D01*
X163949090Y-124292048D01*
X163977722Y-124219095D01*
X164009630Y-124187186D01*
X164060582Y-124149582D01*
X164142085Y-124039151D01*
X164187416Y-123909602D01*
X164190300Y-123878846D01*
X164190300Y-123469154D01*
X164187416Y-123438398D01*
X164185566Y-123433112D01*
X164142086Y-123308852D01*
X164142086Y-123308851D01*
X164142085Y-123308849D01*
X164060582Y-123198418D01*
X164009631Y-123160814D01*
X163960770Y-123099543D01*
X163949090Y-123022048D01*
X163977722Y-122949095D01*
X164009630Y-122917186D01*
X164060582Y-122879582D01*
X164142085Y-122769151D01*
X164187416Y-122639602D01*
X164190300Y-122608846D01*
X164190300Y-122199154D01*
X164187416Y-122168398D01*
X164172004Y-122124354D01*
X164142086Y-122038852D01*
X164142086Y-122038851D01*
X164090533Y-121969000D01*
X164060582Y-121928418D01*
X164009631Y-121890814D01*
X163960770Y-121829543D01*
X163949090Y-121752048D01*
X163977722Y-121679095D01*
X164009630Y-121647186D01*
X164060582Y-121609582D01*
X164142085Y-121499151D01*
X164187416Y-121369602D01*
X164190300Y-121338846D01*
X164190300Y-120929154D01*
X164187416Y-120898398D01*
X164176898Y-120868340D01*
X164142086Y-120768852D01*
X164142086Y-120768851D01*
X164142085Y-120768849D01*
X164060582Y-120658418D01*
X164009631Y-120620814D01*
X163960770Y-120559543D01*
X163949090Y-120482048D01*
X163977722Y-120409095D01*
X164009630Y-120377186D01*
X164060582Y-120339582D01*
X164142085Y-120229151D01*
X164187416Y-120099602D01*
X164190300Y-120068846D01*
X164190300Y-119659154D01*
X164187416Y-119628398D01*
X164142085Y-119498849D01*
X164060582Y-119388418D01*
X164009631Y-119350814D01*
X163960770Y-119289543D01*
X163949090Y-119212048D01*
X163977722Y-119139095D01*
X164009630Y-119107186D01*
X164060582Y-119069582D01*
X164142085Y-118959151D01*
X164187416Y-118829602D01*
X164190300Y-118798846D01*
X164190300Y-118540800D01*
X164210584Y-118465100D01*
X164266000Y-118409684D01*
X164341700Y-118389400D01*
X166428300Y-118389400D01*
X166504000Y-118409684D01*
X166559416Y-118465100D01*
X166579700Y-118540800D01*
X166579700Y-118798843D01*
X166582583Y-118829602D01*
X166627913Y-118959147D01*
X166627913Y-118959148D01*
X166627914Y-118959150D01*
X166627915Y-118959151D01*
X166709417Y-119069581D01*
X166709418Y-119069582D01*
X166760367Y-119107185D01*
X166809229Y-119168458D01*
X166820909Y-119245953D01*
X166792276Y-119318906D01*
X166760367Y-119350815D01*
X166709418Y-119388417D01*
X166627913Y-119498851D01*
X166627913Y-119498852D01*
X166582583Y-119628397D01*
X166579700Y-119659156D01*
X166579700Y-120068843D01*
X166582583Y-120099602D01*
X166627913Y-120229147D01*
X166627913Y-120229148D01*
X166709418Y-120339582D01*
X166760367Y-120377185D01*
X166809229Y-120438458D01*
X166820909Y-120515953D01*
X166792276Y-120588906D01*
X166760367Y-120620815D01*
X166709418Y-120658417D01*
X166627913Y-120768851D01*
X166627913Y-120768852D01*
X166582583Y-120898397D01*
X166580121Y-120924653D01*
X166579718Y-120928969D01*
X166579700Y-120929156D01*
X166579700Y-121338843D01*
X166582583Y-121369602D01*
X166627913Y-121499147D01*
X166627913Y-121499148D01*
X166627914Y-121499150D01*
X166627915Y-121499151D01*
X166664609Y-121548869D01*
X166709418Y-121609582D01*
X166760367Y-121647185D01*
X166809229Y-121708458D01*
X166820909Y-121785953D01*
X166792276Y-121858906D01*
X166760367Y-121890815D01*
X166709418Y-121928417D01*
X166627913Y-122038851D01*
X166627913Y-122038852D01*
X166582583Y-122168397D01*
X166580166Y-122194185D01*
X166579700Y-122199154D01*
X166579700Y-122608846D01*
X166580157Y-122613716D01*
X166582583Y-122639602D01*
X166627913Y-122769147D01*
X166627913Y-122769148D01*
X166627914Y-122769150D01*
X166627915Y-122769151D01*
X166708988Y-122879000D01*
X166709418Y-122879582D01*
X166760367Y-122917185D01*
X166809229Y-122978458D01*
X166820909Y-123055953D01*
X166792276Y-123128906D01*
X166760367Y-123160815D01*
X166709418Y-123198417D01*
X166627913Y-123308851D01*
X166627913Y-123308852D01*
X166582583Y-123438397D01*
X166579700Y-123469156D01*
X166579700Y-123878843D01*
X166582583Y-123909602D01*
X166627913Y-124039147D01*
X166627913Y-124039148D01*
X166627914Y-124039150D01*
X166627915Y-124039151D01*
X166675998Y-124104300D01*
X166709418Y-124149582D01*
X166760367Y-124187185D01*
X166809229Y-124248458D01*
X166820909Y-124325953D01*
X166792276Y-124398906D01*
X166760367Y-124430815D01*
X166709418Y-124468417D01*
X166627913Y-124578851D01*
X166627913Y-124578852D01*
X166582583Y-124708397D01*
X166579700Y-124739156D01*
X166579700Y-125148843D01*
X166582583Y-125179602D01*
X166627913Y-125309147D01*
X166627913Y-125309148D01*
X166627914Y-125309150D01*
X166627915Y-125309151D01*
X166709418Y-125419582D01*
X166819849Y-125501085D01*
X166819850Y-125501085D01*
X166819851Y-125501086D01*
X166949397Y-125546416D01*
X166959650Y-125547377D01*
X166980154Y-125549300D01*
X166980156Y-125549300D01*
X168739844Y-125549300D01*
X168739846Y-125549300D01*
X168770602Y-125546416D01*
X168900151Y-125501085D01*
X169010582Y-125419582D01*
X169092085Y-125309151D01*
X169137416Y-125179602D01*
X169140300Y-125148846D01*
X169140300Y-124739154D01*
X169137416Y-124708398D01*
X169092085Y-124578849D01*
X169010582Y-124468418D01*
X168959631Y-124430814D01*
X168910770Y-124369543D01*
X168899090Y-124292048D01*
X168927722Y-124219095D01*
X168959630Y-124187186D01*
X169010582Y-124149582D01*
X169092085Y-124039151D01*
X169137416Y-123909602D01*
X169140300Y-123878846D01*
X169140300Y-123469154D01*
X169137416Y-123438398D01*
X169135566Y-123433112D01*
X169092086Y-123308852D01*
X169092086Y-123308851D01*
X169092085Y-123308849D01*
X169010582Y-123198418D01*
X168959631Y-123160814D01*
X168910770Y-123099543D01*
X168899090Y-123022048D01*
X168927722Y-122949095D01*
X168959630Y-122917186D01*
X169010582Y-122879582D01*
X169092085Y-122769151D01*
X169137416Y-122639602D01*
X169140300Y-122608846D01*
X169140300Y-122199154D01*
X169137416Y-122168398D01*
X169122004Y-122124354D01*
X169092086Y-122038852D01*
X169092086Y-122038851D01*
X169040533Y-121969000D01*
X169010582Y-121928418D01*
X168959631Y-121890814D01*
X168910770Y-121829543D01*
X168899090Y-121752048D01*
X168927722Y-121679095D01*
X168959630Y-121647186D01*
X169010582Y-121609582D01*
X169092085Y-121499151D01*
X169137416Y-121369602D01*
X169140300Y-121338846D01*
X169140300Y-120929154D01*
X169137416Y-120898398D01*
X169126898Y-120868340D01*
X169092086Y-120768852D01*
X169092086Y-120768851D01*
X169092085Y-120768849D01*
X169010582Y-120658418D01*
X168959631Y-120620814D01*
X168910770Y-120559543D01*
X168899090Y-120482048D01*
X168927722Y-120409095D01*
X168959630Y-120377186D01*
X169010582Y-120339582D01*
X169092085Y-120229151D01*
X169137416Y-120099602D01*
X169140300Y-120068846D01*
X169140300Y-119659154D01*
X169137416Y-119628398D01*
X169092085Y-119498849D01*
X169010582Y-119388418D01*
X168959631Y-119350814D01*
X168910770Y-119289543D01*
X168899090Y-119212048D01*
X168927722Y-119139095D01*
X168959630Y-119107186D01*
X169010582Y-119069582D01*
X169092085Y-118959151D01*
X169137416Y-118829602D01*
X169140300Y-118798846D01*
X169140300Y-118540800D01*
X169160584Y-118465100D01*
X169216000Y-118409684D01*
X169291700Y-118389400D01*
X176085551Y-118389400D01*
X176143006Y-118374005D01*
X176143007Y-118374005D01*
X176194987Y-118360077D01*
X176194987Y-118360076D01*
X176194990Y-118360076D01*
X176293110Y-118303426D01*
X176373226Y-118223310D01*
X190051126Y-104545410D01*
X190062523Y-104525668D01*
X190071512Y-104510101D01*
X190071512Y-104510100D01*
X190105304Y-104451571D01*
X190107776Y-104447290D01*
X190125370Y-104381626D01*
X190137100Y-104337852D01*
X190137100Y-99547149D01*
X190157384Y-99471449D01*
X190212800Y-99416033D01*
X190288500Y-99395749D01*
X190324729Y-99400148D01*
X190383361Y-99414600D01*
X190383362Y-99414600D01*
X190554636Y-99414600D01*
X190554639Y-99414600D01*
X190720940Y-99373610D01*
X190872599Y-99294014D01*
X190978718Y-99200000D01*
X191003917Y-99177676D01*
X191074030Y-99142660D01*
X191104314Y-99139600D01*
X191630050Y-99139600D01*
X191630051Y-99139600D01*
X191684770Y-99124938D01*
X191684771Y-99124938D01*
X191739487Y-99110277D01*
X191739487Y-99110276D01*
X191739490Y-99110276D01*
X191837610Y-99053626D01*
X191917726Y-98973510D01*
X192051721Y-98839513D01*
X192119591Y-98800329D01*
X192197962Y-98800329D01*
X192205911Y-98803130D01*
X192213284Y-98805135D01*
X192213291Y-98805138D01*
X192238821Y-98808100D01*
X192943652Y-98808099D01*
X193019351Y-98828383D01*
X193074767Y-98883799D01*
X193095051Y-98959499D01*
X193074767Y-99035199D01*
X193050707Y-99066555D01*
X192723861Y-99393401D01*
X192655990Y-99432586D01*
X192580573Y-99433346D01*
X192514846Y-99417146D01*
X192463539Y-99404500D01*
X192292261Y-99404500D01*
X192178313Y-99432586D01*
X192125959Y-99445490D01*
X192125955Y-99445492D01*
X191974301Y-99525085D01*
X191974300Y-99525086D01*
X191846098Y-99638664D01*
X191846095Y-99638667D01*
X191748804Y-99779616D01*
X191748801Y-99779623D01*
X191688064Y-99939772D01*
X191667420Y-100109798D01*
X191667420Y-100109801D01*
X191688064Y-100279827D01*
X191748801Y-100439976D01*
X191748804Y-100439983D01*
X191846095Y-100580932D01*
X191846098Y-100580935D01*
X191974301Y-100694514D01*
X192125960Y-100774110D01*
X192292261Y-100815100D01*
X192292264Y-100815100D01*
X192463536Y-100815100D01*
X192463539Y-100815100D01*
X192629840Y-100774110D01*
X192781499Y-100694514D01*
X192909702Y-100580935D01*
X192942134Y-100533949D01*
X193006995Y-100439983D01*
X193006995Y-100439982D01*
X193006999Y-100439977D01*
X193064294Y-100288901D01*
X193098796Y-100235538D01*
X194428626Y-98905710D01*
X194458987Y-98853123D01*
X194463118Y-98845969D01*
X194485272Y-98807597D01*
X194485272Y-98807596D01*
X194485276Y-98807590D01*
X194509335Y-98717800D01*
X194514600Y-98698152D01*
X194514600Y-96318347D01*
X194497005Y-96252686D01*
X194485276Y-96208910D01*
X194442210Y-96134318D01*
X194421927Y-96058621D01*
X194442210Y-95982921D01*
X194466267Y-95951568D01*
X195233126Y-95184710D01*
X195275782Y-95110828D01*
X195289776Y-95086590D01*
X195315891Y-94989128D01*
X195319100Y-94977152D01*
X195319100Y-77668647D01*
X195296111Y-77582852D01*
X195289776Y-77559210D01*
X195233126Y-77461090D01*
X195153010Y-77380974D01*
X194368910Y-76596874D01*
X194270790Y-76540224D01*
X194270787Y-76540222D01*
X194216071Y-76525562D01*
X194216070Y-76525562D01*
X194161351Y-76510900D01*
X194161350Y-76510900D01*
X154347250Y-76510900D01*
X154233949Y-76510900D01*
X154147638Y-76534027D01*
X154124510Y-76540224D01*
X154026390Y-76596874D01*
X154026389Y-76596875D01*
X154026387Y-76596876D01*
X145375276Y-85247987D01*
X145375275Y-85247989D01*
X145318624Y-85346109D01*
X145312170Y-85370198D01*
X145312169Y-85370200D01*
X145289373Y-85455276D01*
X145289301Y-85455539D01*
X145289300Y-85455552D01*
X145289300Y-92996252D01*
X145316790Y-93098847D01*
X145318624Y-93105690D01*
X145375274Y-93203810D01*
X145375276Y-93203812D01*
X145838459Y-93666995D01*
X145877644Y-93734866D01*
X145877644Y-93813236D01*
X145876284Y-93817998D01*
X145848143Y-93910770D01*
X145827536Y-94120000D01*
X145848142Y-94329225D01*
X145848142Y-94329226D01*
X145909171Y-94530411D01*
X145909172Y-94530414D01*
X145924027Y-94558205D01*
X146008278Y-94715828D01*
X146008279Y-94715830D01*
X146141648Y-94878342D01*
X146141657Y-94878351D01*
X146304169Y-95011720D01*
X146304171Y-95011721D01*
X146489586Y-95110828D01*
X146690773Y-95171857D01*
X146900000Y-95192464D01*
X147109227Y-95171857D01*
X147310414Y-95110828D01*
X147495829Y-95011721D01*
X147589071Y-94935199D01*
X147660453Y-94902857D01*
X147685994Y-94905372D01*
X147685994Y-94865930D01*
X147715198Y-94809072D01*
X147791721Y-94715829D01*
X147890828Y-94530414D01*
X147951857Y-94329227D01*
X147972464Y-94120000D01*
X147951857Y-93910773D01*
X147890828Y-93709586D01*
X147791721Y-93524171D01*
X147791720Y-93524169D01*
X147658351Y-93361657D01*
X147658342Y-93361648D01*
X147495830Y-93228279D01*
X147495828Y-93228278D01*
X147415092Y-93185124D01*
X147310414Y-93129172D01*
X147232994Y-93105687D01*
X147109225Y-93068142D01*
X146900000Y-93047536D01*
X146690770Y-93068143D01*
X146597998Y-93096284D01*
X146519669Y-93098847D01*
X146450554Y-93061903D01*
X146446995Y-93058459D01*
X146194244Y-92805708D01*
X146155059Y-92737837D01*
X146149900Y-92698652D01*
X146149900Y-92641857D01*
X146170184Y-92566157D01*
X146225600Y-92510741D01*
X146301300Y-92490457D01*
X146372667Y-92508333D01*
X146480847Y-92566157D01*
X146489588Y-92570829D01*
X146603171Y-92605283D01*
X146690773Y-92631857D01*
X146900000Y-92652464D01*
X147109227Y-92631857D01*
X147310414Y-92570828D01*
X147495829Y-92471721D01*
X147658347Y-92338347D01*
X147791721Y-92175829D01*
X147890828Y-91990414D01*
X147951857Y-91789227D01*
X147972464Y-91580000D01*
X147951857Y-91370773D01*
X147923713Y-91277996D01*
X147921150Y-91199672D01*
X147958093Y-91130556D01*
X147961508Y-91127026D01*
X154147692Y-84940844D01*
X154215563Y-84901659D01*
X154254748Y-84896500D01*
X157689452Y-84896500D01*
X157765152Y-84916784D01*
X157820568Y-84972200D01*
X157840852Y-85047900D01*
X157820568Y-85123600D01*
X157796508Y-85154956D01*
X147939291Y-95012171D01*
X147871420Y-95051356D01*
X147832150Y-95051356D01*
X147826811Y-95105566D01*
X147792171Y-95159291D01*
X147353003Y-95598459D01*
X147285132Y-95637644D01*
X147206762Y-95637644D01*
X147201999Y-95636284D01*
X147109229Y-95608143D01*
X147109225Y-95608142D01*
X146900000Y-95587536D01*
X146690774Y-95608142D01*
X146690773Y-95608142D01*
X146489588Y-95669171D01*
X146304171Y-95768278D01*
X146304169Y-95768279D01*
X146141657Y-95901648D01*
X146141648Y-95901657D01*
X146008279Y-96064169D01*
X146008278Y-96064171D01*
X145909171Y-96249588D01*
X145848142Y-96450773D01*
X145848142Y-96450774D01*
X145827536Y-96660000D01*
X145848142Y-96869225D01*
X145848142Y-96869226D01*
X145880230Y-96975006D01*
X145909172Y-97070414D01*
X145950655Y-97148022D01*
X146008278Y-97255828D01*
X146008279Y-97255830D01*
X146141648Y-97418342D01*
X146141657Y-97418351D01*
X146304169Y-97551720D01*
X146304171Y-97551721D01*
X146489586Y-97650828D01*
X146690773Y-97711857D01*
X146900000Y-97732464D01*
X147109227Y-97711857D01*
X147310414Y-97650828D01*
X147495829Y-97551721D01*
X147589071Y-97475199D01*
X147660453Y-97442857D01*
X147685994Y-97445372D01*
X147685994Y-97405930D01*
X147715198Y-97349072D01*
X147791721Y-97255829D01*
X147890828Y-97070414D01*
X147951857Y-96869227D01*
X147972464Y-96660000D01*
X147951857Y-96450773D01*
X147923713Y-96357996D01*
X147921150Y-96279672D01*
X147958093Y-96210556D01*
X147961508Y-96207026D01*
X158753992Y-85414544D01*
X158821863Y-85375359D01*
X158861048Y-85370200D01*
X159755752Y-85370200D01*
X159831452Y-85390484D01*
X159886868Y-85445900D01*
X159907152Y-85521600D01*
X159886868Y-85597300D01*
X159862808Y-85628656D01*
X147939291Y-97552171D01*
X147871420Y-97591356D01*
X147832150Y-97591356D01*
X147826811Y-97645566D01*
X147792171Y-97699291D01*
X147353003Y-98138459D01*
X147285132Y-98177644D01*
X147206762Y-98177644D01*
X147201999Y-98176284D01*
X147109229Y-98148143D01*
X147109225Y-98148142D01*
X146900000Y-98127536D01*
X146690774Y-98148142D01*
X146690773Y-98148142D01*
X146489588Y-98209171D01*
X146304171Y-98308278D01*
X146304169Y-98308279D01*
X146141657Y-98441648D01*
X146141648Y-98441657D01*
X146008279Y-98604169D01*
X146008278Y-98604171D01*
X145909171Y-98789588D01*
X145848142Y-98990773D01*
X145848142Y-98990774D01*
X145827536Y-99200000D01*
X145848142Y-99409225D01*
X145848142Y-99409226D01*
X145871697Y-99486875D01*
X145909172Y-99610414D01*
X145949466Y-99685798D01*
X146008278Y-99795828D01*
X146008279Y-99795830D01*
X146141648Y-99958342D01*
X146141657Y-99958351D01*
X146304169Y-100091720D01*
X146304171Y-100091721D01*
X146489586Y-100190828D01*
X146690773Y-100251857D01*
X146900000Y-100272464D01*
X147109227Y-100251857D01*
X147310414Y-100190828D01*
X147495829Y-100091721D01*
X147658347Y-99958347D01*
X147791721Y-99795829D01*
X147890828Y-99610414D01*
X147951857Y-99409227D01*
X147972464Y-99200000D01*
X168687536Y-99200000D01*
X168708142Y-99409225D01*
X168708142Y-99409226D01*
X168731697Y-99486875D01*
X168769172Y-99610414D01*
X168809466Y-99685798D01*
X168868278Y-99795828D01*
X168868279Y-99795830D01*
X169001648Y-99958342D01*
X169001657Y-99958351D01*
X169164169Y-100091720D01*
X169164171Y-100091721D01*
X169349586Y-100190828D01*
X169550773Y-100251857D01*
X169760000Y-100272464D01*
X169969227Y-100251857D01*
X170170414Y-100190828D01*
X170355829Y-100091721D01*
X170518347Y-99958347D01*
X170651721Y-99795829D01*
X170750828Y-99610414D01*
X170811857Y-99409227D01*
X170832464Y-99200000D01*
X170811857Y-98990773D01*
X170750828Y-98789586D01*
X170651721Y-98604171D01*
X170651720Y-98604169D01*
X170518351Y-98441657D01*
X170518342Y-98441648D01*
X170355830Y-98308279D01*
X170355828Y-98308278D01*
X170275092Y-98265124D01*
X170170414Y-98209172D01*
X170148835Y-98202626D01*
X169969225Y-98148142D01*
X169760000Y-98127536D01*
X169550774Y-98148142D01*
X169550773Y-98148142D01*
X169349588Y-98209171D01*
X169164171Y-98308278D01*
X169164169Y-98308279D01*
X169001657Y-98441648D01*
X169001648Y-98441657D01*
X168868279Y-98604169D01*
X168868278Y-98604171D01*
X168769171Y-98789588D01*
X168708142Y-98990773D01*
X168708142Y-98990774D01*
X168687536Y-99200000D01*
X147972464Y-99200000D01*
X147951857Y-98990773D01*
X147923713Y-98897996D01*
X147921150Y-98819672D01*
X147958093Y-98750556D01*
X147961508Y-98747026D01*
X150048534Y-96660000D01*
X168687536Y-96660000D01*
X168708142Y-96869225D01*
X168708142Y-96869226D01*
X168740230Y-96975006D01*
X168769172Y-97070414D01*
X168810655Y-97148022D01*
X168868278Y-97255828D01*
X168868279Y-97255830D01*
X169001648Y-97418342D01*
X169001657Y-97418351D01*
X169164169Y-97551720D01*
X169164171Y-97551721D01*
X169349586Y-97650828D01*
X169550773Y-97711857D01*
X169760000Y-97732464D01*
X169969227Y-97711857D01*
X170170414Y-97650828D01*
X170355829Y-97551721D01*
X170518347Y-97418347D01*
X170651721Y-97255829D01*
X170750828Y-97070414D01*
X170811857Y-96869227D01*
X170832464Y-96660000D01*
X170811857Y-96450773D01*
X170750828Y-96249586D01*
X170651721Y-96064171D01*
X170651720Y-96064169D01*
X170518351Y-95901657D01*
X170518342Y-95901648D01*
X170355830Y-95768279D01*
X170355828Y-95768278D01*
X170275092Y-95725124D01*
X170170414Y-95669172D01*
X170148835Y-95662626D01*
X169969225Y-95608142D01*
X169760000Y-95587536D01*
X169550774Y-95608142D01*
X169550773Y-95608142D01*
X169349588Y-95669171D01*
X169164171Y-95768278D01*
X169164169Y-95768279D01*
X169001657Y-95901648D01*
X169001648Y-95901657D01*
X168868279Y-96064169D01*
X168868278Y-96064171D01*
X168769171Y-96249588D01*
X168708142Y-96450773D01*
X168708142Y-96450774D01*
X168687536Y-96660000D01*
X150048534Y-96660000D01*
X152588535Y-94120000D01*
X168687536Y-94120000D01*
X168708142Y-94329225D01*
X168708142Y-94329226D01*
X168769171Y-94530411D01*
X168769172Y-94530414D01*
X168784027Y-94558205D01*
X168868278Y-94715828D01*
X168868279Y-94715830D01*
X169001648Y-94878342D01*
X169001657Y-94878351D01*
X169164169Y-95011720D01*
X169164171Y-95011721D01*
X169349586Y-95110828D01*
X169550773Y-95171857D01*
X169760000Y-95192464D01*
X169969227Y-95171857D01*
X170170414Y-95110828D01*
X170355829Y-95011721D01*
X170518347Y-94878347D01*
X170651721Y-94715829D01*
X170750828Y-94530414D01*
X170811857Y-94329227D01*
X170832464Y-94120000D01*
X170811857Y-93910773D01*
X170750828Y-93709586D01*
X170651721Y-93524171D01*
X170651720Y-93524169D01*
X170518351Y-93361657D01*
X170518342Y-93361648D01*
X170355830Y-93228279D01*
X170355828Y-93228278D01*
X170275092Y-93185124D01*
X170170414Y-93129172D01*
X170092994Y-93105687D01*
X169969225Y-93068142D01*
X169760000Y-93047536D01*
X169550774Y-93068142D01*
X169550773Y-93068142D01*
X169349588Y-93129171D01*
X169164171Y-93228278D01*
X169164169Y-93228279D01*
X169001657Y-93361648D01*
X169001648Y-93361657D01*
X168868279Y-93524169D01*
X168868278Y-93524171D01*
X168769171Y-93709588D01*
X168708142Y-93910773D01*
X168708142Y-93910774D01*
X168687536Y-94120000D01*
X152588535Y-94120000D01*
X160835092Y-85873444D01*
X160902963Y-85834259D01*
X160942148Y-85829100D01*
X168541300Y-85829100D01*
X168617000Y-85849384D01*
X168672416Y-85904800D01*
X168692700Y-85980500D01*
X168692700Y-87307580D01*
X168695661Y-87333107D01*
X168695662Y-87333109D01*
X168741766Y-87437525D01*
X168822475Y-87518234D01*
X168926891Y-87564338D01*
X168952421Y-87567300D01*
X170258651Y-87567299D01*
X170334351Y-87587583D01*
X170389767Y-87642999D01*
X170410051Y-87718699D01*
X170389767Y-87794399D01*
X170365707Y-87825755D01*
X170213003Y-87978459D01*
X170145132Y-88017644D01*
X170066762Y-88017644D01*
X170061999Y-88016284D01*
X169969229Y-87988143D01*
X169969225Y-87988142D01*
X169760000Y-87967536D01*
X169550774Y-87988142D01*
X169550773Y-87988142D01*
X169349588Y-88049171D01*
X169164171Y-88148278D01*
X169164169Y-88148279D01*
X169001657Y-88281648D01*
X169001648Y-88281657D01*
X168868279Y-88444169D01*
X168868278Y-88444171D01*
X168769171Y-88629588D01*
X168708142Y-88830773D01*
X168708142Y-88830774D01*
X168687536Y-89040000D01*
X168708142Y-89249225D01*
X168708142Y-89249226D01*
X168738626Y-89349717D01*
X168769172Y-89450414D01*
X168780360Y-89471345D01*
X168868278Y-89635828D01*
X168868279Y-89635830D01*
X169001648Y-89798342D01*
X169001657Y-89798351D01*
X169164169Y-89931720D01*
X169164171Y-89931721D01*
X169349586Y-90030828D01*
X169550773Y-90091857D01*
X169760000Y-90112464D01*
X169969227Y-90091857D01*
X170170414Y-90030828D01*
X170355829Y-89931721D01*
X170449071Y-89855199D01*
X170520453Y-89822857D01*
X170545994Y-89825372D01*
X170545994Y-89785930D01*
X170575198Y-89729072D01*
X170651721Y-89635829D01*
X170750828Y-89450414D01*
X170811857Y-89249227D01*
X170832464Y-89040000D01*
X170811857Y-88830773D01*
X170783713Y-88737996D01*
X170781150Y-88659672D01*
X170818093Y-88590556D01*
X170821507Y-88587027D01*
X172328092Y-87080444D01*
X172395963Y-87041259D01*
X172435148Y-87036100D01*
X173329851Y-87036100D01*
X173405551Y-87056384D01*
X173460967Y-87111800D01*
X173481251Y-87187500D01*
X173460967Y-87263200D01*
X173436907Y-87294556D01*
X170799291Y-89932171D01*
X170731420Y-89971356D01*
X170692150Y-89971356D01*
X170686811Y-90025566D01*
X170652171Y-90079291D01*
X170213003Y-90518459D01*
X170145132Y-90557644D01*
X170066762Y-90557644D01*
X170061999Y-90556284D01*
X169969229Y-90528143D01*
X169969225Y-90528142D01*
X169760000Y-90507536D01*
X169550774Y-90528142D01*
X169550773Y-90528142D01*
X169349588Y-90589171D01*
X169164171Y-90688278D01*
X169164169Y-90688279D01*
X169001657Y-90821648D01*
X169001648Y-90821657D01*
X168868279Y-90984169D01*
X168868278Y-90984171D01*
X168769171Y-91169588D01*
X168708142Y-91370773D01*
X168708142Y-91370774D01*
X168687536Y-91580000D01*
X168708142Y-91789225D01*
X168708142Y-91789226D01*
X168746660Y-91916202D01*
X168769172Y-91990414D01*
X168825124Y-92095092D01*
X168868278Y-92175828D01*
X168868279Y-92175830D01*
X169001648Y-92338342D01*
X169001657Y-92338351D01*
X169164169Y-92471720D01*
X169164171Y-92471721D01*
X169349586Y-92570828D01*
X169550773Y-92631857D01*
X169760000Y-92652464D01*
X169969227Y-92631857D01*
X170170414Y-92570828D01*
X170355829Y-92471721D01*
X170518347Y-92338347D01*
X170651721Y-92175829D01*
X170750828Y-91990414D01*
X170811857Y-91789227D01*
X170832464Y-91580000D01*
X170811857Y-91370773D01*
X170783713Y-91277996D01*
X170781150Y-91199672D01*
X170818093Y-91130556D01*
X170821507Y-91127027D01*
X174410993Y-87537544D01*
X174478864Y-87498359D01*
X174518049Y-87493200D01*
X178502382Y-87493200D01*
X178578082Y-87513484D01*
X178633498Y-87568900D01*
X178653782Y-87644600D01*
X178633498Y-87720300D01*
X178623018Y-87736082D01*
X178536415Y-87850282D01*
X178480415Y-87992289D01*
X178469700Y-88081520D01*
X178469700Y-89118479D01*
X178480415Y-89207710D01*
X178536415Y-89349717D01*
X178572669Y-89397524D01*
X178628652Y-89471348D01*
X178708847Y-89532162D01*
X178750281Y-89563583D01*
X178750282Y-89563583D01*
X178750283Y-89563584D01*
X178835843Y-89597324D01*
X178898822Y-89643962D01*
X178930045Y-89715844D01*
X178931700Y-89738167D01*
X178931700Y-93618525D01*
X178911416Y-93694225D01*
X178897335Y-93714571D01*
X178818302Y-93810874D01*
X178720313Y-93994199D01*
X178720312Y-93994201D01*
X178659968Y-94193125D01*
X178639594Y-94399999D01*
X178639594Y-94400000D01*
X178659968Y-94606874D01*
X178720312Y-94805798D01*
X178720313Y-94805800D01*
X178818303Y-94989128D01*
X178818305Y-94989130D01*
X178950180Y-95149820D01*
X179086437Y-95261643D01*
X179110871Y-95281696D01*
X179189839Y-95323905D01*
X179294200Y-95379687D01*
X179411342Y-95415222D01*
X179493125Y-95440031D01*
X179699999Y-95460406D01*
X179700000Y-95460406D01*
X179700001Y-95460406D01*
X179720376Y-95458399D01*
X179906875Y-95440031D01*
X180034031Y-95401457D01*
X180112358Y-95398893D01*
X180153680Y-95415222D01*
X180196649Y-95440030D01*
X180258910Y-95475976D01*
X180322093Y-95492905D01*
X180368347Y-95505300D01*
X180368349Y-95505300D01*
X180368350Y-95505300D01*
X182500652Y-95505300D01*
X182576352Y-95525584D01*
X182631768Y-95581000D01*
X182652052Y-95656700D01*
X182631768Y-95732400D01*
X182607708Y-95763756D01*
X180143382Y-98228080D01*
X180075511Y-98267265D01*
X179997141Y-98267265D01*
X179992378Y-98265905D01*
X179906876Y-98239969D01*
X179700001Y-98219594D01*
X179699999Y-98219594D01*
X179493125Y-98239968D01*
X179294201Y-98300312D01*
X179294199Y-98300313D01*
X179110871Y-98398303D01*
X178950180Y-98530180D01*
X178818303Y-98690871D01*
X178720313Y-98874199D01*
X178720312Y-98874201D01*
X178659968Y-99073125D01*
X178639594Y-99279999D01*
X178639594Y-99280000D01*
X178659968Y-99486874D01*
X178720312Y-99685798D01*
X178720313Y-99685800D01*
X178818303Y-99869128D01*
X178818305Y-99869130D01*
X178950180Y-100029820D01*
X179110870Y-100161695D01*
X179189671Y-100203814D01*
X179246868Y-100257385D01*
X179269619Y-100332380D01*
X179269700Y-100337336D01*
X179269700Y-104417677D01*
X179249416Y-104493377D01*
X179209781Y-104538313D01*
X179090654Y-104628649D01*
X179090652Y-104628651D01*
X178998415Y-104750282D01*
X178942415Y-104892289D01*
X178931700Y-104981520D01*
X178931700Y-106018479D01*
X178942415Y-106107710D01*
X178998415Y-106249717D01*
X179034669Y-106297524D01*
X179090652Y-106371348D01*
X179159825Y-106423804D01*
X179212282Y-106463584D01*
X179259618Y-106482250D01*
X179354289Y-106519584D01*
X179354288Y-106519584D01*
X179443520Y-106530300D01*
X179443524Y-106530300D01*
X180205480Y-106530300D01*
X180276864Y-106521727D01*
X180294711Y-106519584D01*
X180436717Y-106463584D01*
X180558348Y-106371348D01*
X180622006Y-106287403D01*
X180683908Y-106239341D01*
X180761549Y-106228669D01*
X180834123Y-106258248D01*
X180871502Y-106299403D01*
X180963367Y-106448341D01*
X181088659Y-106573633D01*
X181088663Y-106573636D01*
X181239475Y-106666658D01*
X181239481Y-106666660D01*
X181407675Y-106722393D01*
X181407676Y-106722394D01*
X181511489Y-106733000D01*
X181645500Y-106733000D01*
X182153500Y-106733000D01*
X182287511Y-106733000D01*
X182391323Y-106722394D01*
X182391324Y-106722393D01*
X182559518Y-106666660D01*
X182559524Y-106666658D01*
X182710336Y-106573636D01*
X182710340Y-106573633D01*
X182835633Y-106448340D01*
X182835636Y-106448336D01*
X182928658Y-106297524D01*
X182928660Y-106297518D01*
X182984393Y-106129324D01*
X182984394Y-106129323D01*
X182995000Y-106025510D01*
X182995000Y-105754000D01*
X182153500Y-105754000D01*
X182153500Y-106733000D01*
X181645500Y-106733000D01*
X181645500Y-105246000D01*
X182153500Y-105246000D01*
X182995000Y-105246000D01*
X182995000Y-104974489D01*
X182984394Y-104870676D01*
X182984393Y-104870675D01*
X182941826Y-104742215D01*
X185616994Y-104742215D01*
X185704007Y-104796091D01*
X185895477Y-104870267D01*
X185895485Y-104870269D01*
X186097326Y-104907999D01*
X186097333Y-104908000D01*
X186302667Y-104908000D01*
X186302673Y-104907999D01*
X186504514Y-104870269D01*
X186504522Y-104870267D01*
X186695988Y-104796092D01*
X186695999Y-104796087D01*
X186783004Y-104742215D01*
X186783004Y-104742214D01*
X186200000Y-104159210D01*
X185616994Y-104742215D01*
X182941826Y-104742215D01*
X182928660Y-104702481D01*
X182928658Y-104702475D01*
X182835636Y-104551663D01*
X182835633Y-104551659D01*
X182710340Y-104426366D01*
X182710336Y-104426363D01*
X182559524Y-104333341D01*
X182559518Y-104333339D01*
X182391324Y-104277606D01*
X182391323Y-104277605D01*
X182287511Y-104267000D01*
X182153500Y-104267000D01*
X182153500Y-105246000D01*
X181645500Y-105246000D01*
X181645500Y-104267000D01*
X181511489Y-104267000D01*
X181407676Y-104277605D01*
X181407675Y-104277606D01*
X181239481Y-104333339D01*
X181239475Y-104333341D01*
X181088663Y-104426363D01*
X181088659Y-104426366D01*
X180963366Y-104551659D01*
X180963363Y-104551663D01*
X180871501Y-104700596D01*
X180814497Y-104754377D01*
X180738239Y-104772451D01*
X180663161Y-104749974D01*
X180622006Y-104712597D01*
X180558348Y-104628652D01*
X180436717Y-104536415D01*
X180294708Y-104480415D01*
X180294711Y-104480415D01*
X180263647Y-104476685D01*
X180190906Y-104447519D01*
X180142493Y-104385890D01*
X180130300Y-104326365D01*
X180130300Y-103799998D01*
X185087253Y-103799998D01*
X185087253Y-103800001D01*
X185106200Y-104004465D01*
X185106200Y-104004466D01*
X185162394Y-104201972D01*
X185253923Y-104385786D01*
X185254387Y-104386401D01*
X185254388Y-104386401D01*
X185840789Y-103799999D01*
X185801294Y-103760504D01*
X185900000Y-103760504D01*
X185900000Y-103839496D01*
X185920444Y-103915796D01*
X185959940Y-103984205D01*
X186015795Y-104040060D01*
X186084204Y-104079556D01*
X186160504Y-104100000D01*
X186239496Y-104100000D01*
X186315796Y-104079556D01*
X186384205Y-104040060D01*
X186440060Y-103984205D01*
X186479556Y-103915796D01*
X186500000Y-103839496D01*
X186500000Y-103760504D01*
X186479556Y-103684204D01*
X186440060Y-103615795D01*
X186384205Y-103559940D01*
X186315796Y-103520444D01*
X186239496Y-103500000D01*
X186160504Y-103500000D01*
X186084204Y-103520444D01*
X186015795Y-103559940D01*
X185959940Y-103615795D01*
X185920444Y-103684204D01*
X185900000Y-103760504D01*
X185801294Y-103760504D01*
X185254388Y-103213598D01*
X185254387Y-103213598D01*
X185253925Y-103214210D01*
X185253924Y-103214212D01*
X185162394Y-103398027D01*
X185106200Y-103595533D01*
X185106200Y-103595534D01*
X185087253Y-103799998D01*
X180130300Y-103799998D01*
X180130300Y-102857784D01*
X185616994Y-102857784D01*
X186199999Y-103440789D01*
X186783004Y-102857783D01*
X186783005Y-102857783D01*
X186695992Y-102803909D01*
X186504522Y-102729732D01*
X186504514Y-102729730D01*
X186302673Y-102692000D01*
X186097326Y-102692000D01*
X185895485Y-102729730D01*
X185895477Y-102729732D01*
X185704011Y-102803907D01*
X185704010Y-102803907D01*
X185616994Y-102857784D01*
X180130300Y-102857784D01*
X180130300Y-100337336D01*
X180150584Y-100261636D01*
X180206000Y-100206220D01*
X180210275Y-100203843D01*
X180289130Y-100161695D01*
X180449820Y-100029820D01*
X180581695Y-99869130D01*
X180679687Y-99685800D01*
X180740031Y-99486875D01*
X180760406Y-99280000D01*
X180740031Y-99073125D01*
X180734116Y-99053626D01*
X180714094Y-98987622D01*
X180711529Y-98909294D01*
X180748472Y-98840177D01*
X180751887Y-98836647D01*
X183388892Y-96199644D01*
X183456763Y-96160459D01*
X183495948Y-96155300D01*
X185829789Y-96155300D01*
X185905489Y-96175584D01*
X185933659Y-96197199D01*
X186321890Y-96197199D01*
X186361638Y-96202510D01*
X186371291Y-96205136D01*
X186396821Y-96208098D01*
X187961178Y-96208097D01*
X187961180Y-96208097D01*
X187966486Y-96207481D01*
X187986709Y-96205136D01*
X187986713Y-96205134D01*
X187996362Y-96202510D01*
X188036109Y-96197199D01*
X188423600Y-96197199D01*
X188423600Y-96148607D01*
X188423599Y-96148601D01*
X188417095Y-96088106D01*
X188417095Y-96088105D01*
X188366046Y-95951238D01*
X188278503Y-95834294D01*
X188270848Y-95826639D01*
X188272468Y-95825018D01*
X188233122Y-95774983D01*
X188220899Y-95715387D01*
X188220899Y-95501617D01*
X188217938Y-95476089D01*
X188211343Y-95461153D01*
X188199321Y-95383710D01*
X188211342Y-95338843D01*
X188217938Y-95323908D01*
X188220900Y-95298378D01*
X188220899Y-94851621D01*
X188217938Y-94826090D01*
X188211342Y-94811153D01*
X188199321Y-94733711D01*
X188211340Y-94688851D01*
X188217938Y-94673910D01*
X188217938Y-94673906D01*
X188222538Y-94663490D01*
X188224815Y-94664495D01*
X188256163Y-94610683D01*
X188324184Y-94571760D01*
X188402554Y-94572063D01*
X188469860Y-94611096D01*
X188780456Y-94921692D01*
X188819641Y-94989563D01*
X188824800Y-95028748D01*
X188824800Y-96782656D01*
X188804516Y-96858356D01*
X188749100Y-96913772D01*
X188673400Y-96934056D01*
X188597700Y-96913772D01*
X188566374Y-96889742D01*
X188460711Y-96784139D01*
X188421507Y-96716280D01*
X188417205Y-96660867D01*
X188423599Y-96601393D01*
X188423600Y-96601391D01*
X188423600Y-96552799D01*
X188036116Y-96552799D01*
X187996366Y-96547488D01*
X187986703Y-96544858D01*
X187961181Y-96541898D01*
X186396819Y-96541898D01*
X186371293Y-96544859D01*
X186361629Y-96547489D01*
X186321883Y-96552799D01*
X185934400Y-96552799D01*
X185934400Y-96601396D01*
X185940904Y-96661891D01*
X185940904Y-96661892D01*
X185991953Y-96798759D01*
X186079496Y-96915703D01*
X186087153Y-96923360D01*
X186085531Y-96924981D01*
X186124874Y-96975006D01*
X186137100Y-97034610D01*
X186137100Y-97093300D01*
X186116816Y-97169000D01*
X186061400Y-97224416D01*
X185985700Y-97244700D01*
X185562986Y-97244700D01*
X185487286Y-97224416D01*
X185442350Y-97184782D01*
X185371347Y-97091151D01*
X185249717Y-96998915D01*
X185107708Y-96942915D01*
X185107711Y-96942915D01*
X185018480Y-96932200D01*
X185018476Y-96932200D01*
X183981524Y-96932200D01*
X183981520Y-96932200D01*
X183892289Y-96942915D01*
X183750282Y-96998915D01*
X183628652Y-97091152D01*
X183536415Y-97212782D01*
X183480415Y-97354789D01*
X183469700Y-97444020D01*
X183469700Y-97553993D01*
X183449416Y-97629693D01*
X183394000Y-97685109D01*
X183318300Y-97705393D01*
X183282068Y-97700994D01*
X183273619Y-97698911D01*
X183143339Y-97666800D01*
X182972061Y-97666800D01*
X182847335Y-97697542D01*
X182805759Y-97707790D01*
X182805755Y-97707792D01*
X182654101Y-97787385D01*
X182654100Y-97787386D01*
X182525898Y-97900964D01*
X182525895Y-97900967D01*
X182428604Y-98041916D01*
X182428601Y-98041923D01*
X182367864Y-98202072D01*
X182347220Y-98372098D01*
X182347220Y-98372101D01*
X182367864Y-98542127D01*
X182379917Y-98573907D01*
X182427634Y-98699728D01*
X182428601Y-98702276D01*
X182428604Y-98702283D01*
X182525895Y-98843232D01*
X182525898Y-98843235D01*
X182654101Y-98956814D01*
X182805760Y-99036410D01*
X182972061Y-99077400D01*
X182972064Y-99077400D01*
X183143338Y-99077400D01*
X183143339Y-99077400D01*
X183143339Y-99077399D01*
X183152429Y-99076296D01*
X183152605Y-99077753D01*
X183221059Y-99079123D01*
X183288132Y-99119658D01*
X183325952Y-99188299D01*
X183324384Y-99266654D01*
X183322672Y-99272172D01*
X183277605Y-99408178D01*
X183267000Y-99511989D01*
X183267000Y-99646000D01*
X184602600Y-99646000D01*
X184678300Y-99666284D01*
X184733716Y-99721700D01*
X184754000Y-99797400D01*
X184754000Y-100002600D01*
X184733716Y-100078300D01*
X184678300Y-100133716D01*
X184602600Y-100154000D01*
X183300889Y-100154000D01*
X183264656Y-100149600D01*
X183250513Y-100146114D01*
X183235040Y-100142300D01*
X183235039Y-100142300D01*
X183063761Y-100142300D01*
X182939035Y-100173042D01*
X182897459Y-100183290D01*
X182897455Y-100183292D01*
X182745801Y-100262885D01*
X182745800Y-100262886D01*
X182617598Y-100376464D01*
X182617595Y-100376467D01*
X182520304Y-100517416D01*
X182520301Y-100517423D01*
X182459564Y-100677572D01*
X182438920Y-100847598D01*
X182438920Y-100847601D01*
X182459564Y-101017627D01*
X182520301Y-101177776D01*
X182520304Y-101177783D01*
X182617595Y-101318732D01*
X182617598Y-101318735D01*
X182745801Y-101432314D01*
X182897460Y-101511910D01*
X183063761Y-101552900D01*
X183063764Y-101552900D01*
X183235036Y-101552900D01*
X183235039Y-101552900D01*
X183401340Y-101511910D01*
X183552999Y-101432314D01*
X183668954Y-101329586D01*
X183684317Y-101315976D01*
X183754430Y-101280960D01*
X183784714Y-101277900D01*
X185269250Y-101277900D01*
X185269251Y-101277900D01*
X185328478Y-101262030D01*
X185378690Y-101248576D01*
X185476810Y-101191926D01*
X185556926Y-101111810D01*
X186460025Y-100208711D01*
X186516676Y-100110590D01*
X186526450Y-100074110D01*
X186546000Y-100001153D01*
X186546000Y-98959497D01*
X186566284Y-98883797D01*
X186621700Y-98828381D01*
X186697400Y-98808097D01*
X187961180Y-98808097D01*
X187973943Y-98806616D01*
X187986709Y-98805136D01*
X188091125Y-98759032D01*
X188111244Y-98738913D01*
X188179115Y-98699728D01*
X188257485Y-98699728D01*
X188325356Y-98738913D01*
X188364541Y-98806784D01*
X188369700Y-98845969D01*
X188369700Y-102743300D01*
X188349416Y-102819000D01*
X188294000Y-102874416D01*
X188218300Y-102894700D01*
X188104849Y-102894700D01*
X187993163Y-102918439D01*
X187918704Y-102934266D01*
X187744859Y-103011666D01*
X187590896Y-103123527D01*
X187463562Y-103264946D01*
X187447631Y-103292540D01*
X187392214Y-103347956D01*
X187316514Y-103368239D01*
X187240814Y-103347955D01*
X187185398Y-103292538D01*
X187180988Y-103284324D01*
X187146079Y-103214218D01*
X187146075Y-103214213D01*
X187145610Y-103213598D01*
X186559210Y-103799999D01*
X186559210Y-103800000D01*
X187145611Y-104386401D01*
X187145611Y-104386400D01*
X187146074Y-104385790D01*
X187146074Y-104385789D01*
X187180987Y-104315676D01*
X187232887Y-104256954D01*
X187307194Y-104232048D01*
X187384000Y-104247633D01*
X187442722Y-104299533D01*
X187447631Y-104307460D01*
X187463562Y-104335053D01*
X187584798Y-104469700D01*
X187590899Y-104476475D01*
X187673399Y-104536415D01*
X187744854Y-104588331D01*
X187744855Y-104588331D01*
X187744856Y-104588332D01*
X187815663Y-104619857D01*
X187876567Y-104669175D01*
X187904653Y-104742339D01*
X187892395Y-104819745D01*
X187861139Y-104865223D01*
X176512008Y-116214356D01*
X176444137Y-116253541D01*
X176404952Y-116258700D01*
X169291700Y-116258700D01*
X169216000Y-116238416D01*
X169160584Y-116183000D01*
X169140300Y-116107300D01*
X169140300Y-115849156D01*
X169137416Y-115818397D01*
X169092086Y-115688852D01*
X169092086Y-115688851D01*
X169092085Y-115688849D01*
X169010582Y-115578418D01*
X168900151Y-115496915D01*
X168900150Y-115496914D01*
X168900148Y-115496913D01*
X168770602Y-115451583D01*
X168744701Y-115449155D01*
X168739846Y-115448700D01*
X168739844Y-115448700D01*
X168219700Y-115448700D01*
X168144000Y-115428416D01*
X168088584Y-115373000D01*
X168068300Y-115297300D01*
X168068300Y-114638167D01*
X168088584Y-114562467D01*
X168144000Y-114507051D01*
X168164144Y-114497329D01*
X168249717Y-114463584D01*
X168371348Y-114371348D01*
X168463584Y-114249717D01*
X168519584Y-114107711D01*
X168522263Y-114085402D01*
X168530300Y-114018479D01*
X168530300Y-112981520D01*
X168519584Y-112892289D01*
X168463584Y-112750282D01*
X168423804Y-112697825D01*
X168371348Y-112628652D01*
X168318890Y-112588872D01*
X168249717Y-112536415D01*
X168163658Y-112502478D01*
X168100677Y-112455837D01*
X168069454Y-112383955D01*
X168067800Y-112361634D01*
X168067800Y-104103447D01*
X168088084Y-104027747D01*
X168112140Y-103996395D01*
X168271379Y-103837156D01*
X168339245Y-103797974D01*
X168417616Y-103797974D01*
X168485487Y-103837159D01*
X168524672Y-103905029D01*
X168524673Y-103983398D01*
X168504516Y-104058626D01*
X168485149Y-104280000D01*
X168504516Y-104501375D01*
X168562032Y-104716027D01*
X168655948Y-104917427D01*
X168655949Y-104917429D01*
X168700184Y-104980603D01*
X168700185Y-104980604D01*
X169321157Y-104359632D01*
X169345792Y-104451571D01*
X169404311Y-104552930D01*
X169487070Y-104635689D01*
X169588429Y-104694208D01*
X169680367Y-104718842D01*
X169059395Y-105339814D01*
X169122570Y-105384050D01*
X169122572Y-105384051D01*
X169323973Y-105477967D01*
X169323972Y-105477967D01*
X169538624Y-105535483D01*
X169538623Y-105535483D01*
X169760000Y-105554850D01*
X169981375Y-105535483D01*
X170196027Y-105477967D01*
X170397423Y-105384054D01*
X170397433Y-105384048D01*
X170460603Y-105339814D01*
X170460603Y-105339813D01*
X169839632Y-104718842D01*
X169931571Y-104694208D01*
X170032930Y-104635689D01*
X170115689Y-104552930D01*
X170174208Y-104451571D01*
X170198842Y-104359632D01*
X170819813Y-104980603D01*
X170819814Y-104980603D01*
X170864048Y-104917433D01*
X170864054Y-104917423D01*
X170957967Y-104716027D01*
X171015483Y-104501375D01*
X171034850Y-104280000D01*
X171015483Y-104058624D01*
X170957967Y-103843972D01*
X170864051Y-103642573D01*
X170819814Y-103579394D01*
X170198842Y-104200366D01*
X170174208Y-104108429D01*
X170115689Y-104007070D01*
X170032930Y-103924311D01*
X169931571Y-103865792D01*
X169839632Y-103841157D01*
X170460604Y-103220185D01*
X170460603Y-103220184D01*
X170397429Y-103175949D01*
X170397427Y-103175948D01*
X170196026Y-103082032D01*
X170196027Y-103082032D01*
X170079787Y-103050886D01*
X170011916Y-103011701D01*
X169972731Y-102943830D01*
X169972731Y-102865460D01*
X170011916Y-102797589D01*
X170075024Y-102759764D01*
X170129299Y-102743300D01*
X170170414Y-102730828D01*
X170355829Y-102631721D01*
X170518347Y-102498347D01*
X170651721Y-102335829D01*
X170750828Y-102150414D01*
X170811857Y-101949227D01*
X170832464Y-101740000D01*
X170811857Y-101530773D01*
X170750828Y-101329586D01*
X170651721Y-101144171D01*
X170651720Y-101144169D01*
X170518351Y-100981657D01*
X170518342Y-100981648D01*
X170355830Y-100848279D01*
X170355828Y-100848278D01*
X170217069Y-100774110D01*
X170170414Y-100749172D01*
X170170411Y-100749171D01*
X169969225Y-100688142D01*
X169760000Y-100667536D01*
X169550774Y-100688142D01*
X169550773Y-100688142D01*
X169349588Y-100749171D01*
X169164171Y-100848278D01*
X169164169Y-100848279D01*
X169001657Y-100981648D01*
X169001648Y-100981657D01*
X168868279Y-101144169D01*
X168868278Y-101144171D01*
X168769171Y-101329588D01*
X168708142Y-101530773D01*
X168708142Y-101530774D01*
X168687536Y-101740000D01*
X168708142Y-101949225D01*
X168708143Y-101949229D01*
X168736284Y-102041999D01*
X168738848Y-102120328D01*
X168701903Y-102189444D01*
X168698459Y-102193003D01*
X167373290Y-103518174D01*
X167293176Y-103598287D01*
X167293175Y-103598289D01*
X167293174Y-103598290D01*
X167267611Y-103642566D01*
X167236523Y-103696412D01*
X167207200Y-103805847D01*
X167207200Y-106407700D01*
X167186916Y-106483400D01*
X167131500Y-106538816D01*
X167055800Y-106559100D01*
X163436151Y-106559100D01*
X163322849Y-106559100D01*
X163268130Y-106573762D01*
X163268129Y-106573762D01*
X163213412Y-106588422D01*
X163147996Y-106626190D01*
X163115290Y-106645074D01*
X163115289Y-106645075D01*
X163115287Y-106645076D01*
X147214630Y-122545733D01*
X147146759Y-122584918D01*
X147068389Y-122584918D01*
X147000518Y-122545733D01*
X146961333Y-122477862D01*
X146961333Y-122399492D01*
X146972044Y-122371197D01*
X146989077Y-122336991D01*
X147045135Y-122139968D01*
X147064035Y-121936000D01*
X147063332Y-121928418D01*
X147051580Y-121801584D01*
X147045135Y-121732032D01*
X146989077Y-121535009D01*
X146897771Y-121351642D01*
X146897770Y-121351641D01*
X146897770Y-121351640D01*
X146774332Y-121188180D01*
X146774327Y-121188175D01*
X146774326Y-121188174D01*
X146622946Y-121050173D01*
X146448785Y-120942337D01*
X146448776Y-120942332D01*
X146257783Y-120868342D01*
X146257773Y-120868339D01*
X146056421Y-120830700D01*
X145851579Y-120830700D01*
X145851578Y-120830700D01*
X145650226Y-120868339D01*
X145650216Y-120868342D01*
X145459223Y-120942332D01*
X145459212Y-120942338D01*
X145285052Y-121050174D01*
X145133670Y-121188178D01*
X145074820Y-121266109D01*
X145013014Y-121314295D01*
X144935395Y-121325122D01*
X144862761Y-121295690D01*
X144833180Y-121266109D01*
X144774329Y-121188178D01*
X144774326Y-121188174D01*
X144622946Y-121050173D01*
X144448785Y-120942337D01*
X144448776Y-120942332D01*
X144257783Y-120868342D01*
X144257773Y-120868339D01*
X144056421Y-120830700D01*
X143851579Y-120830700D01*
X143851578Y-120830700D01*
X143650226Y-120868339D01*
X143650216Y-120868342D01*
X143459223Y-120942332D01*
X143459212Y-120942338D01*
X143285052Y-121050174D01*
X143133667Y-121188180D01*
X143010229Y-121351640D01*
X142918923Y-121535008D01*
X142918921Y-121535014D01*
X142862866Y-121732025D01*
X142862864Y-121732034D01*
X142843965Y-121935998D01*
X142843965Y-121936001D01*
X142862864Y-122139965D01*
X142862866Y-122139974D01*
X142918921Y-122336985D01*
X142918923Y-122336991D01*
X143010229Y-122520359D01*
X143133667Y-122683819D01*
X143133672Y-122683824D01*
X143133674Y-122683826D01*
X143285054Y-122821827D01*
X143384795Y-122883584D01*
X143459211Y-122929661D01*
X143459213Y-122929661D01*
X143459215Y-122929663D01*
X143472234Y-122934706D01*
X143535493Y-122980964D01*
X143567151Y-123052656D01*
X143558721Y-123130572D01*
X143512462Y-123193833D01*
X143481528Y-123213098D01*
X143297501Y-123298912D01*
X143297500Y-123298912D01*
X143226110Y-123348899D01*
X143226110Y-123348900D01*
X143849463Y-123972253D01*
X143770657Y-123993370D01*
X143662343Y-124055905D01*
X143573905Y-124144343D01*
X143511370Y-124252657D01*
X143490253Y-124331463D01*
X142866900Y-123708110D01*
X142866899Y-123708110D01*
X142816912Y-123779500D01*
X142816912Y-123779501D01*
X142720187Y-123986926D01*
X142660950Y-124208000D01*
X142641004Y-124436000D01*
X130127500Y-124436000D01*
X130127500Y-117185995D01*
X138581041Y-117185995D01*
X138581041Y-117186004D01*
X138600854Y-117500941D01*
X138600857Y-117500965D01*
X138659987Y-117810934D01*
X138659991Y-117810949D01*
X138757509Y-118111081D01*
X138891875Y-118396623D01*
X138891885Y-118396641D01*
X139060972Y-118663079D01*
X139150042Y-118770746D01*
X140119531Y-117801255D01*
X140216829Y-117935175D01*
X140344825Y-118063171D01*
X140478742Y-118160467D01*
X139506521Y-119132688D01*
X139747488Y-119307761D01*
X140024035Y-119459793D01*
X140024039Y-119459795D01*
X140317451Y-119575965D01*
X140623118Y-119654448D01*
X140623114Y-119654448D01*
X140936198Y-119693999D01*
X140936210Y-119694000D01*
X141251790Y-119694000D01*
X141251801Y-119693999D01*
X141564883Y-119654448D01*
X141870548Y-119575965D01*
X142163960Y-119459795D01*
X142163964Y-119459793D01*
X142440511Y-119307761D01*
X142681477Y-119132688D01*
X141709257Y-118160467D01*
X141843175Y-118063171D01*
X141971171Y-117935175D01*
X142068467Y-117801256D01*
X143037956Y-118770745D01*
X143127031Y-118663073D01*
X143127034Y-118663070D01*
X143296114Y-118396641D01*
X143296124Y-118396623D01*
X143430490Y-118111081D01*
X143528008Y-117810949D01*
X143528012Y-117810934D01*
X143587142Y-117500965D01*
X143587145Y-117500941D01*
X143606959Y-117186004D01*
X143606959Y-117185995D01*
X143587145Y-116871058D01*
X143587142Y-116871034D01*
X143528012Y-116561065D01*
X143528008Y-116561050D01*
X143430490Y-116260918D01*
X143296124Y-115975376D01*
X143296114Y-115975358D01*
X143127032Y-115708928D01*
X143127028Y-115708922D01*
X143037956Y-115601253D01*
X142068466Y-116570742D01*
X141971171Y-116436825D01*
X141843175Y-116308829D01*
X141709255Y-116211531D01*
X142681476Y-115239310D01*
X142440507Y-115064236D01*
X142163964Y-114912206D01*
X142163960Y-114912204D01*
X141870548Y-114796034D01*
X141564881Y-114717551D01*
X141564885Y-114717551D01*
X141251801Y-114678000D01*
X140936198Y-114678000D01*
X140623116Y-114717551D01*
X140317451Y-114796034D01*
X140024039Y-114912204D01*
X140024035Y-114912206D01*
X139747490Y-115064237D01*
X139747486Y-115064240D01*
X139506521Y-115239310D01*
X140478743Y-116211532D01*
X140344825Y-116308829D01*
X140216829Y-116436825D01*
X140119532Y-116570743D01*
X139150042Y-115601253D01*
X139150041Y-115601253D01*
X139060976Y-115708915D01*
X139060969Y-115708925D01*
X138891885Y-115975358D01*
X138891875Y-115975376D01*
X138757509Y-116260918D01*
X138659991Y-116561050D01*
X138659987Y-116561065D01*
X138600857Y-116871034D01*
X138600854Y-116871058D01*
X138581041Y-117185995D01*
X130127500Y-117185995D01*
X130127500Y-104280000D01*
X145625149Y-104280000D01*
X145644516Y-104501375D01*
X145702032Y-104716027D01*
X145795948Y-104917427D01*
X145795949Y-104917429D01*
X145840184Y-104980603D01*
X145840185Y-104980604D01*
X146461156Y-104359631D01*
X146485792Y-104451571D01*
X146544311Y-104552930D01*
X146627070Y-104635689D01*
X146728429Y-104694208D01*
X146820367Y-104718842D01*
X146199395Y-105339814D01*
X146262570Y-105384050D01*
X146262572Y-105384051D01*
X146463973Y-105477967D01*
X146463972Y-105477967D01*
X146678624Y-105535483D01*
X146678623Y-105535483D01*
X146900000Y-105554850D01*
X147121375Y-105535483D01*
X147336027Y-105477967D01*
X147537423Y-105384054D01*
X147537433Y-105384048D01*
X147600603Y-105339814D01*
X147600603Y-105339813D01*
X146979632Y-104718842D01*
X147071571Y-104694208D01*
X147172930Y-104635689D01*
X147255689Y-104552930D01*
X147314208Y-104451571D01*
X147338842Y-104359632D01*
X147959813Y-104980603D01*
X147959814Y-104980603D01*
X148004048Y-104917433D01*
X148004054Y-104917423D01*
X148097967Y-104716027D01*
X148155483Y-104501375D01*
X148174850Y-104280000D01*
X148155483Y-104058624D01*
X148097967Y-103843972D01*
X148004051Y-103642573D01*
X147959814Y-103579394D01*
X147338842Y-104200366D01*
X147314208Y-104108429D01*
X147255689Y-104007070D01*
X147172930Y-103924311D01*
X147071571Y-103865792D01*
X146979631Y-103841156D01*
X147600604Y-103220185D01*
X147600603Y-103220184D01*
X147537429Y-103175949D01*
X147537427Y-103175948D01*
X147336026Y-103082032D01*
X147336027Y-103082032D01*
X147219787Y-103050886D01*
X147151916Y-103011701D01*
X147112731Y-102943830D01*
X147112731Y-102865460D01*
X147151916Y-102797589D01*
X147215024Y-102759764D01*
X147269299Y-102743300D01*
X147310414Y-102730828D01*
X147495829Y-102631721D01*
X147658347Y-102498347D01*
X147791721Y-102335829D01*
X147890828Y-102150414D01*
X147951857Y-101949227D01*
X147972464Y-101740000D01*
X147951857Y-101530773D01*
X147890828Y-101329586D01*
X147791721Y-101144171D01*
X147791720Y-101144169D01*
X147658351Y-100981657D01*
X147658342Y-100981648D01*
X147495830Y-100848279D01*
X147495828Y-100848278D01*
X147357069Y-100774110D01*
X147310414Y-100749172D01*
X147310411Y-100749171D01*
X147109225Y-100688142D01*
X146900000Y-100667536D01*
X146690774Y-100688142D01*
X146690773Y-100688142D01*
X146489588Y-100749171D01*
X146304171Y-100848278D01*
X146304169Y-100848279D01*
X146141657Y-100981648D01*
X146141648Y-100981657D01*
X146008279Y-101144169D01*
X146008278Y-101144171D01*
X145909171Y-101329588D01*
X145848142Y-101530773D01*
X145848142Y-101530774D01*
X145827536Y-101740000D01*
X145848142Y-101949225D01*
X145848142Y-101949226D01*
X145902627Y-102128837D01*
X145909172Y-102150414D01*
X145965124Y-102255092D01*
X146008278Y-102335828D01*
X146008279Y-102335830D01*
X146141648Y-102498342D01*
X146141657Y-102498351D01*
X146304169Y-102631720D01*
X146304171Y-102631721D01*
X146489586Y-102730828D01*
X146584976Y-102759764D01*
X146651528Y-102801149D01*
X146688472Y-102870265D01*
X146685908Y-102948594D01*
X146644523Y-103015146D01*
X146580213Y-103050886D01*
X146463971Y-103082033D01*
X146262573Y-103175948D01*
X146262566Y-103175952D01*
X146199395Y-103220184D01*
X146199395Y-103220185D01*
X146820367Y-103841157D01*
X146728429Y-103865792D01*
X146627070Y-103924311D01*
X146544311Y-104007070D01*
X146485792Y-104108429D01*
X146461157Y-104200367D01*
X145840185Y-103579395D01*
X145840184Y-103579395D01*
X145795952Y-103642566D01*
X145795948Y-103642573D01*
X145702032Y-103843972D01*
X145644516Y-104058624D01*
X145625149Y-104280000D01*
X130127500Y-104280000D01*
X130127500Y-75000000D01*
X132339847Y-75000000D01*
X132359242Y-75320646D01*
X132399169Y-75538522D01*
X132417146Y-75636616D01*
X132512714Y-75943303D01*
X132590851Y-76116919D01*
X132644550Y-76236234D01*
X132644556Y-76236243D01*
X132810740Y-76511144D01*
X133008846Y-76764007D01*
X133235992Y-76991153D01*
X133488855Y-77189259D01*
X133488858Y-77189261D01*
X133488861Y-77189263D01*
X133763765Y-77355449D01*
X134056697Y-77487286D01*
X134363384Y-77582854D01*
X134639426Y-77633440D01*
X134679353Y-77640757D01*
X134679352Y-77640757D01*
X134713957Y-77642850D01*
X135000000Y-77660153D01*
X135320646Y-77640757D01*
X135636616Y-77582854D01*
X135943303Y-77487286D01*
X136236235Y-77355449D01*
X136511139Y-77189263D01*
X136764008Y-76991153D01*
X136991153Y-76764008D01*
X137189263Y-76511139D01*
X137355449Y-76236235D01*
X137487286Y-75943303D01*
X137582854Y-75636616D01*
X137640757Y-75320646D01*
X137660153Y-75000000D01*
X202339847Y-75000000D01*
X202359242Y-75320646D01*
X202399169Y-75538522D01*
X202417146Y-75636616D01*
X202512714Y-75943303D01*
X202590851Y-76116919D01*
X202644550Y-76236234D01*
X202644556Y-76236243D01*
X202810740Y-76511144D01*
X203008846Y-76764007D01*
X203235992Y-76991153D01*
X203488855Y-77189259D01*
X203488858Y-77189261D01*
X203488861Y-77189263D01*
X203763765Y-77355449D01*
X204056697Y-77487286D01*
X204363384Y-77582854D01*
X204639426Y-77633440D01*
X204679353Y-77640757D01*
X204679352Y-77640757D01*
X204713957Y-77642850D01*
X205000000Y-77660153D01*
X205320646Y-77640757D01*
X205636616Y-77582854D01*
X205943303Y-77487286D01*
X206236235Y-77355449D01*
X206511139Y-77189263D01*
X206764008Y-76991153D01*
X206991153Y-76764008D01*
X207189263Y-76511139D01*
X207355449Y-76236235D01*
X207487286Y-75943303D01*
X207582854Y-75636616D01*
X207640757Y-75320646D01*
X207660153Y-75000000D01*
X207640757Y-74679354D01*
X207582854Y-74363384D01*
X207487286Y-74056697D01*
X207355449Y-73763765D01*
X207189263Y-73488861D01*
X207189261Y-73488858D01*
X207189259Y-73488855D01*
X206991153Y-73235992D01*
X206764007Y-73008846D01*
X206511144Y-72810740D01*
X206236243Y-72644556D01*
X206236234Y-72644550D01*
X206116919Y-72590851D01*
X205943303Y-72512714D01*
X205943296Y-72512711D01*
X205943294Y-72512711D01*
X205636619Y-72417147D01*
X205636616Y-72417146D01*
X205538522Y-72399169D01*
X205320646Y-72359242D01*
X205320647Y-72359242D01*
X205000000Y-72339847D01*
X204679353Y-72359242D01*
X204421549Y-72406486D01*
X204363384Y-72417146D01*
X204363381Y-72417146D01*
X204363380Y-72417147D01*
X204056705Y-72512711D01*
X204056699Y-72512713D01*
X204056697Y-72512714D01*
X203980724Y-72546906D01*
X203763765Y-72644550D01*
X203763756Y-72644556D01*
X203488855Y-72810740D01*
X203235992Y-73008846D01*
X203008846Y-73235992D01*
X202810740Y-73488855D01*
X202644556Y-73763756D01*
X202644550Y-73763765D01*
X202512713Y-74056700D01*
X202512711Y-74056705D01*
X202417147Y-74363380D01*
X202359242Y-74679353D01*
X202339847Y-75000000D01*
X137660153Y-75000000D01*
X137640757Y-74679354D01*
X137582854Y-74363384D01*
X137487286Y-74056697D01*
X137355449Y-73763765D01*
X137189263Y-73488861D01*
X137189261Y-73488858D01*
X137189259Y-73488855D01*
X136991153Y-73235992D01*
X136764007Y-73008846D01*
X136511144Y-72810740D01*
X136236243Y-72644556D01*
X136236234Y-72644550D01*
X136116919Y-72590851D01*
X135943303Y-72512714D01*
X135943296Y-72512711D01*
X135943294Y-72512711D01*
X135636619Y-72417147D01*
X135636616Y-72417146D01*
X135538522Y-72399169D01*
X135320646Y-72359242D01*
X135320647Y-72359242D01*
X135000000Y-72339847D01*
X134679353Y-72359242D01*
X134421549Y-72406486D01*
X134363384Y-72417146D01*
X134363381Y-72417146D01*
X134363380Y-72417147D01*
X134056705Y-72512711D01*
X134056699Y-72512713D01*
X134056697Y-72512714D01*
X133980724Y-72546906D01*
X133763765Y-72644550D01*
X133763756Y-72644556D01*
X133488855Y-72810740D01*
X133235992Y-73008846D01*
X133008846Y-73235992D01*
X132810740Y-73488855D01*
X132644556Y-73763756D01*
X132644550Y-73763765D01*
X132512713Y-74056700D01*
X132512711Y-74056705D01*
X132417147Y-74363380D01*
X132359242Y-74679353D01*
X132339847Y-75000000D01*
X130127500Y-75000000D01*
X130127500Y-70278900D01*
X130147784Y-70203200D01*
X130203200Y-70147784D01*
X130278900Y-70127500D01*
X209721100Y-70127500D01*
X209796800Y-70147784D01*
G37*
G04 #@! TD.AperFunction*
M02*
