G04 #@! TF.GenerationSoftware,KiCad,Pcbnew,8.0.6*
G04 #@! TF.CreationDate,2025-01-19T14:16:04-05:00*
G04 #@! TF.ProjectId,board_stm8_rev2,626f6172-645f-4737-946d-385f72657632,rev?*
G04 #@! TF.SameCoordinates,Original*
G04 #@! TF.FileFunction,Legend,Bot*
G04 #@! TF.FilePolarity,Positive*
%FSLAX46Y46*%
G04 Gerber Fmt 4.6, Leading zero omitted, Abs format (unit mm)*
G04 Created by KiCad (PCBNEW 8.0.6) date 2025-01-19 14:16:04*
%MOMM*%
%LPD*%
G01*
G04 APERTURE LIST*
%ADD10C,0.100000*%
%ADD11C,0.127000*%
%ADD12C,0.304800*%
%ADD13C,0.508000*%
G04 APERTURE END LIST*
D10*
X151876761Y-99892419D02*
X151876761Y-98892419D01*
X151876761Y-98892419D02*
X151543428Y-99606704D01*
X151543428Y-99606704D02*
X151210095Y-98892419D01*
X151210095Y-98892419D02*
X151210095Y-99892419D01*
X150543428Y-98892419D02*
X150352952Y-98892419D01*
X150352952Y-98892419D02*
X150257714Y-98940038D01*
X150257714Y-98940038D02*
X150162476Y-99035276D01*
X150162476Y-99035276D02*
X150114857Y-99225752D01*
X150114857Y-99225752D02*
X150114857Y-99559085D01*
X150114857Y-99559085D02*
X150162476Y-99749561D01*
X150162476Y-99749561D02*
X150257714Y-99844800D01*
X150257714Y-99844800D02*
X150352952Y-99892419D01*
X150352952Y-99892419D02*
X150543428Y-99892419D01*
X150543428Y-99892419D02*
X150638666Y-99844800D01*
X150638666Y-99844800D02*
X150733904Y-99749561D01*
X150733904Y-99749561D02*
X150781523Y-99559085D01*
X150781523Y-99559085D02*
X150781523Y-99225752D01*
X150781523Y-99225752D02*
X150733904Y-99035276D01*
X150733904Y-99035276D02*
X150638666Y-98940038D01*
X150638666Y-98940038D02*
X150543428Y-98892419D01*
X149733904Y-99844800D02*
X149591047Y-99892419D01*
X149591047Y-99892419D02*
X149352952Y-99892419D01*
X149352952Y-99892419D02*
X149257714Y-99844800D01*
X149257714Y-99844800D02*
X149210095Y-99797180D01*
X149210095Y-99797180D02*
X149162476Y-99701942D01*
X149162476Y-99701942D02*
X149162476Y-99606704D01*
X149162476Y-99606704D02*
X149210095Y-99511466D01*
X149210095Y-99511466D02*
X149257714Y-99463847D01*
X149257714Y-99463847D02*
X149352952Y-99416228D01*
X149352952Y-99416228D02*
X149543428Y-99368609D01*
X149543428Y-99368609D02*
X149638666Y-99320990D01*
X149638666Y-99320990D02*
X149686285Y-99273371D01*
X149686285Y-99273371D02*
X149733904Y-99178133D01*
X149733904Y-99178133D02*
X149733904Y-99082895D01*
X149733904Y-99082895D02*
X149686285Y-98987657D01*
X149686285Y-98987657D02*
X149638666Y-98940038D01*
X149638666Y-98940038D02*
X149543428Y-98892419D01*
X149543428Y-98892419D02*
X149305333Y-98892419D01*
X149305333Y-98892419D02*
X149162476Y-98940038D01*
X148733904Y-99892419D02*
X148733904Y-98892419D01*
X167977180Y-99844800D02*
X167834323Y-99892419D01*
X167834323Y-99892419D02*
X167596228Y-99892419D01*
X167596228Y-99892419D02*
X167500990Y-99844800D01*
X167500990Y-99844800D02*
X167453371Y-99797180D01*
X167453371Y-99797180D02*
X167405752Y-99701942D01*
X167405752Y-99701942D02*
X167405752Y-99606704D01*
X167405752Y-99606704D02*
X167453371Y-99511466D01*
X167453371Y-99511466D02*
X167500990Y-99463847D01*
X167500990Y-99463847D02*
X167596228Y-99416228D01*
X167596228Y-99416228D02*
X167786704Y-99368609D01*
X167786704Y-99368609D02*
X167881942Y-99320990D01*
X167881942Y-99320990D02*
X167929561Y-99273371D01*
X167929561Y-99273371D02*
X167977180Y-99178133D01*
X167977180Y-99178133D02*
X167977180Y-99082895D01*
X167977180Y-99082895D02*
X167929561Y-98987657D01*
X167929561Y-98987657D02*
X167881942Y-98940038D01*
X167881942Y-98940038D02*
X167786704Y-98892419D01*
X167786704Y-98892419D02*
X167548609Y-98892419D01*
X167548609Y-98892419D02*
X167405752Y-98940038D01*
X166977180Y-99892419D02*
X166977180Y-98892419D01*
X166977180Y-98892419D02*
X166739085Y-98892419D01*
X166739085Y-98892419D02*
X166596228Y-98940038D01*
X166596228Y-98940038D02*
X166500990Y-99035276D01*
X166500990Y-99035276D02*
X166453371Y-99130514D01*
X166453371Y-99130514D02*
X166405752Y-99320990D01*
X166405752Y-99320990D02*
X166405752Y-99463847D01*
X166405752Y-99463847D02*
X166453371Y-99654323D01*
X166453371Y-99654323D02*
X166500990Y-99749561D01*
X166500990Y-99749561D02*
X166596228Y-99844800D01*
X166596228Y-99844800D02*
X166739085Y-99892419D01*
X166739085Y-99892419D02*
X166977180Y-99892419D01*
X166024799Y-99606704D02*
X165548609Y-99606704D01*
X166120037Y-99892419D02*
X165786704Y-98892419D01*
X165786704Y-98892419D02*
X165453371Y-99892419D01*
X149638666Y-92151780D02*
X149686285Y-92199400D01*
X149686285Y-92199400D02*
X149829142Y-92247019D01*
X149829142Y-92247019D02*
X149924380Y-92247019D01*
X149924380Y-92247019D02*
X150067237Y-92199400D01*
X150067237Y-92199400D02*
X150162475Y-92104161D01*
X150162475Y-92104161D02*
X150210094Y-92008923D01*
X150210094Y-92008923D02*
X150257713Y-91818447D01*
X150257713Y-91818447D02*
X150257713Y-91675590D01*
X150257713Y-91675590D02*
X150210094Y-91485114D01*
X150210094Y-91485114D02*
X150162475Y-91389876D01*
X150162475Y-91389876D02*
X150067237Y-91294638D01*
X150067237Y-91294638D02*
X149924380Y-91247019D01*
X149924380Y-91247019D02*
X149829142Y-91247019D01*
X149829142Y-91247019D02*
X149686285Y-91294638D01*
X149686285Y-91294638D02*
X149638666Y-91342257D01*
X149257713Y-92199400D02*
X149114856Y-92247019D01*
X149114856Y-92247019D02*
X148876761Y-92247019D01*
X148876761Y-92247019D02*
X148781523Y-92199400D01*
X148781523Y-92199400D02*
X148733904Y-92151780D01*
X148733904Y-92151780D02*
X148686285Y-92056542D01*
X148686285Y-92056542D02*
X148686285Y-91961304D01*
X148686285Y-91961304D02*
X148733904Y-91866066D01*
X148733904Y-91866066D02*
X148781523Y-91818447D01*
X148781523Y-91818447D02*
X148876761Y-91770828D01*
X148876761Y-91770828D02*
X149067237Y-91723209D01*
X149067237Y-91723209D02*
X149162475Y-91675590D01*
X149162475Y-91675590D02*
X149210094Y-91627971D01*
X149210094Y-91627971D02*
X149257713Y-91532733D01*
X149257713Y-91532733D02*
X149257713Y-91437495D01*
X149257713Y-91437495D02*
X149210094Y-91342257D01*
X149210094Y-91342257D02*
X149162475Y-91294638D01*
X149162475Y-91294638D02*
X149067237Y-91247019D01*
X149067237Y-91247019D02*
X148829142Y-91247019D01*
X148829142Y-91247019D02*
X148686285Y-91294638D01*
X168072418Y-93812419D02*
X167500990Y-93812419D01*
X167786704Y-94812419D02*
X167786704Y-93812419D01*
X167262894Y-93812419D02*
X166596228Y-94812419D01*
X166596228Y-93812419D02*
X167262894Y-94812419D01*
X167405751Y-104020038D02*
X167500989Y-103972419D01*
X167500989Y-103972419D02*
X167643846Y-103972419D01*
X167643846Y-103972419D02*
X167786703Y-104020038D01*
X167786703Y-104020038D02*
X167881941Y-104115276D01*
X167881941Y-104115276D02*
X167929560Y-104210514D01*
X167929560Y-104210514D02*
X167977179Y-104400990D01*
X167977179Y-104400990D02*
X167977179Y-104543847D01*
X167977179Y-104543847D02*
X167929560Y-104734323D01*
X167929560Y-104734323D02*
X167881941Y-104829561D01*
X167881941Y-104829561D02*
X167786703Y-104924800D01*
X167786703Y-104924800D02*
X167643846Y-104972419D01*
X167643846Y-104972419D02*
X167548608Y-104972419D01*
X167548608Y-104972419D02*
X167405751Y-104924800D01*
X167405751Y-104924800D02*
X167358132Y-104877180D01*
X167358132Y-104877180D02*
X167358132Y-104543847D01*
X167358132Y-104543847D02*
X167548608Y-104543847D01*
X166929560Y-104972419D02*
X166929560Y-103972419D01*
X166929560Y-103972419D02*
X166358132Y-104972419D01*
X166358132Y-104972419D02*
X166358132Y-103972419D01*
X165881941Y-104972419D02*
X165881941Y-103972419D01*
X165881941Y-103972419D02*
X165643846Y-103972419D01*
X165643846Y-103972419D02*
X165500989Y-104020038D01*
X165500989Y-104020038D02*
X165405751Y-104115276D01*
X165405751Y-104115276D02*
X165358132Y-104210514D01*
X165358132Y-104210514D02*
X165310513Y-104400990D01*
X165310513Y-104400990D02*
X165310513Y-104543847D01*
X165310513Y-104543847D02*
X165358132Y-104734323D01*
X165358132Y-104734323D02*
X165405751Y-104829561D01*
X165405751Y-104829561D02*
X165500989Y-104924800D01*
X165500989Y-104924800D02*
X165643846Y-104972419D01*
X165643846Y-104972419D02*
X165881941Y-104972419D01*
X167929561Y-87319419D02*
X167929561Y-86319419D01*
X167929561Y-86319419D02*
X167548609Y-86319419D01*
X167548609Y-86319419D02*
X167453371Y-86367038D01*
X167453371Y-86367038D02*
X167405752Y-86414657D01*
X167405752Y-86414657D02*
X167358133Y-86509895D01*
X167358133Y-86509895D02*
X167358133Y-86652752D01*
X167358133Y-86652752D02*
X167405752Y-86747990D01*
X167405752Y-86747990D02*
X167453371Y-86795609D01*
X167453371Y-86795609D02*
X167548609Y-86843228D01*
X167548609Y-86843228D02*
X167929561Y-86843228D01*
X167024799Y-86319419D02*
X166786704Y-87319419D01*
X166786704Y-87319419D02*
X166596228Y-86605133D01*
X166596228Y-86605133D02*
X166405752Y-87319419D01*
X166405752Y-87319419D02*
X166167657Y-86319419D01*
X165786704Y-87319419D02*
X165786704Y-86319419D01*
X165786704Y-86319419D02*
X165453371Y-87033704D01*
X165453371Y-87033704D02*
X165120038Y-86319419D01*
X165120038Y-86319419D02*
X165120038Y-87319419D01*
X167977179Y-97304800D02*
X167834322Y-97352419D01*
X167834322Y-97352419D02*
X167596227Y-97352419D01*
X167596227Y-97352419D02*
X167500989Y-97304800D01*
X167500989Y-97304800D02*
X167453370Y-97257180D01*
X167453370Y-97257180D02*
X167405751Y-97161942D01*
X167405751Y-97161942D02*
X167405751Y-97066704D01*
X167405751Y-97066704D02*
X167453370Y-96971466D01*
X167453370Y-96971466D02*
X167500989Y-96923847D01*
X167500989Y-96923847D02*
X167596227Y-96876228D01*
X167596227Y-96876228D02*
X167786703Y-96828609D01*
X167786703Y-96828609D02*
X167881941Y-96780990D01*
X167881941Y-96780990D02*
X167929560Y-96733371D01*
X167929560Y-96733371D02*
X167977179Y-96638133D01*
X167977179Y-96638133D02*
X167977179Y-96542895D01*
X167977179Y-96542895D02*
X167929560Y-96447657D01*
X167929560Y-96447657D02*
X167881941Y-96400038D01*
X167881941Y-96400038D02*
X167786703Y-96352419D01*
X167786703Y-96352419D02*
X167548608Y-96352419D01*
X167548608Y-96352419D02*
X167405751Y-96400038D01*
X166405751Y-97257180D02*
X166453370Y-97304800D01*
X166453370Y-97304800D02*
X166596227Y-97352419D01*
X166596227Y-97352419D02*
X166691465Y-97352419D01*
X166691465Y-97352419D02*
X166834322Y-97304800D01*
X166834322Y-97304800D02*
X166929560Y-97209561D01*
X166929560Y-97209561D02*
X166977179Y-97114323D01*
X166977179Y-97114323D02*
X167024798Y-96923847D01*
X167024798Y-96923847D02*
X167024798Y-96780990D01*
X167024798Y-96780990D02*
X166977179Y-96590514D01*
X166977179Y-96590514D02*
X166929560Y-96495276D01*
X166929560Y-96495276D02*
X166834322Y-96400038D01*
X166834322Y-96400038D02*
X166691465Y-96352419D01*
X166691465Y-96352419D02*
X166596227Y-96352419D01*
X166596227Y-96352419D02*
X166453370Y-96400038D01*
X166453370Y-96400038D02*
X166405751Y-96447657D01*
X165500989Y-97352419D02*
X165977179Y-97352419D01*
X165977179Y-97352419D02*
X165977179Y-96352419D01*
X167929560Y-102051466D02*
X167167656Y-102051466D01*
X167548608Y-102432419D02*
X167548608Y-101670514D01*
X166215275Y-101432419D02*
X166691465Y-101432419D01*
X166691465Y-101432419D02*
X166739084Y-101908609D01*
X166739084Y-101908609D02*
X166691465Y-101860990D01*
X166691465Y-101860990D02*
X166596227Y-101813371D01*
X166596227Y-101813371D02*
X166358132Y-101813371D01*
X166358132Y-101813371D02*
X166262894Y-101860990D01*
X166262894Y-101860990D02*
X166215275Y-101908609D01*
X166215275Y-101908609D02*
X166167656Y-102003847D01*
X166167656Y-102003847D02*
X166167656Y-102241942D01*
X166167656Y-102241942D02*
X166215275Y-102337180D01*
X166215275Y-102337180D02*
X166262894Y-102384800D01*
X166262894Y-102384800D02*
X166358132Y-102432419D01*
X166358132Y-102432419D02*
X166596227Y-102432419D01*
X166596227Y-102432419D02*
X166691465Y-102384800D01*
X166691465Y-102384800D02*
X166739084Y-102337180D01*
X165881941Y-101432419D02*
X165548608Y-102432419D01*
X165548608Y-102432419D02*
X165215275Y-101432419D01*
X152257714Y-102026066D02*
X151495810Y-102026066D01*
X151876762Y-102407019D02*
X151876762Y-101645114D01*
X151114857Y-101407019D02*
X150495810Y-101407019D01*
X150495810Y-101407019D02*
X150829143Y-101787971D01*
X150829143Y-101787971D02*
X150686286Y-101787971D01*
X150686286Y-101787971D02*
X150591048Y-101835590D01*
X150591048Y-101835590D02*
X150543429Y-101883209D01*
X150543429Y-101883209D02*
X150495810Y-101978447D01*
X150495810Y-101978447D02*
X150495810Y-102216542D01*
X150495810Y-102216542D02*
X150543429Y-102311780D01*
X150543429Y-102311780D02*
X150591048Y-102359400D01*
X150591048Y-102359400D02*
X150686286Y-102407019D01*
X150686286Y-102407019D02*
X150972000Y-102407019D01*
X150972000Y-102407019D02*
X151067238Y-102359400D01*
X151067238Y-102359400D02*
X151114857Y-102311780D01*
X150210095Y-101407019D02*
X149876762Y-102407019D01*
X149876762Y-102407019D02*
X149543429Y-101407019D01*
X149305333Y-101407019D02*
X148686286Y-101407019D01*
X148686286Y-101407019D02*
X149019619Y-101787971D01*
X149019619Y-101787971D02*
X148876762Y-101787971D01*
X148876762Y-101787971D02*
X148781524Y-101835590D01*
X148781524Y-101835590D02*
X148733905Y-101883209D01*
X148733905Y-101883209D02*
X148686286Y-101978447D01*
X148686286Y-101978447D02*
X148686286Y-102216542D01*
X148686286Y-102216542D02*
X148733905Y-102311780D01*
X148733905Y-102311780D02*
X148781524Y-102359400D01*
X148781524Y-102359400D02*
X148876762Y-102407019D01*
X148876762Y-102407019D02*
X149162476Y-102407019D01*
X149162476Y-102407019D02*
X149257714Y-102359400D01*
X149257714Y-102359400D02*
X149305333Y-102311780D01*
X167929561Y-89732419D02*
X167929561Y-88732419D01*
X167453371Y-89732419D02*
X167453371Y-88732419D01*
X167453371Y-88732419D02*
X166881943Y-89732419D01*
X166881943Y-89732419D02*
X166881943Y-88732419D01*
X166548609Y-88732419D02*
X165977181Y-88732419D01*
X166262895Y-89732419D02*
X166262895Y-88732419D01*
X151876761Y-97327019D02*
X151876761Y-96327019D01*
X151876761Y-96327019D02*
X151543428Y-97041304D01*
X151543428Y-97041304D02*
X151210095Y-96327019D01*
X151210095Y-96327019D02*
X151210095Y-97327019D01*
X150733904Y-97327019D02*
X150733904Y-96327019D01*
X150305333Y-97279400D02*
X150162476Y-97327019D01*
X150162476Y-97327019D02*
X149924381Y-97327019D01*
X149924381Y-97327019D02*
X149829143Y-97279400D01*
X149829143Y-97279400D02*
X149781524Y-97231780D01*
X149781524Y-97231780D02*
X149733905Y-97136542D01*
X149733905Y-97136542D02*
X149733905Y-97041304D01*
X149733905Y-97041304D02*
X149781524Y-96946066D01*
X149781524Y-96946066D02*
X149829143Y-96898447D01*
X149829143Y-96898447D02*
X149924381Y-96850828D01*
X149924381Y-96850828D02*
X150114857Y-96803209D01*
X150114857Y-96803209D02*
X150210095Y-96755590D01*
X150210095Y-96755590D02*
X150257714Y-96707971D01*
X150257714Y-96707971D02*
X150305333Y-96612733D01*
X150305333Y-96612733D02*
X150305333Y-96517495D01*
X150305333Y-96517495D02*
X150257714Y-96422257D01*
X150257714Y-96422257D02*
X150210095Y-96374638D01*
X150210095Y-96374638D02*
X150114857Y-96327019D01*
X150114857Y-96327019D02*
X149876762Y-96327019D01*
X149876762Y-96327019D02*
X149733905Y-96374638D01*
X149114857Y-96327019D02*
X148924381Y-96327019D01*
X148924381Y-96327019D02*
X148829143Y-96374638D01*
X148829143Y-96374638D02*
X148733905Y-96469876D01*
X148733905Y-96469876D02*
X148686286Y-96660352D01*
X148686286Y-96660352D02*
X148686286Y-96993685D01*
X148686286Y-96993685D02*
X148733905Y-97184161D01*
X148733905Y-97184161D02*
X148829143Y-97279400D01*
X148829143Y-97279400D02*
X148924381Y-97327019D01*
X148924381Y-97327019D02*
X149114857Y-97327019D01*
X149114857Y-97327019D02*
X149210095Y-97279400D01*
X149210095Y-97279400D02*
X149305333Y-97184161D01*
X149305333Y-97184161D02*
X149352952Y-96993685D01*
X149352952Y-96993685D02*
X149352952Y-96660352D01*
X149352952Y-96660352D02*
X149305333Y-96469876D01*
X149305333Y-96469876D02*
X149210095Y-96374638D01*
X149210095Y-96374638D02*
X149114857Y-96327019D01*
X150400572Y-89732419D02*
X150733905Y-89256228D01*
X150972000Y-89732419D02*
X150972000Y-88732419D01*
X150972000Y-88732419D02*
X150591048Y-88732419D01*
X150591048Y-88732419D02*
X150495810Y-88780038D01*
X150495810Y-88780038D02*
X150448191Y-88827657D01*
X150448191Y-88827657D02*
X150400572Y-88922895D01*
X150400572Y-88922895D02*
X150400572Y-89065752D01*
X150400572Y-89065752D02*
X150448191Y-89160990D01*
X150448191Y-89160990D02*
X150495810Y-89208609D01*
X150495810Y-89208609D02*
X150591048Y-89256228D01*
X150591048Y-89256228D02*
X150972000Y-89256228D01*
X150019619Y-89684800D02*
X149876762Y-89732419D01*
X149876762Y-89732419D02*
X149638667Y-89732419D01*
X149638667Y-89732419D02*
X149543429Y-89684800D01*
X149543429Y-89684800D02*
X149495810Y-89637180D01*
X149495810Y-89637180D02*
X149448191Y-89541942D01*
X149448191Y-89541942D02*
X149448191Y-89446704D01*
X149448191Y-89446704D02*
X149495810Y-89351466D01*
X149495810Y-89351466D02*
X149543429Y-89303847D01*
X149543429Y-89303847D02*
X149638667Y-89256228D01*
X149638667Y-89256228D02*
X149829143Y-89208609D01*
X149829143Y-89208609D02*
X149924381Y-89160990D01*
X149924381Y-89160990D02*
X149972000Y-89113371D01*
X149972000Y-89113371D02*
X150019619Y-89018133D01*
X150019619Y-89018133D02*
X150019619Y-88922895D01*
X150019619Y-88922895D02*
X149972000Y-88827657D01*
X149972000Y-88827657D02*
X149924381Y-88780038D01*
X149924381Y-88780038D02*
X149829143Y-88732419D01*
X149829143Y-88732419D02*
X149591048Y-88732419D01*
X149591048Y-88732419D02*
X149448191Y-88780038D01*
X149162476Y-88732419D02*
X148591048Y-88732419D01*
X148876762Y-89732419D02*
X148876762Y-88732419D01*
X151257713Y-94764800D02*
X151114856Y-94812419D01*
X151114856Y-94812419D02*
X150876761Y-94812419D01*
X150876761Y-94812419D02*
X150781523Y-94764800D01*
X150781523Y-94764800D02*
X150733904Y-94717180D01*
X150733904Y-94717180D02*
X150686285Y-94621942D01*
X150686285Y-94621942D02*
X150686285Y-94526704D01*
X150686285Y-94526704D02*
X150733904Y-94431466D01*
X150733904Y-94431466D02*
X150781523Y-94383847D01*
X150781523Y-94383847D02*
X150876761Y-94336228D01*
X150876761Y-94336228D02*
X151067237Y-94288609D01*
X151067237Y-94288609D02*
X151162475Y-94240990D01*
X151162475Y-94240990D02*
X151210094Y-94193371D01*
X151210094Y-94193371D02*
X151257713Y-94098133D01*
X151257713Y-94098133D02*
X151257713Y-94002895D01*
X151257713Y-94002895D02*
X151210094Y-93907657D01*
X151210094Y-93907657D02*
X151162475Y-93860038D01*
X151162475Y-93860038D02*
X151067237Y-93812419D01*
X151067237Y-93812419D02*
X150829142Y-93812419D01*
X150829142Y-93812419D02*
X150686285Y-93860038D01*
X149686285Y-94717180D02*
X149733904Y-94764800D01*
X149733904Y-94764800D02*
X149876761Y-94812419D01*
X149876761Y-94812419D02*
X149971999Y-94812419D01*
X149971999Y-94812419D02*
X150114856Y-94764800D01*
X150114856Y-94764800D02*
X150210094Y-94669561D01*
X150210094Y-94669561D02*
X150257713Y-94574323D01*
X150257713Y-94574323D02*
X150305332Y-94383847D01*
X150305332Y-94383847D02*
X150305332Y-94240990D01*
X150305332Y-94240990D02*
X150257713Y-94050514D01*
X150257713Y-94050514D02*
X150210094Y-93955276D01*
X150210094Y-93955276D02*
X150114856Y-93860038D01*
X150114856Y-93860038D02*
X149971999Y-93812419D01*
X149971999Y-93812419D02*
X149876761Y-93812419D01*
X149876761Y-93812419D02*
X149733904Y-93860038D01*
X149733904Y-93860038D02*
X149686285Y-93907657D01*
X149257713Y-94812419D02*
X149257713Y-93812419D01*
X148686285Y-94812419D02*
X149114856Y-94240990D01*
X148686285Y-93812419D02*
X149257713Y-94383847D01*
X150210095Y-86906704D02*
X149733905Y-86906704D01*
X150305333Y-87192419D02*
X149972000Y-86192419D01*
X149972000Y-86192419D02*
X149638667Y-87192419D01*
X149305333Y-87192419D02*
X149305333Y-86192419D01*
X149305333Y-86192419D02*
X148733905Y-87192419D01*
X148733905Y-87192419D02*
X148733905Y-86192419D01*
X167358132Y-92272419D02*
X167691465Y-91796228D01*
X167929560Y-92272419D02*
X167929560Y-91272419D01*
X167929560Y-91272419D02*
X167548608Y-91272419D01*
X167548608Y-91272419D02*
X167453370Y-91320038D01*
X167453370Y-91320038D02*
X167405751Y-91367657D01*
X167405751Y-91367657D02*
X167358132Y-91462895D01*
X167358132Y-91462895D02*
X167358132Y-91605752D01*
X167358132Y-91605752D02*
X167405751Y-91700990D01*
X167405751Y-91700990D02*
X167453370Y-91748609D01*
X167453370Y-91748609D02*
X167548608Y-91796228D01*
X167548608Y-91796228D02*
X167929560Y-91796228D01*
X167024798Y-91272419D02*
X166358132Y-92272419D01*
X166358132Y-91272419D02*
X167024798Y-92272419D01*
X161583332Y-80457419D02*
X161583332Y-79790752D01*
X161583332Y-79885990D02*
X161535713Y-79838371D01*
X161535713Y-79838371D02*
X161440475Y-79790752D01*
X161440475Y-79790752D02*
X161297618Y-79790752D01*
X161297618Y-79790752D02*
X161202380Y-79838371D01*
X161202380Y-79838371D02*
X161154761Y-79933609D01*
X161154761Y-79933609D02*
X161154761Y-80457419D01*
X161154761Y-79933609D02*
X161107142Y-79838371D01*
X161107142Y-79838371D02*
X161011904Y-79790752D01*
X161011904Y-79790752D02*
X160869047Y-79790752D01*
X160869047Y-79790752D02*
X160773808Y-79838371D01*
X160773808Y-79838371D02*
X160726189Y-79933609D01*
X160726189Y-79933609D02*
X160726189Y-80457419D01*
X160249999Y-80457419D02*
X160249999Y-79790752D01*
X160249999Y-79457419D02*
X160297618Y-79505038D01*
X160297618Y-79505038D02*
X160249999Y-79552657D01*
X160249999Y-79552657D02*
X160202380Y-79505038D01*
X160202380Y-79505038D02*
X160249999Y-79457419D01*
X160249999Y-79457419D02*
X160249999Y-79552657D01*
X159773809Y-80457419D02*
X159773809Y-79457419D01*
X159678571Y-80076466D02*
X159392857Y-80457419D01*
X159392857Y-79790752D02*
X159773809Y-80171704D01*
X158964285Y-80457419D02*
X158964285Y-79790752D01*
X158964285Y-79981228D02*
X158916666Y-79885990D01*
X158916666Y-79885990D02*
X158869047Y-79838371D01*
X158869047Y-79838371D02*
X158773809Y-79790752D01*
X158773809Y-79790752D02*
X158678571Y-79790752D01*
X158202380Y-80457419D02*
X158297618Y-80409800D01*
X158297618Y-80409800D02*
X158345237Y-80362180D01*
X158345237Y-80362180D02*
X158392856Y-80266942D01*
X158392856Y-80266942D02*
X158392856Y-79981228D01*
X158392856Y-79981228D02*
X158345237Y-79885990D01*
X158345237Y-79885990D02*
X158297618Y-79838371D01*
X158297618Y-79838371D02*
X158202380Y-79790752D01*
X158202380Y-79790752D02*
X158059523Y-79790752D01*
X158059523Y-79790752D02*
X157964285Y-79838371D01*
X157964285Y-79838371D02*
X157916666Y-79885990D01*
X157916666Y-79885990D02*
X157869047Y-79981228D01*
X157869047Y-79981228D02*
X157869047Y-80266942D01*
X157869047Y-80266942D02*
X157916666Y-80362180D01*
X157916666Y-80362180D02*
X157964285Y-80409800D01*
X157964285Y-80409800D02*
X158059523Y-80457419D01*
X158059523Y-80457419D02*
X158202380Y-80457419D01*
X157107142Y-79933609D02*
X156964285Y-79981228D01*
X156964285Y-79981228D02*
X156916666Y-80028847D01*
X156916666Y-80028847D02*
X156869047Y-80124085D01*
X156869047Y-80124085D02*
X156869047Y-80266942D01*
X156869047Y-80266942D02*
X156916666Y-80362180D01*
X156916666Y-80362180D02*
X156964285Y-80409800D01*
X156964285Y-80409800D02*
X157059523Y-80457419D01*
X157059523Y-80457419D02*
X157440475Y-80457419D01*
X157440475Y-80457419D02*
X157440475Y-79457419D01*
X157440475Y-79457419D02*
X157107142Y-79457419D01*
X157107142Y-79457419D02*
X157011904Y-79505038D01*
X157011904Y-79505038D02*
X156964285Y-79552657D01*
X156964285Y-79552657D02*
X156916666Y-79647895D01*
X156916666Y-79647895D02*
X156916666Y-79743133D01*
X156916666Y-79743133D02*
X156964285Y-79838371D01*
X156964285Y-79838371D02*
X157011904Y-79885990D01*
X157011904Y-79885990D02*
X157107142Y-79933609D01*
X157107142Y-79933609D02*
X157440475Y-79933609D01*
X156440475Y-79457419D02*
X156440475Y-80266942D01*
X156440475Y-80266942D02*
X156392856Y-80362180D01*
X156392856Y-80362180D02*
X156345237Y-80409800D01*
X156345237Y-80409800D02*
X156249999Y-80457419D01*
X156249999Y-80457419D02*
X156059523Y-80457419D01*
X156059523Y-80457419D02*
X155964285Y-80409800D01*
X155964285Y-80409800D02*
X155916666Y-80362180D01*
X155916666Y-80362180D02*
X155869047Y-80266942D01*
X155869047Y-80266942D02*
X155869047Y-79457419D01*
X155440475Y-80409800D02*
X155297618Y-80457419D01*
X155297618Y-80457419D02*
X155059523Y-80457419D01*
X155059523Y-80457419D02*
X154964285Y-80409800D01*
X154964285Y-80409800D02*
X154916666Y-80362180D01*
X154916666Y-80362180D02*
X154869047Y-80266942D01*
X154869047Y-80266942D02*
X154869047Y-80171704D01*
X154869047Y-80171704D02*
X154916666Y-80076466D01*
X154916666Y-80076466D02*
X154964285Y-80028847D01*
X154964285Y-80028847D02*
X155059523Y-79981228D01*
X155059523Y-79981228D02*
X155249999Y-79933609D01*
X155249999Y-79933609D02*
X155345237Y-79885990D01*
X155345237Y-79885990D02*
X155392856Y-79838371D01*
X155392856Y-79838371D02*
X155440475Y-79743133D01*
X155440475Y-79743133D02*
X155440475Y-79647895D01*
X155440475Y-79647895D02*
X155392856Y-79552657D01*
X155392856Y-79552657D02*
X155345237Y-79505038D01*
X155345237Y-79505038D02*
X155249999Y-79457419D01*
X155249999Y-79457419D02*
X155011904Y-79457419D01*
X155011904Y-79457419D02*
X154869047Y-79505038D01*
X157578571Y-79179800D02*
X154778571Y-79179800D01*
X150781523Y-104020038D02*
X150876761Y-103972419D01*
X150876761Y-103972419D02*
X151019618Y-103972419D01*
X151019618Y-103972419D02*
X151162475Y-104020038D01*
X151162475Y-104020038D02*
X151257713Y-104115276D01*
X151257713Y-104115276D02*
X151305332Y-104210514D01*
X151305332Y-104210514D02*
X151352951Y-104400990D01*
X151352951Y-104400990D02*
X151352951Y-104543847D01*
X151352951Y-104543847D02*
X151305332Y-104734323D01*
X151305332Y-104734323D02*
X151257713Y-104829561D01*
X151257713Y-104829561D02*
X151162475Y-104924800D01*
X151162475Y-104924800D02*
X151019618Y-104972419D01*
X151019618Y-104972419D02*
X150924380Y-104972419D01*
X150924380Y-104972419D02*
X150781523Y-104924800D01*
X150781523Y-104924800D02*
X150733904Y-104877180D01*
X150733904Y-104877180D02*
X150733904Y-104543847D01*
X150733904Y-104543847D02*
X150924380Y-104543847D01*
X150305332Y-104972419D02*
X150305332Y-103972419D01*
X150305332Y-103972419D02*
X149733904Y-104972419D01*
X149733904Y-104972419D02*
X149733904Y-103972419D01*
X149257713Y-104972419D02*
X149257713Y-103972419D01*
X149257713Y-103972419D02*
X149019618Y-103972419D01*
X149019618Y-103972419D02*
X148876761Y-104020038D01*
X148876761Y-104020038D02*
X148781523Y-104115276D01*
X148781523Y-104115276D02*
X148733904Y-104210514D01*
X148733904Y-104210514D02*
X148686285Y-104400990D01*
X148686285Y-104400990D02*
X148686285Y-104543847D01*
X148686285Y-104543847D02*
X148733904Y-104734323D01*
X148733904Y-104734323D02*
X148781523Y-104829561D01*
X148781523Y-104829561D02*
X148876761Y-104924800D01*
X148876761Y-104924800D02*
X149019618Y-104972419D01*
X149019618Y-104972419D02*
X149257713Y-104972419D01*
X158699999Y-102345276D02*
X158699999Y-103297657D01*
X159533333Y-102916704D02*
X158699999Y-103297657D01*
X158699999Y-103297657D02*
X157866666Y-102916704D01*
X159199999Y-104059561D02*
X158699999Y-103297657D01*
X158699999Y-103297657D02*
X158199999Y-104059561D01*
D11*
X145620000Y-105530000D02*
X145620000Y-108150000D01*
X145620000Y-108150000D02*
X168490000Y-108130000D01*
X145630000Y-85230000D02*
X145630000Y-87770000D01*
X145630000Y-87770000D02*
X145630000Y-105550000D01*
X145630000Y-87770000D02*
X148170000Y-87770000D01*
X145630000Y-105550000D02*
X148170000Y-105550000D01*
X148170000Y-85230000D02*
X145630000Y-85230000D01*
X148170000Y-87770000D02*
X148170000Y-85230000D01*
X148170000Y-105550000D02*
X148170000Y-87770000D01*
D12*
X155949000Y-83020200D02*
X155949000Y-84544200D01*
X157092000Y-83020200D02*
X155949000Y-83020200D01*
X157092000Y-83020200D02*
X157092000Y-81369200D01*
X158235000Y-83020200D02*
X157092000Y-83020200D01*
X158235000Y-83020200D02*
X158235000Y-84544200D01*
X159378000Y-83020200D02*
X158235000Y-83020200D01*
X159378000Y-83020200D02*
X159378000Y-81369200D01*
X160394000Y-83020200D02*
X159378000Y-83020200D01*
X160394000Y-83020200D02*
X160394000Y-84544200D01*
D11*
X168490000Y-85230000D02*
X168490000Y-87770000D01*
X168490000Y-85230000D02*
X171030000Y-85230000D01*
X168490000Y-87770000D02*
X168490000Y-105550000D01*
X168490000Y-87770000D02*
X171030000Y-87770000D01*
X168490000Y-105550000D02*
X171030000Y-105550000D01*
X171030000Y-85230000D02*
X171030000Y-105550000D01*
X171030000Y-105550000D02*
X168490000Y-108140000D01*
D13*
X156177600Y-84544200D02*
G75*
G02*
X155720400Y-84544200I-228600J0D01*
G01*
X155720400Y-84544200D02*
G75*
G02*
X156177600Y-84544200I228600J0D01*
G01*
X157320600Y-81369200D02*
G75*
G02*
X156863400Y-81369200I-228600J0D01*
G01*
X156863400Y-81369200D02*
G75*
G02*
X157320600Y-81369200I228600J0D01*
G01*
X158463600Y-84544200D02*
G75*
G02*
X158006400Y-84544200I-228600J0D01*
G01*
X158006400Y-84544200D02*
G75*
G02*
X158463600Y-84544200I228600J0D01*
G01*
X159606600Y-81369200D02*
G75*
G02*
X159149400Y-81369200I-228600J0D01*
G01*
X159149400Y-81369200D02*
G75*
G02*
X159606600Y-81369200I228600J0D01*
G01*
X160622600Y-84544200D02*
G75*
G02*
X160165400Y-84544200I-228600J0D01*
G01*
X160165400Y-84544200D02*
G75*
G02*
X160622600Y-84544200I228600J0D01*
G01*
M02*
