G04 #@! TF.GenerationSoftware,KiCad,Pcbnew,8.0.6*
G04 #@! TF.CreationDate,2025-01-19T14:16:04-05:00*
G04 #@! TF.ProjectId,board_stm8_rev2,626f6172-645f-4737-946d-385f72657632,rev?*
G04 #@! TF.SameCoordinates,Original*
G04 #@! TF.FileFunction,Paste,Top*
G04 #@! TF.FilePolarity,Positive*
%FSLAX46Y46*%
G04 Gerber Fmt 4.6, Leading zero omitted, Abs format (unit mm)*
G04 Created by KiCad (PCBNEW 8.0.6) date 2025-01-19 14:16:04*
%MOMM*%
%LPD*%
G01*
G04 APERTURE LIST*
G04 Aperture macros list*
%AMRoundRect*
0 Rectangle with rounded corners*
0 $1 Rounding radius*
0 $2 $3 $4 $5 $6 $7 $8 $9 X,Y pos of 4 corners*
0 Add a 4 corners polygon primitive as box body*
4,1,4,$2,$3,$4,$5,$6,$7,$8,$9,$2,$3,0*
0 Add four circle primitives for the rounded corners*
1,1,$1+$1,$2,$3*
1,1,$1+$1,$4,$5*
1,1,$1+$1,$6,$7*
1,1,$1+$1,$8,$9*
0 Add four rect primitives between the rounded corners*
20,1,$1+$1,$2,$3,$4,$5,0*
20,1,$1+$1,$4,$5,$6,$7,0*
20,1,$1+$1,$6,$7,$8,$9,0*
20,1,$1+$1,$8,$9,$2,$3,0*%
G04 Aperture macros list end*
%ADD10RoundRect,0.250000X-0.475000X0.337500X-0.475000X-0.337500X0.475000X-0.337500X0.475000X0.337500X0*%
%ADD11RoundRect,0.250000X-0.337500X-0.475000X0.337500X-0.475000X0.337500X0.475000X-0.337500X0.475000X0*%
%ADD12R,1.473200X0.355600*%
%ADD13RoundRect,0.150000X-0.825000X-0.150000X0.825000X-0.150000X0.825000X0.150000X-0.825000X0.150000X0*%
%ADD14RoundRect,0.250000X0.337500X0.475000X-0.337500X0.475000X-0.337500X-0.475000X0.337500X-0.475000X0*%
G04 APERTURE END LIST*
D10*
X184500000Y-97825000D03*
X184500000Y-99900000D03*
D11*
X179824500Y-105500000D03*
X181899500Y-105500000D03*
X179362500Y-88600000D03*
X181437500Y-88600000D03*
D12*
X193021000Y-92475002D03*
X193021000Y-93125001D03*
X193021000Y-93775002D03*
X193021000Y-94425001D03*
X193021000Y-95075002D03*
X193021000Y-95725001D03*
X193021000Y-96375002D03*
X193021000Y-97025001D03*
X193021000Y-97675002D03*
X193021000Y-98325000D03*
X187179000Y-98324998D03*
X187179000Y-97674999D03*
X187179000Y-97024998D03*
X187179000Y-96374999D03*
X187179000Y-95724998D03*
X187179000Y-95074999D03*
X187179000Y-94425001D03*
X187179000Y-93774999D03*
X187179000Y-93125001D03*
X187179000Y-92475000D03*
D11*
X157235500Y-115419000D03*
X159310500Y-115419000D03*
D13*
X162910000Y-116054000D03*
X162910000Y-117324000D03*
X162910000Y-118594000D03*
X162910000Y-119864000D03*
X162910000Y-121134000D03*
X162910000Y-122404000D03*
X162910000Y-123674000D03*
X162910000Y-124944000D03*
X167860000Y-124944000D03*
X167860000Y-123674000D03*
X167860000Y-122404000D03*
X167860000Y-121134000D03*
X167860000Y-119864000D03*
X167860000Y-118594000D03*
X167860000Y-117324000D03*
X167860000Y-116054000D03*
D14*
X167637500Y-113500000D03*
X165562500Y-113500000D03*
D11*
X162696500Y-128373000D03*
X164771500Y-128373000D03*
D10*
X153066000Y-122001500D03*
X153066000Y-124076500D03*
M02*
