G04 #@! TF.GenerationSoftware,KiCad,Pcbnew,8.0.6*
G04 #@! TF.CreationDate,2025-01-19T14:16:04-05:00*
G04 #@! TF.ProjectId,board_stm8_rev2,626f6172-645f-4737-946d-385f72657632,rev?*
G04 #@! TF.SameCoordinates,Original*
G04 #@! TF.FileFunction,Copper,L2,Bot*
G04 #@! TF.FilePolarity,Positive*
%FSLAX46Y46*%
G04 Gerber Fmt 4.6, Leading zero omitted, Abs format (unit mm)*
G04 Created by KiCad (PCBNEW 8.0.6) date 2025-01-19 14:16:04*
%MOMM*%
%LPD*%
G01*
G04 APERTURE LIST*
G04 #@! TA.AperFunction,ComponentPad*
%ADD10R,1.676400X1.676400*%
G04 #@! TD*
G04 #@! TA.AperFunction,ComponentPad*
%ADD11C,1.524000*%
G04 #@! TD*
G04 #@! TA.AperFunction,ComponentPad*
%ADD12R,1.524000X1.524000*%
G04 #@! TD*
G04 #@! TA.AperFunction,ComponentPad*
%ADD13C,1.200000*%
G04 #@! TD*
G04 #@! TA.AperFunction,ComponentPad*
%ADD14C,1.500000*%
G04 #@! TD*
G04 #@! TA.AperFunction,ComponentPad*
%ADD15C,2.020000*%
G04 #@! TD*
G04 #@! TA.AperFunction,ComponentPad*
%ADD16R,1.600000X1.600000*%
G04 #@! TD*
G04 #@! TA.AperFunction,ComponentPad*
%ADD17C,1.600000*%
G04 #@! TD*
G04 #@! TA.AperFunction,ComponentPad*
%ADD18C,4.000000*%
G04 #@! TD*
G04 #@! TA.AperFunction,ComponentPad*
%ADD19C,4.700000*%
G04 #@! TD*
G04 #@! TA.AperFunction,ViaPad*
%ADD20C,0.800000*%
G04 #@! TD*
G04 #@! TA.AperFunction,Conductor*
%ADD21C,0.250000*%
G04 #@! TD*
G04 APERTURE END LIST*
D10*
X146900000Y-86500000D03*
D11*
X146900000Y-89040000D03*
X146900000Y-91580000D03*
X146900000Y-94120000D03*
X146900000Y-96660000D03*
X146900000Y-99200000D03*
X146900000Y-101740000D03*
X146900000Y-104280000D03*
X169760000Y-104280000D03*
X169760000Y-101740000D03*
X169760000Y-99200000D03*
X169760000Y-96660000D03*
X169760000Y-94120000D03*
X169760000Y-91580000D03*
X169760000Y-89040000D03*
D12*
X169760000Y-86500000D03*
D13*
X188200000Y-103800000D03*
X186200000Y-103800000D03*
D14*
X179700000Y-94400000D03*
X179700000Y-99280000D03*
D15*
X193500000Y-78300000D03*
X190960000Y-78300000D03*
X188420000Y-78300000D03*
X185880000Y-78300000D03*
D14*
X157892000Y-126849000D03*
X157892000Y-121969000D03*
D16*
X145954000Y-124436000D03*
D17*
X145954000Y-121936000D03*
X143954000Y-121936000D03*
X143954000Y-124436000D03*
D18*
X141094000Y-129186000D03*
X141094000Y-117186000D03*
D19*
X135000000Y-75000000D03*
X205000000Y-75000000D03*
X205000000Y-145000000D03*
X135000000Y-145000000D03*
D20*
X185184500Y-94067500D03*
X190469000Y-98709300D03*
X192377900Y-100109800D03*
X191315400Y-97815300D03*
X183149400Y-100847600D03*
X161193600Y-122778900D03*
X153600000Y-118650000D03*
X183057700Y-98372100D03*
D21*
X145954000Y-121936000D02*
X147890000Y-120000000D01*
X147890000Y-120000000D02*
X158414700Y-120000000D01*
X158414700Y-120000000D02*
X161193600Y-122778900D01*
X153600000Y-118650000D02*
X153550000Y-118600000D01*
X153550000Y-118600000D02*
X147290000Y-118600000D01*
X147290000Y-118600000D02*
X143954000Y-121936000D01*
X183149400Y-100847600D02*
X169760000Y-87458200D01*
X169760000Y-87458200D02*
X169760000Y-86500000D01*
X185184500Y-78995500D02*
X185880000Y-78300000D01*
X185184500Y-94067500D02*
X185184500Y-78995500D01*
X168658300Y-100301700D02*
X169760000Y-99200000D01*
X168658300Y-102269100D02*
X168658300Y-100301700D01*
X169228000Y-102838800D02*
X168658300Y-102269100D01*
X184961400Y-102838800D02*
X169228000Y-102838800D01*
X189090900Y-98709300D02*
X184961400Y-102838800D01*
X190469000Y-98709300D02*
X189090900Y-98709300D01*
X192377900Y-100968000D02*
X192377900Y-100109800D01*
X187500700Y-105845200D02*
X192377900Y-100968000D01*
X163705200Y-105845200D02*
X187500700Y-105845200D01*
X146900000Y-89040000D02*
X163705200Y-105845200D01*
X168206600Y-98213400D02*
X169760000Y-96660000D01*
X168206600Y-104274000D02*
X168206600Y-98213400D01*
X169301300Y-105368700D02*
X168206600Y-104274000D01*
X183195100Y-105368700D02*
X169301300Y-105368700D01*
X185817400Y-102746400D02*
X183195100Y-105368700D01*
X187463500Y-102746400D02*
X185817400Y-102746400D01*
X191315400Y-98894500D02*
X187463500Y-102746400D01*
X191315400Y-97815300D02*
X191315400Y-98894500D01*
X193500000Y-87929800D02*
X183057700Y-98372100D01*
X193500000Y-78300000D02*
X193500000Y-87929800D01*
X183447800Y-98762200D02*
X183057700Y-98372100D01*
X183447800Y-100118400D02*
X183447800Y-98762200D01*
X183447900Y-100118400D02*
X183447800Y-100118400D01*
X183876100Y-100546600D02*
X183447900Y-100118400D01*
X183876100Y-101148600D02*
X183876100Y-100546600D01*
X183284700Y-101740000D02*
X183876100Y-101148600D01*
X169760000Y-101740000D02*
X183284700Y-101740000D01*
G04 #@! TA.AperFunction,Conductor*
G36*
X185900000Y-103760504D02*
G01*
X185900000Y-103839496D01*
X185920444Y-103915796D01*
X185959940Y-103984205D01*
X186015795Y-104040060D01*
X186084204Y-104079556D01*
X186160504Y-104100000D01*
X186239496Y-104100000D01*
X186315796Y-104079556D01*
X186384205Y-104040060D01*
X186440060Y-103984205D01*
X186479556Y-103915796D01*
X186500000Y-103839496D01*
X186500000Y-103760504D01*
X186492784Y-103733574D01*
X187145611Y-104386401D01*
X187145611Y-104386400D01*
X187146074Y-104385790D01*
X187146074Y-104385789D01*
X187180987Y-104315676D01*
X187232887Y-104256954D01*
X187307194Y-104232048D01*
X187384000Y-104247633D01*
X187442722Y-104299533D01*
X187447631Y-104307460D01*
X187463562Y-104335053D01*
X187590899Y-104476475D01*
X187675872Y-104538212D01*
X187744854Y-104588331D01*
X187744858Y-104588333D01*
X187823273Y-104623245D01*
X187884178Y-104672564D01*
X187912264Y-104745729D01*
X187900005Y-104823135D01*
X187868750Y-104868612D01*
X187366808Y-105370556D01*
X187298937Y-105409741D01*
X187259752Y-105414900D01*
X184122948Y-105414900D01*
X184047248Y-105394616D01*
X183991832Y-105339200D01*
X183971548Y-105263500D01*
X183991832Y-105187800D01*
X184015892Y-105156444D01*
X184239095Y-104933241D01*
X184430121Y-104742215D01*
X185616994Y-104742215D01*
X185704007Y-104796091D01*
X185895477Y-104870267D01*
X185895485Y-104870269D01*
X186097326Y-104907999D01*
X186097333Y-104908000D01*
X186302667Y-104908000D01*
X186302673Y-104907999D01*
X186504514Y-104870269D01*
X186504522Y-104870267D01*
X186695988Y-104796092D01*
X186695999Y-104796087D01*
X186783004Y-104742215D01*
X186783004Y-104742214D01*
X186200000Y-104159210D01*
X185616994Y-104742215D01*
X184430121Y-104742215D01*
X184949773Y-104222562D01*
X185017640Y-104183380D01*
X185096010Y-104183380D01*
X185163881Y-104222565D01*
X185192353Y-104262137D01*
X185253921Y-104385784D01*
X185254387Y-104386401D01*
X185907216Y-103733571D01*
X185900000Y-103760504D01*
G37*
G04 #@! TD.AperFunction*
G04 #@! TA.AperFunction,Conductor*
G36*
X168864000Y-103090632D02*
G01*
X168895356Y-103114692D01*
X168963790Y-103183126D01*
X168983834Y-103194698D01*
X168983836Y-103194700D01*
X169061909Y-103239776D01*
X169063235Y-103240325D01*
X169065616Y-103241915D01*
X169070504Y-103244738D01*
X169070319Y-103245058D01*
X169112355Y-103273145D01*
X169680367Y-103841157D01*
X169588429Y-103865792D01*
X169487070Y-103924311D01*
X169404311Y-104007070D01*
X169345792Y-104108429D01*
X169321157Y-104200367D01*
X168681244Y-103560454D01*
X168642059Y-103492583D01*
X168636900Y-103453398D01*
X168636900Y-103221748D01*
X168657184Y-103146048D01*
X168712600Y-103090632D01*
X168788300Y-103070348D01*
X168864000Y-103090632D01*
G37*
G04 #@! TD.AperFunction*
G04 #@! TA.AperFunction,Conductor*
G36*
X209796800Y-70147784D02*
G01*
X209852216Y-70203200D01*
X209872500Y-70278900D01*
X209872500Y-149721100D01*
X209852216Y-149796800D01*
X209796800Y-149852216D01*
X209721100Y-149872500D01*
X130278900Y-149872500D01*
X130203200Y-149852216D01*
X130147784Y-149796800D01*
X130127500Y-149721100D01*
X130127500Y-145000000D01*
X132339847Y-145000000D01*
X132359242Y-145320646D01*
X132399169Y-145538522D01*
X132417146Y-145636616D01*
X132512714Y-145943303D01*
X132590851Y-146116919D01*
X132644550Y-146236234D01*
X132644556Y-146236243D01*
X132810740Y-146511144D01*
X133008846Y-146764007D01*
X133235992Y-146991153D01*
X133488855Y-147189259D01*
X133488858Y-147189261D01*
X133488861Y-147189263D01*
X133763765Y-147355449D01*
X134056697Y-147487286D01*
X134363384Y-147582854D01*
X134639426Y-147633440D01*
X134679353Y-147640757D01*
X134679352Y-147640757D01*
X134713957Y-147642850D01*
X135000000Y-147660153D01*
X135320646Y-147640757D01*
X135636616Y-147582854D01*
X135943303Y-147487286D01*
X136236235Y-147355449D01*
X136511139Y-147189263D01*
X136764008Y-146991153D01*
X136991153Y-146764008D01*
X137189263Y-146511139D01*
X137355449Y-146236235D01*
X137487286Y-145943303D01*
X137582854Y-145636616D01*
X137640757Y-145320646D01*
X137660153Y-145000000D01*
X202339847Y-145000000D01*
X202359242Y-145320646D01*
X202399169Y-145538522D01*
X202417146Y-145636616D01*
X202512714Y-145943303D01*
X202590851Y-146116919D01*
X202644550Y-146236234D01*
X202644556Y-146236243D01*
X202810740Y-146511144D01*
X203008846Y-146764007D01*
X203235992Y-146991153D01*
X203488855Y-147189259D01*
X203488858Y-147189261D01*
X203488861Y-147189263D01*
X203763765Y-147355449D01*
X204056697Y-147487286D01*
X204363384Y-147582854D01*
X204639426Y-147633440D01*
X204679353Y-147640757D01*
X204679352Y-147640757D01*
X204713957Y-147642850D01*
X205000000Y-147660153D01*
X205320646Y-147640757D01*
X205636616Y-147582854D01*
X205943303Y-147487286D01*
X206236235Y-147355449D01*
X206511139Y-147189263D01*
X206764008Y-146991153D01*
X206991153Y-146764008D01*
X207189263Y-146511139D01*
X207355449Y-146236235D01*
X207487286Y-145943303D01*
X207582854Y-145636616D01*
X207640757Y-145320646D01*
X207660153Y-145000000D01*
X207640757Y-144679354D01*
X207582854Y-144363384D01*
X207487286Y-144056697D01*
X207355449Y-143763765D01*
X207189263Y-143488861D01*
X207189261Y-143488858D01*
X207189259Y-143488855D01*
X206991153Y-143235992D01*
X206764007Y-143008846D01*
X206511144Y-142810740D01*
X206236243Y-142644556D01*
X206236234Y-142644550D01*
X206116919Y-142590851D01*
X205943303Y-142512714D01*
X205943296Y-142512711D01*
X205943294Y-142512711D01*
X205636619Y-142417147D01*
X205636616Y-142417146D01*
X205538522Y-142399169D01*
X205320646Y-142359242D01*
X205320647Y-142359242D01*
X205000000Y-142339847D01*
X204679353Y-142359242D01*
X204421549Y-142406486D01*
X204363384Y-142417146D01*
X204363381Y-142417146D01*
X204363380Y-142417147D01*
X204056705Y-142512711D01*
X204056699Y-142512713D01*
X204056697Y-142512714D01*
X203980724Y-142546906D01*
X203763765Y-142644550D01*
X203763756Y-142644556D01*
X203488855Y-142810740D01*
X203235992Y-143008846D01*
X203008846Y-143235992D01*
X202810740Y-143488855D01*
X202644556Y-143763756D01*
X202644550Y-143763765D01*
X202512713Y-144056700D01*
X202512711Y-144056705D01*
X202417147Y-144363380D01*
X202359242Y-144679353D01*
X202339847Y-145000000D01*
X137660153Y-145000000D01*
X137640757Y-144679354D01*
X137582854Y-144363384D01*
X137487286Y-144056697D01*
X137355449Y-143763765D01*
X137189263Y-143488861D01*
X137189261Y-143488858D01*
X137189259Y-143488855D01*
X136991153Y-143235992D01*
X136764007Y-143008846D01*
X136511144Y-142810740D01*
X136236243Y-142644556D01*
X136236234Y-142644550D01*
X136116919Y-142590851D01*
X135943303Y-142512714D01*
X135943296Y-142512711D01*
X135943294Y-142512711D01*
X135636619Y-142417147D01*
X135636616Y-142417146D01*
X135538522Y-142399169D01*
X135320646Y-142359242D01*
X135320647Y-142359242D01*
X135000000Y-142339847D01*
X134679353Y-142359242D01*
X134421549Y-142406486D01*
X134363384Y-142417146D01*
X134363381Y-142417146D01*
X134363380Y-142417147D01*
X134056705Y-142512711D01*
X134056699Y-142512713D01*
X134056697Y-142512714D01*
X133980724Y-142546906D01*
X133763765Y-142644550D01*
X133763756Y-142644556D01*
X133488855Y-142810740D01*
X133235992Y-143008846D01*
X133008846Y-143235992D01*
X132810740Y-143488855D01*
X132644556Y-143763756D01*
X132644550Y-143763765D01*
X132512713Y-144056700D01*
X132512711Y-144056705D01*
X132417147Y-144363380D01*
X132359242Y-144679353D01*
X132339847Y-145000000D01*
X130127500Y-145000000D01*
X130127500Y-129185995D01*
X138581041Y-129185995D01*
X138581041Y-129186004D01*
X138600854Y-129500941D01*
X138600857Y-129500965D01*
X138659987Y-129810934D01*
X138659991Y-129810949D01*
X138757509Y-130111081D01*
X138891875Y-130396623D01*
X138891885Y-130396641D01*
X139060972Y-130663079D01*
X139150042Y-130770746D01*
X140119531Y-129801255D01*
X140216829Y-129935175D01*
X140344825Y-130063171D01*
X140478742Y-130160467D01*
X139506521Y-131132688D01*
X139747488Y-131307761D01*
X140024035Y-131459793D01*
X140024039Y-131459795D01*
X140317451Y-131575965D01*
X140623118Y-131654448D01*
X140623114Y-131654448D01*
X140936198Y-131693999D01*
X140936210Y-131694000D01*
X141251790Y-131694000D01*
X141251801Y-131693999D01*
X141564883Y-131654448D01*
X141870548Y-131575965D01*
X142163960Y-131459795D01*
X142163964Y-131459793D01*
X142440511Y-131307761D01*
X142681477Y-131132688D01*
X141709257Y-130160467D01*
X141843175Y-130063171D01*
X141971171Y-129935175D01*
X142068467Y-129801256D01*
X143037956Y-130770745D01*
X143127031Y-130663073D01*
X143127034Y-130663070D01*
X143296114Y-130396641D01*
X143296124Y-130396623D01*
X143430490Y-130111081D01*
X143528008Y-129810949D01*
X143528012Y-129810934D01*
X143587142Y-129500965D01*
X143587145Y-129500941D01*
X143606959Y-129186004D01*
X143606959Y-129185995D01*
X143587145Y-128871058D01*
X143587142Y-128871034D01*
X143528012Y-128561065D01*
X143528008Y-128561050D01*
X143430490Y-128260918D01*
X143296124Y-127975376D01*
X143296114Y-127975358D01*
X143127032Y-127708928D01*
X143127028Y-127708922D01*
X143037956Y-127601253D01*
X142068466Y-128570742D01*
X141971171Y-128436825D01*
X141843175Y-128308829D01*
X141709255Y-128211531D01*
X142681476Y-127239310D01*
X142440507Y-127064236D01*
X142163964Y-126912206D01*
X142163960Y-126912204D01*
X142004322Y-126848999D01*
X156831594Y-126848999D01*
X156831594Y-126849000D01*
X156851968Y-127055874D01*
X156912312Y-127254798D01*
X156912313Y-127254800D01*
X157010303Y-127438128D01*
X157010305Y-127438130D01*
X157142180Y-127598820D01*
X157276331Y-127708915D01*
X157302871Y-127730696D01*
X157394535Y-127779691D01*
X157486200Y-127828687D01*
X157685125Y-127889031D01*
X157891999Y-127909406D01*
X157892000Y-127909406D01*
X157892001Y-127909406D01*
X157995437Y-127899218D01*
X158098875Y-127889031D01*
X158297800Y-127828687D01*
X158481130Y-127730695D01*
X158641820Y-127598820D01*
X158773695Y-127438130D01*
X158871687Y-127254800D01*
X158932031Y-127055875D01*
X158952406Y-126849000D01*
X158932031Y-126642125D01*
X158871687Y-126443200D01*
X158773695Y-126259870D01*
X158641820Y-126099180D01*
X158481130Y-125967305D01*
X158481131Y-125967305D01*
X158481128Y-125967303D01*
X158297800Y-125869313D01*
X158297798Y-125869312D01*
X158098874Y-125808968D01*
X157892001Y-125788594D01*
X157891999Y-125788594D01*
X157685125Y-125808968D01*
X157486201Y-125869312D01*
X157486199Y-125869313D01*
X157302871Y-125967303D01*
X157142180Y-126099180D01*
X157010303Y-126259871D01*
X156912313Y-126443199D01*
X156912312Y-126443201D01*
X156851968Y-126642125D01*
X156831594Y-126848999D01*
X142004322Y-126848999D01*
X141870548Y-126796034D01*
X141564881Y-126717551D01*
X141564885Y-126717551D01*
X141251801Y-126678000D01*
X140936198Y-126678000D01*
X140623116Y-126717551D01*
X140317451Y-126796034D01*
X140024039Y-126912204D01*
X140024035Y-126912206D01*
X139747490Y-127064237D01*
X139747486Y-127064240D01*
X139506521Y-127239310D01*
X140478743Y-128211532D01*
X140344825Y-128308829D01*
X140216829Y-128436825D01*
X140119532Y-128570743D01*
X139150042Y-127601253D01*
X139150041Y-127601253D01*
X139060976Y-127708915D01*
X139060969Y-127708925D01*
X138891885Y-127975358D01*
X138891875Y-127975376D01*
X138757509Y-128260918D01*
X138659991Y-128561050D01*
X138659987Y-128561065D01*
X138600857Y-128871034D01*
X138600854Y-128871058D01*
X138581041Y-129185995D01*
X130127500Y-129185995D01*
X130127500Y-124436000D01*
X142641004Y-124436000D01*
X142660950Y-124663999D01*
X142720187Y-124885073D01*
X142816913Y-125092498D01*
X142816913Y-125092499D01*
X142866900Y-125163888D01*
X143490253Y-124540534D01*
X143511370Y-124619343D01*
X143573905Y-124727657D01*
X143662343Y-124816095D01*
X143770657Y-124878630D01*
X143849462Y-124899745D01*
X143226109Y-125523098D01*
X143297501Y-125573086D01*
X143504927Y-125669812D01*
X143504926Y-125669812D01*
X143726000Y-125729049D01*
X143954000Y-125748995D01*
X144181999Y-125729049D01*
X144403073Y-125669812D01*
X144610500Y-125573086D01*
X144610505Y-125573083D01*
X144770418Y-125461110D01*
X144844062Y-125434305D01*
X144921242Y-125447914D01*
X144964314Y-125478073D01*
X144978475Y-125492234D01*
X145082891Y-125538338D01*
X145108421Y-125541300D01*
X146799578Y-125541299D01*
X146799580Y-125541299D01*
X146812343Y-125539818D01*
X146825109Y-125538338D01*
X146929525Y-125492234D01*
X147010234Y-125411525D01*
X147056338Y-125307109D01*
X147059300Y-125281579D01*
X147059299Y-123590422D01*
X147056338Y-123564891D01*
X147010234Y-123460475D01*
X146929525Y-123379766D01*
X146892942Y-123363613D01*
X146825110Y-123333662D01*
X146825104Y-123333661D01*
X146799581Y-123330700D01*
X146142129Y-123330700D01*
X146066429Y-123310416D01*
X146011013Y-123255000D01*
X145990729Y-123179300D01*
X146011013Y-123103600D01*
X146066429Y-123048184D01*
X146114306Y-123030479D01*
X146257775Y-123003660D01*
X146316361Y-122980964D01*
X146448776Y-122929667D01*
X146448779Y-122929665D01*
X146448785Y-122929663D01*
X146622946Y-122821827D01*
X146774326Y-122683826D01*
X146774329Y-122683821D01*
X146774332Y-122683819D01*
X146869569Y-122557704D01*
X146897771Y-122520358D01*
X146989077Y-122336991D01*
X147045135Y-122139968D01*
X147064035Y-121936000D01*
X147045135Y-121732032D01*
X147007766Y-121600693D01*
X147006559Y-121522332D01*
X147044694Y-121453865D01*
X147046260Y-121452274D01*
X148023892Y-120474644D01*
X148091763Y-120435459D01*
X148130948Y-120430300D01*
X158173752Y-120430300D01*
X158249452Y-120450584D01*
X158280808Y-120474644D01*
X158645235Y-120839071D01*
X158684420Y-120906942D01*
X158684420Y-120985312D01*
X158645235Y-121053183D01*
X158577364Y-121092368D01*
X158498994Y-121092368D01*
X158466810Y-121079650D01*
X158297800Y-120989313D01*
X158297798Y-120989312D01*
X158098874Y-120928968D01*
X157892001Y-120908594D01*
X157891999Y-120908594D01*
X157685125Y-120928968D01*
X157486201Y-120989312D01*
X157486199Y-120989313D01*
X157302871Y-121087303D01*
X157142180Y-121219180D01*
X157010303Y-121379871D01*
X156912313Y-121563199D01*
X156912312Y-121563201D01*
X156851968Y-121762125D01*
X156831594Y-121968999D01*
X156831594Y-121969000D01*
X156851968Y-122175874D01*
X156912312Y-122374798D01*
X156912313Y-122374800D01*
X157010303Y-122558128D01*
X157010305Y-122558130D01*
X157142180Y-122718820D01*
X157215388Y-122778900D01*
X157302871Y-122850696D01*
X157394535Y-122899691D01*
X157486200Y-122948687D01*
X157592602Y-122980964D01*
X157685125Y-123009031D01*
X157891999Y-123029406D01*
X157892000Y-123029406D01*
X157892001Y-123029406D01*
X158069765Y-123011898D01*
X158098875Y-123009031D01*
X158297800Y-122948687D01*
X158481130Y-122850695D01*
X158641820Y-122718820D01*
X158773695Y-122558130D01*
X158871687Y-122374800D01*
X158932031Y-122175875D01*
X158952406Y-121969000D01*
X158932031Y-121762125D01*
X158871687Y-121563200D01*
X158781349Y-121394189D01*
X158763553Y-121317866D01*
X158786303Y-121242870D01*
X158843503Y-121189297D01*
X158919826Y-121171501D01*
X158994822Y-121194251D01*
X159021928Y-121215764D01*
X160442032Y-122635868D01*
X160481217Y-122703739D01*
X160485272Y-122761171D01*
X160483120Y-122778896D01*
X160483120Y-122778901D01*
X160503764Y-122948927D01*
X160515914Y-122980964D01*
X160543103Y-123052656D01*
X160564501Y-123109076D01*
X160564504Y-123109083D01*
X160661795Y-123250032D01*
X160661798Y-123250035D01*
X160790001Y-123363614D01*
X160941660Y-123443210D01*
X161107961Y-123484200D01*
X161107964Y-123484200D01*
X161279236Y-123484200D01*
X161279239Y-123484200D01*
X161445540Y-123443210D01*
X161597199Y-123363614D01*
X161725402Y-123250035D01*
X161822699Y-123109077D01*
X161883435Y-122948929D01*
X161904080Y-122778900D01*
X161901927Y-122761171D01*
X161883435Y-122608872D01*
X161883435Y-122608871D01*
X161822699Y-122448723D01*
X161822696Y-122448719D01*
X161822695Y-122448716D01*
X161725404Y-122307767D01*
X161725401Y-122307764D01*
X161597199Y-122194186D01*
X161597198Y-122194185D01*
X161445544Y-122114592D01*
X161445540Y-122114590D01*
X161279239Y-122073600D01*
X161159548Y-122073600D01*
X161083848Y-122053316D01*
X161052492Y-122029256D01*
X158678911Y-119655675D01*
X158678910Y-119655674D01*
X158580790Y-119599024D01*
X158580787Y-119599022D01*
X158526071Y-119584362D01*
X158526070Y-119584362D01*
X158471351Y-119569700D01*
X158471350Y-119569700D01*
X153979589Y-119569700D01*
X153903889Y-119549416D01*
X153848473Y-119494000D01*
X153828189Y-119418300D01*
X153848473Y-119342600D01*
X153903889Y-119287184D01*
X153909231Y-119284242D01*
X154003595Y-119234716D01*
X154003594Y-119234716D01*
X154003599Y-119234714D01*
X154131802Y-119121135D01*
X154229099Y-118980177D01*
X154289835Y-118820029D01*
X154310480Y-118650000D01*
X154289835Y-118479971D01*
X154229099Y-118319823D01*
X154229096Y-118319819D01*
X154229095Y-118319816D01*
X154131804Y-118178867D01*
X154131801Y-118178864D01*
X154003599Y-118065286D01*
X154003598Y-118065285D01*
X153851944Y-117985692D01*
X153851940Y-117985690D01*
X153685639Y-117944700D01*
X153514361Y-117944700D01*
X153389635Y-117975442D01*
X153348059Y-117985690D01*
X153348055Y-117985692D01*
X153196403Y-118065284D01*
X153196401Y-118065286D01*
X153121519Y-118131625D01*
X153051410Y-118166640D01*
X153021125Y-118169700D01*
X147233347Y-118169700D01*
X147123911Y-118199023D01*
X147025788Y-118255675D01*
X144439503Y-120841959D01*
X144371632Y-120881144D01*
X144293262Y-120881144D01*
X144277761Y-120876082D01*
X144257772Y-120868339D01*
X144257773Y-120868339D01*
X144056421Y-120830700D01*
X143851579Y-120830700D01*
X143851578Y-120830700D01*
X143650226Y-120868339D01*
X143650216Y-120868342D01*
X143459223Y-120942332D01*
X143459212Y-120942338D01*
X143285052Y-121050174D01*
X143133667Y-121188180D01*
X143010229Y-121351640D01*
X142918923Y-121535008D01*
X142918921Y-121535014D01*
X142862866Y-121732025D01*
X142862864Y-121732034D01*
X142843965Y-121935998D01*
X142843965Y-121936001D01*
X142862864Y-122139965D01*
X142862866Y-122139974D01*
X142918921Y-122336985D01*
X142918923Y-122336991D01*
X143010229Y-122520359D01*
X143133667Y-122683819D01*
X143133672Y-122683824D01*
X143133674Y-122683826D01*
X143285054Y-122821827D01*
X143392169Y-122888150D01*
X143459211Y-122929661D01*
X143459213Y-122929661D01*
X143459215Y-122929663D01*
X143472234Y-122934706D01*
X143535493Y-122980964D01*
X143567151Y-123052656D01*
X143558721Y-123130572D01*
X143512462Y-123193833D01*
X143481528Y-123213098D01*
X143297501Y-123298912D01*
X143297500Y-123298912D01*
X143226110Y-123348899D01*
X143226110Y-123348900D01*
X143849463Y-123972253D01*
X143770657Y-123993370D01*
X143662343Y-124055905D01*
X143573905Y-124144343D01*
X143511370Y-124252657D01*
X143490253Y-124331463D01*
X142866900Y-123708110D01*
X142866899Y-123708110D01*
X142816912Y-123779500D01*
X142816912Y-123779501D01*
X142720187Y-123986926D01*
X142660950Y-124208000D01*
X142641004Y-124436000D01*
X130127500Y-124436000D01*
X130127500Y-117185995D01*
X138581041Y-117185995D01*
X138581041Y-117186004D01*
X138600854Y-117500941D01*
X138600857Y-117500965D01*
X138659987Y-117810934D01*
X138659991Y-117810949D01*
X138757509Y-118111081D01*
X138891875Y-118396623D01*
X138891885Y-118396641D01*
X139060972Y-118663079D01*
X139150042Y-118770746D01*
X140119531Y-117801255D01*
X140216829Y-117935175D01*
X140344825Y-118063171D01*
X140478742Y-118160467D01*
X139506521Y-119132688D01*
X139747488Y-119307761D01*
X140024035Y-119459793D01*
X140024039Y-119459795D01*
X140317451Y-119575965D01*
X140623118Y-119654448D01*
X140623114Y-119654448D01*
X140936198Y-119693999D01*
X140936210Y-119694000D01*
X141251790Y-119694000D01*
X141251801Y-119693999D01*
X141564883Y-119654448D01*
X141870548Y-119575965D01*
X142163960Y-119459795D01*
X142163964Y-119459793D01*
X142440511Y-119307761D01*
X142681477Y-119132688D01*
X141709257Y-118160467D01*
X141843175Y-118063171D01*
X141971171Y-117935175D01*
X142068467Y-117801256D01*
X143037956Y-118770745D01*
X143127031Y-118663073D01*
X143127034Y-118663070D01*
X143296114Y-118396641D01*
X143296124Y-118396623D01*
X143430490Y-118111081D01*
X143528008Y-117810949D01*
X143528012Y-117810934D01*
X143587142Y-117500965D01*
X143587145Y-117500941D01*
X143606959Y-117186004D01*
X143606959Y-117185995D01*
X143587145Y-116871058D01*
X143587142Y-116871034D01*
X143528012Y-116561065D01*
X143528008Y-116561050D01*
X143430490Y-116260918D01*
X143296124Y-115975376D01*
X143296114Y-115975358D01*
X143127032Y-115708928D01*
X143127028Y-115708922D01*
X143037956Y-115601253D01*
X142068466Y-116570742D01*
X141971171Y-116436825D01*
X141843175Y-116308829D01*
X141709255Y-116211531D01*
X142681476Y-115239310D01*
X142440507Y-115064236D01*
X142163964Y-114912206D01*
X142163960Y-114912204D01*
X141870548Y-114796034D01*
X141564881Y-114717551D01*
X141564885Y-114717551D01*
X141251801Y-114678000D01*
X140936198Y-114678000D01*
X140623116Y-114717551D01*
X140317451Y-114796034D01*
X140024039Y-114912204D01*
X140024035Y-114912206D01*
X139747490Y-115064237D01*
X139747486Y-115064240D01*
X139506521Y-115239310D01*
X140478743Y-116211532D01*
X140344825Y-116308829D01*
X140216829Y-116436825D01*
X140119532Y-116570743D01*
X139150042Y-115601253D01*
X139150041Y-115601253D01*
X139060976Y-115708915D01*
X139060969Y-115708925D01*
X138891885Y-115975358D01*
X138891875Y-115975376D01*
X138757509Y-116260918D01*
X138659991Y-116561050D01*
X138659987Y-116561065D01*
X138600857Y-116871034D01*
X138600854Y-116871058D01*
X138581041Y-117185995D01*
X130127500Y-117185995D01*
X130127500Y-104280000D01*
X145625149Y-104280000D01*
X145644516Y-104501375D01*
X145702032Y-104716027D01*
X145795948Y-104917427D01*
X145795949Y-104917429D01*
X145840184Y-104980603D01*
X145840185Y-104980604D01*
X146461156Y-104359631D01*
X146485792Y-104451571D01*
X146544311Y-104552930D01*
X146627070Y-104635689D01*
X146728429Y-104694208D01*
X146820367Y-104718842D01*
X146199395Y-105339814D01*
X146262570Y-105384050D01*
X146262572Y-105384051D01*
X146463973Y-105477967D01*
X146463972Y-105477967D01*
X146678624Y-105535483D01*
X146678623Y-105535483D01*
X146900000Y-105554850D01*
X147121375Y-105535483D01*
X147336027Y-105477967D01*
X147537423Y-105384054D01*
X147537433Y-105384048D01*
X147600603Y-105339814D01*
X147600603Y-105339813D01*
X146979632Y-104718842D01*
X147071571Y-104694208D01*
X147172930Y-104635689D01*
X147255689Y-104552930D01*
X147314208Y-104451571D01*
X147338842Y-104359632D01*
X147959813Y-104980603D01*
X147959814Y-104980603D01*
X148004048Y-104917433D01*
X148004054Y-104917423D01*
X148097967Y-104716027D01*
X148155483Y-104501375D01*
X148174850Y-104280000D01*
X148155483Y-104058624D01*
X148097967Y-103843972D01*
X148004051Y-103642573D01*
X147959814Y-103579394D01*
X147338842Y-104200366D01*
X147314208Y-104108429D01*
X147255689Y-104007070D01*
X147172930Y-103924311D01*
X147071571Y-103865792D01*
X146979631Y-103841156D01*
X147600604Y-103220185D01*
X147600603Y-103220184D01*
X147537429Y-103175949D01*
X147537427Y-103175948D01*
X147336026Y-103082032D01*
X147336027Y-103082032D01*
X147219787Y-103050886D01*
X147151916Y-103011701D01*
X147112731Y-102943830D01*
X147112731Y-102865460D01*
X147151916Y-102797589D01*
X147215024Y-102759764D01*
X147269299Y-102743300D01*
X147310414Y-102730828D01*
X147495829Y-102631721D01*
X147658347Y-102498347D01*
X147791721Y-102335829D01*
X147890828Y-102150414D01*
X147951857Y-101949227D01*
X147972464Y-101740000D01*
X147951857Y-101530773D01*
X147890828Y-101329586D01*
X147791721Y-101144171D01*
X147791720Y-101144169D01*
X147658351Y-100981657D01*
X147658342Y-100981648D01*
X147495830Y-100848279D01*
X147495828Y-100848278D01*
X147386356Y-100789764D01*
X147310414Y-100749172D01*
X147310411Y-100749171D01*
X147109225Y-100688142D01*
X146900000Y-100667536D01*
X146690774Y-100688142D01*
X146690773Y-100688142D01*
X146489588Y-100749171D01*
X146304171Y-100848278D01*
X146304169Y-100848279D01*
X146141657Y-100981648D01*
X146141648Y-100981657D01*
X146008279Y-101144169D01*
X146008278Y-101144171D01*
X145909171Y-101329588D01*
X145848142Y-101530773D01*
X145848142Y-101530774D01*
X145827536Y-101740000D01*
X145848142Y-101949225D01*
X145848142Y-101949226D01*
X145890542Y-102089000D01*
X145909172Y-102150414D01*
X145957271Y-102240400D01*
X146008278Y-102335828D01*
X146008279Y-102335830D01*
X146141648Y-102498342D01*
X146141657Y-102498351D01*
X146304169Y-102631720D01*
X146304171Y-102631721D01*
X146489586Y-102730828D01*
X146584976Y-102759764D01*
X146651528Y-102801149D01*
X146688472Y-102870265D01*
X146685908Y-102948594D01*
X146644523Y-103015146D01*
X146580213Y-103050886D01*
X146463971Y-103082033D01*
X146262573Y-103175948D01*
X146262566Y-103175952D01*
X146199395Y-103220184D01*
X146199395Y-103220185D01*
X146820367Y-103841157D01*
X146728429Y-103865792D01*
X146627070Y-103924311D01*
X146544311Y-104007070D01*
X146485792Y-104108429D01*
X146461157Y-104200367D01*
X145840185Y-103579395D01*
X145840184Y-103579395D01*
X145795952Y-103642566D01*
X145795948Y-103642573D01*
X145702032Y-103843972D01*
X145644516Y-104058624D01*
X145625149Y-104280000D01*
X130127500Y-104280000D01*
X130127500Y-99200000D01*
X145827536Y-99200000D01*
X145848142Y-99409225D01*
X145848142Y-99409226D01*
X145871697Y-99486875D01*
X145909172Y-99610414D01*
X145924272Y-99638664D01*
X146008278Y-99795828D01*
X146008279Y-99795830D01*
X146141648Y-99958342D01*
X146141657Y-99958351D01*
X146304169Y-100091720D01*
X146304171Y-100091721D01*
X146489586Y-100190828D01*
X146690773Y-100251857D01*
X146900000Y-100272464D01*
X147109227Y-100251857D01*
X147310414Y-100190828D01*
X147495829Y-100091721D01*
X147658347Y-99958347D01*
X147791721Y-99795829D01*
X147890828Y-99610414D01*
X147951857Y-99409227D01*
X147972464Y-99200000D01*
X147951857Y-98990773D01*
X147890828Y-98789586D01*
X147791721Y-98604171D01*
X147791720Y-98604169D01*
X147658351Y-98441657D01*
X147658342Y-98441648D01*
X147495830Y-98308279D01*
X147495828Y-98308278D01*
X147415092Y-98265124D01*
X147310414Y-98209172D01*
X147310411Y-98209171D01*
X147109225Y-98148142D01*
X146900000Y-98127536D01*
X146690774Y-98148142D01*
X146690773Y-98148142D01*
X146489588Y-98209171D01*
X146304171Y-98308278D01*
X146304169Y-98308279D01*
X146141657Y-98441648D01*
X146141648Y-98441657D01*
X146008279Y-98604169D01*
X146008278Y-98604171D01*
X145909171Y-98789588D01*
X145848142Y-98990773D01*
X145848142Y-98990774D01*
X145827536Y-99200000D01*
X130127500Y-99200000D01*
X130127500Y-96660000D01*
X145827536Y-96660000D01*
X145848142Y-96869225D01*
X145848142Y-96869226D01*
X145902627Y-97048837D01*
X145909172Y-97070414D01*
X145952241Y-97150990D01*
X146008278Y-97255828D01*
X146008279Y-97255830D01*
X146141648Y-97418342D01*
X146141657Y-97418351D01*
X146304169Y-97551720D01*
X146304171Y-97551721D01*
X146489586Y-97650828D01*
X146690773Y-97711857D01*
X146900000Y-97732464D01*
X147109227Y-97711857D01*
X147310414Y-97650828D01*
X147495829Y-97551721D01*
X147658347Y-97418347D01*
X147791721Y-97255829D01*
X147890828Y-97070414D01*
X147951857Y-96869227D01*
X147972464Y-96660000D01*
X147951857Y-96450773D01*
X147890828Y-96249586D01*
X147791721Y-96064171D01*
X147791720Y-96064169D01*
X147658351Y-95901657D01*
X147658342Y-95901648D01*
X147495830Y-95768279D01*
X147495828Y-95768278D01*
X147415092Y-95725124D01*
X147310414Y-95669172D01*
X147310411Y-95669171D01*
X147109225Y-95608142D01*
X146900000Y-95587536D01*
X146690774Y-95608142D01*
X146690773Y-95608142D01*
X146489588Y-95669171D01*
X146304171Y-95768278D01*
X146304169Y-95768279D01*
X146141657Y-95901648D01*
X146141648Y-95901657D01*
X146008279Y-96064169D01*
X146008278Y-96064171D01*
X145909171Y-96249588D01*
X145848142Y-96450773D01*
X145848142Y-96450774D01*
X145827536Y-96660000D01*
X130127500Y-96660000D01*
X130127500Y-94120000D01*
X145827536Y-94120000D01*
X145848142Y-94329225D01*
X145848142Y-94329226D01*
X145909171Y-94530411D01*
X145909172Y-94530414D01*
X145950041Y-94606874D01*
X146008278Y-94715828D01*
X146008279Y-94715830D01*
X146141648Y-94878342D01*
X146141657Y-94878351D01*
X146304169Y-95011720D01*
X146304171Y-95011721D01*
X146489586Y-95110828D01*
X146690773Y-95171857D01*
X146900000Y-95192464D01*
X147109227Y-95171857D01*
X147310414Y-95110828D01*
X147495829Y-95011721D01*
X147658347Y-94878347D01*
X147791721Y-94715829D01*
X147890828Y-94530414D01*
X147951857Y-94329227D01*
X147972464Y-94120000D01*
X147951857Y-93910773D01*
X147890828Y-93709586D01*
X147791721Y-93524171D01*
X147791720Y-93524169D01*
X147658351Y-93361657D01*
X147658342Y-93361648D01*
X147495830Y-93228279D01*
X147495828Y-93228278D01*
X147415092Y-93185124D01*
X147310414Y-93129172D01*
X147310411Y-93129171D01*
X147109225Y-93068142D01*
X146900000Y-93047536D01*
X146690774Y-93068142D01*
X146690773Y-93068142D01*
X146489588Y-93129171D01*
X146304171Y-93228278D01*
X146304169Y-93228279D01*
X146141657Y-93361648D01*
X146141648Y-93361657D01*
X146008279Y-93524169D01*
X146008278Y-93524171D01*
X145909171Y-93709588D01*
X145848142Y-93910773D01*
X145848142Y-93910774D01*
X145827536Y-94120000D01*
X130127500Y-94120000D01*
X130127500Y-91580000D01*
X145827536Y-91580000D01*
X145848142Y-91789225D01*
X145848142Y-91789226D01*
X145909171Y-91990411D01*
X145909172Y-91990414D01*
X145965124Y-92095092D01*
X146008278Y-92175828D01*
X146008279Y-92175830D01*
X146141648Y-92338342D01*
X146141657Y-92338351D01*
X146304169Y-92471720D01*
X146304171Y-92471721D01*
X146489586Y-92570828D01*
X146690773Y-92631857D01*
X146900000Y-92652464D01*
X147109227Y-92631857D01*
X147310414Y-92570828D01*
X147495829Y-92471721D01*
X147658347Y-92338347D01*
X147791721Y-92175829D01*
X147890828Y-91990414D01*
X147951857Y-91789227D01*
X147972464Y-91580000D01*
X147951857Y-91370773D01*
X147890828Y-91169586D01*
X147791721Y-90984171D01*
X147791720Y-90984169D01*
X147715197Y-90890925D01*
X147682853Y-90819540D01*
X147685368Y-90794009D01*
X147645935Y-90794009D01*
X147589075Y-90764803D01*
X147495829Y-90688279D01*
X147310414Y-90589172D01*
X147310411Y-90589171D01*
X147109225Y-90528142D01*
X146900000Y-90507536D01*
X146690774Y-90528142D01*
X146690773Y-90528142D01*
X146489588Y-90589171D01*
X146304171Y-90688278D01*
X146304169Y-90688279D01*
X146141657Y-90821648D01*
X146141648Y-90821657D01*
X146008279Y-90984169D01*
X146008278Y-90984171D01*
X145909171Y-91169588D01*
X145848142Y-91370773D01*
X145848142Y-91370774D01*
X145827536Y-91580000D01*
X130127500Y-91580000D01*
X130127500Y-89040000D01*
X145827536Y-89040000D01*
X145848142Y-89249225D01*
X145848142Y-89249226D01*
X145891064Y-89390719D01*
X145909172Y-89450414D01*
X145965124Y-89555092D01*
X146008278Y-89635828D01*
X146008279Y-89635830D01*
X146141648Y-89798342D01*
X146141657Y-89798351D01*
X146304169Y-89931720D01*
X146304171Y-89931721D01*
X146489586Y-90030828D01*
X146690773Y-90091857D01*
X146900000Y-90112464D01*
X147109227Y-90091857D01*
X147201999Y-90063714D01*
X147280325Y-90061150D01*
X147349442Y-90098093D01*
X147353003Y-90101539D01*
X147792176Y-90540712D01*
X147831361Y-90608583D01*
X147831361Y-90647844D01*
X147885563Y-90653183D01*
X147939287Y-90687823D01*
X163360874Y-106109410D01*
X163440990Y-106189526D01*
X163539110Y-106246176D01*
X163593830Y-106260838D01*
X163648548Y-106275500D01*
X163648550Y-106275500D01*
X187557350Y-106275500D01*
X187557351Y-106275500D01*
X187612070Y-106260838D01*
X187612071Y-106260838D01*
X187666787Y-106246177D01*
X187666787Y-106246176D01*
X187666790Y-106246176D01*
X187764910Y-106189526D01*
X187845026Y-106109410D01*
X192722225Y-101232211D01*
X192778876Y-101134090D01*
X192788650Y-101097610D01*
X192808200Y-101024653D01*
X192808200Y-100738997D01*
X192828484Y-100663297D01*
X192859203Y-100625672D01*
X192888565Y-100599660D01*
X192909699Y-100580938D01*
X192909700Y-100580936D01*
X192909702Y-100580935D01*
X193006999Y-100439977D01*
X193067735Y-100279829D01*
X193088380Y-100109800D01*
X193067735Y-99939771D01*
X193006999Y-99779623D01*
X193006996Y-99779619D01*
X193006995Y-99779616D01*
X192909704Y-99638667D01*
X192909701Y-99638664D01*
X192781499Y-99525086D01*
X192781498Y-99525085D01*
X192629844Y-99445492D01*
X192629840Y-99445490D01*
X192463539Y-99404500D01*
X192292261Y-99404500D01*
X192167535Y-99435242D01*
X192125959Y-99445490D01*
X192125955Y-99445492D01*
X191974301Y-99525085D01*
X191974300Y-99525086D01*
X191846098Y-99638664D01*
X191846095Y-99638667D01*
X191748804Y-99779616D01*
X191748801Y-99779623D01*
X191688064Y-99939772D01*
X191667420Y-100109798D01*
X191667420Y-100109801D01*
X191688064Y-100279827D01*
X191711039Y-100340406D01*
X191726247Y-100380508D01*
X191748801Y-100439976D01*
X191748804Y-100439983D01*
X191846095Y-100580932D01*
X191846102Y-100580940D01*
X191890262Y-100620062D01*
X191933473Y-100685443D01*
X191938205Y-100763670D01*
X191903189Y-100833783D01*
X191896921Y-100840442D01*
X189272137Y-103465225D01*
X189204266Y-103504410D01*
X189125896Y-103504410D01*
X189058025Y-103465225D01*
X189033965Y-103433869D01*
X189026246Y-103420500D01*
X188989305Y-103356515D01*
X188936440Y-103264949D01*
X188936437Y-103264946D01*
X188809103Y-103123527D01*
X188809102Y-103123526D01*
X188809101Y-103123525D01*
X188709123Y-103050886D01*
X188655145Y-103011668D01*
X188655141Y-103011666D01*
X188481295Y-102934266D01*
X188434758Y-102924374D01*
X188295151Y-102894700D01*
X188289247Y-102894700D01*
X188213547Y-102874416D01*
X188158131Y-102819000D01*
X188137847Y-102743300D01*
X188158131Y-102667600D01*
X188182191Y-102636244D01*
X189713822Y-101104613D01*
X191659725Y-99158711D01*
X191668595Y-99143349D01*
X191716376Y-99060590D01*
X191739709Y-98973510D01*
X191744183Y-98956813D01*
X191745700Y-98951153D01*
X191745700Y-98444497D01*
X191765984Y-98368797D01*
X191796703Y-98331172D01*
X191831538Y-98300312D01*
X191847199Y-98286438D01*
X191847200Y-98286436D01*
X191847202Y-98286435D01*
X191936718Y-98156750D01*
X191944495Y-98145483D01*
X191944495Y-98145482D01*
X191944499Y-98145477D01*
X192005235Y-97985329D01*
X192025880Y-97815300D01*
X192014495Y-97721539D01*
X192005235Y-97645272D01*
X191996582Y-97622456D01*
X191944499Y-97485123D01*
X191944496Y-97485119D01*
X191944495Y-97485116D01*
X191847204Y-97344167D01*
X191847201Y-97344164D01*
X191718999Y-97230586D01*
X191718998Y-97230585D01*
X191567344Y-97150992D01*
X191567340Y-97150990D01*
X191401039Y-97110000D01*
X191229761Y-97110000D01*
X191105035Y-97140742D01*
X191063459Y-97150990D01*
X191063455Y-97150992D01*
X190911801Y-97230585D01*
X190911800Y-97230586D01*
X190783598Y-97344164D01*
X190783595Y-97344167D01*
X190686304Y-97485116D01*
X190686301Y-97485123D01*
X190625564Y-97645272D01*
X190604920Y-97815298D01*
X190604920Y-97815301D01*
X190607233Y-97834351D01*
X190596222Y-97911944D01*
X190547889Y-97973636D01*
X190475186Y-98002896D01*
X190456937Y-98004000D01*
X190383361Y-98004000D01*
X190258635Y-98034742D01*
X190217059Y-98044990D01*
X190217055Y-98044992D01*
X190065401Y-98124585D01*
X190065400Y-98124586D01*
X189934083Y-98240924D01*
X189863970Y-98275940D01*
X189833686Y-98279000D01*
X189147551Y-98279000D01*
X189034249Y-98279000D01*
X188979530Y-98293662D01*
X188979529Y-98293662D01*
X188924810Y-98308323D01*
X188833185Y-98361222D01*
X188833186Y-98361223D01*
X188826693Y-98364971D01*
X184827508Y-102364156D01*
X184759637Y-102403341D01*
X184720452Y-102408500D01*
X183552457Y-102408500D01*
X183476757Y-102388216D01*
X183421341Y-102332800D01*
X183401057Y-102257100D01*
X183421341Y-102181400D01*
X183476755Y-102125984D01*
X183548910Y-102084326D01*
X183629026Y-102004210D01*
X184220426Y-101412810D01*
X184228803Y-101398300D01*
X184277076Y-101314690D01*
X184298697Y-101234000D01*
X184306400Y-101205252D01*
X184306400Y-100489948D01*
X184299107Y-100462733D01*
X184299106Y-100462731D01*
X184299105Y-100462726D01*
X184277076Y-100380510D01*
X184221638Y-100284490D01*
X184220426Y-100282390D01*
X184140310Y-100202274D01*
X183922444Y-99984408D01*
X183883259Y-99916537D01*
X183878100Y-99877352D01*
X183878100Y-98705547D01*
X183860505Y-98639886D01*
X183848776Y-98596110D01*
X183792126Y-98497990D01*
X183792124Y-98497988D01*
X183787164Y-98489397D01*
X183789692Y-98487936D01*
X183765896Y-98430489D01*
X183765705Y-98392482D01*
X183768180Y-98372100D01*
X183766027Y-98354371D01*
X183777037Y-98276782D01*
X183809264Y-98229070D01*
X193844325Y-88194011D01*
X193900976Y-88095890D01*
X193918346Y-88031063D01*
X193930300Y-87986453D01*
X193930300Y-79647072D01*
X193950584Y-79571372D01*
X194006000Y-79515956D01*
X194017701Y-79509864D01*
X194160162Y-79443434D01*
X194348688Y-79311427D01*
X194511427Y-79148688D01*
X194643434Y-78960162D01*
X194740699Y-78751577D01*
X194800265Y-78529272D01*
X194820324Y-78300000D01*
X194800265Y-78070728D01*
X194740699Y-77848423D01*
X194643434Y-77639838D01*
X194511427Y-77451312D01*
X194348688Y-77288573D01*
X194160162Y-77156566D01*
X194011060Y-77087038D01*
X193951580Y-77059302D01*
X193951577Y-77059301D01*
X193931719Y-77053980D01*
X193729271Y-76999734D01*
X193729272Y-76999734D01*
X193500000Y-76979676D01*
X193270728Y-76999734D01*
X193048426Y-77059300D01*
X193048419Y-77059302D01*
X192919411Y-77119460D01*
X192839838Y-77156566D01*
X192793142Y-77189263D01*
X192651308Y-77288576D01*
X192488573Y-77451311D01*
X192354019Y-77643474D01*
X192293984Y-77693849D01*
X192216804Y-77707458D01*
X192143160Y-77680653D01*
X192105981Y-77643474D01*
X191982052Y-77466486D01*
X191971427Y-77451312D01*
X191808688Y-77288573D01*
X191620162Y-77156566D01*
X191471060Y-77087038D01*
X191411580Y-77059302D01*
X191411577Y-77059301D01*
X191391719Y-77053980D01*
X191189271Y-76999734D01*
X191189272Y-76999734D01*
X190960000Y-76979676D01*
X190730728Y-76999734D01*
X190508426Y-77059300D01*
X190508419Y-77059302D01*
X190379411Y-77119460D01*
X190299838Y-77156566D01*
X190253142Y-77189263D01*
X190111308Y-77288576D01*
X189948575Y-77451309D01*
X189937943Y-77466493D01*
X189877906Y-77516866D01*
X189800726Y-77530472D01*
X189727082Y-77503666D01*
X189684836Y-77458755D01*
X189660373Y-77418835D01*
X188912323Y-78166885D01*
X188895245Y-78103147D01*
X188828102Y-77986853D01*
X188733147Y-77891898D01*
X188616853Y-77824755D01*
X188553112Y-77807675D01*
X189301163Y-77059625D01*
X189301163Y-77059624D01*
X189111285Y-76943268D01*
X188890550Y-76851836D01*
X188890540Y-76851832D01*
X188658193Y-76796051D01*
X188420004Y-76777306D01*
X188419996Y-76777306D01*
X188181806Y-76796051D01*
X187949459Y-76851832D01*
X187949449Y-76851836D01*
X187728714Y-76943268D01*
X187538835Y-77059624D01*
X187538835Y-77059625D01*
X188286886Y-77807676D01*
X188223147Y-77824755D01*
X188106853Y-77891898D01*
X188011898Y-77986853D01*
X187944755Y-78103147D01*
X187927676Y-78166886D01*
X187179625Y-77418835D01*
X187179624Y-77418835D01*
X187155162Y-77458755D01*
X187098314Y-77512701D01*
X187022108Y-77530996D01*
X186946965Y-77508738D01*
X186902052Y-77466486D01*
X186891427Y-77451312D01*
X186728691Y-77288576D01*
X186728688Y-77288573D01*
X186540162Y-77156566D01*
X186391060Y-77087038D01*
X186331580Y-77059302D01*
X186331577Y-77059301D01*
X186311719Y-77053980D01*
X186109271Y-76999734D01*
X186109272Y-76999734D01*
X185880000Y-76979676D01*
X185650728Y-76999734D01*
X185428426Y-77059300D01*
X185428419Y-77059302D01*
X185299411Y-77119460D01*
X185219838Y-77156566D01*
X185173142Y-77189263D01*
X185031308Y-77288576D01*
X184868576Y-77451308D01*
X184868573Y-77451311D01*
X184868573Y-77451312D01*
X184736566Y-77639838D01*
X184727093Y-77660153D01*
X184639302Y-77848419D01*
X184639300Y-77848426D01*
X184579734Y-78070728D01*
X184559676Y-78300000D01*
X184579734Y-78529271D01*
X184639300Y-78751573D01*
X184639302Y-78751580D01*
X184666544Y-78810000D01*
X184736566Y-78960162D01*
X184736568Y-78960165D01*
X184739360Y-78966152D01*
X184737036Y-78967235D01*
X184754200Y-79031242D01*
X184754200Y-93438302D01*
X184733916Y-93514002D01*
X184703199Y-93551623D01*
X184652698Y-93596365D01*
X184652695Y-93596368D01*
X184555404Y-93737316D01*
X184555401Y-93737323D01*
X184494664Y-93897472D01*
X184474020Y-94067498D01*
X184474020Y-94067501D01*
X184494664Y-94237527D01*
X184494665Y-94237529D01*
X184529441Y-94329227D01*
X184555401Y-94397676D01*
X184555404Y-94397683D01*
X184652695Y-94538632D01*
X184652698Y-94538635D01*
X184780901Y-94652214D01*
X184932560Y-94731810D01*
X185098861Y-94772800D01*
X185098864Y-94772800D01*
X185270136Y-94772800D01*
X185270139Y-94772800D01*
X185436440Y-94731810D01*
X185588099Y-94652214D01*
X185716302Y-94538635D01*
X185813599Y-94397677D01*
X185874335Y-94237529D01*
X185894980Y-94067500D01*
X185874335Y-93897471D01*
X185813599Y-93737323D01*
X185813596Y-93737319D01*
X185813595Y-93737316D01*
X185716304Y-93596368D01*
X185716302Y-93596365D01*
X185665800Y-93551624D01*
X185622591Y-93486244D01*
X185614800Y-93438302D01*
X185614800Y-79762346D01*
X185635084Y-79686646D01*
X185690500Y-79631230D01*
X185766200Y-79610946D01*
X185779392Y-79611521D01*
X185880000Y-79620324D01*
X186109272Y-79600265D01*
X186331577Y-79540699D01*
X186540162Y-79443434D01*
X186728688Y-79311427D01*
X186891427Y-79148688D01*
X186902052Y-79133512D01*
X186962083Y-79083138D01*
X187039263Y-79069527D01*
X187112908Y-79096329D01*
X187155162Y-79141244D01*
X187179625Y-79181163D01*
X187927675Y-78433112D01*
X187944755Y-78496853D01*
X188011898Y-78613147D01*
X188106853Y-78708102D01*
X188223147Y-78775245D01*
X188286886Y-78792323D01*
X187538835Y-79540373D01*
X187728714Y-79656731D01*
X187949449Y-79748163D01*
X187949459Y-79748167D01*
X188181806Y-79803948D01*
X188419996Y-79822694D01*
X188420004Y-79822694D01*
X188658193Y-79803948D01*
X188890540Y-79748167D01*
X188890550Y-79748163D01*
X189111287Y-79656731D01*
X189301163Y-79540374D01*
X189301163Y-79540373D01*
X188553113Y-78792323D01*
X188616853Y-78775245D01*
X188733147Y-78708102D01*
X188828102Y-78613147D01*
X188895245Y-78496853D01*
X188912323Y-78433113D01*
X189660373Y-79181163D01*
X189684836Y-79141244D01*
X189741684Y-79087297D01*
X189817889Y-79069002D01*
X189893032Y-79091260D01*
X189937943Y-79133507D01*
X189948573Y-79148688D01*
X190111312Y-79311427D01*
X190299838Y-79443434D01*
X190508423Y-79540699D01*
X190730728Y-79600265D01*
X190730727Y-79600265D01*
X190749172Y-79601878D01*
X190960000Y-79620324D01*
X191189272Y-79600265D01*
X191411577Y-79540699D01*
X191620162Y-79443434D01*
X191808688Y-79311427D01*
X191971427Y-79148688D01*
X192103434Y-78960162D01*
X192103435Y-78960159D01*
X192105980Y-78956525D01*
X192166016Y-78906150D01*
X192243195Y-78892541D01*
X192316840Y-78919345D01*
X192354020Y-78956525D01*
X192356564Y-78960159D01*
X192356566Y-78960162D01*
X192488573Y-79148688D01*
X192651312Y-79311427D01*
X192839838Y-79443434D01*
X192982286Y-79509858D01*
X193042319Y-79560232D01*
X193069124Y-79633876D01*
X193069700Y-79647072D01*
X193069700Y-87688851D01*
X193049416Y-87764551D01*
X193025356Y-87795907D01*
X183198807Y-97622456D01*
X183130936Y-97661641D01*
X183091751Y-97666800D01*
X182972061Y-97666800D01*
X182847335Y-97697542D01*
X182805759Y-97707790D01*
X182805755Y-97707792D01*
X182654101Y-97787385D01*
X182654100Y-97787386D01*
X182525898Y-97900964D01*
X182525895Y-97900967D01*
X182428604Y-98041916D01*
X182428601Y-98041923D01*
X182367864Y-98202072D01*
X182347220Y-98372098D01*
X182347220Y-98372101D01*
X182367864Y-98542127D01*
X182367865Y-98542129D01*
X182424275Y-98690871D01*
X182428601Y-98702276D01*
X182428604Y-98702283D01*
X182525895Y-98843232D01*
X182525898Y-98843235D01*
X182654101Y-98956814D01*
X182805760Y-99036410D01*
X182902335Y-99060214D01*
X182970978Y-99098022D01*
X183011522Y-99165090D01*
X183017500Y-99207213D01*
X183017500Y-99741652D01*
X182997216Y-99817352D01*
X182941800Y-99872768D01*
X182866100Y-99893052D01*
X182790400Y-99872768D01*
X182759044Y-99848708D01*
X177310335Y-94399999D01*
X178639594Y-94399999D01*
X178639594Y-94400000D01*
X178659968Y-94606874D01*
X178720312Y-94805798D01*
X178720313Y-94805800D01*
X178818303Y-94989128D01*
X178818305Y-94989130D01*
X178950180Y-95149820D01*
X179086437Y-95261643D01*
X179110871Y-95281696D01*
X179202535Y-95330691D01*
X179294200Y-95379687D01*
X179493125Y-95440031D01*
X179699999Y-95460406D01*
X179700000Y-95460406D01*
X179700001Y-95460406D01*
X179803437Y-95450218D01*
X179906875Y-95440031D01*
X180105800Y-95379687D01*
X180289130Y-95281695D01*
X180449820Y-95149820D01*
X180581695Y-94989130D01*
X180679687Y-94805800D01*
X180740031Y-94606875D01*
X180760406Y-94400000D01*
X180740031Y-94193125D01*
X180679687Y-93994200D01*
X180581695Y-93810870D01*
X180449820Y-93650180D01*
X180296278Y-93524171D01*
X180289128Y-93518303D01*
X180105800Y-93420313D01*
X180105798Y-93420312D01*
X179906874Y-93359968D01*
X179700001Y-93339594D01*
X179699999Y-93339594D01*
X179493125Y-93359968D01*
X179294201Y-93420312D01*
X179294199Y-93420313D01*
X179110871Y-93518303D01*
X178950180Y-93650180D01*
X178818303Y-93810871D01*
X178720313Y-93994199D01*
X178720312Y-93994201D01*
X178659968Y-94193125D01*
X178639594Y-94399999D01*
X177310335Y-94399999D01*
X170666831Y-87756495D01*
X170627646Y-87688624D01*
X170627646Y-87610254D01*
X170666831Y-87542383D01*
X170688332Y-87524530D01*
X170697518Y-87518236D01*
X170697525Y-87518234D01*
X170778234Y-87437525D01*
X170824338Y-87333109D01*
X170827300Y-87307579D01*
X170827299Y-85692422D01*
X170824338Y-85666891D01*
X170778234Y-85562475D01*
X170697525Y-85481766D01*
X170593110Y-85435662D01*
X170593104Y-85435661D01*
X170567581Y-85432700D01*
X168952419Y-85432700D01*
X168926892Y-85435661D01*
X168874683Y-85458714D01*
X168822475Y-85481766D01*
X168822474Y-85481767D01*
X168822473Y-85481767D01*
X168741766Y-85562474D01*
X168695662Y-85666889D01*
X168695661Y-85666895D01*
X168692700Y-85692418D01*
X168692700Y-87307580D01*
X168695661Y-87333107D01*
X168695662Y-87333109D01*
X168741766Y-87437525D01*
X168822475Y-87518234D01*
X168926891Y-87564338D01*
X168952421Y-87567300D01*
X169238709Y-87567299D01*
X169314409Y-87587582D01*
X169369806Y-87642966D01*
X169370096Y-87643468D01*
X169370088Y-87643472D01*
X169370113Y-87643497D01*
X169370115Y-87643500D01*
X169396168Y-87688624D01*
X169415675Y-87722411D01*
X169472390Y-87779126D01*
X169511575Y-87846997D01*
X169511575Y-87925367D01*
X169472390Y-87993238D01*
X169409283Y-88031063D01*
X169349588Y-88049170D01*
X169164171Y-88148278D01*
X169164169Y-88148279D01*
X169001657Y-88281648D01*
X169001648Y-88281657D01*
X168868279Y-88444169D01*
X168868278Y-88444171D01*
X168769171Y-88629588D01*
X168708142Y-88830773D01*
X168708142Y-88830774D01*
X168687536Y-89040000D01*
X168708142Y-89249225D01*
X168708142Y-89249226D01*
X168751064Y-89390719D01*
X168769172Y-89450414D01*
X168825124Y-89555092D01*
X168868278Y-89635828D01*
X168868279Y-89635830D01*
X169001648Y-89798342D01*
X169001657Y-89798351D01*
X169164169Y-89931720D01*
X169164171Y-89931721D01*
X169349586Y-90030828D01*
X169550773Y-90091857D01*
X169760000Y-90112464D01*
X169969227Y-90091857D01*
X170170414Y-90030828D01*
X170355829Y-89931721D01*
X170518347Y-89798347D01*
X170651721Y-89635829D01*
X170750828Y-89450414D01*
X170768937Y-89390715D01*
X170810319Y-89324166D01*
X170879435Y-89287221D01*
X170957763Y-89289783D01*
X171020873Y-89327609D01*
X179667421Y-97974157D01*
X179706606Y-98042028D01*
X179706606Y-98120398D01*
X179667421Y-98188269D01*
X179599550Y-98227454D01*
X179575206Y-98231884D01*
X179493124Y-98239969D01*
X179294201Y-98300312D01*
X179294199Y-98300313D01*
X179110871Y-98398303D01*
X178950180Y-98530180D01*
X178818303Y-98690871D01*
X178720313Y-98874199D01*
X178720312Y-98874201D01*
X178659968Y-99073125D01*
X178639594Y-99279999D01*
X178639594Y-99280000D01*
X178659968Y-99486874D01*
X178720312Y-99685798D01*
X178720313Y-99685800D01*
X178818303Y-99869128D01*
X178837937Y-99893052D01*
X178950180Y-100029820D01*
X179047636Y-100109800D01*
X179110871Y-100161696D01*
X179165374Y-100190828D01*
X179294200Y-100259687D01*
X179369038Y-100282389D01*
X179493125Y-100320031D01*
X179699999Y-100340406D01*
X179700000Y-100340406D01*
X179700001Y-100340406D01*
X179803437Y-100330218D01*
X179906875Y-100320031D01*
X180105800Y-100259687D01*
X180289130Y-100161695D01*
X180449820Y-100029820D01*
X180581695Y-99869130D01*
X180679687Y-99685800D01*
X180740031Y-99486875D01*
X180748115Y-99404794D01*
X180775721Y-99331447D01*
X180836302Y-99281729D01*
X180913625Y-99268963D01*
X180986973Y-99296569D01*
X181005842Y-99312578D01*
X182397832Y-100704568D01*
X182437017Y-100772439D01*
X182441072Y-100829871D01*
X182438920Y-100847596D01*
X182438920Y-100847601D01*
X182459564Y-101017627D01*
X182492554Y-101104613D01*
X182500431Y-101182587D01*
X182468267Y-101254052D01*
X182404679Y-101299862D01*
X182350992Y-101309700D01*
X170830945Y-101309700D01*
X170755245Y-101289416D01*
X170699829Y-101234000D01*
X170697423Y-101229671D01*
X170651723Y-101144175D01*
X170651720Y-101144169D01*
X170518351Y-100981657D01*
X170518342Y-100981648D01*
X170355830Y-100848279D01*
X170355828Y-100848278D01*
X170246356Y-100789764D01*
X170170414Y-100749172D01*
X170170411Y-100749171D01*
X169969225Y-100688142D01*
X169760000Y-100667536D01*
X169550774Y-100688142D01*
X169550773Y-100688142D01*
X169349587Y-100749171D01*
X169349584Y-100749172D01*
X169311369Y-100769599D01*
X169235046Y-100787395D01*
X169160050Y-100764645D01*
X169106477Y-100707445D01*
X169088600Y-100636076D01*
X169088600Y-100542648D01*
X169108884Y-100466948D01*
X169132944Y-100435592D01*
X169188028Y-100380508D01*
X169306998Y-100261537D01*
X169374866Y-100222354D01*
X169453237Y-100222354D01*
X169457986Y-100223710D01*
X169550773Y-100251857D01*
X169760000Y-100272464D01*
X169969227Y-100251857D01*
X170170414Y-100190828D01*
X170355829Y-100091721D01*
X170518347Y-99958347D01*
X170651721Y-99795829D01*
X170750828Y-99610414D01*
X170811857Y-99409227D01*
X170832464Y-99200000D01*
X170811857Y-98990773D01*
X170750828Y-98789586D01*
X170651721Y-98604171D01*
X170651720Y-98604169D01*
X170518351Y-98441657D01*
X170518342Y-98441648D01*
X170355830Y-98308279D01*
X170355828Y-98308278D01*
X170275092Y-98265124D01*
X170170414Y-98209172D01*
X170170411Y-98209171D01*
X169969225Y-98148142D01*
X169760000Y-98127536D01*
X169550774Y-98148142D01*
X169550773Y-98148142D01*
X169349588Y-98209171D01*
X169164173Y-98308277D01*
X169070923Y-98384805D01*
X168999538Y-98417148D01*
X168921545Y-98409466D01*
X168857842Y-98363816D01*
X168825499Y-98292431D01*
X168833181Y-98214438D01*
X168867819Y-98160715D01*
X169306997Y-97721537D01*
X169374866Y-97682354D01*
X169453236Y-97682354D01*
X169457938Y-97683696D01*
X169550773Y-97711857D01*
X169760000Y-97732464D01*
X169969227Y-97711857D01*
X170170414Y-97650828D01*
X170355829Y-97551721D01*
X170518347Y-97418347D01*
X170651721Y-97255829D01*
X170750828Y-97070414D01*
X170811857Y-96869227D01*
X170832464Y-96660000D01*
X170811857Y-96450773D01*
X170750828Y-96249586D01*
X170651721Y-96064171D01*
X170651720Y-96064169D01*
X170518351Y-95901657D01*
X170518342Y-95901648D01*
X170355830Y-95768279D01*
X170355828Y-95768278D01*
X170275092Y-95725124D01*
X170170414Y-95669172D01*
X170170411Y-95669171D01*
X169969225Y-95608142D01*
X169760000Y-95587536D01*
X169550774Y-95608142D01*
X169550773Y-95608142D01*
X169349588Y-95669171D01*
X169164171Y-95768278D01*
X169164169Y-95768279D01*
X169001657Y-95901648D01*
X169001648Y-95901657D01*
X168868279Y-96064169D01*
X168868278Y-96064171D01*
X168769171Y-96249588D01*
X168708142Y-96450773D01*
X168708142Y-96450774D01*
X168687536Y-96660000D01*
X168708142Y-96869225D01*
X168708143Y-96869229D01*
X168736284Y-96961999D01*
X168738848Y-97040328D01*
X168701903Y-97109444D01*
X168698459Y-97113003D01*
X167942390Y-97869074D01*
X167862276Y-97949187D01*
X167862275Y-97949189D01*
X167805623Y-98047311D01*
X167800465Y-98066563D01*
X167800465Y-98066565D01*
X167784919Y-98124586D01*
X167779321Y-98145477D01*
X167778607Y-98148142D01*
X167776300Y-98156749D01*
X167776300Y-104330652D01*
X167805623Y-104440087D01*
X167805624Y-104440090D01*
X167826631Y-104476475D01*
X167862274Y-104538210D01*
X167862276Y-104538212D01*
X168480508Y-105156444D01*
X168519693Y-105224315D01*
X168519693Y-105302685D01*
X168480508Y-105370556D01*
X168412637Y-105409741D01*
X168373452Y-105414900D01*
X163946148Y-105414900D01*
X163870448Y-105394616D01*
X163839092Y-105370556D01*
X152588536Y-94120000D01*
X168687536Y-94120000D01*
X168708142Y-94329225D01*
X168708142Y-94329226D01*
X168769171Y-94530411D01*
X168769172Y-94530414D01*
X168810041Y-94606874D01*
X168868278Y-94715828D01*
X168868279Y-94715830D01*
X169001648Y-94878342D01*
X169001657Y-94878351D01*
X169164169Y-95011720D01*
X169164171Y-95011721D01*
X169349586Y-95110828D01*
X169550773Y-95171857D01*
X169760000Y-95192464D01*
X169969227Y-95171857D01*
X170170414Y-95110828D01*
X170355829Y-95011721D01*
X170518347Y-94878347D01*
X170651721Y-94715829D01*
X170750828Y-94530414D01*
X170811857Y-94329227D01*
X170832464Y-94120000D01*
X170811857Y-93910773D01*
X170750828Y-93709586D01*
X170651721Y-93524171D01*
X170651720Y-93524169D01*
X170518351Y-93361657D01*
X170518342Y-93361648D01*
X170355830Y-93228279D01*
X170355828Y-93228278D01*
X170275092Y-93185124D01*
X170170414Y-93129172D01*
X170170411Y-93129171D01*
X169969225Y-93068142D01*
X169760000Y-93047536D01*
X169550774Y-93068142D01*
X169550773Y-93068142D01*
X169349588Y-93129171D01*
X169164171Y-93228278D01*
X169164169Y-93228279D01*
X169001657Y-93361648D01*
X169001648Y-93361657D01*
X168868279Y-93524169D01*
X168868278Y-93524171D01*
X168769171Y-93709588D01*
X168708142Y-93910773D01*
X168708142Y-93910774D01*
X168687536Y-94120000D01*
X152588536Y-94120000D01*
X150048536Y-91580000D01*
X168687536Y-91580000D01*
X168708142Y-91789225D01*
X168708142Y-91789226D01*
X168769171Y-91990411D01*
X168769172Y-91990414D01*
X168825124Y-92095092D01*
X168868278Y-92175828D01*
X168868279Y-92175830D01*
X169001648Y-92338342D01*
X169001657Y-92338351D01*
X169164169Y-92471720D01*
X169164171Y-92471721D01*
X169349586Y-92570828D01*
X169550773Y-92631857D01*
X169760000Y-92652464D01*
X169969227Y-92631857D01*
X170170414Y-92570828D01*
X170355829Y-92471721D01*
X170518347Y-92338347D01*
X170651721Y-92175829D01*
X170750828Y-91990414D01*
X170811857Y-91789227D01*
X170832464Y-91580000D01*
X170811857Y-91370773D01*
X170750828Y-91169586D01*
X170651721Y-90984171D01*
X170651720Y-90984169D01*
X170518351Y-90821657D01*
X170518342Y-90821648D01*
X170355830Y-90688279D01*
X170355828Y-90688278D01*
X170275092Y-90645124D01*
X170170414Y-90589172D01*
X170170411Y-90589171D01*
X169969225Y-90528142D01*
X169760000Y-90507536D01*
X169550774Y-90528142D01*
X169550773Y-90528142D01*
X169349588Y-90589171D01*
X169164171Y-90688278D01*
X169164169Y-90688279D01*
X169001657Y-90821648D01*
X169001648Y-90821657D01*
X168868279Y-90984169D01*
X168868278Y-90984171D01*
X168769171Y-91169588D01*
X168708142Y-91370773D01*
X168708142Y-91370774D01*
X168687536Y-91580000D01*
X150048536Y-91580000D01*
X147961539Y-89493003D01*
X147922354Y-89425132D01*
X147922354Y-89346762D01*
X147923705Y-89342029D01*
X147951857Y-89249227D01*
X147972464Y-89040000D01*
X147951857Y-88830773D01*
X147890828Y-88629586D01*
X147791721Y-88444171D01*
X147791720Y-88444169D01*
X147658351Y-88281657D01*
X147658342Y-88281648D01*
X147495830Y-88148279D01*
X147495828Y-88148278D01*
X147415092Y-88105124D01*
X147310414Y-88049172D01*
X147310411Y-88049171D01*
X147109225Y-87988142D01*
X146900000Y-87967536D01*
X146690774Y-87988142D01*
X146690773Y-87988142D01*
X146489588Y-88049171D01*
X146304171Y-88148278D01*
X146304169Y-88148279D01*
X146141657Y-88281648D01*
X146141648Y-88281657D01*
X146008279Y-88444169D01*
X146008278Y-88444171D01*
X145909171Y-88629588D01*
X145848142Y-88830773D01*
X145848142Y-88830774D01*
X145827536Y-89040000D01*
X130127500Y-89040000D01*
X130127500Y-85616218D01*
X145756500Y-85616218D01*
X145756500Y-87383780D01*
X145759461Y-87409307D01*
X145759462Y-87409309D01*
X145805566Y-87513725D01*
X145886275Y-87594434D01*
X145990691Y-87640538D01*
X146016221Y-87643500D01*
X147783778Y-87643499D01*
X147783780Y-87643499D01*
X147796543Y-87642018D01*
X147809309Y-87640538D01*
X147913725Y-87594434D01*
X147994434Y-87513725D01*
X148040538Y-87409309D01*
X148043500Y-87383779D01*
X148043499Y-85616222D01*
X148040538Y-85590691D01*
X147994434Y-85486275D01*
X147913725Y-85405566D01*
X147809310Y-85359462D01*
X147809304Y-85359461D01*
X147783781Y-85356500D01*
X146016219Y-85356500D01*
X145990692Y-85359461D01*
X145938483Y-85382514D01*
X145886275Y-85405566D01*
X145886274Y-85405567D01*
X145886273Y-85405567D01*
X145805566Y-85486274D01*
X145759462Y-85590689D01*
X145759461Y-85590695D01*
X145756500Y-85616218D01*
X130127500Y-85616218D01*
X130127500Y-75000000D01*
X132339847Y-75000000D01*
X132359242Y-75320646D01*
X132399169Y-75538522D01*
X132417146Y-75636616D01*
X132512714Y-75943303D01*
X132590851Y-76116919D01*
X132644550Y-76236234D01*
X132644556Y-76236243D01*
X132810740Y-76511144D01*
X133008846Y-76764007D01*
X133235992Y-76991153D01*
X133488855Y-77189259D01*
X133488858Y-77189261D01*
X133488861Y-77189263D01*
X133763765Y-77355449D01*
X134056697Y-77487286D01*
X134363384Y-77582854D01*
X134639426Y-77633440D01*
X134679353Y-77640757D01*
X134679352Y-77640757D01*
X134713957Y-77642850D01*
X135000000Y-77660153D01*
X135320646Y-77640757D01*
X135636616Y-77582854D01*
X135943303Y-77487286D01*
X136236235Y-77355449D01*
X136511139Y-77189263D01*
X136764008Y-76991153D01*
X136991153Y-76764008D01*
X137189263Y-76511139D01*
X137355449Y-76236235D01*
X137487286Y-75943303D01*
X137582854Y-75636616D01*
X137640757Y-75320646D01*
X137660153Y-75000000D01*
X202339847Y-75000000D01*
X202359242Y-75320646D01*
X202399169Y-75538522D01*
X202417146Y-75636616D01*
X202512714Y-75943303D01*
X202590851Y-76116919D01*
X202644550Y-76236234D01*
X202644556Y-76236243D01*
X202810740Y-76511144D01*
X203008846Y-76764007D01*
X203235992Y-76991153D01*
X203488855Y-77189259D01*
X203488858Y-77189261D01*
X203488861Y-77189263D01*
X203763765Y-77355449D01*
X204056697Y-77487286D01*
X204363384Y-77582854D01*
X204639426Y-77633440D01*
X204679353Y-77640757D01*
X204679352Y-77640757D01*
X204713957Y-77642850D01*
X205000000Y-77660153D01*
X205320646Y-77640757D01*
X205636616Y-77582854D01*
X205943303Y-77487286D01*
X206236235Y-77355449D01*
X206511139Y-77189263D01*
X206764008Y-76991153D01*
X206991153Y-76764008D01*
X207189263Y-76511139D01*
X207355449Y-76236235D01*
X207487286Y-75943303D01*
X207582854Y-75636616D01*
X207640757Y-75320646D01*
X207660153Y-75000000D01*
X207640757Y-74679354D01*
X207582854Y-74363384D01*
X207487286Y-74056697D01*
X207355449Y-73763765D01*
X207189263Y-73488861D01*
X207189261Y-73488858D01*
X207189259Y-73488855D01*
X206991153Y-73235992D01*
X206764007Y-73008846D01*
X206511144Y-72810740D01*
X206236243Y-72644556D01*
X206236234Y-72644550D01*
X206116919Y-72590851D01*
X205943303Y-72512714D01*
X205943296Y-72512711D01*
X205943294Y-72512711D01*
X205636619Y-72417147D01*
X205636616Y-72417146D01*
X205538522Y-72399169D01*
X205320646Y-72359242D01*
X205320647Y-72359242D01*
X205000000Y-72339847D01*
X204679353Y-72359242D01*
X204421549Y-72406486D01*
X204363384Y-72417146D01*
X204363381Y-72417146D01*
X204363380Y-72417147D01*
X204056705Y-72512711D01*
X204056699Y-72512713D01*
X204056697Y-72512714D01*
X203980724Y-72546906D01*
X203763765Y-72644550D01*
X203763756Y-72644556D01*
X203488855Y-72810740D01*
X203235992Y-73008846D01*
X203008846Y-73235992D01*
X202810740Y-73488855D01*
X202644556Y-73763756D01*
X202644550Y-73763765D01*
X202512713Y-74056700D01*
X202512711Y-74056705D01*
X202417147Y-74363380D01*
X202359242Y-74679353D01*
X202339847Y-75000000D01*
X137660153Y-75000000D01*
X137640757Y-74679354D01*
X137582854Y-74363384D01*
X137487286Y-74056697D01*
X137355449Y-73763765D01*
X137189263Y-73488861D01*
X137189261Y-73488858D01*
X137189259Y-73488855D01*
X136991153Y-73235992D01*
X136764007Y-73008846D01*
X136511144Y-72810740D01*
X136236243Y-72644556D01*
X136236234Y-72644550D01*
X136116919Y-72590851D01*
X135943303Y-72512714D01*
X135943296Y-72512711D01*
X135943294Y-72512711D01*
X135636619Y-72417147D01*
X135636616Y-72417146D01*
X135538522Y-72399169D01*
X135320646Y-72359242D01*
X135320647Y-72359242D01*
X135000000Y-72339847D01*
X134679353Y-72359242D01*
X134421549Y-72406486D01*
X134363384Y-72417146D01*
X134363381Y-72417146D01*
X134363380Y-72417147D01*
X134056705Y-72512711D01*
X134056699Y-72512713D01*
X134056697Y-72512714D01*
X133980724Y-72546906D01*
X133763765Y-72644550D01*
X133763756Y-72644556D01*
X133488855Y-72810740D01*
X133235992Y-73008846D01*
X133008846Y-73235992D01*
X132810740Y-73488855D01*
X132644556Y-73763756D01*
X132644550Y-73763765D01*
X132512713Y-74056700D01*
X132512711Y-74056705D01*
X132417147Y-74363380D01*
X132359242Y-74679353D01*
X132339847Y-75000000D01*
X130127500Y-75000000D01*
X130127500Y-70278900D01*
X130147784Y-70203200D01*
X130203200Y-70147784D01*
X130278900Y-70127500D01*
X209721100Y-70127500D01*
X209796800Y-70147784D01*
G37*
G04 #@! TD.AperFunction*
M02*
