%TF.GenerationSoftware,KiCad,Pcbnew,8.0.6*%
%TF.CreationDate,2025-01-18T13:18:20-05:00*%
%TF.ProjectId,RL78_G13_Arduino,524c3738-5f47-4313-935f-41726475696e,rev?*%
%TF.SameCoordinates,Original*%
%TF.FileFunction,Copper,L2,Bot*%
%TF.FilePolarity,Positive*%
%FSLAX46Y46*%
G04 Gerber Fmt 4.6, Leading zero omitted, Abs format (unit mm)*
G04 Created by KiCad (PCBNEW 8.0.6) date 2025-01-18 13:18:20*
%MOMM*%
%LPD*%
G01*
G04 APERTURE LIST*
%TA.AperFunction,ComponentPad*%
%ADD10R,1.700000X1.700000*%
%TD*%
%TA.AperFunction,ComponentPad*%
%ADD11O,1.700000X1.700000*%
%TD*%
%TA.AperFunction,ComponentPad*%
%ADD12R,1.600000X1.600000*%
%TD*%
%TA.AperFunction,ComponentPad*%
%ADD13C,1.600000*%
%TD*%
%TA.AperFunction,ComponentPad*%
%ADD14O,3.048000X1.524000*%
%TD*%
%TA.AperFunction,ComponentPad*%
%ADD15C,4.318000*%
%TD*%
%TA.AperFunction,ViaPad*%
%ADD16C,0.600000*%
%TD*%
%TA.AperFunction,Conductor*%
%ADD17C,0.500000*%
%TD*%
%TA.AperFunction,Conductor*%
%ADD18C,0.250000*%
%TD*%
G04 APERTURE END LIST*
D10*
%TO.P,J3,1,Pin_1*%
%TO.N,Net-(J3-Pin_1)*%
X101802000Y-77260000D03*
D11*
%TO.P,J3,2,Pin_2*%
%TO.N,Net-(J3-Pin_2)*%
X104342000Y-77260000D03*
%TO.P,J3,3,Pin_3*%
%TO.N,Net-(J3-Pin_3)*%
X106882000Y-77260000D03*
%TO.P,J3,4,Pin_4*%
%TO.N,Net-(J3-Pin_4)*%
X109422000Y-77260000D03*
%TO.P,J3,5,Pin_5*%
%TO.N,Net-(J3-Pin_5)*%
X111962000Y-77260000D03*
%TO.P,J3,6,Pin_6*%
%TO.N,Net-(J3-Pin_6)*%
X114502000Y-77260000D03*
%TO.P,J3,7,Pin_7*%
%TO.N,Net-(J3-Pin_7)*%
X117042000Y-77260000D03*
%TO.P,J3,8,Pin_8*%
%TO.N,Net-(J3-Pin_8)*%
X119582000Y-77260000D03*
%TD*%
D10*
%TO.P,J2,1,Pin_1*%
%TO.N,/SCL*%
X69798000Y-29000000D03*
D11*
%TO.P,J2,2,Pin_2*%
%TO.N,/SDA*%
X72338000Y-29000000D03*
%TO.P,J2,3,Pin_3*%
%TO.N,VCC*%
X74878000Y-29000000D03*
%TO.P,J2,4,Pin_4*%
%TO.N,GND*%
X77418000Y-29000000D03*
%TO.P,J2,5,Pin_5*%
%TO.N,/SCK_21*%
X79958000Y-29000000D03*
%TO.P,J2,6,Pin_6*%
%TO.N,/MISO_21*%
X82498000Y-29000000D03*
%TO.P,J2,7,Pin_7*%
%TO.N,/MOSI_21*%
X85038000Y-29000000D03*
%TO.P,J2,8,Pin_8*%
%TO.N,/CS_21*%
X87578000Y-29000000D03*
%TO.P,J2,9,Pin_9*%
%TO.N,Net-(J2-Pin_9)*%
X90118000Y-29000000D03*
%TO.P,J2,10,Pin_10*%
%TO.N,Net-(J2-Pin_10)*%
X92658000Y-29000000D03*
%TD*%
D10*
%TO.P,J4,1,Pin_1*%
%TO.N,Net-(J4-Pin_1)*%
X96722000Y-29000000D03*
D11*
%TO.P,J4,2,Pin_2*%
%TO.N,Net-(J4-Pin_2)*%
X99262000Y-29000000D03*
%TO.P,J4,3,Pin_3*%
%TO.N,Net-(J4-Pin_3)*%
X101802000Y-29000000D03*
%TO.P,J4,4,Pin_4*%
%TO.N,Net-(J4-Pin_4)*%
X104342000Y-29000000D03*
%TO.P,J4,5,Pin_5*%
%TO.N,/P121*%
X106882000Y-29000000D03*
%TO.P,J4,6,Pin_6*%
%TO.N,/P122*%
X109422000Y-29000000D03*
%TO.P,J4,7,Pin_7*%
%TO.N,Net-(J4-Pin_7)*%
X111962000Y-29000000D03*
%TO.P,J4,8,Pin_8*%
%TO.N,Net-(J4-Pin_8)*%
X114502000Y-29000000D03*
%TD*%
D10*
%TO.P,J6,1,Pin_1*%
%TO.N,/SCK_00*%
X119582000Y-29000000D03*
D11*
%TO.P,J6,2,Pin_2*%
%TO.N,/MISO_00*%
X122122000Y-29000000D03*
%TO.P,J6,3,Pin_3*%
%TO.N,/MOSI_00*%
X124662000Y-29000000D03*
%TO.P,J6,4,Pin_4*%
%TO.N,/CS_00*%
X127202000Y-29000000D03*
%TO.P,J6,5,Pin_5*%
%TO.N,/SCK_20*%
X129742000Y-29000000D03*
%TO.P,J6,6,Pin_6*%
%TO.N,/MISO_20*%
X132282000Y-29000000D03*
%TO.P,J6,7,Pin_7*%
%TO.N,/MOSI_20*%
X134822000Y-29000000D03*
%TO.P,J6,8,Pin_8*%
%TO.N,/CS_20*%
X137362000Y-29000000D03*
%TD*%
D12*
%TO.P,C4,1*%
%TO.N,+5V*%
X93102000Y-67400000D03*
D13*
%TO.P,C4,2*%
%TO.N,GND*%
X95602000Y-67400000D03*
%TD*%
D14*
%TO.P,S1,1,S*%
%TO.N,Net-(S1-S)*%
X54350800Y-55539400D03*
%TO.P,S1,2,S1*%
X60853200Y-55539400D03*
%TO.P,S1,3,P*%
%TO.N,GND*%
X54350800Y-60060600D03*
%TO.P,S1,4,P1*%
X60853200Y-60060600D03*
%TD*%
D12*
%TO.P,C2,1*%
%TO.N,/Vin*%
X83002000Y-67400000D03*
D13*
%TO.P,C2,2*%
%TO.N,GND*%
X85502000Y-67400000D03*
%TD*%
D10*
%TO.P,J1,1,Pin_1*%
%TO.N,unconnected-(J1-Pin_1-Pad1)*%
X78942000Y-77260000D03*
D11*
%TO.P,J1,2,Pin_2*%
%TO.N,VCC*%
X81482000Y-77260000D03*
%TO.P,J1,3,Pin_3*%
%TO.N,/~{RESET}*%
X84022000Y-77260000D03*
%TO.P,J1,4,Pin_4*%
%TO.N,+3.3V*%
X86562000Y-77260000D03*
%TO.P,J1,5,Pin_5*%
%TO.N,+5V*%
X89102000Y-77260000D03*
%TO.P,J1,6,Pin_6*%
%TO.N,GND*%
X91642000Y-77260000D03*
%TO.P,J1,7,Pin_7*%
X94182000Y-77260000D03*
%TO.P,J1,8,Pin_8*%
%TO.N,/Vin*%
X96722000Y-77260000D03*
%TD*%
D15*
%TO.P,P2,GND,GND*%
%TO.N,GND*%
X55700000Y-72400000D03*
%TO.P,P2,GNDBREAK,GNDBREAK*%
X58700000Y-77100000D03*
%TO.P,P2,PWR,PWR*%
%TO.N,/Vin*%
X61700000Y-72400000D03*
%TD*%
D12*
%TO.P,C6,1*%
%TO.N,+3.3V*%
X103402000Y-67400000D03*
D13*
%TO.P,C6,2*%
%TO.N,GND*%
X105902000Y-67400000D03*
%TD*%
D10*
%TO.P,JP1,1,A*%
%TO.N,+3.3V*%
X67052000Y-58960000D03*
D11*
%TO.P,JP1,2,C*%
%TO.N,VCC*%
X67052000Y-61500000D03*
%TO.P,JP1,3,B*%
%TO.N,+5V*%
X67052000Y-64040000D03*
%TD*%
D10*
%TO.P,P3,1,Pin_1*%
%TO.N,VCC*%
X55000000Y-34500000D03*
D11*
%TO.P,P3,2,Pin_2*%
%TO.N,Net-(P3-Pin_2)*%
X55000000Y-37040000D03*
%TO.P,P3,3,Pin_3*%
%TO.N,Net-(P3-Pin_3)*%
X55000000Y-39580000D03*
%TO.P,P3,4,Pin_4*%
%TO.N,/~{RESET}*%
X55000000Y-42120000D03*
%TO.P,P3,5,Pin_5*%
%TO.N,GND*%
X55000000Y-44660000D03*
%TD*%
D10*
%TO.P,J5,1,Pin_1*%
%TO.N,/SCK_11*%
X126020000Y-77500000D03*
D11*
%TO.P,J5,2,Pin_2*%
%TO.N,/MISO_11*%
X128560000Y-77500000D03*
%TO.P,J5,3,Pin_3*%
%TO.N,/MOSI_11*%
X131100000Y-77500000D03*
%TO.P,J5,4,Pin_4*%
%TO.N,/CS_11*%
X133640000Y-77500000D03*
%TO.P,J5,5,Pin_5*%
%TO.N,Net-(J5-Pin_5)*%
X136180000Y-77500000D03*
%TO.P,J5,6,Pin_6*%
%TO.N,Net-(J5-Pin_6)*%
X138720000Y-77500000D03*
%TD*%
D16*
%TO.N,/SDA*%
X118483300Y-52854700D03*
%TO.N,/SCL*%
X116324700Y-54871400D03*
%TO.N,/P122*%
X118254200Y-48482700D03*
%TO.N,/P121*%
X115380700Y-48855100D03*
%TO.N,Net-(J4-Pin_3)*%
X119611800Y-44971900D03*
%TO.N,Net-(J2-Pin_9)*%
X118145500Y-51299700D03*
%TO.N,/MISO_00*%
X126418800Y-47331200D03*
%TO.N,/MISO_21*%
X95664000Y-34826400D03*
X119350100Y-50268600D03*
%TO.N,/SCK_21*%
X118466700Y-49523000D03*
%TO.N,/CS_21*%
X120293000Y-52084400D03*
%TO.N,/CS_20*%
X128813900Y-56097000D03*
%TO.N,/MOSI_21*%
X120477900Y-51278700D03*
%TO.N,/SCK_20*%
X131097100Y-49361800D03*
%TO.N,/CS_00*%
X129030300Y-57168900D03*
%TO.N,/CS_11*%
X126188000Y-50182900D03*
%TO.N,Net-(J3-Pin_3)*%
X122249000Y-46012200D03*
%TO.N,Net-(J3-Pin_2)*%
X121587000Y-45296000D03*
%TO.N,Net-(J3-Pin_4)*%
X123068800Y-46357600D03*
%TO.N,Net-(J5-Pin_6)*%
X135000000Y-72100000D03*
X131950000Y-72100000D03*
X124799300Y-52478100D03*
%TO.N,Net-(J3-Pin_6)*%
X124588500Y-46362200D03*
%TO.N,/SCK_11*%
X125927400Y-55548100D03*
%TO.N,Net-(J3-Pin_7)*%
X125611500Y-45891600D03*
%TO.N,Net-(J3-Pin_5)*%
X123414500Y-47145900D03*
%TO.N,Net-(J3-Pin_1)*%
X120891100Y-44178600D03*
%TO.N,Net-(J3-Pin_8)*%
X127591000Y-43148700D03*
X128828800Y-58039300D03*
%TD*%
D17*
%TO.N,GND*%
X94182000Y-71068000D02*
X94182000Y-77260000D01*
X95602000Y-69648000D02*
X94182000Y-71068000D01*
X95602000Y-67400000D02*
X95602000Y-69648000D01*
D18*
%TO.N,/SDA*%
X72338000Y-29000000D02*
X73147000Y-29000000D01*
X73147000Y-29000000D02*
X97001700Y-52854700D01*
X97001700Y-52854700D02*
X118483300Y-52854700D01*
%TO.N,/SCL*%
X69798000Y-29000000D02*
X70607000Y-29000000D01*
X70607000Y-29000000D02*
X96478400Y-54871400D01*
X96478400Y-54871400D02*
X116324700Y-54871400D01*
%TO.N,/P122*%
X118254200Y-39008900D02*
X118254200Y-48482700D01*
X109422000Y-29000000D02*
X109422000Y-30176700D01*
X109422000Y-30176700D02*
X118254200Y-39008900D01*
%TO.N,+3.3V*%
X84576400Y-78436700D02*
X85753100Y-77260000D01*
X88547600Y-78436700D02*
X87370900Y-77260000D01*
X103402000Y-67400000D02*
X103402000Y-72254600D01*
X82752000Y-77680500D02*
X83508200Y-78436700D01*
X103402000Y-72254600D02*
X97219900Y-78436700D01*
X67052000Y-59769000D02*
X82752000Y-75469000D01*
X85753100Y-77260000D02*
X86562000Y-77260000D01*
X67052000Y-58960000D02*
X67052000Y-59769000D01*
X82752000Y-75469000D02*
X82752000Y-77680500D01*
X87370900Y-77260000D02*
X86562000Y-77260000D01*
X83508200Y-78436700D02*
X84576400Y-78436700D01*
X97219900Y-78436700D02*
X88547600Y-78436700D01*
%TO.N,/P121*%
X115380700Y-48855100D02*
X115380700Y-38675400D01*
X106882000Y-29000000D02*
X106882000Y-30176700D01*
X115380700Y-38675400D02*
X106882000Y-30176700D01*
%TO.N,Net-(J4-Pin_3)*%
X102610900Y-29000000D02*
X103787600Y-27823300D01*
X119611800Y-38549800D02*
X119611800Y-44971900D01*
X103787600Y-27823300D02*
X110013500Y-27823300D01*
X110013500Y-27823300D02*
X110692000Y-28501800D01*
X110692000Y-29630000D02*
X119611800Y-38549800D01*
X101802000Y-29000000D02*
X102610900Y-29000000D01*
X110692000Y-28501800D02*
X110692000Y-29630000D01*
%TO.N,Net-(J2-Pin_9)*%
X90118000Y-29000000D02*
X90118000Y-30176700D01*
X118145500Y-51299700D02*
X111241000Y-51299700D01*
X111241000Y-51299700D02*
X90118000Y-30176700D01*
%TO.N,/MISO_00*%
X126418800Y-34473500D02*
X126418800Y-47331200D01*
X122122000Y-30176700D02*
X126418800Y-34473500D01*
X122122000Y-29000000D02*
X122122000Y-30176700D01*
%TO.N,/MISO_21*%
X119350100Y-50268600D02*
X111106200Y-50268600D01*
X111106200Y-50268600D02*
X95664000Y-34826400D01*
%TO.N,/SCK_21*%
X91388000Y-29394200D02*
X111516800Y-49523000D01*
X90618500Y-27819900D02*
X91388000Y-28589400D01*
X81138100Y-27819900D02*
X90618500Y-27819900D01*
X79958000Y-29000000D02*
X81138100Y-27819900D01*
X91388000Y-28589400D02*
X91388000Y-29394200D01*
X111516800Y-49523000D02*
X118466700Y-49523000D01*
%TO.N,/CS_21*%
X111324300Y-52084400D02*
X88239900Y-29000000D01*
X120293000Y-52084400D02*
X111324300Y-52084400D01*
X88239900Y-29000000D02*
X87578000Y-29000000D01*
%TO.N,/CS_20*%
X137362000Y-47548900D02*
X137362000Y-29000000D01*
X128813900Y-56097000D02*
X137362000Y-47548900D01*
%TO.N,/MOSI_21*%
X79462600Y-30212400D02*
X78781000Y-29530800D01*
X79860300Y-27368000D02*
X114586600Y-27368000D01*
X120252300Y-33033700D02*
X120252300Y-51053100D01*
X120252300Y-51053100D02*
X120477900Y-51278700D01*
X83016600Y-30212400D02*
X79462600Y-30212400D01*
X78781000Y-28447300D02*
X79860300Y-27368000D01*
X84229000Y-29000000D02*
X83016600Y-30212400D01*
X85038000Y-29000000D02*
X84229000Y-29000000D01*
X114586600Y-27368000D02*
X120252300Y-33033700D01*
X78781000Y-29530800D02*
X78781000Y-28447300D01*
%TO.N,/SCK_20*%
X131097100Y-31531800D02*
X129742000Y-30176700D01*
X129742000Y-29000000D02*
X129742000Y-30176700D01*
X131097100Y-49361800D02*
X131097100Y-31531800D01*
%TO.N,/CS_00*%
X129030300Y-57168900D02*
X138553700Y-47645500D01*
X138553700Y-28472000D02*
X137905000Y-27823300D01*
X129187600Y-27823300D02*
X128378700Y-28632200D01*
X127202000Y-29000000D02*
X128378700Y-29000000D01*
X138553700Y-47645500D02*
X138553700Y-28472000D01*
X137905000Y-27823300D02*
X129187600Y-27823300D01*
X128378700Y-28632200D02*
X128378700Y-29000000D01*
%TO.N,/CS_11*%
X127601700Y-64251700D02*
X127601700Y-51596600D01*
X133640000Y-77500000D02*
X133640000Y-70290000D01*
X133640000Y-70290000D02*
X127601700Y-64251700D01*
X127601700Y-51596600D02*
X126188000Y-50182900D01*
D17*
%TO.N,+5V*%
X89102000Y-71400000D02*
X93102000Y-67400000D01*
X89102000Y-77260000D02*
X89102000Y-71400000D01*
D18*
%TO.N,Net-(J3-Pin_3)*%
X122249000Y-46012200D02*
X122249000Y-60716300D01*
X122249000Y-60716300D02*
X106882000Y-76083300D01*
X106882000Y-77260000D02*
X106882000Y-76083300D01*
%TO.N,Net-(J3-Pin_2)*%
X121587000Y-45296000D02*
X121587000Y-58838300D01*
X121587000Y-58838300D02*
X104342000Y-76083300D01*
X104342000Y-77260000D02*
X104342000Y-76083300D01*
%TO.N,Net-(J3-Pin_4)*%
X122787800Y-62717500D02*
X122787800Y-46638600D01*
X122787800Y-46638600D02*
X123068800Y-46357600D01*
X109422000Y-76083300D02*
X122787800Y-62717500D01*
X109422000Y-77260000D02*
X109422000Y-76083300D01*
%TO.N,Net-(J5-Pin_6)*%
X131950000Y-72100000D02*
X126942500Y-67092500D01*
X138720000Y-72620000D02*
X138720000Y-77500000D01*
X126942500Y-67092500D02*
X126942500Y-54621300D01*
X135000000Y-72100000D02*
X138200000Y-72100000D01*
X138200000Y-72100000D02*
X138720000Y-72620000D01*
X126942500Y-54621300D02*
X124799300Y-52478100D01*
%TO.N,Net-(J3-Pin_6)*%
X124588500Y-46362200D02*
X124588500Y-46877100D01*
X124588500Y-46877100D02*
X123720900Y-47744700D01*
X123720900Y-66864400D02*
X114502000Y-76083300D01*
X114502000Y-77260000D02*
X114502000Y-76083300D01*
X123720900Y-47744700D02*
X123720900Y-66864400D01*
%TO.N,/SCK_11*%
X126020000Y-76323300D02*
X125927400Y-76230700D01*
X125927400Y-76230700D02*
X125927400Y-55548100D01*
X126020000Y-77500000D02*
X126020000Y-76323300D01*
%TO.N,Net-(J3-Pin_7)*%
X117042000Y-77260000D02*
X117042000Y-76083300D01*
X124172600Y-51303600D02*
X124172600Y-68952700D01*
X125611500Y-45891600D02*
X125611500Y-49864700D01*
X124172600Y-68952700D02*
X117042000Y-76083300D01*
X125611500Y-49864700D02*
X124172600Y-51303600D01*
%TO.N,Net-(J3-Pin_5)*%
X111962000Y-77260000D02*
X111962000Y-76083300D01*
X123269200Y-64776100D02*
X111962000Y-76083300D01*
X123269200Y-47291200D02*
X123269200Y-64776100D01*
X123414500Y-47145900D02*
X123269200Y-47291200D01*
%TO.N,Net-(J3-Pin_1)*%
X121104600Y-56780700D02*
X121104600Y-51019100D01*
X121104600Y-51019100D02*
X120891100Y-50805600D01*
X101802000Y-77260000D02*
X101802000Y-76083300D01*
X120891100Y-50805600D02*
X120891100Y-44178600D01*
X101802000Y-76083300D02*
X121104600Y-56780700D01*
%TO.N,Net-(J3-Pin_8)*%
X128187200Y-57397700D02*
X128828800Y-58039300D01*
X127591000Y-43148700D02*
X128187200Y-43744900D01*
X128187200Y-43744900D02*
X128187200Y-57397700D01*
%TO.N,Net-(S1-S)*%
X60853200Y-55539400D02*
X54350800Y-55539400D01*
%TO.N,VCC*%
X67052000Y-61500000D02*
X81482000Y-75930000D01*
X81482000Y-75930000D02*
X81482000Y-77260000D01*
%TO.N,/~{RESET}*%
X55000000Y-42120000D02*
X55000000Y-42929000D01*
X55000000Y-42929000D02*
X84022000Y-71951000D01*
X84022000Y-71951000D02*
X84022000Y-77260000D01*
%TD*%
%TA.AperFunction,Conductor*%
%TO.N,GND*%
G36*
X93716075Y-77067007D02*
G01*
X93682000Y-77194174D01*
X93682000Y-77325826D01*
X93716075Y-77452993D01*
X93748988Y-77510000D01*
X92075012Y-77510000D01*
X92107925Y-77452993D01*
X92142000Y-77325826D01*
X92142000Y-77194174D01*
X92107925Y-77067007D01*
X92075012Y-77010000D01*
X93748988Y-77010000D01*
X93716075Y-77067007D01*
G37*
%TD.AperFunction*%
%TA.AperFunction,Conductor*%
G36*
X77668000Y-30330633D02*
G01*
X77881483Y-30273433D01*
X77881492Y-30273429D01*
X78095579Y-30173599D01*
X78095585Y-30173596D01*
X78264619Y-30055235D01*
X78330824Y-30032907D01*
X78398592Y-30049916D01*
X78423424Y-30069128D01*
X78970529Y-30616233D01*
X79058764Y-30704468D01*
X79058768Y-30704472D01*
X79162518Y-30773796D01*
X79162524Y-30773799D01*
X79162525Y-30773800D01*
X79277815Y-30821555D01*
X79400201Y-30845899D01*
X79400205Y-30845900D01*
X79400206Y-30845900D01*
X83078995Y-30845900D01*
X83078996Y-30845899D01*
X83201385Y-30821555D01*
X83316675Y-30773800D01*
X83420433Y-30704471D01*
X84041401Y-30083502D01*
X84102722Y-30050019D01*
X84172413Y-30055003D01*
X84205240Y-30073330D01*
X84292424Y-30141189D01*
X84292426Y-30141190D01*
X84292429Y-30141192D01*
X84352314Y-30173600D01*
X84490426Y-30248342D01*
X84703365Y-30321444D01*
X84925431Y-30358500D01*
X85150569Y-30358500D01*
X85372635Y-30321444D01*
X85585574Y-30248342D01*
X85783576Y-30141189D01*
X85961240Y-30002906D01*
X86077449Y-29876671D01*
X86113715Y-29837276D01*
X86113715Y-29837275D01*
X86113722Y-29837268D01*
X86204193Y-29698790D01*
X86257338Y-29653437D01*
X86326569Y-29644013D01*
X86389905Y-29673515D01*
X86411804Y-29698787D01*
X86502278Y-29837268D01*
X86502283Y-29837273D01*
X86502284Y-29837276D01*
X86626210Y-29971893D01*
X86654760Y-30002906D01*
X86832424Y-30141189D01*
X86832425Y-30141189D01*
X86832427Y-30141191D01*
X86892314Y-30173600D01*
X87030426Y-30248342D01*
X87243365Y-30321444D01*
X87465431Y-30358500D01*
X87690569Y-30358500D01*
X87912635Y-30321444D01*
X88125574Y-30248342D01*
X88323576Y-30141189D01*
X88328037Y-30137717D01*
X88393030Y-30112072D01*
X88461570Y-30125637D01*
X88491883Y-30147887D01*
X110353514Y-52009519D01*
X110386999Y-52070842D01*
X110382015Y-52140534D01*
X110340143Y-52196467D01*
X110274679Y-52220884D01*
X110265833Y-52221200D01*
X97315466Y-52221200D01*
X97248427Y-52201515D01*
X97227785Y-52184881D01*
X75456002Y-30413098D01*
X75422517Y-30351775D01*
X75427501Y-30282083D01*
X75469373Y-30226150D01*
X75484654Y-30216369D01*
X75623576Y-30141189D01*
X75801240Y-30002906D01*
X75917449Y-29876671D01*
X75953715Y-29837276D01*
X75953715Y-29837275D01*
X75953722Y-29837268D01*
X76047749Y-29693347D01*
X76100894Y-29647994D01*
X76170125Y-29638570D01*
X76233461Y-29668072D01*
X76253130Y-29690048D01*
X76379890Y-29871078D01*
X76546917Y-30038105D01*
X76740421Y-30173600D01*
X76954507Y-30273429D01*
X76954516Y-30273433D01*
X77168000Y-30330634D01*
X77168000Y-29433012D01*
X77225007Y-29465925D01*
X77352174Y-29500000D01*
X77483826Y-29500000D01*
X77610993Y-29465925D01*
X77668000Y-29433012D01*
X77668000Y-30330633D01*
G37*
%TD.AperFunction*%
%TA.AperFunction,Conductor*%
G36*
X149867539Y-25095185D02*
G01*
X149913294Y-25147989D01*
X149924500Y-25199500D01*
X149924500Y-81800500D01*
X149904815Y-81867539D01*
X149852011Y-81913294D01*
X149800500Y-81924500D01*
X50199500Y-81924500D01*
X50132461Y-81904815D01*
X50086706Y-81852011D01*
X50075500Y-81800500D01*
X50075500Y-77100000D01*
X56036140Y-77100000D01*
X56055562Y-77421087D01*
X56113549Y-77737511D01*
X56209241Y-78044599D01*
X56209245Y-78044610D01*
X56341267Y-78337952D01*
X56341268Y-78337954D01*
X56507685Y-78613243D01*
X56507690Y-78613251D01*
X56650681Y-78795764D01*
X57478342Y-77968102D01*
X57556932Y-78076272D01*
X57723728Y-78243068D01*
X57831895Y-78321656D01*
X57004234Y-79149317D01*
X57004234Y-79149318D01*
X57186748Y-79292309D01*
X57186756Y-79292314D01*
X57462045Y-79458731D01*
X57462047Y-79458732D01*
X57755389Y-79590754D01*
X57755400Y-79590758D01*
X58062488Y-79686450D01*
X58378912Y-79744437D01*
X58700000Y-79763859D01*
X59021087Y-79744437D01*
X59337511Y-79686450D01*
X59644599Y-79590758D01*
X59644610Y-79590754D01*
X59937952Y-79458732D01*
X59937954Y-79458731D01*
X60213243Y-79292314D01*
X60213251Y-79292308D01*
X60395764Y-79149318D01*
X60395764Y-79149317D01*
X59568104Y-78321657D01*
X59676272Y-78243068D01*
X59843068Y-78076272D01*
X59921657Y-77968104D01*
X60749317Y-78795764D01*
X60749318Y-78795764D01*
X60892308Y-78613251D01*
X60892314Y-78613243D01*
X61058731Y-78337954D01*
X61058732Y-78337952D01*
X61190754Y-78044610D01*
X61190758Y-78044599D01*
X61286450Y-77737511D01*
X61344437Y-77421087D01*
X61363859Y-77100000D01*
X61344437Y-76778912D01*
X61286450Y-76462488D01*
X61190758Y-76155400D01*
X61190754Y-76155389D01*
X61058732Y-75862047D01*
X61058731Y-75862045D01*
X60892314Y-75586756D01*
X60892309Y-75586748D01*
X60749317Y-75404234D01*
X59921656Y-76231895D01*
X59843068Y-76123728D01*
X59676272Y-75956932D01*
X59568103Y-75878342D01*
X60395764Y-75050681D01*
X60395764Y-75050680D01*
X60210296Y-74905375D01*
X60211088Y-74904363D01*
X60170469Y-74854245D01*
X60165180Y-74806318D01*
X60141267Y-74820598D01*
X60071435Y-74818300D01*
X60046115Y-74806653D01*
X59937954Y-74741268D01*
X59937952Y-74741267D01*
X59644610Y-74609245D01*
X59644599Y-74609241D01*
X59337511Y-74513549D01*
X59021087Y-74455562D01*
X58700000Y-74436140D01*
X58378912Y-74455562D01*
X58062488Y-74513549D01*
X57755400Y-74609241D01*
X57755389Y-74609245D01*
X57462047Y-74741267D01*
X57462045Y-74741268D01*
X57186756Y-74907685D01*
X57004234Y-75050681D01*
X57831895Y-75878342D01*
X57723728Y-75956932D01*
X57556932Y-76123728D01*
X57478342Y-76231895D01*
X56650681Y-75404234D01*
X56507685Y-75586756D01*
X56341268Y-75862045D01*
X56341267Y-75862047D01*
X56209245Y-76155389D01*
X56209241Y-76155400D01*
X56113549Y-76462488D01*
X56055562Y-76778912D01*
X56036140Y-77100000D01*
X50075500Y-77100000D01*
X50075500Y-72400000D01*
X53036140Y-72400000D01*
X53055562Y-72721087D01*
X53113549Y-73037511D01*
X53209241Y-73344599D01*
X53209245Y-73344610D01*
X53341267Y-73637952D01*
X53341268Y-73637954D01*
X53507685Y-73913243D01*
X53507690Y-73913251D01*
X53650681Y-74095764D01*
X54478342Y-73268103D01*
X54556932Y-73376272D01*
X54723728Y-73543068D01*
X54831895Y-73621656D01*
X54004234Y-74449317D01*
X54004234Y-74449318D01*
X54186748Y-74592309D01*
X54186756Y-74592314D01*
X54462045Y-74758731D01*
X54462047Y-74758732D01*
X54755389Y-74890754D01*
X54755400Y-74890758D01*
X55062488Y-74986450D01*
X55378912Y-75044437D01*
X55700000Y-75063859D01*
X56021087Y-75044437D01*
X56337511Y-74986450D01*
X56644599Y-74890758D01*
X56644610Y-74890754D01*
X56937952Y-74758732D01*
X56937954Y-74758731D01*
X57213243Y-74592314D01*
X57213251Y-74592308D01*
X57395764Y-74449318D01*
X57395764Y-74449317D01*
X56568104Y-73621657D01*
X56676272Y-73543068D01*
X56843068Y-73376272D01*
X56921657Y-73268104D01*
X57749317Y-74095764D01*
X57749318Y-74095764D01*
X57892308Y-73913251D01*
X57892314Y-73913243D01*
X58058731Y-73637954D01*
X58058732Y-73637952D01*
X58190754Y-73344610D01*
X58190758Y-73344599D01*
X58286450Y-73037511D01*
X58344437Y-72721087D01*
X58363859Y-72400000D01*
X59027624Y-72400000D01*
X59047108Y-72722114D01*
X59105277Y-73039540D01*
X59201278Y-73347620D01*
X59201284Y-73347635D01*
X59333726Y-73641910D01*
X59333727Y-73641911D01*
X59333729Y-73641915D01*
X59357791Y-73681718D01*
X59500676Y-73918081D01*
X59500682Y-73918089D01*
X59699700Y-74172116D01*
X59927883Y-74400299D01*
X60184866Y-74601633D01*
X60184073Y-74602644D01*
X60224693Y-74652763D01*
X60229981Y-74700689D01*
X60253895Y-74686410D01*
X60323727Y-74688708D01*
X60349044Y-74700353D01*
X60458085Y-74766271D01*
X60752362Y-74898715D01*
X60752371Y-74898717D01*
X60752379Y-74898721D01*
X61004460Y-74977272D01*
X61060459Y-74994722D01*
X61377881Y-75052891D01*
X61700000Y-75072376D01*
X62022119Y-75052891D01*
X62339541Y-74994722D01*
X62476181Y-74952143D01*
X62647620Y-74898721D01*
X62647624Y-74898719D01*
X62647638Y-74898715D01*
X62941915Y-74766271D01*
X63218083Y-74599322D01*
X63472113Y-74400302D01*
X63700302Y-74172113D01*
X63899322Y-73918083D01*
X64066271Y-73641915D01*
X64198715Y-73347638D01*
X64294722Y-73039541D01*
X64352891Y-72722119D01*
X64372376Y-72400000D01*
X64352891Y-72077881D01*
X64294722Y-71760459D01*
X64268984Y-71677862D01*
X64198721Y-71452379D01*
X64198717Y-71452371D01*
X64198715Y-71452362D01*
X64075576Y-71178759D01*
X64066273Y-71158089D01*
X64066272Y-71158088D01*
X64066271Y-71158085D01*
X63911100Y-70901400D01*
X63899323Y-70881918D01*
X63899317Y-70881910D01*
X63700299Y-70627883D01*
X63472116Y-70399700D01*
X63218089Y-70200682D01*
X63218081Y-70200676D01*
X63060179Y-70105222D01*
X62941915Y-70033729D01*
X62941911Y-70033727D01*
X62941910Y-70033726D01*
X62665315Y-69909241D01*
X62647638Y-69901285D01*
X62647635Y-69901284D01*
X62647620Y-69901278D01*
X62339540Y-69805277D01*
X62022114Y-69747108D01*
X61700000Y-69727624D01*
X61377885Y-69747108D01*
X61060459Y-69805277D01*
X60752379Y-69901278D01*
X60752364Y-69901284D01*
X60458089Y-70033726D01*
X60458087Y-70033728D01*
X60181918Y-70200676D01*
X60181910Y-70200682D01*
X59927883Y-70399700D01*
X59699700Y-70627883D01*
X59500682Y-70881910D01*
X59500676Y-70881918D01*
X59333728Y-71158087D01*
X59333726Y-71158089D01*
X59201284Y-71452364D01*
X59201278Y-71452379D01*
X59105277Y-71760459D01*
X59047108Y-72077885D01*
X59027624Y-72400000D01*
X58363859Y-72400000D01*
X58344437Y-72078912D01*
X58286450Y-71762488D01*
X58190758Y-71455400D01*
X58190754Y-71455389D01*
X58058732Y-71162047D01*
X58058731Y-71162045D01*
X57892314Y-70886756D01*
X57892309Y-70886748D01*
X57749317Y-70704234D01*
X56921656Y-71531895D01*
X56843068Y-71423728D01*
X56676272Y-71256932D01*
X56568103Y-71178342D01*
X57395764Y-70350681D01*
X57395764Y-70350680D01*
X57213251Y-70207690D01*
X57213243Y-70207685D01*
X56937954Y-70041268D01*
X56937952Y-70041267D01*
X56644610Y-69909245D01*
X56644599Y-69909241D01*
X56337511Y-69813549D01*
X56021087Y-69755562D01*
X55700000Y-69736140D01*
X55378912Y-69755562D01*
X55062488Y-69813549D01*
X54755400Y-69909241D01*
X54755389Y-69909245D01*
X54462047Y-70041267D01*
X54462045Y-70041268D01*
X54186756Y-70207685D01*
X54004234Y-70350681D01*
X54831895Y-71178342D01*
X54723728Y-71256932D01*
X54556932Y-71423728D01*
X54478342Y-71531895D01*
X53650681Y-70704234D01*
X53507685Y-70886756D01*
X53341268Y-71162045D01*
X53341267Y-71162047D01*
X53209245Y-71455389D01*
X53209241Y-71455400D01*
X53113549Y-71762488D01*
X53055562Y-72078912D01*
X53036140Y-72400000D01*
X50075500Y-72400000D01*
X50075500Y-59810599D01*
X52350665Y-59810599D01*
X52350665Y-59810600D01*
X53908549Y-59810600D01*
X53877419Y-59864519D01*
X53842800Y-59993720D01*
X53842800Y-60127480D01*
X53877419Y-60256681D01*
X53908549Y-60310600D01*
X52350665Y-60310600D01*
X52357874Y-60356117D01*
X52419256Y-60545035D01*
X52509441Y-60722032D01*
X52626203Y-60882739D01*
X52626203Y-60882740D01*
X52766659Y-61023196D01*
X52927367Y-61139958D01*
X53104362Y-61230142D01*
X53293277Y-61291524D01*
X53489479Y-61322600D01*
X54100800Y-61322600D01*
X54100800Y-60502851D01*
X54154719Y-60533981D01*
X54283920Y-60568600D01*
X54417680Y-60568600D01*
X54546881Y-60533981D01*
X54600800Y-60502851D01*
X54600800Y-61322600D01*
X55212121Y-61322600D01*
X55408320Y-61291524D01*
X55408323Y-61291524D01*
X55597237Y-61230142D01*
X55774232Y-61139958D01*
X55934939Y-61023196D01*
X55934940Y-61023196D01*
X56075396Y-60882740D01*
X56075396Y-60882739D01*
X56192158Y-60722032D01*
X56282343Y-60545035D01*
X56343725Y-60356117D01*
X56350934Y-60310600D01*
X54793051Y-60310600D01*
X54824181Y-60256681D01*
X54858800Y-60127480D01*
X54858800Y-59993720D01*
X54824181Y-59864519D01*
X54793051Y-59810600D01*
X56350935Y-59810600D01*
X56350934Y-59810599D01*
X58853065Y-59810599D01*
X58853065Y-59810600D01*
X60410949Y-59810600D01*
X60379819Y-59864519D01*
X60345200Y-59993720D01*
X60345200Y-60127480D01*
X60379819Y-60256681D01*
X60410949Y-60310600D01*
X58853065Y-60310600D01*
X58860274Y-60356117D01*
X58921656Y-60545035D01*
X59011841Y-60722032D01*
X59128603Y-60882739D01*
X59128603Y-60882740D01*
X59269059Y-61023196D01*
X59429767Y-61139958D01*
X59606762Y-61230142D01*
X59795677Y-61291524D01*
X59991879Y-61322600D01*
X60603200Y-61322600D01*
X60603200Y-60502851D01*
X60657119Y-60533981D01*
X60786320Y-60568600D01*
X60920080Y-60568600D01*
X61049281Y-60533981D01*
X61103200Y-60502851D01*
X61103200Y-61322600D01*
X61714521Y-61322600D01*
X61910720Y-61291524D01*
X61910723Y-61291524D01*
X62099637Y-61230142D01*
X62276632Y-61139958D01*
X62437339Y-61023196D01*
X62437340Y-61023196D01*
X62577796Y-60882740D01*
X62577796Y-60882739D01*
X62694558Y-60722032D01*
X62784743Y-60545035D01*
X62846125Y-60356117D01*
X62853334Y-60310600D01*
X61295451Y-60310600D01*
X61326581Y-60256681D01*
X61361200Y-60127480D01*
X61361200Y-59993720D01*
X61326581Y-59864519D01*
X61295451Y-59810600D01*
X62853335Y-59810600D01*
X62853334Y-59810599D01*
X62846125Y-59765082D01*
X62784743Y-59576164D01*
X62694558Y-59399167D01*
X62577796Y-59238460D01*
X62577796Y-59238459D01*
X62437340Y-59098003D01*
X62276632Y-58981241D01*
X62099637Y-58891057D01*
X61910722Y-58829675D01*
X61714521Y-58798600D01*
X61103200Y-58798600D01*
X61103200Y-59618348D01*
X61049281Y-59587219D01*
X60920080Y-59552600D01*
X60786320Y-59552600D01*
X60657119Y-59587219D01*
X60603200Y-59618348D01*
X60603200Y-58798600D01*
X59991879Y-58798600D01*
X59795679Y-58829675D01*
X59795676Y-58829675D01*
X59606762Y-58891057D01*
X59429767Y-58981241D01*
X59269060Y-59098003D01*
X59269059Y-59098003D01*
X59128603Y-59238459D01*
X59128603Y-59238460D01*
X59011841Y-59399167D01*
X58921656Y-59576164D01*
X58860274Y-59765082D01*
X58853065Y-59810599D01*
X56350934Y-59810599D01*
X56343725Y-59765082D01*
X56282343Y-59576164D01*
X56192158Y-59399167D01*
X56075396Y-59238460D01*
X56075396Y-59238459D01*
X55934940Y-59098003D01*
X55774232Y-58981241D01*
X55597237Y-58891057D01*
X55408322Y-58829675D01*
X55212121Y-58798600D01*
X54600800Y-58798600D01*
X54600800Y-59618348D01*
X54546881Y-59587219D01*
X54417680Y-59552600D01*
X54283920Y-59552600D01*
X54154719Y-59587219D01*
X54100800Y-59618348D01*
X54100800Y-58798600D01*
X53489479Y-58798600D01*
X53293279Y-58829675D01*
X53293276Y-58829675D01*
X53104362Y-58891057D01*
X52927367Y-58981241D01*
X52766660Y-59098003D01*
X52766659Y-59098003D01*
X52626203Y-59238459D01*
X52626203Y-59238460D01*
X52509441Y-59399167D01*
X52419256Y-59576164D01*
X52357874Y-59765082D01*
X52350665Y-59810599D01*
X50075500Y-59810599D01*
X50075500Y-55439409D01*
X52318300Y-55439409D01*
X52318300Y-55639391D01*
X52322296Y-55664618D01*
X52349584Y-55836911D01*
X52411379Y-56027100D01*
X52446109Y-56095260D01*
X52502171Y-56205287D01*
X52619717Y-56367075D01*
X52761125Y-56508483D01*
X52922913Y-56626029D01*
X53101097Y-56716819D01*
X53101099Y-56716820D01*
X53196193Y-56747717D01*
X53291290Y-56778616D01*
X53488809Y-56809900D01*
X53488810Y-56809900D01*
X55212790Y-56809900D01*
X55212791Y-56809900D01*
X55410310Y-56778616D01*
X55600503Y-56716819D01*
X55778687Y-56626029D01*
X55940475Y-56508483D01*
X56081883Y-56367075D01*
X56185823Y-56224013D01*
X56241153Y-56181349D01*
X56286141Y-56172900D01*
X58917859Y-56172900D01*
X58984898Y-56192585D01*
X59018176Y-56224013D01*
X59122117Y-56367075D01*
X59263525Y-56508483D01*
X59425313Y-56626029D01*
X59603497Y-56716819D01*
X59603499Y-56716820D01*
X59698593Y-56747717D01*
X59793690Y-56778616D01*
X59991209Y-56809900D01*
X59991210Y-56809900D01*
X61715190Y-56809900D01*
X61715191Y-56809900D01*
X61912710Y-56778616D01*
X62102903Y-56716819D01*
X62281087Y-56626029D01*
X62442875Y-56508483D01*
X62584283Y-56367075D01*
X62701829Y-56205287D01*
X62792619Y-56027103D01*
X62854416Y-55836910D01*
X62885700Y-55639391D01*
X62885700Y-55439409D01*
X62854416Y-55241890D01*
X62792863Y-55052447D01*
X62792620Y-55051699D01*
X62771942Y-55011116D01*
X62701829Y-54873513D01*
X62584283Y-54711725D01*
X62442875Y-54570317D01*
X62281087Y-54452771D01*
X62102900Y-54361979D01*
X61912711Y-54300184D01*
X61813950Y-54284542D01*
X61715191Y-54268900D01*
X59991209Y-54268900D01*
X59925369Y-54279328D01*
X59793688Y-54300184D01*
X59603499Y-54361979D01*
X59425312Y-54452771D01*
X59335007Y-54518382D01*
X59263525Y-54570317D01*
X59263523Y-54570319D01*
X59263522Y-54570319D01*
X59122119Y-54711722D01*
X59122119Y-54711723D01*
X59122117Y-54711725D01*
X59090762Y-54754882D01*
X59018177Y-54854786D01*
X58962847Y-54897451D01*
X58917859Y-54905900D01*
X56286141Y-54905900D01*
X56219102Y-54886215D01*
X56185823Y-54854786D01*
X56081883Y-54711725D01*
X55940475Y-54570317D01*
X55778687Y-54452771D01*
X55600500Y-54361979D01*
X55410311Y-54300184D01*
X55311550Y-54284542D01*
X55212791Y-54268900D01*
X53488809Y-54268900D01*
X53422969Y-54279328D01*
X53291288Y-54300184D01*
X53101099Y-54361979D01*
X52922912Y-54452771D01*
X52832607Y-54518382D01*
X52761125Y-54570317D01*
X52761123Y-54570319D01*
X52761122Y-54570319D01*
X52619719Y-54711722D01*
X52619719Y-54711723D01*
X52619717Y-54711725D01*
X52588362Y-54754882D01*
X52502171Y-54873512D01*
X52411379Y-55051699D01*
X52349584Y-55241888D01*
X52349584Y-55241890D01*
X52318300Y-55439409D01*
X50075500Y-55439409D01*
X50075500Y-37039994D01*
X53636844Y-37039994D01*
X53636844Y-37040005D01*
X53655434Y-37264359D01*
X53655436Y-37264371D01*
X53710703Y-37482614D01*
X53801140Y-37688792D01*
X53924276Y-37877265D01*
X53924284Y-37877276D01*
X54076756Y-38042902D01*
X54076760Y-38042906D01*
X54254424Y-38181189D01*
X54254429Y-38181191D01*
X54254431Y-38181193D01*
X54290930Y-38200946D01*
X54340520Y-38250165D01*
X54355628Y-38318382D01*
X54331457Y-38383937D01*
X54290930Y-38419054D01*
X54254431Y-38438806D01*
X54254422Y-38438812D01*
X54076761Y-38577092D01*
X54076756Y-38577097D01*
X53924284Y-38742723D01*
X53924276Y-38742734D01*
X53801140Y-38931207D01*
X53710703Y-39137385D01*
X53655436Y-39355628D01*
X53655434Y-39355640D01*
X53636844Y-39579994D01*
X53636844Y-39580005D01*
X53655434Y-39804359D01*
X53655436Y-39804371D01*
X53710703Y-40022614D01*
X53801140Y-40228792D01*
X53924276Y-40417265D01*
X53924284Y-40417276D01*
X54076756Y-40582902D01*
X54076760Y-40582906D01*
X54254424Y-40721189D01*
X54254429Y-40721191D01*
X54254431Y-40721193D01*
X54290930Y-40740946D01*
X54340520Y-40790165D01*
X54355628Y-40858382D01*
X54331457Y-40923937D01*
X54290930Y-40959054D01*
X54254431Y-40978806D01*
X54254422Y-40978812D01*
X54076761Y-41117092D01*
X54076756Y-41117097D01*
X53924284Y-41282723D01*
X53924276Y-41282734D01*
X53801140Y-41471207D01*
X53710703Y-41677385D01*
X53655436Y-41895628D01*
X53655434Y-41895640D01*
X53636844Y-42119994D01*
X53636844Y-42120005D01*
X53655434Y-42344359D01*
X53655436Y-42344371D01*
X53710703Y-42562614D01*
X53801140Y-42768792D01*
X53924276Y-42957265D01*
X53924284Y-42957276D01*
X54043378Y-43086644D01*
X54076760Y-43122906D01*
X54254424Y-43261189D01*
X54297695Y-43284606D01*
X54347286Y-43333825D01*
X54362394Y-43402042D01*
X54338224Y-43467597D01*
X54309802Y-43495236D01*
X54128922Y-43621890D01*
X54128920Y-43621891D01*
X53961891Y-43788920D01*
X53961886Y-43788926D01*
X53826400Y-43982420D01*
X53826399Y-43982422D01*
X53726570Y-44196507D01*
X53726567Y-44196513D01*
X53669364Y-44409999D01*
X53669364Y-44410000D01*
X54566988Y-44410000D01*
X54534075Y-44467007D01*
X54500000Y-44594174D01*
X54500000Y-44725826D01*
X54534075Y-44852993D01*
X54566988Y-44910000D01*
X53669364Y-44910000D01*
X53726567Y-45123486D01*
X53726570Y-45123492D01*
X53826399Y-45337578D01*
X53961894Y-45531082D01*
X54128917Y-45698105D01*
X54322421Y-45833600D01*
X54536507Y-45933429D01*
X54536516Y-45933433D01*
X54750000Y-45990634D01*
X54750000Y-45093012D01*
X54807007Y-45125925D01*
X54934174Y-45160000D01*
X55065826Y-45160000D01*
X55192993Y-45125925D01*
X55250000Y-45093012D01*
X55250000Y-45990633D01*
X55463483Y-45933433D01*
X55463492Y-45933429D01*
X55677578Y-45833600D01*
X55871082Y-45698105D01*
X56038105Y-45531082D01*
X56173600Y-45337577D01*
X56173601Y-45337575D01*
X56206589Y-45266833D01*
X56252761Y-45214393D01*
X56319954Y-45195241D01*
X56386835Y-45215456D01*
X56406652Y-45231556D01*
X83352181Y-72177085D01*
X83385666Y-72238408D01*
X83388500Y-72264766D01*
X83388500Y-74910233D01*
X83368815Y-74977272D01*
X83316011Y-75023027D01*
X83246853Y-75032971D01*
X83183297Y-75003946D01*
X83176821Y-74997916D01*
X83155835Y-74976931D01*
X68376927Y-60198023D01*
X68343442Y-60136700D01*
X68348426Y-60067008D01*
X68350787Y-60061839D01*
X68403987Y-59919207D01*
X68403988Y-59919204D01*
X68403989Y-59919201D01*
X68409868Y-59864519D01*
X68410499Y-59858654D01*
X68410500Y-59858637D01*
X68410500Y-58061362D01*
X68410499Y-58061345D01*
X68404537Y-58005899D01*
X68403989Y-58000799D01*
X68352889Y-57863796D01*
X68265261Y-57746739D01*
X68148204Y-57659111D01*
X68011203Y-57608011D01*
X67950654Y-57601500D01*
X67950638Y-57601500D01*
X66153362Y-57601500D01*
X66153345Y-57601500D01*
X66092797Y-57608011D01*
X66092795Y-57608011D01*
X65955795Y-57659111D01*
X65838739Y-57746739D01*
X65751111Y-57863795D01*
X65700011Y-58000795D01*
X65700011Y-58000797D01*
X65693500Y-58061345D01*
X65693500Y-59858654D01*
X65700011Y-59919202D01*
X65700011Y-59919204D01*
X65732037Y-60005065D01*
X65751111Y-60056204D01*
X65838739Y-60173261D01*
X65955796Y-60260889D01*
X66007737Y-60280262D01*
X66073595Y-60304827D01*
X66129528Y-60346699D01*
X66153944Y-60412163D01*
X66139092Y-60480436D01*
X66121490Y-60504991D01*
X65976279Y-60662730D01*
X65976276Y-60662734D01*
X65853140Y-60851207D01*
X65762703Y-61057385D01*
X65707436Y-61275628D01*
X65707434Y-61275640D01*
X65688844Y-61499994D01*
X65688844Y-61500005D01*
X65707434Y-61724359D01*
X65707436Y-61724371D01*
X65762703Y-61942614D01*
X65853140Y-62148792D01*
X65976276Y-62337265D01*
X65976284Y-62337276D01*
X66128756Y-62502902D01*
X66128760Y-62502906D01*
X66306424Y-62641189D01*
X66306429Y-62641191D01*
X66306431Y-62641193D01*
X66342930Y-62660946D01*
X66392520Y-62710165D01*
X66407628Y-62778382D01*
X66383457Y-62843937D01*
X66342930Y-62879054D01*
X66306431Y-62898806D01*
X66306422Y-62898812D01*
X66128761Y-63037092D01*
X66128756Y-63037097D01*
X65976284Y-63202723D01*
X65976276Y-63202734D01*
X65853140Y-63391207D01*
X65762703Y-63597385D01*
X65707436Y-63815628D01*
X65707434Y-63815640D01*
X65688844Y-64039994D01*
X65688844Y-64040005D01*
X65707434Y-64264359D01*
X65707436Y-64264371D01*
X65762703Y-64482614D01*
X65853140Y-64688792D01*
X65976276Y-64877265D01*
X65976284Y-64877276D01*
X66128756Y-65042902D01*
X66128760Y-65042906D01*
X66306424Y-65181189D01*
X66306425Y-65181189D01*
X66306427Y-65181191D01*
X66433135Y-65249761D01*
X66504426Y-65288342D01*
X66717365Y-65361444D01*
X66939431Y-65398500D01*
X67164569Y-65398500D01*
X67386635Y-65361444D01*
X67599574Y-65288342D01*
X67797576Y-65181189D01*
X67975240Y-65042906D01*
X68127722Y-64877268D01*
X68250860Y-64688791D01*
X68341296Y-64482616D01*
X68396564Y-64264368D01*
X68414562Y-64047159D01*
X68439715Y-63981979D01*
X68496117Y-63940741D01*
X68565860Y-63936543D01*
X68625819Y-63969723D01*
X80658774Y-76002679D01*
X80692259Y-76064002D01*
X80687275Y-76133694D01*
X80647257Y-76188212D01*
X80558763Y-76257091D01*
X80558762Y-76257092D01*
X80558760Y-76257093D01*
X80558760Y-76257094D01*
X80500736Y-76320124D01*
X80495548Y-76325760D01*
X80435661Y-76361750D01*
X80365823Y-76359649D01*
X80308207Y-76320124D01*
X80288138Y-76285110D01*
X80242889Y-76163796D01*
X80220355Y-76133694D01*
X80155261Y-76046739D01*
X80038204Y-75959111D01*
X80026992Y-75954929D01*
X79901203Y-75908011D01*
X79840654Y-75901500D01*
X79840638Y-75901500D01*
X78043362Y-75901500D01*
X78043345Y-75901500D01*
X77982797Y-75908011D01*
X77982795Y-75908011D01*
X77845795Y-75959111D01*
X77728739Y-76046739D01*
X77641111Y-76163795D01*
X77590011Y-76300795D01*
X77590011Y-76300797D01*
X77583500Y-76361345D01*
X77583500Y-78158654D01*
X77590011Y-78219202D01*
X77590011Y-78219204D01*
X77641111Y-78356204D01*
X77728739Y-78473261D01*
X77845796Y-78560889D01*
X77982799Y-78611989D01*
X78010050Y-78614918D01*
X78043345Y-78618499D01*
X78043362Y-78618500D01*
X79840638Y-78618500D01*
X79840654Y-78618499D01*
X79867692Y-78615591D01*
X79901201Y-78611989D01*
X80038204Y-78560889D01*
X80155261Y-78473261D01*
X80242889Y-78356204D01*
X80288138Y-78234887D01*
X80330009Y-78178956D01*
X80395474Y-78154539D01*
X80463746Y-78169391D01*
X80495545Y-78194236D01*
X80558760Y-78262906D01*
X80736424Y-78401189D01*
X80736425Y-78401189D01*
X80736427Y-78401191D01*
X80797497Y-78434240D01*
X80934426Y-78508342D01*
X81147365Y-78581444D01*
X81369431Y-78618500D01*
X81594569Y-78618500D01*
X81816635Y-78581444D01*
X82029574Y-78508342D01*
X82227576Y-78401189D01*
X82337532Y-78315605D01*
X82402523Y-78289963D01*
X82471063Y-78303529D01*
X82501374Y-78325778D01*
X83016129Y-78840533D01*
X83104364Y-78928768D01*
X83104368Y-78928772D01*
X83208118Y-78998096D01*
X83208124Y-78998099D01*
X83208125Y-78998100D01*
X83323415Y-79045855D01*
X83445801Y-79070199D01*
X83445805Y-79070200D01*
X83445806Y-79070200D01*
X84638795Y-79070200D01*
X84638796Y-79070199D01*
X84761185Y-79045855D01*
X84876475Y-78998100D01*
X84980233Y-78928771D01*
X85565455Y-78343547D01*
X85626778Y-78310063D01*
X85696469Y-78315047D01*
X85729299Y-78333376D01*
X85816424Y-78401189D01*
X85816425Y-78401189D01*
X85816427Y-78401191D01*
X85877497Y-78434240D01*
X86014426Y-78508342D01*
X86227365Y-78581444D01*
X86449431Y-78618500D01*
X86674569Y-78618500D01*
X86896635Y-78581444D01*
X87109574Y-78508342D01*
X87307576Y-78401189D01*
X87394701Y-78333374D01*
X87459693Y-78307733D01*
X87528233Y-78321299D01*
X87558544Y-78343548D01*
X88055529Y-78840533D01*
X88143764Y-78928768D01*
X88143768Y-78928772D01*
X88247518Y-78998096D01*
X88247524Y-78998099D01*
X88247525Y-78998100D01*
X88362815Y-79045855D01*
X88485201Y-79070199D01*
X88485205Y-79070200D01*
X88485206Y-79070200D01*
X97282295Y-79070200D01*
X97282296Y-79070199D01*
X97404685Y-79045855D01*
X97519975Y-78998100D01*
X97623733Y-78928771D01*
X98892405Y-77660099D01*
X100231819Y-76320686D01*
X100293142Y-76287201D01*
X100362834Y-76292185D01*
X100418767Y-76334057D01*
X100443184Y-76399521D01*
X100443500Y-76408367D01*
X100443500Y-78158654D01*
X100450011Y-78219202D01*
X100450011Y-78219204D01*
X100501111Y-78356204D01*
X100588739Y-78473261D01*
X100705796Y-78560889D01*
X100842799Y-78611989D01*
X100870050Y-78614918D01*
X100903345Y-78618499D01*
X100903362Y-78618500D01*
X102700638Y-78618500D01*
X102700654Y-78618499D01*
X102727692Y-78615591D01*
X102761201Y-78611989D01*
X102898204Y-78560889D01*
X103015261Y-78473261D01*
X103102889Y-78356204D01*
X103148138Y-78234887D01*
X103190009Y-78178956D01*
X103255474Y-78154539D01*
X103323746Y-78169391D01*
X103355545Y-78194236D01*
X103418760Y-78262906D01*
X103596424Y-78401189D01*
X103596425Y-78401189D01*
X103596427Y-78401191D01*
X103657497Y-78434240D01*
X103794426Y-78508342D01*
X104007365Y-78581444D01*
X104229431Y-78618500D01*
X104454569Y-78618500D01*
X104676635Y-78581444D01*
X104889574Y-78508342D01*
X105087576Y-78401189D01*
X105265240Y-78262906D01*
X105417722Y-78097268D01*
X105508193Y-77958790D01*
X105561338Y-77913437D01*
X105630569Y-77904013D01*
X105693905Y-77933515D01*
X105715804Y-77958787D01*
X105806278Y-78097268D01*
X105806283Y-78097273D01*
X105806284Y-78097276D01*
X105958756Y-78262902D01*
X105958760Y-78262906D01*
X106136424Y-78401189D01*
X106136425Y-78401189D01*
X106136427Y-78401191D01*
X106197497Y-78434240D01*
X106334426Y-78508342D01*
X106547365Y-78581444D01*
X106769431Y-78618500D01*
X106994569Y-78618500D01*
X107216635Y-78581444D01*
X107429574Y-78508342D01*
X107627576Y-78401189D01*
X107805240Y-78262906D01*
X107957722Y-78097268D01*
X108048193Y-77958790D01*
X108101338Y-77913437D01*
X108170569Y-77904013D01*
X108233905Y-77933515D01*
X108255804Y-77958787D01*
X108346278Y-78097268D01*
X108346283Y-78097273D01*
X108346284Y-78097276D01*
X108498756Y-78262902D01*
X108498760Y-78262906D01*
X108676424Y-78401189D01*
X108676425Y-78401189D01*
X108676427Y-78401191D01*
X108737497Y-78434240D01*
X108874426Y-78508342D01*
X109087365Y-78581444D01*
X109309431Y-78618500D01*
X109534569Y-78618500D01*
X109756635Y-78581444D01*
X109969574Y-78508342D01*
X110167576Y-78401189D01*
X110345240Y-78262906D01*
X110497722Y-78097268D01*
X110588193Y-77958790D01*
X110641338Y-77913437D01*
X110710569Y-77904013D01*
X110773905Y-77933515D01*
X110795804Y-77958787D01*
X110886278Y-78097268D01*
X110886283Y-78097273D01*
X110886284Y-78097276D01*
X111038756Y-78262902D01*
X111038760Y-78262906D01*
X111216424Y-78401189D01*
X111216425Y-78401189D01*
X111216427Y-78401191D01*
X111277497Y-78434240D01*
X111414426Y-78508342D01*
X111627365Y-78581444D01*
X111849431Y-78618500D01*
X112074569Y-78618500D01*
X112296635Y-78581444D01*
X112509574Y-78508342D01*
X112707576Y-78401189D01*
X112885240Y-78262906D01*
X113037722Y-78097268D01*
X113128193Y-77958790D01*
X113181338Y-77913437D01*
X113250569Y-77904013D01*
X113313905Y-77933515D01*
X113335804Y-77958787D01*
X113426278Y-78097268D01*
X113426283Y-78097273D01*
X113426284Y-78097276D01*
X113578756Y-78262902D01*
X113578760Y-78262906D01*
X113756424Y-78401189D01*
X113756425Y-78401189D01*
X113756427Y-78401191D01*
X113817497Y-78434240D01*
X113954426Y-78508342D01*
X114167365Y-78581444D01*
X114389431Y-78618500D01*
X114614569Y-78618500D01*
X114836635Y-78581444D01*
X115049574Y-78508342D01*
X115247576Y-78401189D01*
X115425240Y-78262906D01*
X115577722Y-78097268D01*
X115668193Y-77958790D01*
X115721338Y-77913437D01*
X115790569Y-77904013D01*
X115853905Y-77933515D01*
X115875804Y-77958787D01*
X115966278Y-78097268D01*
X115966283Y-78097273D01*
X115966284Y-78097276D01*
X116118756Y-78262902D01*
X116118760Y-78262906D01*
X116296424Y-78401189D01*
X116296425Y-78401189D01*
X116296427Y-78401191D01*
X116357497Y-78434240D01*
X116494426Y-78508342D01*
X116707365Y-78581444D01*
X116929431Y-78618500D01*
X117154569Y-78618500D01*
X117376635Y-78581444D01*
X117589574Y-78508342D01*
X117787576Y-78401189D01*
X117965240Y-78262906D01*
X118117722Y-78097268D01*
X118208193Y-77958790D01*
X118261338Y-77913437D01*
X118330569Y-77904013D01*
X118393905Y-77933515D01*
X118415804Y-77958787D01*
X118506278Y-78097268D01*
X118506283Y-78097273D01*
X118506284Y-78097276D01*
X118658756Y-78262902D01*
X118658760Y-78262906D01*
X118836424Y-78401189D01*
X118836425Y-78401189D01*
X118836427Y-78401191D01*
X118897497Y-78434240D01*
X119034426Y-78508342D01*
X119247365Y-78581444D01*
X119469431Y-78618500D01*
X119694569Y-78618500D01*
X119916635Y-78581444D01*
X120129574Y-78508342D01*
X120327576Y-78401189D01*
X120505240Y-78262906D01*
X120657722Y-78097268D01*
X120780860Y-77908791D01*
X120871296Y-77702616D01*
X120926564Y-77484368D01*
X120926565Y-77484359D01*
X120945156Y-77260005D01*
X120945156Y-77259994D01*
X120926565Y-77035640D01*
X120926563Y-77035628D01*
X120881071Y-76855986D01*
X120871296Y-76817384D01*
X120780860Y-76611209D01*
X120780853Y-76611199D01*
X120657723Y-76422734D01*
X120657715Y-76422723D01*
X120505243Y-76257097D01*
X120505238Y-76257092D01*
X120342329Y-76130294D01*
X120327576Y-76118811D01*
X120327575Y-76118810D01*
X120327572Y-76118808D01*
X120129580Y-76011661D01*
X120129577Y-76011659D01*
X120129574Y-76011658D01*
X120129571Y-76011657D01*
X120129569Y-76011656D01*
X119916637Y-75938556D01*
X119694569Y-75901500D01*
X119469431Y-75901500D01*
X119247362Y-75938556D01*
X119034430Y-76011656D01*
X119034419Y-76011661D01*
X118836427Y-76118808D01*
X118836422Y-76118812D01*
X118658761Y-76257092D01*
X118658756Y-76257097D01*
X118506284Y-76422723D01*
X118506276Y-76422734D01*
X118415808Y-76561206D01*
X118362662Y-76606562D01*
X118293431Y-76615986D01*
X118230095Y-76586484D01*
X118208192Y-76561206D01*
X118117723Y-76422734D01*
X118117715Y-76422723D01*
X117965243Y-76257097D01*
X117965235Y-76257089D01*
X117962941Y-76255304D01*
X117962245Y-76254337D01*
X117961464Y-76253618D01*
X117961612Y-76253457D01*
X117922131Y-76198591D01*
X117918461Y-76128818D01*
X117951426Y-76069776D01*
X124664671Y-69356533D01*
X124734000Y-69252775D01*
X124781755Y-69137485D01*
X124806100Y-69015094D01*
X124806100Y-68890306D01*
X124806100Y-53680166D01*
X124825785Y-53613127D01*
X124878589Y-53567372D01*
X124947747Y-53557428D01*
X125011303Y-53586453D01*
X125017781Y-53592485D01*
X125954175Y-54528880D01*
X125987660Y-54590203D01*
X125982676Y-54659895D01*
X125940804Y-54715828D01*
X125880378Y-54739781D01*
X125746357Y-54754881D01*
X125746353Y-54754882D01*
X125574382Y-54815058D01*
X125420118Y-54911989D01*
X125291289Y-55040818D01*
X125194358Y-55195082D01*
X125134182Y-55367053D01*
X125134181Y-55367058D01*
X125113784Y-55548096D01*
X125113784Y-55548103D01*
X125134181Y-55729141D01*
X125134182Y-55729146D01*
X125194358Y-55901119D01*
X125194360Y-55901122D01*
X125274893Y-56029288D01*
X125293900Y-56095260D01*
X125293900Y-76017500D01*
X125274215Y-76084539D01*
X125221411Y-76130294D01*
X125169900Y-76141500D01*
X125121345Y-76141500D01*
X125060797Y-76148011D01*
X125060795Y-76148011D01*
X124923795Y-76199111D01*
X124806739Y-76286739D01*
X124719111Y-76403795D01*
X124668011Y-76540795D01*
X124668011Y-76540797D01*
X124661500Y-76601345D01*
X124661500Y-78398654D01*
X124668011Y-78459202D01*
X124668011Y-78459204D01*
X124713605Y-78581443D01*
X124719111Y-78596204D01*
X124806739Y-78713261D01*
X124923796Y-78800889D01*
X125060799Y-78851989D01*
X125088050Y-78854918D01*
X125121345Y-78858499D01*
X125121362Y-78858500D01*
X126918638Y-78858500D01*
X126918654Y-78858499D01*
X126945692Y-78855591D01*
X126979201Y-78851989D01*
X127116204Y-78800889D01*
X127233261Y-78713261D01*
X127320889Y-78596204D01*
X127366138Y-78474887D01*
X127408009Y-78418956D01*
X127473474Y-78394539D01*
X127541746Y-78409391D01*
X127573545Y-78434236D01*
X127636760Y-78502906D01*
X127814424Y-78641189D01*
X127814425Y-78641189D01*
X127814427Y-78641191D01*
X127941135Y-78709761D01*
X128012426Y-78748342D01*
X128225365Y-78821444D01*
X128447431Y-78858500D01*
X128672569Y-78858500D01*
X128894635Y-78821444D01*
X129107574Y-78748342D01*
X129305576Y-78641189D01*
X129483240Y-78502906D01*
X129583000Y-78394539D01*
X129635715Y-78337276D01*
X129635715Y-78337275D01*
X129635722Y-78337268D01*
X129726193Y-78198790D01*
X129779338Y-78153437D01*
X129848569Y-78144013D01*
X129911905Y-78173515D01*
X129933804Y-78198787D01*
X130024278Y-78337268D01*
X130024283Y-78337273D01*
X130024284Y-78337276D01*
X130176756Y-78502902D01*
X130176760Y-78502906D01*
X130354424Y-78641189D01*
X130354425Y-78641189D01*
X130354427Y-78641191D01*
X130481135Y-78709761D01*
X130552426Y-78748342D01*
X130765365Y-78821444D01*
X130987431Y-78858500D01*
X131212569Y-78858500D01*
X131434635Y-78821444D01*
X131647574Y-78748342D01*
X131845576Y-78641189D01*
X132023240Y-78502906D01*
X132123000Y-78394539D01*
X132175715Y-78337276D01*
X132175715Y-78337275D01*
X132175722Y-78337268D01*
X132266193Y-78198790D01*
X132319338Y-78153437D01*
X132388569Y-78144013D01*
X132451905Y-78173515D01*
X132473804Y-78198787D01*
X132564278Y-78337268D01*
X132564283Y-78337273D01*
X132564284Y-78337276D01*
X132716756Y-78502902D01*
X132716760Y-78502906D01*
X132894424Y-78641189D01*
X132894425Y-78641189D01*
X132894427Y-78641191D01*
X133021135Y-78709761D01*
X133092426Y-78748342D01*
X133305365Y-78821444D01*
X133527431Y-78858500D01*
X133752569Y-78858500D01*
X133974635Y-78821444D01*
X134187574Y-78748342D01*
X134385576Y-78641189D01*
X134563240Y-78502906D01*
X134663000Y-78394539D01*
X134715715Y-78337276D01*
X134715715Y-78337275D01*
X134715722Y-78337268D01*
X134806193Y-78198790D01*
X134859338Y-78153437D01*
X134928569Y-78144013D01*
X134991905Y-78173515D01*
X135013804Y-78198787D01*
X135104278Y-78337268D01*
X135104283Y-78337273D01*
X135104284Y-78337276D01*
X135256756Y-78502902D01*
X135256760Y-78502906D01*
X135434424Y-78641189D01*
X135434425Y-78641189D01*
X135434427Y-78641191D01*
X135561135Y-78709761D01*
X135632426Y-78748342D01*
X135845365Y-78821444D01*
X136067431Y-78858500D01*
X136292569Y-78858500D01*
X136514635Y-78821444D01*
X136727574Y-78748342D01*
X136925576Y-78641189D01*
X137103240Y-78502906D01*
X137203000Y-78394539D01*
X137255715Y-78337276D01*
X137255715Y-78337275D01*
X137255722Y-78337268D01*
X137346193Y-78198790D01*
X137399338Y-78153437D01*
X137468569Y-78144013D01*
X137531905Y-78173515D01*
X137553804Y-78198787D01*
X137644278Y-78337268D01*
X137644283Y-78337273D01*
X137644284Y-78337276D01*
X137796756Y-78502902D01*
X137796760Y-78502906D01*
X137974424Y-78641189D01*
X137974425Y-78641189D01*
X137974427Y-78641191D01*
X138101135Y-78709761D01*
X138172426Y-78748342D01*
X138385365Y-78821444D01*
X138607431Y-78858500D01*
X138832569Y-78858500D01*
X139054635Y-78821444D01*
X139267574Y-78748342D01*
X139465576Y-78641189D01*
X139643240Y-78502906D01*
X139743000Y-78394539D01*
X139795715Y-78337276D01*
X139795717Y-78337273D01*
X139795722Y-78337268D01*
X139918860Y-78148791D01*
X140009296Y-77942616D01*
X140064564Y-77724368D01*
X140064565Y-77724359D01*
X140083156Y-77500005D01*
X140083156Y-77499994D01*
X140064565Y-77275640D01*
X140064563Y-77275628D01*
X140020088Y-77100000D01*
X140009296Y-77057384D01*
X139918860Y-76851209D01*
X139902706Y-76826484D01*
X139850416Y-76746447D01*
X139795722Y-76662732D01*
X139795719Y-76662729D01*
X139795715Y-76662723D01*
X139643243Y-76497097D01*
X139643238Y-76497092D01*
X139468853Y-76361362D01*
X139465577Y-76358811D01*
X139418480Y-76333323D01*
X139368891Y-76284102D01*
X139353500Y-76224269D01*
X139353500Y-72557605D01*
X139353499Y-72557601D01*
X139332696Y-72453017D01*
X139329155Y-72435215D01*
X139281400Y-72319925D01*
X139281399Y-72319924D01*
X139281396Y-72319918D01*
X139212072Y-72216168D01*
X139172989Y-72177085D01*
X139123833Y-72127929D01*
X138884505Y-71888601D01*
X138603836Y-71607931D01*
X138603832Y-71607928D01*
X138500081Y-71538603D01*
X138500072Y-71538598D01*
X138384785Y-71490845D01*
X138384777Y-71490843D01*
X138262398Y-71466500D01*
X138262394Y-71466500D01*
X135547160Y-71466500D01*
X135481188Y-71447493D01*
X135353022Y-71366960D01*
X135353019Y-71366958D01*
X135181046Y-71306782D01*
X135181041Y-71306781D01*
X135000004Y-71286384D01*
X134999996Y-71286384D01*
X134818958Y-71306781D01*
X134818953Y-71306782D01*
X134646982Y-71366958D01*
X134492718Y-71463889D01*
X134485181Y-71471427D01*
X134423858Y-71504912D01*
X134354166Y-71499928D01*
X134298233Y-71458056D01*
X134273816Y-71392592D01*
X134273500Y-71383746D01*
X134273500Y-70227605D01*
X134273499Y-70227601D01*
X134249157Y-70105222D01*
X134249154Y-70105213D01*
X134201401Y-69989925D01*
X134201399Y-69989923D01*
X134201399Y-69989921D01*
X134132072Y-69886167D01*
X134132069Y-69886163D01*
X128271519Y-64025613D01*
X128238034Y-63964290D01*
X128235200Y-63937932D01*
X128235200Y-58845534D01*
X128254885Y-58778495D01*
X128307689Y-58732740D01*
X128376847Y-58722796D01*
X128425173Y-58740541D01*
X128475781Y-58772341D01*
X128475782Y-58772341D01*
X128475785Y-58772343D01*
X128639631Y-58829675D01*
X128647753Y-58832517D01*
X128647758Y-58832518D01*
X128828796Y-58852916D01*
X128828800Y-58852916D01*
X128828804Y-58852916D01*
X129009841Y-58832518D01*
X129009844Y-58832517D01*
X129009847Y-58832517D01*
X129181815Y-58772343D01*
X129336081Y-58675411D01*
X129464911Y-58546581D01*
X129561843Y-58392315D01*
X129622017Y-58220347D01*
X129622018Y-58220341D01*
X129642416Y-58039303D01*
X129642416Y-58039296D01*
X129622018Y-57858258D01*
X129622016Y-57858249D01*
X129612063Y-57829806D01*
X129608500Y-57760028D01*
X129641423Y-57701168D01*
X129666411Y-57676181D01*
X129763343Y-57521915D01*
X129823517Y-57349947D01*
X129828609Y-57304751D01*
X129855674Y-57240339D01*
X129864138Y-57230964D01*
X139045771Y-48049333D01*
X139115100Y-47945575D01*
X139162855Y-47830285D01*
X139167989Y-47804473D01*
X139187200Y-47707894D01*
X139187200Y-28409606D01*
X139162855Y-28287215D01*
X139115100Y-28171925D01*
X139115099Y-28171924D01*
X139115096Y-28171918D01*
X139045772Y-28068168D01*
X139002714Y-28025110D01*
X138957533Y-27979929D01*
X138646968Y-27669364D01*
X138308836Y-27331231D01*
X138308832Y-27331228D01*
X138205081Y-27261903D01*
X138205072Y-27261898D01*
X138089785Y-27214145D01*
X138089777Y-27214143D01*
X137967398Y-27189800D01*
X137967394Y-27189800D01*
X129249993Y-27189800D01*
X129125206Y-27189800D01*
X129125201Y-27189800D01*
X129002822Y-27214143D01*
X129002814Y-27214145D01*
X128887527Y-27261898D01*
X128887518Y-27261903D01*
X128783767Y-27331228D01*
X128783763Y-27331231D01*
X128198543Y-27916451D01*
X128137220Y-27949936D01*
X128067528Y-27944952D01*
X128034701Y-27926624D01*
X127947576Y-27858811D01*
X127947575Y-27858810D01*
X127947572Y-27858808D01*
X127749580Y-27751661D01*
X127749577Y-27751659D01*
X127749574Y-27751658D01*
X127749571Y-27751657D01*
X127749569Y-27751656D01*
X127536637Y-27678556D01*
X127314569Y-27641500D01*
X127089431Y-27641500D01*
X126867362Y-27678556D01*
X126654430Y-27751656D01*
X126654419Y-27751661D01*
X126456427Y-27858808D01*
X126456422Y-27858812D01*
X126278761Y-27997092D01*
X126278756Y-27997097D01*
X126126284Y-28162723D01*
X126126276Y-28162734D01*
X126035808Y-28301206D01*
X125982662Y-28346562D01*
X125913431Y-28355986D01*
X125850095Y-28326484D01*
X125828192Y-28301206D01*
X125743728Y-28171925D01*
X125737722Y-28162732D01*
X125737719Y-28162729D01*
X125737715Y-28162723D01*
X125585243Y-27997097D01*
X125585238Y-27997092D01*
X125407577Y-27858812D01*
X125407572Y-27858808D01*
X125209580Y-27751661D01*
X125209577Y-27751659D01*
X125209574Y-27751658D01*
X125209571Y-27751657D01*
X125209569Y-27751656D01*
X124996637Y-27678556D01*
X124774569Y-27641500D01*
X124549431Y-27641500D01*
X124327362Y-27678556D01*
X124114430Y-27751656D01*
X124114419Y-27751661D01*
X123916427Y-27858808D01*
X123916422Y-27858812D01*
X123738761Y-27997092D01*
X123738756Y-27997097D01*
X123586284Y-28162723D01*
X123586276Y-28162734D01*
X123495808Y-28301206D01*
X123442662Y-28346562D01*
X123373431Y-28355986D01*
X123310095Y-28326484D01*
X123288192Y-28301206D01*
X123203728Y-28171925D01*
X123197722Y-28162732D01*
X123197719Y-28162729D01*
X123197715Y-28162723D01*
X123045243Y-27997097D01*
X123045238Y-27997092D01*
X122867577Y-27858812D01*
X122867572Y-27858808D01*
X122669580Y-27751661D01*
X122669577Y-27751659D01*
X122669574Y-27751658D01*
X122669571Y-27751657D01*
X122669569Y-27751656D01*
X122456637Y-27678556D01*
X122234569Y-27641500D01*
X122009431Y-27641500D01*
X121787362Y-27678556D01*
X121574430Y-27751656D01*
X121574419Y-27751661D01*
X121376427Y-27858808D01*
X121376422Y-27858812D01*
X121198761Y-27997092D01*
X121135548Y-28065760D01*
X121075661Y-28101750D01*
X121005823Y-28099649D01*
X120948207Y-28060124D01*
X120928138Y-28025110D01*
X120882889Y-27903796D01*
X120849214Y-27858812D01*
X120795261Y-27786739D01*
X120678204Y-27699111D01*
X120541203Y-27648011D01*
X120480654Y-27641500D01*
X120480638Y-27641500D01*
X118683362Y-27641500D01*
X118683345Y-27641500D01*
X118622797Y-27648011D01*
X118622795Y-27648011D01*
X118485795Y-27699111D01*
X118368739Y-27786739D01*
X118281111Y-27903795D01*
X118230011Y-28040795D01*
X118230011Y-28040797D01*
X118223500Y-28101345D01*
X118223500Y-29809632D01*
X118203815Y-29876671D01*
X118151011Y-29922426D01*
X118081853Y-29932370D01*
X118018297Y-29903345D01*
X118011819Y-29897313D01*
X114990436Y-26875931D01*
X114990432Y-26875928D01*
X114886681Y-26806603D01*
X114886672Y-26806598D01*
X114771385Y-26758845D01*
X114771377Y-26758843D01*
X114648998Y-26734500D01*
X114648994Y-26734500D01*
X79797906Y-26734500D01*
X79797902Y-26734500D01*
X79675519Y-26758843D01*
X79675514Y-26758845D01*
X79641748Y-26772829D01*
X79641749Y-26772830D01*
X79560226Y-26806598D01*
X79560222Y-26806600D01*
X79456471Y-26875924D01*
X79456463Y-26875930D01*
X78410543Y-27921851D01*
X78349220Y-27955336D01*
X78279528Y-27950352D01*
X78251738Y-27935745D01*
X78095578Y-27826399D01*
X77881492Y-27726570D01*
X77881486Y-27726567D01*
X77668000Y-27669364D01*
X77668000Y-28566988D01*
X77610993Y-28534075D01*
X77483826Y-28500000D01*
X77352174Y-28500000D01*
X77225007Y-28534075D01*
X77168000Y-28566988D01*
X77168000Y-27669364D01*
X77167999Y-27669364D01*
X76954513Y-27726567D01*
X76954507Y-27726570D01*
X76740422Y-27826399D01*
X76740420Y-27826400D01*
X76546926Y-27961886D01*
X76546920Y-27961891D01*
X76379891Y-28128920D01*
X76379890Y-28128922D01*
X76253131Y-28309952D01*
X76198554Y-28353577D01*
X76129055Y-28360769D01*
X76066701Y-28329247D01*
X76047752Y-28306656D01*
X75953722Y-28162732D01*
X75953715Y-28162725D01*
X75953715Y-28162723D01*
X75801243Y-27997097D01*
X75801238Y-27997092D01*
X75623577Y-27858812D01*
X75623572Y-27858808D01*
X75425580Y-27751661D01*
X75425577Y-27751659D01*
X75425574Y-27751658D01*
X75425571Y-27751657D01*
X75425569Y-27751656D01*
X75212637Y-27678556D01*
X74990569Y-27641500D01*
X74765431Y-27641500D01*
X74543362Y-27678556D01*
X74330430Y-27751656D01*
X74330419Y-27751661D01*
X74132427Y-27858808D01*
X74132422Y-27858812D01*
X73954761Y-27997092D01*
X73954756Y-27997097D01*
X73802284Y-28162723D01*
X73802276Y-28162734D01*
X73711808Y-28301206D01*
X73658662Y-28346562D01*
X73589431Y-28355986D01*
X73526095Y-28326484D01*
X73504192Y-28301206D01*
X73419728Y-28171925D01*
X73413722Y-28162732D01*
X73413719Y-28162729D01*
X73413715Y-28162723D01*
X73261243Y-27997097D01*
X73261238Y-27997092D01*
X73083577Y-27858812D01*
X73083572Y-27858808D01*
X72885580Y-27751661D01*
X72885577Y-27751659D01*
X72885574Y-27751658D01*
X72885571Y-27751657D01*
X72885569Y-27751656D01*
X72672637Y-27678556D01*
X72450569Y-27641500D01*
X72225431Y-27641500D01*
X72003362Y-27678556D01*
X71790430Y-27751656D01*
X71790419Y-27751661D01*
X71592427Y-27858808D01*
X71592422Y-27858812D01*
X71414761Y-27997092D01*
X71351548Y-28065760D01*
X71291661Y-28101750D01*
X71221823Y-28099649D01*
X71164207Y-28060124D01*
X71144138Y-28025110D01*
X71098889Y-27903796D01*
X71065214Y-27858812D01*
X71011261Y-27786739D01*
X70894204Y-27699111D01*
X70757203Y-27648011D01*
X70696654Y-27641500D01*
X70696638Y-27641500D01*
X68899362Y-27641500D01*
X68899345Y-27641500D01*
X68838797Y-27648011D01*
X68838795Y-27648011D01*
X68701795Y-27699111D01*
X68584739Y-27786739D01*
X68497111Y-27903795D01*
X68446011Y-28040795D01*
X68446011Y-28040797D01*
X68439500Y-28101345D01*
X68439500Y-29898654D01*
X68446011Y-29959202D01*
X68446011Y-29959204D01*
X68487012Y-30069128D01*
X68497111Y-30096204D01*
X68584739Y-30213261D01*
X68701796Y-30300889D01*
X68781542Y-30330633D01*
X68838793Y-30351987D01*
X68838799Y-30351989D01*
X68866050Y-30354918D01*
X68899345Y-30358499D01*
X68899362Y-30358500D01*
X70696638Y-30358500D01*
X70696654Y-30358499D01*
X70723692Y-30355591D01*
X70757201Y-30351989D01*
X70757205Y-30351987D01*
X70757207Y-30351987D01*
X70902514Y-30297790D01*
X70903560Y-30300597D01*
X70957143Y-30288921D01*
X71022616Y-30313314D01*
X71036023Y-30324927D01*
X96074563Y-55363469D01*
X96074567Y-55363472D01*
X96178320Y-55432798D01*
X96178321Y-55432798D01*
X96178325Y-55432801D01*
X96285047Y-55477006D01*
X96293615Y-55480555D01*
X96416001Y-55504899D01*
X96416005Y-55504900D01*
X96416006Y-55504900D01*
X115777540Y-55504900D01*
X115843512Y-55523907D01*
X115971677Y-55604439D01*
X115971680Y-55604441D01*
X115971684Y-55604442D01*
X115971685Y-55604443D01*
X116071558Y-55639390D01*
X116143653Y-55664617D01*
X116143658Y-55664618D01*
X116324696Y-55685016D01*
X116324700Y-55685016D01*
X116324704Y-55685016D01*
X116505741Y-55664618D01*
X116505744Y-55664617D01*
X116505747Y-55664617D01*
X116677715Y-55604443D01*
X116831981Y-55507511D01*
X116960811Y-55378681D01*
X117057743Y-55224415D01*
X117117917Y-55052447D01*
X117117918Y-55052441D01*
X117138316Y-54871403D01*
X117138316Y-54871396D01*
X117117918Y-54690358D01*
X117117917Y-54690353D01*
X117075915Y-54570319D01*
X117057743Y-54518385D01*
X116960811Y-54364119D01*
X116831981Y-54235289D01*
X116677715Y-54138357D01*
X116623393Y-54119349D01*
X116505746Y-54078182D01*
X116505741Y-54078181D01*
X116324704Y-54057784D01*
X116324696Y-54057784D01*
X116143658Y-54078181D01*
X116143653Y-54078182D01*
X115971680Y-54138358D01*
X115971677Y-54138360D01*
X115843512Y-54218893D01*
X115777540Y-54237900D01*
X96792167Y-54237900D01*
X96725128Y-54218215D01*
X96704486Y-54201581D01*
X72916002Y-30413098D01*
X72882517Y-30351775D01*
X72887501Y-30282083D01*
X72929373Y-30226150D01*
X72944654Y-30216369D01*
X73083576Y-30141189D01*
X73170755Y-30073332D01*
X73235749Y-30047689D01*
X73304289Y-30061255D01*
X73334600Y-30083504D01*
X96509629Y-53258533D01*
X96597867Y-53346771D01*
X96597868Y-53346772D01*
X96701618Y-53416096D01*
X96701624Y-53416099D01*
X96701625Y-53416100D01*
X96816915Y-53463855D01*
X96939301Y-53488199D01*
X96939305Y-53488200D01*
X96939306Y-53488200D01*
X117936140Y-53488200D01*
X118002112Y-53507207D01*
X118130277Y-53587739D01*
X118130280Y-53587741D01*
X118130284Y-53587742D01*
X118130285Y-53587743D01*
X118202829Y-53613127D01*
X118302253Y-53647917D01*
X118302258Y-53647918D01*
X118483296Y-53668316D01*
X118483300Y-53668316D01*
X118483304Y-53668316D01*
X118664341Y-53647918D01*
X118664344Y-53647917D01*
X118664347Y-53647917D01*
X118836315Y-53587743D01*
X118990581Y-53490811D01*
X119119411Y-53361981D01*
X119216343Y-53207715D01*
X119276517Y-53035747D01*
X119278663Y-53016704D01*
X119296916Y-52854703D01*
X119296916Y-52847736D01*
X119298450Y-52847736D01*
X119309088Y-52786970D01*
X119356434Y-52735587D01*
X119420258Y-52717900D01*
X119745840Y-52717900D01*
X119811812Y-52736907D01*
X119939977Y-52817439D01*
X119939980Y-52817441D01*
X119939984Y-52817442D01*
X119939985Y-52817443D01*
X120111953Y-52877617D01*
X120111958Y-52877618D01*
X120292996Y-52898016D01*
X120292999Y-52898016D01*
X120292999Y-52898015D01*
X120293000Y-52898016D01*
X120333217Y-52893484D01*
X120402036Y-52905537D01*
X120453416Y-52952885D01*
X120471100Y-53016704D01*
X120471100Y-56466933D01*
X120451415Y-56533972D01*
X120434781Y-56554614D01*
X110910541Y-66078855D01*
X101398167Y-75591229D01*
X101354047Y-75635349D01*
X101309927Y-75679468D01*
X101240603Y-75783218D01*
X101240596Y-75783230D01*
X101223316Y-75824952D01*
X101179476Y-75879356D01*
X101113182Y-75901421D01*
X101108755Y-75901500D01*
X100950368Y-75901500D01*
X100883329Y-75881815D01*
X100837574Y-75829011D01*
X100827630Y-75759853D01*
X100856655Y-75696297D01*
X100862687Y-75689819D01*
X103894069Y-72658436D01*
X103894072Y-72658433D01*
X103963401Y-72554675D01*
X104011155Y-72439384D01*
X104012689Y-72431675D01*
X104035500Y-72316994D01*
X104035500Y-68832500D01*
X104055185Y-68765461D01*
X104107989Y-68719706D01*
X104159500Y-68708500D01*
X104250638Y-68708500D01*
X104250654Y-68708499D01*
X104277692Y-68705591D01*
X104311201Y-68701989D01*
X104448204Y-68650889D01*
X104565261Y-68563261D01*
X104652889Y-68446204D01*
X104703989Y-68309201D01*
X104707591Y-68275692D01*
X104710499Y-68248654D01*
X104710677Y-68245331D01*
X104710855Y-68245340D01*
X104710856Y-68245335D01*
X104710959Y-68245346D01*
X104712128Y-68245408D01*
X104730185Y-68183915D01*
X104782989Y-68138160D01*
X104815967Y-68132479D01*
X105502000Y-67446446D01*
X105502000Y-67452661D01*
X105529259Y-67554394D01*
X105581920Y-67645606D01*
X105656394Y-67720080D01*
X105747606Y-67772741D01*
X105849339Y-67800000D01*
X105855553Y-67800000D01*
X105176526Y-68479025D01*
X105249513Y-68530132D01*
X105249521Y-68530136D01*
X105455668Y-68626264D01*
X105455682Y-68626269D01*
X105675389Y-68685139D01*
X105675400Y-68685141D01*
X105901998Y-68704966D01*
X105902002Y-68704966D01*
X106128599Y-68685141D01*
X106128610Y-68685139D01*
X106348317Y-68626269D01*
X106348331Y-68626264D01*
X106554478Y-68530136D01*
X106627471Y-68479024D01*
X105948447Y-67800000D01*
X105954661Y-67800000D01*
X106056394Y-67772741D01*
X106147606Y-67720080D01*
X106222080Y-67645606D01*
X106274741Y-67554394D01*
X106302000Y-67452661D01*
X106302000Y-67446447D01*
X106981024Y-68125471D01*
X107032136Y-68052478D01*
X107128264Y-67846331D01*
X107128269Y-67846317D01*
X107187139Y-67626610D01*
X107187141Y-67626599D01*
X107206966Y-67400002D01*
X107206966Y-67399997D01*
X107187141Y-67173400D01*
X107187139Y-67173389D01*
X107128269Y-66953682D01*
X107128264Y-66953668D01*
X107032136Y-66747521D01*
X107032132Y-66747513D01*
X106981025Y-66674526D01*
X106302000Y-67353551D01*
X106302000Y-67347339D01*
X106274741Y-67245606D01*
X106222080Y-67154394D01*
X106147606Y-67079920D01*
X106056394Y-67027259D01*
X105954661Y-67000000D01*
X105948448Y-67000000D01*
X106627472Y-66320974D01*
X106554478Y-66269863D01*
X106348331Y-66173735D01*
X106348317Y-66173730D01*
X106128610Y-66114860D01*
X106128599Y-66114858D01*
X105902002Y-66095034D01*
X105901998Y-66095034D01*
X105675400Y-66114858D01*
X105675389Y-66114860D01*
X105455682Y-66173730D01*
X105455673Y-66173734D01*
X105249516Y-66269866D01*
X105249512Y-66269868D01*
X105176526Y-66320973D01*
X105176526Y-66320974D01*
X105855553Y-67000000D01*
X105849339Y-67000000D01*
X105747606Y-67027259D01*
X105656394Y-67079920D01*
X105581920Y-67154394D01*
X105529259Y-67245606D01*
X105502000Y-67347339D01*
X105502000Y-67353552D01*
X104814910Y-66666463D01*
X104776805Y-66658804D01*
X104726623Y-66610188D01*
X104711965Y-66554600D01*
X104710959Y-66554653D01*
X104710856Y-66554665D01*
X104710855Y-66554659D01*
X104710677Y-66554669D01*
X104710499Y-66551345D01*
X104707157Y-66520270D01*
X104703989Y-66490799D01*
X104652889Y-66353796D01*
X104565261Y-66236739D01*
X104448204Y-66149111D01*
X104435356Y-66144319D01*
X104311203Y-66098011D01*
X104250654Y-66091500D01*
X104250638Y-66091500D01*
X102553362Y-66091500D01*
X102553345Y-66091500D01*
X102492797Y-66098011D01*
X102492795Y-66098011D01*
X102355795Y-66149111D01*
X102238739Y-66236739D01*
X102151111Y-66353795D01*
X102100011Y-66490795D01*
X102100011Y-66490797D01*
X102093500Y-66551345D01*
X102093500Y-68248654D01*
X102100011Y-68309202D01*
X102100011Y-68309204D01*
X102151111Y-68446204D01*
X102238739Y-68563261D01*
X102355796Y-68650889D01*
X102492799Y-68701989D01*
X102520050Y-68704918D01*
X102553345Y-68708499D01*
X102553362Y-68708500D01*
X102644500Y-68708500D01*
X102711539Y-68728185D01*
X102757294Y-68780989D01*
X102768500Y-68832500D01*
X102768500Y-71940833D01*
X102748815Y-72007872D01*
X102732181Y-72028514D01*
X98118728Y-76641966D01*
X98057405Y-76675451D01*
X97987713Y-76670467D01*
X97931780Y-76628595D01*
X97921986Y-76613291D01*
X97920862Y-76611214D01*
X97920860Y-76611209D01*
X97920856Y-76611203D01*
X97920854Y-76611199D01*
X97797723Y-76422734D01*
X97797715Y-76422723D01*
X97645243Y-76257097D01*
X97645238Y-76257092D01*
X97482329Y-76130294D01*
X97467576Y-76118811D01*
X97467575Y-76118810D01*
X97467572Y-76118808D01*
X97269580Y-76011661D01*
X97269577Y-76011659D01*
X97269574Y-76011658D01*
X97269571Y-76011657D01*
X97269569Y-76011656D01*
X97056637Y-75938556D01*
X96834569Y-75901500D01*
X96609431Y-75901500D01*
X96387362Y-75938556D01*
X96174430Y-76011656D01*
X96174419Y-76011661D01*
X95976427Y-76118808D01*
X95976422Y-76118812D01*
X95798761Y-76257092D01*
X95798756Y-76257097D01*
X95646284Y-76422723D01*
X95646276Y-76422734D01*
X95552251Y-76566650D01*
X95499105Y-76612007D01*
X95429873Y-76621430D01*
X95366538Y-76591928D01*
X95346868Y-76569951D01*
X95220113Y-76388926D01*
X95220108Y-76388920D01*
X95053082Y-76221894D01*
X94859578Y-76086399D01*
X94645492Y-75986570D01*
X94645486Y-75986567D01*
X94432000Y-75929364D01*
X94432000Y-76826988D01*
X94374993Y-76794075D01*
X94247826Y-76760000D01*
X94116174Y-76760000D01*
X93989007Y-76794075D01*
X93932000Y-76826988D01*
X93932000Y-75929364D01*
X93931999Y-75929364D01*
X93718513Y-75986567D01*
X93718507Y-75986570D01*
X93504422Y-76086399D01*
X93504420Y-76086400D01*
X93310926Y-76221886D01*
X93310920Y-76221891D01*
X93143891Y-76388920D01*
X93143890Y-76388922D01*
X93013575Y-76575031D01*
X92958998Y-76618655D01*
X92889499Y-76625848D01*
X92827145Y-76594326D01*
X92810425Y-76575031D01*
X92680109Y-76388922D01*
X92680108Y-76388920D01*
X92513082Y-76221894D01*
X92319578Y-76086399D01*
X92105492Y-75986570D01*
X92105486Y-75986567D01*
X91892000Y-75929364D01*
X91892000Y-76826988D01*
X91834993Y-76794075D01*
X91707826Y-76760000D01*
X91576174Y-76760000D01*
X91449007Y-76794075D01*
X91392000Y-76826988D01*
X91392000Y-75929364D01*
X91391999Y-75929364D01*
X91178513Y-75986567D01*
X91178507Y-75986570D01*
X90964422Y-76086399D01*
X90964420Y-76086400D01*
X90770926Y-76221886D01*
X90770920Y-76221891D01*
X90603891Y-76388920D01*
X90603890Y-76388922D01*
X90477131Y-76569952D01*
X90422554Y-76613577D01*
X90353055Y-76620769D01*
X90290701Y-76589247D01*
X90271752Y-76566656D01*
X90177722Y-76422732D01*
X90177715Y-76422725D01*
X90177715Y-76422723D01*
X90025243Y-76257097D01*
X90025238Y-76257092D01*
X89908337Y-76166103D01*
X89867524Y-76109392D01*
X89860500Y-76068250D01*
X89860500Y-71765543D01*
X89880185Y-71698504D01*
X89896819Y-71677862D01*
X92829862Y-68744819D01*
X92891185Y-68711334D01*
X92917543Y-68708500D01*
X93950638Y-68708500D01*
X93950654Y-68708499D01*
X93977692Y-68705591D01*
X94011201Y-68701989D01*
X94148204Y-68650889D01*
X94265261Y-68563261D01*
X94352889Y-68446204D01*
X94403989Y-68309201D01*
X94407591Y-68275692D01*
X94410499Y-68248654D01*
X94410677Y-68245331D01*
X94410855Y-68245340D01*
X94410856Y-68245335D01*
X94410959Y-68245346D01*
X94412128Y-68245408D01*
X94430185Y-68183915D01*
X94482989Y-68138160D01*
X94515967Y-68132479D01*
X95202000Y-67446446D01*
X95202000Y-67452661D01*
X95229259Y-67554394D01*
X95281920Y-67645606D01*
X95356394Y-67720080D01*
X95447606Y-67772741D01*
X95549339Y-67800000D01*
X95555553Y-67800000D01*
X94876526Y-68479025D01*
X94949513Y-68530132D01*
X94949521Y-68530136D01*
X95155668Y-68626264D01*
X95155682Y-68626269D01*
X95375389Y-68685139D01*
X95375400Y-68685141D01*
X95601998Y-68704966D01*
X95602002Y-68704966D01*
X95828599Y-68685141D01*
X95828610Y-68685139D01*
X96048317Y-68626269D01*
X96048331Y-68626264D01*
X96254478Y-68530136D01*
X96327471Y-68479024D01*
X95648447Y-67800000D01*
X95654661Y-67800000D01*
X95756394Y-67772741D01*
X95847606Y-67720080D01*
X95922080Y-67645606D01*
X95974741Y-67554394D01*
X96002000Y-67452661D01*
X96002000Y-67446447D01*
X96681024Y-68125471D01*
X96732136Y-68052478D01*
X96828264Y-67846331D01*
X96828269Y-67846317D01*
X96887139Y-67626610D01*
X96887141Y-67626599D01*
X96906966Y-67400002D01*
X96906966Y-67399997D01*
X96887141Y-67173400D01*
X96887139Y-67173389D01*
X96828269Y-66953682D01*
X96828264Y-66953668D01*
X96732136Y-66747521D01*
X96732132Y-66747513D01*
X96681025Y-66674526D01*
X96002000Y-67353551D01*
X96002000Y-67347339D01*
X95974741Y-67245606D01*
X95922080Y-67154394D01*
X95847606Y-67079920D01*
X95756394Y-67027259D01*
X95654661Y-67000000D01*
X95648448Y-67000000D01*
X96327472Y-66320974D01*
X96254478Y-66269863D01*
X96048331Y-66173735D01*
X96048317Y-66173730D01*
X95828610Y-66114860D01*
X95828599Y-66114858D01*
X95602002Y-66095034D01*
X95601998Y-66095034D01*
X95375400Y-66114858D01*
X95375389Y-66114860D01*
X95155682Y-66173730D01*
X95155673Y-66173734D01*
X94949516Y-66269866D01*
X94949512Y-66269868D01*
X94876526Y-66320973D01*
X94876526Y-66320974D01*
X95555553Y-67000000D01*
X95549339Y-67000000D01*
X95447606Y-67027259D01*
X95356394Y-67079920D01*
X95281920Y-67154394D01*
X95229259Y-67245606D01*
X95202000Y-67347339D01*
X95202000Y-67353552D01*
X94514910Y-66666463D01*
X94476805Y-66658804D01*
X94426623Y-66610188D01*
X94411965Y-66554600D01*
X94410959Y-66554653D01*
X94410856Y-66554665D01*
X94410855Y-66554659D01*
X94410677Y-66554669D01*
X94410499Y-66551345D01*
X94407157Y-66520270D01*
X94403989Y-66490799D01*
X94352889Y-66353796D01*
X94265261Y-66236739D01*
X94148204Y-66149111D01*
X94135356Y-66144319D01*
X94011203Y-66098011D01*
X93950654Y-66091500D01*
X93950638Y-66091500D01*
X92253362Y-66091500D01*
X92253345Y-66091500D01*
X92192797Y-66098011D01*
X92192795Y-66098011D01*
X92055795Y-66149111D01*
X91938739Y-66236739D01*
X91851111Y-66353795D01*
X91800011Y-66490795D01*
X91800011Y-66490797D01*
X91793500Y-66551345D01*
X91793500Y-67584456D01*
X91773815Y-67651495D01*
X91757181Y-67672137D01*
X88512836Y-70916481D01*
X88512835Y-70916482D01*
X88429828Y-71040712D01*
X88429822Y-71040723D01*
X88416128Y-71073786D01*
X88416128Y-71073787D01*
X88372649Y-71178753D01*
X88372647Y-71178759D01*
X88343500Y-71325291D01*
X88343500Y-76068250D01*
X88323815Y-76135289D01*
X88295663Y-76166103D01*
X88178761Y-76257092D01*
X88178756Y-76257097D01*
X88026284Y-76422723D01*
X88026276Y-76422734D01*
X87935808Y-76561206D01*
X87882662Y-76606562D01*
X87813431Y-76615986D01*
X87750095Y-76586484D01*
X87728192Y-76561206D01*
X87637723Y-76422734D01*
X87637715Y-76422723D01*
X87485243Y-76257097D01*
X87485238Y-76257092D01*
X87322329Y-76130294D01*
X87307576Y-76118811D01*
X87307575Y-76118810D01*
X87307572Y-76118808D01*
X87109580Y-76011661D01*
X87109577Y-76011659D01*
X87109574Y-76011658D01*
X87109571Y-76011657D01*
X87109569Y-76011656D01*
X86896637Y-75938556D01*
X86674569Y-75901500D01*
X86449431Y-75901500D01*
X86227362Y-75938556D01*
X86014430Y-76011656D01*
X86014419Y-76011661D01*
X85816427Y-76118808D01*
X85816422Y-76118812D01*
X85638761Y-76257092D01*
X85638756Y-76257097D01*
X85486284Y-76422723D01*
X85486276Y-76422734D01*
X85395808Y-76561206D01*
X85342662Y-76606562D01*
X85273431Y-76615986D01*
X85210095Y-76586484D01*
X85188192Y-76561206D01*
X85097723Y-76422734D01*
X85097715Y-76422723D01*
X84945243Y-76257097D01*
X84945238Y-76257092D01*
X84782329Y-76130294D01*
X84767577Y-76118811D01*
X84720480Y-76093323D01*
X84670891Y-76044102D01*
X84655500Y-75984269D01*
X84655500Y-71888605D01*
X84655499Y-71888601D01*
X84631156Y-71766222D01*
X84631155Y-71766215D01*
X84583400Y-71650925D01*
X84583399Y-71650924D01*
X84583396Y-71650918D01*
X84514072Y-71547168D01*
X84471816Y-71504912D01*
X84425833Y-71458929D01*
X81819795Y-68852891D01*
X81786310Y-68791568D01*
X81791294Y-68721876D01*
X81833166Y-68665943D01*
X81898630Y-68641526D01*
X81950811Y-68649029D01*
X81955794Y-68650887D01*
X81955796Y-68650889D01*
X82092799Y-68701989D01*
X82120050Y-68704918D01*
X82153345Y-68708499D01*
X82153362Y-68708500D01*
X83850638Y-68708500D01*
X83850654Y-68708499D01*
X83877692Y-68705591D01*
X83911201Y-68701989D01*
X84048204Y-68650889D01*
X84165261Y-68563261D01*
X84252889Y-68446204D01*
X84303989Y-68309201D01*
X84307591Y-68275692D01*
X84310499Y-68248654D01*
X84310677Y-68245331D01*
X84310855Y-68245340D01*
X84310856Y-68245335D01*
X84310959Y-68245346D01*
X84312128Y-68245408D01*
X84330185Y-68183915D01*
X84382989Y-68138160D01*
X84415967Y-68132479D01*
X85102000Y-67446446D01*
X85102000Y-67452661D01*
X85129259Y-67554394D01*
X85181920Y-67645606D01*
X85256394Y-67720080D01*
X85347606Y-67772741D01*
X85449339Y-67800000D01*
X85455553Y-67800000D01*
X84776526Y-68479025D01*
X84849513Y-68530132D01*
X84849521Y-68530136D01*
X85055668Y-68626264D01*
X85055682Y-68626269D01*
X85275389Y-68685139D01*
X85275400Y-68685141D01*
X85501998Y-68704966D01*
X85502002Y-68704966D01*
X85728599Y-68685141D01*
X85728610Y-68685139D01*
X85948317Y-68626269D01*
X85948331Y-68626264D01*
X86154478Y-68530136D01*
X86227471Y-68479024D01*
X85548447Y-67800000D01*
X85554661Y-67800000D01*
X85656394Y-67772741D01*
X85747606Y-67720080D01*
X85822080Y-67645606D01*
X85874741Y-67554394D01*
X85902000Y-67452661D01*
X85902000Y-67446447D01*
X86581024Y-68125471D01*
X86632136Y-68052478D01*
X86728264Y-67846331D01*
X86728269Y-67846317D01*
X86787139Y-67626610D01*
X86787141Y-67626599D01*
X86806966Y-67400002D01*
X86806966Y-67399997D01*
X86787141Y-67173400D01*
X86787139Y-67173389D01*
X86728269Y-66953682D01*
X86728264Y-66953668D01*
X86632136Y-66747521D01*
X86632132Y-66747513D01*
X86581025Y-66674526D01*
X85902000Y-67353551D01*
X85902000Y-67347339D01*
X85874741Y-67245606D01*
X85822080Y-67154394D01*
X85747606Y-67079920D01*
X85656394Y-67027259D01*
X85554661Y-67000000D01*
X85548448Y-67000000D01*
X86227472Y-66320974D01*
X86154478Y-66269863D01*
X85948331Y-66173735D01*
X85948317Y-66173730D01*
X85728610Y-66114860D01*
X85728599Y-66114858D01*
X85502002Y-66095034D01*
X85501998Y-66095034D01*
X85275400Y-66114858D01*
X85275389Y-66114860D01*
X85055682Y-66173730D01*
X85055673Y-66173734D01*
X84849516Y-66269866D01*
X84849512Y-66269868D01*
X84776526Y-66320973D01*
X84776526Y-66320974D01*
X85455553Y-67000000D01*
X85449339Y-67000000D01*
X85347606Y-67027259D01*
X85256394Y-67079920D01*
X85181920Y-67154394D01*
X85129259Y-67245606D01*
X85102000Y-67347339D01*
X85102000Y-67353552D01*
X84414910Y-66666463D01*
X84376805Y-66658804D01*
X84326623Y-66610188D01*
X84311965Y-66554600D01*
X84310959Y-66554653D01*
X84310856Y-66554665D01*
X84310855Y-66554659D01*
X84310677Y-66554669D01*
X84310499Y-66551345D01*
X84307157Y-66520270D01*
X84303989Y-66490799D01*
X84252889Y-66353796D01*
X84165261Y-66236739D01*
X84048204Y-66149111D01*
X84035356Y-66144319D01*
X83911203Y-66098011D01*
X83850654Y-66091500D01*
X83850638Y-66091500D01*
X82153362Y-66091500D01*
X82153345Y-66091500D01*
X82092797Y-66098011D01*
X82092795Y-66098011D01*
X81955795Y-66149111D01*
X81838739Y-66236739D01*
X81751111Y-66353795D01*
X81700011Y-66490795D01*
X81700011Y-66490797D01*
X81693500Y-66551345D01*
X81693500Y-68248654D01*
X81700011Y-68309202D01*
X81700011Y-68309204D01*
X81752970Y-68451188D01*
X81757955Y-68520880D01*
X81724471Y-68582204D01*
X81663148Y-68615689D01*
X81593456Y-68610705D01*
X81549108Y-68582204D01*
X56086822Y-43119918D01*
X56053337Y-43058595D01*
X56058321Y-42988903D01*
X56073409Y-42961882D01*
X56072917Y-42961561D01*
X56198859Y-42768792D01*
X56198860Y-42768791D01*
X56289296Y-42562616D01*
X56344564Y-42344368D01*
X56344565Y-42344359D01*
X56363156Y-42120005D01*
X56363156Y-42119994D01*
X56344565Y-41895640D01*
X56344563Y-41895628D01*
X56289296Y-41677385D01*
X56198859Y-41471207D01*
X56075723Y-41282734D01*
X56075715Y-41282723D01*
X55923243Y-41117097D01*
X55923238Y-41117092D01*
X55745577Y-40978812D01*
X55745578Y-40978812D01*
X55745576Y-40978811D01*
X55709070Y-40959055D01*
X55659479Y-40909836D01*
X55644371Y-40841619D01*
X55668541Y-40776064D01*
X55709070Y-40740945D01*
X55709084Y-40740936D01*
X55745576Y-40721189D01*
X55923240Y-40582906D01*
X56075722Y-40417268D01*
X56198860Y-40228791D01*
X56289296Y-40022616D01*
X56344564Y-39804368D01*
X56363156Y-39580000D01*
X56344564Y-39355632D01*
X56289296Y-39137384D01*
X56198860Y-38931209D01*
X56179440Y-38901485D01*
X56075723Y-38742734D01*
X56075715Y-38742723D01*
X55923243Y-38577097D01*
X55923238Y-38577092D01*
X55745577Y-38438812D01*
X55745578Y-38438812D01*
X55745576Y-38438811D01*
X55709070Y-38419055D01*
X55659479Y-38369836D01*
X55644371Y-38301619D01*
X55668541Y-38236064D01*
X55709070Y-38200945D01*
X55709084Y-38200936D01*
X55745576Y-38181189D01*
X55923240Y-38042906D01*
X56075722Y-37877268D01*
X56198860Y-37688791D01*
X56289296Y-37482616D01*
X56344564Y-37264368D01*
X56363156Y-37040000D01*
X56344564Y-36815632D01*
X56289296Y-36597384D01*
X56198860Y-36391209D01*
X56075722Y-36202732D01*
X56075719Y-36202729D01*
X56075715Y-36202723D01*
X55930510Y-36044991D01*
X55899587Y-35982337D01*
X55907447Y-35912911D01*
X55951594Y-35858755D01*
X55978405Y-35844827D01*
X56058584Y-35814920D01*
X56096204Y-35800889D01*
X56213261Y-35713261D01*
X56300889Y-35596204D01*
X56351989Y-35459201D01*
X56355591Y-35425692D01*
X56358499Y-35398654D01*
X56358500Y-35398637D01*
X56358500Y-33601362D01*
X56358499Y-33601345D01*
X56355157Y-33570270D01*
X56351989Y-33540799D01*
X56300889Y-33403796D01*
X56213261Y-33286739D01*
X56096204Y-33199111D01*
X55959203Y-33148011D01*
X55898654Y-33141500D01*
X55898638Y-33141500D01*
X54101362Y-33141500D01*
X54101345Y-33141500D01*
X54040797Y-33148011D01*
X54040795Y-33148011D01*
X53903795Y-33199111D01*
X53786739Y-33286739D01*
X53699111Y-33403795D01*
X53648011Y-33540795D01*
X53648011Y-33540797D01*
X53641500Y-33601345D01*
X53641500Y-35398654D01*
X53648011Y-35459202D01*
X53648011Y-35459204D01*
X53699111Y-35596204D01*
X53786739Y-35713261D01*
X53903796Y-35800889D01*
X53955737Y-35820262D01*
X54021595Y-35844827D01*
X54077528Y-35886699D01*
X54101944Y-35952163D01*
X54087092Y-36020436D01*
X54069490Y-36044991D01*
X53924279Y-36202730D01*
X53924276Y-36202734D01*
X53801140Y-36391207D01*
X53710703Y-36597385D01*
X53655436Y-36815628D01*
X53655434Y-36815640D01*
X53636844Y-37039994D01*
X50075500Y-37039994D01*
X50075500Y-25199500D01*
X50095185Y-25132461D01*
X50147989Y-25086706D01*
X50199500Y-25075500D01*
X149800500Y-25075500D01*
X149867539Y-25095185D01*
G37*
%TD.AperFunction*%
%TD*%
M02*
