%TF.GenerationSoftware,KiCad,Pcbnew,8.0.6*%
%TF.CreationDate,2025-01-18T13:18:21-05:00*%
%TF.ProjectId,RL78_G13_Arduino,524c3738-5f47-4313-935f-41726475696e,rev?*%
%TF.SameCoordinates,Original*%
%TF.FileFunction,Legend,Top*%
%TF.FilePolarity,Positive*%
%FSLAX46Y46*%
G04 Gerber Fmt 4.6, Leading zero omitted, Abs format (unit mm)*
G04 Created by KiCad (PCBNEW 8.0.6) date 2025-01-18 13:18:21*
%MOMM*%
%LPD*%
G01*
G04 APERTURE LIST*
%ADD10C,0.150000*%
%ADD11C,0.254000*%
%ADD12C,0.120000*%
%ADD13C,0.152400*%
%ADD14C,0.050800*%
%ADD15C,0.203200*%
%ADD16C,0.200000*%
G04 APERTURE END LIST*
D10*
X113647333Y-49059580D02*
X113599714Y-49107200D01*
X113599714Y-49107200D02*
X113456857Y-49154819D01*
X113456857Y-49154819D02*
X113361619Y-49154819D01*
X113361619Y-49154819D02*
X113218762Y-49107200D01*
X113218762Y-49107200D02*
X113123524Y-49011961D01*
X113123524Y-49011961D02*
X113075905Y-48916723D01*
X113075905Y-48916723D02*
X113028286Y-48726247D01*
X113028286Y-48726247D02*
X113028286Y-48583390D01*
X113028286Y-48583390D02*
X113075905Y-48392914D01*
X113075905Y-48392914D02*
X113123524Y-48297676D01*
X113123524Y-48297676D02*
X113218762Y-48202438D01*
X113218762Y-48202438D02*
X113361619Y-48154819D01*
X113361619Y-48154819D02*
X113456857Y-48154819D01*
X113456857Y-48154819D02*
X113599714Y-48202438D01*
X113599714Y-48202438D02*
X113647333Y-48250057D01*
X114218762Y-48583390D02*
X114123524Y-48535771D01*
X114123524Y-48535771D02*
X114075905Y-48488152D01*
X114075905Y-48488152D02*
X114028286Y-48392914D01*
X114028286Y-48392914D02*
X114028286Y-48345295D01*
X114028286Y-48345295D02*
X114075905Y-48250057D01*
X114075905Y-48250057D02*
X114123524Y-48202438D01*
X114123524Y-48202438D02*
X114218762Y-48154819D01*
X114218762Y-48154819D02*
X114409238Y-48154819D01*
X114409238Y-48154819D02*
X114504476Y-48202438D01*
X114504476Y-48202438D02*
X114552095Y-48250057D01*
X114552095Y-48250057D02*
X114599714Y-48345295D01*
X114599714Y-48345295D02*
X114599714Y-48392914D01*
X114599714Y-48392914D02*
X114552095Y-48488152D01*
X114552095Y-48488152D02*
X114504476Y-48535771D01*
X114504476Y-48535771D02*
X114409238Y-48583390D01*
X114409238Y-48583390D02*
X114218762Y-48583390D01*
X114218762Y-48583390D02*
X114123524Y-48631009D01*
X114123524Y-48631009D02*
X114075905Y-48678628D01*
X114075905Y-48678628D02*
X114028286Y-48773866D01*
X114028286Y-48773866D02*
X114028286Y-48964342D01*
X114028286Y-48964342D02*
X114075905Y-49059580D01*
X114075905Y-49059580D02*
X114123524Y-49107200D01*
X114123524Y-49107200D02*
X114218762Y-49154819D01*
X114218762Y-49154819D02*
X114409238Y-49154819D01*
X114409238Y-49154819D02*
X114504476Y-49107200D01*
X114504476Y-49107200D02*
X114552095Y-49059580D01*
X114552095Y-49059580D02*
X114599714Y-48964342D01*
X114599714Y-48964342D02*
X114599714Y-48773866D01*
X114599714Y-48773866D02*
X114552095Y-48678628D01*
X114552095Y-48678628D02*
X114504476Y-48631009D01*
X114504476Y-48631009D02*
X114409238Y-48583390D01*
X60283333Y-38154819D02*
X59950000Y-37678628D01*
X59711905Y-38154819D02*
X59711905Y-37154819D01*
X59711905Y-37154819D02*
X60092857Y-37154819D01*
X60092857Y-37154819D02*
X60188095Y-37202438D01*
X60188095Y-37202438D02*
X60235714Y-37250057D01*
X60235714Y-37250057D02*
X60283333Y-37345295D01*
X60283333Y-37345295D02*
X60283333Y-37488152D01*
X60283333Y-37488152D02*
X60235714Y-37583390D01*
X60235714Y-37583390D02*
X60188095Y-37631009D01*
X60188095Y-37631009D02*
X60092857Y-37678628D01*
X60092857Y-37678628D02*
X59711905Y-37678628D01*
X61235714Y-38154819D02*
X60664286Y-38154819D01*
X60950000Y-38154819D02*
X60950000Y-37154819D01*
X60950000Y-37154819D02*
X60854762Y-37297676D01*
X60854762Y-37297676D02*
X60759524Y-37392914D01*
X60759524Y-37392914D02*
X60664286Y-37440533D01*
X139283333Y-33354819D02*
X138950000Y-32878628D01*
X138711905Y-33354819D02*
X138711905Y-32354819D01*
X138711905Y-32354819D02*
X139092857Y-32354819D01*
X139092857Y-32354819D02*
X139188095Y-32402438D01*
X139188095Y-32402438D02*
X139235714Y-32450057D01*
X139235714Y-32450057D02*
X139283333Y-32545295D01*
X139283333Y-32545295D02*
X139283333Y-32688152D01*
X139283333Y-32688152D02*
X139235714Y-32783390D01*
X139235714Y-32783390D02*
X139188095Y-32831009D01*
X139188095Y-32831009D02*
X139092857Y-32878628D01*
X139092857Y-32878628D02*
X138711905Y-32878628D01*
X140140476Y-32354819D02*
X139950000Y-32354819D01*
X139950000Y-32354819D02*
X139854762Y-32402438D01*
X139854762Y-32402438D02*
X139807143Y-32450057D01*
X139807143Y-32450057D02*
X139711905Y-32592914D01*
X139711905Y-32592914D02*
X139664286Y-32783390D01*
X139664286Y-32783390D02*
X139664286Y-33164342D01*
X139664286Y-33164342D02*
X139711905Y-33259580D01*
X139711905Y-33259580D02*
X139759524Y-33307200D01*
X139759524Y-33307200D02*
X139854762Y-33354819D01*
X139854762Y-33354819D02*
X140045238Y-33354819D01*
X140045238Y-33354819D02*
X140140476Y-33307200D01*
X140140476Y-33307200D02*
X140188095Y-33259580D01*
X140188095Y-33259580D02*
X140235714Y-33164342D01*
X140235714Y-33164342D02*
X140235714Y-32926247D01*
X140235714Y-32926247D02*
X140188095Y-32831009D01*
X140188095Y-32831009D02*
X140140476Y-32783390D01*
X140140476Y-32783390D02*
X140045238Y-32735771D01*
X140045238Y-32735771D02*
X139854762Y-32735771D01*
X139854762Y-32735771D02*
X139759524Y-32783390D01*
X139759524Y-32783390D02*
X139711905Y-32831009D01*
X139711905Y-32831009D02*
X139664286Y-32926247D01*
X77816666Y-73604819D02*
X77816666Y-74319104D01*
X77816666Y-74319104D02*
X77769047Y-74461961D01*
X77769047Y-74461961D02*
X77673809Y-74557200D01*
X77673809Y-74557200D02*
X77530952Y-74604819D01*
X77530952Y-74604819D02*
X77435714Y-74604819D01*
X78816666Y-74604819D02*
X78245238Y-74604819D01*
X78530952Y-74604819D02*
X78530952Y-73604819D01*
X78530952Y-73604819D02*
X78435714Y-73747676D01*
X78435714Y-73747676D02*
X78340476Y-73842914D01*
X78340476Y-73842914D02*
X78245238Y-73890533D01*
X89298094Y-64297419D02*
X89298094Y-65106942D01*
X89298094Y-65106942D02*
X89345713Y-65202180D01*
X89345713Y-65202180D02*
X89393332Y-65249800D01*
X89393332Y-65249800D02*
X89488570Y-65297419D01*
X89488570Y-65297419D02*
X89679046Y-65297419D01*
X89679046Y-65297419D02*
X89774284Y-65249800D01*
X89774284Y-65249800D02*
X89821903Y-65202180D01*
X89821903Y-65202180D02*
X89869522Y-65106942D01*
X89869522Y-65106942D02*
X89869522Y-64297419D01*
X90298094Y-64392657D02*
X90345713Y-64345038D01*
X90345713Y-64345038D02*
X90440951Y-64297419D01*
X90440951Y-64297419D02*
X90679046Y-64297419D01*
X90679046Y-64297419D02*
X90774284Y-64345038D01*
X90774284Y-64345038D02*
X90821903Y-64392657D01*
X90821903Y-64392657D02*
X90869522Y-64487895D01*
X90869522Y-64487895D02*
X90869522Y-64583133D01*
X90869522Y-64583133D02*
X90821903Y-64725990D01*
X90821903Y-64725990D02*
X90250475Y-65297419D01*
X90250475Y-65297419D02*
X90869522Y-65297419D01*
X85227141Y-51653609D02*
X85369998Y-51701228D01*
X85369998Y-51701228D02*
X85417617Y-51748847D01*
X85417617Y-51748847D02*
X85465236Y-51844085D01*
X85465236Y-51844085D02*
X85465236Y-51986942D01*
X85465236Y-51986942D02*
X85417617Y-52082180D01*
X85417617Y-52082180D02*
X85369998Y-52129800D01*
X85369998Y-52129800D02*
X85274760Y-52177419D01*
X85274760Y-52177419D02*
X84893808Y-52177419D01*
X84893808Y-52177419D02*
X84893808Y-51177419D01*
X84893808Y-51177419D02*
X85227141Y-51177419D01*
X85227141Y-51177419D02*
X85322379Y-51225038D01*
X85322379Y-51225038D02*
X85369998Y-51272657D01*
X85369998Y-51272657D02*
X85417617Y-51367895D01*
X85417617Y-51367895D02*
X85417617Y-51463133D01*
X85417617Y-51463133D02*
X85369998Y-51558371D01*
X85369998Y-51558371D02*
X85322379Y-51605990D01*
X85322379Y-51605990D02*
X85227141Y-51653609D01*
X85227141Y-51653609D02*
X84893808Y-51653609D01*
X85846189Y-51891704D02*
X86322379Y-51891704D01*
X85750951Y-52177419D02*
X86084284Y-51177419D01*
X86084284Y-51177419D02*
X86417617Y-52177419D01*
X87274760Y-52177419D02*
X86703332Y-52177419D01*
X86989046Y-52177419D02*
X86989046Y-51177419D01*
X86989046Y-51177419D02*
X86893808Y-51320276D01*
X86893808Y-51320276D02*
X86798570Y-51415514D01*
X86798570Y-51415514D02*
X86703332Y-51463133D01*
X87608094Y-51177419D02*
X88274760Y-51177419D01*
X88274760Y-51177419D02*
X87846189Y-52177419D01*
X88798570Y-51605990D02*
X88703332Y-51558371D01*
X88703332Y-51558371D02*
X88655713Y-51510752D01*
X88655713Y-51510752D02*
X88608094Y-51415514D01*
X88608094Y-51415514D02*
X88608094Y-51367895D01*
X88608094Y-51367895D02*
X88655713Y-51272657D01*
X88655713Y-51272657D02*
X88703332Y-51225038D01*
X88703332Y-51225038D02*
X88798570Y-51177419D01*
X88798570Y-51177419D02*
X88989046Y-51177419D01*
X88989046Y-51177419D02*
X89084284Y-51225038D01*
X89084284Y-51225038D02*
X89131903Y-51272657D01*
X89131903Y-51272657D02*
X89179522Y-51367895D01*
X89179522Y-51367895D02*
X89179522Y-51415514D01*
X89179522Y-51415514D02*
X89131903Y-51510752D01*
X89131903Y-51510752D02*
X89084284Y-51558371D01*
X89084284Y-51558371D02*
X88989046Y-51605990D01*
X88989046Y-51605990D02*
X88798570Y-51605990D01*
X88798570Y-51605990D02*
X88703332Y-51653609D01*
X88703332Y-51653609D02*
X88655713Y-51701228D01*
X88655713Y-51701228D02*
X88608094Y-51796466D01*
X88608094Y-51796466D02*
X88608094Y-51986942D01*
X88608094Y-51986942D02*
X88655713Y-52082180D01*
X88655713Y-52082180D02*
X88703332Y-52129800D01*
X88703332Y-52129800D02*
X88798570Y-52177419D01*
X88798570Y-52177419D02*
X88989046Y-52177419D01*
X88989046Y-52177419D02*
X89084284Y-52129800D01*
X89084284Y-52129800D02*
X89131903Y-52082180D01*
X89131903Y-52082180D02*
X89179522Y-51986942D01*
X89179522Y-51986942D02*
X89179522Y-51796466D01*
X89179522Y-51796466D02*
X89131903Y-51701228D01*
X89131903Y-51701228D02*
X89084284Y-51653609D01*
X89084284Y-51653609D02*
X88989046Y-51605990D01*
X89798570Y-51177419D02*
X89893808Y-51177419D01*
X89893808Y-51177419D02*
X89989046Y-51225038D01*
X89989046Y-51225038D02*
X90036665Y-51272657D01*
X90036665Y-51272657D02*
X90084284Y-51367895D01*
X90084284Y-51367895D02*
X90131903Y-51558371D01*
X90131903Y-51558371D02*
X90131903Y-51796466D01*
X90131903Y-51796466D02*
X90084284Y-51986942D01*
X90084284Y-51986942D02*
X90036665Y-52082180D01*
X90036665Y-52082180D02*
X89989046Y-52129800D01*
X89989046Y-52129800D02*
X89893808Y-52177419D01*
X89893808Y-52177419D02*
X89798570Y-52177419D01*
X89798570Y-52177419D02*
X89703332Y-52129800D01*
X89703332Y-52129800D02*
X89655713Y-52082180D01*
X89655713Y-52082180D02*
X89608094Y-51986942D01*
X89608094Y-51986942D02*
X89560475Y-51796466D01*
X89560475Y-51796466D02*
X89560475Y-51558371D01*
X89560475Y-51558371D02*
X89608094Y-51367895D01*
X89608094Y-51367895D02*
X89655713Y-51272657D01*
X89655713Y-51272657D02*
X89703332Y-51225038D01*
X89703332Y-51225038D02*
X89798570Y-51177419D01*
X91036665Y-51177419D02*
X90560475Y-51177419D01*
X90560475Y-51177419D02*
X90512856Y-51653609D01*
X90512856Y-51653609D02*
X90560475Y-51605990D01*
X90560475Y-51605990D02*
X90655713Y-51558371D01*
X90655713Y-51558371D02*
X90893808Y-51558371D01*
X90893808Y-51558371D02*
X90989046Y-51605990D01*
X90989046Y-51605990D02*
X91036665Y-51653609D01*
X91036665Y-51653609D02*
X91084284Y-51748847D01*
X91084284Y-51748847D02*
X91084284Y-51986942D01*
X91084284Y-51986942D02*
X91036665Y-52082180D01*
X91036665Y-52082180D02*
X90989046Y-52129800D01*
X90989046Y-52129800D02*
X90893808Y-52177419D01*
X90893808Y-52177419D02*
X90655713Y-52177419D01*
X90655713Y-52177419D02*
X90560475Y-52129800D01*
X90560475Y-52129800D02*
X90512856Y-52082180D01*
X91846189Y-51653609D02*
X91512856Y-51653609D01*
X91512856Y-52177419D02*
X91512856Y-51177419D01*
X91512856Y-51177419D02*
X91989046Y-51177419D01*
X92369999Y-52177419D02*
X92369999Y-51177419D01*
X92369999Y-51177419D02*
X92750951Y-51177419D01*
X92750951Y-51177419D02*
X92846189Y-51225038D01*
X92846189Y-51225038D02*
X92893808Y-51272657D01*
X92893808Y-51272657D02*
X92941427Y-51367895D01*
X92941427Y-51367895D02*
X92941427Y-51510752D01*
X92941427Y-51510752D02*
X92893808Y-51605990D01*
X92893808Y-51605990D02*
X92846189Y-51653609D01*
X92846189Y-51653609D02*
X92750951Y-51701228D01*
X92750951Y-51701228D02*
X92369999Y-51701228D01*
X93322380Y-51272657D02*
X93369999Y-51225038D01*
X93369999Y-51225038D02*
X93465237Y-51177419D01*
X93465237Y-51177419D02*
X93703332Y-51177419D01*
X93703332Y-51177419D02*
X93798570Y-51225038D01*
X93798570Y-51225038D02*
X93846189Y-51272657D01*
X93846189Y-51272657D02*
X93893808Y-51367895D01*
X93893808Y-51367895D02*
X93893808Y-51463133D01*
X93893808Y-51463133D02*
X93846189Y-51605990D01*
X93846189Y-51605990D02*
X93274761Y-52177419D01*
X93274761Y-52177419D02*
X93893808Y-52177419D01*
X52133333Y-52954819D02*
X51800000Y-52478628D01*
X51561905Y-52954819D02*
X51561905Y-51954819D01*
X51561905Y-51954819D02*
X51942857Y-51954819D01*
X51942857Y-51954819D02*
X52038095Y-52002438D01*
X52038095Y-52002438D02*
X52085714Y-52050057D01*
X52085714Y-52050057D02*
X52133333Y-52145295D01*
X52133333Y-52145295D02*
X52133333Y-52288152D01*
X52133333Y-52288152D02*
X52085714Y-52383390D01*
X52085714Y-52383390D02*
X52038095Y-52431009D01*
X52038095Y-52431009D02*
X51942857Y-52478628D01*
X51942857Y-52478628D02*
X51561905Y-52478628D01*
X52466667Y-51954819D02*
X53085714Y-51954819D01*
X53085714Y-51954819D02*
X52752381Y-52335771D01*
X52752381Y-52335771D02*
X52895238Y-52335771D01*
X52895238Y-52335771D02*
X52990476Y-52383390D01*
X52990476Y-52383390D02*
X53038095Y-52431009D01*
X53038095Y-52431009D02*
X53085714Y-52526247D01*
X53085714Y-52526247D02*
X53085714Y-52764342D01*
X53085714Y-52764342D02*
X53038095Y-52859580D01*
X53038095Y-52859580D02*
X52990476Y-52907200D01*
X52990476Y-52907200D02*
X52895238Y-52954819D01*
X52895238Y-52954819D02*
X52609524Y-52954819D01*
X52609524Y-52954819D02*
X52514286Y-52907200D01*
X52514286Y-52907200D02*
X52466667Y-52859580D01*
X74271333Y-33404819D02*
X73938000Y-32928628D01*
X73699905Y-33404819D02*
X73699905Y-32404819D01*
X73699905Y-32404819D02*
X74080857Y-32404819D01*
X74080857Y-32404819D02*
X74176095Y-32452438D01*
X74176095Y-32452438D02*
X74223714Y-32500057D01*
X74223714Y-32500057D02*
X74271333Y-32595295D01*
X74271333Y-32595295D02*
X74271333Y-32738152D01*
X74271333Y-32738152D02*
X74223714Y-32833390D01*
X74223714Y-32833390D02*
X74176095Y-32881009D01*
X74176095Y-32881009D02*
X74080857Y-32928628D01*
X74080857Y-32928628D02*
X73699905Y-32928628D01*
X75176095Y-32404819D02*
X74699905Y-32404819D01*
X74699905Y-32404819D02*
X74652286Y-32881009D01*
X74652286Y-32881009D02*
X74699905Y-32833390D01*
X74699905Y-32833390D02*
X74795143Y-32785771D01*
X74795143Y-32785771D02*
X75033238Y-32785771D01*
X75033238Y-32785771D02*
X75128476Y-32833390D01*
X75128476Y-32833390D02*
X75176095Y-32881009D01*
X75176095Y-32881009D02*
X75223714Y-32976247D01*
X75223714Y-32976247D02*
X75223714Y-33214342D01*
X75223714Y-33214342D02*
X75176095Y-33309580D01*
X75176095Y-33309580D02*
X75128476Y-33357200D01*
X75128476Y-33357200D02*
X75033238Y-33404819D01*
X75033238Y-33404819D02*
X74795143Y-33404819D01*
X74795143Y-33404819D02*
X74699905Y-33357200D01*
X74699905Y-33357200D02*
X74652286Y-33309580D01*
X67583333Y-33254819D02*
X67250000Y-32778628D01*
X67011905Y-33254819D02*
X67011905Y-32254819D01*
X67011905Y-32254819D02*
X67392857Y-32254819D01*
X67392857Y-32254819D02*
X67488095Y-32302438D01*
X67488095Y-32302438D02*
X67535714Y-32350057D01*
X67535714Y-32350057D02*
X67583333Y-32445295D01*
X67583333Y-32445295D02*
X67583333Y-32588152D01*
X67583333Y-32588152D02*
X67535714Y-32683390D01*
X67535714Y-32683390D02*
X67488095Y-32731009D01*
X67488095Y-32731009D02*
X67392857Y-32778628D01*
X67392857Y-32778628D02*
X67011905Y-32778628D01*
X68440476Y-32588152D02*
X68440476Y-33254819D01*
X68202381Y-32207200D02*
X67964286Y-32921485D01*
X67964286Y-32921485D02*
X68583333Y-32921485D01*
X96685333Y-52729580D02*
X96637714Y-52777200D01*
X96637714Y-52777200D02*
X96494857Y-52824819D01*
X96494857Y-52824819D02*
X96399619Y-52824819D01*
X96399619Y-52824819D02*
X96256762Y-52777200D01*
X96256762Y-52777200D02*
X96161524Y-52681961D01*
X96161524Y-52681961D02*
X96113905Y-52586723D01*
X96113905Y-52586723D02*
X96066286Y-52396247D01*
X96066286Y-52396247D02*
X96066286Y-52253390D01*
X96066286Y-52253390D02*
X96113905Y-52062914D01*
X96113905Y-52062914D02*
X96161524Y-51967676D01*
X96161524Y-51967676D02*
X96256762Y-51872438D01*
X96256762Y-51872438D02*
X96399619Y-51824819D01*
X96399619Y-51824819D02*
X96494857Y-51824819D01*
X96494857Y-51824819D02*
X96637714Y-51872438D01*
X96637714Y-51872438D02*
X96685333Y-51920057D01*
X97018667Y-51824819D02*
X97637714Y-51824819D01*
X97637714Y-51824819D02*
X97304381Y-52205771D01*
X97304381Y-52205771D02*
X97447238Y-52205771D01*
X97447238Y-52205771D02*
X97542476Y-52253390D01*
X97542476Y-52253390D02*
X97590095Y-52301009D01*
X97590095Y-52301009D02*
X97637714Y-52396247D01*
X97637714Y-52396247D02*
X97637714Y-52634342D01*
X97637714Y-52634342D02*
X97590095Y-52729580D01*
X97590095Y-52729580D02*
X97542476Y-52777200D01*
X97542476Y-52777200D02*
X97447238Y-52824819D01*
X97447238Y-52824819D02*
X97161524Y-52824819D01*
X97161524Y-52824819D02*
X97066286Y-52777200D01*
X97066286Y-52777200D02*
X97018667Y-52729580D01*
X113247333Y-57839580D02*
X113199714Y-57887200D01*
X113199714Y-57887200D02*
X113056857Y-57934819D01*
X113056857Y-57934819D02*
X112961619Y-57934819D01*
X112961619Y-57934819D02*
X112818762Y-57887200D01*
X112818762Y-57887200D02*
X112723524Y-57791961D01*
X112723524Y-57791961D02*
X112675905Y-57696723D01*
X112675905Y-57696723D02*
X112628286Y-57506247D01*
X112628286Y-57506247D02*
X112628286Y-57363390D01*
X112628286Y-57363390D02*
X112675905Y-57172914D01*
X112675905Y-57172914D02*
X112723524Y-57077676D01*
X112723524Y-57077676D02*
X112818762Y-56982438D01*
X112818762Y-56982438D02*
X112961619Y-56934819D01*
X112961619Y-56934819D02*
X113056857Y-56934819D01*
X113056857Y-56934819D02*
X113199714Y-56982438D01*
X113199714Y-56982438D02*
X113247333Y-57030057D01*
X113580667Y-56934819D02*
X114247333Y-56934819D01*
X114247333Y-56934819D02*
X113818762Y-57934819D01*
X121800595Y-40704819D02*
X121800595Y-41514342D01*
X121800595Y-41514342D02*
X121848214Y-41609580D01*
X121848214Y-41609580D02*
X121895833Y-41657200D01*
X121895833Y-41657200D02*
X121991071Y-41704819D01*
X121991071Y-41704819D02*
X122181547Y-41704819D01*
X122181547Y-41704819D02*
X122276785Y-41657200D01*
X122276785Y-41657200D02*
X122324404Y-41609580D01*
X122324404Y-41609580D02*
X122372023Y-41514342D01*
X122372023Y-41514342D02*
X122372023Y-40704819D01*
X123372023Y-41704819D02*
X122800595Y-41704819D01*
X123086309Y-41704819D02*
X123086309Y-40704819D01*
X123086309Y-40704819D02*
X122991071Y-40847676D01*
X122991071Y-40847676D02*
X122895833Y-40942914D01*
X122895833Y-40942914D02*
X122800595Y-40990533D01*
X58333333Y-45454819D02*
X58000000Y-44978628D01*
X57761905Y-45454819D02*
X57761905Y-44454819D01*
X57761905Y-44454819D02*
X58142857Y-44454819D01*
X58142857Y-44454819D02*
X58238095Y-44502438D01*
X58238095Y-44502438D02*
X58285714Y-44550057D01*
X58285714Y-44550057D02*
X58333333Y-44645295D01*
X58333333Y-44645295D02*
X58333333Y-44788152D01*
X58333333Y-44788152D02*
X58285714Y-44883390D01*
X58285714Y-44883390D02*
X58238095Y-44931009D01*
X58238095Y-44931009D02*
X58142857Y-44978628D01*
X58142857Y-44978628D02*
X57761905Y-44978628D01*
X58714286Y-44550057D02*
X58761905Y-44502438D01*
X58761905Y-44502438D02*
X58857143Y-44454819D01*
X58857143Y-44454819D02*
X59095238Y-44454819D01*
X59095238Y-44454819D02*
X59190476Y-44502438D01*
X59190476Y-44502438D02*
X59238095Y-44550057D01*
X59238095Y-44550057D02*
X59285714Y-44645295D01*
X59285714Y-44645295D02*
X59285714Y-44740533D01*
X59285714Y-44740533D02*
X59238095Y-44883390D01*
X59238095Y-44883390D02*
X58666667Y-45454819D01*
X58666667Y-45454819D02*
X59285714Y-45454819D01*
X129333333Y-33604819D02*
X129000000Y-33128628D01*
X128761905Y-33604819D02*
X128761905Y-32604819D01*
X128761905Y-32604819D02*
X129142857Y-32604819D01*
X129142857Y-32604819D02*
X129238095Y-32652438D01*
X129238095Y-32652438D02*
X129285714Y-32700057D01*
X129285714Y-32700057D02*
X129333333Y-32795295D01*
X129333333Y-32795295D02*
X129333333Y-32938152D01*
X129333333Y-32938152D02*
X129285714Y-33033390D01*
X129285714Y-33033390D02*
X129238095Y-33081009D01*
X129238095Y-33081009D02*
X129142857Y-33128628D01*
X129142857Y-33128628D02*
X128761905Y-33128628D01*
X129666667Y-32604819D02*
X130333333Y-32604819D01*
X130333333Y-32604819D02*
X129904762Y-33604819D01*
X82735333Y-58659580D02*
X82687714Y-58707200D01*
X82687714Y-58707200D02*
X82544857Y-58754819D01*
X82544857Y-58754819D02*
X82449619Y-58754819D01*
X82449619Y-58754819D02*
X82306762Y-58707200D01*
X82306762Y-58707200D02*
X82211524Y-58611961D01*
X82211524Y-58611961D02*
X82163905Y-58516723D01*
X82163905Y-58516723D02*
X82116286Y-58326247D01*
X82116286Y-58326247D02*
X82116286Y-58183390D01*
X82116286Y-58183390D02*
X82163905Y-57992914D01*
X82163905Y-57992914D02*
X82211524Y-57897676D01*
X82211524Y-57897676D02*
X82306762Y-57802438D01*
X82306762Y-57802438D02*
X82449619Y-57754819D01*
X82449619Y-57754819D02*
X82544857Y-57754819D01*
X82544857Y-57754819D02*
X82687714Y-57802438D01*
X82687714Y-57802438D02*
X82735333Y-57850057D01*
X83687714Y-58754819D02*
X83116286Y-58754819D01*
X83402000Y-58754819D02*
X83402000Y-57754819D01*
X83402000Y-57754819D02*
X83306762Y-57897676D01*
X83306762Y-57897676D02*
X83211524Y-57992914D01*
X83211524Y-57992914D02*
X83116286Y-58040533D01*
X124966666Y-73854819D02*
X124966666Y-74569104D01*
X124966666Y-74569104D02*
X124919047Y-74711961D01*
X124919047Y-74711961D02*
X124823809Y-74807200D01*
X124823809Y-74807200D02*
X124680952Y-74854819D01*
X124680952Y-74854819D02*
X124585714Y-74854819D01*
X125919047Y-73854819D02*
X125442857Y-73854819D01*
X125442857Y-73854819D02*
X125395238Y-74331009D01*
X125395238Y-74331009D02*
X125442857Y-74283390D01*
X125442857Y-74283390D02*
X125538095Y-74235771D01*
X125538095Y-74235771D02*
X125776190Y-74235771D01*
X125776190Y-74235771D02*
X125871428Y-74283390D01*
X125871428Y-74283390D02*
X125919047Y-74331009D01*
X125919047Y-74331009D02*
X125966666Y-74426247D01*
X125966666Y-74426247D02*
X125966666Y-74664342D01*
X125966666Y-74664342D02*
X125919047Y-74759580D01*
X125919047Y-74759580D02*
X125871428Y-74807200D01*
X125871428Y-74807200D02*
X125776190Y-74854819D01*
X125776190Y-74854819D02*
X125538095Y-74854819D01*
X125538095Y-74854819D02*
X125442857Y-74807200D01*
X125442857Y-74807200D02*
X125395238Y-74759580D01*
X105785333Y-60729580D02*
X105737714Y-60777200D01*
X105737714Y-60777200D02*
X105594857Y-60824819D01*
X105594857Y-60824819D02*
X105499619Y-60824819D01*
X105499619Y-60824819D02*
X105356762Y-60777200D01*
X105356762Y-60777200D02*
X105261524Y-60681961D01*
X105261524Y-60681961D02*
X105213905Y-60586723D01*
X105213905Y-60586723D02*
X105166286Y-60396247D01*
X105166286Y-60396247D02*
X105166286Y-60253390D01*
X105166286Y-60253390D02*
X105213905Y-60062914D01*
X105213905Y-60062914D02*
X105261524Y-59967676D01*
X105261524Y-59967676D02*
X105356762Y-59872438D01*
X105356762Y-59872438D02*
X105499619Y-59824819D01*
X105499619Y-59824819D02*
X105594857Y-59824819D01*
X105594857Y-59824819D02*
X105737714Y-59872438D01*
X105737714Y-59872438D02*
X105785333Y-59920057D01*
X106690095Y-59824819D02*
X106213905Y-59824819D01*
X106213905Y-59824819D02*
X106166286Y-60301009D01*
X106166286Y-60301009D02*
X106213905Y-60253390D01*
X106213905Y-60253390D02*
X106309143Y-60205771D01*
X106309143Y-60205771D02*
X106547238Y-60205771D01*
X106547238Y-60205771D02*
X106642476Y-60253390D01*
X106642476Y-60253390D02*
X106690095Y-60301009D01*
X106690095Y-60301009D02*
X106737714Y-60396247D01*
X106737714Y-60396247D02*
X106737714Y-60634342D01*
X106737714Y-60634342D02*
X106690095Y-60729580D01*
X106690095Y-60729580D02*
X106642476Y-60777200D01*
X106642476Y-60777200D02*
X106547238Y-60824819D01*
X106547238Y-60824819D02*
X106309143Y-60824819D01*
X106309143Y-60824819D02*
X106213905Y-60777200D01*
X106213905Y-60777200D02*
X106166286Y-60729580D01*
D11*
X97007380Y-63554318D02*
X97007380Y-64582413D01*
X97007380Y-64582413D02*
X97067857Y-64703365D01*
X97067857Y-64703365D02*
X97128333Y-64763842D01*
X97128333Y-64763842D02*
X97249285Y-64824318D01*
X97249285Y-64824318D02*
X97491190Y-64824318D01*
X97491190Y-64824318D02*
X97612142Y-64763842D01*
X97612142Y-64763842D02*
X97672619Y-64703365D01*
X97672619Y-64703365D02*
X97733095Y-64582413D01*
X97733095Y-64582413D02*
X97733095Y-63554318D01*
X98216904Y-63554318D02*
X99003095Y-63554318D01*
X99003095Y-63554318D02*
X98579761Y-64038127D01*
X98579761Y-64038127D02*
X98761190Y-64038127D01*
X98761190Y-64038127D02*
X98882142Y-64098603D01*
X98882142Y-64098603D02*
X98942618Y-64159080D01*
X98942618Y-64159080D02*
X99003095Y-64280032D01*
X99003095Y-64280032D02*
X99003095Y-64582413D01*
X99003095Y-64582413D02*
X98942618Y-64703365D01*
X98942618Y-64703365D02*
X98882142Y-64763842D01*
X98882142Y-64763842D02*
X98761190Y-64824318D01*
X98761190Y-64824318D02*
X98398333Y-64824318D01*
X98398333Y-64824318D02*
X98277380Y-64763842D01*
X98277380Y-64763842D02*
X98216904Y-64703365D01*
D12*
%TO.C,J3*%
X100472000Y-75930000D02*
X101802000Y-75930000D01*
X100472000Y-77260000D02*
X100472000Y-75930000D01*
X103072000Y-75930000D02*
X120912000Y-75930000D01*
X103072000Y-78590000D02*
X103072000Y-75930000D01*
X103072000Y-78590000D02*
X120912000Y-78590000D01*
X120912000Y-78590000D02*
X120912000Y-75930000D01*
%TO.C,J2*%
X68468000Y-27670000D02*
X69798000Y-27670000D01*
X68468000Y-29000000D02*
X68468000Y-27670000D01*
X71068000Y-27670000D02*
X93988000Y-27670000D01*
X71068000Y-30330000D02*
X71068000Y-27670000D01*
X71068000Y-30330000D02*
X93988000Y-30330000D01*
X93988000Y-30330000D02*
X93988000Y-27670000D01*
%TO.C,J4*%
X95392000Y-27670000D02*
X96722000Y-27670000D01*
X95392000Y-29000000D02*
X95392000Y-27670000D01*
X97992000Y-27670000D02*
X115832000Y-27670000D01*
X97992000Y-30330000D02*
X97992000Y-27670000D01*
X97992000Y-30330000D02*
X115832000Y-30330000D01*
X115832000Y-30330000D02*
X115832000Y-27670000D01*
%TO.C,J6*%
X118252000Y-27670000D02*
X119582000Y-27670000D01*
X118252000Y-29000000D02*
X118252000Y-27670000D01*
X120852000Y-27670000D02*
X138692000Y-27670000D01*
X120852000Y-30330000D02*
X120852000Y-27670000D01*
X120852000Y-30330000D02*
X138692000Y-30330000D01*
X138692000Y-30330000D02*
X138692000Y-27670000D01*
%TO.C,C4*%
X90851759Y-65561000D02*
X91481759Y-65561000D01*
X91166759Y-65246000D02*
X91166759Y-65876000D01*
X94352000Y-64170000D02*
X94352000Y-70630000D01*
X94392000Y-64170000D02*
X94392000Y-70630000D01*
X94432000Y-64170000D02*
X94432000Y-70630000D01*
X94472000Y-64172000D02*
X94472000Y-70628000D01*
X94512000Y-64173000D02*
X94512000Y-70627000D01*
X94552000Y-64176000D02*
X94552000Y-70624000D01*
X94592000Y-64178000D02*
X94592000Y-66360000D01*
X94592000Y-68440000D02*
X94592000Y-70622000D01*
X94632000Y-64182000D02*
X94632000Y-66360000D01*
X94632000Y-68440000D02*
X94632000Y-70618000D01*
X94672000Y-64185000D02*
X94672000Y-66360000D01*
X94672000Y-68440000D02*
X94672000Y-70615000D01*
X94712000Y-64189000D02*
X94712000Y-66360000D01*
X94712000Y-68440000D02*
X94712000Y-70611000D01*
X94752000Y-64194000D02*
X94752000Y-66360000D01*
X94752000Y-68440000D02*
X94752000Y-70606000D01*
X94792000Y-64199000D02*
X94792000Y-66360000D01*
X94792000Y-68440000D02*
X94792000Y-70601000D01*
X94832000Y-64205000D02*
X94832000Y-66360000D01*
X94832000Y-68440000D02*
X94832000Y-70595000D01*
X94872000Y-64211000D02*
X94872000Y-66360000D01*
X94872000Y-68440000D02*
X94872000Y-70589000D01*
X94912000Y-64218000D02*
X94912000Y-66360000D01*
X94912000Y-68440000D02*
X94912000Y-70582000D01*
X94952000Y-64225000D02*
X94952000Y-66360000D01*
X94952000Y-68440000D02*
X94952000Y-70575000D01*
X94992000Y-64233000D02*
X94992000Y-66360000D01*
X94992000Y-68440000D02*
X94992000Y-70567000D01*
X95032000Y-64241000D02*
X95032000Y-66360000D01*
X95032000Y-68440000D02*
X95032000Y-70559000D01*
X95073000Y-64250000D02*
X95073000Y-66360000D01*
X95073000Y-68440000D02*
X95073000Y-70550000D01*
X95113000Y-64259000D02*
X95113000Y-66360000D01*
X95113000Y-68440000D02*
X95113000Y-70541000D01*
X95153000Y-64269000D02*
X95153000Y-66360000D01*
X95153000Y-68440000D02*
X95153000Y-70531000D01*
X95193000Y-64279000D02*
X95193000Y-66360000D01*
X95193000Y-68440000D02*
X95193000Y-70521000D01*
X95233000Y-64290000D02*
X95233000Y-66360000D01*
X95233000Y-68440000D02*
X95233000Y-70510000D01*
X95273000Y-64302000D02*
X95273000Y-66360000D01*
X95273000Y-68440000D02*
X95273000Y-70498000D01*
X95313000Y-64314000D02*
X95313000Y-66360000D01*
X95313000Y-68440000D02*
X95313000Y-70486000D01*
X95353000Y-64326000D02*
X95353000Y-66360000D01*
X95353000Y-68440000D02*
X95353000Y-70474000D01*
X95393000Y-64339000D02*
X95393000Y-66360000D01*
X95393000Y-68440000D02*
X95393000Y-70461000D01*
X95433000Y-64353000D02*
X95433000Y-66360000D01*
X95433000Y-68440000D02*
X95433000Y-70447000D01*
X95473000Y-64367000D02*
X95473000Y-66360000D01*
X95473000Y-68440000D02*
X95473000Y-70433000D01*
X95513000Y-64382000D02*
X95513000Y-66360000D01*
X95513000Y-68440000D02*
X95513000Y-70418000D01*
X95553000Y-64398000D02*
X95553000Y-66360000D01*
X95553000Y-68440000D02*
X95553000Y-70402000D01*
X95593000Y-64414000D02*
X95593000Y-66360000D01*
X95593000Y-68440000D02*
X95593000Y-70386000D01*
X95633000Y-64430000D02*
X95633000Y-66360000D01*
X95633000Y-68440000D02*
X95633000Y-70370000D01*
X95673000Y-64448000D02*
X95673000Y-66360000D01*
X95673000Y-68440000D02*
X95673000Y-70352000D01*
X95713000Y-64466000D02*
X95713000Y-66360000D01*
X95713000Y-68440000D02*
X95713000Y-70334000D01*
X95753000Y-64484000D02*
X95753000Y-66360000D01*
X95753000Y-68440000D02*
X95753000Y-70316000D01*
X95793000Y-64504000D02*
X95793000Y-66360000D01*
X95793000Y-68440000D02*
X95793000Y-70296000D01*
X95833000Y-64524000D02*
X95833000Y-66360000D01*
X95833000Y-68440000D02*
X95833000Y-70276000D01*
X95873000Y-64544000D02*
X95873000Y-66360000D01*
X95873000Y-68440000D02*
X95873000Y-70256000D01*
X95913000Y-64566000D02*
X95913000Y-66360000D01*
X95913000Y-68440000D02*
X95913000Y-70234000D01*
X95953000Y-64588000D02*
X95953000Y-66360000D01*
X95953000Y-68440000D02*
X95953000Y-70212000D01*
X95993000Y-64610000D02*
X95993000Y-66360000D01*
X95993000Y-68440000D02*
X95993000Y-70190000D01*
X96033000Y-64634000D02*
X96033000Y-66360000D01*
X96033000Y-68440000D02*
X96033000Y-70166000D01*
X96073000Y-64658000D02*
X96073000Y-66360000D01*
X96073000Y-68440000D02*
X96073000Y-70142000D01*
X96113000Y-64684000D02*
X96113000Y-66360000D01*
X96113000Y-68440000D02*
X96113000Y-70116000D01*
X96153000Y-64710000D02*
X96153000Y-66360000D01*
X96153000Y-68440000D02*
X96153000Y-70090000D01*
X96193000Y-64736000D02*
X96193000Y-66360000D01*
X96193000Y-68440000D02*
X96193000Y-70064000D01*
X96233000Y-64764000D02*
X96233000Y-66360000D01*
X96233000Y-68440000D02*
X96233000Y-70036000D01*
X96273000Y-64793000D02*
X96273000Y-66360000D01*
X96273000Y-68440000D02*
X96273000Y-70007000D01*
X96313000Y-64822000D02*
X96313000Y-66360000D01*
X96313000Y-68440000D02*
X96313000Y-69978000D01*
X96353000Y-64852000D02*
X96353000Y-66360000D01*
X96353000Y-68440000D02*
X96353000Y-69948000D01*
X96393000Y-64884000D02*
X96393000Y-66360000D01*
X96393000Y-68440000D02*
X96393000Y-69916000D01*
X96433000Y-64916000D02*
X96433000Y-66360000D01*
X96433000Y-68440000D02*
X96433000Y-69884000D01*
X96473000Y-64950000D02*
X96473000Y-66360000D01*
X96473000Y-68440000D02*
X96473000Y-69850000D01*
X96513000Y-64984000D02*
X96513000Y-66360000D01*
X96513000Y-68440000D02*
X96513000Y-69816000D01*
X96553000Y-65020000D02*
X96553000Y-66360000D01*
X96553000Y-68440000D02*
X96553000Y-69780000D01*
X96593000Y-65057000D02*
X96593000Y-66360000D01*
X96593000Y-68440000D02*
X96593000Y-69743000D01*
X96633000Y-65095000D02*
X96633000Y-66360000D01*
X96633000Y-68440000D02*
X96633000Y-69705000D01*
X96673000Y-65135000D02*
X96673000Y-69665000D01*
X96713000Y-65176000D02*
X96713000Y-69624000D01*
X96753000Y-65218000D02*
X96753000Y-69582000D01*
X96793000Y-65263000D02*
X96793000Y-69537000D01*
X96833000Y-65308000D02*
X96833000Y-69492000D01*
X96873000Y-65356000D02*
X96873000Y-69444000D01*
X96913000Y-65405000D02*
X96913000Y-69395000D01*
X96953000Y-65456000D02*
X96953000Y-69344000D01*
X96993000Y-65510000D02*
X96993000Y-69290000D01*
X97033000Y-65566000D02*
X97033000Y-69234000D01*
X97073000Y-65624000D02*
X97073000Y-69176000D01*
X97113000Y-65686000D02*
X97113000Y-69114000D01*
X97153000Y-65750000D02*
X97153000Y-69050000D01*
X97193000Y-65819000D02*
X97193000Y-68981000D01*
X97233000Y-65891000D02*
X97233000Y-68909000D01*
X97273000Y-65968000D02*
X97273000Y-68832000D01*
X97313000Y-66050000D02*
X97313000Y-68750000D01*
X97353000Y-66138000D02*
X97353000Y-68662000D01*
X97393000Y-66235000D02*
X97393000Y-68565000D01*
X97433000Y-66341000D02*
X97433000Y-68459000D01*
X97473000Y-66460000D02*
X97473000Y-68340000D01*
X97513000Y-66598000D02*
X97513000Y-68202000D01*
X97553000Y-66767000D02*
X97553000Y-68033000D01*
X97593000Y-66998000D02*
X97593000Y-67802000D01*
X97622000Y-67400000D02*
G75*
G02*
X91082000Y-67400000I-3270000J0D01*
G01*
X91082000Y-67400000D02*
G75*
G02*
X97622000Y-67400000I3270000J0D01*
G01*
%TO.C,C8*%
X112979000Y-51088748D02*
X112979000Y-51611252D01*
X114449000Y-51088748D02*
X114449000Y-51611252D01*
%TO.C,R1*%
X57665000Y-38422936D02*
X57665000Y-38877064D01*
X59135000Y-38422936D02*
X59135000Y-38877064D01*
%TO.C,R6*%
X136665000Y-33114564D02*
X136665000Y-32660436D01*
X138135000Y-33114564D02*
X138135000Y-32660436D01*
D13*
%TO.C,S1*%
X54300000Y-57038000D02*
X54300000Y-58562000D01*
X54300000Y-57038000D02*
X54554000Y-57038000D01*
X54554000Y-57038000D02*
X54554000Y-56784000D01*
X54554000Y-58562000D02*
X54300000Y-58562000D01*
X54554000Y-58562000D02*
X54554000Y-58816000D01*
X55443000Y-60848000D02*
X56332000Y-60848000D01*
X56332000Y-54752000D02*
X55443000Y-54752000D01*
D14*
X56332000Y-54752000D02*
X56332000Y-55006000D01*
X56332000Y-60594000D02*
X56332000Y-60848000D01*
D13*
X56332000Y-60848000D02*
X58745000Y-60848000D01*
D14*
X58745000Y-60594000D02*
X56332000Y-60594000D01*
X58745000Y-60594000D02*
X58745000Y-60848000D01*
D13*
X58745000Y-60848000D02*
X59761000Y-60848000D01*
X58872000Y-54752000D02*
X56332000Y-54752000D01*
D14*
X58872000Y-55006000D02*
X56332000Y-55006000D01*
X58872000Y-55006000D02*
X58872000Y-54752000D01*
D13*
X59761000Y-54752000D02*
X58872000Y-54752000D01*
X60650000Y-57038000D02*
X60650000Y-56784000D01*
X60650000Y-57038000D02*
X60904000Y-57038000D01*
X60650000Y-58562000D02*
X60650000Y-58816000D01*
X60904000Y-58562000D02*
X60650000Y-58562000D01*
X60904000Y-58562000D02*
X60904000Y-57038000D01*
X57856000Y-57800000D02*
G75*
G02*
X57348000Y-57800000I-254000J0D01*
G01*
X57348000Y-57800000D02*
G75*
G02*
X57856000Y-57800000I254000J0D01*
G01*
X59380000Y-57800000D02*
G75*
G02*
X55824000Y-57800000I-1778000J0D01*
G01*
X55824000Y-57800000D02*
G75*
G02*
X59380000Y-57800000I1778000J0D01*
G01*
D12*
%TO.C,C2*%
X80751759Y-65561000D02*
X81381759Y-65561000D01*
X81066759Y-65246000D02*
X81066759Y-65876000D01*
X84252000Y-64170000D02*
X84252000Y-70630000D01*
X84292000Y-64170000D02*
X84292000Y-70630000D01*
X84332000Y-64170000D02*
X84332000Y-70630000D01*
X84372000Y-64172000D02*
X84372000Y-70628000D01*
X84412000Y-64173000D02*
X84412000Y-70627000D01*
X84452000Y-64176000D02*
X84452000Y-70624000D01*
X84492000Y-64178000D02*
X84492000Y-66360000D01*
X84492000Y-68440000D02*
X84492000Y-70622000D01*
X84532000Y-64182000D02*
X84532000Y-66360000D01*
X84532000Y-68440000D02*
X84532000Y-70618000D01*
X84572000Y-64185000D02*
X84572000Y-66360000D01*
X84572000Y-68440000D02*
X84572000Y-70615000D01*
X84612000Y-64189000D02*
X84612000Y-66360000D01*
X84612000Y-68440000D02*
X84612000Y-70611000D01*
X84652000Y-64194000D02*
X84652000Y-66360000D01*
X84652000Y-68440000D02*
X84652000Y-70606000D01*
X84692000Y-64199000D02*
X84692000Y-66360000D01*
X84692000Y-68440000D02*
X84692000Y-70601000D01*
X84732000Y-64205000D02*
X84732000Y-66360000D01*
X84732000Y-68440000D02*
X84732000Y-70595000D01*
X84772000Y-64211000D02*
X84772000Y-66360000D01*
X84772000Y-68440000D02*
X84772000Y-70589000D01*
X84812000Y-64218000D02*
X84812000Y-66360000D01*
X84812000Y-68440000D02*
X84812000Y-70582000D01*
X84852000Y-64225000D02*
X84852000Y-66360000D01*
X84852000Y-68440000D02*
X84852000Y-70575000D01*
X84892000Y-64233000D02*
X84892000Y-66360000D01*
X84892000Y-68440000D02*
X84892000Y-70567000D01*
X84932000Y-64241000D02*
X84932000Y-66360000D01*
X84932000Y-68440000D02*
X84932000Y-70559000D01*
X84973000Y-64250000D02*
X84973000Y-66360000D01*
X84973000Y-68440000D02*
X84973000Y-70550000D01*
X85013000Y-64259000D02*
X85013000Y-66360000D01*
X85013000Y-68440000D02*
X85013000Y-70541000D01*
X85053000Y-64269000D02*
X85053000Y-66360000D01*
X85053000Y-68440000D02*
X85053000Y-70531000D01*
X85093000Y-64279000D02*
X85093000Y-66360000D01*
X85093000Y-68440000D02*
X85093000Y-70521000D01*
X85133000Y-64290000D02*
X85133000Y-66360000D01*
X85133000Y-68440000D02*
X85133000Y-70510000D01*
X85173000Y-64302000D02*
X85173000Y-66360000D01*
X85173000Y-68440000D02*
X85173000Y-70498000D01*
X85213000Y-64314000D02*
X85213000Y-66360000D01*
X85213000Y-68440000D02*
X85213000Y-70486000D01*
X85253000Y-64326000D02*
X85253000Y-66360000D01*
X85253000Y-68440000D02*
X85253000Y-70474000D01*
X85293000Y-64339000D02*
X85293000Y-66360000D01*
X85293000Y-68440000D02*
X85293000Y-70461000D01*
X85333000Y-64353000D02*
X85333000Y-66360000D01*
X85333000Y-68440000D02*
X85333000Y-70447000D01*
X85373000Y-64367000D02*
X85373000Y-66360000D01*
X85373000Y-68440000D02*
X85373000Y-70433000D01*
X85413000Y-64382000D02*
X85413000Y-66360000D01*
X85413000Y-68440000D02*
X85413000Y-70418000D01*
X85453000Y-64398000D02*
X85453000Y-66360000D01*
X85453000Y-68440000D02*
X85453000Y-70402000D01*
X85493000Y-64414000D02*
X85493000Y-66360000D01*
X85493000Y-68440000D02*
X85493000Y-70386000D01*
X85533000Y-64430000D02*
X85533000Y-66360000D01*
X85533000Y-68440000D02*
X85533000Y-70370000D01*
X85573000Y-64448000D02*
X85573000Y-66360000D01*
X85573000Y-68440000D02*
X85573000Y-70352000D01*
X85613000Y-64466000D02*
X85613000Y-66360000D01*
X85613000Y-68440000D02*
X85613000Y-70334000D01*
X85653000Y-64484000D02*
X85653000Y-66360000D01*
X85653000Y-68440000D02*
X85653000Y-70316000D01*
X85693000Y-64504000D02*
X85693000Y-66360000D01*
X85693000Y-68440000D02*
X85693000Y-70296000D01*
X85733000Y-64524000D02*
X85733000Y-66360000D01*
X85733000Y-68440000D02*
X85733000Y-70276000D01*
X85773000Y-64544000D02*
X85773000Y-66360000D01*
X85773000Y-68440000D02*
X85773000Y-70256000D01*
X85813000Y-64566000D02*
X85813000Y-66360000D01*
X85813000Y-68440000D02*
X85813000Y-70234000D01*
X85853000Y-64588000D02*
X85853000Y-66360000D01*
X85853000Y-68440000D02*
X85853000Y-70212000D01*
X85893000Y-64610000D02*
X85893000Y-66360000D01*
X85893000Y-68440000D02*
X85893000Y-70190000D01*
X85933000Y-64634000D02*
X85933000Y-66360000D01*
X85933000Y-68440000D02*
X85933000Y-70166000D01*
X85973000Y-64658000D02*
X85973000Y-66360000D01*
X85973000Y-68440000D02*
X85973000Y-70142000D01*
X86013000Y-64684000D02*
X86013000Y-66360000D01*
X86013000Y-68440000D02*
X86013000Y-70116000D01*
X86053000Y-64710000D02*
X86053000Y-66360000D01*
X86053000Y-68440000D02*
X86053000Y-70090000D01*
X86093000Y-64736000D02*
X86093000Y-66360000D01*
X86093000Y-68440000D02*
X86093000Y-70064000D01*
X86133000Y-64764000D02*
X86133000Y-66360000D01*
X86133000Y-68440000D02*
X86133000Y-70036000D01*
X86173000Y-64793000D02*
X86173000Y-66360000D01*
X86173000Y-68440000D02*
X86173000Y-70007000D01*
X86213000Y-64822000D02*
X86213000Y-66360000D01*
X86213000Y-68440000D02*
X86213000Y-69978000D01*
X86253000Y-64852000D02*
X86253000Y-66360000D01*
X86253000Y-68440000D02*
X86253000Y-69948000D01*
X86293000Y-64884000D02*
X86293000Y-66360000D01*
X86293000Y-68440000D02*
X86293000Y-69916000D01*
X86333000Y-64916000D02*
X86333000Y-66360000D01*
X86333000Y-68440000D02*
X86333000Y-69884000D01*
X86373000Y-64950000D02*
X86373000Y-66360000D01*
X86373000Y-68440000D02*
X86373000Y-69850000D01*
X86413000Y-64984000D02*
X86413000Y-66360000D01*
X86413000Y-68440000D02*
X86413000Y-69816000D01*
X86453000Y-65020000D02*
X86453000Y-66360000D01*
X86453000Y-68440000D02*
X86453000Y-69780000D01*
X86493000Y-65057000D02*
X86493000Y-66360000D01*
X86493000Y-68440000D02*
X86493000Y-69743000D01*
X86533000Y-65095000D02*
X86533000Y-66360000D01*
X86533000Y-68440000D02*
X86533000Y-69705000D01*
X86573000Y-65135000D02*
X86573000Y-69665000D01*
X86613000Y-65176000D02*
X86613000Y-69624000D01*
X86653000Y-65218000D02*
X86653000Y-69582000D01*
X86693000Y-65263000D02*
X86693000Y-69537000D01*
X86733000Y-65308000D02*
X86733000Y-69492000D01*
X86773000Y-65356000D02*
X86773000Y-69444000D01*
X86813000Y-65405000D02*
X86813000Y-69395000D01*
X86853000Y-65456000D02*
X86853000Y-69344000D01*
X86893000Y-65510000D02*
X86893000Y-69290000D01*
X86933000Y-65566000D02*
X86933000Y-69234000D01*
X86973000Y-65624000D02*
X86973000Y-69176000D01*
X87013000Y-65686000D02*
X87013000Y-69114000D01*
X87053000Y-65750000D02*
X87053000Y-69050000D01*
X87093000Y-65819000D02*
X87093000Y-68981000D01*
X87133000Y-65891000D02*
X87133000Y-68909000D01*
X87173000Y-65968000D02*
X87173000Y-68832000D01*
X87213000Y-66050000D02*
X87213000Y-68750000D01*
X87253000Y-66138000D02*
X87253000Y-68662000D01*
X87293000Y-66235000D02*
X87293000Y-68565000D01*
X87333000Y-66341000D02*
X87333000Y-68459000D01*
X87373000Y-66460000D02*
X87373000Y-68340000D01*
X87413000Y-66598000D02*
X87413000Y-68202000D01*
X87453000Y-66767000D02*
X87453000Y-68033000D01*
X87493000Y-66998000D02*
X87493000Y-67802000D01*
X87522000Y-67400000D02*
G75*
G02*
X80982000Y-67400000I-3270000J0D01*
G01*
X80982000Y-67400000D02*
G75*
G02*
X87522000Y-67400000I3270000J0D01*
G01*
%TO.C,J1*%
X77612000Y-75930000D02*
X78942000Y-75930000D01*
X77612000Y-77260000D02*
X77612000Y-75930000D01*
X80212000Y-75930000D02*
X98052000Y-75930000D01*
X80212000Y-78590000D02*
X80212000Y-75930000D01*
X80212000Y-78590000D02*
X98052000Y-78590000D01*
X98052000Y-78590000D02*
X98052000Y-75930000D01*
%TO.C,U2*%
X86719799Y-61315840D02*
X86719799Y-61643500D01*
X87380199Y-61315840D02*
X87380199Y-61643500D01*
X91319799Y-61315840D02*
X91319799Y-61643500D01*
X91980199Y-61315840D02*
X91980199Y-61643500D01*
%TO.C,R3*%
X55122936Y-51815000D02*
X55577064Y-51815000D01*
X55122936Y-53285000D02*
X55577064Y-53285000D01*
D15*
%TO.C,P2*%
X51000000Y-67900000D02*
X51000000Y-76900000D01*
X51000000Y-67900000D02*
X61700000Y-67900000D01*
X51000000Y-76900000D02*
X56300000Y-76900000D01*
X61700000Y-67900000D02*
X61700000Y-70000000D01*
X61700000Y-76900000D02*
X61000000Y-76900000D01*
X61700000Y-76900000D02*
X61700000Y-74800000D01*
D12*
%TO.C,R5*%
X71603000Y-33027064D02*
X71603000Y-32572936D01*
X73073000Y-33027064D02*
X73073000Y-32572936D01*
%TO.C,C6*%
X101151759Y-65561000D02*
X101781759Y-65561000D01*
X101466759Y-65246000D02*
X101466759Y-65876000D01*
X104652000Y-64170000D02*
X104652000Y-70630000D01*
X104692000Y-64170000D02*
X104692000Y-70630000D01*
X104732000Y-64170000D02*
X104732000Y-70630000D01*
X104772000Y-64172000D02*
X104772000Y-70628000D01*
X104812000Y-64173000D02*
X104812000Y-70627000D01*
X104852000Y-64176000D02*
X104852000Y-70624000D01*
X104892000Y-64178000D02*
X104892000Y-66360000D01*
X104892000Y-68440000D02*
X104892000Y-70622000D01*
X104932000Y-64182000D02*
X104932000Y-66360000D01*
X104932000Y-68440000D02*
X104932000Y-70618000D01*
X104972000Y-64185000D02*
X104972000Y-66360000D01*
X104972000Y-68440000D02*
X104972000Y-70615000D01*
X105012000Y-64189000D02*
X105012000Y-66360000D01*
X105012000Y-68440000D02*
X105012000Y-70611000D01*
X105052000Y-64194000D02*
X105052000Y-66360000D01*
X105052000Y-68440000D02*
X105052000Y-70606000D01*
X105092000Y-64199000D02*
X105092000Y-66360000D01*
X105092000Y-68440000D02*
X105092000Y-70601000D01*
X105132000Y-64205000D02*
X105132000Y-66360000D01*
X105132000Y-68440000D02*
X105132000Y-70595000D01*
X105172000Y-64211000D02*
X105172000Y-66360000D01*
X105172000Y-68440000D02*
X105172000Y-70589000D01*
X105212000Y-64218000D02*
X105212000Y-66360000D01*
X105212000Y-68440000D02*
X105212000Y-70582000D01*
X105252000Y-64225000D02*
X105252000Y-66360000D01*
X105252000Y-68440000D02*
X105252000Y-70575000D01*
X105292000Y-64233000D02*
X105292000Y-66360000D01*
X105292000Y-68440000D02*
X105292000Y-70567000D01*
X105332000Y-64241000D02*
X105332000Y-66360000D01*
X105332000Y-68440000D02*
X105332000Y-70559000D01*
X105373000Y-64250000D02*
X105373000Y-66360000D01*
X105373000Y-68440000D02*
X105373000Y-70550000D01*
X105413000Y-64259000D02*
X105413000Y-66360000D01*
X105413000Y-68440000D02*
X105413000Y-70541000D01*
X105453000Y-64269000D02*
X105453000Y-66360000D01*
X105453000Y-68440000D02*
X105453000Y-70531000D01*
X105493000Y-64279000D02*
X105493000Y-66360000D01*
X105493000Y-68440000D02*
X105493000Y-70521000D01*
X105533000Y-64290000D02*
X105533000Y-66360000D01*
X105533000Y-68440000D02*
X105533000Y-70510000D01*
X105573000Y-64302000D02*
X105573000Y-66360000D01*
X105573000Y-68440000D02*
X105573000Y-70498000D01*
X105613000Y-64314000D02*
X105613000Y-66360000D01*
X105613000Y-68440000D02*
X105613000Y-70486000D01*
X105653000Y-64326000D02*
X105653000Y-66360000D01*
X105653000Y-68440000D02*
X105653000Y-70474000D01*
X105693000Y-64339000D02*
X105693000Y-66360000D01*
X105693000Y-68440000D02*
X105693000Y-70461000D01*
X105733000Y-64353000D02*
X105733000Y-66360000D01*
X105733000Y-68440000D02*
X105733000Y-70447000D01*
X105773000Y-64367000D02*
X105773000Y-66360000D01*
X105773000Y-68440000D02*
X105773000Y-70433000D01*
X105813000Y-64382000D02*
X105813000Y-66360000D01*
X105813000Y-68440000D02*
X105813000Y-70418000D01*
X105853000Y-64398000D02*
X105853000Y-66360000D01*
X105853000Y-68440000D02*
X105853000Y-70402000D01*
X105893000Y-64414000D02*
X105893000Y-66360000D01*
X105893000Y-68440000D02*
X105893000Y-70386000D01*
X105933000Y-64430000D02*
X105933000Y-66360000D01*
X105933000Y-68440000D02*
X105933000Y-70370000D01*
X105973000Y-64448000D02*
X105973000Y-66360000D01*
X105973000Y-68440000D02*
X105973000Y-70352000D01*
X106013000Y-64466000D02*
X106013000Y-66360000D01*
X106013000Y-68440000D02*
X106013000Y-70334000D01*
X106053000Y-64484000D02*
X106053000Y-66360000D01*
X106053000Y-68440000D02*
X106053000Y-70316000D01*
X106093000Y-64504000D02*
X106093000Y-66360000D01*
X106093000Y-68440000D02*
X106093000Y-70296000D01*
X106133000Y-64524000D02*
X106133000Y-66360000D01*
X106133000Y-68440000D02*
X106133000Y-70276000D01*
X106173000Y-64544000D02*
X106173000Y-66360000D01*
X106173000Y-68440000D02*
X106173000Y-70256000D01*
X106213000Y-64566000D02*
X106213000Y-66360000D01*
X106213000Y-68440000D02*
X106213000Y-70234000D01*
X106253000Y-64588000D02*
X106253000Y-66360000D01*
X106253000Y-68440000D02*
X106253000Y-70212000D01*
X106293000Y-64610000D02*
X106293000Y-66360000D01*
X106293000Y-68440000D02*
X106293000Y-70190000D01*
X106333000Y-64634000D02*
X106333000Y-66360000D01*
X106333000Y-68440000D02*
X106333000Y-70166000D01*
X106373000Y-64658000D02*
X106373000Y-66360000D01*
X106373000Y-68440000D02*
X106373000Y-70142000D01*
X106413000Y-64684000D02*
X106413000Y-66360000D01*
X106413000Y-68440000D02*
X106413000Y-70116000D01*
X106453000Y-64710000D02*
X106453000Y-66360000D01*
X106453000Y-68440000D02*
X106453000Y-70090000D01*
X106493000Y-64736000D02*
X106493000Y-66360000D01*
X106493000Y-68440000D02*
X106493000Y-70064000D01*
X106533000Y-64764000D02*
X106533000Y-66360000D01*
X106533000Y-68440000D02*
X106533000Y-70036000D01*
X106573000Y-64793000D02*
X106573000Y-66360000D01*
X106573000Y-68440000D02*
X106573000Y-70007000D01*
X106613000Y-64822000D02*
X106613000Y-66360000D01*
X106613000Y-68440000D02*
X106613000Y-69978000D01*
X106653000Y-64852000D02*
X106653000Y-66360000D01*
X106653000Y-68440000D02*
X106653000Y-69948000D01*
X106693000Y-64884000D02*
X106693000Y-66360000D01*
X106693000Y-68440000D02*
X106693000Y-69916000D01*
X106733000Y-64916000D02*
X106733000Y-66360000D01*
X106733000Y-68440000D02*
X106733000Y-69884000D01*
X106773000Y-64950000D02*
X106773000Y-66360000D01*
X106773000Y-68440000D02*
X106773000Y-69850000D01*
X106813000Y-64984000D02*
X106813000Y-66360000D01*
X106813000Y-68440000D02*
X106813000Y-69816000D01*
X106853000Y-65020000D02*
X106853000Y-66360000D01*
X106853000Y-68440000D02*
X106853000Y-69780000D01*
X106893000Y-65057000D02*
X106893000Y-66360000D01*
X106893000Y-68440000D02*
X106893000Y-69743000D01*
X106933000Y-65095000D02*
X106933000Y-66360000D01*
X106933000Y-68440000D02*
X106933000Y-69705000D01*
X106973000Y-65135000D02*
X106973000Y-69665000D01*
X107013000Y-65176000D02*
X107013000Y-69624000D01*
X107053000Y-65218000D02*
X107053000Y-69582000D01*
X107093000Y-65263000D02*
X107093000Y-69537000D01*
X107133000Y-65308000D02*
X107133000Y-69492000D01*
X107173000Y-65356000D02*
X107173000Y-69444000D01*
X107213000Y-65405000D02*
X107213000Y-69395000D01*
X107253000Y-65456000D02*
X107253000Y-69344000D01*
X107293000Y-65510000D02*
X107293000Y-69290000D01*
X107333000Y-65566000D02*
X107333000Y-69234000D01*
X107373000Y-65624000D02*
X107373000Y-69176000D01*
X107413000Y-65686000D02*
X107413000Y-69114000D01*
X107453000Y-65750000D02*
X107453000Y-69050000D01*
X107493000Y-65819000D02*
X107493000Y-68981000D01*
X107533000Y-65891000D02*
X107533000Y-68909000D01*
X107573000Y-65968000D02*
X107573000Y-68832000D01*
X107613000Y-66050000D02*
X107613000Y-68750000D01*
X107653000Y-66138000D02*
X107653000Y-68662000D01*
X107693000Y-66235000D02*
X107693000Y-68565000D01*
X107733000Y-66341000D02*
X107733000Y-68459000D01*
X107773000Y-66460000D02*
X107773000Y-68340000D01*
X107813000Y-66598000D02*
X107813000Y-68202000D01*
X107853000Y-66767000D02*
X107853000Y-68033000D01*
X107893000Y-66998000D02*
X107893000Y-67802000D01*
X107922000Y-67400000D02*
G75*
G02*
X101382000Y-67400000I-3270000J0D01*
G01*
X101382000Y-67400000D02*
G75*
G02*
X107922000Y-67400000I3270000J0D01*
G01*
%TO.C,R4*%
X69063000Y-33027064D02*
X69063000Y-32572936D01*
X70533000Y-33027064D02*
X70533000Y-32572936D01*
%TO.C,C3*%
X96590748Y-53315000D02*
X97113252Y-53315000D01*
X96590748Y-54785000D02*
X97113252Y-54785000D01*
%TO.C,C7*%
X113675252Y-55065000D02*
X113152748Y-55065000D01*
X113675252Y-56535000D02*
X113152748Y-56535000D01*
%TO.C,JP1*%
X65722000Y-60230000D02*
X65722000Y-65370000D01*
X65722000Y-60230000D02*
X68382000Y-60230000D01*
X65722000Y-65370000D02*
X68382000Y-65370000D01*
X67052000Y-57630000D02*
X68382000Y-57630000D01*
X68382000Y-57630000D02*
X68382000Y-58960000D01*
X68382000Y-60230000D02*
X68382000Y-65370000D01*
%TO.C,U1*%
X117452500Y-43490000D02*
X117452500Y-44065000D01*
X117452500Y-53710000D02*
X117452500Y-53135000D01*
X118027500Y-43490000D02*
X117452500Y-43490000D01*
X118027500Y-53710000D02*
X117452500Y-53710000D01*
X127097500Y-43490000D02*
X127672500Y-43490000D01*
X127097500Y-53710000D02*
X127672500Y-53710000D01*
X127672500Y-43490000D02*
X127672500Y-44065000D01*
X127672500Y-53710000D02*
X127672500Y-53135000D01*
X116862500Y-44065000D02*
X116522500Y-43595000D01*
X117202500Y-43595000D01*
X116862500Y-44065000D01*
G36*
X116862500Y-44065000D02*
G01*
X116522500Y-43595000D01*
X117202500Y-43595000D01*
X116862500Y-44065000D01*
G37*
%TO.C,R2*%
X57715000Y-42222936D02*
X57715000Y-42677064D01*
X59185000Y-42222936D02*
X59185000Y-42677064D01*
%TO.C,R7*%
X126515000Y-33277064D02*
X126515000Y-32822936D01*
X127985000Y-33277064D02*
X127985000Y-32822936D01*
%TO.C,P3*%
X53670000Y-33170000D02*
X55000000Y-33170000D01*
X53670000Y-34500000D02*
X53670000Y-33170000D01*
X53670000Y-35770000D02*
X53670000Y-45990000D01*
X53670000Y-35770000D02*
X56330000Y-35770000D01*
X53670000Y-45990000D02*
X56330000Y-45990000D01*
X56330000Y-35770000D02*
X56330000Y-45990000D01*
%TO.C,C1*%
X82267000Y-61173752D02*
X82267000Y-60651248D01*
X83737000Y-61173752D02*
X83737000Y-60651248D01*
%TO.C,J5*%
X124690000Y-76170000D02*
X126020000Y-76170000D01*
X124690000Y-77500000D02*
X124690000Y-76170000D01*
X127290000Y-76170000D02*
X140050000Y-76170000D01*
X127290000Y-78830000D02*
X127290000Y-76170000D01*
X127290000Y-78830000D02*
X140050000Y-78830000D01*
X140050000Y-78830000D02*
X140050000Y-76170000D01*
%TO.C,C5*%
X105690748Y-61315000D02*
X106213252Y-61315000D01*
X105690748Y-62785000D02*
X106213252Y-62785000D01*
D16*
%TO.C,U3*%
X94927000Y-56325000D02*
X96677000Y-56325000D01*
X97202000Y-56200000D02*
X100702000Y-56200000D01*
X97202000Y-62700000D02*
X97202000Y-56200000D01*
X100702000Y-56200000D02*
X100702000Y-62700000D01*
X100702000Y-62700000D02*
X97202000Y-62700000D01*
%TD*%
M02*
