%TF.GenerationSoftware,KiCad,Pcbnew,8.0.6*%
%TF.CreationDate,2025-01-18T20:41:52-05:00*%
%TF.ProjectId,RL78_G13_Arduino,524c3738-5f47-4313-935f-41726475696e,rev?*%
%TF.SameCoordinates,Original*%
%TF.FileFunction,Drillmap*%
%TF.FilePolarity,Positive*%
%FSLAX45Y45*%
G04 Gerber Fmt 4.5, Leading zero omitted, Abs format (unit mm)*
G04 Created by KiCad (PCBNEW 8.0.6) date 2025-01-18 20:41:52*
%MOMM*%
%LPD*%
G01*
G04 APERTURE LIST*
%ADD10C,0.150000*%
%ADD11C,0.200000*%
%ADD12C,0.320000*%
G04 APERTURE END LIST*
D10*
X5000000Y-8200000D02*
X5000000Y-2500000D01*
X15000000Y-8200000D02*
X5000000Y-8200000D01*
X5000000Y-2500000D02*
X15000000Y-2500000D01*
X15000000Y-2500000D02*
X15000000Y-8200000D01*
D11*
D12*
X6337200Y-7566000D02*
X6657200Y-7886000D01*
X6657200Y-7566000D02*
X6337200Y-7886000D01*
X6464200Y-2740000D02*
X6784200Y-3060000D01*
X6784200Y-2740000D02*
X6464200Y-3060000D01*
X13957200Y-2740000D02*
X14277200Y-3060000D01*
X14277200Y-2740000D02*
X13957200Y-3060000D01*
X14592200Y-7566000D02*
X14912200Y-7886000D01*
X14912200Y-7566000D02*
X14592200Y-7886000D01*
D11*
X5253277Y-8518984D02*
X5253277Y-8318984D01*
X5253277Y-8318984D02*
X5300896Y-8318984D01*
X5300896Y-8318984D02*
X5329467Y-8328508D01*
X5329467Y-8328508D02*
X5348515Y-8347555D01*
X5348515Y-8347555D02*
X5358039Y-8366603D01*
X5358039Y-8366603D02*
X5367563Y-8404698D01*
X5367563Y-8404698D02*
X5367563Y-8433270D01*
X5367563Y-8433270D02*
X5358039Y-8471365D01*
X5358039Y-8471365D02*
X5348515Y-8490412D01*
X5348515Y-8490412D02*
X5329467Y-8509460D01*
X5329467Y-8509460D02*
X5300896Y-8518984D01*
X5300896Y-8518984D02*
X5253277Y-8518984D01*
X5453277Y-8518984D02*
X5453277Y-8385650D01*
X5453277Y-8423746D02*
X5462801Y-8404698D01*
X5462801Y-8404698D02*
X5472324Y-8395174D01*
X5472324Y-8395174D02*
X5491372Y-8385650D01*
X5491372Y-8385650D02*
X5510420Y-8385650D01*
X5577086Y-8518984D02*
X5577086Y-8385650D01*
X5577086Y-8318984D02*
X5567563Y-8328508D01*
X5567563Y-8328508D02*
X5577086Y-8338031D01*
X5577086Y-8338031D02*
X5586610Y-8328508D01*
X5586610Y-8328508D02*
X5577086Y-8318984D01*
X5577086Y-8318984D02*
X5577086Y-8338031D01*
X5700896Y-8518984D02*
X5681848Y-8509460D01*
X5681848Y-8509460D02*
X5672324Y-8490412D01*
X5672324Y-8490412D02*
X5672324Y-8318984D01*
X5805658Y-8518984D02*
X5786610Y-8509460D01*
X5786610Y-8509460D02*
X5777086Y-8490412D01*
X5777086Y-8490412D02*
X5777086Y-8318984D01*
X6034229Y-8518984D02*
X6034229Y-8318984D01*
X6034229Y-8318984D02*
X6100896Y-8461841D01*
X6100896Y-8461841D02*
X6167562Y-8318984D01*
X6167562Y-8318984D02*
X6167562Y-8518984D01*
X6348515Y-8518984D02*
X6348515Y-8414222D01*
X6348515Y-8414222D02*
X6338991Y-8395174D01*
X6338991Y-8395174D02*
X6319943Y-8385650D01*
X6319943Y-8385650D02*
X6281848Y-8385650D01*
X6281848Y-8385650D02*
X6262801Y-8395174D01*
X6348515Y-8509460D02*
X6329467Y-8518984D01*
X6329467Y-8518984D02*
X6281848Y-8518984D01*
X6281848Y-8518984D02*
X6262801Y-8509460D01*
X6262801Y-8509460D02*
X6253277Y-8490412D01*
X6253277Y-8490412D02*
X6253277Y-8471365D01*
X6253277Y-8471365D02*
X6262801Y-8452317D01*
X6262801Y-8452317D02*
X6281848Y-8442793D01*
X6281848Y-8442793D02*
X6329467Y-8442793D01*
X6329467Y-8442793D02*
X6348515Y-8433270D01*
X6443753Y-8385650D02*
X6443753Y-8585650D01*
X6443753Y-8395174D02*
X6462801Y-8385650D01*
X6462801Y-8385650D02*
X6500896Y-8385650D01*
X6500896Y-8385650D02*
X6519943Y-8395174D01*
X6519943Y-8395174D02*
X6529467Y-8404698D01*
X6529467Y-8404698D02*
X6538991Y-8423746D01*
X6538991Y-8423746D02*
X6538991Y-8480889D01*
X6538991Y-8480889D02*
X6529467Y-8499936D01*
X6529467Y-8499936D02*
X6519943Y-8509460D01*
X6519943Y-8509460D02*
X6500896Y-8518984D01*
X6500896Y-8518984D02*
X6462801Y-8518984D01*
X6462801Y-8518984D02*
X6443753Y-8509460D01*
X6624705Y-8499936D02*
X6634229Y-8509460D01*
X6634229Y-8509460D02*
X6624705Y-8518984D01*
X6624705Y-8518984D02*
X6615182Y-8509460D01*
X6615182Y-8509460D02*
X6624705Y-8499936D01*
X6624705Y-8499936D02*
X6624705Y-8518984D01*
X6624705Y-8395174D02*
X6634229Y-8404698D01*
X6634229Y-8404698D02*
X6624705Y-8414222D01*
X6624705Y-8414222D02*
X6615182Y-8404698D01*
X6615182Y-8404698D02*
X6624705Y-8395174D01*
X6624705Y-8395174D02*
X6624705Y-8414222D01*
X4792500Y-8747500D02*
X4992500Y-8947500D01*
X4992500Y-8747500D02*
X4792500Y-8947500D01*
X5234229Y-8738984D02*
X5358039Y-8738984D01*
X5358039Y-8738984D02*
X5291372Y-8815174D01*
X5291372Y-8815174D02*
X5319944Y-8815174D01*
X5319944Y-8815174D02*
X5338991Y-8824698D01*
X5338991Y-8824698D02*
X5348515Y-8834222D01*
X5348515Y-8834222D02*
X5358039Y-8853270D01*
X5358039Y-8853270D02*
X5358039Y-8900889D01*
X5358039Y-8900889D02*
X5348515Y-8919936D01*
X5348515Y-8919936D02*
X5338991Y-8929460D01*
X5338991Y-8929460D02*
X5319944Y-8938984D01*
X5319944Y-8938984D02*
X5262801Y-8938984D01*
X5262801Y-8938984D02*
X5243753Y-8929460D01*
X5243753Y-8929460D02*
X5234229Y-8919936D01*
X5443753Y-8919936D02*
X5453277Y-8929460D01*
X5453277Y-8929460D02*
X5443753Y-8938984D01*
X5443753Y-8938984D02*
X5434229Y-8929460D01*
X5434229Y-8929460D02*
X5443753Y-8919936D01*
X5443753Y-8919936D02*
X5443753Y-8938984D01*
X5529467Y-8758031D02*
X5538991Y-8748508D01*
X5538991Y-8748508D02*
X5558039Y-8738984D01*
X5558039Y-8738984D02*
X5605658Y-8738984D01*
X5605658Y-8738984D02*
X5624705Y-8748508D01*
X5624705Y-8748508D02*
X5634229Y-8758031D01*
X5634229Y-8758031D02*
X5643753Y-8777079D01*
X5643753Y-8777079D02*
X5643753Y-8796127D01*
X5643753Y-8796127D02*
X5634229Y-8824698D01*
X5634229Y-8824698D02*
X5519944Y-8938984D01*
X5519944Y-8938984D02*
X5643753Y-8938984D01*
X5767562Y-8738984D02*
X5786610Y-8738984D01*
X5786610Y-8738984D02*
X5805658Y-8748508D01*
X5805658Y-8748508D02*
X5815182Y-8758031D01*
X5815182Y-8758031D02*
X5824705Y-8777079D01*
X5824705Y-8777079D02*
X5834229Y-8815174D01*
X5834229Y-8815174D02*
X5834229Y-8862793D01*
X5834229Y-8862793D02*
X5824705Y-8900889D01*
X5824705Y-8900889D02*
X5815182Y-8919936D01*
X5815182Y-8919936D02*
X5805658Y-8929460D01*
X5805658Y-8929460D02*
X5786610Y-8938984D01*
X5786610Y-8938984D02*
X5767562Y-8938984D01*
X5767562Y-8938984D02*
X5748515Y-8929460D01*
X5748515Y-8929460D02*
X5738991Y-8919936D01*
X5738991Y-8919936D02*
X5729467Y-8900889D01*
X5729467Y-8900889D02*
X5719943Y-8862793D01*
X5719943Y-8862793D02*
X5719943Y-8815174D01*
X5719943Y-8815174D02*
X5729467Y-8777079D01*
X5729467Y-8777079D02*
X5738991Y-8758031D01*
X5738991Y-8758031D02*
X5748515Y-8748508D01*
X5748515Y-8748508D02*
X5767562Y-8738984D01*
X5958039Y-8738984D02*
X5977086Y-8738984D01*
X5977086Y-8738984D02*
X5996134Y-8748508D01*
X5996134Y-8748508D02*
X6005658Y-8758031D01*
X6005658Y-8758031D02*
X6015182Y-8777079D01*
X6015182Y-8777079D02*
X6024705Y-8815174D01*
X6024705Y-8815174D02*
X6024705Y-8862793D01*
X6024705Y-8862793D02*
X6015182Y-8900889D01*
X6015182Y-8900889D02*
X6005658Y-8919936D01*
X6005658Y-8919936D02*
X5996134Y-8929460D01*
X5996134Y-8929460D02*
X5977086Y-8938984D01*
X5977086Y-8938984D02*
X5958039Y-8938984D01*
X5958039Y-8938984D02*
X5938991Y-8929460D01*
X5938991Y-8929460D02*
X5929467Y-8919936D01*
X5929467Y-8919936D02*
X5919943Y-8900889D01*
X5919943Y-8900889D02*
X5910420Y-8862793D01*
X5910420Y-8862793D02*
X5910420Y-8815174D01*
X5910420Y-8815174D02*
X5919943Y-8777079D01*
X5919943Y-8777079D02*
X5929467Y-8758031D01*
X5929467Y-8758031D02*
X5938991Y-8748508D01*
X5938991Y-8748508D02*
X5958039Y-8738984D01*
X6110420Y-8938984D02*
X6110420Y-8805650D01*
X6110420Y-8824698D02*
X6119943Y-8815174D01*
X6119943Y-8815174D02*
X6138991Y-8805650D01*
X6138991Y-8805650D02*
X6167563Y-8805650D01*
X6167563Y-8805650D02*
X6186610Y-8815174D01*
X6186610Y-8815174D02*
X6196134Y-8834222D01*
X6196134Y-8834222D02*
X6196134Y-8938984D01*
X6196134Y-8834222D02*
X6205658Y-8815174D01*
X6205658Y-8815174D02*
X6224705Y-8805650D01*
X6224705Y-8805650D02*
X6253277Y-8805650D01*
X6253277Y-8805650D02*
X6272324Y-8815174D01*
X6272324Y-8815174D02*
X6281848Y-8834222D01*
X6281848Y-8834222D02*
X6281848Y-8938984D01*
X6377086Y-8938984D02*
X6377086Y-8805650D01*
X6377086Y-8824698D02*
X6386610Y-8815174D01*
X6386610Y-8815174D02*
X6405658Y-8805650D01*
X6405658Y-8805650D02*
X6434229Y-8805650D01*
X6434229Y-8805650D02*
X6453277Y-8815174D01*
X6453277Y-8815174D02*
X6462801Y-8834222D01*
X6462801Y-8834222D02*
X6462801Y-8938984D01*
X6462801Y-8834222D02*
X6472324Y-8815174D01*
X6472324Y-8815174D02*
X6491372Y-8805650D01*
X6491372Y-8805650D02*
X6519943Y-8805650D01*
X6519943Y-8805650D02*
X6538991Y-8815174D01*
X6538991Y-8815174D02*
X6548515Y-8834222D01*
X6548515Y-8834222D02*
X6548515Y-8938984D01*
X6938991Y-8729460D02*
X6767563Y-8986603D01*
X7196134Y-8738984D02*
X7215182Y-8738984D01*
X7215182Y-8738984D02*
X7234229Y-8748508D01*
X7234229Y-8748508D02*
X7243753Y-8758031D01*
X7243753Y-8758031D02*
X7253277Y-8777079D01*
X7253277Y-8777079D02*
X7262801Y-8815174D01*
X7262801Y-8815174D02*
X7262801Y-8862793D01*
X7262801Y-8862793D02*
X7253277Y-8900889D01*
X7253277Y-8900889D02*
X7243753Y-8919936D01*
X7243753Y-8919936D02*
X7234229Y-8929460D01*
X7234229Y-8929460D02*
X7215182Y-8938984D01*
X7215182Y-8938984D02*
X7196134Y-8938984D01*
X7196134Y-8938984D02*
X7177086Y-8929460D01*
X7177086Y-8929460D02*
X7167563Y-8919936D01*
X7167563Y-8919936D02*
X7158039Y-8900889D01*
X7158039Y-8900889D02*
X7148515Y-8862793D01*
X7148515Y-8862793D02*
X7148515Y-8815174D01*
X7148515Y-8815174D02*
X7158039Y-8777079D01*
X7158039Y-8777079D02*
X7167563Y-8758031D01*
X7167563Y-8758031D02*
X7177086Y-8748508D01*
X7177086Y-8748508D02*
X7196134Y-8738984D01*
X7348515Y-8919936D02*
X7358039Y-8929460D01*
X7358039Y-8929460D02*
X7348515Y-8938984D01*
X7348515Y-8938984D02*
X7338991Y-8929460D01*
X7338991Y-8929460D02*
X7348515Y-8919936D01*
X7348515Y-8919936D02*
X7348515Y-8938984D01*
X7548515Y-8938984D02*
X7434229Y-8938984D01*
X7491372Y-8938984D02*
X7491372Y-8738984D01*
X7491372Y-8738984D02*
X7472325Y-8767555D01*
X7472325Y-8767555D02*
X7453277Y-8786603D01*
X7453277Y-8786603D02*
X7434229Y-8796127D01*
X7624706Y-8758031D02*
X7634229Y-8748508D01*
X7634229Y-8748508D02*
X7653277Y-8738984D01*
X7653277Y-8738984D02*
X7700896Y-8738984D01*
X7700896Y-8738984D02*
X7719944Y-8748508D01*
X7719944Y-8748508D02*
X7729467Y-8758031D01*
X7729467Y-8758031D02*
X7738991Y-8777079D01*
X7738991Y-8777079D02*
X7738991Y-8796127D01*
X7738991Y-8796127D02*
X7729467Y-8824698D01*
X7729467Y-8824698D02*
X7615182Y-8938984D01*
X7615182Y-8938984D02*
X7738991Y-8938984D01*
X7910420Y-8738984D02*
X7872325Y-8738984D01*
X7872325Y-8738984D02*
X7853277Y-8748508D01*
X7853277Y-8748508D02*
X7843753Y-8758031D01*
X7843753Y-8758031D02*
X7824706Y-8786603D01*
X7824706Y-8786603D02*
X7815182Y-8824698D01*
X7815182Y-8824698D02*
X7815182Y-8900889D01*
X7815182Y-8900889D02*
X7824706Y-8919936D01*
X7824706Y-8919936D02*
X7834229Y-8929460D01*
X7834229Y-8929460D02*
X7853277Y-8938984D01*
X7853277Y-8938984D02*
X7891372Y-8938984D01*
X7891372Y-8938984D02*
X7910420Y-8929460D01*
X7910420Y-8929460D02*
X7919944Y-8919936D01*
X7919944Y-8919936D02*
X7929467Y-8900889D01*
X7929467Y-8900889D02*
X7929467Y-8853270D01*
X7929467Y-8853270D02*
X7919944Y-8834222D01*
X7919944Y-8834222D02*
X7910420Y-8824698D01*
X7910420Y-8824698D02*
X7891372Y-8815174D01*
X7891372Y-8815174D02*
X7853277Y-8815174D01*
X7853277Y-8815174D02*
X7834229Y-8824698D01*
X7834229Y-8824698D02*
X7824706Y-8834222D01*
X7824706Y-8834222D02*
X7815182Y-8853270D01*
X8053277Y-8738984D02*
X8072325Y-8738984D01*
X8072325Y-8738984D02*
X8091372Y-8748508D01*
X8091372Y-8748508D02*
X8100896Y-8758031D01*
X8100896Y-8758031D02*
X8110420Y-8777079D01*
X8110420Y-8777079D02*
X8119944Y-8815174D01*
X8119944Y-8815174D02*
X8119944Y-8862793D01*
X8119944Y-8862793D02*
X8110420Y-8900889D01*
X8110420Y-8900889D02*
X8100896Y-8919936D01*
X8100896Y-8919936D02*
X8091372Y-8929460D01*
X8091372Y-8929460D02*
X8072325Y-8938984D01*
X8072325Y-8938984D02*
X8053277Y-8938984D01*
X8053277Y-8938984D02*
X8034229Y-8929460D01*
X8034229Y-8929460D02*
X8024706Y-8919936D01*
X8024706Y-8919936D02*
X8015182Y-8900889D01*
X8015182Y-8900889D02*
X8005658Y-8862793D01*
X8005658Y-8862793D02*
X8005658Y-8815174D01*
X8005658Y-8815174D02*
X8015182Y-8777079D01*
X8015182Y-8777079D02*
X8024706Y-8758031D01*
X8024706Y-8758031D02*
X8034229Y-8748508D01*
X8034229Y-8748508D02*
X8053277Y-8738984D01*
X8196134Y-8738984D02*
X8196134Y-8777079D01*
X8272325Y-8738984D02*
X8272325Y-8777079D01*
X8567563Y-9015174D02*
X8558039Y-9005650D01*
X8558039Y-9005650D02*
X8538991Y-8977079D01*
X8538991Y-8977079D02*
X8529468Y-8958031D01*
X8529468Y-8958031D02*
X8519944Y-8929460D01*
X8519944Y-8929460D02*
X8510420Y-8881841D01*
X8510420Y-8881841D02*
X8510420Y-8843746D01*
X8510420Y-8843746D02*
X8519944Y-8796127D01*
X8519944Y-8796127D02*
X8529468Y-8767555D01*
X8529468Y-8767555D02*
X8538991Y-8748508D01*
X8538991Y-8748508D02*
X8558039Y-8719936D01*
X8558039Y-8719936D02*
X8567563Y-8710412D01*
X8729468Y-8805650D02*
X8729468Y-8938984D01*
X8681849Y-8729460D02*
X8634230Y-8872317D01*
X8634230Y-8872317D02*
X8758039Y-8872317D01*
X8986611Y-8938984D02*
X8986611Y-8738984D01*
X9072325Y-8938984D02*
X9072325Y-8834222D01*
X9072325Y-8834222D02*
X9062801Y-8815174D01*
X9062801Y-8815174D02*
X9043753Y-8805650D01*
X9043753Y-8805650D02*
X9015182Y-8805650D01*
X9015182Y-8805650D02*
X8996134Y-8815174D01*
X8996134Y-8815174D02*
X8986611Y-8824698D01*
X9196134Y-8938984D02*
X9177087Y-8929460D01*
X9177087Y-8929460D02*
X9167563Y-8919936D01*
X9167563Y-8919936D02*
X9158039Y-8900889D01*
X9158039Y-8900889D02*
X9158039Y-8843746D01*
X9158039Y-8843746D02*
X9167563Y-8824698D01*
X9167563Y-8824698D02*
X9177087Y-8815174D01*
X9177087Y-8815174D02*
X9196134Y-8805650D01*
X9196134Y-8805650D02*
X9224706Y-8805650D01*
X9224706Y-8805650D02*
X9243753Y-8815174D01*
X9243753Y-8815174D02*
X9253277Y-8824698D01*
X9253277Y-8824698D02*
X9262801Y-8843746D01*
X9262801Y-8843746D02*
X9262801Y-8900889D01*
X9262801Y-8900889D02*
X9253277Y-8919936D01*
X9253277Y-8919936D02*
X9243753Y-8929460D01*
X9243753Y-8929460D02*
X9224706Y-8938984D01*
X9224706Y-8938984D02*
X9196134Y-8938984D01*
X9377087Y-8938984D02*
X9358039Y-8929460D01*
X9358039Y-8929460D02*
X9348515Y-8910412D01*
X9348515Y-8910412D02*
X9348515Y-8738984D01*
X9529468Y-8929460D02*
X9510420Y-8938984D01*
X9510420Y-8938984D02*
X9472325Y-8938984D01*
X9472325Y-8938984D02*
X9453277Y-8929460D01*
X9453277Y-8929460D02*
X9443753Y-8910412D01*
X9443753Y-8910412D02*
X9443753Y-8834222D01*
X9443753Y-8834222D02*
X9453277Y-8815174D01*
X9453277Y-8815174D02*
X9472325Y-8805650D01*
X9472325Y-8805650D02*
X9510420Y-8805650D01*
X9510420Y-8805650D02*
X9529468Y-8815174D01*
X9529468Y-8815174D02*
X9538992Y-8834222D01*
X9538992Y-8834222D02*
X9538992Y-8853270D01*
X9538992Y-8853270D02*
X9443753Y-8872317D01*
X9615182Y-8929460D02*
X9634230Y-8938984D01*
X9634230Y-8938984D02*
X9672325Y-8938984D01*
X9672325Y-8938984D02*
X9691373Y-8929460D01*
X9691373Y-8929460D02*
X9700896Y-8910412D01*
X9700896Y-8910412D02*
X9700896Y-8900889D01*
X9700896Y-8900889D02*
X9691373Y-8881841D01*
X9691373Y-8881841D02*
X9672325Y-8872317D01*
X9672325Y-8872317D02*
X9643753Y-8872317D01*
X9643753Y-8872317D02*
X9624706Y-8862793D01*
X9624706Y-8862793D02*
X9615182Y-8843746D01*
X9615182Y-8843746D02*
X9615182Y-8834222D01*
X9615182Y-8834222D02*
X9624706Y-8815174D01*
X9624706Y-8815174D02*
X9643753Y-8805650D01*
X9643753Y-8805650D02*
X9672325Y-8805650D01*
X9672325Y-8805650D02*
X9691373Y-8815174D01*
X9767563Y-9015174D02*
X9777087Y-9005650D01*
X9777087Y-9005650D02*
X9796134Y-8977079D01*
X9796134Y-8977079D02*
X9805658Y-8958031D01*
X9805658Y-8958031D02*
X9815182Y-8929460D01*
X9815182Y-8929460D02*
X9824706Y-8881841D01*
X9824706Y-8881841D02*
X9824706Y-8843746D01*
X9824706Y-8843746D02*
X9815182Y-8796127D01*
X9815182Y-8796127D02*
X9805658Y-8767555D01*
X9805658Y-8767555D02*
X9796134Y-8748508D01*
X9796134Y-8748508D02*
X9777087Y-8719936D01*
X9777087Y-8719936D02*
X9767563Y-8710412D01*
X10129468Y-9015174D02*
X10119944Y-9005650D01*
X10119944Y-9005650D02*
X10100896Y-8977079D01*
X10100896Y-8977079D02*
X10091373Y-8958031D01*
X10091373Y-8958031D02*
X10081849Y-8929460D01*
X10081849Y-8929460D02*
X10072325Y-8881841D01*
X10072325Y-8881841D02*
X10072325Y-8843746D01*
X10072325Y-8843746D02*
X10081849Y-8796127D01*
X10081849Y-8796127D02*
X10091373Y-8767555D01*
X10091373Y-8767555D02*
X10100896Y-8748508D01*
X10100896Y-8748508D02*
X10119944Y-8719936D01*
X10119944Y-8719936D02*
X10129468Y-8710412D01*
X10205658Y-8805650D02*
X10205658Y-8938984D01*
X10205658Y-8824698D02*
X10215182Y-8815174D01*
X10215182Y-8815174D02*
X10234230Y-8805650D01*
X10234230Y-8805650D02*
X10262801Y-8805650D01*
X10262801Y-8805650D02*
X10281849Y-8815174D01*
X10281849Y-8815174D02*
X10291373Y-8834222D01*
X10291373Y-8834222D02*
X10291373Y-8938984D01*
X10415182Y-8938984D02*
X10396134Y-8929460D01*
X10396134Y-8929460D02*
X10386611Y-8919936D01*
X10386611Y-8919936D02*
X10377087Y-8900889D01*
X10377087Y-8900889D02*
X10377087Y-8843746D01*
X10377087Y-8843746D02*
X10386611Y-8824698D01*
X10386611Y-8824698D02*
X10396134Y-8815174D01*
X10396134Y-8815174D02*
X10415182Y-8805650D01*
X10415182Y-8805650D02*
X10443754Y-8805650D01*
X10443754Y-8805650D02*
X10462801Y-8815174D01*
X10462801Y-8815174D02*
X10472325Y-8824698D01*
X10472325Y-8824698D02*
X10481849Y-8843746D01*
X10481849Y-8843746D02*
X10481849Y-8900889D01*
X10481849Y-8900889D02*
X10472325Y-8919936D01*
X10472325Y-8919936D02*
X10462801Y-8929460D01*
X10462801Y-8929460D02*
X10443754Y-8938984D01*
X10443754Y-8938984D02*
X10415182Y-8938984D01*
X10538992Y-8805650D02*
X10615182Y-8805650D01*
X10567563Y-8738984D02*
X10567563Y-8910412D01*
X10567563Y-8910412D02*
X10577087Y-8929460D01*
X10577087Y-8929460D02*
X10596134Y-8938984D01*
X10596134Y-8938984D02*
X10615182Y-8938984D01*
X10834230Y-8805650D02*
X10834230Y-9005650D01*
X10834230Y-8815174D02*
X10853277Y-8805650D01*
X10853277Y-8805650D02*
X10891373Y-8805650D01*
X10891373Y-8805650D02*
X10910420Y-8815174D01*
X10910420Y-8815174D02*
X10919944Y-8824698D01*
X10919944Y-8824698D02*
X10929468Y-8843746D01*
X10929468Y-8843746D02*
X10929468Y-8900889D01*
X10929468Y-8900889D02*
X10919944Y-8919936D01*
X10919944Y-8919936D02*
X10910420Y-8929460D01*
X10910420Y-8929460D02*
X10891373Y-8938984D01*
X10891373Y-8938984D02*
X10853277Y-8938984D01*
X10853277Y-8938984D02*
X10834230Y-8929460D01*
X11043754Y-8938984D02*
X11024706Y-8929460D01*
X11024706Y-8929460D02*
X11015182Y-8910412D01*
X11015182Y-8910412D02*
X11015182Y-8738984D01*
X11205658Y-8938984D02*
X11205658Y-8834222D01*
X11205658Y-8834222D02*
X11196134Y-8815174D01*
X11196134Y-8815174D02*
X11177087Y-8805650D01*
X11177087Y-8805650D02*
X11138992Y-8805650D01*
X11138992Y-8805650D02*
X11119944Y-8815174D01*
X11205658Y-8929460D02*
X11186611Y-8938984D01*
X11186611Y-8938984D02*
X11138992Y-8938984D01*
X11138992Y-8938984D02*
X11119944Y-8929460D01*
X11119944Y-8929460D02*
X11110420Y-8910412D01*
X11110420Y-8910412D02*
X11110420Y-8891365D01*
X11110420Y-8891365D02*
X11119944Y-8872317D01*
X11119944Y-8872317D02*
X11138992Y-8862793D01*
X11138992Y-8862793D02*
X11186611Y-8862793D01*
X11186611Y-8862793D02*
X11205658Y-8853270D01*
X11272325Y-8805650D02*
X11348515Y-8805650D01*
X11300896Y-8738984D02*
X11300896Y-8910412D01*
X11300896Y-8910412D02*
X11310420Y-8929460D01*
X11310420Y-8929460D02*
X11329468Y-8938984D01*
X11329468Y-8938984D02*
X11348515Y-8938984D01*
X11491373Y-8929460D02*
X11472325Y-8938984D01*
X11472325Y-8938984D02*
X11434230Y-8938984D01*
X11434230Y-8938984D02*
X11415182Y-8929460D01*
X11415182Y-8929460D02*
X11405658Y-8910412D01*
X11405658Y-8910412D02*
X11405658Y-8834222D01*
X11405658Y-8834222D02*
X11415182Y-8815174D01*
X11415182Y-8815174D02*
X11434230Y-8805650D01*
X11434230Y-8805650D02*
X11472325Y-8805650D01*
X11472325Y-8805650D02*
X11491373Y-8815174D01*
X11491373Y-8815174D02*
X11500896Y-8834222D01*
X11500896Y-8834222D02*
X11500896Y-8853270D01*
X11500896Y-8853270D02*
X11405658Y-8872317D01*
X11672325Y-8938984D02*
X11672325Y-8738984D01*
X11672325Y-8929460D02*
X11653277Y-8938984D01*
X11653277Y-8938984D02*
X11615182Y-8938984D01*
X11615182Y-8938984D02*
X11596134Y-8929460D01*
X11596134Y-8929460D02*
X11586611Y-8919936D01*
X11586611Y-8919936D02*
X11577087Y-8900889D01*
X11577087Y-8900889D02*
X11577087Y-8843746D01*
X11577087Y-8843746D02*
X11586611Y-8824698D01*
X11586611Y-8824698D02*
X11596134Y-8815174D01*
X11596134Y-8815174D02*
X11615182Y-8805650D01*
X11615182Y-8805650D02*
X11653277Y-8805650D01*
X11653277Y-8805650D02*
X11672325Y-8815174D01*
X11748515Y-9015174D02*
X11758039Y-9005650D01*
X11758039Y-9005650D02*
X11777087Y-8977079D01*
X11777087Y-8977079D02*
X11786611Y-8958031D01*
X11786611Y-8958031D02*
X11796134Y-8929460D01*
X11796134Y-8929460D02*
X11805658Y-8881841D01*
X11805658Y-8881841D02*
X11805658Y-8843746D01*
X11805658Y-8843746D02*
X11796134Y-8796127D01*
X11796134Y-8796127D02*
X11786611Y-8767555D01*
X11786611Y-8767555D02*
X11777087Y-8748508D01*
X11777087Y-8748508D02*
X11758039Y-8719936D01*
X11758039Y-8719936D02*
X11748515Y-8710412D01*
M02*
