<?xml version="1.0" standalone="no"?>
 <!DOCTYPE svg PUBLIC "-//W3C//DTD SVG 1.1//EN" 
 "http://www.w3.org/Graphics/SVG/1.1/DTD/svg11.dtd"> 
<svg
  xmlns:svg="http://www.w3.org/2000/svg"
  xmlns="http://www.w3.org/2000/svg"
  xmlns:xlink="http://www.w3.org/1999/xlink"
  version="1.1"
  width="86.9696mm" height="55.0164mm" viewBox="0.0000 0.0000 86.9696 55.0164">
<title>SVG Image created as Beagle-AI-64-CAN-Part1-F_Paste.svg date 2025/01/06 12:09:01 </title>
  <desc>Image generated by PCBNEW </desc>
<g style="fill:#000000; fill-opacity:1.0000;stroke:#000000; stroke-opacity:1.0000;
stroke-linecap:round; stroke-linejoin:round;"
 transform="translate(0 0) scale(1 1)">
<path style="fill:#000000; fill-opacity:1.0000; stroke:none;fill-rule:evenodd;"
d="M 36.2690,9.9500
36.3647,9.9690
36.4458,10.0232
36.5000,10.1043
36.5190,10.2000
36.5190,10.8750
36.5000,10.9707
36.4458,11.0518
36.3647,11.1060
36.2690,11.1250
35.3190,11.1250
35.2233,11.1060
35.1422,11.0518
35.0880,10.9707
35.0690,10.8750
35.0690,10.2000
35.0880,10.1043
35.1422,10.0232
35.2233,9.9690
35.3190,9.9500
Z" /> 
<path style="fill:#000000; fill-opacity:1.0000; stroke:none;fill-rule:evenodd;"
d="M 36.2690,12.0250
36.3647,12.0440
36.4458,12.0982
36.5000,12.1793
36.5190,12.2750
36.5190,12.9500
36.5000,13.0457
36.4458,13.1268
36.3647,13.1810
36.2690,13.2000
35.3190,13.2000
35.2233,13.1810
35.1422,13.1268
35.0880,13.0457
35.0690,12.9500
35.0690,12.2750
35.0880,12.1793
35.1422,12.0982
35.2233,12.0440
35.3190,12.0250
Z" /> 
<path style="fill:#000000; fill-opacity:1.0000; stroke:none;fill-rule:evenodd;"
d="M 62.0050,13.0500
61.9093,13.0310
61.8282,12.9768
61.7740,12.8957
61.7550,12.8000
61.7550,12.1250
61.7740,12.0293
61.8282,11.9482
61.9093,11.8940
62.0050,11.8750
62.9550,11.8750
63.0507,11.8940
63.1318,11.9482
63.1860,12.0293
63.2050,12.1250
63.2050,12.8000
63.1860,12.8957
63.1318,12.9768
63.0507,13.0310
62.9550,13.0500
Z" /> 
<path style="fill:#000000; fill-opacity:1.0000; stroke:none;fill-rule:evenodd;"
d="M 62.0050,10.9750
61.9093,10.9560
61.8282,10.9018
61.7740,10.8207
61.7550,10.7250
61.7550,10.0500
61.7740,9.9543
61.8282,9.8732
61.9093,9.8190
62.0050,9.8000
62.9550,9.8000
63.0507,9.8190
63.1318,9.8732
63.1860,9.9543
63.2050,10.0500
63.2050,10.7250
63.1860,10.8207
63.1318,10.9018
63.0507,10.9560
62.9550,10.9750
Z" /> 
<path style="fill:#000000; fill-opacity:1.0000; stroke:none;fill-rule:evenodd;"
d="M 26.6440,30.4700
26.6554,30.4126
26.6879,30.3639
26.7366,30.3314
26.7940,30.3200
28.4440,30.3200
28.5014,30.3314
28.5501,30.3639
28.5826,30.4126
28.5940,30.4700
28.5940,30.7700
28.5826,30.8274
28.5501,30.8761
28.5014,30.9086
28.4440,30.9200
26.7940,30.9200
26.7366,30.9086
26.6879,30.8761
26.6554,30.8274
26.6440,30.7700
Z" /> 
<path style="fill:#000000; fill-opacity:1.0000; stroke:none;fill-rule:evenodd;"
d="M 26.6440,31.7400
26.6554,31.6826
26.6879,31.6339
26.7366,31.6014
26.7940,31.5900
28.4440,31.5900
28.5014,31.6014
28.5501,31.6339
28.5826,31.6826
28.5940,31.7400
28.5940,32.0400
28.5826,32.0974
28.5501,32.1461
28.5014,32.1786
28.4440,32.1900
26.7940,32.1900
26.7366,32.1786
26.6879,32.1461
26.6554,32.0974
26.6440,32.0400
Z" /> 
<path style="fill:#000000; fill-opacity:1.0000; stroke:none;fill-rule:evenodd;"
d="M 26.6440,33.0100
26.6554,32.9526
26.6879,32.9039
26.7366,32.8714
26.7940,32.8600
28.4440,32.8600
28.5014,32.8714
28.5501,32.9039
28.5826,32.9526
28.5940,33.0100
28.5940,33.3100
28.5826,33.3674
28.5501,33.4161
28.5014,33.4486
28.4440,33.4600
26.7940,33.4600
26.7366,33.4486
26.6879,33.4161
26.6554,33.3674
26.6440,33.3100
Z" /> 
<path style="fill:#000000; fill-opacity:1.0000; stroke:none;fill-rule:evenodd;"
d="M 26.6440,34.2800
26.6554,34.2226
26.6879,34.1739
26.7366,34.1414
26.7940,34.1300
28.4440,34.1300
28.5014,34.1414
28.5501,34.1739
28.5826,34.2226
28.5940,34.2800
28.5940,34.5800
28.5826,34.6374
28.5501,34.6861
28.5014,34.7186
28.4440,34.7300
26.7940,34.7300
26.7366,34.7186
26.6879,34.6861
26.6554,34.6374
26.6440,34.5800
Z" /> 
<path style="fill:#000000; fill-opacity:1.0000; stroke:none;fill-rule:evenodd;"
d="M 31.5940,34.2800
31.6054,34.2226
31.6379,34.1739
31.6866,34.1414
31.7440,34.1300
33.3940,34.1300
33.4514,34.1414
33.5001,34.1739
33.5326,34.2226
33.5440,34.2800
33.5440,34.5800
33.5326,34.6374
33.5001,34.6861
33.4514,34.7186
33.3940,34.7300
31.7440,34.7300
31.6866,34.7186
31.6379,34.6861
31.6054,34.6374
31.5940,34.5800
Z" /> 
<path style="fill:#000000; fill-opacity:1.0000; stroke:none;fill-rule:evenodd;"
d="M 31.5940,33.0100
31.6054,32.9526
31.6379,32.9039
31.6866,32.8714
31.7440,32.8600
33.3940,32.8600
33.4514,32.8714
33.5001,32.9039
33.5326,32.9526
33.5440,33.0100
33.5440,33.3100
33.5326,33.3674
33.5001,33.4161
33.4514,33.4486
33.3940,33.4600
31.7440,33.4600
31.6866,33.4486
31.6379,33.4161
31.6054,33.3674
31.5940,33.3100
Z" /> 
<path style="fill:#000000; fill-opacity:1.0000; stroke:none;fill-rule:evenodd;"
d="M 31.5940,31.7400
31.6054,31.6826
31.6379,31.6339
31.6866,31.6014
31.7440,31.5900
33.3940,31.5900
33.4514,31.6014
33.5001,31.6339
33.5326,31.6826
33.5440,31.7400
33.5440,32.0400
33.5326,32.0974
33.5001,32.1461
33.4514,32.1786
33.3940,32.1900
31.7440,32.1900
31.6866,32.1786
31.6379,32.1461
31.6054,32.0974
31.5940,32.0400
Z" /> 
<path style="fill:#000000; fill-opacity:1.0000; stroke:none;fill-rule:evenodd;"
d="M 31.5940,30.4700
31.6054,30.4126
31.6379,30.3639
31.6866,30.3314
31.7440,30.3200
33.3940,30.3200
33.4514,30.3314
33.5001,30.3639
33.5326,30.4126
33.5440,30.4700
33.5440,30.7700
33.5326,30.8274
33.5001,30.8761
33.4514,30.9086
33.3940,30.9200
31.7440,30.9200
31.6866,30.9086
31.6379,30.8761
31.6054,30.8274
31.5940,30.7700
Z" /> 
<path style="fill:#000000; fill-opacity:1.0000; stroke:none;fill-rule:evenodd;"
d="M 24.4130,33.8995
24.3173,33.8805
24.2362,33.8263
24.1820,33.7452
24.1630,33.6495
24.1630,32.9745
24.1820,32.8788
24.2362,32.7977
24.3173,32.7435
24.4130,32.7245
25.3630,32.7245
25.4587,32.7435
25.5398,32.7977
25.5940,32.8788
25.6130,32.9745
25.6130,33.6495
25.5940,33.7452
25.5398,33.8263
25.4587,33.8805
25.3630,33.8995
Z" /> 
<path style="fill:#000000; fill-opacity:1.0000; stroke:none;fill-rule:evenodd;"
d="M 24.4130,31.8245
24.3173,31.8055
24.2362,31.7513
24.1820,31.6702
24.1630,31.5745
24.1630,30.8995
24.1820,30.8038
24.2362,30.7227
24.3173,30.6685
24.4130,30.6495
25.3630,30.6495
25.4587,30.6685
25.5398,30.7227
25.5940,30.8038
25.6130,30.8995
25.6130,31.5745
25.5940,31.6702
25.5398,31.7513
25.4587,31.8055
25.3630,31.8245
Z" /> 
<path style="fill:#000000; fill-opacity:1.0000; stroke:none;fill-rule:evenodd;"
d="M 24.4130,12.2880
24.3173,12.2690
24.2362,12.2148
24.1820,12.1337
24.1630,12.0380
24.1630,11.3630
24.1820,11.2673
24.2362,11.1862
24.3173,11.1320
24.4130,11.1130
25.3630,11.1130
25.4587,11.1320
25.5398,11.1862
25.5940,11.2673
25.6130,11.3630
25.6130,12.0380
25.5940,12.1337
25.5398,12.2148
25.4587,12.2690
25.3630,12.2880
Z" /> 
<path style="fill:#000000; fill-opacity:1.0000; stroke:none;fill-rule:evenodd;"
d="M 24.4130,10.2130
24.3173,10.1940
24.2362,10.1398
24.1820,10.0587
24.1630,9.9630
24.1630,9.2880
24.1820,9.1923
24.2362,9.1112
24.3173,9.0570
24.4130,9.0380
25.3630,9.0380
25.4587,9.0570
25.5398,9.1112
25.5940,9.1923
25.6130,9.2880
25.6130,9.9630
25.5940,10.0587
25.5398,10.1398
25.4587,10.1940
25.3630,10.2130
Z" /> 
<path style="fill:#000000; fill-opacity:1.0000; stroke:none;fill-rule:evenodd;"
d="M 74.0690,9.9375
74.1647,9.9565
74.2458,10.0107
74.3000,10.0918
74.3190,10.1875
74.3190,10.8625
74.3000,10.9582
74.2458,11.0393
74.1647,11.0935
74.0690,11.1125
73.1190,11.1125
73.0233,11.0935
72.9422,11.0393
72.8880,10.9582
72.8690,10.8625
72.8690,10.1875
72.8880,10.0918
72.9422,10.0107
73.0233,9.9565
73.1190,9.9375
Z" /> 
<path style="fill:#000000; fill-opacity:1.0000; stroke:none;fill-rule:evenodd;"
d="M 74.0690,12.0125
74.1647,12.0315
74.2458,12.0857
74.3000,12.1668
74.3190,12.2625
74.3190,12.9375
74.3000,13.0332
74.2458,13.1143
74.1647,13.1685
74.0690,13.1875
73.1190,13.1875
73.0233,13.1685
72.9422,13.1143
72.8880,13.0332
72.8690,12.9375
72.8690,12.2625
72.8880,12.1668
72.9422,12.0857
73.0233,12.0315
73.1190,12.0125
Z" /> 
<path style="fill:#000000; fill-opacity:1.0000; stroke:none;fill-rule:evenodd;"
d="M 64.6440,35.4700
64.6554,35.4126
64.6879,35.3639
64.7366,35.3314
64.7940,35.3200
66.4440,35.3200
66.5014,35.3314
66.5501,35.3639
66.5826,35.4126
66.5940,35.4700
66.5940,35.7700
66.5826,35.8274
66.5501,35.8761
66.5014,35.9086
66.4440,35.9200
64.7940,35.9200
64.7366,35.9086
64.6879,35.8761
64.6554,35.8274
64.6440,35.7700
Z" /> 
<path style="fill:#000000; fill-opacity:1.0000; stroke:none;fill-rule:evenodd;"
d="M 64.6440,36.7400
64.6554,36.6826
64.6879,36.6339
64.7366,36.6014
64.7940,36.5900
66.4440,36.5900
66.5014,36.6014
66.5501,36.6339
66.5826,36.6826
66.5940,36.7400
66.5940,37.0400
66.5826,37.0974
66.5501,37.1461
66.5014,37.1786
66.4440,37.1900
64.7940,37.1900
64.7366,37.1786
64.6879,37.1461
64.6554,37.0974
64.6440,37.0400
Z" /> 
<path style="fill:#000000; fill-opacity:1.0000; stroke:none;fill-rule:evenodd;"
d="M 64.6440,38.0100
64.6554,37.9526
64.6879,37.9039
64.7366,37.8714
64.7940,37.8600
66.4440,37.8600
66.5014,37.8714
66.5501,37.9039
66.5826,37.9526
66.5940,38.0100
66.5940,38.3100
66.5826,38.3674
66.5501,38.4161
66.5014,38.4486
66.4440,38.4600
64.7940,38.4600
64.7366,38.4486
64.6879,38.4161
64.6554,38.3674
64.6440,38.3100
Z" /> 
<path style="fill:#000000; fill-opacity:1.0000; stroke:none;fill-rule:evenodd;"
d="M 64.6440,39.2800
64.6554,39.2226
64.6879,39.1739
64.7366,39.1414
64.7940,39.1300
66.4440,39.1300
66.5014,39.1414
66.5501,39.1739
66.5826,39.2226
66.5940,39.2800
66.5940,39.5800
66.5826,39.6374
66.5501,39.6861
66.5014,39.7186
66.4440,39.7300
64.7940,39.7300
64.7366,39.7186
64.6879,39.6861
64.6554,39.6374
64.6440,39.5800
Z" /> 
<path style="fill:#000000; fill-opacity:1.0000; stroke:none;fill-rule:evenodd;"
d="M 69.5940,39.2800
69.6054,39.2226
69.6379,39.1739
69.6866,39.1414
69.7440,39.1300
71.3940,39.1300
71.4514,39.1414
71.5001,39.1739
71.5326,39.2226
71.5440,39.2800
71.5440,39.5800
71.5326,39.6374
71.5001,39.6861
71.4514,39.7186
71.3940,39.7300
69.7440,39.7300
69.6866,39.7186
69.6379,39.6861
69.6054,39.6374
69.5940,39.5800
Z" /> 
<path style="fill:#000000; fill-opacity:1.0000; stroke:none;fill-rule:evenodd;"
d="M 69.5940,38.0100
69.6054,37.9526
69.6379,37.9039
69.6866,37.8714
69.7440,37.8600
71.3940,37.8600
71.4514,37.8714
71.5001,37.9039
71.5326,37.9526
71.5440,38.0100
71.5440,38.3100
71.5326,38.3674
71.5001,38.4161
71.4514,38.4486
71.3940,38.4600
69.7440,38.4600
69.6866,38.4486
69.6379,38.4161
69.6054,38.3674
69.5940,38.3100
Z" /> 
<path style="fill:#000000; fill-opacity:1.0000; stroke:none;fill-rule:evenodd;"
d="M 69.5940,36.7400
69.6054,36.6826
69.6379,36.6339
69.6866,36.6014
69.7440,36.5900
71.3940,36.5900
71.4514,36.6014
71.5001,36.6339
71.5326,36.6826
71.5440,36.7400
71.5440,37.0400
71.5326,37.0974
71.5001,37.1461
71.4514,37.1786
71.3940,37.1900
69.7440,37.1900
69.6866,37.1786
69.6379,37.1461
69.6054,37.0974
69.5940,37.0400
Z" /> 
<path style="fill:#000000; fill-opacity:1.0000; stroke:none;fill-rule:evenodd;"
d="M 69.5940,35.4700
69.6054,35.4126
69.6379,35.3639
69.6866,35.3314
69.7440,35.3200
71.3940,35.3200
71.4514,35.3314
71.5001,35.3639
71.5326,35.4126
71.5440,35.4700
71.5440,35.7700
71.5326,35.8274
71.5001,35.8761
71.4514,35.9086
71.3940,35.9200
69.7440,35.9200
69.6866,35.9086
69.6379,35.8761
69.6054,35.8274
69.5940,35.7700
Z" /> 
<path style="fill:#000000; fill-opacity:1.0000; stroke:none;fill-rule:evenodd;"
d="M 62.0050,38.4500
61.9093,38.4310
61.8282,38.3768
61.7740,38.2957
61.7550,38.2000
61.7550,37.5250
61.7740,37.4293
61.8282,37.3482
61.9093,37.2940
62.0050,37.2750
62.9550,37.2750
63.0507,37.2940
63.1318,37.3482
63.1860,37.4293
63.2050,37.5250
63.2050,38.2000
63.1860,38.2957
63.1318,38.3768
63.0507,38.4310
62.9550,38.4500
Z" /> 
<path style="fill:#000000; fill-opacity:1.0000; stroke:none;fill-rule:evenodd;"
d="M 62.0050,36.3750
61.9093,36.3560
61.8282,36.3018
61.7740,36.2207
61.7550,36.1250
61.7550,35.4500
61.7740,35.3543
61.8282,35.2732
61.9093,35.2190
62.0050,35.2000
62.9550,35.2000
63.0507,35.2190
63.1318,35.2732
63.1860,35.3543
63.2050,35.4500
63.2050,36.1250
63.1860,36.2207
63.1318,36.3018
63.0507,36.3560
62.9550,36.3750
Z" /> 
<path style="fill:#000000; fill-opacity:1.0000; stroke:none;fill-rule:evenodd;"
d="M 73.9190,35.8000
74.0147,35.8190
74.0958,35.8732
74.1500,35.9543
74.1690,36.0500
74.1690,36.7250
74.1500,36.8207
74.0958,36.9018
74.0147,36.9560
73.9190,36.9750
72.9690,36.9750
72.8733,36.9560
72.7922,36.9018
72.7380,36.8207
72.7190,36.7250
72.7190,36.0500
72.7380,35.9543
72.7922,35.8732
72.8733,35.8190
72.9690,35.8000
Z" /> 
<path style="fill:#000000; fill-opacity:1.0000; stroke:none;fill-rule:evenodd;"
d="M 73.9190,37.8750
74.0147,37.8940
74.0958,37.9482
74.1500,38.0293
74.1690,38.1250
74.1690,38.8000
74.1500,38.8957
74.0958,38.9768
74.0147,39.0310
73.9190,39.0500
72.9690,39.0500
72.8733,39.0310
72.7922,38.9768
72.7380,38.8957
72.7190,38.8000
72.7190,38.1250
72.7380,38.0293
72.7922,37.9482
72.8733,37.8940
72.9690,37.8750
Z" /> 
<path style="fill:#000000; fill-opacity:1.0000; stroke:none;fill-rule:evenodd;"
d="M 64.6440,9.4700
64.6554,9.4126
64.6879,9.3639
64.7366,9.3314
64.7940,9.3200
66.4440,9.3200
66.5014,9.3314
66.5501,9.3639
66.5826,9.4126
66.5940,9.4700
66.5940,9.7700
66.5826,9.8274
66.5501,9.8761
66.5014,9.9086
66.4440,9.9200
64.7940,9.9200
64.7366,9.9086
64.6879,9.8761
64.6554,9.8274
64.6440,9.7700
Z" /> 
<path style="fill:#000000; fill-opacity:1.0000; stroke:none;fill-rule:evenodd;"
d="M 64.6440,10.7400
64.6554,10.6826
64.6879,10.6339
64.7366,10.6014
64.7940,10.5900
66.4440,10.5900
66.5014,10.6014
66.5501,10.6339
66.5826,10.6826
66.5940,10.7400
66.5940,11.0400
66.5826,11.0974
66.5501,11.1461
66.5014,11.1786
66.4440,11.1900
64.7940,11.1900
64.7366,11.1786
64.6879,11.1461
64.6554,11.0974
64.6440,11.0400
Z" /> 
<path style="fill:#000000; fill-opacity:1.0000; stroke:none;fill-rule:evenodd;"
d="M 64.6440,12.0100
64.6554,11.9526
64.6879,11.9039
64.7366,11.8714
64.7940,11.8600
66.4440,11.8600
66.5014,11.8714
66.5501,11.9039
66.5826,11.9526
66.5940,12.0100
66.5940,12.3100
66.5826,12.3674
66.5501,12.4161
66.5014,12.4486
66.4440,12.4600
64.7940,12.4600
64.7366,12.4486
64.6879,12.4161
64.6554,12.3674
64.6440,12.3100
Z" /> 
<path style="fill:#000000; fill-opacity:1.0000; stroke:none;fill-rule:evenodd;"
d="M 64.6440,13.2800
64.6554,13.2226
64.6879,13.1739
64.7366,13.1414
64.7940,13.1300
66.4440,13.1300
66.5014,13.1414
66.5501,13.1739
66.5826,13.2226
66.5940,13.2800
66.5940,13.5800
66.5826,13.6374
66.5501,13.6861
66.5014,13.7186
66.4440,13.7300
64.7940,13.7300
64.7366,13.7186
64.6879,13.6861
64.6554,13.6374
64.6440,13.5800
Z" /> 
<path style="fill:#000000; fill-opacity:1.0000; stroke:none;fill-rule:evenodd;"
d="M 69.5940,13.2800
69.6054,13.2226
69.6379,13.1739
69.6866,13.1414
69.7440,13.1300
71.3940,13.1300
71.4514,13.1414
71.5001,13.1739
71.5326,13.2226
71.5440,13.2800
71.5440,13.5800
71.5326,13.6374
71.5001,13.6861
71.4514,13.7186
71.3940,13.7300
69.7440,13.7300
69.6866,13.7186
69.6379,13.6861
69.6054,13.6374
69.5940,13.5800
Z" /> 
<path style="fill:#000000; fill-opacity:1.0000; stroke:none;fill-rule:evenodd;"
d="M 69.5940,12.0100
69.6054,11.9526
69.6379,11.9039
69.6866,11.8714
69.7440,11.8600
71.3940,11.8600
71.4514,11.8714
71.5001,11.9039
71.5326,11.9526
71.5440,12.0100
71.5440,12.3100
71.5326,12.3674
71.5001,12.4161
71.4514,12.4486
71.3940,12.4600
69.7440,12.4600
69.6866,12.4486
69.6379,12.4161
69.6054,12.3674
69.5940,12.3100
Z" /> 
<path style="fill:#000000; fill-opacity:1.0000; stroke:none;fill-rule:evenodd;"
d="M 69.5940,10.7400
69.6054,10.6826
69.6379,10.6339
69.6866,10.6014
69.7440,10.5900
71.3940,10.5900
71.4514,10.6014
71.5001,10.6339
71.5326,10.6826
71.5440,10.7400
71.5440,11.0400
71.5326,11.0974
71.5001,11.1461
71.4514,11.1786
71.3940,11.1900
69.7440,11.1900
69.6866,11.1786
69.6379,11.1461
69.6054,11.0974
69.5940,11.0400
Z" /> 
<path style="fill:#000000; fill-opacity:1.0000; stroke:none;fill-rule:evenodd;"
d="M 69.5940,9.4700
69.6054,9.4126
69.6379,9.3639
69.6866,9.3314
69.7440,9.3200
71.3940,9.3200
71.4514,9.3314
71.5001,9.3639
71.5326,9.4126
71.5440,9.4700
71.5440,9.7700
71.5326,9.8274
71.5001,9.8761
71.4514,9.9086
71.3940,9.9200
69.7440,9.9200
69.6866,9.9086
69.6379,9.8761
69.6054,9.8274
69.5940,9.7700
Z" /> 
<path style="fill:#000000; fill-opacity:1.0000; stroke:none;fill-rule:evenodd;"
d="M 36.0690,30.7500
36.1647,30.7690
36.2458,30.8232
36.3000,30.9043
36.3190,31.0000
36.3190,31.6750
36.3000,31.7707
36.2458,31.8518
36.1647,31.9060
36.0690,31.9250
35.1190,31.9250
35.0233,31.9060
34.9422,31.8518
34.8880,31.7707
34.8690,31.6750
34.8690,31.0000
34.8880,30.9043
34.9422,30.8232
35.0233,30.7690
35.1190,30.7500
Z" /> 
<path style="fill:#000000; fill-opacity:1.0000; stroke:none;fill-rule:evenodd;"
d="M 36.0690,32.8250
36.1647,32.8440
36.2458,32.8982
36.3000,32.9793
36.3190,33.0750
36.3190,33.7500
36.3000,33.8457
36.2458,33.9268
36.1647,33.9810
36.0690,34.0000
35.1190,34.0000
35.0233,33.9810
34.9422,33.9268
34.8880,33.8457
34.8690,33.7500
34.8690,33.0750
34.8880,32.9793
34.9422,32.8982
35.0233,32.8440
35.1190,32.8250
Z" /> 
<path style="fill:#000000; fill-opacity:1.0000; stroke:none;fill-rule:evenodd;"
d="M 26.6440,9.4700
26.6554,9.4126
26.6879,9.3639
26.7366,9.3314
26.7940,9.3200
28.4440,9.3200
28.5014,9.3314
28.5501,9.3639
28.5826,9.4126
28.5940,9.4700
28.5940,9.7700
28.5826,9.8274
28.5501,9.8761
28.5014,9.9086
28.4440,9.9200
26.7940,9.9200
26.7366,9.9086
26.6879,9.8761
26.6554,9.8274
26.6440,9.7700
Z" /> 
<path style="fill:#000000; fill-opacity:1.0000; stroke:none;fill-rule:evenodd;"
d="M 26.6440,10.7400
26.6554,10.6826
26.6879,10.6339
26.7366,10.6014
26.7940,10.5900
28.4440,10.5900
28.5014,10.6014
28.5501,10.6339
28.5826,10.6826
28.5940,10.7400
28.5940,11.0400
28.5826,11.0974
28.5501,11.1461
28.5014,11.1786
28.4440,11.1900
26.7940,11.1900
26.7366,11.1786
26.6879,11.1461
26.6554,11.0974
26.6440,11.0400
Z" /> 
<path style="fill:#000000; fill-opacity:1.0000; stroke:none;fill-rule:evenodd;"
d="M 26.6440,12.0100
26.6554,11.9526
26.6879,11.9039
26.7366,11.8714
26.7940,11.8600
28.4440,11.8600
28.5014,11.8714
28.5501,11.9039
28.5826,11.9526
28.5940,12.0100
28.5940,12.3100
28.5826,12.3674
28.5501,12.4161
28.5014,12.4486
28.4440,12.4600
26.7940,12.4600
26.7366,12.4486
26.6879,12.4161
26.6554,12.3674
26.6440,12.3100
Z" /> 
<path style="fill:#000000; fill-opacity:1.0000; stroke:none;fill-rule:evenodd;"
d="M 26.6440,13.2800
26.6554,13.2226
26.6879,13.1739
26.7366,13.1414
26.7940,13.1300
28.4440,13.1300
28.5014,13.1414
28.5501,13.1739
28.5826,13.2226
28.5940,13.2800
28.5940,13.5800
28.5826,13.6374
28.5501,13.6861
28.5014,13.7186
28.4440,13.7300
26.7940,13.7300
26.7366,13.7186
26.6879,13.6861
26.6554,13.6374
26.6440,13.5800
Z" /> 
<path style="fill:#000000; fill-opacity:1.0000; stroke:none;fill-rule:evenodd;"
d="M 31.5940,13.2800
31.6054,13.2226
31.6379,13.1739
31.6866,13.1414
31.7440,13.1300
33.3940,13.1300
33.4514,13.1414
33.5001,13.1739
33.5326,13.2226
33.5440,13.2800
33.5440,13.5800
33.5326,13.6374
33.5001,13.6861
33.4514,13.7186
33.3940,13.7300
31.7440,13.7300
31.6866,13.7186
31.6379,13.6861
31.6054,13.6374
31.5940,13.5800
Z" /> 
<path style="fill:#000000; fill-opacity:1.0000; stroke:none;fill-rule:evenodd;"
d="M 31.5940,12.0100
31.6054,11.9526
31.6379,11.9039
31.6866,11.8714
31.7440,11.8600
33.3940,11.8600
33.4514,11.8714
33.5001,11.9039
33.5326,11.9526
33.5440,12.0100
33.5440,12.3100
33.5326,12.3674
33.5001,12.4161
33.4514,12.4486
33.3940,12.4600
31.7440,12.4600
31.6866,12.4486
31.6379,12.4161
31.6054,12.3674
31.5940,12.3100
Z" /> 
<path style="fill:#000000; fill-opacity:1.0000; stroke:none;fill-rule:evenodd;"
d="M 31.5940,10.7400
31.6054,10.6826
31.6379,10.6339
31.6866,10.6014
31.7440,10.5900
33.3940,10.5900
33.4514,10.6014
33.5001,10.6339
33.5326,10.6826
33.5440,10.7400
33.5440,11.0400
33.5326,11.0974
33.5001,11.1461
33.4514,11.1786
33.3940,11.1900
31.7440,11.1900
31.6866,11.1786
31.6379,11.1461
31.6054,11.0974
31.5940,11.0400
Z" /> 
<path style="fill:#000000; fill-opacity:1.0000; stroke:none;fill-rule:evenodd;"
d="M 31.5940,9.4700
31.6054,9.4126
31.6379,9.3639
31.6866,9.3314
31.7440,9.3200
33.3940,9.3200
33.4514,9.3314
33.5001,9.3639
33.5326,9.4126
33.5440,9.4700
33.5440,9.7700
33.5326,9.8274
33.5001,9.8761
33.4514,9.9086
33.3940,9.9200
31.7440,9.9200
31.6866,9.9086
31.6379,9.8761
31.6054,9.8274
31.5940,9.7700
Z" /> 
<path style="fill:#000000; fill-opacity:1.0000; stroke:none;fill-rule:evenodd;"
d="M 64.6440,23.4700
64.6554,23.4126
64.6879,23.3639
64.7366,23.3314
64.7940,23.3200
66.4440,23.3200
66.5014,23.3314
66.5501,23.3639
66.5826,23.4126
66.5940,23.4700
66.5940,23.7700
66.5826,23.8274
66.5501,23.8761
66.5014,23.9086
66.4440,23.9200
64.7940,23.9200
64.7366,23.9086
64.6879,23.8761
64.6554,23.8274
64.6440,23.7700
Z" /> 
<path style="fill:#000000; fill-opacity:1.0000; stroke:none;fill-rule:evenodd;"
d="M 64.6440,24.7400
64.6554,24.6826
64.6879,24.6339
64.7366,24.6014
64.7940,24.5900
66.4440,24.5900
66.5014,24.6014
66.5501,24.6339
66.5826,24.6826
66.5940,24.7400
66.5940,25.0400
66.5826,25.0974
66.5501,25.1461
66.5014,25.1786
66.4440,25.1900
64.7940,25.1900
64.7366,25.1786
64.6879,25.1461
64.6554,25.0974
64.6440,25.0400
Z" /> 
<path style="fill:#000000; fill-opacity:1.0000; stroke:none;fill-rule:evenodd;"
d="M 64.6440,26.0100
64.6554,25.9526
64.6879,25.9039
64.7366,25.8714
64.7940,25.8600
66.4440,25.8600
66.5014,25.8714
66.5501,25.9039
66.5826,25.9526
66.5940,26.0100
66.5940,26.3100
66.5826,26.3674
66.5501,26.4161
66.5014,26.4486
66.4440,26.4600
64.7940,26.4600
64.7366,26.4486
64.6879,26.4161
64.6554,26.3674
64.6440,26.3100
Z" /> 
<path style="fill:#000000; fill-opacity:1.0000; stroke:none;fill-rule:evenodd;"
d="M 64.6440,27.2800
64.6554,27.2226
64.6879,27.1739
64.7366,27.1414
64.7940,27.1300
66.4440,27.1300
66.5014,27.1414
66.5501,27.1739
66.5826,27.2226
66.5940,27.2800
66.5940,27.5800
66.5826,27.6374
66.5501,27.6861
66.5014,27.7186
66.4440,27.7300
64.7940,27.7300
64.7366,27.7186
64.6879,27.6861
64.6554,27.6374
64.6440,27.5800
Z" /> 
<path style="fill:#000000; fill-opacity:1.0000; stroke:none;fill-rule:evenodd;"
d="M 69.5940,27.2800
69.6054,27.2226
69.6379,27.1739
69.6866,27.1414
69.7440,27.1300
71.3940,27.1300
71.4514,27.1414
71.5001,27.1739
71.5326,27.2226
71.5440,27.2800
71.5440,27.5800
71.5326,27.6374
71.5001,27.6861
71.4514,27.7186
71.3940,27.7300
69.7440,27.7300
69.6866,27.7186
69.6379,27.6861
69.6054,27.6374
69.5940,27.5800
Z" /> 
<path style="fill:#000000; fill-opacity:1.0000; stroke:none;fill-rule:evenodd;"
d="M 69.5940,26.0100
69.6054,25.9526
69.6379,25.9039
69.6866,25.8714
69.7440,25.8600
71.3940,25.8600
71.4514,25.8714
71.5001,25.9039
71.5326,25.9526
71.5440,26.0100
71.5440,26.3100
71.5326,26.3674
71.5001,26.4161
71.4514,26.4486
71.3940,26.4600
69.7440,26.4600
69.6866,26.4486
69.6379,26.4161
69.6054,26.3674
69.5940,26.3100
Z" /> 
<path style="fill:#000000; fill-opacity:1.0000; stroke:none;fill-rule:evenodd;"
d="M 69.5940,24.7400
69.6054,24.6826
69.6379,24.6339
69.6866,24.6014
69.7440,24.5900
71.3940,24.5900
71.4514,24.6014
71.5001,24.6339
71.5326,24.6826
71.5440,24.7400
71.5440,25.0400
71.5326,25.0974
71.5001,25.1461
71.4514,25.1786
71.3940,25.1900
69.7440,25.1900
69.6866,25.1786
69.6379,25.1461
69.6054,25.0974
69.5940,25.0400
Z" /> 
<path style="fill:#000000; fill-opacity:1.0000; stroke:none;fill-rule:evenodd;"
d="M 69.5940,23.4700
69.6054,23.4126
69.6379,23.3639
69.6866,23.3314
69.7440,23.3200
71.3940,23.3200
71.4514,23.3314
71.5001,23.3639
71.5326,23.4126
71.5440,23.4700
71.5440,23.7700
71.5326,23.8274
71.5001,23.8761
71.4514,23.9086
71.3940,23.9200
69.7440,23.9200
69.6866,23.9086
69.6379,23.8761
69.6054,23.8274
69.5940,23.7700
Z" /> 
<path style="fill:#000000; fill-opacity:1.0000; stroke:none;fill-rule:evenodd;"
d="M 62.2590,26.7875
62.1633,26.7685
62.0822,26.7143
62.0280,26.6332
62.0090,26.5375
62.0090,25.8625
62.0280,25.7668
62.0822,25.6857
62.1633,25.6315
62.2590,25.6125
63.2090,25.6125
63.3047,25.6315
63.3858,25.6857
63.4400,25.7668
63.4590,25.8625
63.4590,26.5375
63.4400,26.6332
63.3858,26.7143
63.3047,26.7685
63.2090,26.7875
Z" /> 
<path style="fill:#000000; fill-opacity:1.0000; stroke:none;fill-rule:evenodd;"
d="M 62.2590,24.7125
62.1633,24.6935
62.0822,24.6393
62.0280,24.5582
62.0090,24.4625
62.0090,23.7875
62.0280,23.6918
62.0822,23.6107
62.1633,23.5565
62.2590,23.5375
63.2090,23.5375
63.3047,23.5565
63.3858,23.6107
63.4400,23.6918
63.4590,23.7875
63.4590,24.4625
63.4400,24.5582
63.3858,24.6393
63.3047,24.6935
63.2090,24.7125
Z" /> 
<path style="fill:#000000; fill-opacity:1.0000; stroke:none;fill-rule:evenodd;"
d="M 74.0190,24.0500
74.1147,24.0690
74.1958,24.1232
74.2500,24.2043
74.2690,24.3000
74.2690,24.9750
74.2500,25.0707
74.1958,25.1518
74.1147,25.2060
74.0190,25.2250
73.0690,25.2250
72.9733,25.2060
72.8922,25.1518
72.8380,25.0707
72.8190,24.9750
72.8190,24.3000
72.8380,24.2043
72.8922,24.1232
72.9733,24.0690
73.0690,24.0500
Z" /> 
<path style="fill:#000000; fill-opacity:1.0000; stroke:none;fill-rule:evenodd;"
d="M 74.0190,26.1250
74.1147,26.1440
74.1958,26.1982
74.2500,26.2793
74.2690,26.3750
74.2690,27.0500
74.2500,27.1457
74.1958,27.2268
74.1147,27.2810
74.0190,27.3000
73.0690,27.3000
72.9733,27.2810
72.8922,27.2268
72.8380,27.1457
72.8190,27.0500
72.8190,26.3750
72.8380,26.2793
72.8922,26.1982
72.9733,26.1440
73.0690,26.1250
Z" /> 
</g>
<g style="fill:none; 
stroke:#000000; stroke-width:0.0500; stroke-opacity:1; 
stroke-linecap:round; stroke-linejoin:round;">
<path d="M0.4151 48.4836
L0.4151 33.8786
" />
<path d="M5.8440 16.0986
L5.8440 0.0250
" />
<path d="M20.7351 16.0986
L5.8440 16.0986
" />
<path d="M74.0751 54.8336
L6.7651 54.8336
" />
<path d="M0.4151 48.4836 A6.3500 6.3500 0.0 0 0 6.7651 54.8336" />
<path d="M86.7751 12.9236
L86.7751 42.1336
" />
<path d="M74.0751 0.0250
L5.8440 0.0250
" />
<path d="M0.4151 33.8786
L20.7351 33.8786
" />
<path d="M20.7351 33.8786
L20.7351 16.0986
" />
<path d="M74.0751 54.8336 A12.7000 12.7000 0.0 0 0 86.7751 42.1336" />
<path d="M86.7751 12.9236 A12.7997 12.7997 0.0 0 0 74.0751 0.0250" />
</g> 
</svg>
