<?xml version="1.0" standalone="no"?>
 <!DOCTYPE svg PUBLIC "-//W3C//DTD SVG 1.1//EN" 
 "http://www.w3.org/Graphics/SVG/1.1/DTD/svg11.dtd"> 
<svg
  xmlns:svg="http://www.w3.org/2000/svg"
  xmlns="http://www.w3.org/2000/svg"
  xmlns:xlink="http://www.w3.org/1999/xlink"
  version="1.1"
  width="63.7794mm" height="90.1954mm" viewBox="0.0000 0.0000 63.7794 90.1954">
<title>SVG Image created as Beagley-ai-3CAN-F_Paste.svg date 2024/12/29 09:59:15 </title>
  <desc>Image generated by PCBNEW </desc>
<g style="fill:#000000; fill-opacity:1.0000;stroke:#000000; stroke-opacity:1.0000;
stroke-linecap:round; stroke-linejoin:round;"
 transform="translate(0 0) scale(1 1)">
<path style="fill:#000000; fill-opacity:1.0000; stroke:none;fill-rule:evenodd;"
d="M 22.6250,17.7250
22.5293,17.7060
22.4482,17.6518
22.3940,17.5707
22.3750,17.4750
22.3750,16.8000
22.3940,16.7043
22.4482,16.6232
22.5293,16.5690
22.6250,16.5500
23.5750,16.5500
23.6707,16.5690
23.7518,16.6232
23.8060,16.7043
23.8250,16.8000
23.8250,17.4750
23.8060,17.5707
23.7518,17.6518
23.6707,17.7060
23.5750,17.7250
Z" /> 
<path style="fill:#000000; fill-opacity:1.0000; stroke:none;fill-rule:evenodd;"
d="M 22.6250,15.6500
22.5293,15.6310
22.4482,15.5768
22.3940,15.4957
22.3750,15.4000
22.3750,14.7250
22.3940,14.6293
22.4482,14.5482
22.5293,14.4940
22.6250,14.4750
23.5750,14.4750
23.6707,14.4940
23.7518,14.5482
23.8060,14.6293
23.8250,14.7250
23.8250,15.4000
23.8060,15.4957
23.7518,15.5768
23.6707,15.6310
23.5750,15.6500
Z" /> 
<path style="fill:#000000; fill-opacity:1.0000; stroke:none;fill-rule:evenodd;"
d="M 39.6000,24.5250
39.5810,24.6207
39.5268,24.7018
39.4457,24.7560
39.3500,24.7750
38.4500,24.7750
38.3543,24.7560
38.2732,24.7018
38.2190,24.6207
38.2000,24.5250
38.2000,21.6750
38.2190,21.5793
38.2732,21.4982
38.3543,21.4440
38.4500,21.4250
39.3500,21.4250
39.4457,21.4440
39.5268,21.4982
39.5810,21.5793
39.6000,21.6750
Z" /> 
<path style="fill:#000000; fill-opacity:1.0000; stroke:none;fill-rule:evenodd;"
d="M 33.5000,24.5250
33.4810,24.6207
33.4268,24.7018
33.3457,24.7560
33.2500,24.7750
32.3500,24.7750
32.2543,24.7560
32.1732,24.7018
32.1190,24.6207
32.1000,24.5250
32.1000,21.6750
32.1190,21.5793
32.1732,21.4982
32.2543,21.4440
32.3500,21.4250
33.2500,21.4250
33.3457,21.4440
33.4268,21.4982
33.4810,21.5793
33.5000,21.6750
Z" /> 
<path style="fill:#000000; fill-opacity:1.0000; stroke:none;fill-rule:evenodd;"
d="M 22.6250,68.7250
22.5293,68.7060
22.4482,68.6518
22.3940,68.5707
22.3750,68.4750
22.3750,67.8000
22.3940,67.7043
22.4482,67.6232
22.5293,67.5690
22.6250,67.5500
23.5750,67.5500
23.6707,67.5690
23.7518,67.6232
23.8060,67.7043
23.8250,67.8000
23.8250,68.4750
23.8060,68.5707
23.7518,68.6518
23.6707,68.7060
23.5750,68.7250
Z" /> 
<path style="fill:#000000; fill-opacity:1.0000; stroke:none;fill-rule:evenodd;"
d="M 22.6250,66.6500
22.5293,66.6310
22.4482,66.5768
22.3940,66.4957
22.3750,66.4000
22.3750,65.7250
22.3940,65.6293
22.4482,65.5482
22.5293,65.4940
22.6250,65.4750
23.5750,65.4750
23.6707,65.4940
23.7518,65.5482
23.8060,65.6293
23.8250,65.7250
23.8250,66.4000
23.8060,66.4957
23.7518,66.5768
23.6707,66.6310
23.5750,66.6500
Z" /> 
<path style="fill:#000000; fill-opacity:1.0000; stroke:none;fill-rule:evenodd;"
d="M 25.6500,30.6950
25.6614,30.6376
25.6939,30.5889
25.7426,30.5564
25.8000,30.5450
27.4500,30.5450
27.5074,30.5564
27.5561,30.5889
27.5886,30.6376
27.6000,30.6950
27.6000,30.9950
27.5886,31.0524
27.5561,31.1011
27.5074,31.1336
27.4500,31.1450
25.8000,31.1450
25.7426,31.1336
25.6939,31.1011
25.6614,31.0524
25.6500,30.9950
Z" /> 
<path style="fill:#000000; fill-opacity:1.0000; stroke:none;fill-rule:evenodd;"
d="M 25.6500,31.9650
25.6614,31.9076
25.6939,31.8589
25.7426,31.8264
25.8000,31.8150
27.4500,31.8150
27.5074,31.8264
27.5561,31.8589
27.5886,31.9076
27.6000,31.9650
27.6000,32.2650
27.5886,32.3224
27.5561,32.3711
27.5074,32.4036
27.4500,32.4150
25.8000,32.4150
25.7426,32.4036
25.6939,32.3711
25.6614,32.3224
25.6500,32.2650
Z" /> 
<path style="fill:#000000; fill-opacity:1.0000; stroke:none;fill-rule:evenodd;"
d="M 25.6500,33.2350
25.6614,33.1776
25.6939,33.1289
25.7426,33.0964
25.8000,33.0850
27.4500,33.0850
27.5074,33.0964
27.5561,33.1289
27.5886,33.1776
27.6000,33.2350
27.6000,33.5350
27.5886,33.5924
27.5561,33.6411
27.5074,33.6736
27.4500,33.6850
25.8000,33.6850
25.7426,33.6736
25.6939,33.6411
25.6614,33.5924
25.6500,33.5350
Z" /> 
<path style="fill:#000000; fill-opacity:1.0000; stroke:none;fill-rule:evenodd;"
d="M 25.6500,34.5050
25.6614,34.4476
25.6939,34.3989
25.7426,34.3664
25.8000,34.3550
27.4500,34.3550
27.5074,34.3664
27.5561,34.3989
27.5886,34.4476
27.6000,34.5050
27.6000,34.8050
27.5886,34.8624
27.5561,34.9111
27.5074,34.9436
27.4500,34.9550
25.8000,34.9550
25.7426,34.9436
25.6939,34.9111
25.6614,34.8624
25.6500,34.8050
Z" /> 
<path style="fill:#000000; fill-opacity:1.0000; stroke:none;fill-rule:evenodd;"
d="M 30.6000,34.5050
30.6114,34.4476
30.6439,34.3989
30.6926,34.3664
30.7500,34.3550
32.4000,34.3550
32.4574,34.3664
32.5061,34.3989
32.5386,34.4476
32.5500,34.5050
32.5500,34.8050
32.5386,34.8624
32.5061,34.9111
32.4574,34.9436
32.4000,34.9550
30.7500,34.9550
30.6926,34.9436
30.6439,34.9111
30.6114,34.8624
30.6000,34.8050
Z" /> 
<path style="fill:#000000; fill-opacity:1.0000; stroke:none;fill-rule:evenodd;"
d="M 30.6000,33.2350
30.6114,33.1776
30.6439,33.1289
30.6926,33.0964
30.7500,33.0850
32.4000,33.0850
32.4574,33.0964
32.5061,33.1289
32.5386,33.1776
32.5500,33.2350
32.5500,33.5350
32.5386,33.5924
32.5061,33.6411
32.4574,33.6736
32.4000,33.6850
30.7500,33.6850
30.6926,33.6736
30.6439,33.6411
30.6114,33.5924
30.6000,33.5350
Z" /> 
<path style="fill:#000000; fill-opacity:1.0000; stroke:none;fill-rule:evenodd;"
d="M 30.6000,31.9650
30.6114,31.9076
30.6439,31.8589
30.6926,31.8264
30.7500,31.8150
32.4000,31.8150
32.4574,31.8264
32.5061,31.8589
32.5386,31.9076
32.5500,31.9650
32.5500,32.2650
32.5386,32.3224
32.5061,32.3711
32.4574,32.4036
32.4000,32.4150
30.7500,32.4150
30.6926,32.4036
30.6439,32.3711
30.6114,32.3224
30.6000,32.2650
Z" /> 
<path style="fill:#000000; fill-opacity:1.0000; stroke:none;fill-rule:evenodd;"
d="M 30.6000,30.6950
30.6114,30.6376
30.6439,30.5889
30.6926,30.5564
30.7500,30.5450
32.4000,30.5450
32.4574,30.5564
32.5061,30.5889
32.5386,30.6376
32.5500,30.6950
32.5500,30.9950
32.5386,31.0524
32.5061,31.1011
32.4574,31.1336
32.4000,31.1450
30.7500,31.1450
30.6926,31.1336
30.6439,31.1011
30.6114,31.0524
30.6000,30.9950
Z" /> 
<path style="fill:#000000; fill-opacity:1.0000; stroke:none;fill-rule:evenodd;"
d="M 26.3500,65.0450
26.3614,64.9876
26.3939,64.9389
26.4426,64.9064
26.5000,64.8950
28.1500,64.8950
28.2074,64.9064
28.2561,64.9389
28.2886,64.9876
28.3000,65.0450
28.3000,65.3450
28.2886,65.4024
28.2561,65.4511
28.2074,65.4836
28.1500,65.4950
26.5000,65.4950
26.4426,65.4836
26.3939,65.4511
26.3614,65.4024
26.3500,65.3450
Z" /> 
<path style="fill:#000000; fill-opacity:1.0000; stroke:none;fill-rule:evenodd;"
d="M 26.3500,66.3150
26.3614,66.2576
26.3939,66.2089
26.4426,66.1764
26.5000,66.1650
28.1500,66.1650
28.2074,66.1764
28.2561,66.2089
28.2886,66.2576
28.3000,66.3150
28.3000,66.6150
28.2886,66.6724
28.2561,66.7211
28.2074,66.7536
28.1500,66.7650
26.5000,66.7650
26.4426,66.7536
26.3939,66.7211
26.3614,66.6724
26.3500,66.6150
Z" /> 
<path style="fill:#000000; fill-opacity:1.0000; stroke:none;fill-rule:evenodd;"
d="M 26.3500,67.5850
26.3614,67.5276
26.3939,67.4789
26.4426,67.4464
26.5000,67.4350
28.1500,67.4350
28.2074,67.4464
28.2561,67.4789
28.2886,67.5276
28.3000,67.5850
28.3000,67.8850
28.2886,67.9424
28.2561,67.9911
28.2074,68.0236
28.1500,68.0350
26.5000,68.0350
26.4426,68.0236
26.3939,67.9911
26.3614,67.9424
26.3500,67.8850
Z" /> 
<path style="fill:#000000; fill-opacity:1.0000; stroke:none;fill-rule:evenodd;"
d="M 26.3500,68.8550
26.3614,68.7976
26.3939,68.7489
26.4426,68.7164
26.5000,68.7050
28.1500,68.7050
28.2074,68.7164
28.2561,68.7489
28.2886,68.7976
28.3000,68.8550
28.3000,69.1550
28.2886,69.2124
28.2561,69.2611
28.2074,69.2936
28.1500,69.3050
26.5000,69.3050
26.4426,69.2936
26.3939,69.2611
26.3614,69.2124
26.3500,69.1550
Z" /> 
<path style="fill:#000000; fill-opacity:1.0000; stroke:none;fill-rule:evenodd;"
d="M 31.3000,68.8550
31.3114,68.7976
31.3439,68.7489
31.3926,68.7164
31.4500,68.7050
33.1000,68.7050
33.1574,68.7164
33.2061,68.7489
33.2386,68.7976
33.2500,68.8550
33.2500,69.1550
33.2386,69.2124
33.2061,69.2611
33.1574,69.2936
33.1000,69.3050
31.4500,69.3050
31.3926,69.2936
31.3439,69.2611
31.3114,69.2124
31.3000,69.1550
Z" /> 
<path style="fill:#000000; fill-opacity:1.0000; stroke:none;fill-rule:evenodd;"
d="M 31.3000,67.5850
31.3114,67.5276
31.3439,67.4789
31.3926,67.4464
31.4500,67.4350
33.1000,67.4350
33.1574,67.4464
33.2061,67.4789
33.2386,67.5276
33.2500,67.5850
33.2500,67.8850
33.2386,67.9424
33.2061,67.9911
33.1574,68.0236
33.1000,68.0350
31.4500,68.0350
31.3926,68.0236
31.3439,67.9911
31.3114,67.9424
31.3000,67.8850
Z" /> 
<path style="fill:#000000; fill-opacity:1.0000; stroke:none;fill-rule:evenodd;"
d="M 31.3000,66.3150
31.3114,66.2576
31.3439,66.2089
31.3926,66.1764
31.4500,66.1650
33.1000,66.1650
33.1574,66.1764
33.2061,66.2089
33.2386,66.2576
33.2500,66.3150
33.2500,66.6150
33.2386,66.6724
33.2061,66.7211
33.1574,66.7536
33.1000,66.7650
31.4500,66.7650
31.3926,66.7536
31.3439,66.7211
31.3114,66.6724
31.3000,66.6150
Z" /> 
<path style="fill:#000000; fill-opacity:1.0000; stroke:none;fill-rule:evenodd;"
d="M 31.3000,65.0450
31.3114,64.9876
31.3439,64.9389
31.3926,64.9064
31.4500,64.8950
33.1000,64.8950
33.1574,64.9064
33.2061,64.9389
33.2386,64.9876
33.2500,65.0450
33.2500,65.3450
33.2386,65.4024
33.2061,65.4511
33.1574,65.4836
33.1000,65.4950
31.4500,65.4950
31.3926,65.4836
31.3439,65.4511
31.3114,65.4024
31.3000,65.3450
Z" /> 
<path style="fill:#000000; fill-opacity:1.0000; stroke:none;fill-rule:evenodd;"
d="M 39.6000,75.5250
39.5810,75.6207
39.5268,75.7018
39.4457,75.7560
39.3500,75.7750
38.4500,75.7750
38.3543,75.7560
38.2732,75.7018
38.2190,75.6207
38.2000,75.5250
38.2000,72.6750
38.2190,72.5793
38.2732,72.4982
38.3543,72.4440
38.4500,72.4250
39.3500,72.4250
39.4457,72.4440
39.5268,72.4982
39.5810,72.5793
39.6000,72.6750
Z" /> 
<path style="fill:#000000; fill-opacity:1.0000; stroke:none;fill-rule:evenodd;"
d="M 33.5000,75.5250
33.4810,75.6207
33.4268,75.7018
33.3457,75.7560
33.2500,75.7750
32.3500,75.7750
32.2543,75.7560
32.1732,75.7018
32.1190,75.6207
32.1000,75.5250
32.1000,72.6750
32.1190,72.5793
32.1732,72.4982
32.2543,72.4440
32.3500,72.4250
33.2500,72.4250
33.3457,72.4440
33.4268,72.4982
33.4810,72.5793
33.5000,72.6750
Z" /> 
<path style="fill:#000000; fill-opacity:1.0000; stroke:none;fill-rule:evenodd;"
d="M 39.6000,41.5250
39.5810,41.6207
39.5268,41.7018
39.4457,41.7560
39.3500,41.7750
38.4500,41.7750
38.3543,41.7560
38.2732,41.7018
38.2190,41.6207
38.2000,41.5250
38.2000,38.6750
38.2190,38.5793
38.2732,38.4982
38.3543,38.4440
38.4500,38.4250
39.3500,38.4250
39.4457,38.4440
39.5268,38.4982
39.5810,38.5793
39.6000,38.6750
Z" /> 
<path style="fill:#000000; fill-opacity:1.0000; stroke:none;fill-rule:evenodd;"
d="M 33.5000,41.5250
33.4810,41.6207
33.4268,41.7018
33.3457,41.7560
33.2500,41.7750
32.3500,41.7750
32.2543,41.7560
32.1732,41.7018
32.1190,41.6207
32.1000,41.5250
32.1000,38.6750
32.1190,38.5793
32.1732,38.4982
32.2543,38.4440
32.3500,38.4250
33.2500,38.4250
33.3457,38.4440
33.4268,38.4982
33.4810,38.5793
33.5000,38.6750
Z" /> 
<path style="fill:#000000; fill-opacity:1.0000; stroke:none;fill-rule:evenodd;"
d="M 25.6500,14.0450
25.6614,13.9876
25.6939,13.9389
25.7426,13.9064
25.8000,13.8950
27.4500,13.8950
27.5074,13.9064
27.5561,13.9389
27.5886,13.9876
27.6000,14.0450
27.6000,14.3450
27.5886,14.4024
27.5561,14.4511
27.5074,14.4836
27.4500,14.4950
25.8000,14.4950
25.7426,14.4836
25.6939,14.4511
25.6614,14.4024
25.6500,14.3450
Z" /> 
<path style="fill:#000000; fill-opacity:1.0000; stroke:none;fill-rule:evenodd;"
d="M 25.6500,15.3150
25.6614,15.2576
25.6939,15.2089
25.7426,15.1764
25.8000,15.1650
27.4500,15.1650
27.5074,15.1764
27.5561,15.2089
27.5886,15.2576
27.6000,15.3150
27.6000,15.6150
27.5886,15.6724
27.5561,15.7211
27.5074,15.7536
27.4500,15.7650
25.8000,15.7650
25.7426,15.7536
25.6939,15.7211
25.6614,15.6724
25.6500,15.6150
Z" /> 
<path style="fill:#000000; fill-opacity:1.0000; stroke:none;fill-rule:evenodd;"
d="M 25.6500,16.5850
25.6614,16.5276
25.6939,16.4789
25.7426,16.4464
25.8000,16.4350
27.4500,16.4350
27.5074,16.4464
27.5561,16.4789
27.5886,16.5276
27.6000,16.5850
27.6000,16.8850
27.5886,16.9424
27.5561,16.9911
27.5074,17.0236
27.4500,17.0350
25.8000,17.0350
25.7426,17.0236
25.6939,16.9911
25.6614,16.9424
25.6500,16.8850
Z" /> 
<path style="fill:#000000; fill-opacity:1.0000; stroke:none;fill-rule:evenodd;"
d="M 25.6500,17.8550
25.6614,17.7976
25.6939,17.7489
25.7426,17.7164
25.8000,17.7050
27.4500,17.7050
27.5074,17.7164
27.5561,17.7489
27.5886,17.7976
27.6000,17.8550
27.6000,18.1550
27.5886,18.2124
27.5561,18.2611
27.5074,18.2936
27.4500,18.3050
25.8000,18.3050
25.7426,18.2936
25.6939,18.2611
25.6614,18.2124
25.6500,18.1550
Z" /> 
<path style="fill:#000000; fill-opacity:1.0000; stroke:none;fill-rule:evenodd;"
d="M 30.6000,17.8550
30.6114,17.7976
30.6439,17.7489
30.6926,17.7164
30.7500,17.7050
32.4000,17.7050
32.4574,17.7164
32.5061,17.7489
32.5386,17.7976
32.5500,17.8550
32.5500,18.1550
32.5386,18.2124
32.5061,18.2611
32.4574,18.2936
32.4000,18.3050
30.7500,18.3050
30.6926,18.2936
30.6439,18.2611
30.6114,18.2124
30.6000,18.1550
Z" /> 
<path style="fill:#000000; fill-opacity:1.0000; stroke:none;fill-rule:evenodd;"
d="M 30.6000,16.5850
30.6114,16.5276
30.6439,16.4789
30.6926,16.4464
30.7500,16.4350
32.4000,16.4350
32.4574,16.4464
32.5061,16.4789
32.5386,16.5276
32.5500,16.5850
32.5500,16.8850
32.5386,16.9424
32.5061,16.9911
32.4574,17.0236
32.4000,17.0350
30.7500,17.0350
30.6926,17.0236
30.6439,16.9911
30.6114,16.9424
30.6000,16.8850
Z" /> 
<path style="fill:#000000; fill-opacity:1.0000; stroke:none;fill-rule:evenodd;"
d="M 30.6000,15.3150
30.6114,15.2576
30.6439,15.2089
30.6926,15.1764
30.7500,15.1650
32.4000,15.1650
32.4574,15.1764
32.5061,15.2089
32.5386,15.2576
32.5500,15.3150
32.5500,15.6150
32.5386,15.6724
32.5061,15.7211
32.4574,15.7536
32.4000,15.7650
30.7500,15.7650
30.6926,15.7536
30.6439,15.7211
30.6114,15.6724
30.6000,15.6150
Z" /> 
<path style="fill:#000000; fill-opacity:1.0000; stroke:none;fill-rule:evenodd;"
d="M 30.6000,14.0450
30.6114,13.9876
30.6439,13.9389
30.6926,13.9064
30.7500,13.8950
32.4000,13.8950
32.4574,13.9064
32.5061,13.9389
32.5386,13.9876
32.5500,14.0450
32.5500,14.3450
32.5386,14.4024
32.5061,14.4511
32.4574,14.4836
32.4000,14.4950
30.7500,14.4950
30.6926,14.4836
30.6439,14.4511
30.6114,14.4024
30.6000,14.3450
Z" /> 
<path style="fill:#000000; fill-opacity:1.0000; stroke:none;fill-rule:evenodd;"
d="M 22.6250,34.7250
22.5293,34.7060
22.4482,34.6518
22.3940,34.5707
22.3750,34.4750
22.3750,33.8000
22.3940,33.7043
22.4482,33.6232
22.5293,33.5690
22.6250,33.5500
23.5750,33.5500
23.6707,33.5690
23.7518,33.6232
23.8060,33.7043
23.8250,33.8000
23.8250,34.4750
23.8060,34.5707
23.7518,34.6518
23.6707,34.7060
23.5750,34.7250
Z" /> 
<path style="fill:#000000; fill-opacity:1.0000; stroke:none;fill-rule:evenodd;"
d="M 22.6250,32.6500
22.5293,32.6310
22.4482,32.5768
22.3940,32.4957
22.3750,32.4000
22.3750,31.7250
22.3940,31.6293
22.4482,31.5482
22.5293,31.4940
22.6250,31.4750
23.5750,31.4750
23.6707,31.4940
23.7518,31.5482
23.8060,31.6293
23.8250,31.7250
23.8250,32.4000
23.8060,32.4957
23.7518,32.5768
23.6707,32.6310
23.5750,32.6500
Z" /> 
</g>
<g style="fill:none; 
stroke:#000000; stroke-width:0.1500; stroke-opacity:1; 
stroke-linecap:round; stroke-linejoin:round;">
<path d="M0.1000 90.1000
L0.1000 0.1000
" />
<path d="M55.1000 90.1000
L0.1000 90.1000
" />
<path d="M55.1000 0.1000
L0.1000 0.1000
" />
<path d="M55.1000 0.1000
L55.1000 90.1000
" />
</g> 
</svg>
