<?xml version="1.0" standalone="no"?>
 <!DOCTYPE svg PUBLIC "-//W3C//DTD SVG 1.1//EN" 
 "http://www.w3.org/Graphics/SVG/1.1/DTD/svg11.dtd"> 
<svg
  xmlns:svg="http://www.w3.org/2000/svg"
  xmlns="http://www.w3.org/2000/svg"
  xmlns:xlink="http://www.w3.org/1999/xlink"
  version="1.1"
  width="83.3882mm" height="50.1650mm" viewBox="0.0000 0.0000 83.3882 50.1650">
<title>SVG Image created as usb2J1708_rev4-F_Paste.svg date 2025/01/13 18:55:28 </title>
  <desc>Image generated by PCBNEW </desc>
<g style="fill:#000000; fill-opacity:1.0000;stroke:#000000; stroke-opacity:1.0000;
stroke-linecap:round; stroke-linejoin:round;"
 transform="translate(0 0) scale(1 1)">
<path style="fill:#000000; fill-opacity:1.0000; stroke:none;fill-rule:evenodd;"
d="M 66.0030,25.0660
65.9840,25.1617
65.9298,25.2428
65.8487,25.2970
65.7530,25.3160
64.8530,25.3160
64.7573,25.2970
64.6762,25.2428
64.6220,25.1617
64.6030,25.0660
64.6030,22.2160
64.6220,22.1203
64.6762,22.0392
64.7573,21.9850
64.8530,21.9660
65.7530,21.9660
65.8487,21.9850
65.9298,22.0392
65.9840,22.1203
66.0030,22.2160
Z" /> 
<path style="fill:#000000; fill-opacity:1.0000; stroke:none;fill-rule:evenodd;"
d="M 59.9030,25.0660
59.8840,25.1617
59.8298,25.2428
59.7487,25.2970
59.6530,25.3160
58.7530,25.3160
58.6573,25.2970
58.5762,25.2428
58.5220,25.1617
58.5030,25.0660
58.5030,22.2160
58.5220,22.1203
58.5762,22.0392
58.6573,21.9850
58.7530,21.9660
59.6530,21.9660
59.7487,21.9850
59.8298,22.0392
59.8840,22.1203
59.9030,22.2160
Z" /> 
<path style="fill:#000000; fill-opacity:1.0000; stroke:none;fill-rule:evenodd;"
d="M 48.6648,10.8832
48.6458,10.9789
48.5916,11.0600
48.5105,11.1142
48.4148,11.1332
47.7148,11.1332
47.6191,11.1142
47.5380,11.0600
47.4838,10.9789
47.4648,10.8832
47.4648,9.9832
47.4838,9.8875
47.5380,9.8064
47.6191,9.7522
47.7148,9.7332
48.4148,9.7332
48.5105,9.7522
48.5916,9.8064
48.6458,9.8875
48.6648,9.9832
Z" /> 
<path style="fill:#000000; fill-opacity:1.0000; stroke:none;fill-rule:evenodd;"
d="M 46.6648,10.8832
46.6458,10.9789
46.5916,11.0600
46.5105,11.1142
46.4148,11.1332
45.7148,11.1332
45.6191,11.1142
45.5380,11.0600
45.4838,10.9789
45.4648,10.8832
45.4648,9.9832
45.4838,9.8875
45.5380,9.8064
45.6191,9.7522
45.7148,9.7332
46.4148,9.7332
46.5105,9.7522
46.5916,9.8064
46.6458,9.8875
46.6648,9.9832
Z" /> 
<path style="fill:#000000; fill-opacity:1.0000; stroke:none;fill-rule:evenodd;"
d="M 25.8800,12.8575
25.7843,12.8385
25.7032,12.7843
25.6490,12.7032
25.6300,12.6075
25.6300,11.9325
25.6490,11.8368
25.7032,11.7557
25.7843,11.7015
25.8800,11.6825
26.8300,11.6825
26.9257,11.7015
27.0068,11.7557
27.0610,11.8368
27.0800,11.9325
27.0800,12.6075
27.0610,12.7032
27.0068,12.7843
26.9257,12.8385
26.8300,12.8575
Z" /> 
<path style="fill:#000000; fill-opacity:1.0000; stroke:none;fill-rule:evenodd;"
d="M 25.8800,10.7825
25.7843,10.7635
25.7032,10.7093
25.6490,10.6282
25.6300,10.5325
25.6300,9.8575
25.6490,9.7618
25.7032,9.6807
25.7843,9.6265
25.8800,9.6075
26.8300,9.6075
26.9257,9.6265
27.0068,9.6807
27.0610,9.7618
27.0800,9.8575
27.0800,10.5325
27.0610,10.6282
27.0068,10.7093
26.9257,10.7635
26.8300,10.7825
Z" /> 
<path style="fill:#000000; fill-opacity:1.0000; stroke:none;fill-rule:evenodd;"
d="M 48.6186,13.3312
48.6300,13.2738
48.6625,13.2251
48.7112,13.1926
48.7686,13.1812
50.4186,13.1812
50.4760,13.1926
50.5247,13.2251
50.5572,13.2738
50.5686,13.3312
50.5686,13.6312
50.5572,13.6886
50.5247,13.7373
50.4760,13.7698
50.4186,13.7812
48.7686,13.7812
48.7112,13.7698
48.6625,13.7373
48.6300,13.6886
48.6186,13.6312
Z" /> 
<path style="fill:#000000; fill-opacity:1.0000; stroke:none;fill-rule:evenodd;"
d="M 48.6186,14.6012
48.6300,14.5438
48.6625,14.4951
48.7112,14.4626
48.7686,14.4512
50.4186,14.4512
50.4760,14.4626
50.5247,14.4951
50.5572,14.5438
50.5686,14.6012
50.5686,14.9012
50.5572,14.9586
50.5247,15.0073
50.4760,15.0398
50.4186,15.0512
48.7686,15.0512
48.7112,15.0398
48.6625,15.0073
48.6300,14.9586
48.6186,14.9012
Z" /> 
<path style="fill:#000000; fill-opacity:1.0000; stroke:none;fill-rule:evenodd;"
d="M 48.6186,15.8712
48.6300,15.8138
48.6625,15.7651
48.7112,15.7326
48.7686,15.7212
50.4186,15.7212
50.4760,15.7326
50.5247,15.7651
50.5572,15.8138
50.5686,15.8712
50.5686,16.1712
50.5572,16.2286
50.5247,16.2773
50.4760,16.3098
50.4186,16.3212
48.7686,16.3212
48.7112,16.3098
48.6625,16.2773
48.6300,16.2286
48.6186,16.1712
Z" /> 
<path style="fill:#000000; fill-opacity:1.0000; stroke:none;fill-rule:evenodd;"
d="M 48.6186,17.1412
48.6300,17.0838
48.6625,17.0351
48.7112,17.0026
48.7686,16.9912
50.4186,16.9912
50.4760,17.0026
50.5247,17.0351
50.5572,17.0838
50.5686,17.1412
50.5686,17.4412
50.5572,17.4986
50.5247,17.5473
50.4760,17.5798
50.4186,17.5912
48.7686,17.5912
48.7112,17.5798
48.6625,17.5473
48.6300,17.4986
48.6186,17.4412
Z" /> 
<path style="fill:#000000; fill-opacity:1.0000; stroke:none;fill-rule:evenodd;"
d="M 53.5686,17.1412
53.5800,17.0838
53.6125,17.0351
53.6612,17.0026
53.7186,16.9912
55.3686,16.9912
55.4260,17.0026
55.4747,17.0351
55.5072,17.0838
55.5186,17.1412
55.5186,17.4412
55.5072,17.4986
55.4747,17.5473
55.4260,17.5798
55.3686,17.5912
53.7186,17.5912
53.6612,17.5798
53.6125,17.5473
53.5800,17.4986
53.5686,17.4412
Z" /> 
<path style="fill:#000000; fill-opacity:1.0000; stroke:none;fill-rule:evenodd;"
d="M 53.5686,15.8712
53.5800,15.8138
53.6125,15.7651
53.6612,15.7326
53.7186,15.7212
55.3686,15.7212
55.4260,15.7326
55.4747,15.7651
55.5072,15.8138
55.5186,15.8712
55.5186,16.1712
55.5072,16.2286
55.4747,16.2773
55.4260,16.3098
55.3686,16.3212
53.7186,16.3212
53.6612,16.3098
53.6125,16.2773
53.5800,16.2286
53.5686,16.1712
Z" /> 
<path style="fill:#000000; fill-opacity:1.0000; stroke:none;fill-rule:evenodd;"
d="M 53.5686,14.6012
53.5800,14.5438
53.6125,14.4951
53.6612,14.4626
53.7186,14.4512
55.3686,14.4512
55.4260,14.4626
55.4747,14.4951
55.5072,14.5438
55.5186,14.6012
55.5186,14.9012
55.5072,14.9586
55.4747,15.0073
55.4260,15.0398
55.3686,15.0512
53.7186,15.0512
53.6612,15.0398
53.6125,15.0073
53.5800,14.9586
53.5686,14.9012
Z" /> 
<path style="fill:#000000; fill-opacity:1.0000; stroke:none;fill-rule:evenodd;"
d="M 53.5686,13.3312
53.5800,13.2738
53.6125,13.2251
53.6612,13.1926
53.7186,13.1812
55.3686,13.1812
55.4260,13.1926
55.4747,13.2251
55.5072,13.2738
55.5186,13.3312
55.5186,13.6312
55.5072,13.6886
55.4747,13.7373
55.4260,13.7698
55.3686,13.7812
53.7186,13.7812
53.6612,13.7698
53.6125,13.7373
53.5800,13.6886
53.5686,13.6312
Z" /> 
<path style="fill:#000000; fill-opacity:1.0000; stroke:none;fill-rule:evenodd;"
d="M 46.4734,14.3196
46.5691,14.3386
46.6502,14.3928
46.7044,14.4739
46.7234,14.5696
46.7234,15.2696
46.7044,15.3653
46.6502,15.4464
46.5691,15.5006
46.4734,15.5196
45.5734,15.5196
45.4777,15.5006
45.3966,15.4464
45.3424,15.3653
45.3234,15.2696
45.3234,14.5696
45.3424,14.4739
45.3966,14.3928
45.4777,14.3386
45.5734,14.3196
Z" /> 
<path style="fill:#000000; fill-opacity:1.0000; stroke:none;fill-rule:evenodd;"
d="M 46.4734,16.3196
46.5691,16.3386
46.6502,16.3928
46.7044,16.4739
46.7234,16.5696
46.7234,17.2696
46.7044,17.3653
46.6502,17.4464
46.5691,17.5006
46.4734,17.5196
45.5734,17.5196
45.4777,17.5006
45.3966,17.4464
45.3424,17.3653
45.3234,17.2696
45.3234,16.5696
45.3424,16.4739
45.3966,16.3928
45.4777,16.3386
45.5734,16.3196
Z" /> 
<path style="fill:#000000; fill-opacity:1.0000; stroke:none;fill-rule:evenodd;"
d="M 50.4528,24.1084
50.4718,24.0127
50.5260,23.9316
50.6071,23.8774
50.7028,23.8584
51.5028,23.8584
51.5985,23.8774
51.6796,23.9316
51.7338,24.0127
51.7528,24.1084
51.7528,25.3584
51.7338,25.4541
51.6796,25.5352
51.5985,25.5894
51.5028,25.6084
50.7028,25.6084
50.6071,25.5894
50.5260,25.5352
50.4718,25.4541
50.4528,25.3584
Z" /> 
<path style="fill:#000000; fill-opacity:1.0000; stroke:none;fill-rule:evenodd;"
d="M 53.5528,24.1084
53.5718,24.0127
53.6260,23.9316
53.7071,23.8774
53.8028,23.8584
54.6028,23.8584
54.6985,23.8774
54.7796,23.9316
54.8338,24.0127
54.8528,24.1084
54.8528,25.3584
54.8338,25.4541
54.7796,25.5352
54.6985,25.5894
54.6028,25.6084
53.8028,25.6084
53.7071,25.5894
53.6260,25.5352
53.5718,25.4541
53.5528,25.3584
Z" /> 
<path style="fill:#000000; fill-opacity:1.0000; stroke:none;fill-rule:evenodd;"
d="M 22.1300,13.5575
22.0343,13.5385
21.9532,13.4843
21.8990,13.4032
21.8800,13.3075
21.8800,12.6325
21.8990,12.5368
21.9532,12.4557
22.0343,12.4015
22.1300,12.3825
23.0800,12.3825
23.1757,12.4015
23.2568,12.4557
23.3110,12.5368
23.3300,12.6325
23.3300,13.3075
23.3110,13.4032
23.2568,13.4843
23.1757,13.5385
23.0800,13.5575
Z" /> 
<path style="fill:#000000; fill-opacity:1.0000; stroke:none;fill-rule:evenodd;"
d="M 22.1300,11.4825
22.0343,11.4635
21.9532,11.4093
21.8990,11.3282
21.8800,11.2325
21.8800,10.5575
21.8990,10.4618
21.9532,10.3807
22.0343,10.3265
22.1300,10.3075
23.0800,10.3075
23.1757,10.3265
23.2568,10.3807
23.3110,10.4618
23.3300,10.5575
23.3300,11.2325
23.3110,11.3282
23.2568,11.4093
23.1757,11.4635
23.0800,11.4825
Z" /> 
<path style="fill:#000000; fill-opacity:1.0000; stroke:none;fill-rule:evenodd;"
d="M 36.2675,9.2100
36.2485,9.3057
36.1943,9.3868
36.1132,9.4410
36.0175,9.4600
35.3425,9.4600
35.2468,9.4410
35.1657,9.3868
35.1115,9.3057
35.0925,9.2100
35.0925,8.2600
35.1115,8.1643
35.1657,8.0832
35.2468,8.0290
35.3425,8.0100
36.0175,8.0100
36.1132,8.0290
36.1943,8.0832
36.2485,8.1643
36.2675,8.2600
Z" /> 
<path style="fill:#000000; fill-opacity:1.0000; stroke:none;fill-rule:evenodd;"
d="M 34.1925,9.2100
34.1735,9.3057
34.1193,9.3868
34.0382,9.4410
33.9425,9.4600
33.2675,9.4600
33.1718,9.4410
33.0907,9.3868
33.0365,9.3057
33.0175,9.2100
33.0175,8.2600
33.0365,8.1643
33.0907,8.0832
33.1718,8.0290
33.2675,8.0100
33.9425,8.0100
34.0382,8.0290
34.1193,8.0832
34.1735,8.1643
34.1925,8.2600
Z" /> 
<path style="fill:#000000; fill-opacity:1.0000; stroke:none;fill-rule:evenodd;"
d="M 54.3190,29.3460
54.3000,29.4417
54.2458,29.5228
54.1647,29.5770
54.0690,29.5960
53.2690,29.5960
53.1733,29.5770
53.0922,29.5228
53.0380,29.4417
53.0190,29.3460
53.0190,28.0960
53.0380,28.0003
53.0922,27.9192
53.1733,27.8650
53.2690,27.8460
54.0690,27.8460
54.1647,27.8650
54.2458,27.9192
54.3000,28.0003
54.3190,28.0960
Z" /> 
<path style="fill:#000000; fill-opacity:1.0000; stroke:none;fill-rule:evenodd;"
d="M 51.2190,29.3460
51.2000,29.4417
51.1458,29.5228
51.0647,29.5770
50.9690,29.5960
50.1690,29.5960
50.0733,29.5770
49.9922,29.5228
49.9380,29.4417
49.9190,29.3460
49.9190,28.0960
49.9380,28.0003
49.9922,27.9192
50.0733,27.8650
50.1690,27.8460
50.9690,27.8460
51.0647,27.8650
51.1458,27.9192
51.2000,28.0003
51.2190,28.0960
Z" /> 
<path style="fill:#000000; fill-opacity:1.0000; stroke:none;fill-rule:evenodd;"
d="M 57.1492,12.9046
57.1682,12.8089
57.2224,12.7278
57.3035,12.6736
57.3992,12.6546
58.0742,12.6546
58.1699,12.6736
58.2510,12.7278
58.3052,12.8089
58.3242,12.9046
58.3242,13.8546
58.3052,13.9503
58.2510,14.0314
58.1699,14.0856
58.0742,14.1046
57.3992,14.1046
57.3035,14.0856
57.2224,14.0314
57.1682,13.9503
57.1492,13.8546
Z" /> 
<path style="fill:#000000; fill-opacity:1.0000; stroke:none;fill-rule:evenodd;"
d="M 59.2242,12.9046
59.2432,12.8089
59.2974,12.7278
59.3785,12.6736
59.4742,12.6546
60.1492,12.6546
60.2449,12.6736
60.3260,12.7278
60.3802,12.8089
60.3992,12.9046
60.3992,13.8546
60.3802,13.9503
60.3260,14.0314
60.2449,14.0856
60.1492,14.1046
59.4742,14.1046
59.3785,14.0856
59.2974,14.0314
59.2432,13.9503
59.2242,13.8546
Z" /> 
<path style="fill:#000000; fill-opacity:1.0000; stroke:none;fill-rule:evenodd;"
d="M 18.9575,23.7600
18.9385,23.8557
18.8843,23.9368
18.8032,23.9910
18.7075,24.0100
18.0325,24.0100
17.9368,23.9910
17.8557,23.9368
17.8015,23.8557
17.7825,23.7600
17.7825,22.8100
17.8015,22.7143
17.8557,22.6332
17.9368,22.5790
18.0325,22.5600
18.7075,22.5600
18.8032,22.5790
18.8843,22.6332
18.9385,22.7143
18.9575,22.8100
Z" /> 
<path style="fill:#000000; fill-opacity:1.0000; stroke:none;fill-rule:evenodd;"
d="M 16.8825,23.7600
16.8635,23.8557
16.8093,23.9368
16.7282,23.9910
16.6325,24.0100
15.9575,24.0100
15.8618,23.9910
15.7807,23.9368
15.7265,23.8557
15.7075,23.7600
15.7075,22.8100
15.7265,22.7143
15.7807,22.6332
15.8618,22.5790
15.9575,22.5600
16.6325,22.5600
16.7282,22.5790
16.8093,22.6332
16.8635,22.7143
16.8825,22.8100
Z" /> 
<path style="fill:#000000; fill-opacity:1.0000; stroke:none;fill-rule:evenodd;"
d="M 59.9096,15.2090
60.0053,15.2280
60.0864,15.2822
60.1406,15.3633
60.1596,15.4590
60.1596,16.1340
60.1406,16.2297
60.0864,16.3108
60.0053,16.3650
59.9096,16.3840
58.9596,16.3840
58.8639,16.3650
58.7828,16.3108
58.7286,16.2297
58.7096,16.1340
58.7096,15.4590
58.7286,15.3633
58.7828,15.2822
58.8639,15.2280
58.9596,15.2090
Z" /> 
<path style="fill:#000000; fill-opacity:1.0000; stroke:none;fill-rule:evenodd;"
d="M 59.9096,17.2840
60.0053,17.3030
60.0864,17.3572
60.1406,17.4383
60.1596,17.5340
60.1596,18.2090
60.1406,18.3047
60.0864,18.3858
60.0053,18.4400
59.9096,18.4590
58.9596,18.4590
58.8639,18.4400
58.7828,18.3858
58.7286,18.3047
58.7096,18.2090
58.7096,17.5340
58.7286,17.4383
58.7828,17.3572
58.8639,17.3030
58.9596,17.2840
Z" /> 
<path style="fill:#000000; fill-opacity:1.0000; stroke:none;fill-rule:evenodd;"
d="M 29.7950,11.9700
29.8064,11.9126
29.8389,11.8639
29.8876,11.8314
29.9450,11.8200
31.5950,11.8200
31.6524,11.8314
31.7011,11.8639
31.7336,11.9126
31.7450,11.9700
31.7450,12.2700
31.7336,12.3274
31.7011,12.3761
31.6524,12.4086
31.5950,12.4200
29.9450,12.4200
29.8876,12.4086
29.8389,12.3761
29.8064,12.3274
29.7950,12.2700
Z" /> 
<path style="fill:#000000; fill-opacity:1.0000; stroke:none;fill-rule:evenodd;"
d="M 29.7950,13.2400
29.8064,13.1826
29.8389,13.1339
29.8876,13.1014
29.9450,13.0900
31.5950,13.0900
31.6524,13.1014
31.7011,13.1339
31.7336,13.1826
31.7450,13.2400
31.7450,13.5400
31.7336,13.5974
31.7011,13.6461
31.6524,13.6786
31.5950,13.6900
29.9450,13.6900
29.8876,13.6786
29.8389,13.6461
29.8064,13.5974
29.7950,13.5400
Z" /> 
<path style="fill:#000000; fill-opacity:1.0000; stroke:none;fill-rule:evenodd;"
d="M 29.7950,14.5100
29.8064,14.4526
29.8389,14.4039
29.8876,14.3714
29.9450,14.3600
31.5950,14.3600
31.6524,14.3714
31.7011,14.4039
31.7336,14.4526
31.7450,14.5100
31.7450,14.8100
31.7336,14.8674
31.7011,14.9161
31.6524,14.9486
31.5950,14.9600
29.9450,14.9600
29.8876,14.9486
29.8389,14.9161
29.8064,14.8674
29.7950,14.8100
Z" /> 
<path style="fill:#000000; fill-opacity:1.0000; stroke:none;fill-rule:evenodd;"
d="M 29.7950,15.7800
29.8064,15.7226
29.8389,15.6739
29.8876,15.6414
29.9450,15.6300
31.5950,15.6300
31.6524,15.6414
31.7011,15.6739
31.7336,15.7226
31.7450,15.7800
31.7450,16.0800
31.7336,16.1374
31.7011,16.1861
31.6524,16.2186
31.5950,16.2300
29.9450,16.2300
29.8876,16.2186
29.8389,16.1861
29.8064,16.1374
29.7950,16.0800
Z" /> 
<path style="fill:#000000; fill-opacity:1.0000; stroke:none;fill-rule:evenodd;"
d="M 29.7950,17.0500
29.8064,16.9926
29.8389,16.9439
29.8876,16.9114
29.9450,16.9000
31.5950,16.9000
31.6524,16.9114
31.7011,16.9439
31.7336,16.9926
31.7450,17.0500
31.7450,17.3500
31.7336,17.4074
31.7011,17.4561
31.6524,17.4886
31.5950,17.5000
29.9450,17.5000
29.8876,17.4886
29.8389,17.4561
29.8064,17.4074
29.7950,17.3500
Z" /> 
<path style="fill:#000000; fill-opacity:1.0000; stroke:none;fill-rule:evenodd;"
d="M 29.7950,18.3200
29.8064,18.2626
29.8389,18.2139
29.8876,18.1814
29.9450,18.1700
31.5950,18.1700
31.6524,18.1814
31.7011,18.2139
31.7336,18.2626
31.7450,18.3200
31.7450,18.6200
31.7336,18.6774
31.7011,18.7261
31.6524,18.7586
31.5950,18.7700
29.9450,18.7700
29.8876,18.7586
29.8389,18.7261
29.8064,18.6774
29.7950,18.6200
Z" /> 
<path style="fill:#000000; fill-opacity:1.0000; stroke:none;fill-rule:evenodd;"
d="M 29.7950,19.5900
29.8064,19.5326
29.8389,19.4839
29.8876,19.4514
29.9450,19.4400
31.5950,19.4400
31.6524,19.4514
31.7011,19.4839
31.7336,19.5326
31.7450,19.5900
31.7450,19.8900
31.7336,19.9474
31.7011,19.9961
31.6524,20.0286
31.5950,20.0400
29.9450,20.0400
29.8876,20.0286
29.8389,19.9961
29.8064,19.9474
29.7950,19.8900
Z" /> 
<path style="fill:#000000; fill-opacity:1.0000; stroke:none;fill-rule:evenodd;"
d="M 29.7950,20.8600
29.8064,20.8026
29.8389,20.7539
29.8876,20.7214
29.9450,20.7100
31.5950,20.7100
31.6524,20.7214
31.7011,20.7539
31.7336,20.8026
31.7450,20.8600
31.7450,21.1600
31.7336,21.2174
31.7011,21.2661
31.6524,21.2986
31.5950,21.3100
29.9450,21.3100
29.8876,21.2986
29.8389,21.2661
29.8064,21.2174
29.7950,21.1600
Z" /> 
<path style="fill:#000000; fill-opacity:1.0000; stroke:none;fill-rule:evenodd;"
d="M 34.7450,20.8600
34.7564,20.8026
34.7889,20.7539
34.8376,20.7214
34.8950,20.7100
36.5450,20.7100
36.6024,20.7214
36.6511,20.7539
36.6836,20.8026
36.6950,20.8600
36.6950,21.1600
36.6836,21.2174
36.6511,21.2661
36.6024,21.2986
36.5450,21.3100
34.8950,21.3100
34.8376,21.2986
34.7889,21.2661
34.7564,21.2174
34.7450,21.1600
Z" /> 
<path style="fill:#000000; fill-opacity:1.0000; stroke:none;fill-rule:evenodd;"
d="M 34.7450,19.5900
34.7564,19.5326
34.7889,19.4839
34.8376,19.4514
34.8950,19.4400
36.5450,19.4400
36.6024,19.4514
36.6511,19.4839
36.6836,19.5326
36.6950,19.5900
36.6950,19.8900
36.6836,19.9474
36.6511,19.9961
36.6024,20.0286
36.5450,20.0400
34.8950,20.0400
34.8376,20.0286
34.7889,19.9961
34.7564,19.9474
34.7450,19.8900
Z" /> 
<path style="fill:#000000; fill-opacity:1.0000; stroke:none;fill-rule:evenodd;"
d="M 34.7450,18.3200
34.7564,18.2626
34.7889,18.2139
34.8376,18.1814
34.8950,18.1700
36.5450,18.1700
36.6024,18.1814
36.6511,18.2139
36.6836,18.2626
36.6950,18.3200
36.6950,18.6200
36.6836,18.6774
36.6511,18.7261
36.6024,18.7586
36.5450,18.7700
34.8950,18.7700
34.8376,18.7586
34.7889,18.7261
34.7564,18.6774
34.7450,18.6200
Z" /> 
<path style="fill:#000000; fill-opacity:1.0000; stroke:none;fill-rule:evenodd;"
d="M 34.7450,17.0500
34.7564,16.9926
34.7889,16.9439
34.8376,16.9114
34.8950,16.9000
36.5450,16.9000
36.6024,16.9114
36.6511,16.9439
36.6836,16.9926
36.6950,17.0500
36.6950,17.3500
36.6836,17.4074
36.6511,17.4561
36.6024,17.4886
36.5450,17.5000
34.8950,17.5000
34.8376,17.4886
34.7889,17.4561
34.7564,17.4074
34.7450,17.3500
Z" /> 
<path style="fill:#000000; fill-opacity:1.0000; stroke:none;fill-rule:evenodd;"
d="M 34.7450,15.7800
34.7564,15.7226
34.7889,15.6739
34.8376,15.6414
34.8950,15.6300
36.5450,15.6300
36.6024,15.6414
36.6511,15.6739
36.6836,15.7226
36.6950,15.7800
36.6950,16.0800
36.6836,16.1374
36.6511,16.1861
36.6024,16.2186
36.5450,16.2300
34.8950,16.2300
34.8376,16.2186
34.7889,16.1861
34.7564,16.1374
34.7450,16.0800
Z" /> 
<path style="fill:#000000; fill-opacity:1.0000; stroke:none;fill-rule:evenodd;"
d="M 34.7450,14.5100
34.7564,14.4526
34.7889,14.4039
34.8376,14.3714
34.8950,14.3600
36.5450,14.3600
36.6024,14.3714
36.6511,14.4039
36.6836,14.4526
36.6950,14.5100
36.6950,14.8100
36.6836,14.8674
36.6511,14.9161
36.6024,14.9486
36.5450,14.9600
34.8950,14.9600
34.8376,14.9486
34.7889,14.9161
34.7564,14.8674
34.7450,14.8100
Z" /> 
<path style="fill:#000000; fill-opacity:1.0000; stroke:none;fill-rule:evenodd;"
d="M 34.7450,13.2400
34.7564,13.1826
34.7889,13.1339
34.8376,13.1014
34.8950,13.0900
36.5450,13.0900
36.6024,13.1014
36.6511,13.1339
36.6836,13.1826
36.6950,13.2400
36.6950,13.5400
36.6836,13.5974
36.6511,13.6461
36.6024,13.6786
36.5450,13.6900
34.8950,13.6900
34.8376,13.6786
34.7889,13.6461
34.7564,13.5974
34.7450,13.5400
Z" /> 
<path style="fill:#000000; fill-opacity:1.0000; stroke:none;fill-rule:evenodd;"
d="M 34.7450,11.9700
34.7564,11.9126
34.7889,11.8639
34.8376,11.8314
34.8950,11.8200
36.5450,11.8200
36.6024,11.8314
36.6511,11.8639
36.6836,11.9126
36.6950,11.9700
36.6950,12.2700
36.6836,12.3274
36.6511,12.3761
36.6024,12.4086
36.5450,12.4200
34.8950,12.4200
34.8376,12.4086
34.7889,12.3761
34.7564,12.3274
34.7450,12.2700
Z" /> 
<path style="fill:#000000; fill-opacity:1.0000; stroke:none;fill-rule:evenodd;"
d="M 64.9870,30.1460
64.9680,30.2417
64.9138,30.3228
64.8327,30.3770
64.7370,30.3960
63.8370,30.3960
63.7413,30.3770
63.6602,30.3228
63.6060,30.2417
63.5870,30.1460
63.5870,27.2960
63.6060,27.2003
63.6602,27.1192
63.7413,27.0650
63.8370,27.0460
64.7370,27.0460
64.8327,27.0650
64.9138,27.1192
64.9680,27.2003
64.9870,27.2960
Z" /> 
<path style="fill:#000000; fill-opacity:1.0000; stroke:none;fill-rule:evenodd;"
d="M 58.8870,30.1460
58.8680,30.2417
58.8138,30.3228
58.7327,30.3770
58.6370,30.3960
57.7370,30.3960
57.6413,30.3770
57.5602,30.3228
57.5060,30.2417
57.4870,30.1460
57.4870,27.2960
57.5060,27.2003
57.5602,27.1192
57.6413,27.0650
57.7370,27.0460
58.6370,27.0460
58.7327,27.0650
58.8138,27.1192
58.8680,27.2003
58.8870,27.2960
Z" /> 
</g>
<g style="fill:none; 
stroke:#000000; stroke-width:0.1500; stroke-opacity:1; 
stroke-linecap:round; stroke-linejoin:round;">
<path d="M3.3150 50.0750
L3.3150 0.0750
" />
<path d="M3.3150 0.0750
L83.3150 0.0750
" />
<path d="M83.3150 0.0750
L83.3150 50.0750
" />
<path d="M83.3150 50.0750
L3.3150 50.0750
" />
</g> 
</svg>
